<?xml version="1.0" encoding="utf-8"?>
<!-- Generator: Adobe Illustrator 19.0.0, SVG Export Plug-In . SVG Version: 6.00 Build 0)  -->
<svg version="1.1" id="Calque_1" xmlns="http://www.w3.org/2000/svg" xmlns:xlink="http://www.w3.org/1999/xlink" x="0px" y="0px"
	 viewBox="0 0 731.9 383.9" style="enable-background:new 0 0 731.9 383.9;" xml:space="preserve">
<style type="text/css">
	.st0{fill:#FFCC1B;}
	.st1{fill:#FFFFFF;}
</style>
<g id="XMLID_292_">
	<path id="XMLID_297_" class="st0" d="M175.3,373H10.9c-1.7,0-3-1.3-3-3c0-1.7,1.3-3,3-3h162.9l31.9-42.5c1-1.3,2.9-1.6,4.2-0.6
		c1.3,1,1.6,2.9,0.6,4.2l-32.8,43.7C177.1,372.6,176.2,373,175.3,373z"/>
	<g id="XMLID_684_">
		<path id="XMLID_685_" class="st0" d="M228.1,365.6c-1.5-1.5-2.2-3.8-2.2-6.9V349c0-3.2,0.7-5.5,2.2-7c1.5-1.5,3.8-2.2,6.9-2.2h5.1
			c2.6,0,4.6,0.5,5.9,1.6c1.3,1.1,2.1,2.8,2.3,5.1c0.1,0.5,0,0.9-0.3,1.2c-0.3,0.3-0.7,0.4-1.2,0.4c-0.9,0-1.4-0.5-1.6-1.5
			c-0.1-1.4-0.6-2.4-1.4-3c-0.8-0.5-2.1-0.8-3.8-0.8h-5.1c-1.5,0-2.7,0.1-3.6,0.5c-0.9,0.4-1.5,1-1.9,1.9c-0.4,0.9-0.6,2.1-0.6,3.7
			v9.6c0,1.6,0.2,2.8,0.6,3.7c0.4,0.9,1,1.5,1.9,1.9c0.9,0.4,2.1,0.6,3.7,0.6h5c1.8,0,3.1-0.3,3.8-0.8c0.8-0.5,1.2-1.5,1.4-3
			c0.1-1,0.7-1.5,1.6-1.5c0.5,0,0.9,0.1,1.2,0.4c0.3,0.3,0.4,0.7,0.3,1.2c-0.2,2.4-1,4.1-2.3,5.1c-1.3,1.1-3.3,1.6-5.9,1.6h-5
			C231.9,367.8,229.5,367.1,228.1,365.6z"/>
		<path id="XMLID_687_" class="st0" d="M253.8,365.9c-1.3-1.3-2-3.3-2-6V355c0-2.7,0.6-4.8,1.9-6c1.3-1.3,3.3-1.9,6-1.9h3.4
			c2.7,0,4.8,0.6,6,1.9s1.9,3.3,1.9,6v4.8c0,2.7-0.6,4.7-1.9,6c-1.3,1.3-3.3,2-6,2h-3.4C257.1,367.8,255.1,367.2,253.8,365.9z
			 M263.3,364.8c1.3,0,2.3-0.2,3-0.5c0.7-0.3,1.2-0.8,1.5-1.5c0.3-0.7,0.5-1.7,0.5-3V355c0-1.3-0.2-2.3-0.5-3
			c-0.3-0.7-0.8-1.2-1.5-1.5c-0.7-0.3-1.7-0.5-3-0.5h-3.4c-1.3,0-2.3,0.1-3,0.4c-0.7,0.3-1.2,0.8-1.5,1.5c-0.3,0.7-0.5,1.7-0.5,3
			v4.8c0,1.3,0.2,2.2,0.5,2.9c0.3,0.7,0.8,1.2,1.5,1.5c0.7,0.3,1.7,0.5,3,0.5H263.3z"/>
		<path id="XMLID_690_" class="st0" d="M294.8,349c1.3,1.3,1.9,3.3,1.9,6v11.3c0,0.5-0.1,0.8-0.4,1.1c-0.3,0.3-0.6,0.4-1.1,0.4
			c-0.5,0-0.8-0.1-1.1-0.4c-0.3-0.3-0.4-0.6-0.4-1.1V355c0-1.3-0.2-2.3-0.5-3c-0.3-0.7-0.8-1.2-1.5-1.5c-0.7-0.3-1.7-0.5-3-0.5h-1.2
			c-2.1,0-3.7,0.3-5,0.9c-1.2,0.6-1.8,1.4-1.8,2.5v12.8c0,0.5-0.1,0.8-0.4,1.1c-0.3,0.3-0.6,0.4-1.1,0.4c-0.5,0-0.8-0.1-1.1-0.4
			c-0.3-0.3-0.4-0.6-0.4-1.1v-17.7c0-0.5,0.1-0.8,0.4-1.1c0.3-0.3,0.6-0.4,1.1-0.4c0.5,0,0.8,0.1,1.1,0.4c0.3,0.3,0.4,0.6,0.4,1.1
			v1.2c1.5-1.8,3.7-2.7,6.8-2.7h1.2C291.5,347.1,293.5,347.7,294.8,349z"/>
		<path id="XMLID_705_" class="st0" d="M320.7,349c1.3,1.3,1.9,3.3,1.9,6v11.3c0,0.5-0.1,0.8-0.4,1.1c-0.3,0.3-0.6,0.4-1.1,0.4
			c-0.5,0-0.8-0.1-1.1-0.4c-0.3-0.3-0.4-0.6-0.4-1.1V355c0-1.3-0.2-2.3-0.5-3c-0.3-0.7-0.8-1.2-1.5-1.5c-0.7-0.3-1.7-0.5-3-0.5h-1.2
			c-2.1,0-3.7,0.3-5,0.9c-1.2,0.6-1.8,1.4-1.8,2.5v12.8c0,0.5-0.1,0.8-0.4,1.1c-0.3,0.3-0.6,0.4-1.1,0.4c-0.5,0-0.8-0.1-1.1-0.4
			c-0.3-0.3-0.4-0.6-0.4-1.1v-17.7c0-0.5,0.1-0.8,0.4-1.1c0.3-0.3,0.6-0.4,1.1-0.4c0.5,0,0.8,0.1,1.1,0.4c0.3,0.3,0.4,0.6,0.4,1.1
			v1.2c1.5-1.8,3.7-2.7,6.8-2.7h1.2C317.4,347.1,319.4,347.7,320.7,349z"/>
		<path id="XMLID_707_" class="st0" d="M331.8,358.6v1.2c0,1.3,0.2,2.2,0.5,2.9c0.3,0.7,0.8,1.2,1.5,1.5c0.7,0.3,1.7,0.5,3,0.5h3.4
			c1.6,0,2.7-0.2,3.4-0.5c0.7-0.3,1.2-0.9,1.4-1.8c0.1-0.5,0.3-0.8,0.5-1.1c0.2-0.2,0.6-0.4,1.1-0.4c0.5,0,0.9,0.1,1.2,0.4
			c0.3,0.3,0.4,0.7,0.3,1.2c-0.3,1.8-1.1,3.1-2.4,3.9c-1.3,0.8-3.1,1.3-5.5,1.3h-3.4c-2.7,0-4.7-0.6-6-1.9c-1.3-1.3-2-3.3-2-6V355
			c0-2.7,0.7-4.8,2-6.1c1.3-1.3,3.3-1.9,6-1.9h3.4c2.7,0,4.8,0.6,6.1,1.9c1.3,1.3,1.9,3.3,1.9,6v2.1c0,0.5-0.1,0.8-0.4,1.1
			c-0.3,0.3-0.6,0.4-1.1,0.4H331.8z M331.8,355.6h13.4V355c0-1.3-0.2-2.3-0.5-3c-0.3-0.7-0.8-1.2-1.5-1.5c-0.7-0.3-1.7-0.5-3-0.5
			h-3.4c-1.3,0-2.3,0.1-3,0.4c-0.7,0.3-1.2,0.8-1.5,1.5c-0.3,0.7-0.5,1.7-0.5,3V355.6z"/>
		<path id="XMLID_710_" class="st0" d="M355.8,365.9c-1.3-1.3-2-3.3-2-6V355c0-2.7,0.7-4.8,2-6c1.3-1.3,3.3-1.9,6-1.9h3.4
			c2.1,0,3.7,0.4,4.9,1c1.2,0.7,1.9,1.8,2.2,3.2c0.1,0.5,0,0.9-0.3,1.2c-0.3,0.3-0.7,0.4-1.2,0.4c-0.4,0-0.7-0.1-1-0.3
			c-0.2-0.2-0.4-0.6-0.6-1c-0.2-0.5-0.6-0.9-1.2-1.1c-0.6-0.2-1.5-0.3-2.7-0.3h-3.4c-1.3,0-2.3,0.1-3,0.4c-0.7,0.3-1.2,0.8-1.5,1.5
			c-0.3,0.7-0.5,1.7-0.5,3v4.8c0,1.3,0.2,2.3,0.5,3c0.3,0.7,0.8,1.2,1.5,1.5c0.7,0.3,1.7,0.5,3,0.5h3.4c1.2,0,2.2-0.1,2.7-0.3
			c0.6-0.2,1-0.6,1.2-1.1c0.2-0.5,0.4-0.8,0.6-1c0.2-0.2,0.6-0.3,1-0.3c0.5,0,0.9,0.1,1.2,0.4c0.3,0.3,0.4,0.7,0.3,1.2
			c-0.3,1.5-1,2.5-2.2,3.2c-1.2,0.7-2.8,1-4.9,1h-3.4C359.1,367.8,357.1,367.2,355.8,365.9z"/>
		<path id="XMLID_712_" class="st0" d="M388.2,366.3c0,0.5-0.1,0.8-0.4,1.1c-0.3,0.3-0.6,0.4-1.1,0.4c-2.7,0-4.7-0.6-5.9-1.9
			c-1.3-1.3-1.9-3.2-1.9-5.9v-9.9h-2.2c-0.5,0-0.8-0.1-1.1-0.4c-0.3-0.3-0.4-0.6-0.4-1.1s0.1-0.8,0.4-1.1c0.3-0.3,0.6-0.4,1.1-0.4
			h2.2v-3.6c0-1,0.5-1.5,1.5-1.5c1,0,1.5,0.5,1.5,1.5v3.6h5c0.5,0,0.8,0.1,1.1,0.4c0.3,0.3,0.4,0.6,0.4,1.1s-0.1,0.8-0.4,1.1
			c-0.3,0.3-0.6,0.4-1.1,0.4h-5v9.9c0,1.3,0.1,2.2,0.4,2.9c0.3,0.7,0.8,1.2,1.5,1.4c0.7,0.3,1.7,0.4,2.9,0.4
			C387.7,364.8,388.2,365.3,388.2,366.3z"/>
		<path id="XMLID_714_" class="st0" d="M393.2,343c-0.3-0.3-0.5-0.8-0.5-1.3v-1.2c0-1.1,0.6-1.7,1.8-1.7h1.1c0.6,0,1,0.1,1.3,0.4
			s0.4,0.7,0.4,1.3v1.2c0,0.6-0.2,1-0.5,1.3c-0.3,0.3-0.7,0.5-1.3,0.5h-1.1C394,343.5,393.5,343.3,393.2,343z M394,367.4
			c-0.3-0.3-0.4-0.6-0.4-1.1v-17.7c0-0.5,0.1-0.8,0.4-1.1c0.3-0.3,0.6-0.4,1.1-0.4s0.8,0.1,1.1,0.4c0.3,0.3,0.4,0.6,0.4,1.1v17.7
			c0,0.5-0.1,0.8-0.4,1.1s-0.6,0.4-1.1,0.4S394.2,367.7,394,367.4z"/>
		<path id="XMLID_717_" class="st0" d="M421,349c1.3,1.3,1.9,3.3,1.9,6v11.3c0,0.5-0.1,0.8-0.4,1.1c-0.3,0.3-0.6,0.4-1.1,0.4
			c-0.5,0-0.8-0.1-1.1-0.4c-0.3-0.3-0.4-0.6-0.4-1.1V355c0-1.3-0.2-2.3-0.5-3c-0.3-0.7-0.8-1.2-1.5-1.5c-0.7-0.3-1.7-0.5-3-0.5h-1.2
			c-2.1,0-3.7,0.3-5,0.9c-1.2,0.6-1.8,1.4-1.8,2.5v12.8c0,0.5-0.1,0.8-0.4,1.1c-0.3,0.3-0.6,0.4-1.1,0.4c-0.5,0-0.8-0.1-1.1-0.4
			c-0.3-0.3-0.4-0.6-0.4-1.1v-17.7c0-0.5,0.1-0.8,0.4-1.1c0.3-0.3,0.6-0.4,1.1-0.4c0.5,0,0.8,0.1,1.1,0.4c0.3,0.3,0.4,0.6,0.4,1.1
			v1.2c1.5-1.8,3.7-2.7,6.8-2.7h1.2C417.7,347.1,419.7,347.7,421,349z"/>
		<path id="XMLID_719_" class="st0" d="M448,347.5c0.3,0.3,0.4,0.6,0.4,1.1v21.8c0,2-0.5,3.5-1.4,4.4c-0.9,0.9-2.4,1.4-4.4,1.4h-7.8
			c-1.7,0-3-0.3-3.9-1c-0.9-0.7-1.5-1.7-1.7-3.2c-0.1-0.5,0-0.9,0.3-1.2c0.3-0.3,0.7-0.4,1.2-0.4c0.4,0,0.8,0.1,1,0.3
			c0.2,0.2,0.4,0.6,0.6,1.1c0.1,0.5,0.4,0.8,0.8,1c0.4,0.2,1,0.3,1.9,0.3h7.8c1.1,0,1.9-0.2,2.2-0.6c0.4-0.4,0.5-1.1,0.5-2.2v-5.3
			c-1.5,1.8-3.7,2.7-6.8,2.7H437c-2.7,0-4.7-0.6-6-1.9c-1.3-1.3-2-3.3-2-6V355c0-2.7,0.7-4.8,2-6.1c1.3-1.3,3.3-1.9,6-1.9h3.4
			c2.2,0,3.9,0.6,5,1.9v-0.4c0-0.5,0.1-0.8,0.4-1.1c0.3-0.3,0.6-0.4,1.1-0.4C447.4,347.1,447.8,347.2,448,347.5z M443.6,363.9
			c1.2-0.6,1.8-1.4,1.8-2.5v-7.9c0-1.3-0.4-2.2-1.2-2.7c-0.8-0.5-2.1-0.8-3.7-0.8H437c-1.3,0-2.3,0.1-3,0.4
			c-0.7,0.3-1.2,0.8-1.5,1.5c-0.3,0.7-0.5,1.7-0.5,3v4.8c0,1.3,0.2,2.2,0.5,2.9c0.3,0.7,0.8,1.2,1.5,1.5c0.7,0.3,1.7,0.5,3,0.5h1.6
			C440.7,364.8,442.3,364.5,443.6,363.9z"/>
		<path id="XMLID_722_" class="st0" d="M476.7,366.3c0,0.5-0.1,0.8-0.4,1.1s-0.6,0.4-1.1,0.4c-2.7,0-4.7-0.6-5.9-1.9
			c-1.3-1.3-1.9-3.2-1.9-5.9v-9.9h-2.2c-0.5,0-0.8-0.1-1.1-0.4c-0.3-0.3-0.4-0.6-0.4-1.1s0.1-0.8,0.4-1.1c0.3-0.3,0.6-0.4,1.1-0.4
			h2.2v-3.6c0-1,0.5-1.5,1.5-1.5c1,0,1.5,0.5,1.5,1.5v3.6h5c0.5,0,0.8,0.1,1.1,0.4c0.3,0.3,0.4,0.6,0.4,1.1s-0.1,0.8-0.4,1.1
			c-0.3,0.3-0.6,0.4-1.1,0.4h-5v9.9c0,1.3,0.1,2.2,0.4,2.9s0.8,1.2,1.5,1.4c0.7,0.3,1.7,0.4,2.9,0.4
			C476.2,364.8,476.7,365.3,476.7,366.3z"/>
		<path id="XMLID_724_" class="st0" d="M482.6,358.6v1.2c0,1.3,0.2,2.2,0.5,2.9c0.3,0.7,0.8,1.2,1.5,1.5c0.7,0.3,1.7,0.5,3,0.5h3.4
			c1.6,0,2.7-0.2,3.4-0.5c0.7-0.3,1.2-0.9,1.4-1.8c0.1-0.5,0.3-0.8,0.5-1.1c0.2-0.2,0.6-0.4,1.1-0.4c0.5,0,0.9,0.1,1.2,0.4
			c0.3,0.3,0.4,0.7,0.3,1.2c-0.3,1.8-1.1,3.1-2.4,3.9c-1.3,0.8-3.1,1.3-5.5,1.3h-3.4c-2.7,0-4.7-0.6-6-1.9c-1.3-1.3-2-3.3-2-6V355
			c0-2.7,0.7-4.8,2-6.1c1.3-1.3,3.3-1.9,6-1.9h3.4c2.7,0,4.8,0.6,6,1.9s1.9,3.3,1.9,6v2.1c0,0.5-0.1,0.8-0.4,1.1
			c-0.3,0.3-0.6,0.4-1.1,0.4H482.6z M482.6,355.6h13.4V355c0-1.3-0.2-2.3-0.5-3c-0.3-0.7-0.8-1.2-1.5-1.5c-0.7-0.3-1.7-0.5-3-0.5
			h-3.4c-1.3,0-2.3,0.1-3,0.4c-0.7,0.3-1.2,0.8-1.5,1.5c-0.3,0.7-0.5,1.7-0.5,3V355.6z"/>
		<path id="XMLID_727_" class="st0" d="M506.6,365.9c-1.3-1.3-2-3.3-2-6V355c0-2.7,0.7-4.8,2-6c1.3-1.3,3.3-1.9,6-1.9h3.4
			c2.1,0,3.7,0.4,4.9,1c1.2,0.7,1.9,1.8,2.2,3.2c0.1,0.5,0,0.9-0.3,1.2s-0.7,0.4-1.2,0.4c-0.4,0-0.7-0.1-1-0.3
			c-0.2-0.2-0.4-0.6-0.6-1c-0.2-0.5-0.6-0.9-1.2-1.1c-0.6-0.2-1.5-0.3-2.8-0.3h-3.4c-1.3,0-2.3,0.1-3,0.4c-0.7,0.3-1.2,0.8-1.5,1.5
			c-0.3,0.7-0.5,1.7-0.5,3v4.8c0,1.3,0.2,2.3,0.5,3c0.3,0.7,0.8,1.2,1.5,1.5c0.7,0.3,1.7,0.5,3,0.5h3.4c1.2,0,2.2-0.1,2.8-0.3
			c0.6-0.2,1-0.6,1.2-1.1c0.2-0.5,0.4-0.8,0.6-1c0.2-0.2,0.6-0.3,1-0.3c0.5,0,0.9,0.1,1.2,0.4c0.3,0.3,0.4,0.7,0.3,1.2
			c-0.3,1.5-1,2.5-2.2,3.2c-1.2,0.7-2.8,1-4.9,1h-3.4C509.9,367.8,507.9,367.2,506.6,365.9z"/>
		<path id="XMLID_729_" class="st0" d="M545.8,349c1.3,1.3,1.9,3.3,1.9,6v11.3c0,0.5-0.1,0.8-0.4,1.1c-0.3,0.3-0.6,0.4-1.1,0.4
			c-0.5,0-0.8-0.1-1.1-0.4s-0.4-0.6-0.4-1.1V355c0-1.3-0.2-2.3-0.5-3c-0.3-0.7-0.8-1.2-1.5-1.5c-0.7-0.3-1.7-0.5-3-0.5h-1.2
			c-2,0-3.5,0.3-4.6,0.8c-1.1,0.6-1.8,1.4-2,2.6c-0.1,0.2-0.1,0.4-0.2,0.5v12.3c0,0.5-0.1,0.8-0.4,1.1s-0.6,0.4-1.1,0.4
			c-0.5,0-0.8-0.1-1.1-0.4c-0.3-0.3-0.4-0.6-0.4-1.1v-26.4c0-0.5,0.1-0.8,0.4-1.1c0.3-0.3,0.6-0.4,1.1-0.4c0.5,0,0.8,0.1,1.1,0.4
			c0.3,0.3,0.4,0.6,0.4,1.1v8.8c1.7-1.1,4-1.7,6.8-1.7h1.2C542.5,347.1,544.6,347.7,545.8,349z"/>
		<path id="XMLID_731_" class="st0" d="M571.8,349c1.3,1.3,1.9,3.3,1.9,6v11.3c0,0.5-0.1,0.8-0.4,1.1c-0.3,0.3-0.6,0.4-1.1,0.4
			c-0.5,0-0.8-0.1-1.1-0.4s-0.4-0.6-0.4-1.1V355c0-1.3-0.2-2.3-0.5-3c-0.3-0.7-0.8-1.2-1.5-1.5c-0.7-0.3-1.7-0.5-3-0.5h-1.2
			c-2.1,0-3.7,0.3-5,0.9c-1.2,0.6-1.9,1.4-1.9,2.5v12.8c0,0.5-0.1,0.8-0.4,1.1c-0.3,0.3-0.6,0.4-1.1,0.4s-0.8-0.1-1.1-0.4
			c-0.3-0.3-0.4-0.6-0.4-1.1v-17.7c0-0.5,0.1-0.8,0.4-1.1c0.3-0.3,0.6-0.4,1.1-0.4s0.8,0.1,1.1,0.4c0.3,0.3,0.4,0.6,0.4,1.1v1.2
			c1.5-1.8,3.7-2.7,6.8-2.7h1.2C568.5,347.1,570.5,347.7,571.8,349z"/>
		<path id="XMLID_733_" class="st0" d="M581.8,365.9c-1.3-1.3-2-3.3-2-6V355c0-2.7,0.6-4.8,1.9-6c1.3-1.3,3.3-1.9,6.1-1.9h3.4
			c2.7,0,4.8,0.6,6.1,1.9c1.3,1.3,1.9,3.3,1.9,6v4.8c0,2.7-0.6,4.7-1.9,6c-1.3,1.3-3.3,2-6.1,2h-3.4
			C585.1,367.8,583.1,367.2,581.8,365.9z M591.2,364.8c1.3,0,2.3-0.2,3-0.5c0.7-0.3,1.2-0.8,1.5-1.5c0.3-0.7,0.5-1.7,0.5-3V355
			c0-1.3-0.2-2.3-0.5-3c-0.3-0.7-0.8-1.2-1.5-1.5c-0.7-0.3-1.7-0.5-3-0.5h-3.4c-1.3,0-2.3,0.1-3,0.4c-0.7,0.3-1.2,0.8-1.5,1.5
			c-0.3,0.7-0.5,1.7-0.5,3v4.8c0,1.3,0.2,2.2,0.5,2.9c0.3,0.7,0.8,1.2,1.5,1.5c0.7,0.3,1.7,0.5,3,0.5H591.2z"/>
		<path id="XMLID_736_" class="st0" d="M607.2,366.3c-1-1-1.5-2.5-1.5-4.6v-21.8c0-0.5,0.1-0.8,0.4-1.1c0.3-0.3,0.6-0.4,1.1-0.4
			c0.5,0,0.8,0.1,1.1,0.4c0.3,0.3,0.4,0.6,0.4,1.1v21.8c0,1.2,0.2,2,0.7,2.5c0.4,0.4,1.3,0.7,2.5,0.7c0.5,0,0.9,0.1,1.2,0.4
			c0.3,0.3,0.4,0.6,0.4,1.1s-0.1,0.8-0.4,1.1c-0.3,0.3-0.7,0.4-1.2,0.4C609.8,367.8,608.2,367.3,607.2,366.3z"/>
		<path id="XMLID_738_" class="st0" d="M618.5,365.9c-1.3-1.3-2-3.3-2-6V355c0-2.7,0.6-4.8,1.9-6c1.3-1.3,3.3-1.9,6.1-1.9h3.4
			c2.7,0,4.8,0.6,6.1,1.9c1.3,1.3,1.9,3.3,1.9,6v4.8c0,2.7-0.6,4.7-1.9,6c-1.3,1.3-3.3,2-6.1,2h-3.4
			C621.8,367.8,619.8,367.2,618.5,365.9z M628,364.8c1.3,0,2.3-0.2,3-0.5c0.7-0.3,1.2-0.8,1.5-1.5c0.3-0.7,0.5-1.7,0.5-3V355
			c0-1.3-0.2-2.3-0.5-3c-0.3-0.7-0.8-1.2-1.5-1.5c-0.7-0.3-1.7-0.5-3-0.5h-3.4c-1.3,0-2.3,0.1-3,0.4c-0.7,0.3-1.2,0.8-1.5,1.5
			c-0.3,0.7-0.5,1.7-0.5,3v4.8c0,1.3,0.2,2.2,0.5,2.9c0.3,0.7,0.8,1.2,1.5,1.5c0.7,0.3,1.7,0.5,3,0.5H628z"/>
		<path id="XMLID_741_" class="st0" d="M660.6,347.5c0.3,0.3,0.4,0.6,0.4,1.1v21.8c0,2-0.5,3.5-1.4,4.4c-0.9,0.9-2.4,1.4-4.4,1.4
			h-7.8c-1.7,0-3-0.3-3.9-1c-0.9-0.7-1.5-1.7-1.7-3.2c-0.1-0.5,0-0.9,0.3-1.2c0.3-0.3,0.7-0.4,1.2-0.4c0.4,0,0.8,0.1,1,0.3
			c0.2,0.2,0.4,0.6,0.6,1.1c0.1,0.5,0.4,0.8,0.8,1c0.4,0.2,1,0.3,1.9,0.3h7.8c1.1,0,1.9-0.2,2.2-0.6c0.4-0.4,0.5-1.1,0.5-2.2v-5.3
			c-1.5,1.8-3.7,2.7-6.8,2.7h-1.6c-2.7,0-4.7-0.6-6-1.9c-1.3-1.3-2-3.3-2-6V355c0-2.7,0.7-4.8,2-6.1s3.3-1.9,6-1.9h3.4
			c2.2,0,3.9,0.6,5,1.9v-0.4c0-0.5,0.1-0.8,0.4-1.1c0.3-0.3,0.6-0.4,1.1-0.4C660,347.1,660.4,347.2,660.6,347.5z M656.2,363.9
			c1.2-0.6,1.8-1.4,1.8-2.5v-7.9c0-1.3-0.4-2.2-1.2-2.7c-0.8-0.5-2.1-0.8-3.7-0.8h-3.4c-1.3,0-2.3,0.1-3,0.4
			c-0.7,0.3-1.2,0.8-1.5,1.5c-0.3,0.7-0.5,1.7-0.5,3v4.8c0,1.3,0.2,2.2,0.5,2.9c0.3,0.7,0.8,1.2,1.5,1.5c0.7,0.3,1.7,0.5,3,0.5h1.6
			C653.3,364.8,654.9,364.5,656.2,363.9z"/>
		<path id="XMLID_744_" class="st0" d="M667.6,343c-0.3-0.3-0.5-0.8-0.5-1.3v-1.2c0-1.1,0.6-1.7,1.8-1.7h1.1c0.6,0,1,0.1,1.3,0.4
			s0.4,0.7,0.4,1.3v1.2c0,0.6-0.2,1-0.5,1.3c-0.3,0.3-0.7,0.5-1.3,0.5h-1.1C668.4,343.5,667.9,343.3,667.6,343z M668.4,367.4
			c-0.3-0.3-0.4-0.6-0.4-1.1v-17.7c0-0.5,0.1-0.8,0.4-1.1c0.3-0.3,0.6-0.4,1.1-0.4c0.5,0,0.8,0.1,1.1,0.4c0.3,0.3,0.4,0.6,0.4,1.1
			v17.7c0,0.5-0.1,0.8-0.4,1.1s-0.6,0.4-1.1,0.4C669,367.8,668.6,367.7,668.4,367.4z"/>
		<path id="XMLID_747_" class="st0" d="M680.5,358.6v1.2c0,1.3,0.2,2.2,0.5,2.9c0.3,0.7,0.8,1.2,1.5,1.5c0.7,0.3,1.7,0.5,3,0.5h3.4
			c1.6,0,2.7-0.2,3.4-0.5c0.7-0.3,1.2-0.9,1.4-1.8c0.1-0.5,0.3-0.8,0.5-1.1c0.2-0.2,0.6-0.4,1.1-0.4c0.5,0,0.9,0.1,1.2,0.4
			c0.3,0.3,0.4,0.7,0.3,1.2c-0.3,1.8-1.1,3.1-2.4,3.9c-1.3,0.8-3.1,1.3-5.5,1.3h-3.4c-2.7,0-4.7-0.6-6-1.9c-1.3-1.3-2-3.3-2-6V355
			c0-2.7,0.7-4.8,2-6.1c1.3-1.3,3.3-1.9,6-1.9h3.4c2.7,0,4.8,0.6,6,1.9s1.9,3.3,1.9,6v2.1c0,0.5-0.1,0.8-0.4,1.1
			c-0.3,0.3-0.6,0.4-1.1,0.4H680.5z M680.5,355.6h13.4V355c0-1.3-0.2-2.3-0.5-3c-0.3-0.7-0.8-1.2-1.5-1.5c-0.7-0.3-1.7-0.5-3-0.5
			h-3.4c-1.3,0-2.3,0.1-3,0.4c-0.7,0.3-1.2,0.8-1.5,1.5c-0.3,0.7-0.5,1.7-0.5,3V355.6z"/>
		<path id="XMLID_750_" class="st0" d="M704.1,366.7c-1-0.7-1.6-1.9-1.8-3.3c-0.1-0.5,0-0.9,0.3-1.2c0.3-0.3,0.7-0.4,1.2-0.4
			c0.5,0,0.8,0.1,1,0.4c0.2,0.2,0.4,0.6,0.5,1.1c0.1,0.6,0.4,1,0.9,1.2c0.4,0.2,1.1,0.3,2,0.3h6.9c1.2,0,2-0.2,2.4-0.6
			c0.4-0.4,0.6-1.2,0.6-2.4c0-1.2-0.2-2-0.6-2.4c-0.4-0.4-1.2-0.6-2.4-0.6h-6.8c-3.9,0-5.8-1.9-5.8-5.8c0-2,0.5-3.5,1.4-4.4
			c1-1,2.4-1.4,4.4-1.4h6.6c3.3,0,5.1,1.4,5.6,4.2c0.1,0.5,0,0.9-0.3,1.2c-0.3,0.3-0.7,0.4-1.2,0.4c-0.5,0-0.8-0.1-1-0.3
			c-0.2-0.2-0.4-0.6-0.6-1.1c-0.1-0.5-0.4-0.8-0.8-1c-0.4-0.2-1-0.3-1.8-0.3h-6.6c-1.1,0-1.9,0.2-2.2,0.5c-0.4,0.4-0.6,1.1-0.6,2.3
			c0,1.1,0.2,1.8,0.6,2.2c0.4,0.4,1.1,0.6,2.2,0.6h6.8c2,0,3.6,0.5,4.6,1.5c1,1,1.5,2.5,1.5,4.6c0,2-0.5,3.6-1.5,4.6
			c-1,1-2.5,1.5-4.6,1.5h-6.9C706.4,367.8,705,367.4,704.1,366.7z"/>
	</g>
	<path id="XMLID_294_" class="st0" d="M411.8,57.4c-0.6,0-1.3-0.2-1.8-0.6c-1.3-1-1.6-2.9-0.6-4.2l32.8-43.7
		c0.6-0.8,1.5-1.2,2.4-1.2H721c1.7,0,3,1.3,3,3s-1.3,3-3,3H446l-31.9,42.5C413.6,57,412.7,57.4,411.8,57.4z"/>
	<g id="XMLID_675_">
		<path id="XMLID_676_" class="st1" d="M161.9,124v142.6c0,3.2-0.9,5.7-2.6,7.4c-1.8,1.8-4.2,2.6-7.4,2.6c-3.2,0-5.7-0.9-7.4-2.6
			c-1.8-1.8-2.6-4.2-2.6-7.4V155.5l-44.2,65.1c-1.6,2.2-3.4,3.9-5.3,4.9c-1.9,1-4.2,1.6-7,1.6c-1.9,0-3.6-0.5-5.2-1.6
			c-1.5-1-3.1-2.7-4.7-4.9L31,155.2v111.4c0,3.2-0.9,5.7-2.6,7.4c-1.8,1.8-4.2,2.6-7.4,2.6c-3.2,0-5.7-0.9-7.4-2.6
			c-1.8-1.8-2.6-4.2-2.6-7.4V124c0-3.2,0.9-5.7,2.6-7.4c1.8-1.8,4.2-2.6,7.4-2.6c4.5,0,8.2,2.2,11,6.5l54.7,82.3l54.7-82.3
			c2.7-4.3,6.8-6.5,12.2-6.5C159.1,113.9,161.9,117.3,161.9,124z"/>
		<path id="XMLID_678_" class="st1" d="M339.5,259.2c1.8,1.8,2.6,4.2,2.6,7.4c0,3.2-0.9,5.7-2.6,7.4c-1.8,1.8-4.2,2.6-7.4,2.6h-86.2
			c-3.2,0-5.7-0.9-7.4-2.6c-1.8-1.8-2.6-4.2-2.6-7.4V124c0-3.2,0.9-5.7,2.6-7.4c1.8-1.8,4.2-2.6,7.4-2.6h86.2c3.2,0,5.7,0.9,7.4,2.6
			c1.8,1.8,2.6,4.2,2.6,7.4c0,3.2-0.9,5.7-2.6,7.4c-1.8,1.8-4.2,2.6-7.4,2.6H256v50.4h47.8c3.2,0,5.7,0.9,7.4,2.6
			c1.8,1.8,2.6,4.2,2.6,7.4s-0.9,5.7-2.6,7.4c-1.8,1.8-4.2,2.6-7.4,2.6H256v51.8h76.1C335.3,256.5,337.7,257.4,339.5,259.2z"/>
		<path id="XMLID_680_" class="st1" d="M413.1,268.4c-7.6-5.5-12.4-14-14.3-25.6c-0.3-3.4,0.4-6,2.2-7.8c1.8-1.8,4.3-2.8,7.7-2.8
			c3.2,0,5.6,0.8,7.2,2.3c1.6,1.5,2.7,4,3.4,7.6c1.1,5.4,3.6,9.2,7.6,11.3c3.9,2.1,10,3.1,18.4,3.1h34.6c7,0,12.4-0.8,16.2-2.4
			c3.8-1.6,6.4-4.3,8-8c1.6-3.8,2.4-9.1,2.4-16c0-10.2-1.9-17.3-5.8-21.1c-3.8-3.8-10.8-5.8-20.9-5.8h-29.8c-15,0-26.2-3.7-33.6-11
			c-7.4-7.4-11-18.6-11-33.8c0-15,3.6-26.2,10.9-33.5c7.3-7.3,18.4-10.9,33.5-10.9h28.6c25.3,0,39.8,10.6,43.7,31.7
			c0.5,3.4-0.2,6-1.9,7.8c-1.8,1.8-4.4,2.8-7.9,2.8c-3.2,0-5.6-0.8-7.2-2.4c-1.6-1.6-2.6-4.1-3.1-7.4c-1.3-4.6-3.7-7.8-7.2-9.6
			c-3.5-1.8-9-2.6-16.3-2.6h-28.6c-6.6,0-11.6,0.7-15,2.2c-3.4,1.4-5.8,3.9-7.2,7.3c-1.4,3.4-2,8.4-2,14.8c0,6.6,0.7,11.6,2.2,15
			c1.4,3.4,3.9,5.9,7.3,7.4c3.4,1.5,8.4,2.3,15,2.3h29.8c15.8,0,27.6,3.8,35.3,11.5c7.7,7.7,11.5,19.5,11.5,35.5
			c0,15.8-3.8,27.6-11.5,35.2c-7.7,7.6-19.4,11.4-35.3,11.4h-34.6C431.4,276.7,420.7,273.9,413.1,268.4z"/>
		<path id="XMLID_682_" class="st1" d="M602,263.6c-8.7-8.7-13.1-22.3-13.1-40.7v-55.2c0-18.4,4.4-32,13.1-40.8
			c8.7-8.8,22.2-13.1,40.4-13h29c15,0,26.5,3.1,34.4,9.4c7.9,6.2,12.5,16,13.8,29.3c0.5,3.4-0.2,5.9-1.9,7.7
			c-1.8,1.8-4.3,2.6-7.7,2.6c-3.2,0-5.6-0.8-7.3-2.5c-1.7-1.7-2.8-4.2-3.2-7.6c-0.8-7.2-3.3-12.1-7.4-14.8c-4.2-2.6-11-4-20.6-4h-29
			c-8.6-0.2-15.4,0.8-20.2,2.9c-4.8,2.1-8.2,5.5-10.2,10.3c-2,4.8-3,11.6-3,20.4v55.2c0,8.8,1,15.6,3.1,20.3
			c2.1,4.7,5.5,8.1,10.2,10.2c4.7,2.1,11.5,3.1,20.3,3.1h28.8c7.7,0,13.6-0.8,17.6-2.5c4.1-1.7,7-4.6,8.6-8.6
			c1.7-4.1,2.5-10,2.5-17.6v-11.3l-18.7-0.2c-6.7,0-10.1-3.4-10.1-10.1c0-3.2,0.9-5.7,2.6-7.4c1.8-1.8,4.2-2.6,7.4-2.6l28.8,0.2
			c3.2,0,5.7,0.9,7.4,2.6c1.8,1.8,2.6,4.2,2.6,7.4v21.4c0,17-4,29.4-11.9,37.2c-7.9,7.8-20.3,11.8-37.1,11.8h-28.8
			C624.3,276.7,610.7,272.3,602,263.6z"/>
	</g>
	<path id="XMLID_913_" class="st0" d="M157.3,349H10.9c-1.7,0-3-1.3-3-3c0-1.7,1.3-3,3-3h146.4c1.7,0,3,1.3,3,3
		C160.3,347.7,158.9,349,157.3,349z"/>
	<path id="XMLID_914_" class="st0" d="M721,37.7H462.5c-1.7,0-3-1.3-3-3s1.3-3,3-3H721c1.7,0,3,1.3,3,3S722.6,37.7,721,37.7z"/>
</g>
</svg>
