<svg xmlns="http://www.w3.org/2000/svg" id="Layer_1" data-name="Layer 1" viewBox="0 0 400 400"><defs><style>.cls-1{fill:#dfcdf7}.cls-2{fill:none;stroke:#ffa744;stroke-linecap:round;stroke-linejoin:round;stroke-width:10px}.cls-3{fill:#491e8c}.cls-4{fill:#ffa744}.cls-5{fill:#fff}</style></defs><title>Artboard 1 copy 17</title><path d="M362.14,28.8a9.07,9.07,0,0,1,9.06,9.06V380.94a9.07,9.07,0,0,1-9.06,9.06H19.06A9.07,9.07,0,0,1,10,380.94V37.86a9.07,9.07,0,0,1,9.06-9.06H362.14m0-10H19.06A19.06,19.06,0,0,0,0,37.86V380.94A19.06,19.06,0,0,0,19.06,400H362.14a19.06,19.06,0,0,0,19.06-19.06V37.86A19.06,19.06,0,0,0,362.14,18.8Z" class="cls-1"/><rect width="70.32" height="70.32" x="155.44" y="281.26" class="cls-1" rx="7" ry="7"/><rect width="70.32" height="70.32" x="49.95" y="281.26" class="cls-1" rx="7" ry="7"/><rect width="70.32" height="70.32" x="208.18" y="175.78" class="cls-1" rx="7" ry="7"/><rect width="70.32" height="70.32" x="102.7" y="175.78" class="cls-1" rx="7" ry="7"/><rect width="70.32" height="70.32" x="155.44" y="70.29" class="cls-1" rx="7" ry="7"/><rect width="70.32" height="70.32" x="260.92" y="281.26" class="cls-1" rx="7" ry="7"/><rect width="70.32" height="70.32" x="155.44" y="281.26" class="cls-1" rx="7" ry="7"/><rect width="70.32" height="70.32" x="49.95" y="281.26" class="cls-1" rx="7" ry="7"/><line x1="190.6" x2="190.6" y1="316.42" y2="105.45" class="cls-2"/><line x1="85.11" x2="296.08" y1="316.42" y2="316.42" class="cls-2"/><line x1="243.34" x2="137.86" y1="210.94" y2="210.94" class="cls-2"/><rect width="35.01" height="35.01" x="278.58" y="298.92" class="cls-3" rx="3.49" ry="3.49"/><rect width="35.01" height="35.01" x="173.1" y="298.92" class="cls-3" rx="3.49" ry="3.49"/><rect width="35.01" height="35.01" x="173.1" y="298.92" class="cls-3" rx="3.49" ry="3.49"/><rect width="35.01" height="35.01" x="67.61" y="298.92" class="cls-3" rx="3.49" ry="3.49"/><rect width="35.01" height="35.01" x="67.61" y="298.92" class="cls-3" rx="3.49" ry="3.49"/><rect width="35.01" height="35.01" x="225.84" y="193.43" class="cls-3" rx="3.49" ry="3.49"/><rect width="35.01" height="35.01" x="120.35" y="193.43" class="cls-3" rx="3.49" ry="3.49"/><rect width="35.01" height="35.01" x="173.1" y="87.95" class="cls-3" rx="3.49" ry="3.49"/><circle cx="325" cy="75" r="75" class="cls-4"/><path d="M290.44,77.38a3.75,3.75,0,0,1,0-5.3l5.3-5.3a3.75,3.75,0,0,1,5.3,0l16.42,16.42L352.64,48a3.75,3.75,0,0,1,5.3,0l5.3,5.3a3.75,3.75,0,0,1,0,5.3l-43.13,43.12a3.73,3.73,0,0,1-5.3,0Z" class="cls-5"/></svg>