<svg xmlns="http://www.w3.org/2000/svg" id="Layer_1" data-name="Layer 1" viewBox="0 0 400 400"><defs><style>.cls-1,.cls-4{fill:none;stroke-width:10px}.cls-1{stroke:#ffa744;stroke-linecap:round;stroke-linejoin:round}.cls-2{fill:#ffa744}.cls-3{fill:#491e8c}.cls-4{stroke:#dfcdf7;stroke-miterlimit:10}</style></defs><title>Artboard 1 copy 16</title><path d="M288.83,75.41a153.62,153.62,0,0,1,50.1,60.4" class="cls-1"/><polygon points="288.81 128.79 298.71 127.3 291.28 78.55 340.44 74.7 339.65 64.72 279.77 69.42 288.81 128.79" class="cls-2"/><path d="M66,126.13a153.75,153.75,0,0,1,54.24-56.71" class="cls-1"/><polygon points="118.99 119.92 116.35 110.27 68.81 123.33 59.25 74.95 49.44 76.89 61.08 135.81 118.99 119.92" class="cls-2"/><path d="M110.34,324A153.54,153.54,0,0,1,59,259.56" class="cls-1"/><polygon points="110.61 270.62 100.71 272.07 107.89 320.85 58.71 324.44 59.45 334.43 119.34 330.03 110.61 270.62" class="cls-2"/><path d="M337.08,268a153.7,153.7,0,0,1-56.43,62" class="cls-1"/><polygon points="284.39 276.55 287.45 286.08 334.38 270.96 346.03 318.88 355.75 316.51 341.56 258.15 284.39 276.55" class="cls-2"/><path d="M250,365a20,20,0,0,1-20,20H172.5A22.51,22.51,0,0,1,165,341.26c0-.42,0-.84,0-1.26a25,25,0,0,1,46.68-12.47A15,15,0,0,1,234,345.4,20,20,0,0,1,250,365Z" class="cls-3"/><path d="M400,215a20,20,0,0,1-20,20H322.5A22.51,22.51,0,0,1,315,191.26c0-.42,0-.84,0-1.26a25,25,0,0,1,46.68-12.47A15,15,0,0,1,384,195.4,20,20,0,0,1,400,215Z" class="cls-3"/><path d="M100,215a20,20,0,0,1-20,20H22.5A22.51,22.51,0,0,1,15,191.26c0-.42,0-.84,0-1.26a25,25,0,0,1,46.68-12.47A15,15,0,0,1,84,195.4,20,20,0,0,1,100,215Z" class="cls-3"/><path d="M250,65a20,20,0,0,1-20,20H172.5A22.51,22.51,0,0,1,165,41.26c0-.42,0-.84,0-1.26a25,25,0,0,1,46.68-12.47A15,15,0,0,1,234,45.4,20,20,0,0,1,250,65Z" class="cls-3"/><circle cx="200" cy="200" r="75" class="cls-4"/></svg>