<svg id="Layer_1" data-name="Layer 1" xmlns="http://www.w3.org/2000/svg" viewBox="0 0 400 400"><defs><style>.cls-1{fill:none;stroke:#ffa744;stroke-linecap:round;stroke-linejoin:round;stroke-width:10.81px;}.cls-2{fill:#dfcdf7;}.cls-3{fill:#491e8c;}</style></defs><title>Artboard 1 copy 19</title><path class="cls-1" d="M324.54,82.6a176.32,176.32,0,0,1,37.75,193.1"/><path class="cls-1" d="M37.71,275.7A176.32,176.32,0,0,1,75.46,82.6"/><path class="cls-2" d="M88.46,351.79H55.36a16,16,0,0,1-16.07-16.07V319.64A32.18,32.18,0,0,1,71.43,287.5h32.14a32,32,0,0,1,22.64,9.33A73.65,73.65,0,0,0,88.46,351.79ZM55.36,239.29A32.14,32.14,0,1,1,87.5,271.43,32.18,32.18,0,0,1,55.36,239.29Zm305.36,80.36v16.07a16,16,0,0,1-16.07,16.07H311.5a73.5,73.5,0,0,0-37.71-55,32,32,0,0,1,22.64-9.33h32.14A32.18,32.18,0,0,1,360.71,319.64Zm-80.36-80.36a32.14,32.14,0,1,1,32.14,32.14A32.18,32.18,0,0,1,280.36,239.29Z"/><path class="cls-3" d="M296.43,361.43v14.46A24.11,24.11,0,0,1,272.32,400H127.68a24.11,24.11,0,0,1-24.11-24.11V361.43a57.86,57.86,0,0,1,57.86-57.86h4.16a77.66,77.66,0,0,0,68.81,0h4.16A57.86,57.86,0,0,1,296.43,361.43Z"/><path class="cls-3" d="M143.75,231.25A56.25,56.25,0,1,1,200,287.5,56.21,56.21,0,0,1,143.75,231.25Z"/><path class="cls-3" d="M222.22,100H156.35L127.6,121.53a3.37,3.37,0,0,1-5.38-2.71V100A22.25,22.25,0,0,1,100,77.78V22.22A22.25,22.25,0,0,1,122.22,0h100a22.25,22.25,0,0,1,22.22,22.22V77.78A22.18,22.18,0,0,1,222.22,100Z"/><path class="cls-2" d="M300,77.78v55.56a22.25,22.25,0,0,1-22.22,22.22H266.67v18.85a3.36,3.36,0,0,1-5.38,2.71l-28.75-21.56H188.89a22.25,22.25,0,0,1-22.22-22.22V111.11h55.56a33.39,33.39,0,0,0,33.33-33.33V55.56h22.22A22.25,22.25,0,0,1,300,77.78Z"/></svg>