<svg id="Layer_1" data-name="Layer 1" xmlns="http://www.w3.org/2000/svg" viewBox="0 0 400 400"><defs><style>.cls-1{fill:#491e8c;}.cls-2,.cls-4{fill:none;stroke-linecap:round;stroke-linejoin:round;stroke-width:10px;}.cls-2{stroke:#dfcdf7;}.cls-3{fill:#dfcdf7;}.cls-4{stroke:#ffa744;}</style></defs><title>Artboard 1 copy 14</title><rect class="cls-1" width="150" height="150" rx="15" ry="15"/><line class="cls-2" x1="236.16" y1="236.16" x2="163.85" y2="163.84"/><polygon class="cls-3" points="241.65 183.81 231.65 184.17 233.45 233.44 184.17 231.64 183.81 241.64 243.83 243.82 241.65 183.81"/><polygon class="cls-3" points="216.2 158.36 215.84 168.36 166.57 166.55 168.36 215.83 158.36 216.19 156.19 156.17 216.2 158.36"/><polyline class="cls-4" points="75.06 200.19 75.06 324.36 204.99 324.36"/><polyline class="cls-4" points="324.94 205.56 324.94 75.64 195.14 75.64"/><path class="cls-3" d="M325,250h0a75,75,0,1,0,75,75A75.08,75.08,0,0,0,325,250Z"/><path class="cls-1" d="M325,287.5h0A37.5,37.5,0,1,0,362.5,325,37.54,37.54,0,0,0,325,287.5Z"/></svg>