<svg id="Layer_1" data-name="Layer 1" xmlns="http://www.w3.org/2000/svg" viewBox="0 0 400 400"><defs><style>.cls-1{fill:#dfcdf7;}.cls-2{fill:#491e8c;}.cls-3{fill:none;stroke:#ffa744;stroke-linecap:round;stroke-linejoin:round;stroke-width:10px;}</style></defs><title>Artboard 1 copy 20</title><path class="cls-1" d="M343.83,211.89,206.27,273.78a15.26,15.26,0,0,1-12.57,0L56.17,211.89c-9.77-4.39-9.77-19,0-23.44L90.47,173,185.9,216a34.34,34.34,0,0,0,28.19,0L309.53,173l34.3,15.41C353.59,192.85,353.59,207.5,343.83,211.89Zm0,74.88L206.27,348.66a15.45,15.45,0,0,1-12.57,0L56.17,286.77c-9.77-4.39-9.77-19,0-23.44L90.35,248l95.56,43a34.34,34.34,0,0,0,28.19,0l95.56-43,34.17,15.36C353.59,267.73,353.59,282.38,343.83,286.77Z"/><path class="cls-2" d="M56.17,113.28,193.73,51.37A17.33,17.33,0,0,1,200,50a17.57,17.57,0,0,1,6.3,1.37l137.53,61.92c9.77,4.39,9.77,19,0,23.44L206.27,198.64a15.26,15.26,0,0,1-12.57,0L56.17,136.72C46.41,132.33,46.41,117.68,56.17,113.28Z"/><polyline class="cls-3" points="396.5 294.94 396.5 395 296.44 395"/><polyline class="cls-3" points="296.44 5 396.5 5 396.5 105.06"/><polyline class="cls-3" points="3.5 105.06 3.5 5 103.56 5"/><polyline class="cls-3" points="103.56 395 3.5 395 3.5 294.11"/></svg>