<svg id="Layer_1" data-name="Layer 1" xmlns="http://www.w3.org/2000/svg" viewBox="0 0 400 400"><defs><style>.cls-1{fill:#491e8c;}.cls-2{fill:#ffa744;}.cls-3{fill:#dfcdf7;}</style></defs><title>Artboard 1 copy 21</title><path class="cls-1" d="M240.63,382.81A17.19,17.19,0,0,1,223.44,400H17.19A17.19,17.19,0,0,1,0,382.81a68.77,68.77,0,0,1,68.75-68.75h12.4c10.29,4.74,27.84,8.59,39.16,8.59s28.87-3.85,39.16-8.59h12.4A68.77,68.77,0,0,1,240.63,382.81ZM77.34,279.69c0,.63.16,1.23.18,1.86a68.62,68.62,0,1,1,111.54-53.42v8.59a25.85,25.85,0,0,1-25.78,25.78h-4.61c-5.48-9.49-18.82-17.19-29.76-17.19H111.72A34.44,34.44,0,0,0,77.34,279.69Z"/><path class="cls-2" d="M17.19,236.72v-8.59a103.13,103.13,0,0,1,206.25,0v8.59a60.29,60.29,0,0,1-60.16,60.16H111.72a17.19,17.19,0,0,1,0-34.37h17.19a17.19,17.19,0,0,1,17.19,17.19h17.19a43.05,43.05,0,0,0,43-43v-8.59a85.94,85.94,0,0,0-171.87,0v8.59a8.59,8.59,0,0,1-17.19,0Z"/><path class="cls-3" d="M331.26,94.63a7.54,7.54,0,0,1,3.28,9.1c-2.79,7.57-8.26,14.49-13.31,20.56a7.48,7.48,0,0,1-9.48,1.65l-9.09-5.25a53.7,53.7,0,0,1-17.16,9.91v10.5a7.48,7.48,0,0,1-6.15,7.38,70.45,70.45,0,0,1-23.73,0,7.51,7.51,0,0,1-6.25-7.38V130.6a54.33,54.33,0,0,1-17.16-9.91l-9.09,5.22a7.48,7.48,0,0,1-9.47-1.65c-5.07-6.07-10.4-13-13.19-20.54a7.56,7.56,0,0,1,3.28-9.1l10.4-5.25a54.44,54.44,0,0,1,0-19.81l-10.4-5.29a7.46,7.46,0,0,1-3.28-9.06c2.79-7.57,8.13-14.51,13.19-20.56A7.45,7.45,0,0,1,223.13,33l9.09,5.25a53.6,53.6,0,0,1,17.16-9.91V17.81a7.45,7.45,0,0,1,6.12-7.34,71.28,71.28,0,0,1,23.75,0,7.5,7.5,0,0,1,6.25,7.37V28.32a54.16,54.16,0,0,1,17.16,9.9L311.75,33a7.5,7.5,0,0,1,9.48,1.65c5.05,6.07,10.37,13,13.15,20.57a7.47,7.47,0,0,1-3.13,9.09l-10.53,5.25a54.08,54.08,0,0,1,0,19.85ZM250.94,62.94c-18.5,24.06,9,51.53,33,33C302.48,71.92,275,44.44,250.94,62.94Zm106.55,1.18a3.88,3.88,0,0,1-4.73,1.69,34.56,34.56,0,0,1-10-5.82,3.87,3.87,0,0,1-.87-4.91l2.55-4.47a27,27,0,0,1-5-8.56h-5.16a3.87,3.87,0,0,1-3.82-3.23,35.32,35.32,0,0,1,0-11.59A3.89,3.89,0,0,1,334.29,24h5.16a27,27,0,0,1,5-8.56L341.86,11a3.84,3.84,0,0,1,.87-4.91,34.91,34.91,0,0,1,10-5.82,3.88,3.88,0,0,1,4.73,1.69L360,6.4a28.15,28.15,0,0,1,9.91,0l2.57-4.47A3.87,3.87,0,0,1,377.23.24a34.46,34.46,0,0,1,10,5.82,3.89,3.89,0,0,1,.87,4.91l-2.57,4.47a27.06,27.06,0,0,1,5,8.56h5.16a3.87,3.87,0,0,1,3.82,3.23,35.32,35.32,0,0,1,0,11.59,3.89,3.89,0,0,1-3.82,3.26h-5.16a27.06,27.06,0,0,1-5,8.56l2.57,4.47a3.84,3.84,0,0,1-.87,4.91,35,35,0,0,1-10,5.82,3.87,3.87,0,0,1-4.71-1.69l-2.57-4.47a28.15,28.15,0,0,1-9.91,0Zm0,93.42a3.86,3.86,0,0,1-4.73,1.68,34.24,34.24,0,0,1-10-5.81,3.87,3.87,0,0,1-.87-4.91l2.55-4.47a27,27,0,0,1-5-8.57h-5.16a3.86,3.86,0,0,1-3.82-3.22,35.32,35.32,0,0,1,0-11.59,3.89,3.89,0,0,1,3.82-3.26h5.16a27.09,27.09,0,0,1,5-8.57l-2.55-4.47a3.85,3.85,0,0,1,.87-4.91,35.17,35.17,0,0,1,10-5.81,3.87,3.87,0,0,1,4.73,1.69L360,99.82a27.55,27.55,0,0,1,9.91,0l2.57-4.47a3.86,3.86,0,0,1,4.71-1.69,34.72,34.72,0,0,1,10,5.81,3.89,3.89,0,0,1,.87,4.91l-2.57,4.47a27.12,27.12,0,0,1,5,8.57h5.16a3.86,3.86,0,0,1,3.82,3.22,35.4,35.4,0,0,1,0,11.6,3.88,3.88,0,0,1-3.82,3.24h-5.16a27,27,0,0,1-5,8.57l2.57,4.47a3.84,3.84,0,0,1-.87,4.91,34.64,34.64,0,0,1-10,5.81,3.85,3.85,0,0,1-4.71-1.68l-2.57-4.47a28.15,28.15,0,0,1-9.91,0ZM373.27,24.78c-12-9.27-25.76,4.48-16.51,16.51C368.79,50.53,382.51,36.81,373.27,24.78Zm0,93.39c-12-9.26-25.76,4.47-16.51,16.5C368.79,143.91,382.51,130.2,373.27,118.17Z"/></svg>