<svg xmlns="http://www.w3.org/2000/svg" id="Layer_1" data-name="Layer 1" viewBox="0 0 400 400"><defs><style>.cls-1{fill:#491e8c}.cls-2,.cls-3{fill:none;stroke-linecap:round;stroke-linejoin:round;stroke-width:10px}.cls-2{stroke:#dfcdf7}.cls-3{stroke:#ffa744}.cls-4{fill:#ffa744}</style></defs><title>Artboard 1 copy 15</title><path d="M131.25,284.82c0,11.8-29.39,21.43-65.62,21.43S0,296.62,0,284.82V271.43C0,259.63,29.39,250,65.63,250s65.63,9.63,65.63,21.43Zm0,46.88c0,11.8-29.39,21.43-65.62,21.43S0,343.5,0,331.7V301.56c14.1,9.71,39.91,14.23,65.63,14.23s51.52-4.52,65.63-14.23Zm0,46.88c0,11.8-29.39,21.43-65.62,21.43S0,390.37,0,378.57V348.44c14.1,9.71,39.91,14.23,65.63,14.23s51.52-4.52,65.63-14.23Z" class="cls-1"/><polyline points="170.02 330.04 330.04 330.04 330.04 173.49" class="cls-2"/><polyline points="230.21 69.96 69.96 69.96 69.96 224.94" class="cls-2"/><path d="M400,73.81v32.26a10.56,10.56,0,0,1-5.83,9.43l-29.3,14.65a10.49,10.49,0,0,1-9.43,0L325,114.91l-30.44,15.23a10.49,10.49,0,0,1-9.43,0l-29.3-14.65a10.56,10.56,0,0,1-5.83-9.43V73.81a10.56,10.56,0,0,1,6.83-9.87l28.3-10.61V21.54A10.54,10.54,0,0,1,292,11.67l29.3-11a10.42,10.42,0,0,1,7.41,0l29.3,11a10.54,10.54,0,0,1,6.86,9.87V53.33l28.3,10.61A10.54,10.54,0,0,1,400,73.81Zm-80.27-.38L289.84,62.23,260,73.43v.18l29.88,12.13L319.73,73.6Zm0,10.9-24.9,11.37v23.17l24.9-12.45Zm-24.61-63L325,33.44l29.88-12.13v-.18L325,9.94,295.12,21.13Zm59.77,10.78L330,42.93v20l24.9-9.35ZM390,73.43,360.16,62.23,330.27,73.43v.18l29.88,12.13L390,73.6Zm0,10.9-24.9,11.37v23.17L390,106.41Z" class="cls-1"/><line x1="133.63" x2="218.67" y1="216.33" y2="131.29" class="cls-3"/><polygon points="224.16 183.63 214.16 183.28 215.97 134.01 166.69 135.81 166.33 125.81 226.35 123.62 224.16 183.63" class="cls-4"/><line x1="181.33" x2="266.37" y1="268.7" y2="183.65" class="cls-3"/><polygon points="233.68 274.19 233.32 264.19 184.05 265.99 185.84 216.71 175.84 216.36 173.66 276.38 233.68 274.19" class="cls-4"/></svg>