<svg id="Layer_1" data-name="Layer 1" xmlns="http://www.w3.org/2000/svg" viewBox="0 0 400 400"><defs><style>.cls-1{fill:#ffa744;}.cls-2{fill:#dfcdf7;}.cls-3{fill:#491e8c;}</style></defs><title>Artboard 1 copy 10</title><path class="cls-1" d="M50,22.36,83.82,90H16.18L50,22.36M50,0,0,100H100L50,0Z"/><path class="cls-2" d="M200,0h0a50,50,0,1,0,50,50A50.05,50.05,0,0,0,200,0Z"/><path class="cls-1" d="M350,172.36,383.82,240H316.18L350,172.36M350,150,300,250H400L350,150Z"/><path class="cls-2" d="M50,150h0a50,50,0,1,0,50,50A50.05,50.05,0,0,0,50,150Z"/><path class="cls-1" d="M200,322.36,233.82,390H166.18L200,322.36M200,300,150,400H250L200,300Z"/><path class="cls-2" d="M350,300h0a50,50,0,1,0,50,50A50.05,50.05,0,0,0,350,300Z"/><path class="cls-3" d="M200,25h0a25,25,0,1,0,25,25A25,25,0,0,0,200,25Z"/><path class="cls-3" d="M50,175h0a25,25,0,1,0,25,25A25,25,0,0,0,50,175Z"/><path class="cls-3" d="M350,325h0a25,25,0,1,0,25,25A25,25,0,0,0,350,325Z"/><rect class="cls-2" x="300" width="100" height="100" rx="10" ry="10"/><rect class="cls-3" x="325" y="25" width="50" height="50" rx="5" ry="5"/><rect class="cls-2" y="300" width="100" height="100" rx="10" ry="10"/><rect class="cls-3" x="25" y="325" width="50" height="50" rx="5" ry="5"/><rect class="cls-2" x="150" y="150" width="100" height="100" rx="10" ry="10"/><rect class="cls-3" x="175" y="175" width="50" height="50" rx="5" ry="5"/></svg>