<svg id="Layer_1" data-name="Layer 1" xmlns="http://www.w3.org/2000/svg" viewBox="0 0 400 400"><defs><style>.cls-1{fill:#ffa744;}.cls-2{fill:#dfcdf7;}.cls-3{fill:#491e8c;}</style></defs><title>Artboard 1 copy 12</title><path class="cls-1" d="M146.31,314.86q0,23.5-16.76,37.77T82.63,369.7V400h-20V370.29Q27.11,369.55.29,357.58v-39a166.29,166.29,0,0,0,30.53,11.23,161.22,161.22,0,0,0,31.84,5.76V289.73l-9.76-3.84Q24,274.35,12,260.83T0,227.35q0-21.43,16.54-35.26t46.12-16.78V152.7h20v22Q116,176.2,143,188.32l-13.7,34.59a155.77,155.77,0,0,0-46.63-11.53V255q28.42,11.09,40.44,19.22t17.63,17.89Q146.31,301.85,146.31,314.86ZM43.86,227.35a14.11,14.11,0,0,0,4.44,10.72q4.44,4.21,14.35,8.65V212Q43.86,214.78,43.86,227.35Zm58.58,89.73a13.37,13.37,0,0,0-5-10.5q-5-4.28-14.86-8.87v36.81Q102.44,331.12,102.45,317.07Z"/><path class="cls-2" d="M273.16,238.51q0,23.5-16.76,37.77t-46.92,17.07v30.3h-20V293.94q-35.56-.74-62.37-12.71v-39a166.29,166.29,0,0,0,30.53,11.23,161.22,161.22,0,0,0,31.84,5.76V213.38l-9.76-3.84Q150.89,198,138.87,184.48t-12-33.48q0-21.43,16.54-35.26T189.51,99V76.35h20v22q33.37,1.48,60.33,13.6l-13.7,34.59A155.77,155.77,0,0,0,209.47,135v43.61q28.42,11.09,40.44,19.22t17.63,17.89Q273.15,225.5,273.16,238.51ZM170.71,151a14.11,14.11,0,0,0,4.44,10.72q4.44,4.21,14.35,8.65V135.62Q170.71,138.43,170.71,151Zm58.58,89.73a13.37,13.37,0,0,0-5-10.5q-5-4.28-14.86-8.87v36.81Q229.29,254.77,229.29,240.72Z"/><path class="cls-3" d="M400,162.16q0,23.5-16.76,37.77T336.32,217v30.3h-20V217.59q-35.56-.74-62.37-12.71v-39a166.29,166.29,0,0,0,30.53,11.23,161.22,161.22,0,0,0,31.84,5.76V137l-9.76-3.84q-28.85-11.53-40.88-25.06t-12-33.48q0-21.43,16.54-35.26t46.12-16.78V0h20V22q33.37,1.48,60.33,13.6l-13.7,34.59a155.77,155.77,0,0,0-46.63-11.53v43.61q28.42,11.09,40.44,19.22t17.63,17.89Q400,149.15,400,162.16ZM297.55,74.65A14.11,14.11,0,0,0,302,85.37q4.44,4.21,14.35,8.65V59.28Q297.55,62.09,297.55,74.65Zm58.58,89.73a13.37,13.37,0,0,0-5-10.5q-5-4.28-14.86-8.87v36.81Q356.13,178.42,356.14,164.38Z"/></svg>