<svg id="Layer_1" data-name="Layer 1" xmlns="http://www.w3.org/2000/svg" viewBox="0 0 400 400"><defs><style>.cls-1{fill:none;stroke:#491e8c;stroke-miterlimit:10;stroke-width:10px;}.cls-2,.cls-3{fill:#491e8c;}.cls-3{opacity:0.4;isolation:isolate;}.cls-4{fill:#ffa744;}.cls-5{fill:#dfcdf7;}</style></defs><title>Artboard 1 copy 13</title><ellipse class="cls-1" cx="200" cy="200" rx="109.1" ry="108.67"/><g id="Brandmark"><ellipse id="Core-1" class="cls-2" cx="199.81" cy="166.41" rx="11.98" ry="11.93"/><ellipse id="Core-2" class="cls-2" cx="164.83" cy="191.82" rx="11.98" ry="11.93"/><ellipse id="Core-3" class="cls-2" cx="234.78" cy="191.82" rx="11.98" ry="11.93"/><ellipse id="Core-4" class="cls-2" cx="178.17" cy="232.82" rx="11.98" ry="11.93"/><ellipse id="Core-5" class="cls-2" cx="221.25" cy="232.82" rx="11.98" ry="11.93"/><path id="Center" class="cls-3" d="M206.18,232.82a15.15,15.15,0,0,1,15.26-15.21,13.88,13.88,0,0,1,10,4A38.49,38.49,0,0,0,236.33,207c-.58,0-1,.19-1.74.19A15.15,15.15,0,0,1,219.32,192a15.44,15.44,0,0,1,4.44-10.78,21.08,21.08,0,0,1,3.28-2.5,34.39,34.39,0,0,0-12.56-9,15,15,0,0,1-4.06,7.51,15.23,15.23,0,0,1-10.82,4.43,15.56,15.56,0,0,1-10.82-4.43,15.15,15.15,0,0,1-4.06-7.51,36.77,36.77,0,0,0-12.56,9,12.41,12.41,0,0,1,3.28,2.5A15.11,15.11,0,0,1,179.9,192a15.44,15.44,0,0,1-4.44,10.78,14.47,14.47,0,0,1-10.82,4.43,6,6,0,0,1-1.74-.19,33.67,33.67,0,0,0,4.83,14.63,15,15,0,0,1,20.87.38A15.11,15.11,0,0,1,193,232.82a16.8,16.8,0,0,1-1.35,6.16,35.1,35.1,0,0,0,7.73.77,38.06,38.06,0,0,0,7.92-.77A21.75,21.75,0,0,1,206.18,232.82Z"/><path id="Circles" class="cls-3" d="M276.32,174.5a47.69,47.69,0,0,0-9.66-14.24,42.54,42.54,0,0,0-14.3-9.62,47.64,47.64,0,0,0-11.4-3.08A41.06,41.06,0,0,0,232.08,135a42.54,42.54,0,0,0-14.3-9.62,45.63,45.63,0,0,0-17.58-3.66,42.35,42.35,0,0,0-17.58,3.66,47.9,47.9,0,0,0-14.3,9.62,41.06,41.06,0,0,0-8.89,12.51,45.66,45.66,0,0,0-12.17,3.27,47.9,47.9,0,0,0-14.3,9.62,42.36,42.36,0,0,0-9.66,14.24,45.16,45.16,0,0,0-3.67,17.52,42.55,42.55,0,0,0,3.67,17.52A47.69,47.69,0,0,0,133,224l1,1a40,40,0,0,0-.77,8.28,42.55,42.55,0,0,0,3.67,17.52A47.69,47.69,0,0,0,146.48,265a42.54,42.54,0,0,0,14.3,9.62,45.63,45.63,0,0,0,17.58,3.66,42.35,42.35,0,0,0,17.58-3.66c1.35-.58,2.71-1.35,4.06-1.92a38.69,38.69,0,0,0,4.06,1.92,45.63,45.63,0,0,0,17.58,3.66,43,43,0,0,0,17.58-3.66,47.9,47.9,0,0,0,14.3-9.62,42.36,42.36,0,0,0,9.66-14.24,45.16,45.16,0,0,0,3.67-17.52,38.81,38.81,0,0,0-.77-8.28l1-1a42.36,42.36,0,0,0,9.66-14.24,45.16,45.16,0,0,0,3.67-17.52A57.93,57.93,0,0,0,276.32,174.5Zm-3.48,33.3a41.43,41.43,0,0,1-8.12,12.32,51.3,51.3,0,0,0-1.74-5,47.69,47.69,0,0,0-9.66-14.24,42.42,42.42,0,0,0-4.44-3.85,10.69,10.69,0,0,1-1.74,3.27,28.07,28.07,0,0,1,3.48,3.08,40.36,40.36,0,0,1,8.89,13.09,40.87,40.87,0,0,1,2.13,6.35,39.25,39.25,0,0,1-10.82,6.74,44.29,44.29,0,0,1-14.3,3.27,11.17,11.17,0,0,1-.58,3.66A46.2,46.2,0,0,0,252.17,233a37.47,37.47,0,0,0,10-6,50.66,50.66,0,0,1,.39,5.58,41.07,41.07,0,0,1-12.17,29.26,40.53,40.53,0,0,1-13.14,8.85,41.89,41.89,0,0,1-32.46,0c-.58-.19-1.16-.58-1.74-.77a57.36,57.36,0,0,0,6.57-5.39,42.36,42.36,0,0,0,9.66-14.24c.39-.77.58-1.54,1-2.5a11.29,11.29,0,0,1-3.67-.58L216,249a42.52,42.52,0,0,1-8.89,13.09,33.16,33.16,0,0,1-7.73,6,39.32,39.32,0,0,1-7.73-6A40.36,40.36,0,0,1,182.8,249a18.12,18.12,0,0,1-.58-1.73,12.18,12.18,0,0,1-3.67.58,13.33,13.33,0,0,0,1,2.5,47.69,47.69,0,0,0,9.66,14.24,42.39,42.39,0,0,0,6.57,5.39c-.58.19-1.16.58-1.74.77a41.89,41.89,0,0,1-32.46,0,46.4,46.4,0,0,1-13.14-8.85,40.36,40.36,0,0,1-8.89-13.09,41.7,41.7,0,0,1-3.28-16.17c0-1.73.19-3.66.39-5.58a44.6,44.6,0,0,0,10,6,47.14,47.14,0,0,0,16.23,3.46,12,12,0,0,1-.58-3.66,40.74,40.74,0,0,1-14.3-3.27,39.25,39.25,0,0,1-10.82-6.74,61.25,61.25,0,0,1,2.13-6.35,42.52,42.52,0,0,1,8.89-13.09c1.16-1.15,2.32-2.12,3.48-3.08A10.69,10.69,0,0,1,150,197c-1.55,1.15-2.9,2.5-4.44,3.85a42.36,42.36,0,0,0-9.66,14.24,51.3,51.3,0,0,0-1.74,5A37,37,0,0,1,126,207.8a41.69,41.69,0,0,1-3.28-16.17,41.07,41.07,0,0,1,12.17-29.26A40.53,40.53,0,0,1,148,153.52a39.15,39.15,0,0,1,8.89-2.69,45.49,45.49,0,0,0-1,27.91,14.53,14.53,0,0,1,3.48-1.54,41.22,41.22,0,0,1-1.35-10.78,36.73,36.73,0,0,1,3.28-15.78,14.68,14.68,0,0,1,2.9-.19,42.87,42.87,0,0,1,16.23,3.27,33,33,0,0,1,6.76,3.66c.39-.58,1-1.15,1.35-1.73a5.12,5.12,0,0,1,1.16-1,44.62,44.62,0,0,0-25.51-8.08h-1.16a49.84,49.84,0,0,1,7.15-9.62,40.53,40.53,0,0,1,13.14-8.85,42.13,42.13,0,0,1,16.23-3.27,42.87,42.87,0,0,1,16.23,3.27A46.4,46.4,0,0,1,229,137a39,39,0,0,1,7.15,9.62h-1.74a43,43,0,0,0-17.58,3.66,39.77,39.77,0,0,0-7.92,4.43c.39.38.77.58,1.16,1a6,6,0,0,1,1.35,1.73,45.85,45.85,0,0,1,6.76-3.66,42.13,42.13,0,0,1,16.23-3.27,23.47,23.47,0,0,1,3.67.19,40.33,40.33,0,0,1,3.09,15.78,43.24,43.24,0,0,1-1.55,11.16,10.76,10.76,0,0,1,3.28,1.73,40.55,40.55,0,0,0,1.93-12.7,45,45,0,0,0-2.71-15.21,41.35,41.35,0,0,1,8.31,2.5,46.4,46.4,0,0,1,13.14,8.85,40.36,40.36,0,0,1,8.89,13.09A41.7,41.7,0,0,1,275.74,192,32,32,0,0,1,272.85,207.8Z"/></g><ellipse class="cls-4" cx="200" cy="25" rx="24.99" ry="25"/><ellipse class="cls-4" cx="200" cy="375" rx="24.99" ry="25"/><ellipse class="cls-4" cx="24.99" cy="200" rx="24.99" ry="25"/><ellipse class="cls-4" cx="375.01" cy="200" rx="24.99" ry="25"/><ellipse class="cls-5" cx="76.26" cy="76.26" rx="24.99" ry="25" transform="translate(-31.59 76.26) rotate(-45)"/><ellipse class="cls-5" cx="323.74" cy="323.74" rx="24.99" ry="25" transform="translate(-134.1 323.74) rotate(-45)"/><ellipse class="cls-5" cx="76.25" cy="323.75" rx="24.99" ry="25" transform="translate(-206.6 148.74) rotate(-45)"/><ellipse class="cls-5" cx="323.75" cy="76.25" rx="24.99" ry="25" transform="translate(40.91 251.26) rotate(-45)"/></svg>