<?xml version="1.0" encoding="utf-8"?>
<!-- Generator: Adobe Illustrator 21.0.0, SVG Export Plug-In . SVG Version: 6.00 Build 0)  -->
<svg version="1.1" id="Layer_1" xmlns="http://www.w3.org/2000/svg" xmlns:xlink="http://www.w3.org/1999/xlink" x="0px" y="0px"
	 viewBox="0 0 145 40" style="enable-background:new 0 0 145 40;" xml:space="preserve">
<style type="text/css">
	.st0{fill:#15003E;}
	.st1{fill:#0FCE7C;}
	.st2{fill:#FFFFFF;}
	.st3{fill:#EFF4EE;}
	.st4{fill:#25E899;}
</style>
<g>
	<g id="Group-25" transform="translate(0.000000, 133.000000)">
		<path id="Path" class="st0" d="M45-101.3h5.8v0.4c0,1-0.1,2-0.4,2.8c-0.3,0.7-0.7,1.4-1.2,2.1c-1.3,1.4-3,2.2-5,2.2
			c-2,0-3.7-0.7-5-2.1c-1.4-1.4-2.1-3.1-2.1-5.1c0-2,0.7-3.7,2.2-5.2c1.4-1.4,3.2-2.1,5.2-2.1c1.1,0,2.1,0.2,3.1,0.7
			c0.9,0.4,1.8,1.1,2.7,2.2l-1.5,1.4c-1.1-1.5-2.6-2.3-4.2-2.3c-1.5,0-2.7,0.5-3.7,1.5s-1.5,2.3-1.5,3.7c0,1.6,0.6,2.8,1.7,3.9
			c1,0.9,2.2,1.4,3.4,1.4c1,0,2-0.3,2.8-1c0.8-0.7,1.3-1.6,1.4-2.5H45V-101.3L45-101.3z"/>
		<path id="Shape" class="st0" d="M58.6-93.7h2.2v-14.1h-2.2V-93.7z M73.1-105.9v12.1h-2.2v-12.1h-3.4v-2h8.9v2
			C76.4-105.9,73.1-105.9,73.1-105.9z M92.8-107.2v2.5c-1.2-1-2.5-1.5-3.8-1.5c-1.4,0-2.7,0.5-3.7,1.6c-1,1-1.5,2.3-1.5,3.7
			c0,1.5,0.5,2.7,1.5,3.7c1,1,2.2,1.5,3.7,1.5c0.7,0,1.4-0.1,1.9-0.4c0.3-0.1,0.6-0.3,0.9-0.5c0.3-0.2,0.7-0.5,1-0.7v2.6
			c-1.3,0.7-2.5,1-3.9,1c-2,0-3.7-0.7-5.2-2.1c-1.4-1.4-2.1-3.1-2.1-5.1c0-1.8,0.6-3.4,1.8-4.7c1.4-1.7,3.4-2.6,5.7-2.6
			C90.4-108.2,91.6-107.9,92.8-107.2L92.8-107.2z"/>
		<path id="Shape_1_" class="st1" d="M102.8-103.6c0,1.6,0.5,2.8,1.6,3.8c1,1,2.3,1.5,3.6,1.5c1.5,0,2.7-0.5,3.8-1.5
			c1-1,1.5-2.3,1.5-3.7s-0.5-2.7-1.5-3.7c-1-1-2.3-1.5-3.7-1.5c-1.5,0-2.7,0.5-3.7,1.5C103.3-106.3,102.8-105.1,102.8-103.6
			 M100.6-103.6c0-2,0.7-3.7,2.2-5.1c1.4-1.4,3.2-2.1,5.3-2.1s3.7,0.7,5.2,2.2c1.4,1.4,2.2,3.2,2.2,5.1c0,2-0.7,3.7-2.2,5.1
			c-1.5,1.4-3.2,2.1-5.3,2.1c-1.8,0-3.5-0.6-4.9-1.9C101.4-99.6,100.6-101.4,100.6-103.6"/>
		<path id="Shape_2_" class="st0" d="M121.8-93.7h2.2v-14.1h-2.2V-93.7z M132.5-93.9V-109l10.2,10.8v-9.8h2.1v15l-10.2-10.8v9.9
			L132.5-93.9z"/>
	</g>
	<g id="Group-17" transform="translate(109.000000, 0.000000)">
		<polygon id="Path_1_" class="st2" points="-88.4,19.4 -85.8,24.2 -87.8,32.1 -92.5,28.5 -91.7,22.7 		"/>
		<path id="Path_2_" class="st0" d="M-95.1,17.8c-0.6,0-1-0.4-1-1V9.3c0-0.5,0.4-1,1-1s1,0.4,1,1v7.6
			C-94.1,17.4-94.6,17.8-95.1,17.8"/>
		<path id="Path_3_" class="st2" d="M-96.9,16.2h2.8"/>
		<path id="Path_4_" class="st0" d="M-93.8,17.4h-2.9c-0.5,0-0.9-0.4-0.9-1c0-0.6,0.4-1,0.9-1h2.9c0.5,0,0.9,0.4,0.9,1
			C-92.9,17-93.3,17.4-93.8,17.4"/>
		<path id="Path_5_" class="st2" d="M-88.9,18.9l3.1-2.9c-2.4-2.4-5.7-3.8-9.2-3.8c-7.2,0-13,5.8-13,12.9s5.8,12.9,13,12.9
			c2.7,0,5,1,7.1-0.4l2.6,0.4l-0.1-4.2l-7.3-5.8l1.6-7.4L-88.9,18.9"/>
		<path id="Path_6_" class="st0" d="M-94.7,39.2c-7.8,0-14.1-6.3-14.1-14.1c0-7.7,6.3-14.1,14.1-14.1c3.8,0,7.3,1.5,10,4.1l0.9,0.9
			l-4,3.7l-1.7-1.8l2-1.9c-2-1.6-4.6-2.5-7.2-2.5c-6.4,0-11.6,5.2-11.6,11.6s5.2,11.6,11.6,11.6"/>
		<path id="Path_7_" class="st1" d="M-87.7,32.1l-1.8-1.7c1.3-1.4,2-3.2,2-5.1c0-2-0.8-3.8-2.2-5.2l-0.9-0.9l1-1l0.9,0.9l0.8-0.9
			c1.9,1.9,2.9,4.3,2.9,7C-85,27.8-86,30.3-87.7,32.1"/>
		<path id="Path_8_" class="st3" d="M-97.7,24.9c0-1.5,1.3-2.8,2.8-2.8c1.5,0,2.8,1.3,2.8,2.8c0,1.5-1.3,2.8-2.8,2.8
			C-96.4,27.7-97.7,26.5-97.7,24.9"/>
		<path id="Shape_3_" class="st0" d="M-95.1,23.5c-0.9,0-1.6,0.7-1.6,1.6s0.7,1.6,1.6,1.6c0.9,0,1.6-0.7,1.6-1.6
			S-94.2,23.5-95.1,23.5 M-95.1,29.3c-2.3,0-4.2-1.9-4.2-4.2s1.9-4.2,4.2-4.2s4.2,1.9,4.2,4.2S-92.8,29.3-95.1,29.3 M-85.4,16.2
			l-7.5,7.2"/>
		<polygon id="Path_9_" class="st0" points="-92,23.8 -93.7,21.9 -86.3,15.1 -84.6,16.9 		"/>
		<polygon id="Path_11_" class="st0" points="-84.2,39.2 -95.3,39.2 -95.3,36.8 -86.8,36.8 -86.8,34.5 -94.4,28.9 -92.9,27 
			-84.2,33.3 		"/>
		<path id="Shape_4_" class="st4" d="M-81.4,9.7l-1,1l-1-1l1-1L-81.4,9.7z M-86.2,4.9l-0.6,0.6l-0.6-0.6l0.6-0.6L-86.2,4.9z
			 M-81.4,0.8c0-0.4-0.4-0.8-0.8-0.8S-83,0.4-83,0.8s0.4,0.8,0.8,0.8S-81.4,1.2-81.4,0.8L-81.4,0.8z"/>
		<path id="Path_12_" class="st0" d="M-99.5,20.2c-0.6,0-1-0.4-1-0.9v-10c0-0.5,0.4-0.9,1-0.9s1,0.4,1,0.9v10
			C-98.5,19.8-98.9,20.2-99.5,20.2"/>
	</g>
</g>
</svg>
