<svg id="Layer_1" data-name="Layer 1" xmlns="http://www.w3.org/2000/svg" viewBox="0 0 400 400"><defs><style>.cls-1{fill:#ffa744;}.cls-2{fill:#dfcdf7;}.cls-3{fill:#491e8c;}.cls-4,.cls-5{fill:none;stroke-linecap:round;stroke-linejoin:round;stroke-width:10px;}.cls-4{stroke:#491e8c;}.cls-5{stroke:#ffa744;}</style></defs><title>Artboard 1 copy 2</title><path class="cls-1" d="M75,33.54,125.73,135H24.27L75,33.54M75,0,0,150H150L75,0Z"/><path class="cls-2" d="M325,250h0a75,75,0,1,0,75,75A75.08,75.08,0,0,0,325,250Z"/><path class="cls-3" d="M325,287.5h0A37.5,37.5,0,1,0,362.5,325,37.54,37.54,0,0,0,325,287.5Z"/><polyline class="cls-4" points="75.06 211.04 75.06 324.36 204.99 324.36"/><polygon class="cls-3" points="34.17 244.17 41.49 251 75.05 214.88 108.63 251 115.95 244.17 75.05 200.19 34.17 244.17"/><polyline class="cls-5" points="324.94 194.72 324.94 75.64 195.14 75.64"/><polygon class="cls-1" points="365.83 161.58 358.51 154.76 324.94 190.88 291.37 154.76 284.05 161.58 324.94 205.56 365.83 161.58"/></svg>