<svg id="Layer_1" data-name="Layer 1" xmlns="http://www.w3.org/2000/svg" viewBox="0 0 400 400"><defs><style>.cls-1{fill:#dfcdf7;}.cls-2{fill:none;stroke:#ffa744;stroke-linecap:round;stroke-linejoin:round;stroke-width:10px;}.cls-3{fill:#491e8c;}</style></defs><title>Artboard 1 copy 7</title><rect class="cls-1" x="12.38" y="312.5" width="75" height="75" rx="9.9" ry="9.9"/><rect class="cls-1" x="312.5" y="87.5" width="75" height="75" rx="7.5" ry="7.5"/><rect class="cls-1" x="105.18" y="312.5" width="75" height="75" rx="9.9" ry="9.9"/><line class="cls-2" x1="349.78" y1="350.22" x2="200" y2="350.22"/><polyline class="cls-2" points="200 200 200 350.22 49.88 350.22"/><line class="cls-2" x1="350" y1="350.22" x2="350" y2="125"/><polyline class="cls-2" points="200 200 200 50 50 50"/><rect class="cls-3" x="331.25" y="106.25" width="37.5" height="37.5" rx="3.75" ry="3.75"/><rect class="cls-3" x="123.93" y="331.25" width="37.5" height="37.5" rx="4.95" ry="4.95"/><rect class="cls-3" x="31.13" y="331.25" width="37.5" height="37.5" rx="4.95" ry="4.95"/><rect class="cls-3" x="150" y="150" width="100" height="100" rx="10" ry="10"/><rect class="cls-3" x="299.56" y="300" width="100.44" height="100.44" rx="10" ry="10"/><rect class="cls-3" width="100" height="100" rx="10" ry="10"/></svg>