<?xml version="1.0" encoding="utf-8"?>
<!-- Generator: Adobe Illustrator 21.0.0, SVG Export Plug-In . SVG Version: 6.00 Build 0)  -->
<svg version="1.1" id="Layer_1" xmlns="http://www.w3.org/2000/svg" xmlns:xlink="http://www.w3.org/1999/xlink" x="0px" y="0px"
	 viewBox="0 0 490 490" style="enable-background:new 0 0 490 490;" xml:space="preserve">
<style type="text/css">
	.st0{fill:#FFFFFF;}
	.st1{fill:#F0E5FF;}
	.st2{fill:none;}
	.st3{fill:#78727F;}
	.st4{font-family:'OpenSans-Regular';}
	.st5{font-size:14.1377px;}
	.st6{fill:#28A745;}
	.st7{fill:#CB2431;}
	.st8{fill:#032F62;}
</style>
<g>
	<path class="st0" d="M481,490H11c-5.5,0-10-4.5-10-10V10C1,4.5,5.5,0,11,0H481c5.5,0,10,4.5,10,10V480C491,485.5,486.5,490,481,490
		z"/>
	<g>
		<circle class="st1" cx="20.9" cy="19.9" r="4.1"/>
		<circle class="st1" cx="36.6" cy="19.9" r="4.1"/>
		<circle class="st1" cx="52.3" cy="19.9" r="4.1"/>
	</g>
	<rect x="18.8" y="47.6" class="st2" width="16.5" height="15.3"/>
	<text transform="matrix(1 0 0 1 22.9761 58.3181)" class="st3 st4 st5">1</text>
	<rect x="18.8" y="76.7" class="st2" width="16.5" height="15.3"/>
	<text transform="matrix(1 0 0 1 22.9761 87.4734)" class="st3 st4 st5">2</text>
	<rect x="18.8" y="105.9" class="st2" width="16.5" height="15.3"/>
	<text transform="matrix(1 0 0 1 22.9761 116.6287)" class="st3 st4 st5">3</text>
	<rect x="18.8" y="135" class="st2" width="16.5" height="15.3"/>
	<text transform="matrix(1 0 0 1 22.9761 145.7849)" class="st3 st4 st5">4</text>
	<rect x="18.8" y="164.2" class="st2" width="16.5" height="15.3"/>
	<text transform="matrix(1 0 0 1 22.9761 174.9402)" class="st3 st4 st5">5</text>
	<rect x="18.8" y="193.4" class="st2" width="16.5" height="15.3"/>
	<text transform="matrix(1 0 0 1 22.9761 204.0955)" class="st3 st4 st5">6</text>
	<rect x="18.8" y="222.5" class="st2" width="16.5" height="15.3"/>
	<text transform="matrix(1 0 0 1 22.9761 233.2507)" class="st3 st4 st5">7</text>
	<rect x="18.8" y="251.7" class="st2" width="16.5" height="15.3"/>
	<text transform="matrix(1 0 0 1 22.9761 262.407)" class="st3 st4 st5">8</text>
	<rect x="18.8" y="280.8" class="st2" width="16.5" height="15.3"/>
	<text transform="matrix(1 0 0 1 22.9761 291.5613)" class="st3 st4 st5">9</text>
	<rect x="18.8" y="310" class="st2" width="26.5" height="15.3"/>
	<text transform="matrix(1 0 0 1 23.9131 320.7175)" class="st3 st4 st5">10</text>
	<rect x="18.8" y="339.1" class="st2" width="26.5" height="15.3"/>
	<text transform="matrix(1 0 0 1 23.9131 349.8728)" class="st3 st4 st5">11</text>
	<rect x="62.2" y="47.6" class="st2" width="169.7" height="15.3"/>
	<text transform="matrix(1 0 0 1 62.2114 58.3162)"><tspan x="0" y="0" class="st6 st4 st5">key</tspan><tspan x="22.5" y="0" class="st7 st4 st5">:</tspan><tspan x="26.2" y="0" class="st3 st4 st5"> </tspan><tspan x="29.9" y="0" class="st8 st4 st5">Event</tspan></text>
	<rect x="62.2" y="76.7" class="st2" width="78.9" height="15.3"/>
	<text transform="matrix(1 0 0 1 62.2114 87.4734)"><tspan x="0" y="0" class="st6 st4 st5">trigger</tspan><tspan x="43.5" y="0" class="st7 st4 st5">:</tspan></text>
	<rect x="77.9" y="105.9" class="st2" width="396.7" height="15.3"/>
	<text transform="matrix(1 0 0 1 77.9297 116.6287)"><tspan x="0" y="0" class="st6 st4 st5">src</tspan><tspan x="19.2" y="0" class="st7 st4 st5">:</tspan><tspan x="23" y="0" class="st3 st4 st5"> </tspan><tspan x="26.7" y="0" class="st8 st4 st5">https://github.com/mesg-foundation/service-webhook</tspan></text>
	<rect x="77.9" y="135" class="st2" width="325.9" height="15.3"/>
	<text transform="matrix(1 0 0 1 77.9297 145.7849)"><tspan x="0" y="0" class="st6 st4 st5">taskKey</tspan><tspan x="50.8" y="0" class="st7 st4 st5">:</tspan><tspan x="54.5" y="0" class="st3 st4 st5"> </tspan><tspan x="58.2" y="0" class="st8 st4 st5">xxx</tspan></text>
	<rect x="62.2" y="164.2" class="st2" width="169.7" height="15.3"/>
	<text transform="matrix(1 0 0 1 62.2114 174.9402)"><tspan x="0" y="0" class="st6 st4 st5">tasks</tspan><tspan x="33.8" y="0" class="st7 st4 st5">:</tspan></text>
	<rect x="77.9" y="193.4" class="st2" width="169.7" height="15.3"/>
	<text transform="matrix(1 0 0 1 77.9297 204.0935)"><tspan x="0" y="0" class="st8 st4 st5">-</tspan><tspan x="4.5" y="0" class="st3 st4 st5"> </tspan><tspan x="8.2" y="0" class="st6 st4 st5">src</tspan><tspan x="27.5" y="0" class="st7 st4 st5">:</tspan><tspan x="31.2" y="0" class="st3 st4 st5"> </tspan><tspan x="34.9" y="0" class="st8 st4 st5">../serviceA</tspan></text>
	<rect x="86.6" y="222.5" class="st2" width="169.7" height="15.3"/>
	<text transform="matrix(1 0 0 1 86.5957 233.2507)"><tspan x="0" y="0" class="st6 st4 st5">taskKey</tspan><tspan x="50.8" y="0" class="st7 st4 st5">:</tspan><tspan x="54.5" y="0" class="st3 st4 st5"> </tspan><tspan x="58.2" y="0" class="st8 st4 st5">xxx</tspan></text>
	<rect x="77.9" y="251.7" class="st2" width="380.3" height="15.3"/>
	<text transform="matrix(1 0 0 1 77.9297 262.407)"><tspan x="0" y="0" class="st8 st4 st5">- </tspan><tspan x="8.2" y="0" class="st6 st4 st5">src</tspan><tspan x="27.5" y="0" class="st7 st4 st5">:</tspan><tspan x="31.2" y="0" class="st3 st4 st5"> </tspan><tspan x="34.9" y="0" class="st8 st4 st5">/Users/antho/prog/MESG/testservice/serviceB</tspan></text>
	<rect x="86.6" y="280.8" class="st2" width="169.7" height="15.3"/>
	<text transform="matrix(1 0 0 1 86.5957 291.5613)"><tspan x="0" y="0" class="st6 st4 st5">taskKey</tspan><tspan x="50.8" y="0" class="st7 st4 st5">:</tspan><tspan x="54.5" y="0" class="st3 st4 st5"> </tspan><tspan x="58.2" y="0" class="st8 st4 st5">xxx</tspan></text>
	<rect x="77.9" y="310" class="st2" width="330.4" height="15.3"/>
	<text transform="matrix(1 0 0 1 77.9297 320.7175)"><tspan x="0" y="0" class="st8 st4 st5">-</tspan><tspan x="4.5" y="0" class="st3 st4 st5"> </tspan><tspan x="8.2" y="0" class="st6 st4 st5">src</tspan><tspan x="27.5" y="0" class="st7 st4 st5">:</tspan><tspan x="31.2" y="0" class="st3 st4 st5"> </tspan><tspan x="34.9" y="0" class="st8 st4 st5">mesg://marketplace/service/xxx</tspan></text>
	<rect x="86.6" y="339.1" class="st2" width="272" height="15.3"/>
	<text transform="matrix(1 0 0 1 86.5957 349.8708)"><tspan x="0" y="0" class="st6 st4 st5">taskKey</tspan><tspan x="50.8" y="0" class="st7 st4 st5">:</tspan><tspan x="54.5" y="0" class="st3 st4 st5"> </tspan><tspan x="58.2" y="0" class="st8 st4 st5">xxx</tspan></text>
</g>
</svg>
