<svg xmlns="http://www.w3.org/2000/svg" xmlns:xlink="http://www.w3.org/1999/xlink" x="0px"
    y="0px" width="460" viewBox="0 0 461 600" style="enable-background:new 0 0 461 600;" xml:space="preserve">
<style type="text/css">
.st0{opacity:0.12;fill:#4563FF;enable-background:new    ;}
.st1{fill:#D6D0E7;}
.st2{fill:#EACAB3;}
.st3{fill:#4D2F15;}
.st4{fill:#513FE8;}
.st5{fill:#F1F0F8;}
.st6{fill:#221101;}
.st7{fill:#CD9476;}
.st8{opacity:0.12;fill:#9452FF;enable-background:new    ;}
.st9{fill:#FFFFFF;}
.st10{fill:#CAC5E4;}
.st11{fill:#343434;}
.st12{fill:#8B8B8B;}
.st13{fill:#3C3C3B;}
.st14{fill:#151515;}
.st15{fill:#393939;}
.st16{fill:#252F3E;}
.st17{fill:#FF9900;}
.st18{fill:#694C47;}
.st19{fill:#F4DBB9;}
.st20{fill:#0B87BE;}
.st21{fill:#46B7E3;}
.st22{fill:#FFD14F;}
.st23{fill:#121F2F;}
.st24{fill:#E9BD8C;}
.st25{fill:#9B7457;}
.st26{fill:url(#coin_1_);}
.st27{fill:#251440;}
.st28{fill:#9452FF;}
.st29{opacity:0.2;clip-path:url(#SVGID_2_);fill:#9452FF;enable-background:new    ;}
.st30{fill:none;stroke:#FFA744;stroke-width:2;stroke-linecap:round;stroke-linejoin:round;}
.st31{fill:#FFA744;}
.st32{fill:#1AB644;}
.st33{fill:none;stroke:url(#Line_9_);stroke-width:2;stroke-linecap:round;stroke-linejoin:round;}
.st34{fill:none;stroke:url(#Line_10_);stroke-width:2;stroke-linecap:round;stroke-linejoin:round;}
.st35{fill:none;stroke:url(#Line_11_);stroke-width:2;stroke-linecap:round;stroke-linejoin:round;}
.st36{fill:none;stroke:url(#Line_12_);stroke-width:2;stroke-linecap:round;stroke-linejoin:round;}
.st37{fill:none;stroke:url(#Line_13_);stroke-width:2;stroke-linecap:round;stroke-linejoin:round;}
.st38{fill:none;stroke:url(#Line_14_);stroke-width:2;stroke-linecap:round;stroke-linejoin:round;}
.st39{fill:none;stroke:url(#Line_15_);stroke-width:2;stroke-linecap:round;stroke-linejoin:round;}
.st40{fill:none;stroke:url(#Line_16_);stroke-width:2;stroke-linecap:round;stroke-linejoin:round;}
</style>
<g id="Schema">
  <g id="Users">
    <g id="Background-users">
      <path id="Circle-4_1_" class="st0" d="M436.2,369.8c0,0-92.1-2.4-205.7-2.4s-205.7,2.4-205.7,2.4c0,113.6,92.1,205.7,205.7,205.7
        S436.2,483.4,436.2,369.8z"/>
      <path id="Circle-3_1_" class="st0" d="M384.2,369.8c0,0-68.8-2.4-153.6-2.4S77,369.8,77,369.8c0,84.8,68.8,153.6,153.6,153.6
        S384.2,454.6,384.2,369.8z"/>
      <path id="Circle-2_9_" class="st0" d="M345.3,369.8c0,0-51.4-2.4-114.7-2.4s-114.7,2.4-114.7,2.4c0,63.3,51.4,114.7,114.7,114.7
        S345.3,433.2,345.3,369.8z"/>
      <path id="Circle-1_9_" class="st0" d="M316.2,369.8c0,0-38.4-2.4-85.7-2.4s-85.6,2.4-85.6,2.4c0,47.3,38.3,85.7,85.7,85.7
        S316.2,417.1,316.2,369.8z"/>
    </g>
    <g id="User-1">
      <circle id="Circle-BG_4_" class="st1" cx="35.6" cy="492.5" r="35.4"/>
      <g id="Man-1">
        <path id="Body" class="st2" d="M60.7,516.1c-3.9-5.7-9.6-9.3-16.5-10.8l-0.1-3.2c2.8-2.8,5.4-6.5,6.6-10.5
          c0.9,0.1,2-1.4,2.4-3.5c0.5-2.3,0-4.4-0.9-4.6c-0.3-0.1-0.6,0-0.9,0.2c-1-8.7-6.6-15.5-15.7-15.4c-9,0-14.7,6.6-15.7,15.2
          c-0.3-0.2-0.6-0.2-0.9-0.1c-1,0.4-1.5,2.5-1,4.7c0.5,2,1.5,3.5,2.5,3.4c1.2,4.1,3.7,7.9,6.6,10.7l-0.1,3
          c-7.3,1.4-13.4,4.9-16.5,11.1c-0.8,1.7,17.7,11.2,25.2,11.2C45.7,527.6,61.9,518.1,60.7,516.1z"/>
        <path id="Hair" class="st3" d="M19.8,483.6c0,0-0.2-16.6,14.1-16.6c2.4-0.9,9.2-1.4,14.5,4.3c4.8,5.1,2.9,12.3,2.9,12.3
          s-9.7-1.1-16.6-10C34.8,473.5,24.9,474.7,19.8,483.6z"/>
        <path id="Shirt" class="st4" d="M26.7,505.1c0,0,4,8.1,8.9,8.1s9-8.2,9-8.2s9.3-0.1,16.5,10.2c0,0-11.3,11.8-24.9,11.8
          s-25.8-11.9-25.8-11.9S15.7,505.9,26.7,505.1z"/>
      </g>
      <path id="Circle-outline_4_" class="st5" d="M35.6,459.4c18.2,0,33.1,14.8,33.1,33.1c0,8.8-3.4,17.1-9.7,23.4
        c-6.2,6.2-14.5,9.7-23.4,9.7c-18.2,0-33.1-14.7-33.1-33c0-8.8,3.4-17.1,9.7-23.4C18.4,462.8,26.7,459.4,35.6,459.4 M35.6,457
        C16,457,0.2,472.9,0.2,492.4c0,19.6,15.9,35.4,35.4,35.4c19.6,0,35.4-15.9,35.4-35.4S55.1,457,35.6,457L35.6,457z"/>
    </g>
    <g id="User-2">
      <circle id="Circle-BG_5_" class="st1" cx="164.6" cy="564.6" r="35.4"/>
      <g id="Women-1">
        <path id="Hair-back" class="st6" d="M149.3,562.2c0,0,1.9,17.5-0.1,19.6h30.5c0,0-1.1-14.8,0.4-20.8L149.3,562.2z"/>
        <path id="Body_1_" class="st3" d="M189.7,588.3c-4.1-6-10.1-9.6-17.6-11L172,575c4-3.9,7.5-10.2,7.5-16.4
          c0-10-4.8-18.1-14.9-18.1c-10.1,0-14.9,8.1-14.9,18.1c0,6.3,3.4,12.7,7.5,16.6l-0.1,2.1c-7.8,1.3-14.4,4.7-17.7,11.3
          c-0.8,1.7,17.7,11.2,25.2,11.2C174.7,599.8,190.9,590.3,189.7,588.3z"/>
        <path id="Hair_1_" class="st6" d="M183.1,580.5c-0.8-3.7-0.5-24.8-0.5-24.8c0-4.6-3.1-17.8-18-16c-14.7-1.9-18,10.9-18,16
          c0,0.5,0.1,23.4-0.4,24.8c-1.3,3.5,6-0.9,6-2.2c0-3,0-21.7,0.4-21.9c0.3-0.2,1.6-0.4,3.1-0.6l0.7-4.4l0.8,4.3
          c2.5-0.3,5.3-0.5,7.2-0.5c1.5,0,4.4,0.3,6.9,0.7l0.3-2.1l0.4,2.3c0.5,0.1,0.9,0.1,1.3,0.2l0.3-1.7l0.3,1.8
          c1.2,0.2,2,0.5,2.2,0.6c0.7,0.8,0.7,22.8,1,23.6C177.7,581.6,183.8,583.8,183.1,580.5z"/>
        <path id="Shirt_1_" class="st4" d="M155.7,577.3c0,0,6.6,9.7,8.9,9.7c2.6,0,9-9.7,9-9.7s9.3-0.1,16.5,10.2
          c0,0-11.3,11.8-24.9,11.8c-13.6,0-25.8-11.9-25.8-11.9S144.7,578.1,155.7,577.3z"/>
      </g>
      <path id="Circle-outline_5_" class="st5" d="M164.6,531.6L164.6,531.6c18.2,0,33.1,14.8,33.1,33.1c0,8.8-3.4,17.1-9.7,23.4
        c-6.2,6.2-14.5,9.7-23.4,9.7c-18.2,0-33.1-14.8-33.1-33.1c0-8.8,3.4-17.1,9.7-23.4C147.5,535,155.8,531.6,164.6,531.6
          M164.6,529.2c-19.6,0-35.4,15.9-35.4,35.4s15.9,35.4,35.4,35.4c19.6,0,35.4-15.9,35.4-35.4C200,545.1,184.2,529.2,164.6,529.2
        L164.6,529.2z"/>
    </g>
    <g id="User-3">
      <circle id="Circle-BG_6_" class="st1" cx="296.3" cy="564.6" r="35.4"/>
      <g id="Man-2">
        <path id="Body_2_" class="st3" d="M321.4,588.3c-3.9-5.7-9.6-9.3-16.5-10.8l-0.1-3.3c2.8-2.8,5.4-6.5,6.6-10.5
          c0.9,0.1,2-1.4,2.4-3.5c0.5-2.2,0-4.3-0.9-4.6c-0.3-0.1-0.6,0-0.9,0.2c-1-8.7-6.6-15.4-15.7-15.4c-9,0-14.7,6.6-15.7,15.3
          c-0.3-0.1-0.5-0.2-0.8-0.1c-1,0.4-1.5,2.5-1,4.7c0.5,2,1.5,3.4,2.4,3.4c1.2,4.1,3.7,7.9,6.6,10.6l-0.2,3
          c-7.3,1.4-13.4,4.9-16.6,11.1c-0.8,1.7,17.7,11.2,25.2,11.2C306.4,599.8,322.6,590.3,321.4,588.3z"/>
        <path id="Hair_2_" class="st6" d="M280.5,555.7c0,0-0.2-16.6,14.1-16.6c2.4-0.9,9.2-1.4,14.5,4.3c4.8,5.1,2.9,12.3,2.9,12.3
          s-9.7-1.1-16.6-10C295.5,545.7,285.6,546.9,280.5,555.7z"/>
        <path id="Shirt_2_" class="st4" d="M287.4,577.3c0,0,4,8.1,8.9,8.1s9-8.2,9-8.2s9.3-0.1,16.5,10.2c0,0-11.3,11.8-24.9,11.8
          s-25.8-11.9-25.8-11.9S276.4,578.1,287.4,577.3z"/>
      </g>
      <path id="Circle-outline_6_" class="st5" d="M296.3,531.6L296.3,531.6c18.2,0,33.1,14.8,33.1,33.1c0,8.8-3.4,17.1-9.7,23.4
        c-6.2,6.2-14.5,9.7-23.4,9.7c-18.2,0-33.1-14.8-33.1-33.1c0-8.8,3.4-17.1,9.7-23.4C279.2,535,287.5,531.6,296.3,531.6
          M296.3,529.2c-19.6,0-35.4,15.9-35.4,35.4s15.9,35.4,35.4,35.4c19.6,0,35.4-15.9,35.4-35.4C331.7,545.1,315.8,529.2,296.3,529.2
        L296.3,529.2z"/>
    </g>
    <g id="User-4">
      <circle id="Circle-BG_7_" class="st1" cx="425.4" cy="492.5" r="35.4"/>
      <g id="Women-2">
        <path id="Hair-back_1_" class="st3" d="M410.1,490c0,0,1.9,17.5-0.1,19.6h30.5c0,0-1.1-14.8,0.4-20.8L410.1,490z"/>
        <path id="Body_3_" class="st7" d="M450.5,516.1c-4.1-6-10.1-9.6-17.5-11l-0.1-2.3c4-3.9,7.4-10.2,7.4-16.4
          c0-10-4.9-18.2-14.9-18.1c-10.1,0-14.9,8.1-14.9,18.1c0,6.3,3.4,12.7,7.5,16.6l-0.1,2c-7.8,1.3-14.4,4.7-17.7,11.3
          c-0.8,1.7,17.7,11.2,25.2,11.2C435.6,527.6,451.8,518.1,450.5,516.1z"/>
        <path id="Hair_3_" class="st3" d="M443.9,508.3c-0.8-3.7-0.5-24.8-0.5-24.8c0-4.6-3.1-17.8-18-16c-14.7-1.9-18,10.9-18,16
          c0,0.5,0.1,23.4-0.4,24.8c-1.3,3.5,6-0.9,6-2.2c0-3,0-21.7,0.4-21.9c0.3-0.2,1.6-0.4,3.1-0.6l0.7-4.4l0.8,4.3
          c2.5-0.3,5.3-0.5,7.2-0.5c1.5,0,4.4,0.3,6.9,0.7l0.3-2.1l0.4,2.3c0.5,0.1,0.9,0.1,1.3,0.2l0.3-1.7l0.3,1.8
          c1.2,0.2,2,0.5,2.2,0.6c0.7,0.8,0.7,22.8,1,23.6C438.5,509.4,444.6,511.6,443.9,508.3z"/>
        <path id="Shirt_3_" class="st4" d="M416.5,505.1c0,0,6.6,9.7,8.9,9.7c2.6,0,9-9.7,9-9.7s9.3-0.1,16.5,10.2
          c0,0-11.3,11.8-24.9,11.8s-25.8-11.9-25.8-11.9S405.5,505.9,416.5,505.1z"/>
      </g>
      <path id="Circle-outline_7_" class="st5" d="M425.4,459.4c18.2,0,33.1,14.8,33.1,33.1c0,8.8-3.4,17.1-9.7,23.4
        c-6.3,6.3-14.5,9.7-23.4,9.7c-18.2,0-33.1-14.8-33.1-33.1c0-8.8,3.4-17.1,9.7-23.4C408.3,462.8,416.6,459.4,425.4,459.4
          M425.4,457c-19.6,0-35.4,15.9-35.4,35.4c0,19.6,15.9,35.4,35.4,35.4c19.6,0,35.4-15.9,35.4-35.4C460.9,472.9,445,457,425.4,457
        L425.4,457z"/>
    </g>
  </g>
  <g id="Services">
    <g id="Background-services">
      <path id="Circle-4" class="st8" d="M436.2,230.2c0,16.9-92.1,137.1-205.7,137.1S24.8,247.1,24.8,230.2
        c0-113.6,92.1-205.7,205.7-205.7S436.2,116.6,436.2,230.2z"/>
      <path id="Circle-3" class="st8" d="M384.1,230.2c0,16.9-68.8,137.1-153.6,137.1S76.8,247.1,76.8,230.2
        c0-84.8,68.8-153.6,153.6-153.6S384.1,145.4,384.1,230.2z"/>
      <path id="Circle-2_8_" class="st8" d="M345.2,230.2c0,16.9-51.4,137.1-114.7,137.1S115.7,247.1,115.7,230.2
        c0-63.3,51.4-114.7,114.7-114.7S345.2,166.9,345.2,230.2z"/>
      <path id="Circle-1_8_" class="st8" d="M316.2,230.2c0,16.9-38.3,137.1-85.7,137.1s-85.7-120.2-85.7-137.1
        c0-47.3,38.3-85.7,85.7-85.7S316.2,182.9,316.2,230.2z"/>
    </g>
    <g id="Ethereum">
      <g id="Circle_3_">
        <path id="Circle-BG_3_" class="st9" d="M164.6,69.6c-18.9,0-34.2-15.4-34.2-34.2s15.4-34.2,34.2-34.2s34.2,15.4,34.2,34.2
          S183.5,69.6,164.6,69.6z"/>
        <path id="Circle-outline_3_" class="st10" d="M164.6,2.3c18.2,0,33.1,14.8,33.1,33.1s-14.8,33.1-33.1,33.1s-33.1-14.9-33.1-33.1
          S146.4,2.3,164.6,2.3 M164.6,0c-19.6,0-35.4,15.9-35.4,35.4s15.9,35.4,35.4,35.4c19.6,0,35.4-15.9,35.4-35.4S184.2,0,164.6,0
          L164.6,0z"/>
      </g>
      <g id="Ethereum-logo">
        <polygon class="st11" points="164.6,13.5 164.3,14.5 164.3,43.4 164.6,43.7 178,35.8 				"/>
        <polygon class="st12" points="164.6,13.5 151.2,35.8 164.6,43.7 164.6,29.7 				"/>
        <polygon class="st13" points="164.6,46.2 164.4,46.5 164.4,56.7 164.6,57.2 178,38.3 				"/>
        <polygon class="st12" points="164.6,57.2 164.6,46.2 151.2,38.3 				"/>
        <polygon class="st14" points="164.6,43.7 178,35.8 164.6,29.7 				"/>
        <polygon class="st15" points="151.2,35.8 164.6,43.7 164.6,29.7 				"/>
      </g>
    </g>
    <g id="AWS">
      <g id="Circle_2_">
        <path id="Circle-BG_2_" class="st9" d="M35.6,141.8c-18.9,0-34.2-15.4-34.2-34.2s15.4-34.2,34.2-34.2s34.2,15.4,34.2,34.2
          S54.4,141.8,35.6,141.8z"/>
        <path id="Circle-outline_2_" class="st10" d="M35.6,74.5c18.2,0,33.1,14.8,33.1,33.1s-14.9,33-33.1,33S2.5,125.8,2.5,107.5
          S17.3,74.5,35.6,74.5 M35.6,72.1C16,72.1,0.2,88,0.2,107.5s15.9,35.4,35.4,35.4S71,127,71,107.5S55.1,72.1,35.6,72.1L35.6,72.1z
          "/>
      </g>
      <g id="AWS-logo">
        <path class="st16" d="M26,104c0,0.5,0.1,1,0.2,1.3s0.3,0.7,0.5,1c0.1,0.1,0.1,0.2,0.1,0.3c0,0.1-0.1,0.3-0.3,0.4l-0.9,0.6
          c-0.1,0.1-0.3,0.1-0.4,0.1s-0.3-0.1-0.4-0.2c-0.2-0.2-0.4-0.5-0.5-0.7s-0.3-0.5-0.5-0.9c-1.1,1.3-2.6,2-4.3,2
          c-1.2,0-2.2-0.3-2.9-1s-1.1-1.6-1.1-2.8s0.4-2.2,1.3-3s2.1-1.1,3.6-1.1c0.5,0,1,0,1.5,0.1s1.1,0.2,1.7,0.3v-1.1
          c0-1.1-0.2-1.9-0.7-2.3c-0.5-0.5-1.2-0.7-2.4-0.7c-0.5,0-1,0.1-1.6,0.2c-0.5,0.1-1.1,0.3-1.6,0.5c-0.2,0.1-0.4,0.2-0.5,0.2
          s-0.2,0-0.2,0c-0.2,0-0.3-0.1-0.3-0.5V96c0-0.2,0-0.4,0.1-0.5s0.2-0.2,0.4-0.3c0.5-0.3,1.1-0.5,1.8-0.7c0.7-0.2,1.5-0.3,2.3-0.3
          c1.7,0,3,0.4,3.8,1.2c0.8,0.8,1.2,2,1.2,3.6L26,104L26,104z M20.1,106.2c0.5,0,1-0.1,1.5-0.3c0.5-0.2,1-0.5,1.4-0.9
          c0.2-0.3,0.4-0.6,0.5-0.9s0.1-0.8,0.1-1.3v-0.6c-0.4-0.1-0.9-0.2-1.3-0.2c-0.5-0.1-0.9-0.1-1.4-0.1c-1,0-1.7,0.2-2.2,0.6
          s-0.7,0.9-0.7,1.7c0,0.7,0.2,1.2,0.5,1.5C18.9,106,19.5,106.2,20.1,106.2z M31.8,107.7c-0.3,0-0.4,0-0.6-0.1
          c-0.1-0.1-0.2-0.3-0.3-0.6l-3.4-11.2c-0.1-0.3-0.1-0.5-0.1-0.6c0-0.2,0.1-0.4,0.3-0.4h1.4c0.3,0,0.5,0,0.6,0.1s0.2,0.3,0.3,0.6
          l2.4,9.6l2.3-9.6c0.1-0.3,0.2-0.5,0.3-0.6s0.3-0.1,0.6-0.1h1.2c0.3,0,0.5,0,0.6,0.1s0.2,0.3,0.3,0.6l2.3,9.7l2.5-9.7
          c0.1-0.3,0.2-0.5,0.3-0.6s0.3-0.1,0.6-0.1h1.4c0.2,0,0.4,0.1,0.4,0.4c0,0.1,0,0.1,0,0.2s0,0.2-0.1,0.4L41.6,107
          c-0.1,0.3-0.2,0.5-0.3,0.6s-0.3,0.1-0.6,0.1h-1.2c-0.3,0-0.5,0-0.6-0.1s-0.2-0.3-0.3-0.6l-2.3-9.4l-2.2,9.4
          c-0.1,0.3-0.2,0.5-0.3,0.6s-0.3,0.1-0.6,0.1H31.8L31.8,107.7z M50.5,108.1c-0.8,0-1.5-0.1-2.2-0.3c-0.7-0.2-1.3-0.4-1.7-0.6
          c-0.2-0.1-0.4-0.3-0.5-0.4s-0.1-0.3-0.1-0.4v-0.7c0-0.3,0.1-0.5,0.3-0.5c0.1,0,0.2,0,0.3,0s0.2,0.1,0.4,0.1
          c0.5,0.2,1,0.4,1.6,0.5s1.1,0.2,1.7,0.2c0.9,0,1.6-0.2,2.1-0.5s0.8-0.8,0.8-1.4c0-0.4-0.1-0.7-0.4-1c-0.3-0.3-0.8-0.5-1.5-0.8
          l-2.1-0.7c-1.1-0.3-1.8-0.8-2.3-1.5c-0.5-0.6-0.7-1.4-0.7-2.1c0-0.6,0.1-1.1,0.4-1.6c0.3-0.5,0.6-0.9,1-1.2
          c0.4-0.3,0.9-0.6,1.5-0.8s1.2-0.2,1.8-0.2c0.3,0,0.7,0,1,0.1c0.3,0,0.6,0.1,0.9,0.2s0.6,0.1,0.8,0.2c0.3,0.1,0.5,0.2,0.6,0.3
          c0.2,0.1,0.3,0.2,0.4,0.4c0.1,0.1,0.1,0.3,0.1,0.5v0.7c0,0.3-0.1,0.5-0.3,0.5c-0.1,0-0.3-0.1-0.6-0.2C53,96.5,52,96.3,51,96.3
          c-0.8,0-1.5,0.1-1.9,0.4c-0.5,0.3-0.7,0.7-0.7,1.3c0,0.4,0.1,0.8,0.4,1c0.3,0.3,0.8,0.6,1.6,0.8l2.1,0.7c1,0.3,1.8,0.8,2.3,1.4
          s0.7,1.3,0.7,2c0,0.6-0.1,1.2-0.4,1.7c-0.3,0.5-0.6,0.9-1.1,1.3s-1,0.6-1.6,0.8C51.9,108,51.2,108.1,50.5,108.1z"/>
        <path class="st17" d="M53.2,115.2c-4.8,3.5-11.7,5.4-17.7,5.4c-8.4,0-15.9-3.1-21.6-8.2c-0.5-0.4,0-1,0.5-0.6
          c6.2,3.6,13.8,5.7,21.6,5.7c5.3,0,11.1-1.1,16.5-3.4C53.3,113.7,54,114.6,53.2,115.2z M55.2,112.9c-0.6-0.8-4-0.4-5.6-0.2
          c-0.5,0.1-0.5-0.3-0.1-0.7c2.7-1.9,7.2-1.4,7.7-0.7s-0.1,5.1-2.7,7.3c-0.4,0.3-0.8,0.2-0.6-0.3
          C54.5,116.9,55.8,113.7,55.2,112.9z"/>
      </g>
    </g>
    <g id="Mailchimp">
      <g id="Circle_1_">
        <path id="Circle-BG_1_" class="st9" d="M296.3,69.6c-18.9,0-34.2-15.4-34.2-34.2s15.4-34.2,34.2-34.2
          c18.9,0,34.2,15.4,34.2,34.2S315.2,69.6,296.3,69.6z"/>
        <path id="Circle-outline_1_" class="st10" d="M296.3,2.3c18.2,0,33.1,14.8,33.1,33.1s-14.8,33.1-33.1,33.1s-33.1-14.9-33.1-33.1
          S278.1,2.3,296.3,2.3 M296.3,0c-19.6,0-35.4,15.9-35.4,35.4s15.9,35.4,35.4,35.4c19.6,0,35.4-15.9,35.4-35.4S315.8,0,296.3,0
          L296.3,0z"/>
      </g>
      <g id="Mailchimp-logo">
        <path class="st18" d="M312,53.9v0.7h0.2v-0.5l0.1,0.5h0.2l0.1-0.5v0.5h0.2v-0.7h-0.3l-0.1,0.4l-0.1-0.4H312 M311.5,54.1v0.5h0.2
          v-0.5h0.2v-0.2h-0.6v0.2H311.5z M316.5,44.8c0,0.1-3.2,12.5-15.9,12.5c-10.9,0-16.1-9.5-16.1-9.5c-0.8,0-1.6-0.1-2.3-0.3
          c-3.2-1.2-4.7-4.8-3.6-7.9l-1.8-1.3c-6.8-5.2,12.5-29,19.3-23.6l1.6,1.3c2.5-1.5,4.9-2.3,6.9-2.3c1.4,0,2.6,0.4,3.4,1.3
          c1.8,1.9,1.1,5.6-1.3,9.3c0.5,0.5,1,1.2,1.3,1.8c0.8,0.6,1.3,1.5,1.5,2.7c0.3,1.4,0.3,3.4,0.5,4.2c0.7,0.3,0.4,0.2,1.1,0.5
          c0.7,0.4,1.6,0.8,2.6,1.7c1.7,0.4,2.4,2.3,1.4,3.5c0,0-0.1,0.2-0.3,0.3c0,0.1,0.4,0.6,0.6,1.7c0.7,0.2,1.3,0.6,1.6,1.3
          C317.5,43.2,316.5,44.8,316.5,44.8z"/>
        <path class="st19" d="M311.2,50.2c3.4-2.7,4-5.9,4.1-6c0.8-1,0.6-2-0.5-2c-0.4,0-0.6,0.1-0.6,0.1s0-1.5-0.7-2.6
          c-0.5,0.6-2,1.8-3.9,2.7c-1.8,0.9-4.2,1.6-7.2,1.7l0,0c-0.8,0-1.3-0.1-1.6,0.9c-0.1,0.3-0.1,0.9,0,1c0.2,0.8,0.8,1.2,1.7,1.3
          c0.6,0.1,1.3,0.2,1.3,0.2c6,0.2,10.9-4.5,10.9-4.6c0.1,0,0.1-0.1,0.1-0.1l-0.1,0.1c-0.9,2-5.9,5.5-10.9,5.4l0,0
          c-1.2,0-2.6-0.3-3.3-1.2c-1.2-1.4-0.6-3.8,1.3-3.9c0,0,0.4,0,0.6,0c4.6-0.1,8.7-1.8,11.7-5.3c0.4-0.5,0-1.2-0.9-1.2l0,0
          c-1-1.1-2-1.5-2.8-1.9c-1.7-0.9-1.5-0.1-1.9-4.3c-0.1-1.1-0.3-2.7-1.3-3.3c-0.3-0.2-0.5-0.2-0.8-0.2s-0.4,0.1-0.5,0.1
          c-0.5,0.1-0.9,0.4-1.2,0.8c-1.8,1.7-3.3,1.2-5.5,1.2c-2.1,0-3.9,1.4-4.2,3.6l0,0c-0.2,1.2-0.1,2.3,0.1,2.9c0,0-0.6-0.4-0.8-0.7
          c0.3,2,2.2,3.3,2.2,3.3c-0.3,0.1-0.7,0-0.7,0s1.1,0.8,2,1.1c-0.2,0.1-1.4,1.3-2.1,3c-0.6,1.5-0.3,3.4-0.3,3.4l0.5-0.8
          c0,0-0.3,1.7,0.3,3.3c0.2-0.5,0.7-1.3,0.7-1.3s-0.1,1.8,0.8,3.3c0-0.3,0.2-1.2,0.2-1.2s0.5,1.5,1.6,2.6
          C301.1,53.2,306.8,53.6,311.2,50.2 M287.1,40.1L287.1,40.1c0.3-0.7,0.4-1.3,0.4-1.3c0.3,1,0.5,2,0.4,3c0.3-0.3,0.5-1,0.5-1
          c0.5,2.9-1.6,5.5-4.4,5.5c-2.4,0-4.4-2.1-4.4-4.7c0-2.6,2-4.7,4.4-4.7c0.6,0,1.2,0.1,1.8,0.4C285.9,37.4,286.8,37.9,287.1,40.1z
          "/>
        <path class="st20" d="M279.3,38.2c0,0-1.7-1.2-1.9-1.6c-1.4-2.3,1-7.1,2.7-9.9c4.2-6.7,11.3-12.1,14.5-11.3l3.3,1.7
          c-1.3,0.8-2.5,1.7-3.3,2.3l-0.7,0.6c0,0-2,1.4-3.1,2.2c-4.1,3.5-8.1,8.9-9.6,14.1C281.3,36.2,280.1,36.9,279.3,38.2"/>
        <path class="st21" d="M294.6,15.4L294.6,15.4c-3.2-0.8-10.3,4.6-14.5,11.3l0,0l0,0l3.4,2.7c3.7-5.9,8.4-8.9,8.5-9l-0.5-3.6
          l1-0.5l2,0.7l-0.2-0.7L294.6,15.4"/>
        <path class="st22" d="M297.9,17.1l-3.3,2.3l-0.2,0.2l-2.9-2.4l-0.1-0.4l1-0.5c0.1,0,1.9,0.6,2,0.7v-1.2l0.1-0.3l0.9-0.3
          C295.5,15,297.9,17.1,297.9,17.1"/>
        <path class="st23" d="M304.3,14.8c-2.2,0-4.6,1.1-6.4,2.2c-0.3,0.2-0.5,0.3-0.8,0.5l-1-0.8l0.4,1.2c-0.1,0.1-0.3,0.2-0.4,0.3
          l-2-0.6l1.3,1.1c-0.3,0.2-0.6,0.4-0.8,0.6l-3.2-2.6l0.2,1.2l2.3,2c0,0-2,1.4-3.1,2.2c-4.1,3.5-8.1,8.9-9.6,14.1h0.1l0,0
          c0,0,0.1,0,0.1-0.1h0.1c0,0,0.1,0,0.1-0.1h0.1c0,0,0.1,0,0.1-0.1c0,0,0,0,0.1,0s0.1,0,0.2-0.1c1-0.3,2.4-0.5,4,0.2
          c0.8-2,1.8-4.1,3.3-6.1c1.2-1.6,2.4-3.1,3.8-3.9c2.7-2.5,10-5.2,12.3-2.9c0.6-0.9,1-1.8,1.4-2.8
          C308.1,17.8,308.1,14.8,304.3,14.8"/>
        <polyline class="st23" points="295.1,17.1 294.6,15.4 294.3,16.2 294.5,16.9 295.1,17.1 				"/>
        <path class="st9" d="M300,16c1.2-0.5,2.4-1,3.6-1.1c-1.2,0.3-2.7,0.9-4.4,2c0,0-4.1,2.8-6.6,5.2c-1.4,1.3-6.8,7.8-6.8,7.8
          c1-1.9,1.6-2.8,3.2-4.8c0.9-1.1,1.8-2.2,2.8-3.2c0.3-0.3,0.7-0.7,1-1C293,20.8,295.8,17.9,300,16 M314.1,42.2c0,0,0-1.5-0.7-2.6
          c-0.5,0.6-2,1.8-3.9,2.7c-1.8,0.9-4.2,1.6-7.2,1.7l0,0c-0.8,0-1.3-0.1-1.6,0.9c0,0.1,0,0.2,0,0.3l0,0l0,0v0.1c0,0.1,0,0.2,0,0.2
          l0,0l0,0v0.1l0,0l0,0c0,0.2,0.1,0.2,0.1,0.2l0,0l0,0c0.2,0.8,0.8,1.1,1.6,1.3c0.6,0.1,1.3,0.2,1.3,0.2c4.9,0.1,9-3,10.4-4.1
          C314.1,42.9,314.1,42.6,314.1,42.2z"/>
        <path class="st24" d="M285.7,43.6L285.7,43.6c0.3-0.3,0.4-0.7,0.3-1c-0.1-0.5-0.7-0.6-1.1-1.1l0,0l0,0l0,0
          c-0.2-0.2-0.2-0.4-0.2-0.7c0-0.6,0.5-0.7,0.8-0.6c0,0,0.3,0.1,0.5,0.4l0,0c0-0.1,0-0.3-0.2-0.5c-0.3-0.4-1-0.9-2-0.7l0,0
          c-0.2,0-0.1,0-0.3,0.1h-0.1c-0.1,0-0.1,0-0.2,0.1c0,0-0.2,0.1-0.3,0.2C281.8,41.2,283.6,43.8,285.7,43.6 M309.6,44L309.6,44
          c-0.5,0.1-5.7,2.1-9,1.1c0,0.2,0,0.6,0.1,0.7l0,0c0.5,0.1,1.1,0.2,1.8,0.2C306.9,46,310,44.1,309.6,44z M309,34
          c-0.5-0.3-0.5-1-0.8-3.8c-0.1-0.9-0.2-2-0.8-2.8c-0.1-0.1-0.3-0.2-0.5-0.2c-0.3,0-0.7,0.3-1,0.6c-0.6,0.9-1.2,1.5-2.3,2
          c-1.1,0.5-2.1,0.7-3.2,0.6c-0.8,0-1.5-0.2-2.1-0.2c-1.2,0-2.3,0.4-3.1,1.4c-0.5,0.7-0.8,1.4-0.8,2.2c0,0.1,0,0.2,0,0.3
          s0,0.3,0,0.4c0.1,0.4,0.1,0.7,0.1,0.7l0,0c0,0,0,0,0,0.1c0,0-0.6-0.4-0.8-0.7c0.3,1.7,1.6,2.9,2,3.2c0,0,0.1,0,0.1,0.1l0,0h0.1
          c-0.3,0.1-0.7,0-0.7,0s1.1,0.8,2,1.1c1.2-1,2.6-1.4,3.7-1.5c0.7-0.4,1.4-0.8,2.2-1.2c-0.2-1.5,1.1-3,2.7-3.1
          c1.3-0.1,1.9,0.5,2.3,1.1C308.5,34.2,308.8,34.1,309,34C309.1,34.1,309,34,309,34z M299.9,44.6c0.2-0.8,0.8-1.5,1.8-1.5
          c0,0,0.4,0,0.6,0c4.6-0.1,8.7-1.8,11.7-5.3c0.4-0.5,0-1.2-0.9-1.2l0,0c-0.1,0.2-0.2,0.4-0.4,0.9c-0.9,1.6-2.1,2.3-3.8,3.1
          c-5.1,2.5-7.7,1.3-8.8,2.9C299.7,43.9,299.7,44.4,299.9,44.6L299.9,44.6z M307.2,34.6c-0.7-0.5-1.9-0.1-2.1,0.7
          c0.4,0,0.8,0.3,0.8,0.7c0.3-0.3,0.7-0.4,1.1-0.4C306.8,35.3,306.9,34.7,307.2,34.6z M311.2,50.2c-0.6,0.5-1.2,0.9-1.8,1.2
          c-1.4-0.6-2.3-1.7-2.3-1.7s1.2-0.3,2.9-1.1c2-1,3.9-2.5,5.3-4.4C315.2,44.3,314.6,47.5,311.2,50.2z"/>
        <path class="st25" d="M294.5,25.4c4.8-3.1,9.5-3.4,11.1-2.2l0,0v-0.1c-0.4-0.9-1.4-1.5-2.2-1.7c0.2,0.2,0.4,0.4,0.5,0.6
          c-0.6-0.4-1.5-0.8-2.4-1l0.1,0.1c0.2,0.2,0.4,0.4,0.5,0.7c-0.9-0.3-1.9-0.5-2.9-0.4h-0.1h0.1c0.3,0.1,0.7,0.3,0.9,0.5
          c-1.5-0.3-3.2,0-4.2,0.5c0.1,0,0.1,0,0.2,0c0.3,0,1,0.1,1.3,0.2c-1,0.2-2.4,0.6-3.1,1.3c0.1,0,0.9-0.1,1.2-0.1
          c-4.2,2.4-6.1,6-6.1,6C290.8,28.3,292.4,26.8,294.5,25.4 M304.7,35.6c-0.1,0.3,0,0.6,0.4,0.8c0.3,0.2,0.7,0.1,0.9-0.1
          c0.1-0.3,0-0.6-0.4-0.8S304.8,35.3,304.7,35.6z M307.4,34.6c-0.3,0-0.5,0.2-0.6,0.6c-0.1,0.4,0.1,0.7,0.4,0.7s0.5-0.2,0.6-0.6
          C307.8,34.9,307.7,34.6,307.4,34.6z M285.3,41.1c-0.1-0.1-0.1-0.1-0.2-0.2c0-0.2,0-0.3,0.1-0.4c0.1-0.1,0.2-0.1,0.2-0.2
          c0-0.1-0.4-0.2-0.7,0.1c-0.2,0.2-0.3,0.7,0.1,1.1c0.4,0.4,1,0.5,1.1,1.1c0,0.1,0,0.2,0,0.2c0,0.1,0,0.2,0,0.2
          c-0.1,0.5-0.6,1-1.5,0.9c-0.2,0-0.3,0-0.3,0c-0.1,0.1,0.3,0.5,0.9,0.5s1.3-0.5,1.5-1.2c0,0,0.1-0.2,0.1-0.4c0-0.1,0-0.3,0-0.4
          C286.5,41.6,285.6,41.4,285.3,41.1z M285.4,39.8L285.4,39.8L285.4,39.8c0.1,0.1,0.2,0.2,0.3,0.3c0.2,0.3,0.2,0.5,0.3,0.6h0.1
          c0.1-0.1,0.2-0.3,0.2-0.4l0,0c0-0.4-0.2-0.7-0.4-1l0,0c-0.2-0.2-0.3-0.3-0.6-0.5c-0.2-0.1-0.5-0.2-0.8-0.3c-0.5-0.1-1,0-1.2,0.1
          l0,0c-0.1,0-0.2,0-0.2,0.1c-0.8,0.3-1.4,0.9-1.7,1.7l0,0l0,0c-0.1,0.3-0.1,0.6-0.1,0.9c0,0.2,0,0.5,0.1,0.7l0,0l0,0l0,0
          c0.1,0.3,0.2,0.7,0.4,0.9l0,0c0.3,0.3,0.6,0.3,0.5,0c0-0.1-0.2-0.4-0.2-1c0-0.4,0-0.8,0.2-1.2c0.1-0.2,0.2-0.4,0.3-0.6
          c0.3-0.4,0.6-0.5,0.7-0.5c0,0,0.1,0,0.2-0.1c0,0,0,0,0.1,0c0.2-0.1,0.1,0,0.3-0.1l0,0C284.4,39.3,285,39.5,285.4,39.8z
            M301.7,35.9c-0.3-0.2-0.8-0.4-1.3-0.3c-0.1,0-0.2,0.1-0.3,0.1H300c-0.2,0.1-0.4,0.2-0.6,0.4s-0.3,0.4-0.2,0.4s0.2,0,0.4-0.1
          c0.8-0.3,1.3-0.3,1.8-0.3c0.2,0,0.4,0,0.4,0C301.8,36.1,301.8,36,301.7,35.9z M301.9,34.9c0.1,0.1,0.1,0.2,0.1,0.3
          c-0.1,0.1-0.3,0-0.7-0.2c-1-0.4-1.8-0.4-3.1,0.1c-0.3,0.1-0.6,0.2-0.7,0.2c-0.2,0,0-0.4,0.4-0.7c0.8-0.6,1.9-0.8,2.9-0.5
          C301.2,34.2,301.6,34.5,301.9,34.9z"/>
        <path class="st18" d="M305.8,32.1c0-0.3,0-0.9,0.4-1l0,0c0.5-0.2,1.2,1.2,1.3,2.4c-0.4-0.2-0.9-0.3-1.4-0.3
          C305.8,32.9,305.8,32.5,305.8,32.1"/>
      </g>
    </g>
    <g id="Bitcoin">
      <g id="Circle">
        <path id="Circle-BG" class="st9" d="M425.4,141.8c-18.9,0-34.2-15.4-34.2-34.2s15.4-34.2,34.2-34.2c18.9,0,34.2,15.4,34.2,34.2
          S444.3,141.8,425.4,141.8z"/>
        <path id="Circle-outline" class="st10" d="M425.4,74.5c18.2,0,33.1,14.8,33.1,33.1s-14.8,33-33.1,33s-33.1-14.8-33.1-33.1
          S407.2,74.5,425.4,74.5 M425.4,72.1c-19.6,0-35.4,15.9-35.4,35.4s15.9,35.4,35.4,35.4s35.4-15.9,35.4-35.4S445,72.1,425.4,72.1
          L425.4,72.1z"/>
      </g>
      <g id="Bitcoin-logo" transform="scale(0.015625)">

          <linearGradient id="coin_1_" gradientUnits="userSpaceOnUse" x1="2471.1838" y1="-1905523" x2="2471.1838" y2="-1905566.625" gradientTransform="matrix(3.051758e-05 0 0 -3.051758e-05 -3986998.75 24415922)">
          <stop  offset="0" style="stop-color:#F8A94B"/>
          <stop  offset="1" style="stop-color:#F6921E"/>
        </linearGradient>
        <path id="coin_21_" class="st26" d="M28585.9,7225.4c-186.7,749-945.4,1204.8-1694.4,1018.1
          c-748.7-186.7-1204.6-945.4-1017.8-1694.4c186.6-749.1,945.3-1205,1694.1-1018.2C28316.8,5717.7,28772.6,6476.4,28585.9,7225.4
          L28585.9,7225.4z"/>
        <path id="symbol_21_" class="st9" d="M27846,6688c27.8-186-113.8-286-307.5-352.8l62.8-252l-153.4-38.2l-61.2,245.3
          c-40.3-10-81.7-19.5-122.9-28.9l61.6-246.9l-153.3-38.2l-62.9,251.9c-33.4-7.6-66.1-15.1-97.9-23l0.2-0.8l-211.5-52.8
          l-40.8,163.8c0,0,113.8,26.1,111.4,27.7c62.1,15.5,73.3,56.6,71.5,89.2c-172.1,690.3,0,0-172.1,690.3
          c-7.6,18.9-26.9,47.2-70.3,36.4c1.5,2.2-111.5-27.8-111.5-27.8l-76.1,175.6l199.6,49.8c37.1,9.3,73.5,19,109.3,28.2l-63.5,254.9
          l153.2,38.2l62.9-252.1c41.8,11.4,82.5,21.8,122.2,31.7l-62.6,251l153.4,38.2l63.5-254.4c261.5,49.5,458.3,29.5,541.1-207
          c66.7-190.5-3.3-300.3-140.9-372.1C27750.4,6890.1,27825.9,6824.2,27846,6688L27846,6688z M27495.5,7179.5
          c-47.4,190.5-368.2,87.5-472.1,61.7l84.2-337.7C27211.7,6929.5,27545,6980.9,27495.5,7179.5z M27543,6685.2
          c-43.2,173.2-310.2,85.2-396.8,63.6l76.4-306.3C27309.2,6464.2,27588,6504.5,27543,6685.2z"/>
      </g>
    </g>
  </g>
  <g id="MESG">
    <g id="Circle-MESG_349_">
      <path id="Circle-BG_8_" class="st27" d="M230.4,268.4c-18.9,0-34.2-15.4-34.2-34.2s15.4-34.2,34.2-34.2s34.2,15.4,34.2,34.2
        S249.4,268.4,230.4,268.4z"/>
      <path id="Circle-outline_8_" class="st28" d="M230.4,201.1L230.4,201.1c18.2,0,33.1,14.8,33.1,33.1c0,8.8-3.4,17.1-9.7,23.4
        c-6.2,6.2-14.5,9.7-23.4,9.7c-18.2,0-33.1-14.8-33.1-33.1c0-8.8,3.4-17.1,9.7-23.4C213.3,204.5,221.6,201.1,230.4,201.1
          M230.4,198.7c-19.6,0-35.4,15.9-35.4,35.4c0,19.6,15.9,35.4,35.4,35.4c19.6,0,35.4-15.9,35.4-35.4
        C266,214.6,250.1,198.7,230.4,198.7L230.4,198.7z"/>
    </g>
    <path id="MESG_1_" class="st28" d="M222.6,222.7c-0.1-0.1-0.3-0.2-0.4-0.2c-0.2,0-0.4,0.1-0.5,0.3l-2.5,3.7l-2.4-3.7
      c-0.1-0.1-0.1-0.1-0.2-0.2c-0.1,0-0.2-0.1-0.3-0.1c-0.2,0-0.3,0.1-0.4,0.2s-0.2,0.3-0.2,0.4v6.4c0,0.2,0.1,0.3,0.2,0.4
      s0.2,0.2,0.4,0.2s0.3-0.1,0.4-0.2s0.2-0.3,0.2-0.4v-4.7l1.9,3c0.1,0.1,0.1,0.1,0.2,0.2s0.2,0.1,0.3,0.1s0.2,0,0.3-0.1
      c0.1,0,0.2-0.1,0.2-0.2l1.9-2.9v4.6c0,0.2,0.1,0.3,0.2,0.4s0.3,0.2,0.4,0.2c0.2,0,0.3-0.1,0.4-0.2c0.1-0.1,0.2-0.3,0.2-0.4v-6.4
      C222.8,223,222.7,222.8,222.6,222.7L222.6,222.7z M229.4,223.7c0.2,0,0.3-0.1,0.4-0.2s0.2-0.2,0.2-0.4s-0.1-0.3-0.2-0.4
      s-0.3-0.2-0.4-0.2h-3.7c-0.2,0-0.3,0.1-0.4,0.2s-0.2,0.3-0.2,0.4v6.4c0,0.2,0.1,0.3,0.2,0.4s0.3,0.2,0.4,0.2h3.7
      c0.2,0,0.3-0.1,0.4-0.2s0.2-0.2,0.2-0.4s-0.1-0.3-0.2-0.4l0,0c-0.1-0.1-0.3-0.2-0.4-0.2h-3.1v-2.2h2.6c0.2,0,0.3-0.1,0.4-0.2
      c0.1-0.1,0.2-0.2,0.2-0.4s-0.1-0.3-0.2-0.4c-0.1-0.1-0.3-0.2-0.4-0.2h-2.6v-2h3.1V223.7z M236,226.2c-0.4-0.2-0.8-0.3-1.4-0.4
      c-0.5-0.1-0.9-0.3-1.2-0.5s-0.4-0.4-0.4-0.7s0.1-0.5,0.4-0.7c0.3-0.2,0.6-0.3,1.1-0.3c0.3,0,0.6,0.1,0.9,0.2s0.6,0.3,0.7,0.4
      s0.2,0.1,0.3,0.1c0.2,0,0.3-0.1,0.4-0.2c0.1-0.1,0.2-0.3,0.2-0.4c0-0.2-0.1-0.4-0.3-0.5c-0.2-0.2-0.6-0.4-1-0.6
      c-0.4-0.1-0.8-0.2-1.3-0.2s-1,0.1-1.3,0.3c-0.4,0.2-0.7,0.4-0.9,0.8c-0.2,0.3-0.3,0.7-0.3,1.1c0,0.6,0.2,1.1,0.6,1.5
      c0.4,0.3,1,0.6,1.7,0.8c0.6,0.1,1.1,0.3,1.3,0.5c0.3,0.2,0.4,0.4,0.4,0.8c0,0.3-0.1,0.5-0.4,0.7s-0.7,0.3-1.1,0.3
      c-0.4,0-0.7-0.1-1-0.2c-0.3-0.1-0.6-0.3-0.8-0.6c-0.1-0.1-0.2-0.1-0.4-0.1s-0.3,0.1-0.4,0.2s-0.2,0.3-0.2,0.4
      c0,0.2,0.1,0.4,0.3,0.5c0.4,0.3,0.8,0.6,1.2,0.7l0,0c0.4,0.1,0.9,0.2,1.4,0.2s0.9-0.1,1.3-0.3s0.7-0.4,1-0.8
      c0.2-0.3,0.4-0.7,0.4-1.1c0-0.5-0.1-0.9-0.3-1.2C236.6,226.6,236.3,226.3,236,226.2z M245,226.2L245,226.2
      c-0.1-0.1-0.3-0.2-0.4-0.2h-1.9c-0.2,0-0.3,0.1-0.4,0.2c-0.1,0.1-0.2,0.3-0.2,0.4c0,0.2,0.1,0.3,0.2,0.4c0.1,0.1,0.3,0.2,0.4,0.2
      h1.2v1.5c-0.2,0.1-0.4,0.1-0.6,0.2c-0.3,0.1-0.5,0.1-0.7,0.1c-0.5,0-0.9-0.1-1.3-0.4c-0.4-0.2-0.7-0.6-1-1
      c-0.2-0.4-0.4-0.9-0.4-1.4s0.1-1,0.4-1.4c0.2-0.4,0.6-0.7,1-1c0.4-0.2,0.9-0.4,1.3-0.4c0.5,0,0.9,0.1,1.4,0.3
      c0.1,0.1,0.2,0.1,0.3,0.1c0.2,0,0.3-0.1,0.4-0.2s0.2-0.3,0.2-0.4s0-0.2-0.1-0.3s-0.1-0.2-0.2-0.2c-0.3-0.2-0.6-0.3-0.9-0.4
      c-0.3-0.1-0.7-0.1-1-0.1c-0.7,0-1.4,0.2-2,0.5s-1.1,0.8-1.4,1.4c-0.3,0.6-0.5,1.3-0.5,2s0.2,1.4,0.5,2s0.8,1.1,1.4,1.4
      c0.6,0.3,1.3,0.5,2,0.5c0.4,0,0.8-0.1,1.2-0.2c0.4-0.1,0.8-0.3,1.1-0.5c0.2-0.1,0.3-0.3,0.3-0.5v-2.4
      C245.2,226.5,245.1,226.4,245,226.2z"/>
    <path id="CORE" class="st9" d="M219.6,236.3c0,0.2-0.1,0.3-0.2,0.5c-0.1,0.2-0.3,0.2-0.5,0.2c-0.1,0-0.3,0-0.4-0.1
      c-0.6-0.4-1.3-0.5-2-0.5s-1.4,0.2-2,0.5s-1,0.8-1.3,1.4c-0.3,0.6-0.5,1.3-0.5,2c0,0.8,0.2,1.5,0.5,2.1s0.8,1.1,1.4,1.4
      c0.6,0.3,1.2,0.5,1.9,0.5s1.4-0.2,2-0.5c0.1-0.1,0.2-0.1,0.4-0.1s0.4,0.1,0.5,0.3s0.2,0.3,0.2,0.5c0,0.1,0,0.2-0.1,0.3
      s-0.2,0.2-0.3,0.2c-0.4,0.2-0.8,0.4-1.3,0.5s-1,0.2-1.4,0.2c-1,0-1.9-0.2-2.7-0.6c-0.8-0.4-1.5-1.1-1.9-1.9
      c-0.5-0.8-0.7-1.8-0.7-2.9c0-1,0.2-1.9,0.7-2.7s1.1-1.5,1.9-1.9c0.8-0.5,1.7-0.7,2.7-0.7s1.9,0.2,2.7,0.7
      C219.5,235.9,219.6,236.1,219.6,236.3z M230.2,243.1c-0.4,0.8-1,1.5-1.8,1.9c-0.8,0.5-1.6,0.7-2.6,0.7s-1.8-0.2-2.6-0.7
      s-1.4-1.1-1.8-1.9c-0.4-0.8-0.7-1.7-0.7-2.7s0.2-1.9,0.7-2.7c0.4-0.8,1-1.5,1.8-1.9c0.8-0.5,1.6-0.7,2.6-0.7s1.8,0.2,2.6,0.7
      s1.4,1.1,1.8,1.9c0.4,0.8,0.7,1.7,0.7,2.7C230.9,241.4,230.7,242.3,230.2,243.1z M228.9,238.3c-0.3-0.6-0.7-1.1-1.3-1.4
      c-0.5-0.3-1.1-0.5-1.8-0.5s-1.3,0.2-1.8,0.5s-1,0.8-1.3,1.4c-0.3,0.6-0.4,1.3-0.4,2s0.2,1.4,0.4,2c0.3,0.6,0.7,1.1,1.3,1.4
      c0.5,0.3,1.1,0.5,1.8,0.5s1.3-0.2,1.8-0.5s1-0.8,1.3-1.4c0.3-0.6,0.4-1.3,0.4-2C229.4,239.6,229.2,238.9,228.9,238.3z
        M241.1,244.7c0.1,0.1,0.1,0.2,0.1,0.3c0,0.2-0.1,0.4-0.2,0.5s-0.3,0.2-0.5,0.2s-0.4,0-0.5-0.1c-0.3-0.2-0.5-0.4-0.7-0.8
      c-0.2-0.4-0.3-0.9-0.3-1.7c0-0.5-0.1-0.9-0.4-1.1s-0.7-0.4-1.2-0.4h-3v3.4c0,0.2-0.1,0.4-0.2,0.5s-0.3,0.2-0.5,0.2
      s-0.4-0.1-0.6-0.2s-0.2-0.3-0.2-0.5v-9.1c0-0.2,0.1-0.4,0.2-0.5s0.3-0.2,0.5-0.2h4.2c0.5,0,1,0.1,1.5,0.4c0.5,0.3,0.8,0.6,1.1,1.1
      s0.4,1,0.4,1.6s-0.1,1.1-0.4,1.6c-0.3,0.5-0.7,0.8-1.2,1.1c0.4,0.2,0.7,0.5,0.9,0.8s0.3,0.7,0.4,1.2c0,0.6,0.1,1,0.1,1.2
      s0.2,0.4,0.3,0.4C241,244.5,241.1,244.6,241.1,244.7z M238.5,240c0.2-0.2,0.4-0.4,0.5-0.7s0.2-0.6,0.2-1c0-0.5-0.1-0.9-0.4-1.2
      c-0.3-0.3-0.7-0.5-1.1-0.5h-3.4v3.8h3.4C238,240.2,238.3,240.1,238.5,240z M249.5,244.4c0.1,0.1,0.2,0.3,0.2,0.5s-0.1,0.4-0.2,0.5
      s-0.3,0.2-0.5,0.2h-5.2c-0.2,0-0.4-0.1-0.5-0.2s-0.2-0.3-0.2-0.5v-9.1c0-0.2,0.1-0.4,0.2-0.5s0.3-0.2,0.5-0.2h5.2
      c0.2,0,0.4,0.1,0.5,0.2s0.2,0.3,0.2,0.5s-0.1,0.4-0.2,0.5s-0.3,0.2-0.5,0.2h-4.4v3.1h3.8c0.2,0,0.4,0.1,0.5,0.2
      c0.1,0.1,0.2,0.3,0.2,0.5s-0.1,0.4-0.2,0.5c-0.1,0.1-0.3,0.2-0.5,0.2h-3.8v3.3h4.5C249.2,244.2,249.4,244.3,249.5,244.4z"/>
  </g>
  <g id="APP">
    <path id="BG" class="st27" d="M200.8,397.7c-1,0-1.8-0.8-1.8-1.8v-59.3c0-1,0.8-1.8,1.8-1.8h59.3c1,0,1.8,0.8,1.8,1.8v59.3
      c0,1-0.8,1.8-1.8,1.8H200.8z"/>
    <g id="Shadow_1_">
      <g>
        <g>
          <g>
            <defs>
              <path id="SVGID_1_" d="M260.2,398.7h-59.3c-1.6,0-2.8-1.3-2.8-2.8v-59.3c0-1.6,1.3-2.8,2.8-2.8h59.3c1.6,0,2.8,1.3,2.8,2.8
                v59.3C263,397.4,261.8,398.7,260.2,398.7z"/>
            </defs>
            <clipPath id="SVGID_2_">
              <use xlink:href="#SVGID_1_"  style="overflow:visible;"/>
            </clipPath>
            <polygon class="st29" points="263,333.7 198,398.7 263,398.7 						"/>
          </g>
        </g>
      </g>
    </g>
    <path id="Code" class="st28" d="M216.7,377.8c0.2,0.1,0.3,0.3,0.3,0.5v1.5c0,0.2-0.1,0.4-0.3,0.5l-7.3,3.6l7.3,3.6
      c0.2,0.1,0.3,0.3,0.3,0.5v1.5c0,0.2-0.1,0.4-0.3,0.5c-0.1,0.1-0.2,0.1-0.3,0.1s-0.2,0-0.3-0.1l-9.8-5c-0.2-0.1-0.3-0.3-0.3-0.5
      v-1.2c0-0.2,0.1-0.4,0.3-0.5l9.8-5C216.3,377.6,216.5,377.7,216.7,377.8z M228.7,374.5h-1.4c-0.2,0-0.5,0.1-0.5,0.4l-5.9,15.3
      c-0.1,0.2,0,0.4,0.1,0.5c0.1,0.2,0.3,0.2,0.5,0.2h1.4c0.2,0,0.5-0.1,0.5-0.4l5.9-15.3c0.1-0.2,0-0.4-0.1-0.5
      C229.1,374.6,228.9,374.5,228.7,374.5z M244.1,382.7l-9.8-5c-0.2-0.1-0.4-0.1-0.6,0c-0.2,0.1-0.3,0.3-0.3,0.5v1.5
      c0,0.2,0.1,0.4,0.3,0.5l7.3,3.6l-7.3,3.6c-0.2,0.1-0.3,0.3-0.3,0.5v1.5c0,0.2,0.1,0.4,0.3,0.5c0.1,0.1,0.2,0.1,0.3,0.1
      s0.2,0,0.3-0.1l9.8-5c0.2-0.1,0.3-0.3,0.3-0.5v-1.2C244.4,383,244.3,382.8,244.1,382.7z"/>
    <path class="st28" d="M260.2,333.7h-59.3c-1.6,0-2.8,1.3-2.8,2.8v0.1l0,0v6.3l0,0v52.9c0,1.6,1.3,2.8,2.8,2.8h59.3
      c1.6,0,2.8-1.3,2.8-2.8v-59.3C263,335,261.8,333.7,260.2,333.7z M260.2,396.6h-59.3c-0.5,0-0.8-0.4-0.8-0.8v-52.9H261v52.9
      C261,396.3,260.6,396.6,260.2,396.6z"/>
    <path id="Circles" class="st9" d="M206.8,337.2c0.6,0,1.1,0.5,1.1,1.1s-0.5,1.1-1.1,1.1s-1.1-0.5-1.1-1.1S206.2,337.2,206.8,337.2
      z M211.4,337.2c0.6,0,1.1,0.5,1.1,1.1s-0.5,1.1-1.1,1.1s-1.1-0.5-1.1-1.1S210.8,337.2,211.4,337.2z M216,337.2
      c0.6,0,1.1,0.5,1.1,1.1s-0.5,1.1-1.1,1.1s-1.1-0.5-1.1-1.1S215.4,337.2,216,337.2z"/>
  </g>
  <g id="Connection">
    <g id="Task-Event_8_">
      <g id="Line_8_">
        <g>
          <line class="st30" x1="230.5" y1="333.7" x2="230.5" y2="269.6"/>
          <g>
            <g>
              <circle class="st9" cx="230.5" cy="333.7" r="4.5"/>
              <path class="st31" d="M235.6,333.7c0-2.8-2.3-5.1-5.1-5.1s-5.1,2.3-5.1,5.1c0,2.8,2.3,5.1,5.1,5.1S235.6,336.5,235.6,333.7
                C235.6,330.9,235.6,336.5,235.6,333.7z M226.6,333.7c0-2.2,1.8-3.9,3.9-3.9s3.9,1.8,3.9,3.9c0,2.2-1.8,3.9-3.9,3.9
                S226.6,335.9,226.6,333.7C226.6,331.5,226.6,335.9,226.6,333.7z"/>
            </g>
          </g>
          <g>
            <g>
              <circle class="st9" cx="230.5" cy="269.6" r="4.5"/>
              <path class="st31" d="M235.6,269.6c0,2.8-2.3,5.1-5.1,5.1s-5.1-2.3-5.1-5.1c0-2.8,2.3-5.1,5.1-5.1S235.6,266.8,235.6,269.6
                C235.6,272.4,235.6,266.8,235.6,269.6z M226.6,269.6c0,2.2,1.8,3.9,3.9,3.9s3.9-1.8,3.9-3.9c0-2.2-1.8-3.9-3.9-3.9
                S226.6,267.4,226.6,269.6C226.6,271.8,226.6,267.4,226.6,269.6z"/>
            </g>
          </g>
        </g>
      </g>
    </g>
    <g id="Dollar">
      <circle class="st32" cx="230.4" cy="300.8" r="10.6"/>
      <path class="st9" d="M233.6,305c-0.6,0.5-1.3,0.9-2.1,1v1.3c0,0.2-0.1,0.4-0.2,0.5c-0.1,0.1-0.3,0.2-0.5,0.2s-0.4-0.1-0.5-0.2
        s-0.2-0.3-0.2-0.5v-1.2c-0.6-0.1-1.1-0.2-1.6-0.4c-0.5-0.2-0.9-0.5-1.4-0.9c-0.2-0.2-0.3-0.4-0.3-0.6s0.1-0.4,0.2-0.5
        c0.1-0.1,0.3-0.2,0.5-0.2s0.3,0.1,0.4,0.2c0.3,0.3,0.7,0.6,1,0.7c0.3,0.2,0.7,0.3,1.1,0.4v-3.6c-1-0.2-1.7-0.6-2.3-1.1
        c-0.5-0.5-0.8-1.2-0.8-2s0.3-1.5,0.8-2c0.6-0.5,1.3-0.9,2.2-1v-0.8c0-0.2,0.1-0.4,0.2-0.5c0.1-0.1,0.3-0.2,0.5-0.2
        s0.4,0.1,0.5,0.2s0.2,0.3,0.2,0.5v0.8c0.5,0.1,0.9,0.2,1.3,0.4c0.4,0.2,0.8,0.4,1,0.7c0.2,0.2,0.4,0.4,0.4,0.7
        c0,0.2-0.1,0.4-0.2,0.5c-0.1,0.1-0.3,0.2-0.5,0.2c-0.1,0-0.3,0-0.4-0.1c-0.2-0.2-0.4-0.4-0.7-0.5c-0.3-0.2-0.6-0.3-0.9-0.3v3.4
        c1,0.3,1.7,0.6,2.2,1.1s0.7,1.1,0.7,2C234.4,303.9,234.1,304.5,233.6,305z M228.7,298.9c0.3,0.3,0.7,0.5,1.2,0.6v-3.1
        c-0.5,0.1-0.9,0.3-1.2,0.5c-0.3,0.3-0.4,0.6-0.4,1S228.5,298.6,228.7,298.9z M232.5,304.1c0.3-0.3,0.4-0.6,0.4-0.9
        c0-0.4-0.1-0.7-0.4-1c-0.2-0.3-0.6-0.5-1.1-0.7v3.1C231.9,304.5,232.3,304.3,232.5,304.1z"/>
    </g>
  </g>
  <g id="Connections-users">
    <g id="Line-4_1_">

        <linearGradient id="Line_9_" gradientUnits="userSpaceOnUse" x1="261.9" y1="412.51" x2="426.4" y2="412.51" gradientTransform="matrix(1 0 0 1 0 3.19)">
        <stop  offset="0" style="stop-color:#9452FF"/>
        <stop  offset="1" style="stop-color:#F1F0F8"/>
      </linearGradient>
      <polyline id="Line_7_" class="st33" points="425.4,459.3 425.4,411.9 334.5,411.9 334.5,372.1 262.9,372.1 			"/>
      <g id="Circle-2_7_">
        <circle class="st9" cx="262.9" cy="372.1" r="5.3"/>
        <path class="st28" d="M262.9,366.1c3.3,0,6,2.7,6,6s-2.7,6-6,6s-6-2.7-6-6C256.8,368.8,259.5,366.1,262.9,366.1
          C266.2,366.1,259.5,366.1,262.9,366.1z M262.9,376.8c2.5,0,4.6-2.1,4.6-4.6s-2.1-4.6-4.6-4.6s-4.6,2.1-4.6,4.6
          C258.2,374.7,260.3,376.8,262.9,376.8C265.4,376.8,260.3,376.8,262.9,376.8z"/>
      </g>
      <g id="Circle-1_7_">
        <circle class="st9" cx="425.4" cy="459.3" r="5.3"/>
        <path class="st5" d="M431.5,459.3c0-3.3-2.7-6-6-6s-6,2.7-6,6s2.7,6,6,6C428.8,465.4,431.5,462.7,431.5,459.3
          C431.5,456,431.5,462.7,431.5,459.3z M420.8,459.3c0-2.5,2.1-4.6,4.6-4.6s4.6,2.1,4.6,4.6s-2.1,4.6-4.6,4.6
          S420.8,461.9,420.8,459.3C420.8,456.8,420.8,461.9,420.8,459.3z"/>
      </g>
    </g>
    <g id="Line-3_1_">

        <linearGradient id="Line_10_" gradientUnits="userSpaceOnUse" x1="239.6" y1="461.71" x2="297.3" y2="461.71" gradientTransform="matrix(1 0 0 1 0 3.19)">
        <stop  offset="0" style="stop-color:#9452FF"/>
        <stop  offset="1" style="stop-color:#F1F0F8"/>
      </linearGradient>
      <polyline id="Line_6_" class="st34" points="296.3,531.3 296.3,475.9 258.7,475.9 258.7,425.7 240.6,425.7 240.6,398.5 			"/>
      <g id="Circle-2_6_">
        <circle class="st9" cx="240.6" cy="398.5" r="5.3"/>
        <path class="st28" d="M246.6,398.5c0,3.3-2.7,6-6,6s-6-2.7-6-6s2.7-6,6-6C243.9,392.4,246.6,395.1,246.6,398.5
          C246.6,401.8,246.6,395.1,246.6,398.5z M236,398.5c0,2.5,2.1,4.6,4.6,4.6s4.6-2.1,4.6-4.6s-2.1-4.6-4.6-4.6
          C238,393.8,236,395.9,236,398.5C236,401,236,395.9,236,398.5z"/>
      </g>
      <g id="Circle-1_6_">
        <circle class="st9" cx="296.3" cy="531.3" r="5.3"/>
        <path class="st5" d="M302.3,531.3c0-3.3-2.7-6-6-6s-6,2.7-6,6s2.7,6,6,6S302.3,534.6,302.3,531.3S302.3,534.6,302.3,531.3z
            M291.7,531.3c0-2.5,2.1-4.6,4.6-4.6s4.6,2.1,4.6,4.6s-2.1,4.6-4.6,4.6C293.7,535.9,291.7,533.8,291.7,531.3
          C291.7,528.7,291.7,533.8,291.7,531.3z"/>
      </g>
    </g>
    <g id="Line-2_1_">

        <linearGradient id="Line_11_" gradientUnits="userSpaceOnUse" x1="163.6" y1="461.71" x2="221.3" y2="461.71" gradientTransform="matrix(1 0 0 1 0 3.19)">
        <stop  offset="0" style="stop-color:#F1F0F8"/>
        <stop  offset="1" style="stop-color:#9452FF"/>
      </linearGradient>
      <polyline id="Line_5_" class="st35" points="164.6,531.3 164.6,475.9 202.2,475.9 202.2,425.7 220.3,425.7 220.3,398.5 			"/>
      <g id="Circle-2_5_">
        <circle class="st9" cx="220.3" cy="398.5" r="5.3"/>
        <path class="st28" d="M226.4,398.5c0,3.3-2.7,6-6,6s-6-2.7-6-6s2.7-6,6-6C223.6,392.4,226.4,395.1,226.4,398.5
          C226.4,401.8,226.4,395.1,226.4,398.5z M215.7,398.5c0,2.5,2.1,4.6,4.6,4.6s4.6-2.1,4.6-4.6s-2.1-4.6-4.6-4.6
          C217.8,393.8,215.7,395.9,215.7,398.5C215.7,401,215.7,395.9,215.7,398.5z"/>
      </g>
      <g id="Circle-1_5_">
        <circle class="st9" cx="164.6" cy="531.3" r="5.3"/>
        <path class="st5" d="M170.6,531.3c0-3.3-2.7-6-6-6s-6,2.7-6,6s2.7,6,6,6S170.6,534.6,170.6,531.3S170.6,534.6,170.6,531.3z
            M160,531.3c0-2.5,2.1-4.6,4.6-4.6s4.6,2.1,4.6,4.6s-2.1,4.6-4.6,4.6S160,533.8,160,531.3C160,528.7,160,533.8,160,531.3z"/>
      </g>
    </g>
    <g id="Line-1_1_">

        <linearGradient id="Line_12_" gradientUnits="userSpaceOnUse" x1="34.6" y1="412.51" x2="199.1" y2="412.51" gradientTransform="matrix(1 0 0 1 0 3.19)">
        <stop  offset="0" style="stop-color:#F1F0F8"/>
        <stop  offset="1" style="stop-color:#9452FF"/>
      </linearGradient>
      <polyline id="Line_4_" class="st36" points="35.6,459.3 35.6,411.9 126.5,411.9 126.5,372.1 198.1,372.1 			"/>
      <g id="Circle-2_4_">
        <circle class="st9" cx="198.1" cy="372.1" r="5.3"/>
        <path class="st28" d="M198.1,378.2c-3.3,0-6-2.7-6-6s2.7-6,6-6s6,2.7,6,6C204.2,375.5,201.5,378.2,198.1,378.2
          C194.8,378.2,201.5,378.2,198.1,378.2z M198.1,367.5c-2.5,0-4.6,2.1-4.6,4.6s2.1,4.6,4.6,4.6s4.6-2.1,4.6-4.6
          C202.7,369.6,200.7,367.5,198.1,367.5C195.6,367.5,200.7,367.5,198.1,367.5z"/>
      </g>
      <g id="Circle-1_4_">
        <circle class="st9" cx="35.6" cy="459.3" r="5.3"/>
        <path class="st5" d="M41.6,459.3c0-3.3-2.7-6-6-6s-6,2.7-6,6s2.7,6,6,6S41.6,462.7,41.6,459.3C41.6,456,41.6,462.7,41.6,459.3z
            M30.9,459.3c0-2.5,2.1-4.6,4.6-4.6s4.6,2.1,4.6,4.6s-2.1,4.6-4.6,4.6S30.9,461.9,30.9,459.3C30.9,456.8,30.9,461.9,30.9,459.3z
          "/>
      </g>
    </g>
  </g>
  <g id="Connections-services">
    <g id="Line-4">

        <linearGradient id="Line_13_" gradientUnits="userSpaceOnUse" x1="264.5" y1="182.21" x2="426.4" y2="182.21" gradientTransform="matrix(1 0 0 1 0 3.19)">
        <stop  offset="0" style="stop-color:#9452FF"/>
        <stop  offset="1" style="stop-color:#CAC5E4"/>
      </linearGradient>
      <polyline id="Line_3_" class="st37" points="425.4,141.8 425.4,189.2 334.5,189.2 334.5,229 265.5,229 			"/>
      <g id="Circle-2_3_">
        <circle class="st9" cx="265.5" cy="229" r="5.3"/>
        <path class="st28" d="M265.5,222.9c3.3,0,6,2.7,6,6s-2.7,6-6,6s-6-2.7-6-6C259.4,225.7,262.1,222.9,265.5,222.9
          C268.8,222.9,262.1,222.9,265.5,222.9z M265.5,233.6c2.5,0,4.6-2.1,4.6-4.6s-2.1-4.6-4.6-4.6s-4.6,2.1-4.6,4.6
          S262.9,233.6,265.5,233.6C268,233.6,262.9,233.6,265.5,233.6z"/>
      </g>
      <g id="Circle-1_3_">
        <circle class="st9" cx="425.4" cy="141.8" r="5.3"/>
        <path class="st10" d="M419.4,141.8c0,3.3,2.7,6,6,6s6-2.7,6-6s-2.7-6-6-6S419.4,138.5,419.4,141.8S419.4,138.5,419.4,141.8z
            M430,141.8c0,2.5-2.1,4.6-4.6,4.6s-4.6-2.1-4.6-4.6s2.1-4.6,4.6-4.6C428,137.2,430,139.2,430,141.8
          C430,144.3,430,139.2,430,141.8z"/>
      </g>
    </g>
    <g id="Line-3">

        <linearGradient id="Line_14_" gradientUnits="userSpaceOnUse" x1="239.6" y1="131.81" x2="297.3" y2="131.81" gradientTransform="matrix(1 0 0 1 0 3.19)">
        <stop  offset="0" style="stop-color:#9452FF"/>
        <stop  offset="1" style="stop-color:#CAC5E4"/>
      </linearGradient>
      <polyline id="Line_2_" class="st38" points="296.3,69.8 296.3,125.2 258.7,125.2 258.7,175.4 240.6,175.4 240.6,200.2 			"/>
      <g id="Circle-2_2_">
        <circle class="st9" cx="240.6" cy="200.2" r="5.3"/>
        <path class="st28" d="M234.5,200.2c0-3.3,2.7-6,6-6s6,2.7,6,6s-2.7,6-6,6S234.5,203.5,234.5,200.2S234.5,203.5,234.5,200.2z
            M245.2,200.2c0-2.5-2.1-4.6-4.6-4.6s-4.6,2.1-4.6,4.6s2.1,4.6,4.6,4.6S245.2,202.7,245.2,200.2
          C245.2,197.6,245.2,202.7,245.2,200.2z"/>
      </g>
      <g id="Circle-1_2_">
        <circle class="st9" cx="296.3" cy="69.8" r="5.3"/>
        <path class="st10" d="M290.2,69.8c0,3.3,2.7,6,6,6s6-2.7,6-6s-2.7-6-6-6C293,63.8,290.2,66.5,290.2,69.8
          C290.2,73.2,290.2,66.5,290.2,69.8z M300.9,69.8c0,2.5-2.1,4.6-4.6,4.6s-4.6-2.1-4.6-4.6s2.1-4.6,4.6-4.6
          C298.8,65.2,300.9,67.3,300.9,69.8C300.9,72.4,300.9,67.3,300.9,69.8z"/>
      </g>
    </g>
    <g id="Line-2">

        <linearGradient id="Line_15_" gradientUnits="userSpaceOnUse" x1="163.6" y1="131.81" x2="221.3" y2="131.81" gradientTransform="matrix(1 0 0 1 0 3.19)">
        <stop  offset="0" style="stop-color:#CAC5E4"/>
        <stop  offset="1" style="stop-color:#9452FF"/>
      </linearGradient>
      <polyline id="Line_1_" class="st39" points="164.6,69.8 164.6,125.2 202.2,125.2 202.2,175.4 220.3,175.4 220.3,200.2 			"/>
      <g id="Circle-2_1_">
        <circle class="st9" cx="220.3" cy="200.2" r="5.3"/>
        <path class="st28" d="M214.3,200.2c0-3.3,2.7-6,6-6s6,2.7,6,6s-2.7,6-6,6S214.3,203.5,214.3,200.2S214.3,203.5,214.3,200.2z
            M224.9,200.2c0-2.5-2.1-4.6-4.6-4.6s-4.6,2.1-4.6,4.6s2.1,4.6,4.6,4.6C222.9,204.8,224.9,202.7,224.9,200.2
          C224.9,197.6,224.9,202.7,224.9,200.2z"/>
      </g>
      <g id="Circle-1_1_">
        <circle class="st9" cx="164.6" cy="69.8" r="5.3"/>
        <path class="st10" d="M158.6,69.8c0,3.3,2.7,6,6,6s6-2.7,6-6s-2.7-6-6-6C161.3,63.8,158.6,66.5,158.6,69.8
          C158.6,73.2,158.6,66.5,158.6,69.8z M169.2,69.8c0,2.5-2.1,4.6-4.6,4.6s-4.6-2.1-4.6-4.6s2.1-4.6,4.6-4.6
          C167.2,65.2,169.2,67.3,169.2,69.8C169.2,72.4,169.2,67.3,169.2,69.8z"/>
      </g>
    </g>
    <g id="Line-1">

        <linearGradient id="Line_16_" gradientUnits="userSpaceOnUse" x1="34.6" y1="182.21" x2="196.4" y2="182.21" gradientTransform="matrix(1 0 0 1 0 3.19)">
        <stop  offset="0" style="stop-color:#CAC5E4"/>
        <stop  offset="1" style="stop-color:#9452FF"/>
      </linearGradient>
      <polyline id="Line" class="st40" points="35.6,141.8 35.6,189.2 126.5,189.2 126.5,229 195.4,229 			"/>
      <g id="Circle-2">
        <circle class="st9" cx="195.4" cy="229" r="5.3"/>
        <path class="st28" d="M195.4,235c-3.3,0-6-2.7-6-6s2.7-6,6-6s6,2.7,6,6C201.5,232.3,198.7,235,195.4,235
          C192.1,235,198.7,235,195.4,235z M195.4,224.4c-2.5,0-4.6,2.1-4.6,4.6s2.1,4.6,4.6,4.6s4.6-2.1,4.6-4.6
          C200,226.4,198,224.4,195.4,224.4C192.9,224.4,198,224.4,195.4,224.4z"/>
      </g>
      <g id="Circle-1">
        <circle class="st9" cx="35.6" cy="141.8" r="5.3"/>
        <path class="st10" d="M29.5,141.8c0,3.3,2.7,6,6,6s6-2.7,6-6s-2.7-6-6-6S29.5,138.5,29.5,141.8S29.5,138.5,29.5,141.8z
            M40.2,141.8c0,2.5-2.1,4.6-4.6,4.6s-4.6-2.1-4.6-4.6s2.1-4.6,4.6-4.6S40.2,139.2,40.2,141.8C40.2,144.3,40.2,139.2,40.2,141.8z
          "/>
      </g>
    </g>
  </g>
  <g id="Dollars">
    <g id="Branch-1">
      <g id="Dollar-1">
        <circle class="st32" cx="163.3" cy="228.6" r="10.6"/>
        <path class="st9" d="M166.4,232.8c-0.6,0.5-1.3,0.9-2.1,1v1.3c0,0.2-0.1,0.4-0.2,0.5c-0.1,0.1-0.3,0.2-0.5,0.2s-0.4-0.1-0.5-0.2
          c-0.1-0.1-0.2-0.3-0.2-0.5v-1.2c-0.6-0.1-1.1-0.2-1.6-0.4s-0.9-0.5-1.4-0.9c-0.2-0.2-0.3-0.4-0.3-0.6s0.1-0.4,0.2-0.5
          c0.1-0.1,0.3-0.2,0.5-0.2s0.3,0.1,0.4,0.2c0.3,0.3,0.7,0.6,1,0.7c0.4,0.2,0.7,0.3,1.1,0.4V229c-1-0.2-1.7-0.6-2.3-1.1
          c-0.5-0.5-0.8-1.2-0.8-2s0.3-1.5,0.8-2c0.6-0.5,1.3-0.9,2.2-1v-0.8c0-0.2,0.1-0.4,0.2-0.5s0.3-0.2,0.5-0.2s0.4,0.1,0.5,0.2
          c0.1,0.1,0.2,0.3,0.2,0.5v0.8c0.5,0.1,0.9,0.2,1.3,0.4c0.4,0.2,0.8,0.4,1,0.7c0.2,0.2,0.4,0.4,0.4,0.7c0,0.2-0.1,0.4-0.2,0.5
          s-0.3,0.2-0.5,0.2c-0.1,0-0.3,0-0.4-0.1c-0.2-0.2-0.4-0.4-0.7-0.5c-0.3-0.2-0.6-0.3-0.9-0.3v3.4c1,0.3,1.7,0.6,2.2,1.1
          s0.7,1.1,0.7,2C167.2,231.6,166.9,232.3,166.4,232.8z M161.6,226.8c0.3,0.3,0.7,0.5,1.2,0.6v-3.1c-0.5,0.1-0.9,0.3-1.2,0.5
          c-0.3,0.3-0.4,0.6-0.4,1C161.2,226.2,161.3,226.5,161.6,226.8z M165.3,231.8c0.3-0.3,0.4-0.6,0.4-0.9c0-0.4-0.1-0.7-0.4-1
          c-0.2-0.3-0.6-0.5-1.1-0.7v3.1C164.7,232.3,165.1,232.1,165.3,231.8z"/>
      </g>
      <g id="Dollar-2">
        <circle class="st32" cx="80.6" cy="189.2" r="10.6"/>
        <path class="st9" d="M83.7,193.5c-0.6,0.5-1.3,0.9-2.1,1v1.3c0,0.2-0.1,0.4-0.2,0.5s-0.3,0.2-0.5,0.2s-0.4-0.1-0.5-0.2
          c-0.1-0.1-0.2-0.3-0.2-0.5v-1.2c-0.6-0.1-1.1-0.2-1.6-0.4s-0.9-0.5-1.4-0.9c-0.2-0.2-0.3-0.4-0.3-0.6s0.1-0.4,0.2-0.5
          s0.3-0.2,0.5-0.2s0.3,0.1,0.4,0.2c0.3,0.3,0.7,0.6,1,0.7c0.3,0.2,0.7,0.3,1.1,0.4v-3.6c-1-0.2-1.7-0.6-2.3-1.1
          c-0.5-0.5-0.8-1.2-0.8-2s0.3-1.5,0.8-2c0.6-0.5,1.3-0.9,2.2-1v-0.8c0-0.2,0.1-0.4,0.2-0.5s0.3-0.2,0.5-0.2s0.4,0.1,0.5,0.2
          c0.1,0.1,0.2,0.3,0.2,0.5v0.8c0.5,0.1,0.9,0.2,1.3,0.4s0.8,0.4,1,0.7c0.2,0.2,0.4,0.4,0.4,0.7c0,0.2-0.1,0.4-0.2,0.5
          s-0.3,0.2-0.5,0.2c-0.1,0-0.3,0-0.4-0.1c-0.2-0.2-0.4-0.4-0.7-0.5c-0.3-0.2-0.6-0.3-0.9-0.3v3.4c1,0.3,1.7,0.6,2.2,1.1
          s0.7,1.1,0.7,2C84.5,192.3,84.2,192.9,83.7,193.5z M78.9,187.4c0.3,0.3,0.7,0.5,1.2,0.6v-3.1c-0.5,0.1-0.9,0.3-1.2,0.5
          c-0.3,0.3-0.4,0.6-0.4,1C78.5,186.8,78.7,187.1,78.9,187.4z M82.6,192.5c0.3-0.3,0.4-0.6,0.4-0.9c0-0.4-0.1-0.7-0.4-1
          c-0.2-0.3-0.6-0.5-1.1-0.7v3.1C82,192.9,82.4,192.7,82.6,192.5z"/>
      </g>
    </g>
    <g id="Branch-2">
      <g id="Dollar-3">
        <circle class="st32" cx="202.2" cy="149.8" r="10.6"/>
        <path class="st9" d="M205.2,154.1c-0.6,0.5-1.3,0.9-2.1,1v1.3c0,0.2-0.1,0.4-0.2,0.5s-0.3,0.2-0.5,0.2s-0.4-0.1-0.5-0.2
          c-0.1-0.1-0.2-0.3-0.2-0.5v-1.2c-0.6-0.1-1.1-0.2-1.6-0.4s-0.9-0.5-1.4-0.9c-0.2-0.2-0.3-0.4-0.3-0.6c0-0.2,0.1-0.4,0.2-0.5
          s0.3-0.2,0.5-0.2s0.3,0.1,0.4,0.2c0.3,0.3,0.7,0.6,1,0.7c0.3,0.2,0.7,0.3,1.1,0.4v-3.6c-1-0.2-1.7-0.6-2.3-1.1
          c-0.5-0.5-0.8-1.2-0.8-2s0.3-1.5,0.8-2c0.6-0.5,1.3-0.9,2.2-1v-0.8c0-0.2,0.1-0.4,0.2-0.5s0.3-0.2,0.5-0.2s0.4,0.1,0.5,0.2
          c0.1,0.1,0.2,0.3,0.2,0.5v0.8c0.5,0.1,0.9,0.2,1.3,0.4c0.4,0.2,0.8,0.4,1,0.7c0.2,0.2,0.4,0.4,0.4,0.7c0,0.2-0.1,0.4-0.2,0.5
          c-0.1,0.1-0.3,0.2-0.5,0.2c-0.1,0-0.3,0-0.4-0.1c-0.2-0.2-0.4-0.4-0.7-0.5c-0.3-0.2-0.6-0.3-0.9-0.3v3.4c1,0.3,1.7,0.6,2.2,1.1
          s0.7,1.1,0.7,2C206.1,152.9,205.8,153.6,205.2,154.1z M200.5,148c0.3,0.3,0.7,0.5,1.2,0.6v-3.1c-0.5,0.1-0.9,0.3-1.2,0.5
          c-0.3,0.3-0.4,0.6-0.4,1S200.2,147.8,200.5,148z M204.2,153.1c0.3-0.3,0.4-0.6,0.4-0.9c0-0.4-0.1-0.7-0.4-1
          c-0.2-0.3-0.6-0.5-1.1-0.7v3.1C203.6,153.6,203.9,153.4,204.2,153.1z"/>
      </g>
      <g id="Dollar-4">
        <circle class="st32" cx="164.6" cy="101.7" r="10.6"/>
        <path class="st9" d="M167.6,105.9c-0.6,0.5-1.3,0.9-2.1,1v1.3c0,0.2-0.1,0.4-0.2,0.5c-0.1,0.1-0.3,0.2-0.5,0.2s-0.4-0.1-0.5-0.2
          s-0.2-0.3-0.2-0.5V107c-0.6-0.1-1.1-0.2-1.6-0.4c-0.5-0.2-0.9-0.5-1.4-0.9c-0.2-0.2-0.3-0.4-0.3-0.6s0.1-0.4,0.2-0.5
          s0.3-0.2,0.5-0.2s0.3,0.1,0.4,0.2c0.3,0.3,0.7,0.6,1,0.7c0.3,0.2,0.7,0.3,1.1,0.4v-3.6c-1-0.2-1.7-0.6-2.3-1.1
          c-0.5-0.5-0.8-1.2-0.8-2s0.3-1.5,0.8-2c0.6-0.5,1.3-0.9,2.2-1v-0.8c0-0.2,0.1-0.4,0.2-0.5c0.1-0.1,0.3-0.2,0.5-0.2
          s0.4,0.1,0.5,0.2s0.2,0.3,0.2,0.5V96c0.5,0.1,0.9,0.2,1.3,0.4c0.4,0.2,0.8,0.4,1,0.7c0.2,0.2,0.4,0.4,0.4,0.7
          c0,0.2-0.1,0.4-0.2,0.5s-0.3,0.2-0.5,0.2c-0.1,0-0.3,0-0.4-0.1c-0.2-0.2-0.4-0.4-0.7-0.5c-0.3-0.2-0.6-0.3-0.9-0.3v3.4
          c1,0.3,1.7,0.6,2.2,1.1s0.7,1.1,0.7,2C168.5,104.8,168.2,105.4,167.6,105.9z M162.9,99.9c0.3,0.3,0.7,0.5,1.2,0.6v-3.1
          c-0.5,0.1-0.9,0.3-1.2,0.5c-0.3,0.3-0.4,0.6-0.4,1S162.6,99.6,162.9,99.9z M166.6,105c0.3-0.3,0.4-0.6,0.4-0.9
          c0-0.4-0.1-0.7-0.4-1c-0.2-0.3-0.6-0.5-1.1-0.7v3.1C166,105.4,166.3,105.2,166.6,105z"/>
      </g>
    </g>
    <g id="Branch-3">
      <g id="Dollar-5">
        <circle class="st32" cx="258.7" cy="149.8" r="10.6"/>
        <path class="st9" d="M261.7,154.1c-0.6,0.5-1.3,0.9-2.1,1v1.3c0,0.2-0.1,0.4-0.2,0.5s-0.3,0.2-0.5,0.2s-0.4-0.1-0.5-0.2
          c-0.1-0.1-0.2-0.3-0.2-0.5v-1.2c-0.6-0.1-1.1-0.2-1.6-0.4s-0.9-0.5-1.4-0.9c-0.2-0.2-0.3-0.4-0.3-0.6c0-0.2,0.1-0.4,0.2-0.5
          s0.3-0.2,0.5-0.2s0.3,0.1,0.4,0.2c0.3,0.3,0.7,0.6,1,0.7c0.3,0.2,0.7,0.3,1.1,0.4v-3.6c-1-0.2-1.7-0.6-2.3-1.1
          c-0.5-0.5-0.8-1.2-0.8-2s0.3-1.5,0.8-2c0.6-0.5,1.3-0.9,2.2-1v-0.8c0-0.2,0.1-0.4,0.2-0.5s0.3-0.2,0.5-0.2s0.4,0.1,0.5,0.2
          c0.1,0.1,0.2,0.3,0.2,0.5v0.8c0.5,0.1,0.9,0.2,1.3,0.4s0.8,0.4,1,0.7c0.2,0.2,0.4,0.4,0.4,0.7c0,0.2-0.1,0.4-0.2,0.5
          s-0.3,0.2-0.5,0.2c-0.1,0-0.3,0-0.4-0.1c-0.2-0.2-0.4-0.4-0.7-0.5c-0.3-0.2-0.6-0.3-0.9-0.3v3.4c1,0.3,1.7,0.6,2.2,1.1
          s0.7,1.1,0.7,2C262.6,152.9,262.3,153.6,261.7,154.1z M257,148c0.3,0.3,0.7,0.5,1.2,0.6v-3.1c-0.5,0.1-0.9,0.3-1.2,0.5
          c-0.3,0.3-0.4,0.6-0.4,1S256.7,147.8,257,148z M260.7,153.1c0.3-0.3,0.4-0.6,0.4-0.9c0-0.4-0.1-0.7-0.4-1
          c-0.2-0.3-0.6-0.5-1.1-0.7v3.1C260.1,153.6,260.4,153.4,260.7,153.1z"/>
      </g>
      <g id="Dollar-6">
        <circle class="st32" cx="296.3" cy="101.7" r="10.6"/>
        <path class="st9" d="M299.3,105.9c-0.6,0.5-1.3,0.9-2.1,1v1.3c0,0.2-0.1,0.4-0.2,0.5s-0.3,0.2-0.5,0.2s-0.4-0.1-0.5-0.2
          s-0.2-0.3-0.2-0.5V107c-0.6-0.1-1.1-0.2-1.6-0.4c-0.5-0.2-0.9-0.5-1.4-0.9c-0.2-0.2-0.3-0.4-0.3-0.6s0.1-0.4,0.2-0.5
          s0.3-0.2,0.5-0.2s0.3,0.1,0.4,0.2c0.3,0.3,0.7,0.6,1,0.7c0.4,0.2,0.7,0.3,1.1,0.4v-3.6c-1-0.2-1.7-0.6-2.3-1.1
          c-0.5-0.5-0.8-1.2-0.8-2s0.3-1.5,0.8-2c0.6-0.5,1.3-0.9,2.2-1v-0.8c0-0.2,0.1-0.4,0.2-0.5s0.3-0.2,0.5-0.2s0.4,0.1,0.5,0.2
          s0.2,0.3,0.2,0.5V96c0.5,0.1,0.9,0.2,1.3,0.4c0.4,0.2,0.8,0.4,1,0.7c0.2,0.2,0.4,0.4,0.4,0.7c0,0.2-0.1,0.4-0.2,0.5
          s-0.3,0.2-0.5,0.2c-0.1,0-0.3,0-0.4-0.1c-0.2-0.2-0.4-0.4-0.7-0.5c-0.3-0.2-0.6-0.3-0.9-0.3v3.4c1,0.3,1.7,0.6,2.2,1.1
          s0.7,1.1,0.7,2C300.2,104.8,299.9,105.4,299.3,105.9z M294.6,99.9c0.3,0.3,0.7,0.5,1.2,0.6v-3.1c-0.5,0.1-0.9,0.3-1.2,0.5
          c-0.3,0.3-0.4,0.6-0.4,1S294.3,99.6,294.6,99.9z M298.3,105c0.3-0.3,0.4-0.6,0.4-0.9c0-0.4-0.1-0.7-0.4-1
          c-0.2-0.3-0.6-0.5-1.1-0.7v3.1C297.7,105.4,298,105.2,298.3,105z"/>
      </g>
    </g>
    <g id="Branch-4">
      <g id="Dollar-7">
        <circle class="st32" cx="297.6" cy="228.6" r="10.6"/>
        <path class="st9" d="M300.6,232.8c-0.6,0.5-1.3,0.9-2.1,1v1.3c0,0.2-0.1,0.4-0.2,0.5s-0.3,0.2-0.5,0.2s-0.4-0.1-0.5-0.2
          c-0.1-0.1-0.2-0.3-0.2-0.5v-1.2c-0.6-0.1-1.1-0.2-1.6-0.4s-0.9-0.5-1.4-0.9c-0.2-0.2-0.3-0.4-0.3-0.6s0.1-0.4,0.2-0.5
          s0.3-0.2,0.5-0.2s0.3,0.1,0.4,0.2c0.3,0.3,0.7,0.6,1,0.7c0.3,0.2,0.7,0.3,1.1,0.4V229c-1-0.2-1.7-0.6-2.3-1.1
          c-0.5-0.5-0.8-1.2-0.8-2s0.3-1.5,0.8-2c0.6-0.5,1.3-0.9,2.2-1v-0.8c0-0.2,0.1-0.4,0.2-0.5s0.3-0.2,0.5-0.2s0.4,0.1,0.5,0.2
          c0.1,0.1,0.2,0.3,0.2,0.5v0.8c0.5,0.1,0.9,0.2,1.3,0.4s0.8,0.4,1,0.7c0.2,0.2,0.4,0.4,0.4,0.7c0,0.2-0.1,0.4-0.2,0.5
          s-0.3,0.2-0.5,0.2c-0.1,0-0.3,0-0.4-0.1c-0.2-0.2-0.4-0.4-0.7-0.5c-0.3-0.2-0.6-0.3-0.9-0.3v3.4c1,0.3,1.7,0.6,2.2,1.1
          s0.7,1.1,0.7,2C301.4,231.6,301.2,232.3,300.6,232.8z M295.8,226.8c0.3,0.3,0.7,0.5,1.2,0.6v-3.1c-0.5,0.1-0.9,0.3-1.2,0.5
          c-0.3,0.3-0.4,0.6-0.4,1S295.6,226.5,295.8,226.8z M299.5,231.8c0.3-0.3,0.4-0.6,0.4-0.9c0-0.4-0.1-0.7-0.4-1
          c-0.2-0.3-0.6-0.5-1.1-0.7v3.1C298.9,232.3,299.3,232.1,299.5,231.8z"/>
      </g>
      <g id="Dollar-8">
        <circle class="st32" cx="380.3" cy="189.2" r="10.6"/>
        <path class="st9" d="M383.3,193.5c-0.6,0.5-1.3,0.9-2.1,1v1.3c0,0.2-0.1,0.4-0.2,0.5s-0.3,0.2-0.5,0.2s-0.4-0.1-0.5-0.2
          c-0.1-0.1-0.2-0.3-0.2-0.5v-1.2c-0.6-0.1-1.1-0.2-1.6-0.4s-0.9-0.5-1.4-0.9c-0.2-0.2-0.3-0.4-0.3-0.6s0.1-0.4,0.2-0.5
          s0.3-0.2,0.5-0.2s0.3,0.1,0.4,0.2c0.3,0.3,0.7,0.6,1,0.7c0.3,0.2,0.7,0.3,1.1,0.4v-3.6c-1-0.2-1.7-0.6-2.3-1.1
          c-0.5-0.5-0.8-1.2-0.8-2s0.3-1.5,0.8-2c0.6-0.5,1.3-0.9,2.2-1v-0.8c0-0.2,0.1-0.4,0.2-0.5s0.3-0.2,0.5-0.2s0.4,0.1,0.5,0.2
          c0.1,0.1,0.2,0.3,0.2,0.5v0.8c0.5,0.1,0.9,0.2,1.3,0.4s0.8,0.4,1,0.7c0.2,0.2,0.4,0.4,0.4,0.7c0,0.2-0.1,0.4-0.2,0.5
          s-0.3,0.2-0.5,0.2c-0.1,0-0.3,0-0.4-0.1c-0.2-0.2-0.4-0.4-0.7-0.5c-0.3-0.2-0.6-0.3-0.9-0.3v3.4c1,0.3,1.7,0.6,2.2,1.1
          s0.7,1.1,0.7,2C384.1,192.3,383.9,192.9,383.3,193.5z M378.5,187.4c0.3,0.3,0.7,0.5,1.2,0.6v-3.1c-0.5,0.1-0.9,0.3-1.2,0.5
          c-0.3,0.3-0.4,0.6-0.4,1C378.1,186.8,378.3,187.1,378.5,187.4z M382.2,192.5c0.3-0.3,0.4-0.6,0.4-0.9c0-0.4-0.1-0.7-0.4-1
          c-0.2-0.3-0.6-0.5-1.1-0.7v3.1C381.6,192.9,382,192.7,382.2,192.5z"/>
      </g>
    </g>
  </g>
</g>
</svg>