<svg xmlns="http://www.w3.org/2000/svg" xmlns:xlink="http://www.w3.org/1999/xlink"
    x="0px" y="0px" width="460" viewBox="0 0 460 270" style="enable-background:new 0 0 460 270;" xml:space="preserve">
<style type="text/css">
.st0{opacity:0.12;fill:#4563FF;enable-background:new    ;}
.st1{fill:#FFFFFF;}
.st2{fill:#9452FF;}
.st3{fill:#343434;}
.st4{fill:#8B8B8B;}
.st5{fill:#3C3C3B;}
.st6{fill:#151515;}
.st7{fill:#393939;}
.st8{fill:#252F3E;}
.st9{fill:#FF9900;}
.st10{fill:#694C47;}
.st11{fill:#F4DBB9;}
.st12{fill:#0B87BE;}
.st13{fill:#46B7E3;}
.st14{fill:#FFD14F;}
.st15{fill:#121F2F;}
.st16{fill:#E9BD8C;}
.st17{fill:#9B7457;}
.st18{fill:url(#coin_1_);}
.st19{fill:#D6D0E7;}
.st20{fill:#EACAB3;}
.st21{fill:#4D2F15;}
.st22{fill:#513FE8;}
.st23{fill:#F1F0F8;}
.st24{fill:none;stroke:url(#Line_4_);stroke-width:2;stroke-linecap:round;stroke-linejoin:round;}
.st25{fill:none;stroke:url(#Line_5_);stroke-width:2;stroke-linecap:round;stroke-linejoin:round;}
.st26{fill:none;stroke:url(#Line_6_);stroke-width:2;stroke-linecap:round;stroke-linejoin:round;}
.st27{fill:none;stroke:url(#Line_7_);stroke-width:2;stroke-linecap:round;stroke-linejoin:round;}
.st28{fill:#1AB644;}
</style>
<g id="Schema">
  <g id="Background">
    <path id="Circle-4_1_" class="st0" d="M435.4,230.4c0,0-92,3.8-205.5,3.8s-205.5-3.8-205.5-3.8c0-113.5,92-205.5,205.5-205.5
      S435.4,116.9,435.4,230.4z"/>
    <path id="Circle-3_1_" class="st0" d="M383.4,230.4c0,0-68.7,3.8-153.4,3.8s-153.4-3.8-153.4-3.8C76.5,145.7,145.2,77,230,77
      S383.4,145.7,383.4,230.4z"/>
    <path id="Circle-2_5_" class="st0" d="M344.5,230.4c0,0-51.3,3.8-114.6,3.8s-114.6-3.8-114.6-3.8c0-63.2,51.3-114.6,114.6-114.6
      S344.5,167.1,344.5,230.4z"/>
    <path id="Circle-1_5_" class="st0" d="M315.6,230.4c0,0-38.3,3.8-85.6,3.8s-85.6-3.8-85.6-3.8c0-47.2,38.3-85.6,85.6-85.6
      S315.6,183.1,315.6,230.4z"/>
  </g>
  <g id="Services">
    <g id="Ethereum">
      <g id="Circle_3_">
        <path id="Circle-BG_3_" class="st1" d="M164.2,70C145.3,70,130,54.6,130,35.8s15.4-34.2,34.2-34.2s34.2,15.4,34.2,34.2
          S183.1,70,164.2,70z"/>
        <path id="Circle-outline_3_" class="st2" d="M164.2,2.7c18.2,0,33.1,14.8,33.1,33.1s-14.7,33.1-33.1,33.1s-33-14.9-33-33.2
          S146,2.7,164.2,2.7 M164.2,0.3c-19.6,0-35.4,15.9-35.4,35.4s15.9,35.4,35.4,35.4s35.4-15.9,35.4-35.4S183.8,0.3,164.2,0.3
          L164.2,0.3z"/>
      </g>
      <g id="Ethereum-logo">
        <polygon class="st3" points="164.2,13.9 163.9,14.9 163.9,43.8 164.2,44.1 177.6,36.2 				"/>
        <polygon class="st4" points="164.2,13.9 150.8,36.2 164.2,44.1 164.2,30.1 				"/>
        <polygon class="st5" points="164.2,46.6 164,46.8 164,57.1 164.2,57.6 177.6,38.7 				"/>
        <polygon class="st4" points="164.2,57.6 164.2,46.6 150.8,38.7 				"/>
        <polygon class="st6" points="164.2,44.1 177.6,36.2 164.2,30.1 				"/>
        <polygon class="st7" points="150.8,36.2 164.2,44.1 164.2,30.1 				"/>
      </g>
    </g>
    <g id="AWS">
      <g id="Circle_2_">
        <path id="Circle-BG_2_" class="st1" d="M35.4,142c-18.9,0-34.2-15.4-34.2-34.2s15.4-34.2,34.2-34.2S69.6,89,69.6,107.8
          S54.1,142,35.4,142z"/>
        <path id="Circle-outline_2_" class="st2" d="M35.4,74.9c18.2,0,33.1,14.8,33.1,33.1s-14.9,33-33.1,33S2.3,126,2.3,107.8
          S17.1,74.9,35.4,74.9 M35.4,72.5C15.8,72.5,0,88.4,0,107.8s15.9,35.4,35.4,35.4s35.4-15.9,35.4-35.4S54.8,72.5,35.4,72.5
          L35.4,72.5z"/>
      </g>
      <g id="AWS-logo">
        <path class="st8" d="M25.8,104.2c0,0.5,0.1,1,0.2,1.3s0.3,0.7,0.5,1c0.1,0.1,0.1,0.2,0.1,0.3c0,0.1-0.1,0.3-0.3,0.4l-0.9,0.6
          c-0.1,0.1-0.3,0.1-0.4,0.1s-0.3-0.1-0.4-0.2c-0.2-0.2-0.4-0.5-0.5-0.7s-0.3-0.5-0.5-0.9c-1.1,1.3-2.6,2-4.3,2
          c-1.2,0-2.2-0.3-2.9-1c-0.7-0.7-1.1-1.6-1.1-2.8s0.4-2.2,1.3-3s2.1-1.1,3.6-1.1c0.5,0,1,0,1.5,0.1s1.1,0.2,1.7,0.3v-1.1
          c0-1.1-0.2-1.9-0.7-2.3c-0.5-0.5-1.2-0.7-2.4-0.7c-0.5,0-1,0.1-1.6,0.2s-1.1,0.3-1.6,0.5c-0.2,0.1-0.4,0.2-0.5,0.2s-0.2,0-0.2,0
          c-0.2,0-0.3-0.1-0.3-0.5v-0.7c0-0.2,0-0.4,0.1-0.5s0.2-0.2,0.4-0.3c0.5-0.3,1.1-0.5,1.8-0.7c0.7-0.2,1.5-0.3,2.3-0.3
          c1.7,0,3,0.4,3.8,1.2c0.8,0.8,1.2,2,1.2,3.6L25.8,104.2L25.8,104.2z M19.9,106.4c0.5,0,1-0.1,1.5-0.3c0.5-0.2,1-0.5,1.4-0.9
          c0.2-0.3,0.4-0.6,0.5-0.9s0.1-0.8,0.1-1.3v-0.6c-0.4-0.1-0.9-0.2-1.3-0.2c-0.5-0.1-0.9-0.1-1.4-0.1c-1,0-1.7,0.2-2.2,0.6
          s-0.7,0.9-0.7,1.7c0,0.7,0.2,1.2,0.5,1.5C18.7,106.3,19.3,106.4,19.9,106.4z M31.6,108c-0.3,0-0.4,0-0.6-0.1
          c-0.1-0.1-0.2-0.3-0.3-0.6l-3.4-11.2c-0.1-0.3-0.1-0.5-0.1-0.6c0-0.2,0.1-0.4,0.3-0.4h1.4c0.3,0,0.5,0,0.6,0.1s0.2,0.3,0.3,0.6
          l2.4,9.6l2.3-9.6c0.1-0.3,0.2-0.5,0.3-0.6s0.3-0.1,0.6-0.1h1.2c0.3,0,0.5,0,0.6,0.1s0.2,0.3,0.3,0.6l2.3,9.7l2.5-9.7
          c0.1-0.3,0.2-0.5,0.3-0.6s0.3-0.1,0.6-0.1h1.4c0.2,0,0.4,0.1,0.4,0.4c0,0.1,0,0.1,0,0.2s0,0.2-0.1,0.4l-3.5,11.2
          c-0.1,0.3-0.2,0.5-0.3,0.6s-0.3,0.1-0.6,0.1h-1.2c-0.3,0-0.5,0-0.6-0.1s-0.2-0.3-0.3-0.6l-2.3-9.4l-2.2,9.4
          c-0.1,0.3-0.2,0.5-0.3,0.6S33.3,108,33,108H31.6z M50.2,108.4c-0.8,0-1.5-0.1-2.2-0.3c-0.7-0.2-1.3-0.4-1.7-0.6
          c-0.2-0.1-0.4-0.3-0.5-0.4s-0.1-0.3-0.1-0.4V106c0-0.3,0.1-0.5,0.3-0.5c0.1,0,0.2,0,0.3,0s0.2,0.1,0.4,0.1
          c0.5,0.2,1,0.4,1.6,0.5s1.1,0.2,1.7,0.2c0.9,0,1.6-0.2,2.1-0.5s0.8-0.8,0.8-1.4c0-0.4-0.1-0.7-0.4-1c-0.3-0.3-0.8-0.5-1.5-0.8
          l-2.1-0.7c-1.1-0.3-1.8-0.8-2.3-1.5C46.1,99.8,46,99,46,98.3c0-0.6,0.1-1.1,0.4-1.6c0.3-0.5,0.6-0.9,1-1.2
          c0.4-0.3,0.9-0.6,1.5-0.8c0.6-0.2,1.2-0.2,1.8-0.2c0.3,0,0.7,0,1,0.1c0.3,0,0.6,0.1,0.9,0.2c0.3,0.1,0.6,0.1,0.8,0.2
          c0.3,0.1,0.5,0.2,0.6,0.3c0.2,0.1,0.3,0.2,0.4,0.4c0.1,0.1,0.1,0.3,0.1,0.5v0.7c0,0.3-0.1,0.5-0.3,0.5c-0.1,0-0.3-0.1-0.6-0.2
          c-0.8-0.4-1.8-0.6-2.8-0.6c-0.8,0-1.5,0.1-1.9,0.4s-0.7,0.7-0.7,1.3c0,0.4,0.1,0.8,0.4,1c0.3,0.3,0.8,0.6,1.6,0.8l2.1,0.7
          c1,0.3,1.8,0.8,2.3,1.4s0.7,1.3,0.7,2c0,0.6-0.1,1.2-0.4,1.7s-0.6,0.9-1.1,1.3s-1,0.6-1.6,0.8C51.6,108.3,50.9,108.4,50.2,108.4
          z"/>
        <path class="st9" d="M52.9,115.5c-4.8,3.5-11.7,5.4-17.7,5.4c-8.4,0-15.9-3.1-21.6-8.2c-0.5-0.4,0-1,0.5-0.6
          c6.2,3.6,13.8,5.7,21.6,5.7c5.3,0,11.1-1.1,16.5-3.4C53,114,53.7,114.9,52.9,115.5z M54.9,113.2c-0.6-0.8-4-0.4-5.6-0.2
          c-0.5,0.1-0.5-0.3-0.1-0.7c2.7-1.9,7.2-1.4,7.7-0.7c0.5,0.7-0.1,5.1-2.7,7.3c-0.4,0.3-0.8,0.2-0.6-0.3
          C54.2,117.2,55.5,114,54.9,113.2z"/>
      </g>
    </g>
    <g id="Mailchimp">
      <g id="Circle_1_">
        <path id="Circle-BG_1_" class="st1" d="M295.7,70c-18.9,0-34.2-15.4-34.2-34.2s15.4-34.2,34.2-34.2c18.8,0,34.2,15.4,34.2,34.2
          S314.6,70,295.7,70z"/>
        <path id="Circle-outline_1_" class="st2" d="M295.7,2.7c18.2,0,33.1,14.8,33.1,33.1S314,68.9,295.7,68.9s-33.1-14.8-33.1-33.1
          S277.5,2.7,295.7,2.7 M295.7,0.3c-19.6,0-35.4,15.9-35.4,35.4s16,35.4,35.4,35.4s35.4-15.9,35.4-35.4S315.3,0.3,295.7,0.3
          L295.7,0.3z"/>
      </g>
      <g id="Mailchimp-logo">
        <path class="st10" d="M311.4,54.3V55h0.2v-0.5l0.1,0.5h0.2l0.1-0.5V55h0.2v-0.7h-0.3l-0.1,0.4l-0.1-0.4H311.4 M310.9,54.5V55
          h0.2v-0.5h0.2v-0.2h-0.6v0.2H310.9z M315.9,45.1c0,0.1-3.2,12.5-15.9,12.5c-10.9,0-16.1-9.5-16.1-9.5c-0.8,0-1.6-0.1-2.3-0.3
          c-3.2-1.2-4.7-4.8-3.6-7.9l-1.8-1.3c-6.8-5.2,12.5-29,19.3-23.6l1.6,1.3c2.5-1.5,4.9-2.3,6.9-2.3c1.4,0,2.6,0.4,3.4,1.3
          c1.8,1.9,1.1,5.6-1.3,9.3c0.5,0.5,1,1.2,1.3,1.8c0.8,0.6,1.3,1.5,1.5,2.7c0.3,1.4,0.3,3.4,0.5,4.2c0.7,0.3,0.4,0.2,1.1,0.5
          c0.7,0.4,1.6,0.8,2.6,1.7c1.7,0.4,2.4,2.3,1.4,3.5c0,0-0.2,0.2-0.3,0.3c0,0.1,0.4,0.6,0.6,1.7c0.7,0.2,1.3,0.6,1.6,1.3
          C316.9,43.6,315.9,45.1,315.9,45.1z"/>
        <path class="st11" d="M310.6,50.6c3.4-2.7,4-5.9,4.1-6c0.8-1,0.6-2-0.5-2c-0.4,0-0.6,0.1-0.6,0.1s0-1.5-0.7-2.6
          c-0.5,0.6-2,1.8-3.9,2.7c-1.8,0.9-4.2,1.6-7.2,1.7l0,0c-0.8,0-1.3-0.1-1.6,0.9c-0.1,0.3-0.1,0.9,0,1c0.2,0.8,0.8,1.2,1.7,1.3
          c0.6,0.1,1.3,0.2,1.3,0.2c6,0.2,10.9-4.5,10.9-4.6c0.1,0,0.1-0.1,0.1-0.1l-0.1,0.1c-0.9,2-5.9,5.5-10.9,5.4l0,0
          c-1.2,0-2.6-0.3-3.3-1.2c-1.2-1.4-0.6-3.8,1.3-3.9c0,0,0.4,0,0.6,0c4.6-0.1,8.7-1.8,11.7-5.3c0.4-0.5,0-1.2-0.9-1.2l0,0
          c-1-1.1-2-1.5-2.8-1.9c-1.7-0.9-1.5-0.1-1.9-4.3c-0.1-1.1-0.3-2.7-1.3-3.3c-0.3-0.2-0.5-0.2-0.8-0.2s-0.4,0.1-0.5,0.1
          c-0.5,0.1-0.9,0.4-1.2,0.8c-1.8,1.7-3.3,1.2-5.5,1.2c-2.1,0-3.9,1.4-4.2,3.6l0,0c-0.2,1.2-0.1,2.3,0.1,2.9c0,0-0.6-0.4-0.8-0.7
          c0.3,2,2.2,3.3,2.2,3.3c-0.3,0.1-0.7,0-0.7,0s1.1,0.8,2,1.1c-0.2,0.1-1.4,1.3-2.1,3c-0.6,1.5-0.3,3.4-0.3,3.4l0.5-0.8
          c0,0-0.3,1.7,0.3,3.3c0.2-0.5,0.7-1.3,0.7-1.3s-0.1,1.8,0.8,3.3c0-0.3,0.2-1.2,0.2-1.2s0.5,1.5,1.6,2.6
          C300.5,53.6,306.3,54,310.6,50.6 M286.5,40.5L286.5,40.5c0.3-0.7,0.4-1.3,0.4-1.3c0.3,1,0.5,2,0.4,3c0.3-0.3,0.5-1,0.5-1
          c0.5,2.9-1.6,5.5-4.4,5.5c-2.4,0-4.4-2.1-4.4-4.7c0-2.6,2-4.7,4.4-4.7c0.6,0,1.2,0.1,1.8,0.4C285.3,37.8,286.3,38.2,286.5,40.5z
          "/>
        <path class="st12" d="M278.7,38.5c0,0-1.7-1.2-1.9-1.6c-1.4-2.3,1-7.1,2.7-9.9c4.2-6.7,11.3-12.1,14.5-11.3l3.3,1.7
          c-1.3,0.8-2.5,1.7-3.3,2.3l-0.7,0.6c0,0-2,1.4-3.1,2.2c-4.1,3.5-8.1,8.9-9.6,14.1C280.7,36.6,279.5,37.2,278.7,38.5"/>
        <path class="st13" d="M294,15.7L294,15.7c-3.2-0.8-10.3,4.6-14.5,11.3l0,0l0,0l3.4,2.7c3.7-5.9,8.4-8.9,8.5-9l-0.5-3.6l1-0.5
          l2,0.7l-0.2-0.7L294,15.7"/>
        <path class="st14" d="M297.3,17.4l-3.3,2.3l-0.2,0.2l-2.9-2.4l-0.1-0.4l1-0.5c0.1,0,1.9,0.6,2,0.7v-1.2l0.1-0.3l0.9-0.3
          C294.9,15.4,297.3,17.4,297.3,17.4"/>
        <path class="st15" d="M303.7,15.2c-2.2,0-4.6,1.1-6.4,2.2c-0.3,0.2-0.5,0.3-0.8,0.5l-1-0.8l0.4,1.2c-0.1,0.1-0.3,0.2-0.4,0.3
          l-2-0.6l1.3,1.1c-0.3,0.2-0.6,0.4-0.8,0.6l-3.2-2.6l0.2,1.2l2.3,2c0,0-2,1.4-3.1,2.2c-4.1,3.5-8.1,8.9-9.6,14.1h0.1l0,0
          c0,0,0.1,0,0.1-0.1h0.1c0,0,0.1,0,0.1-0.1h0.1c0,0,0.1,0,0.1-0.1c0,0,0,0,0.1,0s0.1,0,0.2-0.1c1-0.3,2.4-0.5,4,0.2
          c0.8-2,1.8-4.1,3.3-6.1c1.2-1.6,2.4-3.1,3.8-3.9c2.7-2.5,10-5.2,12.3-2.9c0.6-0.9,1-1.8,1.4-2.8
          C307.5,18.1,307.5,15.2,303.7,15.2"/>
        <polyline class="st15" points="294.5,17.5 294,15.7 293.7,16.6 293.9,17.3 294.5,17.5 				"/>
        <path class="st1" d="M299.4,16.3c1.2-0.5,2.4-1,3.6-1.1c-1.2,0.3-2.7,0.9-4.4,2c0,0-4.1,2.8-6.6,5.2c-1.4,1.3-6.8,7.8-6.8,7.8
          c1-1.9,1.6-2.8,3.2-4.8c0.9-1.1,1.8-2.2,2.8-3.2c0.3-0.3,0.7-0.7,1-1C292.4,21.2,295.3,18.3,299.4,16.3 M313.5,42.6
          c0,0,0-1.5-0.7-2.6c-0.5,0.6-2,1.8-3.9,2.7c-1.8,0.9-4.2,1.6-7.2,1.7l0,0c-0.8,0-1.3-0.1-1.6,0.9c0,0.1,0,0.2,0,0.3l0,0l0,0v0.1
          c0,0.1,0,0.2,0,0.2l0,0l0,0V46l0,0l0,0c0,0.2,0.1,0.2,0.1,0.2l0,0l0,0c0.2,0.8,0.8,1.1,1.6,1.3c0.6,0.1,1.3,0.2,1.3,0.2
          c4.9,0.1,9-3,10.4-4.1C313.5,43.2,313.5,43,313.5,42.6z"/>
        <path class="st16" d="M285.1,44L285.1,44c0.3-0.3,0.4-0.7,0.3-1c-0.1-0.5-0.7-0.6-1.1-1.1l0,0l0,0l0,0c-0.2-0.2-0.2-0.4-0.2-0.7
          c0-0.6,0.5-0.7,0.8-0.6c0,0,0.3,0.1,0.5,0.4l0,0c0-0.1,0-0.3-0.2-0.5c-0.3-0.4-1-0.9-2-0.7l0,0c-0.2,0-0.1,0-0.3,0.1h-0.1
          c-0.1,0-0.1,0-0.2,0.1c0,0-0.2,0.1-0.3,0.2C281.3,41.6,283,44.1,285.1,44 M309,44.4L309,44.4c-0.5,0.1-5.7,2.1-9,1.1
          c0,0.2,0,0.6,0.1,0.7l0,0c0.5,0.1,1.1,0.2,1.8,0.2C306.3,46.4,309.4,44.4,309,44.4z M308.4,34.4c-0.5-0.3-0.5-1-0.8-3.8
          c-0.1-0.9-0.2-2-0.8-2.8c-0.1-0.1-0.3-0.2-0.5-0.2c-0.3,0-0.7,0.3-1,0.6c-0.6,0.9-1.2,1.5-2.3,2c-1.1,0.5-2.1,0.7-3.2,0.6
          c-0.8,0-1.5-0.2-2.1-0.2c-1.2,0-2.3,0.4-3.1,1.4c-0.5,0.7-0.8,1.4-0.8,2.2c0,0.1,0,0.2,0,0.3s0,0.3,0,0.4
          c0.1,0.4,0.1,0.7,0.1,0.7l0,0c0,0,0,0,0,0.1c0,0-0.6-0.4-0.8-0.7c0.3,1.7,1.6,2.9,2,3.2c0,0,0.1,0,0.1,0.1l0,0h0.1
          c-0.3,0.1-0.7,0-0.7,0s1.1,0.8,2,1.1c1.2-1,2.6-1.4,3.7-1.5c0.7-0.4,1.4-0.8,2.2-1.2c-0.2-1.5,1.1-3,2.7-3.1
          c1.3-0.1,1.9,0.5,2.3,1.1C307.9,34.6,308.3,34.5,308.4,34.4C308.5,34.4,308.4,34.4,308.4,34.4z M299.3,45
          c0.2-0.8,0.8-1.5,1.8-1.5c0,0,0.4,0,0.6,0c4.6-0.1,8.7-1.8,11.7-5.3c0.4-0.5,0-1.2-0.9-1.2l0,0c-0.1,0.2-0.2,0.4-0.4,0.9
          c-0.9,1.6-2.1,2.3-3.8,3.1c-5.1,2.5-7.7,1.3-8.8,2.9C299.1,44.2,299.1,44.7,299.3,45L299.3,45z M306.6,34.9
          c-0.7-0.5-1.9-0.1-2.1,0.7c0.4,0,0.8,0.3,0.8,0.7c0.3-0.3,0.7-0.4,1.1-0.4C306.3,35.6,306.3,35.1,306.6,34.9z M310.6,50.6
          c-0.6,0.5-1.2,0.9-1.8,1.2c-1.4-0.6-2.3-1.7-2.3-1.7s1.2-0.3,2.9-1.1c2-1,3.9-2.5,5.3-4.4C314.6,44.6,314,47.9,310.6,50.6z"/>
        <path class="st17" d="M293.9,25.7c4.8-3.1,9.5-3.4,11.1-2.2l0,0v-0.1c-0.4-0.9-1.4-1.5-2.2-1.7c0.2,0.2,0.4,0.4,0.5,0.6
          c-0.6-0.4-1.5-0.8-2.4-1l0.1,0.1c0.2,0.2,0.4,0.4,0.5,0.7c-0.9-0.3-1.9-0.5-2.9-0.4h-0.1h0.1c0.3,0.1,0.7,0.3,0.9,0.5
          c-1.5-0.3-3.2,0-4.2,0.5c0.1,0,0.1,0,0.2,0c0.3,0,1,0.1,1.3,0.2c-1,0.2-2.4,0.6-3.1,1.3c0.1,0,0.9-0.1,1.2-0.1
          c-4.2,2.4-6.1,6-6.1,6C290.3,28.7,291.8,27.1,293.9,25.7 M304.1,35.9c-0.1,0.3,0,0.6,0.4,0.8c0.3,0.2,0.7,0.1,0.9-0.1
          c0.1-0.3,0-0.6-0.4-0.8C304.6,35.6,304.3,35.7,304.1,35.9z M306.8,34.9c-0.3,0-0.5,0.2-0.6,0.6c-0.1,0.3,0.1,0.7,0.4,0.7
          s0.5-0.2,0.6-0.6C307.3,35.3,307.1,35,306.8,34.9z M284.7,41.5c-0.1-0.1-0.1-0.1-0.2-0.2c0-0.2,0-0.3,0.1-0.4
          c0.1-0.1,0.2-0.1,0.2-0.2s-0.4-0.2-0.7,0.1c-0.2,0.2-0.3,0.7,0.1,1.1c0.4,0.4,1,0.5,1.1,1.1c0,0.1,0,0.2,0,0.2
          c0,0.1,0,0.2,0,0.2c-0.1,0.5-0.6,1-1.5,0.9c-0.2,0-0.3,0-0.3,0c-0.1,0.1,0.3,0.5,0.9,0.5s1.3-0.5,1.5-1.2c0,0,0.1-0.2,0.1-0.4
          c0-0.1,0-0.3,0-0.4C285.9,41.9,285,41.8,284.7,41.5z M284.8,40.2L284.8,40.2L284.8,40.2c0.1,0.1,0.2,0.2,0.3,0.3
          c0.2,0.3,0.2,0.5,0.3,0.6h0.1c0.1-0.1,0.2-0.3,0.2-0.4l0,0c0-0.4-0.2-0.7-0.4-1l0,0c-0.2-0.2-0.3-0.3-0.6-0.5
          c-0.2-0.1-0.5-0.2-0.8-0.3c-0.5-0.1-1,0-1.2,0.1l0,0c-0.1,0-0.2,0-0.2,0.1c-0.8,0.3-1.4,0.9-1.7,1.7l0,0l0,0
          c-0.1,0.3-0.1,0.6-0.1,0.9c0,0.2,0,0.5,0.1,0.7l0,0l0,0l0,0c0.1,0.3,0.2,0.7,0.4,0.9l0,0c0.3,0.3,0.6,0.3,0.5,0
          c0-0.1-0.2-0.4-0.2-1c0-0.4,0-0.8,0.2-1.2c0.1-0.2,0.2-0.4,0.3-0.6c0.3-0.4,0.6-0.5,0.7-0.5c0,0,0.1,0,0.2-0.1c0,0,0,0,0.1,0
          c0.2-0.1,0.1,0,0.3-0.1l0,0C283.8,39.7,284.4,39.8,284.8,40.2z M301.1,36.3c-0.3-0.2-0.8-0.4-1.3-0.3c-0.1,0-0.2,0.1-0.3,0.1
          l0,0c-0.2,0.1-0.4,0.2-0.6,0.4s-0.3,0.4-0.2,0.4s0.2,0,0.4-0.1c0.8-0.3,1.3-0.3,1.8-0.3c0.2,0,0.4,0,0.4,0
          C301.3,36.5,301.3,36.4,301.1,36.3z M301.3,35.3c0.1,0.1,0.1,0.2,0.1,0.3c-0.1,0.1-0.3,0-0.7-0.2c-1-0.4-1.8-0.4-3.1,0.1
          c-0.3,0.1-0.6,0.2-0.7,0.2c-0.2,0,0-0.4,0.4-0.7c0.8-0.6,1.9-0.8,2.9-0.5C300.6,34.6,301,34.9,301.3,35.3z"/>
        <path class="st10" d="M305.3,32.5c0-0.3,0-0.9,0.4-1l0,0c0.5-0.2,1.2,1.2,1.3,2.4c-0.4-0.2-0.9-0.3-1.4-0.3
          C305.3,33.2,305.3,32.9,305.3,32.5"/>
      </g>
    </g>
    <g id="Bitcoin">
      <g id="Circle">
        <path id="Circle-BG" class="st1" d="M424.6,142c-18.9,0-34.2-15.4-34.2-34.2s15.4-34.2,34.2-34.2c18.9,0,34.2,15.4,34.2,34.2
          S443.5,142,424.6,142z"/>
        <path id="Circle-outline" class="st2" d="M424.6,74.9c18.2,0,33.1,14.8,33.1,33.1s-14.8,33-33.1,33s-33.1-14.8-33.1-33.1
          S406.5,74.9,424.6,74.9 M424.6,72.5c-19.6,0-35.4,15.9-35.4,35.4s15.9,35.4,35.4,35.4c19.6,0,35.4-15.9,35.4-35.4
          S444.3,72.5,424.6,72.5L424.6,72.5z"/>
      </g>
      <g id="Bitcoin-logo" transform="scale(0.015625)">

          <linearGradient id="coin_1_" gradientUnits="userSpaceOnUse" x1="-1031989.6875" y1="19705.9668" x2="-1031989.6875" y2="19749.5996" gradientTransform="matrix(4.768372e-07 0 0 4.768372e-07 -3999427.25 23273562)">
          <stop  offset="0" style="stop-color:#F8A94B"/>
          <stop  offset="1" style="stop-color:#F6921E"/>
        </linearGradient>
        <path id="coin_22_" class="st18" d="M28536.6,7239.5c-186.5,748.1-944.2,1203.3-1692.3,1016.8
          c-747.9-186.5-1203.1-944.2-1016.5-1692.3c186.4-748.2,944.1-1203.5,1692-1016.9C28267.9,5733.7,28723.1,6491.4,28536.6,7239.5
          L28536.6,7239.5z"/>
        <path id="symbol_22_" class="st1" d="M27797.6,6702.8c27.8-185.8-113.7-285.7-307.1-352.3l62.7-251.7l-153.2-38.2l-61.1,245
          c-40.3-10-81.6-19.5-122.8-28.9l61.5-246.6l-153.1-38.2l-62.8,251.6c-33.4-7.6-66-15.1-97.8-23l0.2-0.8l-211.3-52.7l-40.8,163.6
          c0,0,113.7,26.1,111.3,27.7c62,15.5,73.2,56.5,71.4,89.1c-171.9,689.5,0,0-171.9,689.5c-7.6,18.9-26.9,47.1-70.2,36.4
          c1.5,2.2-111.4-27.8-111.4-27.8l-76,175.4l199.4,49.7c37.1,9.3,73.4,19,109.2,28.2l-63.4,254.6l153,38.2l62.8-251.8
          c41.8,11.4,82.4,21.8,122.1,31.7l-62.5,250.7l153.2,38.2l63.4-254.1c261.2,49.4,457.7,29.5,540.4-206.8
          c66.6-190.3-3.3-300-140.7-371.6C27702.1,6904.7,27777.5,6838.9,27797.6,6702.8L27797.6,6702.8z M27447.6,7193.7
          c-47.3,190.3-367.7,87.4-471.5,61.6l84.1-337.2C27164.1,6943.9,27497.1,6995.3,27447.6,7193.7z M27495,6700.1
          c-43.2,173-309.9,85.1-396.3,63.5l76.3-305.9C27261.5,6479.3,27540,6519.6,27495,6700.1z"/>
      </g>
    </g>
  </g>
  <g id="User">
    <circle id="Circle-BG_4_" class="st19" cx="230" cy="234.3" r="35.4"/>
    <g id="Man">
      <path id="Body" class="st20" d="M255,258c-3.9-5.7-9.5-9.2-16.4-10.8l-0.1-3.3c2.8-2.8,5.4-6.5,6.6-10.5c0.9,0.1,2-1.4,2.4-3.5
        c0.4-2.2,0-4.3-0.9-4.6c-0.3-0.1-0.6,0-0.9,0.2c-1-8.7-6.6-15.4-15.7-15.4c-9.1,0-14.7,6.6-15.7,15.3c-0.3-0.2-0.6-0.2-0.9-0.1
        c-1,0.4-1.5,2.5-1,4.7c0.5,2.1,1.6,3.5,2.5,3.4c1.2,4.1,3.7,7.8,6.5,10.6l-0.1,3.1c-7.4,1.4-13.5,4.9-16.6,11.1
        c-0.8,1.7,17.7,11.2,25.2,11.2C240.2,269.4,256.3,259.9,255,258z"/>
      <path id="Hair" class="st21" d="M214.4,225.4c0,0-0.2-16.6,14.1-16.6c2.4-0.9,9.2-1.4,14.5,4.3c4.8,5.1,2.9,12.3,2.9,12.3
        s-9.7-1.1-16.6-10C229.4,215.4,219.4,216.5,214.4,225.4z"/>
      <path id="Shirt" class="st22" d="M221.2,247c0,0,4,8.1,8.9,8.1s9-8.2,9-8.2s9.3-0.1,16.5,10.2c0,0-11.3,11.8-24.9,11.8
        S204.9,257,204.9,257S210.2,247.8,221.2,247z"/>
    </g>
    <path id="Circle-outline_4_" class="st23" d="M230,201.3c18.2,0,33.1,14.8,33.1,33.1c0,8.8-3.4,17.1-9.7,23.4s-14.5,9.7-23.4,9.7
      c-18.2,0-33.1-14.8-33.1-33.1c0-8.8,3.4-17.1,9.7-23.4C212.9,204.7,221.2,201.3,230,201.3 M230,198.9c-19.6,0-35.4,15.9-35.4,35.4
      s15.9,35.4,35.4,35.4c19.6,0,35.4-15.9,35.4-35.4S249.5,198.9,230,198.9L230,198.9z"/>
  </g>
  <g id="Connections">
    <g id="Lines-4">

        <linearGradient id="Line_4_" gradientUnits="userSpaceOnUse" x1="263.9" y1="-809.51" x2="425.6" y2="-809.51" gradientTransform="matrix(1 0 0 -1 0 -623.91)">
        <stop  offset="0" style="stop-color:#F1F0F8"/>
        <stop  offset="1" style="stop-color:#9452FF"/>
      </linearGradient>
      <polyline id="Line_3_" class="st24" points="424.6,142.1 424.6,189.4 333.9,189.4 333.9,229.1 264.9,229.1 			"/>
      <g id="Circle-2_3_">
        <circle class="st1" cx="424.6" cy="142.1" r="5.3"/>
        <path class="st2" d="M418.6,142.1c0,3.3,2.7,6,6,6s6-2.7,6-6s-2.7-6-6-6C421.3,136.1,418.6,138.7,418.6,142.1
          C418.6,145.4,418.6,138.7,418.6,142.1z M429.3,142.1c0,2.5-2.1,4.6-4.6,4.6s-4.6-2.1-4.6-4.6s2.1-4.6,4.6-4.6
          S429.3,139.5,429.3,142.1C429.3,144.6,429.3,139.5,429.3,142.1z"/>
      </g>
      <g id="Circle-1_3_">
        <circle class="st1" cx="264.9" cy="229.1" r="5.3"/>
        <path class="st23" d="M264.9,223.1c3.3,0,6,2.7,6,6s-2.7,6-6,6s-6-2.7-6-6C258.8,225.8,261.5,223.1,264.9,223.1
          S261.5,223.1,264.9,223.1z M264.9,233.8c2.5,0,4.6-2.1,4.6-4.6s-2.1-4.6-4.6-4.6s-4.6,2.1-4.6,4.6S262.3,233.8,264.9,233.8
          C267.4,233.8,262.3,233.8,264.9,233.8z"/>
      </g>
    </g>
    <g id="Line-3">

        <linearGradient id="Line_5_" gradientUnits="userSpaceOnUse" x1="239" y1="-759.21" x2="296.64" y2="-759.21" gradientTransform="matrix(1 0 0 -1 0 -623.91)">
        <stop  offset="0" style="stop-color:#F1F0F8"/>
        <stop  offset="1" style="stop-color:#9452FF"/>
      </linearGradient>
      <polyline id="Line_2_" class="st25" points="295.7,70.2 295.7,125.5 258.1,125.5 258.1,175.7 240,175.7 240,200.4 			"/>
      <g id="Circle-2_2_">
        <circle class="st1" cx="295.7" cy="70.2" r="5.3"/>
        <path class="st2" d="M289.6,70.2c0,3.3,2.7,6,6,6s6-2.7,6-6s-2.7-6-6-6C292.4,64.2,289.6,66.9,289.6,70.2
          C289.6,73.5,289.6,66.9,289.6,70.2z M300.3,70.2c0,2.5-2.1,4.6-4.6,4.6s-4.6-2.1-4.6-4.6s2.1-4.6,4.6-4.6
          C298.3,65.6,300.3,67.7,300.3,70.2S300.3,67.7,300.3,70.2z"/>
      </g>
      <g id="Circle-1_2_">
        <circle class="st1" cx="240" cy="200.4" r="5.3"/>
        <path class="st23" d="M233.9,200.4c0-3.3,2.7-6,6-6s6,2.7,6,6s-2.7,6-6,6C236.6,206.4,233.9,203.7,233.9,200.4
          C233.9,197,233.9,203.7,233.9,200.4z M244.6,200.4c0-2.5-2.1-4.6-4.6-4.6s-4.6,2.1-4.6,4.6s2.1,4.6,4.6,4.6
          S244.6,202.9,244.6,200.4C244.6,197.8,244.6,202.9,244.6,200.4z"/>
      </g>
    </g>
    <g id="Line-2">

        <linearGradient id="Line_6_" gradientUnits="userSpaceOnUse" x1="163.2" y1="-759.21" x2="220.84" y2="-759.21" gradientTransform="matrix(1 0 0 -1 0 -623.91)">
        <stop  offset="0" style="stop-color:#9452FF"/>
        <stop  offset="1" style="stop-color:#F1F0F8"/>
      </linearGradient>
      <polyline id="Line_1_" class="st26" points="164.2,70.2 164.2,125.5 201.8,125.5 201.8,175.7 219.9,175.7 219.9,200.4 			"/>
      <g id="Circle-2_1_">
        <circle class="st1" cx="164.2" cy="70.2" r="5.3"/>
        <path class="st2" d="M158.2,70.2c0,3.3,2.7,6,6,6s6-2.7,6-6s-2.7-6-6-6S158.2,66.9,158.2,70.2C158.2,73.5,158.2,66.9,158.2,70.2
          z M168.8,70.2c0,2.5-2.1,4.6-4.6,4.6s-4.6-2.1-4.6-4.6s2.1-4.6,4.6-4.6C166.8,65.6,168.8,67.7,168.8,70.2S168.8,67.7,168.8,70.2
          z"/>
      </g>
      <g id="Circle-1_1_">
        <circle class="st1" cx="219.9" cy="200.4" r="5.3"/>
        <path class="st23" d="M213.9,200.4c0-3.3,2.7-6,6-6s6,2.7,6,6s-2.7,6-6,6C216.6,206.4,213.9,203.7,213.9,200.4
          C213.9,197,213.9,203.7,213.9,200.4z M224.5,200.4c0-2.5-2.1-4.6-4.6-4.6s-4.6,2.1-4.6,4.6s2.1,4.6,4.6,4.6
          C222.5,205,224.5,202.9,224.5,200.4C224.5,197.8,224.5,202.9,224.5,200.4z"/>
      </g>
    </g>
    <g id="Line-1">

        <linearGradient id="Line_7_" gradientUnits="userSpaceOnUse" x1="34.4" y1="-809.51" x2="196" y2="-809.51" gradientTransform="matrix(1 0 0 -1 0 -623.91)">
        <stop  offset="0" style="stop-color:#9452FF"/>
        <stop  offset="1" style="stop-color:#F1F0F8"/>
      </linearGradient>
      <polyline id="Line" class="st27" points="35.4,142.1 35.4,189.4 126.2,189.4 126.2,229.1 195,229.1 			"/>
      <g id="Circle-2">
        <circle class="st1" cx="35.4" cy="142.1" r="5.3"/>
        <path class="st2" d="M29.3,142.1c0,3.3,2.7,6,6,6s6-2.7,6-6s-2.7-6-6-6C32,136,29.3,138.7,29.3,142.1
          C29.3,145.4,29.3,138.7,29.3,142.1z M40,142.1c0,2.5-2.1,4.6-4.6,4.6s-4.6-2.1-4.6-4.6s2.1-4.6,4.6-4.6
          C37.9,137.4,40,139.5,40,142.1C40,144.6,40,139.5,40,142.1z"/>
      </g>
      <g id="Circle-1">
        <circle class="st1" cx="195" cy="229.1" r="5.3"/>
        <path class="st23" d="M195,235.2c-3.3,0-6-2.7-6-6s2.7-6,6-6s6,2.7,6,6C201.1,232.5,198.4,235.2,195,235.2
          C191.7,235.2,198.4,235.2,195,235.2z M195,224.5c-2.5,0-4.6,2.1-4.6,4.6s2.1,4.6,4.6,4.6s4.6-2.1,4.6-4.6S197.6,224.5,195,224.5
          C192.5,224.5,197.6,224.5,195,224.5z"/>
      </g>
    </g>
  </g>
  <g id="Dollars">
    <g id="Branch-1">
      <g id="Dollar-1">
        <circle class="st28" cx="162.9" cy="228.7" r="10.6"/>
        <path class="st1" d="M166,233c-0.6,0.5-1.3,0.9-2.1,1v1.3c0,0.2-0.1,0.4-0.2,0.5c-0.1,0.1-0.3,0.2-0.5,0.2s-0.4-0.1-0.5-0.2
          s-0.2-0.3-0.2-0.5v-1.2c-0.6-0.1-1.1-0.2-1.6-0.4s-0.9-0.5-1.4-0.9c-0.2-0.2-0.3-0.4-0.3-0.6s0.1-0.4,0.2-0.5
          c0.1-0.1,0.3-0.2,0.5-0.2s0.3,0.1,0.4,0.2c0.3,0.3,0.7,0.6,1,0.7c0.4,0.2,0.7,0.3,1.1,0.4v-3.6c-1-0.2-1.7-0.6-2.3-1.1
          c-0.5-0.5-0.8-1.2-0.8-2s0.3-1.5,0.8-2c0.6-0.5,1.3-0.9,2.2-1v-0.8c0-0.2,0.1-0.4,0.2-0.5s0.3-0.2,0.5-0.2s0.4,0.1,0.5,0.2
          s0.2,0.3,0.2,0.5v0.8c0.5,0.1,0.9,0.2,1.3,0.4c0.4,0.2,0.8,0.4,1,0.7c0.2,0.2,0.4,0.4,0.4,0.7c0,0.2-0.1,0.4-0.2,0.5
          s-0.3,0.2-0.5,0.2c-0.1,0-0.3,0-0.4-0.1c-0.2-0.2-0.4-0.4-0.7-0.5c-0.3-0.2-0.6-0.3-0.9-0.3v3.4c1,0.3,1.7,0.6,2.2,1.1
          s0.7,1.1,0.7,2C166.8,231.8,166.5,232.5,166,233z M161.2,226.9c0.3,0.3,0.7,0.5,1.2,0.6v-3.1c-0.5,0.1-0.9,0.3-1.2,0.5
          c-0.3,0.3-0.4,0.6-0.4,1C160.8,226.3,160.9,226.7,161.2,226.9z M164.9,232c0.3-0.3,0.4-0.6,0.4-0.9c0-0.4-0.1-0.7-0.4-1
          c-0.2-0.3-0.6-0.5-1.1-0.7v3.1C164.4,232.5,164.7,232.3,164.9,232z"/>
      </g>
      <g id="Dollar-2">
        <circle class="st28" cx="80.3" cy="189.4" r="10.6"/>
        <path class="st1" d="M83.5,193.6c-0.6,0.5-1.3,0.9-2.1,1v1.3c0,0.2-0.1,0.4-0.2,0.5s-0.3,0.2-0.5,0.2s-0.4-0.1-0.5-0.2
          s-0.2-0.3-0.2-0.5v-1.2c-0.6-0.1-1.1-0.2-1.6-0.4s-0.9-0.5-1.4-0.9c-0.2-0.2-0.3-0.4-0.3-0.6c0-0.2,0.1-0.4,0.2-0.5
          s0.3-0.2,0.5-0.2s0.3,0.1,0.4,0.2c0.3,0.3,0.7,0.6,1,0.7c0.3,0.2,0.7,0.3,1.1,0.4v-3.6c-1-0.2-1.7-0.6-2.3-1.1
          c-0.5-0.5-0.8-1.2-0.8-2s0.3-1.5,0.8-2c0.6-0.5,1.3-0.9,2.2-1v-0.8c0-0.2,0.1-0.4,0.2-0.5s0.3-0.2,0.5-0.2s0.4,0.1,0.5,0.2
          c0.1,0.1,0.2,0.3,0.2,0.5v0.8c0.5,0.1,0.9,0.2,1.3,0.4s0.8,0.4,1,0.7c0.2,0.2,0.4,0.4,0.4,0.7c0,0.2-0.1,0.4-0.2,0.5
          s-0.3,0.2-0.5,0.2c-0.1,0-0.3,0-0.4-0.1c-0.2-0.2-0.4-0.4-0.7-0.5c-0.3-0.2-0.6-0.3-0.9-0.3v3.4c1,0.3,1.7,0.6,2.2,1.1
          s0.7,1.1,0.7,2C84.2,192.4,83.9,193.1,83.5,193.6z M78.6,187.6c0.3,0.3,0.7,0.5,1.2,0.6v-3.1c-0.5,0.1-0.9,0.3-1.2,0.5
          c-0.3,0.3-0.4,0.6-0.4,1S78.5,187.3,78.6,187.6z M82.3,192.6c0.3-0.3,0.4-0.6,0.4-0.9c0-0.4-0.1-0.7-0.4-1
          c-0.2-0.3-0.6-0.5-1.1-0.7v3.1C81.7,193.1,82.1,192.9,82.3,192.6z"/>
      </g>
    </g>
    <g id="Branch-2">
      <g id="Dollar-3_2_">
        <circle class="st28" cx="201.8" cy="150.1" r="10.6"/>
        <path class="st1" d="M204.8,154.4c-0.6,0.5-1.3,0.9-2.1,1v1.3c0,0.2-0.1,0.4-0.2,0.5s-0.3,0.2-0.5,0.2s-0.4-0.1-0.5-0.2
          s-0.2-0.3-0.2-0.5v-1.3c-0.6-0.1-1.1-0.2-1.6-0.4s-0.9-0.5-1.4-0.9c-0.2-0.2-0.3-0.4-0.3-0.6s0.1-0.4,0.2-0.5
          c0.1-0.1,0.3-0.2,0.5-0.2s0.3,0.1,0.4,0.2c0.3,0.3,0.7,0.6,1,0.7c0.4,0.2,0.7,0.3,1.1,0.4v-3.7c-1-0.2-1.7-0.6-2.3-1.1
          c-0.5-0.5-0.8-1.2-0.8-2s0.3-1.5,0.8-2c0.6-0.5,1.3-0.9,2.2-1v-0.8c0-0.2,0.1-0.4,0.2-0.5s0.3-0.2,0.5-0.2s0.4,0.1,0.5,0.2
          s0.2,0.3,0.2,0.5v0.8c0.5,0.1,0.9,0.2,1.3,0.4s0.8,0.4,1,0.7c0.2,0.2,0.4,0.4,0.4,0.7c0,0.2-0.1,0.4-0.2,0.5s-0.3,0.2-0.5,0.2
          c-0.1,0-0.3,0-0.4-0.1c-0.2-0.2-0.4-0.4-0.7-0.5c-0.3-0.2-0.6-0.3-0.9-0.3v3.4c1,0.3,1.7,0.6,2.2,1.1s0.7,1.1,0.7,2
          C205.7,153.2,205.4,153.8,204.8,154.4z M200.1,148.3c0.3,0.3,0.7,0.5,1.2,0.6v-3.1c-0.5,0.1-0.9,0.3-1.2,0.5
          c-0.3,0.3-0.4,0.6-0.4,1C199.7,147.7,199.8,148,200.1,148.3z M203.8,153.4c0.3-0.3,0.4-0.6,0.4-0.9c0-0.4-0.1-0.7-0.4-1
          c-0.2-0.3-0.6-0.5-1.1-0.7v3.1C203.2,153.8,203.5,153.6,203.8,153.4z"/>
      </g>
      <g id="Dollar-4_1_">
        <circle class="st28" cx="164.2" cy="102" r="10.6"/>
        <path class="st1" d="M167.2,106.2c-0.6,0.5-1.3,0.9-2.1,1v1.3c0,0.2-0.1,0.4-0.2,0.5s-0.3,0.2-0.5,0.2s-0.4-0.1-0.5-0.2
          s-0.2-0.3-0.2-0.5v-1.2c-0.6-0.1-1.1-0.2-1.6-0.4c-0.5-0.2-0.9-0.5-1.4-0.9c-0.2-0.2-0.3-0.4-0.3-0.6s0.1-0.4,0.2-0.5
          c0.1-0.1,0.3-0.2,0.5-0.2s0.3,0.1,0.4,0.2c0.3,0.3,0.7,0.6,1,0.7c0.3,0.2,0.7,0.3,1.1,0.4v-3.6c-1-0.2-1.7-0.6-2.3-1.1
          c-0.5-0.5-0.8-1.2-0.8-2s0.3-1.5,0.8-2c0.6-0.5,1.3-0.9,2.2-1v-0.9c0-0.2,0.1-0.4,0.2-0.5c0.1-0.1,0.3-0.2,0.5-0.2
          s0.4,0.1,0.5,0.2s0.2,0.3,0.2,0.5v0.8c0.5,0.1,0.9,0.2,1.3,0.4c0.4,0.2,0.8,0.4,1,0.7c0.2,0.2,0.4,0.4,0.4,0.7
          c0,0.2-0.1,0.4-0.2,0.5s-0.3,0.2-0.5,0.2c-0.1,0-0.3,0-0.4-0.1c-0.2-0.2-0.4-0.4-0.7-0.5c-0.3-0.2-0.6-0.3-0.9-0.3v3.4
          c1,0.3,1.7,0.6,2.2,1.1s0.7,1.1,0.7,2C168.1,105,167.8,105.7,167.2,106.2z M162.5,100.1c0.3,0.3,0.7,0.5,1.2,0.6v-3.1
          c-0.5,0.1-0.9,0.3-1.2,0.5c-0.3,0.3-0.4,0.6-0.4,1C162.1,99.6,162.2,99.9,162.5,100.1z M166.2,105.2c0.3-0.3,0.4-0.6,0.4-0.9
          c0-0.4-0.1-0.7-0.4-1c-0.2-0.3-0.6-0.5-1.1-0.7v3.1C165.6,105.7,165.9,105.5,166.2,105.2z"/>
      </g>
    </g>
    <g id="Branch-3">
      <g id="Dollar-5">
        <circle class="st28" cx="258.1" cy="150.1" r="10.6"/>
        <path class="st1" d="M261.1,154.4c-0.6,0.5-1.3,0.9-2.1,1v1.3c0,0.2-0.1,0.4-0.2,0.5s-0.3,0.2-0.5,0.2s-0.4-0.1-0.5-0.2
          c-0.1-0.1-0.2-0.3-0.2-0.5v-1.3c-0.6-0.1-1.1-0.2-1.6-0.4s-0.9-0.5-1.4-0.9c-0.2-0.2-0.3-0.4-0.3-0.6s0.1-0.4,0.2-0.5
          c0.1-0.1,0.3-0.2,0.5-0.2s0.3,0.1,0.4,0.2c0.3,0.3,0.7,0.6,1,0.7c0.3,0.2,0.7,0.3,1.1,0.4v-3.7c-1-0.2-1.7-0.6-2.3-1.1
          c-0.5-0.5-0.8-1.2-0.8-2s0.3-1.5,0.8-2c0.6-0.5,1.3-0.9,2.2-1v-0.8c0-0.2,0.1-0.4,0.2-0.5s0.3-0.2,0.5-0.2s0.4,0.1,0.5,0.2
          c0.1,0.1,0.2,0.3,0.2,0.5v0.8c0.5,0.1,0.9,0.2,1.3,0.4s0.8,0.4,1,0.7c0.2,0.2,0.4,0.4,0.4,0.7c0,0.2-0.1,0.4-0.2,0.5
          s-0.3,0.2-0.5,0.2c-0.1,0-0.3,0-0.4-0.1c-0.2-0.2-0.4-0.4-0.7-0.5c-0.3-0.2-0.6-0.3-0.9-0.3v3.4c1,0.3,1.7,0.6,2.2,1.1
          s0.7,1.1,0.7,2C262,153.2,261.7,153.8,261.1,154.4z M256.4,148.3c0.3,0.3,0.7,0.5,1.2,0.6v-3.1c-0.5,0.1-0.9,0.3-1.2,0.5
          c-0.3,0.3-0.4,0.6-0.4,1S256.1,148,256.4,148.3z M260.1,153.4c0.3-0.3,0.4-0.6,0.4-0.9c0-0.4-0.1-0.7-0.4-1
          c-0.2-0.3-0.6-0.5-1.1-0.7v3.1C259.5,153.8,259.8,153.6,260.1,153.4z"/>
      </g>
      <g id="Dollar-6">
        <circle class="st28" cx="295.7" cy="102" r="10.6"/>
        <path class="st1" d="M298.7,106.2c-0.6,0.5-1.3,0.9-2.1,1v1.3c0,0.2-0.1,0.4-0.2,0.5s-0.3,0.2-0.5,0.2s-0.4-0.1-0.5-0.2
          s-0.2-0.3-0.2-0.5v-1.2c-0.6-0.1-1.1-0.2-1.6-0.4s-0.9-0.5-1.4-0.9c-0.2-0.2-0.3-0.4-0.3-0.6s0.1-0.4,0.2-0.5s0.3-0.2,0.5-0.2
          s0.3,0.1,0.4,0.2c0.3,0.3,0.7,0.6,1,0.7c0.3,0.2,0.7,0.3,1.1,0.4v-3.6c-1-0.2-1.7-0.6-2.3-1.1c-0.5-0.5-0.8-1.2-0.8-2
          s0.3-1.5,0.8-2c0.6-0.5,1.3-0.9,2.2-1v-0.9c0-0.2,0.1-0.4,0.2-0.5s0.3-0.2,0.5-0.2s0.4,0.1,0.5,0.2s0.2,0.3,0.2,0.5v0.8
          c0.5,0.1,0.9,0.2,1.3,0.4c0.4,0.2,0.8,0.4,1,0.7c0.2,0.2,0.4,0.4,0.4,0.7c0,0.2-0.1,0.4-0.2,0.5s-0.3,0.2-0.5,0.2
          c-0.1,0-0.3,0-0.4-0.1c-0.2-0.2-0.4-0.4-0.7-0.5c-0.3-0.2-0.6-0.3-0.9-0.3v3.4c1,0.3,1.7,0.6,2.2,1.1s0.7,1.1,0.7,2
          C299.6,105,299.3,105.7,298.7,106.2z M294,100.1c0.3,0.3,0.7,0.5,1.2,0.6v-3.1c-0.5,0.1-0.9,0.3-1.2,0.5c-0.3,0.3-0.4,0.6-0.4,1
          C293.6,99.6,293.7,99.9,294,100.1z M297.7,105.2c0.3-0.3,0.4-0.6,0.4-0.9c0-0.4-0.1-0.7-0.4-1c-0.2-0.3-0.6-0.5-1.1-0.7v3.1
          C297.1,105.7,297.4,105.5,297.7,105.2z"/>
      </g>
    </g>
    <g id="Branch-4">
      <g id="Dollar-7">
        <circle class="st28" cx="297" cy="228.7" r="10.6"/>
        <path class="st1" d="M300,233c-0.6,0.5-1.3,0.9-2.1,1v1.3c0,0.2-0.1,0.4-0.2,0.5s-0.3,0.2-0.5,0.2s-0.4-0.1-0.5-0.2
          c-0.1-0.1-0.2-0.3-0.2-0.5v-1.2c-0.6-0.1-1.1-0.2-1.6-0.4s-0.9-0.5-1.4-0.9c-0.2-0.2-0.3-0.4-0.3-0.6s0.1-0.4,0.2-0.5
          s0.3-0.2,0.5-0.2s0.3,0.1,0.4,0.2c0.3,0.3,0.7,0.6,1,0.7c0.3,0.2,0.7,0.3,1.1,0.4v-3.6c-1-0.2-1.7-0.6-2.3-1.1
          c-0.5-0.5-0.8-1.2-0.8-2s0.3-1.5,0.8-2c0.6-0.5,1.3-0.9,2.2-1v-0.8c0-0.2,0.1-0.4,0.2-0.5s0.3-0.2,0.5-0.2s0.4,0.1,0.5,0.2
          c0.1,0.1,0.2,0.3,0.2,0.5v0.8c0.5,0.1,0.9,0.2,1.3,0.4s0.8,0.4,1,0.7c0.2,0.2,0.4,0.4,0.4,0.7c0,0.2-0.1,0.4-0.2,0.5
          s-0.3,0.2-0.5,0.2c-0.1,0-0.3,0-0.4-0.1c-0.2-0.2-0.4-0.4-0.7-0.5c-0.3-0.2-0.6-0.3-0.9-0.3v3.4c1,0.3,1.7,0.6,2.2,1.1
          s0.7,1.1,0.7,2C300.8,231.8,300.6,232.5,300,233z M295.3,226.9c0.3,0.3,0.7,0.5,1.2,0.6v-3.1c-0.5,0.1-0.9,0.3-1.2,0.5
          c-0.3,0.3-0.4,0.6-0.4,1C294.8,226.3,295,226.7,295.3,226.9z M298.9,232c0.3-0.3,0.4-0.6,0.4-0.9c0-0.4-0.1-0.7-0.4-1
          c-0.2-0.3-0.6-0.5-1.1-0.7v3.1C298.3,232.5,298.7,232.3,298.9,232z"/>
      </g>
      <g id="Dollar-8">
        <circle class="st28" cx="379.6" cy="189.4" r="10.6"/>
        <path class="st1" d="M382.6,193.6c-0.6,0.5-1.3,0.9-2.1,1v1.3c0,0.2-0.1,0.4-0.2,0.5s-0.3,0.2-0.5,0.2s-0.4-0.1-0.5-0.2
          c-0.1-0.1-0.2-0.3-0.2-0.5v-1.2c-0.6-0.1-1.1-0.2-1.6-0.4s-0.9-0.5-1.4-0.9c-0.2-0.2-0.3-0.4-0.3-0.6c0-0.2,0.1-0.4,0.2-0.5
          s0.3-0.2,0.5-0.2s0.3,0.1,0.4,0.2c0.3,0.3,0.7,0.6,1,0.7c0.3,0.2,0.7,0.3,1.1,0.4v-3.6c-1-0.2-1.7-0.6-2.3-1.1
          c-0.5-0.5-0.8-1.2-0.8-2s0.3-1.5,0.8-2c0.6-0.5,1.3-0.9,2.2-1v-0.8c0-0.2,0.1-0.4,0.2-0.5s0.3-0.2,0.5-0.2s0.4,0.1,0.5,0.2
          c0.1,0.1,0.2,0.3,0.2,0.5v0.8c0.5,0.1,0.9,0.2,1.3,0.4s0.8,0.4,1,0.7c0.2,0.2,0.4,0.4,0.4,0.7c0,0.2-0.1,0.4-0.2,0.5
          s-0.3,0.2-0.5,0.2c-0.1,0-0.3,0-0.4-0.1c-0.2-0.2-0.4-0.4-0.7-0.5c-0.3-0.2-0.6-0.3-0.9-0.3v3.4c1,0.3,1.7,0.6,2.2,1.1
          s0.7,1.1,0.7,2C383.4,192.4,383.2,193.1,382.6,193.6z M377.9,187.6c0.3,0.3,0.7,0.5,1.2,0.6v-3.1c-0.5,0.1-0.9,0.3-1.2,0.5
          c-0.3,0.3-0.4,0.6-0.4,1C377.4,187,377.6,187.3,377.9,187.6z M381.5,192.6c0.3-0.3,0.4-0.6,0.4-0.9c0-0.4-0.1-0.7-0.4-1
          c-0.2-0.3-0.6-0.5-1.1-0.7v3.1C380.9,193.1,381.4,192.9,381.5,192.6z"/>
      </g>
    </g>
  </g>
</g>
</svg>
