<svg version="1.1" id="Layer_1" xmlns="http://www.w3.org/2000/svg" xmlns:xlink="http://www.w3.org/1999/xlink" x="0px" y="0px"
    viewBox="0 0 600 600" style="enable-background:new 0 0 600 600;" xml:space="preserve">
<style type="text/css">
.st0{opacity:0.15;fill:url(#gradient-1);}
.st1{fill:none;stroke:#D6D0E7;stroke-width:0.75;stroke-linecap:round;stroke-linejoin:round;stroke-miterlimit:10;stroke-dasharray:0.8572,2.9376;}
.st2{fill:none;}
.st3{fill:#D6D0E7;}
.st4{font-family:'Quicksand-Medium';}
.st5{font-size:40px;}
.st6{fill:#847C9A;}
.st7{font-family:'OpenSans-Regular';}
.st8{font-size:20px;}
.st9{fill:none;stroke:url(#gradient-2);stroke-width:10;stroke-miterlimit:10;}
.st10{fill:none;stroke:url(#gradient-3);stroke-width:10;stroke-miterlimit:10;}
.st11{fill:url(#gradient-4);}
.st12{fill:url(#gradient-5);}
.st13{fill:url(#gradient-6);}
.st14{fill:url(#gradient-7);}
.st15{fill:#491E8C;}
.st16{fill:#CAC5E4;}
.st17{fill:#EACAB3;}
.st18{fill:#4D2F15;}
.st19{fill:#491D8C;}
.st20{fill:#9452FF;}
.st21{fill:url(#gradient-8);}
.st22{fill:url(#gradient-9);}
.st23{fill:url(#gradient-10);}
.st24{fill:url(#gradient-11);}
.st25{fill:#FFFFFF;}
.st26{fill:#221101;}
.st27{fill:url(#gradient-12);}
.st28{fill:url(#gradient-13);}
.st29{fill:url(#gradient-14);}
.st30{fill:url(#gradient-15);}
.st31{fill:#CD9476;}
</style>
<radialGradient id="gradient-1" cx="300" cy="349.1302" r="238.0507" gradientUnits="userSpaceOnUse">
  <stop  offset="0.25" style="stop-color:#D6D0E7"/>
  <stop  offset="1" style="stop-color:#251440"/>
</radialGradient>
<path class="st0" d="M521.1,197c-52.3-4.7-102.5,15.6-112.1,45.5c-6.4,19.8,6.7,38.8,31.5,50.7l-91.7,77.5c-8.5-2-17.5-3.5-27-4.4
  c-22.9-2.1-45.6-0.3-65.8,4.6l-94.3-79.6c14.7-7.9,25.3-18.5,29.2-30.6c9.6-29.8-24.9-57.9-77.2-62.6
  c-52.3-4.7-102.5,15.6-112.1,45.5c-9.6,29.8,24.9,57.9,77.2,62.6c26.5,2.4,52.5-1.7,72.9-10.1l92.5,78.2
  c-31.4,9.8-55.3,27.4-62.2,48.9c-12,37.2,31.1,72.1,96.2,78s127.7-19.5,139.7-56.7c9.4-29.2-15.1-56.9-57.5-70.4l90.4-76.4
  c10.4,3.7,22.4,6.4,35.4,7.6c52.3,4.7,102.5-15.6,112.1-45.5C608,229.8,573.4,201.8,521.1,197z"/>
<path class="st1" d="M557.1,362.4v169c0,14.1-11.6,25.7-25.7,25.7H68.6c-14.1,0-25.7-11.6-25.7-25.7V316"/>
<path class="st1" d="M371.7,42.9h159.7c14.1,0,25.7,11.6,25.7,25.7v91.9"/>
<path class="st1" d="M42.9,161.2V68.6c0-14.1,11.6-25.7,25.7-25.7h162.5"/>
<rect x="40" y="44.4" class="st2" width="310.8" height="32.3"/>
<rect x="144.6" y="24.4" class="st2" width="310.8" height="32.3"/>
<text transform="matrix(1 0 0 1 236.5609 54.0118)" class="st3 st4 st5">Engine</text>
<g>
  <text transform="matrix(1 0 0 1 249.8145 539.2198)" class="st6 st7 st8">Blockchain</text>
  <g>
    <g>
      <linearGradient id="gradient-2" gradientUnits="userSpaceOnUse" x1="400.707" y1="298.2873" x2="407.693" y2="306.6127">
        <stop  offset="0" style="stop-color:#FFA744"/>
        <stop  offset="1" style="stop-color:#BF7D33"/>
      </linearGradient>
      <line class="st9" x1="314.6" y1="378.2" x2="493.8" y2="226.7"/>
      <linearGradient id="gradient-3" gradientUnits="userSpaceOnUse" x1="205.1223" y1="299.5119" x2="198.1777" y2="307.7881">
        <stop  offset="0" style="stop-color:#FFA744"/>
        <stop  offset="1" style="stop-color:#BF7D33"/>
      </linearGradient>
      <line class="st10" x1="112" y1="227.9" x2="291.3" y2="379.4"/>
    </g>
  </g>
  <g>
    <g>
      <text transform="matrix(1 0 0 1 50.3078 341.4114)" class="st6 st7 st8">Payments</text>
      <g>
        <g>
          <g>
            <g>
              <path class="st6" d="M113.7,176.6c52.3,4.7,86.9,32.7,77.2,62.6s-59.8,50.2-112.1,45.5S-8,251.9,1.6,222.1
                S61.4,171.9,113.7,176.6z"/>
            </g>
            <g>
              <linearGradient id="gradient-4" gradientUnits="userSpaceOnUse" x1="4.892868e-06" y1="222.6603" x2="192.533" y2="222.6603">
                <stop  offset="0" style="stop-color:#E5E5E5"/>
                <stop  offset="1" style="stop-color:#FFFFFF"/>
              </linearGradient>
              <path class="st11" d="M113.7,168.6c52.3,4.7,86.9,32.7,77.2,62.6s-59.8,50.2-112.1,45.5C26.6,272-8,243.9,1.6,214.1
                S61.4,163.9,113.7,168.6z"/>
              <linearGradient id="gradient-5" gradientUnits="userSpaceOnUse" x1="-1.935659e-06" y1="222.6603" x2="192.533" y2="222.6603">
                <stop  offset="0" style="stop-color:#BEB9CD"/>
                <stop  offset="1" style="stop-color:#D6D0E7"/>
              </linearGradient>
              <path class="st12" d="M98.6,168v7.9c4.8,0,9.6,0.2,14.4,0.6c30.8,2.8,56.4,14.3,66.9,30.2c4.7,7.1,5.9,14.6,3.5,22.1
                c-3.5,10.8-14.2,20.9-30.1,28.4c-16.7,7.9-37.8,12.2-59.3,12.2c-4.8,0-9.7-0.2-14.4-0.6c-30.8-2.8-56.4-14.3-66.9-30.2
                c-4.7-7.1-5.9-14.6-3.5-22.1c3.5-10.8,14.2-20.9,30.1-28.4c16.7-7.9,37.8-12.2,59.3-12.2L98.6,168 M98.6,168
                c-46.5,0-88.3,19.2-97,46.2C-8,243.9,26.6,272,78.8,276.7c5.1,0.5,10.1,0.7,15.1,0.7c46.5,0,88.3-19.2,97-46.2
                c9.6-29.8-24.9-57.9-77.2-62.6C108.6,168.2,103.6,168,98.6,168L98.6,168z"/>
            </g>
            <g>
              <path class="st6" d="M105.6,193.9c27.9,2.5,46.3,17.4,41.2,33.4S114.8,254,87,251.5c-27.9-2.5-46.3-17.4-41.2-33.4
                S77.7,191.3,105.6,193.9z"/>
            </g>
            <g>
              <linearGradient id="gradient-6" gradientUnits="userSpaceOnUse" x1="44.956" y1="214.6974" x2="147.577" y2="214.6974">
                <stop  offset="0" style="stop-color:#BEB9CD"/>
                <stop  offset="1" style="stop-color:#D6D0E7"/>
              </linearGradient>
              <path class="st13" d="M105.6,185.9c27.9,2.5,46.3,17.4,41.2,33.4S114.8,246,87,243.5C59.1,241,40.7,226,45.8,210.1
                S77.7,183.4,105.6,185.9z"/>
            </g>
          </g>
          <g>
            <linearGradient id="gradient-7" gradientUnits="userSpaceOnUse" x1="95.695" y1="227.5338" x2="95.695" y2="65.4276">
              <stop  offset="0" style="stop-color:#FFA744"/>
              <stop  offset="3.666481e-02" style="stop-color:#FFBF78"/>
              <stop  offset="7.560670e-02" style="stop-color:#FFD6A8"/>
              <stop  offset="0.1127" style="stop-color:#FFE8CE"/>
              <stop  offset="0.1468" style="stop-color:#FFF5E9"/>
              <stop  offset="0.177" style="stop-color:#FFFCF9"/>
              <stop  offset="0.2" style="stop-color:#FFFFFF"/>
              <stop  offset="1" style="stop-color:#FFFFFF;stop-opacity:0"/>
            </linearGradient>
            <path class="st14" d="M128.6,210.2c0,0,4.2,17.4-32.9,17.4s-32.9-17.4-32.9-17.4L32.4,65.4H159L128.6,210.2z"/>
            <g id="App_3_">
              <g>
                <g>
                  <g>
                    <g>
                      <path class="st15" d="M111.5,103.1c0-3.5-2.8-6.3-6.3-6.3s-6.3,2.8-6.3,6.3s2.8,6.3,6.3,6.3S111.5,106.6,111.5,103.1z
                          M104.8,107.4c-0.2,0-0.2-0.2-0.2-0.2c0-0.2,0-0.2,0-0.4c0-0.4,0-0.4-0.4-0.4s-0.7-0.2-1.1-0.4c-0.2-0.2-0.4-0.2-0.2-0.6
                        c0-0.2,0.2-0.4,0.2-0.6c0-0.2,0.2-0.2,0.4-0.2c0.4,0.2,0.7,0.4,1.1,0.4c0.2,0,0.6,0,0.7-0.2c0.4-0.2,0.6-0.7,0.2-1.1
                        c-0.2-0.2-0.4-0.2-0.4-0.2c-0.4-0.2-0.7-0.4-1.3-0.6c-0.6-0.4-0.9-0.9-0.9-1.7c0-0.9,0.6-1.3,1.3-1.7
                        c0.4-0.2,0.4-0.2,0.4-0.4s0-0.2,0-0.4c0-0.2,0-0.4,0.4-0.4h0.2c0.6,0,0.6,0,0.6,0.6c0,0.4,0,0.4,0.4,0.4s0.6,0.2,0.9,0.2
                        c0.2,0,0.2,0.2,0.2,0.4c0,0.2-0.2,0.4-0.2,0.7c0,0.2-0.2,0.2-0.4,0.2c-0.4-0.2-0.9-0.4-1.3-0.2c-0.2,0-0.2,0-0.4,0
                        c-0.4,0.2-0.4,0.6-0.2,0.9c0.2,0.2,0.4,0.2,0.6,0.4c0.4,0.2,0.7,0.4,1.1,0.6c1.1,0.6,1.3,1.9,0.6,2.8
                        c-0.2,0.4-0.6,0.6-1.1,0.7c-0.2,0-0.2,0.2-0.2,0.4s0,0.4,0,0.6c0,0.2,0,0.2-0.2,0.2C105.2,107.4,105,107.4,104.8,107.4z"
                        />
                    </g>
                  </g>
                  <g>
                    <circle class="st15" cx="96.1" cy="103.5" r="1.7"/>
                  </g>
                  <g>
                    <circle class="st15" cx="114.2" cy="103.5" r="1.7"/>
                  </g>
                  <g>
                    <path class="st15" d="M118.9,92.9H91.6c-1.5,0-2.8,1.3-2.8,2.8v9.5c0.4,0,0.9,0,1.3,0c0.4,0,0.7,0,1.1,0v-6.5
                      c0.2,0,0.4,0,0.7,0c1.7,0,3-1.3,3-3c0-0.2,0-0.6,0-0.7h21.3c0,0.2,0,0.4,0,0.6c0,1.7,1.3,3,3,3c0.2,0,0.4,0,0.6,0v8.7
                      c-0.2,0-0.4,0-0.6,0c-1.7,0-3,1.3-3,3c0,0.2,0,0.4,0,0.6h-15.4v0.2l0,0v2.2h18.2c1.5,0,2.8-1.3,2.8-2.8V95.7
                      C121.8,94.2,120.6,92.9,118.9,92.9z"/>
                  </g>
                  <g>
                    <g>
                      <path class="st15" d="M72.2,107c1.5,0.6,3.7,0.9,5.9,0.9c1.1,0,2.2-0.2,3.3-0.2c0.6-0.4,1.3-0.9,2.2-1.1
                        c0.9-0.4,2-0.6,3.2-0.7v-1.5l0,0l0,0l0,0v-3.7l0,0l0,0l0,0V97l0,0c0-0.9-0.6-2-3-3c-1.5-0.6-3.7-0.9-5.9-0.9
                        S73.7,93.5,72,94c-2.4,0.9-3,2-3,3v3.7l0,0l0,0v3.7l0,0l0,0l0,0v3.7l0,0l0,0l0,0v3.7l0,0l0,0v3.7c0,0.9,0.6,2,3,3
                        c1.5,0.6,3.7,0.9,5.9,0.9c0.6,0,0.9,0,1.5,0v-0.4l0,0l0,0l0,0v-1.5c-0.4,0-0.9,0-1.5,0c-2,0-3.9-0.4-5.2-0.7
                        c-1.3-0.6-1.7-0.9-1.7-1.1v-1.3c0.4,0.2,0.6,0.4,0.9,0.4c1.5,0.6,3.7,0.9,5.9,0.9c0.6,0,0.9,0,1.5,0v-0.4l0,0l0,0v-1.5
                        c-0.4,0-0.9,0-1.5,0c-2,0-3.9-0.4-5.2-0.7c-1.3-0.6-1.7-0.9-1.7-1.1v-1.3c0.4,0.2,0.6,0.4,0.9,0.4
                        c1.5,0.6,3.7,0.9,5.9,0.9c0.6,0,0.9,0,1.5,0v-0.4c0-0.4,0-0.9,0.4-1.7c-0.6,0-1.1,0-1.7,0c-2,0-3.9-0.4-5.2-0.7
                        c-1.3-0.6-1.7-0.9-1.7-1.1v-1.3C71.4,106.6,71.8,106.8,72.2,107z M72.9,95.3c1.3-0.6,3.2-0.7,5.2-0.7
                        c2,0,3.9,0.4,5.2,0.7c1.3,0.6,1.7,0.9,1.7,1.1l0,0c0,0.2-0.4,0.6-1.7,1.1c-1.3,0.6-3.2,0.7-5.2,0.7c-2,0-3.9-0.4-5.2-0.7
                        c-1.3-0.6-1.7-0.9-1.7-1.1S71.4,95.7,72.9,95.3z M71.3,98.9c0.4,0.2,0.6,0.4,0.9,0.4c1.5,0.6,3.7,0.9,5.9,0.9
                        c2.2,0,4.3-0.4,5.9-0.9c0.4-0.2,0.7-0.4,0.9-0.4v1.3l0,0l0,0l0,0c0,0.2-0.4,0.6-1.7,1.1c-1.3,0.6-3.2,0.7-5.2,0.7
                        c-2,0-3.9-0.4-5.2-0.7c-1.3-0.6-1.7-0.9-1.7-1.1V98.9L71.3,98.9z M71.3,102.7c0.4,0.2,0.6,0.4,0.9,0.4
                        c1.5,0.6,3.7,0.9,5.9,0.9c2.2,0,4.3-0.4,5.9-0.9c0.4-0.2,0.7-0.4,0.9-0.4v1.3l0,0l0,0l0,0c0,0.2-0.4,0.6-1.7,1.1
                        c-1.3,0.6-3.2,0.7-5.2,0.7c-2,0-3.9-0.4-5.2-0.7c-1.3-0.6-1.7-0.9-1.7-1.1V102.7L71.3,102.7z"/>
                    </g>
                  </g>
                  <g>
                    <g>
                      <path class="st15" d="M95.9,108.1c-1.5-0.6-3.7-0.9-5.9-0.9s-4.3,0.4-5.9,0.9c-2.4,0.9-3,2-3,3v3.7l0,0l0,0v3.7l0,0l0,0
                        l0,0v3.7l0,0c0,0.9,0.6,2,3,3c1.5,0.6,3.7,0.9,5.9,0.9s4.3-0.4,5.9-0.9c2.4-0.9,3-2,3-3l0,0l0,0v-3.7l0,0l0,0l0,0v-3.7
                        l0,0l0,0l0,0v-3.7l0,0C98.9,110.3,98.3,109,95.9,108.1z M85,110c1.3-0.6,3.2-0.7,5.2-0.7c2,0,3.9,0.4,5.2,0.7
                        c1.3,0.6,1.7,0.9,1.7,1.1l0,0c0,0.2-0.4,0.6-1.7,1.1c-1.3,0.6-3.2,0.7-5.2,0.7c-2,0-3.9-0.4-5.2-0.7
                        c-1.3-0.6-1.7-0.9-1.7-1.1S83.7,110.5,85,110z M95.3,123.5c-1.3,0.6-3.2,0.7-5.2,0.7c-2,0-3.9-0.4-5.2-0.7
                        c-1.3-0.6-1.7-0.9-1.7-1.1v-1.3c0.4,0.2,0.6,0.4,0.9,0.4c1.5,0.6,3.7,0.9,5.9,0.9c2.2,0,4.3-0.4,5.9-0.9
                        c0.4-0.2,0.7-0.4,0.9-0.4v1.3C97,122.6,96.6,123.1,95.3,123.5z M97,118.7L97,118.7L97,118.7c0,0.2-0.4,0.7-1.7,1.1
                        c-1.3,0.6-3.2,0.7-5.2,0.7c-2,0-3.9-0.4-5.2-0.7c-1.3-0.6-1.7-0.9-1.7-1.1v-1.3c0.4,0.2,0.6,0.4,0.9,0.4
                        c1.5,0.6,3.7,0.9,5.9,0.9c2.2,0,4.3-0.4,5.9-0.9c0.4-0.2,0.7-0.4,0.9-0.4V118.7L97,118.7z M97,114.8L97,114.8L97,114.8
                        c0,0.2-0.4,0.7-1.7,1.1c-1.3,0.6-3.2,0.7-5.2,0.7c-2,0-3.9-0.4-5.2-0.7c-1.3-0.6-1.7-0.9-1.7-1.1v-1.3
                        c0.4,0.2,0.6,0.4,0.9,0.4c1.5,0.6,3.7,0.9,5.9,0.9c2.2,0,4.3-0.4,5.9-0.9c0.4-0.2,0.7-0.4,0.9-0.4V114.8L97,114.8z"/>
                    </g>
                  </g>
                </g>
              </g>
            </g>
            <g id="Man-2_1_">
              <circle id="Circle-BG_3_" class="st16" cx="95.5" cy="171.9" r="28.8"/>
              <path id="Body_3_" class="st17" d="M115.9,191.1c-3.1-4.6-7.7-7.5-13.3-8.7l-0.1-2.5c2.3-2.3,4.4-5.3,5.4-8.7
                c0.7,0,1.6-1.2,1.9-2.8c0.4-1.9,0.1-3.5-0.7-3.8c-0.3-0.1-0.4-0.1-0.7,0.1c-0.8-7-5.5-12.4-12.8-12.4
                c-7.4,0-11.9,5.4-12.8,12.4c-0.3-0.2-0.5-0.2-0.7-0.1c-0.8,0.3-1.2,2-0.8,3.8c0.4,1.7,1.2,2.9,2,2.8c1,3.3,3,6.5,5.4,8.7
                l-0.1,2.3c-6,1.2-10.9,3.9-13.5,9c-0.7,1.4,14.3,9.1,20.5,9.1C103.8,200.3,116.9,192.6,115.9,191.1z"/>
              <path id="Hair_3_" class="st18" d="M82.7,164.6c0,0-0.2-13.5,11.5-13.5c2-0.7,7.4-1,11.8,3.5c3.8,4.1,2.3,10,2.3,10
                s-7.9-0.9-13.5-8.1C94.9,156.4,86.9,157.4,82.7,164.6z"/>
              <path id="Shirt_3_" class="st19" d="M88.3,182.1c0,0,3.3,6.6,7.2,6.6c4,0,7.3-6.6,7.3-6.6s7.5-0.1,13.3,8.3
                c0,0-9.2,9.6-20.2,9.6S75,190.4,75,190.4S79.3,182.8,88.3,182.1z"/>
              <path id="Circle-outline_3_" class="st20" d="M95.5,144.9c14.9,0,27,12.1,27,27c0,7.2-2.8,14-7.9,19
                c-5.1,5.1-11.9,7.9-19,7.9c-14.9,0-27-12.1-27-27c0-7.2,2.8-14,7.9-19C81.5,147.7,88.3,144.9,95.5,144.9 M95.5,143.1
                c-15.9,0-28.8,12.8-28.8,28.8c0,15.8,12.8,28.8,28.8,28.8c15.8,0,28.8-12.8,28.8-28.8S111.4,143.1,95.5,143.1L95.5,143.1z"/>
            </g>
          </g>
        </g>
      </g>
    </g>
    <g>
      <text transform="matrix(1 0 0 1 444.8339 344.9097)" class="st6 st7 st8">Notifications</text>
      <g>
        <g>
          <g>
            <g>
              <path class="st6" d="M521.1,175.5c52.3,4.7,86.9,32.8,77.3,62.6c-9.6,29.9-59.8,50.2-112.1,45.5
                c-52.3-4.7-86.9-32.8-77.3-62.6C418.6,191.1,468.8,170.8,521.1,175.5z"/>
            </g>
            <g>
              <linearGradient id="gradient-8" gradientUnits="userSpaceOnUse" x1="407.371" y1="221.559" x2="600" y2="221.559">
                <stop  offset="0" style="stop-color:#FFFFFF"/>
                <stop  offset="1" style="stop-color:#E5E5E5"/>
              </linearGradient>
              <path class="st21" d="M521.1,167.5c52.3,4.7,86.9,32.8,77.3,62.6c-9.6,29.9-59.8,50.2-112.1,45.5
                c-52.3-4.7-86.9-32.8-77.3-62.6C418.6,183.2,468.8,162.8,521.1,167.5z"/>
              <linearGradient id="gradient-9" gradientUnits="userSpaceOnUse" x1="407.371" y1="221.559" x2="600" y2="221.559">
                <stop  offset="0" style="stop-color:#D6D0E7"/>
                <stop  offset="1" style="stop-color:#BEB9CD"/>
              </linearGradient>
              <path class="st22" d="M506,166.8v7.9c4.8,0,9.7,0.2,14.4,0.6c30.8,2.8,56.5,14.4,67,30.2c4.7,7.1,5.9,14.6,3.5,22.1
                c-3.5,10.8-14.2,20.9-30.2,28.5c-16.7,7.9-37.8,12.2-59.3,12.2c-4.8,0-9.7-0.2-14.4-0.6c-30.8-2.8-56.5-14.4-67-30.2
                c-4.7-7.1-5.9-14.6-3.5-22.1c3.5-10.8,14.2-20.9,30.2-28.5c16.7-7.9,37.8-12.2,59.3-12.2L506,166.8 M506,166.8
                c-46.5,0-88.3,19.2-97,46.2c-9.6,29.9,25,57.9,77.3,62.6c5.1,0.5,10.1,0.7,15.1,0.7c46.5,0,88.3-19.2,97-46.2
                c9.6-29.9-25-57.9-77.3-62.6C516.1,167.1,511,166.8,506,166.8L506,166.8z"/>
            </g>
            <g>
              <path class="st6" d="M513,192.7c27.9,2.5,46.3,17.5,41.2,33.4c-5.1,15.9-31.9,26.8-59.8,24.3c-27.9-2.5-46.3-17.5-41.2-33.4
                S485.1,190.2,513,192.7z"/>
            </g>
            <g>
              <linearGradient id="gradient-10" gradientUnits="userSpaceOnUse" x1="452.3494" y1="213.5921" x2="555.0216" y2="213.5921">
                <stop  offset="0" style="stop-color:#D6D0E7"/>
                <stop  offset="1" style="stop-color:#BEB9CD"/>
              </linearGradient>
              <path class="st23" d="M513,184.8c27.9,2.5,46.3,17.5,41.2,33.4c-5.1,15.9-31.9,26.8-59.8,24.3c-27.9-2.5-46.3-17.5-41.2-33.4
                S485.1,182.3,513,184.8z"/>
            </g>
          </g>
          <g>
            <linearGradient id="gradient-11" gradientUnits="userSpaceOnUse" x1="503.9557" y1="228.038" x2="503.9557" y2="65.851">
              <stop  offset="0" style="stop-color:#FFA744"/>
              <stop  offset="3.666481e-02" style="stop-color:#FFBF78"/>
              <stop  offset="7.560670e-02" style="stop-color:#FFD6A8"/>
              <stop  offset="0.1127" style="stop-color:#FFE8CE"/>
              <stop  offset="0.1468" style="stop-color:#FFF5E9"/>
              <stop  offset="0.177" style="stop-color:#FFFCF9"/>
              <stop  offset="0.2" style="stop-color:#FFFFFF"/>
              <stop  offset="1" style="stop-color:#FFFFFF;stop-opacity:0"/>
            </linearGradient>
            <path class="st24" d="M536.9,210.7c0,0,4.2,17.4-32.9,17.4S471,210.7,471,210.7L440.6,65.9h126.7L536.9,210.7z"/>
            <g id="App_2_">
              <path class="st25" d="M526.4,133.3c0,0.2-0.2,0.6-0.6,0.6l-44.1-0.1c-0.2,0-0.6-0.2-0.6-0.6l0.1-41.8l45.4,0.1L526.4,133.3z"
                />
              <path id="border_1_" class="st15" d="M528.1,84.4l-48.3-0.1c-0.6,0-1.2,0.3-1.8,0.7c-0.3,0.3-0.7,1-0.7,1.8l-0.1,48.3
                c0,1.3,1,2.2,2.3,2.2l48.3,0.1c1.3,0,2.2-1,2.2-2.3l0.1-43.1l0.1-5.2C530.4,85.6,529.3,84.7,528.1,84.4z M492,87.2
                c0.5,0,1,0.3,1,0.9c0,0.5-0.3,1-0.9,1c-0.5,0-1-0.3-1-0.9C491.2,87.7,491.5,87.1,492,87.2z M488.2,87.1c0.5,0,1,0.3,1,0.9
                c0,0.5-0.3,1-0.9,1c-0.5,0-1-0.3-1-0.9C487.4,87.6,487.8,87.2,488.2,87.1z M484.6,87.1c0.5,0,1,0.3,1,0.9c0,0.5-0.3,1-0.9,1
                c-0.5,0-1-0.3-1-0.9C483.7,87.7,484,87.1,484.6,87.1z M526.4,133.3c0,0.2-0.2,0.6-0.6,0.6l-44.1-0.1c-0.2,0-0.6-0.2-0.6-0.6
                l0.1-41.8l45.4,0.1L526.4,133.3z M483.8,93.8l9.1,0.1l-0.1,1.6l-9.1-0.1L483.8,93.8z M483.7,100.4l5.3,0L489,102l-5.3,0
                L483.7,100.4z M490.6,100.5l2.2,0l-0.1,1.6l-2.2,0L490.6,100.5z M493.7,100.5l2.2,0l-0.1,1.6l-2.2,0L493.7,100.5z
                  M489.9,97.2l2.2,0l-0.1,1.6l-2.2,0L489.9,97.2z M496.6,97.2l6.5,0.1l-0.1,1.6l-6.5-0.1L496.6,97.2z M498.3,113.3l3.9,0
                l-0.1,1.6l-3.9,0L498.3,113.3z M503.7,113.2l5.8-0.1l-0.1,1.6l-5.8,0.1L503.7,113.2z M483.7,110l4.6,0l-0.1,1.6l-4.6,0
                L483.7,110z M493.7,106.9l2.2,0l-0.1,1.6l-2.2,0L493.7,106.9z M504.1,106.9l4.1,0l-0.1,1.6l-4.1,0L504.1,106.9z M509.4,107
                l8,0l-0.1,1.6l-8,0L509.4,107z M489.9,110l2.2,0l-0.1,1.6l-2.2,0L489.9,110z M493.2,110l2.2,0l-0.1,1.6l-2.2,0L493.2,110z
                  M494.1,93.7l3,0.1l-0.1,1.6l-3-0.1L494.1,93.7z M498.4,93.7l3.9,0l-0.1,1.6l-3.9,0L498.4,93.7z M503.7,93.7l5.8-0.1
                l-0.1,1.6l-5.8,0.1L503.7,93.7z M483.8,97.1l4.6,0l-0.1,1.6l-4.6,0L483.8,97.1z M504.6,97.2l2.4,0.1l-0.1,1.6l-2.4-0.1
                L504.6,97.2z M504.1,100.5l4.1,0l-0.1,1.6l-4.1,0L504.1,100.5z M509.3,100.5l8,0l-0.1,1.6l-8,0L509.3,100.5z M497,100.5
                l5.8-0.1l-0.1,1.6l-5.8,0.1L497,100.5z M483.7,103.7l2.2,0l-0.1,1.6l-2.2,0L483.7,103.7z M486.9,103.8l1.1,0l-0.1,1.6l-1.1,0
                L486.9,103.8z M493.2,97.2l2.2,0l-0.1,1.6l-2.2,0L493.2,97.2z M483.8,113.4l9.1,0.1l-0.1,1.6l-9.1-0.1L483.8,113.4z
                  M494.1,113.2l3,0.1l-0.1,1.6l-3-0.1L494.1,113.2z M504.6,110.1l2.4,0.1l-0.1,1.6l-2.4-0.1L504.6,110.1z M483.8,106.9l5.3,0
                l-0.1,1.6l-5.3,0L483.8,106.9z M490.5,106.9l2.2,0l-0.1,1.6l-2.2,0L490.5,106.9z M497.1,106.8l5.8-0.1l-0.1,1.6l-5.8,0.1
                L497.1,106.8z M496.5,110l6.5,0.1l-0.1,1.6l-6.5-0.1L496.5,110z"/>
              <path id="terminal_2_" class="st15" d="M490.8,122.3c0.1,0.1,0.2,0.3,0.3,0.4l-0.1,1c0,0.1-0.2,0.2-0.2,0.3l-4.9,2.4l4.9,2.4
                c0.1,0.1,0.2,0.3,0.3,0.4l-0.1,1c0,0.1-0.2,0.2-0.2,0.3c-0.1,0.1-0.1,0.1-0.3,0.1c-0.1,0-0.1,0-0.2-0.2l-6.5-3.4
                c-0.1-0.1-0.2-0.3-0.3-0.4l0-0.9c0-0.1,0.2-0.2,0.2-0.3l6.5-3.4C490.6,122.2,490.7,122.2,490.8,122.3z M498.8,120.1l-0.9,0
                c-0.1,0-0.3,0.1-0.4,0.3l-3.9,10.1c-0.1,0.1,0,0.2,0.2,0.4c0.1,0.1,0.2,0.2,0.4,0.1l0.9,0c0.1,0,0.3-0.1,0.4-0.3l4-10
                c0.1-0.1,0-0.2-0.2-0.4C499.1,120.2,499,120.1,498.8,120.1z M508.8,125.6l-6.5-3.4c-0.1-0.1-0.2-0.2-0.4,0.1
                c-0.1,0.1-0.3,0.2-0.2,0.3l-0.1,1c0,0.1,0.1,0.3,0.3,0.4l4.9,2.4l-4.9,2.4c-0.1,0.1-0.3,0.2-0.2,0.3l-0.1,1
                c0,0.1,0.1,0.3,0.3,0.4c0.1,0.1,0.1,0.1,0.2,0.2c0.1,0,0.1,0,0.3-0.1l6.5-3.4c0.1-0.1,0.3-0.2,0.2-0.3l0-0.9
                C509.1,125.8,509.1,125.7,508.8,125.6z"/>
            </g>
            <g id="Man-1_2_">
              <circle id="Circle-BG_2_" class="st16" cx="503.8" cy="172.2" r="28.6"/>
              <path id="Body_2_" class="st18" d="M524,191.4c-3.1-4.6-7.6-7.5-13.3-8.7l-0.1-2.6c2.3-2.3,4.3-5.3,5.3-8.5
                c0.8,0.2,1.6-1.1,2-2.8c0.4-1.9,0.1-3.5-0.7-3.7c-0.2-0.1-0.5,0-0.7,0.1c-0.8-7.1-5.5-12.4-12.7-12.4s-11.9,5.3-12.7,12.3
                c-0.2-0.1-0.4-0.2-0.7-0.1c-0.8,0.2-1.2,2-0.8,3.7c0.3,1.6,1.1,2.8,2,2.8c1,3.3,3,6.5,5.4,8.8l-0.1,2.4
                c-5.9,1.1-10.8,3.9-13.3,9c-0.7,1.4,14.2,9,20.3,9C512,200.5,525.1,192.9,524,191.4z"/>
              <path id="Hair_2_" class="st26" d="M491,165.1c0,0-0.2-13.4,11.4-13.4c2-0.7,7.4-1.1,11.7,3.5c3.8,4.1,2.4,9.9,2.4,9.9
                s-7.9-0.9-13.4-8.1C503.1,156.9,495.1,157.9,491,165.1z"/>
              <path id="Shirt_2_" class="st19" d="M496.6,182.5c0,0,3.3,6.6,7.2,6.6c4,0,7.2-6.6,7.2-6.6s7.5-0.1,13.3,8.2
                c0,0-9.1,9.5-20.1,9.5c-11,0-20.8-9.6-20.8-9.6S487.7,183.1,496.6,182.5z"/>
              <path id="Circle-outline_2_" class="st20" d="M503.8,145.4c14.8,0,26.9,12,26.9,26.9c0,7.2-2.8,13.9-7.9,19
                c-5,5-11.8,7.9-19,7.9c-14.8,0-26.9-12-26.9-26.9c0-7.2,2.8-13.9,7.9-19C489.8,148.2,496.6,145.4,503.8,145.4 M503.8,143.7
                c-15.8,0-28.6,12.8-28.6,28.6s12.8,28.6,28.6,28.6c15.8,0,28.6-12.8,28.6-28.6S519.5,143.7,503.8,143.7L503.8,143.7z"/>
            </g>
          </g>
        </g>
      </g>
    </g>
    <g>
      <g>
        <g>
          <g>
            <path class="st6" d="M321.7,342.3c65.1,5.9,108.2,40.8,96.2,78c-12,37.2-74.5,62.5-139.7,56.7s-108.2-40.8-96.2-78
              C194.1,361.8,256.6,336.4,321.7,342.3z"/>
          </g>
          <g>
            <linearGradient id="gradient-12" gradientUnits="userSpaceOnUse" x1="300" y1="465.6785" x2="300" y2="329.3671">
              <stop  offset="0" style="stop-color:#E5E5E5"/>
              <stop  offset="1" style="stop-color:#FFFFFF"/>
            </linearGradient>
            <path class="st27" d="M321.7,330.2c65.1,5.9,108.2,40.8,96.2,78c-12,37.2-74.5,62.5-139.7,56.7s-108.2-40.8-96.2-78
              C194.1,349.7,256.6,324.3,321.7,330.2z"/>
            <linearGradient id="gradient-13" gradientUnits="userSpaceOnUse" x1="300" y1="465.6785" x2="300" y2="329.367">
              <stop  offset="0" style="stop-color:#BEB9CD"/>
              <stop  offset="1" style="stop-color:#D6D0E7"/>
            </linearGradient>
            <path class="st28" d="M302.9,339c6,0,12,0.3,18,0.8c38.5,3.5,70.5,17.9,83.6,37.7c5.9,9,7.4,18.3,4.4,27.7
              c-4.4,13.6-17.8,26.2-37.7,35.6c-20.9,9.8-47.1,15.3-74,15.3c-6,0-12-0.3-18-0.8c-38.5-3.5-70.5-17.9-83.6-37.7
              c-5.9-9-7.4-18.3-4.4-27.7c4.4-13.6,17.8-26.2,37.7-35.6C249.8,344.4,276,339,302.9,339L302.9,339 M302.9,329.4
              c-57.9,0-110,23.9-120.8,57.5c-12,37.2,31.1,72.1,96.2,78c6.3,0.6,12.6,0.8,18.8,0.8c57.9,0,110-23.9,120.8-57.5
              c12-37.2-31.1-72.1-96.2-78C315.4,329.6,309.1,329.4,302.9,329.4L302.9,329.4z"/>
          </g>
          <g>
            <path class="st6" d="M312,360.4c35.9,3.2,59.6,22.5,53,43s-41.1,34.5-77,31.2c-35.9-3.2-59.6-22.5-53-43
              S276.1,357.2,312,360.4z"/>
          </g>
          <g>
            <linearGradient id="gradient-14" gradientUnits="userSpaceOnUse" x1="300" y1="422.9726" x2="300" y2="347.8607">
              <stop  offset="0" style="stop-color:#BEB9CD"/>
              <stop  offset="1" style="stop-color:#D6D0E7"/>
            </linearGradient>
            <path class="st29" d="M312,348.3c35.9,3.2,59.6,22.5,53,43s-41.1,34.5-77,31.2c-35.9-3.2-59.6-22.5-53-43
              S276.1,345.1,312,348.3z"/>
          </g>
        </g>
        <g>
          <linearGradient id="gradient-15" gradientUnits="userSpaceOnUse" x1="299.7622" y1="403.8441" x2="299.7622" y2="193.9575">
            <stop  offset="0" style="stop-color:#FFA744"/>
            <stop  offset="3.666481e-02" style="stop-color:#FFBF78"/>
            <stop  offset="7.560670e-02" style="stop-color:#FFD6A8"/>
            <stop  offset="0.1127" style="stop-color:#FFE8CE"/>
            <stop  offset="0.1468" style="stop-color:#FFF5E9"/>
            <stop  offset="0.177" style="stop-color:#FFFCF9"/>
            <stop  offset="0.2" style="stop-color:#FFFFFF"/>
            <stop  offset="1" style="stop-color:#FFFFFF;stop-opacity:0"/>
          </linearGradient>
          <path class="st30" d="M342.4,381.4c0,0,5.4,22.5-42.6,22.5s-42.6-22.5-42.6-22.5L217.8,194h164L342.4,381.4z"/>
          <g id="Women-1_1_">
            <circle id="Circle-BG_1_" class="st16" cx="300" cy="331.8" r="36.8"/>
            <path id="Hair-back_1_" class="st26" d="M284.1,329.3c0,0,2,18.2-0.1,20.3h31.7c0,0-1.2-15.4,0.4-21.5L284.1,329.3z"/>
            <path id="Body_1_" class="st31" d="M326.1,356.3c-4.2-6.2-10.5-9.9-18.2-11.4l-0.1-2.4c4.2-4.1,7.6-10.7,7.6-17
              c0-10.5-5-18.8-15.5-18.8c-10.5,0-15.5,8.5-15.5,18.8c0,6.6,3.6,13.3,7.8,17.4l-0.1,2c-8.2,1.4-15,4.9-18.3,11.7
              c-0.8,1.8,18.3,11.6,26.1,11.6C310.4,368.2,327.4,358.3,326.1,356.3z"/>
            <path id="Hair_1_" class="st26" d="M319.2,348.3c-0.8-3.9-0.5-25.7-0.5-25.7c0-4.8-3.2-18.5-18.6-16.6
              c-15.3-1.9-18.6,11.4-18.6,16.6c0,0.5,0.1,24.3-0.4,25.7c-1.4,3.7,6.3-0.9,6.3-2.2c0-3.1,0-22.5,0.4-22.8
              c0.3-0.2,1.6-0.4,3.2-0.6l0.7-4.6l0.8,4.4c2.5-0.3,5.5-0.5,7.5-0.5c1.6,0,4.5,0.3,7.1,0.7l0.3-2.2l0.4,2.3
              c0.5,0.1,0.9,0.1,1.4,0.2l0.3-1.7l0.3,1.9c1.3,0.2,2.1,0.5,2.2,0.6c0.7,0.8,0.7,23.6,1,24.5
              C313.5,349.4,319.9,351.6,319.2,348.3z"/>
            <path id="Shirt_1_" class="st19" d="M290.8,344.9c0,0,6.8,10,9.2,10c2.6,0,9.3-10.1,9.3-10.1s9.6-0.1,17,10.6
              c0,0-11.7,12.2-25.8,12.2s-26.8-12.3-26.8-12.3S279.3,345.8,290.8,344.9z"/>
            <path id="Circle-outline_1_" class="st20" d="M300,297.1c19,0,34.5,15.5,34.5,34.5c0,9.2-3.6,17.9-10.1,24.4
              c-6.5,6.5-15.2,10.1-24.4,10.1c-19,0-34.5-15.5-34.5-34.5c0-9.2,3.6-17.9,10.1-24.4C282.1,300.8,290.8,297.1,300,297.1
                M300,294.9c-20.3,0-36.8,16.4-36.8,36.8c0,20.3,16.4,36.8,36.8,36.8c20.3,0,36.8-16.4,36.8-36.8
              C336.9,311.4,320.4,294.9,300,294.9L300,294.9z"/>
          </g>
          <g id="Blockchain_2_">
            <path class="st15" d="M347.4,253.8l-0.4-12.6l-10.1-5.8l-9.9,6.3l0.4,12.6l10.1,5.8L347.4,253.8z M344.9,252.4l-6,3.7
              l-0.3-6.6l6-3.7L344.9,252.4z M329.8,243.1l7.3-4.7l7.4,4.3l0,0.1l-7.3,4.7L329.8,243.1L329.8,243.1z M336.2,256.2l-6.1-3.4
              l-0.3-6.6l6.1,3.4L336.2,256.2z M298.8,248.8l-9.9,6.3l0.4,12.6l10.1,5.8l9.9-6.3l-0.4-12.6L298.8,248.8z M298,269.7l-6.1-3.4
              l-0.3-6.6l6.1,3.4L298,269.7z M306.7,265.9l-6,3.7l-0.3-6.6l6-3.7L306.7,265.9z M306.4,256.2l-7.3,4.7l-7.4-4.3l0-0.1l7.3-4.7
              L306.4,256.2L306.4,256.2z M261.3,262.1l-9.9,6.3l0.4,12.6l10.1,5.8l9.9-6.3l-0.4-12.6L261.3,262.1z M260.6,283.1l-6.1-3.4
              l-0.3-6.6l6.1,3.4L260.6,283.1z M269.1,279.2l-6,3.7l-0.3-6.6l6-3.7L269.1,279.2z M268.9,269.6l-7.3,4.7l-7.4-4.3l0-0.1
              l7.3-4.7L268.9,269.6L268.9,269.6z M324.8,254.4c0.1,0.7-0.6,1.2-1.2,1.3c-0.7,0.1-1.2-0.6-1.3-1.2s0.6-1.2,1.2-1.3
              C324.3,253.2,324.8,253.7,324.8,254.4z M319.6,254.6c0.1,0.7-0.6,1.2-1.2,1.3c-0.6,0.1-1.2-0.6-1.3-1.2
              c-0.1-0.7,0.6-1.2,1.2-1.3C319.1,253.3,319.6,253.8,319.6,254.6z M314.4,254.7c0.1,0.7-0.6,1.2-1.2,1.3
              c-0.7,0.1-1.2-0.6-1.3-1.2c-0.1-0.7,0.6-1.2,1.2-1.3C313.8,253.4,314.3,254.1,314.4,254.7z M276.3,267.8
              c0.1,0.7-0.6,1.2-1.2,1.3c-0.7,0.1-1.2-0.6-1.3-1.2c-0.1-0.7,0.6-1.2,1.2-1.3C275.8,266.5,276.2,267.1,276.3,267.8z
                M281.5,267.7c0.1,0.7-0.6,1.2-1.2,1.3c-0.7,0.1-1.2-0.6-1.3-1.2s0.6-1.2,1.2-1.3C281,266.4,281.5,267,281.5,267.7z
                M286.8,267.6c0.1,0.7-0.6,1.2-1.2,1.3c-0.7,0.1-1.2-0.6-1.3-1.2c-0.1-0.6,0.6-1.2,1.2-1.3
              C286.2,266.2,286.7,266.9,286.8,267.6z"/>
            <polygon class="st25" points="260.6,283.1 254.4,279.6 254.2,273 260.3,276.4 						"/>
            <polygon class="st25" points="269.1,279.2 263.1,282.9 262.9,276.3 268.9,272.6 						"/>
            <polygon class="st25" points="268.9,269.6 261.6,274.3 254.1,270 254.2,269.9 261.4,265.2 268.9,269.6 						"/>
            <polygon class="st25" points="298,269.7 291.8,266.3 291.6,259.7 297.7,263.1 						"/>
            <polygon class="st25" points="306.7,265.9 300.6,269.6 300.4,263 306.4,259.3 						"/>
            <polygon class="st25" points="306.4,256.2 299.1,260.9 291.7,256.6 291.7,256.5 299,251.8 306.4,256.2 						"/>
            <polygon class="st25" points="344.9,252.4 338.9,256.1 338.6,249.5 344.6,245.7 						"/>
            <polygon class="st25" points="329.8,243.1 337.1,238.4 344.5,242.7 344.5,242.8 337.2,247.5 329.8,243.1 						"/>
            <polygon class="st25" points="336.2,256.2 330.1,252.7 329.8,246.1 336,249.6 						"/>
          </g>
        </g>
      </g>
    </g>
  </g>
</g>
</svg>
