<svg version="1.1" id="Layer_1" xmlns="http://www.w3.org/2000/svg" xmlns:xlink="http://www.w3.org/1999/xlink" x="0px" y="0px"
    viewBox="0 0 600 600" style="enable-background:new 0 0 600 600;" xml:space="preserve">
<style type="text/css">
.st0{display:none;fill:#251440;}
.st1{opacity:0.15;fill:#9452FF;}
.st2{fill:url(#SVGID_1_);}
.st3{fill:url(#SVGID_2_);}
.st4{fill:#9452FF;}
.st5{fill:url(#SVGID_3_);}
.st6{clip-path:url(#SVGID_7_);}
.st7{fill:url(#SVGID_8_);}
.st8{fill:url(#SVGID_9_);}
.st9{opacity:0.15;fill:#251440;}
.st10{fill:#491E8C;}
.st11{fill:#FFFFFF;}
.st12{opacity:0.45;fill:#251440;}
.st13{fill:url(#SVGID_10_);}
.st14{fill:url(#SVGID_11_);}
.st15{fill:#FFA744;}
.st16{fill:#251440;}
</style>
<rect y="0" class="st0" width="600" height="600"/>
<g>
  <g>
    <g>
      <polygon class="st1" points="176.7,427.8 0,325.8 176.7,223.8 353.3,325.8 			"/>
    </g>
    <g>
      <linearGradient id="SVGID_1_" gradientUnits="userSpaceOnUse" x1="70.6294" y1="335.4269" x2="282.7134" y2="335.4269">
        <stop  offset="0" style="stop-color:#9452FF"/>
        <stop  offset="1" style="stop-color:#4A297F"/>
      </linearGradient>
      <path class="st2" d="M168.6,394.9l-94.9-54.8c-4.5-2.6-3.9-7.1,1.3-10.1l92.4-53.3c5.2-3,13-3.3,17.5-0.7l94.9,54.8
        c4.5,2.6,3.9,7.1-1.3,10.1L186,394.2C180.9,397.2,173,397.5,168.6,394.9z"/>
      <linearGradient id="SVGID_2_" gradientUnits="userSpaceOnUse" x1="70.6294" y1="325.7819" x2="282.7134" y2="325.7819">
        <stop  offset="0" style="stop-color:#9452FF"/>
        <stop  offset="1" style="stop-color:#4A297F"/>
      </linearGradient>
      <rect x="70.6" y="316.1" class="st3" width="212.1" height="19.3"/>
      <path class="st4" d="M168.6,375.6l-94.9-54.8c-4.5-2.6-3.9-7.1,1.3-10.1l92.4-53.3c5.2-3,13-3.3,17.5-0.7l94.9,54.8
        c4.5,2.6,3.9,7.1-1.3,10.1L186,374.9C180.9,377.9,173,378.2,168.6,375.6z"/>
    </g>
    <polygon class="st1" points="176.7,427.8 0,325.8 176.7,223.8 353.4,325.8 		"/>
    <g>
      <linearGradient id="SVGID_3_" gradientUnits="userSpaceOnUse" x1="36.0505" y1="325.7819" x2="317.3296" y2="325.7819">
        <stop  offset="0" style="stop-color:#491E8C"/>
        <stop  offset="1" style="stop-color:#251440"/>
      </linearGradient>
      <polygon class="st5" points="176.7,407 36.1,325.8 176.7,244.6 317.3,325.8 			"/>
      <g>
        <defs>
          <polygon id="SVGID_4_" points="176.7,407 36.1,325.8 176.7,244.6 317.3,325.8 					"/>
        </defs>
        <clipPath id="SVGID_5_">
          <use xlink:href="#SVGID_4_"  style="overflow:visible;"/>
        </clipPath>
      </g>
      <g>
        <defs>
          <polygon id="SVGID_6_" points="176.7,407 36.1,325.8 176.7,244.6 317.3,325.8 					"/>
        </defs>
        <clipPath id="SVGID_7_">
          <use xlink:href="#SVGID_6_"  style="overflow:visible;"/>
        </clipPath>
        <g class="st6">
          <linearGradient id="SVGID_8_" gradientUnits="userSpaceOnUse" x1="72.0215" y1="350.4877" x2="281.3586" y2="350.4877">
            <stop  offset="0" style="stop-color:#9452FF"/>
            <stop  offset="1" style="stop-color:#4A297F"/>
          </linearGradient>
          <path class="st7" d="M168.7,409.2L75,355.1c-4.4-2.5-3.8-7,1.2-10l91.2-52.7c5.1-2.9,12.9-3.3,17.3-0.7l93.7,54.1
            c4.4,2.5,3.8,7-1.2,10l-91.2,52.7C180.9,411.4,173.1,411.7,168.7,409.2z"/>
          <linearGradient id="SVGID_9_" gradientUnits="userSpaceOnUse" x1="72.0215" y1="340.9676" x2="281.3586" y2="340.9676">
            <stop  offset="0" style="stop-color:#9452FF"/>
            <stop  offset="1" style="stop-color:#4A297F"/>
          </linearGradient>
          <rect x="72" y="331.4" class="st8" width="209.3" height="19"/>
          <path class="st4" d="M168.7,390.2L75,336.1c-4.4-2.5-3.8-7,1.2-10l91.2-52.7c5.1-2.9,12.9-3.3,17.3-0.7l93.7,54.1
            c4.4,2.5,3.8,7-1.2,10l-91.2,52.7C180.9,392.4,173.1,392.7,168.7,390.2z"/>
        </g>
      </g>
    </g>
    <path class="st9" d="M223.2,358.1c-25.7,14.8-67.3,14.8-93,0c-25.7-14.8-25.7-38.9,0-53.7c25.7-14.8,67.3-14.8,93,0
      C248.8,319.3,248.8,343.3,223.2,358.1z"/>
    <g>
      <g>
        <path class="st5" d="M302,51.5H114.4c-15.3,0-27.9,12.7-27.9,28.1v188.6c0,15.9,12.7,28.7,27.9,28.7h59c0,13.8,0,34,0,35.6
          c0,2.1,2.1,3.2,4.2,1.6c1.1-1.1,26.9-22.8,43.8-37.2h79.6c15.3,0,27.9-12.8,27.9-28.2V79.6C329.9,64.2,317.3,51.5,302,51.5z"/>
        <g>
          <path class="st11" d="M193.9,176.3c2.1-2.1,4.2-3.2,7.4-3.2c7.9,0,13.7-1.6,18.4-5.3s6.9-9.1,6.9-17c0-5.8-2.1-10.7-6.3-14.4
            s-9.5-5.8-15.8-5.8s-12.1,2.1-16.9,6.3c-2.6,2.6-5.8,3.7-9,3.7c-2.1,0-4.2-0.5-5.8-2.1c-3.2-2.1-4.7-5.3-4.7-8.4
            c0-2.6,1.1-5.3,3.2-7.4c4.2-4.2,9-7.9,14.8-10.1c5.8-2.6,11.6-3.7,17.9-3.7c7.9,0,15.3,1.6,21.6,5.3s11.6,8.4,15.3,14.9
            c3.7,6.3,5.8,13.3,5.8,21.2c0,11.2-3.2,20.2-9.5,26.6c-6.3,6.3-14.8,10.7-25.3,12.3c-0.5,0-1.1,0.5-1.1,1.1v6.3
            c0,3.2-1.1,5.8-3.2,7.4c-2.1,2.1-4.7,3.2-7.4,3.2c-3.2,0-5.3-1.1-7.4-3.2c-2.1-2.1-3.2-4.7-3.2-7.4v-13.3
            C190.8,181.1,191.8,178.4,193.9,176.3z M192.9,236.8c-1.6-1.6-2.6-4.2-2.6-7.9v-3.2c0-3.2,1.1-5.8,2.6-7.9
            c1.6-1.6,4.2-2.6,7.9-2.6h2.1c3.2,0,5.8,1.1,7.9,2.6c1.6,1.6,2.6,4.2,2.6,7.9v3.2c0,3.2-1.1,5.8-2.6,7.9
            c-1.6,1.6-4.2,2.6-7.9,2.6h-2.1C197.1,239.6,194.5,238.9,192.9,236.8z"/>
        </g>
      </g>
    </g>
  </g>
  <g>
    <g>
      <polygon class="st1" points="423.3,569.5 246.7,467.5 423.3,365.5 600,467.5 			"/>
    </g>
    <g>
      <path class="st12" d="M415.2,536.6l-94.9-54.8c-4.5-2.6-3.9-7.1,1.3-10.1l92.4-53.3c5.2-3,13-3.3,17.5-0.7l94.9,54.8
        c4.5,2.6,3.9,7.1-1.3,10.1l-92.4,53.3C427.5,538.9,419.7,539.2,415.2,536.6z"/>
      <linearGradient id="SVGID_10_" gradientUnits="userSpaceOnUse" x1="317.2866" y1="457.1165" x2="529.3706" y2="457.1165">
        <stop  offset="0" style="stop-color:#9452FF"/>
        <stop  offset="1" style="stop-color:#4A297F"/>
      </linearGradient>
      <path class="st13" d="M415.2,516.6l-94.9-54.8c-4.5-2.6-3.9-7.1,1.3-10.1l92.4-53.3c5.2-3,13-3.3,17.5-0.7l94.9,54.8
        c4.5,2.6,3.9,7.1-1.3,10.1l-92.4,53.3C427.5,518.9,419.7,519.2,415.2,516.6z"/>
      <linearGradient id="SVGID_11_" gradientUnits="userSpaceOnUse" x1="317.2866" y1="447.4715" x2="529.3706" y2="447.4715">
        <stop  offset="0" style="stop-color:#9452FF"/>
        <stop  offset="1" style="stop-color:#4A297F"/>
      </linearGradient>
      <rect x="317.3" y="437.8" class="st14" width="212.1" height="19.3"/>
      <path class="st4" d="M415.2,497.3l-94.9-54.8c-4.5-2.6-3.9-7.1,1.3-10.1l92.4-53.3c5.2-3,13-3.3,17.5-0.7l94.9,54.8
        c4.5,2.6,3.9,7.1-1.3,10.1l-92.4,53.3C427.5,499.6,419.7,499.9,415.2,497.3z"/>
    </g>
    <path class="st9" d="M469.8,466c-25.7,14.8-67.3,14.8-93,0c-25.7-14.8-25.7-38.9,0-53.7s67.3-14.8,93,0
      C495.5,427.2,495.5,451.2,469.8,466z"/>
    <g>
      <path class="st11" d="M299,160h186.8c15.4,0,27.9,12.6,27.9,28.1v188.2c0,15.5-12.5,28.1-27.9,28.1h-59c0,13.4,0,33.9,0,35.5
        c0,2.4-2.4,3.2-4.4,1.6c-0.8-0.8-26.7-22.4-43.7-36.7H299c-15.4,0-27.9-12.6-27.9-28.1V188.6C271.1,172.7,283.6,160,299,160z"/>
      <g>
        <g>
          <path class="st10" d="M388.7,211.4h-84.5c-2.8,0-4.9-2-4.9-4.9l0,0c0-2.8,2-4.9,4.9-4.9h84.1c2.8,0,4.9,2,4.9,4.9l0,0
            C393.6,209.3,391.6,211.4,388.7,211.4z"/>
          <path class="st10" d="M480.5,211.4h-60.6c-2.8,0-4.9-2-4.9-4.9l0,0c0-2.8,2-4.9,4.9-4.9h60.6c2.8,0,4.9,2,4.9,4.9l0,0
            C485.3,209.3,482.9,211.4,480.5,211.4z"/>
        </g>
        <g>
          <path class="st10" d="M370.1,259.5h-65.9c-2.8,0-4.9-2-4.9-4.9l0,0c0-2.8,2-4.9,4.9-4.9h65.5c2.8,0,4.9,2,4.9,4.9l0,0
            C375,257.4,372.6,259.5,370.1,259.5z"/>
          <path class="st10" d="M442.9,259.5h-42c-2.8,0-4.9-2-4.9-4.9l0,0c0-2.8,2-4.9,4.9-4.9h42c2.8,0,4.9,2,4.9,4.9l0,0
            C448.1,257.4,445.7,259.5,442.9,259.5z"/>
        </g>
        <g>
          <path class="st10" d="M351.1,235.4h-46.9c-2.8,0-4.9-2-4.9-4.9l0,0c0-2.8,2-4.9,4.9-4.9h46.9c2.8,0,4.9,2,4.9,4.9l0,0
            C356.4,233.4,354,235.4,351.1,235.4z"/>
          <path class="st10" d="M419.8,235.4h-37.6c-2.8,0-4.9-2-4.9-4.9l0,0c0-2.8,2-4.9,4.9-4.9h37.6c2.8,0,4.9,2,4.9,4.9l0,0
            C424.7,233.4,422.3,235.4,419.8,235.4z"/>
          <path class="st10" d="M458.7,235.4h-9.3c-2.8,0-4.9-2-4.9-4.9l0,0c0-2.8,2-4.9,4.9-4.9h9.3c2.8,0,4.9,2,4.9,4.9l0,0
            C463.9,233.4,461.5,235.4,458.7,235.4z"/>
        </g>
      </g>
      <g>
        <g>
          <path class="st10" d="M388.7,362.1h-84.5c-2.8,0-4.9,2-4.9,4.9l0,0c0,2.8,2,4.9,4.9,4.9h84.1c2.8,0,4.9-2,4.9-4.9l0,0
            C393.6,364.6,391.6,362.1,388.7,362.1z"/>
          <path class="st10" d="M480.5,362.1h-60.6c-2.8,0-4.9,2-4.9,4.9l0,0c0,2.8,2,4.9,4.9,4.9h60.6c2.8,0,4.9-2,4.9-4.9l0,0
            C485.3,364.6,482.9,362.1,480.5,362.1z"/>
        </g>
        <g>
          <path class="st10" d="M370.1,314h-65.9c-2.8,0-4.9,2-4.9,4.9l0,0c0,2.8,2,4.9,4.9,4.9h65.5c2.8,0,4.9-2,4.9-4.9l0,0
            C375,316.5,372.6,314,370.1,314z"/>
          <path class="st10" d="M442.9,314h-42c-2.8,0-4.9,2-4.9,4.9l0,0c0,2.8,2,4.9,4.9,4.9h42c2.8,0,4.9-2,4.9-4.9l0,0
            C448.1,316.5,445.7,314,442.9,314z"/>
        </g>
        <g>
          <path class="st10" d="M351.1,338.1h-46.9c-2.8,0-4.9,2-4.9,4.9l0,0c0,2.8,2,4.9,4.9,4.9h46.9c2.8,0,4.9-2,4.9-4.9l0,0
            C356.4,340.5,354,338.1,351.1,338.1z"/>
          <path class="st10" d="M419.8,338.1h-37.6c-2.8,0-4.9,2-4.9,4.9l0,0c0,2.8,2,4.9,4.9,4.9h37.6c2.8,0,4.9-2,4.9-4.9l0,0
            C424.7,340.5,422.3,338.1,419.8,338.1z"/>
          <path class="st10" d="M458.7,338.1h-9.3c-2.8,0-4.9,2-4.9,4.9l0,0c0,2.8,2,4.9,4.9,4.9h9.3c2.8,0,4.9-2,4.9-4.9l0,0
            C463.9,340.5,461.5,338.1,458.7,338.1z"/>
        </g>
      </g>
      <g>
        <path class="st15" d="M318,289.6h-15.8c-1.6,0-2.4-1.2-2.4-2.4l0,0c0-1.6,1.2-2.4,2.4-2.4H318c1.6,0,2.4,1.2,2.4,2.4l0,0
          C320.4,288.4,319.2,289.6,318,289.6z"/>
        <path class="st15" d="M350.7,289.6h-19.8c-1.6,0-2.4-1.2-2.4-2.4l0,0c0-1.6,1.2-2.4,2.4-2.4h19.8c1.6,0,2.4,1.2,2.4,2.4l0,0
          C353.6,288.4,352.3,289.6,350.7,289.6z"/>
        <path class="st15" d="M383.9,289.6h-19.8c-1.6,0-2.4-1.2-2.4-2.4l0,0c0-1.6,1.2-2.4,2.4-2.4h19.8c1.6,0,2.4,1.2,2.4,2.4l0,0
          C386.3,288.4,385.1,289.6,383.9,289.6z"/>
        <path class="st15" d="M416.6,289.6h-19.8c-1.6,0-2.4-1.2-2.4-2.4l0,0c0-1.6,1.2-2.4,2.4-2.4h19.8c1.6,0,2.4,1.2,2.4,2.4l0,0
          C419.4,288.4,418.2,289.6,416.6,289.6z"/>
        <path class="st15" d="M449.8,289.6H430c-1.6,0-2.4-1.2-2.4-2.4l0,0c0-1.6,1.2-2.4,2.4-2.4h19.8c1.6,0,2.4,1.2,2.4,2.4l0,0
          C452.2,288.4,451,289.6,449.8,289.6z"/>
        <path class="st15" d="M482.5,289.6h-19.8c-1.6,0-2.4-1.2-2.4-2.4l0,0c0-1.6,1.2-2.4,2.4-2.4h19.8c1.6,0,2.4,1.2,2.4,2.4l0,0
          C485.3,288.4,484.1,289.6,482.5,289.6z"/>
      </g>
    </g>
  </g>
</g>
</svg>
