<svg version="1.1" id="Schema-Connecting" xmlns="http://www.w3.org/2000/svg" xmlns:xlink="http://www.w3.org/1999/xlink" x="0px"
    y="0px" viewBox="0 0 600 600" style="enable-background:new 0 0 600 600;" xml:space="preserve">
<style type="text/css">
.st0{opacity:0.12;fill:#9452FF;}
.st1{opacity:0.8;fill:#9452FF;}
.st2{fill:#9452FF;}
.st3{fill:none;stroke:#FFA744;stroke-miterlimit:10;}
.st4{fill:#FFFFFF;stroke:#FFA744;stroke-miterlimit:10;}
.st5{opacity:0.8;fill:#513FE8;}
.st6{fill:#513FE8;}
.st7{opacity:0.8;fill:#AE3FE8;}
.st8{fill:#AE3FE8;}
.st9{fill:#251440;}
.st10{fill:#FFFFFF;}
.st11{fill:none;}
.st12{font-family:'Quicksand-Regular';font-size:10px;}
</style>
<g id="Connecting">
  <g id="Background">
    <circle id="Circle-5" class="st0" cx="300" cy="300" r="300"/>
    <circle id="Circle-4" class="st0" cx="300" cy="300" r="224"/>
    <circle id="Circle-3" class="st0" cx="300" cy="300" r="167.3"/>
    <circle id="Circle-2" class="st0" cx="300" cy="300" r="125"/>
    <circle id="Circle-1" class="st0" cx="300" cy="300" r="93.3"/>
  </g>
  <g id="Branches-1">
    <g id="branche-16">
      <ellipse transform="matrix(0.9239 -0.3827 0.3827 0.9239 -13.2011 85.0203)" class="st1" cx="207.1" cy="75.7" rx="30" ry="30"/>

        <ellipse transform="matrix(0.9239 -0.3827 0.3827 0.9239 -13.2011 85.0203)" class="st2" cx="207.1" cy="75.7" rx="13.3" ry="13.3"/>
      <g id="bridge_4_">
        <line class="st3" x1="207.1" y1="75.7" x2="281.4" y2="255.1"/>

          <ellipse transform="matrix(0.9239 -0.3826 0.3826 0.9239 -13.2041 84.9971)" class="st4" cx="207.1" cy="75.7" rx="2.8" ry="2.8"/>

          <ellipse transform="matrix(0.9239 -0.3826 0.3826 0.9239 -76.2297 127.0879)" class="st4" cx="281.4" cy="255.2" rx="2.8" ry="2.8"/>
      </g>
    </g>
    <g id="branche-15">

        <ellipse transform="matrix(0.7071 -0.7071 0.7071 0.7071 -67.3541 162.7072)" class="st5" cx="162.7" cy="162.7" rx="22.5" ry="22.5"/>

        <ellipse transform="matrix(0.7071 -0.7071 0.7071 0.7071 -67.3541 162.7072)" class="st6" cx="162.7" cy="162.7" rx="10" ry="10"/>
      <g id="bridge_32_">
        <line class="st3" x1="265.7" y1="265.6" x2="162.7" y2="162.7"/>
        <path class="st4" d="M263.7,263.6c1.1-1.1,2.9-1.1,4,0c1.1,1.1,1.1,2.9,0,4c-1.1,1.1-2.9,1.1-4,0
          C262.6,266.5,262.6,264.7,263.7,263.6z"/>

          <ellipse transform="matrix(0.7065 -0.7077 0.7077 0.7065 -67.3438 162.888)" class="st4" cx="162.7" cy="162.6" rx="2.8" ry="2.8"/>
      </g>
    </g>
    <g id="branche-14">

        <ellipse transform="matrix(0.3827 -0.9239 0.9239 0.3827 -144.5847 197.7835)" class="st7" cx="75.7" cy="207.1" rx="30" ry="30"/>

        <ellipse transform="matrix(0.3827 -0.9239 0.9239 0.3827 -144.5847 197.7835)" class="st8" cx="75.7" cy="207.1" rx="13.3" ry="13.3"/>
      <g id="bridge_2_">
        <line class="st3" x1="75.7" y1="207.1" x2="255.1" y2="281.4"/>

          <ellipse transform="matrix(0.3827 -0.9239 0.9239 0.3827 -144.5752 197.7776)" class="st4" cx="75.7" cy="207.1" rx="2.8" ry="2.8"/>

          <ellipse transform="matrix(0.3827 -0.9239 0.9239 0.3827 -102.4555 409.337)" class="st4" cx="255.1" cy="281.3" rx="2.8" ry="2.8"/>
      </g>
    </g>
    <g id="branche-13">
      <circle class="st1" cx="105.8" cy="300" r="22.5"/>
      <circle class="st2" cx="105.8" cy="300" r="10"/>
      <g id="bridge_28_">
        <line class="st3" x1="251.3" y1="300" x2="105.8" y2="300"/>
        <ellipse class="st4" cx="251.3" cy="300" rx="2.8" ry="2.7"/>
        <ellipse class="st4" cx="105.8" cy="300" rx="2.8" ry="2.7"/>
      </g>
    </g>
    <g id="branche-12">

        <ellipse transform="matrix(0.9239 -0.3827 0.3827 0.9239 -144.5979 58.8799)" class="st5" cx="75.7" cy="392.9" rx="30" ry="30"/>

        <ellipse transform="matrix(0.9239 -0.3827 0.3827 0.9239 -144.5979 58.8799)" class="st6" cx="75.7" cy="392.9" rx="13.3" ry="13.3"/>
      <g id="bridge_26_">
        <line class="st3" x1="255" y1="318.6" x2="75.7" y2="392.9"/>

          <ellipse transform="matrix(0.9239 -0.3827 0.3827 0.9239 -102.5147 121.8342)" class="st4" cx="255" cy="318.6" rx="2.8" ry="2.8"/>

          <ellipse transform="matrix(0.9239 -0.3827 0.3827 0.9239 -144.5992 58.8784)" class="st4" cx="75.7" cy="392.9" rx="2.8" ry="2.8"/>
      </g>
    </g>
    <g id="branche-11">

        <ellipse transform="matrix(0.7071 -0.7071 0.7071 0.7071 -261.5548 243.0855)" class="st7" cx="162.7" cy="437.3" rx="22.5" ry="22.5"/>

        <ellipse transform="matrix(0.7071 -0.7071 0.7071 0.7071 -261.5548 243.0855)" class="st8" cx="162.7" cy="437.3" rx="10" ry="10"/>
      <g id="bridge_24_">
        <line class="st3" x1="265.5" y1="334.5" x2="162.7" y2="437.3"/>
        <path class="st4" d="M263.5,332.5c1.1-1.1,2.9-1.1,4,0c1.1,1.1,1.1,2.8,0,3.9c-1.1,1.1-2.9,1.1-4,0
          C262.4,335.4,262.4,333.6,263.5,332.5z"/>
        <path class="st4" d="M160.7,435.3c1.1-1.1,2.9-1.1,4,0c1.1,1.1,1.1,2.8,0,3.9c-1.1,1.1-2.9,1.1-4,0
          C159.6,438.1,159.6,436.4,160.7,435.3z"/>
      </g>
    </g>
    <g id="branche-10">

        <ellipse transform="matrix(0.3827 -0.9239 0.9239 0.3827 -356.5443 514.9879)" class="st1" cx="207.1" cy="524.3" rx="30" ry="30"/>

        <ellipse transform="matrix(0.3827 -0.9239 0.9239 0.3827 -356.5443 514.9879)" class="st2" cx="207.1" cy="524.3" rx="13.3" ry="13.3"/>
      <g id="bridge_22_">
        <line class="st3" x1="281.3" y1="345.1" x2="207.1" y2="524.3"/>

          <ellipse transform="matrix(0.3827 -0.9239 0.9239 0.3827 -145.1806 472.9355)" class="st4" cx="281.3" cy="345.1" rx="2.8" ry="2.8"/>

          <ellipse transform="matrix(0.3827 -0.9239 0.9239 0.3827 -356.5178 514.9709)" class="st4" cx="207.1" cy="524.3" rx="2.8" ry="2.8"/>
      </g>
    </g>
    <g id="branche-9">
      <circle class="st5" cx="300" cy="494.2" r="22.5"/>
      <circle class="st6" cx="300" cy="494.2" r="10"/>
      <g id="bridge_5_">
        <line class="st3" x1="300" y1="348.9" x2="300" y2="494.2"/>
        <ellipse class="st4" cx="300" cy="348.9" rx="2.8" ry="2.7"/>
        <ellipse class="st4" cx="300" cy="494.2" rx="2.8" ry="2.7"/>
      </g>
    </g>
    <g id="branche-8">

        <ellipse transform="matrix(0.9239 -0.3827 0.3827 0.9239 -170.7383 190.2766)" class="st7" cx="392.9" cy="524.3" rx="30" ry="30"/>

        <ellipse transform="matrix(0.9239 -0.3827 0.3827 0.9239 -170.7383 190.2766)" class="st8" cx="392.9" cy="524.3" rx="13.3" ry="13.3"/>
      <g id="bridge_34_">
        <line class="st3" x1="318.7" y1="345.1" x2="392.9" y2="524.3"/>

          <ellipse transform="matrix(0.9239 -0.3826 0.3826 0.9239 -107.7861 148.1934)" class="st4" cx="318.7" cy="345.1" rx="2.8" ry="2.8"/>

          <ellipse transform="matrix(0.9239 -0.3826 0.3826 0.9239 -170.7077 190.214)" class="st4" cx="392.9" cy="524.3" rx="2.8" ry="2.8"/>
      </g>
    </g>
    <g id="branche-7">

        <ellipse transform="matrix(0.7071 -0.7071 0.7071 0.7071 -181.1765 437.2861)" class="st1" cx="437.3" cy="437.3" rx="22.5" ry="22.5"/>

        <ellipse transform="matrix(0.7071 -0.7071 0.7071 0.7071 -181.1765 437.2861)" class="st2" cx="437.3" cy="437.3" rx="10" ry="10"/>
      <g id="bridge_11_">
        <line class="st3" x1="437.4" y1="437.4" x2="334.5" y2="334.5"/>
        <path class="st4" d="M435.5,435.5c1.1-1,2.8-1,3.9,0c1.1,1,1.1,2.7,0,3.8c-1.1,1-2.8,1-3.9,0
          C434.5,438.2,434.5,436.5,435.5,435.5z"/>
        <path class="st4" d="M332.6,332.6c1.1-1,2.8-1,3.9,0c1.1,1,1.1,2.7,0,3.8c-1.1,1-2.8,1-3.9,0
          C331.5,335.3,331.5,333.6,332.6,332.6z"/>
      </g>
    </g>
    <g id="branche-6">

        <ellipse transform="matrix(0.3827 -0.9239 0.9239 0.3827 -39.3397 726.9474)" class="st5" cx="524.3" cy="392.9" rx="30" ry="30"/>

        <ellipse transform="matrix(0.3827 -0.9239 0.9239 0.3827 -39.3397 726.9474)" class="st6" cx="524.3" cy="392.9" rx="13.3" ry="13.3"/>
      <g id="bridge_30_">
        <line class="st3" x1="345" y1="318.6" x2="524.3" y2="392.9"/>

          <ellipse transform="matrix(0.3827 -0.9239 0.9239 0.3827 -81.4282 515.4276)" class="st4" cx="345" cy="318.6" rx="2.8" ry="2.8"/>

          <ellipse transform="matrix(0.3827 -0.9239 0.9239 0.3827 -39.3282 726.9235)" class="st4" cx="524.3" cy="392.9" rx="2.8" ry="2.8"/>
      </g>
    </g>
    <g id="branche-5">
      <circle class="st7" cx="494.2" cy="300" r="22.5"/>
      <circle class="st8" cx="494.2" cy="300" r="10"/>
      <g id="bridge_12_">
        <line class="st3" x1="494.2" y1="300" x2="348.7" y2="300"/>
        <ellipse class="st4" cx="494.2" cy="300" rx="2.7" ry="2.7"/>
        <ellipse class="st4" cx="348.7" cy="300" rx="2.7" ry="2.7"/>
      </g>
    </g>
    <g id="branche-4">

        <ellipse transform="matrix(0.9239 -0.3827 0.3827 0.9239 -39.3416 216.417)" class="st1" cx="524.3" cy="207.1" rx="30" ry="30"/>

        <ellipse transform="matrix(0.9239 -0.3827 0.3827 0.9239 -39.3416 216.417)" class="st2" cx="524.3" cy="207.1" rx="13.3" ry="13.3"/>
      <g id="bridge_1_">
        <line class="st3" x1="524.3" y1="207.1" x2="345" y2="281.4"/>

          <ellipse transform="matrix(0.9238 -0.3828 0.3828 0.9238 -39.3321 216.4767)" class="st4" cx="524.3" cy="207.1" rx="2.8" ry="2.8"/>

          <ellipse transform="matrix(0.9238 -0.3828 0.3828 0.9238 -81.4292 153.4987)" class="st4" cx="345" cy="281.4" rx="2.8" ry="2.8"/>
      </g>
    </g>
    <g id="branche-3">

        <ellipse transform="matrix(0.7071 -0.7071 0.7071 0.7071 13.0241 356.9079)" class="st5" cx="437.3" cy="162.7" rx="22.5" ry="22.5"/>

        <ellipse transform="matrix(0.7071 -0.7071 0.7071 0.7071 13.0241 356.9079)" class="st6" cx="437.3" cy="162.7" rx="10" ry="10"/>
      <g id="bridge_14_">
        <line class="st3" x1="437.4" y1="162.6" x2="334.3" y2="265.7"/>
        <path class="st4" d="M435.4,160.7c1.1-1,2.8-1,3.9,0s1.1,2.7,0,3.8c-1.1,1-2.8,1-3.9,0S434.3,161.7,435.4,160.7z"/>
        <path class="st4" d="M332.4,263.8c1.1-1,2.8-1,3.9,0s1.1,2.7,0,3.8s-2.8,1-3.9,0S331.3,264.9,332.4,263.8z"/>
      </g>
    </g>
    <g id="branche-2">
      <ellipse transform="matrix(0.3827 -0.9239 0.9239 0.3827 172.6199 409.743)" class="st7" cx="392.9" cy="75.7" rx="30" ry="30"/>

        <ellipse transform="matrix(0.3827 -0.9239 0.9239 0.3827 172.6199 409.743)" class="st8" cx="392.9" cy="75.7" rx="13.3" ry="13.3"/>
      <g id="bridge_7_">
        <line class="st3" x1="392.9" y1="75.7" x2="318.6" y2="255.1"/>

          <ellipse transform="matrix(0.3827 -0.9239 0.9239 0.3827 172.6199 409.7482)" class="st4" cx="392.9" cy="75.7" rx="2.8" ry="2.8"/>

          <ellipse transform="matrix(0.3827 -0.9239 0.9239 0.3827 -39.0264 451.8996)" class="st4" cx="318.6" cy="255.2" rx="2.8" ry="2.8"/>
      </g>
    </g>
    <g id="branche-1">
      <circle class="st1" cx="300" cy="105.8" r="22.5"/>
      <circle class="st2" cx="300" cy="105.8" r="10"/>
      <g id="bridge_3_">
        <line class="st3" x1="300" y1="105.8" x2="300" y2="251.5"/>
        <ellipse class="st4" cx="300" cy="105.8" rx="2.8" ry="2.8"/>
        <ellipse class="st4" cx="300" cy="251.5" rx="2.8" ry="2.8"/>
      </g>
    </g>
  </g>
  <g id="MESG">
    <g id="BG-mesg">
      <path id="Circle-BG" class="st9" d="M300,348.9c-26.8,0-48.7-21.9-48.7-48.7s21.9-48.7,48.7-48.7s48.7,21.9,48.7,48.7
        S326.8,348.9,300,348.9z"/>
      <path id="Circle-outline" class="st2" d="M300,253c26,0,47.3,21.3,47.3,47.3S326,347.6,300,347.6s-47.3-21.3-47.3-47.3
        S274,253,300,253 M300,250c-27.8,0-50,22.5-50,50s22.5,50,50,50s50-22.5,50-50S327.6,250,300,250L300,250z"/>
    </g>
    <g id="Wordmark">
      <path id="M" class="st10" d="M282.4,291.8c-0.3-0.3-0.6-0.4-1-0.4c-0.5,0-0.8,0.2-1.1,0.6l-5.6,8.4l-5.5-8.4
        c-0.1-0.2-0.3-0.3-0.5-0.4s-0.4-0.2-0.7-0.2c-0.4,0-0.7,0.1-1,0.4s-0.4,0.6-0.4,0.9v14.5c0,0.4,0.1,0.7,0.4,1
        c0.2,0.3,0.6,0.4,0.9,0.4c0.4,0,0.7-0.1,1-0.4c0.2-0.3,0.4-0.6,0.4-1v-10.6l4.3,6.7c0.1,0.2,0.3,0.3,0.5,0.4s0.4,0.2,0.6,0.1
        c0.2,0,0.4,0,0.6-0.1s0.4-0.2,0.5-0.4l4.3-6.5v10.4c0,0.4,0.1,0.7,0.4,1s0.6,0.4,1,0.4s0.7-0.1,1-0.4s0.4-0.6,0.4-1v-14.5
        C282.8,292.4,282.7,292,282.4,291.8L282.4,291.8z"/>
      <path id="E" class="st10" d="M297.9,294c0.4,0,0.7-0.1,1-0.4c0.3-0.2,0.4-0.6,0.4-0.9c0-0.4-0.1-0.7-0.4-1
        c-0.3-0.2-0.6-0.4-1-0.4h-8.3c-0.4,0-0.7,0.1-1,0.4s-0.4,0.6-0.4,1v14.5c0,0.4,0.1,0.7,0.4,1s0.6,0.4,1,0.4h8.3
        c0.4,0,0.7-0.1,1-0.4c0.3-0.2,0.4-0.6,0.4-0.9c0-0.4-0.1-0.7-0.4-0.9l0,0c-0.3-0.3-0.6-0.4-1-0.4H291v-4.9h5.8
        c0.4,0,0.7-0.1,1-0.3c0.3-0.2,0.4-0.6,0.4-0.9c0-0.4-0.1-0.7-0.4-0.9c-0.3-0.2-0.6-0.4-1-0.4H291V294H297.9z"/>
      <path id="S" class="st10" d="M312.4,299.6c-0.8-0.4-1.8-0.7-3.1-1c-1.2-0.3-2.1-0.6-2.8-1c-0.6-0.4-0.9-0.9-0.9-1.6
        s0.3-1.2,0.9-1.6s1.4-0.6,2.4-0.6c0.6,0,1.3,0.1,2,0.4s1.3,0.6,1.7,1c0.2,0.2,0.4,0.2,0.7,0.2c0.4,0,0.7-0.1,0.9-0.4
        c0.3-0.3,0.4-0.6,0.4-0.9c0-0.4-0.2-0.8-0.6-1.2c-0.6-0.5-1.3-1-2.2-1.3c-0.9-0.3-1.9-0.5-2.9-0.5c-1.1,0-2.2,0.2-3.1,0.6
        s-1.6,1-2.1,1.7s-0.8,1.6-0.8,2.6c0,1.4,0.5,2.5,1.4,3.3s2.2,1.4,3.9,1.7c1.4,0.3,2.4,0.7,3,1.1s0.9,1,1,1.8c0,0.6-0.3,1.2-1,1.6
        s-1.5,0.7-2.4,0.7c-0.8,0-1.6-0.1-2.2-0.4c-0.7-0.3-1.3-0.7-1.9-1.3c-0.2-0.2-0.5-0.3-0.8-0.3c-0.4,0-0.7,0.1-0.9,0.4
        c-0.3,0.3-0.4,0.6-0.4,0.9c0,0.4,0.2,0.8,0.6,1.1c0.8,0.8,1.7,1.3,2.6,1.6l0,0c0.9,0.3,2,0.5,3.2,0.5c1.1,0,2.1-0.2,3-0.6
        s1.7-1,2.2-1.7c0.5-0.8,0.8-1.6,0.8-2.6c0-1.1-0.2-2-0.7-2.7C313.9,300.5,313.2,300,312.4,299.6z"/>
      <path id="G" class="st10" d="M332.9,299.8L332.9,299.8c-0.3-0.3-0.6-0.4-1-0.4h-4.2c-0.4,0-0.7,0.1-1,0.4s-0.4,0.6-0.4,1
        s0.1,0.7,0.4,1s0.6,0.4,1,0.4h2.7v3.5c-0.4,0.2-0.9,0.3-1.4,0.4c-0.6,0.1-1.1,0.2-1.7,0.2c-1.1,0-2.1-0.3-3-0.8s-1.6-1.3-2.2-2.2
        c-0.5-0.9-0.8-2-0.8-3.1s0.3-2.2,0.8-3.1s1.3-1.7,2.2-2.2c0.9-0.5,1.9-0.8,3-0.8c1,0,2.1,0.2,3.1,0.7c0.2,0.1,0.4,0.2,0.7,0.2
        c0.4,0,0.7-0.1,0.9-0.4c0.3-0.3,0.4-0.6,0.4-1c0-0.2-0.1-0.4-0.2-0.6s-0.3-0.4-0.5-0.5c-0.6-0.4-1.3-0.6-2.1-0.8
        c-0.8-0.2-1.6-0.3-2.4-0.3c-1.6,0-3.1,0.4-4.5,1.2c-1.4,0.8-2.4,1.9-3.2,3.2c-0.8,1.3-1.2,2.8-1.2,4.5s0.4,3.1,1.2,4.5
        c0.8,1.3,1.9,2.4,3.2,3.2c1.4,0.8,2.9,1.2,4.5,1.2c0.9,0,1.9-0.1,2.8-0.4s1.7-0.7,2.5-1.1c0.4-0.3,0.7-0.7,0.7-1.2v-5.4
        C333.3,300.3,333.2,300,332.9,299.8z"/>
    </g>
  </g>
  <g id="Branches-2">
    <g id="branche-32">

        <ellipse transform="matrix(0.5556 -0.8315 0.8315 0.5556 -253.5687 369.2382)" class="st1" cx="218.6" cy="421.8" rx="13.5" ry="13.5"/>

        <ellipse transform="matrix(0.5556 -0.8315 0.8315 0.5556 -253.5687 369.2382)" class="st2" cx="218.6" cy="421.8" rx="6" ry="6"/>
      <g id="bridge_62_">
        <line class="st3" x1="218.6" y1="421.8" x2="272.9" y2="340.6"/>

          <ellipse transform="matrix(0.5557 -0.8314 0.8314 0.5557 -253.5833 369.1681)" class="st4" cx="218.6" cy="421.8" rx="2.8" ry="2.8"/>

          <ellipse transform="matrix(0.5557 -0.8314 0.8314 0.5557 -161.9237 378.2238)" class="st4" cx="272.9" cy="340.6" rx="2.8" ry="2.8"/>
      </g>
    </g>
    <g id="branche-31">

        <ellipse transform="matrix(0.8315 -0.5556 0.5556 0.8315 -162.575 179.0923)" class="st5" cx="213.9" cy="357.5" rx="13.5" ry="13.5"/>
      <ellipse transform="matrix(0.8315 -0.5556 0.5556 0.8315 -162.575 179.0923)" class="st6" cx="213.9" cy="357.5" rx="6" ry="6"/>
      <g id="bridge_60_">
        <line class="st3" x1="259.5" y1="327.1" x2="213.9" y2="357.5"/>

          <ellipse transform="matrix(0.8315 -0.5555 0.5555 0.8315 -137.9625 199.2572)" class="st4" cx="259.5" cy="327.1" rx="2.8" ry="2.8"/>

          <ellipse transform="matrix(0.8315 -0.5555 0.5555 0.8315 -162.5509 179.0482)" class="st4" cx="213.9" cy="357.5" rx="2.8" ry="2.8"/>
      </g>
    </g>
    <g id="branche-30">

        <ellipse transform="matrix(0.9808 -0.1951 0.1951 0.9808 -61.1064 36.81)" class="st7" cx="156.3" cy="328.6" rx="13.5" ry="13.5"/>
      <ellipse transform="matrix(0.9808 -0.1951 0.1951 0.9808 -61.1064 36.81)" class="st8" cx="156.3" cy="328.6" rx="6" ry="6"/>
      <g id="bridge_58_">
        <line class="st3" x1="156.3" y1="328.6" x2="252.2" y2="309.5"/>

          <ellipse transform="matrix(0.9808 -0.1951 0.1951 0.9808 -61.1072 36.8092)" class="st4" cx="156.3" cy="328.6" rx="2.8" ry="2.8"/>

          <ellipse transform="matrix(0.9808 -0.1951 0.1951 0.9808 -55.5367 55.1509)" class="st4" cx="252.2" cy="309.5" rx="2.8" ry="2.8"/>
      </g>
    </g>
    <g id="branche-29">

        <ellipse transform="matrix(0.1951 -0.9808 0.9808 0.1951 -114.7373 419.8727)" class="st1" cx="198.4" cy="279.8" rx="13.5" ry="13.5"/>

        <ellipse transform="matrix(0.1951 -0.9808 0.9808 0.1951 -114.7373 419.8727)" class="st2" cx="198.4" cy="279.8" rx="6" ry="6"/>
      <g id="bridge_56_">
        <line class="st3" x1="252.2" y1="290.5" x2="198.4" y2="279.8"/>

          <ellipse transform="matrix(0.1952 -0.9808 0.9808 0.1952 -81.9399 481.207)" class="st4" cx="252.2" cy="290.5" rx="2.8" ry="2.8"/>

          <ellipse transform="matrix(0.1952 -0.9808 0.9808 0.1952 -114.7468 419.8522)" class="st4" cx="198.4" cy="279.8" rx="2.8" ry="2.8"/>
      </g>
    </g>
    <g id="branche-28">

        <ellipse transform="matrix(0.5556 -0.8315 0.8315 0.5556 -102.5612 245.3172)" class="st5" cx="178.2" cy="218.6" rx="13.5" ry="13.5"/>

        <ellipse transform="matrix(0.5556 -0.8315 0.8315 0.5556 -102.5612 245.3172)" class="st6" cx="178.2" cy="218.6" rx="6" ry="6"/>
      <g id="bridge_54_">
        <line class="st3" x1="259.6" y1="273" x2="178.2" y2="218.6"/>

          <ellipse transform="matrix(0.5555 -0.8315 0.8315 0.5555 -111.6146 337.21)" class="st4" cx="259.6" cy="273" rx="2.8" ry="2.8"/>

          <ellipse transform="matrix(0.5555 -0.8315 0.8315 0.5555 -102.5705 245.3305)" class="st4" cx="178.2" cy="218.6" rx="2.8" ry="2.8"/>
      </g>
    </g>
    <g id="branche-27">

        <ellipse transform="matrix(0.8315 -0.5556 0.5556 0.8315 -77.9585 170.7782)" class="st7" cx="242.5" cy="213.9" rx="13.5" ry="13.5"/>
      <ellipse transform="matrix(0.8315 -0.5556 0.5556 0.8315 -77.9585 170.7782)" class="st8" cx="242.5" cy="213.9" rx="6" ry="6"/>
      <g id="bridge_52_">
        <line class="st3" x1="273" y1="259.6" x2="242.5" y2="213.9"/>

          <ellipse transform="matrix(0.8314 -0.5557 0.5557 0.8314 -98.2269 195.4775)" class="st4" cx="273" cy="259.6" rx="2.8" ry="2.8"/>

          <ellipse transform="matrix(0.8314 -0.5557 0.5557 0.8314 -77.9579 170.8167)" class="st4" cx="242.5" cy="213.9" rx="2.8" ry="2.8"/>
      </g>
    </g>
    <g id="branche-26">

        <ellipse transform="matrix(0.9808 -0.1951 0.1951 0.9808 -25.2791 55.9533)" class="st1" cx="271.4" cy="156.3" rx="13.5" ry="13.5"/>
      <ellipse transform="matrix(0.9808 -0.1951 0.1951 0.9808 -25.2791 55.9533)" class="st2" cx="271.4" cy="156.3" rx="6" ry="6"/>
      <g id="bridge_50_">
        <line class="st3" x1="290.5" y1="252.4" x2="271.4" y2="156.3"/>

          <ellipse transform="matrix(0.9808 -0.1951 0.1951 0.9808 -43.6585 61.5297)" class="st4" cx="290.5" cy="252.4" rx="2.8" ry="2.8"/>

          <ellipse transform="matrix(0.9808 -0.1951 0.1951 0.9808 -25.2772 55.9537)" class="st4" cx="271.4" cy="156.3" rx="2.8" ry="2.8"/>
      </g>
    </g>
    <g id="branche-25">

        <ellipse transform="matrix(0.1951 -0.9808 0.9808 0.1951 63.0825 473.7318)" class="st5" cx="320.2" cy="198.4" rx="13.5" ry="13.5"/>
      <ellipse transform="matrix(0.1951 -0.9808 0.9808 0.1951 63.0825 473.7318)" class="st6" cx="320.2" cy="198.4" rx="6" ry="6"/>
      <g id="bridge_48_">
        <line class="st3" x1="309.5" y1="252.3" x2="320.2" y2="198.4"/>

          <ellipse transform="matrix(0.1951 -0.9808 0.9808 0.1951 1.605 506.5922)" class="st4" cx="309.4" cy="252.3" rx="2.8" ry="2.8"/>

          <ellipse transform="matrix(0.1951 -0.9808 0.9808 0.1951 63.0846 473.7375)" class="st4" cx="320.2" cy="198.4" rx="2.8" ry="2.8"/>
      </g>
    </g>
    <g id="branche-24">

        <ellipse transform="matrix(0.5556 -0.8315 0.8315 0.5556 21.3599 396.3247)" class="st7" cx="381.4" cy="178.2" rx="13.5" ry="13.5"/>
      <ellipse transform="matrix(0.5556 -0.8315 0.8315 0.5556 21.3599 396.3247)" class="st8" cx="381.4" cy="178.2" rx="6" ry="6"/>
      <g id="bridge_46_">
        <line class="st3" x1="327" y1="259.6" x2="381.4" y2="178.2"/>

          <ellipse transform="matrix(0.5555 -0.8315 0.8315 0.5555 -70.5145 387.268)" class="st4" cx="327" cy="259.6" rx="2.8" ry="2.8"/>

          <ellipse transform="matrix(0.5555 -0.8315 0.8315 0.5555 21.3664 396.3309)" class="st4" cx="381.4" cy="178.2" rx="2.8" ry="2.8"/>
      </g>
    </g>
    <g id="branche-23">

        <ellipse transform="matrix(0.8315 -0.5556 0.5556 0.8315 -69.6444 255.3948)" class="st1" cx="386.1" cy="242.5" rx="13.5" ry="13.5"/>
      <ellipse transform="matrix(0.8315 -0.5556 0.5556 0.8315 -69.6444 255.3948)" class="st2" cx="386.1" cy="242.5" rx="6" ry="6"/>
      <g id="bridge_44_">
        <line class="st3" x1="386.1" y1="242.5" x2="340.4" y2="273"/>

          <ellipse transform="matrix(0.8315 -0.5556 0.5556 0.8315 -69.6485 255.3976)" class="st4" cx="386.1" cy="242.5" rx="2.8" ry="2.8"/>

          <ellipse transform="matrix(0.8315 -0.5556 0.5556 0.8315 -94.31 235.1524)" class="st4" cx="340.4" cy="273" rx="2.8" ry="2.8"/>
      </g>
    </g>
    <g id="branche-22">

        <ellipse transform="matrix(0.9808 -0.1951 0.1951 0.9808 -44.4224 91.7806)" class="st5" cx="443.7" cy="271.4" rx="13.5" ry="13.5"/>
      <ellipse transform="matrix(0.9808 -0.1951 0.1951 0.9808 -44.4224 91.7806)" class="st6" cx="443.7" cy="271.4" rx="6" ry="6"/>
      <g id="bridge_42_">
        <line class="st3" x1="347.7" y1="290.5" x2="443.7" y2="271.4"/>

          <ellipse transform="matrix(0.9808 -0.1951 0.1951 0.9808 -49.9957 73.4194)" class="st4" cx="347.7" cy="290.5" rx="2.8" ry="2.8"/>

          <ellipse transform="matrix(0.9808 -0.1951 0.1951 0.9808 -44.4219 91.7807)" class="st4" cx="443.7" cy="271.4" rx="2.8" ry="2.8"/>
      </g>
    </g>
    <g id="branche-21">

        <ellipse transform="matrix(0.1951 -0.9808 0.9808 0.1951 9.2236 651.5518)" class="st7" cx="401.6" cy="320.2" rx="13.5" ry="13.5"/>
      <ellipse transform="matrix(0.1951 -0.9808 0.9808 0.1951 9.2236 651.5518)" class="st8" cx="401.6" cy="320.2" rx="6" ry="6"/>
      <g id="bridge_40_">
        <line class="st3" x1="401.6" y1="320.2" x2="347.8" y2="309.5"/>

          <ellipse transform="matrix(0.1951 -0.9808 0.9808 0.1951 9.2228 651.545)" class="st4" cx="401.6" cy="320.2" rx="2.8" ry="2.8"/>

          <ellipse transform="matrix(0.1951 -0.9808 0.9808 0.1951 -23.6188 590.2552)" class="st4" cx="347.8" cy="309.5" rx="2.8" ry="2.8"/>
      </g>
    </g>
    <g id="branche-20">

        <ellipse transform="matrix(0.5556 -0.8315 0.8315 0.5556 -129.6476 520.2457)" class="st1" cx="421.8" cy="381.4" rx="13.5" ry="13.5"/>

        <ellipse transform="matrix(0.5556 -0.8315 0.8315 0.5556 -129.6476 520.2457)" class="st2" cx="421.8" cy="381.4" rx="6" ry="6"/>
      <g id="bridge_64_">
        <line class="st3" x1="421.8" y1="381.4" x2="340.6" y2="327.1"/>

          <ellipse transform="matrix(0.5556 -0.8314 0.8314 0.5556 -129.6759 520.1735)" class="st4" cx="421.8" cy="381.4" rx="2.8" ry="2.8"/>

          <ellipse transform="matrix(0.5556 -0.8314 0.8314 0.5556 -120.5943 428.5005)" class="st4" cx="340.6" cy="327.1" rx="2.8" ry="2.8"/>
      </g>
    </g>
    <g id="branche-19">

        <ellipse transform="matrix(0.8315 -0.5556 0.5556 0.8315 -154.261 263.7088)" class="st5" cx="357.5" cy="386.1" rx="13.5" ry="13.5"/>
      <ellipse transform="matrix(0.8315 -0.5556 0.5556 0.8315 -154.261 263.7088)" class="st6" cx="357.5" cy="386.1" rx="6" ry="6"/>
      <g id="bridge_38_">
        <line class="st3" x1="357.5" y1="386.1" x2="327.1" y2="340.6"/>

          <ellipse transform="matrix(0.8315 -0.5556 0.5556 0.8315 -154.2587 263.7078)" class="st4" cx="357.5" cy="386.1" rx="2.8" ry="2.8"/>

          <ellipse transform="matrix(0.8315 -0.5556 0.5556 0.8315 -134.1022 239.149)" class="st4" cx="327.1" cy="340.6" rx="2.8" ry="2.8"/>
      </g>
    </g>
    <g id="branche-18">

        <ellipse transform="matrix(0.9808 -0.1951 0.1951 0.9808 -80.2497 72.6373)" class="st7" cx="328.6" cy="443.7" rx="13.5" ry="13.5"/>
      <ellipse transform="matrix(0.9808 -0.1951 0.1951 0.9808 -80.2497 72.6373)" class="st8" cx="328.6" cy="443.7" rx="6" ry="6"/>
      <g id="bridge_36_">
        <line class="st3" x1="328.6" y1="443.7" x2="309.5" y2="347.9"/>

          <ellipse transform="matrix(0.9808 -0.1952 0.1952 0.9808 -80.2844 72.6813)" class="st4" cx="328.6" cy="443.7" rx="2.8" ry="2.8"/>

          <ellipse transform="matrix(0.9808 -0.1952 0.1952 0.9808 -61.9547 67.1073)" class="st4" cx="309.5" cy="347.9" rx="2.8" ry="2.8"/>
      </g>
    </g>
    <g id="branche-17">

        <ellipse transform="matrix(0.1951 -0.9808 0.9808 0.1951 -168.5964 597.6924)" class="st1" cx="279.8" cy="401.6" rx="13.5" ry="13.5"/>

        <ellipse transform="matrix(0.1951 -0.9808 0.9808 0.1951 -168.5964 597.6924)" class="st2" cx="279.8" cy="401.6" rx="6" ry="6"/>
      <g id="bridge_8_">
        <line class="st3" x1="279.8" y1="401.6" x2="290.5" y2="347.9"/>

          <ellipse transform="matrix(0.1952 -0.9808 0.9808 0.1952 -168.6075 597.64)" class="st4" cx="279.8" cy="401.6" rx="2.8" ry="2.8"/>

          <ellipse transform="matrix(0.1952 -0.9808 0.9808 0.1952 -107.4449 564.846)" class="st4" cx="290.4" cy="347.9" rx="2.8" ry="2.8"/>
      </g>
    </g>
  </g>
  <g id="Details">
    <g id="Technology">
      <circle class="st2" cx="524.4" cy="538.6" r="6.5"/>
      <text transform="matrix(1 0 0 1 536.0078 541.7788)" class="st10 st12">Technology</text>
    </g>
    <g id="Functionality">
      <circle class="st8" cx="524.4" cy="561.1" r="6.5"/>
      <text transform="matrix(1 0 0 1 536.0078 564.3045)" class="st10 st12">Functionality</text>
    </g>
    <g id="Business">
      <circle class="st6" cx="524.4" cy="583.7" r="6.5"/>
      <text transform="matrix(1 0 0 1 536.0078 586.8513)" class="st10 st12">Business</text>
    </g>
  </g>
</g>
</svg>
