<svg version="1.1" id="Schema-HMW" xmlns="http://www.w3.org/2000/svg" xmlns:xlink="http://www.w3.org/1999/xlink" x="0px" y="0px"
    viewBox="0 0 600 448" style="enable-background:new 0 0 600 448;" xml:space="preserve">
<style type="text/css">
.st0{opacity:0.12;fill:#9452FF;}
.st1{fill:none;stroke:#FFA744;stroke-linecap:round;stroke-linejoin:round;stroke-miterlimit:10;stroke-dasharray:1,4;}
.st2{fill:#251440;}
.st3{fill:#9452FF;}
.st4{fill:#FFFFFF;}
.st5{opacity:0.8;fill:#513FE8;}
.st6{fill:#513FE8;}
.st7{fill:none;stroke:#FFA744;stroke-width:2;stroke-miterlimit:10;}
.st8{fill:#FFFFFF;stroke:#FFA744;stroke-width:2;stroke-miterlimit:10;}
.st9{font-family:'Quicksand-Regular';font-size:10px;}
.st11{fill:none;stroke:#513FE8;stroke-linecap:round;stroke-linejoin:round;}
.st12{fill:#FFFFFF;stroke:#513FE8;stroke-linecap:round;stroke-linejoin:round;}
.st13{opacity:0.8;fill:#AE3FE8;}
.st14{fill:#AE3FE8;}
.st15{fill:none;stroke:#AE3FE8;stroke-linecap:round;stroke-linejoin:round;stroke-miterlimit:10;}
.st16{fill:#FFFFFF;stroke:#AE3FE8;stroke-linecap:round;stroke-linejoin:round;stroke-miterlimit:10;}
</style>
<g id="Background">
  <circle id="Circle-5" class="st0" cx="299.9" cy="224" r="223.6"/>
  <circle id="Circle-4" class="st0" cx="299.9" cy="224" r="166.9"/>
  <circle id="Circle-3" class="st0" cx="299.9" cy="224" r="124.7"/>
  <circle id="Circle-2" class="st0" cx="299.9" cy="224" r="93.1"/>
  <circle id="Circle-1" class="st0" cx="299.9" cy="224" r="69.5"/>
  <circle id="Outline" class="st1" cx="300" cy="224" r="223.3"/>
</g>
<g id="MESG">
  <g id="BG-mesg">
    <path id="Circle-BG" class="st2" d="M299.9,272.9c-26.8,0-48.7-21.9-48.7-48.7s21.9-48.7,48.7-48.7s48.7,21.9,48.7,48.7
      S326.8,272.9,299.9,272.9z"/>
    <path id="Circle-outline" class="st3" d="M299.9,177c26,0,47.3,21.3,47.3,47.3s-21.3,47.3-47.3,47.3s-47.3-21.3-47.3-47.3
      S273.9,177,299.9,177 M299.9,174c-27.8,0-50,22.5-50,50s22.5,50,50,50s50-22.5,50-50S327.5,174,299.9,174L299.9,174z"/>
  </g>
  <g id="Wordmark">
    <path id="M" class="st4" d="M282.5,215.6c-0.3-0.3-0.6-0.4-1-0.4c-0.5,0-0.8,0.2-1.1,0.6l-5.6,8.4l-5.5-8.4
      c-0.1-0.2-0.3-0.3-0.5-0.4s-0.4-0.2-0.7-0.2c-0.4,0-0.7,0.1-1,0.4s-0.4,0.6-0.4,0.9V231c0,0.4,0.1,0.7,0.4,1
      c0.2,0.3,0.6,0.4,0.9,0.4c0.4,0,0.7-0.1,1-0.4c0.2-0.3,0.4-0.6,0.4-1v-10.6l4.3,6.7c0.1,0.2,0.3,0.3,0.5,0.4s0.4,0.2,0.6,0.1
      c0.2,0,0.4,0,0.6-0.1s0.4-0.2,0.5-0.4l4.3-6.5V231c0,0.4,0.1,0.7,0.4,1s0.6,0.4,1,0.4s0.7-0.1,1-0.4s0.4-0.6,0.4-1v-14.5
      C282.9,216.2,282.8,215.8,282.5,215.6L282.5,215.6z"/>
    <path id="E" class="st4" d="M298,217.8c0.4,0,0.7-0.1,1-0.4c0.3-0.2,0.4-0.6,0.4-0.9c0-0.4-0.1-0.7-0.4-1c-0.3-0.2-0.6-0.4-1-0.4
      h-8.3c-0.4,0-0.7,0.1-1,0.4s-0.4,0.6-0.4,1V231c0,0.4,0.1,0.7,0.4,1s0.6,0.4,1,0.4h8.3c0.4,0,0.7-0.1,1-0.4
      c0.3-0.2,0.4-0.6,0.4-0.9c0-0.4-0.1-0.7-0.4-0.9l0,0c-0.3-0.3-0.6-0.4-1-0.4h-6.9v-4.9h5.8c0.4,0,0.7-0.1,1-0.3s0.4-0.6,0.4-0.9
      c0-0.4-0.1-0.7-0.4-0.9s-0.6-0.4-1-0.4h-5.8v-4.6L298,217.8L298,217.8z"/>
    <path id="S" class="st4" d="M312.5,223.4c-0.8-0.4-1.8-0.7-3.1-1c-1.2-0.3-2.1-0.6-2.8-1c-0.6-0.4-0.9-0.9-0.9-1.6
      s0.3-1.2,0.9-1.6s1.4-0.6,2.4-0.6c0.6,0,1.3,0.1,2,0.4s1.3,0.6,1.7,1c0.2,0.2,0.4,0.2,0.7,0.2c0.4,0,0.7-0.1,0.9-0.4
      c0.3-0.3,0.4-0.6,0.4-0.9c0-0.4-0.2-0.8-0.6-1.2c-0.6-0.5-1.3-1-2.2-1.3c-0.9-0.3-1.9-0.5-2.9-0.5c-1.1,0-2.2,0.2-3.1,0.6
      s-1.6,1-2.1,1.7s-0.8,1.6-0.8,2.6c0,1.4,0.5,2.5,1.4,3.3s2.2,1.4,3.9,1.7c1.4,0.3,2.4,0.7,3,1.1s0.9,1,1,1.8c0,0.6-0.3,1.2-1,1.6
      s-1.5,0.7-2.4,0.7c-0.8,0-1.6-0.1-2.2-0.4c-0.7-0.3-1.3-0.7-1.9-1.3c-0.2-0.2-0.5-0.3-0.8-0.3c-0.4,0-0.7,0.1-0.9,0.4
      c-0.3,0.3-0.4,0.6-0.4,0.9c0,0.4,0.2,0.8,0.6,1.1c0.8,0.8,1.7,1.3,2.6,1.6l0,0c0.9,0.3,2,0.5,3.2,0.5c1.1,0,2.1-0.2,3-0.6
      s1.7-1,2.2-1.7c0.5-0.8,0.8-1.6,0.8-2.6c0-1.1-0.2-2-0.7-2.7C314,224.3,313.3,223.8,312.5,223.4z"/>
    <path id="G" class="st4" d="M333,223.6L333,223.6c-0.3-0.3-0.6-0.4-1-0.4h-4.2c-0.4,0-0.7,0.1-1,0.4s-0.4,0.6-0.4,1s0.1,0.7,0.4,1
      s0.6,0.4,1,0.4h2.7v3.5c-0.4,0.2-0.9,0.3-1.4,0.4c-0.6,0.1-1.1,0.2-1.7,0.2c-1.1,0-2.1-0.3-3-0.8s-1.6-1.3-2.2-2.2
      c-0.5-0.9-0.8-2-0.8-3.1s0.3-2.2,0.8-3.1s1.3-1.7,2.2-2.2c0.9-0.5,1.9-0.8,3-0.8c1,0,2.1,0.2,3.1,0.7c0.2,0.1,0.4,0.2,0.7,0.2
      c0.4,0,0.7-0.1,0.9-0.4c0.3-0.3,0.4-0.6,0.4-1c0-0.2-0.1-0.4-0.2-0.6s-0.3-0.4-0.5-0.5c-0.6-0.4-1.3-0.6-2.1-0.8
      c-0.8-0.2-1.6-0.3-2.4-0.3c-1.6,0-3.1,0.4-4.5,1.2s-2.4,1.9-3.2,3.2c-0.8,1.3-1.2,2.8-1.2,4.5s0.4,3.1,1.2,4.5
      c0.8,1.3,1.9,2.4,3.2,3.2c1.4,0.8,2.9,1.2,4.5,1.2c0.9,0,1.9-0.1,2.8-0.4s1.7-0.7,2.5-1.1c0.4-0.3,0.7-0.7,0.7-1.2V225
      C333.4,224.1,333.3,223.8,333,223.6z"/>
  </g>
</g>
<g id="B-left">
  <circle class="st5" cx="76.4" cy="224" r="76.4"/>
  <circle class="st6" cx="76.4" cy="224" r="33.8"/>
  <g id="bridge_28_">
    <line class="st7" x1="251.2" y1="224" x2="76.4" y2="224"/>
    <circle class="st8" cx="251.2" cy="224" r="5.6"/>
    <circle class="st8" cx="76.4" cy="224" r="5.6"/>
  </g>
  <g id="Business">
    <circle class="st6" cx="76.4" cy="320.5" r="6.5"/>
    <text transform="matrix(1 0 0 1 56.2949 359.3935)" class="st4 st9">Business</text>
    <g>
      <line class="st11" x1="76.4" y1="320.9" x2="76.4" y2="345.6"/>
      <circle class="st12" cx="76.4" cy="345.4" r="2.8"/>
    </g>
  </g>
</g>
<g id="F-right">
  <circle class="st13" cx="523.5" cy="224" r="76.5"/>
  <circle class="st14" cx="523.5" cy="224" r="33.9"/>
  <g id="bridge_12_">
    <line class="st7" x1="523.5" y1="224" x2="348.7" y2="224"/>
    <circle class="st8" cx="523.5" cy="224" r="5.6"/>
    <circle class="st8" cx="348.7" cy="224" r="5.6"/>
  </g>
  <g id="Functionality">
    <circle class="st14" cx="523.5" cy="320.5" r="6.5"/>
    <text transform="matrix(1 0 0 1 493.7847 359.3935)" class="st4 st9">Functionality</text>
    <g>
      <line class="st15" x1="523.5" y1="320.9" x2="523.5" y2="345.6"/>
      <circle class="st16" cx="523.5" cy="345.4" r="2.8"/>
    </g>
  </g>
</g>
</svg>
