<svg version="1.1" id="Schema-HMW-3" xmlns="http://www.w3.org/2000/svg" xmlns:xlink="http://www.w3.org/1999/xlink" x="0px"
    y="0px" viewBox="0 0 600 494" style="enable-background:new 0 0 600 494;" xml:space="preserve">
<style type="text/css">
.st1{opacity:0.12;clip-path:url(#Mdev3);fill:#FFA744;}
.st2{opacity:0.12;clip-path:url(#Mdev2);fill:#AE3FE8;}
.st3{opacity:0.12;clip-path:url(#Mdev1);fill:#513FE8;}
.st4{opacity:0.8;fill:#513FE8;}
.st5{fill:#513FE8;}
.st6{opacity:0.8;fill:#AE3FE8;}
.st7{fill:#AE3FE8;}
.st8{fill:none;stroke:#FFA744;stroke-linecap:round;stroke-linejoin:round;stroke-miterlimit:10;stroke-dasharray:0.9938,3.9753;}
.st9{fill:none;stroke:#FFA744;stroke-linecap:round;stroke-linejoin:round;stroke-miterlimit:10;stroke-dasharray:0.9923,3.9691;}
.st10{fill:#251440;}
.st11{fill:#9452FF;}
.st12{fill:#FFFFFF;}
.st13{fill:#EACAB3;}
.st14{fill:#4D2F15;}
.st15{fill:#491D8C;}
.st16{fill:#F1F2F2;}
.st17{opacity:0.2;clip-path:url(#Mask-T1);fill:#9452FF;}
.st18{fill:#221101;}
.st19{opacity:0.2;clip-path:url(#Mask-T2);fill:#9452FF;}
.st20{fill:none;stroke:#FFA744;stroke-linecap:round;stroke-linejoin:round;stroke-miterlimit:10;stroke-dasharray:1.0023,4.0092;}
.st21{fill:#FFA744;}
.st22{opacity:0.2;clip-path:url(#Mask-T3);fill:#9452FF;}
.st23{fill:none;stroke:#FFA744;stroke-width:2;stroke-miterlimit:10;}
.st24{fill:#FFFFFF;stroke:#FFA744;stroke-width:2;stroke-miterlimit:10;}
</style>
<g id="Backgrounds">
  <g id="Background-dev3">
    <defs>
      <path id="Mask-dev3" d="M523.6,224c0,123.5-100.1,223.6-223.6,223.6S76.4,347.5,76.4,224
        C76.4,224,523.6,223.3,523.6,224z"/>
    </defs>
    <clipPath id="Mdev3">
      <use xlink:href="#Mask-dev3"  style="overflow:visible;"/>
    </clipPath>
    <path id="Circle-5_1_" class="st1" d="M299.9,224c123.5,0,223.6-123.5,223.6,0S423.4,447.5,299.9,447.5S76.4,347.5,76.4,224
      S176.4,224,299.9,224z"/>
    <path id="Circle-4_2_" class="st1" d="M299.9,224c92.2,0,166.9-92.2,166.9,0s-74.7,166.9-166.9,166.9S133,316.2,133,224
      S207.7,224,299.9,224z"/>
    <path id="Circle-3_1_" class="st1" d="M299.9,224c68.9,0,124.7-68.9,124.7,0s-55.8,124.7-124.7,124.7S175.2,292.8,175.2,224
      S231.1,224,299.9,224z"/>
    <path id="Circle-2_1_" class="st1" d="M299.9,224c51.4,0,93.1-51.4,93.1,0s-41.7,93.1-93.1,93.1s-93.1-41.7-93.1-93.1
      S248.5,224,299.9,224z"/>
    <path id="Circle-1_1_" class="st1" d="M299.9,224c38.4,0,69.5-38.5,69.5,0s-31.1,69.5-69.5,69.5s-69.5-31.1-69.5-69.5
      S261.5,224,299.9,224z"/>
  </g>
  <g id="Background-dev2">
    <defs>
      <circle id="Mask-dev2" cx="412.1" cy="224" r="111.3"/>
    </defs>
    <clipPath id="Mdev2">
      <use xlink:href="#Mask-dev2"  style="overflow:visible;"/>
    </clipPath>
    <path id="Circle-5" class="st2" d="M525,0.2c123.5,0-0.8,100.1-0.8,223.6s124.3,223.6,0.8,223.6S301.4,347.2,301.4,223.7
      S401.5,0.2,525,0.2z"/>
    <path id="Circle-4" class="st2" d="M525,56.8c92.2,0-0.8,74.7-0.8,166.9s93,166.9,0.8,166.9s-166.9-74.7-166.9-166.9
      S432.8,56.8,525,56.8z"/>
    <path id="Circle-3" class="st2" d="M525,99c68.9,0-0.8,55.8-0.8,124.7s69.7,124.7,0.8,124.7s-124.7-55.8-124.7-124.7
      S456.1,99,525,99z"/>
    <path id="Circle-2" class="st2" d="M525,130.6c51.4,0-0.8,41.7-0.8,93.1s52.2,93.1,0.8,93.1s-93.1-41.7-93.1-93.1
      S473.5,130.6,525,130.6z"/>
    <path id="Circle-1" class="st2" d="M525,154.2c38.4,0-0.8,31.1-0.8,69.5s39.2,69.5,0.8,69.5s-69.5-31.1-69.5-69.5
      S486.6,154.2,525,154.2z"/>
  </g>
  <g id="Background-dev1">
    <defs>
      <circle id="Mask-dev1" cx="187.9" cy="224" r="111.3"/>
    </defs>
    <clipPath id="Mdev1">
      <use xlink:href="#Mask-dev1"  style="overflow:visible;"/>
    </clipPath>
    <path id="Circle-5_2_" class="st3" d="M299.1,223.7c0,123.5-100.1,223.6-223.6,223.6s0.8-100.1,0.8-223.6S-48,0.2,75.5,0.2
      S299.1,100.3,299.1,223.7z"/>
    <path id="Circle-4_3_" class="st3" d="M242.4,223.7c0,92.2-74.7,166.9-166.9,166.9s0.8-74.7,0.8-166.9s-93-166.9-0.8-166.9
      S242.4,131.6,242.4,223.7z"/>
    <path id="Circle-3_2_" class="st3" d="M200.2,223.7c0,68.9-55.8,124.7-124.7,124.7s0.8-55.8,0.8-124.7S6.6,99,75.5,99
      S200.2,154.9,200.2,223.7z"/>
    <path id="Circle-2_2_" class="st3" d="M168.7,223.7c0,51.4-41.7,93.1-93.1,93.1s0.8-41.7,0.8-93.1s-52.2-93.1-0.8-93.1
      S168.7,172.3,168.7,223.7z"/>
    <path id="Circle-1_2_" class="st3" d="M145,223.7c0,38.4-31.1,69.5-69.5,69.5s0.8-31.1,0.8-69.5s-39.2-69.5-0.8-69.5
      S145,185.3,145,223.7z"/>
  </g>
</g>
<g id="branche-13_1_">
  <circle class="st4" cx="76.4" cy="224" r="76.4"/>
  <circle class="st5" cx="76.4" cy="224" r="33.8"/>
</g>
<g id="branche-5_1_">
  <circle class="st6" cx="523.5" cy="224" r="76.5"/>
  <circle class="st7" cx="523.5" cy="224" r="33.9"/>
</g>
<circle id="Outline-dev1" class="st8" cx="187.9" cy="224" r="111.3"/>
<circle id="Outline-dev2" class="st9" cx="412.1" cy="224" r="111.3"/>
<g id="MESG_1_">
  <g id="BG-mesg_1_">
    <path id="Circle-BG_1_" class="st10" d="M299.9,272.9c-26.8,0-48.7-21.9-48.7-48.7s21.9-48.7,48.7-48.7s48.7,21.9,48.7,48.7
      S326.7,272.9,299.9,272.9z"/>
    <path id="Circle-outline_1_" class="st11" d="M299.9,177c26,0,47.3,21.3,47.3,47.3s-21.3,47.3-47.3,47.3s-47.3-21.3-47.3-47.3
      S273.9,177,299.9,177 M299.9,174c-27.8,0-50,22.5-50,50s22.5,50,50,50s50-22.5,50-50S327.5,174,299.9,174L299.9,174z"/>
  </g>
  <g id="Wordmark_1_">
    <path id="M_1_" class="st12" d="M282.4,215.8c-0.3-0.3-0.6-0.4-1-0.4c-0.5,0-0.8,0.2-1.1,0.6l-5.6,8.4l-5.5-8.4
      c-0.1-0.2-0.3-0.3-0.5-0.4c-0.2-0.1-0.4-0.2-0.7-0.2c-0.4,0-0.7,0.1-1,0.4c-0.3,0.3-0.4,0.6-0.4,0.9v14.5c0,0.4,0.1,0.7,0.4,1
      c0.2,0.3,0.6,0.4,0.9,0.4c0.4,0,0.7-0.1,1-0.4c0.2-0.3,0.4-0.6,0.4-1v-10.6l4.3,6.7c0.1,0.2,0.3,0.3,0.5,0.4
      c0.2,0.1,0.4,0.2,0.6,0.1c0.2,0,0.4,0,0.6-0.1s0.4-0.2,0.5-0.4l4.3-6.5v10.4c0,0.4,0.1,0.7,0.4,1s0.6,0.4,1,0.4s0.7-0.1,1-0.4
      c0.3-0.3,0.4-0.6,0.4-1v-14.5C282.8,216.4,282.6,216.1,282.4,215.8L282.4,215.8z"/>
    <path id="E_1_" class="st12" d="M297.8,218c0.4,0,0.7-0.1,1-0.4c0.3-0.2,0.4-0.6,0.4-0.9c0-0.4-0.1-0.7-0.4-1
      c-0.3-0.2-0.6-0.4-1-0.4h-8.3c-0.4,0-0.7,0.1-1,0.4c-0.3,0.3-0.4,0.6-0.4,1v14.5c0,0.4,0.1,0.7,0.4,1s0.6,0.4,1,0.4h8.3
      c0.4,0,0.7-0.1,1-0.4c0.3-0.2,0.4-0.6,0.4-0.9c0-0.4-0.1-0.7-0.4-0.9l0,0c-0.3-0.3-0.6-0.4-1-0.4h-6.9v-4.9h5.8
      c0.4,0,0.7-0.1,1-0.3s0.4-0.6,0.4-0.9c0-0.4-0.1-0.7-0.4-0.9s-0.6-0.4-1-0.4h-5.8V218H297.8z"/>
    <path id="S_1_" class="st12" d="M312.3,223.6c-0.8-0.4-1.8-0.7-3.1-1c-1.2-0.3-2.1-0.6-2.8-1c-0.6-0.4-0.9-0.9-0.9-1.6
      c0-0.7,0.3-1.2,0.9-1.6c0.6-0.4,1.4-0.6,2.4-0.6c0.6,0,1.3,0.1,2,0.4c0.7,0.3,1.3,0.6,1.7,1c0.2,0.2,0.4,0.2,0.7,0.2
      c0.4,0,0.7-0.1,0.9-0.4c0.3-0.3,0.4-0.6,0.4-0.9c0-0.4-0.2-0.8-0.6-1.2c-0.6-0.5-1.3-1-2.2-1.3c-0.9-0.3-1.9-0.5-2.9-0.5
      c-1.1,0-2.2,0.2-3.1,0.6c-0.9,0.4-1.6,1-2.1,1.7s-0.8,1.6-0.8,2.6c0,1.4,0.5,2.5,1.4,3.3s2.2,1.4,3.9,1.7c1.4,0.3,2.4,0.7,3,1.1
      c0.6,0.4,0.9,1,1,1.8c0,0.6-0.3,1.2-1,1.6c-0.7,0.4-1.5,0.7-2.4,0.7c-0.8,0-1.6-0.1-2.2-0.4c-0.7-0.3-1.3-0.7-1.9-1.3
      c-0.2-0.2-0.5-0.3-0.8-0.3c-0.4,0-0.7,0.1-0.9,0.4c-0.3,0.3-0.4,0.6-0.4,0.9c0,0.4,0.2,0.8,0.6,1.1c0.8,0.8,1.7,1.3,2.6,1.6l0,0
      c0.9,0.3,2,0.5,3.2,0.5c1.1,0,2.1-0.2,3-0.6c0.9-0.4,1.7-1,2.2-1.7c0.5-0.8,0.8-1.6,0.8-2.6c0-1.1-0.2-2-0.7-2.7
      C313.8,224.5,313.2,224,312.3,223.6z"/>
    <path id="G_1_" class="st12" d="M332.8,223.8L332.8,223.8c-0.3-0.3-0.6-0.4-1-0.4h-4.2c-0.4,0-0.7,0.1-1,0.4
      c-0.3,0.3-0.4,0.6-0.4,1s0.1,0.7,0.4,1s0.6,0.4,1,0.4h2.7v3.5c-0.4,0.2-0.9,0.3-1.4,0.4c-0.6,0.1-1.1,0.2-1.7,0.2
      c-1.1,0-2.1-0.3-3-0.8s-1.6-1.3-2.2-2.2c-0.5-0.9-0.8-2-0.8-3.1s0.3-2.2,0.8-3.1c0.5-0.9,1.3-1.7,2.2-2.2c0.9-0.5,1.9-0.8,3-0.8
      c1,0,2.1,0.2,3.1,0.7c0.2,0.1,0.4,0.2,0.7,0.2c0.4,0,0.7-0.1,0.9-0.4c0.3-0.3,0.4-0.6,0.4-1c0-0.2-0.1-0.4-0.2-0.6
      c-0.1-0.2-0.3-0.4-0.5-0.5c-0.6-0.4-1.3-0.6-2.1-0.8c-0.8-0.2-1.6-0.3-2.4-0.3c-1.6,0-3.1,0.4-4.5,1.2s-2.4,1.9-3.2,3.2
      c-0.8,1.3-1.2,2.8-1.2,4.5s0.4,3.1,1.2,4.5c0.8,1.3,1.9,2.4,3.2,3.2c1.4,0.8,2.9,1.2,4.5,1.2c0.9,0,1.9-0.1,2.8-0.4
      c0.9-0.3,1.7-0.7,2.5-1.1c0.4-0.3,0.7-0.7,0.7-1.2v-5.4C333.2,224.4,333.1,224,332.8,223.8z"/>
  </g>
</g>
<g id="Dev-1">
  <g id="Man-2">
    <circle id="Circle-BG_3_" class="st5" cx="187.8" cy="112.9" r="35.2"/>
    <path id="Body_3_" class="st13" d="M212.7,136.4c-3.8-5.6-9.4-9.2-16.3-10.7l-0.1-3.1c2.8-2.8,5.4-6.5,6.6-10.6
      c0.9,0,1.9-1.4,2.3-3.4c0.5-2.3,0.1-4.3-0.9-4.6c-0.3-0.1-0.5-0.1-0.8,0.1c-1-8.6-6.7-15.2-15.6-15.2c-9,0-14.6,6.6-15.6,15.2
      c-0.3-0.2-0.6-0.2-0.9-0.1c-1,0.3-1.5,2.4-1,4.6c0.5,2.1,1.5,3.5,2.5,3.4c1.2,4.1,3.7,7.9,6.6,10.7l-0.1,2.9
      c-7.3,1.4-13.4,4.8-16.5,11c-0.8,1.7,17.5,11.1,25,11.1C197.9,147.7,214,138.3,212.7,136.4z"/>
    <path id="Hair_3_" class="st14" d="M172.1,104c0,0-0.2-16.5,14-16.5c2.4-0.9,9.1-1.3,14.4,4.3c4.7,5,2.9,12.2,2.9,12.2
      s-9.7-1.1-16.5-10C187,94,177.3,95.2,172.1,104z"/>
    <path id="Shirt_3_" class="st15" d="M179,125.5c0,0,4,8.1,8.8,8.1c4.9,0,8.9-8.1,8.9-8.1s9.2-0.1,16.3,10.1
      c0,0-11.2,11.7-24.7,11.7s-25.6-11.8-25.6-11.8S168,126.3,179,125.5z"/>
    <path id="Circle-outline_3_" class="st16" d="M187.8,79.9c18.2,0,33,14.8,33,33c0,8.8-3.4,17.1-9.7,23.3
      c-6.2,6.2-14.5,9.7-23.3,9.7c-18.2,0-33-14.8-33-33c0-8.8,3.4-17.1,9.7-23.3C170.6,83.3,179,79.9,187.8,79.9 M187.8,77.7
      c-19.4,0-35.2,15.7-35.2,35.2c0,19.4,15.7,35.2,35.2,35.2c19.4,0,35.2-15.7,35.2-35.2S207.3,77.7,187.8,77.7L187.8,77.7z"/>
  </g>
  <g id="App_1_">
    <path id="Circle-BG" class="st16" d="M187.8,130.4c-7.4,0-13.5,6-13.5,13.5c0,7.4,6,13.5,13.5,13.5c7.4,0,13.5-6,13.5-13.5
      C201.3,136.4,195.3,130.4,187.8,130.4L187.8,130.4z"/>
    <g id="Terminal_1_">
      <path id="BG_1_" class="st10" d="M180.1,152.1c-0.2,0-0.5-0.2-0.5-0.5v-15.5c0-0.2,0.2-0.5,0.5-0.5h15.5c0.2,0,0.5,0.2,0.5,0.5
        v15.5c0,0.2-0.2,0.5-0.5,0.5H180.1z"/>
      <g id="Shadow_2_">
        <g>
          <g>
            <g>
              <defs>
                <path id="Mask-T1" d="M195.5,152.4h-15.5c-0.4,0-0.7-0.3-0.7-0.7v-15.5c0-0.4,0.3-0.7,0.7-0.7h15.5c0.4,0,0.7,0.3,0.7,0.7
                  v15.5C196.3,152,196,152.4,195.5,152.4z"/>
              </defs>
              <clipPath id="Mask-T1-2">
                <use xlink:href="#Mask-T1"  style="overflow:visible;"/>
              </clipPath>
              <polygon class="st17" points="196.3,135.4 179.3,152.4 196.3,152.4 							"/>
            </g>
          </g>
        </g>
      </g>
      <path id="Code_1_" class="st11" d="M184.2,146.8c0.1,0,0.1,0.1,0.1,0.1v0.4c0,0.1,0,0.1-0.1,0.1l-1.9,1l1.9,1
        c0.1,0,0.1,0.1,0.1,0.1v0.4c0,0.1,0,0.1-0.1,0.1h-0.1h-0.1l-2.6-1.3c-0.1,0-0.1-0.1-0.1-0.1v-0.3c0-0.1,0-0.1,0.1-0.1l2.6-1.3
        C184.1,146.8,184.1,146.8,184.2,146.8z M187.4,146H187c-0.1,0-0.1,0-0.1,0.1l-1.5,4c0,0.1,0,0.1,0,0.1s0.1,0.1,0.1,0.1h0.3
        c0.1,0,0.1,0,0.1-0.1l1.5-4C187.4,146.1,187.4,146,187.4,146C187.4,146,187.4,146,187.4,146z M191.3,148.1l-2.6-1.3
        c-0.1,0-0.1,0-0.1,0c-0.1,0-0.1,0.1-0.1,0.1v0.4c0,0.1,0,0.1,0.1,0.1l1.9,1l-1.9,1c-0.1,0-0.1,0.1-0.1,0.1v0.4
        c0,0.1,0,0.1,0.1,0.1h0.1h0.1l2.6-1.3c0.1,0,0.1-0.1,0.1-0.1v-0.3C191.4,148.2,191.4,148.2,191.3,148.1z"/>
      <path id="APP-border_1_" class="st11" d="M195.5,135.4h-15.5c-0.2,0-0.4,0.1-0.6,0.2c-0.1,0.1-0.2,0.3-0.2,0.6v15.5
        c0,0.4,0.3,0.7,0.7,0.7h15.5c0.4,0,0.7-0.3,0.7-0.7v-13.8v-1.7C196.3,135.7,196,135.4,195.5,135.4z M195.7,151.6
        c0,0.1-0.1,0.2-0.2,0.2H180c-0.1,0-0.2-0.1-0.2-0.2v-13.8h15.9C195.7,137.8,195.7,151.6,195.7,151.6z"/>
      <path id="Circles_1_" class="st12" d="M181.6,136.3c0.2,0,0.3,0.1,0.3,0.3c0,0.2-0.1,0.3-0.3,0.3c-0.2,0-0.3-0.1-0.3-0.3
        C181.3,136.4,181.4,136.3,181.6,136.3z M182.8,136.3c0.2,0,0.3,0.1,0.3,0.3c0,0.2-0.1,0.3-0.3,0.3s-0.3-0.1-0.3-0.3
        C182.5,136.4,182.7,136.3,182.8,136.3z M184,136.3c0.2,0,0.3,0.1,0.3,0.3c0,0.2-0.1,0.3-0.3,0.3c-0.2,0-0.3-0.1-0.3-0.3
        C183.7,136.4,183.9,136.3,184,136.3z"/>
    </g>
  </g>
</g>
<g id="Dev-2">
  <g id="Women-2">
    <circle id="Circle-BG_4_" class="st7" cx="412.3" cy="112.9" r="35.2"/>
    <path id="Hair-back_1_" class="st18" d="M397,110.5c0,0,1.9,17.4-0.1,19.4h30.3c0,0-1.1-14.7,0.4-20.6L397,110.5z"/>
    <path id="Body_4_" class="st14" d="M437.2,136.4c-4-5.9-10-9.5-17.4-10.9l-0.1-2.4c4-3.9,7.3-10.2,7.3-16.3c0-9.9-4.8-18-14.8-18
      s-14.8,8-14.8,18c0,6.3,3.4,12.7,7.5,16.6l-0.1,2c-7.8,1.3-14.3,4.7-17.5,11.2c-0.8,1.7,17.5,11.1,25,11.1
      C422.3,147.7,438.4,138.3,437.2,136.4z"/>
    <path id="Hair_4_" class="st18" d="M430.6,128.6c-0.8-3.7-0.5-24.6-0.5-24.6c0-4.6-3.1-17.7-17.8-15.9
      c-14.6-1.8-17.8,10.9-17.8,15.9c0,0.5,0.1,23.2-0.4,24.6c-1.3,3.5,6-0.9,6-2.1c0-3,0-21.5,0.4-21.8c0.3-0.2,1.5-0.4,3.1-0.6
      l0.7-4.4l0.8,4.2c2.4-0.3,5.3-0.5,7.2-0.5c1.5,0,4.3,0.3,6.8,0.7l0.3-2.1l0.4,2.2c0.5,0.1,0.9,0.1,1.3,0.2l0.3-1.6l0.3,1.8
      c1.2,0.2,2,0.5,2.1,0.6c0.7,0.8,0.7,22.6,1,23.4C425.2,129.7,431.3,131.9,430.6,128.6z"/>
    <path id="Shirt_4_" class="st15" d="M403.4,125.4c0,0,6.5,9.6,8.8,9.6c2.5,0,8.9-9.7,8.9-9.7s9.2-0.1,16.3,10.1
      c0,0-11.2,11.7-24.7,11.7s-25.6-11.8-25.6-11.8S392.5,126.3,403.4,125.4z"/>
    <path id="Circle-outline_4_" class="st16" d="M412.3,80c18.2,0,33,14.8,33,33c0,8.8-3.4,17.1-9.7,23.3c-6.2,6.2-14.5,9.7-23.3,9.7
      c-18.2,0-33-14.8-33-33c0-8.8,3.4-17.1,9.7-23.3C395.2,83.4,403.5,80,412.3,80 M412.3,77.7c-19.4,0-35.2,15.7-35.2,35.2
      s15.7,35.2,35.2,35.2c19.4,0,35.2-15.7,35.2-35.2S431.7,77.7,412.3,77.7L412.3,77.7z"/>
  </g>
  <g id="App_3_">
    <path id="Circle-BG_5_" class="st16" d="M412.4,130.4c-7.4,0-13.5,6-13.5,13.5c0,7.4,6,13.5,13.5,13.5c7.4,0,13.5-6,13.5-13.5
      C425.9,136.4,419.8,130.4,412.4,130.4L412.4,130.4z"/>
    <g id="Terminal_3_">
      <path id="BG_3_" class="st10" d="M404.6,152.1c-0.2,0-0.5-0.2-0.5-0.5v-15.5c0-0.2,0.2-0.5,0.5-0.5h15.5c0.2,0,0.5,0.2,0.5,0.5
        v15.5c0,0.2-0.2,0.5-0.5,0.5H404.6z"/>
      <g id="Shadow_4_">
        <g>
          <g>
            <g>
              <defs>
                <path id="Mask-T2" d="M420.1,152.4h-15.5c-0.4,0-0.7-0.3-0.7-0.7v-15.5c0-0.4,0.3-0.7,0.7-0.7h15.5c0.4,0,0.7,0.3,0.7,0.7
                  v15.5C420.9,152,420.5,152.4,420.1,152.4z"/>
              </defs>
              <clipPath id="Mask-T2-2">
                <use xlink:href="#Mask-T2"  style="overflow:visible;"/>
              </clipPath>
              <polygon class="st19" points="420.9,135.4 403.9,152.4 420.9,152.4 							"/>
            </g>
          </g>
        </g>
      </g>
      <path id="Code_3_" class="st11" d="M408.8,146.8c0.1,0,0.1,0.1,0.1,0.1v0.4c0,0.1,0,0.1-0.1,0.1l-1.9,1l1.9,1
        c0.1,0,0.1,0.1,0.1,0.1v0.4c0,0.1,0,0.1-0.1,0.1h-0.1h-0.1l-2.6-1.3c-0.1,0-0.1-0.1-0.1-0.1v-0.3c0-0.1,0-0.1,0.1-0.1l2.6-1.3
        C408.6,146.8,408.7,146.8,408.8,146.8z M412,146h-0.4c-0.1,0-0.1,0-0.1,0.1l-1.5,4c0,0.1,0,0.1,0,0.1s0.1,0.1,0.1,0.1h0.3
        c0.1,0,0.1,0,0.1-0.1l1.5-4C412,146.1,412,146,412,146C412,146,412,146,412,146z M415.9,148.1l-2.6-1.3c-0.1,0-0.1,0-0.1,0
        c-0.1,0-0.1,0.1-0.1,0.1v0.4c0,0.1,0,0.1,0.1,0.1l1.9,1l-1.9,1c-0.1,0-0.1,0.1-0.1,0.1v0.4c0,0.1,0,0.1,0.1,0.1h0.1h0.1l2.6-1.3
        c0.1,0,0.1-0.1,0.1-0.1v-0.3C416,148.2,415.9,148.2,415.9,148.1z"/>
      <path id="APP-border_3_" class="st11" d="M420.1,135.4h-15.5c-0.2,0-0.4,0.1-0.6,0.2c-0.1,0.1-0.2,0.3-0.2,0.6v15.5
        c0,0.4,0.3,0.7,0.7,0.7h15.5c0.4,0,0.7-0.3,0.7-0.7v-13.8v-1.7C420.9,135.7,420.5,135.4,420.1,135.4z M420.3,151.6
        c0,0.1-0.1,0.2-0.2,0.2h-15.5c-0.1,0-0.2-0.1-0.2-0.2v-13.8h15.9C420.3,137.8,420.3,151.6,420.3,151.6z"/>
      <path id="Circles_3_" class="st12" d="M406.2,136.3c0.2,0,0.3,0.1,0.3,0.3c0,0.2-0.1,0.3-0.3,0.3s-0.3-0.1-0.3-0.3
        C405.9,136.4,406,136.3,406.2,136.3z M407.4,136.3c0.2,0,0.3,0.1,0.3,0.3c0,0.2-0.1,0.3-0.3,0.3s-0.3-0.1-0.3-0.3
        C407.1,136.4,407.2,136.3,407.4,136.3z M408.6,136.3c0.2,0,0.3,0.1,0.3,0.3c0,0.2-0.1,0.3-0.3,0.3s-0.3-0.1-0.3-0.3
        C408.3,136.4,408.5,136.3,408.6,136.3z"/>
    </g>
  </g>
</g>
<ellipse id="Outline-dev3" class="st20" cx="300" cy="224" rx="223.6" ry="223.6"/>
<g id="Dev-3">
  <g id="Man-2_1_">
    <circle id="Circle-BG_2_" class="st21" cx="300" cy="448.4" r="35.2"/>
    <path id="Body_1_" class="st13" d="M324.9,471.9c-3.8-5.6-9.4-9.2-16.3-10.7l-0.1-3.1c2.8-2.8,5.4-6.5,6.6-10.6
      c0.9,0,1.9-1.4,2.3-3.4c0.5-2.3,0.1-4.3-0.9-4.6c-0.3-0.1-0.5-0.1-0.8,0.1c-1-8.6-6.7-15.2-15.6-15.2c-9,0-14.6,6.6-15.6,15.2
      c-0.3-0.2-0.6-0.2-0.9-0.1c-1,0.3-1.5,2.4-1,4.6c0.5,2.1,1.5,3.5,2.5,3.4c1.2,4.1,3.7,7.9,6.6,10.7l-0.1,2.9
      c-7.3,1.4-13.4,4.8-16.5,11c-0.8,1.7,17.5,11.1,25,11.1C310.1,483.2,326.2,473.8,324.9,471.9z"/>
    <path id="Hair_1_" class="st14" d="M284.3,439.5c0,0-0.2-16.5,14-16.5c2.4-0.9,9.1-1.3,14.4,4.3c4.7,5,2.9,12.2,2.9,12.2
      s-9.7-1.1-16.5-10C299.2,429.5,289.5,430.7,284.3,439.5z"/>
    <path id="Shirt_1_" class="st15" d="M291.2,461c0,0,4,8.1,8.8,8.1c4.9,0,8.9-8.1,8.9-8.1s9.2-0.1,16.3,10.1
      c0,0-11.2,11.7-24.7,11.7S274.9,471,274.9,471S280.2,461.8,291.2,461z"/>
    <path id="Circle-outline_2_" class="st16" d="M300,415.4c18.2,0,33,14.8,33,33c0,8.8-3.4,17.1-9.7,23.3
      c-6.2,6.2-14.5,9.7-23.3,9.7c-18.2,0-33-14.8-33-33c0-8.8,3.4-17.1,9.7-23.3C282.8,418.8,291.2,415.4,300,415.4 M300,413.2
      c-19.4,0-35.2,15.7-35.2,35.2c0,19.4,15.7,35.2,35.2,35.2c19.4,0,35.2-15.7,35.2-35.2S319.5,413.2,300,413.2L300,413.2z"/>
  </g>
  <g id="App_2_">
    <path id="Circle-BG_6_" class="st16" d="M299.9,466.4c-7.4,0-13.5,6-13.5,13.5c0,7.4,6,13.5,13.5,13.5c7.4,0,13.5-6,13.5-13.5
      S307.4,466.4,299.9,466.4L299.9,466.4z"/>
    <g id="Terminal_2_">
      <path id="BG_2_" class="st10" d="M292.2,488.2c-0.2,0-0.5-0.2-0.5-0.5v-15.5c0-0.2,0.2-0.5,0.5-0.5h15.5c0.2,0,0.5,0.2,0.5,0.5
        v15.5c0,0.2-0.2,0.5-0.5,0.5H292.2z"/>
      <g id="Shadow_3_">
        <g>
          <g>
            <g>
              <defs>
                <path id="Mask-T3" d="M307.7,488.4h-15.5c-0.4,0-0.7-0.3-0.7-0.7v-15.5c0-0.4,0.3-0.7,0.7-0.7h15.5c0.4,0,0.7,0.3,0.7,0.7
                  v15.5C308.4,488.1,308.1,488.4,307.7,488.4z"/>
              </defs>
              <clipPath id="Mask-T3-2">
                <use xlink:href="#Mask-T3"  style="overflow:visible;"/>
              </clipPath>
              <polygon class="st22" points="308.4,471.5 291.5,488.4 308.4,488.4 							"/>
            </g>
          </g>
        </g>
      </g>
      <path id="Code_2_" class="st11" d="M296.4,482.9c0.1,0,0.1,0.1,0.1,0.1v0.4c0,0.1,0,0.1-0.1,0.1l-1.9,1l1.9,1
        c0.1,0,0.1,0.1,0.1,0.1v0.4c0,0.1,0,0.1-0.1,0.1h-0.1h-0.1l-2.6-1.3c-0.1,0-0.1-0.1-0.1-0.1v-0.3c0-0.1,0-0.1,0.1-0.1l2.6-1.3
        C296.2,482.9,296.3,482.9,296.4,482.9z M299.5,482.1h-0.4c-0.1,0-0.1,0-0.1,0.1l-1.5,4c0,0.1,0,0.1,0,0.1s0.1,0.1,0.1,0.1h0.3
        c0.1,0,0.1,0,0.1-0.1l1.5-4C299.6,482.2,299.6,482.1,299.5,482.1C299.6,482.1,299.6,482.1,299.5,482.1z M303.5,484.2l-2.6-1.3
        c-0.1,0-0.1,0-0.1,0c-0.1,0-0.1,0.1-0.1,0.1v0.4c0,0.1,0,0.1,0.1,0.1l1.9,1l-1.9,1c-0.1,0-0.1,0.1-0.1,0.1v0.4
        c0,0.1,0,0.1,0.1,0.1h0.1h0.1l2.6-1.3c0.1,0,0.1-0.1,0.1-0.1v-0.3C303.6,484.3,303.5,484.3,303.5,484.2z"/>
      <path id="APP-border_2_" class="st11" d="M307.7,471.4h-15.5c-0.2,0-0.4,0.1-0.6,0.2c-0.1,0.1-0.2,0.3-0.2,0.6v15.5
        c0,0.4,0.3,0.7,0.7,0.7h15.5c0.4,0,0.7-0.3,0.7-0.7v-13.8v-1.7C308.4,471.8,308.1,471.4,307.7,471.4z M307.9,487.7
        c0,0.1-0.1,0.2-0.2,0.2h-15.5c-0.1,0-0.2-0.1-0.2-0.2v-13.8h15.9C307.9,473.9,307.9,487.7,307.9,487.7z"/>
      <path id="Circles_2_" class="st12" d="M293.8,472.4c0.2,0,0.3,0.1,0.3,0.3s-0.1,0.3-0.3,0.3s-0.3-0.1-0.3-0.3
        S293.6,472.4,293.8,472.4z M295,472.4c0.2,0,0.3,0.1,0.3,0.3s-0.1,0.3-0.3,0.3c-0.2,0-0.3-0.1-0.3-0.3S294.8,472.4,295,472.4z
          M296.2,472.4c0.2,0,0.3,0.1,0.3,0.3s-0.1,0.3-0.3,0.3c-0.2,0-0.3-0.1-0.3-0.3S296,472.4,296.2,472.4z"/>
    </g>
  </g>
</g>
<g id="bridge-dev1">
  <line class="st23" x1="251.2" y1="224" x2="76.4" y2="224"/>
  <circle class="st24" cx="251.2" cy="224" r="5.6"/>
  <circle class="st24" cx="76.4" cy="224" r="5.6"/>
</g>
<g id="bridge-dev2">
  <line class="st23" x1="523.5" y1="224" x2="348.7" y2="224"/>
  <circle class="st24" cx="523.5" cy="224" r="5.6"/>
  <circle class="st24" cx="348.7" cy="224" r="5.6"/>
</g>
</svg>
