<svg version="1.1" id="Schema-important" xmlns="http://www.w3.org/2000/svg" xmlns:xlink="http://www.w3.org/1999/xlink" x="0px"
    y="0px" viewBox="0 0 600 378" style="enable-background:new 0 0 600 378;" xml:space="preserve">
<style type="text/css">
.st0{opacity:0.8;fill:url(#bg-l_1_);}
.st1{fill:url(#center-legacy_1_);}
.st2{fill:#FFFFFF;}
.st3{opacity:0.8;fill:#FFFFFF;}
.st4{opacity:0.6;fill:#FFFFFF;}
.st7{opacity:0.8;fill:url(#bg-d_1_);}
.st8{fill:url(#center-decentralized_1_);}
.st10{fill:#FFFFFF;stroke:#4563FF;stroke-miterlimit:10;}
.st11{fill:#FFFFFF;stroke:#30B24B;stroke-miterlimit:10;}
.st12{fill:none;stroke:url(#Gradient-1);stroke-miterlimit:10;}
.st13{fill:none;stroke:url(#Gradient-2);stroke-miterlimit:10;}
.st14{fill:none;stroke:url(#Gradient-3);stroke-miterlimit:10;}
.st15{fill:none;stroke:url(#Gradient-4);stroke-miterlimit:10;}
.st16{fill:none;stroke:url(#Gradient-5);stroke-miterlimit:10;}
.st17{fill:none;stroke:url(#Gradient-6);stroke-miterlimit:10;}
.st18{fill:none;stroke:url(#Gradient-7);stroke-miterlimit:10;}
.st19{fill:none;stroke:url(#Gradient-8);stroke-miterlimit:10;}
.st20{fill:none;stroke:url(#Gradient-9);stroke-miterlimit:10;}
.st21{fill:none;stroke:url(#Gradient-10);stroke-miterlimit:10;}
.st22{fill:none;stroke:url(#Gradient-11);stroke-miterlimit:10;}
.st23{fill:none;stroke:url(#Gradient-12);stroke-miterlimit:10;}
.st24{fill:none;stroke:url(#Gradient-13);stroke-miterlimit:10;}
.st25{fill:none;stroke:url(#Gradient-14);stroke-miterlimit:10;}
.st26{fill:none;stroke:url(#Gradient-15);stroke-miterlimit:10;}
.st27{fill:none;stroke:url(#Gradient-16);stroke-miterlimit:10;}
.st30{fill:#FFFFFF;stroke:url(#Gradient-17);stroke-miterlimit:10;}
.st31{fill:#FFFFFF;stroke:url(#Gradient-18);stroke-miterlimit:10;}
.st32{fill:#FFFFFF;stroke:url(#Gradient-19);stroke-miterlimit:10;}
.st33{fill:#FFFFFF;stroke:url(#Gradient-20);stroke-miterlimit:10;}
.st34{fill:#FFFFFF;stroke:url(#Gradient-21);stroke-miterlimit:10;}
.st35{fill:none;stroke:url(#Gradient-22);stroke-miterlimit:10;}
.st36{fill:none;stroke:url(#Gradient-23);stroke-miterlimit:10;}
.st37{fill:none;stroke:url(#Gradient-24);stroke-miterlimit:10;}
.st38{fill:none;stroke:url(#Gradient-25);stroke-miterlimit:10;}
.st39{fill:none;stroke:url(#Gradient-26);stroke-miterlimit:10;}
.st40{fill:none;stroke:url(#Gradient-27);stroke-miterlimit:10;}
.st41{fill:none;stroke:url(#Gradient-28);stroke-miterlimit:10;}
.st42{fill:none;stroke:url(#Gradient-29);stroke-miterlimit:10;}
.st43{fill:none;stroke:url(#Gradient-30);stroke-miterlimit:10;}
.st44{fill:none;stroke:url(#Gradient-31);stroke-miterlimit:10;}
.st45{fill:none;stroke:url(#Gradient-32);stroke-miterlimit:10;}
.st46{fill:none;stroke:url(#Gradient-33);stroke-miterlimit:10;}
.st47{fill:none;stroke:url(#Gradient-34);stroke-miterlimit:10;}
.st48{fill:none;stroke:url(#Gradient-35);stroke-miterlimit:10;}
.st49{fill:none;stroke:url(#Gradient-36);stroke-miterlimit:10;}
.st50{fill:none;stroke:url(#Gradient-37);stroke-miterlimit:10;}
.st51{fill:#FFFFFF;stroke:url(#Gradient-38);stroke-miterlimit:10;}
.st52{fill:#FFFFFF;stroke:url(#Gradient-39);stroke-miterlimit:10;}
.st53{fill:#FFFFFF;stroke:url(#Gradient-40);stroke-miterlimit:10;}
.st54{fill:#FFFFFF;stroke:url(#Gradient-41);stroke-miterlimit:10;}
.st55{fill:#FFFFFF;stroke:url(#Gradient-42);stroke-miterlimit:10;}
</style>
<g id="legacy">

  <linearGradient id="bg-l_1_" gradientUnits="userSpaceOnUse" x1="189.1272" y1="585.0663" x2="9.2728" y2="668.9338" gradientTransform="matrix(1 0 0 1 0 -438)">
    <stop  offset="0" style="stop-color:#4563FF"/>
    <stop  offset="1" style="stop-color:#9452FF"/>
  </linearGradient>
  <circle id="bg-l" class="st0" cx="99.2" cy="189" r="99.2"/>

  <linearGradient id="center-legacy_1_" gradientUnits="userSpaceOnUse" x1="112.0726" y1="620.9974" x2="86.3758" y2="632.98" gradientTransform="matrix(1 0 0 1 0 -438)">
    <stop  offset="0" style="stop-color:#4563FF"/>
    <stop  offset="1" style="stop-color:#9452FF"/>
  </linearGradient>
  <circle id="center-legacy" class="st1" cx="99.2" cy="189" r="14.2"/>
  <g id="App_51_">
    <path id="border_1_" class="st2" d="M61.6,180.8l-38.1,7c-0.5,0.1-0.9,0.4-1.3,0.8c-0.2,0.3-0.4,0.9-0.3,1.5l7,38.1
      c0.2,1,1.1,1.6,2.1,1.4l38.1-7c1-0.2,1.6-1.1,1.4-2.1l-6.3-34l-0.7-4.1C63.6,181.4,62.6,180.8,61.6,180.8z M33.6,188.3
      c0.4-0.1,0.8,0.1,0.9,0.6c0.1,0.4-0.1,0.8-0.6,0.9c-0.4,0.1-0.8-0.1-0.9-0.6C33,188.8,33.2,188.3,33.6,188.3z M30.6,188.8
      c0.4-0.1,0.8,0.1,0.9,0.6c0.1,0.4-0.1,0.8-0.6,0.9c-0.4,0.1-0.8-0.1-0.9-0.6C30,189.3,30.3,188.9,30.6,188.8z M27.7,189.3
      c0.4-0.1,0.8,0.1,0.9,0.6c0.1,0.4-0.1,0.8-0.6,0.9c-0.4,0.1-0.8-0.1-0.9-0.6C27.1,189.9,27.3,189.4,27.7,189.3z M67.5,219.6
      c0,0.2-0.1,0.5-0.4,0.6l-34.8,6.4c-0.2,0-0.5-0.1-0.6-0.4l-6.1-33l35.8-6.6L67.5,219.6z"/>
    <path id="terminal" class="st2" d="M37.8,216.1c0.1,0.1,0.2,0.2,0.3,0.3l0.1,0.8c0,0.1-0.1,0.2-0.1,0.3l-3.5,2.6l4.2,1.2
      c0.1,0.1,0.2,0.2,0.3,0.3l0.1,0.8c0,0.1-0.1,0.2-0.1,0.3c-0.1,0.1-0.1,0.1-0.2,0.1c-0.1,0-0.1,0-0.2-0.1l-5.6-1.7
      c-0.1-0.1-0.2-0.2-0.3-0.3l-0.1-0.7c0-0.1,0.1-0.2,0.1-0.3l4.6-3.6C37.6,216.1,37.7,216.1,37.8,216.1z M43.8,213.2l-0.7,0.1
      c-0.1,0-0.2,0.1-0.3,0.3l-1.6,8.5c-0.1,0.1,0,0.2,0.2,0.3c0.1,0.1,0.2,0.1,0.3,0l0.7-0.1c0.1,0,0.2-0.1,0.3-0.3l1.7-8.5
      c0.1-0.1,0-0.2-0.2-0.3C44,213.3,43.9,213.2,43.8,213.2z M52.5,216.1l-5.6-1.7c-0.1-0.1-0.2-0.1-0.3,0.1c-0.1,0.1-0.2,0.2-0.1,0.3
      l0.1,0.8c0,0.1,0.1,0.2,0.3,0.3l4.2,1.2l-3.5,2.6c-0.1,0.1-0.2,0.2-0.1,0.3l0.1,0.8c0,0.1,0.1,0.2,0.3,0.3
      c0.1,0.1,0.1,0.1,0.2,0.1c0.1,0,0.1,0,0.2-0.1l4.6-3.6c0.1-0.1,0.2-0.2,0.1-0.3l-0.1-0.7C52.7,216.2,52.7,216.1,52.5,216.1z"/>
    <g id="code">
      <path class="st3" d="M28.1,194.7l7.2-1.3l0.2,1.3l-7.2,1.3L28.1,194.7z M29,199.9l4.2-0.8l0.2,1.3l-4.2,0.8L29,199.9z M34.4,199
        l1.7-0.3l0.2,1.3l-1.7,0.3L34.4,199z M36.9,198.5l1.7-0.3l0.2,1.3l-1.7,0.3L36.9,198.5z M33.4,196.5l1.7-0.3l0.2,1.3l-1.7,0.3
        L33.4,196.5z M38.7,195.5l5.1-0.9l0.2,1.3l-5.1,0.9L38.7,195.5z M42.4,207.9l3.1-0.6l0.2,1.3l-3.1,0.6L42.4,207.9z M46.6,207.1
        l4.6-0.9l0.2,1.3l-4.6,0.9L46.6,207.1z M30.4,207.5l3.6-0.7l0.2,1.3l-3.6,0.7L30.4,207.5z M37.8,203.6l1.7-0.3l0.2,1.3l-1.7,0.3
        L37.8,203.6z M46,202l3.2-0.6l0.2,1.3l-3.2,0.6L46,202z M50.2,201.3l6.3-1.2l0.2,1.3l-6.3,1.2L50.2,201.3z M35.3,206.6l1.7-0.3
        l0.2,1.3l-1.7,0.3L35.3,206.6z M37.9,206.1l1.7-0.3l0.2,1.3l-1.7,0.3L37.9,206.1z"/>
      <path class="st4" d="M36.2,193.1l2.4-0.4l0.2,1.3l-2.4,0.4L36.2,193.1z M39.6,192.5l3.1-0.6l0.2,1.3l-3.1,0.6L39.6,192.5z
          M43.8,191.7l4.6-0.9l0.2,1.3l-4.6,0.9L43.8,191.7z M28.6,197.3l3.6-0.7l0.2,1.3l-3.6,0.7L28.6,197.3z M45,194.3l1.9-0.3l0.2,1.3
        l-1.9,0.3L45,194.3z M45.1,197l3.2-0.6l0.2,1.3l-3.2,0.6L45.1,197z M49.2,196.2l6.3-1.2l0.2,1.3l-6.3,1.2L49.2,196.2z M39.5,198
        l4.6-0.9l0.2,1.3l-4.6,0.9L39.5,198z M29.5,202.5l1.7-0.3l0.2,1.3l-1.7,0.3L29.5,202.5z M32,202.1l0.9-0.2l0.2,1.3l-0.9,0.2
        L32,202.1z M36,196l1.7-0.3l0.2,1.3l-1.7,0.3L36,196z M31,210.1l7.2-1.3l0.2,1.3l-7.2,1.3L31,210.1z M39.1,208.5l2.4-0.4l0.2,1.3
        l-2.4,0.4L39.1,208.5z M46.9,204.5l1.9-0.3l0.2,1.3l-1.9,0.3L46.9,204.5z M30,205l4.2-0.8l0.2,1.3l-4.2,0.8L30,205z M35.3,204
        l1.7-0.3l0.2,1.3l-1.7,0.3L35.3,204z M40.5,203l4.6-0.9l0.2,1.3l-4.6,0.9L40.5,203z M40.5,205.6l5.1-0.9l0.2,1.3l-5.1,0.9
        L40.5,205.6z"/>
    </g>
  </g>
  <g id="website">
    <path id="border" class="st2" d="M135.9,116.8l-60.6-3c-0.5,0-1,0.1-1.4,0.5c-0.3,0.3-0.6,0.8-0.7,1.4l-1.9,38.7
      c0,1,0.7,1.8,1.7,1.9l60.6,3c1,0,1.8-0.7,1.9-1.7l1.7-34.6l0.3-4.2C137.8,117.7,137,116.9,135.9,116.8z M85.1,115.4
      c0.4,0,0.8,0.3,0.8,0.8c0,0.4-0.3,0.8-0.8,0.8s-0.8-0.3-0.8-0.8C84.3,115.7,84.7,115.4,85.1,115.4z M82.1,115.2
      c0.4,0,0.8,0.3,0.8,0.8c0,0.4-0.3,0.8-0.8,0.8s-0.8-0.3-0.8-0.8C81.3,115.5,81.6,115.2,82.1,115.2z M79.1,115.1
      c0.4,0,0.8,0.3,0.8,0.8c0,0.4-0.3,0.8-0.8,0.8c-0.4,0-0.8-0.3-0.8-0.8C78.3,115.4,78.6,115.1,79.1,115.1z M132.8,155.8
      c0,0.2-0.2,0.5-0.5,0.5L75,153.4c-0.2,0-0.5-0.2-0.5-0.5l1.8-35.6l58.3,2.9L132.8,155.8L132.8,155.8z"/>
    <g id="content">

        <rect x="121" y="144.5" transform="matrix(4.988128e-02 -0.9988 0.9988 4.988128e-02 -32.4328 266.6096)" class="st4" width="5.9" height="11.7"/>

        <rect x="107.9" y="144" transform="matrix(4.988128e-02 -0.9988 0.9988 4.988128e-02 -44.1306 252.9447)" class="st4" width="5.9" height="11.4"/>

        <rect x="99.7" y="101" transform="matrix(4.988128e-02 -0.9988 0.9988 4.988128e-02 -26.9777 225.4875)" class="st4" width="10.7" height="51.9"/>

        <rect x="119.1" y="134.4" transform="matrix(4.988128e-02 -0.9988 0.9988 4.988128e-02 -21.8948 257.5183)" class="st4" width="10.7" height="11.7"/>

        <rect x="87.8" y="135.8" transform="matrix(4.988128e-02 -0.9988 0.9988 4.988128e-02 -62.1707 231.8282)" class="st4" width="6" height="25.6"/>

        <rect x="90.1" y="121.8" transform="matrix(4.988128e-02 -0.9988 0.9988 4.988128e-02 -47.5565 219.2203)" class="st4" width="2.6" height="25.6"/>

        <rect x="89.9" y="125.9" transform="matrix(4.988128e-02 -0.9988 0.9988 4.988128e-02 -51.831 222.908)" class="st4" width="2.6" height="25.6"/>

        <rect x="89.7" y="129.9" transform="matrix(4.988128e-02 -0.9988 0.9988 4.988128e-02 -56.0065 226.5104)" class="st4" width="2.6" height="25.6"/>

        <rect x="106" y="133.9" transform="matrix(4.988128e-02 -0.9988 0.9988 4.988128e-02 -33.5927 243.8535)" class="st4" width="10.7" height="11.4"/>

        <rect x="123" y="138.5" transform="matrix(4.988128e-02 -0.9988 0.9988 4.988128e-02 -26.1694 261.2062)" class="st4" width="2.5" height="11.7"/>

        <rect x="109.9" y="138" transform="matrix(4.988128e-02 -0.9988 0.9988 4.988128e-02 -37.8674 247.5414)" class="st4" width="2.5" height="11.4"/>

        <rect x="121" y="144.5" transform="matrix(4.988128e-02 -0.9988 0.9988 4.988128e-02 -32.4328 266.6096)" class="st4" width="5.9" height="11.7"/>

        <rect x="107.9" y="144" transform="matrix(4.988128e-02 -0.9988 0.9988 4.988128e-02 -44.1306 252.9447)" class="st4" width="5.9" height="11.4"/>

        <rect x="81.4" y="141.9" transform="matrix(4.988128e-02 -0.9988 0.9988 4.988128e-02 -67.9162 225.1683)" class="st4" width="6" height="12.8"/>

        <rect x="83.8" y="127.9" transform="matrix(4.988128e-02 -0.9988 0.9988 4.988128e-02 -53.3021 212.5604)" class="st4" width="2.6" height="12.8"/>

        <rect x="83.6" y="132" transform="matrix(4.988128e-02 -0.9988 0.9988 4.988128e-02 -57.5767 216.2482)" class="st4" width="2.6" height="12.8"/>

        <rect x="83.4" y="136" transform="matrix(4.988128e-02 -0.9988 0.9988 4.988128e-02 -61.7522 219.8506)" class="st4" width="2.6" height="12.8"/>

        <rect x="103.5" y="105.1" transform="matrix(4.988128e-02 -0.9988 0.9988 4.988128e-02 -31.3 229.1252)" class="st4" width="2.6" height="51.9"/>
    </g>
  </g>
  <g id="database">
    <path class="st2" d="M151.7,218.1l-35.8-4.8c-1-0.1-2,0.1-2.8,0.7c-0.8,0.6-1.3,1.5-1.5,2.5l-1.1,8.3c-0.1,1,0.1,1.9,0.7,2.7
      c-0.7,0.6-1.2,1.5-1.4,2.4l-1.1,8.3c-0.1,1,0.1,1.9,0.7,2.7c-0.7,0.6-1.2,1.5-1.4,2.4l-1.1,8.3c-0.3,2.1,1.2,4,3.2,4.2l19.6,2.6
      c1.9,0.6,3.9,1.1,6,1.4c1.5,0.2,3.1,0.3,4.7,0.3c4.6,0,8.7-1,9.8-3.4c0.1-0.1,0.1-0.3,0.2-0.5l2.6-19.6c0-0.2,0-0.3,0-0.5
      c-0.1-0.9-0.6-1.8-1.5-2.6c1.3-0.5,2.2-1.6,2.4-3l1.1-8.3C155.2,220.3,153.7,218.4,151.7,218.1z M130.3,256.2
      c-3.3-1.1-4.9-2.4-5.3-3.2c0,0,0-0.1-0.1-0.2l0.4-3.1c0.1,0.1,0.2,0.1,0.2,0.2l0.1,0.1l0,0c1.3,0.9,3.2,1.8,5.6,2.5
      c0.7,0.2,1.5,0.4,2.2,0.6l1,0.2c0.2,0,0.4,0.1,0.6,0.1l0.4,0.1c0.3,0.1,0.7,0.1,1,0.2c0.3,0,0.7,0.1,1,0.1l2,0.2
      c0.8,0,1.6,0.1,2.3,0c2.6-0.1,4.8-0.4,6.4-1.1l-0.4,3l0,0c-0.4,1.3-5.1,2.6-11.9,1.7c-1.9-0.3-3.6-0.6-5.2-1.1l0,0L130.3,256.2z
        M149.9,240.1c0.1,0,0.1-0.1,0.2-0.1c0,0-0.4,2.8-0.4,3v0.1v0.1c0,0,0,0.1-0.1,0.1l-0.1,0.1c-0.1,0.1-0.1,0.1-0.2,0.2
      c-1.5,1.1-5.9,1.9-11.4,1.1c-5.5-0.7-9.6-2.6-10.7-4.1l-0.1-0.1c0-0.1-0.1-0.1-0.1-0.2c0,0,0-0.1-0.1-0.1v-0.1c0,0,0-0.1,0-0.2
      v-0.2c0-0.1,0.4-2.9,0.4-2.9c0.1,0,0.1,0.1,0.2,0.1l0.1,0.1c0.2,0.1,0.3,0.2,0.5,0.3l0.1,0.1c0.2,0.1,0.3,0.2,0.5,0.3l0.1,0.1
      c0.2,0.1,0.4,0.2,0.6,0.3c0.2,0.1,0.4,0.2,0.6,0.3l0.2,0.1c0.2,0.1,0.4,0.2,0.7,0.3c0.2,0.1,0.5,0.2,0.7,0.3l0.2,0.1
      c0.2,0.1,0.4,0.1,0.6,0.2h0.1c0.2,0.1,0.5,0.2,0.7,0.2l0.2,0.1c0.2,0.1,0.4,0.1,0.6,0.2h0.1c0.3,0.1,0.5,0.1,0.8,0.2l1,0.2
      c0.3,0.1,0.5,0.1,0.8,0.2h0.1c0.2,0,0.5,0.1,0.8,0.1h0.1c0.3,0,0.5,0.1,0.8,0.1s0.5,0.1,0.8,0.1h0.2c0.2,0,0.5,0,0.7,0.1h0.1
      c0.3,0,0.5,0,0.8,0.1h0.2c0.2,0,0.4,0,0.7,0h0.2c0.3,0,0.5,0,0.8,0h0.2c0.2,0,0.4,0,0.6,0h0.2c0.3,0,0.5,0,0.8,0h0.1
      c0.2,0,0.4,0,0.6,0h0.2c0.2,0,0.5,0,0.8-0.1c0.2,0,0.4-0.1,0.7-0.1h0.2c0.2,0,0.4-0.1,0.7-0.1c0.2,0,0.4-0.1,0.6-0.1h0.2
      c0.2,0,0.4-0.1,0.6-0.2c0.2-0.1,0.4-0.1,0.6-0.2L149.9,240.1z M132.4,239L132.4,239L132.4,239L132.4,239z M148.8,249.4v0.1v0.1
      c0,0,0,0.1-0.1,0.1l-0.1,0.1c-0.1,0.1-0.1,0.1-0.2,0.2c-1.5,1.1-5.9,1.9-11.4,1.1c-5.5-0.7-9.6-2.6-10.7-4.1l-0.1-0.1
      c0-0.1-0.1-0.1-0.1-0.2c0,0,0-0.1-0.1-0.1v-0.1v-0.1l0.4-3.1l0.1,0.1l0.1,0.1c1.3,1,3.3,1.9,5.7,2.6c0.7,0.2,1.4,0.4,2.3,0.6
      l0.9,0.2c0.2,0,0.4,0.1,0.6,0.1l0.4,0.1c0.3,0.1,0.7,0.1,1,0.2c0.3,0,0.7,0.1,1,0.1h0.4c0.2,0,0.4,0,0.7,0.1l1,0.1
      c0.8,0,1.6,0,2.3,0c2.6-0.1,4.8-0.4,6.4-1.1C149.2,246.4,148.8,249.1,148.8,249.4z M133.2,239.2L133.2,239.2L133.2,239.2
      L133.2,239.2L133.2,239.2z M136.6,240.1L136.6,240.1L136.6,240.1L136.6,240.1z M140.1,240.5L140.1,240.5L140.1,240.5L140.1,240.5z
        M112.2,230.2c0.1-0.7,0.8-1.3,1.5-1.2l13.1,1.8c-0.7,0.5-1.2,1-1.5,1.7c-0.1,0.2-0.2,0.3-0.2,0.5l-1.2,8.7l-11.8-1.6
      c-0.7-0.1-1.3-0.8-1.2-1.5L112.2,230.2z M110.4,243.6c0-0.4,0.2-0.7,0.5-0.9c0.3-0.2,0.6-0.3,1-0.3l11.8,1.6l-1.2,8.6l0.1,0.9v0.1
      c0,0.1,0,0.1,0.1,0.2s0.1,0.3,0.2,0.4s0.1,0.3,0.2,0.4l0.1,0.2c0.1,0.2,0.3,0.4,0.5,0.5l-13.3-1.8c-0.7-0.1-1.3-0.8-1.2-1.5
      L110.4,243.6z M138.6,238.4c-3.1-0.4-6.1-1.3-8.2-2.3c-2-1-2.9-2-2.8-2.5v-0.1c0-0.1,0.1-0.1,0.1-0.2c0.2-0.3,0.7-0.6,1.4-0.9h0.1
      c0.1,0,0.3-0.1,0.4-0.1c0.2-0.1,0.3-0.1,0.5-0.2h0.1c0.8-0.2,1.8-0.4,2.9-0.4c0.4,0,0.7,0,1.1-0.1h0.3c0.2,0,0.4,0,0.5,0
      c3.1,0,6.4,0.5,9.3,1.3l0.3,0.1c0.3,0.1,0.7,0.2,1,0.3c3.3,1.2,5,2.6,4.9,3.4C150.4,237.8,145.7,239.4,138.6,238.4z M149.8,231.5
      l-3.3-0.5c-0.5-0.2-0.9-0.3-1.4-0.5H145c-1.6-0.5-3.4-0.9-5.2-1.1c-1.6-0.2-3.2-0.3-4.7-0.3c-0.2,0-0.4,0-0.6,0h-0.2
      c-0.5,0-1,0-1.5,0.1l0,0l-18.8-2.5c-0.4,0-0.7-0.2-0.9-0.5c-0.2-0.3-0.3-0.6-0.3-1l1.1-8.3c0.1-0.7,0.8-1.3,1.5-1.2l35.8,4.8
      c0.4,0,0.7,0.2,0.9,0.5c0.2,0.3,0.3,0.6,0.3,1l-1.1,8.3C151.3,231.1,150.6,231.6,149.8,231.5z M148.4,255.9L148.4,255.9
      L148.4,255.9L148.4,255.9z"/>
    <path class="st4" d="M146.2,224.4c0.1-0.4,0.4-0.7,0.8-0.6c0.4,0.1,0.7,0.4,0.6,0.8c-0.1,0.4-0.4,0.7-0.8,0.6
      C146.4,225.1,146.2,224.7,146.2,224.4z M143.4,224c0.1-0.4,0.4-0.7,0.8-0.6c0.4,0.1,0.7,0.4,0.6,0.8c-0.1,0.4-0.4,0.7-0.8,0.6
      C143.6,224.7,143.3,224.3,143.4,224z M147.3,226.6c0.1-0.4,0.4-0.7,0.8-0.6c0.4,0.1,0.7,0.4,0.6,0.8c-0.1,0.4-0.4,0.7-0.8,0.6
      C147.6,227.3,147.3,227,147.3,226.6z M144.6,226.3c0.1-0.4,0.4-0.7,0.8-0.6c0.4,0.1,0.7,0.4,0.6,0.8c-0.1,0.4-0.4,0.7-0.8,0.6
      C144.8,227,144.5,226.7,144.6,226.3z M140.6,223.6c0.1-0.4,0.4-0.7,0.8-0.6c0.4,0.1,0.7,0.4,0.6,0.8c-0.1,0.4-0.4,0.7-0.8,0.6
      C140.9,224.3,140.6,223.9,140.6,223.6z M141.8,225.9c0.1-0.4,0.4-0.7,0.8-0.6c0.4,0.1,0.7,0.4,0.6,0.8c-0.1,0.4-0.4,0.7-0.8,0.6
      C142,226.6,141.7,226.3,141.8,225.9z M137.8,223.2c0.1-0.4,0.4-0.7,0.8-0.6c0.4,0.1,0.7,0.4,0.6,0.8c-0.1,0.4-0.4,0.7-0.8,0.6
      C138,223.9,137.7,223.5,137.8,223.2z M138.9,225.5c0.1-0.4,0.4-0.7,0.8-0.6c0.4,0.1,0.7,0.4,0.6,0.8c-0.1,0.4-0.4,0.7-0.8,0.6
      C139.1,226.2,138.9,225.9,138.9,225.5z M134.9,222.9c0.1-0.4,0.4-0.7,0.8-0.6c0.4,0.1,0.7,0.4,0.6,0.8c-0.1,0.4-0.4,0.7-0.8,0.6
      C135.2,223.6,134.9,223.2,134.9,222.9z M136.1,225.1c0.1-0.4,0.4-0.7,0.8-0.6c0.4,0.1,0.7,0.4,0.6,0.8c-0.1,0.4-0.4,0.7-0.8,0.6
      C136.3,225.8,136,225.5,136.1,225.1z"/>
    <path class="st3" d="M119.4,218.6c-1.7-0.2-3.4,1-3.6,2.7c-0.2,1.7,1,3.4,2.7,3.6c1.7,0.2,3.4-1,3.6-2.7
      C122.3,220.4,121.1,218.8,119.4,218.6z M118.7,223.5c-1-0.1-1.7-1-1.5-2c0.1-1,1-1.7,2-1.5c1,0.1,1.7,1,1.5,2
      C120.6,222.9,119.7,223.6,118.7,223.5z M117.6,232c-1.7-0.2-3.4,1-3.6,2.7c-0.2,1.7,1,3.4,2.7,3.6s3.4-1,3.6-2.7
      C120.5,233.8,119.3,232.2,117.6,232z M116.9,236.9c-1-0.1-1.7-1-1.5-2c0.1-1,1-1.7,2-1.5c1,0.1,1.7,1,1.5,2S117.9,237,116.9,236.9
      z M115.7,245.4c-1.7-0.2-3.4,1-3.6,2.7s1,3.4,2.7,3.6s3.4-1,3.6-2.7C118.7,247.2,117.5,245.6,115.7,245.4z M115.1,250.3
      c-1-0.1-1.7-1-1.5-2c0.1-1,1-1.7,2-1.5c1,0.1,1.7,1,1.5,2C117,249.7,116.1,250.4,115.1,250.3z"/>
  </g>
</g>
<g id="decentralized">

    <linearGradient id="bg-d_1_" gradientUnits="userSpaceOnUse" x1="590.7272" y1="668.9338" x2="410.8728" y2="585.0663" gradientTransform="matrix(1 0 0 1 0 -438)">
    <stop  offset="0" style="stop-color:#4563FF"/>
    <stop  offset="1" style="stop-color:#30B24B"/>
  </linearGradient>
  <circle id="bg-d" class="st7" cx="500.8" cy="189" r="99.2"/>

    <linearGradient id="center-decentralized_1_" gradientUnits="userSpaceOnUse" x1="513.6381" y1="632.9865" x2="487.9413" y2="621.0039" gradientTransform="matrix(1 0 0 1 0 -438)">
    <stop  offset="0" style="stop-color:#4563FF"/>
    <stop  offset="1" style="stop-color:#30B24B"/>
  </linearGradient>
  <circle id="center-decentralized" class="st8" cx="500.8" cy="189" r="14.2"/>
  <path id="Bitcoin" class="st2" d="M464.4,145.5c0.7-4.5-2.8-6.9-7.7-8.5l1.6-6.1l-3.8-0.9l-1.5,5.9c-1-0.2-2-0.5-3.1-0.7l1.5-5.9
    l-3.8-0.9l-1.6,6c-0.8-0.2-1.7-0.4-2.5-0.6l0,0l-5.3-1.3l-1,3.9c0,0,2.8,0.6,2.8,0.7c1.6,0.4,1.8,1.4,1.8,2.1
    c-4.3,16.6,0,0-4.3,16.6c-0.2,0.5-0.7,1.1-1.8,0.9c0,0.1-2.8-0.7-2.8-0.7l-1.9,4.2l5,1.2c0.9,0.2,1.8,0.5,2.7,0.7l-1.6,6.1l3.8,0.9
    l1.6-6.1c1,0.3,2.1,0.5,3.1,0.8l-1.6,6l3.8,0.9l1.6-6.1c6.5,1.2,11.5,0.7,13.5-5c1.7-4.6-0.1-7.2-3.5-8.9
    C462,150.3,463.9,148.7,464.4,145.5L464.4,145.5z M455.6,157.3c-1.2,4.6-9.2,2.1-11.8,1.5l2.1-8.1
    C448.5,151.3,456.9,152.5,455.6,157.3z M456.8,145.4c-1.1,4.2-7.8,2-9.9,1.5l1.9-7.4C451,140.1,457.9,141.1,456.8,145.4z"/>
  <g id="Blockchain">
    <path class="st2" d="M544,167.4l-2.8-10.9l-9.9-3.1l-7.4,7.4l2.8,10.9l9.9,3.1L544,167.4z M541.6,166.7l-4.5,4.4l-1.5-5.7l4.5-4.4
      L541.6,166.7z M526.7,161.5l5.4-5.5l7.3,2.3v0.1l-5.4,5.5L526.7,161.5L526.7,161.5z M534.8,171.7l-6-1.8l-1.5-5.7l6,1.8
      L534.8,171.7z M574.5,148.2l-2.8-10.9l-9.9-3.1l-7.4,7.4l2.8,10.9l9.9,3.1L574.5,148.2z M572,147.4l-4.5,4.4l-1.5-5.7l4.5-4.4
      L572,147.4z M557.1,142.3l5.4-5.5l7.3,2.3v0.1l-5.4,5.5L557.1,142.3L557.1,142.3z M565.2,152.4l-6-1.8l-1.5-5.7l6,1.8L565.2,152.4
      z M560.3,176.5l-7.4,7.4l2.8,10.9l9.9,3.1l7.4-7.4l-2.8-10.9L560.3,176.5z M563.7,194.8l-6-1.8l-1.5-5.7l6,1.8L563.7,194.8z
        M570.4,189.8l-4.5,4.4l-1.5-5.7l4.5-4.4L570.4,189.8z M568.3,181.5l-5.4,5.5l-7.3-2.3v-0.1l5.4-5.5L568.3,181.5L568.3,181.5z
        M568.4,209.1l-7.4,7.4l2.8,10.9l9.9,3.1l7.4-7.4l-2.8-10.9L568.4,209.1z M571.7,227.4l-6-1.8l-1.5-5.7l6,1.8L571.7,227.4z
        M578.5,222.4l-4.5,4.4l-1.5-5.7l4.5-4.4L578.5,222.4z M576.4,214l-5.4,5.5l-7.3-2.3v-0.1l5.4-5.5L576.4,214L576.4,214z
        M538.4,227.9l-7.4,7.4l2.8,10.9l9.9,3.1l7.4-7.4l-2.8-10.9L538.4,227.9z M541.8,246.2l-6-1.8l-1.5-5.7l6,1.8L541.8,246.2z
        M548.5,241.2l-4.5,4.4l-1.5-5.7l4.5-4.4L548.5,241.2z M546.4,232.9l-5.4,5.5l-7.3-2.3V236l5.4-5.5L546.4,232.9L546.4,232.9z"/>
    <path class="st4" d="M555,153.1c0.2,0.6-0.3,1.2-0.8,1.4c-0.6,0.2-1.2-0.3-1.4-0.8s0.3-1.2,0.8-1.4
      C554.3,152.1,554.8,152.5,555,153.1z M550.5,154.2c0.2,0.6-0.3,1.2-0.8,1.4c-0.5,0.2-1.2-0.3-1.4-0.8c-0.2-0.6,0.3-1.2,0.8-1.4
      C549.8,153.2,550.3,153.6,550.5,154.2z M546,155.3c0.2,0.6-0.3,1.2-0.8,1.4c-0.6,0.2-1.2-0.3-1.4-0.8c-0.2-0.6,0.3-1.2,0.8-1.4
      C545.2,154.3,545.8,154.8,546,155.3z M538.7,177.8c0.2,0.6-0.3,1.2-0.8,1.4c-0.6,0.2-1.2-0.3-1.4-0.8c-0.2-0.6,0.3-1.2,0.8-1.4
      C537.9,176.8,538.5,177.2,538.7,177.8z M539.8,182.3c0.2,0.6-0.3,1.2-0.8,1.4c-0.6,0.2-1.2-0.3-1.4-0.8c-0.2-0.6,0.3-1.2,0.8-1.4
      C539,181.4,539.6,181.7,539.8,182.3z M568.7,205.5c0.2,0.6-0.3,1.2-0.8,1.4c-0.6,0.2-1.2-0.3-1.4-0.8c-0.2-0.6,0.3-1.2,0.8-1.4
      C567.8,204.5,568.5,204.8,568.7,205.5z M567.5,201c0.2,0.6-0.3,1.2-0.8,1.4c-0.6,0.2-1.2-0.3-1.4-0.8c-0.2-0.6,0.3-1.2,0.8-1.4
      C566.7,200,567.4,200.3,567.5,201z M552.5,229.9c0.2,0.6-0.3,1.2-0.8,1.4c-0.6,0.2-1.2-0.3-1.4-0.8c-0.2-0.6,0.3-1.2,0.8-1.4
      C551.8,228.9,552.3,229.3,552.5,229.9z M557,228.8c0.2,0.6-0.3,1.2-0.8,1.4c-0.6,0.2-1.2-0.3-1.4-0.8s0.3-1.2,0.8-1.4
      C556.3,227.8,556.9,228.2,557,228.8z M561.6,227.7c0.2,0.6-0.3,1.2-0.8,1.4c-0.6,0.2-1.2-0.3-1.4-0.8s0.3-1.2,0.8-1.4
      C560.8,226.6,561.4,227.1,561.6,227.7z M545.9,185.6c0.2,0.6-0.3,1.2-0.8,1.4c-0.6,0.2-1.2-0.3-1.4-0.8c-0.2-0.6,0.3-1.2,0.8-1.4
      C545.1,184.5,545.8,185,545.9,185.6z M550.5,184.4c0.2,0.6-0.3,1.2-0.8,1.4c-0.6,0.2-1.2-0.3-1.4-0.8c-0.2-0.6,0.3-1.2,0.8-1.4
      C549.6,183.4,550.3,183.9,550.5,184.4z M541.1,186.8c0.2,0.6-0.3,1.2-0.8,1.4c-0.6,0.2-1.2-0.3-1.4-0.8s0.3-1.2,0.8-1.4
      C540.4,185.7,540.9,186.1,541.1,186.8z"/>
  </g>
  <path id="ETH" class="st2" d="M495.8,113.4l-1.9-2.4l-1.1,2.8l-9,23.6l14.6,14.5l1.7,1.6l1.2-2.1l9.7-18L495.8,113.4z M495.3,130.2
    l-6.9,3.8l5.3-14L495.3,130.2z M495.7,133.3l0.7,4.6l-6.6-1.4L495.7,133.3z M498.7,132.9l6.6,1.4l-5.9,3.2L498.7,132.9z
      M505.7,131.3l-7.5-1.6l-1.5-10.2L505.7,131.3z M499.5,148.7l-9-8.9l8,1.7l7-3.8L499.5,148.7z"/>
  <g id="AI">
    <path class="st2" d="M471.3,221.7l-10,1.1l-0.2-1.4l2.7-0.3c0.3,0,0.6-0.3,0.5-0.7c0-0.3-0.3-0.6-0.7-0.5l-2.7,0.3l-0.2-1.4
      l1.9-0.2c0.7-0.1,1.3-0.4,1.8-1l3.6-4.5c0.3,0.1,0.6,0.1,0.9,0.1c0.5-0.1,1-0.3,1.3-0.7s0.5-0.9,0.4-1.4s-0.3-1-0.7-1.3
      c-0.4-0.3-0.9-0.5-1.4-0.4s-1,0.3-1.3,0.7s-0.5,0.9-0.4,1.4c0,0.3,0.1,0.6,0.3,0.8l-3.6,4.5c-0.2,0.3-0.6,0.5-0.9,0.5l-1.9,0.2
      l-0.2-1.4c-0.2-1.8-1.8-3.1-3.6-2.9l-1.4,0.2l-0.6-5.5c0.7-0.3,1.2-1.1,1.1-2c-0.1-1.1-1.1-1.8-2.2-1.7s-1.8,1.1-1.7,2.2
      c0.1,0.9,0.7,1.5,1.5,1.7l0.6,5.5l-1.4,0.2l-0.3-2.7c0-0.3-0.3-0.6-0.7-0.5c-0.3,0-0.6,0.3-0.5,0.7l0.3,2.7l-1.4,0.2l-1.1-10
      c0-0.3-0.3-0.6-0.7-0.5c-0.3,0-0.6,0.3-0.5,0.7l1.1,10l-1.4,0.2l-0.3-2.7c0-0.3-0.3-0.6-0.7-0.5c-0.3,0-0.6,0.3-0.5,0.7l0.3,2.7
      L445,215l-0.2-1.9c-0.1-0.7-0.4-1.3-1-1.8l-4.5-3.6c0.3-0.8,0.1-1.7-0.6-2.2c-0.8-0.7-2.1-0.5-2.7,0.3c-0.7,0.8-0.5,2.1,0.3,2.7
      c0.4,0.3,0.9,0.5,1.4,0.4c0.3,0,0.6-0.1,0.8-0.3l4.5,3.6c0.3,0.2,0.5,0.6,0.5,0.9l0.2,1.9l-1.4,0.2c-0.3,0-0.5,0.1-0.8,0.2
      c-0.3,0.1-0.5,0.5-0.4,0.8c0.1,0.3,0.5,0.5,0.8,0.4c0.2-0.1,0.3-0.1,0.5-0.1l14.5-1.7c1.1-0.1,2.1,0.7,2.3,1.8l1.7,14.5
      c0,0.2,0,0.3,0,0.5c0,0.3,0.2,0.7,0.5,0.7c0.1,0,0.1,0,0.2,0c0.3,0,0.5-0.2,0.5-0.5c0-0.3,0-0.6,0-0.8l-0.2-1.4l5.5-0.6
      c0.3,0.7,1.1,1.2,2,1.1c1.1-0.1,1.8-1.1,1.7-2.2c-0.1-1.1-1.1-1.8-2.2-1.7c-0.9,0.1-1.5,0.7-1.7,1.5l-5.5,0.6l-0.2-1.4l2.7-0.3
      c0.3,0,0.6-0.3,0.5-0.7s-0.3-0.6-0.7-0.5l-2.7,0.3l-0.2-1.4l10-1.1c0.3,0,0.6-0.3,0.5-0.7C472,221.9,471.7,221.6,471.3,221.7z
        M468.2,210.8c0.1-0.1,0.3-0.2,0.5-0.3c0.2,0,0.4,0,0.5,0.1s0.2,0.3,0.3,0.5c0,0.2,0,0.4-0.1,0.5s-0.3,0.2-0.5,0.3
      c-0.2,0-0.4,0-0.5-0.1s-0.2-0.3-0.3-0.5C468.1,211.1,468.1,210.9,468.2,210.8z M438,207.2c-0.2,0.3-0.7,0.4-1,0.1
      c-0.3-0.2-0.4-0.7-0.1-1c0.1-0.2,0.3-0.2,0.5-0.3c0.2,0,0.4,0,0.5,0.1C438.2,206.5,438.2,206.9,438,207.2z M454.2,206.9
      c-0.4,0-0.7-0.2-0.8-0.6c0-0.4,0.2-0.7,0.6-0.8c0.4,0,0.7,0.2,0.8,0.6C454.9,206.5,454.6,206.9,454.2,206.9z M469.3,227.2
      c0.4,0,0.7,0.2,0.8,0.6c0,0.4-0.2,0.7-0.6,0.8c-0.4,0-0.7-0.2-0.8-0.6C468.6,227.6,468.9,227.2,469.3,227.2z M465.6,241
      c-0.7-0.5-1.6-0.6-2.3-0.1l-4.5-3.6c-0.3-0.2-0.5-0.6-0.5-0.9l-0.2-1.9l1.4-0.2c0.3,0,0.5-0.1,0.8-0.2c0.3-0.1,0.5-0.5,0.4-0.8
      c-0.1-0.3-0.5-0.5-0.8-0.4c-0.2,0.1-0.3,0.1-0.5,0.1l-14.5,1.7c-1.1,0.1-2.1-0.7-2.3-1.8l-1.7-14.5c0-0.2,0-0.3,0-0.5
      c0-0.3-0.2-0.7-0.5-0.7s-0.7,0.2-0.7,0.5c0,0.3,0,0.6,0,0.8l0.2,1.4l-5.5,0.6c-0.3-0.7-1.1-1.2-2-1.1c-1.1,0.1-1.8,1.1-1.7,2.2
      c0.1,1.1,1.1,1.8,2.2,1.7c0.9-0.1,1.5-0.7,1.7-1.5l5.5-0.6l0.2,1.4l-2.7,0.3c-0.3,0-0.6,0.3-0.5,0.7c0,0.3,0.3,0.6,0.7,0.5
      l2.7-0.3l0.2,1.4l-10,1.1c-0.3,0-0.6,0.3-0.5,0.7c0,0.3,0.3,0.6,0.7,0.5l10-1.1l0.2,1.4l-2.7,0.3c-0.3,0-0.6,0.3-0.5,0.7
      s0.3,0.6,0.7,0.5l2.7-0.3l0.2,1.4l-1.9,0.2c-0.7,0.1-1.3,0.4-1.8,1l-3.6,4.5c-0.3-0.1-0.6-0.1-0.9-0.1c-0.5,0.1-1,0.3-1.3,0.7
      s-0.5,0.9-0.4,1.4s0.3,1,0.7,1.3c0.4,0.3,0.9,0.5,1.4,0.4s1-0.3,1.3-0.7s0.5-0.9,0.4-1.4c0-0.3-0.1-0.6-0.3-0.8l3.6-4.5
      c0.2-0.3,0.6-0.5,0.9-0.5l1.9-0.2l0.2,1.4c0.2,1.8,1.8,3.1,3.6,2.9l1.4-0.2l0.6,5.5c-0.7,0.3-1.2,1.1-1.1,2
      c0.1,1.1,1.1,1.8,2.2,1.7s1.8-1.1,1.7-2.2c-0.1-0.9-0.7-1.5-1.5-1.7l-0.6-5.5l1.4-0.2l0.3,2.7c0,0.3,0.3,0.6,0.7,0.5
      c0.3,0,0.6-0.3,0.5-0.7l-0.3-2.7l1.4-0.2l1.1,10c0,0.3,0.3,0.6,0.7,0.5c0.3,0,0.6-0.3,0.5-0.7l-1.1-10l1.4-0.2l0.3,2.7
      c0,0.3,0.3,0.6,0.7,0.5c0.3,0,0.6-0.3,0.5-0.7l-0.3-2.7l1.4-0.2l0.2,1.9c0.1,0.7,0.4,1.3,1,1.8l4.5,3.6c-0.3,0.8-0.1,1.7,0.6,2.2
      c0.4,0.3,0.9,0.5,1.4,0.4s1-0.3,1.3-0.7C466.6,242.9,466.4,241.7,465.6,241z M432.5,222.1c-0.4,0-0.7-0.2-0.8-0.6
      c0-0.4,0.2-0.7,0.6-0.8c0.4,0,0.7,0.2,0.8,0.6C433.2,221.7,432.9,222.1,432.5,222.1z M433.6,238.6c-0.1,0.1-0.3,0.2-0.5,0.3
      c-0.2,0-0.4,0-0.5-0.1s-0.2-0.3-0.3-0.5c0-0.2,0-0.4,0.1-0.5s0.3-0.2,0.5-0.3c0.2,0,0.4,0,0.5,0.1s0.2,0.3,0.3,0.5
      C433.8,238.3,433.7,238.4,433.6,238.6z M448.4,243.1c0,0.4-0.2,0.7-0.6,0.8c-0.4,0-0.7-0.2-0.8-0.6c0-0.4,0.2-0.7,0.6-0.8
      S448.3,242.7,448.4,243.1z M464.9,243c-0.2,0.3-0.7,0.4-1,0.1c-0.3-0.2-0.4-0.7-0.1-1c0.1-0.2,0.3-0.2,0.5-0.3
      c0.2,0,0.4,0,0.5,0.1C465.1,242.2,465.2,242.7,464.9,243z"/>
    <path class="st4" d="M457.3,222.3c-0.2-1.3-1.2-2.3-2.6-2.5c0-0.2,0-0.3,0-0.5c-0.1-1.3-1.4-2.1-2.7-2c-0.7,0.1-1.4,0.5-1.8,1
      c-0.5-0.4-1.2-0.6-1.9-0.6c-1.4,0.2-2.4,1.3-2.2,2.6c0,0.2,0.1,0.3,0.1,0.5c-1.3,0.5-2.1,1.7-2,3.1c0.1,0.6,0.4,1.2,0.9,1.7
      c-0.4,0.6-0.5,1.3-0.4,2c0.1,1.1,0.8,2,1.8,2.5l0,0c0.2,1.4,1.6,2.5,3.2,2.3c0.9-0.1,1.7-0.6,2.1-1.2c0.6,0.5,1.4,0.8,2.3,0.7
      c1.5-0.2,2.6-1.4,2.6-2.8c0.9-0.6,1.3-1.6,1.2-2.6c-0.1-0.7-0.5-1.4-1.1-1.9C457.1,223.7,457.4,223,457.3,222.3z M455.4,225
      c0.6,0.2,1.1,0.7,1.1,1.3c0.1,0.4-0.1,0.9-0.4,1.2c-0.4-0.6-1-1-1.8-1.1c-0.3-0.1-0.7,0.2-0.7,0.5c-0.1,0.3,0.2,0.7,0.5,0.7
      c0.7,0.1,1.1,0.6,1.2,1.2c0.1,0.8-0.6,1.4-1.5,1.6c-0.9,0.1-1.7-0.4-1.8-1.2l-0.5-4c-0.1-0.8,0.6-1.4,1.5-1.6
      c0.3,0,0.6-0.3,0.5-0.7c0-0.3-0.3-0.6-0.7-0.5c-0.6,0.1-1.1,0.3-1.6,0.6l-0.1-0.8c0-0.3-0.3-0.6-0.7-0.5c-0.3,0-0.6,0.3-0.5,0.7
      l0.4,3.4c-0.2-0.1-0.5-0.2-0.7-0.2c-0.3-0.1-0.7,0.2-0.7,0.5c-0.1,0.3,0.2,0.7,0.5,0.7c0.7,0.1,1.1,0.6,1.2,1.2l0.2,1.3
      c0.1,0.8-0.6,1.4-1.5,1.6c-0.9,0.1-1.7-0.4-1.8-1.2c0-0.3,0.1-0.7,0.3-0.9c0.2-0.3,0.2-0.7-0.1-0.9c-0.3-0.2-0.7-0.2-0.9,0.1
      c-0.1,0.2-0.2,0.3-0.3,0.5c-0.4-0.3-0.7-0.8-0.8-1.3c-0.1-0.9,0.5-1.8,1.5-2.2c0.3-0.1,0.5-0.5,0.4-0.8c-0.1-0.3-0.5-0.5-0.8-0.4
      c-0.4,0.1-0.8,0.3-1.1,0.6c-0.3-0.3-0.4-0.6-0.4-0.9c-0.1-0.9,0.7-1.8,1.8-1.9l0,0c0.1,0,0.3-0.1,0.4-0.2c0.2-0.2,0.2-0.6,0-0.8
      l0,0l0,0l0,0l0,0c-0.1-0.1-0.3-0.3-0.3-0.6c-0.1-0.6,0.4-1.1,1.1-1.2c0.7-0.1,1.3,0.3,1.4,0.9c0,0.3,0.3,0.6,0.7,0.5
      c0.3,0,0.6-0.3,0.5-0.7c-0.1-0.6,0.4-1.1,1.1-1.2c0.7-0.1,1.3,0.3,1.4,0.9c0,0.2,0,0.3,0,0.4c-0.3,0.1-0.7,0.2-1,0.4
      c-0.3,0.2-0.4,0.5-0.2,0.8c0.2,0.3,0.5,0.4,0.8,0.2c0.3-0.1,0.5-0.2,0.8-0.3l0,0l0,0c1.1-0.1,2.1,0.5,2.2,1.5
      c0.1,0.6-0.2,1.2-0.8,1.5c-0.2,0.1-0.3,0.4-0.3,0.6C455,224.8,455.2,225,455.4,225z"/>
  </g>
  <path id="Eos" class="st2" d="M499.6,269.5L499.6,269.5c-0.2,0-0.4-0.1-0.6-0.2l-13.2-8.4c-0.2-0.1-0.3-0.3-0.4-0.4
    c0-0.1-0.1-0.1-0.1-0.2s0-0.3,0-0.5l0,0l0,0c0,0,0,0,0-0.1l4.4-19.7c0-0.2,0.1-0.3,0.2-0.5l9-12.2c0.2-0.3,0.6-0.5,0.9-0.5
    c0.4,0,0.7,0.2,0.9,0.5l8.9,12.2l0.1,0.1l0,0l0,0v0.1c0,0.1,0.1,0.2,0.1,0.3l4.2,19.8c0,0,0,0,0,0.1l0,0l0,0c0,0.2,0,0.3,0,0.5
    c0,0.1,0,0.2-0.1,0.2c-0.1,0.2-0.2,0.3-0.4,0.4l-13.3,8.2C500,269.5,499.8,269.5,499.6,269.5z M490.2,261.2l7.4,4.7l-1.4-4.6
    L490.2,261.2z M503.1,261.3l-1.5,4.6l7.4-4.6H503.1z M498.5,261.2l1.1,3.5l1.1-3.5H498.5z M503.8,259h7.2l-4.5-8.1L503.8,259z
      M497.8,259h3.7l3.5-10.7l-5.2-9.3l-5.3,9.3L497.8,259z M488.3,258.9h7.2l-2.5-8.1L488.3,258.9z M507.4,248l2.9,5.1l-1.8-8.5
    L507.4,248z M491,244.6l-1.9,8.4l2.9-5.1L491,244.6z M500.9,236.4l5,9l1.5-4.8l-6.5-9V236.4z M492,240.5l1.5,4.8l5.1-8.9v-4.8
    L492,240.5z"/>
</g>
<g id="mesg-bridge_1_">
  <g id="Top">
    <g id="Connection-top">
      <line class="st10" x1="196.2" y1="170.8" x2="217.3" y2="104.9"/>
      <line class="st11" x1="403.8" y1="170.8" x2="382.7" y2="104.9"/>
      <linearGradient id="Gradient-1" gradientUnits="userSpaceOnUse" x1="244.8505" y1="89.3496" x2="300.4083" y2="89.3496">
        <stop  offset="0" style="stop-color:#4563FF"/>
        <stop  offset="1" style="stop-color:#30B24B"/>
      </linearGradient>
      <line class="st12" x1="245.3" y1="133.3" x2="300" y2="45.4"/>
      <linearGradient id="Gradient-2" gradientUnits="userSpaceOnUse" x1="299.5596" y1="89.3496" x2="355.1408" y2="89.3496">
        <stop  offset="0" style="stop-color:#4563FF"/>
        <stop  offset="1" style="stop-color:#30B24B"/>
      </linearGradient>
      <line class="st13" x1="354.7" y1="133.3" x2="300" y2="45.4"/>
      <linearGradient id="Gradient-3" gradientUnits="userSpaceOnUse" x1="198.0553" y1="66.3329" x2="300.1739" y2="66.3329">
        <stop  offset="0" style="stop-color:#4563FF"/>
        <stop  offset="1" style="stop-color:#30B24B"/>
      </linearGradient>
      <line class="st14" x1="300" y1="45.4" x2="198.2" y2="87.2"/>
      <linearGradient id="Gradient-4" gradientUnits="userSpaceOnUse" x1="299.794" y1="66.3329" x2="401.9446" y2="66.3329">
        <stop  offset="0" style="stop-color:#4563FF"/>
        <stop  offset="1" style="stop-color:#30B24B"/>
      </linearGradient>
      <line class="st15" x1="401.8" y1="87.2" x2="300" y2="45.4"/>
      <linearGradient id="Gradient-5" gradientUnits="userSpaceOnUse" x1="232.1886" y1="115.1057" x2="300.0621" y2="115.1057">
        <stop  offset="0" style="stop-color:#4563FF"/>
        <stop  offset="1" style="stop-color:#30B24B"/>
      </linearGradient>
      <line class="st16" x1="300" y1="109.7" x2="232.3" y2="120.5"/>
      <linearGradient id="Gradient-6" gradientUnits="userSpaceOnUse" x1="299.9058" y1="115.1057" x2="367.7817" y2="115.1057">
        <stop  offset="0" style="stop-color:#4563FF"/>
        <stop  offset="1" style="stop-color:#30B24B"/>
      </linearGradient>
      <line class="st17" x1="367.7" y1="120.5" x2="300" y2="109.7"/>
      <line class="st10" x1="196.2" y1="170.8" x2="245.3" y2="133.3"/>
      <line class="st11" x1="403.8" y1="170.8" x2="354.7" y2="133.3"/>
      <linearGradient id="Gradient-7" gradientUnits="userSpaceOnUse" x1="217.228" y1="107.3177" x2="300.0132" y2="107.3177">
        <stop  offset="0" style="stop-color:#4563FF"/>
        <stop  offset="1" style="stop-color:#30B24B"/>
      </linearGradient>
      <line class="st18" x1="217.3" y1="104.9" x2="300" y2="109.7"/>
      <linearGradient id="Gradient-8" gradientUnits="userSpaceOnUse" x1="299.9546" y1="107.3177" x2="382.772" y2="107.3177">
        <stop  offset="0" style="stop-color:#4563FF"/>
        <stop  offset="1" style="stop-color:#30B24B"/>
      </linearGradient>
      <line class="st19" x1="382.7" y1="104.9" x2="300" y2="109.7"/>
      <linearGradient id="Gradient-9" gradientUnits="userSpaceOnUse" x1="231.9728" y1="95.8606" x2="300.2779" y2="95.8606">
        <stop  offset="0" style="stop-color:#4563FF"/>
        <stop  offset="1" style="stop-color:#30B24B"/>
      </linearGradient>
      <line class="st20" x1="232.3" y1="120.5" x2="300" y2="71.3"/>
      <linearGradient id="Gradient-10" gradientUnits="userSpaceOnUse" x1="299.69" y1="95.8606" x2="367.9974" y2="95.8606">
        <stop  offset="0" style="stop-color:#4563FF"/>
        <stop  offset="1" style="stop-color:#30B24B"/>
      </linearGradient>
      <line class="st21" x1="367.7" y1="120.5" x2="300" y2="71.3"/>
      <line class="st10" x1="198.2" y1="87.2" x2="217.3" y2="104.9"/>
      <line class="st11" x1="401.8" y1="87.2" x2="382.7" y2="104.9"/>
      <linearGradient id="Gradient-11" gradientUnits="userSpaceOnUse" x1="299.9839" y1="92.7251" x2="299.9839" y2="71.2563">
        <stop  offset="0" style="stop-color:#4563FF"/>
        <stop  offset="1" style="stop-color:#30B24B"/>
      </linearGradient>
      <line class="st22" x1="300" y1="71.3" x2="300" y2="92.7"/>
      <linearGradient id="Gradient-12" gradientUnits="userSpaceOnUse" x1="299.9839" y1="45.4529" x2="299.9839" y2="6.5238">
        <stop  offset="0" style="stop-color:#4563FF"/>
        <stop  offset="1" style="stop-color:#30B24B"/>
      </linearGradient>
      <line class="st23" x1="300" y1="6.5" x2="300" y2="45.5"/>
      <linearGradient id="Gradient-13" gradientUnits="userSpaceOnUse" x1="145.097" y1="38.2475" x2="300.1656" y2="38.2475">
        <stop  offset="0" style="stop-color:#4563FF"/>
        <stop  offset="1" style="stop-color:#30B24B"/>
      </linearGradient>
      <line class="st24" x1="300" y1="6.5" x2="145.3" y2="70"/>
      <linearGradient id="Gradient-14" gradientUnits="userSpaceOnUse" x1="299.7856" y1="38.2475" x2="454.9029" y2="38.2475">
        <stop  offset="0" style="stop-color:#4563FF"/>
        <stop  offset="1" style="stop-color:#30B24B"/>
      </linearGradient>
      <line class="st25" x1="454.7" y1="70" x2="300" y2="6.5"/>
      <linearGradient id="Gradient-15" gradientUnits="userSpaceOnUse" x1="216.8746" y1="55.7063" x2="300.3666" y2="55.7063">
        <stop  offset="0" style="stop-color:#4563FF"/>
        <stop  offset="1" style="stop-color:#30B24B"/>
      </linearGradient>
      <line class="st26" x1="217.3" y1="104.9" x2="300" y2="6.5"/>
      <linearGradient id="Gradient-16" gradientUnits="userSpaceOnUse" x1="299.5929" y1="55.682" x2="383.1254" y2="55.682">
        <stop  offset="0" style="stop-color:#4563FF"/>
        <stop  offset="1" style="stop-color:#30B24B"/>
      </linearGradient>
      <line class="st27" x1="382.7" y1="104.9" x2="300" y2="6.5"/>
    </g>
    <g id="Circles-top">
      <circle class="st10" cx="198.2" cy="87.4" r="5.6"/>
      <circle class="st11" cx="401.8" cy="87.4" r="5.6"/>
      <linearGradient id="Gradient-17" gradientUnits="userSpaceOnUse" x1="293.9" y1="71.4034" x2="306.1" y2="71.4034">
        <stop  offset="0" style="stop-color:#4563FF"/>
        <stop  offset="1" style="stop-color:#30B24B"/>
      </linearGradient>
      <circle class="st30" cx="300" cy="71.4" r="5.6"/>
      <linearGradient id="Gradient-18" gradientUnits="userSpaceOnUse" x1="293.9" y1="92.8469" x2="306.1" y2="92.8469">
        <stop  offset="0" style="stop-color:#4563FF"/>
        <stop  offset="1" style="stop-color:#30B24B"/>
      </linearGradient>
      <circle class="st31" cx="300" cy="92.8" r="5.6"/>
      <linearGradient id="Gradient-19" gradientUnits="userSpaceOnUse" x1="293.9" y1="109.8755" x2="306.1" y2="109.8755">
        <stop  offset="0" style="stop-color:#4563FF"/>
        <stop  offset="1" style="stop-color:#30B24B"/>
      </linearGradient>
      <circle class="st32" cx="300" cy="109.9" r="5.6"/>
      <linearGradient id="Gradient-20" gradientUnits="userSpaceOnUse" x1="293.9" y1="45.5452" x2="306.1" y2="45.5452">
        <stop  offset="0" style="stop-color:#4563FF"/>
        <stop  offset="1" style="stop-color:#30B24B"/>
      </linearGradient>
      <circle class="st33" cx="300" cy="45.5" r="5.6"/>
      <circle class="st10" cx="217.3" cy="105" r="5.6"/>
      <circle class="st11" cx="382.7" cy="105" r="5.6"/>
      <circle class="st10" cx="232.3" cy="120.6" r="5.6"/>
      <circle class="st11" cx="367.7" cy="120.6" r="5.6"/>
      <circle class="st10" cx="245.3" cy="133.3" r="5.6"/>
      <circle class="st11" cx="354.7" cy="133.3" r="5.6"/>
      <circle class="st10" cx="196.2" cy="170.7" r="5.6"/>
      <circle class="st11" cx="403.8" cy="170.7" r="5.6"/>
      <circle class="st10" cx="145.3" cy="70.2" r="6.1"/>
      <circle class="st11" cx="454.7" cy="70.2" r="6.1"/>
      <linearGradient id="Gradient-21" gradientUnits="userSpaceOnUse" x1="293.4" y1="6.6408" x2="306.6" y2="6.6408">
        <stop  offset="0" style="stop-color:#4563FF"/>
        <stop  offset="1" style="stop-color:#30B24B"/>
      </linearGradient>
      <circle class="st34" cx="300" cy="6.6" r="6.1"/>
    </g>
  </g>
  <g id="Bottom">
    <g id="Connection-bottom">
      <line class="st10" x1="196.2" y1="207.1" x2="217.3" y2="273"/>
      <line class="st11" x1="403.8" y1="207.1" x2="382.7" y2="273"/>
      <linearGradient id="Gradient-22" gradientUnits="userSpaceOnUse" x1="244.8505" y1="288.4991" x2="300.4083" y2="288.4991">
        <stop  offset="0" style="stop-color:#4563FF"/>
        <stop  offset="1" style="stop-color:#30B24B"/>
      </linearGradient>
      <line class="st35" x1="245.3" y1="244.6" x2="300" y2="332.4"/>
      <linearGradient id="Gradient-23" gradientUnits="userSpaceOnUse" x1="299.5596" y1="288.4991" x2="355.1408" y2="288.4991">
        <stop  offset="0" style="stop-color:#4563FF"/>
        <stop  offset="1" style="stop-color:#30B24B"/>
      </linearGradient>
      <line class="st36" x1="354.7" y1="244.6" x2="300" y2="332.4"/>
      <linearGradient id="Gradient-24" gradientUnits="userSpaceOnUse" x1="198.0553" y1="311.5158" x2="300.1739" y2="311.5158">
        <stop  offset="0" style="stop-color:#4563FF"/>
        <stop  offset="1" style="stop-color:#30B24B"/>
      </linearGradient>
      <line class="st37" x1="300" y1="332.4" x2="198.2" y2="290.6"/>
      <linearGradient id="Gradient-25" gradientUnits="userSpaceOnUse" x1="299.794" y1="311.5158" x2="401.9446" y2="311.5158">
        <stop  offset="0" style="stop-color:#4563FF"/>
        <stop  offset="1" style="stop-color:#30B24B"/>
      </linearGradient>
      <line class="st38" x1="401.8" y1="290.6" x2="300" y2="332.4"/>
      <linearGradient id="Gradient-26" gradientUnits="userSpaceOnUse" x1="232.1886" y1="262.743" x2="300.0621" y2="262.743">
        <stop  offset="0" style="stop-color:#4563FF"/>
        <stop  offset="1" style="stop-color:#30B24B"/>
      </linearGradient>
      <line class="st39" x1="300" y1="268.1" x2="232.3" y2="257.4"/>
      <linearGradient id="Gradient-27" gradientUnits="userSpaceOnUse" x1="299.9058" y1="262.743" x2="367.7817" y2="262.743">
        <stop  offset="0" style="stop-color:#4563FF"/>
        <stop  offset="1" style="stop-color:#30B24B"/>
      </linearGradient>
      <line class="st40" x1="367.7" y1="257.4" x2="300" y2="268.1"/>
      <line class="st10" x1="196.2" y1="207.1" x2="245.3" y2="244.6"/>
      <line class="st11" x1="403.8" y1="207.1" x2="354.7" y2="244.6"/>
      <linearGradient id="Gradient-28" gradientUnits="userSpaceOnUse" x1="217.228" y1="270.531" x2="300.0132" y2="270.531">
        <stop  offset="0" style="stop-color:#4563FF"/>
        <stop  offset="1" style="stop-color:#30B24B"/>
      </linearGradient>
      <line class="st41" x1="217.3" y1="273" x2="300" y2="268.1"/>
      <linearGradient id="Gradient-29" gradientUnits="userSpaceOnUse" x1="299.9546" y1="270.531" x2="382.772" y2="270.531">
        <stop  offset="0" style="stop-color:#4563FF"/>
        <stop  offset="1" style="stop-color:#30B24B"/>
      </linearGradient>
      <line class="st42" x1="382.7" y1="273" x2="300" y2="268.1"/>
      <linearGradient id="Gradient-30" gradientUnits="userSpaceOnUse" x1="231.9728" y1="281.9881" x2="300.2779" y2="281.9881">
        <stop  offset="0" style="stop-color:#4563FF"/>
        <stop  offset="1" style="stop-color:#30B24B"/>
      </linearGradient>
      <line class="st43" x1="232.3" y1="257.4" x2="300" y2="306.6"/>
      <linearGradient id="Gradient-31" gradientUnits="userSpaceOnUse" x1="299.69" y1="281.9881" x2="367.9974" y2="281.9881">
        <stop  offset="0" style="stop-color:#4563FF"/>
        <stop  offset="1" style="stop-color:#30B24B"/>
      </linearGradient>
      <line class="st44" x1="367.7" y1="257.4" x2="300" y2="306.6"/>
      <line class="st10" x1="198.2" y1="290.6" x2="217.3" y2="273"/>
      <line class="st11" x1="401.8" y1="290.6" x2="382.7" y2="273"/>
      <linearGradient id="Gradient-32" gradientUnits="userSpaceOnUse" x1="299.9839" y1="306.5924" x2="299.9839" y2="285.1236">
        <stop  offset="0" style="stop-color:#4563FF"/>
        <stop  offset="1" style="stop-color:#30B24B"/>
      </linearGradient>
      <line class="st45" x1="300" y1="306.6" x2="300" y2="285.1"/>

        <linearGradient id="Gradient-33" gradientUnits="userSpaceOnUse" x1="299.9839" y1="-255.5285" x2="299.9839" y2="-294.4576" gradientTransform="matrix(1 0 0 -1 0 76.8908)">
        <stop  offset="0" style="stop-color:#30B24B"/>
        <stop  offset="1" style="stop-color:#4563FF"/>
      </linearGradient>
      <line class="st46" x1="300" y1="371.3" x2="300" y2="332.4"/>

        <linearGradient id="Gradient-34" gradientUnits="userSpaceOnUse" x1="145.097" y1="-262.7339" x2="300.1656" y2="-262.7339" gradientTransform="matrix(1 0 0 -1 0 76.8908)">
        <stop  offset="0" style="stop-color:#4563FF"/>
        <stop  offset="1" style="stop-color:#30B24B"/>
      </linearGradient>
      <line class="st47" x1="300" y1="371.4" x2="145.3" y2="307.9"/>

        <linearGradient id="Gradient-35" gradientUnits="userSpaceOnUse" x1="299.7856" y1="-262.7339" x2="454.9029" y2="-262.7339" gradientTransform="matrix(1 0 0 -1 0 76.8908)">
        <stop  offset="0" style="stop-color:#4563FF"/>
        <stop  offset="1" style="stop-color:#30B24B"/>
      </linearGradient>
      <line class="st48" x1="454.7" y1="307.9" x2="300" y2="371.4"/>
      <linearGradient id="Gradient-36" gradientUnits="userSpaceOnUse" x1="258.4986" y1="371.6699" x2="258.4986" y2="272.2379">
        <stop  offset="0" style="stop-color:#30B24B"/>
        <stop  offset="1" style="stop-color:#4563FF"/>
      </linearGradient>
      <line class="st49" x1="217" y1="272.6" x2="300" y2="371.3"/>
      <linearGradient id="Gradient-37" gradientUnits="userSpaceOnUse" x1="341.3633" y1="371.6702" x2="341.3633" y2="272.638">
        <stop  offset="0" style="stop-color:#4563FF"/>
        <stop  offset="1" style="stop-color:#30B24B"/>
      </linearGradient>
      <line class="st50" x1="382.7" y1="273" x2="300" y2="371.3"/>
    </g>
    <g id="Circles-bottom">
      <circle class="st10" cx="196.2" cy="207.1" r="5.6"/>
      <circle class="st11" cx="403.8" cy="207.1" r="5.6"/>
      <circle class="st10" cx="198.2" cy="290.6" r="5.6"/>
      <circle class="st11" cx="401.8" cy="290.6" r="5.6"/>
      <linearGradient id="Gradient-38" gradientUnits="userSpaceOnUse" x1="293.9" y1="306.5966" x2="306.1" y2="306.5966">
        <stop  offset="0" style="stop-color:#4563FF"/>
        <stop  offset="1" style="stop-color:#30B24B"/>
      </linearGradient>
      <circle class="st51" cx="300" cy="306.6" r="5.6"/>
      <linearGradient id="Gradient-39" gradientUnits="userSpaceOnUse" x1="293.9" y1="285.1531" x2="306.1" y2="285.1531">
        <stop  offset="0" style="stop-color:#4563FF"/>
        <stop  offset="1" style="stop-color:#30B24B"/>
      </linearGradient>
      <circle class="st52" cx="300" cy="285.2" r="5.6"/>
      <linearGradient id="Gradient-40" gradientUnits="userSpaceOnUse" x1="293.9" y1="268.1245" x2="306.1" y2="268.1245">
        <stop  offset="0" style="stop-color:#4563FF"/>
        <stop  offset="1" style="stop-color:#30B24B"/>
      </linearGradient>
      <circle class="st53" cx="300" cy="268.1" r="5.6"/>
      <linearGradient id="Gradient-41" gradientUnits="userSpaceOnUse" x1="293.9" y1="332.4548" x2="306.1" y2="332.4548">
        <stop  offset="0" style="stop-color:#4563FF"/>
        <stop  offset="1" style="stop-color:#30B24B"/>
      </linearGradient>
      <circle class="st54" cx="300" cy="332.5" r="5.6"/>
      <circle class="st10" cx="217.3" cy="273" r="5.6"/>
      <circle class="st11" cx="382.7" cy="273" r="5.6"/>
      <circle class="st10" cx="232.3" cy="257.4" r="5.6"/>
      <circle class="st11" cx="367.7" cy="257.4" r="5.6"/>
      <circle class="st10" cx="245.3" cy="244.7" r="5.6"/>
      <circle class="st11" cx="354.7" cy="244.7" r="5.6"/>
      <circle class="st10" cx="145.3" cy="307.6" r="6.1"/>
      <circle class="st11" cx="454.7" cy="307.6" r="6.1"/>

        <linearGradient id="Gradient-42" gradientUnits="userSpaceOnUse" x1="293.4" y1="-294.3406" x2="306.6" y2="-294.3406" gradientTransform="matrix(1 0 0 -1 0 76.8908)">
        <stop  offset="0" style="stop-color:#4563FF"/>
        <stop  offset="1" style="stop-color:#30B24B"/>
      </linearGradient>
      <circle class="st55" cx="300" cy="371.2" r="6.1"/>
    </g>
  </g>
</g>
</svg>
