<svg version="1.1" id="Layer_1" xmlns="http://www.w3.org/2000/svg" xmlns:xlink="http://www.w3.org/1999/xlink" x="0px" y="0px"
    viewBox="0 0 600 600" style="enable-background:new 0 0 600 600;" xml:space="preserve">
<style type="text/css">
.st0{opacity:0.2;fill:#AE3FE8;}
.st1{opacity:0.45;fill:#251440;}
.st2{fill:#1D073F;}
.st3{fill:#491E8C;}
.st4{opacity:0.8;fill:#513FE8;}
.st5{fill:#281B9B;}
.st6{fill:#513FE8;}
.st7{opacity:0.8;fill:#9452FF;}
.st8{fill:#5D28B2;}
.st9{fill:#9452FF;}
.st10{opacity:0.8;fill:#AE3FE8;}
.st11{fill:#6F1B9B;}
.st12{fill:#AE3FE8;}
.st13{fill:#FFFFFF;}
.st14{opacity:0.4;fill:#FFFFFF;}
.st15{fill:url(#gradient--1);}
.st16{fill:url(#coin_2_);}
.st17{fill:#CAC5E4;}
.st18{fill:#221101;}
.st19{fill:#CD9476;}
.st20{fill:#491D8C;}
.st21{fill:url(#gradient--2);}
.st22{fill:#9DE1F3;}
.st23{fill:#27B4E1;}
.st24{fill:#1A82E2;}
.st25{fill:#239FD7;}
.st26{fill:#4D2F15;}
.st27{fill:url(#gradient--3);}
.st28{fill:#DA000A;}
.st29{fill:url(#gradient--4);}
.st30{fill:#EACAB3;}
.st31{fill:#95BF46;}
.st32{fill:#5E8E3E;}
.st33{fill:url(#gradient--5);}
.st34{fill:url(#gradient--6);}
.st35{fill:url(#gradient--7);}
.st36{fill:url(#gradient--8);}
.st37{opacity:0.1;}
.st38{fill:url(#gradient--9);}
.st39{fill:#2F3030;}
.st40{fill:#818283;}
.st41{fill:#343535;}
.st42{fill:url(#gradient--10);}
.st43{fill:#00A1E0;}
.st44{fill:none;stroke:#FFA744;stroke-linecap:round;stroke-linejoin:round;stroke-dasharray:0.2715,2.7149;}
.st45{fill:#FFA744;}
</style>
<g>
  <polygon class="st0" points="300,176.2 0,349.4 0,200.6 300,27.4 	"/>
  <polygon class="st0" points="300,176.2 600,349.4 600,200.6 300,27.4 	"/>
  <g>
    <polygon class="st1" points="300,572.6 0,399.4 300,226.2 600,399.4 		"/>
    <polygon class="st2" points="300,542.6 0,369.4 300,196.2 600,369.4 		"/>
    <polygon class="st3" points="300,522.6 0,349.4 300,176.2 600,349.4 		"/>
    <g>
      <g>
        <g>
          <ellipse class="st4" cx="299.7" cy="222.5" rx="35.4" ry="20.4"/>
          <ellipse class="st5" cx="299.7" cy="222.5" rx="15.7" ry="9.1"/>
          <ellipse class="st6" cx="299.7" cy="218.5" rx="15.7" ry="9.1"/>
        </g>
        <g>
          <ellipse class="st4" cx="302.2" cy="270.2" rx="15.6" ry="9"/>
          <ellipse class="st5" cx="302.2" cy="270.2" rx="7" ry="4"/>
          <ellipse class="st6" cx="302.2" cy="268.2" rx="7" ry="4"/>
        </g>
        <g>
          <path class="st4" d="M280.5,285.1c5.1-0.6,10,1.3,11,4.3c1,2.9-2.3,5.8-7.4,6.4c-5.1,0.6-10-1.3-11-4.3
            C272.1,288.6,275.4,285.7,280.5,285.1z"/>
          <path class="st5" d="M281.5,288.1c2.3-0.3,4.5,0.6,4.9,1.9c0.4,1.3-1,2.6-3.3,2.8c-2.3,0.3-4.5-0.6-4.9-1.9
            S279.2,288.4,281.5,288.1z"/>
          <path class="st6" d="M281.5,287.1c2.3-0.3,4.5,0.6,4.9,1.9c0.4,1.3-1,2.6-3.3,2.8c-2.3,0.3-4.5-0.6-4.9-1.9
            C277.8,288.6,279.2,287.4,281.5,287.1z"/>
        </g>
        <g>
          <path class="st4" d="M233.4,334.7c5.1,0.6,8.4,3.4,7.4,6.4c-1,2.9-6,4.8-11,4.3c-5.1-0.6-8.4-3.4-7.4-6.4
            C223.4,336,228.3,334.1,233.4,334.7z"/>
          <path class="st5" d="M232.4,337.6c2.3,0.3,3.7,1.5,3.3,2.8c-0.4,1.3-2.6,2.2-4.9,1.9c-2.3-0.3-3.7-1.5-3.3-2.8
            C227.9,338.2,230.1,337.4,232.4,337.6z"/>
          <path class="st6" d="M232.4,336.6c2.3,0.3,3.7,1.5,3.3,2.8c-0.4,1.3-2.6,2.2-4.9,1.9c-2.3-0.3-3.7-1.5-3.3-2.8
            C227.9,337.2,230.1,336.4,232.4,336.6z"/>
        </g>
        <g>
          <path class="st4" d="M289.9,383.6c5.1,0.6,8.4,3.4,7.4,6.4c-1,2.9-6,4.8-11,4.3c-5.1-0.6-8.4-3.4-7.4-6.4
            C279.9,384.9,284.8,383,289.9,383.6z"/>
          <path class="st5" d="M288.9,386.5c2.3,0.3,3.7,1.5,3.3,2.8c-0.4,1.3-2.6,2.2-4.9,1.9c-2.3-0.3-3.7-1.5-3.3-2.8
            C284.5,387.1,286.7,386.3,288.9,386.5z"/>
          <path class="st6" d="M288.9,385.5c2.3,0.3,3.7,1.5,3.3,2.8c-0.4,1.3-2.6,2.2-4.9,1.9c-2.3-0.3-3.7-1.5-3.3-2.8
            C284.5,386.1,286.7,385.3,288.9,385.5z"/>
        </g>
        <g>
          <path class="st4" d="M392.1,376.3c4.3,1.7,5.5,5,2.6,7.5c-2.9,2.5-8.7,3.2-13,1.5s-5.5-5-2.6-7.5
            C381.9,375.3,387.8,374.6,392.1,376.3z"/>
          <path class="st5" d="M389.2,378.8c1.9,0.7,2.4,2.2,1.2,3.3c-1.3,1.1-3.9,1.4-5.8,0.7c-1.9-0.7-2.4-2.2-1.2-3.3
            C384.7,378.3,387.3,378,389.2,378.8z"/>
          <path class="st6" d="M389.2,377.8c1.9,0.7,2.4,2.2,1.2,3.3s-3.9,1.4-5.8,0.7c-1.9-0.7-2.4-2.2-1.2-3.3
            C384.7,377.3,387.3,377,389.2,377.8z"/>
        </g>
        <g>
          <path class="st4" d="M358.8,427c10.6-2.5,22.8,0.4,27.2,6.5s-0.6,13.2-11.3,15.7s-22.8-0.4-27.2-6.5
            C343.1,436.6,348.1,429.6,358.8,427z"/>
          <path class="st5" d="M363.2,433.2c4.7-1.1,10.1,0.2,12.1,2.9c2,2.7-0.3,5.8-5,7c-4.7,1.1-10.1-0.2-12.1-2.9
            C356.2,437.5,358.5,434.3,363.2,433.2z"/>
          <path class="st6" d="M363.2,430.2c4.7-1.1,10.1,0.2,12.1,2.9c2,2.7-0.3,5.8-5,7c-4.7,1.1-10.1-0.2-12.1-2.9
            C356.2,434.5,358.5,431.3,363.2,430.2z"/>
        </g>
        <g>
          <path class="st4" d="M217.8,396.8c6.1,3.5,6.1,9.2,0,12.8c-6.1,3.5-16,3.5-22.1,0s-6.1-9.2,0-12.8
            C201.8,393.3,211.7,393.3,217.8,396.8z"/>
          <path class="st5" d="M211.6,400.4c2.7,1.6,2.7,4.1,0,5.7s-7.1,1.6-9.8,0c-2.7-1.6-2.7-4.1,0-5.7S208.9,398.8,211.6,400.4z"/>
          <path class="st6" d="M211.6,398.4c2.7,1.6,2.7,4.1,0,5.7s-7.1,1.6-9.8,0c-2.7-1.6-2.7-4.1,0-5.7S208.9,396.8,211.6,398.4z"/>
        </g>
        <g>
          <path class="st4" d="M154.2,299.7c10.6,2.5,15.7,9.6,11.3,15.7s-16.6,9.1-27.2,6.5c-10.6-2.5-15.7-9.6-11.3-15.7
            S143.6,297.2,154.2,299.7z"/>
          <path class="st5" d="M149.8,305.9c4.7,1.1,7,4.3,5,7c-2,2.7-7.4,4-12.1,2.9s-7-4.3-5-7C139.7,306.1,145.1,304.8,149.8,305.9z"
            />
          <path class="st6" d="M149.8,302.9c4.7,1.1,7,4.3,5,7c-2,2.7-7.4,4-12.1,2.9c-4.7-1.1-7-4.3-5-7
            C139.7,303.1,145.1,301.8,149.8,302.9z"/>
        </g>
        <g>
          <path class="st4" d="M356.8,320.5c4.3-1.7,10.1-1,13,1.5s1.7,5.9-2.6,7.5c-4.3,1.7-10.1,1-13-1.5
            C351.3,325.5,352.5,322.2,356.8,320.5z"/>
          <path class="st5" d="M359.7,323c1.9-0.7,4.5-0.4,5.8,0.7c1.3,1.1,0.8,2.6-1.2,3.3c-1.9,0.7-4.5,0.4-5.8-0.7
            C357.3,325.2,357.8,323.7,359.7,323z"/>
          <path class="st6" d="M359.7,322c1.9-0.7,4.5-0.4,5.8,0.7c1.3,1.1,0.8,2.6-1.2,3.3c-1.9,0.7-4.5,0.4-5.8-0.7
            C357.3,324.2,357.8,322.7,359.7,322z"/>
        </g>
        <g>
          <ellipse class="st4" cx="437.1" cy="348.1" rx="15.6" ry="9"/>
          <ellipse class="st5" cx="437.1" cy="348.1" rx="7" ry="4"/>
          <ellipse class="st6" cx="437.1" cy="346.1" rx="7" ry="4"/>
        </g>
      </g>
      <g>
        <g>
          <path class="st7" d="M237.1,366.7c4.3-1.7,10.1-1,13,1.5c2.9,2.5,1.7,5.9-2.6,7.5s-10.1,1-13-1.5S232.8,368.4,237.1,366.7z"/>
          <path class="st8" d="M240,369.2c1.9-0.7,4.5-0.4,5.8,0.7c1.3,1.1,0.8,2.6-1.2,3.3c-1.9,0.7-4.5,0.4-5.8-0.7
            C237.6,371.5,238.1,370,240,369.2z"/>
          <path class="st9" d="M240,368.2c1.9-0.7,4.5-0.4,5.8,0.7c1.3,1.1,0.8,2.6-1.2,3.3c-1.9,0.7-4.5,0.4-5.8-0.7
            C237.6,370.5,238.1,369,240,368.2z"/>
        </g>
        <g>
          <path class="st7" d="M200.4,354.3c5.1-0.6,10,1.3,11,4.3c1,2.9-2.3,5.8-7.4,6.4s-10-1.3-11-4.3
            C192.1,357.7,195.4,354.9,200.4,354.3z"/>
          <path class="st8" d="M201.5,357.2c2.3-0.3,4.5,0.6,4.9,1.9c0.4,1.3-1,2.6-3.3,2.8c-2.3,0.3-4.5-0.6-4.9-1.9
            C197.7,358.8,199.2,357.5,201.5,357.2z"/>
          <path class="st9" d="M201.5,356.2c2.3-0.3,4.5,0.6,4.9,1.9c0.4,1.3-1,2.6-3.3,2.8c-2.3,0.3-4.5-0.6-4.9-1.9
            C197.7,357.8,199.2,356.5,201.5,356.2z"/>
        </g>
        <g>
          <path class="st7" d="M138.3,374.3c10.6-2.5,22.8,0.4,27.2,6.5c4.4,6.1-0.6,13.2-11.3,15.7c-10.6,2.5-22.8-0.4-27.2-6.5
            C122.6,383.9,127.6,376.8,138.3,374.3z"/>
          <path class="st8" d="M142.7,380.5c4.7-1.1,10.1,0.2,12.1,2.9c2,2.7-0.3,5.8-5,7c-4.7,1.1-10.1-0.2-12.1-2.9
            C135.8,384.7,138,381.6,142.7,380.5z"/>
          <path class="st9" d="M142.7,377.5c4.7-1.1,10.1,0.2,12.1,2.9c2,2.7-0.3,5.8-5,7c-4.7,1.1-10.1-0.2-12.1-2.9
            C135.8,381.7,138,378.6,142.7,377.5z"/>
        </g>
        <g>
          <ellipse class="st7" cx="302.1" cy="426" rx="15.6" ry="9"/>
          <ellipse class="st8" cx="302.1" cy="426" rx="7" ry="4"/>
          <ellipse class="st9" cx="302.1" cy="424" rx="7" ry="4"/>
        </g>
        <g>
          <path class="st7" d="M320.2,400.5c5.1-0.6,10,1.3,11,4.3c1,2.9-2.3,5.8-7.4,6.4c-5.1,0.6-10-1.3-11-4.3
            C311.8,403.9,315.1,401.1,320.2,400.5z"/>
          <path class="st8" d="M321.2,403.4c2.3-0.3,4.5,0.6,4.9,1.9c0.4,1.3-1,2.6-3.3,2.8c-2.3,0.3-4.5-0.6-4.9-1.9
            C317.5,405,318.9,403.7,321.2,403.4z"/>
          <path class="st9" d="M321.2,402.4c2.3-0.3,4.5,0.6,4.9,1.9c0.4,1.3-1,2.6-3.3,2.8c-2.3,0.3-4.5-0.6-4.9-1.9
            C317.5,404,318.9,402.7,321.2,402.4z"/>
        </g>
        <g>
          <ellipse class="st7" cx="300.3" cy="476.2" rx="35.4" ry="20.4"/>
          <ellipse class="st8" cx="300.3" cy="476.2" rx="15.7" ry="9.1"/>
          <ellipse class="st9" cx="300.3" cy="472.2" rx="15.7" ry="9.1"/>
        </g>
        <g>
          <path class="st7" d="M374.6,350.9c5.1,0.6,8.4,3.4,7.4,6.4c-1,2.9-6,4.8-11,4.3c-5.1-0.6-8.4-3.4-7.4-6.4
            C364.6,352.3,369.5,350.3,374.6,350.9z"/>
          <path class="st8" d="M373.6,353.9c2.3,0.3,3.7,1.5,3.3,2.8c-0.4,1.3-2.6,2.2-4.9,1.9c-2.3-0.3-3.7-1.5-3.3-2.8
            C369.1,354.5,371.3,353.6,373.6,353.9z"/>
          <path class="st9" d="M373.6,352.9c2.3,0.3,3.7,1.5,3.3,2.8c-0.4,1.3-2.6,2.2-4.9,1.9c-2.3-0.3-3.7-1.5-3.3-2.8
            C369.1,353.5,371.3,352.6,373.6,352.9z"/>
        </g>
        <g>
          <path class="st7" d="M466.1,374.3c10.6,2.5,15.7,9.6,11.3,15.7s-16.6,9.1-27.2,6.5c-10.6-2.5-15.7-9.6-11.3-15.7
            C443.2,374.7,455.4,371.7,466.1,374.3z"/>
          <path class="st8" d="M461.6,380.5c4.7,1.1,7,4.3,5,7s-7.4,4-12.1,2.9c-4.7-1.1-7-4.3-5-7S456.9,379.4,461.6,380.5z"/>
          <path class="st9" d="M461.6,377.5c4.7,1.1,7,4.3,5,7s-7.4,4-12.1,2.9c-4.7-1.1-7-4.3-5-7S456.9,376.3,461.6,377.5z"/>
        </g>
        <g>
          <path class="st7" d="M408.7,286.6c6.1,3.5,6.1,9.2,0,12.8c-6.1,3.5-16,3.5-22.1,0c-6.1-3.5-6.1-9.2,0-12.8
            C392.7,283.1,402.6,283.1,408.7,286.6z"/>
          <path class="st8" d="M402.5,290.2c2.7,1.6,2.7,4.1,0,5.7c-2.7,1.6-7.1,1.6-9.8,0c-2.7-1.6-2.7-4.1,0-5.7
            C395.4,288.6,399.8,288.6,402.5,290.2z"/>
          <path class="st9" d="M402.5,288.2c2.7,1.6,2.7,4.1,0,5.7s-7.1,1.6-9.8,0c-2.7-1.6-2.7-4.1,0-5.7S399.8,286.6,402.5,288.2z"/>
        </g>
        <g>
          <path class="st7" d="M363.9,294.7c4.3,1.7,5.5,5,2.6,7.5c-2.9,2.5-8.7,3.2-13,1.5s-5.5-5-2.6-7.5
            C353.8,293.7,359.6,293.1,363.9,294.7z"/>
          <path class="st8" d="M361,297.2c1.9,0.7,2.4,2.2,1.2,3.3c-1.3,1.1-3.9,1.4-5.8,0.7c-1.9-0.7-2.4-2.2-1.2-3.3
            S359.1,296.5,361,297.2z"/>
          <path class="st9" d="M361,296.2c1.9,0.7,2.4,2.2,1.2,3.3c-1.3,1.1-3.9,1.4-5.8,0.7c-1.9-0.7-2.4-2.2-1.2-3.3
            C356.5,295.8,359.1,295.5,361,296.2z"/>
        </g>
        <g>
          <path class="st7" d="M374.7,247c10.6,2.5,15.7,9.6,11.3,15.7c-4.4,6.1-16.6,9.1-27.2,6.5s-15.7-9.6-11.3-15.7
            S364.1,244.4,374.7,247z"/>
          <path class="st8" d="M370.3,253.2c4.7,1.1,7,4.3,5,7c-2,2.7-7.4,4-12.1,2.9c-4.7-1.1-7-4.3-5-7
            C360.2,253.3,365.6,252,370.3,253.2z"/>
          <path class="st9" d="M370.3,250.2c4.7,1.1,7,4.3,5,7c-2,2.7-7.4,4-12.1,2.9c-4.7-1.1-7-4.3-5-7
            C360.2,250.3,365.6,249,370.3,250.2z"/>
        </g>
        <g>
          <path class="st7" d="M256.9,309.1c4.3-1.7,10.1-1,13,1.5c2.9,2.5,1.7,5.9-2.6,7.5c-4.3,1.7-10.1,1-13-1.5
            C251.4,314.1,252.6,310.7,256.9,309.1z"/>
          <path class="st8" d="M259.8,311.6c1.9-0.7,4.5-0.4,5.8,0.7s0.8,2.6-1.2,3.3c-1.9,0.7-4.5,0.4-5.8-0.7
            C257.4,313.8,257.9,312.3,259.8,311.6z"/>
          <path class="st9" d="M259.8,310.6c1.9-0.7,4.5-0.4,5.8,0.7s0.8,2.6-1.2,3.3c-1.9,0.7-4.5,0.4-5.8-0.7
            C257.4,312.8,257.9,311.3,259.8,310.6z"/>
        </g>
        <g>
          <path class="st7" d="M217.8,286.6c6.1,3.5,6.1,9.2,0,12.8c-6.1,3.5-16,3.5-22.1,0c-6.1-3.5-6.1-9.2,0-12.8
            C201.8,283.1,211.7,283.1,217.8,286.6z"/>
          <path class="st8" d="M211.6,290.2c2.7,1.6,2.7,4.1,0,5.7s-7.1,1.6-9.8,0c-2.7-1.6-2.7-4.1,0-5.7S208.9,288.6,211.6,290.2z"/>
          <path class="st9" d="M211.6,288.2c2.7,1.6,2.7,4.1,0,5.7s-7.1,1.6-9.8,0s-2.7-4.1,0-5.7S208.9,286.6,211.6,288.2z"/>
        </g>
      </g>
      <g>
        <path class="st10" d="M229.6,247c10.6-2.5,22.8,0.4,27.2,6.5s-0.6,13.2-11.3,15.7c-10.6,2.5-22.8-0.4-27.2-6.5
          C213.9,256.6,219,249.5,229.6,247z"/>
        <path class="st11" d="M234,253.2c4.7-1.1,10.1,0.2,12.1,2.9c2,2.7-0.3,5.8-5,7c-4.7,1.1-10.1-0.2-12.1-2.9
          C227.1,257.4,229.3,254.3,234,253.2z"/>
        <path class="st12" d="M234,250.2c4.7-1.1,10.1,0.2,12.1,2.9s-0.3,5.8-5,7c-4.7,1.1-10.1-0.2-12.1-2.9
          C227.1,254.4,229.3,251.3,234,250.2z"/>
      </g>
      <g>
        <path class="st10" d="M318.1,302.1c5.1,0.6,8.4,3.4,7.4,6.4c-1,2.9-6,4.8-11,4.3c-5.1-0.6-8.4-3.4-7.4-6.4
          S313,301.5,318.1,302.1z"/>
        <path class="st11" d="M317,305c2.3,0.3,3.7,1.5,3.3,2.8c-0.4,1.3-2.6,2.2-4.9,1.9c-2.3-0.3-3.7-1.5-3.3-2.8
          C312.6,305.6,314.8,304.8,317,305z"/>
        <path class="st12" d="M317,304c2.3,0.3,3.7,1.5,3.3,2.8c-0.4,1.3-2.6,2.2-4.9,1.9c-2.3-0.3-3.7-1.5-3.3-2.8
          C312.6,304.6,314.8,303.8,317,304z"/>
      </g>
      <g>
        <path class="st10" d="M222.7,310.9c4.3,1.7,5.5,5,2.6,7.5c-2.9,2.5-8.7,3.2-13,1.5c-4.3-1.7-5.5-5-2.6-7.5
          C212.5,310,218.4,309.3,222.7,310.9z"/>
        <path class="st11" d="M219.8,313.5c1.9,0.7,2.4,2.2,1.2,3.3c-1.3,1.1-3.9,1.4-5.8,0.7c-1.9-0.7-2.4-2.2-1.2-3.3
          S217.9,312.7,219.8,313.5z"/>
        <path class="st12" d="M219.8,312.5c1.9,0.7,2.4,2.2,1.2,3.3s-3.9,1.4-5.8,0.7s-2.4-2.2-1.2-3.3
          C215.3,312,217.9,311.7,219.8,312.5z"/>
      </g>
      <g>
        <ellipse class="st10" cx="167.2" cy="348.1" rx="15.6" ry="9"/>
        <ellipse class="st11" cx="167.2" cy="348.1" rx="7" ry="4"/>
        <ellipse class="st12" cx="167.2" cy="346.1" rx="7" ry="4"/>
      </g>
      <g>
        <ellipse class="st10" cx="80" cy="349.4" rx="35.4" ry="20.4"/>
        <ellipse class="st11" cx="80" cy="349.4" rx="15.7" ry="9.1"/>
        <ellipse class="st12" cx="80" cy="345.4" rx="15.7" ry="9.1"/>
      </g>
      <g>
        <path class="st10" d="M250.8,392.5c4.3,1.7,5.5,5,2.6,7.5c-2.9,2.5-8.7,3.2-13,1.5c-4.3-1.7-5.5-5-2.6-7.5
          C240.7,391.5,246.5,390.8,250.8,392.5z"/>
        <path class="st11" d="M247.9,395c1.9,0.7,2.4,2.2,1.2,3.3c-1.3,1.1-3.9,1.4-5.8,0.7c-1.9-0.7-2.4-2.2-1.2-3.3
          C243.4,394.6,246,394.3,247.9,395z"/>
        <path class="st12" d="M247.9,394c1.9,0.7,2.4,2.2,1.2,3.3c-1.3,1.1-3.9,1.4-5.8,0.7c-1.9-0.7-2.4-2.2-1.2-3.3
          S246,393.3,247.9,394z"/>
      </g>
      <g>
        <path class="st10" d="M245.6,427c10.6,2.5,15.7,9.6,11.3,15.7s-16.6,9.1-27.2,6.5s-15.7-9.6-11.3-15.7
          C222.7,427.4,234.9,424.5,245.6,427z"/>
        <path class="st11" d="M241.1,433.2c4.7,1.1,7,4.3,5,7c-2,2.7-7.4,4-12.1,2.9c-4.7-1.1-7-4.3-5-7
          C231,433.4,236.4,432.1,241.1,433.2z"/>
        <path class="st12" d="M241.1,430.2c4.7,1.1,7,4.3,5,7c-2,2.7-7.4,4-12.1,2.9c-4.7-1.1-7-4.3-5-7
          C231,430.4,236.4,429.1,241.1,430.2z"/>
      </g>
      <g>
        <path class="st10" d="M337,378.2c4.3-1.7,10.1-1,13,1.5s1.7,5.9-2.6,7.5c-4.3,1.7-10.1,1-13-1.5
          C331.5,383.2,332.7,379.8,337,378.2z"/>
        <path class="st11" d="M339.9,380.7c1.9-0.7,4.5-0.4,5.8,0.7c1.3,1.1,0.8,2.6-1.2,3.3c-1.9,0.7-4.5,0.4-5.8-0.7
          C337.5,382.9,338,381.4,339.9,380.7z"/>
        <path class="st12" d="M339.9,379.7c1.9-0.7,4.5-0.4,5.8,0.7c1.3,1.1,0.8,2.6-1.2,3.3c-1.9,0.7-4.5,0.4-5.8-0.7
          C337.5,381.9,338,380.4,339.9,379.7z"/>
      </g>
      <g>
        <path class="st10" d="M408.7,396.8c6.1,3.5,6.1,9.2,0,12.8c-6.1,3.5-16,3.5-22.1,0c-6.1-3.5-6.1-9.2,0-12.8
          C392.7,393.3,402.6,393.3,408.7,396.8z"/>
        <path class="st11" d="M402.5,400.4c2.7,1.6,2.7,4.1,0,5.7s-7.1,1.6-9.8,0c-2.7-1.6-2.7-4.1,0-5.7S399.8,398.8,402.5,400.4z"/>
        <path class="st12" d="M402.5,398.4c2.7,1.6,2.7,4.1,0,5.7s-7.1,1.6-9.8,0c-2.7-1.6-2.7-4.1,0-5.7S399.8,396.8,402.5,398.4z"/>
      </g>
      <g>
        <path class="st10" d="M400.2,331.3c5.1-0.6,10,1.3,11,4.3c1,2.9-2.3,5.8-7.4,6.4s-10-1.3-11-4.3
          C391.8,334.8,395.1,331.9,400.2,331.3z"/>
        <path class="st11" d="M401.2,334.3c2.3-0.3,4.5,0.6,4.9,1.9c0.4,1.3-1,2.6-3.3,2.8c-2.3,0.3-4.5-0.6-4.9-1.9
          C397.5,335.8,399,334.6,401.2,334.3z"/>
        <path class="st12" d="M401.2,333.3c2.3-0.3,4.5,0.6,4.9,1.9c0.4,1.3-1,2.6-3.3,2.8c-2.3,0.3-4.5-0.6-4.9-1.9
          C397.5,334.8,399,333.6,401.2,333.3z"/>
      </g>
      <g>
        <path class="st10" d="M450.1,299.7c10.6-2.5,22.8,0.4,27.2,6.5c4.4,6.1-0.6,13.2-11.3,15.7c-10.6,2.5-22.8-0.4-27.2-6.5
          C434.4,309.3,439.4,302.3,450.1,299.7z"/>
        <path class="st11" d="M454.5,305.9c4.7-1.1,10.1,0.2,12.1,2.9c2,2.7-0.3,5.8-5,7c-4.7,1.1-10.1-0.2-12.1-2.9
          C447.6,310.2,449.8,307,454.5,305.9z"/>
        <path class="st12" d="M454.5,302.9c4.7-1.1,10.1,0.2,12.1,2.9c2,2.7-0.3,5.8-5,7c-4.7,1.1-10.1-0.2-12.1-2.9
          C447.6,307.2,449.8,304,454.5,302.9z"/>
      </g>
      <g>
        <ellipse class="st10" cx="520" cy="349.4" rx="35.4" ry="20.4"/>
        <ellipse class="st11" cx="520" cy="349.4" rx="15.7" ry="9.1"/>
        <ellipse class="st12" cx="520" cy="345.4" rx="15.7" ry="9.1"/>
      </g>
    </g>
    <g id="Brandmark">
      <path id="Core-1_1_" class="st13" d="M316.9,344.8c-2.5,1.4-6.5,1.4-9,0c-2.5-1.4-2.5-3.7,0-5.2s6.5-1.4,9,0
        C319.4,341,319.4,343.3,316.9,344.8z"/>
      <path id="Core-2_1_" class="st13" d="M294.3,342.7c-2.5,1.4-6.5,1.4-9,0c-2.5-1.4-2.5-3.7,0-5.2c2.5-1.4,6.5-1.4,9,0
        C296.8,338.9,296.8,341.3,294.3,342.7z"/>
      <path id="Core-3_1_" class="st13" d="M320.5,357.8c-2.5,1.4-6.5,1.4-9,0c-2.5-1.4-2.5-3.7,0-5.2c2.5-1.4,6.5-1.4,9,0
        C323,354.1,323,356.4,320.5,357.8z"/>
      <path id="Core-4_1_" class="st13" d="M283.9,354.5c-2.5,1.4-6.5,1.4-9,0c-2.5-1.4-2.5-3.7,0-5.2s6.5-1.4,9,0
        C286.4,350.7,286.4,353,283.9,354.5z"/>
      <path id="Core-5_1_" class="st13" d="M300.1,363.8c-2.5,1.4-6.5,1.4-9,0c-2.5-1.4-2.5-3.7,0-5.2c2.5-1.4,6.5-1.4,9,0
        C302.6,360.1,302.6,362.4,300.1,363.8z"/>
      <path id="Center" class="st14" d="M290,358c1.5-0.9,3.5-1.4,5.7-1.4c2.1,0,4.2,0.5,5.7,1.4c1.4,0.8,2.2,1.9,2.3,3
        c2.6-0.4,5.1-1.1,7.3-2.2c-0.2-0.1-0.4-0.2-0.6-0.3c-1.5-0.9-2.4-2-2.4-3.3c0-1.2,0.8-2.4,2.4-3.3s3.5-1.4,5.7-1.4
        c0.7,0,1.4,0.1,2.1,0.2c0.2-1.6-0.3-3.2-1.3-4.7c-1.3,0.5-2.8,0.8-4.4,0.8c-2.1,0-4.2-0.5-5.7-1.4c-1.5-0.9-2.4-2-2.4-3.3
        c0-0.9,0.5-1.8,1.3-2.5c-2.6-0.6-5.4-0.8-8.1-0.7c0.2,0.4,0.3,0.8,0.3,1.2c0,1.2-0.8,2.4-2.4,3.3s-3.5,1.4-5.7,1.4
        c-2.1,0-4.2-0.5-5.7-1.4c-0.2-0.1-0.4-0.2-0.6-0.4c-1.8,1.3-3.1,2.7-3.7,4.2c2,0.1,3.9,0.5,5.3,1.4c1.5,0.9,2.4,2,2.4,3.3
        c0,1.2-0.8,2.4-2.4,3.3c-0.8,0.5-1.8,0.8-2.8,1.1c0.7,0.7,1.6,1.3,2.6,1.9c1,0.6,2.1,1.1,3.2,1.5C288.5,359,289.1,358.4,290,358z
        "/>
      <path id="Circles" class="st14" d="M338.2,360.4c1.2-1.7,1.7-3.4,1.7-5.2c0-1.8-0.6-3.5-1.7-5.2c-0.8-1.1-1.8-2.2-3.1-3.2
        c0.9-1.5,1.4-3.1,1.4-4.7c0-1.8-0.6-3.5-1.7-5.2c-1.2-1.7-3-3.2-5.2-4.6s-4.9-2.3-7.9-3c-2.9-0.7-5.9-1-9-1c-2.7,0-5.4,0.3-8,0.8
        c-1.7-0.8-3.7-1.4-5.8-1.9c-2.9-0.7-5.9-1-9-1c-3.1,0-6.1,0.3-9,1c-3,0.7-5.6,1.7-7.9,3c-2.3,1.3-4,2.9-5.2,4.6
        c-1.2,1.7-1.7,3.4-1.7,5.2c0,0.1,0,0.3,0,0.4c-1.2,0.5-2.4,1-3.4,1.6c-2.3,1.3-4,2.9-5.2,4.6c-1.2,1.7-1.7,3.4-1.7,5.2
        c0,1.8,0.6,3.5,1.7,5.2c1.2,1.7,3,3.2,5.2,4.6c2.3,1.3,4.9,2.3,7.9,3c0.7,0.2,1.5,0.3,2.3,0.5c0.2,0.4,0.5,0.9,0.8,1.3
        c1.2,1.7,3,3.2,5.2,4.6c2.3,1.3,4.9,2.3,7.9,3c2.9,0.7,5.9,1,9,1c3.1,0,6.1-0.3,9-1c3-0.7,5.6-1.7,7.9-3c1.1-0.6,2-1.3,2.8-2
        c0.3,0,0.5,0,0.7,0c3.1,0,6.1-0.3,9-1c3-0.7,5.6-1.7,7.9-3C335.2,363.7,337,362.1,338.2,360.4z M324.3,367
        c-2.5,0.6-5.1,0.9-7.7,0.9c0.4-0.5,0.9-1,1.2-1.5c1.2-1.7,1.7-3.4,1.7-5.2c0-0.6-0.1-1.2-0.2-1.8c-0.6,0.2-1.2,0.3-1.9,0.3
        c0.1,0.5,0.1,1,0.1,1.4c0,1.6-0.5,3.2-1.6,4.8c-0.5,0.6-1,1.3-1.6,1.9c-2.2-0.1-4.4-0.4-6.5-0.9c-2.4-0.6-4.6-1.4-6.6-2.4
        c-0.5,0.3-1,0.5-1.6,0.7c2.2,1.2,4.7,2.1,7.4,2.8c1.9,0.5,3.9,0.8,6,0.9c-0.6,0.4-1.2,0.9-1.9,1.3c-2.1,1.2-4.5,2.1-7.3,2.8
        c-2.6,0.6-5.4,0.9-8.3,0.9c-2.8,0-5.6-0.3-8.3-0.9c-2.7-0.6-5.2-1.6-7.3-2.8c-2.1-1.2-3.7-2.6-4.8-4.2c-0.1-0.2-0.3-0.4-0.4-0.6
        c1.5,0.2,3,0.2,4.5,0.2c3.1,0,6.1-0.3,9-1c0.4-0.1,0.8-0.2,1.3-0.3c-0.5-0.3-0.8-0.6-1.1-0.9c-0.3,0.1-0.6,0.1-0.8,0.2
        c-2.6,0.6-5.4,0.9-8.3,0.9c-1.7,0-3.5-0.1-5.1-0.3c-0.4-1-0.6-2-0.6-3c0-1.6,0.5-3.2,1.6-4.8c0.1-0.2,0.2-0.3,0.4-0.5
        c-0.6-0.2-1.1-0.4-1.6-0.7c-0.2,0.2-0.4,0.5-0.6,0.7c-1.2,1.7-1.7,3.4-1.7,5.2c0,0.9,0.1,1.7,0.4,2.6c-0.3-0.1-0.7-0.1-1-0.2
        c-2.7-0.6-5.2-1.6-7.3-2.8c-2.1-1.2-3.7-2.6-4.8-4.2c-1.1-1.5-1.6-3.1-1.6-4.8c0-1.6,0.5-3.2,1.6-4.8c1.1-1.6,2.7-3,4.8-4.2
        c0.7-0.4,1.4-0.8,2.2-1.1c0.3,1.2,0.8,2.4,1.6,3.5c1.1,1.6,2.7,3,4.8,4.3c0.3-0.3,0.7-0.6,1.2-0.9c-1.8-1.1-3.2-2.4-4.2-3.8
        c-0.8-1.2-1.4-2.5-1.5-3.8c1-0.4,2.1-0.7,3.2-0.9c2.6-0.6,5.4-0.9,8.3-0.9c0.8,0,1.7,0,2.5,0.1c0.1-0.4,0.3-0.8,0.6-1.1
        c-1-0.1-2-0.1-3.1-0.1c-3.1,0-6.1,0.3-9,1c-0.9,0.2-1.7,0.4-2.5,0.7c0.1-1.5,0.6-3,1.6-4.5c1.1-1.6,2.7-3,4.8-4.2
        c2.1-1.2,4.5-2.1,7.3-2.8c2.6-0.6,5.4-0.9,8.3-0.9c2.8,0,5.6,0.3,8.3,0.9c1.5,0.4,3,0.8,4.4,1.4c-2.5,0.7-4.8,1.6-6.8,2.7
        c-1.6,0.9-3,2-4,3.1c0.7,0.1,1.3,0.2,1.9,0.4c1-1,2.2-1.9,3.6-2.7c2.1-1.2,4.5-2.1,7.1-2.8c0.4,0.2,0.8,0.4,1.1,0.6
        c2.1,1.2,3.7,2.6,4.8,4.2c0.5,0.7,0.9,1.5,1.2,2.2c0.4,0,0.8,0,1.1,0c0.3,0,0.6,0,0.9,0c-0.3-0.9-0.7-1.8-1.3-2.6
        c-1.2-1.7-3-3.2-5.2-4.6c-0.1-0.1-0.3-0.2-0.4-0.2c2-0.3,4.1-0.5,6.3-0.5c2.8,0,5.6,0.3,8.3,0.9c2.7,0.6,5.2,1.6,7.3,2.8
        c2.1,1.2,3.7,2.6,4.8,4.2c1.1,1.5,1.6,3.1,1.6,4.8c0,1.2-0.3,2.5-0.9,3.6c-0.2-0.1-0.4-0.3-0.6-0.4c-2.3-1.3-4.9-2.3-7.9-3
        c-1.5-0.3-3-0.6-4.6-0.8c0,0.2,0,0.3,0,0.5c0,0.2,0,0.4-0.1,0.7c1.3,0.2,2.6,0.4,3.9,0.7c2.7,0.6,5.2,1.6,7.3,2.8
        c0.4,0.3,0.9,0.5,1.3,0.8c-1.1,1.5-2.7,2.9-4.8,4.1c-1.4,0.8-3,1.5-4.7,2.1c0.3,0.3,0.5,0.7,0.6,1.1c2-0.6,3.9-1.4,5.5-2.4
        c2-1.1,3.6-2.4,4.7-3.9c0.9,0.7,1.6,1.5,2.2,2.3c1.1,1.5,1.6,3.1,1.6,4.8c0,1.6-0.5,3.2-1.6,4.8c-1.1,1.6-2.7,3-4.8,4.2
        C329.5,365.4,327,366.3,324.3,367z"/>
    </g>
    <polygon class="st2" points="0,349.4 0,369.4 300,542.6 600,369.4 600,349.4 300,522.6 		"/>
  </g>
  <g>
    <linearGradient id="gradient--1" gradientUnits="userSpaceOnUse" x1="297.7773" y1="222.3682" x2="297.7773" y2="15.3682">
      <stop  offset="0" style="stop-color:#FFFFFF"/>
      <stop  offset="1" style="stop-color:#FFFFFF;stop-opacity:0"/>
    </linearGradient>
    <path class="st15" d="M308.6,218.1c0,0,1,4.3-8.3,4.3s-8.3-4.3-8.3-4.3L216.1,15.4h163.3L308.6,218.1L308.6,218.1z"/>
    <g id="Bitcoin_1_">
      <ellipse class="st13" cx="298.2" cy="67" rx="33.9" ry="33.9"/>
      <g id="g16_1_" transform="scale(0.015625)">

          <linearGradient id="coin_2_" gradientUnits="userSpaceOnUse" x1="-312858016" y1="600343360" x2="-312858016" y2="600342912" gradientTransform="matrix(0.125 0 0 -0.125 39121968 75046392)">
          <stop  offset="0" style="stop-color:#F9AA4B"/>
          <stop  offset="1" style="stop-color:#F7931A"/>
        </linearGradient>
        <path id="coin_1_" class="st16" d="M20799.4,4693.8c-232.1,930.8-1174.9,1497.2-2105.8,1265.1
          c-930.6-232.1-1497.1-1174.8-1264.9-2105.5c232-930.9,1174.8-1497.4,2105.4-1265.3C20465.1,2820.1,21031.5,3763,20799.4,4693.8
          L20799.4,4693.8z"/>
        <path id="symbol_1_" class="st13" d="M19879.9,4026c34.6-231.2-141.4-355.5-382.2-438.4l78.1-313.2l-190.6-47.5l-76,304.9
          c-50.1-12.5-101.6-24.3-152.7-35.9l76.6-306.9l-190.5-47.5l-78.1,313.1c-41.5-9.4-82.2-18.8-121.7-28.6l0.2-1l-262.9-65.6
          l-50.7,203.6c0,0,141.4,32.4,138.5,34.4c77.2,19.3,91.2,70.4,88.8,110.9l-88.9,356.8c5.3,1.4,12.2,3.3,19.8,6.4
          c-6.4-1.6-13.1-3.3-20.1-5l-124.7,499.8c-9.4,23.5-33.4,58.6-87.4,45.3c1.9,2.8-138.6-34.6-138.6-34.6l-94.6,218.2l248.1,61.8
          c46.2,11.6,91.4,23.7,135.9,35.1l-78.9,316.8l190.4,47.5l78.1-313.4c52,14.1,102.5,27.1,151.9,39.4l-77.9,311.9l190.6,47.5
          l78.9-316.2c325.1,61.5,569.5,36.7,672.4-257.3c82.9-236.7-4.1-373.3-175.2-462.3C19761,4277.2,19854.8,4195.2,19879.9,4026
          L19879.9,4026z M19444.2,4636.8c-58.9,236.7-457.5,108.8-586.8,76.7l104.7-419.6C19091.5,4326,19505.9,4389.9,19444.2,4636.8z
            M19503.2,4022.6c-53.8,215.3-385.5,105.9-493.1,79.1l94.9-380.6C19212.7,3747.9,19559.2,3798,19503.2,4022.6z"/>
      </g>
    </g>
    <g id="Women-1_2_">
      <ellipse id="Circle-BG_14_" class="st17" cx="299.1" cy="145.5" rx="26.9" ry="26.9"/>
      <path id="Hair-back_4_" class="st18" d="M287.5,143.6c0,0,1.5,13.3-0.1,14.8h23.1c0,0-0.8-11.2,0.3-15.7L287.5,143.6z"/>
      <path id="Body_12_" class="st19" d="M318.2,163.4c-3.1-4.5-7.6-7.3-13.3-8.3l-0.1-1.8c3.1-3,5.6-7.8,5.6-12.4
        c0-7.6-3.7-13.7-11.3-13.7c-7.6,0-11.3,6.2-11.3,13.7c0,4.8,2.6,9.7,5.7,12.7l-0.1,1.5c-6,1-10.9,3.6-13.4,8.6
        c-0.6,1.3,13.4,8.5,19.1,8.5C306.7,172,319.1,164.9,318.2,163.4z"/>
      <path id="Hair_12_" class="st18" d="M313.1,157.5c-0.6-2.8-0.4-18.8-0.4-18.8c0-3.5-2.4-13.5-13.6-12.1
        c-11.1-1.4-13.6,8.3-13.6,12.1c0,0.4,0.1,17.7-0.3,18.8c-1,2.7,4.6-0.7,4.6-1.6c0-2.3,0-16.4,0.3-16.6c0.2-0.2,1.1-0.3,2.4-0.5
        l0.5-3.4l0.6,3.2c1.8-0.2,4-0.4,5.5-0.4c1.1,0,3.3,0.2,5.2,0.5l0.2-1.6l0.3,1.7c0.4,0.1,0.7,0.1,1,0.2l0.2-1.2l0.2,1.4
        c0.9,0.2,1.5,0.4,1.6,0.5c0.5,0.6,0.5,17.3,0.8,17.9C308.9,158.4,313.7,160,313.1,157.5z"/>
      <path id="Shirt_12_" class="st20" d="M292.3,155.1c0,0,5,7.3,6.7,7.3c1.9,0,6.8-7.4,6.8-7.4s7-0.1,12.4,7.7c0,0-8.6,8.9-18.9,8.9
        s-19.5-9-19.5-9S283.9,155.7,292.3,155.1z"/>
      <path id="Circle-outline_12_" class="st9" d="M299.1,120.2c13.9,0,25.2,11.3,25.2,25.2c0,6.7-2.6,13.1-7.4,17.8
        c-4.7,4.7-11.1,7.4-17.8,7.4c-13.9,0-25.2-11.3-25.2-25.2c0-6.7,2.6-13.1,7.4-17.8C286,122.9,292.3,120.2,299.1,120.2
          M299.1,118.6c-14.8,0-26.9,12-26.9,26.9c0,14.8,12,26.9,26.9,26.9c14.8,0,26.9-12,26.9-26.9S314,118.6,299.1,118.6L299.1,118.6z
        "/>
    </g>
  </g>
  <g>
    <linearGradient id="gradient--2" gradientUnits="userSpaceOnUse" x1="360.1086" y1="299.222" x2="360.1086" y2="187.022">
      <stop  offset="0" style="stop-color:#FFFFFF"/>
      <stop  offset="1" style="stop-color:#FFFFFF;stop-opacity:0"/>
    </linearGradient>
    <path class="st21" d="M360.8,298.4c0,0,0.2,0.8-2,0.8c-2.3,0-2-0.8-2-0.8L329.6,187h61.1L360.8,298.4z"/>
    <g id="Hootsuite_2_">
      <circle class="st13" cx="358.9" cy="213.5" r="13.6"/>
      <g>
        <polygon class="st22" points="356.1,210.8 350.7,210.8 350.7,216.3 350.7,221.7 356.1,221.7 361.5,221.7 361.5,216.3
          361.5,210.8 				"/>
        <polygon class="st23" points="356.1,205.4 356.1,210.8 356.1,216.3 361.5,216.3 367,216.3 367,205.4 				"/>
        <polygon class="st24" points="350.7,221.7 356.1,221.7 356.1,216.3 350.7,216.3 				"/>
        <polygon class="st24" points="361.5,210.8 367,210.8 367,205.4 361.5,205.4 				"/>
        <polygon class="st25" points="356.1,216.3 361.5,216.3 361.5,210.8 356.1,210.8 				"/>
      </g>
    </g>
    <g id="Man-1_2_">
      <circle id="Circle-BG_13_" class="st17" cx="359" cy="247.8" r="10.7"/>
      <path id="Body_10_" class="st26" d="M366.6,254.9c-1.2-1.7-2.9-2.8-5-3.3v-1c0.9-0.9,1.6-2,2-3.2c0.3,0.1,0.6-0.4,0.7-1
        c0.2-0.7,0-1.3-0.3-1.4c-0.1,0-0.2,0-0.3,0c-0.3-2.6-2-4.7-4.7-4.7s-4.4,2-4.7,4.6c-0.1,0-0.2-0.1-0.2,0
        c-0.3,0.1-0.5,0.7-0.3,1.4c0.1,0.6,0.4,1,0.7,1c0.4,1.2,1.1,2.4,2,3.3v0.9c-2.2,0.4-4,1.5-5,3.3c-0.2,0.5,5.3,3.4,7.6,3.4
        C362.1,258.4,367,255.5,366.6,254.9z"/>
      <path id="Hair_10_" class="st18" d="M354.3,245.1c0,0-0.1-5,4.3-5c0.7-0.3,2.8-0.4,4.4,1.3c1.4,1.5,0.9,3.7,0.9,3.7s-3-0.3-5-3
        C358.8,242.1,355.8,242.4,354.3,245.1z"/>
      <path id="Shirt_10_" class="st20" d="M356.4,251.6c0,0,1.2,2.5,2.7,2.5s2.7-2.5,2.7-2.5s2.8,0,5,3.1c0,0-3.4,3.6-7.5,3.6
        s-7.8-3.6-7.8-3.6S353,251.9,356.4,251.6z"/>
      <path id="Circle-outline_10_" class="st9" d="M359,237.7c5.5,0,10,4.5,10,10c0,2.7-1,5.2-3,7.1c-1.9,1.9-4.4,3-7.1,3
        c-5.5,0-10-4.5-10-10c0-2.7,1-5.2,3-7.1C353.8,238.8,356.4,237.7,359,237.7 M359,237.1c-5.9,0-10.7,4.8-10.7,10.7
        c0,5.9,4.8,10.7,10.7,10.7c5.9,0,10.7-4.8,10.7-10.7C369.7,241.9,364.9,237.1,359,237.1L359,237.1z"/>
    </g>
  </g>
  <g>
    <linearGradient id="gradient--3" gradientUnits="userSpaceOnUse" x1="231.575" y1="339.8491" x2="231.575" y2="233.0491">
      <stop  offset="0" style="stop-color:#FFFFFF"/>
      <stop  offset="1" style="stop-color:#FFFFFF;stop-opacity:0"/>
    </linearGradient>
    <path class="st27" d="M233.6,339c0,0,0.2,0.8-2,0.8s-2-0.8-2-0.8l-27.2-106h58.4L233.6,339L233.6,339z"/>
    <g id="Shopify_2_">
      <circle class="st13" cx="231.1" cy="255.1" r="13.6"/>
      <g>
        <polygon class="st28" points="227.3,251 227.3,255.1 227.3,259.2 223.2,255.1 				"/>
        <polygon class="st28" points="227.3,251 231.3,251 235.4,251 231.3,255.1 227.3,251.1 				"/>
        <polygon class="st28" points="235.4,259.2 235.4,255.1 235.4,251 239.5,255.1 				"/>
        <polygon class="st28" points="235.4,259.2 231.4,259.2 227.3,259.2 231.4,255.1 				"/>
      </g>
    </g>
    <g id="Women-1_1_">
      <circle id="Circle-BG_12_" class="st17" cx="231.3" cy="288.2" r="10.7"/>
      <path id="Hair-back_2_" class="st18" d="M226.7,287.4c0,0,0.6,5.3,0,5.9h9.2c0,0-0.3-4.5,0.1-6.3L226.7,287.4z"/>
      <path id="Body_8_" class="st19" d="M238.9,295.3c-1.2-1.8-3-2.9-5.3-3.3v-0.7c1.2-1.2,2.2-3.1,2.2-5c0-3-1.5-5.5-4.5-5.5
        s-4.5,2.5-4.5,5.5c0,1.9,1,3.9,2.3,5.1v0.6c-2.4,0.4-4.4,1.4-5.3,3.4c-0.2,0.5,5.3,3.4,7.6,3.4
        C234.4,298.8,239.3,295.9,238.9,295.3z"/>
      <path id="Hair_8_" class="st18" d="M236.9,293c-0.2-1.1-0.2-7.5-0.2-7.5c0-1.4-0.9-5.4-5.4-4.8c-4.4-0.5-5.4,3.3-5.4,4.8
        c0,0.2,0,7.1-0.1,7.5c-0.4,1.1,1.8-0.3,1.8-0.6c0-0.9,0-6.5,0.1-6.6s0.5-0.1,0.9-0.2l0.2-1.3l0.2,1.3c0.7-0.1,1.6-0.2,2.2-0.2
        c0.5,0,1.3,0.1,2.1,0.2l0.1-0.6l0.1,0.7c0.2,0,0.3,0,0.4,0.1l0.1-0.5l0.1,0.5c0.4,0.1,0.6,0.2,0.6,0.2c0.2,0.2,0.2,6.9,0.3,7.1
        C235.2,293.3,237.1,293.9,236.9,293z"/>
      <path id="Shirt_8_" class="st20" d="M228.6,292c0,0,2,2.9,2.7,2.9c0.8,0,2.7-3,2.7-3s2.8,0,5,3.1c0,0-3.4,3.6-7.5,3.6
        s-7.8-3.6-7.8-3.6S225.3,292.2,228.6,292z"/>
      <path id="Circle-outline_8_" class="st9" d="M231.3,278.1c5.5,0,10,4.5,10,10c0,2.7-1,5.2-3,7.1c-1.9,1.9-4.4,3-7.1,3
        c-5.5,0-10-4.5-10-10c0-2.7,1-5.2,3-7.1C226.1,279.2,228.6,278.1,231.3,278.1 M231.3,277.4c-5.9,0-10.7,4.8-10.7,10.7
        c0,5.9,4.8,10.7,10.7,10.7S242,294,242,288.1C242.1,282.2,237.3,277.4,231.3,277.4L231.3,277.4z"/>
    </g>
  </g>
  <g>
    <linearGradient id="gradient--4" gradientUnits="userSpaceOnUse" x1="146.3" y1="384.8004" x2="146.3" y2="209.1003">
      <stop  offset="0" style="stop-color:#FFFFFF"/>
      <stop  offset="1" style="stop-color:#FFFFFF;stop-opacity:0"/>
    </linearGradient>
    <path class="st29" d="M152.2,381.7c0,0,0.8,3.1-5.9,3.1s-5.9-3.1-5.9-3.1L94.2,209.1h104.2L152.2,381.7z"/>
    <g id="Ethereum_2_">
      <ellipse class="st13" cx="145.9" cy="249.5" rx="27.1" ry="27.1"/>
    </g>
    <g id="Man-2_4_">
      <circle id="Circle-BG_11_" class="st17" cx="146.3" cy="308.8" r="20.1"/>
      <path id="Body_7_" class="st30" d="M160.5,322.2c-2.2-3.2-5.4-5.2-9.3-6.1v-1.8c1.6-1.6,3.1-3.7,3.8-6c0.5,0,1.1-0.8,1.3-2
        c0.3-1.3,0-2.5-0.5-2.6c-0.2,0-0.3,0-0.5,0c-0.6-4.9-3.8-8.7-8.9-8.7c-5.1,0-8.3,3.8-8.9,8.7c-0.2-0.1-0.4-0.1-0.5,0
        c-0.6,0.2-0.9,1.4-0.6,2.6c0.3,1.2,0.9,2,1.4,2c0.7,2.3,2.1,4.5,3.8,6.1v1.6c-4.2,0.8-7.6,2.7-9.4,6.3c-0.5,1,10,6.3,14.3,6.3
        C152,328.6,161.2,323.3,160.5,322.2z"/>
      <path id="Hair_7_" class="st26" d="M137.3,303.7c0,0-0.1-9.4,8-9.4c1.4-0.5,5.2-0.7,8.2,2.5c2.7,2.9,1.6,7,1.6,7
        s-5.5-0.6-9.4-5.7C145.8,298,140.3,298.7,137.3,303.7z"/>
      <path id="Shirt_7_" class="st20" d="M141.2,315.9c0,0,2.3,4.6,5,4.6c2.8,0,5.1-4.6,5.1-4.6s5.2,0,9.3,5.8c0,0-6.4,6.7-14.1,6.7
        s-14.6-6.7-14.6-6.7S135,316.4,141.2,315.9z"/>
      <path id="Circle-outline_7_" class="st9" d="M146.3,289.9c10.4,0,18.8,8.5,18.8,18.8c0,5-2,9.8-5.5,13.3s-8.3,5.5-13.3,5.5
        c-10.4,0-18.8-8.5-18.8-18.8c0-5,2-9.8,5.5-13.3S141.2,289.9,146.3,289.9 M146.3,288.7c-11.1,0-20.1,9-20.1,20.1
        c0,11,9,20.1,20.1,20.1c11,0,20.1-9,20.1-20.1C166.4,297.6,157.4,288.7,146.3,288.7L146.3,288.7z"/>
    </g>
    <g>
      <path class="st31" d="M159.5,235.4c0-0.2-0.2-0.3-0.4-0.3c-0.1,0-3.3-0.2-3.3-0.2s-2.2-2.2-2.4-2.4s-0.7-0.2-0.9-0.1
        c0,0-0.5,0.1-1.2,0.4c-0.7-2.1-2-4-4.3-4c-0.1,0-0.1,0-0.2,0c-0.6-0.8-1.4-1.2-2.1-1.2c-5.3,0-7.8,6.6-8.5,9.9
        c-2,0.6-3.5,1.1-3.7,1.1c-1.1,0.4-1.2,0.4-1.3,1.5c-0.1,0.8-3.1,23.9-3.1,23.9l23.2,4.4l12.6-2.7
        C163.9,265.4,159.5,235.6,159.5,235.4L159.5,235.4z M150.1,233.1c-0.6,0.2-1.2,0.4-2,0.6c0-0.1,0-0.3,0-0.4
        c0-1.3-0.2-2.3-0.5-3.2C148.8,230.2,149.6,231.5,150.1,233.1L150.1,233.1z M146.2,230.3c0.3,0.8,0.5,2,0.5,3.5c0,0.1,0,0.2,0,0.2
        c-1.3,0.4-2.7,0.8-4.1,1.3C143.4,232.3,144.9,230.9,146.2,230.3L146.2,230.3z M144.6,228.9c0.2,0,0.5,0.1,0.7,0.2
        c-1.7,0.8-3.5,2.8-4.2,6.8c-1.1,0.3-2.2,0.7-3.2,1C138.7,233.8,140.9,228.9,144.6,228.9L144.6,228.9z"/>
      <path class="st32" d="M159.1,235c-0.1,0-3.3-0.2-3.3-0.2s-2.2-2.2-2.4-2.4c-0.1-0.1-0.2-0.1-0.3-0.2l-1.8,35.9l12.6-2.7
        c0,0-4.4-29.9-4.4-30.1C159.5,235.2,159.3,235.1,159.1,235"/>
      <path class="st13" d="M147.1,242l-1.6,4.6c0,0-1.4-0.7-3-0.7c-2.4,0-2.6,1.5-2.6,1.9c0,2.1,5.5,2.9,5.5,7.9
        c0,3.9-2.5,6.4-5.8,6.4c-4,0-6-2.5-6-2.5l1.1-3.5c0,0,2.1,1.8,3.9,1.8c1.2,0,1.6-0.9,1.6-1.6c0-2.7-4.5-2.9-4.5-7.4
        c0-3.8,2.7-7.5,8.2-7.5C146,241.4,147.1,242,147.1,242"/>
    </g>
  </g>
  <g>
    <linearGradient id="gradient--5" gradientUnits="userSpaceOnUse" x1="303.58" y1="425.6399" x2="303.58" y2="288.4399">
      <stop  offset="0" style="stop-color:#FFFFFF"/>
      <stop  offset="1" style="stop-color:#FFFFFF;stop-opacity:0"/>
    </linearGradient>
    <path class="st33" d="M305.6,423.8c0,0,0.4,1.8-3.4,1.8c-3.9,0-3.4-1.8-3.4-1.8l-35.3-135.4h80.2L305.6,423.8L305.6,423.8z"/>
    <g>
      <g id="Netflix_2_">
        <circle class="st13" cx="302.9" cy="322.5" r="20.4"/>
        <g>

            <linearGradient id="gradient--6" gradientUnits="userSpaceOnUse" x1="-1822.0592" y1="2387.7664" x2="-1821.9534" y2="2387.6602" gradientTransform="matrix(172.7 0 0 -144.3 314967.75 344865.3125)">
            <stop  offset="0" style="stop-color:#F6C338"/>
            <stop  offset="0.5228" style="stop-color:#FFD351"/>
            <stop  offset="1" style="stop-color:#F6C338"/>
          </linearGradient>
          <path class="st34" d="M298.2,310.6h9.4l8.9,15.3H307L298.2,310.6z"/>

            <linearGradient id="gradient--7" gradientUnits="userSpaceOnUse" x1="-1823.9694" y1="2377.9045" x2="-1824.0753" y2="2377.7986" gradientTransform="matrix(211.6 0 0 -77.1 386268.4688 183662.375)">
            <stop  offset="0" style="stop-color:#286EE6"/>
            <stop  offset="0.521" style="stop-color:#4286FB"/>
            <stop  offset="1" style="stop-color:#286EE6"/>
          </linearGradient>
          <path class="st35" d="M316.5,325.9l-4.7,8.2h-17.7l4.7-8.2H316.5z"/>

            <linearGradient id="gradient--8" gradientUnits="userSpaceOnUse" x1="-1817.2657" y1="2392.3748" x2="-1817.2968" y2="2392.2688" gradientTransform="matrix(128 0 0 -221.4 232908.1406 529982.375)">
            <stop  offset="0" style="stop-color:#069B5A"/>
            <stop  offset="0.531" style="stop-color:#11AA62"/>
            <stop  offset="1" style="stop-color:#069B5A"/>
          </linearGradient>
          <path class="st36" d="M294.1,334.1l-4.7-8.2l8.8-15.3l4.7,8.2L294.1,334.1z"/>
          <path class="st37" d="M294.1,334.1l8.8-8.2h-4.1L294.1,334.1z"/>
          <path class="st37" d="M316.5,325.9h-9.4l-2.1-3.6L316.5,325.9z"/>
          <path class="st37" d="M298.2,310.6l2.7,11.7l2-3.5L298.2,310.6z"/>
        </g>
      </g>
      <g id="Man-1_1_">
        <circle id="Circle-BG_7_" class="st17" cx="302.3" cy="365.9" r="13.4"/>
        <path id="Body_5_" class="st26" d="M311.7,374.8c-1.4-2.1-3.6-3.5-6.2-4.1v-1.2c1.1-1.1,2-2.5,2.5-4c0.4,0.1,0.8-0.5,0.9-1.3
          c0.2-0.9,0-1.6-0.3-1.8c-0.1,0-0.2,0-0.3,0c-0.4-3.3-2.5-5.8-5.9-5.8s-5.6,2.5-5.9,5.7c-0.1,0-0.2-0.1-0.3,0
          c-0.4,0.1-0.6,0.9-0.4,1.8c0.2,0.8,0.5,1.3,0.9,1.3c0.5,1.6,1.4,3,2.5,4.1v1.1c-2.8,0.5-5.1,1.8-6.2,4.2
          c-0.3,0.6,6.7,4.2,9.5,4.2C306.1,379.1,312.2,375.6,311.7,374.8z"/>
        <path id="Hair_5_" class="st18" d="M296.3,362.6c0,0-0.1-6.3,5.3-6.3c0.9-0.3,3.5-0.5,5.5,1.6c1.8,1.9,1.1,4.6,1.1,4.6
          s-3.7-0.4-6.3-3.8C302,358.7,298.2,359.2,296.3,362.6z"/>
        <path id="Shirt_5_" class="st20" d="M298.9,370.7c0,0,1.5,3.1,3.3,3.1c1.9,0,3.4-3.1,3.4-3.1s3.5,0,6.2,3.8c0,0-4.3,4.5-9.4,4.5
          s-9.7-4.5-9.7-4.5S294.8,371,298.9,370.7z"/>
        <path id="Circle-outline_5_" class="st9" d="M302.3,353.3c6.9,0,12.6,5.6,12.6,12.6c0,3.3-1.3,6.5-3.7,8.9
          c-2.4,2.4-5.5,3.7-8.9,3.7c-6.9,0-12.6-5.6-12.6-12.6c0-3.3,1.3-6.5,3.7-8.9C295.8,354.7,298.9,353.3,302.3,353.3 M302.3,352.5
          c-7.4,0-13.4,6-13.4,13.4s6,13.4,13.4,13.4s13.4-6,13.4-13.4S309.6,352.5,302.3,352.5L302.3,352.5z"/>
      </g>
    </g>
  </g>
  <g>
    <linearGradient id="gradient--9" gradientUnits="userSpaceOnUse" x1="400.5798" y1="402.8778" x2="400.5798" y2="257.4778">
      <stop  offset="0" style="stop-color:#FFFFFF"/>
      <stop  offset="1" style="stop-color:#FFFFFF;stop-opacity:0"/>
    </linearGradient>
    <path class="st38" d="M401.2,401.1c0,0,0.4,1.8-3.4,1.8c-3.9,0-3.4-1.8-3.4-1.8l-29.9-143.6h72.1L401.2,401.1L401.2,401.1z"/>
    <g id="Sendgrid_2_">
      <circle class="st13" cx="399.5" cy="289.6" r="20.4"/>
      <g id="Ethereum-logo_2_">
        <g>
          <polygon class="st39" points="399.9,296.2 399.9,302.8 408.3,291.3 					"/>
          <polygon points="399.9,285.8 399.9,294.6 408.3,289.6 					"/>
          <polygon class="st39" points="399.9,275.6 399.9,285.8 408.3,289.6 					"/>
          <polygon class="st40" points="399.9,296.2 399.9,302.8 391.5,291.3 					"/>
          <polygon class="st41" points="399.9,285.8 399.9,294.6 391.5,289.6 					"/>
          <polygon class="st40" points="399.9,275.6 399.9,285.8 391.5,289.6 					"/>
        </g>
      </g>
    </g>
    <g id="Women-2_2_">
      <circle id="Circle-BG_5_" class="st17" cx="398.9" cy="335.3" r="13.6"/>
      <path id="Hair-back_1_" class="st18" d="M393,334.3c0,0,0.7,6.7,0,7.5h11.7c0,0-0.4-5.7,0.2-7.9L393,334.3z"/>
      <path id="Body_3_" class="st26" d="M408.5,344.3c-1.5-2.3-3.9-3.7-6.7-4.2v-0.9c1.5-1.5,2.8-3.9,2.8-6.3c0-3.8-1.9-6.9-5.7-6.9
        s-5.7,3.1-5.7,6.9c0,2.4,1.3,4.9,2.9,6.4v0.8c-3,0.5-5.5,1.8-6.7,4.3c-0.3,0.7,6.7,4.3,9.6,4.3
        C402.7,348.7,408.9,345.1,408.5,344.3z"/>
      <path id="Hair_3_" class="st18" d="M405.9,341.3c-0.3-1.4-0.2-9.5-0.2-9.5c0-1.8-1.2-6.8-6.9-6.1c-5.6-0.7-6.9,4.2-6.9,6.1
        c0,0.2,0,8.9-0.2,9.5c-0.5,1.3,2.3-0.3,2.3-0.8c0-1.2,0-8.3,0.2-8.4c0.1-0.1,0.6-0.2,1.2-0.2l0.3-1.7l0.3,1.6
        c0.9-0.1,2-0.2,2.8-0.2c0.6,0,1.7,0.1,2.6,0.3l0.1-0.8l0.2,0.8c0.2,0,0.3,0,0.5,0.1l0.1-0.6l0.1,0.7c0.5,0.1,0.8,0.2,0.8,0.2
        c0.3,0.3,0.3,8.7,0.4,9C403.8,341.7,406.2,342.6,405.9,341.3z"/>
      <path id="Shirt_3_" class="st20" d="M395.4,340.1c0,0,2.5,3.7,3.4,3.7c1,0,3.4-3.7,3.4-3.7s3.5,0,6.3,3.9c0,0-4.3,4.5-9.5,4.5
        s-9.9-4.6-9.9-4.6S391.2,340.4,395.4,340.1z"/>
      <path id="Circle-outline_3_" class="st9" d="M398.9,322.5c7,0,12.7,5.7,12.7,12.7c0,3.4-1.3,6.6-3.7,9c-2.4,2.4-5.6,3.7-9,3.7
        c-7,0-12.7-5.7-12.7-12.7c0-3.4,1.3-6.6,3.7-9C392.3,323.8,395.5,322.5,398.9,322.5 M398.9,321.6c-7.5,0-13.6,6.1-13.6,13.6
        s6.1,13.6,13.6,13.6s13.6-6.1,13.6-13.6S406.3,321.6,398.9,321.6L398.9,321.6z"/>
    </g>
  </g>
  <g>
    <linearGradient id="gradient--10" gradientUnits="userSpaceOnUse" x1="458.0713" y1="384.845" x2="458.0713" y2="195.545">
      <stop  offset="0" style="stop-color:#FFFFFF"/>
      <stop  offset="1" style="stop-color:#FFFFFF;stop-opacity:0"/>
    </linearGradient>
    <path class="st42" d="M464,381.7c0,0,0.8,3.1-5.9,3.1s-5.9-3.1-5.9-3.1L406,195.5h104.2L464,381.7z"/>
    <g id="Fitbit_2_">
      <g id="Fitbit-logo_2_">
        <ellipse class="st13" cx="457.6" cy="234.4" rx="27.1" ry="27.1"/>
        <g>
          <path class="st43" d="M454.3,222.9c1.3-1.4,3.1-2.2,5.2-2.2c2.7,0,5,1.5,6.3,3.7c1.1-0.5,2.3-0.8,3.6-0.8c4.8,0,8.8,4,8.8,8.9
            s-3.9,8.9-8.8,8.9c-0.6,0-1.2-0.1-1.7-0.2c-1.1,2-3.2,3.3-5.6,3.3c-1,0-2-0.2-2.8-0.6c-1.1,2.6-3.7,4.5-6.7,4.5
            c-3.2,0-5.8-2-6.9-4.8c-0.5,0.1-0.9,0.1-1.4,0.1c-3.8,0-6.8-3.1-6.8-6.9c0-2.5,1.4-4.8,3.4-5.9c-0.4-1-0.7-2-0.7-3.1
            c0-4.4,3.5-7.9,7.9-7.9C450.6,219.8,452.9,221.1,454.3,222.9"/>
          <path class="st13" d="M443.3,234.6C443.3,234.7,443.3,234.7,443.3,234.6c0.1,0.1,0.2,0.2,0.3,0.2c0.4,0.2,0.8,0.3,1.2,0.3
            c0.8,0,1.4-0.4,1.4-1.2l0,0c0-0.7-0.6-0.9-1.1-1.1H445c-0.4-0.1-0.8-0.3-0.8-0.5l0,0c0-0.2,0.2-0.4,0.5-0.4
            c0.4,0,0.8,0.1,1.1,0.3c0,0,0.1,0.1,0.1,0c0,0,0.2-0.4,0.2-0.5v-0.1c-0.3-0.2-0.7-0.3-1.2-0.3h-0.1c-0.8,0-1.3,0.5-1.3,1.1l0,0
            c0,0.7,0.6,0.9,1.1,1.1h0.1c0.4,0.1,0.7,0.2,0.7,0.5l0,0c0,0.3-0.2,0.5-0.6,0.5c-0.1,0-0.6,0-1.1-0.3c-0.1,0-0.1-0.1-0.1-0.1
            h-0.1L443.3,234.6L443.3,234.6z"/>
          <path class="st13" d="M455.5,234.6C455.5,234.7,455.5,234.7,455.5,234.6c0.1,0.1,0.2,0.2,0.3,0.2c0.4,0.2,0.8,0.3,1.2,0.3
            c0.8,0,1.4-0.4,1.4-1.2l0,0c0-0.7-0.6-0.9-1.1-1.1h-0.1c-0.4-0.1-0.8-0.3-0.8-0.5l0,0c0-0.2,0.2-0.4,0.5-0.4
            c0.4,0,0.8,0.1,1.1,0.3c0,0,0.1,0.1,0.1,0c0,0,0.2-0.4,0.2-0.5v-0.1c-0.3-0.2-0.7-0.3-1.2-0.3H457c-0.8,0-1.3,0.5-1.3,1.1l0,0
            c0,0.7,0.6,0.9,1.1,1.1h0.1c0.4,0.1,0.7,0.2,0.7,0.5l0,0c0,0.3-0.2,0.5-0.6,0.5c-0.1,0-0.6,0-1.1-0.3c-0.1,0-0.1-0.1-0.1-0.1
            h-0.1L455.5,234.6L455.5,234.6z"/>
          <path class="st13" d="M463.9,233.2c0,0.4-0.1,0.7-0.2,0.9s-0.4,0.3-0.7,0.3c-0.3,0-0.5-0.1-0.7-0.3c-0.1-0.2-0.2-0.5-0.2-0.9
            s0.1-0.7,0.2-0.9s0.4-0.3,0.7-0.3c0.3,0,0.5,0.1,0.7,0.3C463.8,232.5,463.9,232.8,463.9,233.2 M464.6,232.5
            c-0.1-0.2-0.2-0.4-0.3-0.6c-0.1-0.2-0.3-0.3-0.5-0.4c-0.2-0.1-0.5-0.1-0.7-0.1c-0.3,0-0.5,0.1-0.7,0.1
            c-0.2,0.1-0.4,0.2-0.5,0.4s-0.2,0.4-0.3,0.6c-0.1,0.2-0.1,0.5-0.1,0.7s0,0.5,0.1,0.7s0.2,0.4,0.3,0.6c0.1,0.2,0.3,0.3,0.5,0.4
            c0.2,0.1,0.5,0.1,0.7,0.1c0.3,0,0.5,0,0.7-0.1s0.4-0.2,0.5-0.4s0.2-0.4,0.3-0.6c0.1-0.2,0.1-0.5,0.1-0.7
            C464.7,232.9,464.6,232.7,464.6,232.5"/>
          <path class="st13" d="M470.3,234.4C470.3,234.3,470.2,234.3,470.3,234.4c-0.2,0-0.3,0-0.4,0.1c-0.1,0-0.2,0-0.4,0
            c-0.3,0-0.6-0.1-0.8-0.3c-0.2-0.2-0.3-0.5-0.3-1c0-0.4,0.1-0.7,0.3-0.9c0.2-0.2,0.4-0.3,0.8-0.3c0.3,0,0.5,0,0.7,0.1h0.1
            c0.1-0.2,0.1-0.3,0.2-0.5c0-0.1,0-0.1,0-0.1c-0.1,0-0.3-0.1-0.5-0.1s-0.3,0-0.5,0c-0.3,0-0.6,0-0.8,0.1
            c-0.2,0.1-0.4,0.2-0.6,0.4c-0.1,0.2-0.3,0.4-0.3,0.6c-0.1,0.2-0.1,0.5-0.1,0.8c0,0.6,0.2,1,0.5,1.4c0.3,0.3,0.8,0.5,1.4,0.5
            c0.4,0,0.7-0.1,1-0.2c0,0,0.1,0,0-0.1L470.3,234.4L470.3,234.4z"/>
          <path class="st13" d="M471.5,232.8c0-0.2,0.1-0.4,0.2-0.6c0.1-0.2,0.4-0.3,0.7-0.3s0.5,0.1,0.7,0.3c0.1,0.1,0.1,0.3,0.2,0.6
            H471.5L471.5,232.8z M473.9,232.3c-0.1-0.2-0.2-0.4-0.3-0.6c-0.2-0.2-0.3-0.3-0.4-0.3c-0.2-0.1-0.4-0.1-0.7-0.1
            c-0.3,0-0.6,0-0.8,0.2c-0.2,0.1-0.4,0.2-0.5,0.4s-0.3,0.4-0.3,0.6c-0.1,0.2-0.1,0.5-0.1,0.8s0,0.5,0.1,0.8
            c0.1,0.2,0.2,0.4,0.3,0.6c0.2,0.2,0.4,0.3,0.6,0.4c0.2,0.1,0.5,0.1,0.9,0.1c0.7,0,1-0.2,1.2-0.2c0,0,0.1,0,0-0.1l-0.2-0.4
            c0-0.1-0.1,0-0.1,0c-0.2,0.1-0.4,0.2-1,0.2c-0.4,0-0.6-0.1-0.8-0.3c-0.2-0.2-0.3-0.4-0.3-0.8h2.4c0,0,0.1,0,0.1-0.1
            C473.9,233.3,474,232.9,473.9,232.3L473.9,232.3z"/>
          <path class="st13" d="M452.6,232.8c0-0.2,0.1-0.4,0.2-0.6c0.1-0.2,0.4-0.3,0.7-0.3s0.5,0.1,0.7,0.3c0.1,0.1,0.1,0.3,0.2,0.6
            H452.6L452.6,232.8z M454.9,232.3c-0.1-0.2-0.2-0.4-0.3-0.6c-0.2-0.2-0.3-0.3-0.4-0.3c-0.2-0.1-0.4-0.1-0.7-0.1
            c-0.3,0-0.6,0-0.8,0.2c-0.2,0.1-0.4,0.2-0.5,0.4s-0.3,0.4-0.3,0.6c-0.1,0.2-0.1,0.5-0.1,0.8s0,0.5,0.1,0.8
            c0.1,0.2,0.2,0.4,0.3,0.6c0.2,0.2,0.4,0.3,0.6,0.4c0.2,0.1,0.5,0.1,0.9,0.1c0.7,0,1-0.2,1.2-0.2c0,0,0.1,0,0-0.1l-0.2-0.4
            c0-0.1-0.1,0-0.1,0c-0.2,0.1-0.4,0.2-1,0.2c-0.4,0-0.6-0.1-0.8-0.3c-0.2-0.2-0.3-0.4-0.3-0.8h2.4c0,0,0.1,0,0.1-0.1
            C455,233.3,455.1,232.9,454.9,232.3L454.9,232.3z"/>
          <path class="st13" d="M447.5,234.4c-0.1-0.1-0.1-0.1-0.1-0.1c0-0.1-0.1-0.2-0.1-0.3c0-0.2,0.1-0.4,0.2-0.5c0,0,0.2-0.2,0.7-0.2
            c0.3,0,0.6,0.1,0.6,0.1v1.1l0,0c0,0-0.3,0.1-0.6,0.1C447.7,234.5,447.5,234.4,447.5,234.4 M448.4,232.7c-0.1,0-0.2,0-0.4,0
            c-0.2,0-0.4,0-0.6,0.1c-0.2,0-0.4,0.1-0.5,0.2c-0.1,0.1-0.3,0.2-0.3,0.4c-0.1,0.2-0.1,0.3-0.1,0.5s0,0.4,0.1,0.5
            s0.2,0.3,0.3,0.4c0.1,0.1,0.3,0.2,0.5,0.2s0.4,0.1,0.6,0.1s0.5,0,0.7-0.1c0.2,0,0.5-0.1,0.6-0.1s0.2,0,0.2,0
            c0.1,0,0.1-0.1,0.1-0.1v-2.2c0-0.5-0.1-0.8-0.4-1c-0.2-0.2-0.6-0.3-1.1-0.3c-0.2,0-0.5,0-0.6,0.1c0,0-0.5,0.1-0.7,0.3
            c0,0,0,0,0,0.1l0.2,0.4c0,0.1,0.1,0,0.1,0l0,0c0.5-0.2,1-0.2,1-0.2c0.3,0,0.5,0.1,0.6,0.2c0.1,0.1,0.2,0.2,0.2,0.6v0.1
            C448.6,232.7,448.4,232.7,448.4,232.7"/>
          <path class="st13" d="M467.5,231.5C467.5,231.4,467.5,231.4,467.5,231.5c-0.1-0.1-0.3-0.1-0.4-0.2c-0.3,0-0.5,0-0.6,0.1
            s-0.3,0.2-0.4,0.3v-0.3c0,0,0-0.1-0.1-0.1h-0.6c0,0-0.1,0-0.1,0.1v3.5c0,0,0,0.1,0.1,0.1h0.6c0,0,0.1,0,0.1-0.1v-1.8
            c0-0.2,0-0.5,0.1-0.6s0.1-0.3,0.2-0.3c0.1-0.1,0.2-0.1,0.3-0.2c0.1,0,0.2,0,0.3,0c0.1,0,0.3,0,0.3,0s0.1,0,0.1-0.1
            C467.3,231.9,467.5,231.6,467.5,231.5"/>
          <path class="st13" d="M461.7,229.9c-0.1,0-0.1,0-0.2-0.1c-0.1,0-0.2,0-0.3,0c-0.4,0-0.8,0.1-1,0.4c-0.2,0.2-0.4,0.6-0.5,1.1
            v0.2h-0.5c0,0-0.1,0-0.1,0.1l-0.1,0.5c0,0,0,0.1,0.1,0.1h0.5l-0.5,3c0,0.2-0.1,0.4-0.1,0.6c-0.1,0.1-0.1,0.3-0.2,0.3
            c-0.1,0.1-0.1,0.1-0.2,0.2c-0.1,0-0.2,0-0.3,0c-0.1,0-0.1,0-0.2,0s-0.1,0-0.1,0h-0.1c0,0.1-0.2,0.4-0.2,0.5v0.1
            c0.1,0,0.1,0,0.2,0.1c0.1,0,0.2,0,0.3,0c0.2,0,0.4,0,0.6-0.1s0.3-0.2,0.4-0.3c0.1-0.2,0.2-0.3,0.3-0.5c0.1-0.2,0.2-0.5,0.2-0.8
            l0.5-3h0.8c0,0,0.1,0,0.1-0.1l0.1-0.5c0,0,0-0.1-0.1-0.1h-0.8c0,0,0-0.3,0.1-0.5c0-0.1,0.1-0.2,0.2-0.3s0.1-0.1,0.2-0.1
            s0.2,0,0.3,0c0.1,0,0.1,0,0.2,0s0.1,0,0.1,0c0.1,0,0.1,0,0.1,0L461.7,229.9L461.7,229.9"/>
          <path class="st13" d="M451.1,235L451.1,235l-0.7,0.1c0,0-0.1,0-0.1-0.1v-5c0,0,0-0.1,0.1-0.1h0.6c0,0,0.1,0,0.1,0.1V235
            L451.1,235z"/>
        </g>
      </g>
    </g>
    <g id="Man-2_1_">
      <circle id="Circle-BG_1_" class="st17" cx="458.5" cy="294.9" r="20.1"/>
      <path id="Body_1_" class="st30" d="M472.6,308.3c-2.2-3.2-5.4-5.2-9.3-6.1v-1.8c1.6-1.6,3.1-3.7,3.8-6c0.5,0,1.1-0.8,1.3-2
        c0.3-1.3,0-2.5-0.5-2.6c-0.2,0-0.3,0-0.5,0c-0.6-4.9-3.8-8.7-8.9-8.7s-8.3,3.8-8.9,8.7c-0.2-0.1-0.4-0.1-0.5,0
        c-0.6,0.2-0.9,1.4-0.6,2.6s0.9,2,1.4,2c0.7,2.3,2.1,4.5,3.8,6.1v1.6c-4.2,0.8-7.6,2.7-9.4,6.3c-0.5,1,10,6.3,14.3,6.3
        C464.2,314.8,473.4,309.4,472.6,308.3z"/>
      <path id="Hair_1_" class="st26" d="M449.5,289.8c0,0-0.1-9.4,8-9.4c1.4-0.5,5.2-0.7,8.2,2.5c2.7,2.9,1.6,7,1.6,7
        s-5.5-0.6-9.4-5.7C458,284.2,452.5,284.8,449.5,289.8z"/>
      <path id="Shirt_1_" class="st20" d="M453.4,302.1c0,0,2.3,4.6,5,4.6c2.8,0,5.1-4.6,5.1-4.6s5.2,0,9.3,5.8c0,0-6.4,6.7-14.1,6.7
        s-14.6-6.7-14.6-6.7S447.1,302.6,453.4,302.1z"/>
      <path id="Circle-outline_1_" class="st9" d="M458.5,276.1c10.4,0,18.8,8.5,18.8,18.8c0,5-2,9.8-5.5,13.3s-8.3,5.5-13.3,5.5
        c-10.4,0-18.8-8.5-18.8-18.8c0-5,2-9.8,5.5-13.3C448.6,278.1,453.4,276.1,458.5,276.1 M458.5,274.8c-11.1,0-20.1,9-20.1,20.1
        c0,11,9,20.1,20.1,20.1c11,0,20.1-9,20.1-20.1S469.6,274.8,458.5,274.8L458.5,274.8z"/>
    </g>
  </g>
  <g>
    <g>
      <g>
        <g>
          <polyline class="st44" points="369.8,220.8 404.3,240.8 404.3,65.6 424.9,53.8 477.2,84 					"/>
          <g>
            <g>
              <ellipse transform="matrix(0.5 -0.866 0.866 0.5 -6.344 430.6655)" class="st13" cx="369.8" cy="220.8" rx="3.8" ry="3.8"/>
              <path class="st45" d="M367.7,224.5c2,1.2,4.6,0.5,5.8-1.6c1.2-2,0.5-4.6-1.6-5.8c-2-1.2-4.6-0.5-5.8,1.6
                S365.6,223.3,367.7,224.5C369.7,225.7,365.6,223.3,367.7,224.5z M371.4,218c1.6,0.9,2.1,2.9,1.2,4.5s-2.9,2.1-4.5,1.2
                c-1.6-0.9-2.1-2.9-1.2-4.5C367.9,217.6,369.9,217.1,371.4,218C373,218.9,369.9,217.1,371.4,218z"/>
            </g>
          </g>
          <g>
            <ellipse transform="matrix(0.5 -0.866 0.866 0.5 165.8435 455.2917)" class="st45" cx="477.2" cy="84" rx="3.8" ry="3.8"/>
          </g>
        </g>
      </g>
    </g>
  </g>
  <g>
    <path class="st13" d="M496.8,87.2c0.1,0.3,0.2,0.5,0.2,0.8v12.1c0,0.3-0.1,0.5-0.2,0.6c-0.1,0.1-0.3,0.1-0.5,0
      c-0.2-0.1-0.4-0.3-0.5-0.6c-0.1-0.3-0.2-0.5-0.2-0.8V90l-2.9,4.2c-0.1,0.1-0.2,0.1-0.3,0.1c-0.1,0-0.2,0-0.3-0.1
      c-0.1,0-0.2-0.1-0.3-0.3c-0.1-0.1-0.2-0.3-0.3-0.5l-2.9-7.7v9.4c0,0.3-0.1,0.5-0.2,0.6c-0.1,0.1-0.3,0.1-0.5,0
      c-0.2-0.1-0.4-0.3-0.5-0.6s-0.2-0.5-0.2-0.8V82.3c0-0.3,0.1-0.4,0.2-0.5c0.1-0.1,0.3-0.1,0.5,0c0.1,0.1,0.2,0.2,0.4,0.3
      c0.1,0.1,0.2,0.3,0.3,0.5l3.6,9.2l3.6-5.1c0.2-0.2,0.4-0.2,0.6-0.1C496.5,86.8,496.6,86.9,496.8,87.2z"/>
    <path class="st13" d="M506.2,103.9c-0.3,0.6-0.8,1-1.4,1.1c-0.6,0.1-1.3,0-2-0.5c-0.7-0.4-1.4-1-2-1.9c-0.6-0.8-1.1-1.7-1.4-2.8
      c-0.4-1-0.5-2.1-0.5-3.1s0.2-1.9,0.5-2.5c0.3-0.6,0.8-1,1.4-1.1c0.6-0.1,1.3,0,2,0.5c0.7,0.4,1.4,1,2,1.9c0.6,0.8,1.1,1.7,1.4,2.8
      c0.4,1,0.5,2.1,0.5,3.1S506.6,103.3,506.2,103.9z M505,98.5c-0.2-0.7-0.5-1.3-0.9-1.8c-0.4-0.5-0.8-0.9-1.3-1.2
      c-0.5-0.3-0.9-0.4-1.3-0.3c-0.4,0.1-0.7,0.4-0.9,0.8c-0.2,0.4-0.3,1-0.3,1.7c0,0.7,0.1,1.4,0.3,2.1c0.2,0.7,0.5,1.3,0.9,1.8
      c0.4,0.5,0.8,0.9,1.3,1.2c0.5,0.3,0.9,0.4,1.3,0.3c0.4-0.1,0.7-0.4,0.9-0.8c0.2-0.4,0.3-1,0.3-1.7C505.3,99.9,505.2,99.2,505,98.5
      z"/>
    <path class="st13" d="M515.3,97.1c0.1,0.3,0.2,0.5,0.2,0.8v12.9c0,0.3-0.1,0.5-0.2,0.6c-0.1,0.1-0.3,0.1-0.5,0
      c-0.2-0.1-0.4-0.3-0.5-0.6s-0.2-0.5-0.2-0.8v-0.6c-0.3,0.3-0.6,0.5-1.1,0.6s-0.9,0-1.5-0.3c-0.7-0.4-1.3-1-1.8-1.8
      c-0.5-0.8-1-1.7-1.3-2.7c-0.3-1-0.5-2-0.5-3.1s0.2-1.9,0.5-2.5c0.3-0.7,0.7-1.1,1.3-1.2c0.5-0.1,1.2,0,1.8,0.3
      c0.5,0.3,1,0.7,1.5,1.3c0.5,0.6,0.8,1.1,1.1,1.8v-4.7c0-0.3,0.1-0.5,0.2-0.6s0.3-0.1,0.5,0C515,96.6,515.1,96.8,515.3,97.1z
        M513,108.2c0.4-0.1,0.7-0.4,0.9-0.8c0.2-0.4,0.3-1,0.3-1.7c0-0.7-0.1-1.4-0.3-2.1s-0.5-1.3-0.9-1.8c-0.4-0.5-0.8-0.9-1.3-1.2
      c-0.5-0.3-0.9-0.4-1.3-0.2s-0.7,0.4-0.9,0.8c-0.2,0.4-0.3,1-0.3,1.7c0,0.7,0.1,1.4,0.3,2.1c0.2,0.7,0.5,1.3,0.9,1.8
      s0.8,0.9,1.3,1.2C512.2,108.3,512.6,108.3,513,108.2z"/>
    <path class="st13" d="M524.2,106.6c0.1,0.3,0.2,0.5,0.2,0.8v5.3c0,1.4-0.3,2.3-0.9,2.7c-0.6,0.4-1.4,0.3-2.4-0.3
      c-1-0.6-1.8-1.4-2.4-2.5c-0.6-1.1-0.9-2.3-0.9-3.7v-5.3c0-0.3,0.1-0.5,0.2-0.6c0.1-0.1,0.3-0.1,0.5,0c0.2,0.1,0.4,0.3,0.5,0.6
      c0.1,0.3,0.2,0.5,0.2,0.8v5.3c0,1.7,0.6,3,1.8,3.7c0.6,0.4,1.1,0.4,1.4,0.1c0.3-0.3,0.5-0.8,0.5-1.7v-5.3c0-0.3,0.1-0.5,0.2-0.6
      c0.1-0.1,0.3-0.1,0.5,0C523.9,106.1,524.1,106.3,524.2,106.6z"/>
    <path class="st13" d="M527.9,118.6c-0.1,0.1-0.3,0.1-0.5,0c-0.2-0.1-0.4-0.3-0.5-0.6c-0.1-0.3-0.2-0.5-0.2-0.8v-12.9
      c0-0.3,0.1-0.5,0.2-0.6s0.3-0.1,0.5,0c0.2,0.1,0.4,0.3,0.5,0.6s0.2,0.5,0.2,0.8v12.9C528.1,118.3,528,118.5,527.9,118.6z"/>
    <path class="st13" d="M536.9,119c-0.1,0.1-0.3,0.1-0.5,0l-5.3-3c0.1,1,0.3,2,0.8,2.8c0.5,0.9,1.1,1.5,1.8,1.9
      c0.5,0.3,0.9,0.4,1.2,0.4c0.3,0,0.6-0.1,0.8-0.3c0.2,0,0.3,0,0.4,0.1c0.2,0.1,0.3,0.3,0.4,0.5c0.1,0.2,0.2,0.4,0.2,0.7
      c0,0.3-0.1,0.5-0.3,0.6c-0.3,0.2-0.7,0.3-1.2,0.3c-0.5,0-1-0.2-1.5-0.4c-0.8-0.5-1.5-1.1-2.1-1.9c-0.6-0.8-1.1-1.7-1.4-2.7
      s-0.5-2-0.5-3.1c0-1.1,0.2-2,0.5-2.7c0.3-0.6,0.8-1,1.4-1.2c0.6-0.1,1.2,0,1.8,0.4c0.6,0.4,1.2,0.9,1.8,1.7c0.6,0.8,1,1.6,1.4,2.6
      c0.3,1,0.5,1.9,0.5,2.9C537.1,118.8,537,119,536.9,119z M531.9,112.9c-0.4,0.2-0.7,0.7-0.8,1.5l4.4,2.6v-0.2
      c0-0.7-0.3-1.5-0.7-2.2c-0.4-0.7-0.9-1.2-1.4-1.5C532.8,112.8,532.4,112.7,531.9,112.9z"/>
    <path class="st13" d="M538.1,122.6c0-0.3,0.1-0.4,0.3-0.5c0.1,0,0.2,0,0.3,0.1c0.2,0.1,0.3,0.3,0.5,0.6c0.3,0.6,0.6,1.2,1,1.6
      c0.3,0.4,0.8,0.8,1.2,1.1c0.4,0.2,0.7,0.3,1,0.2s0.4-0.3,0.4-0.8c0-0.5-0.1-0.9-0.4-1.3c-0.3-0.4-0.7-0.9-1.3-1.4
      c-0.6-0.5-1-1-1.4-1.4c-0.4-0.4-0.7-0.9-0.9-1.5c-0.3-0.6-0.4-1.2-0.4-1.9c0-0.6,0.1-1.1,0.4-1.4c0.3-0.3,0.6-0.5,1-0.5
      c0.4,0,0.9,0.1,1.4,0.4c0.5,0.3,1,0.7,1.4,1.2c0.5,0.5,0.9,1.1,1.2,1.8c0.1,0.3,0.2,0.5,0.2,0.7c0,0.2-0.1,0.4-0.2,0.5
      c-0.1,0.1-0.2,0.1-0.4,0c-0.2-0.1-0.3-0.3-0.4-0.5c-0.2-0.4-0.5-0.8-0.8-1.2c-0.3-0.3-0.6-0.6-1-0.8c-0.4-0.2-0.7-0.3-1-0.2
      c-0.3,0.1-0.4,0.3-0.4,0.8c0,0.5,0.2,0.9,0.5,1.3s0.7,0.9,1.4,1.4c0.5,0.5,1,0.9,1.3,1.4s0.6,0.9,0.9,1.5s0.4,1.2,0.4,1.9
      c0,0.6-0.1,1.1-0.4,1.4s-0.6,0.5-1.1,0.4c-0.4,0-0.9-0.1-1.4-0.4c-0.6-0.4-1.2-0.8-1.7-1.4c-0.5-0.6-1-1.3-1.4-2.2
      C538.2,123,538.1,122.8,538.1,122.6z"/>
  </g>
  <g>
    <g>
      <polyline class="st44" points="128.4,314.2 121.9,310.5 121.9,376.1 10.8,440.2 10.8,459.9 59.9,488.3 			"/>
      <g>
        <g>

            <ellipse transform="matrix(0.4999 -0.8661 0.8661 0.4999 -207.9589 268.3489)" class="st13" cx="128.4" cy="314.2" rx="3.8" ry="3.8"/>
          <path class="st45" d="M130.5,310.6c-2-1.2-4.6-0.5-5.8,1.6c-1.2,2-0.5,4.6,1.6,5.8c2,1.2,4.6,0.5,5.8-1.6
            C133.2,314.3,132.5,311.7,130.5,310.6C128.5,309.4,132.5,311.7,130.5,310.6z M126.8,317.1c-1.6-0.9-2.1-2.9-1.2-4.5
            c0.9-1.6,2.9-2.1,4.5-1.2c1.6,0.9,2.1,2.9,1.2,4.5C130.3,317.4,128.3,318,126.8,317.1C125.2,316.2,128.3,318,126.8,317.1z"/>
        </g>
      </g>
      <g>

          <ellipse transform="matrix(0.4999 -0.8661 0.8661 0.4999 -392.9359 296.0925)" class="st45" cx="59.9" cy="488.3" rx="3.8" ry="3.8"/>
      </g>
    </g>
  </g>
  <g>
    <path class="st13" d="M77.3,490.8c0.7,1,1.2,2.1,1.5,3.4c0.3,1.3,0.5,2.5,0.5,3.8c0,1.3-0.2,2.4-0.5,3.3c-0.3,0.9-0.8,1.4-1.5,1.6
      c-0.7,0.2-1.5,0.1-2.4-0.5l-3.7-2.1c-0.2-0.1-0.4-0.3-0.5-0.6c-0.1-0.3-0.2-0.5-0.2-0.8v-12.1c0-0.3,0.1-0.5,0.2-0.6
      c0.1-0.1,0.3-0.1,0.5,0l3.7,2.1C75.8,489,76.6,489.8,77.3,490.8z M77,500.4c0.5-0.7,0.8-1.8,0.8-3.3c0-1.5-0.3-2.9-0.8-4.1
      c-0.5-1.3-1.3-2.2-2.3-2.8l-2.8-1.6v10.3l2.8,1.6C75.7,501.1,76.5,501.1,77,500.4z"/>
    <path class="st13" d="M87.8,504.9c-0.1,0.1-0.3,0.1-0.5,0l-5.3-3c0.1,1,0.3,2,0.8,2.8c0.5,0.9,1.1,1.5,1.8,1.9
      c0.5,0.3,0.9,0.4,1.2,0.4s0.6-0.1,0.8-0.3c0.2,0,0.3,0,0.4,0.1c0.2,0.1,0.3,0.3,0.4,0.5c0.1,0.2,0.2,0.4,0.2,0.7
      c0,0.3-0.1,0.5-0.3,0.6c-0.3,0.2-0.7,0.3-1.2,0.3c-0.5,0-1-0.2-1.5-0.4c-0.8-0.5-1.5-1.1-2.1-1.9c-0.6-0.8-1.1-1.7-1.4-2.7
      c-0.3-1-0.5-2-0.5-3.1c0-1.1,0.2-2,0.5-2.7c0.3-0.6,0.8-1,1.4-1.2c0.6-0.1,1.2,0,1.8,0.4c0.6,0.4,1.2,0.9,1.8,1.7
      c0.6,0.8,1,1.6,1.4,2.6c0.3,1,0.5,1.9,0.5,2.9C88,504.7,87.9,504.8,87.8,504.9z M82.9,498.8c-0.4,0.2-0.7,0.7-0.8,1.5l4.4,2.6
      v-0.2c0-0.7-0.3-1.5-0.7-2.2c-0.4-0.7-0.9-1.2-1.4-1.5C83.8,498.7,83.3,498.6,82.9,498.8z"/>
    <path class="st13" d="M96.1,504.4c0.1,0.2,0.2,0.5,0.2,0.7c0,0.1,0,0.3-0.1,0.4l-2.8,7c-0.1,0.1-0.1,0.2-0.3,0.3
      c-0.1,0-0.2,0-0.4,0c-0.2-0.1-0.3-0.2-0.4-0.4c-0.1-0.2-0.2-0.4-0.3-0.7l-2.9-10.3c0-0.2-0.1-0.4-0.1-0.5c0-0.2,0.1-0.4,0.2-0.5
      c0.1-0.1,0.3-0.1,0.5,0c0.2,0.1,0.3,0.2,0.4,0.4c0.1,0.2,0.2,0.4,0.3,0.6l2.3,8.3l2.3-5.7c0.1-0.3,0.4-0.4,0.6-0.2
      C95.8,504,96,504.2,96.1,504.4z"/>
    <path class="st13" d="M104.4,514.5c-0.1,0.1-0.3,0.1-0.5,0l-5.3-3c0.1,1,0.3,2,0.8,2.8c0.5,0.9,1.1,1.5,1.8,1.9
      c0.5,0.3,0.9,0.4,1.2,0.4c0.3,0,0.6-0.1,0.8-0.3c0.2,0,0.3,0,0.4,0.1c0.2,0.1,0.3,0.3,0.4,0.5c0.1,0.2,0.2,0.4,0.2,0.7
      c0,0.3-0.1,0.5-0.3,0.6c-0.3,0.2-0.7,0.3-1.2,0.3c-0.5,0-1-0.2-1.5-0.4c-0.8-0.5-1.5-1.1-2.1-1.9c-0.6-0.8-1.1-1.7-1.4-2.7
      s-0.5-2-0.5-3c0-1.1,0.2-2,0.5-2.7c0.3-0.6,0.8-1,1.4-1.2c0.6-0.1,1.2,0,1.8,0.4c0.6,0.4,1.2,0.9,1.8,1.7c0.6,0.8,1,1.6,1.4,2.6
      c0.3,1,0.5,1.9,0.5,2.9C104.6,514.3,104.6,514.4,104.4,514.5z M99.5,508.4c-0.4,0.2-0.7,0.7-0.8,1.5l4.4,2.6v-0.2
      c0-0.7-0.3-1.5-0.7-2.2c-0.4-0.7-0.9-1.2-1.4-1.5C100.4,508.3,99.9,508.2,99.5,508.4z"/>
    <path class="st13" d="M107.6,521.1c-0.1,0.1-0.3,0.1-0.5,0c-0.2-0.1-0.4-0.3-0.5-0.6c-0.1-0.3-0.2-0.5-0.2-0.8v-12.9
      c0-0.3,0.1-0.5,0.2-0.6c0.1-0.1,0.3-0.1,0.5,0c0.2,0.1,0.4,0.3,0.5,0.6c0.1,0.3,0.2,0.5,0.2,0.8v12.9
      C107.8,520.8,107.8,521,107.6,521.1z"/>
    <path class="st13" d="M116.9,524.3c-0.3,0.6-0.8,1-1.4,1.1c-0.6,0.1-1.3,0-2-0.5c-0.7-0.4-1.4-1-2-1.9s-1.1-1.7-1.4-2.8
      c-0.4-1-0.5-2.1-0.5-3.1s0.2-1.9,0.5-2.5c0.3-0.6,0.8-1,1.4-1.1c0.6-0.1,1.3,0,2,0.5c0.7,0.4,1.4,1,2,1.9c0.6,0.8,1.1,1.7,1.4,2.8
      c0.4,1,0.5,2.1,0.5,3.1S117.2,523.7,116.9,524.3z M115.6,518.8c-0.2-0.7-0.5-1.3-0.9-1.8c-0.4-0.5-0.8-0.9-1.3-1.2
      c-0.5-0.3-0.9-0.4-1.3-0.3c-0.4,0.1-0.7,0.4-0.9,0.8c-0.2,0.4-0.3,1-0.3,1.7c0,0.7,0.1,1.4,0.3,2.1c0.2,0.7,0.5,1.3,0.9,1.8
      c0.4,0.5,0.8,0.9,1.3,1.2c0.5,0.3,0.9,0.4,1.3,0.3c0.4-0.1,0.7-0.4,0.9-0.8c0.2-0.4,0.3-1,0.3-1.7
      C116,520.3,115.9,519.5,115.6,518.8z"/>
    <path class="st13" d="M124.8,521.4c0.5,0.8,1,1.7,1.3,2.7c0.3,1,0.5,2,0.5,3.1s-0.2,1.9-0.5,2.5c-0.3,0.6-0.7,1-1.3,1.2
      c-0.5,0.1-1.2,0-1.8-0.3c-0.5-0.3-1-0.7-1.5-1.3c-0.5-0.6-0.8-1.2-1.1-1.8v4.4c0,0.3-0.1,0.5-0.2,0.6c-0.1,0.1-0.3,0.1-0.5,0
      c-0.2-0.1-0.4-0.3-0.5-0.6c-0.1-0.3-0.2-0.5-0.2-0.8v-12.6c0-0.3,0.1-0.5,0.2-0.6c0.1-0.1,0.3-0.1,0.5,0s0.4,0.3,0.5,0.6
      s0.2,0.5,0.2,0.8v0.6c0.2-0.3,0.6-0.5,1.1-0.6s0.9,0,1.5,0.3C123.7,520,124.3,520.6,124.8,521.4z M124.1,528.8
      c0.4-0.1,0.7-0.4,0.9-0.8c0.2-0.4,0.3-1,0.3-1.7s-0.1-1.4-0.3-2c-0.2-0.7-0.5-1.3-0.9-1.8s-0.8-0.9-1.2-1.2
      c-0.5-0.3-0.9-0.4-1.3-0.3c-0.4,0.1-0.7,0.4-0.9,0.8c-0.2,0.4-0.3,1-0.3,1.7s0.1,1.4,0.3,2.1c0.2,0.7,0.5,1.3,0.9,1.8
      c0.4,0.5,0.8,0.9,1.3,1.2C123.3,528.9,123.7,528.9,124.1,528.8z"/>
    <path class="st13" d="M134.9,532.1c-0.1,0.1-0.3,0.1-0.5,0l-5.3-3c0.1,1,0.3,2,0.8,2.8c0.5,0.9,1.1,1.5,1.8,1.9
      c0.5,0.3,0.9,0.4,1.2,0.4c0.3,0,0.6-0.1,0.8-0.3c0.2,0,0.3,0,0.4,0.1c0.2,0.1,0.3,0.3,0.4,0.5c0.1,0.2,0.2,0.4,0.2,0.7
      c0,0.3-0.1,0.5-0.3,0.6c-0.3,0.2-0.7,0.3-1.2,0.3c-0.5,0-1-0.2-1.5-0.4c-0.8-0.5-1.5-1.1-2.1-1.9c-0.6-0.8-1.1-1.7-1.4-2.7
      c-0.3-1-0.5-2-0.5-3c0-1.1,0.2-2,0.5-2.7c0.3-0.6,0.8-1,1.4-1.2c0.6-0.1,1.2,0,1.8,0.4c0.6,0.4,1.2,0.9,1.8,1.7
      c0.6,0.8,1,1.6,1.4,2.6c0.3,1,0.5,1.9,0.5,2.9C135.1,531.9,135.1,532,134.9,532.1z M130,526c-0.4,0.2-0.7,0.7-0.8,1.5l4.4,2.6
      v-0.2c0-0.7-0.3-1.5-0.7-2.2c-0.4-0.7-0.9-1.2-1.4-1.5C130.9,525.9,130.4,525.8,130,526z"/>
    <path class="st13" d="M141.4,530.4c0.2,0.3,0.3,0.6,0.3,0.8c0,0.3-0.1,0.5-0.2,0.6c-0.1,0.1-0.3,0.1-0.5,0
      c-0.1-0.1-0.2-0.2-0.4-0.4c-0.2-0.2-0.4-0.4-0.5-0.4c-0.3-0.2-0.6-0.2-0.9-0.1c-0.3,0.1-0.5,0.4-0.7,0.8s-0.3,0.9-0.3,1.5v4.8
      c0,0.3-0.1,0.5-0.2,0.6c-0.1,0.1-0.3,0.1-0.5,0c-0.2-0.1-0.4-0.3-0.5-0.6c-0.1-0.3-0.2-0.5-0.2-0.8v-8.6c0-0.3,0.1-0.5,0.2-0.6
      c0.1-0.1,0.3-0.1,0.5,0c0.2,0.1,0.4,0.3,0.5,0.6c0.1,0.3,0.2,0.5,0.2,0.8v1c0.2-0.5,0.5-0.9,1-1c0.4-0.2,0.9-0.1,1.5,0.2
      C141,529.9,141.2,530.1,141.4,530.4z"/>
    <path class="st13" d="M142.4,539.3c0-0.3,0.1-0.4,0.3-0.5c0.1,0,0.2,0,0.3,0.1c0.2,0.1,0.3,0.3,0.5,0.6c0.3,0.6,0.6,1.2,1,1.6
      c0.3,0.4,0.8,0.8,1.2,1.1c0.4,0.2,0.7,0.3,1,0.2c0.3-0.1,0.4-0.3,0.4-0.8c0-0.5-0.1-0.9-0.4-1.3c-0.3-0.4-0.7-0.9-1.3-1.4
      c-0.6-0.5-1-1-1.4-1.4c-0.4-0.4-0.7-0.9-0.9-1.5c-0.3-0.6-0.4-1.2-0.4-1.9c0-0.6,0.1-1.1,0.4-1.4c0.3-0.3,0.6-0.5,1-0.5
      c0.4,0,0.9,0.1,1.4,0.4c0.5,0.3,1,0.7,1.4,1.2c0.5,0.5,0.9,1.1,1.2,1.8c0.1,0.3,0.2,0.5,0.2,0.7c0,0.2-0.1,0.4-0.2,0.5
      c-0.1,0.1-0.2,0-0.4,0c-0.2-0.1-0.3-0.3-0.4-0.5c-0.2-0.4-0.5-0.8-0.8-1.2c-0.3-0.3-0.6-0.6-1-0.8c-0.4-0.2-0.7-0.3-1-0.2
      c-0.3,0.1-0.4,0.3-0.4,0.8c0,0.5,0.2,0.9,0.5,1.3c0.3,0.4,0.7,0.9,1.4,1.4c0.5,0.5,1,0.9,1.3,1.4s0.6,0.9,0.9,1.5s0.4,1.2,0.4,1.9
      c0,0.6-0.1,1.1-0.4,1.4s-0.6,0.5-1.1,0.4c-0.4,0-0.9-0.1-1.4-0.4c-0.6-0.4-1.2-0.8-1.7-1.4c-0.5-0.6-1-1.3-1.4-2.2
      C142.5,539.7,142.4,539.5,142.4,539.3z"/>
  </g>
  <g>
    <g>
      <polyline class="st44" points="455.1,443.5 481.8,458.9 481.8,478.7 438.4,503.7 473.4,524 			"/>
      <g>
        <g>

            <ellipse transform="matrix(0.5001 -0.866 0.866 0.5001 -156.5108 615.8168)" class="st13" cx="455.1" cy="443.5" rx="3.8" ry="3.8"/>
          <path class="st45" d="M453,447.2c2,1.2,4.6,0.5,5.8-1.6s0.5-4.6-1.6-5.8c-2-1.2-4.6-0.5-5.8,1.6C450.3,443.4,451,446,453,447.2
            C455.1,448.3,451,446,453,447.2z M456.8,440.7c1.6,0.9,2.1,2.9,1.2,4.5c-0.9,1.6-2.9,2.1-4.5,1.2c-1.6-0.9-2.1-2.9-1.2-4.5
            C453.2,440.3,455.2,439.8,456.8,440.7C458.3,441.6,455.2,439.8,456.8,440.7z"/>
        </g>
      </g>
      <g>

          <ellipse transform="matrix(0.4998 -0.8662 0.8662 0.4998 -217.0232 672.1409)" class="st45" cx="473.4" cy="524" rx="3.8" ry="3.8"/>
      </g>
    </g>
  </g>
  <g>
    <path class="st13" d="M492.7,526.7c0.1,0.3,0.2,0.5,0.2,0.8v12.1c0,0.3-0.1,0.5-0.2,0.6s-0.3,0.1-0.5,0c-0.2-0.1-0.4-0.3-0.5-0.6
      c-0.1-0.3-0.2-0.5-0.2-0.8v-9.3l-2.9,4.2c-0.1,0.1-0.2,0.1-0.3,0.1c-0.1,0-0.2,0-0.3-0.1c-0.1,0-0.2-0.1-0.3-0.3
      c-0.1-0.1-0.2-0.3-0.3-0.5l-2.9-7.7v9.4c0,0.3-0.1,0.5-0.2,0.6c-0.1,0.1-0.3,0.1-0.5,0c-0.2-0.1-0.4-0.3-0.5-0.6
      c-0.1-0.3-0.2-0.5-0.2-0.8v-12.1c0-0.3,0.1-0.4,0.2-0.5s0.3-0.1,0.5,0c0.1,0.1,0.2,0.2,0.4,0.3c0.1,0.1,0.2,0.3,0.3,0.5l3.6,9.2
      l3.6-5.1c0.2-0.2,0.4-0.2,0.6-0.1C492.4,526.3,492.6,526.5,492.7,526.7z"/>
    <path class="st13" d="M502.1,535.5c0.1,0.3,0.2,0.5,0.2,0.8v8.7c0,0.3-0.1,0.5-0.2,0.6c-0.1,0.1-0.3,0.1-0.5,0
      c-0.2-0.1-0.4-0.3-0.5-0.6s-0.2-0.5-0.2-0.8v-0.5c-0.3,0.3-0.6,0.5-1.1,0.6c-0.5,0.1-0.9,0-1.5-0.4c-0.7-0.4-1.3-1-1.9-1.8
      c-0.6-0.8-1-1.7-1.3-2.7c-0.3-1-0.5-2-0.5-3.1s0.2-1.9,0.5-2.5c0.3-0.7,0.7-1.1,1.3-1.2c0.5-0.1,1.2,0,1.8,0.3
      c0.5,0.3,1,0.7,1.5,1.3c0.5,0.6,0.8,1.1,1.1,1.7v-0.5c0-0.3,0.1-0.5,0.2-0.6c0.1-0.1,0.3-0.1,0.5,0
      C501.8,535.1,502,535.3,502.1,535.5z M499.8,542.5c0.4-0.1,0.7-0.4,0.9-0.8s0.3-1,0.3-1.7c0-0.7-0.1-1.4-0.3-2.1
      c-0.2-0.7-0.5-1.3-0.9-1.8c-0.4-0.5-0.8-0.9-1.3-1.2c-0.5-0.3-0.9-0.4-1.3-0.2s-0.7,0.4-0.9,0.8c-0.2,0.4-0.3,1-0.3,1.7
      c0,0.7,0.1,1.4,0.3,2.1c0.2,0.7,0.5,1.3,0.9,1.8c0.4,0.5,0.8,0.9,1.3,1.2C499,542.5,499.4,542.6,499.8,542.5z"/>
    <path class="st13" d="M509,539.4c0.2,0.3,0.3,0.6,0.3,0.8c0,0.3-0.1,0.5-0.2,0.6c-0.1,0.1-0.3,0.1-0.5,0c-0.1-0.1-0.2-0.2-0.4-0.4
      c-0.2-0.2-0.4-0.4-0.5-0.4c-0.3-0.2-0.6-0.2-0.9-0.1s-0.5,0.4-0.7,0.8c-0.2,0.4-0.3,0.9-0.3,1.5v4.8c0,0.3-0.1,0.5-0.2,0.6
      c-0.1,0.1-0.3,0.1-0.5,0c-0.2-0.1-0.4-0.3-0.5-0.6c-0.1-0.3-0.2-0.5-0.2-0.8v-8.6c0-0.3,0.1-0.5,0.2-0.6c0.1-0.1,0.3-0.1,0.5,0
      c0.2,0.1,0.4,0.3,0.5,0.6c0.1,0.3,0.2,0.5,0.2,0.8v1c0.2-0.5,0.5-0.9,1-1c0.4-0.2,0.9-0.1,1.5,0.2
      C508.6,538.9,508.8,539.1,509,539.4z"/>
    <path class="st13" d="M517.3,553.7c0,0.3-0.1,0.4-0.2,0.5c-0.2,0.1-0.3,0.1-0.5,0c-0.2-0.1-0.4-0.3-0.5-0.6l-3-5.9l-0.9,0.6v2.5
      c0,0.3-0.1,0.5-0.2,0.6c-0.1,0.1-0.3,0.1-0.5,0c-0.2-0.1-0.4-0.3-0.5-0.6c-0.1-0.3-0.2-0.5-0.2-0.8V537c0-0.3,0.1-0.5,0.2-0.6
      c0.1-0.1,0.3-0.1,0.5,0c0.2,0.1,0.4,0.3,0.5,0.6c0.1,0.3,0.2,0.5,0.2,0.8v8.1l3.7-2.4c0.2-0.1,0.3-0.1,0.5,0
      c0.2,0.1,0.3,0.3,0.5,0.6c0.1,0.3,0.2,0.5,0.2,0.7c0,0.3-0.1,0.5-0.3,0.6l-2.6,1.6l2.9,5.8C517.2,553.2,517.3,553.4,517.3,553.7z"
      />
    <path class="st13" d="M525.3,554.2c-0.1,0.1-0.3,0.1-0.5,0l-5.3-3c0.1,1,0.3,2,0.8,2.8c0.5,0.9,1.1,1.5,1.8,1.9
      c0.5,0.3,0.9,0.4,1.2,0.4c0.3,0,0.6-0.1,0.8-0.3c0.2,0,0.3,0,0.4,0.1c0.2,0.1,0.3,0.3,0.4,0.5c0.1,0.2,0.2,0.4,0.2,0.7
      c0,0.3-0.1,0.5-0.3,0.6c-0.3,0.2-0.7,0.3-1.2,0.3c-0.5,0-1-0.2-1.5-0.4c-0.8-0.5-1.5-1.1-2.1-1.9c-0.6-0.8-1.1-1.7-1.4-2.7
      c-0.3-1-0.5-2-0.5-3.1c0-1.1,0.2-2,0.5-2.7c0.3-0.6,0.8-1,1.4-1.2c0.6-0.1,1.2,0,1.8,0.4c0.6,0.4,1.2,0.9,1.8,1.7
      c0.6,0.8,1,1.6,1.4,2.6c0.3,1,0.5,1.9,0.5,2.9C525.5,554,525.4,554.2,525.3,554.2z M520.4,548.1c-0.4,0.2-0.7,0.7-0.8,1.5l4.4,2.6
      V552c0-0.7-0.3-1.5-0.7-2.2c-0.4-0.7-0.9-1.2-1.4-1.5C521.3,548,520.8,547.9,520.4,548.1z"/>
    <path class="st13" d="M529.3,553v6c0,0.7,0.2,1.1,0.7,1.4c0.1,0,0.2,0.1,0.3,0.1s0.2,0.1,0.3,0.1c0.1,0.1,0.2,0.2,0.3,0.4
      c0.1,0.2,0.1,0.4,0.1,0.6c0,0.3-0.1,0.5-0.4,0.5c-0.2,0.1-0.5,0-0.8-0.2c-0.3-0.2-0.6-0.4-0.9-0.7c-0.3-0.3-0.5-0.6-0.7-1.1
      s-0.3-1.1-0.3-1.9v-6l-0.9-0.5c-0.2-0.1-0.3-0.3-0.5-0.5c-0.1-0.2-0.2-0.5-0.2-0.7c0-0.3,0.1-0.4,0.2-0.5c0.1-0.1,0.3-0.1,0.5,0
      l0.9,0.5v-1.7c0-0.3,0.1-0.5,0.2-0.6c0.1-0.1,0.3-0.1,0.5,0c0.2,0.1,0.4,0.3,0.5,0.6s0.2,0.5,0.2,0.8v1.7l1.2,0.7
      c0.2,0.1,0.3,0.3,0.5,0.5s0.2,0.5,0.2,0.7c0,0.3-0.1,0.4-0.2,0.5s-0.3,0.1-0.5,0L529.3,553z"/>
    <path class="st13" d="M538.7,557c0.5,0.8,1,1.7,1.3,2.7c0.3,1,0.5,2,0.5,3.1s-0.2,1.9-0.5,2.5s-0.7,1-1.3,1.2
      c-0.6,0.1-1.2,0-1.8-0.3c-0.5-0.3-1-0.7-1.5-1.3c-0.5-0.6-0.8-1.2-1.1-1.8v4.4c0,0.3-0.1,0.5-0.2,0.6c-0.1,0.1-0.3,0.1-0.5,0
      c-0.2-0.1-0.4-0.3-0.5-0.6c-0.1-0.3-0.2-0.5-0.2-0.8v-12.6c0-0.3,0.1-0.5,0.2-0.6c0.1-0.1,0.3-0.1,0.5,0s0.4,0.3,0.5,0.6
      c0.1,0.3,0.2,0.5,0.2,0.8v0.6c0.2-0.3,0.6-0.5,1.1-0.6s0.9,0,1.5,0.3C537.5,555.7,538.1,556.2,538.7,557z M537.9,564.5
      c0.4-0.1,0.7-0.4,0.9-0.8c0.2-0.4,0.3-1,0.3-1.7c0-0.7-0.1-1.4-0.3-2c-0.2-0.7-0.5-1.3-0.9-1.8c-0.4-0.5-0.8-0.9-1.2-1.2
      c-0.5-0.3-0.9-0.4-1.3-0.3c-0.4,0.1-0.7,0.4-0.9,0.8c-0.2,0.4-0.3,1-0.3,1.7s0.1,1.4,0.3,2.1c0.2,0.7,0.5,1.3,0.9,1.8
      c0.4,0.5,0.8,0.9,1.3,1.2C537.1,564.5,537.5,564.6,537.9,564.5z"/>
    <path class="st13" d="M543.4,569.5c-0.1,0.1-0.3,0.1-0.5,0c-0.2-0.1-0.4-0.3-0.5-0.6c-0.1-0.3-0.2-0.5-0.2-0.8v-12.9
      c0-0.3,0.1-0.5,0.2-0.6c0.1-0.1,0.3-0.1,0.5,0c0.2,0.1,0.4,0.3,0.5,0.6s0.2,0.5,0.2,0.8v12.9C543.6,569.2,543.6,569.3,543.4,569.5
      z"/>
    <path class="st13" d="M552.8,564.8c0.1,0.3,0.2,0.5,0.2,0.8v8.7c0,0.3-0.1,0.5-0.2,0.6c-0.1,0.1-0.3,0.1-0.5,0
      c-0.2-0.1-0.4-0.3-0.5-0.6s-0.2-0.5-0.2-0.8v-0.5c-0.3,0.3-0.6,0.5-1.1,0.6c-0.5,0.1-0.9,0-1.5-0.4c-0.7-0.4-1.3-1-1.9-1.8
      c-0.6-0.8-1-1.7-1.3-2.7c-0.3-1-0.5-2-0.5-3.1s0.2-1.9,0.5-2.5c0.3-0.7,0.7-1.1,1.3-1.2c0.5-0.1,1.2,0,1.8,0.3
      c0.5,0.3,1,0.7,1.5,1.3c0.5,0.6,0.8,1.1,1.1,1.7v-0.5c0-0.3,0.1-0.5,0.2-0.6c0.1-0.1,0.3-0.1,0.5,0
      C552.5,564.3,552.6,564.5,552.8,564.8z M550.4,571.8c0.4-0.1,0.7-0.4,0.9-0.8c0.2-0.4,0.3-1,0.3-1.7c0-0.7-0.1-1.4-0.3-2.1
      c-0.2-0.7-0.5-1.3-0.9-1.8s-0.8-0.9-1.3-1.2c-0.5-0.3-0.9-0.4-1.3-0.2s-0.7,0.4-0.9,0.8c-0.2,0.4-0.3,1-0.3,1.7
      c0,0.7,0.1,1.4,0.3,2.1c0.2,0.7,0.5,1.3,0.9,1.8c0.4,0.5,0.8,0.9,1.3,1.2C549.7,571.8,550.1,571.9,550.4,571.8z"/>
    <path class="st13" d="M560.5,569.4c0.5,0.6,0.8,1.2,0.8,1.7c0,0.2-0.1,0.4-0.2,0.5c-0.1,0.1-0.2,0.1-0.4,0
      c-0.1-0.1-0.2-0.2-0.3-0.3c-0.1-0.1-0.2-0.2-0.3-0.4c-0.1-0.1-0.2-0.3-0.3-0.4c-0.1-0.1-0.3-0.3-0.5-0.5c-0.2-0.2-0.4-0.3-0.6-0.4
      c-0.5-0.3-1-0.4-1.4-0.3c-0.4,0.1-0.7,0.4-0.9,0.8c-0.2,0.4-0.3,1-0.3,1.7c0,0.7,0.1,1.4,0.3,2.1c0.2,0.7,0.5,1.3,0.9,1.8
      c0.4,0.5,0.8,1,1.3,1.2c0.5,0.3,0.9,0.4,1.3,0.4c0.1,0,0.2,0,0.3-0.1c0.1,0,0.2-0.1,0.3-0.1s0.2,0,0.3,0.1
      c0.2,0.1,0.4,0.3,0.5,0.5c0.1,0.2,0.2,0.5,0.2,0.7c0,0.3-0.1,0.5-0.4,0.6c-0.3,0.1-0.6,0.1-1.1,0.1c-0.4-0.1-0.9-0.3-1.4-0.6
      c-0.8-0.4-1.4-1.1-2-1.9s-1-1.7-1.3-2.7c-0.3-1-0.5-2-0.5-3.1s0.2-1.9,0.5-2.5c0.3-0.6,0.8-1,1.4-1.2c0.6-0.1,1.3,0,2,0.5
      C559.3,568.2,560,568.7,560.5,569.4z"/>
    <path class="st13" d="M569.5,579.7c-0.1,0.1-0.3,0.1-0.5,0l-5.3-3c0.1,1,0.3,2,0.8,2.8c0.5,0.9,1.1,1.5,1.8,1.9
      c0.5,0.3,0.9,0.4,1.2,0.4s0.6-0.1,0.8-0.3c0.2,0,0.3,0,0.4,0.1c0.2,0.1,0.3,0.3,0.4,0.5c0.1,0.2,0.2,0.4,0.2,0.7
      c0,0.3-0.1,0.5-0.3,0.6c-0.3,0.2-0.7,0.3-1.2,0.3c-0.5,0-1-0.2-1.5-0.4c-0.8-0.5-1.5-1.1-2.1-1.9c-0.6-0.8-1.1-1.7-1.4-2.7
      s-0.5-2-0.5-3c0-1.1,0.2-2,0.5-2.7c0.3-0.6,0.8-1,1.4-1.2c0.6-0.1,1.2,0,1.8,0.4c0.6,0.4,1.2,0.9,1.8,1.7c0.6,0.8,1,1.6,1.4,2.6
      c0.3,1,0.5,1.9,0.5,2.9C569.7,579.5,569.6,579.7,569.5,579.7z M564.6,573.6c-0.4,0.2-0.7,0.7-0.8,1.5l4.4,2.6v-0.2
      c0-0.7-0.3-1.5-0.7-2.2c-0.4-0.7-0.9-1.2-1.4-1.5C565.5,573.5,565,573.4,564.6,573.6z"/>
  </g>
</g>
</svg>
