<svg version="1.1" id="Schema-Nutshell" xmlns="http://www.w3.org/2000/svg" xmlns:xlink="http://www.w3.org/1999/xlink" x="0px"
    y="0px" viewBox="0 0 600 403" style="enable-background:new 0 0 600 403;" xml:space="preserve">
<style type="text/css">
.st0{clip-path:url(#mask-connection);}
.st1{opacity:0.12;fill:url(#Circle-l-5);}
.st2{opacity:0.12;fill:url(#Circle-l-4_);}
.st3{opacity:0.12;fill:url(#Circle-l-3);}
.st4{opacity:0.12;fill:url(#Circle-l-2);}
.st5{opacity:0.12;fill:url(#Circle-l-1);}
.st6{opacity:0.12;fill:url(#Circle-d-5);}
.st7{opacity:0.12;fill:url(#Circle-d-4);}
.st8{opacity:0.12;fill:url(#Circle-d-3);}
.st9{opacity:0.12;fill:url(#Circle-d-2);}
.st10{opacity:0.12;fill:url(#Circle-d-1);}
.st11{fill:none;stroke:#FFA744;stroke-linecap:round;stroke-linejoin:round;stroke-miterlimit:10;stroke-dasharray:1,4;}
.st12{opacity:0.8;fill:url(#bg-l_1_);}
.st13{fill:url(#center-legacy_1_);}
.st14{fill:#FFFFFF;}
.st15{opacity:0.8;fill:#FFFFFF;}
.st16{opacity:0.6;fill:#FFFFFF;}
.st19{opacity:0.8;fill:url(#bg-d_1_);}
.st20{fill:url(#center-decentralized_1_);}
.st22{opacity:0.2;}
.st23{opacity:0.4;fill:#FFFFFF;}
.st24{fill:none;stroke:#FFA744;stroke-width:2;stroke-miterlimit:10;}
.st25{fill:#FFFFFF;stroke:#FFA744;stroke-width:2;stroke-miterlimit:10;}
.st26{fill:url(#SVGID_3_);}
</style>
<g id="background">
  <g id="exchange">
    <defs>
      <circle id="mask-center" cx="300" cy="201.5" r="200.8"/>
    </defs>
    <clipPath id="mask-connection">
      <use xlink:href="#mask-center"  style="overflow:visible;"/>
    </clipPath>
    <g id="bg-legacy" class="st0">
      <linearGradient id="Circle-l-5" gradientUnits="userSpaceOnUse" x1="443.237" y1="501.1255" x2="-1.2734" y2="708.4042" gradientTransform="matrix(1 0 0 1 0 -438)">
        <stop  offset="0" style="stop-color:#4563FF"/>
        <stop  offset="1" style="stop-color:#9452FF"/>
      </linearGradient>
      <path id="Circle-5_5_" class="st1" d="M99.5,1c110.7,0,401.3,89.8,401.3,200.5S210.3,402,99.5,402s0-89.8,0-200.5S-11.2,1,99.5,1
        z"/>
      <linearGradient id="Circle-l-4" gradientUnits="userSpaceOnUse" x1="413.8399" y1="515.9652" x2="17.8467" y2="700.6199" gradientTransform="matrix(1 0 0 1 0 -438)">
        <stop  offset="0" style="stop-color:#4563FF"/>
        <stop  offset="1" style="stop-color:#9452FF"/>
      </linearGradient>
      <path id="Circle-4_2_" class="st2" d="M99.5,35.4c91.7,0,366.9,74.4,366.9,166.1S191.3,367.6,99.5,367.6s-0.3-74.4-0.3-166.1
        S7.8,35.4,99.5,35.4z"/>
      <linearGradient id="Circle-l-3" gradientUnits="userSpaceOnUse" x1="378.6361" y1="534.8832" x2="41.71" y2="691.9943" gradientTransform="matrix(1 0 0 1 0 -438)">
        <stop  offset="0" style="stop-color:#4563FF"/>
        <stop  offset="1" style="stop-color:#9452FF"/>
      </linearGradient>
      <path id="Circle-3_2_" class="st3" d="M99.5,77.4c68.5,0,324.9,55.6,324.9,124.1S168.1,325.6,99.5,325.6s0-55.6,0-124.1
        S31,77.4,99.5,77.4z"/>
      <linearGradient id="Circle-l-2" gradientUnits="userSpaceOnUse" x1="352.9867" y1="549.8684" x2="60.0145" y2="686.4835" gradientTransform="matrix(1 0 0 1 0 -438)">
        <stop  offset="0" style="stop-color:#4563FF"/>
        <stop  offset="1" style="stop-color:#9452FF"/>
      </linearGradient>
      <path id="Circle-2_3_" class="st4" d="M99.5,108.8c51.2,0,293.5,41.5,293.5,92.7s-242.4,92.7-293.5,92.7s0-41.5,0-92.7
        S48.3,108.8,99.5,108.8z"/>
      <linearGradient id="Circle-l-1" gradientUnits="userSpaceOnUse" x1="334.271" y1="561.73" x2="73.9813" y2="683.105" gradientTransform="matrix(1 0 0 1 0 -438)">
        <stop  offset="0" style="stop-color:#4563FF"/>
        <stop  offset="1" style="stop-color:#9452FF"/>
      </linearGradient>
      <path id="Circle-1_2_" class="st5" d="M99.5,132.3c38.2,0,270,31,270,69.2s-231.8,69.2-270,69.2s0-31,0-69.2
        S61.3,132.3,99.5,132.3z"/>
    </g>
    <g id="bg-decentralized" class="st0">
      <linearGradient id="Circle-d-5" gradientUnits="userSpaceOnUse" x1="-243.163" y1="708.48" x2="202.0342" y2="500.8812" gradientTransform="matrix(-1 0 0 1 358.3325 -438)">
        <stop  offset="0" style="stop-color:#4563FF"/>
        <stop  offset="1" style="stop-color:#30B24B"/>
      </linearGradient>
      <path id="Circle-5_10_" class="st6" d="M500.8,201.5c0,110.7,110.7,200.5,0,200.5S98.6,312.2,98.6,201.5S390.1,1,500.8,1
        S500.8,90.8,500.8,201.5z"/>
      <linearGradient id="Circle-d-4" gradientUnits="userSpaceOnUse" x1="-223.992" y1="700.7004" x2="172.7341" y2="515.704" gradientTransform="matrix(-1 0 0 1 358.3325 -438)">
        <stop  offset="0" style="stop-color:#4563FF"/>
        <stop  offset="1" style="stop-color:#30B24B"/>
      </linearGradient>
      <path id="Circle-4_3_" class="st7" d="M500.8,201.5c0,91.7,91.7,166.1,0,166.1s-367.9-74.4-367.9-166.1S409,35.4,500.8,35.4
        S500.8,109.8,500.8,201.5z"/>
      <linearGradient id="Circle-d-3" gradientUnits="userSpaceOnUse" x1="-200.16" y1="692.1124" x2="137.5438" y2="534.6386" gradientTransform="matrix(-1 0 0 1 358.3325 -438)">
        <stop  offset="0" style="stop-color:#4563FF"/>
        <stop  offset="1" style="stop-color:#30B24B"/>
      </linearGradient>
      <path id="Circle-3_3_" class="st8" d="M500.8,201.5c0,68.5,68.5,124.1,0,124.1S174.9,270,174.9,201.5S432.2,77.4,500.8,77.4
        S500.8,133,500.8,201.5z"/>
      <linearGradient id="Circle-d-2" gradientUnits="userSpaceOnUse" x1="-181.9115" y1="686.6636" x2="111.9109" y2="549.652" gradientTransform="matrix(-1 0 0 1 358.3325 -438)">
        <stop  offset="0" style="stop-color:#4563FF"/>
        <stop  offset="1" style="stop-color:#30B24B"/>
      </linearGradient>
      <path id="Circle-2_4_" class="st9" d="M500.8,201.5c0,51.2,51.2,92.7,0,92.7s-294.5-41.5-294.5-92.7s243.3-92.7,294.5-92.7
        S500.8,150.3,500.8,201.5z"/>
      <linearGradient id="Circle-d-1" gradientUnits="userSpaceOnUse" x1="-167.9085" y1="683.2717" x2="93.1992" y2="561.5151" gradientTransform="matrix(-1 0 0 1 358.3325 -438)">
        <stop  offset="0" style="stop-color:#4563FF"/>
        <stop  offset="1" style="stop-color:#30B24B"/>
      </linearGradient>
      <path id="Circle-1_3_" class="st10" d="M500.8,201.5c0,38.2,38.2,69.2,0,69.2s-271-31-271-69.2s232.7-69.2,271-69.2
        S500.8,163.3,500.8,201.5z"/>
    </g>
  </g>
  <circle id="Outline" class="st11" cx="300" cy="201.5" r="200.8"/>
</g>
<g id="legacy">
  <linearGradient id="bg-l_1_" gradientUnits="userSpaceOnUse" x1="189.1272" y1="597.5663" x2="9.2728" y2="681.4337" gradientTransform="matrix(1 0 0 1 0 -438)">
    <stop  offset="0" style="stop-color:#4563FF"/>
    <stop  offset="1" style="stop-color:#9452FF"/>
  </linearGradient>
  <circle id="bg-l" class="st12" cx="99.2" cy="201.5" r="99.2"/>
  <linearGradient id="center-legacy_1_" gradientUnits="userSpaceOnUse" x1="112.0726" y1="633.4974" x2="86.3758" y2="645.48" gradientTransform="matrix(1 0 0 1 0 -438)">
    <stop  offset="0" style="stop-color:#4563FF"/>
    <stop  offset="1" style="stop-color:#9452FF"/>
  </linearGradient>
  <circle id="center-legacy" class="st13" cx="99.2" cy="201.5" r="14.2"/>
  <g id="App_51_">
    <path id="border_1_" class="st14" d="M61.6,193.3l-38.1,7c-0.5,0.1-0.9,0.4-1.3,0.8c-0.2,0.3-0.4,0.9-0.3,1.5l7,38.1
      c0.2,1,1.1,1.6,2.1,1.4l38.1-7c1-0.2,1.6-1.1,1.4-2.1l-6.3-34l-0.7-4.1C63.6,193.9,62.6,193.3,61.6,193.3z M33.6,200.8
      c0.4-0.1,0.8,0.1,0.9,0.6c0.1,0.4-0.1,0.8-0.6,0.9c-0.4,0.1-0.8-0.1-0.9-0.6C33,201.3,33.2,200.8,33.6,200.8z M30.6,201.3
      c0.4-0.1,0.8,0.1,0.9,0.6c0.1,0.4-0.1,0.8-0.6,0.9c-0.4,0.1-0.8-0.1-0.9-0.6C30,201.8,30.3,201.4,30.6,201.3z M27.7,201.8
      c0.4-0.1,0.8,0.1,0.9,0.6c0.1,0.4-0.1,0.8-0.6,0.9c-0.4,0.1-0.8-0.1-0.9-0.6C27.1,202.4,27.3,201.9,27.7,201.8z M67.5,232.1
      c0,0.2-0.1,0.5-0.4,0.6l-34.8,6.4c-0.2,0-0.5-0.1-0.6-0.4l-6.1-33l35.8-6.6L67.5,232.1z"/>
    <path id="terminal" class="st14" d="M37.8,228.6c0.1,0.1,0.2,0.2,0.3,0.3l0.1,0.8c0,0.1-0.1,0.2-0.1,0.3l-3.5,2.6l4.2,1.2
      c0.1,0.1,0.2,0.2,0.3,0.3l0.1,0.8c0,0.1-0.1,0.2-0.1,0.3c-0.1,0.1-0.1,0.1-0.2,0.1c-0.1,0-0.1,0-0.2-0.1l-5.6-1.7
      c-0.1-0.1-0.2-0.2-0.3-0.3l-0.1-0.7c0-0.1,0.1-0.2,0.1-0.3l4.6-3.6C37.6,228.6,37.7,228.6,37.8,228.6z M43.8,225.7l-0.7,0.1
      c-0.1,0-0.2,0.1-0.3,0.3l-1.6,8.5c-0.1,0.1,0,0.2,0.2,0.3c0.1,0.1,0.2,0.1,0.3,0l0.7-0.1c0.1,0,0.2-0.1,0.3-0.3l1.7-8.5
      c0.1-0.1,0-0.2-0.2-0.3C44,225.8,43.9,225.7,43.8,225.7z M52.5,228.6l-5.6-1.7c-0.1-0.1-0.2-0.1-0.3,0.1c-0.1,0.1-0.2,0.2-0.1,0.3
      l0.1,0.8c0,0.1,0.1,0.2,0.3,0.3l4.2,1.2l-3.5,2.6c-0.1,0.1-0.2,0.2-0.1,0.3l0.1,0.8c0,0.1,0.1,0.2,0.3,0.3
      c0.1,0.1,0.1,0.1,0.2,0.1c0.1,0,0.1,0,0.2-0.1l4.6-3.6c0.1-0.1,0.2-0.2,0.1-0.3l-0.1-0.7C52.7,228.7,52.7,228.6,52.5,228.6z"/>
    <g id="code">
      <path class="st15" d="M28.1,207.2l7.2-1.3l0.2,1.3l-7.2,1.3L28.1,207.2z M29,212.4l4.2-0.8l0.2,1.3l-4.2,0.8L29,212.4z
          M34.4,211.5l1.7-0.3l0.2,1.3l-1.7,0.3L34.4,211.5z M36.9,211l1.7-0.3l0.2,1.3l-1.7,0.3L36.9,211z M33.4,209l1.7-0.3l0.2,1.3
        l-1.7,0.3L33.4,209z M38.7,208l5.1-0.9l0.2,1.3l-5.1,0.9L38.7,208z M42.4,220.4l3.1-0.6l0.2,1.3l-3.1,0.6L42.4,220.4z
          M46.6,219.6l4.6-0.9l0.2,1.3l-4.6,0.9L46.6,219.6z M30.4,220l3.6-0.7l0.2,1.3l-3.6,0.7L30.4,220z M37.8,216.1l1.7-0.3l0.2,1.3
        l-1.7,0.3L37.8,216.1z M46,214.5l3.2-0.6l0.2,1.3l-3.2,0.6L46,214.5z M50.2,213.8l6.3-1.2l0.2,1.3l-6.3,1.2L50.2,213.8z
          M35.3,219.1l1.7-0.3l0.2,1.3l-1.7,0.3L35.3,219.1z M37.9,218.6l1.7-0.3l0.2,1.3l-1.7,0.3L37.9,218.6z"/>
      <path class="st16" d="M36.2,205.6l2.4-0.4l0.2,1.3l-2.4,0.4L36.2,205.6z M39.6,205l3.1-0.6l0.2,1.3l-3.1,0.6L39.6,205z
          M43.8,204.2l4.6-0.9l0.2,1.3l-4.6,0.9L43.8,204.2z M28.6,209.8l3.6-0.7l0.2,1.3l-3.6,0.7L28.6,209.8z M45,206.8l1.9-0.3l0.2,1.3
        l-1.9,0.3L45,206.8z M45.1,209.5l3.2-0.6l0.2,1.3l-3.2,0.6L45.1,209.5z M49.2,208.7l6.3-1.2l0.2,1.3l-6.3,1.2L49.2,208.7z
          M39.5,210.5l4.6-0.9l0.2,1.3l-4.6,0.9L39.5,210.5z M29.5,215l1.7-0.3l0.2,1.3l-1.7,0.3L29.5,215z M32,214.6l0.9-0.2l0.2,1.3
        l-0.9,0.2L32,214.6z M36,208.5l1.7-0.3l0.2,1.3l-1.7,0.3L36,208.5z M31,222.6l7.2-1.3l0.2,1.3l-7.2,1.3L31,222.6z M39.1,221
        l2.4-0.4l0.2,1.3l-2.4,0.4L39.1,221z M46.9,217l1.9-0.3l0.2,1.3l-1.9,0.3L46.9,217z M30,217.5l4.2-0.8l0.2,1.3l-4.2,0.8L30,217.5
        z M35.3,216.5l1.7-0.3l0.2,1.3l-1.7,0.3L35.3,216.5z M40.5,215.5l4.6-0.9l0.2,1.3l-4.6,0.9L40.5,215.5z M40.5,218.1l5.1-0.9
        l0.2,1.3l-5.1,0.9L40.5,218.1z"/>
    </g>
  </g>
  <g id="website">
    <path id="border" class="st14" d="M135.9,129.3l-60.6-3c-0.5,0-1,0.1-1.4,0.5c-0.3,0.3-0.6,0.8-0.7,1.4l-1.9,38.7
      c0,1,0.7,1.8,1.7,1.9l60.6,3c1,0,1.8-0.7,1.9-1.7l1.7-34.6l0.3-4.2C137.8,130.2,137,129.4,135.9,129.3z M85.1,127.9
      c0.4,0,0.8,0.3,0.8,0.8c0,0.4-0.3,0.8-0.8,0.8s-0.8-0.3-0.8-0.8C84.3,128.2,84.7,127.9,85.1,127.9z M82.1,127.7
      c0.4,0,0.8,0.3,0.8,0.8c0,0.4-0.3,0.8-0.8,0.8s-0.8-0.3-0.8-0.8C81.3,128,81.6,127.7,82.1,127.7z M79.1,127.6
      c0.4,0,0.8,0.3,0.8,0.8c0,0.4-0.3,0.8-0.8,0.8c-0.4,0-0.8-0.3-0.8-0.8C78.3,127.9,78.6,127.6,79.1,127.6z M132.8,168.3
      c0,0.2-0.2,0.5-0.5,0.5L75,165.9c-0.2,0-0.5-0.2-0.5-0.5l1.8-35.6l58.3,2.9L132.8,168.3L132.8,168.3z"/>
    <g id="content">
        <rect x="121" y="157" transform="matrix(4.988128e-02 -0.9988 0.9988 4.988128e-02 -44.9172 278.486)" class="st16" width="5.9" height="11.7"/>
        <rect x="107.9" y="156.5" transform="matrix(4.988128e-02 -0.9988 0.9988 4.988128e-02 -56.615 264.8211)" class="st16" width="5.9" height="11.4"/>
        <rect x="99.7" y="113.5" transform="matrix(4.988128e-02 -0.9988 0.9988 4.988128e-02 -39.4622 237.364)" class="st16" width="10.7" height="51.9"/>
        <rect x="119.1" y="146.9" transform="matrix(4.988128e-02 -0.9988 0.9988 4.988128e-02 -34.3792 269.3947)" class="st16" width="10.7" height="11.7"/>
        <rect x="87.8" y="148.3" transform="matrix(4.988128e-02 -0.9988 0.9988 4.988128e-02 -74.6551 243.7047)" class="st16" width="6" height="25.6"/>
        <rect x="90.1" y="134.3" transform="matrix(4.988128e-02 -0.9988 0.9988 4.988128e-02 -60.0409 231.0967)" class="st16" width="2.6" height="25.6"/>
        <rect x="89.9" y="138.4" transform="matrix(4.988128e-02 -0.9988 0.9988 4.988128e-02 -64.3155 234.7845)" class="st16" width="2.6" height="25.6"/>
        <rect x="89.7" y="142.4" transform="matrix(4.988128e-02 -0.9988 0.9988 4.988128e-02 -68.491 238.3869)" class="st16" width="2.6" height="25.6"/>
        <rect x="106" y="146.4" transform="matrix(4.988128e-02 -0.9988 0.9988 4.988128e-02 -46.0771 255.73)" class="st16" width="10.7" height="11.4"/>
        <rect x="123" y="151" transform="matrix(4.988128e-02 -0.9988 0.9988 4.988128e-02 -38.6539 273.0826)" class="st16" width="2.5" height="11.7"/>
        <rect x="109.9" y="150.5" transform="matrix(4.988128e-02 -0.9988 0.9988 4.988128e-02 -50.3518 259.4178)" class="st16" width="2.5" height="11.4"/>
        <rect x="121" y="157" transform="matrix(4.988128e-02 -0.9988 0.9988 4.988128e-02 -44.9172 278.486)" class="st16" width="5.9" height="11.7"/>
        <rect x="107.9" y="156.5" transform="matrix(4.988128e-02 -0.9988 0.9988 4.988128e-02 -56.615 264.8211)" class="st16" width="5.9" height="11.4"/>
        <rect x="81.4" y="154.4" transform="matrix(4.988128e-02 -0.9988 0.9988 4.988128e-02 -80.4006 237.0447)" class="st16" width="6" height="12.8"/>
        <rect x="83.8" y="140.4" transform="matrix(4.988128e-02 -0.9988 0.9988 4.988128e-02 -65.7865 224.4369)" class="st16" width="2.6" height="12.8"/>
        <rect x="83.6" y="144.5" transform="matrix(4.988128e-02 -0.9988 0.9988 4.988128e-02 -70.0611 228.1247)" class="st16" width="2.6" height="12.8"/>
        <rect x="83.4" y="148.5" transform="matrix(4.988128e-02 -0.9988 0.9988 4.988128e-02 -74.2366 231.727)" class="st16" width="2.6" height="12.8"/>
        <rect x="103.5" y="117.6" transform="matrix(4.988128e-02 -0.9988 0.9988 4.988128e-02 -43.7844 241.0017)" class="st16" width="2.6" height="51.9"/>
    </g>
  </g>
  <g id="database">
    <path class="st14" d="M151.7,230.6l-35.8-4.8c-1-0.1-2,0.1-2.8,0.7c-0.8,0.6-1.3,1.5-1.5,2.5l-1.1,8.3c-0.1,1,0.1,1.9,0.7,2.7
      c-0.7,0.6-1.2,1.5-1.4,2.4l-1.1,8.3c-0.1,1,0.1,1.9,0.7,2.7c-0.7,0.6-1.2,1.5-1.4,2.4l-1.1,8.3c-0.3,2.1,1.2,4,3.2,4.2l19.6,2.6
      c1.9,0.6,3.9,1.1,6,1.4c1.5,0.2,3.1,0.3,4.7,0.3c4.6,0,8.7-1,9.8-3.4c0.1-0.1,0.1-0.3,0.2-0.5l2.6-19.6c0-0.2,0-0.3,0-0.5
      c-0.1-0.9-0.6-1.8-1.5-2.6c1.3-0.5,2.2-1.6,2.4-3l1.1-8.3C155.2,232.8,153.7,230.9,151.7,230.6z M130.3,268.7
      c-3.3-1.1-4.9-2.4-5.3-3.2c0,0,0-0.1-0.1-0.2l0.4-3.1c0.1,0.1,0.2,0.1,0.2,0.2l0.1,0.1l0,0c1.3,0.9,3.2,1.8,5.6,2.5
      c0.7,0.2,1.5,0.4,2.2,0.6l1,0.2c0.2,0,0.4,0.1,0.6,0.1l0.4,0.1c0.3,0.1,0.7,0.1,1,0.2c0.3,0,0.7,0.1,1,0.1l2,0.2
      c0.8,0,1.6,0.1,2.3,0c2.6-0.1,4.8-0.4,6.4-1.1l-0.4,3l0,0c-0.4,1.3-5.1,2.6-11.9,1.7c-1.9-0.3-3.6-0.6-5.2-1.1l0,0L130.3,268.7z
        M149.9,252.6c0.1,0,0.1-0.1,0.2-0.1c0,0-0.4,2.8-0.4,3v0.1v0.1c0,0,0,0.1-0.1,0.1l-0.1,0.1c-0.1,0.1-0.1,0.1-0.2,0.2
      c-1.5,1.1-5.9,1.9-11.4,1.1c-5.5-0.7-9.6-2.6-10.7-4.1l-0.1-0.1c0-0.1-0.1-0.1-0.1-0.2c0,0,0-0.1-0.1-0.1v-0.1c0,0,0-0.1,0-0.2
      v-0.2c0-0.1,0.4-2.9,0.4-2.9c0.1,0,0.1,0.1,0.2,0.1l0.1,0.1c0.2,0.1,0.3,0.2,0.5,0.3l0.1,0.1c0.2,0.1,0.3,0.2,0.5,0.3l0.1,0.1
      c0.2,0.1,0.4,0.2,0.6,0.3c0.2,0.1,0.4,0.2,0.6,0.3l0.2,0.1c0.2,0.1,0.4,0.2,0.7,0.3c0.2,0.1,0.5,0.2,0.7,0.3l0.2,0.1
      c0.2,0.1,0.4,0.1,0.6,0.2h0.1c0.2,0.1,0.5,0.2,0.7,0.2l0.2,0.1c0.2,0.1,0.4,0.1,0.6,0.2h0.1c0.3,0.1,0.5,0.1,0.8,0.2l1,0.2
      c0.3,0.1,0.5,0.1,0.8,0.2h0.1c0.2,0,0.5,0.1,0.8,0.1h0.1c0.3,0,0.5,0.1,0.8,0.1s0.5,0.1,0.8,0.1h0.2c0.2,0,0.5,0,0.7,0.1h0.1
      c0.3,0,0.5,0,0.8,0.1h0.2c0.2,0,0.4,0,0.7,0h0.2c0.3,0,0.5,0,0.8,0h0.2c0.2,0,0.4,0,0.6,0h0.2c0.3,0,0.5,0,0.8,0h0.1
      c0.2,0,0.4,0,0.6,0h0.2c0.2,0,0.5,0,0.8-0.1c0.2,0,0.4-0.1,0.7-0.1h0.2c0.2,0,0.4-0.1,0.7-0.1c0.2,0,0.4-0.1,0.6-0.1h0.2
      c0.2,0,0.4-0.1,0.6-0.2c0.2-0.1,0.4-0.1,0.6-0.2L149.9,252.6z M132.4,251.5L132.4,251.5L132.4,251.5L132.4,251.5z M148.8,261.9
      v0.1v0.1c0,0,0,0.1-0.1,0.1l-0.1,0.1c-0.1,0.1-0.1,0.1-0.2,0.2c-1.5,1.1-5.9,1.9-11.4,1.1c-5.5-0.7-9.6-2.6-10.7-4.1l-0.1-0.1
      c0-0.1-0.1-0.1-0.1-0.2c0,0,0-0.1-0.1-0.1V259v-0.1l0.4-3.1l0.1,0.1l0.1,0.1c1.3,1,3.3,1.9,5.7,2.6c0.7,0.2,1.4,0.4,2.3,0.6
      l0.9,0.2c0.2,0,0.4,0.1,0.6,0.1l0.4,0.1c0.3,0.1,0.7,0.1,1,0.2c0.3,0,0.7,0.1,1,0.1h0.4c0.2,0,0.4,0,0.7,0.1l1,0.1
      c0.8,0,1.6,0,2.3,0c2.6-0.1,4.8-0.4,6.4-1.1C149.2,258.9,148.8,261.6,148.8,261.9z M133.2,251.7L133.2,251.7L133.2,251.7
      L133.2,251.7L133.2,251.7z M136.6,252.6L136.6,252.6L136.6,252.6L136.6,252.6z M140.1,253L140.1,253L140.1,253L140.1,253z
        M112.2,242.7c0.1-0.7,0.8-1.3,1.5-1.2l13.1,1.8c-0.7,0.5-1.2,1-1.5,1.7c-0.1,0.2-0.2,0.3-0.2,0.5l-1.2,8.7l-11.8-1.6
      c-0.7-0.1-1.3-0.8-1.2-1.5L112.2,242.7z M110.4,256.1c0-0.4,0.2-0.7,0.5-0.9s0.6-0.3,1-0.3l11.8,1.6l-1.2,8.6l0.1,0.9v0.1
      c0,0.1,0,0.1,0.1,0.2s0.1,0.3,0.2,0.4s0.1,0.3,0.2,0.4l0.1,0.2c0.1,0.2,0.3,0.4,0.5,0.5l-13.3-1.8c-0.7-0.1-1.3-0.8-1.2-1.5
      L110.4,256.1z M138.6,250.9c-3.1-0.4-6.1-1.3-8.2-2.3c-2-1-2.9-2-2.8-2.5V246c0-0.1,0.1-0.1,0.1-0.2c0.2-0.3,0.7-0.6,1.4-0.9h0.1
      c0.1,0,0.3-0.1,0.4-0.1c0.2-0.1,0.3-0.1,0.5-0.2h0.1c0.8-0.2,1.8-0.4,2.9-0.4c0.4,0,0.7,0,1.1-0.1h0.3c0.2,0,0.4,0,0.5,0
      c3.1,0,6.4,0.5,9.3,1.3l0.3,0.1c0.3,0.1,0.7,0.2,1,0.3c3.3,1.2,5,2.6,4.9,3.4C150.4,250.3,145.7,251.9,138.6,250.9z M149.8,244
      l-3.3-0.5c-0.5-0.2-0.9-0.3-1.4-0.5H145c-1.6-0.5-3.4-0.9-5.2-1.1c-1.6-0.2-3.2-0.3-4.7-0.3c-0.2,0-0.4,0-0.6,0h-0.2
      c-0.5,0-1,0-1.5,0.1l0,0l-18.8-2.5c-0.4,0-0.7-0.2-0.9-0.5c-0.2-0.3-0.3-0.6-0.3-1l1.1-8.3c0.1-0.7,0.8-1.3,1.5-1.2l35.8,4.8
      c0.4,0,0.7,0.2,0.9,0.5s0.3,0.6,0.3,1l-1.1,8.3C151.3,243.6,150.6,244.1,149.8,244z M148.4,268.4L148.4,268.4L148.4,268.4
      L148.4,268.4z"/>
    <path class="st16" d="M146.2,236.9c0.1-0.4,0.4-0.7,0.8-0.6c0.4,0.1,0.7,0.4,0.6,0.8c-0.1,0.4-0.4,0.7-0.8,0.6
      C146.4,237.6,146.2,237.2,146.2,236.9z M143.4,236.5c0.1-0.4,0.4-0.7,0.8-0.6c0.4,0.1,0.7,0.4,0.6,0.8c-0.1,0.4-0.4,0.7-0.8,0.6
      C143.6,237.2,143.3,236.8,143.4,236.5z M147.3,239.1c0.1-0.4,0.4-0.7,0.8-0.6c0.4,0.1,0.7,0.4,0.6,0.8c-0.1,0.4-0.4,0.7-0.8,0.6
      C147.6,239.8,147.3,239.5,147.3,239.1z M144.6,238.8c0.1-0.4,0.4-0.7,0.8-0.6c0.4,0.1,0.7,0.4,0.6,0.8c-0.1,0.4-0.4,0.7-0.8,0.6
      C144.8,239.5,144.5,239.2,144.6,238.8z M140.6,236.1c0.1-0.4,0.4-0.7,0.8-0.6c0.4,0.1,0.7,0.4,0.6,0.8c-0.1,0.4-0.4,0.7-0.8,0.6
      C140.9,236.8,140.6,236.4,140.6,236.1z M141.8,238.4c0.1-0.4,0.4-0.7,0.8-0.6c0.4,0.1,0.7,0.4,0.6,0.8c-0.1,0.4-0.4,0.7-0.8,0.6
      C142,239.1,141.7,238.8,141.8,238.4z M137.8,235.7c0.1-0.4,0.4-0.7,0.8-0.6c0.4,0.1,0.7,0.4,0.6,0.8c-0.1,0.4-0.4,0.7-0.8,0.6
      C138,236.4,137.7,236,137.8,235.7z M138.9,238c0.1-0.4,0.4-0.7,0.8-0.6c0.4,0.1,0.7,0.4,0.6,0.8c-0.1,0.4-0.4,0.7-0.8,0.6
      C139.1,238.7,138.9,238.4,138.9,238z M134.9,235.4c0.1-0.4,0.4-0.7,0.8-0.6c0.4,0.1,0.7,0.4,0.6,0.8c-0.1,0.4-0.4,0.7-0.8,0.6
      C135.2,236.1,134.9,235.7,134.9,235.4z M136.1,237.6c0.1-0.4,0.4-0.7,0.8-0.6c0.4,0.1,0.7,0.4,0.6,0.8c-0.1,0.4-0.4,0.7-0.8,0.6
      C136.3,238.3,136,238,136.1,237.6z"/>
    <path class="st15" d="M119.4,231.1c-1.7-0.2-3.4,1-3.6,2.7s1,3.4,2.7,3.6c1.7,0.2,3.4-1,3.6-2.7
      C122.3,232.9,121.1,231.3,119.4,231.1z M118.7,236c-1-0.1-1.7-1-1.5-2c0.1-1,1-1.7,2-1.5c1,0.1,1.7,1,1.5,2
      C120.6,235.4,119.7,236.1,118.7,236z M117.6,244.5c-1.7-0.2-3.4,1-3.6,2.7s1,3.4,2.7,3.6s3.4-1,3.6-2.7
      C120.5,246.3,119.3,244.7,117.6,244.5z M116.9,249.4c-1-0.1-1.7-1-1.5-2c0.1-1,1-1.7,2-1.5c1,0.1,1.7,1,1.5,2
      S117.9,249.5,116.9,249.4z M115.7,257.9c-1.7-0.2-3.4,1-3.6,2.7s1,3.4,2.7,3.6s3.4-1,3.6-2.7C118.7,259.7,117.5,258.1,115.7,257.9
      z M115.1,262.8c-1-0.1-1.7-1-1.5-2c0.1-1,1-1.7,2-1.5c1,0.1,1.7,1,1.5,2C117,262.2,116.1,262.9,115.1,262.8z"/>
  </g>
</g>
<g id="decentralized">
  <linearGradient id="bg-d_1_" gradientUnits="userSpaceOnUse" x1="590.7272" y1="681.4337" x2="410.8728" y2="597.5662" gradientTransform="matrix(1 0 0 1 0 -438)">
    <stop  offset="0" style="stop-color:#4563FF"/>
    <stop  offset="1" style="stop-color:#30B24B"/>
  </linearGradient>
  <circle id="bg-d" class="st19" cx="500.8" cy="201.5" r="99.2"/>
  <linearGradient id="center-decentralized_1_" gradientUnits="userSpaceOnUse" x1="513.6381" y1="645.4865" x2="487.9413" y2="633.5039" gradientTransform="matrix(1 0 0 1 0 -438)">
    <stop  offset="0" style="stop-color:#4563FF"/>
    <stop  offset="1" style="stop-color:#30B24B"/>
  </linearGradient>
  <circle id="center-decentralized" class="st20" cx="500.8" cy="201.5" r="14.2"/>
  <path id="Bitcoin" class="st14" d="M464.4,158c0.7-4.5-2.8-6.9-7.7-8.5l1.6-6.1l-3.8-0.9l-1.5,5.9c-1-0.2-2-0.5-3.1-0.7l1.5-5.9
    l-3.8-0.9l-1.6,6c-0.8-0.2-1.7-0.4-2.5-0.6l0,0l-5.3-1.3l-1,3.9c0,0,2.8,0.6,2.8,0.7c1.6,0.4,1.8,1.4,1.8,2.1
    c-4.3,16.6,0,0-4.3,16.6c-0.2,0.5-0.7,1.1-1.8,0.9c0,0.1-2.8-0.7-2.8-0.7l-1.9,4.2l5,1.2c0.9,0.2,1.8,0.5,2.7,0.7l-1.6,6.1l3.8,0.9
    l1.6-6.1c1,0.3,2.1,0.5,3.1,0.8l-1.6,6l3.8,0.9l1.6-6.1c6.5,1.2,11.5,0.7,13.5-5c1.7-4.6-0.1-7.2-3.5-8.9
    C462,162.8,463.9,161.2,464.4,158L464.4,158z M455.6,169.8c-1.2,4.6-9.2,2.1-11.8,1.5l2.1-8.1C448.5,163.8,456.9,165,455.6,169.8z
      M456.8,157.9c-1.1,4.2-7.8,2-9.9,1.5l1.9-7.4C451,152.6,457.9,153.6,456.8,157.9z"/>
  <g id="Blockchain">
    <path class="st14" d="M544,179.9l-2.8-10.9l-9.9-3.1l-7.4,7.4l2.8,10.9l9.9,3.1L544,179.9z M541.6,179.2l-4.5,4.4l-1.5-5.7
      l4.5-4.4L541.6,179.2z M526.7,174l5.4-5.5l7.3,2.3v0.1l-5.4,5.5L526.7,174L526.7,174z M534.8,184.2l-6-1.8l-1.5-5.7l6,1.8
      L534.8,184.2z M574.5,160.7l-2.8-10.9l-9.9-3.1l-7.4,7.4l2.8,10.9l9.9,3.1L574.5,160.7z M572,159.9l-4.5,4.4l-1.5-5.7l4.5-4.4
      L572,159.9z M557.1,154.8l5.4-5.5l7.3,2.3v0.1l-5.4,5.5L557.1,154.8L557.1,154.8z M565.2,164.9l-6-1.8l-1.5-5.7l6,1.8L565.2,164.9
      z M560.3,189l-7.4,7.4l2.8,10.9l9.9,3.1l7.4-7.4l-2.8-10.9L560.3,189z M563.7,207.3l-6-1.8l-1.5-5.7l6,1.8L563.7,207.3z
        M570.4,202.3l-4.5,4.4l-1.5-5.7l4.5-4.4L570.4,202.3z M568.3,194l-5.4,5.5l-7.3-2.3v-0.1l5.4-5.5L568.3,194L568.3,194z
        M568.4,221.6L561,229l2.8,10.9l9.9,3.1l7.4-7.4l-2.8-10.9L568.4,221.6z M571.7,239.9l-6-1.8l-1.5-5.7l6,1.8L571.7,239.9z
        M578.5,234.9l-4.5,4.4l-1.5-5.7l4.5-4.4L578.5,234.9z M576.4,226.5L571,232l-7.3-2.3v-0.1l5.4-5.5L576.4,226.5L576.4,226.5z
        M538.4,240.4l-7.4,7.4l2.8,10.9l9.9,3.1l7.4-7.4l-2.8-10.9L538.4,240.4z M541.8,258.7l-6-1.8l-1.5-5.7l6,1.8L541.8,258.7z
        M548.5,253.7l-4.5,4.4l-1.5-5.7l4.5-4.4L548.5,253.7z M546.4,245.4l-5.4,5.5l-7.3-2.3v-0.1l5.4-5.5L546.4,245.4L546.4,245.4z"/>
    <path class="st16" d="M555,165.6c0.2,0.6-0.3,1.2-0.8,1.4c-0.6,0.2-1.2-0.3-1.4-0.8s0.3-1.2,0.8-1.4
      C554.3,164.6,554.8,165,555,165.6z M550.5,166.7c0.2,0.6-0.3,1.2-0.8,1.4s-1.2-0.3-1.4-0.8c-0.2-0.6,0.3-1.2,0.8-1.4
      C549.8,165.7,550.3,166.1,550.5,166.7z M546,167.8c0.2,0.6-0.3,1.2-0.8,1.4c-0.6,0.2-1.2-0.3-1.4-0.8c-0.2-0.6,0.3-1.2,0.8-1.4
      C545.2,166.8,545.8,167.3,546,167.8z M538.7,190.3c0.2,0.6-0.3,1.2-0.8,1.4c-0.6,0.2-1.2-0.3-1.4-0.8c-0.2-0.6,0.3-1.2,0.8-1.4
      C537.9,189.3,538.5,189.7,538.7,190.3z M539.8,194.8c0.2,0.6-0.3,1.2-0.8,1.4c-0.6,0.2-1.2-0.3-1.4-0.8c-0.2-0.6,0.3-1.2,0.8-1.4
      C539,193.9,539.6,194.2,539.8,194.8z M568.7,218c0.2,0.6-0.3,1.2-0.8,1.4c-0.6,0.2-1.2-0.3-1.4-0.8c-0.2-0.6,0.3-1.2,0.8-1.4
      S568.5,217.3,568.7,218z M567.5,213.5c0.2,0.6-0.3,1.2-0.8,1.4c-0.6,0.2-1.2-0.3-1.4-0.8c-0.2-0.6,0.3-1.2,0.8-1.4
      C566.7,212.5,567.4,212.8,567.5,213.5z M552.5,242.4c0.2,0.6-0.3,1.2-0.8,1.4c-0.6,0.2-1.2-0.3-1.4-0.8c-0.2-0.6,0.3-1.2,0.8-1.4
      C551.8,241.4,552.3,241.8,552.5,242.4z M557,241.3c0.2,0.6-0.3,1.2-0.8,1.4c-0.6,0.2-1.2-0.3-1.4-0.8s0.3-1.2,0.8-1.4
      C556.3,240.3,556.9,240.7,557,241.3z M561.6,240.2c0.2,0.6-0.3,1.2-0.8,1.4c-0.6,0.2-1.2-0.3-1.4-0.8s0.3-1.2,0.8-1.4
      C560.8,239.1,561.4,239.6,561.6,240.2z M545.9,198.1c0.2,0.6-0.3,1.2-0.8,1.4c-0.6,0.2-1.2-0.3-1.4-0.8c-0.2-0.6,0.3-1.2,0.8-1.4
      C545.1,197,545.8,197.5,545.9,198.1z M550.5,196.9c0.2,0.6-0.3,1.2-0.8,1.4c-0.6,0.2-1.2-0.3-1.4-0.8c-0.2-0.6,0.3-1.2,0.8-1.4
      S550.3,196.4,550.5,196.9z M541.1,199.3c0.2,0.6-0.3,1.2-0.8,1.4c-0.6,0.2-1.2-0.3-1.4-0.8s0.3-1.2,0.8-1.4
      C540.4,198.2,540.9,198.6,541.1,199.3z"/>
  </g>
  <path id="ETH" class="st14" d="M495.8,125.9l-1.9-2.4l-1.1,2.8l-9,23.6l14.6,14.5l1.7,1.6l1.2-2.1l9.7-18L495.8,125.9z
      M495.3,142.7l-6.9,3.8l5.3-14L495.3,142.7z M495.7,145.8l0.7,4.6l-6.6-1.4L495.7,145.8z M498.7,145.4l6.6,1.4l-5.9,3.2
    L498.7,145.4z M505.7,143.8l-7.5-1.6l-1.5-10.2L505.7,143.8z M499.5,161.2l-9-8.9l8,1.7l7-3.8L499.5,161.2z"/>
  <g id="AI">
    <path class="st14" d="M471.3,234.2l-10,1.1l-0.2-1.4l2.7-0.3c0.3,0,0.6-0.3,0.5-0.7c0-0.3-0.3-0.6-0.7-0.5l-2.7,0.3l-0.2-1.4
      l1.9-0.2c0.7-0.1,1.3-0.4,1.8-1l3.6-4.5c0.3,0.1,0.6,0.1,0.9,0.1c0.5-0.1,1-0.3,1.3-0.7s0.5-0.9,0.4-1.4s-0.3-1-0.7-1.3
      c-0.4-0.3-0.9-0.5-1.4-0.4s-1,0.3-1.3,0.7s-0.5,0.9-0.4,1.4c0,0.3,0.1,0.6,0.3,0.8l-3.6,4.5c-0.2,0.3-0.6,0.5-0.9,0.5l-1.9,0.2
      l-0.2-1.4c-0.2-1.8-1.8-3.1-3.6-2.9l-1.4,0.2l-0.6-5.5c0.7-0.3,1.2-1.1,1.1-2c-0.1-1.1-1.1-1.8-2.2-1.7s-1.8,1.1-1.7,2.2
      c0.1,0.9,0.7,1.5,1.5,1.7l0.6,5.5l-1.4,0.2l-0.3-2.7c0-0.3-0.3-0.6-0.7-0.5c-0.3,0-0.6,0.3-0.5,0.7l0.3,2.7l-1.4,0.2l-1.1-10
      c0-0.3-0.3-0.6-0.7-0.5c-0.3,0-0.6,0.3-0.5,0.7l1.1,10l-1.4,0.2l-0.3-2.7c0-0.3-0.3-0.6-0.7-0.5c-0.3,0-0.6,0.3-0.5,0.7l0.3,2.7
      l-1.4,0.2l-0.2-1.9c-0.1-0.7-0.4-1.3-1-1.8l-4.5-3.6c0.3-0.8,0.1-1.7-0.6-2.2c-0.8-0.7-2.1-0.5-2.7,0.3c-0.7,0.8-0.5,2.1,0.3,2.7
      c0.4,0.3,0.9,0.5,1.4,0.4c0.3,0,0.6-0.1,0.8-0.3l4.5,3.6c0.3,0.2,0.5,0.6,0.5,0.9l0.2,1.9l-1.4,0.2c-0.3,0-0.5,0.1-0.8,0.2
      c-0.3,0.1-0.5,0.5-0.4,0.8s0.5,0.5,0.8,0.4c0.2-0.1,0.3-0.1,0.5-0.1l14.5-1.7c1.1-0.1,2.1,0.7,2.3,1.8l1.7,14.5c0,0.2,0,0.3,0,0.5
      c0,0.3,0.2,0.7,0.5,0.7c0.1,0,0.1,0,0.2,0c0.3,0,0.5-0.2,0.5-0.5s0-0.6,0-0.8l-0.2-1.4l5.5-0.6c0.3,0.7,1.1,1.2,2,1.1
      c1.1-0.1,1.8-1.1,1.7-2.2c-0.1-1.1-1.1-1.8-2.2-1.7c-0.9,0.1-1.5,0.7-1.7,1.5l-5.5,0.6l-0.2-1.4l2.7-0.3c0.3,0,0.6-0.3,0.5-0.7
      s-0.3-0.6-0.7-0.5l-2.7,0.3l-0.2-1.4l10-1.1c0.3,0,0.6-0.3,0.5-0.7C472,234.4,471.7,234.1,471.3,234.2z M468.2,223.3
      c0.1-0.1,0.3-0.2,0.5-0.3c0.2,0,0.4,0,0.5,0.1s0.2,0.3,0.3,0.5c0,0.2,0,0.4-0.1,0.5s-0.3,0.2-0.5,0.3c-0.2,0-0.4,0-0.5-0.1
      s-0.2-0.3-0.3-0.5C468.1,223.6,468.1,223.4,468.2,223.3z M438,219.7c-0.2,0.3-0.7,0.4-1,0.1c-0.3-0.2-0.4-0.7-0.1-1
      c0.1-0.2,0.3-0.2,0.5-0.3c0.2,0,0.4,0,0.5,0.1C438.2,219,438.2,219.4,438,219.7z M454.2,219.4c-0.4,0-0.7-0.2-0.8-0.6
      c0-0.4,0.2-0.7,0.6-0.8c0.4,0,0.7,0.2,0.8,0.6S454.6,219.4,454.2,219.4z M469.3,239.7c0.4,0,0.7,0.2,0.8,0.6
      c0,0.4-0.2,0.7-0.6,0.8c-0.4,0-0.7-0.2-0.8-0.6C468.6,240.1,468.9,239.7,469.3,239.7z M465.6,253.5c-0.7-0.5-1.6-0.6-2.3-0.1
      l-4.5-3.6c-0.3-0.2-0.5-0.6-0.5-0.9l-0.2-1.9l1.4-0.2c0.3,0,0.5-0.1,0.8-0.2s0.5-0.5,0.4-0.8s-0.5-0.5-0.8-0.4
      c-0.2,0.1-0.3,0.1-0.5,0.1l-14.5,1.7c-1.1,0.1-2.1-0.7-2.3-1.8l-1.7-14.5c0-0.2,0-0.3,0-0.5c0-0.3-0.2-0.7-0.5-0.7
      s-0.7,0.2-0.7,0.5s0,0.6,0,0.8l0.2,1.4l-5.5,0.6c-0.3-0.7-1.1-1.2-2-1.1c-1.1,0.1-1.8,1.1-1.7,2.2c0.1,1.1,1.1,1.8,2.2,1.7
      c0.9-0.1,1.5-0.7,1.7-1.5l5.5-0.6l0.2,1.4l-2.7,0.3c-0.3,0-0.6,0.3-0.5,0.7c0,0.3,0.3,0.6,0.7,0.5l2.7-0.3l0.2,1.4l-10,1.1
      c-0.3,0-0.6,0.3-0.5,0.7c0,0.3,0.3,0.6,0.7,0.5l10-1.1l0.2,1.4l-2.7,0.3c-0.3,0-0.6,0.3-0.5,0.7s0.3,0.6,0.7,0.5l2.7-0.3l0.2,1.4
      l-1.9,0.2c-0.7,0.1-1.3,0.4-1.8,1l-3.6,4.5c-0.3-0.1-0.6-0.1-0.9-0.1c-0.5,0.1-1,0.3-1.3,0.7s-0.5,0.9-0.4,1.4s0.3,1,0.7,1.3
      c0.4,0.3,0.9,0.5,1.4,0.4s1-0.3,1.3-0.7s0.5-0.9,0.4-1.4c0-0.3-0.1-0.6-0.3-0.8l3.6-4.5c0.2-0.3,0.6-0.5,0.9-0.5l1.9-0.2l0.2,1.4
      c0.2,1.8,1.8,3.1,3.6,2.9l1.4-0.2l0.6,5.5c-0.7,0.3-1.2,1.1-1.1,2c0.1,1.1,1.1,1.8,2.2,1.7s1.8-1.1,1.7-2.2
      c-0.1-0.9-0.7-1.5-1.5-1.7l-0.6-5.5l1.4-0.2l0.3,2.7c0,0.3,0.3,0.6,0.7,0.5c0.3,0,0.6-0.3,0.5-0.7l-0.3-2.7l1.4-0.2l1.1,10
      c0,0.3,0.3,0.6,0.7,0.5c0.3,0,0.6-0.3,0.5-0.7l-1.1-10l1.4-0.2l0.3,2.7c0,0.3,0.3,0.6,0.7,0.5c0.3,0,0.6-0.3,0.5-0.7l-0.3-2.7
      l1.4-0.2l0.2,1.9c0.1,0.7,0.4,1.3,1,1.8l4.5,3.6c-0.3,0.8-0.1,1.7,0.6,2.2c0.4,0.3,0.9,0.5,1.4,0.4s1-0.3,1.3-0.7
      C466.6,255.4,466.4,254.2,465.6,253.5z M432.5,234.6c-0.4,0-0.7-0.2-0.8-0.6c0-0.4,0.2-0.7,0.6-0.8c0.4,0,0.7,0.2,0.8,0.6
      S432.9,234.6,432.5,234.6z M433.6,251.1c-0.1,0.1-0.3,0.2-0.5,0.3c-0.2,0-0.4,0-0.5-0.1s-0.2-0.3-0.3-0.5c0-0.2,0-0.4,0.1-0.5
      s0.3-0.2,0.5-0.3c0.2,0,0.4,0,0.5,0.1s0.2,0.3,0.3,0.5S433.7,250.9,433.6,251.1z M448.4,255.6c0,0.4-0.2,0.7-0.6,0.8
      c-0.4,0-0.7-0.2-0.8-0.6c0-0.4,0.2-0.7,0.6-0.8S448.3,255.2,448.4,255.6z M464.9,255.5c-0.2,0.3-0.7,0.4-1,0.1
      c-0.3-0.2-0.4-0.7-0.1-1c0.1-0.2,0.3-0.2,0.5-0.3c0.2,0,0.4,0,0.5,0.1C465.1,254.7,465.2,255.2,464.9,255.5z"/>
    <path class="st16" d="M457.3,234.8c-0.2-1.3-1.2-2.3-2.6-2.5c0-0.2,0-0.3,0-0.5c-0.1-1.3-1.4-2.1-2.7-2c-0.7,0.1-1.4,0.5-1.8,1
      c-0.5-0.4-1.2-0.6-1.9-0.6c-1.4,0.2-2.4,1.3-2.2,2.6c0,0.2,0.1,0.3,0.1,0.5c-1.3,0.5-2.1,1.7-2,3.1c0.1,0.6,0.4,1.2,0.9,1.7
      c-0.4,0.6-0.5,1.3-0.4,2c0.1,1.1,0.8,2,1.8,2.5l0,0c0.2,1.4,1.6,2.5,3.2,2.3c0.9-0.1,1.7-0.6,2.1-1.2c0.6,0.5,1.4,0.8,2.3,0.7
      c1.5-0.2,2.6-1.4,2.6-2.8c0.9-0.6,1.3-1.6,1.2-2.6c-0.1-0.7-0.5-1.4-1.1-1.9C457.1,236.2,457.4,235.5,457.3,234.8z M455.4,237.5
      c0.6,0.2,1.1,0.7,1.1,1.3c0.1,0.4-0.1,0.9-0.4,1.2c-0.4-0.6-1-1-1.8-1.1c-0.3-0.1-0.7,0.2-0.7,0.5c-0.1,0.3,0.2,0.7,0.5,0.7
      c0.7,0.1,1.1,0.6,1.2,1.2c0.1,0.8-0.6,1.4-1.5,1.6c-0.9,0.1-1.7-0.4-1.8-1.2l-0.5-4c-0.1-0.8,0.6-1.4,1.5-1.6
      c0.3,0,0.6-0.3,0.5-0.7c0-0.3-0.3-0.6-0.7-0.5c-0.6,0.1-1.1,0.3-1.6,0.6l-0.1-0.8c0-0.3-0.3-0.6-0.7-0.5c-0.3,0-0.6,0.3-0.5,0.7
      l0.4,3.4c-0.2-0.1-0.5-0.2-0.7-0.2c-0.3-0.1-0.7,0.2-0.7,0.5c-0.1,0.3,0.2,0.7,0.5,0.7c0.7,0.1,1.1,0.6,1.2,1.2l0.2,1.3
      c0.1,0.8-0.6,1.4-1.5,1.6c-0.9,0.1-1.7-0.4-1.8-1.2c0-0.3,0.1-0.7,0.3-0.9c0.2-0.3,0.2-0.7-0.1-0.9c-0.3-0.2-0.7-0.2-0.9,0.1
      c-0.1,0.2-0.2,0.3-0.3,0.5c-0.4-0.3-0.7-0.8-0.8-1.3c-0.1-0.9,0.5-1.8,1.5-2.2c0.3-0.1,0.5-0.5,0.4-0.8s-0.5-0.5-0.8-0.4
      c-0.4,0.1-0.8,0.3-1.1,0.6c-0.3-0.3-0.4-0.6-0.4-0.9c-0.1-0.9,0.7-1.8,1.8-1.9l0,0c0.1,0,0.3-0.1,0.4-0.2c0.2-0.2,0.2-0.6,0-0.8
      l0,0l0,0l0,0l0,0c-0.1-0.1-0.3-0.3-0.3-0.6c-0.1-0.6,0.4-1.1,1.1-1.2s1.3,0.3,1.4,0.9c0,0.3,0.3,0.6,0.7,0.5
      c0.3,0,0.6-0.3,0.5-0.7c-0.1-0.6,0.4-1.1,1.1-1.2c0.7-0.1,1.3,0.3,1.4,0.9c0,0.2,0,0.3,0,0.4c-0.3,0.1-0.7,0.2-1,0.4
      s-0.4,0.5-0.2,0.8c0.2,0.3,0.5,0.4,0.8,0.2c0.3-0.1,0.5-0.2,0.8-0.3l0,0l0,0c1.1-0.1,2.1,0.5,2.2,1.5c0.1,0.6-0.2,1.2-0.8,1.5
      c-0.2,0.1-0.3,0.4-0.3,0.6C455,237.3,455.2,237.5,455.4,237.5z"/>
  </g>
  <path id="Eos" class="st14" d="M499.6,282L499.6,282c-0.2,0-0.4-0.1-0.6-0.2l-13.2-8.4c-0.2-0.1-0.3-0.3-0.4-0.4
    c0-0.1-0.1-0.1-0.1-0.2s0-0.3,0-0.5l0,0l0,0c0,0,0,0,0-0.1l4.4-19.7c0-0.2,0.1-0.3,0.2-0.5l9-12.2c0.2-0.3,0.6-0.5,0.9-0.5
    c0.4,0,0.7,0.2,0.9,0.5l8.9,12.2l0.1,0.1l0,0l0,0v0.1c0,0.1,0.1,0.2,0.1,0.3l4.2,19.8c0,0,0,0,0,0.1l0,0l0,0c0,0.2,0,0.3,0,0.5
    c0,0.1,0,0.2-0.1,0.2c-0.1,0.2-0.2,0.3-0.4,0.4l-13.3,8.2C500,282,499.8,282,499.6,282z M490.2,273.7l7.4,4.7l-1.4-4.6L490.2,273.7
    z M503.1,273.8l-1.5,4.6l7.4-4.6H503.1z M498.5,273.7l1.1,3.5l1.1-3.5H498.5z M503.8,271.5h7.2l-4.5-8.1L503.8,271.5z M497.8,271.5
    h3.7l3.5-10.7l-5.2-9.3l-5.3,9.3L497.8,271.5z M488.3,271.4h7.2l-2.5-8.1L488.3,271.4z M507.4,260.5l2.9,5.1l-1.8-8.5L507.4,260.5z
      M491,257.1l-1.9,8.4l2.9-5.1L491,257.1z M500.9,248.9l5,9l1.5-4.8l-6.5-9V248.9z M492,253l1.5,4.8l5.1-8.9v-4.8L492,253z"/>
</g>
<g id="Brandmark" class="st22">
  <circle id="Core-1_3_" class="st14" cx="300" cy="180.5" r="7.6"/>
  <circle id="Core-2_3_" class="st14" cx="277.9" cy="196.5" r="7.6"/>
  <circle id="Core-3_3_" class="st14" cx="322.1" cy="196.5" r="7.6"/>
  <circle id="Core-4_3_" class="st14" cx="286.4" cy="222.5" r="7.6"/>
  <circle id="Core-5_3_" class="st14" cx="313.6" cy="222.5" r="7.6"/>
  <path id="Center" class="st23" d="M304.1,222.5c0-2.5,1-5,2.8-6.8s4.2-2.8,6.8-2.8c2.4,0,4.7,0.9,6.4,2.5c1.6-2.8,2.7-6,3-9.3
    c-0.3,0-0.7,0.1-1,0.1c-2.5,0-5-1-6.8-2.8s-2.8-4.2-2.8-6.8s1-5,2.8-6.8c0.6-0.6,1.3-1.1,2-1.5c-2.2-2.4-4.9-4.4-7.9-5.8
    c-0.4,1.8-1.3,3.5-2.6,4.8c-1.8,1.8-4.2,2.8-6.8,2.8s-5-1-6.8-2.8c-1.3-1.3-2.2-3-2.6-4.8c-3.1,1.4-5.7,3.3-7.9,5.8
    c0.7,0.4,1.4,0.9,2,1.5c1.8,1.8,2.8,4.2,2.8,6.8s-1,5-2.8,6.8s-4.2,2.8-6.8,2.8c-0.3,0-0.7,0-1-0.1c0.3,3.4,1.4,6.5,3,9.3
    c1.8-1.6,4-2.5,6.4-2.5c2.5,0,5,1,6.8,2.8s2.8,4.2,2.8,6.8c0,1.4-0.3,2.7-0.8,3.9c1.6,0.3,3.2,0.5,4.9,0.5c1.7,0,3.3-0.2,4.9-0.5
    C304.4,225.2,304.1,223.9,304.1,222.5z"/>
  <path id="Circles_1_" class="st23" d="M348.3,185.4c-1.4-3.4-3.5-6.4-6.1-9.1c-2.6-2.6-5.7-4.7-9.1-6.1c-2.3-1-4.8-1.6-7.2-2
    c-1.4-3-3.3-5.6-5.6-8c-2.6-2.6-5.7-4.7-9.1-6.1c-3.5-1.5-7.2-2.2-11.1-2.2s-7.6,0.8-11.1,2.2c-3.4,1.4-6.4,3.5-9.1,6.1
    c-2.3,2.3-4.2,5-5.6,7.9c-2.6,0.3-5.2,1-7.7,2c-3.4,1.4-6.4,3.5-9.1,6.1c-2.6,2.6-4.7,5.7-6.1,9.1c-1.5,3.5-2.2,7.2-2.2,11.1
    s0.8,7.6,2.2,11.1c1.4,3.4,3.5,6.4,6.1,9.1c0.2,0.2,0.4,0.4,0.6,0.6c-0.3,1.7-0.5,3.5-0.5,5.3c0,3.9,0.8,7.6,2.2,11.1
    c1.4,3.4,3.5,6.4,6.1,9.1c2.6,2.6,5.7,4.7,9.1,6.1c3.5,1.5,7.2,2.2,11.1,2.2s7.6-0.8,11.1-2.2c0.9-0.4,1.7-0.8,2.6-1.2
    c0.8,0.5,1.7,0.9,2.6,1.2c3.5,1.5,7.2,2.2,11.1,2.2s7.6-0.8,11.1-2.2c3.4-1.4,6.4-3.5,9.1-6.1c2.6-2.6,4.7-5.7,6.1-9.1
    c1.5-3.5,2.2-7.2,2.2-11.1c0-1.8-0.2-3.5-0.5-5.3c0.2-0.2,0.4-0.4,0.6-0.6c2.6-2.6,4.7-5.7,6.1-9.1c1.5-3.5,2.2-7.2,2.2-11.1
    C350.6,192.7,349.8,188.9,348.3,185.4z M346.2,206.7c-1.2,2.9-3,5.6-5.2,7.9c-0.3-1.1-0.7-2.1-1.1-3.1c-1.4-3.4-3.5-6.4-6.1-9.1
    c-0.8-0.8-1.8-1.7-2.7-2.4c-0.3,0.7-0.7,1.4-1.1,2.1c0.8,0.6,1.5,1.3,2.2,2c2.4,2.4,4.3,5.2,5.6,8.3c0.6,1.3,1,2.7,1.3,4.1
    c-2,1.8-4.3,3.2-6.8,4.2c-2.9,1.2-5.9,1.9-9,2c0,0.8-0.1,1.6-0.3,2.4c3.6-0.1,7-0.8,10.3-2.2c2.3-1,4.4-2.2,6.4-3.7
    c0.1,1.1,0.2,2.3,0.2,3.5c0,3.5-0.7,7-2.1,10.2c-1.3,3.1-3.2,5.9-5.6,8.3c-2.4,2.4-5.2,4.3-8.3,5.6c-3.2,1.4-6.7,2.1-10.2,2.1
    s-6.9-0.7-10.2-2.1c-0.4-0.2-0.8-0.3-1.1-0.5c1.5-1,2.9-2.2,4.1-3.4c2.6-2.6,4.7-5.7,6.1-9.1c0.2-0.5,0.4-1,0.6-1.5
    c-0.8,0-1.6-0.2-2.4-0.4c-0.1,0.3-0.3,0.7-0.4,1c-1.3,3.1-3.2,5.9-5.6,8.3c-1.5,1.5-3.1,2.7-4.8,3.8c-1.8-1.1-3.4-2.4-4.8-3.8
    c-2.4-2.4-4.3-5.2-5.6-8.3c-0.1-0.3-0.3-0.7-0.4-1c-0.8,0.2-1.5,0.4-2.4,0.4c0.2,0.5,0.4,1,0.6,1.5c1.4,3.4,3.5,6.4,6.1,9.1
    c1.3,1.3,2.7,2.4,4.1,3.4c-0.4,0.2-0.8,0.3-1.1,0.5c-3.2,1.4-6.7,2.1-10.2,2.1s-6.9-0.7-10.2-2.1c-3.1-1.3-5.9-3.2-8.3-5.6
    c-2.4-2.4-4.3-5.2-5.6-8.3c-1.4-3.2-2.1-6.7-2.1-10.2c0-1.2,0.1-2.3,0.2-3.5c2,1.5,4.1,2.8,6.4,3.7c3.3,1.4,6.7,2.1,10.3,2.2
    c-0.2-0.8-0.3-1.6-0.3-2.4c-3.1-0.1-6.2-0.8-9-2c-2.5-1-4.8-2.5-6.8-4.2c0.3-1.4,0.8-2.7,1.3-4.1c1.3-3.1,3.2-5.9,5.6-8.3
    c0.7-0.7,1.4-1.4,2.2-2c-0.5-0.7-0.8-1.4-1.1-2.1c-1,0.7-1.9,1.6-2.7,2.4c-2.6,2.6-4.7,5.7-6.1,9.1c-0.4,1-0.8,2.1-1.1,3.1
    c-2.2-2.3-3.9-5-5.2-7.9c-1.4-3.2-2.1-6.7-2.1-10.2s0.7-6.9,2.1-10.2c1.3-3.1,3.2-5.9,5.6-8.3c2.4-2.4,5.2-4.3,8.3-5.6
    c1.8-0.8,3.7-1.3,5.7-1.7c-1.1,3.1-1.7,6.4-1.7,9.7c0,2.7,0.4,5.4,1.1,7.9c0.7-0.4,1.4-0.8,2.2-1c-0.6-2.2-0.9-4.6-0.9-6.9
    c0-3.5,0.7-6.9,2-10c0.6,0,1.2-0.1,1.8-0.1c3.5,0,7,0.7,10.2,2.1c1.5,0.6,2.9,1.4,4.2,2.3c0.3-0.4,0.6-0.7,0.9-1s0.5-0.5,0.8-0.7
    c-1.6-1.1-3.3-2-5-2.7c-3.5-1.5-7.2-2.2-11.1-2.2c-0.2,0-0.5,0-0.7,0c1.2-2.2,2.7-4.2,4.5-6.1c2.4-2.4,5.2-4.3,8.3-5.6
    c3.2-1.4,6.7-2.1,10.2-2.1s6.9,0.7,10.2,2.1c3.1,1.3,5.9,3.2,8.3,5.6c1.8,1.8,3.3,3.9,4.5,6.1c-0.4,0-0.7,0-1.1,0
    c-3.9,0-7.6,0.8-11.1,2.2c-1.8,0.7-3.4,1.7-5,2.7c0.3,0.2,0.5,0.5,0.8,0.7c0.3,0.3,0.6,0.7,0.9,1c1.3-0.9,2.8-1.7,4.2-2.3
    c3.2-1.4,6.7-2.1,10.2-2.1c0.8,0,1.5,0,2.3,0.1c1.3,3.2,2,6.5,2,10c0,2.4-0.3,4.8-1,7.1c0.7,0.3,1.5,0.7,2.1,1.1
    c0.8-2.6,1.2-5.4,1.2-8.1c0-3.3-0.6-6.5-1.7-9.6c1.8,0.3,3.6,0.9,5.3,1.6c3.1,1.3,5.9,3.2,8.3,5.6c2.4,2.4,4.3,5.2,5.6,8.3
    c1.4,3.2,2.1,6.7,2.1,10.2C348.2,200,347.5,203.5,346.2,206.7z"/>
</g>
<g id="mesg-bridge">
  <line id="bridge" class="st24" x1="99.2" y1="201.5" x2="500.8" y2="201.5"/>
  <circle class="st25" cx="99.2" cy="201.5" r="5.6"/>
  <circle class="st25" cx="500.8" cy="201.5" r="5.6"/>
  <g>
    <linearGradient id="SVGID_3_" gradientUnits="userSpaceOnUse" x1="307.975" y1="206.1087" x2="292.0252" y2="198.6712" gradientTransform="matrix(1 0 0 -1 0 403.89)">
      <stop  offset="0" style="stop-color:#9452FF"/>
      <stop  offset="1" style="stop-color:#FFA744"/>
    </linearGradient>
    <path class="st26" d="M300,210.3c-4.9,0-8.8-3.9-8.8-8.8s3.9-8.8,8.8-8.8c4.9,0,8.8,3.9,8.8,8.8S304.9,210.3,300,210.3z"/>
    <path class="st14" d="M300,193.7c4.3,0,7.8,3.5,7.8,7.8s-3.5,7.8-7.8,7.8s-7.8-3.5-7.8-7.8S295.7,193.7,300,193.7 M300,191.7
      c-5.4,0-9.8,4.4-9.8,9.8s4.4,9.8,9.8,9.8s9.8-4.4,9.8-9.8S305.4,191.7,300,191.7L300,191.7z"/>
  </g>
</g>
</svg>
