<svg version="1.1" id="Layer_1" xmlns="http://www.w3.org/2000/svg" xmlns:xlink="http://www.w3.org/1999/xlink" x="0px" y="0px"
    viewBox="0 0 600 600" style="enable-background:new 0 0 600 600;" xml:space="preserve">
<style type="text/css">
.st0{opacity:0.15;fill:#9452FF;enable-background:new    ;}
.st1{opacity:0.45;fill:#251440;enable-background:new    ;}
.st2{fill:url(#SVGID_1_);}
.st3{fill:url(#SVGID_2_);}
.st4{fill:url(#SVGID_3_);}
.st5{fill:url(#SVGID_4_);}
.st6{fill:url(#SVGID_5_);}
.st7{fill:url(#SVGID_6_);}
.st8{fill:url(#SVGID_7_);}
.st9{fill:url(#SVGID_8_);}
.st10{fill:url(#SVGID_9_);}
.st11{fill:url(#SVGID_10_);}
.st12{fill:url(#SVGID_11_);}
.st13{fill:url(#SVGID_12_);}
.st14{fill:#9452FF;}
.st15{fill:url(#SVGID_13_);}
.st16{fill:url(#SVGID_14_);}
.st17{fill:url(#SVGID_15_);}
.st18{fill:url(#SVGID_16_);}
.st19{fill:url(#SVGID_17_);}
.st20{fill:url(#SVGID_18_);}
.st21{fill:#FFFFFF;}
.st22{fill:#F6A940;}
.st23{fill:#491E8C;}
.st24{fill:none;stroke:#9452FF;stroke-width:2;stroke-linecap:round;stroke-linejoin:round;stroke-dasharray:1,8;}
.st25{fill:url(#SVGID_19_);}
.st26{fill:url(#SVGID_20_);}
.st27{fill:url(#SVGID_21_);}
.st28{fill:url(#SVGID_22_);}
.st29{fill:url(#SVGID_23_);}
.st30{fill:url(#SVGID_24_);}
.st31{fill:url(#SVGID_25_);}
.st32{fill:url(#SVGID_26_);}
</style>
<g>
  <g>
    <polygon class="st0" points="135.6,600 0,522.6 135.6,445.1 271.2,522.6 		"/>
  </g>
  <g>
    <polygon class="st0" points="464.4,413.6 328.8,336.2 464.4,258.8 600,336.2 		"/>
    <g>
      <path class="st1" d="M458.6,378.6l-67.9-39.2c-1.5-0.9-2.2-2-2.2-3.2c0-1.4,1.1-2.9,3.1-4l66.1-38.2c3.7-2.1,9.3-2.4,12.5-0.5
        l67.9,39.2c3.2,1.8,2.8,5.1-0.9,7.2l-66.1,38.2C467.4,380.2,461.8,380.5,458.6,378.6z"/>
      <g>
        <linearGradient id="SVGID_1_" gradientUnits="userSpaceOnUse" x1="388.5676" y1="305.7056" x2="540.2633" y2="305.7056">
          <stop  offset="0" style="stop-color:#9452FF"/>
          <stop  offset="1" style="stop-color:#4A297F"/>
        </linearGradient>
        <path class="st2" d="M458.6,348.3l-67.9-39.2c-1.5-0.9-2.2-2-2.2-3.2c0-1.4,1.1-2.9,3.1-4l66.1-38.2c3.7-2.1,9.3-2.4,12.5-0.5
          l67.9,39.2c3.2,1.8,2.8,5.1-0.9,7.2l-66.1,38.2C467.4,349.9,461.8,350.1,458.6,348.3z"/>
        <linearGradient id="SVGID_2_" gradientUnits="userSpaceOnUse" x1="388.5688" y1="299.2929" x2="540.2633" y2="299.2929">
          <stop  offset="0" style="stop-color:#9452FF"/>
          <stop  offset="1" style="stop-color:#4A297F"/>
        </linearGradient>
        <rect x="388.6" y="292.7" class="st3" width="151.7" height="13.1"/>
        <linearGradient id="SVGID_3_" gradientUnits="userSpaceOnUse" x1="388.5676" y1="292.7495" x2="540.2633" y2="292.7495">
          <stop  offset="0" style="stop-color:#9452FF"/>
          <stop  offset="0.5" style="stop-color:#4A297F"/>
        </linearGradient>
        <path class="st4" d="M458.6,335.3l-67.9-39.2c-1.5-0.9-2.2-2-2.2-3.2c0-1.4,1.1-2.9,3.1-4l66.1-38.2c3.7-2.1,9.3-2.4,12.5-0.5
          l67.9,39.2c3.2,1.8,2.8,5.1-0.9,7.2l-66.1,38.2C467.4,336.9,461.8,337.1,458.6,335.3z"/>
      </g>
      <g>
        <linearGradient id="SVGID_4_" gradientUnits="userSpaceOnUse" x1="396.5669" y1="290.2389" x2="532.264" y2="290.2389">
          <stop  offset="0" style="stop-color:#491E8C"/>
          <stop  offset="1" style="stop-color:#251440"/>
        </linearGradient>
        <path class="st5" d="M459.2,328.3l-60.7-35.1c-2.9-1.6-2.5-4.6,0.8-6.5l59.1-34.1c3.3-1.9,8.3-2.1,11.2-0.5l60.7,35.1
          c2.9,1.6,2.5,4.6-0.8,6.5l-59.1,34.1C467.1,329.7,462.1,329.9,459.2,328.3z"/>
        <linearGradient id="SVGID_5_" gradientUnits="userSpaceOnUse" x1="396.5669" y1="273.3822" x2="532.264" y2="273.3822">
          <stop  offset="0" style="stop-color:#491E8C"/>
          <stop  offset="1" style="stop-color:#251440"/>
        </linearGradient>
        <polygon class="st6" points="396.6,290.1 396.6,256.5 532.3,256.5 532.3,290.2 				"/>
      </g>
      <g>
        <linearGradient id="SVGID_6_" gradientUnits="userSpaceOnUse" x1="388.5676" y1="258.2064" x2="540.2633" y2="258.2064">
          <stop  offset="0" style="stop-color:#9452FF"/>
          <stop  offset="1" style="stop-color:#4A297F"/>
        </linearGradient>
        <path class="st7" d="M458.6,300.8l-67.9-39.2c-1.5-0.9-2.2-2-2.2-3.2c0-1.4,1.1-2.9,3.1-4l66.1-38.2c3.7-2.1,9.3-2.4,12.5-0.5
          l67.9,39.2c3.2,1.8,2.8,5.1-0.9,7.2l-66.1,38.2C467.4,302.4,461.8,302.6,458.6,300.8z"/>
        <linearGradient id="SVGID_7_" gradientUnits="userSpaceOnUse" x1="388.5688" y1="251.7937" x2="540.2633" y2="251.7937">
          <stop  offset="0" style="stop-color:#9452FF"/>
          <stop  offset="1" style="stop-color:#4A297F"/>
        </linearGradient>
        <rect x="388.6" y="245.3" class="st8" width="151.7" height="13.1"/>
        <linearGradient id="SVGID_8_" gradientUnits="userSpaceOnUse" x1="388.5676" y1="245.2503" x2="540.2633" y2="245.2503">
          <stop  offset="0" style="stop-color:#9452FF"/>
          <stop  offset="0.5" style="stop-color:#4A297F"/>
        </linearGradient>
        <path class="st9" d="M458.6,287.8l-67.9-39.2c-1.5-0.9-2.2-2-2.2-3.2c0-1.4,1.1-2.9,3.1-4l66.1-38.2c3.7-2.1,9.3-2.4,12.5-0.5
          l67.9,39.2c3.2,1.8,2.8,5.1-0.9,7.2l-66.1,38.2C467.4,289.4,461.8,289.6,458.6,287.8z"/>
      </g>
      <g>
        <linearGradient id="SVGID_9_" gradientUnits="userSpaceOnUse" x1="396.5669" y1="240.2074" x2="532.264" y2="240.2074">
          <stop  offset="0" style="stop-color:#491E8C"/>
          <stop  offset="1" style="stop-color:#251440"/>
        </linearGradient>
        <path class="st10" d="M459.2,278.3l-60.7-35.1c-2.9-1.6-2.5-4.6,0.8-6.5l59.1-34.1c3.3-1.9,8.3-2.1,11.2-0.5l60.7,35.1
          c2.9,1.6,2.5,4.6-0.8,6.5l-59.1,34.1C467.1,279.7,462.1,279.9,459.2,278.3z"/>
        <linearGradient id="SVGID_10_" gradientUnits="userSpaceOnUse" x1="396.5669" y1="223.3507" x2="532.264" y2="223.3507">
          <stop  offset="0" style="stop-color:#491E8C"/>
          <stop  offset="1" style="stop-color:#251440"/>
        </linearGradient>
        <polygon class="st11" points="396.6,240.1 396.6,206.5 532.3,206.5 532.3,240.2 				"/>
      </g>
      <g>
        <linearGradient id="SVGID_11_" gradientUnits="userSpaceOnUse" x1="388.5688" y1="201.6315" x2="540.2633" y2="201.6315">
          <stop  offset="0" style="stop-color:#9452FF"/>
          <stop  offset="1" style="stop-color:#4A297F"/>
        </linearGradient>
        <rect x="388.6" y="195.1" class="st12" width="151.7" height="13.1"/>
        <linearGradient id="SVGID_12_" gradientUnits="userSpaceOnUse" x1="388.5676" y1="208.1749" x2="540.2633" y2="208.1749">
          <stop  offset="0" style="stop-color:#9452FF"/>
          <stop  offset="1" style="stop-color:#4A297F"/>
        </linearGradient>
        <path class="st13" d="M458.6,250.7l-67.9-39.2c-1.5-0.9-2.2-2-2.2-3.2c0-1.4,1.1-2.9,3.1-4l66.1-38.2c3.7-2.1,9.3-2.4,12.5-0.5
          l67.9,39.2c3.2,1.8,2.8,5.1-0.9,7.2l-66.1,38.2C467.4,252.3,461.8,252.6,458.6,250.7z"/>
        <path class="st14" d="M458.6,237.6l-67.9-39.2c-3.2-1.8-2.8-5.1,0.9-7.2l66.1-38.2c3.7-2.1,9.3-2.4,12.5-0.5l67.9,39.2
          c3.2,1.8,2.8,5.1-0.9,7.2l-66.1,38.2C467.4,239.2,461.8,239.5,458.6,237.6z"/>
        <linearGradient id="SVGID_13_" gradientUnits="userSpaceOnUse" x1="409.2888" y1="195.0882" x2="519.5421" y2="195.0882">
          <stop  offset="0" style="stop-color:#251440"/>
          <stop  offset="1" style="stop-color:#491E8C"/>
        </linearGradient>
        <path class="st15" d="M460.2,226l-49.3-28.5c-2.3-1.3-2-3.7,0.7-5.2l48-27.7c2.7-1.5,6.8-1.7,9.1-0.4l49.3,28.5
          c2.3,1.3,2,3.7-0.7,5.2l-48,27.7C466.6,227.2,462.5,227.4,460.2,226z"/>
      </g>
      <linearGradient id="SVGID_14_" gradientUnits="userSpaceOnUse" x1="464.4208" y1="226.9746" x2="464.4208" y2="80.5776">
        <stop  offset="0" style="stop-color:#FFFFFF;stop-opacity:0.8"/>
        <stop  offset="1" style="stop-color:#FFFFFF;stop-opacity:0"/>
      </linearGradient>
      <path class="st16" d="M409.3,195.1c0,0-0.3,1.4,1.5,2.4c1.9,1.1,46.4,26.9,49.3,28.5s6.5,1.1,9.1-0.4c2.6-1.5,46.6-26.5,48-27.7
        c1.5-1.2,2.3-2,2.2-2.8c-0.1-0.8,0-114.5,0-114.5H409.3L409.3,195.1z"/>
      <linearGradient id="SVGID_15_" gradientUnits="userSpaceOnUse" x1="458.0331" y1="138.5031" x2="458.0331" y2="103.8957">
        <stop  offset="0" style="stop-color:#491E8C;stop-opacity:0.8"/>
        <stop  offset="1" style="stop-color:#FFFFFF;stop-opacity:0"/>
      </linearGradient>
      <circle class="st17" cx="458" cy="121.2" r="17.3"/>
      <linearGradient id="SVGID_16_" gradientUnits="userSpaceOnUse" x1="450.6177" y1="200.8133" x2="450.6177" y2="166.2059">
        <stop  offset="0" style="stop-color:#491E8C;stop-opacity:0.8"/>
        <stop  offset="1" style="stop-color:#FFFFFF;stop-opacity:0"/>
      </linearGradient>
      <circle class="st18" cx="450.6" cy="183.5" r="17.3"/>
      <linearGradient id="SVGID_17_" gradientUnits="userSpaceOnUse" x1="444.9388" y1="164.2643" x2="444.9388" y2="139.7932">
        <stop  offset="0" style="stop-color:#491E8C;stop-opacity:0.8"/>
        <stop  offset="1" style="stop-color:#FFFFFF;stop-opacity:0"/>
      </linearGradient>
      <circle class="st19" cx="444.9" cy="152" r="12.2"/>
      <linearGradient id="SVGID_18_" gradientUnits="userSpaceOnUse" x1="484.4888" y1="171.2544" x2="484.4888" y2="136.647">
        <stop  offset="0" style="stop-color:#491E8C;stop-opacity:0.8"/>
        <stop  offset="1" style="stop-color:#FFFFFF;stop-opacity:0"/>
      </linearGradient>
      <circle class="st20" cx="484.5" cy="154" r="17.3"/>
      <g>
        <path class="st21" d="M343,12.1v56.5c0,6.9,5.6,12.1,12,12.1l92.8,0L465,93.2c1.2,0,2.4-1.2,2.4-2.4V68.2V21v-8.9
          c0-6.9-5.2-12.1-12-12.1l-100,0C348.6,0,343.4,5.6,343,12.1z"/>
        <g>
          <g>
            <g>
              <path class="st22" d="M392.6,27.4h-31.2c-2.8,0-4.8-2-4.8-4.8l0,0c0-2.8,2-4.8,4.8-4.8h31.2c2.8,0,4.8,2,4.8,4.8l0,0
                C397.4,25.4,395,27.4,392.6,27.4z"/>
            </g>
          </g>
          <g>
            <path class="st23" d="M399.8,45.9h-19.6c-2.8,0-4.8-2-4.8-4.8l0,0c0-2.8,2-4.8,4.8-4.8h19.6c2.8,0,4.8,2,4.8,4.8l0,0
              C405,43.9,402.6,45.9,399.8,45.9z"/>
            <path class="st23" d="M450.6,45.9h-30.8c-2.8,0-4.8-2-4.8-4.8l0,0c0-2.8,2-4.8,4.8-4.8h30.8c2.8,0,4.8,2,4.8,4.8l0,0
              C455.8,43.9,453.4,45.9,450.6,45.9z"/>
            <path class="st14" d="M361.4,45.9L361.4,45.9c-2.8,0-5.2-2-5.2-4.8l0,0c0-2.8,2-4.8,4.8-4.8h0.4c2.8,0,4.8,2,4.8,4.8l0,0
              C366.6,43.9,364.2,45.9,361.4,45.9z"/>
          </g>
          <g>
            <path class="st23" d="M399.8,64.5h-19.6c-2.8,0-4.8-2-4.8-4.8l0,0c0-2.8,2-4.8,4.8-4.8h19.6c2.8,0,4.8,2,4.8,4.8l0,0
              C405,62.4,402.6,64.5,399.8,64.5z"/>
            <path class="st23" d="M450.6,64.5h-30.8c-2.8,0-4.8-2-4.8-4.8l0,0c0-2.8,2-4.8,4.8-4.8h30.8c2.8,0,4.8,2,4.8,4.8l0,0
              C455.8,62.4,453.4,64.5,450.6,64.5z"/>
            <path class="st14" d="M361.4,64.5L361.4,64.5c-2.8,0-5.2-2-5.2-4.8l0,0c0-2.8,2-4.8,4.8-4.8h0.4c2.8,0,4.8,2,4.8,4.8l0,0
              C366.6,62.4,364.2,64.5,361.4,64.5z"/>
          </g>
        </g>
      </g>
    </g>
  </g>
</g>
<g>
  <g>
    <line class="st24" x1="203.4" y1="484" x2="396.6" y2="374.5"/>
    <g>
      <g>
        <ellipse transform="matrix(0.87 -0.493 0.493 0.87 -212.1685 163.2124)" class="st21" cx="203.4" cy="484" rx="7.5" ry="7.5"/>
        <path class="st14" d="M207.6,491.4c4.1-2.3,5.5-7.5,3.2-11.6c-2.3-4.1-7.5-5.5-11.6-3.2c-4.1,2.3-5.5,7.5-3.2,11.6
          C198.3,492.3,203.5,493.7,207.6,491.4C211.7,489.1,203.5,493.7,207.6,491.4z M200.2,478.3c3.1-1.8,7.1-0.7,8.9,2.5
          c1.8,3.1,0.7,7.1-2.5,8.9c-3.1,1.8-7.1,0.7-8.9-2.5C196,484.1,197.1,480.1,200.2,478.3C203.3,476.5,197.1,480.1,200.2,478.3z"/>
      </g>
    </g>
    <g>
      <ellipse transform="matrix(0.87 -0.493 0.493 0.87 -133.0992 244.2072)" class="st14" cx="396.6" cy="374.5" rx="7.5" ry="7.5"/>
    </g>
  </g>
</g>
<g>
  <g>
    <linearGradient id="SVGID_19_" gradientUnits="userSpaceOnUse" x1="59.7367" y1="522.4146" x2="211.4324" y2="522.4146">
      <stop  offset="0" style="stop-color:#9452FF"/>
      <stop  offset="1" style="stop-color:#4A297F"/>
    </linearGradient>
    <path class="st25" d="M129.8,565l-67.9-39.2c-1.5-0.9-2.2-2-2.2-3.2c0-1.4,1.1-2.9,3.1-4l66.1-38.2c3.7-2.1,9.3-2.4,12.5-0.5
      l67.9,39.2c3.2,1.8,2.8,5.1-0.9,7.2l-66.1,38.2C138.6,566.6,133,566.8,129.8,565z"/>
    <linearGradient id="SVGID_20_" gradientUnits="userSpaceOnUse" x1="59.738" y1="516.0019" x2="211.4324" y2="516.0019">
      <stop  offset="0" style="stop-color:#9452FF"/>
      <stop  offset="1" style="stop-color:#4A297F"/>
    </linearGradient>
    <rect x="59.7" y="509.5" class="st26" width="151.7" height="13.1"/>
    <linearGradient id="SVGID_21_" gradientUnits="userSpaceOnUse" x1="211.4324" y1="509.4585" x2="59.7367" y2="509.4585">
      <stop  offset="0.5" style="stop-color:#4A297F"/>
      <stop  offset="1" style="stop-color:#9452FF"/>
    </linearGradient>
    <path class="st27" d="M129.8,552l-67.9-39.2c-1.5-0.9-2.2-2-2.2-3.2c0-1.4,1.1-2.9,3.1-4l66.1-38.2c3.7-2.1,9.3-2.4,12.5-0.5
      l67.9,39.2c3.2,1.8,2.8,5.1-0.9,7.2l-66.1,38.2C138.6,553.6,133,553.8,129.8,552z"/>
  </g>
  <g>
    <linearGradient id="SVGID_22_" gradientUnits="userSpaceOnUse" x1="67.736" y1="506.9479" x2="203.4331" y2="506.9479">
      <stop  offset="0" style="stop-color:#491E8C"/>
      <stop  offset="1" style="stop-color:#251440"/>
    </linearGradient>
    <path class="st28" d="M130.4,545l-60.7-35.1c-2.9-1.6-2.5-4.6,0.8-6.5l59.1-34.1c3.3-1.9,8.3-2.1,11.2-0.5l60.7,35.1
      c2.9,1.6,2.5,4.6-0.8,6.5l-59.1,34.1C138.3,546.4,133.2,546.7,130.4,545z"/>
    <linearGradient id="SVGID_23_" gradientUnits="userSpaceOnUse" x1="67.736" y1="490.0912" x2="203.4331" y2="490.0912">
      <stop  offset="0" style="stop-color:#491E8C"/>
      <stop  offset="1" style="stop-color:#251440"/>
    </linearGradient>
    <polygon class="st29" points="67.7,506.8 67.7,473.2 203.4,473.2 203.4,506.9 		"/>
  </g>
  <g>
    <linearGradient id="SVGID_24_" gradientUnits="userSpaceOnUse" x1="59.738" y1="468.372" x2="211.4324" y2="468.372">
      <stop  offset="0" style="stop-color:#9452FF"/>
      <stop  offset="1" style="stop-color:#4A297F"/>
    </linearGradient>
    <rect x="59.7" y="461.8" class="st30" width="151.7" height="13.1"/>
    <linearGradient id="SVGID_25_" gradientUnits="userSpaceOnUse" x1="59.7367" y1="474.9154" x2="211.4324" y2="474.9154">
      <stop  offset="0" style="stop-color:#9452FF"/>
      <stop  offset="1" style="stop-color:#4A297F"/>
    </linearGradient>
    <path class="st31" d="M129.8,517.5l-67.9-39.2c-1.5-0.9-2.2-2-2.2-3.2c0-1.4,1.1-2.9,3.1-4l66.1-38.2c3.7-2.1,9.3-2.4,12.5-0.5
      l67.9,39.2c3.2,1.8,2.8,5.1-0.9,7.2l-66.1,38.2C138.6,519.1,133,519.3,129.8,517.5z"/>
    <path class="st14" d="M129.8,504.4l-67.9-39.2c-3.2-1.8-2.8-5.1,0.9-7.2l66.1-38.2c3.7-2.1,9.3-2.4,12.5-0.5l67.9,39.2
      c3.2,1.8,2.8,5.1-0.9,7.2l-66.1,38.2C138.6,506,133,506.2,129.8,504.4z"/>
    <linearGradient id="SVGID_26_" gradientUnits="userSpaceOnUse" x1="80.4579" y1="461.8287" x2="190.7112" y2="461.8287">
      <stop  offset="0" style="stop-color:#491E8C"/>
      <stop  offset="1" style="stop-color:#251440"/>
    </linearGradient>
    <path class="st32" d="M131.4,492.8L82,464.3c-2.3-1.3-2-3.7,0.7-5.2l48-27.7c2.7-1.5,6.8-1.7,9.1-0.4l49.3,28.5
      c2.3,1.3,2,3.7-0.7,5.2l-48,27.7C137.8,493.9,133.7,494.1,131.4,492.8z"/>
    <g>
      <path class="st21" d="M245,371.6H145c-6.8,0-12,5.2-12,12.1v8.9v47.2v22.6c0,1.2,1.2,2.4,2.4,2.4l17.2-12.5h92.8
        c6.4,0,12-5.2,12-12.1v-56.5C257,377.2,251.8,371.6,245,371.6z"/>
      <g>
        <g>
          <g>
            <path class="st22" d="M182.6,399h-31.2c-2.8,0-4.8-2-4.8-4.8l0,0c0-2.8,2-4.8,4.8-4.8h31.2c2.8,0,4.8,2,4.8,4.8l0,0
              C187.4,397,185,399,182.6,399z"/>
          </g>
        </g>
        <g>
          <path class="st23" d="M189.8,417.5h-19.6c-2.8,0-4.8-2-4.8-4.8l0,0c0-2.8,2-4.8,4.8-4.8h19.6c2.8,0,4.8,2,4.8,4.8l0,0
            C195,415.5,192.6,417.5,189.8,417.5z"/>
          <path class="st23" d="M240.6,417.5h-30.8c-2.8,0-4.8-2-4.8-4.8l0,0c0-2.8,2-4.8,4.8-4.8h30.8c2.8,0,4.8,2,4.8,4.8l0,0
            C245.8,415.5,243.4,417.5,240.6,417.5z"/>
          <path class="st14" d="M151.4,417.5L151.4,417.5c-2.8,0-5.2-2-5.2-4.8l0,0c0-2.8,2-4.8,4.8-4.8h0.4c2.8,0,4.8,2,4.8,4.8l0,0
            C156.6,415.5,154.2,417.5,151.4,417.5z"/>
        </g>
        <g>
          <path class="st23" d="M189.8,436.1h-19.6c-2.8,0-4.8-2-4.8-4.8l0,0c0-2.8,2-4.8,4.8-4.8h19.6c2.8,0,4.8,2,4.8,4.8l0,0
            C195,434,192.6,436.1,189.8,436.1z"/>
          <path class="st23" d="M240.6,436.1h-30.8c-2.8,0-4.8-2-4.8-4.8l0,0c0-2.8,2-4.8,4.8-4.8h30.8c2.8,0,4.8,2,4.8,4.8l0,0
            C245.8,434,243.4,436.1,240.6,436.1z"/>
          <path class="st14" d="M151.4,436.1L151.4,436.1c-2.8,0-5.2-2-5.2-4.8l0,0c0-2.8,2-4.8,4.8-4.8h0.4c2.8,0,4.8,2,4.8,4.8l0,0
            C156.6,434,154.2,436.1,151.4,436.1z"/>
        </g>
      </g>
    </g>
  </g>
</g>
</svg>
