<svg version="1.1" id="Layer_1" xmlns="http://www.w3.org/2000/svg" xmlns:xlink="http://www.w3.org/1999/xlink" x="0px" y="0px"
    viewBox="0 0 600 600" style="enable-background:new 0 0 600 600;" xml:space="preserve">
<style type="text/css">
.st0{opacity:0.15;fill:#9452FF;enable-background:new    ;}
.st1{fill:url(#SVGID_1_);}
.st2{fill:url(#SVGID_2_);}
.st3{fill:url(#SVGID_3_);}
.st4{fill:url(#SVGID_4_);}
.st5{fill:url(#SVGID_5_);}
.st6{fill:#9452FF;}
.st7{fill:url(#SVGID_6_);}
.st8{fill:#221101;}
.st9{fill:#CD9476;}
.st10{fill:url(#Shirt_1_);}
.st11{fill:#FFFFFF;}
.st12{opacity:0.4;fill:#FFFFFF;}
.st13{fill:url(#SVGID_7_);}
.st14{fill:url(#SVGID_8_);}
.st15{fill:url(#SVGID_9_);}
.st16{fill:url(#SVGID_10_);}
.st17{fill:url(#SVGID_11_);}
.st18{fill:url(#SVGID_12_);}
.st19{fill:url(#SVGID_13_);}
.st20{fill:url(#SVGID_14_);}
.st21{fill:url(#SVGID_15_);}
.st22{fill:url(#SVGID_16_);}
.st23{fill:url(#SVGID_17_);}
.st24{fill:url(#SVGID_18_);}
.st25{opacity:0.45;fill:#251440;enable-background:new    ;}
.st26{fill:url(#Shirt_4_);}
.st27{opacity:0.45;fill:#251440;}
.st28{fill:url(#SVGID_19_);}
.st29{fill:url(#SVGID_20_);}
.st30{fill:url(#SVGID_21_);}
.st31{fill:url(#SVGID_22_);}
.st32{fill:url(#SVGID_23_);}
.st33{fill:url(#SVGID_24_);}
.st34{fill:url(#SVGID_25_);}
.st35{fill:#EACAB3;}
.st36{fill:#4D2F15;}
.st37{fill:url(#Shirt_5_);}
</style>
<g>
  <g>
    <g>
      <g>
        <polygon class="st0" points="150,395.8 0,309.2 150,222.6 300,309.2 				"/>
        <g>
          <linearGradient id="SVGID_1_" gradientUnits="userSpaceOnUse" x1="58.4161" y1="309.226" x2="241.5839" y2="309.226">
            <stop  offset="0" style="stop-color:#491E8C"/>
            <stop  offset="1" style="stop-color:#251440"/>
          </linearGradient>
          <path class="st1" d="M214.8,346.6c-35.8,20.6-93.8,20.6-129.5,0c-35.8-20.6-35.8-54.1,0-74.8s93.8-20.6,129.5,0
            S250.5,326,214.8,346.6z"/>
          <linearGradient id="SVGID_2_" gradientUnits="userSpaceOnUse" x1="58.4161" y1="297.6971" x2="241.5839" y2="297.6971">
            <stop  offset="0" style="stop-color:#9452FF"/>
            <stop  offset="0.5" style="stop-color:#4A297F"/>
          </linearGradient>
          <path class="st2" d="M214.8,335.1c-35.8,20.6-93.8,20.6-129.5,0c-35.8-20.6-35.8-54.1,0-74.8s93.8-20.6,129.5,0
            C250.5,281,250.5,314.4,214.8,335.1z"/>
          <linearGradient id="SVGID_3_" gradientUnits="userSpaceOnUse" x1="58.4161" y1="293.8542" x2="241.5839" y2="293.8542">
            <stop  offset="0" style="stop-color:#9452FF"/>
            <stop  offset="0.5" style="stop-color:#4A297F"/>
          </linearGradient>
          <path class="st3" d="M214.8,331.2c-35.8,20.6-93.8,20.6-129.5,0c-35.8-20.6-35.8-54.1,0-74.8s93.8-20.6,129.5,0
            S250.5,310.6,214.8,331.2z"/>
          <linearGradient id="SVGID_4_" gradientUnits="userSpaceOnUse" x1="79.9777" y1="292.5732" x2="220.0223" y2="292.5732">
            <stop  offset="0" style="stop-color:#491E8C"/>
            <stop  offset="1" style="stop-color:#251440"/>
          </linearGradient>
          <path class="st4" d="M199.5,321.2c-27.3,15.8-71.7,15.8-99,0c-27.3-15.8-27.3-41.4,0-57.2s71.7-15.8,99,0
            C226.9,279.8,226.9,305.4,199.5,321.2z"/>
          <linearGradient id="SVGID_5_" gradientUnits="userSpaceOnUse" x1="79.9777" y1="279.7633" x2="220.0223" y2="279.7633">
            <stop  offset="0" style="stop-color:#9452FF"/>
            <stop  offset="0.5" style="stop-color:#4A297F"/>
          </linearGradient>
          <path class="st5" d="M199.5,308.3c-27.3,15.8-71.7,15.8-99,0c-27.3-15.8-27.3-41.4,0-57.2s71.7-15.8,99,0
            S226.9,292.6,199.5,308.3z"/>
          <path class="st6" d="M199.5,304.5c-27.3,15.8-71.7,15.8-99,0c-27.3-15.8-27.3-41.4,0-57.2s71.7-15.8,99,0
            S226.9,288.7,199.5,304.5z"/>
          <linearGradient id="SVGID_6_" gradientUnits="userSpaceOnUse" x1="115.2952" y1="275.9204" x2="184.7048" y2="275.9204">
            <stop  offset="0" style="stop-color:#491E8C"/>
            <stop  offset="1" style="stop-color:#251440"/>
          </linearGradient>
          <path class="st7" d="M174.5,290.1c-13.6,7.8-35.5,7.8-49.1,0c-13.6-7.8-13.6-20.5,0-28.3s35.5-7.8,49.1,0
            C188.1,269.6,188.1,282.3,174.5,290.1z"/>
        </g>
      </g>
      <g>
        <g>
          <g id="Women-1">
            <path id="Hair-back" class="st8" d="M96.8,120.3c0,0,6.5,59.8-0.4,66.7H201c0,0-3.8-50.5,1.4-70.8L96.8,120.3z"/>
            <path id="Body_2_" class="st9" d="M235.5,209.4c-13.8-20.3-34.5-32.6-60.1-37.5L175,164c13.8-13.4,25.2-35.1,25.2-56
              c0-34.3-16.6-61.9-51.1-61.9s-51,27.8-51,61.9c0,21.7,11.8,43.7,25.9,57.1l-0.4,6.5c-26.9,4.4-49.4,16.1-60.4,38.5
              c-2.7,5.9,60.4,38.1,86.2,38.1C183.7,248.3,239.6,215.9,235.5,209.4z"/>
            <path id="Hair_2_" class="st8" d="M212.7,182.9c-2.7-12.7-1.7-84.5-1.7-84.5c0-15.9-10.7-60.9-61.4-54.6
              c-50.4-6.2-61.4,37.5-61.4,54.6c0,1.7,0.4,79.7-1.4,84.5c-4.5,12,20.7-3.1,20.7-7.2c0-10.3,0-73.9,1.4-74.9
              c1-0.7,5.2-1.4,10.7-2.1l2.4-15.1l2.7,14.4c8.2-1,18.3-1.7,24.8-1.7c5.2,0,14.9,1,23.5,2.4l1-7.2l1.4,7.5
              c1.7,0.4,3.1,0.4,4.5,0.7l1-5.5l1,6.2c4.2,0.7,6.9,1.7,7.2,2.1c2.4,2.7,2.4,77.7,3.4,80.4
              C193.7,186.7,215.2,193.9,212.7,182.9z"/>
            <linearGradient id="Shirt_1_" gradientUnits="userSpaceOnUse" x1="60" y1="229.5054" x2="240" y2="229.5054">
              <stop  offset="0" style="stop-color:#491E8C"/>
              <stop  offset="1" style="stop-color:#251440"/>
            </linearGradient>
            <path id="Shirt_2_" class="st10" d="M119,172c0,0,22.5,33,30.3,33c8.6,0,30.7-33.3,30.7-33.3s35.5,3,60,38
              c0,0-42.4,77.7-89,77.7s-91-76.8-91-76.8S81,174.7,119,172z"/>
            <g id="Brandmark_3_">
              <circle id="Core-1_4_" class="st11" cx="150" cy="229.6" r="4.5"/>
              <circle id="Core-2_4_" class="st11" cx="136.9" cy="239.2" r="4.5"/>
              <circle id="Core-3_4_" class="st11" cx="163.1" cy="239.2" r="4.5"/>
              <circle id="Core-4_4_" class="st11" cx="141.9" cy="254.6" r="4.5"/>
              <circle id="Core-5_4_" class="st11" cx="158.1" cy="254.6" r="4.5"/>
              <path id="Center_3_" class="st12" d="M152.4,254.6c0-1.5,0.6-2.9,1.7-4c1.1-1.1,2.5-1.7,4-1.7c1.4,0,2.8,0.5,3.8,1.5
                c1-1.7,1.6-3.5,1.8-5.5c-0.2,0-0.4,0-0.6,0c-1.5,0-2.9-0.6-4-1.7c-1.1-1.1-1.7-2.5-1.7-4c0-1.5,0.6-2.9,1.7-4
                c0.4-0.4,0.8-0.7,1.2-0.9c-1.3-1.5-2.9-2.6-4.7-3.4c-0.2,1.1-0.8,2.1-1.5,2.8c-1.1,1.1-2.5,1.7-4,1.7c-1.5,0-2.9-0.6-4-1.7
                c-0.8-0.8-1.3-1.8-1.5-2.8c-1.8,0.8-3.4,2-4.7,3.4c0.4,0.2,0.8,0.5,1.2,0.9c1.1,1.1,1.7,2.5,1.7,4c0,1.5-0.6,2.9-1.7,4
                c-1.1,1.1-2.5,1.7-4,1.7c-0.2,0-0.4,0-0.6,0c0.2,2,0.8,3.9,1.8,5.5c1-0.9,2.4-1.5,3.8-1.5c1.5,0,2.9,0.6,4,1.7
                c1.1,1.1,1.7,2.5,1.7,4c0,0.8-0.2,1.6-0.5,2.3c0.9,0.2,1.9,0.3,2.9,0.3c1,0,2-0.1,2.9-0.3
                C152.6,256.2,152.4,255.4,152.4,254.6z"/>
              <path id="Circles_3_" class="st12" d="M178.7,232.6c-0.9-2-2.1-3.8-3.6-5.4c-1.6-1.6-3.4-2.8-5.4-3.6c-1.4-0.6-2.8-1-4.3-1.2
                c-0.8-1.8-1.9-3.3-3.3-4.7c-1.6-1.6-3.4-2.8-5.4-3.6c-2.1-0.9-4.3-1.3-6.6-1.3c-2.3,0-4.5,0.4-6.6,1.3
                c-2,0.9-3.8,2.1-5.4,3.6c-1.4,1.4-2.5,2.9-3.3,4.7c-1.6,0.2-3.1,0.6-4.5,1.2c-2,0.9-3.8,2.1-5.4,3.6
                c-1.6,1.6-2.8,3.4-3.6,5.4c-0.9,2.1-1.3,4.3-1.3,6.6c0,2.3,0.4,4.5,1.3,6.6c0.9,2,2.1,3.8,3.6,5.4c0.1,0.1,0.2,0.2,0.3,0.3
                c-0.2,1-0.3,2.1-0.3,3.1c0,2.3,0.4,4.5,1.3,6.6c0.9,2,2.1,3.8,3.6,5.4c1.6,1.6,3.4,2.8,5.4,3.6c2.1,0.9,4.3,1.3,6.6,1.3
                s4.5-0.4,6.6-1.3c0.5-0.2,1-0.5,1.5-0.7c0.5,0.3,1,0.5,1.5,0.7c2.1,0.9,4.3,1.3,6.6,1.3c2.3,0,4.5-0.4,6.6-1.3
                c2-0.9,3.8-2.1,5.4-3.6c1.6-1.6,2.8-3.4,3.6-5.4c0.9-2.1,1.3-4.3,1.3-6.6c0-1.1-0.1-2.1-0.3-3.1c0.1-0.1,0.2-0.2,0.3-0.3
                c1.6-1.6,2.8-3.4,3.6-5.4c0.9-2.1,1.3-4.3,1.3-6.6C180,236.9,179.6,234.7,178.7,232.6z M177.4,245.2
                c-0.7,1.7-1.8,3.3-3.1,4.7c-0.2-0.6-0.4-1.3-0.7-1.9c-0.9-2-2.1-3.8-3.6-5.4c-0.5-0.5-1.1-1-1.6-1.4
                c-0.2,0.4-0.4,0.9-0.7,1.2c0.5,0.4,0.9,0.8,1.3,1.2c1.4,1.4,2.5,3.1,3.3,4.9c0.3,0.8,0.6,1.6,0.8,2.4c-1.2,1-2.6,1.9-4,2.5
                c-1.7,0.7-3.5,1.1-5.4,1.2c0,0.5-0.1,0.9-0.2,1.4c2.1-0.1,4.2-0.5,6.1-1.3c1.4-0.6,2.6-1.3,3.8-2.2c0.1,0.7,0.1,1.4,0.1,2.1
                c0,2.1-0.4,4.1-1.2,6c-0.8,1.8-1.9,3.5-3.3,4.9c-1.4,1.4-3.1,2.5-4.9,3.3c-1.9,0.8-3.9,1.2-6,1.2s-4.1-0.4-6-1.2
                c-0.2-0.1-0.5-0.2-0.7-0.3c0.9-0.6,1.7-1.3,2.5-2c1.6-1.6,2.8-3.4,3.6-5.4c0.1-0.3,0.2-0.6,0.4-0.9c-0.5,0-0.9-0.1-1.4-0.2
                c-0.1,0.2-0.2,0.4-0.2,0.6c-0.8,1.8-1.9,3.5-3.3,4.9c-0.9,0.9-1.8,1.6-2.9,2.3c-1-0.6-2-1.4-2.9-2.3
                c-1.4-1.4-2.5-3.1-3.3-4.9c-0.1-0.2-0.2-0.4-0.2-0.6c-0.4,0.1-0.9,0.2-1.4,0.2c0.1,0.3,0.2,0.6,0.4,0.9
                c0.9,2,2.1,3.8,3.6,5.4c0.8,0.8,1.6,1.4,2.5,2c-0.2,0.1-0.4,0.2-0.7,0.3c-1.9,0.8-3.9,1.2-6,1.2c-2.1,0-4.1-0.4-6-1.2
                c-1.8-0.8-3.5-1.9-4.9-3.3c-1.4-1.4-2.5-3.1-3.3-4.9c-0.8-1.9-1.2-3.9-1.2-6c0-0.7,0-1.4,0.1-2.1c1.2,0.9,2.4,1.6,3.8,2.2
                c1.9,0.8,4,1.3,6.1,1.3c-0.1-0.5-0.2-0.9-0.2-1.4c-1.9-0.1-3.7-0.5-5.4-1.2c-1.5-0.6-2.8-1.5-4-2.5c0.2-0.8,0.5-1.6,0.8-2.4
                c0.8-1.8,1.9-3.5,3.3-4.9c0.4-0.4,0.9-0.8,1.3-1.2c-0.3-0.4-0.5-0.8-0.7-1.2c-0.6,0.4-1.1,0.9-1.6,1.4
                c-1.6,1.6-2.8,3.4-3.6,5.4c-0.3,0.6-0.5,1.2-0.7,1.9c-1.3-1.4-2.3-2.9-3.1-4.7c-0.8-1.9-1.2-3.9-1.2-6c0-2.1,0.4-4.1,1.2-6
                c0.8-1.8,1.9-3.5,3.3-4.9c1.4-1.4,3.1-2.5,4.9-3.3c1.1-0.5,2.2-0.8,3.4-1c-0.7,1.8-1,3.8-1,5.8c0,1.6,0.2,3.2,0.7,4.7
                c0.4-0.3,0.8-0.4,1.3-0.6c-0.4-1.3-0.5-2.7-0.5-4.1c0-2.1,0.4-4.1,1.2-5.9c0.4,0,0.7,0,1.1,0c2.1,0,4.1,0.4,6,1.2
                c0.9,0.4,1.7,0.8,2.5,1.4c0.2-0.2,0.3-0.4,0.5-0.6c0.1-0.1,0.3-0.3,0.5-0.4c-0.9-0.6-1.9-1.2-3-1.6c-2.1-0.9-4.3-1.3-6.6-1.3
                c-0.1,0-0.3,0-0.4,0c0.7-1.3,1.6-2.5,2.7-3.6c1.4-1.4,3.1-2.5,4.9-3.3c1.9-0.8,3.9-1.2,6-1.2c2.1,0,4.1,0.4,6,1.2
                c1.8,0.8,3.5,1.9,4.9,3.3c1.1,1.1,2,2.3,2.7,3.6c-0.2,0-0.4,0-0.7,0c-2.3,0-4.5,0.4-6.6,1.3c-1,0.4-2,1-3,1.6
                c0.2,0.1,0.3,0.3,0.5,0.4c0.2,0.2,0.4,0.4,0.5,0.6c0.8-0.5,1.6-1,2.5-1.4c1.9-0.8,3.9-1.2,6-1.2c0.4,0,0.9,0,1.3,0.1
                c0.8,1.9,1.2,3.9,1.2,5.9c0,1.4-0.2,2.8-0.6,4.2c0.4,0.2,0.9,0.4,1.3,0.6c0.5-1.6,0.7-3.2,0.7-4.8c0-2-0.3-3.9-1-5.7
                c1.1,0.2,2.1,0.5,3.1,0.9c1.8,0.8,3.5,1.9,4.9,3.3c1.4,1.4,2.5,3.1,3.3,4.9c0.8,1.9,1.2,3.9,1.2,6
                C178.6,241.3,178.2,243.3,177.4,245.2z"/>
            </g>
          </g>
        </g>
      </g>
    </g>
    <g>
      <g>
        <polygon class="st0" points="450,395.8 300,309.2 450,222.6 600,309.2 				"/>
        <g>
          <linearGradient id="SVGID_7_" gradientUnits="userSpaceOnUse" x1="358.4161" y1="309.2288" x2="541.5839" y2="309.2288">
            <stop  offset="0" style="stop-color:#491E8C"/>
            <stop  offset="1" style="stop-color:#251440"/>
          </linearGradient>
          <path class="st13" d="M514.8,346.6c-35.8,20.6-93.8,20.6-129.5,0c-35.8-20.6-35.8-54.1,0-74.8s93.8-20.6,129.5,0
            C550.5,292.5,550.5,326,514.8,346.6z"/>
          <linearGradient id="SVGID_8_" gradientUnits="userSpaceOnUse" x1="358.4161" y1="297.7" x2="541.5839" y2="297.7">
            <stop  offset="0" style="stop-color:#9452FF"/>
            <stop  offset="0.5" style="stop-color:#4A297F"/>
          </linearGradient>
          <path class="st14" d="M514.8,335.1c-35.8,20.6-93.8,20.6-129.5,0c-35.8-20.6-35.8-54.1,0-74.8s93.8-20.6,129.5,0
            S550.5,314.4,514.8,335.1z"/>
          <linearGradient id="SVGID_9_" gradientUnits="userSpaceOnUse" x1="358.4161" y1="293.857" x2="541.5839" y2="293.857">
            <stop  offset="0" style="stop-color:#9452FF"/>
            <stop  offset="0.5" style="stop-color:#4A297F"/>
          </linearGradient>
          <path class="st15" d="M514.8,331.2c-35.8,20.6-93.8,20.6-129.5,0c-35.8-20.6-35.8-54.1,0-74.8s93.8-20.6,129.5,0
            C550.5,277.1,550.5,310.6,514.8,331.2z"/>
          <linearGradient id="SVGID_10_" gradientUnits="userSpaceOnUse" x1="379.9778" y1="292.576" x2="520.0223" y2="292.576">
            <stop  offset="0" style="stop-color:#491E8C"/>
            <stop  offset="1" style="stop-color:#251440"/>
          </linearGradient>
          <path class="st16" d="M499.5,321.2c-27.3,15.8-71.7,15.8-99,0c-27.3-15.8-27.3-41.4,0-57.2s71.7-15.8,99,0
            C526.9,279.8,526.9,305.4,499.5,321.2z"/>
          <linearGradient id="SVGID_11_" gradientUnits="userSpaceOnUse" x1="379.9778" y1="279.7662" x2="520.0223" y2="279.7662">
            <stop  offset="0" style="stop-color:#9452FF"/>
            <stop  offset="0.5" style="stop-color:#4A297F"/>
          </linearGradient>
          <path class="st17" d="M499.5,308.4c-27.3,15.8-71.7,15.8-99,0c-27.3-15.8-27.3-41.4,0-57.2s71.7-15.8,99,0
            C526.9,267,526.9,292.6,499.5,308.4z"/>
          <path class="st6" d="M499.5,304.5c-27.3,15.8-71.7,15.8-99,0c-27.3-15.8-27.3-41.4,0-57.2s71.7-15.8,99,0
            C526.9,263.1,526.9,288.7,499.5,304.5z"/>
          <linearGradient id="SVGID_12_" gradientUnits="userSpaceOnUse" x1="415.2952" y1="275.9232" x2="484.7048" y2="275.9232">
            <stop  offset="0" style="stop-color:#491E8C"/>
            <stop  offset="1" style="stop-color:#251440"/>
          </linearGradient>
          <path class="st18" d="M474.5,290.1c-13.6,7.8-35.5,7.8-49.1,0c-13.6-7.8-13.6-20.5,0-28.3c13.6-7.8,35.5-7.8,49.1,0
            C488.1,269.6,488.1,282.3,474.5,290.1z"/>
        </g>
      </g>
      <g>
        <polygon class="st0" points="450,395.8 300,309.2 450,222.6 600,309.2 				"/>
        <g>
          <linearGradient id="SVGID_13_" gradientUnits="userSpaceOnUse" x1="358.4161" y1="309.226" x2="541.5839" y2="309.226">
            <stop  offset="0" style="stop-color:#491E8C"/>
            <stop  offset="1" style="stop-color:#251440"/>
          </linearGradient>
          <path class="st19" d="M514.8,346.6c-35.8,20.6-93.8,20.6-129.5,0c-35.8-20.6-35.8-54.1,0-74.8s93.8-20.6,129.5,0
            S550.5,326,514.8,346.6z"/>
          <linearGradient id="SVGID_14_" gradientUnits="userSpaceOnUse" x1="358.4161" y1="297.6971" x2="541.5839" y2="297.6971">
            <stop  offset="0" style="stop-color:#9452FF"/>
            <stop  offset="0.5" style="stop-color:#4A297F"/>
          </linearGradient>
          <path class="st20" d="M514.8,335.1c-35.8,20.6-93.8,20.6-129.5,0c-35.8-20.6-35.8-54.1,0-74.8s93.8-20.6,129.5,0
            C550.5,281,550.5,314.4,514.8,335.1z"/>
          <linearGradient id="SVGID_15_" gradientUnits="userSpaceOnUse" x1="358.4161" y1="293.8542" x2="541.5839" y2="293.8542">
            <stop  offset="0" style="stop-color:#9452FF"/>
            <stop  offset="0.5" style="stop-color:#4A297F"/>
          </linearGradient>
          <path class="st21" d="M514.8,331.2c-35.8,20.6-93.8,20.6-129.5,0c-35.8-20.6-35.8-54.1,0-74.8s93.8-20.6,129.5,0
            S550.5,310.6,514.8,331.2z"/>
          <linearGradient id="SVGID_16_" gradientUnits="userSpaceOnUse" x1="379.9778" y1="292.5732" x2="520.0223" y2="292.5732">
            <stop  offset="0" style="stop-color:#491E8C"/>
            <stop  offset="1" style="stop-color:#251440"/>
          </linearGradient>
          <path class="st22" d="M499.5,321.2c-27.3,15.8-71.7,15.8-99,0c-27.3-15.8-27.3-41.4,0-57.2s71.7-15.8,99,0
            C526.9,279.8,526.9,305.4,499.5,321.2z"/>
          <linearGradient id="SVGID_17_" gradientUnits="userSpaceOnUse" x1="379.9778" y1="279.7633" x2="520.0223" y2="279.7633">
            <stop  offset="0" style="stop-color:#9452FF"/>
            <stop  offset="0.5" style="stop-color:#4A297F"/>
          </linearGradient>
          <path class="st23" d="M499.5,308.3c-27.3,15.8-71.7,15.8-99,0c-27.3-15.8-27.3-41.4,0-57.2s71.7-15.8,99,0
            C526.9,267,526.9,292.6,499.5,308.3z"/>
          <path class="st6" d="M499.5,304.5c-27.3,15.8-71.7,15.8-99,0c-27.3-15.8-27.3-41.4,0-57.2s71.7-15.8,99,0
            C526.9,263.1,526.9,288.7,499.5,304.5z"/>
          <linearGradient id="SVGID_18_" gradientUnits="userSpaceOnUse" x1="415.2952" y1="275.9204" x2="484.7048" y2="275.9204">
            <stop  offset="0" style="stop-color:#491E8C"/>
            <stop  offset="1" style="stop-color:#251440"/>
          </linearGradient>
          <path class="st24" d="M474.5,290.1c-13.6,7.8-35.5,7.8-49.1,0c-13.6-7.8-13.6-20.5,0-28.3s35.5-7.8,49.1,0
            C488.1,269.6,488.1,282.3,474.5,290.1z"/>
        </g>
      </g>
      <g>
        <g id="Man">
          <path id="Body" class="st9" d="M534.3,212.7c-13.1-19.3-32.5-31.7-56.3-36.8l-0.4-11.1c9.7-9.6,18.3-22.7,22.8-36.4
            c3.1,0.4,6.6-4.8,8.3-11.7c1.7-7.6,0.4-14.4-3.1-15.8c-1.1-0.4-2,0-3.1,0.4c-3.5-29.6-23.2-52.3-53.9-52.3s-50.4,22.4-53.9,52
            c-1.1-0.4-1.7-0.7-2.8-0.4c-3.5,1.1-5.1,8.2-3.5,15.8c1.4,6.9,4.8,11.7,8.3,11.7c4.2,14.2,12.8,27.5,22.8,37.1l-0.4,10
            c-25.2,4.8-45.9,16.5-56.7,37.9c-2.8,5.8,60.5,38.2,86.4,38.2C482.9,251.6,538.9,219.2,534.3,212.7z"/>
          <path id="Hair" class="st8" d="M394.1,101.2c0,0-0.7-56.8,48.4-56.8c8.3-3.1,31.4-4.5,49.7,14.8c16.3,17.3,10,42,10,42
            s-33.5-3.8-57-34.4C445.6,66.8,411.7,70.5,394.1,101.2z"/>
          <path class="st25" d="M479.2,174.8c0,0-0.2,0.4-0.6,1.2c-0.2,0-0.3-0.1-0.5-0.1l-0.4-11.1c9.7-9.6,18.3-22.7,22.8-36.4
            c3.1,0.4,6.6-4.8,8.3-11.7c1.7-7.6,0.4-14.4-3.1-15.8c-1.1-0.4-2,0-3.1,0.4c0-0.3-0.1-0.7-0.1-1c1-4.7,4.1-25.8-10.3-41
            C474,40,450.8,41.3,442.6,44.4c-46.1,0-48.3,50.3-48.4,56.2c-0.7-0.2-1.3-0.4-2-0.1c-3.5,1.1-5.1,8.2-3.5,15.8
            c1.4,6.9,4.8,11.7,8.3,11.7c4.2,14.2,12.8,27.5,22.8,37.1l-0.4,10c-0.4,0.1-0.7,0.1-1.1,0.2c-0.2-0.4-0.3-0.6-0.3-0.6
            c-37.7,3.1-58.8,37.6-58.8,37.6s44.3,75.6,90.9,75.6s89-74.5,89-74.5C514.6,178.4,479.2,174.8,479.2,174.8z M394.4,100.6
            c0.2-0.3,0.4-0.6,0.6-0.9c0,0.4-0.1,0.7-0.1,1.1C394.7,100.7,394.6,100.7,394.4,100.6z"/>
          <linearGradient id="Shirt_4_" gradientUnits="userSpaceOnUse" x1="359.2871" y1="231.4449" x2="539.1902" y2="231.4449">
            <stop  offset="0" style="stop-color:#491E8C"/>
            <stop  offset="1" style="stop-color:#251440"/>
          </linearGradient>
          <path id="Shirt" class="st26" d="M418,174.8c0,0,13.9,27.9,30.4,27.9c17,0,30.7-27.9,30.7-27.9s35.5,3.6,60,38.7
            c0,0-42.4,74.5-89,74.5s-90.9-75.6-90.9-75.6S380.3,177.9,418,174.8z"/>
          <g id="Brandmark_1_">
            <circle id="Core-1_1_" class="st11" cx="449.2" cy="232.4" r="4.5"/>
            <circle id="Core-2_1_" class="st11" cx="436.1" cy="241.9" r="4.5"/>
            <circle id="Core-3_1_" class="st11" cx="462.3" cy="241.9" r="4.5"/>
            <circle id="Core-4_1_" class="st11" cx="441.1" cy="257.3" r="4.5"/>
            <circle id="Core-5_1_" class="st11" cx="457.3" cy="257.3" r="4.5"/>
            <path id="Center_1_" class="st12" d="M451.7,257.3c0-1.5,0.6-2.9,1.7-4c1.1-1.1,2.5-1.7,4-1.7c1.4,0,2.8,0.5,3.8,1.5
              c1-1.7,1.6-3.5,1.8-5.5c-0.2,0-0.4,0-0.6,0c-1.5,0-2.9-0.6-4-1.7c-1.1-1.1-1.7-2.5-1.7-4c0-1.5,0.6-2.9,1.7-4
              c0.4-0.4,0.8-0.7,1.2-0.9c-1.3-1.5-2.9-2.6-4.7-3.4c-0.2,1.1-0.8,2.1-1.5,2.8c-1.1,1.1-2.5,1.7-4,1.7s-2.9-0.6-4-1.7
              c-0.8-0.8-1.3-1.8-1.5-2.8c-1.8,0.8-3.4,2-4.7,3.4c0.4,0.2,0.8,0.5,1.2,0.9c1.1,1.1,1.7,2.5,1.7,4c0,1.5-0.6,2.9-1.7,4
              c-1.1,1.1-2.5,1.7-4,1.7c-0.2,0-0.4,0-0.6,0c0.2,2,0.8,3.9,1.8,5.5c1-0.9,2.4-1.5,3.8-1.5c1.5,0,2.9,0.6,4,1.7
              c1.1,1.1,1.7,2.5,1.7,4c0,0.8-0.2,1.6-0.5,2.3c0.9,0.2,1.9,0.3,2.9,0.3s2-0.1,2.9-0.3C451.8,258.9,451.7,258.1,451.7,257.3z"
              />
            <path id="Circles_1_" class="st12" d="M477.9,235.3c-0.9-2-2.1-3.8-3.6-5.4c-1.6-1.6-3.4-2.8-5.4-3.6c-1.4-0.6-2.8-1-4.3-1.2
              c-0.8-1.8-1.9-3.3-3.3-4.7c-1.6-1.6-3.4-2.8-5.4-3.6c-2.1-0.9-4.3-1.3-6.6-1.3c-2.3,0-4.5,0.4-6.6,1.3c-2,0.9-3.8,2.1-5.4,3.6
              c-1.4,1.4-2.5,2.9-3.3,4.7c-1.6,0.2-3.1,0.6-4.5,1.2c-2,0.9-3.8,2.1-5.4,3.6c-1.6,1.6-2.8,3.4-3.6,5.4
              c-0.9,2.1-1.3,4.3-1.3,6.6c0,2.3,0.4,4.5,1.3,6.6c0.9,2,2.1,3.8,3.6,5.4c0.1,0.1,0.2,0.2,0.3,0.3c-0.2,1-0.3,2.1-0.3,3.1
              c0,2.3,0.4,4.5,1.3,6.6c0.9,2,2.1,3.8,3.6,5.4c1.6,1.6,3.4,2.8,5.4,3.6c2.1,0.9,4.3,1.3,6.6,1.3s4.5-0.4,6.6-1.3
              c0.5-0.2,1-0.5,1.5-0.7c0.5,0.3,1,0.5,1.5,0.7c2.1,0.9,4.3,1.3,6.6,1.3s4.5-0.4,6.6-1.3c2-0.9,3.8-2.1,5.4-3.6
              s2.8-3.4,3.6-5.4c0.9-2.1,1.3-4.3,1.3-6.6c0-1.1-0.1-2.1-0.3-3.1c0.1-0.1,0.2-0.2,0.3-0.3c1.6-1.6,2.8-3.4,3.6-5.4
              c0.9-2.1,1.3-4.3,1.3-6.6C479.2,239.6,478.8,237.4,477.9,235.3z M476.6,247.9c-0.7,1.7-1.8,3.3-3.1,4.7
              c-0.2-0.6-0.4-1.3-0.7-1.9c-0.9-2-2.1-3.8-3.6-5.4c-0.5-0.5-1.1-1-1.6-1.4c-0.2,0.4-0.4,0.9-0.7,1.2c0.5,0.4,0.9,0.8,1.3,1.2
              c1.4,1.4,2.5,3.1,3.3,4.9c0.3,0.8,0.6,1.6,0.8,2.4c-1.2,1-2.6,1.9-4,2.5c-1.7,0.7-3.5,1.1-5.4,1.2c0,0.5-0.1,0.9-0.2,1.4
              c2.1-0.1,4.2-0.5,6.1-1.3c1.4-0.6,2.6-1.3,3.8-2.2c0.1,0.7,0.1,1.4,0.1,2.1c0,2.1-0.4,4.1-1.2,6c-0.8,1.8-1.9,3.5-3.3,4.9
              c-1.4,1.4-3.1,2.5-4.9,3.3c-1.9,0.8-3.9,1.2-6,1.2c-2.1,0-4.1-0.4-6-1.2c-0.2-0.1-0.5-0.2-0.7-0.3c0.9-0.6,1.7-1.3,2.5-2
              c1.6-1.6,2.8-3.4,3.6-5.4c0.1-0.3,0.2-0.6,0.4-0.9c-0.5,0-0.9-0.1-1.4-0.2c-0.1,0.2-0.2,0.4-0.2,0.6c-0.8,1.8-1.9,3.5-3.3,4.9
              c-0.9,0.9-1.8,1.6-2.9,2.3c-1-0.6-2-1.4-2.9-2.3c-1.4-1.4-2.5-3.1-3.3-4.9c-0.1-0.2-0.2-0.4-0.2-0.6c-0.4,0.1-0.9,0.2-1.4,0.2
              c0.1,0.3,0.2,0.6,0.4,0.9c0.9,2,2.1,3.8,3.6,5.4c0.8,0.8,1.6,1.4,2.5,2c-0.2,0.1-0.4,0.2-0.7,0.3c-1.9,0.8-3.9,1.2-6,1.2
              s-4.1-0.4-6-1.2c-1.8-0.8-3.5-1.9-4.9-3.3c-1.4-1.4-2.5-3.1-3.3-4.9c-0.8-1.9-1.2-3.9-1.2-6c0-0.7,0-1.4,0.1-2.1
              c1.2,0.9,2.4,1.6,3.8,2.2c1.9,0.8,4,1.3,6.1,1.3c-0.1-0.5-0.2-0.9-0.2-1.4c-1.9-0.1-3.7-0.5-5.4-1.2c-1.5-0.6-2.8-1.5-4-2.5
              c0.2-0.8,0.5-1.6,0.8-2.4c0.8-1.8,1.9-3.5,3.3-4.9c0.4-0.4,0.9-0.8,1.3-1.2c-0.3-0.4-0.5-0.8-0.7-1.2
              c-0.6,0.4-1.1,0.9-1.6,1.4c-1.6,1.6-2.8,3.4-3.6,5.4c-0.3,0.6-0.5,1.2-0.7,1.9c-1.3-1.4-2.3-2.9-3.1-4.7
              c-0.8-1.9-1.2-3.9-1.2-6c0-2.1,0.4-4.1,1.2-6c0.8-1.8,1.9-3.5,3.3-4.9c1.4-1.4,3.1-2.5,4.9-3.3c1.1-0.5,2.2-0.8,3.4-1
              c-0.7,1.8-1,3.8-1,5.8c0,1.6,0.2,3.2,0.7,4.7c0.4-0.3,0.8-0.4,1.3-0.6c-0.4-1.3-0.5-2.7-0.5-4.1c0-2.1,0.4-4.1,1.2-5.9
              c0.4,0,0.7,0,1.1,0c2.1,0,4.1,0.4,6,1.2c0.9,0.4,1.7,0.8,2.5,1.4c0.2-0.2,0.3-0.4,0.5-0.6c0.1-0.1,0.3-0.3,0.5-0.4
              c-0.9-0.6-1.9-1.2-3-1.6c-2.1-0.9-4.3-1.3-6.6-1.3c-0.1,0-0.3,0-0.4,0c0.7-1.3,1.6-2.5,2.7-3.6c1.4-1.4,3.1-2.5,4.9-3.3
              c1.9-0.8,3.9-1.2,6-1.2c2.1,0,4.1,0.4,6,1.2c1.8,0.8,3.5,1.9,4.9,3.3c1.1,1.1,2,2.3,2.7,3.6c-0.2,0-0.4,0-0.7,0
              c-2.3,0-4.5,0.4-6.6,1.3c-1,0.4-2,1-3,1.6c0.2,0.1,0.3,0.3,0.5,0.4c0.2,0.2,0.4,0.4,0.5,0.6c0.8-0.5,1.6-1,2.5-1.4
              c1.9-0.8,3.9-1.2,6-1.2c0.4,0,0.9,0,1.3,0.1c0.8,1.9,1.2,3.9,1.2,5.9c0,1.4-0.2,2.8-0.6,4.2c0.4,0.2,0.9,0.4,1.3,0.6
              c0.5-1.6,0.7-3.2,0.7-4.8c0-2-0.3-3.9-1-5.7c1.1,0.2,2.1,0.5,3.1,0.9c1.8,0.8,3.5,1.9,4.9,3.3c1.4,1.4,2.5,3.1,3.3,4.9
              c0.8,1.9,1.2,3.9,1.2,6C477.8,244,477.4,246,476.6,247.9z"/>
          </g>
        </g>
      </g>
    </g>
    <g>
      <g>
        <polygon class="st0" points="300,557.5 150,470.9 300,384.3 450,470.9 				"/>
        <g>
          <path class="st27" d="M364.8,508.3c-35.8,20.6-93.8,20.6-129.5,0s-35.8-54.1,0-74.8c35.8-20.6,93.8-20.6,129.5,0
            C400.5,454.1,400.5,487.6,364.8,508.3z"/>
          <linearGradient id="SVGID_19_" gradientUnits="userSpaceOnUse" x1="208.4161" y1="440.8571" x2="391.5839" y2="440.8571">
            <stop  offset="0" style="stop-color:#491E8C"/>
            <stop  offset="1" style="stop-color:#251440"/>
          </linearGradient>
          <path class="st28" d="M364.8,478.2c-35.8,20.6-93.8,20.6-129.5,0c-35.8-20.6-35.8-54.1,0-74.8s93.8-20.6,129.5,0
            C400.5,424.1,400.5,457.6,364.8,478.2z"/>
          <linearGradient id="SVGID_20_" gradientUnits="userSpaceOnUse" x1="208.4161" y1="429.3283" x2="391.5839" y2="429.3283">
            <stop  offset="0" style="stop-color:#9452FF"/>
            <stop  offset="0.5" style="stop-color:#4A297F"/>
          </linearGradient>
          <path class="st29" d="M364.8,466.7c-35.8,20.6-93.8,20.6-129.5,0c-35.8-20.6-35.8-54.1,0-74.8s93.8-20.6,129.5,0
            C400.5,412.6,400.5,446.1,364.8,466.7z"/>
          <linearGradient id="SVGID_21_" gradientUnits="userSpaceOnUse" x1="208.4161" y1="425.4854" x2="391.5839" y2="425.4854">
            <stop  offset="0" style="stop-color:#9452FF"/>
            <stop  offset="0.5" style="stop-color:#4A297F"/>
          </linearGradient>
          <path class="st30" d="M364.8,462.9c-35.8,20.6-93.8,20.6-129.5,0c-35.8-20.6-35.8-54.1,0-74.8s93.8-20.6,129.5,0
            C400.5,408.7,400.5,442.2,364.8,462.9z"/>
          <linearGradient id="SVGID_22_" gradientUnits="userSpaceOnUse" x1="229.9777" y1="424.2044" x2="370.0222" y2="424.2044">
            <stop  offset="0" style="stop-color:#491E8C"/>
            <stop  offset="1" style="stop-color:#251440"/>
          </linearGradient>
          <path class="st31" d="M349.5,452.8c-27.3,15.8-71.7,15.8-99,0c-27.3-15.8-27.3-41.4,0-57.2c27.3-15.8,71.7-15.8,99,0
            C376.9,411.4,376.9,437,349.5,452.8z"/>
          <linearGradient id="SVGID_23_" gradientUnits="userSpaceOnUse" x1="229.9777" y1="411.3945" x2="370.0222" y2="411.3945">
            <stop  offset="0" style="stop-color:#9452FF"/>
            <stop  offset="0.5" style="stop-color:#4A297F"/>
          </linearGradient>
          <path class="st32" d="M349.5,440c-27.3,15.8-71.7,15.8-99,0c-27.3-15.8-27.3-41.4,0-57.2s71.7-15.8,99,0
            C376.9,398.6,376.9,424.2,349.5,440z"/>
          <path class="st6" d="M349.5,436.1c-27.3,15.8-71.7,15.8-99,0c-27.3-15.8-27.3-41.4,0-57.2c27.3-15.8,71.7-15.8,99,0
            C376.9,394.8,376.9,420.4,349.5,436.1z"/>
          <linearGradient id="SVGID_24_" gradientUnits="userSpaceOnUse" x1="265.2952" y1="407.5516" x2="334.7048" y2="407.5516">
            <stop  offset="0" style="stop-color:#491E8C"/>
            <stop  offset="1" style="stop-color:#251440"/>
          </linearGradient>
          <path class="st33" d="M324.5,421.7c-13.6,7.8-35.5,7.8-49.1,0c-13.6-7.8-13.6-20.5,0-28.3s35.5-7.8,49.1,0
            C338.1,401.2,338.1,413.9,324.5,421.7z"/>
        </g>

          <linearGradient id="SVGID_25_" gradientUnits="userSpaceOnUse" x1="292.4953" y1="36.8839" x2="292.4953" y2="273.1293" gradientTransform="matrix(1 0 0 -1 0 465)">
          <stop  offset="0" style="stop-color:#FFFFFF;stop-opacity:0.8"/>
          <stop  offset="1" style="stop-color:#FFFFFF;stop-opacity:0"/>
        </linearGradient>
        <path class="st34" d="M334.7,411.8c0,1.2-5.1,16.3-34.7,16.3c-29.3,0-34.7-15.2-34.7-16.3c0-1.1-75-220-75-220h204.5
          C394.7,191.9,334.7,410.7,334.7,411.8z"/>
      </g>
      <g>
        <g id="Man-2">
          <path id="Body_3_" class="st35" d="M384.6,327.3c-13.1-19.2-32.2-31.5-56-36.6l-0.3-10.6c9.6-9.6,18.6-22.2,22.7-36.2
            c3.1,0,6.5-4.8,7.9-11.6c1.7-7.8,0.3-14.7-3.1-15.7c-1-0.3-1.7-0.3-2.8,0.3c-3.4-29.4-23-52-53.6-52c-30.9,0-50.1,22.6-53.6,52
            c-1-0.7-2.1-0.7-3.1-0.3c-3.4,1-5.2,8.2-3.4,15.7c1.7,7.2,5.2,12,8.6,11.6c4.1,14,12.7,27,22.7,36.6l-0.3,9.9
            c-25.1,4.8-46,16.4-56.7,37.6c-2.8,5.8,60.1,38,85.8,38C333.8,366,389.1,333.8,384.6,327.3z"/>
          <path id="Hair_3_" class="st36" d="M245.2,216.5c0,0-0.7-56.4,48.1-56.4c8.3-3.1,31.2-4.5,49.4,14.7c16.2,17.1,10,41.7,10,41.7
            s-33.3-3.8-56.7-34.2C296.4,182.3,263.1,186.4,245.2,216.5z"/>
          <linearGradient id="Shirt_5_" gradientUnits="userSpaceOnUse" x1="209.451" y1="345.8251" x2="389.451" y2="345.8251">
            <stop  offset="0" style="stop-color:#491E8C"/>
            <stop  offset="1" style="stop-color:#251440"/>
          </linearGradient>
          <path id="Shirt_3_" class="st37" d="M268.9,290.1c0,0,13.8,27.7,30.2,27.7c16.8,0,30.5-27.7,30.5-27.7s35.5,2.3,59.8,37.2
            c0,0-42.3,74.3-88.7,74.3s-91.3-73.5-91.3-73.5S231.2,292.7,268.9,290.1z"/>
          <g id="Brandmark_2_">
            <circle id="Core-1_2_" class="st11" cx="299.3" cy="347.1" r="4.5"/>
            <circle id="Core-2_2_" class="st11" cx="286.2" cy="356.6" r="4.5"/>
            <circle id="Core-3_2_" class="st11" cx="312.4" cy="356.6" r="4.5"/>
            <circle id="Core-4_2_" class="st11" cx="291.2" cy="372" r="4.5"/>
            <circle id="Core-5_2_" class="st11" cx="307.4" cy="372" r="4.5"/>
            <path id="Center_2_" class="st12" d="M301.7,372c0-1.5,0.6-2.9,1.7-4c1.1-1.1,2.5-1.7,4-1.7c1.4,0,2.8,0.5,3.8,1.5
              c1-1.7,1.6-3.5,1.8-5.5c-0.2,0-0.4,0-0.6,0c-1.5,0-2.9-0.6-4-1.7c-1.1-1.1-1.7-2.5-1.7-4c0-1.5,0.6-2.9,1.7-4
              c0.4-0.4,0.8-0.7,1.2-0.9c-1.3-1.5-2.9-2.6-4.7-3.4c-0.2,1.1-0.8,2.1-1.5,2.8c-1.1,1.1-2.5,1.7-4,1.7s-2.9-0.6-4-1.7
              c-0.8-0.8-1.3-1.8-1.5-2.8c-1.8,0.8-3.4,2-4.7,3.4c0.4,0.2,0.8,0.5,1.2,0.9c1.1,1.1,1.7,2.5,1.7,4c0,1.5-0.6,2.9-1.7,4
              c-1.1,1.1-2.5,1.7-4,1.7c-0.2,0-0.4,0-0.6,0c0.2,2,0.8,3.9,1.8,5.5c1-0.9,2.4-1.5,3.8-1.5c1.5,0,2.9,0.6,4,1.7
              c1.1,1.1,1.7,2.5,1.7,4c0,0.8-0.2,1.6-0.5,2.3c0.9,0.2,1.9,0.3,2.9,0.3s2-0.1,2.9-0.3C301.8,373.6,301.7,372.8,301.7,372z"/>
            <path id="Circles_2_" class="st12" d="M327.9,350c-0.9-2-2.1-3.8-3.6-5.4c-1.6-1.6-3.4-2.8-5.4-3.6c-1.4-0.6-2.8-1-4.3-1.2
              c-0.8-1.8-1.9-3.3-3.3-4.7c-1.6-1.6-3.4-2.8-5.4-3.6c-2.1-0.9-4.3-1.3-6.6-1.3c-2.3,0-4.5,0.4-6.6,1.3c-2,0.9-3.8,2.1-5.4,3.6
              c-1.4,1.4-2.5,2.9-3.3,4.7c-1.6,0.2-3.1,0.6-4.5,1.2c-2,0.9-3.8,2.1-5.4,3.6c-1.6,1.6-2.8,3.4-3.6,5.4
              c-0.9,2.1-1.3,4.3-1.3,6.6c0,2.3,0.4,4.5,1.3,6.6c0.9,2,2.1,3.8,3.6,5.4c0.1,0.1,0.2,0.2,0.3,0.3c-0.2,1-0.3,2.1-0.3,3.1
              c0,2.3,0.4,4.5,1.3,6.6c0.9,2,2.1,3.8,3.6,5.4c1.6,1.6,3.4,2.8,5.4,3.6c2.1,0.9,4.3,1.3,6.6,1.3s4.5-0.4,6.6-1.3
              c0.5-0.2,1-0.5,1.5-0.7c0.5,0.3,1,0.5,1.5,0.7c2.1,0.9,4.3,1.3,6.6,1.3s4.5-0.4,6.6-1.3c2-0.9,3.8-2.1,5.4-3.6
              s2.8-3.4,3.6-5.4c0.9-2.1,1.3-4.3,1.3-6.6c0-1.1-0.1-2.1-0.3-3.1c0.1-0.1,0.2-0.2,0.3-0.3c1.6-1.6,2.8-3.4,3.6-5.4
              c0.9-2.1,1.3-4.3,1.3-6.6C329.3,354.3,328.8,352.1,327.9,350z M326.7,362.6c-0.7,1.7-1.8,3.3-3.1,4.7
              c-0.2-0.6-0.4-1.3-0.7-1.9c-0.9-2-2.1-3.8-3.6-5.4c-0.5-0.5-1.1-1-1.6-1.4c-0.2,0.4-0.4,0.9-0.7,1.2c0.5,0.4,0.9,0.8,1.3,1.2
              c1.4,1.4,2.5,3.1,3.3,4.9c0.3,0.8,0.6,1.6,0.8,2.4c-1.2,1-2.6,1.9-4,2.5c-1.7,0.7-3.5,1.1-5.4,1.2c0,0.5-0.1,0.9-0.2,1.4
              c2.1-0.1,4.2-0.5,6.1-1.3c1.4-0.6,2.6-1.3,3.8-2.2c0.1,0.7,0.1,1.4,0.1,2.1c0,2.1-0.4,4.1-1.2,6c-0.8,1.8-1.9,3.5-3.3,4.9
              c-1.4,1.4-3.1,2.5-4.9,3.3c-1.9,0.8-3.9,1.2-6,1.2c-2.1,0-4.1-0.4-6-1.2c-0.2-0.1-0.5-0.2-0.7-0.3c0.9-0.6,1.7-1.3,2.5-2
              c1.6-1.6,2.8-3.4,3.6-5.4c0.1-0.3,0.2-0.6,0.4-0.9c-0.5,0-0.9-0.1-1.4-0.2c-0.1,0.2-0.2,0.4-0.2,0.6c-0.8,1.8-1.9,3.5-3.3,4.9
              c-0.9,0.9-1.8,1.6-2.9,2.3c-1-0.6-2-1.4-2.9-2.3c-1.4-1.4-2.5-3.1-3.3-4.9c-0.1-0.2-0.2-0.4-0.2-0.6c-0.4,0.1-0.9,0.2-1.4,0.2
              c0.1,0.3,0.2,0.6,0.4,0.9c0.9,2,2.1,3.8,3.6,5.4c0.8,0.8,1.6,1.4,2.5,2c-0.2,0.1-0.4,0.2-0.7,0.3c-1.9,0.8-3.9,1.2-6,1.2
              s-4.1-0.4-6-1.2c-1.8-0.8-3.5-1.9-4.9-3.3c-1.4-1.4-2.5-3.1-3.3-4.9c-0.8-1.9-1.2-3.9-1.2-6c0-0.7,0-1.4,0.1-2.1
              c1.2,0.9,2.4,1.6,3.8,2.2c1.9,0.8,4,1.3,6.1,1.3c-0.1-0.5-0.2-0.9-0.2-1.4c-1.9-0.1-3.7-0.5-5.4-1.2c-1.5-0.6-2.8-1.5-4-2.5
              c0.2-0.8,0.5-1.6,0.8-2.4c0.8-1.8,1.9-3.5,3.3-4.9c0.4-0.4,0.9-0.8,1.3-1.2c-0.3-0.4-0.5-0.8-0.7-1.2
              c-0.6,0.4-1.1,0.9-1.6,1.4c-1.6,1.6-2.8,3.4-3.6,5.4c-0.3,0.6-0.5,1.2-0.7,1.9c-1.3-1.4-2.3-2.9-3.1-4.7
              c-0.8-1.9-1.2-3.9-1.2-6c0-2.1,0.4-4.1,1.2-6c0.8-1.8,1.9-3.5,3.3-4.9c1.4-1.4,3.1-2.5,4.9-3.3c1.1-0.5,2.2-0.8,3.4-1
              c-0.7,1.8-1,3.8-1,5.8c0,1.6,0.2,3.2,0.7,4.7c0.4-0.3,0.8-0.4,1.3-0.6c-0.4-1.3-0.5-2.7-0.5-4.1c0-2.1,0.4-4.1,1.2-5.9
              c0.4,0,0.7,0,1.1,0c2.1,0,4.1,0.4,6,1.2c0.9,0.4,1.7,0.8,2.5,1.4c0.2-0.2,0.3-0.4,0.5-0.6c0.1-0.1,0.3-0.3,0.5-0.4
              c-0.9-0.6-1.9-1.2-3-1.6c-2.1-0.9-4.3-1.3-6.6-1.3c-0.1,0-0.3,0-0.4,0c0.7-1.3,1.6-2.5,2.7-3.6c1.4-1.4,3.1-2.5,4.9-3.3
              c1.9-0.8,3.9-1.2,6-1.2c2.1,0,4.1,0.4,6,1.2c1.8,0.8,3.5,1.9,4.9,3.3c1.1,1.1,2,2.3,2.7,3.6c-0.2,0-0.4,0-0.7,0
              c-2.3,0-4.5,0.4-6.6,1.3c-1,0.4-2,1-3,1.6c0.2,0.1,0.3,0.3,0.5,0.4c0.2,0.2,0.4,0.4,0.5,0.6c0.8-0.5,1.6-1,2.5-1.4
              c1.9-0.8,3.9-1.2,6-1.2c0.4,0,0.9,0,1.3,0.1c0.8,1.9,1.2,3.9,1.2,5.9c0,1.4-0.2,2.8-0.6,4.2c0.4,0.2,0.9,0.4,1.3,0.6
              c0.5-1.6,0.7-3.2,0.7-4.8c0-2-0.3-3.9-1-5.7c1.1,0.2,2.1,0.5,3.1,0.9c1.8,0.8,3.5,1.9,4.9,3.3c1.4,1.4,2.5,3.1,3.3,4.9
              c0.8,1.9,1.2,3.9,1.2,6S327.5,360.7,326.7,362.6z"/>
          </g>
        </g>
      </g>
    </g>
  </g>
</g>
</svg>
