<svg id="Layer_1" data-name="Layer 1" xmlns="http://www.w3.org/2000/svg" viewBox="0 0 400 400"><defs><style>.cls-1{fill:#ffa744;}.cls-2{fill:#fff;}.cls-3{fill:#491e8c;}.cls-4{fill:#dfcdf7;}</style></defs><title>Artboard 1 copy 28</title><circle class="cls-1" cx="325" cy="75" r="75"/><path class="cls-2" d="M293.36,63.63a14.33,14.33,0,1,1,10.14,4.2A14.33,14.33,0,0,1,293.36,63.63ZM355.58,52l-58.29,58.29a1.8,1.8,0,0,1-2.54,0l-5.07-5.07a1.8,1.8,0,0,1,0-2.53l63-63a1.8,1.8,0,0,1,2.54,0l5.07,5.07a1.79,1.79,0,0,1,0,2.53Zm1.06,34.35a14.33,14.33,0,1,1-10.14-4.2A14.33,14.33,0,0,1,356.64,86.37Z"/><path class="cls-3" d="M140,140a10,10,0,0,1-10,10H100a25,25,0,0,0-25,25v30h35a10,10,0,0,1,10,10v10a10,10,0,0,1-10,10H75v90a55,55,0,0,1-55,55H10A10,10,0,0,1,0,370V360a10,10,0,0,1,10-10H20a25,25,0,0,0,25-25V235H10A10,10,0,0,1,0,225V215a10,10,0,0,1,10-10H45V175a55,55,0,0,1,55-55h30a10,10,0,0,1,10,10ZM317.19,253.43,290.63,280l26.56,26.54a9.81,9.81,0,0,1,0,13.75l-6.87,6.85a9.71,9.71,0,0,1-13.75,0L270,300.59l-26.51,26.54a9.71,9.71,0,0,1-13.75,0l-6.87-6.85a9.71,9.71,0,0,1,0-13.75L249.43,280l-26.56-26.56a9.68,9.68,0,0,1,0-13.72l6.88-6.87a9.76,9.76,0,0,1,13.75,0L270,259.37l26.56-26.54a9.71,9.71,0,0,1,13.75,0l6.88,6.88A9.78,9.78,0,0,1,317.19,253.43Z"/><path class="cls-4" d="M200.47,181.55a174.25,174.25,0,0,0,0,196.87,9.84,9.84,0,0,1-2.08,13.49l-8,6a10.08,10.08,0,0,1-14.32-2.14,203.83,203.83,0,0,1,0-231.61A10.08,10.08,0,0,1,190.42,162l8,6A9.84,9.84,0,0,1,200.47,181.55Z"/><path class="cls-4" d="M400,280A205.35,205.35,0,0,1,364,395.8a10.09,10.09,0,0,1-14.32,2.14l-8-6a9.78,9.78,0,0,1-2-13.49,174.5,174.5,0,0,0,0-196.87,9.78,9.78,0,0,1,2-13.49l8-6A10.09,10.09,0,0,1,364,164.18,205.23,205.23,0,0,1,400,280Z"/></svg>