<svg id="Layer_1" data-name="Layer 1" xmlns="http://www.w3.org/2000/svg" viewBox="0 0 400 400"><defs><style>.cls-1,.cls-2{fill:none;stroke-linecap:round;stroke-linejoin:round;stroke-width:10px;}.cls-1{stroke:#dfcdf7;}.cls-2{stroke:#ffa744;}.cls-3{fill:#ffa744;}.cls-4{fill:#dfcdf7;}.cls-5{fill:#491e8c;}.cls-6{fill:#fff;}</style></defs><title>Artboard 1 copy 24</title><polyline class="cls-1" points="199.56 325 323.72 325 323.72 195.08"/><polyline class="cls-1" points="204.92 75.13 75 75.13 75 204.92"/><line class="cls-2" x1="133.63" y1="216.33" x2="218.67" y2="131.29"/><polygon class="cls-3" points="224.16 183.63 214.16 183.28 215.97 134.01 166.69 135.81 166.33 125.81 226.35 123.62 224.16 183.63"/><line class="cls-2" x1="181.33" y1="268.7" x2="266.37" y2="183.65"/><polygon class="cls-3" points="233.68 274.19 233.32 264.19 184.05 265.99 185.84 216.71 175.84 216.36 173.66 276.38 233.68 274.19"/><rect class="cls-4" y="250" width="150" height="150" rx="15" ry="15"/><circle class="cls-5" cx="325" cy="75" r="75"/><path class="cls-6" d="M354.58,90.57q0,9.5-6.78,15.27t-19,6.9V125h-8.07V113q-14.38-.3-25.22-5.14V92.07a67.24,67.24,0,0,0,12.35,4.54,65.19,65.19,0,0,0,12.88,2.33V80.41l-3.95-1.55q-11.67-4.66-16.53-10.13a19.64,19.64,0,0,1-4.86-13.54,17.76,17.76,0,0,1,6.69-14.26q6.69-5.59,18.65-6.78V25h8.07v8.91a66.14,66.14,0,0,1,24.4,5.5l-5.54,14a63,63,0,0,0-18.86-4.66V66.36q11.49,4.48,16.35,7.77a22.54,22.54,0,0,1,7.13,7.23A18.15,18.15,0,0,1,354.58,90.57ZM313.16,55.19a5.71,5.71,0,0,0,1.8,4.33,21.27,21.27,0,0,0,5.8,3.5V49Q313.16,50.11,313.16,55.19Zm23.69,36.28a5.41,5.41,0,0,0-2-4.24,26.24,26.24,0,0,0-6-3.59V98.52Q336.84,97.15,336.84,91.47Z"/><rect class="cls-5" x="37.5" y="287.5" width="75" height="75" rx="7.5" ry="7.5"/></svg>