<svg xmlns="http://www.w3.org/2000/svg" id="Layer_1" data-name="Layer 1" viewBox="0 0 400 400"><defs><style>.cls-1{fill:none;stroke:#ffa744;stroke-miterlimit:10;stroke-width:10px}.cls-2{fill:#dfcdf7}.cls-3{fill:#491e8c}</style></defs><title>Artboard 1 copy 22</title><rect width="300.22" height="300.22" x="50" y="50" class="cls-1"/><circle cx="200" cy="200" r="100" class="cls-2"/><rect width="100" height="100" class="cls-3" rx="10" ry="10"/><rect width="100" height="100" x="300" class="cls-3" rx="10" ry="10"/><rect width="100" height="100" y="300" class="cls-3" rx="10" ry="10"/><rect width="100" height="100" x="300" y="300" class="cls-3" rx="10" ry="10"/><path d="M253.57,241.07v8a13.4,13.4,0,0,1-13.39,13.39H159.82a13.4,13.4,0,0,1-13.39-13.39v-8a32.15,32.15,0,0,1,32.15-32.15h2.31a43.15,43.15,0,0,0,38.23,0h2.31A32.15,32.15,0,0,1,253.57,241.07Z" class="cls-3"/><path d="M168.75,168.75A31.25,31.25,0,1,1,200,200,31.23,31.23,0,0,1,168.75,168.75Z" class="cls-3"/></svg>