<svg xmlns="http://www.w3.org/2000/svg" id="Layer_1" data-name="Layer 1" viewBox="0 0 400 400"><defs><style>.cls-1{fill:#491e8c}.cls-2{fill:none;stroke:#ffa744;stroke-linecap:round;stroke-linejoin:round;stroke-width:10px}.cls-3{fill:#ffa744}.cls-4{fill:#dfcdf7}</style></defs><title>Artboard 1 copy 27</title><path d="M299.26,166.28,377.52,373h-355L90.29,118.69a9.41,9.41,0,0,1,15.56-.78l66.63,88.83L285.69,162.6A9.35,9.35,0,0,1,299.26,166.28Z" class="cls-1"/><line x1="102.06" x2="102.06" y1="94.76" y2="395" class="cls-2"/><circle cx="102.06" cy="96.64" r="37.6" class="cls-3"/><path d="M380,10.49A9.52,9.52,0,0,1,389.51,20V380a9.52,9.52,0,0,1-9.51,9.51H20A9.52,9.52,0,0,1,10.49,380V20A9.52,9.52,0,0,1,20,10.49H380M380,0H20A20,20,0,0,0,0,20V380a20,20,0,0,0,20,20H380a20,20,0,0,0,20-20V20A20,20,0,0,0,380,0Z" class="cls-4"/></svg>