<svg xmlns="http://www.w3.org/2000/svg" id="Layer_1" data-name="Layer 1" viewBox="0 0 400 400"><defs><style>.cls-1{fill:#ffa744}.cls-2{fill:#dfcdf7}.cls-3{fill:#491e8c}</style></defs><title>Artboard 1 copy 23</title><path d="M200.06,15a33.87,33.87,0,0,1,10.17,2.05L356.42,78a26.39,26.39,0,0,1,16.28,24.5c0,38.59-5.62,75.42-16.69,109.46a306.38,306.38,0,0,1-41.34,82.61,285,285,0,0,1-53.06,56.81C244.68,365.06,226.9,376,210.18,383a26.55,26.55,0,0,1-20.41,0c-19.94-8.32-39.46-20.65-58-36.67a283.1,283.1,0,0,1-52.29-60.42c-34.12-52.58-52.15-116-52.15-183.37A26.43,26.43,0,0,1,43.67,78L189.82,17.06A34.17,34.17,0,0,1,200.06,15m0-10A43.62,43.62,0,0,0,186,7.82L39.82,68.76A36.55,36.55,0,0,0,17.31,102.5c0,151.21,87.16,255.73,168.61,289.69a36.55,36.55,0,0,0,28.1,0C279.23,365,382.69,271.07,382.69,102.5a36.49,36.49,0,0,0-22.46-33.74L214.08,7.82a43.24,43.24,0,0,0-14-2.82Z" class="cls-1"/><path d="M340.63,125c0,129.67-79.64,201.91-129.84,222.84a28.15,28.15,0,0,1-21.63,0C126.46,321.72,59.37,241.32,59.37,125A28.12,28.12,0,0,1,76.7,99l112.5-46.88A33.6,33.6,0,0,1,200,50a33.31,33.31,0,0,1,10.79,2.17L323.34,99A28.07,28.07,0,0,1,340.63,125Z" class="cls-2"/><path d="M317.86,352.86v17.67A29.47,29.47,0,0,1,288.39,400H111.61a29.47,29.47,0,0,1-29.46-29.46V352.86a70.72,70.72,0,0,1,70.72-70.72H158a94.92,94.92,0,0,0,84.1,0h5.09A70.72,70.72,0,0,1,317.86,352.86Z" class="cls-3"/><path d="M131.25,193.75A68.75,68.75,0,1,1,200,262.5,68.7,68.7,0,0,1,131.25,193.75Z" class="cls-3"/></svg>