<svg id="Layer_1" data-name="Layer 1" xmlns="http://www.w3.org/2000/svg" viewBox="0 0 400 400"><defs><style>.cls-1{fill:#491e8c;}.cls-2{fill:#ffa744;}.cls-3{fill:#dfcdf7;}</style></defs><title>Artboard 1 copy 26</title><path class="cls-1" d="M279.33,338.13c5,5,4.66,13.57-1.16,17.71a175.29,175.29,0,0,1-99.45,32.38C84.45,389.39,3.32,312.12.1,217.91-3,126.16,64,49.63,151.6,37.25c7-1,13.11,4.78,13.11,11.8V223.52Z"/><path class="cls-2" d="M399.88,236.63a176,176,0,0,1-53.77,103.58,11.76,11.76,0,0,1-16.3-.52L213.61,223.52H388.09C395.11,223.52,400.9,229.71,399.88,236.63Z"/><path class="cls-3" d="M364.53,188.23H200V23.71a11.82,11.82,0,0,1,12.35-11.92c87.84,6,158,76.26,164.09,164.09A11.82,11.82,0,0,1,364.53,188.23Z"/></svg>