<?xml version="1.0" encoding="utf-8"?>
<!-- Generator: Adobe Illustrator 21.0.0, SVG Export Plug-In . SVG Version: 6.00 Build 0)  -->
<svg version="1.1" id="Layer_1" xmlns="http://www.w3.org/2000/svg" xmlns:xlink="http://www.w3.org/1999/xlink" x="0px" y="0px"
	 viewBox="0 0 490 490" style="enable-background:new 0 0 490 490;" xml:space="preserve">
<style type="text/css">
	.st0{fill:url(#SVGID_1_);}
	.st1{fill:url(#SVGID_2_);}
	.st2{fill:url(#SVGID_3_);}
	.st3{fill:none;stroke:url(#SVGID_4_);stroke-width:2;stroke-linecap:round;stroke-linejoin:round;stroke-miterlimit:10;}
	.st4{fill:none;stroke:url(#SVGID_5_);stroke-width:2;stroke-linecap:round;stroke-linejoin:round;stroke-miterlimit:10;}
	.st5{opacity:0.68;}
	.st6{opacity:0;fill:#FFFFFF;}
	.st7{opacity:1.960800e-02;fill:#FCFCFF;}
	.st8{opacity:3.921600e-02;fill:#F8F9FF;}
	.st9{opacity:5.882400e-02;fill:#F5F6FF;}
	.st10{opacity:7.843100e-02;fill:#F2F4FF;}
	.st11{opacity:9.803900e-02;fill:#EEF1FF;}
	.st12{opacity:0.1176;fill:#EBEEFF;}
	.st13{opacity:0.1373;fill:#E7EBFF;}
	.st14{opacity:0.1569;fill:#E4E8FF;}
	.st15{opacity:0.1765;fill:#E1E5FF;}
	.st16{opacity:0.1961;fill:#DDE2FF;}
	.st17{opacity:0.2157;fill:#DAE0FF;}
	.st18{opacity:0.2353;fill:#D7DDFF;}
	.st19{opacity:0.2549;fill:#D3DAFF;}
	.st20{opacity:0.2745;fill:#D0D7FF;}
	.st21{opacity:0.2941;fill:#CCD4FF;}
	.st22{opacity:0.3137;fill:#C9D1FF;}
	.st23{opacity:0.3333;fill:#C6CEFF;}
	.st24{opacity:0.3529;fill:#C2CBFF;}
	.st25{opacity:0.3725;fill:#BFC9FF;}
	.st26{opacity:0.3922;fill:#BCC6FF;}
	.st27{opacity:0.4118;fill:#B8C3FF;}
	.st28{opacity:0.4314;fill:#B5C0FF;}
	.st29{opacity:0.451;fill:#B1BDFF;}
	.st30{opacity:0.4706;fill:#AEBAFF;}
	.st31{opacity:0.4902;fill:#ABB7FF;}
	.st32{opacity:0.5098;fill:#A7B5FE;}
	.st33{opacity:0.5294;fill:#A4B2FE;}
	.st34{opacity:0.549;fill:#A1AFFE;}
	.st35{opacity:0.5686;fill:#9DACFE;}
	.st36{opacity:0.5882;fill:#9AA9FE;}
	.st37{opacity:0.6078;fill:#96A6FE;}
	.st38{opacity:0.6275;fill:#93A3FE;}
	.st39{opacity:0.6471;fill:#90A1FE;}
	.st40{opacity:0.6667;fill:#8C9EFE;}
	.st41{opacity:0.6863;fill:#899BFE;}
	.st42{opacity:0.7059;fill:#8698FE;}
	.st43{opacity:0.7255;fill:#8295FE;}
	.st44{opacity:0.7451;fill:#7F92FE;}
	.st45{opacity:0.7647;fill:#7B8FFE;}
	.st46{opacity:0.7843;fill:#788CFE;}
	.st47{opacity:0.8039;fill:#758AFE;}
	.st48{opacity:0.8235;fill:#7187FE;}
	.st49{opacity:0.8431;fill:#6E84FE;}
	.st50{opacity:0.8627;fill:#6B81FE;}
	.st51{opacity:0.8824;fill:#677EFE;}
	.st52{opacity:0.902;fill:#647BFE;}
	.st53{opacity:0.9216;fill:#6078FE;}
	.st54{opacity:0.9412;fill:#5D76FE;}
	.st55{opacity:0.9608;fill:#5A73FE;}
	.st56{opacity:0.9804;fill:#5670FE;}
	.st57{fill:#536DFE;}
	.st58{fill:url(#XMLID_2_);}
	.st59{fill:url(#XMLID_3_);}
	.st60{fill:url(#XMLID_4_);}
	.st61{fill:url(#XMLID_5_);}
	.st62{fill:url(#XMLID_6_);}
	.st63{fill:url(#XMLID_7_);}
	.st64{fill:#1D073F;}
	.st65{fill:url(#XMLID_8_);}
	.st66{fill:url(#XMLID_9_);}
	.st67{fill:#7E44D8;}
	.st68{fill:#FFA744;}
	.st69{fill:#6134A6;}
	.st70{fill:url(#XMLID_10_);}
	.st71{fill:url(#SVGID_6_);}
	.st72{fill:url(#SVGID_7_);}
	.st73{enable-background:new    ;}
	.st74{fill:#FFFFFF;}
	.st75{fill:#491E8C;}
	.st76{opacity:0.4;fill:#491E8C;enable-background:new    ;}
	.st77{fill:url(#XMLID_11_);}
	.st78{clip-path:url(#XMLID_12_);fill:url(#XMLID_13_);}
	.st79{fill:none;stroke:url(#XMLID_14_);stroke-miterlimit:10;}
	.st80{opacity:0.8;fill:none;stroke:url(#XMLID_15_);stroke-miterlimit:10;}
	.st81{opacity:0.6;fill:none;stroke:url(#XMLID_16_);stroke-miterlimit:10;}
	.st82{opacity:0.4;fill:none;stroke:url(#XMLID_17_);stroke-miterlimit:10;}
	.st83{fill:none;stroke:url(#SVGID_8_);stroke-width:2;stroke-linecap:round;stroke-linejoin:round;stroke-miterlimit:10;}
	.st84{fill:none;stroke:url(#SVGID_9_);stroke-width:2;stroke-linecap:round;stroke-linejoin:round;stroke-miterlimit:10;}
	.st85{fill:#231F20;}
	.st86{fill:url(#SVGID_10_);}
	.st87{fill:url(#SVGID_11_);}
	.st88{fill:url(#SVGID_12_);}
	.st89{fill:url(#SVGID_13_);}
	.st90{fill:url(#SVGID_14_);}
	.st91{fill:url(#SVGID_15_);}
	.st92{fill:url(#SVGID_16_);}
	.st93{fill:url(#SVGID_17_);}
	.st94{fill:url(#SVGID_18_);}
	.st95{opacity:0.25;fill:#120426;}
	.st96{fill:url(#SVGID_19_);}
	.st97{fill:url(#SVGID_20_);}
	.st98{fill:#E8FFFF;}
	.st99{fill:url(#SVGID_21_);}
	.st100{fill:url(#SVGID_22_);}
	.st101{fill:url(#SVGID_23_);}
	.st102{fill:url(#SVGID_24_);}
	.st103{fill:url(#SVGID_25_);}
	.st104{fill:url(#SVGID_26_);}
	.st105{fill:url(#SVGID_27_);}
	.st106{fill:url(#SVGID_28_);}
	.st107{fill:url(#SVGID_29_);}
	.st108{fill:url(#SVGID_30_);}
	.st109{fill:url(#SVGID_31_);}
	.st110{fill:url(#SVGID_32_);}
	.st111{fill:url(#SVGID_33_);}
	.st112{fill:url(#SVGID_34_);}
	.st113{fill:url(#SVGID_35_);}
	.st114{fill:url(#SVGID_36_);}
	.st115{fill:url(#SVGID_37_);}
	.st116{fill:url(#SVGID_38_);}
	.st117{fill:url(#SVGID_39_);}
	.st118{fill:url(#SVGID_40_);}
	.st119{fill:url(#SVGID_41_);}
	.st120{fill:url(#SVGID_42_);}
	.st121{fill:url(#SVGID_43_);}
	.st122{fill:#120426;}
	.st123{fill:url(#SVGID_44_);}
	.st124{fill:url(#SVGID_45_);}
	.st125{fill:url(#SVGID_46_);}
	.st126{fill:url(#SVGID_47_);}
	.st127{fill:url(#SVGID_48_);}
	.st128{fill:url(#SVGID_49_);}
	.st129{fill:url(#SVGID_50_);}
	.st130{fill:url(#SVGID_51_);}
	.st131{fill:url(#SVGID_52_);}
	.st132{fill:url(#SVGID_53_);}
	.st133{fill:url(#SVGID_54_);}
	.st134{fill:url(#SVGID_55_);}
	.st135{fill:url(#SVGID_56_);}
</style>
<g>
	<g>
		<g>
			<linearGradient id="SVGID_1_" gradientUnits="userSpaceOnUse" x1="263.1756" y1="31.9102" x2="362.4637" y2="99.0106">
				<stop  offset="0" style="stop-color:#F0E5FF;stop-opacity:0"/>
				<stop  offset="0.2844" style="stop-color:#EEE2FF;stop-opacity:0.1991"/>
				<stop  offset="0.5128" style="stop-color:#E7D8FF;stop-opacity:0.359"/>
				<stop  offset="0.7218" style="stop-color:#DBC7FF;stop-opacity:0.5053"/>
				<stop  offset="0.918" style="stop-color:#CBAFFF;stop-opacity:0.6426"/>
				<stop  offset="1" style="stop-color:#C2A3FF;stop-opacity:0.7"/>
			</linearGradient>
			<polygon class="st0" points="371.1,60.3 298,6.1 254.5,75.3 349.2,121.9 			"/>
			
				<linearGradient id="SVGID_2_" gradientUnits="userSpaceOnUse" x1="683.1545" y1="83.8036" x2="771.8007" y2="143.712" gradientTransform="matrix(-0.9214 0.3886 0.3886 0.9214 799.7833 -161.5171)">
				<stop  offset="0" style="stop-color:#F0E5FF;stop-opacity:0"/>
				<stop  offset="0.2844" style="stop-color:#EEE2FF;stop-opacity:0.1991"/>
				<stop  offset="0.5128" style="stop-color:#E7D8FF;stop-opacity:0.359"/>
				<stop  offset="0.7218" style="stop-color:#DBC7FF;stop-opacity:0.5053"/>
				<stop  offset="0.918" style="stop-color:#CBAFFF;stop-opacity:0.6426"/>
				<stop  offset="1" style="stop-color:#C2A3FF;stop-opacity:0.7"/>
			</linearGradient>
			<polygon class="st1" points="118.1,239.4 159.7,168.4 215.5,240.9 165.5,286.4 			"/>
			
				<radialGradient id="SVGID_3_" cx="355.4644" cy="261.9013" r="61.4219" gradientTransform="matrix(2.2223 0 0 2.2225 -546.3002 -410.5052)" gradientUnits="userSpaceOnUse">
				<stop  offset="0.35" style="stop-color:#FFFFFF;stop-opacity:0.7"/>
				<stop  offset="1" style="stop-color:#F0E5FF;stop-opacity:0"/>
			</radialGradient>
			<ellipse class="st2" cx="243.6" cy="171.6" rx="136.5" ry="136.5"/>
		</g>
		<g>
			
				<linearGradient id="SVGID_4_" gradientUnits="userSpaceOnUse" x1="628.9451" y1="2591.3811" x2="679.7017" y2="2591.3811" gradientTransform="matrix(-1 0 0 -1 1004.0496 2927.2959)">
				<stop  offset="0" style="stop-color:#CC8636"/>
				<stop  offset="0.1496" style="stop-color:#DA8F3A"/>
				<stop  offset="0.4388" style="stop-color:#EE9C3F"/>
				<stop  offset="0.7244" style="stop-color:#FBA443"/>
				<stop  offset="1" style="stop-color:#FFA744"/>
			</linearGradient>
			<path class="st3" d="M374.1,320.8L333,344.5c-3.7,2.3-3.5,4.4-7.7,6.5"/>
			
				<linearGradient id="SVGID_5_" gradientUnits="userSpaceOnUse" x1="514.2996" y1="2573.3987" x2="630.9451" y2="2573.3987" gradientTransform="matrix(-1 0 0 -1 1004.0496 2927.2959)">
				<stop  offset="0" style="stop-color:#F0E5FF;stop-opacity:0"/>
				<stop  offset="9.364273e-02" style="stop-color:#F3D8D9;stop-opacity:0.1102"/>
				<stop  offset="0.2218" style="stop-color:#F7C9AC;stop-opacity:0.261"/>
				<stop  offset="0.3509" style="stop-color:#FABD86;stop-opacity:0.4128"/>
				<stop  offset="0.4789" style="stop-color:#FCB369;stop-opacity:0.5634"/>
				<stop  offset="0.6054" style="stop-color:#FEAD55;stop-opacity:0.7123"/>
				<stop  offset="0.7299" style="stop-color:#FFA848;stop-opacity:0.8587"/>
				<stop  offset="0.85" style="stop-color:#FFA744"/>
				<stop  offset="1" style="stop-color:#CC8636"/>
			</linearGradient>
			<line class="st4" x1="488.8" y1="387" x2="374.1" y2="320.8"/>
			<g>
				<g class="st5">
					<path id="XMLID_190_" class="st6" d="M267.1,311.1c-13.4-7.8-35.5-7.8-48.9,0L99.7,379.5c-13.4,7.8-13.4,20.5,0,28.2
						l118.5,68.4c13.4,7.8,35.5,7.8,48.9,0l118.5-68.4c13.4-7.8,13.4-20.5,0-28.2L267.1,311.1z"/>
					<path class="st7" d="M267,311.5c-13.4-7.7-35.3-7.7-48.7,0l-117.9,68.1c-13.4,7.7-13.4,20.4,0,28.1l117.9,68.1
						c13.4,7.7,35.3,7.7,48.7,0l117.9-68.1c13.4-7.7,13.4-20.4,0-28.1L267,311.5z"/>
					<path class="st8" d="M266.8,311.9c-13.3-7.7-35.1-7.7-48.4,0l-117.3,67.7c-13.3,7.7-13.3,20.3,0,28l117.3,67.7
						c13.3,7.7,35.1,7.7,48.4,0l117.3-67.7c13.3-7.7,13.3-20.3,0-28L266.8,311.9z"/>
					<path class="st9" d="M266.7,312.3c-13.3-7.7-34.9-7.7-48.2,0l-116.8,67.4c-13.3,7.7-13.3,20.2,0,27.8l116.8,67.4
						c13.3,7.7,34.9,7.7,48.2,0l116.8-67.4c13.3-7.7,13.3-20.2,0-27.8L266.7,312.3z"/>
					<path class="st10" d="M266.6,312.7c-13.2-7.6-34.8-7.6-48,0l-116.2,67.1c-13.2,7.6-13.2,20.1,0,27.7l116.2,67.1
						c13.2,7.6,34.8,7.6,48,0l116.2-67.1c13.2-7.6,13.2-20.1,0-27.7L266.6,312.7z"/>
					<path class="st11" d="M266.5,313.1c-13.1-7.6-34.6-7.6-47.7,0l-115.6,66.8c-13.1,7.6-13.1,20,0,27.6l115.6,66.8
						c13.1,7.6,34.6,7.6,47.7,0l115.6-66.8c13.1-7.6,13.1-20,0-27.6L266.5,313.1z"/>
					<path class="st12" d="M266.4,313.5c-13.1-7.5-34.4-7.5-47.5,0l-115.1,66.4c-13.1,7.5-13.1,19.9,0,27.4l115.1,66.4
						c13.1,7.5,34.4,7.5,47.5,0l115.1-66.4c13.1-7.5,13.1-19.9,0-27.4L266.4,313.5z"/>
					<path class="st13" d="M266.3,313.9c-13-7.5-34.3-7.5-47.3,0L104.5,380c-13,7.5-13,19.8,0,27.3L219,473.4
						c13,7.5,34.3,7.5,47.3,0l114.5-66.1c13-7.5,13-19.8,0-27.3L266.3,313.9z"/>
					<path class="st14" d="M266.1,314.3c-12.9-7.5-34.1-7.5-47,0L105.2,380c-12.9,7.5-12.9,19.7,0,27.1L219.1,473
						c12.9,7.5,34.1,7.5,47,0l113.9-65.8c12.9-7.5,12.9-19.7,0-27.1L266.1,314.3z"/>
					<path class="st15" d="M266,314.7c-12.9-7.4-33.9-7.4-46.8,0l-113.4,65.4c-12.9,7.4-12.9,19.6,0,27l113.4,65.4
						c12.9,7.4,33.9,7.4,46.8,0l113.3-65.4c12.9-7.4,12.9-19.6,0-27L266,314.7z"/>
					<path class="st16" d="M265.9,315.1c-12.8-7.4-33.8-7.4-46.6,0l-112.8,65.1c-12.8,7.4-12.8,19.5,0,26.9l112.8,65.1
						c12.8,7.4,33.8,7.4,46.6,0l112.8-65.1c12.8-7.4,12.8-19.5,0-26.9L265.9,315.1z"/>
					<path class="st17" d="M265.8,315.5c-12.7-7.4-33.6-7.4-46.3,0l-112.2,64.8c-12.7,7.4-12.7,19.4,0,26.7l112.2,64.8
						c12.7,7.4,33.6,7.4,46.3,0L378,407c12.7-7.4,12.7-19.4,0-26.7L265.8,315.5z"/>
					<path class="st18" d="M265.7,315.9c-12.7-7.3-33.4-7.3-46.1,0l-111.6,64.5c-12.7,7.3-12.7,19.3,0,26.6l111.6,64.5
						c12.7,7.3,33.4,7.3,46.1,0l111.6-64.5c12.7-7.3,12.7-19.3,0-26.6L265.7,315.9z"/>
					<path class="st19" d="M265.5,316.2c-12.6-7.3-33.2-7.3-45.8,0l-111.1,64.1c-12.6,7.3-12.6,19.2,0,26.5L219.7,471
						c12.6,7.3,33.2,7.3,45.8,0l111.1-64.1c12.6-7.3,12.6-19.2,0-26.5L265.5,316.2z"/>
					<path class="st20" d="M265.4,316.6c-12.5-7.2-33.1-7.2-45.6,0l-110.5,63.8c-12.5,7.2-12.5,19.1,0,26.3l110.5,63.8
						c12.5,7.2,33.1,7.2,45.6,0l110.5-63.8c12.5-7.2,12.5-19.1,0-26.3L265.4,316.6z"/>
					<path class="st21" d="M265.3,317c-12.5-7.2-32.9-7.2-45.4,0L110,380.5c-12.5,7.2-12.5,19,0,26.2l109.9,63.5
						c12.5,7.2,32.9,7.2,45.4,0l109.9-63.5c12.5-7.2,12.5-19,0-26.2L265.3,317z"/>
					<path class="st22" d="M265.2,317.4c-12.4-7.2-32.7-7.2-45.1,0l-109.4,63.1c-12.4,7.2-12.4,18.9,0,26.1L220,469.8
						c12.4,7.2,32.7,7.2,45.1,0l109.4-63.1c12.4-7.2,12.4-18.9,0-26.1L265.2,317.4z"/>
					<path class="st23" d="M265.1,317.8c-12.4-7.1-32.6-7.1-44.9,0l-108.8,62.8c-12.4,7.1-12.4,18.8,0,25.9l108.8,62.8
						c12.4,7.1,32.6,7.1,44.9,0l108.8-62.8c12.4-7.1,12.4-18.8,0-25.9L265.1,317.8z"/>
					<path class="st24" d="M265,318.2c-12.3-7.1-32.4-7.1-44.7,0L112,380.7c-12.3,7.1-12.3,18.7,0,25.8L220.3,469
						c12.3,7.1,32.4,7.1,44.7,0l108.2-62.5c12.3-7.1,12.3-18.7,0-25.8L265,318.2z"/>
					<path class="st25" d="M264.8,318.6c-12.2-7.1-32.2-7.1-44.4,0l-107.7,62.2c-12.2,7.1-12.2,18.6,0,25.7l107.7,62.2
						c12.2,7.1,32.2,7.1,44.4,0l107.7-62.2c12.2-7.1,12.2-18.6,0-25.7L264.8,318.6z"/>
					<path class="st26" d="M264.7,319c-12.2-7-32.1-7-44.2,0l-107.1,61.8c-12.2,7-12.2,18.5,0,25.5l107.1,61.8c12.2,7,32.1,7,44.2,0
						l107.1-61.8c12.2-7,12.2-18.5,0-25.5L264.7,319z"/>
					<path class="st27" d="M264.6,319.4c-12.1-7-31.9-7-44,0l-106.5,61.5c-12.1,7-12.1,18.4,0,25.4l106.5,61.5c12.1,7,31.9,7,44,0
						l106.5-61.5c12.1-7,12.1-18.4,0-25.4L264.6,319.4z"/>
					<path class="st28" d="M264.5,319.8c-12-6.9-31.7-6.9-43.7,0l-106,61.2c-12,6.9-12,18.3,0,25.3l106,61.2c12,6.9,31.7,6.9,43.7,0
						l106-61.2c12-6.9,12-18.3,0-25.3L264.5,319.8z"/>
					<path class="st29" d="M264.4,320.2c-12-6.9-31.5-6.9-43.5,0l-105.4,60.8c-12,6.9-12,18.2,0,25.1L220.9,467
						c12,6.9,31.5,6.9,43.5,0l105.4-60.8c12-6.9,12-18.2,0-25.1L264.4,320.2z"/>
					<path class="st30" d="M264.3,320.6c-11.9-6.9-31.4-6.9-43.3,0l-104.8,60.5c-11.9,6.9-11.9,18.1,0,25L221,466.6
						c11.9,6.9,31.4,6.9,43.3,0l104.8-60.5c11.9-6.9,11.9-18.1,0-25L264.3,320.6z"/>
					<path class="st31" d="M264.1,321c-11.8-6.8-31.2-6.8-43,0l-104.3,60.2c-11.8,6.8-11.8,18,0,24.8l104.3,60.2
						c11.8,6.8,31.2,6.8,43,0L368.4,406c11.8-6.8,11.8-18,0-24.8L264.1,321z"/>
					<path class="st32" d="M264,321.4c-11.8-6.8-31-6.8-42.8,0l-103.7,59.9c-11.8,6.8-11.8,17.9,0,24.7l103.7,59.9
						c11.8,6.8,31,6.8,42.8,0L367.7,406c11.8-6.8,11.8-17.9,0-24.7L264,321.4z"/>
					<path class="st33" d="M263.9,321.8c-11.7-6.8-30.9-6.8-42.6,0l-103.1,59.5c-11.7,6.8-11.7,17.8,0,24.6l103.1,59.5
						c11.7,6.8,30.9,6.8,42.6,0L367,405.9c11.7-6.8,11.7-17.8,0-24.6L263.9,321.8z"/>
					<path class="st34" d="M263.8,322.2c-11.6-6.7-30.7-6.7-42.3,0l-102.6,59.2c-11.6,6.7-11.6,17.7,0,24.4L221.5,465
						c11.6,6.7,30.7,6.7,42.3,0l102.5-59.2c11.6-6.7,11.6-17.7,0-24.4L263.8,322.2z"/>
					<path class="st35" d="M263.7,322.6c-11.6-6.7-30.5-6.7-42.1,0l-102,58.9c-11.6,6.7-11.6,17.6,0,24.3l102,58.9
						c11.6,6.7,30.5,6.7,42.1,0l102-58.9c11.6-6.7,11.6-17.6,0-24.3L263.7,322.6z"/>
					<path class="st36" d="M263.6,323c-11.5-6.6-30.3-6.6-41.9,0l-101.4,58.6c-11.5,6.6-11.5,17.5,0,24.2l101.4,58.6
						c11.5,6.6,30.3,6.6,41.9,0L365,405.7c11.5-6.6,11.5-17.5,0-24.2L263.6,323z"/>
					<path class="st37" d="M263.4,323.4c-11.4-6.6-30.2-6.6-41.6,0L121,381.6c-11.4,6.6-11.4,17.4,0,24l100.8,58.2
						c11.4,6.6,30.2,6.6,41.6,0l100.8-58.2c11.4-6.6,11.4-17.4,0-24L263.4,323.4z"/>
					<path class="st38" d="M263.3,323.8c-11.4-6.6-30-6.6-41.4,0l-100.3,57.9c-11.4,6.6-11.4,17.3,0,23.9l100.3,57.9
						c11.4,6.6,30,6.6,41.4,0l100.3-57.9c11.4-6.6,11.4-17.3,0-23.9L263.3,323.8z"/>
					<path class="st39" d="M263.2,324.2c-11.3-6.5-29.8-6.5-41.2,0l-99.7,57.6c-11.3,6.5-11.3,17.2,0,23.8l99.7,57.6
						c11.3,6.5,29.8,6.5,41.2,0l99.7-57.6c11.3-6.5,11.3-17.2,0-23.8L263.2,324.2z"/>
					<path class="st40" d="M263.1,324.6c-11.3-6.5-29.7-6.5-40.9,0L123,381.8c-11.3,6.5-11.3,17.1,0,23.6l99.1,57.2
						c11.3,6.5,29.7,6.5,40.9,0l99.1-57.2c11.3-6.5,11.3-17.1,0-23.6L263.1,324.6z"/>
					<path class="st41" d="M263,325c-11.2-6.5-29.5-6.5-40.7,0l-98.6,56.9c-11.2,6.5-11.2,17,0,23.5l98.6,56.9
						c11.2,6.5,29.5,6.5,40.7,0l98.6-56.9c11.2-6.5,11.2-17,0-23.5L263,325z"/>
					<path class="st42" d="M262.8,325.4c-11.1-6.4-29.3-6.4-40.5,0l-98,56.6c-11.1,6.4-11.1,16.9,0,23.4l98,56.6
						c11.1,6.4,29.3,6.4,40.5,0l98-56.6c11.1-6.4,11.1-16.9,0-23.4L262.8,325.4z"/>
					<path class="st43" d="M262.7,325.7c-11.1-6.4-29.2-6.4-40.2,0L125.1,382c-11.1,6.4-11.1,16.8,0,23.2l97.4,56.3
						c11.1,6.4,29.2,6.4,40.2,0l97.4-56.3c11.1-6.4,11.1-16.8,0-23.2L262.7,325.7z"/>
					<path class="st44" d="M262.6,326.1c-11-6.3-29-6.3-40,0l-96.9,55.9c-11,6.3-11,16.7,0,23.1l96.9,55.9c11,6.3,29,6.3,40,0
						l96.9-55.9c11-6.3,11-16.7,0-23.1L262.6,326.1z"/>
					<path class="st45" d="M262.5,326.5c-10.9-6.3-28.8-6.3-39.7,0l-96.3,55.6c-10.9,6.3-10.9,16.6,0,22.9l96.3,55.6
						c10.9,6.3,28.8,6.3,39.7,0l96.3-55.6c10.9-6.3,10.9-16.6,0-22.9L262.5,326.5z"/>
					<path class="st46" d="M262.4,326.9c-10.9-6.3-28.6-6.3-39.5,0l-95.7,55.3c-10.9,6.3-10.9,16.5,0,22.8l95.7,55.3
						c10.9,6.3,28.6,6.3,39.5,0l95.7-55.3c10.9-6.3,10.9-16.5,0-22.8L262.4,326.9z"/>
					<path class="st47" d="M262.3,327.3c-10.8-6.2-28.5-6.2-39.3,0l-95.2,54.9c-10.8,6.2-10.8,16.4,0,22.7l95.2,54.9
						c10.8,6.2,28.5,6.2,39.3,0l95.2-54.9c10.8-6.2,10.8-16.4,0-22.7L262.3,327.3z"/>
					<path class="st48" d="M262.1,327.7c-10.7-6.2-28.3-6.2-39,0l-94.6,54.6c-10.7,6.2-10.7,16.3,0,22.5l94.6,54.6
						c10.7,6.2,28.3,6.2,39,0l94.6-54.6c10.7-6.2,10.7-16.3,0-22.5L262.1,327.7z"/>
					<path class="st49" d="M262,328.1c-10.7-6.2-28.1-6.2-38.8,0l-94,54.3c-10.7,6.2-10.7,16.2,0,22.4l94,54.3
						c10.7,6.2,28.1,6.2,38.8,0l94-54.3c10.7-6.2,10.7-16.2,0-22.4L262,328.1z"/>
					<path class="st50" d="M261.9,328.5c-10.6-6.1-28-6.1-38.6,0l-93.5,54c-10.6,6.1-10.6,16.1,0,22.3l93.5,54
						c10.6,6.1,28,6.1,38.6,0l93.5-54c10.6-6.1,10.6-16.1,0-22.3L261.9,328.5z"/>
					<path class="st51" d="M261.8,328.9c-10.5-6.1-27.8-6.1-38.3,0l-92.9,53.6c-10.5,6.1-10.5,16,0,22.1l92.9,53.6
						c10.5,6.1,27.8,6.1,38.3,0l92.9-53.6c10.5-6.1,10.5-16,0-22.1L261.8,328.9z"/>
					<path class="st52" d="M261.7,329.3c-10.5-6-27.6-6-38.1,0l-92.3,53.3c-10.5,6.1-10.5,16,0,22l92.3,53.3
						c10.5,6.1,27.6,6.1,38.1,0l92.3-53.3c10.5-6,10.5-16,0-22L261.7,329.3z"/>
					<path class="st53" d="M261.6,329.7c-10.4-6-27.5-6-37.9,0l-91.8,53c-10.4,6-10.4,15.9,0,21.9l91.8,53c10.4,6,27.5,6,37.9,0
						l91.8-53c10.4-6,10.4-15.9,0-21.9L261.6,329.7z"/>
					<path class="st54" d="M261.4,330.1c-10.4-6-27.3-6-37.6,0l-91.2,52.6c-10.3,6-10.3,15.8,0,21.7l91.2,52.6c10.3,6,27.3,6,37.6,0
						l91.2-52.6c10.4-6,10.4-15.8,0-21.7L261.4,330.1z"/>
					<path class="st55" d="M261.3,330.5c-10.3-5.9-27.1-5.9-37.4,0l-90.6,52.3c-10.3,5.9-10.3,15.7,0,21.6l90.6,52.3
						c10.3,5.9,27.1,5.9,37.4,0l90.6-52.3c10.3-5.9,10.3-15.7,0-21.6L261.3,330.5z"/>
					<path class="st56" d="M261.2,330.9c-10.2-5.9-26.9-5.9-37.2,0l-90,52c-10.2,5.9-10.2,15.6,0,21.5l90,52
						c10.2,5.9,26.9,5.9,37.2,0l90-52c10.2-5.9,10.2-15.6,0-21.5L261.2,330.9z"/>
					<path id="XMLID_139_" class="st57" d="M261.1,331.3c-10.2-5.9-26.8-5.9-36.9,0L134.7,383c-10.2,5.9-10.2,15.5,0,21.3l89.5,51.7
						c10.2,5.9,26.8,5.9,36.9,0l89.5-51.7c10.2-5.9,10.2-15.5,0-21.3L261.1,331.3z"/>
				</g>
				<linearGradient id="XMLID_2_" gradientUnits="userSpaceOnUse" x1="103.7943" y1="391.9753" x2="381.4505" y2="391.9753">
					<stop  offset="0" style="stop-color:#B4ACBF"/>
					<stop  offset="0.5146" style="stop-color:#D1C8DE"/>
					<stop  offset="1" style="stop-color:#F0E5FF"/>
				</linearGradient>
				<path id="XMLID_1219_" class="st58" d="M237,311.9l-133.3,73.6v7.8c0,1.1,0.6,2,1.5,2.6L237,472.1c3.4,2,7.7,2,11.1,0L379.8,396
					c1-0.6,1.7-1.7,1.7-2.9v-7.6l-133.3-73.6C244.7,309.9,240.5,309.9,237,311.9z"/>
				<linearGradient id="XMLID_3_" gradientUnits="userSpaceOnUse" x1="103.7942" y1="385.4825" x2="381.4505" y2="385.4825">
					<stop  offset="0" style="stop-color:#F0E5FF"/>
					<stop  offset="1" style="stop-color:#FFFFFF"/>
				</linearGradient>
				<path id="XMLID_1218_" class="st59" d="M237,305.4l-130.5,75.3c-3.7,2.1-3.7,7.4,0,9.5L237,465.6c3.4,2,7.7,2,11.1,0l130.5-75.3
					c3.7-2.1,3.7-7.4,0-9.5l-130.5-75.3C244.7,303.4,240.5,303.4,237,305.4z"/>
				<linearGradient id="XMLID_4_" gradientUnits="userSpaceOnUse" x1="149.1846" y1="385.4825" x2="336.0601" y2="385.4825">
					<stop  offset="0" style="stop-color:#B4ACBF"/>
					<stop  offset="0.4563" style="stop-color:#F0E5FF"/>
					<stop  offset="0.4864" style="stop-color:#F9F5FF"/>
					<stop  offset="0.5019" style="stop-color:#FFFFFF"/>
				</linearGradient>
				<path id="XMLID_1217_" class="st60" d="M238.8,330l-69.7,0.3L149.4,385c-0.6,2.2,0.3,4.6,2.3,5.8l87,50.3c2.4,1.4,5.3,1.4,7.7,0
					l87-50.3c2-1.2,3-3.5,2.3-5.8l-19.7-54.7l-69.7-0.3C244.1,328.6,241.1,328.6,238.8,330z"/>
				<linearGradient id="XMLID_5_" gradientUnits="userSpaceOnUse" x1="156.2959" y1="381.4136" x2="328.9488" y2="381.4136">
					<stop  offset="0" style="stop-color:#1D073F"/>
					<stop  offset="0.4563" style="stop-color:#2F1359"/>
					<stop  offset="0.4734" style="stop-color:#371669"/>
					<stop  offset="0.5019" style="stop-color:#491E8C"/>
				</linearGradient>
				<path id="XMLID_1216_" class="st61" d="M321.6,345.2l-75.4,43.6c-2.2,1.3-4.9,1.3-7.1,0l-75.4-43.6l-7.1,19.8
					c-0.6,2.1,0.3,4.3,2.2,5.3l80.4,46.4c2.2,1.3,4.9,1.3,7.1,0l80.4-46.4c1.9-1.1,2.7-3.3,2.2-5.3L321.6,345.2z"/>
				<linearGradient id="XMLID_6_" gradientUnits="userSpaceOnUse" x1="169.0887" y1="330.2936" x2="316.156" y2="330.2936">
					<stop  offset="0" style="stop-color:#F0E5FF"/>
					<stop  offset="1" style="stop-color:#FFFFFF"/>
				</linearGradient>
				<path id="XMLID_1215_" class="st62" d="M239.7,287.9l-69.1,39.9c-1.9,1.1-1.9,3.9,0,5.1l69.1,39.9c1.8,1.1,4.1,1.1,5.9,0
					l69.1-39.9c1.9-1.1,1.9-3.9,0-5.1l-69.1-39.9C243.7,286.8,241.5,286.8,239.7,287.9z"/>
				<linearGradient id="XMLID_7_" gradientUnits="userSpaceOnUse" x1="182.3121" y1="330.2936" x2="302.9327" y2="330.2936">
					<stop  offset="0" style="stop-color:#2F1359"/>
					<stop  offset="1" style="stop-color:#491E8C"/>
				</linearGradient>
				<path id="XMLID_1214_" class="st63" d="M240.2,295.5l-56.7,32.7c-1.6,0.9-1.6,3.2,0,4.1l56.7,32.7c1.5,0.9,3.3,0.9,4.8,0
					l56.7-32.7c1.6-0.9,1.6-3.2,0-4.1L245,295.5C243.5,294.6,241.7,294.6,240.2,295.5z"/>
				<path id="XMLID_1213_" class="st64" d="M240.7,302.9L196,328.7c-1.3,0.7-1.3,2.5,0,3.3l44.7,25.8c1.2,0.7,2.6,0.7,3.8,0
					l44.7-25.8c1.3-0.7,1.3-2.5,0-3.3l-44.7-25.8C243.3,302.2,241.9,302.2,240.7,302.9z"/>
				<path id="XMLID_1211_" class="st64" d="M301.7,330.7L245,363.5c-1.5,0.9-3.3,0.9-4.8,0l-56.7-32.7c-0.5-0.3-0.9-0.8-1-1.3
					c-0.4,1,0,2.3,1,2.9l56.7,32.7c1.5,0.9,3.3,0.9,4.8,0l56.7-32.7c1.1-0.6,1.4-1.9,1-2.9C302.6,330,302.3,330.4,301.7,330.7z"/>
				<linearGradient id="XMLID_8_" gradientUnits="userSpaceOnUse" x1="165.0722" y1="367.202" x2="190.0571" y2="367.202">
					<stop  offset="0" style="stop-color:#FFA744"/>
					<stop  offset="0.1634" style="stop-color:#FFA948"/>
					<stop  offset="0.3328" style="stop-color:#FFAF55"/>
					<stop  offset="0.5049" style="stop-color:#FFB969"/>
					<stop  offset="0.6789" style="stop-color:#FFC786"/>
					<stop  offset="0.8526" style="stop-color:#FFD9AB"/>
					<stop  offset="1" style="stop-color:#FFEBD1"/>
				</linearGradient>
				<path id="XMLID_1205_" class="st65" d="M170.6,353l3,1.7l-5.6,15.6l-3-1.7L170.6,353z M169.9,371.4l3,1.7l4.3-12.2l-3-1.7
					L169.9,371.4z M174.8,374.2l3,1.7l3.1-8.7l-3-1.7L174.8,374.2z M179.7,377l3,1.7l4.9-13.7l-3-1.7L179.7,377z M184.6,379.7l3,1.7
					l2.5-6.9l-3-1.7L184.6,379.7z"/>
				
					<linearGradient id="XMLID_9_" gradientUnits="userSpaceOnUse" x1="822.4191" y1="392.2669" x2="857.0073" y2="392.2669" gradientTransform="matrix(1 0 0 1 -573.5213 0)">
					<stop  offset="0" style="stop-color:#FFA744"/>
					<stop  offset="0.1634" style="stop-color:#FFA948"/>
					<stop  offset="0.3328" style="stop-color:#FFAF55"/>
					<stop  offset="0.5049" style="stop-color:#FFB969"/>
					<stop  offset="0.6789" style="stop-color:#FFC786"/>
					<stop  offset="0.8526" style="stop-color:#FFD9AB"/>
					<stop  offset="1" style="stop-color:#FFEBD1"/>
				</linearGradient>
				<path id="XMLID_1204_" class="st66" d="M278.8,376.1c0,0.2-1,1.1-1.2,1.4c-0.4,0.5-0.8,1-1.2,1.5c-0.7,0.9-0.9,2.2-1.5,3.3
					c-0.6,1-1.5,1.9-2.6,2.3c-0.8,0.3-1.6,0.3-2.4,0.4c-0.8,0.1-1.6,0.2-2.3,0.6c-1.5,0.8-1.6,3-2,4.4c-0.2,0.7-0.4,1.4-0.9,1.9
					c-0.4,0.5-1.1,0.9-1.7,1.2c-0.6,0.3-1.2,0.6-1.8,0.7c-1.2,0.3-2.6,0.1-3.8,0.2c-1.9,0.2-3.7,1.2-4.8,2.8
					c-0.4,0.6-0.8,1.2-1.1,1.8c-0.6,1-1.2,1.9-1.9,2.8c-0.6,0.7-0.6,1.1-0.5,2l1.9,5.3l32.7-19.2L278.8,376.1z"/>
				<polygon id="XMLID_1203_" class="st67" points="199,369.4 210.3,375.9 209.6,378.1 198.2,371.5 				"/>
				<g id="XMLID_1184_">
					<polygon id="XMLID_1202_" class="st67" points="196.9,375 208,381.4 207.6,382.5 196.5,376.1 					"/>
					<polygon id="XMLID_1201_" class="st68" points="209,382 212.1,383.8 211.7,384.9 208.6,383.1 					"/>
					<polygon id="XMLID_1200_" class="st68" points="214.8,388.6 216.1,389.4 215.7,390.5 214.4,389.7 					"/>
					<polygon id="XMLID_1199_" class="st68" points="216.8,389.8 218.1,390.6 217.7,391.7 216.4,390.9 					"/>
					<polygon id="XMLID_1198_" class="st67" points="196,377.7 201.8,381.1 201.4,382.2 195.6,378.8 					"/>
					<polygon id="XMLID_1197_" class="st67" points="203,381.8 214.1,388.2 213.7,389.3 202.6,382.9 					"/>
					<polygon id="XMLID_1196_" class="st67" points="208.1,388 219.2,394.3 218.8,395.5 207.7,389.1 					"/>
					<polygon id="XMLID_1195_" class="st67" points="220,394.8 229,400 228.6,401.1 219.6,395.9 					"/>
					<polygon id="XMLID_1194_" class="st67" points="218.9,391.1 230,397.4 229.6,398.6 218.5,392.2 					"/>
					<polygon id="XMLID_1193_" class="st67" points="213.5,384.6 219.3,388 218.9,389.1 213.1,385.7 					"/>
					<polygon id="XMLID_1192_" class="st67" points="220.2,388.5 230.9,394.7 230.5,395.8 219.8,389.6 					"/>
					<polygon id="XMLID_1191_" class="st67" points="195,380.4 197.4,381.8 197,382.9 194.6,381.5 					"/>
					<polygon id="XMLID_1190_" class="st68" points="204.7,386 207.1,387.4 206.7,388.5 204.3,387.1 					"/>
					<polygon id="XMLID_1189_" class="st68" points="198.1,382.2 204,385.6 203.6,386.7 197.7,383.3 					"/>
					<polygon id="XMLID_1188_" class="st68" points="213.4,394.2 219.3,397.5 218.9,398.7 213,395.3 					"/>
					<polygon id="XMLID_1187_" class="st68" points="219.9,397.9 228.1,402.6 227.7,403.7 219.5,399 					"/>
					<polygon id="XMLID_1186_" class="st67" points="194,383 199.9,386.4 199.5,387.5 193.6,384.1 					"/>
					<polygon id="XMLID_1185_" class="st67" points="201,387 212.3,393.5 211.9,394.6 200.6,388.1 					"/>
				</g>
				<g id="XMLID_1170_">
					<polygon id="XMLID_1183_" class="st68" points="307.4,363.5 304.3,365.3 304.7,366.4 307.8,364.6 					"/>
					<polygon id="XMLID_1182_" class="st68" points="301.6,370.1 300.3,370.9 300.7,372 302,371.2 					"/>
					<polygon id="XMLID_1181_" class="st68" points="299.6,371.3 298.3,372.1 298.7,373.2 300,372.4 					"/>
					<polygon id="XMLID_1180_" class="st67" points="308.4,366.1 302.3,369.7 302.7,370.8 308.8,367.2 					"/>
					<polygon id="XMLID_1179_" class="st67" points="309.4,368.9 297.2,375.9 297.6,377 309.8,370 					"/>
					<polygon id="XMLID_1178_" class="st67" points="296.4,376.3 287.4,381.5 287.8,382.6 296.8,377.4 					"/>
					<polygon id="XMLID_1177_" class="st67" points="297.5,372.6 286.4,378.9 286.8,380.1 297.9,373.7 					"/>
					<polygon id="XMLID_1176_" class="st67" points="302.9,366.1 297.1,369.5 297.5,370.6 303.3,367.2 					"/>
					<polygon id="XMLID_1175_" class="st67" points="296.2,370 285.5,376.2 285.9,377.3 296.6,371.1 					"/>
					<polygon id="XMLID_1174_" class="st68" points="303.6,375.3 300.8,377 301.2,378.1 304,376.4 					"/>
					<polygon id="XMLID_1173_" class="st68" points="300.2,377.3 299.5,377.7 299.9,378.8 300.6,378.4 					"/>
					<polygon id="XMLID_1172_" class="st67" points="298.6,378.2 288.3,384.1 288.7,385.3 299,379.3 					"/>
					<polygon id="XMLID_1171_" class="st67" points="310.3,371.4 304.1,375 304.5,376.1 310.7,372.6 					"/>
				</g>
				<g id="XMLID_1163_">
					<g id="XMLID_1166_">
						<path id="XMLID_1167_" class="st69" d="M317.1,369.4c-0.7,0-1.4-0.2-2.1-0.5c-1.2-0.7-2.2-1.9-2.5-3.4c-0.7-2.9,0.8-6,3.4-7
							c1.2-0.5,2.5-0.4,3.7,0.2c1.2,0.7,2.2,1.9,2.5,3.4l0,0c0.7,2.9-0.8,6-3.4,7C318.1,369.3,317.6,369.4,317.1,369.4z
							 M317.5,360.2c-0.3,0-0.6,0.1-0.9,0.2c-1.7,0.6-2.7,2.7-2.2,4.7c0.2,1,0.8,1.8,1.6,2.2c0.6,0.3,1.4,0.4,2.1,0.1
							c1.7-0.6,2.7-2.7,2.2-4.7l0,0c-0.2-1-0.8-1.8-1.6-2.2C318.3,360.3,317.9,360.2,317.5,360.2z"/>
					</g>
					<g id="XMLID_1164_">
						<linearGradient id="XMLID_10_" gradientUnits="userSpaceOnUse" x1="312.4547" y1="363.8327" x2="322.2389" y2="363.8327">
							<stop  offset="0" style="stop-color:#FFA744"/>
							<stop  offset="0.1634" style="stop-color:#FFA948"/>
							<stop  offset="0.3328" style="stop-color:#FFAF55"/>
							<stop  offset="0.5049" style="stop-color:#FFB969"/>
							<stop  offset="0.6789" style="stop-color:#FFC786"/>
							<stop  offset="0.8526" style="stop-color:#FFD9AB"/>
							<stop  offset="1" style="stop-color:#FFEBD1"/>
						</linearGradient>
						<path id="XMLID_1165_" class="st70" d="M317.1,369.4c-0.7,0-1.4-0.2-2.1-0.5c-1.2-0.7-2.2-1.9-2.5-3.4c-0.1-0.5,0.2-1,0.7-1.2
							c0.5-0.1,1,0.2,1.2,0.7c0.2,1,0.8,1.8,1.6,2.2c0.6,0.3,1.4,0.4,2.1,0.1c1.7-0.6,2.7-2.7,2.2-4.7c-0.2-1-0.8-1.8-1.6-2.2
							c-0.6-0.3-1.4-0.4-2.1-0.1c-0.5,0.2-1.1-0.1-1.2-0.6c-0.2-0.5,0.1-1.1,0.6-1.2c1.2-0.5,2.5-0.4,3.7,0.2
							c1.2,0.7,2.2,1.9,2.5,3.4c0.7,2.9-0.8,6-3.4,7C318.1,369.3,317.6,369.4,317.1,369.4z"/>
					</g>
				</g>
				<g>
					
						<radialGradient id="SVGID_6_" cx="260.7966" cy="308.7552" r="73.0485" gradientTransform="matrix(1.0487 0 0 1.0489 -30.9859 -154.4354)" gradientUnits="userSpaceOnUse">
						<stop  offset="0" style="stop-color:#491E8C"/>
						<stop  offset="1" style="stop-color:#9452FF"/>
					</radialGradient>
					<ellipse class="st71" cx="242.5" cy="169.4" rx="76.6" ry="76.6"/>
					<g>
						
							<radialGradient id="SVGID_7_" cx="260.4961" cy="308.7552" r="69.1981" gradientTransform="matrix(1.0487 0 0 1.0489 -30.9859 -154.4354)" gradientUnits="userSpaceOnUse">
							<stop  offset="0" style="stop-color:#251440"/>
							<stop  offset="1" style="stop-color:#491E8C"/>
						</radialGradient>
						<path class="st72" d="M243.6,107.7c8.3,0,16.4,1.6,24,4.8c7.4,3.1,14,7.6,19.6,13.3c5.7,5.7,10.2,12.2,13.3,19.6
							c3.2,7.6,4.8,15.7,4.8,24c0,8.3-1.6,16.4-4.8,24c-3.1,7.4-7.6,14-13.3,19.6c-5.7,5.7-12.2,10.2-19.6,13.3
							c-7.6,3.2-15.7,4.8-24,4.8c-8.3,0-16.4-1.6-24-4.8c-7.4-3.1-14-7.6-19.6-13.3c-5.7-5.7-10.2-12.2-13.3-19.6
							c-3.2-7.6-4.8-15.7-4.8-24c0-8.3,1.6-16.4,4.8-24c3.1-7.4,7.6-14,13.3-19.6c5.7-5.7,12.2-10.2,19.6-13.3
							C227.2,109.3,235.3,107.7,243.6,107.7 M242.2,96.8c-40,0-72.6,32.5-72.6,72.6s32.5,72.6,72.6,72.6s72.6-32.5,72.6-72.6
							S282.2,96.8,242.2,96.8L242.2,96.8z"/>
						<g class="st73">
							<ellipse class="st74" cx="243.6" cy="169.4" rx="61.6" ry="61.7"/>
						</g>
						<g id="Brandmark_95_">
							<ellipse id="Core-1_96_" class="st75" cx="243.6" cy="149.4" rx="7.2" ry="7.2"/>
							<ellipse id="Core-2_96_" class="st75" cx="222.7" cy="164.7" rx="7.2" ry="7.2"/>
							<ellipse id="Core-3_96_" class="st75" cx="264.5" cy="164.7" rx="7.2" ry="7.2"/>
							<ellipse id="Core-4_96_" class="st75" cx="230.7" cy="189.2" rx="7.2" ry="7.2"/>
							<ellipse id="Core-5_96_" class="st75" cx="256.4" cy="189.2" rx="7.2" ry="7.2"/>
							<path id="Center_95_" class="st76" d="M247.4,189.2c0-2.4,0.9-4.7,2.7-6.5c1.7-1.7,4-2.7,6.5-2.7c2.3,0,4.4,0.8,6,2.4
								c1.5-2.7,2.5-5.7,2.9-8.8c-0.3,0-0.6,0.1-1,0.1c-2.4,0-4.7-0.9-6.5-2.7c-1.7-1.7-2.7-4-2.7-6.5s0.9-4.6,2.7-6.5
								c0.6-0.6,1.3-1,2-1.5c-2.1-2.3-4.6-4.3-7.5-5.4c-0.3,1.7-1.3,3.3-2.4,4.5c-1.7,1.7-4,2.7-6.5,2.7s-4.6-0.9-6.5-2.7
								c-1.3-1.3-2.1-2.9-2.4-4.5c-2.9,1.3-5.4,3.1-7.5,5.4c0.7,0.3,1.3,0.8,2,1.5c1.7,1.7,2.7,4,2.7,6.5s-0.9,4.6-2.7,6.5
								c-1.7,1.8-4,2.7-6.5,2.7c-0.3,0-0.6,0-1-0.1c0.3,3.2,1.3,6.2,2.9,8.8c1.7-1.5,3.8-2.4,6-2.4c2.4,0,4.6,0.9,6.5,2.7
								c1.7,1.7,2.7,4,2.7,6.5c0,1.3-0.3,2.5-0.8,3.7c1.5,0.3,3.1,0.5,4.6,0.5c1.5,0,3.1-0.1,4.7-0.5
								C247.7,191.8,247.4,190.5,247.4,189.2z"/>
							<path id="Circles_95_" class="st76" d="M289.3,154.3c-1.4-3.2-3.3-6-5.8-8.5c-2.4-2.4-5.3-4.5-8.5-5.8
								c-2.2-0.9-4.5-1.5-6.8-1.8c-1.3-2.9-3.1-5.3-5.3-7.5c-2.4-2.4-5.3-4.5-8.5-5.8c-3.3-1.4-6.8-2.2-10.5-2.2
								c-3.7,0-7.2,0.7-10.5,2.2c-3.2,1.4-6,3.3-8.5,5.8c-2.2,2.2-4,4.6-5.3,7.5c-2.5,0.3-4.8,0.9-7.3,2c-3.2,1.4-6,3.3-8.5,5.8
								c-2.4,2.4-4.5,5.3-5.8,8.5c-1.4,3.3-2.2,6.8-2.2,10.5c0,3.6,0.7,7.2,2.2,10.5c1.4,3.2,3.3,6,5.8,8.5c0.1,0.1,0.3,0.3,0.6,0.6
								c-0.3,1.6-0.5,3.3-0.5,5c0,3.6,0.7,7.2,2.2,10.5c1.4,3.2,3.3,6,5.8,8.5c2.4,2.4,5.3,4.5,8.5,5.8c3.3,1.4,6.8,2.2,10.5,2.2
								c3.7,0,7.2-0.7,10.5-2.2c0.8-0.3,1.6-0.8,2.4-1.2c0.8,0.5,1.6,0.8,2.4,1.2c3.3,1.4,6.8,2.2,10.5,2.2c3.6,0,7.2-0.7,10.5-2.2
								c3.2-1.4,6-3.3,8.5-5.8c2.4-2.4,4.5-5.3,5.8-8.5c1.4-3.3,2.2-6.8,2.2-10.5c0-1.7-0.1-3.3-0.5-5c0.2-0.2,0.3-0.3,0.6-0.6
								c2.4-2.4,4.5-5.3,5.8-8.5c1.4-3.3,2.2-6.8,2.2-10.5C291.4,161.1,290.7,157.5,289.3,154.3z M287.2,174.2
								c-1.2,2.8-2.9,5.3-4.8,7.4c-0.3-1-0.6-2-1-3c-1.4-3.2-3.3-6-5.8-8.5c-0.8-0.8-1.7-1.6-2.7-2.3c-0.2,0.7-0.6,1.4-1,2
								c0.8,0.6,1.5,1.3,2.1,1.8c2.3,2.3,4,4.8,5.3,7.8c0.6,1.3,0.9,2.5,1.3,3.8c-2,1.7-4,3-6.5,4c-2.7,1.2-5.5,1.7-8.5,2
								c0,0.8-0.1,1.5-0.3,2.2c3.3-0.1,6.7-0.8,9.7-2.1c2.2-0.9,4.3-2.1,6-3.6c0.1,1,0.2,2.2,0.2,3.3c0,3.3-0.7,6.6-2,9.7
								c-1.3,2.9-3,5.5-5.3,7.8c-2.3,2.3-4.8,4-7.8,5.3c-3.1,1.3-6.2,2-9.7,2c-3.5,0-6.6-0.7-9.7-2c-0.3-0.1-0.7-0.3-1-0.5
								c1.4-0.9,2.7-2.1,3.9-3.2c2.4-2.4,4.5-5.3,5.8-8.5c0.2-0.5,0.3-0.9,0.6-1.5c-0.8,0-1.5-0.1-2.2-0.3c-0.1,0.3-0.2,0.7-0.3,1
								c-1.3,2.9-3,5.5-5.3,7.8c-1.4,1.4-2.9,2.7-4.6,3.6c-1.7-1-3.2-2.2-4.6-3.6c-2.3-2.3-4-4.8-5.3-7.8c-0.1-0.3-0.2-0.6-0.3-1
								c-0.7,0.2-1.5,0.3-2.2,0.3c0.1,0.5,0.3,1,0.6,1.5c1.4,3.2,3.3,6,5.8,8.5c1.3,1.3,2.5,2.3,3.9,3.2c-0.3,0.1-0.7,0.3-1,0.5
								c-3.1,1.3-6.2,2-9.7,2s-6.6-0.7-9.7-2c-2.9-1.3-5.5-3.1-7.8-5.3c-2.3-2.3-4-4.8-5.3-7.8c-1.3-3.1-2-6.2-2-9.7
								c0-1,0.1-2.2,0.2-3.3c1.8,1.5,3.9,2.7,6,3.6c3.1,1.3,6.3,2,9.7,2.1c-0.2-0.7-0.3-1.5-0.3-2.2c-3-0.1-5.8-0.8-8.5-2
								c-2.4-1-4.5-2.3-6.5-4c0.3-1.3,0.8-2.7,1.3-3.8c1.3-2.9,3-5.5,5.3-7.8c0.7-0.7,1.4-1.3,2.1-1.8c-0.5-0.6-0.8-1.3-1-2
								c-0.9,0.7-1.7,1.5-2.7,2.3c-2.4,2.4-4.5,5.3-5.8,8.5c-0.3,1-0.8,2-1,3c-2.1-2.2-3.8-4.6-4.8-7.4c-1.3-3.1-2-6.2-2-9.7
								c0-3.3,0.7-6.6,2-9.7c1.3-2.9,3-5.5,5.3-7.8s4.8-4,7.8-5.3c1.7-0.8,3.6-1.3,5.3-1.6c-1,2.9-1.6,6-1.6,9.2
								c0,2.5,0.3,5.1,1,7.5c0.6-0.3,1.3-0.7,2.1-0.9c-0.6-2.2-0.8-4.3-0.8-6.5c0-3.3,0.6-6.5,2-9.5c0.6-0.1,1.2-0.1,1.7-0.1
								c3.3,0,6.6,0.7,9.7,2c1.4,0.6,2.8,1.3,4,2.2c0.2-0.3,0.6-0.7,0.8-1c0.2-0.2,0.5-0.5,0.7-0.6c-1.5-1-3.1-2-4.7-2.7
								c-3.3-1.4-6.8-2.2-10.5-2.2c-0.2,0-0.5,0-0.7,0c1.2-2.1,2.7-4,4.3-5.8c2.3-2.3,4.8-4,7.8-5.3c3.1-1.3,6.2-2,9.7-2
								c3.3,0,6.6,0.7,9.7,2c2.9,1.3,5.5,3.1,7.8,5.3c1.7,1.7,3.1,3.6,4.3,5.8c-0.3,0-0.7,0-1,0c-3.6,0-7.2,0.7-10.5,2.2
								c-1.7,0.7-3.2,1.6-4.7,2.7c0.2,0.2,0.5,0.3,0.7,0.6c0.3,0.3,0.6,0.6,0.8,1c1.3-0.8,2.7-1.6,4-2.2c3.1-1.3,6.2-2,9.7-2
								c0.7,0,1.5,0,2.2,0.1c1.3,3,1.8,6.2,1.8,9.5c0,2.3-0.3,4.5-0.9,6.7c0.7,0.2,1.4,0.6,2,1c0.8-2.4,1.2-5.1,1.2-7.6
								c0-3.1-0.6-6.2-1.6-9.1c1.7,0.3,3.3,0.8,5,1.5c2.9,1.3,5.5,3.1,7.8,5.3c2.3,2.3,4,4.8,5.3,7.8c1.3,3.1,2,6.2,2,9.7
								C289.2,168,288.6,171.2,287.2,174.2z"/>
						</g>
					</g>
				</g>
				<linearGradient id="XMLID_11_" gradientUnits="userSpaceOnUse" x1="242.6224" y1="358.2308" x2="242.6224" y2="61.8579">
					<stop  offset="0" style="stop-color:#FFA744;stop-opacity:0.7"/>
					<stop  offset="4.740834e-02" style="stop-color:#FDAE59;stop-opacity:0.6668"/>
					<stop  offset="0.1611" style="stop-color:#FABC85;stop-opacity:0.5872"/>
					<stop  offset="0.2801" style="stop-color:#F7C9AA;stop-opacity:0.5039"/>
					<stop  offset="0.4031" style="stop-color:#F4D3C9;stop-opacity:0.4179"/>
					<stop  offset="0.5313" style="stop-color:#F2DBE1;stop-opacity:0.3281"/>
					<stop  offset="0.667" style="stop-color:#F1E1F2;stop-opacity:0.2331"/>
					<stop  offset="0.8154" style="stop-color:#F0E4FC;stop-opacity:0.1292"/>
					<stop  offset="1" style="stop-color:#F0E5FF;stop-opacity:0"/>
				</linearGradient>
				<path id="XMLID_1224_" class="st77" d="M123.1,61.9c0,0,71.9,268.1,72.1,268.9c0.1,0.5,0.4,0.9,0.9,1.2l44.7,25.8
					c1.2,0.7,2.6,0.7,3.8,0l44.7-25.8c0.4-0.3,0.7-0.7,0.9-1.1c0.2-0.8,72.1-269,72.1-269H123.1z"/>
				<g>
					<defs>
						<path id="XMLID_1226_" d="M240.7,302.9L196,328.7c-1.3,0.7-1.3,2.5,0,3.3l44.7,25.8c1.2,0.7,2.6,0.7,3.8,0l44.7-25.8
							c1.3-0.7,1.3-2.5,0-3.3l-44.7-25.8C243.3,302.2,241.9,302.2,240.7,302.9z"/>
					</defs>
					<clipPath id="XMLID_12_">
						<use xlink:href="#XMLID_1226_"  style="overflow:visible;"/>
					</clipPath>
					<radialGradient id="XMLID_13_" cx="242.6224" cy="332.3391" r="38.9811" gradientUnits="userSpaceOnUse">
						<stop  offset="0" style="stop-color:#FFFFFF"/>
						<stop  offset="1" style="stop-color:#FFA744"/>
					</radialGradient>
					<path id="XMLID_1223_" class="st78" d="M240.7,304.9L196,330.7c-1.3,0.7-1.3,2.5,0,3.3l44.7,25.8c1.2,0.7,2.6,0.7,3.8,0
						l44.7-25.8c1.3-0.7,1.3-2.5,0-3.3l-44.7-25.8C243.3,304.2,241.9,304.2,240.7,304.9z"/>
				</g>
				<g>
					<linearGradient id="XMLID_14_" gradientUnits="userSpaceOnUse" x1="242.6224" y1="325.2857" x2="242.6224" y2="288.2524">
						<stop  offset="0" style="stop-color:#FFFFFF;stop-opacity:0.7"/>
						<stop  offset="1" style="stop-color:#F0E5FF;stop-opacity:0"/>
					</linearGradient>
					<path id="XMLID_1230_" class="st79" d="M185.8,288.7c-1.5,0.9-1.5,3.1,0,4l54.5,31.5c1.4,0.8,3.2,0.8,4.7,0l54.5-31.5
						c1.5-0.9,1.5-3.1,0-4"/>
					<linearGradient id="XMLID_15_" gradientUnits="userSpaceOnUse" x1="242.6224" y1="292.4583" x2="242.6224" y2="248.9564">
						<stop  offset="0" style="stop-color:#FFFFFF;stop-opacity:0.7"/>
						<stop  offset="1" style="stop-color:#F0E5FF;stop-opacity:0"/>
					</linearGradient>
					<path id="XMLID_1212_" class="st80" d="M175.6,249.4c-1.8,1-1.8,3.7,0,4.7l64.3,37.1c1.7,1,3.8,1,5.5,0l64.3-37.1
						c1.8-1,1.8-3.7,0-4.7"/>
					<linearGradient id="XMLID_16_" gradientUnits="userSpaceOnUse" x1="242.6224" y1="259.3278" x2="242.6224" y2="209.2746">
						<stop  offset="0" style="stop-color:#FFFFFF;stop-opacity:0.7"/>
						<stop  offset="1" style="stop-color:#F0E5FF;stop-opacity:0"/>
					</linearGradient>
					<path id="XMLID_1227_" class="st81" d="M165.2,209.7c-2.1,1.2-2.1,4.2,0,5.4l74.2,42.8c2,1.1,4.4,1.1,6.3,0l74.2-42.8
						c2.1-1.2,2.1-4.2,0-5.4"/>
					<linearGradient id="XMLID_17_" gradientUnits="userSpaceOnUse" x1="242.6224" y1="217.3525" x2="242.6224" y2="159.0293">
						<stop  offset="0" style="stop-color:#FFFFFF;stop-opacity:0.7"/>
						<stop  offset="1" style="stop-color:#F0E5FF;stop-opacity:0"/>
					</linearGradient>
					<path id="XMLID_1228_" class="st82" d="M152.2,159.5c-2.4,1.4-2.4,4.9,0,6.3l86.7,50.1c2.3,1.3,5.1,1.3,7.4,0l86.7-50.1
						c2.4-1.4,2.4-4.9,0-6.3"/>
				</g>
			</g>
			<linearGradient id="SVGID_8_" gradientUnits="userSpaceOnUse" x1="124.5363" y1="449.051" x2="175.2929" y2="449.051">
				<stop  offset="0" style="stop-color:#FFA744"/>
				<stop  offset="0.2756" style="stop-color:#FBA443"/>
				<stop  offset="0.5612" style="stop-color:#EE9C3F"/>
				<stop  offset="0.8504" style="stop-color:#DA8F3A"/>
				<stop  offset="1" style="stop-color:#CC8636"/>
			</linearGradient>
			<path class="st83" d="M125.5,464.2l41.1-23.7c3.7-2.3,3.5-4.4,7.7-6.5"/>
			<linearGradient id="SVGID_9_" gradientUnits="userSpaceOnUse" x1="0.25" y1="428.2154" x2="126.5363" y2="428.2154">
				<stop  offset="0" style="stop-color:#F0E5FF;stop-opacity:0"/>
				<stop  offset="0.1102" style="stop-color:#F3D8D9;stop-opacity:0.1102"/>
				<stop  offset="0.261" style="stop-color:#F7C9AC;stop-opacity:0.261"/>
				<stop  offset="0.4128" style="stop-color:#FABD86;stop-opacity:0.4128"/>
				<stop  offset="0.5634" style="stop-color:#FCB369;stop-opacity:0.5634"/>
				<stop  offset="0.7123" style="stop-color:#FEAD55;stop-opacity:0.7123"/>
				<stop  offset="0.8587" style="stop-color:#FFA848;stop-opacity:0.8587"/>
				<stop  offset="1" style="stop-color:#FFA744"/>
			</linearGradient>
			<line class="st84" x1="1.2" y1="392.3" x2="125.5" y2="464.2"/>
		</g>
		<g>
			<path class="st85" d="M395.3,402l-3.2-7.8c-3.4-1-5.8-1.1-6.1,2.5l3.3,7.7L395.3,402z"/>
			<linearGradient id="SVGID_10_" gradientUnits="userSpaceOnUse" x1="387.6755" y1="409.28" x2="399.1471" y2="409.28">
				<stop  offset="0" style="stop-color:#491E8C"/>
				<stop  offset="0.4656" style="stop-color:#3A186E"/>
				<stop  offset="0.871" style="stop-color:#2F1359"/>
			</linearGradient>
			<path class="st86" d="M388.1,413.7l0.1-11.9c0.9-2.3,2.6-3.7,5.5-3.9c1.4,0.1,2.5,0.3,4.4,1.9c1.6,1.3,1.2,4.8,0.8,6.6l-3,8.2
				c-1.9,6-4.2,6.1-6.2,5.9l0,0C387.4,420.1,387.4,417.5,388.1,413.7z"/>
			<linearGradient id="SVGID_11_" gradientUnits="userSpaceOnUse" x1="357.7538" y1="362.895" x2="394.3481" y2="362.895">
				<stop  offset="0" style="stop-color:#1D073F"/>
				<stop  offset="0.4598" style="stop-color:#1C073C"/>
				<stop  offset="0.7624" style="stop-color:#180633"/>
				<stop  offset="1" style="stop-color:#120426"/>
			</linearGradient>
			<path class="st87" d="M394.2,393.8c-3.9-7.9-10.4-17.9-14.5-25.3c-5.7-10.5-8.5-28.9-8.5-41.1l-4.2,7.6c-0.5-3.9-4.7-4.3-7.1-2.5
				c0.1-0.5,0.2-0.9,0.4-1.3c-1.6,0.8-2.9,2.5-2.6,4.8c1.6,10.9,5.9,21.4,11,31.2c0.8,1.6,1.6,3.2,2.5,4.7
				c4.2,7.7,10.2,17.7,14.2,25.7c0.3,0.6,1,0.9,1.6,0.6l6.5-2.8C394.3,395.2,394.5,394.4,394.2,393.8z"/>
			<path class="st85" d="M425,359.7l-8.3,1c-1.8,3-2.6,5.3,0.8,6.6l8.3-1.1L425,359.7z"/>
			<g>
				<linearGradient id="SVGID_12_" gradientUnits="userSpaceOnUse" x1="370.3839" y1="346.5549" x2="421.698" y2="346.5549">
					<stop  offset="0" style="stop-color:#1D073F"/>
					<stop  offset="0.4598" style="stop-color:#1C073C"/>
					<stop  offset="0.7624" style="stop-color:#180633"/>
					<stop  offset="1" style="stop-color:#120426"/>
				</linearGradient>
				<path class="st88" d="M403.6,370.3c-6.1,0-12.4-1.8-17.5-8.6c-9.6-12.9-15.7-33.1-15.7-34.1l15.1-4.8c0,0.2-0.4,23.2,7.5,33.7
					c4.7,6.4,11.1,5.6,20.3,3.8c2.4-0.5,4.7-0.9,7-1.1c0.6,0,1,0.4,1.1,1l0.3,6.6c0,0.5-0.4,1-0.9,1c-1.7,0.2-3.7,0.6-5.8,1
					C411.5,369.5,407.6,370.3,403.6,370.3z"/>
			</g>
			<g>
				<linearGradient id="SVGID_13_" gradientUnits="userSpaceOnUse" x1="304.1468" y1="263.9126" x2="370.4081" y2="263.9126">
					<stop  offset="0" style="stop-color:#FFCABA"/>
					<stop  offset="0.2013" style="stop-color:#F6BFB1"/>
					<stop  offset="0.5497" style="stop-color:#DDA39B"/>
					<stop  offset="1" style="stop-color:#B57676"/>
				</linearGradient>
				<path class="st89" d="M366.8,292.7c-0.3,0-0.7,0-1-0.1c-40.7-11.6-60.5-50.6-61.3-52.2c-0.9-1.8-0.2-3.9,1.6-4.8
					c1.8-0.9,3.9-0.2,4.8,1.6c0.3,0.5,19.3,37.8,56.9,48.5c1.9,0.5,3,2.5,2.5,4.4C369.8,291.7,368.4,292.7,366.8,292.7z"/>
			</g>
			<linearGradient id="SVGID_14_" gradientUnits="userSpaceOnUse" x1="423.5259" y1="366.407" x2="441.196" y2="366.407">
				<stop  offset="0" style="stop-color:#491E8C"/>
				<stop  offset="0.4656" style="stop-color:#3A186E"/>
				<stop  offset="0.871" style="stop-color:#2F1359"/>
			</linearGradient>
			<path class="st90" d="M434.2,372.1l-9.3-5.9c-1.4-2-1.8-4.2-1-6.5c1.7-0.6,1.7-0.6,3.8-1.3c1.7-0.7,4.3,1.1,5.5,2.2l5.2,5.9
				c3.9,4.1,2.9,6,1.9,7.4l0,0C439,375.4,436.9,374.3,434.2,372.1z"/>
			<g>
				<linearGradient id="SVGID_15_" gradientUnits="userSpaceOnUse" x1="373.3116" y1="291.0727" x2="415.2038" y2="291.0727">
					<stop  offset="0" style="stop-color:#B57676"/>
					<stop  offset="0.1911" style="stop-color:#BD7F7D"/>
					<stop  offset="0.4999" style="stop-color:#D29790"/>
					<stop  offset="0.8858" style="stop-color:#F4BDB0"/>
					<stop  offset="1" style="stop-color:#FFCABA"/>
				</linearGradient>
				<path class="st91" d="M377.4,267.5c9.7,3.7,18.2,11.2,25.8,18c1.7,1.5,2.6,2.4,3.3,4.4c2.5,6.8,5.8,14.1,8.4,21
					c1.2,3.3-3.6,5.7-4.9,2.2c-2.9-7.7-5.5-12-8.2-18.7c-0.5-1.2-1.5-3.8-2-4.2c-7.4-6.6-15.5-13.9-24.8-17.4
					C371.5,271.5,373.9,266.2,377.4,267.5L377.4,267.5z"/>
			</g>
			<path class="st74" d="M378.2,307.1c0.2,2.2,1.9,4.7,3.9,5.6c2,0.9,3.4-0.1,3.3-2.2c-0.2-2.2-1.9-4.7-3.9-5.6
				S378,304.9,378.2,307.1z"/>
			<linearGradient id="SVGID_16_" gradientUnits="userSpaceOnUse" x1="356.5078" y1="327.6131" x2="386.0882" y2="327.6131">
				<stop  offset="0" style="stop-color:#1D073F"/>
				<stop  offset="0.4598" style="stop-color:#1C073C"/>
				<stop  offset="0.7624" style="stop-color:#180633"/>
				<stop  offset="1" style="stop-color:#120426"/>
			</linearGradient>
			<path class="st92" d="M379.5,334.9L379.5,334.9c-0.8,1,2.5-3.8,1.4-3.1c-2.1,1.5-14,11.1-16.6,11.3c-3.1,0.3-1.6-2.9-4.1-4.8
				c-2.4-1.8-3.2-5-3.6-8c-0.1-0.8-0.2-1.7,0-2.5c0.3-0.8,1-1.5,1.6-2.1c5.2-4.7,15.3-16,23.4-13.3
				C391,315.6,383.1,330.1,379.5,334.9z"/>
			<linearGradient id="SVGID_17_" gradientUnits="userSpaceOnUse" x1="358.4995" y1="265.3347" x2="367.8538" y2="265.3347">
				<stop  offset="0" style="stop-color:#FFCABA"/>
				<stop  offset="0.2013" style="stop-color:#F6BFB1"/>
				<stop  offset="0.5497" style="stop-color:#DDA39B"/>
				<stop  offset="1" style="stop-color:#B57676"/>
			</linearGradient>
			<path class="st93" d="M367.8,268.3l-3.2-10.3l-6.1,4.9l2.7,9.4C361.5,273.8,368.6,271.8,367.8,268.3z"/>
			<linearGradient id="SVGID_18_" gradientUnits="userSpaceOnUse" x1="331.7867" y1="299.8331" x2="401.9092" y2="299.8331">
				<stop  offset="0" style="stop-color:#491E8C"/>
				<stop  offset="0.4656" style="stop-color:#3A186E"/>
				<stop  offset="0.871" style="stop-color:#2F1359"/>
			</linearGradient>
			<path class="st94" d="M399.6,280.9c-5.8-4.1-14.3-11.3-20.3-14.5c-4.2-3.1-10.4-1.3-14.9,2c-2.2,1.6-4.8,3.5-7.2,5.2l0,0
				l-2.6,1.9l-15.9-7c-3.8-2.7-9.7,4.8-5.3,8.4l16.9,9.6c0.3,0.2,0.6,0.3,0.9,0.4v0v0l3.3,26.1c0,0,1,13.8,1.1,18.4l0,0l0,0l0,0
				c0,0,0.4,2,2.4,2.6l0,0l0,0v0l0,0c2.6,1.2,6.4,1.1,8.4-0.3c5.1-2.3,10-4.8,13.9-7.9c2.1-1.6,4-3.5,5.4-5.6c0.8-0.6,1.2-1.3,1.2-2
				l0,0c1.4-0.7-0.5-19.9-2.9-36.2l9.7,5.9c1.5,1.1,4.3,2.5,5.1,1.7l2.7-4.3C402.5,284.1,401.6,282,399.6,280.9z"/>
			<polygon class="st95" points="384,281.9 383.2,278 393.7,284.8 392.3,286.9 			"/>
			<path class="st67" d="M357.1,273.6c7.1-1.7,12.4,2.5,13.2-8.1l0,0c-1.1-0.6-2.7-0.7-3.3,0.3c-1.1,1.9-3.1,3-6.3,3.7
				c-0.9,0.2-1.7,0.4-2.1,1.2L357.1,273.6z"/>
			<path class="st67" d="M337.3,267.2c-0.1-0.3-6.1-0.2-6.5,8c0,0.3,0.1,0.7,0.3,0.9l3,3c0.5,0.5,1.4,0.4,1.8-0.2l5.5-8.7
				c0.4-0.6,0.1-1.5-0.6-1.7L337.3,267.2z"/>
			<path class="st67" d="M396.1,290.4c0.1,0.3,6.1,0.2,6.6-8.1c0-0.2-0.1-0.5-0.2-0.6l-3.4-3.4c-0.4-0.4-1-0.3-1.3,0.1l-6.1,9.5
				c-0.3,0.4-0.1,1,0.4,1.2L396.1,290.4z"/>
			<linearGradient id="SVGID_19_" gradientUnits="userSpaceOnUse" x1="348.2646" y1="253.0837" x2="377.0104" y2="253.0837">
				<stop  offset="0" style="stop-color:#1D073F"/>
				<stop  offset="0.4392" style="stop-color:#1C073C"/>
				<stop  offset="0.7629" style="stop-color:#180633"/>
				<stop  offset="1" style="stop-color:#120426"/>
			</linearGradient>
			<path class="st96" d="M372.9,250c0-0.1,0-0.1,0-0.2c0-0.2-0.1-0.3-0.1-0.5c1.7,0.4,4.3-0.2,4.3-0.2c-2.7-1.1-5.4-3.4-5.4-3.4
				s0,0,0,0c-3-6.2-10-3.8-15-3.8c-2.6,0-4.9,0.1-7.3,2.6c-2.2,2.3-0.8,5,2.7,5.1c1.4,0,1,3.7,1.4,5c0.7,2.2,2.2,3.2,2.8,5.3
				c0.7,2,3.9,5,5.9,5c3.5,0.1,5-1.2,5-1.2s5.8-2.7,5.9-10.7c1-0.1,3.5-1.7,3.5-1.7C375,251.4,373.7,250.7,372.9,250z"/>
			<linearGradient id="SVGID_20_" gradientUnits="userSpaceOnUse" x1="348.9868" y1="258.1834" x2="362.0032" y2="258.1834">
				<stop  offset="0" style="stop-color:#FFCABA"/>
				<stop  offset="0.2013" style="stop-color:#F6BFB1"/>
				<stop  offset="0.5497" style="stop-color:#DDA39B"/>
				<stop  offset="1" style="stop-color:#B57676"/>
			</linearGradient>
			<path class="st97" d="M356.9,261c0.1,0,0.1,0,0.2,0c1.1-0.3,1.9-1.6,1.9-3.2c0-1.8-1-3.3-2.3-3.3c-1,0-1.9,0.9-2.2,2.2
				c-0.4-0.6-0.8-1.3-1.1-2.2c-0.4-1.2-0.1-4.9-1.4-5c-1,0-1.8-0.2-2.4-0.6c-1.1,4.3-0.6,9.1,0.7,14.1c0.5,3.8,5.5,5.7,9.2,3.6
				c0.9-0.5,1.8-1.1,2.6-1.8c0,0,0,0,0,0C360.4,264.6,358.1,262.7,356.9,261z"/>
			<path class="st98" d="M351.4,263c-1.2-4.9-1.7-9.5-0.8-13.7l-1.1-0.4c-1.1,4.3-0.6,9.1,0.7,14.1c0.4,2.9,3.4,4.7,6.4,4.4
				C354.1,267.2,351.8,265.5,351.4,263z"/>
		</g>
		<g>
			<g>
				<g>
					<linearGradient id="SVGID_21_" gradientUnits="userSpaceOnUse" x1="162.1595" y1="258.5366" x2="115.9149" y2="272.4986">
						<stop  offset="0" style="stop-color:#9452FF"/>
						<stop  offset="1" style="stop-color:#491E8C"/>
					</linearGradient>
					<path class="st99" d="M118.1,239.4c-1.1,0.7-4.5,4.8-5,6.2c-2.3,3.9-2.6,9.5-0.4,16.2c4.9,14.8,20,29.2,33.8,32.2
						c6.4,1.4,11.4,0.1,14.5-3.2c0.3-0.2,4.1-4.4,4.1-4.4c0.8-1.4,1.3-3.1,1.5-4.9c0.7-3.4,0.4-7.5-1.1-12.2
						c-4.9-14.8-20-29.2-33.8-32.2C125.8,235.8,121.2,236.7,118.1,239.4z"/>
					<linearGradient id="SVGID_22_" gradientUnits="userSpaceOnUse" x1="162.3398" y1="257.2028" x2="119.5833" y2="270.1117">
						<stop  offset="0" style="stop-color:#9452FF"/>
						<stop  offset="1" style="stop-color:#491E8C"/>
					</linearGradient>
					<path class="st100" d="M132.2,236.9c13.8,3,28.9,17.5,33.8,32.2c4.9,14.8-2.4,24.3-16.2,21.3c-13.8-3-28.9-17.5-33.8-32.2
						C111.1,243.4,118.4,233.9,132.2,236.9z"/>
					<g>
						
							<linearGradient id="SVGID_23_" gradientUnits="userSpaceOnUse" x1="640.6746" y1="127.76" x2="685.3372" y2="127.7654" gradientTransform="matrix(-0.9573 0.2889 0.289 0.9573 739.4767 -50.8925)">
							<stop  offset="0" style="stop-color:#491E8C"/>
							<stop  offset="1" style="stop-color:#251440"/>
						</linearGradient>
						<path class="st101" d="M132.9,236.2c13.8,3,28.9,17.5,33.8,32.2s-2.4,24.3-16.2,21.3c-13.8-3-28.9-17.5-33.8-32.2
							C111.9,242.7,119.1,233.2,132.9,236.2z"/>
						<linearGradient id="SVGID_24_" gradientUnits="userSpaceOnUse" x1="163.0829" y1="256.5028" x2="120.3264" y2="269.4118">
							<stop  offset="0" style="stop-color:#9452FF"/>
							<stop  offset="1" style="stop-color:#491E8C"/>
						</linearGradient>
						<path class="st102" d="M128.1,235.6v1.1c1.4,0,3,0.2,4.6,0.5c13.4,2.9,28.2,17.1,33,31.5c2.2,6.7,1.9,12.4-0.8,16.1
							c-2,2.8-5.3,4.3-9.5,4.3c-1.4,0-3-0.2-4.6-0.5c-13.4-2.9-28.2-17.1-33-31.5c-2.2-6.7-1.9-12.4,0.8-16.1c2-2.8,5.3-4.3,9.5-4.3
							L128.1,235.6 M128.1,235.6c-10.6,0-15.6,8.9-11.3,21.8c4.9,14.8,20,29.2,33.8,32.2c1.7,0.4,3.3,0.6,4.9,0.6
							c10.6,0,15.6-8.9,11.3-21.8c-4.9-14.8-20-29.2-33.8-32.2C131.2,235.8,129.6,235.6,128.1,235.6L128.1,235.6z"/>
					</g>
					<linearGradient id="SVGID_25_" gradientUnits="userSpaceOnUse" x1="159.2515" y1="257.4381" x2="125.3994" y2="267.6587">
						<stop  offset="0" style="stop-color:#FFFFFF"/>
						<stop  offset="0.871" style="stop-color:#F0E5FF"/>
					</linearGradient>
					<path class="st103" d="M135.4,241.4c10.9,2.4,22.9,13.8,26.7,25.5c3.8,11.7-1.9,19.2-12.8,16.8c-10.9-2.4-22.9-13.8-26.7-25.5
						C118.7,246.5,124.4,239,135.4,241.4z"/>
				</g>
			</g>
			<g id="Brandmark_4_">
				<path id="Core-1_4_" class="st75" d="M141.3,252.6c1.2,0.5,2.3,2,2.4,3.4c0.2,1.4-0.6,2-1.8,1.5c-1.2-0.5-2.3-2-2.4-3.4
					C139.3,252.8,140.1,252.1,141.3,252.6z"/>
				<path id="Core-2_4_" class="st75" d="M135.8,255.1c1.2,0.5,2.3,2,2.4,3.4s-0.6,2-1.8,1.5s-2.3-2-2.4-3.4
					C133.9,255.3,134.7,254.6,135.8,255.1z"/>
				<path id="Core-3_4_" class="st75" d="M148.2,260.5c1.2,0.5,2.3,2,2.4,3.4c0.2,1.4-0.6,2-1.8,1.5c-1.2-0.5-2.3-2-2.4-3.4
					C146.2,260.7,147,260,148.2,260.5z"/>
				<path id="Core-4_4_" class="st75" d="M139.3,264.6c1.2,0.5,2.3,2,2.4,3.4c0.2,1.4-0.6,2-1.8,1.5s-2.3-2-2.4-3.4
					C137.3,264.8,138.1,264.1,139.3,264.6z"/>
				<path id="Core-5_4_" class="st75" d="M146.9,267.9c1.2,0.5,2.3,2,2.4,3.4c0.2,1.4-0.6,2-1.8,1.5c-1.2-0.5-2.3-2-2.4-3.4
					C144.9,268.1,145.7,267.4,146.9,267.9z"/>
				<path id="Center_4_" class="st76" d="M144.6,269.2c-0.1-0.8,0.1-1.5,0.5-1.9c0.4-0.4,1.1-0.4,1.8-0.1c0.7,0.3,1.3,0.8,1.9,1.6
					c0.3-0.7,0.5-1.6,0.5-2.6c-0.1,0-0.2,0-0.3-0.1c-0.7-0.3-1.4-0.9-2-1.7s-1-1.7-1.1-2.6c-0.1-0.8,0.1-1.5,0.5-1.9
					c0.1-0.1,0.3-0.2,0.5-0.3c-0.7-1.1-1.6-2.1-2.5-2.8c0,0.5-0.2,1-0.5,1.2c-0.4,0.4-1.1,0.4-1.8,0.1c-0.7-0.3-1.4-0.9-2-1.7
					c-0.4-0.6-0.7-1.3-0.9-1.9c-0.8,0.1-1.5,0.4-2,0.9c0.2,0.2,0.4,0.4,0.6,0.8c0.6,0.8,1,1.7,1.1,2.6s-0.1,1.5-0.5,1.9
					c-0.4,0.4-1.1,0.4-1.8,0.1c-0.1,0-0.2-0.1-0.3-0.2c0.2,1.2,0.7,2.3,1.2,3.4c0.4-0.3,1-0.3,1.7-0.1c0.7,0.3,1.4,0.9,2,1.7
					c0.6,0.8,1,1.7,1.1,2.6c0.1,0.4,0,0.8-0.1,1.2c0.5,0.3,0.9,0.6,1.4,0.8c0.4,0.2,0.9,0.4,1.4,0.5
					C144.8,270.1,144.6,269.7,144.6,269.2z"/>
				<path id="Circles_4_" class="st76" d="M155.3,262.6c-0.6-1.3-1.3-2.5-2.1-3.7c-0.8-1.1-1.8-2.2-2.8-3.1
					c-0.7-0.6-1.4-1.1-2.1-1.5c-0.5-1.2-1.2-2.2-1.9-3.3c-0.8-1.1-1.8-2.2-2.8-3.1c-1-0.9-2.1-1.6-3.2-2.1c-1.1-0.5-2.1-0.7-3-0.6
					c-0.9,0.1-1.6,0.4-2.3,0.9c-0.5,0.5-1,1.1-1.2,1.9c-0.7-0.2-1.4-0.3-2.1-0.3c-0.9,0.1-1.6,0.4-2.3,0.9c-0.6,0.5-1.1,1.2-1.3,2.2
					c-0.3,1-0.3,2.1-0.2,3.3c0.2,1.2,0.5,2.5,1.1,3.9c0.6,1.3,1.3,2.5,2.1,3.7c0,0.1,0.1,0.2,0.2,0.3c0,0.5,0,1.1,0.1,1.6
					c0.2,1.2,0.5,2.5,1.1,3.9c0.6,1.3,1.3,2.5,2.1,3.7c0.8,1.1,1.8,2.2,2.8,3.1c1,0.9,2.1,1.6,3.2,2.1c1.1,0.5,2.1,0.7,3,0.6
					c0.2,0,0.4-0.1,0.7-0.1c0.3,0.3,0.5,0.5,0.8,0.7c1,0.9,2.1,1.6,3.2,2.1c1.1,0.5,2.1,0.7,3,0.6c0.9-0.1,1.6-0.4,2.3-0.9
					c0.6-0.5,1.1-1.2,1.3-2.2c0.3-1,0.3-2.1,0.2-3.3c-0.1-0.6-0.2-1.2-0.4-1.8c0.1,0,0.1-0.1,0.1-0.1c0.6-0.5,1.1-1.2,1.3-2.2
					c0.3-1,0.3-2.1,0.2-3.3C156.2,265.2,155.9,263.9,155.3,262.6z M155.6,269.2c-0.2,0.8-0.6,1.4-1.1,1.9c-0.1-0.4-0.3-0.7-0.4-1.2
					c-0.6-1.3-1.3-2.5-2.1-3.7c-0.3-0.4-0.6-0.8-0.9-1.1c0,0.2-0.1,0.4-0.2,0.5c0.3,0.3,0.5,0.6,0.7,0.9c0.8,1.1,1.4,2.2,1.9,3.4
					c0.2,0.5,0.4,1,0.5,1.5c-0.5,0.3-1.1,0.5-1.7,0.6c-0.7,0.1-1.6-0.1-2.4-0.4c0,0.3,0,0.5,0,0.7c1,0.4,1.9,0.6,2.8,0.5
					c0.6,0,1.2-0.2,1.6-0.5c0.1,0.4,0.2,0.8,0.2,1.2c0.2,1.1,0.1,2.2-0.1,3.1c-0.2,0.8-0.6,1.5-1.2,2c-0.6,0.5-1.2,0.8-2.1,0.8
					c-0.9,0-1.7-0.1-2.8-0.6c-1-0.4-2-1.1-2.9-1.9c-0.1-0.1-0.2-0.2-0.3-0.3c0.4-0.1,0.7-0.4,1-0.6c0.6-0.5,1.1-1.2,1.3-2.2
					c0-0.1,0.1-0.3,0.1-0.4c-0.2-0.1-0.4-0.2-0.7-0.4c0,0.1,0,0.2-0.1,0.3c-0.2,0.8-0.6,1.5-1.2,2c-0.3,0.3-0.7,0.5-1.2,0.6
					c-0.6-0.6-1.1-1.2-1.5-1.8c-0.8-1.1-1.4-2.2-1.9-3.4c0-0.1-0.1-0.2-0.1-0.4c-0.2,0-0.4-0.1-0.6-0.2c0.1,0.2,0.1,0.4,0.2,0.6
					c0.6,1.3,1.3,2.5,2.1,3.7c0.4,0.6,0.9,1.1,1.3,1.6c-0.1,0-0.2,0-0.3,0c-0.9,0-1.7-0.1-2.8-0.6c-1-0.4-2-1.1-2.9-1.9
					c-0.9-0.8-1.8-1.8-2.6-2.8c-0.8-1.1-1.4-2.2-1.9-3.4c-0.5-1.2-0.9-2.4-1-3.6c0-0.4-0.1-0.7-0.1-1.1c0.6,0.8,1.3,1.4,1.9,2
					c1,0.8,2,1.5,3,2c-0.1-0.3-0.2-0.6-0.2-0.8c-0.9-0.4-1.7-1-2.6-1.8c-0.8-0.7-1.4-1.4-2.1-2.2c0-0.4,0.1-0.8,0.2-1.1
					c0.2-0.8,0.6-1.5,1.2-2c0.2-0.1,0.4-0.3,0.5-0.4c-0.2-0.3-0.3-0.5-0.4-0.8c-0.2,0.1-0.4,0.3-0.7,0.4c-0.6,0.5-1.1,1.2-1.3,2.2
					c-0.1,0.3-0.1,0.6-0.2,0.9c-0.7-1-1.3-2.1-1.8-3.2c-0.5-1.2-0.9-2.4-1-3.6c-0.2-1.1-0.1-2.2,0.1-3.1c0.2-0.8,0.6-1.5,1.2-2
					c0.6-0.5,1.2-0.8,2.1-0.8c0.5-0.1,1,0,1.5,0.1c-0.2,0.9-0.2,1.9-0.1,3c0.1,0.9,0.3,1.8,0.6,2.7c0.2,0,0.3-0.1,0.6,0
					c-0.3-0.8-0.4-1.6-0.5-2.3c-0.2-1.1-0.1-2.1,0.1-3c0.2,0,0.3,0.1,0.5,0.2c1,0.4,2,1.1,2.9,1.9c0.4,0.4,0.9,0.8,1.3,1.3
					c0.1-0.1,0.1-0.2,0.2-0.3c0.1,0,0.1-0.1,0.2-0.1c-0.5-0.6-1-1.1-1.5-1.5c-1-0.9-2.1-1.6-3.2-2.1c-0.1,0-0.1-0.1-0.2-0.1
					c0.2-0.6,0.6-1,1-1.4c0.6-0.5,1.2-0.8,2.1-0.8c0.9,0,1.7,0.1,2.8,0.6c1,0.4,2,1.1,2.9,1.9c0.9,0.8,1.8,1.8,2.6,2.8
					c0.6,0.8,1.1,1.6,1.5,2.5c-0.1,0-0.2-0.1-0.3-0.1c-1.1-0.5-2.1-0.7-3-0.6c-0.5,0-0.9,0.1-1.3,0.3c0.1,0.1,0.2,0.2,0.2,0.3
					c0.1,0.2,0.2,0.3,0.3,0.5c0.3-0.1,0.7-0.2,1.1-0.2c0.9,0,1.7,0.1,2.8,0.6c0.2,0.1,0.4,0.2,0.7,0.3c0.5,1.2,0.8,2.4,1,3.5
					c0.1,0.8,0.1,1.5,0,2.2c0.2,0.2,0.4,0.4,0.6,0.6c0.1-0.7,0.1-1.6,0-2.5c-0.1-1.1-0.5-2.2-0.9-3.3c0.5,0.3,1,0.7,1.5,1.2
					c0.9,0.8,1.8,1.8,2.6,2.8c0.8,1.1,1.4,2.2,1.9,3.4c0.5,1.2,0.9,2.4,1,3.6C155.9,267.3,155.9,268.4,155.6,269.2z"/>
			</g>
		</g>
		<g>
			<g>
				<g>
					<linearGradient id="SVGID_26_" gradientUnits="userSpaceOnUse" x1="356.8279" y1="125.4237" x2="376.039" y2="61.3897">
						<stop  offset="0" style="stop-color:#9452FF"/>
						<stop  offset="1" style="stop-color:#491E8C"/>
					</linearGradient>
					<path class="st104" d="M373.4,60.7c1.3,0.1,6.2,2.3,7.3,3.3c3.8,2.4,6.6,7.3,7.6,14.3c2.3,15.4-4.8,35.1-15.7,43.9
						c-5.1,4.1-10.2,5.2-14.4,3.6c-0.4-0.1-5.6-2.1-5.6-2.1c-1.3-0.9-2.6-2.2-3.6-3.7c-2.2-2.7-3.7-6.6-4.5-11.4
						c-2.3-15.4,4.8-35.1,15.7-43.9C364.9,60.9,369.5,59.7,373.4,60.7z"/>
					<linearGradient id="SVGID_27_" gradientUnits="userSpaceOnUse" x1="354.3632" y1="124.3289" x2="373.3887" y2="60.9136">
						<stop  offset="0" style="stop-color:#9452FF"/>
						<stop  offset="1" style="stop-color:#491E8C"/>
					</linearGradient>
					<path class="st105" d="M359.7,64.8c-11,8.9-18,28.6-15.7,43.9c2.3,15.4,13,20.7,24,11.8c11-8.9,18-28.6,15.7-43.9
						C381.5,61.2,370.7,55.9,359.7,64.8z"/>
					<g>
						
							<linearGradient id="SVGID_28_" gradientUnits="userSpaceOnUse" x1="330.9176" y1="61.0694" x2="360.4844" y2="1.8273" gradientTransform="matrix(0.9853 -0.1706 0.1706 0.9853 16.9137 120.3189)">
							<stop  offset="0" style="stop-color:#491E8C"/>
							<stop  offset="1" style="stop-color:#251440"/>
						</linearGradient>
						<path class="st106" d="M358.8,64.5c-11,8.9-18,28.6-15.7,43.9c2.3,15.4,13,20.7,24,11.8c11-8.9,18-28.6,15.7-43.9
							C380.5,60.9,369.7,55.6,358.8,64.5z"/>
						<linearGradient id="SVGID_29_" gradientUnits="userSpaceOnUse" x1="353.3853" y1="124.036" x2="372.4107" y2="60.6207">
							<stop  offset="0" style="stop-color:#9452FF"/>
							<stop  offset="1" style="stop-color:#491E8C"/>
						</linearGradient>
						<path class="st107" d="M369.2,61.2c6.3,0,11.1,5.8,12.5,15.2c2.2,15-4.7,34.3-15.4,42.9c-3.3,2.7-6.7,4.1-9.8,4.1
							c-6.3,0-11.1-5.8-12.5-15.2c-2.2-15,4.7-34.3,15.4-42.9C362.7,62.6,366.1,61.2,369.2,61.2 M369.2,60.2
							c-3.3,0-6.9,1.4-10.5,4.3c-11,8.9-18,28.6-15.7,43.9c1.5,10.3,6.9,16.1,13.5,16.1c3.3,0,6.9-1.4,10.5-4.3
							c11-8.9,18-28.6,15.7-43.9C381.2,65.9,375.9,60.2,369.2,60.2L369.2,60.2z"/>
					</g>
					
						<linearGradient id="SVGID_30_" gradientUnits="userSpaceOnUse" x1="835.8052" y1="-562.1224" x2="888.2227" y2="-562.0967" gradientTransform="matrix(0.2869 -0.958 0.958 0.2869 653.349 1079.3197)">
						<stop  offset="0" style="stop-color:#FFFFFF"/>
						<stop  offset="0.871" style="stop-color:#F0E5FF"/>
					</linearGradient>
					<path class="st108" d="M358.9,70.2c-8.7,7-14.3,22.6-12.5,34.8c1.8,12.2,10.3,16.4,19,9.3c8.7-7,14.3-22.6,12.5-34.8
						C376.1,67.3,367.6,63.2,358.9,70.2z"/>
				</g>
			</g>
			<g id="Brandmark_5_">
				<path id="Core-1_5_" class="st75" d="M364.5,81c0.9,0.3,1.3,1.8,0.9,3.3s-1.5,2.4-2.4,2.1c-0.9-0.3-1.3-1.8-0.9-3.3
					C362.6,81.6,363.6,80.7,364.5,81z"/>
				<path id="Core-2_5_" class="st75" d="M358.2,85.1c0.9,0.3,1.3,1.8,0.9,3.3s-1.5,2.4-2.4,2.1c-0.9-0.3-1.3-1.8-0.9-3.3
					S357.3,84.7,358.2,85.1z"/>
				<path id="Core-3_5_" class="st75" d="M367.7,88.6c0.9,0.3,1.3,1.8,0.9,3.3c-0.4,1.5-1.5,2.4-2.4,2.1s-1.3-1.8-0.9-3.3
					S366.8,88.2,367.7,88.6z"/>
				<path id="Core-4_5_" class="st75" d="M357.4,95.1c0.9,0.3,1.3,1.8,0.9,3.3s-1.5,2.4-2.4,2.1c-0.9-0.3-1.3-1.8-0.9-3.3
					C355.5,95.7,356.5,94.7,357.4,95.1z"/>
				<path id="Core-5_5_" class="st75" d="M363.3,97.2c0.9,0.3,1.3,1.8,0.9,3.3c-0.4,1.5-1.5,2.4-2.4,2.1c-0.9-0.3-1.3-1.8-0.9-3.3
					C361.3,97.9,362.4,96.9,363.3,97.2z"/>
				<path id="Center_5_" class="st76" d="M360.5,99.2c0.3-0.9,0.7-1.7,1.3-2.2s1.2-0.7,1.7-0.5c0.5,0.2,0.9,0.7,1.1,1.4
					c0.6-0.9,1.2-1.9,1.6-3.1c-0.1,0-0.1,0-0.2,0c-0.6-0.2-1-0.7-1.2-1.6c-0.2-0.8-0.2-1.8,0.1-2.7c0.3-0.9,0.7-1.7,1.3-2.2
					c0.2-0.2,0.4-0.3,0.6-0.4c-0.2-1.1-0.6-2-1.1-2.7c-0.3,0.6-0.6,1.2-1,1.5c-0.6,0.5-1.2,0.7-1.7,0.5c-0.6-0.2-1-0.7-1.2-1.6
					c-0.2-0.6-0.2-1.3-0.1-1.9c-0.8,0.2-1.6,0.7-2.3,1.4c0.1,0.2,0.2,0.4,0.3,0.7c0.2,0.8,0.2,1.8-0.1,2.7c-0.3,0.9-0.7,1.7-1.3,2.2
					c-0.6,0.6-1.2,0.7-1.7,0.5c-0.1,0-0.1,0-0.2-0.1c-0.3,1.3-0.4,2.5-0.3,3.6c0.6-0.4,1.1-0.6,1.6-0.4c0.6,0.2,1,0.7,1.2,1.6
					c0.2,0.8,0.2,1.8-0.1,2.7c-0.1,0.5-0.3,0.9-0.6,1.3c0.3,0.3,0.7,0.4,1,0.6s0.7,0.2,1.1,0.2C360.3,100.2,360.4,99.7,360.5,99.2z"
					/>
				<path id="Circles_5_" class="st76" d="M373.7,89.4c0-1.3-0.1-2.6-0.4-3.7c-0.3-1.1-0.7-2.2-1.3-2.9c-0.4-0.5-0.9-0.9-1.4-1.3
					c0-1.2-0.2-2.3-0.4-3.3c-0.3-1.1-0.7-2.2-1.3-2.9c-0.6-0.8-1.3-1.4-2.2-1.7c-0.8-0.3-1.7-0.3-2.6-0.1c-0.9,0.3-1.7,0.8-2.5,1.5
					c-0.7,0.6-1.4,1.4-2,2.4c-0.6-0.1-1.2-0.1-1.9,0.1c-0.9,0.3-1.7,0.8-2.5,1.5c-0.8,0.7-1.6,1.6-2.2,2.8c-0.7,1.2-1.2,2.4-1.6,3.8
					c-0.4,1.4-0.6,2.8-0.6,4.2c0,1.3,0.1,2.6,0.4,3.7c0,0.1,0,0.2,0.1,0.3c-0.2,0.6-0.5,1.2-0.6,1.8c-0.4,1.4-0.6,2.8-0.6,4.2
					c0,1.3,0.1,2.6,0.4,3.7c0.3,1.1,0.7,2.2,1.3,2.9c0.6,0.8,1.3,1.4,2.2,1.7c0.8,0.3,1.7,0.3,2.6,0.1c0.2-0.1,0.5-0.2,0.7-0.2
					c0.1,0.2,0.3,0.4,0.4,0.6c0.6,0.8,1.3,1.4,2.2,1.7c0.8,0.3,1.7,0.3,2.6,0.1c0.9-0.3,1.7-0.8,2.5-1.5c0.8-0.7,1.6-1.6,2.2-2.8
					c0.7-1.2,1.2-2.4,1.6-3.8c0.2-0.7,0.3-1.3,0.4-1.9c0.1-0.1,0.1-0.1,0.2-0.2c0.8-0.7,1.6-1.6,2.2-2.8c0.7-1.2,1.2-2.4,1.6-3.8
					C373.4,92.2,373.7,90.8,373.7,89.4z M371.1,96.9c-0.6,1-1.2,1.8-1.9,2.4c0-0.4,0.1-0.8,0.1-1.2c0-1.3-0.1-2.6-0.4-3.7
					c-0.1-0.4-0.2-0.8-0.4-1.1c-0.1,0.2-0.3,0.5-0.4,0.7c0.1,0.3,0.2,0.6,0.3,0.9c0.3,1.1,0.4,2.2,0.4,3.4c0,0.5-0.1,1-0.1,1.6
					c-0.6,0.5-1.2,0.8-1.9,1c-0.7,0.2-1.4,0.2-2.2,0c-0.1,0.3-0.2,0.6-0.3,0.8c0.8,0.2,1.6,0.3,2.4,0c0.6-0.2,1.2-0.4,1.7-0.9
					c-0.1,0.4-0.2,0.9-0.3,1.3c-0.3,1.3-0.8,2.4-1.5,3.5c-0.6,1-1.3,1.9-2,2.5c-0.8,0.7-1.5,1.1-2.3,1.4c-0.8,0.2-1.6,0.2-2.4-0.1
					s-1.4-0.8-2-1.6c-0.1-0.1-0.1-0.2-0.2-0.3c0.4-0.2,0.8-0.6,1.2-0.9c0.8-0.7,1.6-1.6,2.2-2.8c0.1-0.2,0.2-0.3,0.3-0.5
					c-0.2-0.1-0.3-0.2-0.5-0.3c-0.1,0.1-0.1,0.2-0.2,0.4c-0.6,1-1.3,1.9-2,2.5c-0.5,0.4-0.9,0.8-1.4,1c-0.3-0.5-0.5-1.1-0.7-1.7
					c-0.3-1.1-0.4-2.2-0.4-3.4c0-0.1,0-0.2,0-0.4c-0.2,0-0.4,0-0.5-0.1c0,0.2,0,0.4,0,0.6c0,1.3,0.1,2.6,0.4,3.7
					c0.2,0.6,0.3,1.1,0.6,1.6c-0.1,0-0.2,0.1-0.3,0.1c-0.8,0.2-1.6,0.2-2.4-0.1s-1.4-0.8-2-1.6c-0.5-0.7-0.9-1.7-1.2-2.7
					c-0.3-1.1-0.4-2.2-0.4-3.4c0-1.3,0.2-2.5,0.6-3.8c0.1-0.4,0.3-0.8,0.4-1.3c0.3,0.7,0.6,1.3,1,1.9c0.6,0.7,1.2,1.3,2,1.6
					c0-0.3,0.1-0.6,0.2-0.9c-0.7-0.3-1.2-0.8-1.7-1.5c-0.4-0.6-0.8-1.3-1-2.1c0.2-0.5,0.5-0.9,0.7-1.3c0.6-1,1.3-1.9,2-2.5
					c0.2-0.2,0.4-0.4,0.7-0.5c0-0.3-0.1-0.6,0-0.8c-0.3,0.2-0.6,0.4-0.8,0.7c-0.8,0.7-1.6,1.6-2.2,2.8c-0.2,0.4-0.4,0.7-0.6,1.1
					c-0.2-1-0.4-2.1-0.3-3.2c0-1.3,0.2-2.5,0.6-3.8c0.3-1.3,0.8-2.4,1.5-3.5c0.6-1,1.3-1.9,2-2.5c0.8-0.7,1.5-1.1,2.3-1.4
					c0.5-0.2,0.9-0.2,1.4-0.2c-0.5,1-1,2.1-1.3,3.4c-0.3,1-0.5,2-0.5,2.9c0.2-0.1,0.4-0.2,0.6-0.2c0.1-0.9,0.3-1.7,0.5-2.5
					c0.3-1.3,0.8-2.4,1.4-3.4c0.1,0,0.3,0.1,0.4,0.1c0.8,0.3,1.4,0.8,2,1.6c0.3,0.3,0.5,0.7,0.7,1.2c0.1-0.1,0.2-0.2,0.3-0.3
					c0.1-0.1,0.2-0.1,0.2-0.2c-0.2-0.5-0.5-1-0.8-1.4c-0.6-0.8-1.3-1.4-2.2-1.7c-0.1,0-0.1,0-0.2-0.1c0.5-0.7,1-1.3,1.6-1.8
					c0.8-0.7,1.5-1.1,2.3-1.4c0.8-0.2,1.6-0.2,2.4,0.1c0.8,0.3,1.4,0.8,2,1.6c0.5,0.7,0.9,1.7,1.2,2.7c0.2,0.8,0.3,1.6,0.4,2.6
					c-0.1,0-0.2-0.1-0.2-0.1c-0.8-0.3-1.7-0.3-2.6-0.1c-0.5,0.1-0.9,0.3-1.4,0.6c0,0.1,0.1,0.2,0.1,0.3c0,0.2,0.1,0.3,0.1,0.5
					c0.4-0.2,0.8-0.4,1.1-0.5c0.8-0.2,1.6-0.2,2.4,0.1c0.2,0.1,0.3,0.1,0.5,0.2c0,1.2-0.2,2.5-0.6,3.8c-0.2,0.9-0.5,1.7-0.9,2.5
					c0.1,0.1,0.3,0.3,0.3,0.6c0.4-0.9,0.8-1.8,1.1-2.8c0.3-1.2,0.5-2.4,0.6-3.6c0.4,0.3,0.7,0.6,1,1c0.5,0.7,0.9,1.7,1.2,2.7
					c0.3,1.1,0.4,2.2,0.4,3.4c0,1.3-0.2,2.5-0.6,3.8C372.2,94.7,371.8,95.8,371.1,96.9z"/>
			</g>
		</g>
		<g>
			<path class="st85" d="M30,240.7l-5.9,5.5c0.7,3.4,1.7,6.2,5.1,4.8l5.7-6.1L30,240.7z"/>
			<g>
				<g>
					<linearGradient id="SVGID_31_" gradientUnits="userSpaceOnUse" x1="26.9797" y1="214.7497" x2="76.3305" y2="214.7497">
						<stop  offset="0" style="stop-color:#120426"/>
						<stop  offset="0.2376" style="stop-color:#180633"/>
						<stop  offset="0.5402" style="stop-color:#1C073C"/>
						<stop  offset="1" style="stop-color:#1D073F"/>
					</linearGradient>
					<path class="st109" d="M30.9,248l-3.7-6.8c-0.4-0.7-0.3-1.6,0.2-2.2c16.9-20.2,16.2-20.8,19.7-27.5l0.2-0.3
						c6.8-12.9,9.4-24.8,10.1-29.2c0.2-1,1.1-1.7,2.2-1.6l7.3,0.9c1.1,0.1,9.6-1.2,9.4-0.1c-0.8,5-11.3,20.8-19,35.4l-0.2,0.3
						c-3.8,7.3-6.2,11.3-23,31.5C33.3,249.4,31.6,249.3,30.9,248z"/>
				</g>
			</g>
			<path class="st85" d="M67.2,229.1l-5.9,5.5c0.7,3.4,1.7,6.2,5.1,4.8l5.7-6.1L67.2,229.1z"/>
			<g>
				<g>
					<linearGradient id="SVGID_32_" gradientUnits="userSpaceOnUse" x1="65.6442" y1="206.2604" x2="99.945" y2="206.2604">
						<stop  offset="0" style="stop-color:#120426"/>
						<stop  offset="0.2376" style="stop-color:#180633"/>
						<stop  offset="0.5402" style="stop-color:#1C073C"/>
						<stop  offset="1" style="stop-color:#1D073F"/>
					</linearGradient>
					<path class="st110" d="M68.3,236l-2.5-7.9c-0.2-0.7-0.1-1.4,0.4-1.9c3.3-3.9,3.7-3.7,8.4-8c5-4.5,10.8-11.1,11.7-14.2
						c-6.9-14.1-14-19.1-14-19.1l10.5-9.8c0.8,0.7,8.2,6.9,16.3,23.6c4.2,8.7-5.5,17.6-16.8,27.8c-3.8,3.5-7.4,6.9-10.5,10.2
						C70.6,237.9,68.7,237.5,68.3,236z"/>
				</g>
			</g>
			<linearGradient id="SVGID_33_" gradientUnits="userSpaceOnUse" x1="54.8954" y1="243.5935" x2="66.417" y2="243.5935">
				<stop  offset="0" style="stop-color:#2F1359"/>
				<stop  offset="2.421618e-02" style="stop-color:#31145C"/>
				<stop  offset="0.2044" style="stop-color:#3B1871"/>
				<stop  offset="0.4054" style="stop-color:#431C80"/>
				<stop  offset="0.6416" style="stop-color:#481D89"/>
				<stop  offset="1" style="stop-color:#491E8C"/>
			</linearGradient>
			<path class="st111" d="M63.9,245l2.6-5.6c-2.4-0.2-3.2-2.7-2.5-7.2l-5.8,2.3c-1,0.4-1.6,1.2-1.8,2.3l-1.1,8.3l-0.4,5
				c-0.1,1.4,0.8,4.4,2.3,4.8C57.2,254.9,60.7,256.5,63.9,245z"/>
			<linearGradient id="SVGID_34_" gradientUnits="userSpaceOnUse" x1="16.8578" y1="255.9168" x2="28.3795" y2="255.9168">
				<stop  offset="0" style="stop-color:#2F1359"/>
				<stop  offset="2.421618e-02" style="stop-color:#31145C"/>
				<stop  offset="0.2044" style="stop-color:#3B1871"/>
				<stop  offset="0.4054" style="stop-color:#431C80"/>
				<stop  offset="0.6416" style="stop-color:#481D89"/>
				<stop  offset="1" style="stop-color:#491E8C"/>
			</linearGradient>
			<path class="st112" d="M25.8,257.3l2.6-5.6c-2.4-0.2-3.2-2.7-2.5-7.2l-5.8,2.3c-1,0.4-1.6,1.2-1.8,2.3l-1.1,8.3l-0.4,5
				c-0.1,1.4,0.8,4.4,2.3,4.8C19.2,267.3,22.6,268.8,25.8,257.3z"/>
			<g>
				<g>
					<linearGradient id="SVGID_35_" gradientUnits="userSpaceOnUse" x1="54.9941" y1="172.3036" x2="86.1927" y2="172.3036">
						<stop  offset="0" style="stop-color:#120426"/>
						<stop  offset="0.2376" style="stop-color:#180633"/>
						<stop  offset="0.5402" style="stop-color:#1C073C"/>
						<stop  offset="1" style="stop-color:#1D073F"/>
					</linearGradient>
					<path class="st113" d="M80.6,166.6c8.7,6.7,6.3,14-0.5,18.6c-5.2,3.5-9.8,6.8-16.6,4.8c-3.6-1.1-9.3-7-8.3-12.5
						c0.6-3.6,9.6-19.6,13.3-22.1C75.2,150.8,70.5,158.8,80.6,166.6z"/>
				</g>
			</g>
			<g>
				<linearGradient id="SVGID_36_" gradientUnits="userSpaceOnUse" x1="98.4449" y1="136.2723" x2="133.7442" y2="136.2723">
					<stop  offset="0" style="stop-color:#B57676"/>
					<stop  offset="3.945488e-02" style="stop-color:#BD7F7D"/>
					<stop  offset="0.1793" style="stop-color:#D59A93"/>
					<stop  offset="0.3315" style="stop-color:#E8AFA5"/>
					<stop  offset="0.5004" style="stop-color:#F5BEB1"/>
					<stop  offset="0.6989" style="stop-color:#FDC7B8"/>
					<stop  offset="1" style="stop-color:#FFCABA"/>
				</linearGradient>
				<path class="st114" d="M111.3,149.4c-4.6,0-7.4-3.5-9.3-5.8c-0.4-0.5-1-1.3-1.3-1.5c-1.6-0.6-2.6-2.3-2.2-4
					c0.4-1.8,2.3-2.9,4.1-2.5c2.1,0.5,3.4,2.2,4.7,3.8c1.6,2,2.7,3.3,4.1,3.3c1.6-0.1,6.4-2,16-17.9c1-1.6,3-2.1,4.6-1.1
					c1.6,1,2.1,3,1.1,4.6c-8.7,14.2-15.2,20.8-21.4,21.2C111.7,149.4,111.5,149.4,111.3,149.4z M101,142.2
					C101,142.2,101,142.2,101,142.2C101,142.2,101,142.2,101,142.2z"/>
			</g>
			<g>
				<linearGradient id="SVGID_37_" gradientUnits="userSpaceOnUse" x1="36.9476" y1="158.1834" x2="68.1296" y2="158.1834">
					<stop  offset="0" style="stop-color:#FFCABA"/>
					<stop  offset="0.1937" style="stop-color:#F7C1B2"/>
					<stop  offset="0.514" style="stop-color:#E1A89E"/>
					<stop  offset="0.9191" style="stop-color:#BD7F7D"/>
					<stop  offset="1" style="stop-color:#B57676"/>
				</linearGradient>
				<path class="st115" d="M67.3,141.1c-3.9,3.7-7.6,5.7-11.7,9.3c-9.2,7.8-12.1,17.1-12.7,27.1c-0.2,3.6-6.1,3-5.9-0.6
					c0.6-10.7,3.6-21.3,11.4-29c2.6-2.5,5.5-4.7,8.6-6.6c2.1-1.3,4.5-2.4,6.3-4C65.8,134.8,69.9,138.6,67.3,141.1L67.3,141.1z"/>
			</g>
			<linearGradient id="SVGID_38_" gradientUnits="userSpaceOnUse" x1="52.5015" y1="151.8297" x2="107.6681" y2="151.8297">
				<stop  offset="0" style="stop-color:#2F1359"/>
				<stop  offset="2.241254e-03" style="stop-color:#2F1359"/>
				<stop  offset="0.2029" style="stop-color:#3B1870"/>
				<stop  offset="0.4202" style="stop-color:#431B80"/>
				<stop  offset="0.6664" style="stop-color:#471D89"/>
				<stop  offset="1" style="stop-color:#491E8C"/>
			</linearGradient>
			<path class="st116" d="M107.4,138l-9.2-12.6c-0.4-0.6-1-1.1-1.6-1.4c-3.6-2.9-9.2-2.2-13.7,0.1c-3.3,1.7-10.5,3.4-16,6.7
				c-0.8,0.4-1.7,1.2-2.3,1.7l-11.3,9.9c-1.9,1.5-0.2,5.5,2.3,7.5c0,0,1.8,1.9,3.7,1.1c0,0,0,0,0,0c0,0,0,0,0,0l0,0
				c0.2-0.1,0.5-0.2,0.7-0.3l0.1-0.1c1.2-0.8,1.7-1.8,2.5-2.7l1-1.1c-3.3,10.8-6.9,22.4-8.6,30.6c1.7,6.8,15.4,4.3,29.2-1.5l0,0
				l0.2-0.1c0.6-0.3,1.2-0.5,1.8-0.8c0,0,6.1-24.9,9.7-35.6l2.2,3.7C99.9,146.5,109.2,142.2,107.4,138z"/>
			<linearGradient id="SVGID_39_" gradientUnits="userSpaceOnUse" x1="79.2505" y1="123.4246" x2="90.3295" y2="123.4246">
				<stop  offset="0" style="stop-color:#B57676"/>
				<stop  offset="6.165922e-03" style="stop-color:#B67777"/>
				<stop  offset="0.1511" style="stop-color:#D1928C"/>
				<stop  offset="0.3078" style="stop-color:#E5A79C"/>
				<stop  offset="0.4826" style="stop-color:#F4B6A7"/>
				<stop  offset="0.6882" style="stop-color:#FCBFAE"/>
				<stop  offset="1" style="stop-color:#FFC2B0"/>
			</linearGradient>
			<path class="st117" d="M86.4,127.6l3.9-11l-7.9,1.5l-3.2,9C78.7,128.6,83.8,133.1,86.4,127.6z"/>
			<linearGradient id="SVGID_40_" gradientUnits="userSpaceOnUse" x1="84.2806" y1="125.2099" x2="87.6624" y2="125.2099">
				<stop  offset="0.1505" style="stop-color:#C7755C"/>
				<stop  offset="1" style="stop-color:#FFC2B0"/>
			</linearGradient>
			<path class="st118" d="M87.7,124.1c0,0-3.4-0.6-3.4-0.6c0,0,0.9,2.4,2.4,3.4L87.7,124.1z"/>
			<linearGradient id="SVGID_41_" gradientUnits="userSpaceOnUse" x1="72.3925" y1="111.9826" x2="93.1954" y2="111.9826">
				<stop  offset="0" style="stop-color:#120426"/>
				<stop  offset="0.2371" style="stop-color:#180633"/>
				<stop  offset="0.5608" style="stop-color:#1C073C"/>
				<stop  offset="1" style="stop-color:#1D073F"/>
			</linearGradient>
			<path class="st119" d="M91.7,101.1C91.7,101.1,91.7,101.1,91.7,101.1c-0.2-0.2-0.5-0.3-0.8-0.5c-1.5-0.6-4.6-0.3-7.3-0.3
				c-7.6,0.1-13.3,6.4-10.4,13.9c0,0,3,8.5,8.3,9.4c1,0.2,1.8-0.7,1.7-1.6c0,0-3.4-2.1-0.7-5.9c0.6-0.9,0.3-2.1-0.3-3.3
				c-0.4-0.9-0.1-1.9,0.7-2.3c0.1,0,0.3,0.1,0.5,0.1c2.5,0.1,6.1-0.4,8.1-2.3C93.4,106.5,94,102.4,91.7,101.1z"/>
			<path class="st95" d="M63.7,146.9c0,0-8.2,26.1-8.6,30.6c0,0,0.3,3.3,5,3.9c0,0-2.6-2.1-1.2-6.3
				C60.2,170.9,65.6,148.9,63.7,146.9z"/>
			<linearGradient id="SVGID_42_" gradientUnits="userSpaceOnUse" x1="78.2276" y1="115.6393" x2="95.7021" y2="115.6393">
				<stop  offset="0" style="stop-color:#B57676"/>
				<stop  offset="3.945488e-02" style="stop-color:#BD7F7D"/>
				<stop  offset="0.1793" style="stop-color:#D59A93"/>
				<stop  offset="0.3315" style="stop-color:#E8AFA5"/>
				<stop  offset="0.5004" style="stop-color:#F5BEB1"/>
				<stop  offset="0.6989" style="stop-color:#FDC7B8"/>
				<stop  offset="1" style="stop-color:#FFCABA"/>
			</linearGradient>
			<path class="st120" d="M95.3,115.6l-3.4-9l-0.8,1.2l-4.8,2.3c-8-1.5-1.9,7.3-6,6.9c-1.2-0.3-2,0.4-2,1.6c0.1,1.2,1.1,2.5,2.4,2.9
				c0.5,0.2,1,0.1,1.3-0.1c1.3,2.5,4.1,3.8,6.8,3.2c0.3-0.1,0.7-0.1,1-0.3l2-0.8C94.9,122.3,96.5,118.8,95.3,115.6z"/>
		</g>
		<g>
			<linearGradient id="SVGID_43_" gradientUnits="userSpaceOnUse" x1="427.344" y1="91.0639" x2="479.6094" y2="91.0639">
				<stop  offset="0" style="stop-color:#996A30"/>
				<stop  offset="0.3336" style="stop-color:#96682F"/>
				<stop  offset="0.5798" style="stop-color:#8D612C"/>
				<stop  offset="0.7971" style="stop-color:#7D5727"/>
				<stop  offset="0.9978" style="stop-color:#664720"/>
				<stop  offset="1" style="stop-color:#664720"/>
			</linearGradient>
			<path class="st121" d="M479.5,91.3c0.3-2.3-0.4-4.7-1.8-6.3c-0.1-0.2-0.3-0.3-0.5-0.3c-0.2,0-0.4,0.1-0.5,0.3
				c-1.1,1.1-2,2.5-3.1,3.4c-1.2,1-2.9,1.4-4,0.4c2.1-1.6,3.6-4.1,4.1-6.9c-2,2.3-4.2,4.7-7,4.8c-1.4,0.1-2.8-0.4-4.2-0.9
				c-3.4-1.3-6.8-2.5-10.1-3.8c-1.1-0.4-5.4-4-7.3-5.1c-0.1-0.1-0.1-0.1-0.2-0.2c0,0-0.1-0.1-0.1-0.1c-7.6-6.2-17.4-1.5-17.3,5.9
				c0,0.5,0.6,0.9,1.1,0.6l3.3-1.7c0,0,0.7,0.7,1.8,1.7c-0.1,0.6-0.1,1.3,0,1.9c0.6,2.6,2.3,4.7,4,6.6c1,1.1,1.7,2.9,2.7,4
				c0.4,0.5,0.8,0.9,1.3,1.4l0.1,0.5c0,0,0.1,0,0.2-0.1c3.6,3.8,7.6,7.2,12.1,9.3c5.7,2.7,12.5,2.5,17.8-1.1c1.8-1.3,3.4-2.9,5-4.5
				c0.9-0.9,1.7-1.8,2.3-3s0.7-2.7,0.1-3.8c-0.9,1-1.9,1.8-3.1,2.3C477.8,95.5,479.2,93.5,479.5,91.3z"/>
			<path class="st122" d="M406,166.8c-1-1.9,7.2,21.8,21.3,14.7c10.4-5.2,3.2-26.3,3.2-26.3L406,166.8z"/>
			<g>
				<linearGradient id="SVGID_44_" gradientUnits="userSpaceOnUse" x1="397.5334" y1="181.5232" x2="433.9596" y2="181.5232">
					<stop  offset="0" style="stop-color:#FFCABA"/>
					<stop  offset="0.1646" style="stop-color:#F1BAAD"/>
					<stop  offset="0.7234" style="stop-color:#C68985"/>
					<stop  offset="1" style="stop-color:#B57676"/>
				</linearGradient>
				<path class="st123" d="M426.7,150.6l-25.2,12.9c-3.5,1.8-5,6-3.4,9.5l17.2,39.5l4.3-1.6c-3.9-16.2-6.1-28.7-12.6-35.7l26.8-17.7
					L426.7,150.6z"/>
				<linearGradient id="SVGID_45_" gradientUnits="userSpaceOnUse" x1="395.9827" y1="187.493" x2="446.7121" y2="187.493">
					<stop  offset="0" style="stop-color:#FFCABA"/>
					<stop  offset="0.1911" style="stop-color:#F7C1B3"/>
					<stop  offset="0.4999" style="stop-color:#E2A9A0"/>
					<stop  offset="0.8858" style="stop-color:#C08380"/>
					<stop  offset="1" style="stop-color:#B57676"/>
				</linearGradient>
				<polygon class="st124" points="446.7,162.3 422.2,196.8 399.7,227.4 396,224.9 418.2,184.6 438.6,147.6 				"/>
				<linearGradient id="SVGID_46_" gradientUnits="userSpaceOnUse" x1="423.5901" y1="144.4004" x2="449.595" y2="144.4004">
					<stop  offset="0" style="stop-color:#1D073F"/>
					<stop  offset="0.4598" style="stop-color:#1C073C"/>
					<stop  offset="0.7624" style="stop-color:#180633"/>
					<stop  offset="1" style="stop-color:#120426"/>
				</linearGradient>
				<path class="st125" d="M449.5,150.6c-0.8,11-7.8,12.1-14.9,8c-7.1-4.1-11-13.4-11-21.6c0,0,3.9-12.1,11-8
					C441.7,133,450.4,137.8,449.5,150.6z"/>
				<linearGradient id="SVGID_47_" gradientUnits="userSpaceOnUse" x1="401.018" y1="158.5361" x2="449.7623" y2="158.5361">
					<stop  offset="0" style="stop-color:#1D073F"/>
					<stop  offset="0.4598" style="stop-color:#1C073C"/>
					<stop  offset="0.7624" style="stop-color:#180633"/>
					<stop  offset="1" style="stop-color:#120426"/>
				</linearGradient>
				<path class="st126" d="M420.4,142.2c0-0.1,0-0.1,0-0.1c0,0,1.1-11.2,9-8.7c2.1,0.7,8.6,1.4,10.1,3.1c3.3,3.6,8.8,2.3,10.1,11.8
					c0.6,4.3-0.6,11.5-2.1,13.4L432.6,184c0,0-8.7-19.7-31.6-20.7l16.9-14.4C419.9,147.3,420.8,144.7,420.4,142.2z"/>
				<linearGradient id="SVGID_48_" gradientUnits="userSpaceOnUse" x1="387.7702" y1="230.2298" x2="402.7442" y2="230.2298">
					<stop  offset="0" style="stop-color:#491E8C"/>
					<stop  offset="0.4656" style="stop-color:#3A186E"/>
					<stop  offset="0.871" style="stop-color:#2F1359"/>
				</linearGradient>
				<path class="st127" d="M402.4,224.4l0.2,3.4c0.1,1-0.4,1.9-1.2,2.5l-9.6,6.6c-0.5,0.4-1.2,0.5-1.8,0.2l-1.1-0.5
					c-1-0.4-1.3-1.6-0.7-2.4l5.7-8l2.8-3l6.2,0.1L402.4,224.4z"/>
				<linearGradient id="SVGID_49_" gradientUnits="userSpaceOnUse" x1="414.9076" y1="217.3989" x2="421.7421" y2="217.3989">
					<stop  offset="0" style="stop-color:#491E8C"/>
					<stop  offset="0.4656" style="stop-color:#3A186E"/>
					<stop  offset="0.871" style="stop-color:#2F1359"/>
				</linearGradient>
				<path class="st128" d="M419.9,208.5l1.5,2.5c0.3,0.5,0.4,1.1,0.4,1.7c-0.3,3.2-1.2,13.3-1.7,13.6l-1.1,0.5
					c-0.9,0.4-2-0.2-2.2-1.2l-1.6-9.7l-0.2-4.1l4-3.9L419.9,208.5z"/>
			</g>
			<g>
				<linearGradient id="SVGID_50_" gradientUnits="userSpaceOnUse" x1="454.341" y1="135.7973" x2="475.6014" y2="135.7973">
					<stop  offset="0" style="stop-color:#B57676"/>
					<stop  offset="0.1142" style="stop-color:#C08380"/>
					<stop  offset="0.5001" style="stop-color:#E2A9A0"/>
					<stop  offset="0.8089" style="stop-color:#F7C1B3"/>
					<stop  offset="1" style="stop-color:#FFCABA"/>
				</linearGradient>
				<path class="st129" d="M472.6,157.8c-1.6,0-3-1.3-3-2.9c-0.3-13.6-5.1-25.4-14.5-36c-1.1-1.2-1-3.1,0.2-4.2
					c1.2-1.1,3.1-1,4.2,0.2c10.3,11.5,15.6,24.9,16,39.8C475.6,156.3,474.3,157.7,472.6,157.8C472.6,157.8,472.6,157.8,472.6,157.8z
					"/>
			</g>
			<g>
				<linearGradient id="SVGID_51_" gradientUnits="userSpaceOnUse" x1="389.1194" y1="115.2298" x2="417.343" y2="115.2298">
					<stop  offset="0" style="stop-color:#FFCABA"/>
					<stop  offset="0.3011" style="stop-color:#FDC7B8"/>
					<stop  offset="0.4996" style="stop-color:#F5BEB1"/>
					<stop  offset="0.6685" style="stop-color:#E8AFA5"/>
					<stop  offset="0.8207" style="stop-color:#D59A93"/>
					<stop  offset="0.9605" style="stop-color:#BD7F7D"/>
					<stop  offset="1" style="stop-color:#B57676"/>
				</linearGradient>
				<path class="st130" d="M405.4,127.4c-0.7,0-1.4-0.1-2-0.2c-9.4-2.1-13.7-18.5-14.1-20.4c-0.4-1.6,0.6-3.2,2.2-3.6
					c1.6-0.4,3.2,0.6,3.6,2.2c1.2,4.8,5,14.9,9.6,16c2.5,0.6,5.4-2.2,7.3-4.6c1-1.3,2.9-1.5,4.2-0.5c1.3,1,1.5,2.9,0.5,4.2
					C413,125.1,409.2,127.4,405.4,127.4z"/>
			</g>
			<linearGradient id="SVGID_52_" gradientUnits="userSpaceOnUse" x1="408.8004" y1="118.1016" x2="468.6441" y2="118.1016">
				<stop  offset="0" style="stop-color:#491E8C"/>
				<stop  offset="0.4656" style="stop-color:#3A186E"/>
				<stop  offset="0.871" style="stop-color:#2F1359"/>
			</linearGradient>
			<path class="st131" d="M468.2,125c-4.6-7.7-9.6-15.1-17.1-19.5c-0.3-0.2-0.7-0.3-1.1-0.4c-7-4.8-12.3-5.6-17.2-6.5
				c-2.4-0.4-6.6-1.9-9.2-1.5c-1.3-0.1-2.5,0.3-3,1.5c-3.2,6.8-6.8,13.2-11.3,19.2c-2.3,3.1,4,7.7,6.3,4.7c1.9-2.5,2.9-4.5,4.1-6.7
				c-0.1,0.4-0.2,0.7-0.2,1c-0.2,3,3.2,7.1,3.5,18.3l0.9,1.1c0,0,9,6.6,20.5-0.2l4.8-14.1l2.5-4c0.4-0.2,1.4-0.1,2.1,0
				c3.3,3.6,5.9,7.8,8.5,12.1C464.3,133.5,470.3,128.4,468.2,125z"/>
			<linearGradient id="SVGID_53_" gradientUnits="userSpaceOnUse" x1="431.0619" y1="104.3535" x2="447.5285" y2="104.3535">
				<stop  offset="0" style="stop-color:#FFCABA"/>
				<stop  offset="0.3011" style="stop-color:#FDC7B8"/>
				<stop  offset="0.4996" style="stop-color:#F5BEB1"/>
				<stop  offset="0.6685" style="stop-color:#E8AFA5"/>
				<stop  offset="0.8207" style="stop-color:#D59A93"/>
				<stop  offset="0.9605" style="stop-color:#BD7F7D"/>
				<stop  offset="1" style="stop-color:#B57676"/>
			</linearGradient>
			<path class="st132" d="M434,98.6c0,0-5.9,6.1-0.8,10.5c5.2,4.4,14.4-5.5,14.4-5.5C442.9,100.7,438.1,98.8,434,98.6z"/>
			<linearGradient id="SVGID_54_" gradientUnits="userSpaceOnUse" x1="433.8064" y1="98.0718" x2="443.0042" y2="98.0718">
				<stop  offset="0" style="stop-color:#FFCABA"/>
				<stop  offset="0.3011" style="stop-color:#FDC7B8"/>
				<stop  offset="0.4996" style="stop-color:#F5BEB1"/>
				<stop  offset="0.6685" style="stop-color:#E8AFA5"/>
				<stop  offset="0.8207" style="stop-color:#D59A93"/>
				<stop  offset="0.9605" style="stop-color:#BD7F7D"/>
				<stop  offset="1" style="stop-color:#B57676"/>
			</linearGradient>
			<path class="st133" d="M436.6,102.1l-2.8-10.9l6.9,2.2l2.3,8.9C443.5,103.7,438.7,107.7,436.6,102.1z"/>
			<linearGradient id="SVGID_55_" gradientUnits="userSpaceOnUse" x1="435.6333" y1="98.4998" x2="440.0747" y2="98.4998">
				<stop  offset="0" style="stop-color:#FFC2B0"/>
				<stop  offset="0.8495" style="stop-color:#C7755C"/>
			</linearGradient>
			<path class="st134" d="M435.6,99.1c1.6,0,3.2-1.3,4.4-3.1c0,0-1.6,4.8-3.7,5L435.6,99.1z"/>
			<linearGradient id="SVGID_56_" gradientUnits="userSpaceOnUse" x1="426.8429" y1="90.2641" x2="443.6307" y2="90.2641">
				<stop  offset="0" style="stop-color:#FFCABA"/>
				<stop  offset="0.3011" style="stop-color:#FDC7B8"/>
				<stop  offset="0.4996" style="stop-color:#F5BEB1"/>
				<stop  offset="0.6685" style="stop-color:#E8AFA5"/>
				<stop  offset="0.8207" style="stop-color:#D59A93"/>
				<stop  offset="0.9605" style="stop-color:#BD7F7D"/>
				<stop  offset="1" style="stop-color:#B57676"/>
			</linearGradient>
			<path class="st135" d="M443.6,91.1c-0.2-1.1-1.1-1.6-2.2-1.1l-9.7-8.6l-2.5,1.3l0,0l0,0l-1,0.5l-1.3,8.6
				c-0.1,0.8-0.1,1.6,0.1,2.4c0.6,2.3,2.4,4.1,4.9,4.5l2.1,0.3c3.3,0.7,5.3-2.1,5.2-2c0.6-0.7,1.2-1.5,1.4-2.5
				c0.4,0.1,0.8,0,1.3-0.2C443.1,93.7,443.8,92.3,443.6,91.1z"/>
			<path class="st95" d="M432.2,123.9c0,0,6.6,4.9,11.4,0c4.8-4.9,8-5.9,8-5.9l-2.5,4l-4.8,14.1c0,0-2.1,1.2-3.4,1.7
				c0,0,5.1-9.1,3.8-11.1C443.5,124.5,439.7,132.3,432.2,123.9z"/>
			<path class="st95" d="M420.2,120.4c0,0,1.4,3.2,4.4,3.6c3,0.4,4.7-1.9,4.7-1.9s-6.3,3.2-9.8-4.5L420.2,120.4z"/>
		</g>
	</g>
</g>
</svg>
