<?xml version="1.0" encoding="utf-8"?>
<!-- Generator: Adobe Illustrator 21.0.0, SVG Export Plug-In . SVG Version: 6.00 Build 0)  -->
<svg version="1.1" id="Layer_1" xmlns="http://www.w3.org/2000/svg" xmlns:xlink="http://www.w3.org/1999/xlink" x="0px" y="0px"
	 viewBox="0 0 490 490" style="enable-background:new 0 0 490 490;" xml:space="preserve">
<style type="text/css">
	.st0{fill:url(#SVGID_1_);}
	.st1{fill:url(#SVGID_2_);}
	.st2{fill:url(#SVGID_3_);}
	.st3{fill:none;stroke:url(#SVGID_4_);stroke-width:2;stroke-linecap:round;stroke-linejoin:round;stroke-miterlimit:10;}
	.st4{fill:none;stroke:url(#SVGID_5_);stroke-width:2;stroke-linecap:round;stroke-linejoin:round;stroke-miterlimit:10;}
	.st5{opacity:0;fill:#FFFFFF;}
	.st6{opacity:1.960800e-02;fill:#FBFBFC;}
	.st7{opacity:3.921600e-02;fill:#F8F8F9;}
	.st8{opacity:5.882400e-02;fill:#F4F4F6;}
	.st9{opacity:7.843100e-02;fill:#F1F1F3;}
	.st10{opacity:9.803900e-02;fill:#EDEDF0;}
	.st11{opacity:0.1176;fill:#E9E9ED;}
	.st12{opacity:0.1373;fill:#E6E6EB;}
	.st13{opacity:0.1569;fill:#E2E2E8;}
	.st14{opacity:0.1765;fill:#DFDFE5;}
	.st15{opacity:0.1961;fill:#DBDBE2;}
	.st16{opacity:0.2157;fill:#D8D8DF;}
	.st17{opacity:0.2353;fill:#D4D4DC;}
	.st18{opacity:0.2549;fill:#D0D0D9;}
	.st19{opacity:0.2745;fill:#CDCDD6;}
	.st20{opacity:0.2941;fill:#C9C9D3;}
	.st21{opacity:0.3137;fill:#C6C6D0;}
	.st22{opacity:0.3333;fill:#C2C2CD;}
	.st23{opacity:0.3529;fill:#BEBECA;}
	.st24{opacity:0.3725;fill:#BBBBC7;}
	.st25{opacity:0.3922;fill:#B7B7C5;}
	.st26{opacity:0.4118;fill:#B4B4C2;}
	.st27{opacity:0.4314;fill:#B0B0BF;}
	.st28{opacity:0.451;fill:#ACACBC;}
	.st29{opacity:0.4706;fill:#A9A9B9;}
	.st30{opacity:0.4902;fill:#A5A5B6;}
	.st31{opacity:0.5098;fill:#A2A2B3;}
	.st32{opacity:0.5294;fill:#9E9EB0;}
	.st33{opacity:0.549;fill:#9B9BAD;}
	.st34{opacity:0.5686;fill:#9797AA;}
	.st35{opacity:0.5882;fill:#9393A7;}
	.st36{opacity:0.6078;fill:#9090A4;}
	.st37{opacity:0.6275;fill:#8C8CA2;}
	.st38{opacity:0.6471;fill:#89899F;}
	.st39{opacity:0.6667;fill:#85859C;}
	.st40{opacity:0.6863;fill:#818199;}
	.st41{opacity:0.7059;fill:#7E7E96;}
	.st42{opacity:0.7255;fill:#7A7A93;}
	.st43{opacity:0.7451;fill:#777790;}
	.st44{opacity:0.7647;fill:#73738D;}
	.st45{opacity:0.7843;fill:#6F6F8A;}
	.st46{opacity:0.8039;fill:#6C6C87;}
	.st47{opacity:0.8235;fill:#686884;}
	.st48{opacity:0.8431;fill:#656581;}
	.st49{opacity:0.8627;fill:#61617E;}
	.st50{opacity:0.8824;fill:#5E5E7C;}
	.st51{opacity:0.902;fill:#5A5A79;}
	.st52{opacity:0.9216;fill:#565676;}
	.st53{opacity:0.9412;fill:#535373;}
	.st54{opacity:0.9608;fill:#4F4F70;}
	.st55{opacity:0.9804;fill:#4C4C6D;}
	.st56{fill:#48486A;}
	.st57{fill:url(#XMLID_3_);}
	.st58{fill:url(#XMLID_4_);}
	.st59{fill:url(#XMLID_5_);}
	.st60{fill:url(#XMLID_6_);}
	.st61{fill:url(#XMLID_7_);}
	.st62{fill:url(#XMLID_8_);}
	.st63{fill:#1D073F;}
	.st64{fill:url(#XMLID_9_);}
	.st65{fill:url(#XMLID_10_);}
	.st66{fill:#7E44D8;}
	.st67{fill:#FFA744;}
	.st68{fill:#6134A6;}
	.st69{fill:url(#XMLID_11_);}
	.st70{fill:url(#SVGID_6_);}
	.st71{fill:url(#SVGID_7_);}
	.st72{fill:#FFFFFF;}
	.st73{fill:#491E8C;}
	.st74{opacity:0.4;fill:#491E8C;enable-background:new    ;}
	.st75{fill:url(#XMLID_12_);}
	.st76{clip-path:url(#XMLID_13_);fill:url(#XMLID_14_);}
	.st77{fill:none;stroke:url(#XMLID_15_);stroke-miterlimit:10;}
	.st78{opacity:0.8;fill:none;stroke:url(#XMLID_16_);stroke-miterlimit:10;}
	.st79{opacity:0.6;fill:none;stroke:url(#XMLID_17_);stroke-miterlimit:10;}
	.st80{opacity:0.4;fill:none;stroke:url(#XMLID_18_);stroke-miterlimit:10;}
	.st81{fill:none;stroke:url(#SVGID_8_);stroke-width:2;stroke-linecap:round;stroke-linejoin:round;stroke-miterlimit:10;}
	.st82{fill:none;stroke:url(#SVGID_9_);stroke-width:2;stroke-linecap:round;stroke-linejoin:round;stroke-miterlimit:10;}
	.st83{fill:url(#SVGID_10_);}
	.st84{fill:url(#SVGID_11_);}
	.st85{fill:url(#SVGID_12_);}
	.st86{fill:url(#SVGID_13_);}
	.st87{fill:url(#SVGID_14_);}
	.st88{fill:url(#SVGID_15_);}
	.st89{fill:url(#SVGID_16_);}
	.st90{fill:url(#SVGID_17_);}
	.st91{fill:url(#SVGID_18_);}
	.st92{fill:url(#SVGID_19_);}
	.st93{fill:#231F20;}
	.st94{fill:url(#SVGID_20_);}
	.st95{fill:url(#SVGID_21_);}
	.st96{fill:url(#SVGID_22_);}
	.st97{fill:url(#SVGID_23_);}
	.st98{fill:url(#SVGID_24_);}
	.st99{fill:url(#SVGID_25_);}
	.st100{fill:url(#SVGID_26_);}
	.st101{fill:url(#SVGID_27_);}
	.st102{fill:url(#SVGID_28_);}
	.st103{fill:url(#SVGID_29_);}
	.st104{fill:url(#SVGID_30_);}
	.st105{fill:url(#SVGID_31_);}
	.st106{fill:url(#SVGID_32_);}
	.st107{fill:url(#SVGID_33_);}
	.st108{fill:url(#SVGID_34_);}
	.st109{fill:url(#SVGID_35_);}
	.st110{fill:url(#SVGID_36_);}
	.st111{fill:url(#SVGID_37_);}
	.st112{fill:url(#SVGID_38_);}
	.st113{fill:url(#SVGID_39_);}
	.st114{fill:url(#SVGID_40_);}
	.st115{fill:url(#SVGID_41_);}
	.st116{fill:url(#SVGID_42_);}
	.st117{fill:url(#SVGID_43_);}
	.st118{fill:#120426;}
	.st119{fill:url(#SVGID_44_);}
	.st120{fill:url(#SVGID_45_);}
	.st121{fill:url(#SVGID_46_);}
	.st122{fill:url(#SVGID_47_);}
	.st123{fill:url(#SVGID_48_);}
	.st124{fill:url(#SVGID_49_);}
	.st125{fill:url(#SVGID_50_);}
	.st126{fill:url(#SVGID_51_);}
	.st127{fill:url(#SVGID_52_);}
	.st128{fill:url(#SVGID_53_);}
	.st129{fill:url(#SVGID_54_);}
	.st130{fill:url(#SVGID_55_);}
	.st131{fill:url(#SVGID_56_);}
	.st132{opacity:0.25;fill:#120426;}
</style>
<g>
	<linearGradient id="SVGID_1_" gradientUnits="userSpaceOnUse" x1="263.1756" y1="31.9102" x2="362.4637" y2="99.0106">
		<stop  offset="0" style="stop-color:#F0E5FF;stop-opacity:0"/>
		<stop  offset="0.2844" style="stop-color:#EEE2FF;stop-opacity:0.1991"/>
		<stop  offset="0.5128" style="stop-color:#E7D8FF;stop-opacity:0.359"/>
		<stop  offset="0.7218" style="stop-color:#DBC7FF;stop-opacity:0.5053"/>
		<stop  offset="0.918" style="stop-color:#CBAFFF;stop-opacity:0.6426"/>
		<stop  offset="1" style="stop-color:#C2A3FF;stop-opacity:0.7"/>
	</linearGradient>
	<polygon class="st0" points="371.1,60.3 298,6.1 254.5,75.3 349.2,121.9 	"/>
	
		<linearGradient id="SVGID_2_" gradientUnits="userSpaceOnUse" x1="684.6873" y1="83.4936" x2="773.3336" y2="143.402" gradientTransform="matrix(-0.9214 0.3886 0.3886 0.9214 801.3161 -161.8271)">
		<stop  offset="0" style="stop-color:#F0E5FF;stop-opacity:0"/>
		<stop  offset="0.2844" style="stop-color:#EEE2FF;stop-opacity:0.1991"/>
		<stop  offset="0.5128" style="stop-color:#E7D8FF;stop-opacity:0.359"/>
		<stop  offset="0.7218" style="stop-color:#DBC7FF;stop-opacity:0.5053"/>
		<stop  offset="0.918" style="stop-color:#CBAFFF;stop-opacity:0.6426"/>
		<stop  offset="1" style="stop-color:#C2A3FF;stop-opacity:0.7"/>
	</linearGradient>
	<polygon class="st1" points="118.1,239.4 159.7,168.4 215.5,240.9 165.5,286.4 	"/>
	
		<radialGradient id="SVGID_3_" cx="356.0144" cy="262.4514" r="61.4219" gradientTransform="matrix(2.2223 0 0 2.2225 -547.5225 -411.7277)" gradientUnits="userSpaceOnUse">
		<stop  offset="0.35" style="stop-color:#FFFFFF;stop-opacity:0.7"/>
		<stop  offset="1" style="stop-color:#F0E5FF;stop-opacity:0"/>
	</radialGradient>
	<ellipse class="st2" cx="243.6" cy="171.6" rx="136.5" ry="136.5"/>
</g>
<g>
	
		<linearGradient id="SVGID_4_" gradientUnits="userSpaceOnUse" x1="630.9451" y1="2593.3811" x2="681.7017" y2="2593.3811" gradientTransform="matrix(-1 0 0 -1 1006.0496 2929.2959)">
		<stop  offset="0" style="stop-color:#CC8636"/>
		<stop  offset="0.1496" style="stop-color:#DA8F3A"/>
		<stop  offset="0.4388" style="stop-color:#EE9C3F"/>
		<stop  offset="0.7244" style="stop-color:#FBA443"/>
		<stop  offset="1" style="stop-color:#FFA744"/>
	</linearGradient>
	<path class="st3" d="M374.1,320.8L333,344.5c-3.7,2.3-3.5,4.4-7.7,6.5"/>
	
		<linearGradient id="SVGID_5_" gradientUnits="userSpaceOnUse" x1="516.2996" y1="2575.3987" x2="632.9451" y2="2575.3987" gradientTransform="matrix(-1 0 0 -1 1006.0496 2929.2959)">
		<stop  offset="0" style="stop-color:#F0E5FF;stop-opacity:0"/>
		<stop  offset="9.364273e-02" style="stop-color:#F3D8D9;stop-opacity:0.1102"/>
		<stop  offset="0.2218" style="stop-color:#F7C9AC;stop-opacity:0.261"/>
		<stop  offset="0.3509" style="stop-color:#FABD86;stop-opacity:0.4128"/>
		<stop  offset="0.4789" style="stop-color:#FCB369;stop-opacity:0.5634"/>
		<stop  offset="0.6054" style="stop-color:#FEAD55;stop-opacity:0.7123"/>
		<stop  offset="0.7299" style="stop-color:#FFA848;stop-opacity:0.8587"/>
		<stop  offset="0.85" style="stop-color:#FFA744"/>
		<stop  offset="1" style="stop-color:#CC8636"/>
	</linearGradient>
	<line class="st4" x1="488.8" y1="387" x2="374.1" y2="320.8"/>
	<g>
		<g id="XMLID_1220_">
			<path id="XMLID_1222_" class="st5" d="M236.5,305.1L92.3,388.4c-4.1,2.3-4.1,8.2,0,10.6l144.2,83.3c3.8,2.2,8.5,2.2,12.3,0
				L393,399c4.1-2.3,4.1-8.2,0-10.6l-144.2-83.3C245,302.9,240.3,302.9,236.5,305.1z"/>
			<path class="st6" d="M236.5,305.4l-143.8,83c-4,2.3-4,8.2,0,10.5l143.8,83c3.8,2.2,8.5,2.2,12.3,0l143.8-83c4-2.3,4-8.2,0-10.5
				l-143.8-83C245,303.2,240.3,303.2,236.5,305.4z"/>
			<path class="st7" d="M236.5,305.6L93.1,388.4c-4,2.3-4,8.2,0,10.5l143.4,82.8c3.8,2.2,8.5,2.2,12.3,0l143.4-82.8
				c4-2.3,4-8.2,0-10.5l-143.4-82.8C245,303.4,240.3,303.4,236.5,305.6z"/>
			<path class="st8" d="M236.5,305.9l-143,82.6c-4,2.3-4,8.1,0,10.5l143,82.6c3.8,2.2,8.4,2.2,12.2,0l143-82.6c4-2.3,4-8.1,0-10.5
				l-143-82.6C245,303.7,240.3,303.7,236.5,305.9z"/>
			<path class="st9" d="M236.5,306.1L93.9,388.5c-4,2.3-4,8.1,0,10.4l142.6,82.3c3.8,2.2,8.4,2.2,12.2,0l142.6-82.3
				c4-2.3,4-8.1,0-10.4l-142.6-82.3C244.9,303.9,240.3,303.9,236.5,306.1z"/>
			<path class="st10" d="M236.5,306.4L94.3,388.5c-4,2.3-4,8.1,0,10.4L236.5,481c3.8,2.2,8.4,2.2,12.2,0l142.2-82.1
				c4-2.3,4-8.1,0-10.4l-142.2-82.1C244.9,304.2,240.3,304.2,236.5,306.4z"/>
			<path class="st11" d="M236.6,306.6L94.7,388.5c-4,2.3-4,8.1,0,10.4l141.8,81.9c3.7,2.2,8.4,2.2,12.1,0l141.8-81.9
				c4-2.3,4-8.1,0-10.4l-141.8-81.9C244.9,304.4,240.3,304.4,236.6,306.6z"/>
			<path class="st12" d="M236.6,306.9L95.2,388.5c-4,2.3-4,8,0,10.3l141.4,81.7c3.7,2.2,8.3,2.2,12.1,0l141.4-81.7c4-2.3,4-8,0-10.3
				l-141.4-81.7C244.9,304.7,240.3,304.7,236.6,306.9z"/>
			<path class="st13" d="M236.6,307.1l-141,81.4c-4,2.3-4,8,0,10.3l141,81.4c3.7,2.2,8.3,2.2,12,0l141-81.4c4-2.3,4-8,0-10.3
				l-141-81.4C244.9,304.9,240.3,304.9,236.6,307.1z"/>
			<path class="st14" d="M236.6,307.3L96,388.5c-4,2.3-4,8,0,10.3L236.6,480c3.7,2.1,8.3,2.1,12,0l140.6-81.2c4-2.3,4-8,0-10.3
				l-140.6-81.2C244.9,305.2,240.3,305.2,236.6,307.3z"/>
			<path class="st15" d="M236.6,307.6l-140.2,81c-3.9,2.3-3.9,8,0,10.3l140.2,81c3.7,2.1,8.3,2.1,12,0l140.2-81
				c3.9-2.3,3.9-8,0-10.3l-140.2-81C244.9,305.4,240.3,305.4,236.6,307.6z"/>
			<path class="st16" d="M236.6,307.8L96.8,388.6c-3.9,2.3-3.9,8,0,10.2l139.8,80.7c3.7,2.1,8.3,2.1,11.9,0l139.8-80.7
				c3.9-2.3,3.9-8,0-10.2l-139.8-80.7C244.9,305.7,240.3,305.7,236.6,307.8z"/>
			<path class="st17" d="M236.7,308.1L97.2,388.6c-3.9,2.3-3.9,7.9,0,10.2l139.4,80.5c3.7,2.1,8.2,2.1,11.9,0L388,398.8
				c3.9-2.3,3.9-7.9,0-10.2l-139.4-80.5C244.9,305.9,240.4,305.9,236.7,308.1z"/>
			<path class="st18" d="M236.7,308.3l-139,80.3c-3.9,2.3-3.9,7.9,0,10.2l139,80.3c3.7,2.1,8.2,2.1,11.9,0l139-80.3
				c3.9-2.3,3.9-7.9,0-10.2l-139-80.3C244.9,306.2,240.4,306.2,236.7,308.3z"/>
			<path class="st19" d="M236.7,308.6l-138.6,80c-3.9,2.3-3.9,7.9,0,10.1l138.6,80c3.7,2.1,8.2,2.1,11.8,0l138.6-80
				c3.9-2.3,3.9-7.9,0-10.1l-138.6-80C244.9,306.4,240.4,306.4,236.7,308.6z"/>
			<path class="st20" d="M236.7,308.8L98.5,388.6c-3.9,2.2-3.9,7.9,0,10.1l138.2,79.8c3.7,2.1,8.2,2.1,11.8,0l138.2-79.8
				c3.9-2.2,3.9-7.9,0-10.1l-138.2-79.8C244.9,306.7,240.4,306.7,236.7,308.8z"/>
			<path class="st21" d="M236.7,309.1L98.9,388.6c-3.9,2.2-3.9,7.8,0,10.1l137.8,79.6c3.6,2.1,8.1,2.1,11.8,0l137.8-79.6
				c3.9-2.2,3.9-7.8,0-10.1l-137.8-79.6C244.9,307,240.4,307,236.7,309.1z"/>
			<path class="st22" d="M236.8,309.3L99.3,388.7c-3.9,2.2-3.9,7.8,0,10.1l137.4,79.4c3.6,2.1,8.1,2.1,11.7,0l137.4-79.4
				c3.9-2.2,3.9-7.8,0-10.1l-137.4-79.4C244.9,307.2,240.4,307.2,236.8,309.3z"/>
			<path class="st23" d="M236.8,309.5l-137,79.1c-3.9,2.2-3.9,7.8,0,10l137,79.1c3.6,2.1,8.1,2.1,11.7,0l137-79.1
				c3.9-2.2,3.9-7.8,0-10l-137-79.1C244.9,307.5,240.4,307.5,236.8,309.5z"/>
			<path class="st24" d="M236.8,309.8l-136.6,78.9c-3.8,2.2-3.8,7.8,0,10l136.6,78.9c3.6,2.1,8.1,2.1,11.7,0l136.6-78.9
				c3.8-2.2,3.8-7.8,0-10l-136.6-78.9C244.8,307.7,240.4,307.7,236.8,309.8z"/>
			<path class="st25" d="M236.8,310l-136.2,78.7c-3.8,2.2-3.8,7.8,0,10l136.2,78.7c3.6,2.1,8,2.1,11.6,0l136.2-78.7
				c3.8-2.2,3.8-7.8,0-10L248.4,310C244.8,308,240.4,308,236.8,310z"/>
			<path class="st26" d="M236.8,310.3L101,388.7c-3.8,2.2-3.8,7.7,0,9.9l135.9,78.4c3.6,2.1,8,2.1,11.6,0l135.9-78.4
				c3.8-2.2,3.8-7.7,0-9.9l-135.9-78.4C244.8,308.2,240.4,308.2,236.8,310.3z"/>
			<path class="st27" d="M236.8,310.5l-135.5,78.2c-3.8,2.2-3.8,7.7,0,9.9l135.5,78.2c3.6,2.1,8,2.1,11.6,0l135.5-78.2
				c3.8-2.2,3.8-7.7,0-9.9l-135.5-78.2C244.8,308.5,240.4,308.5,236.8,310.5z"/>
			<path class="st28" d="M236.9,310.8l-135.1,78c-3.8,2.2-3.8,7.7,0,9.9l135.1,78c3.6,2.1,8,2.1,11.5,0l135.1-78
				c3.8-2.2,3.8-7.7,0-9.9l-135.1-78C244.8,308.7,240.4,308.7,236.9,310.8z"/>
			<path class="st29" d="M236.9,311l-134.7,77.7c-3.8,2.2-3.8,7.7,0,9.9l134.7,77.7c3.6,2.1,7.9,2.1,11.5,0L383,398.6
				c3.8-2.2,3.8-7.7,0-9.9L248.4,311C244.8,309,240.4,309,236.9,311z"/>
			<path class="st30" d="M236.9,311.3l-134.3,77.5c-3.8,2.2-3.8,7.6,0,9.8l134.3,77.5c3.5,2,7.9,2,11.5,0l134.3-77.5
				c3.8-2.2,3.8-7.6,0-9.8l-134.3-77.5C244.8,309.2,240.4,309.2,236.9,311.3z"/>
			<path class="st31" d="M236.9,311.5L103,388.8c-3.8,2.2-3.8,7.6,0,9.8l133.9,77.3c3.5,2,7.9,2,11.4,0l133.9-77.3
				c3.8-2.2,3.8-7.6,0-9.8l-133.9-77.3C244.8,309.5,240.4,309.5,236.9,311.5z"/>
			<path class="st32" d="M236.9,311.7l-133.5,77.1c-3.8,2.2-3.8,7.6,0,9.8l133.5,77.1c3.5,2,7.9,2,11.4,0l133.5-77.1
				c3.8-2.2,3.8-7.6,0-9.8l-133.5-77.1C244.8,309.7,240.4,309.7,236.9,311.7z"/>
			<path class="st33" d="M236.9,312l-133.1,76.8c-3.7,2.2-3.7,7.6,0,9.7l133.1,76.8c3.5,2,7.9,2,11.4,0l133.1-76.8
				c3.7-2.2,3.7-7.6,0-9.7L248.3,312C244.8,310,240.5,310,236.9,312z"/>
			<path class="st34" d="M237,312.2l-132.7,76.6c-3.7,2.2-3.7,7.5,0,9.7L237,475.1c3.5,2,7.8,2,11.3,0L381,398.5
				c3.7-2.2,3.7-7.5,0-9.7l-132.7-76.6C244.8,310.2,240.5,310.2,237,312.2z"/>
			<path class="st35" d="M237,312.5l-132.3,76.4c-3.7,2.2-3.7,7.5,0,9.7L237,474.9c3.5,2,7.8,2,11.3,0l132.3-76.4
				c3.7-2.2,3.7-7.5,0-9.7l-132.3-76.4C244.8,310.5,240.5,310.5,237,312.5z"/>
			<path class="st36" d="M237,312.7l-131.9,76.1c-3.7,2.1-3.7,7.5,0,9.6L237,474.6c3.5,2,7.8,2,11.3,0l131.9-76.1
				c3.7-2.1,3.7-7.5,0-9.6l-131.9-76.1C244.8,310.7,240.5,310.7,237,312.7z"/>
			<path class="st37" d="M237,313l-131.5,75.9c-3.7,2.1-3.7,7.5,0,9.6L237,474.4c3.5,2,7.8,2,11.2,0l131.5-75.9
				c3.7-2.1,3.7-7.5,0-9.6L248.2,313C244.8,311,240.5,311,237,313z"/>
			<path class="st38" d="M237,313.2L106,388.9c-3.7,2.1-3.7,7.5,0,9.6L237,474.1c3.5,2,7.7,2,11.2,0l131.1-75.7
				c3.7-2.1,3.7-7.5,0-9.6l-131.1-75.7C244.8,311.2,240.5,311.2,237,313.2z"/>
			<path class="st39" d="M237,313.5l-130.7,75.4c-3.7,2.1-3.7,7.4,0,9.6L237,473.9c3.5,2,7.7,2,11.2,0l130.7-75.4
				c3.7-2.1,3.7-7.4,0-9.6l-130.7-75.4C244.8,311.5,240.5,311.5,237,313.5z"/>
			<path class="st40" d="M237.1,313.7l-130.3,75.2c-3.7,2.1-3.7,7.4,0,9.5l130.3,75.2c3.4,2,7.7,2,11.1,0l130.3-75.2
				c3.7-2.1,3.7-7.4,0-9.5l-130.3-75.2C244.7,311.7,240.5,311.7,237.1,313.7z"/>
			<path class="st41" d="M237.1,313.9l-129.9,75c-3.7,2.1-3.7,7.4,0,9.5l129.9,75c3.4,2,7.7,2,11.1,0l129.9-75
				c3.7-2.1,3.7-7.4,0-9.5l-129.9-75C244.7,312,240.5,312,237.1,313.9z"/>
			<path class="st42" d="M237.1,314.2l-129.5,74.8c-3.6,2.1-3.6,7.4,0,9.5l129.5,74.8c3.4,2,7.6,2,11.1,0l129.5-74.8
				c3.6-2.1,3.6-7.4,0-9.5l-129.5-74.8C244.7,312.2,240.5,312.2,237.1,314.2z"/>
			<path class="st43" d="M237.1,314.4L108,389c-3.6,2.1-3.6,7.3,0,9.4l129.1,74.5c3.4,2,7.6,2,11,0l129.1-74.5
				c3.6-2.1,3.6-7.3,0-9.4l-129.1-74.5C244.7,312.5,240.5,312.5,237.1,314.4z"/>
			<path class="st44" d="M237.1,314.7L108.4,389c-3.6,2.1-3.6,7.3,0,9.4l128.7,74.3c3.4,2,7.6,2,11,0l128.7-74.3
				c3.6-2.1,3.6-7.3,0-9.4l-128.7-74.3C244.7,312.7,240.5,312.7,237.1,314.7z"/>
			<path class="st45" d="M237.1,314.9L108.9,389c-3.6,2.1-3.6,7.3,0,9.4l128.3,74.1c3.4,2,7.6,2,11,0l128.3-74.1
				c3.6-2.1,3.6-7.3,0-9.4l-128.3-74.1C244.7,313,240.5,313,237.1,314.9z"/>
			<path class="st46" d="M237.2,315.2L109.3,389c-3.6,2.1-3.6,7.3,0,9.4l127.9,73.8c3.4,2,7.5,2,10.9,0L376,398.4
				c3.6-2.1,3.6-7.3,0-9.4l-127.9-73.8C244.7,313.2,240.5,313.2,237.2,315.2z"/>
			<path class="st47" d="M237.2,315.4L109.7,389c-3.6,2.1-3.6,7.3,0,9.3l127.5,73.6c3.4,1.9,7.5,1.9,10.9,0l127.5-73.6
				c3.6-2.1,3.6-7.3,0-9.3l-127.5-73.6C244.7,313.5,240.5,313.5,237.2,315.4z"/>
			<path class="st48" d="M237.2,315.7L110.1,389c-3.6,2.1-3.6,7.2,0,9.3l127.1,73.4c3.4,1.9,7.5,1.9,10.9,0l127.1-73.4
				c3.6-2.1,3.6-7.2,0-9.3l-127.1-73.4C244.7,313.7,240.6,313.7,237.2,315.7z"/>
			<path class="st49" d="M237.2,315.9L110.5,389c-3.6,2.1-3.6,7.2,0,9.3l126.7,73.1c3.3,1.9,7.5,1.9,10.8,0l126.7-73.1
				c3.6-2.1,3.6-7.2,0-9.3L248,315.9C244.7,314,240.6,314,237.2,315.9z"/>
			<path class="st50" d="M237.2,316.1l-126.3,72.9c-3.6,2.1-3.6,7.2,0,9.2l126.3,72.9c3.3,1.9,7.5,1.9,10.8,0l126.3-72.9
				c3.6-2.1,3.6-7.2,0-9.2L248,316.1C244.7,314.2,240.6,314.2,237.2,316.1z"/>
			<path class="st51" d="M237.2,316.4l-125.9,72.7c-3.5,2-3.5,7.2,0,9.2L237.2,471c3.3,1.9,7.4,1.9,10.8,0l125.9-72.7
				c3.5-2,3.5-7.2,0-9.2L248,316.4C244.7,314.5,240.6,314.5,237.2,316.4z"/>
			<path class="st52" d="M237.3,316.6l-125.5,72.5c-3.5,2-3.5,7.1,0,9.2l125.5,72.5c3.3,1.9,7.4,1.9,10.7,0l125.5-72.5
				c3.5-2,3.5-7.1,0-9.2L248,316.6C244.7,314.7,240.6,314.7,237.3,316.6z"/>
			<path class="st53" d="M237.3,316.9l-125.1,72.2c-3.5,2-3.5,7.1,0,9.2l125.1,72.2c3.3,1.9,7.4,1.9,10.7,0l125.1-72.2
				c3.5-2,3.5-7.1,0-9.2L248,316.9C244.7,315,240.6,315,237.3,316.9z"/>
			<path class="st54" d="M237.3,317.1l-124.7,72c-3.5,2-3.5,7.1,0,9.1l124.7,72c3.3,1.9,7.4,1.9,10.7,0l124.7-72
				c3.5-2,3.5-7.1,0-9.1l-124.7-72C244.7,315.2,240.6,315.2,237.3,317.1z"/>
			<path class="st55" d="M237.3,317.4L113,389.1c-3.5,2-3.5,7.1,0,9.1L237.3,470c3.3,1.9,7.3,1.9,10.6,0l124.3-71.8
				c3.5-2,3.5-7.1,0-9.1l-124.3-71.8C244.6,315.5,240.6,315.5,237.3,317.4z"/>
			<path id="XMLID_1221_" class="st56" d="M237.3,317.6l-123.9,71.5c-3.5,2-3.5,7.1,0,9.1l123.9,71.5c3.3,1.9,7.3,1.9,10.6,0
				l123.9-71.5c3.5-2,3.5-7.1,0-9.1l-123.9-71.5C244.6,315.7,240.6,315.7,237.3,317.6z"/>
		</g>
		<linearGradient id="XMLID_3_" gradientUnits="userSpaceOnUse" x1="103.7943" y1="391.9753" x2="381.4505" y2="391.9753">
			<stop  offset="0" style="stop-color:#B4ACBF"/>
			<stop  offset="0.5146" style="stop-color:#D1C8DE"/>
			<stop  offset="1" style="stop-color:#F0E5FF"/>
		</linearGradient>
		<path id="XMLID_1219_" class="st57" d="M237,311.9l-133.3,73.6v7.8c0,1.1,0.6,2,1.5,2.6L237,472.1c3.4,2,7.7,2,11.1,0L379.8,396
			c1-0.6,1.7-1.7,1.7-2.9v-7.6l-133.3-73.6C244.7,309.9,240.5,309.9,237,311.9z"/>
		<linearGradient id="XMLID_4_" gradientUnits="userSpaceOnUse" x1="103.7942" y1="385.4825" x2="381.4505" y2="385.4825">
			<stop  offset="0" style="stop-color:#F0E5FF"/>
			<stop  offset="1" style="stop-color:#FFFFFF"/>
		</linearGradient>
		<path id="XMLID_1218_" class="st58" d="M237,305.4l-130.5,75.3c-3.7,2.1-3.7,7.4,0,9.5L237,465.6c3.4,2,7.7,2,11.1,0l130.5-75.3
			c3.7-2.1,3.7-7.4,0-9.5l-130.5-75.3C244.7,303.4,240.5,303.4,237,305.4z"/>
		<linearGradient id="XMLID_5_" gradientUnits="userSpaceOnUse" x1="149.1846" y1="385.4825" x2="336.0601" y2="385.4825">
			<stop  offset="0" style="stop-color:#B4ACBF"/>
			<stop  offset="0.4563" style="stop-color:#F0E5FF"/>
			<stop  offset="0.4864" style="stop-color:#F9F5FF"/>
			<stop  offset="0.5019" style="stop-color:#FFFFFF"/>
		</linearGradient>
		<path id="XMLID_1217_" class="st59" d="M238.8,330l-69.7,0.3L149.4,385c-0.6,2.2,0.3,4.6,2.3,5.8l87,50.3c2.4,1.4,5.3,1.4,7.7,0
			l87-50.3c2-1.2,3-3.5,2.3-5.8l-19.7-54.7l-69.7-0.3C244.1,328.6,241.1,328.6,238.8,330z"/>
		<linearGradient id="XMLID_6_" gradientUnits="userSpaceOnUse" x1="156.2959" y1="381.4136" x2="328.9488" y2="381.4136">
			<stop  offset="0" style="stop-color:#1D073F"/>
			<stop  offset="0.4563" style="stop-color:#2F1359"/>
			<stop  offset="0.4734" style="stop-color:#371669"/>
			<stop  offset="0.5019" style="stop-color:#491E8C"/>
		</linearGradient>
		<path id="XMLID_1216_" class="st60" d="M321.6,345.2l-75.4,43.6c-2.2,1.3-4.9,1.3-7.1,0l-75.4-43.6l-7.1,19.8
			c-0.6,2.1,0.3,4.3,2.2,5.3l80.4,46.4c2.2,1.3,4.9,1.3,7.1,0l80.4-46.4c1.9-1.1,2.7-3.3,2.2-5.3L321.6,345.2z"/>
		<linearGradient id="XMLID_7_" gradientUnits="userSpaceOnUse" x1="169.0887" y1="330.2936" x2="316.156" y2="330.2936">
			<stop  offset="0" style="stop-color:#F0E5FF"/>
			<stop  offset="1" style="stop-color:#FFFFFF"/>
		</linearGradient>
		<path id="XMLID_1215_" class="st61" d="M239.7,287.9l-69.1,39.9c-1.9,1.1-1.9,3.9,0,5.1l69.1,39.9c1.8,1.1,4.1,1.1,5.9,0
			l69.1-39.9c1.9-1.1,1.9-3.9,0-5.1l-69.1-39.9C243.7,286.8,241.5,286.8,239.7,287.9z"/>
		<linearGradient id="XMLID_8_" gradientUnits="userSpaceOnUse" x1="182.3121" y1="330.2936" x2="302.9327" y2="330.2936">
			<stop  offset="0" style="stop-color:#2F1359"/>
			<stop  offset="1" style="stop-color:#491E8C"/>
		</linearGradient>
		<path id="XMLID_1214_" class="st62" d="M240.2,295.5l-56.7,32.7c-1.6,0.9-1.6,3.2,0,4.1l56.7,32.7c1.5,0.9,3.3,0.9,4.8,0
			l56.7-32.7c1.6-0.9,1.6-3.2,0-4.1L245,295.5C243.5,294.6,241.7,294.6,240.2,295.5z"/>
		<path id="XMLID_1213_" class="st63" d="M240.7,302.9L196,328.7c-1.3,0.7-1.3,2.5,0,3.3l44.7,25.8c1.2,0.7,2.6,0.7,3.8,0l44.7-25.8
			c1.3-0.7,1.3-2.5,0-3.3l-44.7-25.8C243.3,302.2,241.9,302.2,240.7,302.9z"/>
		<path id="XMLID_1211_" class="st63" d="M301.7,330.7L245,363.5c-1.5,0.9-3.3,0.9-4.8,0l-56.7-32.7c-0.5-0.3-0.9-0.8-1-1.3
			c-0.4,1,0,2.3,1,2.9l56.7,32.7c1.5,0.9,3.3,0.9,4.8,0l56.7-32.7c1.1-0.6,1.4-1.9,1-2.9C302.6,330,302.3,330.4,301.7,330.7z"/>
		<linearGradient id="XMLID_9_" gradientUnits="userSpaceOnUse" x1="165.0722" y1="367.202" x2="190.0571" y2="367.202">
			<stop  offset="0" style="stop-color:#FFA744"/>
			<stop  offset="0.1634" style="stop-color:#FFA948"/>
			<stop  offset="0.3328" style="stop-color:#FFAF55"/>
			<stop  offset="0.5049" style="stop-color:#FFB969"/>
			<stop  offset="0.6789" style="stop-color:#FFC786"/>
			<stop  offset="0.8526" style="stop-color:#FFD9AB"/>
			<stop  offset="1" style="stop-color:#FFEBD1"/>
		</linearGradient>
		<path id="XMLID_1205_" class="st64" d="M170.6,353l3,1.7l-5.6,15.6l-3-1.7L170.6,353z M169.9,371.4l3,1.7l4.3-12.2l-3-1.7
			L169.9,371.4z M174.8,374.2l3,1.7l3.1-8.7l-3-1.7L174.8,374.2z M179.7,377l3,1.7l4.9-13.7l-3-1.7L179.7,377z M184.6,379.7l3,1.7
			l2.5-6.9l-3-1.7L184.6,379.7z"/>
		
			<linearGradient id="XMLID_10_" gradientUnits="userSpaceOnUse" x1="822.4191" y1="392.2669" x2="857.0073" y2="392.2669" gradientTransform="matrix(1 0 0 1 -573.5213 0)">
			<stop  offset="0" style="stop-color:#FFA744"/>
			<stop  offset="0.1634" style="stop-color:#FFA948"/>
			<stop  offset="0.3328" style="stop-color:#FFAF55"/>
			<stop  offset="0.5049" style="stop-color:#FFB969"/>
			<stop  offset="0.6789" style="stop-color:#FFC786"/>
			<stop  offset="0.8526" style="stop-color:#FFD9AB"/>
			<stop  offset="1" style="stop-color:#FFEBD1"/>
		</linearGradient>
		<path id="XMLID_1204_" class="st65" d="M278.8,376.1c0,0.2-1,1.1-1.2,1.4c-0.4,0.5-0.8,1-1.2,1.5c-0.7,0.9-0.9,2.2-1.5,3.3
			c-0.6,1-1.5,1.9-2.6,2.3c-0.8,0.3-1.6,0.3-2.4,0.4c-0.8,0.1-1.6,0.2-2.3,0.6c-1.5,0.8-1.6,3-2,4.4c-0.2,0.7-0.4,1.4-0.9,1.9
			c-0.4,0.5-1.1,0.9-1.7,1.2c-0.6,0.3-1.2,0.6-1.8,0.7c-1.2,0.3-2.6,0.1-3.8,0.2c-1.9,0.2-3.7,1.2-4.8,2.8c-0.4,0.6-0.8,1.2-1.1,1.8
			c-0.6,1-1.2,1.9-1.9,2.8c-0.6,0.7-0.6,1.1-0.5,2l1.9,5.3l32.7-19.2L278.8,376.1z"/>
		<g id="XMLID_1184_">
			<polygon id="XMLID_1202_" class="st66" points="196.9,375 208,381.4 207.6,382.5 196.5,376.1 			"/>
			<polygon id="XMLID_1201_" class="st67" points="209,382 212.1,383.8 211.7,384.9 208.6,383.1 			"/>
			<polygon id="XMLID_1200_" class="st67" points="214.8,388.6 216.1,389.4 215.7,390.5 214.4,389.7 			"/>
			<polygon id="XMLID_1199_" class="st67" points="216.8,389.8 218.1,390.6 217.7,391.7 216.4,390.9 			"/>
			<polygon id="XMLID_1198_" class="st66" points="196,377.7 201.8,381.1 201.4,382.2 195.6,378.8 			"/>
			<polygon id="XMLID_1197_" class="st66" points="203,381.8 214.1,388.2 213.7,389.3 202.6,382.9 			"/>
			<polygon id="XMLID_1196_" class="st66" points="208.1,388 219.2,394.3 218.8,395.5 207.7,389.1 			"/>
			<polygon id="XMLID_1195_" class="st66" points="220,394.8 229,400 228.6,401.1 219.6,395.9 			"/>
			<polygon id="XMLID_1194_" class="st66" points="218.9,391.1 230,397.4 229.6,398.6 218.5,392.2 			"/>
			<polygon id="XMLID_1193_" class="st66" points="213.5,384.6 219.3,388 218.9,389.1 213.1,385.7 			"/>
			<polygon id="XMLID_1192_" class="st66" points="220.2,388.5 230.9,394.7 230.5,395.8 219.8,389.6 			"/>
			<polygon id="XMLID_1191_" class="st66" points="195,380.4 197.4,381.8 197,382.9 194.6,381.5 			"/>
			<polygon id="XMLID_1190_" class="st67" points="204.7,386 207.1,387.4 206.7,388.5 204.3,387.1 			"/>
			<polygon id="XMLID_1189_" class="st67" points="198.1,382.2 204,385.6 203.6,386.7 197.7,383.3 			"/>
			<polygon id="XMLID_1188_" class="st67" points="213.4,394.2 219.3,397.5 218.9,398.7 213,395.3 			"/>
			<polygon id="XMLID_1187_" class="st67" points="219.9,397.9 228.1,402.6 227.7,403.7 219.5,399 			"/>
			<polygon id="XMLID_1186_" class="st66" points="194,383 199.9,386.4 199.5,387.5 193.6,384.1 			"/>
			<polygon id="XMLID_1185_" class="st66" points="201,387 212.3,393.5 211.9,394.6 200.6,388.1 			"/>
			<polygon id="XMLID_1203_" class="st66" points="199,369.4 210.3,375.9 209.6,378.1 198.2,371.5 			"/>
		</g>
		<g id="XMLID_1170_">
			<polygon id="XMLID_1183_" class="st67" points="307.4,363.5 304.3,365.3 304.7,366.4 307.8,364.6 			"/>
			<polygon id="XMLID_1182_" class="st67" points="301.6,370.1 300.3,370.9 300.7,372 302,371.2 			"/>
			<polygon id="XMLID_1181_" class="st67" points="299.6,371.3 298.3,372.1 298.7,373.2 300,372.4 			"/>
			<polygon id="XMLID_1180_" class="st66" points="308.4,366.1 302.3,369.7 302.7,370.8 308.8,367.2 			"/>
			<polygon id="XMLID_1179_" class="st66" points="309.4,368.9 297.2,375.9 297.6,377 309.8,370 			"/>
			<polygon id="XMLID_1178_" class="st66" points="296.4,376.3 287.4,381.5 287.8,382.6 296.8,377.4 			"/>
			<polygon id="XMLID_1177_" class="st66" points="297.5,372.6 286.4,378.9 286.8,380.1 297.9,373.7 			"/>
			<polygon id="XMLID_1176_" class="st66" points="302.9,366.1 297.1,369.5 297.5,370.6 303.3,367.2 			"/>
			<polygon id="XMLID_1175_" class="st66" points="296.2,370 285.5,376.2 285.9,377.3 296.6,371.1 			"/>
			<polygon id="XMLID_1174_" class="st67" points="303.6,375.3 300.8,377 301.2,378.1 304,376.4 			"/>
			<polygon id="XMLID_1173_" class="st67" points="300.2,377.3 299.5,377.7 299.9,378.8 300.6,378.4 			"/>
			<polygon id="XMLID_1172_" class="st66" points="298.6,378.2 288.3,384.1 288.7,385.3 299,379.3 			"/>
			<polygon id="XMLID_1171_" class="st66" points="310.3,371.4 304.1,375 304.5,376.1 310.7,372.6 			"/>
		</g>
		<g id="XMLID_1163_">
			<path id="XMLID_1167_" class="st68" d="M317.1,369.4c-0.7,0-1.4-0.2-2.1-0.5c-1.2-0.7-2.2-1.9-2.5-3.4c-0.7-2.9,0.8-6,3.4-7
				c1.2-0.5,2.5-0.4,3.7,0.2c1.2,0.7,2.2,1.9,2.5,3.4l0,0c0.7,2.9-0.8,6-3.4,7C318.1,369.3,317.6,369.4,317.1,369.4z M317.5,360.2
				c-0.3,0-0.6,0.1-0.9,0.2c-1.7,0.6-2.7,2.7-2.2,4.7c0.2,1,0.8,1.8,1.6,2.2c0.6,0.3,1.4,0.4,2.1,0.1c1.7-0.6,2.7-2.7,2.2-4.7l0,0
				c-0.2-1-0.8-1.8-1.6-2.2C318.3,360.3,317.9,360.2,317.5,360.2z"/>
			<linearGradient id="XMLID_11_" gradientUnits="userSpaceOnUse" x1="312.4547" y1="363.8327" x2="322.2389" y2="363.8327">
				<stop  offset="0" style="stop-color:#FFA744"/>
				<stop  offset="0.1634" style="stop-color:#FFA948"/>
				<stop  offset="0.3328" style="stop-color:#FFAF55"/>
				<stop  offset="0.5049" style="stop-color:#FFB969"/>
				<stop  offset="0.6789" style="stop-color:#FFC786"/>
				<stop  offset="0.8526" style="stop-color:#FFD9AB"/>
				<stop  offset="1" style="stop-color:#FFEBD1"/>
			</linearGradient>
			<path id="XMLID_1165_" class="st69" d="M317.1,369.4c-0.7,0-1.4-0.2-2.1-0.5c-1.2-0.7-2.2-1.9-2.5-3.4c-0.1-0.5,0.2-1,0.7-1.2
				c0.5-0.1,1,0.2,1.2,0.7c0.2,1,0.8,1.8,1.6,2.2c0.6,0.3,1.4,0.4,2.1,0.1c1.7-0.6,2.7-2.7,2.2-4.7c-0.2-1-0.8-1.8-1.6-2.2
				c-0.6-0.3-1.4-0.4-2.1-0.1c-0.5,0.2-1.1-0.1-1.2-0.6c-0.2-0.5,0.1-1.1,0.6-1.2c1.2-0.5,2.5-0.4,3.7,0.2c1.2,0.7,2.2,1.9,2.5,3.4
				c0.7,2.9-0.8,6-3.4,7C318.1,369.3,317.6,369.4,317.1,369.4z"/>
		</g>
		<g>
			
				<radialGradient id="SVGID_6_" cx="260.843" cy="308.8018" r="73.0485" gradientTransform="matrix(1.0487 0 0 1.0489 -31.0346 -154.4842)" gradientUnits="userSpaceOnUse">
				<stop  offset="0" style="stop-color:#491E8C"/>
				<stop  offset="1" style="stop-color:#9452FF"/>
			</radialGradient>
			<ellipse class="st70" cx="242.5" cy="169.4" rx="76.6" ry="76.6"/>
			
				<radialGradient id="SVGID_7_" cx="260.5426" cy="308.8018" r="69.1981" gradientTransform="matrix(1.0487 0 0 1.0489 -31.0346 -154.4842)" gradientUnits="userSpaceOnUse">
				<stop  offset="0" style="stop-color:#251440"/>
				<stop  offset="1" style="stop-color:#491E8C"/>
			</radialGradient>
			<path class="st71" d="M243.6,107.7c8.3,0,16.4,1.6,24,4.8c7.4,3.1,14,7.6,19.6,13.3c5.7,5.7,10.2,12.2,13.3,19.6
				c3.2,7.6,4.8,15.7,4.8,24c0,8.3-1.6,16.4-4.8,24c-3.1,7.4-7.6,14-13.3,19.6c-5.7,5.7-12.2,10.2-19.6,13.3
				c-7.6,3.2-15.7,4.8-24,4.8c-8.3,0-16.4-1.6-24-4.8c-7.4-3.1-14-7.6-19.6-13.3c-5.7-5.7-10.2-12.2-13.3-19.6
				c-3.2-7.6-4.8-15.7-4.8-24c0-8.3,1.6-16.4,4.8-24c3.1-7.4,7.6-14,13.3-19.6c5.7-5.7,12.2-10.2,19.6-13.3
				C227.2,109.3,235.3,107.7,243.6,107.7 M242.2,96.8c-40,0-72.6,32.5-72.6,72.6s32.5,72.6,72.6,72.6s72.6-32.5,72.6-72.6
				S282.2,96.8,242.2,96.8L242.2,96.8z"/>
			<ellipse class="st72" cx="243.6" cy="169.4" rx="61.6" ry="61.7"/>
			<g id="Brandmark_95_">
				<ellipse id="Core-1_96_" class="st73" cx="243.6" cy="149.4" rx="7.2" ry="7.2"/>
				<ellipse id="Core-2_96_" class="st73" cx="222.7" cy="164.7" rx="7.2" ry="7.2"/>
				<ellipse id="Core-3_96_" class="st73" cx="264.5" cy="164.7" rx="7.2" ry="7.2"/>
				<ellipse id="Core-4_96_" class="st73" cx="230.7" cy="189.2" rx="7.2" ry="7.2"/>
				<ellipse id="Core-5_96_" class="st73" cx="256.4" cy="189.2" rx="7.2" ry="7.2"/>
				<path id="Center_95_" class="st74" d="M247.4,189.2c0-2.4,0.9-4.7,2.7-6.5c1.7-1.7,4-2.7,6.5-2.7c2.3,0,4.4,0.8,6,2.4
					c1.5-2.7,2.5-5.7,2.9-8.8c-0.3,0-0.6,0.1-1,0.1c-2.4,0-4.7-0.9-6.5-2.7c-1.7-1.7-2.7-4-2.7-6.5s0.9-4.6,2.7-6.5
					c0.6-0.6,1.3-1,2-1.5c-2.1-2.3-4.6-4.3-7.5-5.4c-0.3,1.7-1.3,3.3-2.4,4.5c-1.7,1.7-4,2.7-6.5,2.7s-4.6-0.9-6.5-2.7
					c-1.3-1.3-2.1-2.9-2.4-4.5c-2.9,1.3-5.4,3.1-7.5,5.4c0.7,0.3,1.3,0.8,2,1.5c1.7,1.7,2.7,4,2.7,6.5s-0.9,4.6-2.7,6.5
					c-1.7,1.8-4,2.7-6.5,2.7c-0.3,0-0.6,0-1-0.1c0.3,3.2,1.3,6.2,2.9,8.8c1.7-1.5,3.8-2.4,6-2.4c2.4,0,4.6,0.9,6.5,2.7
					c1.7,1.7,2.7,4,2.7,6.5c0,1.3-0.3,2.5-0.8,3.7c1.5,0.3,3.1,0.5,4.6,0.5c1.5,0,3.1-0.1,4.7-0.5
					C247.7,191.8,247.4,190.5,247.4,189.2z"/>
				<path id="Circles_95_" class="st74" d="M289.3,154.3c-1.4-3.2-3.3-6-5.8-8.5c-2.4-2.4-5.3-4.5-8.5-5.8c-2.2-0.9-4.5-1.5-6.8-1.8
					c-1.3-2.9-3.1-5.3-5.3-7.5c-2.4-2.4-5.3-4.5-8.5-5.8c-3.3-1.4-6.8-2.2-10.5-2.2c-3.7,0-7.2,0.7-10.5,2.2c-3.2,1.4-6,3.3-8.5,5.8
					c-2.2,2.2-4,4.6-5.3,7.5c-2.5,0.3-4.8,0.9-7.3,2c-3.2,1.4-6,3.3-8.5,5.8c-2.4,2.4-4.5,5.3-5.8,8.5c-1.4,3.3-2.2,6.8-2.2,10.5
					c0,3.6,0.7,7.2,2.2,10.5c1.4,3.2,3.3,6,5.8,8.5c0.1,0.1,0.3,0.3,0.6,0.6c-0.3,1.6-0.5,3.3-0.5,5c0,3.6,0.7,7.2,2.2,10.5
					c1.4,3.2,3.3,6,5.8,8.5c2.4,2.4,5.3,4.5,8.5,5.8c3.3,1.4,6.8,2.2,10.5,2.2c3.7,0,7.2-0.7,10.5-2.2c0.8-0.3,1.6-0.8,2.4-1.2
					c0.8,0.5,1.6,0.8,2.4,1.2c3.3,1.4,6.8,2.2,10.5,2.2c3.6,0,7.2-0.7,10.5-2.2c3.2-1.4,6-3.3,8.5-5.8c2.4-2.4,4.5-5.3,5.8-8.5
					c1.4-3.3,2.2-6.8,2.2-10.5c0-1.7-0.1-3.3-0.5-5c0.2-0.2,0.3-0.3,0.6-0.6c2.4-2.4,4.5-5.3,5.8-8.5c1.4-3.3,2.2-6.8,2.2-10.5
					C291.4,161.1,290.7,157.5,289.3,154.3z M287.2,174.2c-1.2,2.8-2.9,5.3-4.8,7.4c-0.3-1-0.6-2-1-3c-1.4-3.2-3.3-6-5.8-8.5
					c-0.8-0.8-1.7-1.6-2.7-2.3c-0.2,0.7-0.6,1.4-1,2c0.8,0.6,1.5,1.3,2.1,1.8c2.3,2.3,4,4.8,5.3,7.8c0.6,1.3,0.9,2.5,1.3,3.8
					c-2,1.7-4,3-6.5,4c-2.7,1.2-5.5,1.7-8.5,2c0,0.8-0.1,1.5-0.3,2.2c3.3-0.1,6.7-0.8,9.7-2.1c2.2-0.9,4.3-2.1,6-3.6
					c0.1,1,0.2,2.2,0.2,3.3c0,3.3-0.7,6.6-2,9.7c-1.3,2.9-3,5.5-5.3,7.8c-2.3,2.3-4.8,4-7.8,5.3c-3.1,1.3-6.2,2-9.7,2
					c-3.5,0-6.6-0.7-9.7-2c-0.3-0.1-0.7-0.3-1-0.5c1.4-0.9,2.7-2.1,3.9-3.2c2.4-2.4,4.5-5.3,5.8-8.5c0.2-0.5,0.3-0.9,0.6-1.5
					c-0.8,0-1.5-0.1-2.2-0.3c-0.1,0.3-0.2,0.7-0.3,1c-1.3,2.9-3,5.5-5.3,7.8c-1.4,1.4-2.9,2.7-4.6,3.6c-1.7-1-3.2-2.2-4.6-3.6
					c-2.3-2.3-4-4.8-5.3-7.8c-0.1-0.3-0.2-0.6-0.3-1c-0.7,0.2-1.5,0.3-2.2,0.3c0.1,0.5,0.3,1,0.6,1.5c1.4,3.2,3.3,6,5.8,8.5
					c1.3,1.3,2.5,2.3,3.9,3.2c-0.3,0.1-0.7,0.3-1,0.5c-3.1,1.3-6.2,2-9.7,2s-6.6-0.7-9.7-2c-2.9-1.3-5.5-3.1-7.8-5.3
					c-2.3-2.3-4-4.8-5.3-7.8c-1.3-3.1-2-6.2-2-9.7c0-1,0.1-2.2,0.2-3.3c1.8,1.5,3.9,2.7,6,3.6c3.1,1.3,6.3,2,9.7,2.1
					c-0.2-0.7-0.3-1.5-0.3-2.2c-3-0.1-5.8-0.8-8.5-2c-2.4-1-4.5-2.3-6.5-4c0.3-1.3,0.8-2.7,1.3-3.8c1.3-2.9,3-5.5,5.3-7.8
					c0.7-0.7,1.4-1.3,2.1-1.8c-0.5-0.6-0.8-1.3-1-2c-0.9,0.7-1.7,1.5-2.7,2.3c-2.4,2.4-4.5,5.3-5.8,8.5c-0.3,1-0.8,2-1,3
					c-2.1-2.2-3.8-4.6-4.8-7.4c-1.3-3.1-2-6.2-2-9.7c0-3.3,0.7-6.6,2-9.7c1.3-2.9,3-5.5,5.3-7.8s4.8-4,7.8-5.3
					c1.7-0.8,3.6-1.3,5.3-1.6c-1,2.9-1.6,6-1.6,9.2c0,2.5,0.3,5.1,1,7.5c0.6-0.3,1.3-0.7,2.1-0.9c-0.6-2.2-0.8-4.3-0.8-6.5
					c0-3.3,0.6-6.5,2-9.5c0.6-0.1,1.2-0.1,1.7-0.1c3.3,0,6.6,0.7,9.7,2c1.4,0.6,2.8,1.3,4,2.2c0.2-0.3,0.6-0.7,0.8-1
					c0.2-0.2,0.5-0.5,0.7-0.6c-1.5-1-3.1-2-4.7-2.7c-3.3-1.4-6.8-2.2-10.5-2.2c-0.2,0-0.5,0-0.7,0c1.2-2.1,2.7-4,4.3-5.8
					c2.3-2.3,4.8-4,7.8-5.3c3.1-1.3,6.2-2,9.7-2c3.3,0,6.6,0.7,9.7,2c2.9,1.3,5.5,3.1,7.8,5.3c1.7,1.7,3.1,3.6,4.3,5.8
					c-0.3,0-0.7,0-1,0c-3.6,0-7.2,0.7-10.5,2.2c-1.7,0.7-3.2,1.6-4.7,2.7c0.2,0.2,0.5,0.3,0.7,0.6c0.3,0.3,0.6,0.6,0.8,1
					c1.3-0.8,2.7-1.6,4-2.2c3.1-1.3,6.2-2,9.7-2c0.7,0,1.5,0,2.2,0.1c1.3,3,1.8,6.2,1.8,9.5c0,2.3-0.3,4.5-0.9,6.7
					c0.7,0.2,1.4,0.6,2,1c0.8-2.4,1.2-5.1,1.2-7.6c0-3.1-0.6-6.2-1.6-9.1c1.7,0.3,3.3,0.8,5,1.5c2.9,1.3,5.5,3.1,7.8,5.3
					c2.3,2.3,4,4.8,5.3,7.8c1.3,3.1,2,6.2,2,9.7C289.2,168,288.6,171.2,287.2,174.2z"/>
			</g>
		</g>
		<linearGradient id="XMLID_12_" gradientUnits="userSpaceOnUse" x1="242.6224" y1="358.2308" x2="242.6224" y2="21.8327">
			<stop  offset="0" style="stop-color:#FFA744;stop-opacity:0.7"/>
			<stop  offset="4.740834e-02" style="stop-color:#FDAE59;stop-opacity:0.6668"/>
			<stop  offset="0.1611" style="stop-color:#FABC85;stop-opacity:0.5872"/>
			<stop  offset="0.2801" style="stop-color:#F7C9AA;stop-opacity:0.5039"/>
			<stop  offset="0.4031" style="stop-color:#F4D3C9;stop-opacity:0.4179"/>
			<stop  offset="0.5313" style="stop-color:#F2DBE1;stop-opacity:0.3281"/>
			<stop  offset="0.667" style="stop-color:#F1E1F2;stop-opacity:0.2331"/>
			<stop  offset="0.8154" style="stop-color:#F0E4FC;stop-opacity:0.1292"/>
			<stop  offset="1" style="stop-color:#F0E5FF;stop-opacity:0"/>
		</linearGradient>
		<path id="XMLID_1224_" class="st75" d="M103.1,21.8c0,0,91.9,308.2,92.1,308.9c0.1,0.5,0.4,0.9,0.9,1.2l44.7,25.8
			c1.2,0.7,2.6,0.7,3.8,0l44.7-25.8c0.4-0.3,0.7-0.7,0.9-1.1c0.2-0.8,92.1-309,92.1-309H103.1z"/>
		<g>
			<defs>
				<path id="XMLID_1226_" d="M240.7,302.9L196,328.7c-1.3,0.7-1.3,2.5,0,3.3l44.7,25.8c1.2,0.7,2.6,0.7,3.8,0l44.7-25.8
					c1.3-0.7,1.3-2.5,0-3.3l-44.7-25.8C243.3,302.2,241.9,302.2,240.7,302.9z"/>
			</defs>
			<clipPath id="XMLID_13_">
				<use xlink:href="#XMLID_1226_"  style="overflow:visible;"/>
			</clipPath>
			<radialGradient id="XMLID_14_" cx="242.6224" cy="332.3391" r="38.9811" gradientUnits="userSpaceOnUse">
				<stop  offset="0" style="stop-color:#FFFFFF"/>
				<stop  offset="1" style="stop-color:#FFA744"/>
			</radialGradient>
			<path id="XMLID_1223_" class="st76" d="M240.7,304.9L196,330.7c-1.3,0.7-1.3,2.5,0,3.3l44.7,25.8c1.2,0.7,2.6,0.7,3.8,0
				l44.7-25.8c1.3-0.7,1.3-2.5,0-3.3l-44.7-25.8C243.3,304.2,241.9,304.2,240.7,304.9z"/>
		</g>
		<g>
			<linearGradient id="XMLID_15_" gradientUnits="userSpaceOnUse" x1="242.6224" y1="307.2219" x2="242.6224" y2="266.2845">
				<stop  offset="0" style="stop-color:#FFFFFF;stop-opacity:0.7"/>
				<stop  offset="1" style="stop-color:#F0E5FF;stop-opacity:0"/>
			</linearGradient>
			<path id="XMLID_1230_" class="st77" d="M179.6,266.7c-1.7,1-1.7,3.4,0,4.4L240,306c1.6,0.9,3.6,0.9,5.2,0l60.4-34.9
				c1.7-1,1.7-3.4,0-4.4"/>
			<linearGradient id="XMLID_16_" gradientUnits="userSpaceOnUse" x1="242.6224" y1="257.0898" x2="242.6224" y2="204.262">
				<stop  offset="0" style="stop-color:#FFFFFF;stop-opacity:0.7"/>
				<stop  offset="1" style="stop-color:#F0E5FF;stop-opacity:0"/>
			</linearGradient>
			<path id="XMLID_1212_" class="st78" d="M160.9,204.7c-2.2,1.3-2.2,4.5,0,5.7l78.4,45.3c2.1,1.2,4.6,1.2,6.7,0l78.4-45.3
				c2.2-1.3,2.2-4.5,0-5.7"/>
			<linearGradient id="XMLID_17_" gradientUnits="userSpaceOnUse" x1="242.6224" y1="206.2292" x2="242.6224" y2="142.2822">
				<stop  offset="0" style="stop-color:#FFFFFF;stop-opacity:0.7"/>
				<stop  offset="1" style="stop-color:#F0E5FF;stop-opacity:0"/>
			</linearGradient>
			<path id="XMLID_1227_" class="st79" d="M143.4,142.7c-2.7,1.5-2.7,5.4,0,7l95.2,55c2.5,1.5,5.6,1.5,8.1,0l95.2-55
				c2.7-1.5,2.7-5.4,0-7"/>
			<linearGradient id="XMLID_18_" gradientUnits="userSpaceOnUse" x1="242.6224" y1="156.0125" x2="242.6224" y2="80.2647">
				<stop  offset="0" style="stop-color:#FFFFFF;stop-opacity:0.7"/>
				<stop  offset="1" style="stop-color:#F0E5FF;stop-opacity:0"/>
			</linearGradient>
			<path id="XMLID_1228_" class="st80" d="M124.8,80.7c-3.2,1.8-3.2,6.4,0,8.3l113,65.3c3,1.7,6.7,1.7,9.7,0l113-65.3
				c3.2-1.8,3.2-6.4,0-8.3"/>
		</g>
	</g>
	<linearGradient id="SVGID_8_" gradientUnits="userSpaceOnUse" x1="124.5363" y1="449.051" x2="175.2929" y2="449.051">
		<stop  offset="0" style="stop-color:#FFA744"/>
		<stop  offset="0.2756" style="stop-color:#FBA443"/>
		<stop  offset="0.5612" style="stop-color:#EE9C3F"/>
		<stop  offset="0.8504" style="stop-color:#DA8F3A"/>
		<stop  offset="1" style="stop-color:#CC8636"/>
	</linearGradient>
	<path class="st81" d="M125.5,464.2l41.1-23.7c3.7-2.3,3.5-4.4,7.7-6.5"/>
	<linearGradient id="SVGID_9_" gradientUnits="userSpaceOnUse" x1="0.25" y1="428.2154" x2="126.5363" y2="428.2154">
		<stop  offset="0" style="stop-color:#F0E5FF;stop-opacity:0"/>
		<stop  offset="0.1102" style="stop-color:#F3D8D9;stop-opacity:0.1102"/>
		<stop  offset="0.261" style="stop-color:#F7C9AC;stop-opacity:0.261"/>
		<stop  offset="0.4128" style="stop-color:#FABD86;stop-opacity:0.4128"/>
		<stop  offset="0.5634" style="stop-color:#FCB369;stop-opacity:0.5634"/>
		<stop  offset="0.7123" style="stop-color:#FEAD55;stop-opacity:0.7123"/>
		<stop  offset="0.8587" style="stop-color:#FFA848;stop-opacity:0.8587"/>
		<stop  offset="1" style="stop-color:#FFA744"/>
	</linearGradient>
	<line class="st82" x1="1.2" y1="392.3" x2="125.5" y2="464.2"/>
</g>
<g>
	<g>
		<linearGradient id="SVGID_10_" gradientUnits="userSpaceOnUse" x1="162.1595" y1="258.5366" x2="115.9149" y2="272.4986">
			<stop  offset="0" style="stop-color:#9452FF"/>
			<stop  offset="1" style="stop-color:#491E8C"/>
		</linearGradient>
		<path class="st83" d="M118.1,239.4c-1.1,0.7-4.5,4.8-5,6.2c-2.3,3.9-2.6,9.5-0.4,16.2c4.9,14.8,20,29.2,33.8,32.2
			c6.4,1.4,11.4,0.1,14.5-3.2c0.3-0.2,4.1-4.4,4.1-4.4c0.8-1.4,1.3-3.1,1.5-4.9c0.7-3.4,0.4-7.5-1.1-12.2
			c-4.9-14.8-20-29.2-33.8-32.2C125.8,235.8,121.2,236.7,118.1,239.4z"/>
		<linearGradient id="SVGID_11_" gradientUnits="userSpaceOnUse" x1="162.3398" y1="257.2028" x2="119.5833" y2="270.1117">
			<stop  offset="0" style="stop-color:#9452FF"/>
			<stop  offset="1" style="stop-color:#491E8C"/>
		</linearGradient>
		<path class="st84" d="M132.2,236.9c13.8,3,28.9,17.5,33.8,32.2c4.9,14.8-2.4,24.3-16.2,21.3c-13.8-3-28.9-17.5-33.8-32.2
			C111.1,243.4,118.4,233.9,132.2,236.9z"/>
		<g>
			
				<linearGradient id="SVGID_12_" gradientUnits="userSpaceOnUse" x1="642.3429" y1="127.5137" x2="687.0056" y2="127.5191" gradientTransform="matrix(-0.9573 0.2889 0.289 0.9573 741.145 -51.1387)">
				<stop  offset="0" style="stop-color:#491E8C"/>
				<stop  offset="1" style="stop-color:#251440"/>
			</linearGradient>
			<path class="st85" d="M132.9,236.2c13.8,3,28.9,17.5,33.8,32.2s-2.4,24.3-16.2,21.3c-13.8-3-28.9-17.5-33.8-32.2
				C111.9,242.7,119.1,233.2,132.9,236.2z"/>
			<linearGradient id="SVGID_13_" gradientUnits="userSpaceOnUse" x1="163.0829" y1="256.5028" x2="120.3264" y2="269.4117">
				<stop  offset="0" style="stop-color:#9452FF"/>
				<stop  offset="1" style="stop-color:#491E8C"/>
			</linearGradient>
			<path class="st86" d="M128.1,235.6v1.1c1.4,0,3,0.2,4.6,0.5c13.4,2.9,28.2,17.1,33,31.5c2.2,6.7,1.9,12.4-0.8,16.1
				c-2,2.8-5.3,4.3-9.5,4.3c-1.4,0-3-0.2-4.6-0.5c-13.4-2.9-28.2-17.1-33-31.5c-2.2-6.7-1.9-12.4,0.8-16.1c2-2.8,5.3-4.3,9.5-4.3
				L128.1,235.6 M128.1,235.6c-10.6,0-15.6,8.9-11.3,21.8c4.9,14.8,20,29.2,33.8,32.2c1.7,0.4,3.3,0.6,4.9,0.6
				c10.6,0,15.6-8.9,11.3-21.8c-4.9-14.8-20-29.2-33.8-32.2C131.2,235.8,129.6,235.6,128.1,235.6L128.1,235.6z"/>
		</g>
		<linearGradient id="SVGID_14_" gradientUnits="userSpaceOnUse" x1="159.2515" y1="257.4381" x2="125.3994" y2="267.6587">
			<stop  offset="0" style="stop-color:#FFFFFF"/>
			<stop  offset="0.871" style="stop-color:#F0E5FF"/>
		</linearGradient>
		<path class="st87" d="M135.4,241.4c10.9,2.4,22.9,13.8,26.7,25.5c3.8,11.7-1.9,19.2-12.8,16.8c-10.9-2.4-22.9-13.8-26.7-25.5
			C118.7,246.5,124.4,239,135.4,241.4z"/>
	</g>
	<g id="Brandmark_4_">
		<path id="Core-1_4_" class="st73" d="M141.3,252.6c1.2,0.5,2.3,2,2.4,3.4c0.2,1.4-0.6,2-1.8,1.5c-1.2-0.5-2.3-2-2.4-3.4
			C139.3,252.8,140.1,252.1,141.3,252.6z"/>
		<path id="Core-2_4_" class="st73" d="M135.8,255.1c1.2,0.5,2.3,2,2.4,3.4s-0.6,2-1.8,1.5s-2.3-2-2.4-3.4
			C133.9,255.3,134.7,254.6,135.8,255.1z"/>
		<path id="Core-3_4_" class="st73" d="M148.2,260.5c1.2,0.5,2.3,2,2.4,3.4c0.2,1.4-0.6,2-1.8,1.5c-1.2-0.5-2.3-2-2.4-3.4
			C146.2,260.7,147,260,148.2,260.5z"/>
		<path id="Core-4_4_" class="st73" d="M139.3,264.6c1.2,0.5,2.3,2,2.4,3.4c0.2,1.4-0.6,2-1.8,1.5s-2.3-2-2.4-3.4
			C137.3,264.8,138.1,264.1,139.3,264.6z"/>
		<path id="Core-5_4_" class="st73" d="M146.9,267.9c1.2,0.5,2.3,2,2.4,3.4c0.2,1.4-0.6,2-1.8,1.5c-1.2-0.5-2.3-2-2.4-3.4
			C144.9,268.1,145.7,267.4,146.9,267.9z"/>
		<path id="Center_4_" class="st74" d="M144.6,269.2c-0.1-0.8,0.1-1.5,0.5-1.9c0.4-0.4,1.1-0.4,1.8-0.1c0.7,0.3,1.3,0.8,1.9,1.6
			c0.3-0.7,0.5-1.6,0.5-2.6c-0.1,0-0.2,0-0.3-0.1c-0.7-0.3-1.4-0.9-2-1.7s-1-1.7-1.1-2.6c-0.1-0.8,0.1-1.5,0.5-1.9
			c0.1-0.1,0.3-0.2,0.5-0.3c-0.7-1.1-1.6-2.1-2.5-2.8c0,0.5-0.2,1-0.5,1.2c-0.4,0.4-1.1,0.4-1.8,0.1c-0.7-0.3-1.4-0.9-2-1.7
			c-0.4-0.6-0.7-1.3-0.9-1.9c-0.8,0.1-1.5,0.4-2,0.9c0.2,0.2,0.4,0.4,0.6,0.8c0.6,0.8,1,1.7,1.1,2.6s-0.1,1.5-0.5,1.9
			c-0.4,0.4-1.1,0.4-1.8,0.1c-0.1,0-0.2-0.1-0.3-0.2c0.2,1.2,0.7,2.3,1.2,3.4c0.4-0.3,1-0.3,1.7-0.1c0.7,0.3,1.4,0.9,2,1.7
			c0.6,0.8,1,1.7,1.1,2.6c0.1,0.4,0,0.8-0.1,1.2c0.5,0.3,0.9,0.6,1.4,0.8c0.4,0.2,0.9,0.4,1.4,0.5
			C144.8,270.1,144.6,269.7,144.6,269.2z"/>
		<path id="Circles_4_" class="st74" d="M155.3,262.6c-0.6-1.3-1.3-2.5-2.1-3.7c-0.8-1.1-1.8-2.2-2.8-3.1c-0.7-0.6-1.4-1.1-2.1-1.5
			c-0.5-1.2-1.2-2.2-1.9-3.3c-0.8-1.1-1.8-2.2-2.8-3.1c-1-0.9-2.1-1.6-3.2-2.1c-1.1-0.5-2.1-0.7-3-0.6c-0.9,0.1-1.6,0.4-2.3,0.9
			c-0.5,0.5-1,1.1-1.2,1.9c-0.7-0.2-1.4-0.3-2.1-0.3c-0.9,0.1-1.6,0.4-2.3,0.9c-0.6,0.5-1.1,1.2-1.3,2.2c-0.3,1-0.3,2.1-0.2,3.3
			c0.2,1.2,0.5,2.5,1.1,3.9c0.6,1.3,1.3,2.5,2.1,3.7c0,0.1,0.1,0.2,0.2,0.3c0,0.5,0,1.1,0.1,1.6c0.2,1.2,0.5,2.5,1.1,3.9
			c0.6,1.3,1.3,2.5,2.1,3.7c0.8,1.1,1.8,2.2,2.8,3.1c1,0.9,2.1,1.6,3.2,2.1c1.1,0.5,2.1,0.7,3,0.6c0.2,0,0.4-0.1,0.7-0.1
			c0.3,0.3,0.5,0.5,0.8,0.7c1,0.9,2.1,1.6,3.2,2.1c1.1,0.5,2.1,0.7,3,0.6c0.9-0.1,1.6-0.4,2.3-0.9c0.6-0.5,1.1-1.2,1.3-2.2
			c0.3-1,0.3-2.1,0.2-3.3c-0.1-0.6-0.2-1.2-0.4-1.8c0.1,0,0.1-0.1,0.1-0.1c0.6-0.5,1.1-1.2,1.3-2.2c0.3-1,0.3-2.1,0.2-3.3
			C156.2,265.2,155.9,263.9,155.3,262.6z M155.6,269.2c-0.2,0.8-0.6,1.4-1.1,1.9c-0.1-0.4-0.3-0.7-0.4-1.2c-0.6-1.3-1.3-2.5-2.1-3.7
			c-0.3-0.4-0.6-0.8-0.9-1.1c0,0.2-0.1,0.4-0.2,0.5c0.3,0.3,0.5,0.6,0.7,0.9c0.8,1.1,1.4,2.2,1.9,3.4c0.2,0.5,0.4,1,0.5,1.5
			c-0.5,0.3-1.1,0.5-1.7,0.6c-0.7,0.1-1.6-0.1-2.4-0.4c0,0.3,0,0.5,0,0.7c1,0.4,1.9,0.6,2.8,0.5c0.6,0,1.2-0.2,1.6-0.5
			c0.1,0.4,0.2,0.8,0.2,1.2c0.2,1.1,0.1,2.2-0.1,3.1c-0.2,0.8-0.6,1.5-1.2,2c-0.6,0.5-1.2,0.8-2.1,0.8c-0.9,0-1.7-0.1-2.8-0.6
			c-1-0.4-2-1.1-2.9-1.9c-0.1-0.1-0.2-0.2-0.3-0.3c0.4-0.1,0.7-0.4,1-0.6c0.6-0.5,1.1-1.2,1.3-2.2c0-0.1,0.1-0.3,0.1-0.4
			c-0.2-0.1-0.4-0.2-0.7-0.4c0,0.1,0,0.2-0.1,0.3c-0.2,0.8-0.6,1.5-1.2,2c-0.3,0.3-0.7,0.5-1.2,0.6c-0.6-0.6-1.1-1.2-1.5-1.8
			c-0.8-1.1-1.4-2.2-1.9-3.4c0-0.1-0.1-0.2-0.1-0.4c-0.2,0-0.4-0.1-0.6-0.2c0.1,0.2,0.1,0.4,0.2,0.6c0.6,1.3,1.3,2.5,2.1,3.7
			c0.4,0.6,0.9,1.1,1.3,1.6c-0.1,0-0.2,0-0.3,0c-0.9,0-1.7-0.1-2.8-0.6c-1-0.4-2-1.1-2.9-1.9c-0.9-0.8-1.8-1.8-2.6-2.8
			c-0.8-1.1-1.4-2.2-1.9-3.4c-0.5-1.2-0.9-2.4-1-3.6c0-0.4-0.1-0.7-0.1-1.1c0.6,0.8,1.3,1.4,1.9,2c1,0.8,2,1.5,3,2
			c-0.1-0.3-0.2-0.6-0.2-0.8c-0.9-0.4-1.7-1-2.6-1.8c-0.8-0.7-1.4-1.4-2.1-2.2c0-0.4,0.1-0.8,0.2-1.1c0.2-0.8,0.6-1.5,1.2-2
			c0.2-0.1,0.4-0.3,0.5-0.4c-0.2-0.3-0.3-0.5-0.4-0.8c-0.2,0.1-0.4,0.3-0.7,0.4c-0.6,0.5-1.1,1.2-1.3,2.2c-0.1,0.3-0.1,0.6-0.2,0.9
			c-0.7-1-1.3-2.1-1.8-3.2c-0.5-1.2-0.9-2.4-1-3.6c-0.2-1.1-0.1-2.2,0.1-3.1c0.2-0.8,0.6-1.5,1.2-2c0.6-0.5,1.2-0.8,2.1-0.8
			c0.5-0.1,1,0,1.5,0.1c-0.2,0.9-0.2,1.9-0.1,3c0.1,0.9,0.3,1.8,0.6,2.7c0.2,0,0.3-0.1,0.6,0c-0.3-0.8-0.4-1.6-0.5-2.3
			c-0.2-1.1-0.1-2.1,0.1-3c0.2,0,0.3,0.1,0.5,0.2c1,0.4,2,1.1,2.9,1.9c0.4,0.4,0.9,0.8,1.3,1.3c0.1-0.1,0.1-0.2,0.2-0.3
			c0.1,0,0.1-0.1,0.2-0.1c-0.5-0.6-1-1.1-1.5-1.5c-1-0.9-2.1-1.6-3.2-2.1c-0.1,0-0.1-0.1-0.2-0.1c0.2-0.6,0.6-1,1-1.4
			c0.6-0.5,1.2-0.8,2.1-0.8c0.9,0,1.7,0.1,2.8,0.6c1,0.4,2,1.1,2.9,1.9c0.9,0.8,1.8,1.8,2.6,2.8c0.6,0.8,1.1,1.6,1.5,2.5
			c-0.1,0-0.2-0.1-0.3-0.1c-1.1-0.5-2.1-0.7-3-0.6c-0.5,0-0.9,0.1-1.3,0.3c0.1,0.1,0.2,0.2,0.2,0.3c0.1,0.2,0.2,0.3,0.3,0.5
			c0.3-0.1,0.7-0.2,1.1-0.2c0.9,0,1.7,0.1,2.8,0.6c0.2,0.1,0.4,0.2,0.7,0.3c0.5,1.2,0.8,2.4,1,3.5c0.1,0.8,0.1,1.5,0,2.2
			c0.2,0.2,0.4,0.4,0.6,0.6c0.1-0.7,0.1-1.6,0-2.5c-0.1-1.1-0.5-2.2-0.9-3.3c0.5,0.3,1,0.7,1.5,1.2c0.9,0.8,1.8,1.8,2.6,2.8
			c0.8,1.1,1.4,2.2,1.9,3.4c0.5,1.2,0.9,2.4,1,3.6C155.9,267.3,155.9,268.4,155.6,269.2z"/>
	</g>
</g>
<g>
	<g>
		<linearGradient id="SVGID_15_" gradientUnits="userSpaceOnUse" x1="356.8279" y1="125.4237" x2="376.039" y2="61.3897">
			<stop  offset="0" style="stop-color:#9452FF"/>
			<stop  offset="1" style="stop-color:#491E8C"/>
		</linearGradient>
		<path class="st88" d="M373.4,60.7c1.3,0.1,6.2,2.3,7.3,3.3c3.8,2.4,6.6,7.3,7.6,14.3c2.3,15.4-4.8,35.1-15.7,43.9
			c-5.1,4.1-10.2,5.2-14.4,3.6c-0.4-0.1-5.6-2.1-5.6-2.1c-1.3-0.9-2.6-2.2-3.6-3.7c-2.2-2.7-3.7-6.6-4.5-11.4
			c-2.3-15.4,4.8-35.1,15.7-43.9C364.9,60.9,369.5,59.7,373.4,60.7z"/>
		<linearGradient id="SVGID_16_" gradientUnits="userSpaceOnUse" x1="354.3632" y1="124.3289" x2="373.3887" y2="60.9136">
			<stop  offset="0" style="stop-color:#9452FF"/>
			<stop  offset="1" style="stop-color:#491E8C"/>
		</linearGradient>
		<path class="st89" d="M359.7,64.8c-11,8.9-18,28.6-15.7,43.9c2.3,15.4,13,20.7,24,11.8c11-8.9,18-28.6,15.7-43.9
			C381.5,61.2,370.7,55.9,359.7,64.8z"/>
		<g>
			
				<linearGradient id="SVGID_17_" gradientUnits="userSpaceOnUse" x1="331.1028" y1="60.9134" x2="360.6697" y2="1.6713" gradientTransform="matrix(0.9853 -0.1706 0.1706 0.9853 16.7578 120.5042)">
				<stop  offset="0" style="stop-color:#491E8C"/>
				<stop  offset="1" style="stop-color:#251440"/>
			</linearGradient>
			<path class="st90" d="M358.8,64.5c-11,8.9-18,28.6-15.7,43.9c2.3,15.4,13,20.7,24,11.8c11-8.9,18-28.6,15.7-43.9
				C380.5,60.9,369.7,55.6,358.8,64.5z"/>
			<linearGradient id="SVGID_18_" gradientUnits="userSpaceOnUse" x1="353.3853" y1="124.036" x2="372.4107" y2="60.6207">
				<stop  offset="0" style="stop-color:#9452FF"/>
				<stop  offset="1" style="stop-color:#491E8C"/>
			</linearGradient>
			<path class="st91" d="M369.2,61.2c6.3,0,11.1,5.8,12.5,15.2c2.2,15-4.7,34.3-15.4,42.9c-3.3,2.7-6.7,4.1-9.8,4.1
				c-6.3,0-11.1-5.8-12.5-15.2c-2.2-15,4.7-34.3,15.4-42.9C362.7,62.6,366.1,61.2,369.2,61.2 M369.2,60.2c-3.3,0-6.9,1.4-10.5,4.3
				c-11,8.9-18,28.6-15.7,43.9c1.5,10.3,6.9,16.1,13.5,16.1c3.3,0,6.9-1.4,10.5-4.3c11-8.9,18-28.6,15.7-43.9
				C381.2,65.9,375.9,60.2,369.2,60.2L369.2,60.2z"/>
		</g>
		
			<linearGradient id="SVGID_19_" gradientUnits="userSpaceOnUse" x1="837.4763" y1="-562.3672" x2="889.8937" y2="-562.3415" gradientTransform="matrix(0.2869 -0.958 0.958 0.2869 653.1041 1080.9908)">
			<stop  offset="0" style="stop-color:#FFFFFF"/>
			<stop  offset="0.871" style="stop-color:#F0E5FF"/>
		</linearGradient>
		<path class="st92" d="M358.9,70.2c-8.7,7-14.3,22.6-12.5,34.8c1.8,12.2,10.3,16.4,19,9.3c8.7-7,14.3-22.6,12.5-34.8
			C376.1,67.3,367.6,63.2,358.9,70.2z"/>
	</g>
	<g id="Brandmark_5_">
		<path id="Core-1_5_" class="st73" d="M364.5,81c0.9,0.3,1.3,1.8,0.9,3.3s-1.5,2.4-2.4,2.1c-0.9-0.3-1.3-1.8-0.9-3.3
			C362.6,81.6,363.6,80.7,364.5,81z"/>
		<path id="Core-2_5_" class="st73" d="M358.2,85.1c0.9,0.3,1.3,1.8,0.9,3.3s-1.5,2.4-2.4,2.1c-0.9-0.3-1.3-1.8-0.9-3.3
			S357.3,84.7,358.2,85.1z"/>
		<path id="Core-3_5_" class="st73" d="M367.7,88.6c0.9,0.3,1.3,1.8,0.9,3.3c-0.4,1.5-1.5,2.4-2.4,2.1s-1.3-1.8-0.9-3.3
			S366.8,88.2,367.7,88.6z"/>
		<path id="Core-4_5_" class="st73" d="M357.4,95.1c0.9,0.3,1.3,1.8,0.9,3.3s-1.5,2.4-2.4,2.1c-0.9-0.3-1.3-1.8-0.9-3.3
			C355.5,95.7,356.5,94.7,357.4,95.1z"/>
		<path id="Core-5_5_" class="st73" d="M363.3,97.2c0.9,0.3,1.3,1.8,0.9,3.3c-0.4,1.5-1.5,2.4-2.4,2.1c-0.9-0.3-1.3-1.8-0.9-3.3
			C361.3,97.9,362.4,96.9,363.3,97.2z"/>
		<path id="Center_5_" class="st74" d="M360.5,99.2c0.3-0.9,0.7-1.7,1.3-2.2s1.2-0.7,1.7-0.5c0.5,0.2,0.9,0.7,1.1,1.4
			c0.6-0.9,1.2-1.9,1.6-3.1c-0.1,0-0.1,0-0.2,0c-0.6-0.2-1-0.7-1.2-1.6c-0.2-0.8-0.2-1.8,0.1-2.7c0.3-0.9,0.7-1.7,1.3-2.2
			c0.2-0.2,0.4-0.3,0.6-0.4c-0.2-1.1-0.6-2-1.1-2.7c-0.3,0.6-0.6,1.2-1,1.5c-0.6,0.5-1.2,0.7-1.7,0.5c-0.6-0.2-1-0.7-1.2-1.6
			c-0.2-0.6-0.2-1.3-0.1-1.9c-0.8,0.2-1.6,0.7-2.3,1.4c0.1,0.2,0.2,0.4,0.3,0.7c0.2,0.8,0.2,1.8-0.1,2.7c-0.3,0.9-0.7,1.7-1.3,2.2
			c-0.6,0.6-1.2,0.7-1.7,0.5c-0.1,0-0.1,0-0.2-0.1c-0.3,1.3-0.4,2.5-0.3,3.6c0.6-0.4,1.1-0.6,1.6-0.4c0.6,0.2,1,0.7,1.2,1.6
			c0.2,0.8,0.2,1.8-0.1,2.7c-0.1,0.5-0.3,0.9-0.6,1.3c0.3,0.3,0.7,0.4,1,0.6s0.7,0.2,1.1,0.2C360.3,100.2,360.4,99.7,360.5,99.2z"/>
		<path id="Circles_5_" class="st74" d="M373.7,89.4c0-1.3-0.1-2.6-0.4-3.7c-0.3-1.1-0.7-2.2-1.3-2.9c-0.4-0.5-0.9-0.9-1.4-1.3
			c0-1.2-0.2-2.3-0.4-3.3c-0.3-1.1-0.7-2.2-1.3-2.9c-0.6-0.8-1.3-1.4-2.2-1.7c-0.8-0.3-1.7-0.3-2.6-0.1c-0.9,0.3-1.7,0.8-2.5,1.5
			c-0.7,0.6-1.4,1.4-2,2.4c-0.6-0.1-1.2-0.1-1.9,0.1c-0.9,0.3-1.7,0.8-2.5,1.5c-0.8,0.7-1.6,1.6-2.2,2.8c-0.7,1.2-1.2,2.4-1.6,3.8
			c-0.4,1.4-0.6,2.8-0.6,4.2c0,1.3,0.1,2.6,0.4,3.7c0,0.1,0,0.2,0.1,0.3c-0.2,0.6-0.5,1.2-0.6,1.8c-0.4,1.4-0.6,2.8-0.6,4.2
			c0,1.3,0.1,2.6,0.4,3.7c0.3,1.1,0.7,2.2,1.3,2.9c0.6,0.8,1.3,1.4,2.2,1.7c0.8,0.3,1.7,0.3,2.6,0.1c0.2-0.1,0.5-0.2,0.7-0.2
			c0.1,0.2,0.3,0.4,0.4,0.6c0.6,0.8,1.3,1.4,2.2,1.7c0.8,0.3,1.7,0.3,2.6,0.1c0.9-0.3,1.7-0.8,2.5-1.5c0.8-0.7,1.6-1.6,2.2-2.8
			c0.7-1.2,1.2-2.4,1.6-3.8c0.2-0.7,0.3-1.3,0.4-1.9c0.1-0.1,0.1-0.1,0.2-0.2c0.8-0.7,1.6-1.6,2.2-2.8c0.7-1.2,1.2-2.4,1.6-3.8
			C373.4,92.2,373.7,90.8,373.7,89.4z M371.1,96.9c-0.6,1-1.2,1.8-1.9,2.4c0-0.4,0.1-0.8,0.1-1.2c0-1.3-0.1-2.6-0.4-3.7
			c-0.1-0.4-0.2-0.8-0.4-1.1c-0.1,0.2-0.3,0.5-0.4,0.7c0.1,0.3,0.2,0.6,0.3,0.9c0.3,1.1,0.4,2.2,0.4,3.4c0,0.5-0.1,1-0.1,1.6
			c-0.6,0.5-1.2,0.8-1.9,1c-0.7,0.2-1.4,0.2-2.2,0c-0.1,0.3-0.2,0.6-0.3,0.8c0.8,0.2,1.6,0.3,2.4,0c0.6-0.2,1.2-0.4,1.7-0.9
			c-0.1,0.4-0.2,0.9-0.3,1.3c-0.3,1.3-0.8,2.4-1.5,3.5c-0.6,1-1.3,1.9-2,2.5c-0.8,0.7-1.5,1.1-2.3,1.4c-0.8,0.2-1.6,0.2-2.4-0.1
			s-1.4-0.8-2-1.6c-0.1-0.1-0.1-0.2-0.2-0.3c0.4-0.2,0.8-0.6,1.2-0.9c0.8-0.7,1.6-1.6,2.2-2.8c0.1-0.2,0.2-0.3,0.3-0.5
			c-0.2-0.1-0.3-0.2-0.5-0.3c-0.1,0.1-0.1,0.2-0.2,0.4c-0.6,1-1.3,1.9-2,2.5c-0.5,0.4-0.9,0.8-1.4,1c-0.3-0.5-0.5-1.1-0.7-1.7
			c-0.3-1.1-0.4-2.2-0.4-3.4c0-0.1,0-0.2,0-0.4c-0.2,0-0.4,0-0.5-0.1c0,0.2,0,0.4,0,0.6c0,1.3,0.1,2.6,0.4,3.7
			c0.2,0.6,0.3,1.1,0.6,1.6c-0.1,0-0.2,0.1-0.3,0.1c-0.8,0.2-1.6,0.2-2.4-0.1s-1.4-0.8-2-1.6c-0.5-0.7-0.9-1.7-1.2-2.7
			c-0.3-1.1-0.4-2.2-0.4-3.4c0-1.3,0.2-2.5,0.6-3.8c0.1-0.4,0.3-0.8,0.4-1.3c0.3,0.7,0.6,1.3,1,1.9c0.6,0.7,1.2,1.3,2,1.6
			c0-0.3,0.1-0.6,0.2-0.9c-0.7-0.3-1.2-0.8-1.7-1.5c-0.4-0.6-0.8-1.3-1-2.1c0.2-0.5,0.5-0.9,0.7-1.3c0.6-1,1.3-1.9,2-2.5
			c0.2-0.2,0.4-0.4,0.7-0.5c0-0.3-0.1-0.6,0-0.8c-0.3,0.2-0.6,0.4-0.8,0.7c-0.8,0.7-1.6,1.6-2.2,2.8c-0.2,0.4-0.4,0.7-0.6,1.1
			c-0.2-1-0.4-2.1-0.3-3.2c0-1.3,0.2-2.5,0.6-3.8c0.3-1.3,0.8-2.4,1.5-3.5c0.6-1,1.3-1.9,2-2.5c0.8-0.7,1.5-1.1,2.3-1.4
			c0.5-0.2,0.9-0.2,1.4-0.2c-0.5,1-1,2.1-1.3,3.4c-0.3,1-0.5,2-0.5,2.9c0.2-0.1,0.4-0.2,0.6-0.2c0.1-0.9,0.3-1.7,0.5-2.5
			c0.3-1.3,0.8-2.4,1.4-3.4c0.1,0,0.3,0.1,0.4,0.1c0.8,0.3,1.4,0.8,2,1.6c0.3,0.3,0.5,0.7,0.7,1.2c0.1-0.1,0.2-0.2,0.3-0.3
			c0.1-0.1,0.2-0.1,0.2-0.2c-0.2-0.5-0.5-1-0.8-1.4c-0.6-0.8-1.3-1.4-2.2-1.7c-0.1,0-0.1,0-0.2-0.1c0.5-0.7,1-1.3,1.6-1.8
			c0.8-0.7,1.5-1.1,2.3-1.4c0.8-0.2,1.6-0.2,2.4,0.1c0.8,0.3,1.4,0.8,2,1.6c0.5,0.7,0.9,1.7,1.2,2.7c0.2,0.8,0.3,1.6,0.4,2.6
			c-0.1,0-0.2-0.1-0.2-0.1c-0.8-0.3-1.7-0.3-2.6-0.1c-0.5,0.1-0.9,0.3-1.4,0.6c0,0.1,0.1,0.2,0.1,0.3c0,0.2,0.1,0.3,0.1,0.5
			c0.4-0.2,0.8-0.4,1.1-0.5c0.8-0.2,1.6-0.2,2.4,0.1c0.2,0.1,0.3,0.1,0.5,0.2c0,1.2-0.2,2.5-0.6,3.8c-0.2,0.9-0.5,1.7-0.9,2.5
			c0.1,0.1,0.3,0.3,0.3,0.6c0.4-0.9,0.8-1.8,1.1-2.8c0.3-1.2,0.5-2.4,0.6-3.6c0.4,0.3,0.7,0.6,1,1c0.5,0.7,0.9,1.7,1.2,2.7
			c0.3,1.1,0.4,2.2,0.4,3.4c0,1.3-0.2,2.5-0.6,3.8C372.2,94.7,371.8,95.8,371.1,96.9z"/>
	</g>
</g>
<g>
	<path class="st93" d="M395.3,402l-3.2-7.8c-3.4-1-5.8-1.1-6.1,2.5l3.3,7.7L395.3,402z"/>
	<linearGradient id="SVGID_20_" gradientUnits="userSpaceOnUse" x1="387.6755" y1="409.28" x2="399.1471" y2="409.28">
		<stop  offset="0" style="stop-color:#491E8C"/>
		<stop  offset="0.4656" style="stop-color:#3A186E"/>
		<stop  offset="0.871" style="stop-color:#2F1359"/>
	</linearGradient>
	<path class="st94" d="M388.1,413.7l0.1-11.9c0.9-2.3,2.6-3.7,5.5-3.9c1.4,0.1,2.5,0.3,4.4,1.9c1.6,1.3,1.2,4.8,0.8,6.6l-3,8.2
		c-1.9,6-4.2,6.1-6.2,5.9l0,0C387.4,420.1,387.4,417.5,388.1,413.7z"/>
	<linearGradient id="SVGID_21_" gradientUnits="userSpaceOnUse" x1="357.7538" y1="362.895" x2="394.3481" y2="362.895">
		<stop  offset="0" style="stop-color:#1D073F"/>
		<stop  offset="0.4598" style="stop-color:#1C073C"/>
		<stop  offset="0.7624" style="stop-color:#180633"/>
		<stop  offset="1" style="stop-color:#120426"/>
	</linearGradient>
	<path class="st95" d="M394.2,393.8c-3.9-7.9-10.4-17.9-14.5-25.3c-5.7-10.5-8.5-28.9-8.5-41.1l-4.2,7.6c-0.5-3.9-4.7-4.3-7.1-2.5
		c0.1-0.5,0.2-0.9,0.4-1.3c-1.6,0.8-2.9,2.5-2.6,4.8c1.6,10.9,5.9,21.4,11,31.2c0.8,1.6,1.6,3.2,2.5,4.7
		c4.2,7.7,10.2,17.7,14.2,25.7c0.3,0.6,1,0.9,1.6,0.6l6.5-2.8C394.3,395.2,394.5,394.4,394.2,393.8z"/>
	<path class="st93" d="M425,359.7l-8.3,1c-1.8,3-2.6,5.3,0.8,6.6l8.3-1.1L425,359.7z"/>
	<linearGradient id="SVGID_22_" gradientUnits="userSpaceOnUse" x1="370.3839" y1="346.5549" x2="421.698" y2="346.5549">
		<stop  offset="0" style="stop-color:#1D073F"/>
		<stop  offset="0.4598" style="stop-color:#1C073C"/>
		<stop  offset="0.7624" style="stop-color:#180633"/>
		<stop  offset="1" style="stop-color:#120426"/>
	</linearGradient>
	<path class="st96" d="M403.6,370.3c-6.1,0-12.4-1.8-17.5-8.6c-9.6-12.9-15.7-33.1-15.7-34.1l15.1-4.8c0,0.2-0.4,23.2,7.5,33.7
		c4.7,6.4,11.1,5.6,20.3,3.8c2.4-0.5,4.7-0.9,7-1.1c0.6,0,1,0.4,1.1,1l0.3,6.6c0,0.5-0.4,1-0.9,1c-1.7,0.2-3.7,0.6-5.8,1
		C411.5,369.5,407.6,370.3,403.6,370.3z"/>
	<linearGradient id="SVGID_23_" gradientUnits="userSpaceOnUse" x1="304.1468" y1="263.9126" x2="370.4081" y2="263.9126">
		<stop  offset="0" style="stop-color:#FFCABA"/>
		<stop  offset="0.2013" style="stop-color:#F6BFB1"/>
		<stop  offset="0.5497" style="stop-color:#DDA39B"/>
		<stop  offset="1" style="stop-color:#B57676"/>
	</linearGradient>
	<path class="st97" d="M366.8,292.7c-0.3,0-0.7,0-1-0.1c-40.7-11.6-60.5-50.6-61.3-52.2c-0.9-1.8-0.2-3.9,1.6-4.8
		c1.8-0.9,3.9-0.2,4.8,1.6c0.3,0.5,19.3,37.8,56.9,48.5c1.9,0.5,3,2.5,2.5,4.4C369.8,291.7,368.4,292.7,366.8,292.7z"/>
	<linearGradient id="SVGID_24_" gradientUnits="userSpaceOnUse" x1="423.5259" y1="366.407" x2="441.196" y2="366.407">
		<stop  offset="0" style="stop-color:#491E8C"/>
		<stop  offset="0.4656" style="stop-color:#3A186E"/>
		<stop  offset="0.871" style="stop-color:#2F1359"/>
	</linearGradient>
	<path class="st98" d="M434.2,372.1l-9.3-5.9c-1.4-2-1.8-4.2-1-6.5c1.7-0.6,1.7-0.6,3.8-1.3c1.7-0.7,4.3,1.1,5.5,2.2l5.2,5.9
		c3.9,4.1,2.9,6,1.9,7.4l0,0C439,375.4,436.9,374.3,434.2,372.1z"/>
	<linearGradient id="SVGID_25_" gradientUnits="userSpaceOnUse" x1="373.3116" y1="291.0727" x2="415.2038" y2="291.0727">
		<stop  offset="0" style="stop-color:#B57676"/>
		<stop  offset="0.1911" style="stop-color:#BD7F7D"/>
		<stop  offset="0.4999" style="stop-color:#D29790"/>
		<stop  offset="0.8858" style="stop-color:#F4BDB0"/>
		<stop  offset="1" style="stop-color:#FFCABA"/>
	</linearGradient>
	<path class="st99" d="M377.4,267.5c9.7,3.7,18.2,11.2,25.8,18c1.7,1.5,2.6,2.4,3.3,4.4c2.5,6.8,5.8,14.1,8.4,21
		c1.2,3.3-3.6,5.7-4.9,2.2c-2.9-7.7-5.5-12-8.2-18.7c-0.5-1.2-1.5-3.8-2-4.2c-7.4-6.6-15.5-13.9-24.8-17.4
		C371.5,271.5,373.9,266.2,377.4,267.5L377.4,267.5z"/>
	<linearGradient id="SVGID_26_" gradientUnits="userSpaceOnUse" x1="356.5078" y1="327.6131" x2="386.0882" y2="327.6131">
		<stop  offset="0" style="stop-color:#1D073F"/>
		<stop  offset="0.4598" style="stop-color:#1C073C"/>
		<stop  offset="0.7624" style="stop-color:#180633"/>
		<stop  offset="1" style="stop-color:#120426"/>
	</linearGradient>
	<path class="st100" d="M379.5,334.9L379.5,334.9c-0.8,1,2.5-3.8,1.4-3.1c-2.1,1.5-14,11.1-16.6,11.3c-3.1,0.3-1.6-2.9-4.1-4.8
		c-2.4-1.8-3.2-5-3.6-8c-0.1-0.8-0.2-1.7,0-2.5c0.3-0.8,1-1.5,1.6-2.1c5.2-4.7,15.3-16,23.4-13.3C391,315.6,383.1,330.1,379.5,334.9
		z"/>
	<linearGradient id="SVGID_27_" gradientUnits="userSpaceOnUse" x1="358.4995" y1="265.3347" x2="367.8538" y2="265.3347">
		<stop  offset="0" style="stop-color:#FFCABA"/>
		<stop  offset="0.2013" style="stop-color:#F6BFB1"/>
		<stop  offset="0.5497" style="stop-color:#DDA39B"/>
		<stop  offset="1" style="stop-color:#B57676"/>
	</linearGradient>
	<path class="st101" d="M367.8,268.3l-3.2-10.3l-6.1,4.9l2.7,9.4C361.5,273.8,368.6,271.8,367.8,268.3z"/>
	<linearGradient id="SVGID_28_" gradientUnits="userSpaceOnUse" x1="331.7867" y1="299.8331" x2="401.9092" y2="299.8331">
		<stop  offset="0" style="stop-color:#491E8C"/>
		<stop  offset="0.4656" style="stop-color:#3A186E"/>
		<stop  offset="0.871" style="stop-color:#2F1359"/>
	</linearGradient>
	<path class="st102" d="M399.6,280.9c-5.8-4.1-14.3-11.3-20.3-14.5c-4.2-3.1-10.4-1.3-14.9,2c-2.2,1.6-4.8,3.5-7.2,5.2l0,0l-2.6,1.9
		l-15.9-7c-3.8-2.7-9.7,4.8-5.3,8.4l16.9,9.6c0.3,0.2,0.6,0.3,0.9,0.4v0v0l3.3,26.1c0,0,1,13.8,1.1,18.4l0,0l0,0l0,0
		c0,0,0.4,2,2.4,2.6l0,0l0,0v0l0,0c2.6,1.2,6.4,1.1,8.4-0.3c5.1-2.3,10-4.8,13.9-7.9c2.1-1.6,4-3.5,5.4-5.6c0.8-0.6,1.2-1.3,1.2-2
		l0,0c1.4-0.7-0.5-19.9-2.9-36.2l9.7,5.9c1.5,1.1,4.3,2.5,5.1,1.7l2.7-4.3C402.5,284.1,401.6,282,399.6,280.9z"/>
	<path class="st66" d="M357.1,273.6c7.1-1.7,12.4,2.5,13.2-8.1l0,0c-1.1-0.6-2.7-0.7-3.3,0.3c-1.1,1.9-3.1,3-6.3,3.7
		c-0.9,0.2-1.7,0.4-2.1,1.2L357.1,273.6z"/>
	<path class="st66" d="M337.3,267.2c-0.1-0.3-6.1-0.2-6.5,8c0,0.3,0.1,0.7,0.3,0.9l3,3c0.5,0.5,1.4,0.4,1.8-0.2l5.5-8.7
		c0.4-0.6,0.1-1.5-0.6-1.7L337.3,267.2z"/>
	<path class="st66" d="M396.1,290.4c0.1,0.3,6.1,0.2,6.6-8.1c0-0.2-0.1-0.5-0.2-0.6l-3.4-3.4c-0.4-0.4-1-0.3-1.3,0.1l-6.1,9.5
		c-0.3,0.4-0.1,1,0.4,1.2L396.1,290.4z"/>
	<linearGradient id="SVGID_29_" gradientUnits="userSpaceOnUse" x1="348.2646" y1="253.0837" x2="377.0104" y2="253.0837">
		<stop  offset="0" style="stop-color:#1D073F"/>
		<stop  offset="0.4392" style="stop-color:#1C073C"/>
		<stop  offset="0.7629" style="stop-color:#180633"/>
		<stop  offset="1" style="stop-color:#120426"/>
	</linearGradient>
	<path class="st103" d="M372.9,250c0-0.1,0-0.1,0-0.2c0-0.2-0.1-0.3-0.1-0.5c1.7,0.4,4.3-0.2,4.3-0.2c-2.7-1.1-5.4-3.4-5.4-3.4
		s0,0,0,0c-3-6.2-10-3.8-15-3.8c-2.6,0-4.9,0.1-7.3,2.6c-2.2,2.3-0.8,5,2.7,5.1c1.4,0,1,3.7,1.4,5c0.7,2.2,2.2,3.2,2.8,5.3
		c0.7,2,3.9,5,5.9,5c3.5,0.1,5-1.2,5-1.2s5.8-2.7,5.9-10.7c1-0.1,3.5-1.7,3.5-1.7C375,251.4,373.7,250.7,372.9,250z"/>
	<linearGradient id="SVGID_30_" gradientUnits="userSpaceOnUse" x1="348.9868" y1="258.1834" x2="362.0032" y2="258.1834">
		<stop  offset="0" style="stop-color:#FFCABA"/>
		<stop  offset="0.2013" style="stop-color:#F6BFB1"/>
		<stop  offset="0.5497" style="stop-color:#DDA39B"/>
		<stop  offset="1" style="stop-color:#B57676"/>
	</linearGradient>
	<path class="st104" d="M356.9,261c0.1,0,0.1,0,0.2,0c1.1-0.3,1.9-1.6,1.9-3.2c0-1.8-1-3.3-2.3-3.3c-1,0-1.9,0.9-2.2,2.2
		c-0.4-0.6-0.8-1.3-1.1-2.2c-0.4-1.2-0.1-4.9-1.4-5c-1,0-1.8-0.2-2.4-0.6c-1.1,4.3-0.6,9.1,0.7,14.1c0.5,3.8,5.5,5.7,9.2,3.6
		c0.9-0.5,1.8-1.1,2.6-1.8c0,0,0,0,0,0C360.4,264.6,358.1,262.7,356.9,261z"/>
</g>
<g>
	<path class="st93" d="M30,240.7l-5.9,5.5c0.7,3.4,1.7,6.2,5.1,4.8l5.7-6.1L30,240.7z"/>
	<linearGradient id="SVGID_31_" gradientUnits="userSpaceOnUse" x1="26.9797" y1="214.7497" x2="76.3305" y2="214.7497">
		<stop  offset="0" style="stop-color:#120426"/>
		<stop  offset="0.2376" style="stop-color:#180633"/>
		<stop  offset="0.5402" style="stop-color:#1C073C"/>
		<stop  offset="1" style="stop-color:#1D073F"/>
	</linearGradient>
	<path class="st105" d="M30.9,248l-3.7-6.8c-0.4-0.7-0.3-1.6,0.2-2.2c16.9-20.2,16.2-20.8,19.7-27.5l0.2-0.3
		c6.8-12.9,9.4-24.8,10.1-29.2c0.2-1,1.1-1.7,2.2-1.6l7.3,0.9c1.1,0.1,9.6-1.2,9.4-0.1c-0.8,5-11.3,20.8-19,35.4l-0.2,0.3
		c-3.8,7.3-6.2,11.3-23,31.5C33.3,249.4,31.6,249.3,30.9,248z"/>
	<path class="st93" d="M67.2,229.1l-5.9,5.5c0.7,3.4,1.7,6.2,5.1,4.8l5.7-6.1L67.2,229.1z"/>
	<linearGradient id="SVGID_32_" gradientUnits="userSpaceOnUse" x1="65.6442" y1="206.2604" x2="99.945" y2="206.2604">
		<stop  offset="0" style="stop-color:#120426"/>
		<stop  offset="0.2376" style="stop-color:#180633"/>
		<stop  offset="0.5402" style="stop-color:#1C073C"/>
		<stop  offset="1" style="stop-color:#1D073F"/>
	</linearGradient>
	<path class="st106" d="M68.3,236l-2.5-7.9c-0.2-0.7-0.1-1.4,0.4-1.9c3.3-3.9,3.7-3.7,8.4-8c5-4.5,10.8-11.1,11.7-14.2
		c-6.9-14.1-14-19.1-14-19.1l10.5-9.8c0.8,0.7,8.2,6.9,16.3,23.6c4.2,8.7-5.5,17.6-16.8,27.8c-3.8,3.5-7.4,6.9-10.5,10.2
		C70.6,237.9,68.7,237.5,68.3,236z"/>
	<linearGradient id="SVGID_33_" gradientUnits="userSpaceOnUse" x1="54.8954" y1="243.5935" x2="66.417" y2="243.5935">
		<stop  offset="0" style="stop-color:#2F1359"/>
		<stop  offset="2.421618e-02" style="stop-color:#31145C"/>
		<stop  offset="0.2044" style="stop-color:#3B1871"/>
		<stop  offset="0.4054" style="stop-color:#431C80"/>
		<stop  offset="0.6416" style="stop-color:#481D89"/>
		<stop  offset="1" style="stop-color:#491E8C"/>
	</linearGradient>
	<path class="st107" d="M63.9,245l2.6-5.6c-2.4-0.2-3.2-2.7-2.5-7.2l-5.8,2.3c-1,0.4-1.6,1.2-1.8,2.3l-1.1,8.3l-0.4,5
		c-0.1,1.4,0.8,4.4,2.3,4.8C57.2,254.9,60.7,256.5,63.9,245z"/>
	<linearGradient id="SVGID_34_" gradientUnits="userSpaceOnUse" x1="16.8578" y1="255.9168" x2="28.3795" y2="255.9168">
		<stop  offset="0" style="stop-color:#2F1359"/>
		<stop  offset="2.421618e-02" style="stop-color:#31145C"/>
		<stop  offset="0.2044" style="stop-color:#3B1871"/>
		<stop  offset="0.4054" style="stop-color:#431C80"/>
		<stop  offset="0.6416" style="stop-color:#481D89"/>
		<stop  offset="1" style="stop-color:#491E8C"/>
	</linearGradient>
	<path class="st108" d="M25.8,257.3l2.6-5.6c-2.4-0.2-3.2-2.7-2.5-7.2l-5.8,2.3c-1,0.4-1.6,1.2-1.8,2.3l-1.1,8.3l-0.4,5
		c-0.1,1.4,0.8,4.4,2.3,4.8C19.2,267.3,22.6,268.8,25.8,257.3z"/>
	<linearGradient id="SVGID_35_" gradientUnits="userSpaceOnUse" x1="54.9941" y1="172.3036" x2="86.1927" y2="172.3036">
		<stop  offset="0" style="stop-color:#120426"/>
		<stop  offset="0.2376" style="stop-color:#180633"/>
		<stop  offset="0.5402" style="stop-color:#1C073C"/>
		<stop  offset="1" style="stop-color:#1D073F"/>
	</linearGradient>
	<path class="st109" d="M80.6,166.6c8.7,6.7,6.3,14-0.5,18.6c-5.2,3.5-9.8,6.8-16.6,4.8c-3.6-1.1-9.3-7-8.3-12.5
		c0.6-3.6,9.6-19.6,13.3-22.1C75.2,150.8,70.5,158.8,80.6,166.6z"/>
	<linearGradient id="SVGID_36_" gradientUnits="userSpaceOnUse" x1="98.4449" y1="136.2723" x2="133.7442" y2="136.2723">
		<stop  offset="0" style="stop-color:#B57676"/>
		<stop  offset="3.945488e-02" style="stop-color:#BD7F7D"/>
		<stop  offset="0.1793" style="stop-color:#D59A93"/>
		<stop  offset="0.3315" style="stop-color:#E8AFA5"/>
		<stop  offset="0.5004" style="stop-color:#F5BEB1"/>
		<stop  offset="0.6989" style="stop-color:#FDC7B8"/>
		<stop  offset="1" style="stop-color:#FFCABA"/>
	</linearGradient>
	<path class="st110" d="M111.3,149.4c-4.6,0-7.4-3.5-9.3-5.8c-0.4-0.5-1-1.3-1.3-1.5c-1.6-0.6-2.6-2.3-2.2-4
		c0.4-1.8,2.3-2.9,4.1-2.5c2.1,0.5,3.4,2.2,4.7,3.8c1.6,2,2.7,3.3,4.1,3.3c1.6-0.1,6.4-2,16-17.9c1-1.6,3-2.1,4.6-1.1
		c1.6,1,2.1,3,1.1,4.6c-8.7,14.2-15.2,20.8-21.4,21.2C111.7,149.4,111.5,149.4,111.3,149.4z M101,142.2L101,142.2L101,142.2z"/>
	<linearGradient id="SVGID_37_" gradientUnits="userSpaceOnUse" x1="36.9476" y1="158.1834" x2="68.1296" y2="158.1834">
		<stop  offset="0" style="stop-color:#FFCABA"/>
		<stop  offset="0.1937" style="stop-color:#F7C1B2"/>
		<stop  offset="0.514" style="stop-color:#E1A89E"/>
		<stop  offset="0.9191" style="stop-color:#BD7F7D"/>
		<stop  offset="1" style="stop-color:#B57676"/>
	</linearGradient>
	<path class="st111" d="M67.3,141.1c-3.9,3.7-7.6,5.7-11.7,9.3c-9.2,7.8-12.1,17.1-12.7,27.1c-0.2,3.6-6.1,3-5.9-0.6
		c0.6-10.7,3.6-21.3,11.4-29c2.6-2.5,5.5-4.7,8.6-6.6c2.1-1.3,4.5-2.4,6.3-4C65.8,134.8,69.9,138.6,67.3,141.1L67.3,141.1z"/>
	<linearGradient id="SVGID_38_" gradientUnits="userSpaceOnUse" x1="52.5015" y1="151.8297" x2="107.6681" y2="151.8297">
		<stop  offset="0" style="stop-color:#2F1359"/>
		<stop  offset="2.241254e-03" style="stop-color:#2F1359"/>
		<stop  offset="0.2029" style="stop-color:#3B1870"/>
		<stop  offset="0.4202" style="stop-color:#431B80"/>
		<stop  offset="0.6664" style="stop-color:#471D89"/>
		<stop  offset="1" style="stop-color:#491E8C"/>
	</linearGradient>
	<path class="st112" d="M107.4,138l-9.2-12.6c-0.4-0.6-1-1.1-1.6-1.4c-3.6-2.9-9.2-2.2-13.7,0.1c-3.3,1.7-10.5,3.4-16,6.7
		c-0.8,0.4-1.7,1.2-2.3,1.7l-11.3,9.9c-1.9,1.5-0.2,5.5,2.3,7.5c0,0,1.8,1.9,3.7,1.1c0,0,0,0,0,0c0,0,0,0,0,0l0,0
		c0.2-0.1,0.5-0.2,0.7-0.3l0.1-0.1c1.2-0.8,1.7-1.8,2.5-2.7l1-1.1c-3.3,10.8-6.9,22.4-8.6,30.6c1.7,6.8,15.4,4.3,29.2-1.5l0,0
		l0.2-0.1c0.6-0.3,1.2-0.5,1.8-0.8c0,0,6.1-24.9,9.7-35.6l2.2,3.7C99.9,146.5,109.2,142.2,107.4,138z"/>
	<linearGradient id="SVGID_39_" gradientUnits="userSpaceOnUse" x1="79.2505" y1="123.4246" x2="90.3295" y2="123.4246">
		<stop  offset="0" style="stop-color:#B57676"/>
		<stop  offset="6.165922e-03" style="stop-color:#B67777"/>
		<stop  offset="0.1511" style="stop-color:#D1928C"/>
		<stop  offset="0.3078" style="stop-color:#E5A79C"/>
		<stop  offset="0.4826" style="stop-color:#F4B6A7"/>
		<stop  offset="0.6882" style="stop-color:#FCBFAE"/>
		<stop  offset="1" style="stop-color:#FFC2B0"/>
	</linearGradient>
	<path class="st113" d="M86.4,127.6l3.9-11l-7.9,1.5l-3.2,9C78.7,128.6,83.8,133.1,86.4,127.6z"/>
	<linearGradient id="SVGID_40_" gradientUnits="userSpaceOnUse" x1="84.2806" y1="125.2099" x2="87.6624" y2="125.2099">
		<stop  offset="0.1505" style="stop-color:#C7755C"/>
		<stop  offset="1" style="stop-color:#FFC2B0"/>
	</linearGradient>
	<path class="st114" d="M87.7,124.1c0,0-3.4-0.6-3.4-0.6c0,0,0.9,2.4,2.4,3.4L87.7,124.1z"/>
	<linearGradient id="SVGID_41_" gradientUnits="userSpaceOnUse" x1="72.3925" y1="111.9826" x2="93.1954" y2="111.9826">
		<stop  offset="0" style="stop-color:#120426"/>
		<stop  offset="0.2371" style="stop-color:#180633"/>
		<stop  offset="0.5608" style="stop-color:#1C073C"/>
		<stop  offset="1" style="stop-color:#1D073F"/>
	</linearGradient>
	<path class="st115" d="M91.7,101.1C91.7,101.1,91.7,101.1,91.7,101.1c-0.2-0.2-0.5-0.3-0.8-0.5c-1.5-0.6-4.6-0.3-7.3-0.3
		c-7.6,0.1-13.3,6.4-10.4,13.9c0,0,3,8.5,8.3,9.4c1,0.2,1.8-0.7,1.7-1.6c0,0-3.4-2.1-0.7-5.9c0.6-0.9,0.3-2.1-0.3-3.3
		c-0.4-0.9-0.1-1.9,0.7-2.3c0.1,0,0.3,0.1,0.5,0.1c2.5,0.1,6.1-0.4,8.1-2.3C93.4,106.5,94,102.4,91.7,101.1z"/>
	<linearGradient id="SVGID_42_" gradientUnits="userSpaceOnUse" x1="78.2276" y1="115.6393" x2="95.7021" y2="115.6393">
		<stop  offset="0" style="stop-color:#B57676"/>
		<stop  offset="3.945488e-02" style="stop-color:#BD7F7D"/>
		<stop  offset="0.1793" style="stop-color:#D59A93"/>
		<stop  offset="0.3315" style="stop-color:#E8AFA5"/>
		<stop  offset="0.5004" style="stop-color:#F5BEB1"/>
		<stop  offset="0.6989" style="stop-color:#FDC7B8"/>
		<stop  offset="1" style="stop-color:#FFCABA"/>
	</linearGradient>
	<path class="st116" d="M95.3,115.6l-3.4-9l-0.8,1.2l-4.8,2.3c-8-1.5-1.9,7.3-6,6.9c-1.2-0.3-2,0.4-2,1.6c0.1,1.2,1.1,2.5,2.4,2.9
		c0.5,0.2,1,0.1,1.3-0.1c1.3,2.5,4.1,3.8,6.8,3.2c0.3-0.1,0.7-0.1,1-0.3l2-0.8C94.9,122.3,96.5,118.8,95.3,115.6z"/>
</g>
<g>
	<linearGradient id="SVGID_43_" gradientUnits="userSpaceOnUse" x1="427.344" y1="91.0639" x2="479.6094" y2="91.0639">
		<stop  offset="0" style="stop-color:#996A30"/>
		<stop  offset="0.3336" style="stop-color:#96682F"/>
		<stop  offset="0.5798" style="stop-color:#8D612C"/>
		<stop  offset="0.7971" style="stop-color:#7D5727"/>
		<stop  offset="0.9978" style="stop-color:#664720"/>
		<stop  offset="1" style="stop-color:#664720"/>
	</linearGradient>
	<path class="st117" d="M479.5,91.3c0.3-2.3-0.4-4.7-1.8-6.3c-0.1-0.2-0.3-0.3-0.5-0.3c-0.2,0-0.4,0.1-0.5,0.3
		c-1.1,1.1-2,2.5-3.1,3.4c-1.2,1-2.9,1.4-4,0.4c2.1-1.6,3.6-4.1,4.1-6.9c-2,2.3-4.2,4.7-7,4.8c-1.4,0.1-2.8-0.4-4.2-0.9
		c-3.4-1.3-6.8-2.5-10.1-3.8c-1.1-0.4-5.4-4-7.3-5.1c-0.1-0.1-0.1-0.1-0.2-0.2c0,0-0.1-0.1-0.1-0.1c-7.6-6.2-17.4-1.5-17.3,5.9
		c0,0.5,0.6,0.9,1.1,0.6l3.3-1.7c0,0,0.7,0.7,1.8,1.7c-0.1,0.6-0.1,1.3,0,1.9c0.6,2.6,2.3,4.7,4,6.6c1,1.1,1.7,2.9,2.7,4
		c0.4,0.5,0.8,0.9,1.3,1.4l0.1,0.5c0,0,0.1,0,0.2-0.1c3.6,3.8,7.6,7.2,12.1,9.3c5.7,2.7,12.5,2.5,17.8-1.1c1.8-1.3,3.4-2.9,5-4.5
		c0.9-0.9,1.7-1.8,2.3-3s0.7-2.7,0.1-3.8c-0.9,1-1.9,1.8-3.1,2.3C477.8,95.5,479.2,93.5,479.5,91.3z"/>
	<path class="st118" d="M406,166.8c-1-1.9,7.2,21.8,21.3,14.7c10.4-5.2,3.2-26.3,3.2-26.3L406,166.8z"/>
	<linearGradient id="SVGID_44_" gradientUnits="userSpaceOnUse" x1="397.5334" y1="181.5232" x2="433.9596" y2="181.5232">
		<stop  offset="0" style="stop-color:#FFCABA"/>
		<stop  offset="0.1646" style="stop-color:#F1BAAD"/>
		<stop  offset="0.7234" style="stop-color:#C68985"/>
		<stop  offset="1" style="stop-color:#B57676"/>
	</linearGradient>
	<path class="st119" d="M426.7,150.6l-25.2,12.9c-3.5,1.8-5,6-3.4,9.5l17.2,39.5l4.3-1.6c-3.9-16.2-6.1-28.7-12.6-35.7l26.8-17.7
		L426.7,150.6z"/>
	<linearGradient id="SVGID_45_" gradientUnits="userSpaceOnUse" x1="395.9827" y1="187.493" x2="446.7121" y2="187.493">
		<stop  offset="0" style="stop-color:#FFCABA"/>
		<stop  offset="0.1911" style="stop-color:#F7C1B3"/>
		<stop  offset="0.4999" style="stop-color:#E2A9A0"/>
		<stop  offset="0.8858" style="stop-color:#C08380"/>
		<stop  offset="1" style="stop-color:#B57676"/>
	</linearGradient>
	<polygon class="st120" points="446.7,162.3 422.2,196.8 399.7,227.4 396,224.9 418.2,184.6 438.6,147.6 	"/>
	<linearGradient id="SVGID_46_" gradientUnits="userSpaceOnUse" x1="423.5901" y1="144.4004" x2="449.595" y2="144.4004">
		<stop  offset="0" style="stop-color:#1D073F"/>
		<stop  offset="0.4598" style="stop-color:#1C073C"/>
		<stop  offset="0.7624" style="stop-color:#180633"/>
		<stop  offset="1" style="stop-color:#120426"/>
	</linearGradient>
	<path class="st121" d="M449.5,150.6c-0.8,11-7.8,12.1-14.9,8c-7.1-4.1-11-13.4-11-21.6c0,0,3.9-12.1,11-8
		C441.7,133,450.4,137.8,449.5,150.6z"/>
	<linearGradient id="SVGID_47_" gradientUnits="userSpaceOnUse" x1="401.018" y1="158.5361" x2="449.7623" y2="158.5361">
		<stop  offset="0" style="stop-color:#1D073F"/>
		<stop  offset="0.4598" style="stop-color:#1C073C"/>
		<stop  offset="0.7624" style="stop-color:#180633"/>
		<stop  offset="1" style="stop-color:#120426"/>
	</linearGradient>
	<path class="st122" d="M420.4,142.2c0-0.1,0-0.1,0-0.1c0,0,1.1-11.2,9-8.7c2.1,0.7,8.6,1.4,10.1,3.1c3.3,3.6,8.8,2.3,10.1,11.8
		c0.6,4.3-0.6,11.5-2.1,13.4L432.6,184c0,0-8.7-19.7-31.6-20.7l16.9-14.4C419.9,147.3,420.8,144.7,420.4,142.2z"/>
	<linearGradient id="SVGID_48_" gradientUnits="userSpaceOnUse" x1="387.7702" y1="230.2298" x2="402.7442" y2="230.2298">
		<stop  offset="0" style="stop-color:#491E8C"/>
		<stop  offset="0.4656" style="stop-color:#3A186E"/>
		<stop  offset="0.871" style="stop-color:#2F1359"/>
	</linearGradient>
	<path class="st123" d="M402.4,224.4l0.2,3.4c0.1,1-0.4,1.9-1.2,2.5l-9.6,6.6c-0.5,0.4-1.2,0.5-1.8,0.2l-1.1-0.5
		c-1-0.4-1.3-1.6-0.7-2.4l5.7-8l2.8-3l6.2,0.1L402.4,224.4z"/>
	<linearGradient id="SVGID_49_" gradientUnits="userSpaceOnUse" x1="414.9076" y1="217.3989" x2="421.7421" y2="217.3989">
		<stop  offset="0" style="stop-color:#491E8C"/>
		<stop  offset="0.4656" style="stop-color:#3A186E"/>
		<stop  offset="0.871" style="stop-color:#2F1359"/>
	</linearGradient>
	<path class="st124" d="M419.9,208.5l1.5,2.5c0.3,0.5,0.4,1.1,0.4,1.7c-0.3,3.2-1.2,13.3-1.7,13.6l-1.1,0.5c-0.9,0.4-2-0.2-2.2-1.2
		l-1.6-9.7l-0.2-4.1l4-3.9L419.9,208.5z"/>
	<linearGradient id="SVGID_50_" gradientUnits="userSpaceOnUse" x1="454.341" y1="135.7973" x2="475.6014" y2="135.7973">
		<stop  offset="0" style="stop-color:#B57676"/>
		<stop  offset="0.1142" style="stop-color:#C08380"/>
		<stop  offset="0.5001" style="stop-color:#E2A9A0"/>
		<stop  offset="0.8089" style="stop-color:#F7C1B3"/>
		<stop  offset="1" style="stop-color:#FFCABA"/>
	</linearGradient>
	<path class="st125" d="M472.6,157.8c-1.6,0-3-1.3-3-2.9c-0.3-13.6-5.1-25.4-14.5-36c-1.1-1.2-1-3.1,0.2-4.2c1.2-1.1,3.1-1,4.2,0.2
		c10.3,11.5,15.6,24.9,16,39.8C475.6,156.3,474.3,157.7,472.6,157.8C472.6,157.8,472.6,157.8,472.6,157.8z"/>
	<linearGradient id="SVGID_51_" gradientUnits="userSpaceOnUse" x1="389.1194" y1="115.2298" x2="417.343" y2="115.2298">
		<stop  offset="0" style="stop-color:#FFCABA"/>
		<stop  offset="0.3011" style="stop-color:#FDC7B8"/>
		<stop  offset="0.4996" style="stop-color:#F5BEB1"/>
		<stop  offset="0.6685" style="stop-color:#E8AFA5"/>
		<stop  offset="0.8207" style="stop-color:#D59A93"/>
		<stop  offset="0.9605" style="stop-color:#BD7F7D"/>
		<stop  offset="1" style="stop-color:#B57676"/>
	</linearGradient>
	<path class="st126" d="M405.4,127.4c-0.7,0-1.4-0.1-2-0.2c-9.4-2.1-13.7-18.5-14.1-20.4c-0.4-1.6,0.6-3.2,2.2-3.6
		c1.6-0.4,3.2,0.6,3.6,2.2c1.2,4.8,5,14.9,9.6,16c2.5,0.6,5.4-2.2,7.3-4.6c1-1.3,2.9-1.5,4.2-0.5c1.3,1,1.5,2.9,0.5,4.2
		C413,125.1,409.2,127.4,405.4,127.4z"/>
	<linearGradient id="SVGID_52_" gradientUnits="userSpaceOnUse" x1="408.8004" y1="118.1016" x2="468.6441" y2="118.1016">
		<stop  offset="0" style="stop-color:#491E8C"/>
		<stop  offset="0.4656" style="stop-color:#3A186E"/>
		<stop  offset="0.871" style="stop-color:#2F1359"/>
	</linearGradient>
	<path class="st127" d="M468.2,125c-4.6-7.7-9.6-15.1-17.1-19.5c-0.3-0.2-0.7-0.3-1.1-0.4c-7-4.8-12.3-5.6-17.2-6.5
		c-2.4-0.4-6.6-1.9-9.2-1.5c-1.3-0.1-2.5,0.3-3,1.5c-3.2,6.8-6.8,13.2-11.3,19.2c-2.3,3.1,4,7.7,6.3,4.7c1.9-2.5,2.9-4.5,4.1-6.7
		c-0.1,0.4-0.2,0.7-0.2,1c-0.2,3,3.2,7.1,3.5,18.3l0.9,1.1c0,0,9,6.6,20.5-0.2l4.8-14.1l2.5-4c0.4-0.2,1.4-0.1,2.1,0
		c3.3,3.6,5.9,7.8,8.5,12.1C464.3,133.5,470.3,128.4,468.2,125z"/>
	<linearGradient id="SVGID_53_" gradientUnits="userSpaceOnUse" x1="431.0619" y1="104.3535" x2="447.5285" y2="104.3535">
		<stop  offset="0" style="stop-color:#FFCABA"/>
		<stop  offset="0.3011" style="stop-color:#FDC7B8"/>
		<stop  offset="0.4996" style="stop-color:#F5BEB1"/>
		<stop  offset="0.6685" style="stop-color:#E8AFA5"/>
		<stop  offset="0.8207" style="stop-color:#D59A93"/>
		<stop  offset="0.9605" style="stop-color:#BD7F7D"/>
		<stop  offset="1" style="stop-color:#B57676"/>
	</linearGradient>
	<path class="st128" d="M434,98.6c0,0-5.9,6.1-0.8,10.5c5.2,4.4,14.4-5.5,14.4-5.5C442.9,100.7,438.1,98.8,434,98.6z"/>
	<linearGradient id="SVGID_54_" gradientUnits="userSpaceOnUse" x1="433.8064" y1="98.0718" x2="443.0042" y2="98.0718">
		<stop  offset="0" style="stop-color:#FFCABA"/>
		<stop  offset="0.3011" style="stop-color:#FDC7B8"/>
		<stop  offset="0.4996" style="stop-color:#F5BEB1"/>
		<stop  offset="0.6685" style="stop-color:#E8AFA5"/>
		<stop  offset="0.8207" style="stop-color:#D59A93"/>
		<stop  offset="0.9605" style="stop-color:#BD7F7D"/>
		<stop  offset="1" style="stop-color:#B57676"/>
	</linearGradient>
	<path class="st129" d="M436.6,102.1l-2.8-10.9l6.9,2.2l2.3,8.9C443.5,103.7,438.7,107.7,436.6,102.1z"/>
	<linearGradient id="SVGID_55_" gradientUnits="userSpaceOnUse" x1="435.6333" y1="98.4998" x2="440.0747" y2="98.4998">
		<stop  offset="0" style="stop-color:#FFC2B0"/>
		<stop  offset="0.8495" style="stop-color:#C7755C"/>
	</linearGradient>
	<path class="st130" d="M435.6,99.1c1.6,0,3.2-1.3,4.4-3.1c0,0-1.6,4.8-3.7,5L435.6,99.1z"/>
	<linearGradient id="SVGID_56_" gradientUnits="userSpaceOnUse" x1="426.8429" y1="90.2641" x2="443.6307" y2="90.2641">
		<stop  offset="0" style="stop-color:#FFCABA"/>
		<stop  offset="0.3011" style="stop-color:#FDC7B8"/>
		<stop  offset="0.4996" style="stop-color:#F5BEB1"/>
		<stop  offset="0.6685" style="stop-color:#E8AFA5"/>
		<stop  offset="0.8207" style="stop-color:#D59A93"/>
		<stop  offset="0.9605" style="stop-color:#BD7F7D"/>
		<stop  offset="1" style="stop-color:#B57676"/>
	</linearGradient>
	<path class="st131" d="M443.6,91.1c-0.2-1.1-1.1-1.6-2.2-1.1l-9.7-8.6l-2.5,1.3l0,0l0,0l-1,0.5l-1.3,8.6c-0.1,0.8-0.1,1.6,0.1,2.4
		c0.6,2.3,2.4,4.1,4.9,4.5l2.1,0.3c3.3,0.7,5.3-2.1,5.2-2c0.6-0.7,1.2-1.5,1.4-2.5c0.4,0.1,0.8,0,1.3-0.2
		C443.1,93.7,443.8,92.3,443.6,91.1z"/>
	<path class="st132" d="M432.2,123.9c0,0,6.6,4.9,11.4,0c4.8-4.9,8-5.9,8-5.9l-2.5,4l-4.8,14.1c0,0-2.1,1.2-3.4,1.7
		c0,0,5.1-9.1,3.8-11.1C443.5,124.5,439.7,132.3,432.2,123.9z"/>
	<path class="st132" d="M420.2,120.4c0,0,1.4,3.2,4.4,3.6c3,0.4,4.7-1.9,4.7-1.9s-6.3,3.2-9.8-4.5L420.2,120.4z"/>
</g>
</svg>
