<svg id="Layer_1" data-name="Layer 1" xmlns="http://www.w3.org/2000/svg" viewBox="0 0 400 400"><defs><style>.cls-1{fill:#491e8c;}.cls-2{fill:#ffa744;}.cls-3{fill:#dfcdf7;}.cls-4{fill:none;stroke:#dfcdf7;stroke-linecap:round;stroke-linejoin:round;stroke-width:10px;}</style></defs><title>Artboard 1 copy 25</title><path class="cls-1" d="M116.67,296.64V352.2a7,7,0,0,1-6.94,6.94H81.94A7,7,0,0,1,75,352.2V296.64a7,7,0,0,1,6.94-6.94h27.78A7,7,0,0,1,116.67,296.64Zm69.44-69.44v125a7,7,0,0,1-6.94,6.94H151.39a7,7,0,0,1-6.94-6.94v-125a7,7,0,0,1,6.94-6.94h27.78A7,7,0,0,1,186.11,227.2Zm69.44,55.56V352.2a7,7,0,0,1-6.94,6.94H220.83a7,7,0,0,1-6.94-6.94V282.75a7,7,0,0,1,6.94-6.94h27.78A7,7,0,0,1,255.56,282.75ZM325,227.2v125a7,7,0,0,1-6.94,6.94H290.28a7,7,0,0,1-6.94-6.94v-125a7,7,0,0,1,6.94-6.94h27.78A7,7,0,0,1,325,227.2Z"/><path class="cls-2" d="M304.17,136.92a20.84,20.84,0,0,0-20.83,20.83,20.58,20.58,0,0,0,1.23,6.78l-38.88,31.11a20.56,20.56,0,0,0-21.92,0l-38.88-31.11a20.59,20.59,0,0,0,1.23-6.78,20.83,20.83,0,1,0-39.59,8.93l-41.76,41.76a20.53,20.53,0,0,0-8.93-2.08,20.83,20.83,0,1,0,20.83,20.83,20.54,20.54,0,0,0-2.08-8.93l41.76-41.76a20.36,20.36,0,0,0,19.89-1.1l38.88,31.11a20.84,20.84,0,1,0,39.21,0l38.88-31.11a20.81,20.81,0,1,0,11-38.48ZM95.83,234.14a6.94,6.94,0,1,1,6.94-6.94A7,7,0,0,1,95.83,234.14Zm69.44-69.44a6.94,6.94,0,1,1,6.94-6.94A7,7,0,0,1,165.28,164.7Zm69.44,55.56a6.94,6.94,0,1,1,6.94-6.94A7,7,0,0,1,234.72,220.25Zm69.44-55.56a6.94,6.94,0,1,1,6.94-6.94A7,7,0,0,1,304.17,164.7Z"/><path class="cls-3" d="M360,60a5.07,5.07,0,0,1,5,5V385a5.07,5.07,0,0,1-5,5H40a5.07,5.07,0,0,1-5-5V65a5.07,5.07,0,0,1,5-5H360m0-10H40A15,15,0,0,0,25,65V385a15,15,0,0,0,15,15H360a15,15,0,0,0,15-15V65a15,15,0,0,0-15-15Z"/><line class="cls-4" x1="109.38" y1="5" x2="109.38" y2="50"/><line class="cls-4" x1="290.63" y1="5" x2="290.63" y2="50"/><line class="cls-4" x1="35.01" y1="98.39" x2="364.99" y2="98.39"/></svg>