<?xml version="1.0" encoding="utf-8"?>
<!-- Generator: Adobe Illustrator 21.0.0, SVG Export Plug-In . SVG Version: 6.00 Build 0)  -->
<svg version="1.1" id="Layer_1" xmlns="http://www.w3.org/2000/svg" xmlns:xlink="http://www.w3.org/1999/xlink" x="0px" y="0px"
	 viewBox="0 0 631 160" style="enable-background:new 0 0 631 160;" xml:space="preserve">
<g>
	<rect x="286.1" y="0" width="32.4" height="160"/>
	<rect x="457.1" y="0" width="32.4" height="160"/>
	<polygon points="241.8,0 241.8,95.5 177.1,95.5 177.1,0 144.6,0 144.6,160 177.1,160 177.1,127.6 241.8,127.6 241.8,160 274.2,160 
		274.2,0 	"/>
	<polygon points="598.5,0 598.5,103.2 538.6,0 538.6,0 534,0 534,0 501.6,0 501.6,0 501.6,0 501.6,32.1 501.6,32.1 501.6,160 
		534,160 534,56.8 593.9,160 594,160 594,160 598.5,160 630.9,160 630.9,127.9 630.9,0 	"/>
	<path d="M378.6,0L378.6,0l-17,0h-28.5h-3.9v23.4v80.8V160h32.4v-32.4h17c0,0,0,0,0,0c35.2,0,63.8-28.6,63.8-63.8
		C442.4,28.6,413.8,0,378.6,0z M378.6,95.6L378.6,95.6L378.6,95.6l-17,0v-5V37v-5h17c17.5,0,31.8,14.2,31.8,31.8
		C410.4,81.4,396.1,95.6,378.6,95.6z"/>
	<path d="M110.8,116.9c-8.3,6.9-19,11.1-30.7,11.1c-26.5,0-48-21.5-48-48s21.5-48,48-48c11.4,0,21.9,4,30.1,10.6l23.3-22.2
		C119.3,7.7,100.6,0,80.1,0C36,0,0.1,35.8,0.1,80c0,44.2,35.8,80,80,80c20.8,0,39.7-7.9,53.9-20.9L110.8,116.9z"/>
</g>
</svg>
