<svg xmlns="http://www.w3.org/2000/svg" xmlns:xlink="http://www.w3.org/1999/xlink" id="Layer_1" x="0" y="0" enable-background="new 0 0 2294 600" version="1.1" viewBox="0 0 2294 600" xml:space="preserve"><style type="text/css">.st0{fill:#33629a}</style><path d="M570.1,598.4c-40-5.8-74.9-22.7-101.6-49.2c-22.3-22.1-36.7-46.3-47.4-79.6c-16.6-51.9-16.6-118.6,0-169.5	c16.1-49.3,52.3-92.2,96.7-114.4c61.4-30.8,147.9-28.9,204.8,4.6c51.2,30.1,82.2,83.7,90.9,156.9c2.6,22.3,0.9,69.5-3.2,89	c-17,79.7-66.5,135.4-138.9,156.4c-7.8,2.3-19.9,4.9-26.9,5.9C629.6,600.5,584.4,600.4,570.1,598.4L570.1,598.4z M629.9,566.3	c11.7-3.5,26.1-17,33.8-31.7c15.9-30.3,22.9-75.2,23.1-146.4c0.2-89.2-13.8-146-43.3-175.7c-12.4-12.5-21.2-16.4-37-16.3	c-35.2,0.1-57.5,36.8-66.3,109.1c-4.1,33.2-4.1,112.4,0,141.5C552.6,536.8,584.9,579.7,629.9,566.3L629.9,566.3z M1278.2,598.3	c-16.4-1.7-66.3-10-83.8-13.9l-12.1-2.7l0.9-64.5c2.3-155.3,2.6-240.1,1.1-322.5c-1.4-80.8-1.9-89.3-5-101.3	c-3.9-15.1-9.6-25.7-16.5-30.6c-2.7-1.9-9.9-4.6-16.1-6c-20.5-4.6-19.4-3.9-20-13.2c-0.3-5.4,0.3-9,1.6-10.1	c1.8-1.5,170.2-33.6,175.6-33.5c1.5,0,1.8,21.6,1,95.7c-0.6,52.6-0.6,95.6-0.2,95.6c0.5,0,6.6-2.7,13.7-5.9	c21.2-9.8,40.8-14.1,69.3-15.1c18.9-0.7,27.7-0.2,37.4,1.8c63.5,13.1,110.5,65.1,126.9,140.4c4.3,19.6,5.9,68.4,3,92.9	c-2.4,20.8-9.3,48.9-16.5,67.1c-27.2,68.7-85.5,113.6-162.8,125.3C1358.2,600.4,1302.2,600.8,1278.2,598.3L1278.2,598.3z M1344.3,565.5c12-2.3,21.3-7,31.3-16c25-22.5,43.9-69,51.3-126.6c3-23.5,2.6-76.9-0.7-96.5c-9-52.9-28.5-87.7-56.8-101.8	c-11.8-5.8-13.6-6.2-27.5-6.2c-10,0-18.6,1.1-25.8,3.2l-10.9,3.2l-0.8,60.3c-1,77.2,1.5,270.4,3.6,276c1.3,3.5,2.8,4.3,9.5,4.8	C1333,567.2,1335.6,567.2,1344.3,565.5L1344.3,565.5z M1752.3,597.5c-81.8-14.8-140.3-72.8-159.4-158.1c-2.5-11-3.5-23.3-4.2-47	c-1-37.6,2.1-60.9,11.8-89.9c18.6-55.6,52-95.1,100.5-118.7c51.2-24.9,121.1-26.6,166.4-3.9c51,25.5,81,76.6,88.6,150.7	c1,10,1.6,21.8,1.3,26.4l-0.5,8.2l-122,0.4l-122,0.4l0.5,14.4c1.1,33.4,8.3,62.9,21.5,88.6c6,11.7,10.8,18,22.5,29.8	c26.4,26.6,52.6,36.9,94,36.9c30,0,51.6-6,74.1-20.6c6.3-4.1,12.7-7.4,14.2-7.4c3.4,0,11.4,10.2,11.4,14.6	c0,7.3-23.7,30.7-46.7,46.3c-18.9,12.8-48.9,24.3-74.9,28.9C1811.2,600.8,1770.3,600.8,1752.3,597.5z M1804,328.8l28.7-1l-1-20.4	c-3.6-71.9-21.2-111.1-49.7-111.1c-31,0-55.8,39.9-66.1,106.3c-1.3,8.2-2.3,17.8-2.3,21.5l0,6.7l30.9-0.5	C1761.4,330,1788.3,329.3,1804,328.8L1804,328.8z M2082,599.1c-29.4-3.1-76.1-13.4-91.7-20.1l-7.6-3.3l-1-37.7	c-0.6-20.7-1.2-48.4-1.5-61.6l-0.4-23.9l4.6-2.2c2.5-1.2,7.6-2.3,11.2-2.5l6.7-0.3l5.7,14c22.2,54.7,48.3,84.2,82.3,93.1	c13,3.4,37.3,3.5,46.9,0.1c26.9-9.5,41.7-29.9,41.8-57.7c0.2-33-18-48.8-86.4-75.6c-42.4-16.6-57.2-25.1-74.8-43.1	c-19-19.5-28.1-41.6-29.8-72.4c-2.1-37.3,9.6-68.7,35.4-95.5c26-26.9,59.8-41.6,105.8-45.7c40.5-3.7,102.7,4.9,135.3,18.7l5.9,2.5	l1.1,33.6c0.6,18.5,1.2,43.2,1.3,55l0.3,21.4l-8,3c-12.6,4.7-13.5,4.1-20.5-14.5c-19.7-52.1-42.5-76.8-78.2-84.3	c-21.7-4.6-39.8,0.3-53,14.4c-10.3,11-14.3,20.8-15.3,37.2c-1.1,17.8,2.1,27.4,13,39.2c13.4,14.6,35.3,27.3,79,45.5	c53.5,22.3,79,41.3,92.9,69c9,18,11.6,32.4,10.7,60.1c-0.7,20.8-1.3,25-6.1,39c-15.4,45.5-50.2,75.4-103.9,89.5	c-18.2,4.8-20.8,5-57,5.4C2105.7,599.6,2085.7,599.5,2082,599.1L2082,599.1z M2.5,589.2c-1.4-0.6-2.1-4.7-2.1-12.3	c0-13.7-0.9-13.1,25.6-18c20.3-3.8,27.5-7.6,36.5-19.3c17.4-22.8,21.1-66.6,21.1-247c0-169.4-3.2-205-21.2-231.2	c-8-11.6-21.4-17.9-43.9-20.6L1.2,38.8L0.8,25.3L0.3,11.7l5.4-1c3-0.5,107.8-0.8,232.9-0.5l227.5,0.5l1.1,6.6	c0.6,3.6,1.5,40.8,2.1,82.7l1.1,76.1l-11.7,3.6c-17.7,5.4-17.5,5.4-25.5-15.6c-19.5-51.6-41.9-81.4-72.5-96.4	c-21.1-10.4-30.9-11.6-90.5-11.6h-51.9l-0.9,8.7c-1.7,16.2-4.3,120.7-4.3,169.8l0,49.1l15.3-0.1c8.4,0,24.9-0.7,36.8-1.4	c17.8-1.1,23.1-2,30.5-5.5c18.3-8.5,30.7-27.1,38.3-57.4l3.9-15.7l13.5-0.5l13.5-0.5v198.1l-13.5-0.5l-13.5-0.5l-3.8-15.7	c-7.2-29.4-21-50.5-38.1-58.1c-7.9-3.5-27.4-5.5-65.1-6.6l-17.7-0.5v37.2c0,40.6,2.2,95.4,5.1,125.2c4,41.5,14.6,64.4,33.6,72.7	c3.6,1.6,15.1,4.2,25.6,5.7c10.4,1.6,20.3,3.5,21.8,4.3c4,2.1,4.3,23.6,0.3,25.1C296.4,590.5,5.5,590.4,2.5,589.2L2.5,589.2z M815.3,588.9c-1.5-1-2-4.8-1.6-12.8l0.5-11.4l5.8-1.2c3.2-0.7,10-2,15.1-3c16-3,25.1-11.6,30.3-28.6c4.2-13.8,6.1-58.1,6.2-146.9	c0.1-108.6-2.1-134.3-13.1-148.8c-6-7.9-10.2-10.1-24.7-12.9c-7.1-1.4-14.6-2.8-16.7-3.3c-3.3-0.7-3.7-1.8-3.7-9.8	c0-7.9,0.5-9.3,3.7-10.6c4.9-2,168.3-34.7,173.5-34.7h4.1l-0.8,24.3c-0.4,13.4-1.1,32.9-1.6,43.3l-0.8,19l5.9-10.7	c18.9-34.2,40.2-55.4,68.4-68.3c15.5-7.1,25.9-9.2,45-9.2c22.7,0,45.4,7.4,45.4,14.8c0,5-40,110.8-42.2,111.6	c-1.1,0.4-8.9-2.6-17.4-6.6c-17.7-8.5-34.3-12.6-50.4-12.6c-20,0-42.4,7.4-51.3,16.9c-3.8,4.1-3.8,4.3-4.7,64.9	c-0.9,60,1.1,133.2,4.4,162.6c2.9,25.1,9.5,37.4,23.3,43.2c4.6,1.9,33.6,5.9,43.1,5.9c0.7,0,1.1,5.8,0.8,12.8l-0.5,12.8l-122,0.4	C872.3,590.1,816.4,589.6,815.3,588.9L815.3,588.9z" class="st0"/></svg>