<?xml version="1.0" encoding="utf-8"?>
<!-- Generator: Adobe Illustrator 21.0.0, SVG Export Plug-In . SVG Version: 6.00 Build 0)  -->
<svg version="1.1" id="Layer_1" xmlns="http://www.w3.org/2000/svg" xmlns:xlink="http://www.w3.org/1999/xlink" x="0px" y="0px"
	 viewBox="0 0 484 160" style="enable-background:new 0 0 484 160;" xml:space="preserve">
<style type="text/css">
	.st0{fill:url(#SVGID_1_);}
	.st1{fill:url(#SVGID_2_);}
	.st2{fill:url(#SVGID_3_);}
	.st3{fill:#36008E;}
	.st4{fill:url(#SVGID_4_);}
	.st5{fill:#5B00EC;}
	.st6{fill:#190044;}
	.st7{fill:url(#SVGID_5_);}
	.st8{fill:url(#SVGID_6_);}
	.st9{fill:url(#SVGID_7_);}
	.st10{fill:url(#SVGID_8_);}
	.st11{fill:url(#SVGID_9_);}
	.st12{fill:url(#SVGID_10_);}
	.st13{fill:url(#SVGID_11_);}
	.st14{fill:url(#SVGID_12_);}
	.st15{fill:url(#SVGID_13_);}
	.st16{fill:url(#SVGID_14_);}
	.st17{fill:url(#SVGID_15_);}
	.st18{fill:url(#SVGID_16_);}
	.st19{fill:url(#SVGID_17_);}
	.st20{fill:url(#SVGID_18_);}
	.st21{fill:url(#SVGID_19_);}
	.st22{fill:url(#SVGID_20_);}
	.st23{fill:url(#SVGID_21_);}
	.st24{fill:url(#SVGID_22_);}
	.st25{fill:url(#SVGID_23_);}
	.st26{fill:url(#SVGID_24_);}
	.st27{fill:url(#SVGID_25_);}
	.st28{fill:url(#SVGID_26_);}
	.st29{fill:url(#SVGID_27_);}
	.st30{fill:#54546F;}
</style>
<title>GB_Yahoo-Finance</title>
<g>
	<g>
		
			<radialGradient id="SVGID_1_" cx="1458.9993" cy="-1277.2417" r="4.6518" gradientTransform="matrix(1 0 0 -1 0 162.78)" gradientUnits="userSpaceOnUse">
			<stop  offset="0" style="stop-color:#FFFFFF"/>
			<stop  offset="9.000000e-02" style="stop-color:#DCDCDC"/>
			<stop  offset="0.28" style="stop-color:#9A9A9A"/>
			<stop  offset="0.47" style="stop-color:#636363"/>
			<stop  offset="0.63" style="stop-color:#383838"/>
			<stop  offset="0.78" style="stop-color:#191919"/>
			<stop  offset="0.91" style="stop-color:#070707"/>
			<stop  offset="1" style="stop-color:#000000"/>
		</radialGradient>
		<path class="st0" d="M466.4,104.4c-0.7,1.7-3.5,2.5-6.2,1.7c-2.7-0.8-4.4-2.8-3.7-4.5c0.7-1.7,3.5-2.5,6.2-1.7
			C465.4,100.7,467.1,102.6,466.4,104.4z"/>
	</g>
	<g>
		
			<radialGradient id="SVGID_2_" cx="882.8939" cy="-370.0915" r="4.6299" gradientTransform="matrix(1.06 0.31 0.27 -0.67 -365.5999 -513.1958)" gradientUnits="userSpaceOnUse">
			<stop  offset="0" style="stop-color:#FFFFFF"/>
			<stop  offset="9.000000e-02" style="stop-color:#DCDCDC"/>
			<stop  offset="0.28" style="stop-color:#9A9A9A"/>
			<stop  offset="0.47" style="stop-color:#636363"/>
			<stop  offset="0.63" style="stop-color:#383838"/>
			<stop  offset="0.78" style="stop-color:#191919"/>
			<stop  offset="0.91" style="stop-color:#070707"/>
			<stop  offset="1" style="stop-color:#000000"/>
		</radialGradient>
		<path class="st1" d="M481.7,7.4c-0.7,1.7-3.5,2.4-6.2,1.7s-4.4-2.8-3.7-4.5s3.5-2.4,6.2-1.6S482.4,5.7,481.7,7.4z"/>
	</g>
	<g>
		
			<radialGradient id="SVGID_3_" cx="407.2076" cy="158.9581" r="10.0461" gradientTransform="matrix(1.01 0 0 -1 66.0159 162.78)" gradientUnits="userSpaceOnUse">
			<stop  offset="0.48" style="stop-color:#FFFFFF"/>
			<stop  offset="0.56" style="stop-color:#C2C2C2"/>
			<stop  offset="0.65" style="stop-color:#888888"/>
			<stop  offset="0.73" style="stop-color:#575757"/>
			<stop  offset="0.81" style="stop-color:#313131"/>
			<stop  offset="0.88" style="stop-color:#161616"/>
			<stop  offset="0.95" style="stop-color:#060606"/>
			<stop  offset="1" style="stop-color:#000000"/>
		</radialGradient>
		<path class="st2" d="M475.7,1.3c-0.5,0-1,0-1.5,0.1c-0.9,0.2-1.7,0.5-2.5,1c-0.7,0.5-1.3,1.2-1.7,2c-0.5,0.9-0.8,1.8-1,2.8
			c-0.2,1-0.2,2,0,3c0.4,1.7,1.6,3.2,3.2,3.9c0.9,0.4,1.9,0.7,2.8,0.9c0.5,0.1,1.1,0.1,1.7,0.1c0.5,0,0.9,0,1.4,0
			c0.9-0.1,1.7-0.5,2.5-0.9c0.7-0.5,1.4-1.2,1.8-1.9c0.5-0.9,0.8-1.8,1-2.8c0.2-1,0.2-2,0-3c-0.2-0.9-0.6-1.7-1.1-2.4
			c-0.6-0.7-1.3-1.3-2.1-1.7c-0.9-0.5-1.9-0.8-2.9-0.9C476.8,1.4,476.2,1.3,475.7,1.3z"/>
	</g>
	<path class="st3" d="M462.1,87.2c0.5,0,1,0,1.6,0.1l0,0c0.9,0.1,1.7,0.4,2.6,0.8c0.2-1.1,0.5-2.8,1-5.1c1.3-7.1,3.7-20.4,7.9-38.2
		c1.6-7,8.1-34.7,8.1-34.7c0,0,0-0.4,0.2-0.7c0.2-1,0.2-2,0-3c-0.2-0.9-0.6-1.7-1.1-2.4c-0.6-0.7-1.3-1.3-2.1-1.7
		c-0.9-0.5-1.8-0.8-2.8-0.9l0,0c-1-0.2-2-0.2-3,0c-0.9,0.2-1.7,0.5-2.5,1c-0.7,0.5-1.4,1.1-1.9,1.9c-0.5,0.9-0.8,1.8-1,2.8v0.4
		c0,0.3-0.1,1-0.1,1.2c-0.9,10.6-2.4,28-2.9,34.7c-1.5,18.2-3.3,31.6-4.3,38.7c-0.3,2.3-0.5,4-0.7,5.1
		C461.4,87.3,461.8,87.2,462.1,87.2z"/>
	<path class="st3" d="M419.8,103.1c5.8-2,11.2-5.1,15.8-9.2c4.9-4.4,8.8-9.9,11.3-16c2.8-6.8,4.2-14.2,4-21.6
		c0.1-7.4-1.2-14.7-4-21.6c-2.6-6.1-6.4-11.6-11.3-16c-5.1-4.5-11-7.9-17.5-10c-14.5-4.6-30.1-4.6-44.6,0c-0.9,0.3-1.7,0.6-2.6,0.9
		c-5.5,2.1-10.5,5.1-14.9,9c-4.9,4.4-8.8,9.9-11.3,16c-2.8,6.8-4.2,14.2-4,21.6c-0.1,7.4,1.2,14.7,4,21.6c2.6,6.1,6.4,11.6,11.4,16
		c5.1,4.5,11,7.8,17.5,9.7c7.2,2.2,14.6,3.3,22.1,3.2c7.6,0.1,15.1-1,22.4-3.2l1.2-0.4L419.8,103.1z M416.5,96.8
		c-1.5,0.8-3,1.5-4.6,2.1c-5.2,1.8-10.6,2.7-16.1,2.7c-5.4,0-10.8-0.9-15.9-2.7c-4.9-1.8-9.3-4.6-12.9-8.3
		c-3.8-4.1-6.7-8.9-8.5-14.2c-2.2-6.5-3.2-13.4-3.1-20.3c-0.1-6.9,0.9-13.8,3.1-20.3c1.8-5.3,4.7-10.1,8.6-14.2
		c2.2-2.2,4.6-4.1,7.3-5.7c1.8-1,3.7-1.9,5.6-2.6c5.1-1.8,10.5-2.7,15.9-2.7c5.5,0,10.9,0.9,16.1,2.7c4.9,1.8,9.3,4.6,12.9,8.3
		c3.9,4,6.8,8.9,8.6,14.2c2.2,6.6,3.2,13.4,3.1,20.3c0.1,6.9-0.9,13.8-3.1,20.3c-1.8,5.3-4.7,10.1-8.6,14.2
		C422.3,93.1,419.5,95.2,416.5,96.8L416.5,96.8z"/>
	<path class="st3" d="M332,75.6c2.4-6.1,3.6-12.7,3.5-19.3c0.1-6.6-1.1-13.1-3.5-19.3c-2.2-5.4-5.5-10.3-9.8-14.3
		c-4.4-4-9.5-7-15.1-8.9c-12.5-4.1-26-4.1-38.6,0c-5.6,1.9-10.7,4.9-15.1,8.9c-4.3,4-7.6,8.9-9.8,14.3c-2.4,6.1-3.6,12.7-3.5,19.3
		c-0.1,6.6,1.1,13.1,3.5,19.3c4.4,11,13.5,19.5,24.9,23c6.2,2,12.7,2.9,19.2,2.9c6.6,0.1,13.1-0.9,19.3-2.9
		C318.4,95.1,327.5,86.6,332,75.6L332,75.6z M318.5,74.3c-1.4,4.6-3.8,8.9-7,12.6c-2.9,3.2-6.5,5.8-10.6,7.4
		c-4.2,1.6-8.6,2.4-13.1,2.4c-4.5,0-8.9-0.8-13.1-2.4c-4-1.6-7.7-4.1-10.6-7.4c-3.2-3.7-5.5-7.9-6.9-12.6c-1.8-5.8-2.6-11.9-2.5-18
		c-0.1-6.1,0.7-12.2,2.5-18c1.4-4.6,3.8-8.9,7-12.6c2.9-3.2,6.5-5.8,10.6-7.4c4.2-1.6,8.6-2.4,13.1-2.4c4.5,0,8.9,0.8,13.1,2.4
		c4,1.6,7.7,4.1,10.6,7.4c3.2,3.7,5.6,7.9,7,12.6c1.8,5.8,2.6,11.9,2.5,18C321.2,62.3,320.3,68.4,318.5,74.3z"/>
	<path class="st3" d="M74.5,23.3l3.5-6c3.4-5.7,6.3-10.4,7.9-12.9c1.2-1.7,1.8-2.8,2.8-4.1L89,0h-0.2c-2.3,0.6-4.7,0.9-7.1,0.9
		c-2.4,0-4.8-0.3-7.1-0.9h-0.2l0,0C69.9,8,58,27.5,50.9,39.2c-3.3,5.5-5.6,9.5-6,10.1h-0.1c-0.3-0.7-2.8-4.7-6.1-10.1
		C31.4,27.6,19.6,8.3,15.2,0l-0.3,0.2C12.6,0.8,10.2,1.1,7.8,1C5.4,1,2.9,0.7,0.6,0H0.5l0,0c1,1.5,1.8,2.8,2.9,4.4
		c1.6,2.5,4.6,7.2,8,12.9l3.5,6c2.2,3.9,4.9,8.3,6.9,11.7c2.9,5,6.3,10.9,9.6,16.8l7.1,12.5v4.4c0,5.8-0.1,12-0.3,17.5
		c0,2.5-0.2,6.9-0.3,11.6c-0.1,5.5-0.2,11.5-0.2,14.4c2.3-0.7,4.8-1,7.2-1c2.4,0,4.9,0.3,7.3,1c-0.2-3-0.3-8.9-0.4-14.6
		c0-4.7-0.2-9.1-0.3-11.6C51.1,80.6,51,74.4,51,68.5v-4.2v-0.2c2.2-3.7,4.4-7.8,7-12.4c3.4-5.8,6.9-12,9.6-16.8
		C69.6,31.5,72.2,27.1,74.5,23.3z"/>
	<path class="st3" d="M235.7,100.5c-0.2-4.8-0.5-10.3-0.7-16.2c-0.2-5.5-0.3-11.1-0.3-16.7V45.4c0-5.6,0-11.2,0.3-16.6
		c0-2,0.2-4.1,0.2-6.2c0.1-3.6,0.3-7.3,0.4-10.9c-2.4,0.7-4.8,1-7.3,1c-2.5,0-4.9-0.3-7.3-0.9l0,0l0.1,2.1
		c0.2,5.1,0.4,10.4,0.6,15.1c0.2,5.4,0.3,10.9,0.3,16.5V53l0,0l-9.8,0.3h-1.5c-4.4,0-8.7,0.1-13.4,0.1c-4.6,0-9.1,0-13.4-0.1h-1.6
		l-9.7-0.2l0,0v-7.7c0-5.6,0-11.2,0.3-16.5c0.2-4.7,0.4-10.1,0.7-15.3v-1.9c-2.4,0.7-4.8,1-7.3,1c-2.5,0-4.9-0.3-7.3-1
		c0.2,3.5,0.3,7.3,0.4,10.9c0,2.2,0.2,4.2,0.2,6.2c0.2,5.4,0.3,10.9,0.3,16.6v22c0,5.6,0,11.2-0.3,16.7c-0.2,6-0.5,11.3-0.7,16.2
		c2.4-0.7,4.9-1,7.4-1c2.5,0,4.9,0.3,7.3,1v-0.2c-0.3-5.3-0.5-10.7-0.7-16.1c-0.2-5.4-0.3-10.9-0.3-16.6v-8.3l11.4-0.2
		c4.4,0,8.7,0,13.3,0c4.6,0,9.1,0,13.3,0l11.2,0.2l0,0v8.4c0,5.6,0,11.2-0.3,16.6c-0.3,5.4-0.5,10.8-0.7,16.1v0.3
		C225.8,99.2,230.8,99.2,235.7,100.5L235.7,100.5z"/>
	<path class="st3" d="M92.5,74.5L92.5,74.5l1.9-0.2h5c2.9,0,8.4,0,11.2,0h0.2c2.8,0,8.3,0,11.2,0l5,0.1h1.8l0,0
		c1.9,4.9,3.8,9.3,5.4,13.4c2.6,6.6,4.4,11.2,5,12.6c4.8-1.3,9.8-1.3,14.5,0l-1.3-2.6c-9.5-18.2-29.5-68-35.7-84l-0.8-2l0,0
		c-1.6,0.6-3.3,0.9-5.1,0.9c-1.6,0-3.2-0.2-4.7-0.8l-0.4-0.2c-0.2,0.4-0.4,1-0.6,1.6C98.1,31,95.5,37.1,93.9,41.2
		c-6.9,17.2-17.5,42-24.8,56.6c-0.4,0.8-1.1,2.1-1.4,2.6c2.4-0.7,4.8-1,7.3-1c2.4,0,4.7,0.3,7,0.9h0.2c0.5-1.3,2.4-6,4.9-12.4
		C88.7,84,90.6,79.4,92.5,74.5z M94.9,68.2c9.8-24.9,15-38.5,15.8-41.5v-0.1v0.1c0.8,3.1,5.9,16.7,15.8,41.5l0,0
		c-2.9,0.1-12.9,0.4-15.8,0.4C107.8,68.6,97.8,68.4,94.9,68.2L94.9,68.2z"/>
	
		<linearGradient id="SVGID_4_" gradientUnits="userSpaceOnUse" x1="29.2638" y1="75.7174" x2="61.4987" y2="75.7174" gradientTransform="matrix(1 0 0 -1 0 162.78)">
		<stop  offset="1.000000e-02" style="stop-color:#5B00EC"/>
		<stop  offset="2.000000e-02" style="stop-color:#5900E6"/>
		<stop  offset="8.000000e-02" style="stop-color:#5300D5"/>
		<stop  offset="0.15" style="stop-color:#4E00CA"/>
		<stop  offset="0.25" style="stop-color:#4C00C3"/>
		<stop  offset="0.51" style="stop-color:#4B00C1"/>
		<stop  offset="0.65" style="stop-color:#4A00BC"/>
		<stop  offset="0.8" style="stop-color:#4700AE"/>
		<stop  offset="0.96" style="stop-color:#420098"/>
		<stop  offset="1" style="stop-color:#400090"/>
	</linearGradient>
	<path class="st4" d="M51,64.3L44.7,62v44.8c2.5,1.7,5,3.5,7.3,5.4l0,0c-0.3-5.4-0.5-20.7-0.7-26.2C51.1,80.4,51,74.3,51,68.5v-4.4"
		/>
	<path class="st5" d="M126.5,68.2L126.5,68.2c-2.8,0.1-12.9,0.4-15.8,0.4s-13.1-0.3-15.8-0.4l0,0l-7.2,3.1c7.4-0.4,38.2-0.4,46.1,0
		L126.5,68.2z"/>
	<path class="st6" d="M87.7,71.4l4.9,3.1c2.2,0,4.7-0.2,6.9-0.2c2.9,0,8.3,0,11.2,0h0.2c2.8,0,8.3,0,11.2,0c2.2,0,4.7,0.1,6.9,0.2
		l5-3C125.9,71,95.2,71,87.7,71.4z"/>
	<path class="st6" d="M166.5,55.8l6.3,3.3l0,0l11.3-0.2h13.3h13.3l11.2,0.2l0,0l6.4-3.3C215,56.1,179.6,56,166.5,55.8z"/>
	<path class="st5" d="M228.4,55.8l-6.4-2.8l0,0l-11.2,0.2c-4.4,0.1-8.8,0.1-13.4,0.1s-9,0-13.4-0.1l-11.3-0.2l0,0l-6.3,2.8
		C179.6,56,215,56.1,228.4,55.8z"/>
	
		<linearGradient id="SVGID_5_" gradientUnits="userSpaceOnUse" x1="436.2245" y1="151.8112" x2="383.2641" y2="92.2771" gradientTransform="matrix(1 0 0 -1 0 162.78)">
		<stop  offset="0" style="stop-color:#5B00EC"/>
		<stop  offset="2.000000e-02" style="stop-color:#5A00E8"/>
		<stop  offset="0.14" style="stop-color:#5200D3"/>
		<stop  offset="0.27" style="stop-color:#4D00C5"/>
		<stop  offset="0.38" style="stop-color:#4B00C1"/>
		<stop  offset="0.65" style="stop-color:#400090"/>
		<stop  offset="1" style="stop-color:#100040"/>
	</linearGradient>
	<path class="st7" d="M446.9,34.8c-2.6-6.1-6.4-11.6-11.3-16c-5.1-4.5-11-7.9-17.5-10c-14.5-4.6-30.1-4.6-44.6,0
		c-0.9,0.3-1.7,0.6-2.6,0.9c-5.5,2.1-10.5,5.2-14.9,9c-4.9,4.4-8.8,9.9-11.3,16c-2.8,6.8-4.2,14.2-4,21.6c-0.1,7.4,1.2,14.7,4,21.6
		c2.6,6.1,6.4,11.6,11.4,16c5.1,4.5,11,7.8,17.5,9.7c7.2,2.2,14.7,3.3,22.2,3.2c7.6,0.1,15.1-1,22.4-3.2l1.6-0.5
		c5.9-2,11.3-5.1,15.9-9.2c4.9-4.4,8.8-9.9,11.3-16c2.8-6.8,4.2-14.2,4-21.6C451.1,49,449.7,41.6,446.9,34.8z M440.1,77.9
		c-2.2,5.7-5.7,10.8-10.2,14.9c-2.9,2.7-6.2,4.9-9.8,6.6c-1.8,0.9-3.6,1.6-5.5,2.2c-6.1,1.9-12.6,2.9-19,2.8
		c-6.4,0-12.7-0.9-18.8-2.8c-5.7-1.8-10.9-4.8-15.3-8.7c-4.5-4.1-8-9.2-10.2-14.9c-2.6-6.8-3.8-14.1-3.7-21.4
		c-0.2-7.3,1.1-14.6,3.6-21.4c2.2-5.7,5.7-10.8,10.2-14.9c2.6-2.4,5.5-4.4,8.6-6c2.1-1.1,4.3-2,6.6-2.8c12.3-3.8,25.5-3.8,37.8,0
		c5.7,1.8,10.9,4.8,15.3,8.7c4.5,4.1,8,9.2,10.2,14.9c2.6,6.8,3.9,14.1,3.8,21.4C444,63.8,442.7,71.1,440.1,77.9z"/>
	
		<linearGradient id="SVGID_6_" gradientUnits="userSpaceOnUse" x1="430.0382" y1="142.055" x2="369.2812" y2="78.5462" gradientTransform="matrix(1 0 0 -1 0 162.78)">
		<stop  offset="0" style="stop-color:#100040"/>
		<stop  offset="0.5" style="stop-color:#400090"/>
		<stop  offset="0.74" style="stop-color:#4B00C1"/>
		<stop  offset="0.83" style="stop-color:#4C00C4"/>
		<stop  offset="0.9" style="stop-color:#5000CE"/>
		<stop  offset="0.96" style="stop-color:#5600DE"/>
		<stop  offset="0.99" style="stop-color:#5B00EC"/>
	</linearGradient>
	<path class="st8" d="M440.1,35.1c-2.2-5.7-5.7-10.8-10.2-14.9c-4.4-4-9.6-7-15.3-8.7c-12.3-3.8-25.5-3.8-37.8,0
		c-2.3,0.7-4.4,1.7-6.6,2.8c-3.1,1.6-6,3.6-8.6,6c-4.5,4.1-8,9.2-10.2,14.9c-2.6,6.8-3.9,14.1-3.8,21.4c-0.2,7.3,1.1,14.6,3.6,21.4
		c2.2,5.7,5.7,10.8,10.2,14.9c4.4,4,9.6,7,15.3,8.7c6.1,1.9,12.4,2.9,18.8,2.8c6.4,0.1,12.9-0.9,19-2.8c1.9-0.6,3.7-1.3,5.5-2.2
		c3.6-1.7,6.9-3.9,9.8-6.6c4.5-4.1,8-9.2,10.2-14.9c2.6-6.8,3.9-14.1,3.8-21.4C444,49.2,442.7,42,440.1,35.1z M433.3,76.4
		c-1.8,5.3-4.7,10.1-8.6,14.2c-3.6,3.7-8,6.5-12.9,8.3c-10.3,3.6-21.6,3.6-31.9,0c-4.9-1.7-9.3-4.6-12.9-8.3
		c-3.9-4-6.8-8.9-8.6-14.2c-2.2-6.5-3.2-13.4-3.1-20.3c-0.1-6.9,0.9-13.8,3.1-20.3c1.8-5.3,4.7-10.1,8.6-14.2
		c2.2-2.2,4.6-4.1,7.3-5.7c1.8-1,3.7-1.9,5.6-2.6c10.3-3.6,21.6-3.6,31.9,0c4.9,1.8,9.3,4.6,12.9,8.3c3.8,4,6.8,8.9,8.6,14.2
		c2.2,6.5,3.2,13.4,3.1,20.3C436.5,63,435.5,69.9,433.3,76.4z"/>
	
		<linearGradient id="SVGID_7_" gradientUnits="userSpaceOnUse" x1="316.4884" y1="139.8445" x2="265.2314" y2="80.4633" gradientTransform="matrix(1 0 0 -1 0 162.78)">
		<stop  offset="0" style="stop-color:#100040"/>
		<stop  offset="0.5" style="stop-color:#400090"/>
		<stop  offset="0.74" style="stop-color:#4B00C1"/>
		<stop  offset="0.88" style="stop-color:#4C00C3"/>
		<stop  offset="0.93" style="stop-color:#4E00CA"/>
		<stop  offset="0.96" style="stop-color:#5300D5"/>
		<stop  offset="0.99" style="stop-color:#5900E6"/>
		<stop  offset="1" style="stop-color:#5B00EC"/>
	</linearGradient>
	<path class="st9" d="M317.2,23.9c-3.8-3.5-8.2-6.2-13.1-7.8c-10.6-3.4-22-3.4-32.6,0c-10.1,3.3-18.2,11.1-21.8,21.1
		c-2.2,6.1-3.3,12.6-3.1,19.1c-0.1,6.5,0.9,13,3.1,19.1c3.6,10,11.7,17.8,21.8,21.1c10.6,3.4,22,3.4,32.6,0
		c10.1-3.3,18.2-11.1,21.8-21.1c2.2-6.1,3.3-12.6,3.1-19.1c0.2-6.5-0.9-13-3.1-19.1C324,32.1,321,27.6,317.2,23.9z M318.4,74.3
		c-1.4,4.6-3.8,8.9-7,12.6c-2.9,3.2-6.5,5.7-10.5,7.3c-4.2,1.6-8.6,2.4-13.1,2.4c-4.5,0-8.9-0.8-13.1-2.4c-4-1.6-7.7-4.1-10.5-7.3
		c-3.2-3.7-5.5-7.9-6.9-12.6c-1.8-5.8-2.6-11.9-2.5-18c-0.1-6.1,0.7-12.2,2.5-18c1.4-4.6,3.8-8.9,7-12.6c2.9-3.2,6.5-5.7,10.5-7.3
		c4.2-1.6,8.6-2.4,13.1-2.4c4.5,0,8.9,0.8,13.1,2.4c4,1.6,7.7,4.1,10.5,7.3c3.2,3.7,5.6,7.9,7,12.6c1.8,5.8,2.6,11.9,2.5,18
		C321.1,62.3,320.2,68.4,318.4,74.3z"/>
	
		<linearGradient id="SVGID_8_" gradientUnits="userSpaceOnUse" x1="319.3077" y1="146.6272" x2="277.7693" y2="93.7322" gradientTransform="matrix(1 0 0 -1 0 162.78)">
		<stop  offset="0" style="stop-color:#5B00EC"/>
		<stop  offset="2.000000e-02" style="stop-color:#5A00E9"/>
		<stop  offset="0.12" style="stop-color:#5200D3"/>
		<stop  offset="0.22" style="stop-color:#4D00C5"/>
		<stop  offset="0.3" style="stop-color:#4B00C1"/>
		<stop  offset="0.6" style="stop-color:#400090"/>
		<stop  offset="1" style="stop-color:#100040"/>
	</linearGradient>
	<path class="st10" d="M332,37c-2.2-5.4-5.5-10.3-9.8-14.3c-4.4-4-9.5-7-15.1-8.9c-12.5-4.1-26-4.1-38.6,0
		c-5.6,1.9-10.7,4.9-15.1,8.9c-4.3,4-7.6,8.9-9.8,14.3c-2.4,6.1-3.6,12.7-3.5,19.3c-0.1,6.6,1.1,13.2,3.5,19.3
		c4.4,11.1,13.5,19.5,24.9,23.1c6.2,2,12.7,2.9,19.2,2.9c6.6,0.1,13.1-0.9,19.3-2.9c11.4-3.5,20.5-12,24.9-23.1
		c2.4-6.1,3.6-12.7,3.5-19.3C335.6,49.7,334.4,43.1,332,37z M325.9,75.4c-3.6,10-11.7,17.8-21.8,21.1c-10.6,3.4-22,3.4-32.6,0
		c-10.1-3.3-18.2-11.1-21.8-21.1c-2.2-6.1-3.3-12.6-3.1-19.1c-0.2-6.5,0.7-13,2.9-19.2c3.6-10,11.7-17.8,21.8-21.1
		c10.6-3.4,22-3.4,32.6,0c10.2,3.2,18.4,11,22.1,21.1c2.2,6.1,3.3,12.6,3.1,19.1C329.2,62.7,328.1,69.2,325.9,75.4z"/>
	<path class="st5" d="M89,0c-2.2,1.9-9.7,3.3-9.7,3.3c-1.8-1-3.5-2.1-5-3.3c2.4,0.7,4.9,1,7.4,1C84.1,1,86.6,0.7,89,0z"/>
	
		<linearGradient id="SVGID_9_" gradientUnits="userSpaceOnUse" x1="75.5632" y1="126.8104" x2="63.0055" y2="133.9955" gradientTransform="matrix(1 0 0 -1 0 162.78)">
		<stop  offset="0" style="stop-color:#36008E"/>
		<stop  offset="0.12" style="stop-color:#2D007B"/>
		<stop  offset="0.33" style="stop-color:#200061"/>
		<stop  offset="0.54" style="stop-color:#17004F"/>
		<stop  offset="0.76" style="stop-color:#120044"/>
		<stop  offset="1" style="stop-color:#100040"/>
	</linearGradient>
	<path class="st11" d="M89,0c-2,1.7-9,3.2-9.7,3.3L44.7,62l6.2,2.3L58,51.8c3.2-5.5,6.6-11.3,9.6-16.8S75.3,22,78.1,17.4
		c3.5-6,6.6-10.6,7.9-12.9C87.2,2.7,88.1,1.5,89,0z"/>
	
		<linearGradient id="SVGID_10_" gradientUnits="userSpaceOnUse" x1="41.068" y1="50.6349" x2="41.068" y2="100.7999" gradientTransform="matrix(1 0 0 -1 0 162.78)">
		<stop  offset="0" style="stop-color:#36008E"/>
		<stop  offset="0.23" style="stop-color:#2C0075"/>
		<stop  offset="0.53" style="stop-color:#22005A"/>
		<stop  offset="0.8" style="stop-color:#1B004A"/>
		<stop  offset="1" style="stop-color:#190044"/>
	</linearGradient>
	<path class="st12" d="M44.7,106.8L44.7,106.8V62l-6.2,2.3v4.2c0,5.7-0.1,11.9-0.3,17.5c-0.2,5.6-0.5,20.8-0.7,26.2l0,0
		C39.8,110.3,42.2,108.4,44.7,106.8z"/>
	<path class="st6" d="M52,112.1c-2.3-1.9-4.8-3.7-7.3-5.4c-2.5,1.7-4.9,3.5-7.3,5.4C42.2,110.8,47.2,110.8,52,112.1L52,112.1z"/>
	<path class="st5" d="M115.9,11.7L115.9,11.7c-1.6,0.6-3.3,0.9-5.1,0.9c-1.6,0-3.2-0.3-4.7-0.8l-0.4-0.2l5.2,3.2L115.9,11.7z"/>
	
		<linearGradient id="SVGID_11_" gradientUnits="userSpaceOnUse" x1="117.1903" y1="102.0633" x2="128.5468" y2="106.4967" gradientTransform="matrix(1 0 0 -1 0 162.78)">
		<stop  offset="0" style="stop-color:#36008E"/>
		<stop  offset="0.23" style="stop-color:#2C0075"/>
		<stop  offset="0.53" style="stop-color:#22005A"/>
		<stop  offset="0.8" style="stop-color:#1B004A"/>
		<stop  offset="1" style="stop-color:#190044"/>
	</linearGradient>
	<path class="st13" d="M133.8,71.4l-7.3-3.1c-7.2-18-14.8-37.7-15.8-41.6V14.9L133.8,71.4z M143.6,96.4l0.1-0.2l0,0l0,0l0,0
		l-9.9-24.9l-5,3c5.1,12.9,9.5,23.8,10.3,26l0,0C140.9,99.3,142.4,98,143.6,96.4z"/>
	
		<linearGradient id="SVGID_12_" gradientUnits="userSpaceOnUse" x1="109.976" y1="96.2698" x2="88.3113" y2="110.4654" gradientTransform="matrix(1 0 0 -1 0 162.78)">
		<stop  offset="0" style="stop-color:#100040"/>
		<stop  offset="0.3" style="stop-color:#190053"/>
		<stop  offset="0.9" style="stop-color:#320085"/>
		<stop  offset="1" style="stop-color:#36008E"/>
	</linearGradient>
	<path class="st14" d="M110.7,14.9v11.8c-1,3.8-8.7,23.5-15.8,41.5l-7.2,3.1L110.7,14.9z M82.2,100.5c0.8-2.2,5.2-13.1,10.3-26
		l-4.9-3.1L77.6,96.1l0,0C78.9,97.8,80.5,99.2,82.2,100.5z"/>
	
		<linearGradient id="SVGID_13_" gradientUnits="userSpaceOnUse" x1="128.4199" y1="104.5401" x2="145.1488" y2="110.0873" gradientTransform="matrix(1 0 0 -1 0 162.78)">
		<stop  offset="0" style="stop-color:#4B00C1"/>
		<stop  offset="0.27" style="stop-color:#4A00BC"/>
		<stop  offset="0.58" style="stop-color:#4700AE"/>
		<stop  offset="0.91" style="stop-color:#420098"/>
		<stop  offset="1" style="stop-color:#400090"/>
	</linearGradient>
	<path class="st15" d="M152.5,97.8c-9.6-18.4-29.9-69.1-35.8-84c-0.3-0.8-0.6-1.5-0.8-2.1l-5.1,3.1l33.2,81.2c0.2,0,8,3.4,9.9,4.4
		l0,0L152.5,97.8z"/>
	<path class="st6" d="M153.8,100.5c-1.9-0.9-9.9-4.4-9.9-4.4c-1.4,1.7-2.9,3.1-4.7,4.4C144,99.1,149,99.1,153.8,100.5L153.8,100.5z"
		/>
	
		<linearGradient id="SVGID_14_" gradientUnits="userSpaceOnUse" x1="79.5342" y1="109.6796" x2="95.2367" y2="103.0186" gradientTransform="matrix(1 0 0 -1 0 162.78)">
		<stop  offset="0.25" style="stop-color:#400090"/>
		<stop  offset="0.53" style="stop-color:#4600A9"/>
		<stop  offset="0.8" style="stop-color:#4A00BB"/>
		<stop  offset="1" style="stop-color:#4B00C1"/>
	</linearGradient>
	<path class="st16" d="M77.6,96.1L77.6,96.1l33.2-81.2l-5.2-3.2l0,0l-0.8,2.1c-5.9,14.9-26.2,65.5-35.8,84l-1.4,2.7
		C69.6,99.5,77.6,96.1,77.6,96.1z"/>
	<path class="st6" d="M67.6,100.5c1.9-0.9,10-4.4,10-4.4c1.3,1.7,2.9,3.2,4.6,4.4c-2.4-0.7-4.8-1-7.3-1
		C72.5,99.5,70,99.8,67.6,100.5z"/>
	
		<linearGradient id="SVGID_15_" gradientUnits="userSpaceOnUse" x1="220.7516" y1="106.6621" x2="228.8977" y2="106.7058" gradientTransform="matrix(1 0 0 -1 0 162.78)">
		<stop  offset="0" style="stop-color:#36008E"/>
		<stop  offset="0.22" style="stop-color:#310083"/>
		<stop  offset="0.6" style="stop-color:#220066"/>
		<stop  offset="1" style="stop-color:#100040"/>
	</linearGradient>
	<path class="st17" d="M221.1,100.5c0.3-5.4,0.5-11.1,0.7-16.4c0.2-5.3,0.3-10.9,0.3-16.6v-8.3l6.4-3.3v40.3L221.1,100.5z
		 M221.1,11.8L221.1,11.8L221.1,11.8c0.3,5.9,0.5,11.9,0.7,17.1s0.3,10.9,0.3,16.5V53l6.4,2.8V15.9L221.1,11.8z"/>
	<path class="st5" d="M228.3,12.7c2.5,0,5-0.3,7.3-1l-7.3,4.2l-7.4-4.2C223.4,12.4,225.9,12.7,228.3,12.7z"/>
	<path class="st5" d="M166.5,12.7c-2.5,0-5-0.3-7.4-1l7.4,4.2l7.4-4.2C171.5,12.4,169,12.7,166.5,12.7z"/>
	
		<linearGradient id="SVGID_16_" gradientUnits="userSpaceOnUse" x1="157.0459" y1="106.7075" x2="167.638" y2="106.7075" gradientTransform="matrix(1 0 0 -1 0 162.78)">
		<stop  offset="0" style="stop-color:#36008E"/>
		<stop  offset="0.22" style="stop-color:#310083"/>
		<stop  offset="0.6" style="stop-color:#220066"/>
		<stop  offset="1" style="stop-color:#100040"/>
	</linearGradient>
	<path class="st18" d="M160.1,45.4v22.1c0,5.6-0.1,11.2-0.3,16.7c-0.2,5.5-0.5,10.9-0.7,16.3l7.3-4.2l0,0V15.9l-7.3-4.2
		c0.3,5.6,0.4,11.7,0.7,17.1C160.1,34.2,160.1,39.8,160.1,45.4z"/>
	
		<linearGradient id="SVGID_17_" gradientUnits="userSpaceOnUse" x1="165.3012" y1="106.7293" x2="175.0415" y2="106.7293" gradientTransform="matrix(1 0 0 -1 0 162.78)">
		<stop  offset="1.000000e-02" style="stop-color:#5B00EC"/>
		<stop  offset="2.000000e-02" style="stop-color:#5900E6"/>
		<stop  offset="8.000000e-02" style="stop-color:#5300D5"/>
		<stop  offset="0.15" style="stop-color:#4E00CA"/>
		<stop  offset="0.25" style="stop-color:#4C00C3"/>
		<stop  offset="0.51" style="stop-color:#4B00C1"/>
		<stop  offset="0.65" style="stop-color:#4A00BC"/>
		<stop  offset="0.8" style="stop-color:#4700AE"/>
		<stop  offset="0.96" style="stop-color:#420098"/>
		<stop  offset="1" style="stop-color:#400090"/>
	</linearGradient>
	<path class="st19" d="M173.9,11.7c-0.3,5.9-0.5,12-0.8,17.2s-0.3,10.9-0.3,16.5v7.6l-6.4,2.8V15.9L173.9,11.7z M173.9,100.4
		c-0.3-5.4-0.5-11.1-0.7-16.4c-0.2-5.3-0.3-10.9-0.3-16.6v-8.3l-6.4-3.3v40.4l0,0L173.9,100.4z"/>
	<path class="st6" d="M166.5,99.4c-2.5,0-5,0.3-7.4,1l7.4-4.2l7.4,4.3C171.4,99.8,169,99.4,166.5,99.4z"/>
	<path class="st6" d="M228.4,99.4c2.5,0,4.9,0.3,7.3,1l-7.3-4.2l-7.4,4.3C223.4,99.8,225.9,99.4,228.4,99.4z"/>
	
		<linearGradient id="SVGID_18_" gradientUnits="userSpaceOnUse" x1="218.1524" y1="106.6965" x2="241.6952" y2="106.6965" gradientTransform="matrix(1 0 0 -1 0 162.78)">
		<stop  offset="1.000000e-02" style="stop-color:#5B00EC"/>
		<stop  offset="2.000000e-02" style="stop-color:#5900E6"/>
		<stop  offset="8.000000e-02" style="stop-color:#5300D5"/>
		<stop  offset="0.15" style="stop-color:#4E00CA"/>
		<stop  offset="0.25" style="stop-color:#4C00C3"/>
		<stop  offset="0.51" style="stop-color:#4B00C1"/>
		<stop  offset="0.65" style="stop-color:#4A00BC"/>
		<stop  offset="0.8" style="stop-color:#4700AE"/>
		<stop  offset="0.96" style="stop-color:#420098"/>
		<stop  offset="1" style="stop-color:#400090"/>
	</linearGradient>
	<path class="st20" d="M235.7,100.5c-0.3-5.3-0.5-10.8-0.7-16.3s-0.3-10.9-0.3-16.7V45.4c0-5.6,0.1-11.2,0.3-16.6
		c0.2-5.4,0.4-11.5,0.7-17.1l-7.3,4.2l0,0v80.3l0,0L235.7,100.5z"/>
	
		<linearGradient id="SVGID_19_" gradientUnits="userSpaceOnUse" x1="16.5975" y1="128.4425" x2="27.6046" y2="134.6667" gradientTransform="matrix(1 0 0 -1 0 162.78)">
		<stop  offset="0" style="stop-color:#36008E"/>
		<stop  offset="0.23" style="stop-color:#2C0075"/>
		<stop  offset="0.53" style="stop-color:#22005A"/>
		<stop  offset="0.8" style="stop-color:#1B004A"/>
		<stop  offset="1" style="stop-color:#190044"/>
	</linearGradient>
	<path class="st21" d="M10.1,3.3c0,0-7.5-1.5-9.7-3.3c0.9,1.5,1.7,2.7,2.9,4.4c1.5,2.2,4.4,6.8,7.9,12.9c2.8,4.7,7.3,12.3,10.4,17.7
		s6.6,11.2,9.6,16.8c4,7,6.3,11.2,7.1,12.5l6.2-2.3L10.1,3.3z"/>
	<path class="st5" d="M0.5,0c2.2,1.9,9.7,3.3,9.7,3.3c1.8-1,3.5-2.1,5.1-3.3c-2.4,0.7-4.9,1-7.4,1C5.3,1,2.9,0.7,0.5,0z"/>
	<path class="st6" d="M466.3,88.2l-2.2-3.9l-3.2,3c0.9-0.1,1.8-0.1,2.7,0l0,0C464.6,87.5,465.4,87.8,466.3,88.2L466.3,88.2z"/>
	
		<linearGradient id="SVGID_20_" gradientUnits="userSpaceOnUse" x1="480.2703" y1="156.2542" x2="463.4977" y2="76.6498" gradientTransform="matrix(1 0 0 -1 0 162.78)">
		<stop  offset="4.000000e-02" style="stop-color:#4B00C1"/>
		<stop  offset="8.000000e-02" style="stop-color:#4B00C1"/>
		<stop  offset="0.34" style="stop-color:#400090"/>
		<stop  offset="0.4" style="stop-color:#3C0089"/>
		<stop  offset="0.77" style="stop-color:#230057"/>
		<stop  offset="0.96" style="stop-color:#190044"/>
	</linearGradient>
	<path class="st22" d="M483.3,6.4c-0.2-0.9-0.6-1.7-1.1-2.4c-0.6-0.7-1.3-1.3-2.1-1.7c-0.8-0.4-1.6-0.7-2.5-0.9l-13.5,82.9l2.2,3.9
		c0.9-4.4,3.3-19.7,8.9-43.3c1.6-6.6,8.1-34.6,8.1-34.7s0-0.4,0.2-0.8C483.6,8.4,483.6,7.4,483.3,6.4z"/>
	
		<linearGradient id="SVGID_21_" gradientUnits="userSpaceOnUse" x1="476.0081" y1="157.07" x2="460.0435" y2="89.5645" gradientTransform="matrix(1 0 0 -1 0 162.78)">
		<stop  offset="0" style="stop-color:#4B00C1"/>
		<stop  offset="0.27" style="stop-color:#4A00BC"/>
		<stop  offset="0.58" style="stop-color:#4700AE"/>
		<stop  offset="0.91" style="stop-color:#420098"/>
		<stop  offset="1" style="stop-color:#400090"/>
	</linearGradient>
	<path class="st23" d="M464.1,84.3L464.1,84.3l13.5-82.9h-0.3l0,0c-1-0.2-2-0.2-3,0c-0.9,0.2-1.7,0.5-2.5,1
		c-0.7,0.5-1.3,1.2-1.8,1.9c-0.5,0.9-0.8,1.8-1,2.8v0.4c0,0.3-0.1,1-0.1,1.2c-0.9,10.7-2.4,27.9-2.9,34.7
		c-2.1,24.2-4.7,39.5-5.1,43.9l0,0L464.1,84.3z"/>
	<g>
		
			<radialGradient id="SVGID_22_" cx="407.2076" cy="158.9581" r="10.0461" gradientTransform="matrix(1.01 0 0 -1 66.0159 162.78)" gradientUnits="userSpaceOnUse">
			<stop  offset="0.48" style="stop-color:#4B00C1"/>
			<stop  offset="0.49" style="stop-color:#4A00BF"/>
			<stop  offset="0.69" style="stop-color:#3F00A4"/>
			<stop  offset="0.86" style="stop-color:#380094"/>
			<stop  offset="1" style="stop-color:#36008E"/>
		</radialGradient>
		<path class="st24" d="M475.7,1.3c-0.5,0-1,0-1.5,0.1c-0.9,0.2-1.7,0.5-2.5,1c-0.7,0.5-1.3,1.2-1.7,2c-0.5,0.9-0.8,1.8-1,2.8
			c-0.2,1-0.2,2,0,3c0.4,1.7,1.6,3.2,3.2,3.9c0.9,0.4,1.9,0.7,2.8,0.9c0.5,0.1,1.1,0.1,1.7,0.1c0.5,0,0.9,0,1.4,0
			c0.9-0.1,1.7-0.5,2.5-0.9c0.7-0.5,1.4-1.2,1.8-1.9c0.5-0.9,0.8-1.8,1-2.8c0.2-1,0.2-2,0-3c-0.2-0.9-0.6-1.7-1.1-2.4
			c-0.6-0.7-1.3-1.3-2.1-1.7c-0.9-0.5-1.9-0.8-2.9-0.9C476.8,1.4,476.2,1.3,475.7,1.3z"/>
	</g>
	<g>
		
			<radialGradient id="SVGID_23_" cx="882.8939" cy="-370.0915" r="4.6299" gradientTransform="matrix(1.06 0.31 0.27 -0.67 -365.5999 -513.1958)" gradientUnits="userSpaceOnUse">
			<stop  offset="0" style="stop-color:#5B00EC"/>
			<stop  offset="1" style="stop-color:#5B00EC"/>
		</radialGradient>
		<path class="st25" d="M481.7,7.4c-0.7,1.7-3.5,2.4-6.2,1.7s-4.4-2.8-3.7-4.5s3.5-2.4,6.2-1.6S482.4,5.7,481.7,7.4z"/>
	</g>
	
		<radialGradient id="SVGID_24_" cx="461.9233" cy="62.0132" r="10.1771" gradientTransform="matrix(1 0 0 -1 0 162.78)" gradientUnits="userSpaceOnUse">
		<stop  offset="0.48" style="stop-color:#4B00C1"/>
		<stop  offset="0.58" style="stop-color:#3C009B"/>
		<stop  offset="0.71" style="stop-color:#2D0075"/>
		<stop  offset="0.82" style="stop-color:#22005A"/>
		<stop  offset="0.92" style="stop-color:#1B004A"/>
		<stop  offset="1" style="stop-color:#190044"/>
	</radialGradient>
	<path class="st26" d="M460.4,98.3c-0.5,0-1,0-1.5,0.1c-0.9,0.1-1.8,0.5-2.5,1c-0.7,0.5-1.4,1.2-1.8,1.9c-0.5,0.9-0.9,1.8-1,2.8
		c-0.2,1-0.2,2,0,3c0.5,1.8,1.7,3.2,3.3,4c0.9,0.4,1.9,0.8,2.9,0.9c0.5,0.1,1.1,0.1,1.7,0.1c0.5,0,0.9,0,1.4,0
		c1.8-0.2,3.4-1.3,4.4-2.9c1-1.8,1.3-3.9,0.9-5.9c-0.2-0.9-0.6-1.7-1.1-2.4c-0.6-0.7-1.3-1.3-2.2-1.7c-0.9-0.5-1.9-0.8-2.9-0.9
		C461.4,98.3,460.9,98.3,460.4,98.3z"/>
	<g>
		
			<radialGradient id="SVGID_25_" cx="1458.9993" cy="-1277.2417" r="4.6518" gradientTransform="matrix(1 0 0 -1 0 162.78)" gradientUnits="userSpaceOnUse">
			<stop  offset="0" style="stop-color:#5B00EC"/>
			<stop  offset="1" style="stop-color:#5B00EC"/>
		</radialGradient>
		<path class="st27" d="M466.4,104.4c-0.7,1.7-3.5,2.5-6.2,1.7c-2.7-0.8-4.4-2.8-3.7-4.5c0.7-1.7,3.5-2.5,6.2-1.7
			C465.4,100.7,467.1,102.6,466.4,104.4z"/>
	</g>
	
		<linearGradient id="SVGID_26_" gradientUnits="userSpaceOnUse" x1="56.1037" y1="138.4942" x2="68.4211" y2="121.0664" gradientTransform="matrix(1 0 0 -1 0 162.78)">
		<stop  offset="0" style="stop-color:#4B00C1"/>
		<stop  offset="0.14" style="stop-color:#4A00BB"/>
		<stop  offset="0.34" style="stop-color:#4600A9"/>
		<stop  offset="0.53" style="stop-color:#400090"/>
	</linearGradient>
	<path class="st28" d="M74.3,0c-6.6,11.7-28.4,47.3-29.5,49.4V62L79.3,3.3C77.6,2.4,75.9,1.2,74.3,0z"/>
	
		<linearGradient id="SVGID_27_" gradientUnits="userSpaceOnUse" x1="37.7964" y1="136.6271" x2="25.9377" y2="129.3109" gradientTransform="matrix(1 0 0 -1 0 162.78)">
		<stop  offset="0" style="stop-color:#400090"/>
		<stop  offset="0.19" style="stop-color:#4400A4"/>
		<stop  offset="0.42" style="stop-color:#4800B4"/>
		<stop  offset="0.67" style="stop-color:#4A00BE"/>
		<stop  offset="1" style="stop-color:#4B00C1"/>
	</linearGradient>
	<path class="st29" d="M15.2,0c6.6,11.7,28.4,47.3,29.5,49.3V62L10.1,3.3C11.9,2.4,13.6,1.2,15.2,0z"/>
	<path class="st30" d="M144.2,139.6c0-5.4,0-9-0.4-13.3c2.8,0,5.7,0.2,8.5,0.2c4.7,0,8.7,0,10-0.2c-0.1,0.7-0.2,1.3-0.2,2
		c0,0.7,0.1,1.5,0.2,2.2c-3.6-0.2-9.4-0.6-10.8-0.6c-0.3,3.5-0.3,6.9-0.3,10.4c4.2,0,7.2-0.2,10.9-0.4c-0.2,0.7-0.2,1.4-0.2,2.2
		c0,0.7,0.1,1.4,0.2,2c-3.6-0.3-7.2-0.4-10.9-0.4v2.4c0,5.4,0,9,0.4,13.3c-1,0-2.3-0.2-3.9-0.2s-2.9,0.2-3.9,0.2
		c0.3-4.2,0.4-7.9,0.4-13.3L144.2,139.6z"/>
	<path class="st30" d="M168.6,139.6c0-5.4,0-9-0.4-13.3c1,0,2.3,0.2,3.9,0.2s2.9-0.2,3.9-0.2c-0.3,4.2-0.4,7.9-0.4,13.3v6.6
		c0,5.4,0,9,0.4,13.3c-1,0-2.3-0.2-3.9-0.2s-2.9,0.2-3.9,0.2c0.4-4.3,0.4-7.9,0.4-13.3V139.6z"/>
	<path class="st30" d="M184.6,126.3c1.4,0.3,2.9,0.3,4.4,0c6.9,7.6,13.7,15.2,20.7,22.8c0-7.6,0-20.6-0.3-22.8
		c1.4,0.3,2.9,0.3,4.4,0c-0.8,13.9-0.8,20.3-0.8,33c-0.6-0.2-1.3-0.2-2-0.2c-0.6,0-1.2,0.1-1.9,0.2c-6.6-7.7-13.6-15.5-21-23.2
		c0,3.6,0,7.6,0,11.1c0,7.6,0.2,10.3,0.3,12.1c-0.7-0.1-1.5-0.2-2.2-0.2c-0.7,0-1.5,0.1-2.2,0.2c0.2-1.4,1-13.7,1-23.5
		C184.8,131.5,184.7,128.6,184.6,126.3z"/>
	<path class="st30" d="M247.7,159.3c-1.5,0-2.9-0.2-4.2-0.2c-1.4,0-2.7,0.2-4.1,0.2c-1-3.3-2.2-6.6-3.3-9.8c-2.1,0-4.1,0-6.1,0
		c-1.7,0-3.3,0-5,0c-1.3,3.2-2.3,6.5-3.3,9.8c-0.7-0.1-1.5-0.2-2.2-0.2c-0.8,0-1.6,0.1-2.4,0.2c2.3-5.3,9.5-22.3,13.6-33.2
		c1.2,0.3,2.4,0.3,3.6,0C238.5,137,244.1,151.5,247.7,159.3z M235.1,146.7c-1.4-3.9-2.7-7.6-4.3-11.4c-1.6,3.7-3.1,7.5-4.5,11.4
		H235.1z"/>
	<path class="st30" d="M252.8,126.3c1.4,0.3,2.9,0.3,4.4,0c6.9,7.6,13.7,15.2,20.7,22.8c0-7.6,0-20.6-0.3-22.8
		c1.4,0.3,2.9,0.3,4.4,0c-0.8,13.9-0.8,20.3-0.8,33c-0.6-0.2-1.3-0.2-2-0.2c-0.6,0-1.2,0.1-1.9,0.2c-6.6-7.7-13.5-15.5-20.9-23.2
		c0,3.6,0,7.6,0,11.1c0,7.6,0.2,10.3,0.3,12.1c-0.7-0.1-1.5-0.2-2.2-0.2c-0.7,0-1.5,0.1-2.2,0.2c0.2-1.4,1-13.7,1-23.5
		C253.1,131.5,252.9,128.6,252.8,126.3z"/>
	<path class="st30" d="M315.7,153.7c-0.5,1.3-0.9,2.7-1,4.1c-3,1.5-6.4,2.3-9.8,2.2c-11.1,0-17.6-6.9-17.6-16
		c0-13.1,8.9-18.3,19-18.3c3.4,0,6.7,0.8,9.8,2.3c-0.6,1.6-1,3.2-1.1,4.9h-0.7c-1.9-2.7-4.9-4.3-8.2-4.3c-5.1,0-10.9,4.4-10.9,14.6
		c0,10.2,5.8,13.7,11.3,13.7c3.3,0,6.4-1.3,8.7-3.6L315.7,153.7z"/>
	<path class="st30" d="M321.3,139.6c0-5.4,0-9-0.4-13.3c2.8,0,5.7,0.2,8.5,0.2c4.7,0,8.7,0,10-0.2c-0.1,0.7-0.2,1.3-0.2,2
		c0,0.7,0.1,1.5,0.2,2.2c-3.6-0.2-9.4-0.6-10.8-0.6c-0.2,3.5-0.2,6.9-0.2,10.4c4.2,0,7.2-0.2,10.9-0.4c-0.2,0.7-0.2,1.4-0.2,2.2
		c0,0.7,0.1,1.3,0.2,2c-3.6-0.3-7.2-0.4-10.9-0.4c0,2,0,4.1,0,6.1s0,4.1,0.2,6c3.6,0,7.3-0.2,10.9-0.6c-0.1,0.7-0.2,1.5-0.2,2.2
		c0,0.7,0.1,1.4,0.2,2.1c-1.7,0-4-0.2-8.4-0.2c-7.8,0-9.1,0.2-10.1,0.2c0.3-4.2,0.4-7.9,0.4-13.3L321.3,139.6z"/>
</g>
</svg>
