<svg xmlns="http://www.w3.org/2000/svg" xmlns:xlink="http://www.w3.org/1999/xlink" id="Layer_1" x="0" y="0" enable-background="new 0 0 425 160" version="1.1" viewBox="0 0 425 160" xml:space="preserve"><style type="text/css">.st0{fill:#5f01d1}.st1{fill:#232a31}</style><title>GB_Yahoo-Finance</title><g><g id="layer1" transform="translate(260.95542,41.213839)"><path id="path1139" d="M-260.5-12.6h25.2l14.7,37.6 l14.9-37.6h24.6l-37,89h-24.7l10.1-23.6L-260.5-12.6z" class="st0"/><path id="path1141" d="M-155.5-14.1c-19,0-30.9,17-30.9,33.9 c0,19.1,13.1,34.2,30.6,34.2c13,0,17.9-7.9,17.9-7.9v6.2h22v-64.8h-22v5.9C-138-6.7-143.5-14.1-155.5-14.1z M-150.9,6.8 c8.7,0,13.3,6.9,13.3,13.2c0,6.7-4.8,13.3-13.3,13.3c-7,0-13.3-5.7-13.3-13C-164.1,12.8-159.1,6.8-150.9,6.8z" class="st0"/><path id="path1145" d="M-108.4,52.3v-93.5h23 v34.7c0,0,5.5-7.6,16.9-7.6c14,0,22.2,10.4,22.2,25.3v41h-22.8V16.9c0-5-2.4-9.9-7.8-9.9c-5.5,0-8.4,4.9-8.4,9.9v35.4L-108.4,52.3 L-108.4,52.3z" class="st0"/><path id="path1147" d="M-7-14.1c-21.7,0-34.6,16.5-34.6,34.2 C-41.6,40.2-26,54-6.9,54c18.5,0,34.6-13.1,34.6-33.5C27.7-1.9,10.8-14.1-7-14.1z M-6.8,6.9c7.7,0,13,6.4,13,13.2 c0,5.8-4.9,13-13,13c-7.4,0-12.9-5.9-12.9-13C-19.7,13.2-15.1,6.9-6.8,6.9z" class="st0"/><path id="path1153" d="M66.1-14.1c-21.7,0-34.6,16.5-34.6,34.2 C31.4,40.2,47.1,54,66.1,54c18.5,0,34.6-13.1,34.6-33.5C100.8-1.9,83.9-14.1,66.1-14.1z M66.3,6.9c7.7,0,13,6.4,13,13.2 c0,5.8-4.9,13-13,13c-7.4,0-12.9-5.9-12.9-13C53.4,13.2,58,6.9,66.3,6.9z" class="st0"/><path id="path1155" d="M119,23.1c8.4,0,15.3,6.8,15.3,15.3c0,8.4-6.8,15.3-15.3,15.3c-8.4,0-15.3-6.8-15.3-15.3 C103.7,29.9,110.5,23.1,119,23.1z" class="st0"/><path id="path1157" d="M139.3,17.4h-27.5l24.4-58.7 h27.4L139.3,17.4z" class="st0"/></g><g><g><path d="M172.3,122h9.1v10.9h-9.1V159h-13.5v-26.1h-5V122h5v-1c0-5.1,1.5-9.1,4.4-12c2.9-2.9,7-4.3,12.2-4.3 c1.2,0,2.4,0.1,3.6,0.3c1.1,0.2,2.1,0.5,3,0.9v11.2c-0.5-0.2-1.1-0.5-1.8-0.6c-0.7-0.2-1.4-0.3-2.3-0.3c-1.6,0-2.9,0.4-4,1.2 c-1.1,0.8-1.6,2.1-1.6,3.8V122z" class="st1"/><path d="M198.2,111.5c0,1-0.2,1.9-0.6,2.8c-0.4,0.9-0.9,1.7-1.6,2.4c-0.7,0.7-1.5,1.2-2.4,1.6 c-0.9,0.4-1.9,0.6-3,0.6c-1,0-2-0.2-2.9-0.6c-0.9-0.4-1.7-0.9-2.4-1.6c-0.7-0.7-1.2-1.5-1.6-2.4c-0.4-0.9-0.6-1.9-0.6-2.9 c0-1,0.2-2,0.6-2.9c0.4-0.9,0.9-1.7,1.6-2.4c0.7-0.7,1.5-1.2,2.4-1.6c0.9-0.4,1.9-0.6,2.9-0.6c1.1,0,2.1,0.2,3,0.6 c0.9,0.4,1.7,0.9,2.4,1.6c0.7,0.7,1.2,1.5,1.6,2.4C198,109.6,198.2,110.5,198.2,111.5z M183.8,159v-37h13.5v37H183.8z" class="st1"/><path d="M216.2,159h-13.5v-37h13.5v4.5c1-1.8,2.4-3.2,4.2-4.1c1.8-0.9,3.8-1.4,6.1-1.4c4,0,7.1,1.3,9.4,3.9 c2.3,2.6,3.4,6.1,3.4,10.6V159h-13.5v-19.8c0-1.9-0.4-3.3-1.3-4.3c-0.8-1-2-1.5-3.5-1.5c-1.5,0-2.7,0.5-3.6,1.6 c-0.9,1-1.3,2.5-1.3,4.4V159z" class="st1"/><path d="M283.8,122v37h-13.3v-4c-2.9,3.3-6.6,5-11.3,5c-2.4,0-4.6-0.5-6.7-1.5c-2.1-1-3.9-2.4-5.4-4.1 c-1.5-1.8-2.7-3.8-3.6-6.2c-0.9-2.4-1.3-4.9-1.3-7.7c0-2.7,0.4-5.3,1.3-7.7c0.9-2.4,2-4.5,3.6-6.2c1.5-1.7,3.3-3.1,5.4-4.1 c2.1-1,4.3-1.5,6.7-1.5c2.4,0,4.5,0.4,6.4,1.2c1.9,0.8,3.5,2.1,4.9,3.7v-4H283.8z M255.7,140.5c0,1,0.2,2,0.6,2.9 c0.4,0.9,0.9,1.7,1.6,2.3c0.7,0.7,1.5,1.2,2.4,1.6s1.9,0.6,2.9,0.6c1,0,2-0.2,2.9-0.6c0.9-0.4,1.7-0.9,2.4-1.6s1.2-1.4,1.6-2.3 c0.4-0.9,0.6-1.8,0.6-2.9s-0.2-2-0.6-2.9c-0.4-0.9-0.9-1.7-1.6-2.3s-1.5-1.2-2.4-1.6c-0.9-0.4-1.9-0.6-2.9-0.6 c-1,0-2,0.2-2.9,0.6c-0.9,0.4-1.7,0.9-2.4,1.6c-0.7,0.7-1.2,1.4-1.6,2.3C255.9,138.5,255.7,139.4,255.7,140.5z" class="st1"/><path d="M302.5,159h-13.5v-37h13.5v4.5c1-1.8,2.4-3.2,4.2-4.1s3.8-1.4,6.1-1.4c4,0,7.1,1.3,9.4,3.9 c2.3,2.6,3.4,6.1,3.4,10.6V159h-13.5v-19.8c0-1.9-0.4-3.3-1.3-4.3c-0.8-1-2-1.5-3.5-1.5c-1.5,0-2.7,0.5-3.6,1.6 c-0.9,1-1.3,2.5-1.3,4.4V159z" class="st1"/><path d="M328.5,140.5c0-2.8,0.5-5.4,1.5-7.8c1-2.4,2.4-4.5,4.1-6.2c1.8-1.8,3.9-3.1,6.3-4.1s5.1-1.4,8-1.4 c1.4,0,2.9,0.2,4.4,0.5c1.5,0.3,2.9,0.8,4.2,1.4v12.3c-2.1-1.4-4.4-2.1-6.7-2.1c-2.4,0-4.3,0.7-5.9,2c-1.6,1.4-2.3,3.1-2.3,5.4 s0.8,4,2.3,5.4s3.5,2,5.9,2c2.4,0,4.7-0.7,6.7-2.2v12.3c-1.4,0.7-2.9,1.3-4.4,1.6c-1.5,0.3-3,0.5-4.4,0.5c-2.8,0-5.4-0.5-7.8-1.4 s-4.5-2.2-6.3-3.9c-1.8-1.7-3.2-3.7-4.2-6.1C329,146.2,328.5,143.5,328.5,140.5z" class="st1"/><path d="M396.6,150c-1.5,3.2-3.8,5.7-6.8,7.4c-3,1.7-6.6,2.6-10.8,2.6c-3,0-5.7-0.5-8.1-1.4c-2.5-0.9-4.6-2.3-6.4-4 c-1.8-1.7-3.2-3.8-4.1-6.2c-1-2.4-1.5-5-1.5-8c0-2.8,0.5-5.4,1.5-7.8c1-2.4,2.4-4.4,4.1-6.2c1.8-1.8,3.8-3.1,6.2-4.1 c2.4-1,5-1.5,7.8-1.5c2.9,0,5.5,0.5,7.9,1.4c2.4,1,4.4,2.3,6.1,4.1c1.7,1.8,3,3.9,3.9,6.4c0.9,2.5,1.4,5.3,1.4,8.3 c0,0.6,0,1.1,0,1.6c0,0.4-0.1,0.8-0.1,1.2H372c0.1,1.6,0.9,2.9,2.2,3.8c1.3,1,2.8,1.5,4.6,1.5c1.5,0,2.7-0.3,3.7-0.8 c1-0.5,1.8-1.3,2.5-2.5L396.6,150z M384.7,136.1c-0.1-1.4-0.8-2.6-2-3.5c-1.2-0.9-2.6-1.3-4.3-1.3s-3.2,0.5-4.3,1.4 c-1.2,0.9-1.8,2.1-2,3.4H384.7z" class="st1"/></g></g></g></svg>