<svg xmlns="http://www.w3.org/2000/svg" xmlns:xlink="http://www.w3.org/1999/xlink" id="Layer_1" x="0" y="0" version="1.1" viewBox="0 0 400 400" xml:space="preserve" style="enable-background:new 0 0 400 400"><style type="text/css">.st0{fill:url(#SVGID_1_)}.st1{fill:url(#SVGID_2_)}.st2{fill:url(#SVGID_3_)}.st3{fill:#20201e}.st4{fill:url(#SVGID_4_)}.st5{fill:#353534}.st6{fill:#282828}.st7{fill:url(#SVGID_5_);stroke:url(#SVGID_6_);stroke-width:9.8629;stroke-miterlimit:10}</style><g><linearGradient id="SVGID_1_" x1="2180.406" x2="2402.735" y1="2815.667" y2="2815.667" gradientTransform="matrix(-0.2964 0.9551 -0.9551 -0.2964 3592.9194 -1224.95)" gradientUnits="userSpaceOnUse"><stop offset=".039" style="stop-color:#2cf4e1"/><stop offset="1" style="stop-color:#2cb2e1"/></linearGradient><ellipse cx="213.7" cy="163.7" class="st0" rx="112.6" ry="111"/><linearGradient id="SVGID_2_" x1="273.605" x2="371.411" y1="109.4" y2="243.088" gradientTransform="matrix(1 0 0 1 0 22)" gradientUnits="userSpaceOnUse"><stop offset=".039" style="stop-color:#2cf4e1"/><stop offset="1" style="stop-color:#2cb2e1"/></linearGradient><path d="M292.6,130.3c8,10.8,12.4,23.5,12.4,36.7c0,15.9-6.8,31-18,42.7l7.1,25.6h21l22.2-25l5.9-36.4l1.2-21.7 l-21.9-24.4L292.6,130.3z" class="st1"/><g><linearGradient id="SVGID_3_" x1="108.466" x2="247.123" y1="125.879" y2="315.405" gradientTransform="matrix(1 0 0 1 0 22)" gradientUnits="userSpaceOnUse"><stop offset="0" style="stop-color:#2ce5e1"/><stop offset="1" style="stop-color:#2cb2e1"/></linearGradient><path d="M48.2,238.3l3.8,15c0,0,45.5,92,147.8,126c0,0,95.8-39.1,137.1-105.6l-60-49c0,0-27.2,21.4-68,21.4 s-95.5-23.8-95.5-73.1s57-67.1,57-67.1l-24.2-6H84.3l-39.6,93.9L48.2,238.3z" class="st2"/></g><path d="M348.2,272.6" class="st3"/><linearGradient id="SVGID_4_" x1="200.584" x2="200.584" y1="257.591" y2="15.998" gradientTransform="matrix(1 0 0 1 0 22)" gradientUnits="userSpaceOnUse"><stop offset="0" style="stop-color:#000"/><stop offset="1" style="stop-color:#0d0d0d"/></linearGradient><path d="M391.9,139.6c-1.8-1.8-52-54.4-190.3-101.4l-0.9-0.3C66.9,83.4,9.2,139.6,9.2,139.6 c5.3,30.1,18.3,63.5,30.1,89.3c0.9,2.1,16.8,29.8,28.7,44.8c-7.1-15-14.5-28.3-14.5-50.8c0-63.5,49.9-115.2,112.3-117.3 c1.5,0,3.3,0,4.7,0l-14.8-14.7c0,0,60-9.9,136.8,36.1c0,0,1.2,2.4,0,9.3c0,0,36.4,15.3,39.3,45.4s-16.3,47.2-31.6,49.6 c0,0,8-12.3-4.4-19c-2.7-1.5-5.6-2.1-8.9-2.1l0,0c-23.6,0-26.3,26.8-26.3,26.8c-0.3,1.2-0.3,2.7-0.3,3.9c0,0-3.8,39.1,66.5,38.2 c0,0,35.8-40,45.2-75.8c3.5-13.2,5.9-23.2,7.7-30.4c3.8-10.5,7.7-21.1,11.5-32.2L391.9,139.6z" class="st4"/><path d="M262.8,135.4" class="st5"/><path d="M262.2,139c0.9-0.6,4.1-2.1,8-6c7.4,0.9,14.8,3.3,14.8,3.3c-13.6-8.1-31.9-12.9-52.6-12.6 C232.4,123.7,240,134.8,262.2,139C261.9,139.3,261.9,139.3,262.2,139z" class="st6"/><g><path d="M200.1,44c13.3,3.9,108.8,35.5,185.3,97.8l8.6-2.4l-0.6-0.6C318.7,76.2,224.1,43.7,204.6,37.4l-1.8-0.6 l-2.4-0.6l-4.4,1.2C176.2,43.7,81.6,76.2,6.9,138.7L6,139.3l8.3,2.7C90.8,79.5,187.1,47.9,200.1,44z" class="st6"/></g><linearGradient id="SVGID_5_" x1="199.993" x2="199.993" y1="275.942" y2="-49.476" gradientTransform="matrix(1 0 0 1 0 22)" gradientUnits="userSpaceOnUse"><stop offset=".039" style="stop-color:#2cf4e1"/><stop offset="1" style="stop-color:#2cb2e1"/></linearGradient><linearGradient id="SVGID_6_" x1=".107" x2="400.544" y1="178" y2="178" gradientTransform="matrix(1 0 0 1 0 22)" gradientUnits="userSpaceOnUse"><stop offset=".039" style="stop-color:#2cf4e1"/><stop offset="1" style="stop-color:#2cb2e1"/></linearGradient><path d="M393.4,127C318.7,64.4,224.1,32.3,204.6,25.9l-1.8-0.6l-2.4-0.6l-4.4,1.2C176.2,32.3,81.6,64.4,6.9,127 l-1.5,1.2l0.3,2.1c0.3,0.6,8.3,48.1,35.8,101.4c16.3,31.6,36.1,59,58.5,81.5c27.8,27.7,60,48.1,95.8,60.8l2.1,0.6l2.1,0.6l2.4-0.9 l2.1-0.6c35.8-12.6,68-33.1,95.8-60.8c22.5-22.6,42.3-49.9,58.5-81.5c27.5-53.2,35.8-100.8,35.8-101.4l0.3-2.1L393.4,127z M352.1,228.4c-16,30.7-35.2,57.5-57.3,79.7c-27.5,27.4-59.1,47.5-94.6,59.9c-35.5-12.3-67.4-32.2-94.6-59.6 c-22.2-22-41.4-48.7-57.3-79.4c-23.9-46.6-32.8-88.1-34.9-97.8c76.5-63.2,173.5-94.8,186.8-99c13.3,4.2,110.2,35.8,186.8,99 C384.9,140.8,376,182.4,352.1,228.4z" class="st7"/></g></svg>