<?xml version="1.0" encoding="utf-8"?>
<!-- Generator: Adobe Illustrator 21.0.0, SVG Export Plug-In . SVG Version: 6.00 Build 0)  -->
<svg version="1.1" id="Layer_1" xmlns="http://www.w3.org/2000/svg" xmlns:xlink="http://www.w3.org/1999/xlink" x="0px" y="0px"
	 viewBox="0 0 490 490" style="enable-background:new 0 0 490 490;" xml:space="preserve">
<style type="text/css">
	.st0{fill:#FFFFFF;stroke:#BDAFD6;stroke-width:2;stroke-miterlimit:10;}
	.st1{opacity:0.5;}
	.st2{fill:none;stroke:#BDAFD6;stroke-width:2;stroke-linecap:round;stroke-linejoin:round;stroke-dasharray:0.1,4;}
	.st3{fill:#BDAFD6;}
	.st4{fill:#FFFFFF;}
	.st5{fill:url(#SVGID_1_);}
	.st6{fill:url(#SVGID_2_);}
	.st7{fill:url(#SVGID_3_);}
	.st8{fill:#20201E;}
	.st9{fill:url(#SVGID_4_);}
	.st10{fill:#353534;}
	.st11{fill:#282828;}
	.st12{fill:url(#SVGID_5_);stroke:url(#SVGID_6_);stroke-width:2.7407;stroke-miterlimit:10;}
	.st13{fill:#C73A63;}
	.st14{fill:#4B4B4B;}
	.st15{fill:#4A4A4A;}
	.st16{fill:#491E8C;}
	.st17{opacity:0.4;fill:#491E8C;enable-background:new    ;}
</style>
<g>
	<path class="st0" d="M189.1,200.7H54.4c-6.6,0-12-5.4-12-12v-134c0-6.6,5.4-12,12-12h134.7c6.6,0,12,5.4,12,12v134
		C201.1,195.3,195.7,200.7,189.1,200.7z"/>
	<path class="st0" d="M435.6,200.7H300.9c-6.6,0-12-5.4-12-12v-134c0-6.6,5.4-12,12-12h134.7c6.6,0,12,5.4,12,12v134
		C447.6,195.3,442.2,200.7,435.6,200.7z"/>
	<path class="st0" d="M312.4,447.4H177.6c-6.6,0-12-5.4-12-12v-134c0-6.6,5.4-12,12-12h134.7c6.6,0,12,5.4,12,12v134
		C324.4,442,319,447.4,312.4,447.4z"/>
	<g class="st1">
		<g>
			<polyline class="st2" points="121.8,220.9 121.8,368.4 137.5,368.4 			"/>
			<g>
				<rect x="115.3" y="219.9" class="st3" width="13" height="2"/>
			</g>
			<g>
				<g>
					<circle class="st4" cx="137.1" cy="368.4" r="7.5"/>
					<path class="st3" d="M137.1,376.9c-4.7,0-8.5-3.8-8.5-8.5s3.8-8.5,8.5-8.5c4.7,0,8.5,3.8,8.5,8.5S141.8,376.9,137.1,376.9
						C132.4,376.9,141.8,376.9,137.1,376.9z M137.1,361.8c-3.6,0-6.5,2.9-6.5,6.5s2.9,6.5,6.5,6.5c3.6,0,6.5-2.9,6.5-6.5
						S140.6,361.8,137.1,361.8C133.5,361.8,140.6,361.8,137.1,361.8z"/>
				</g>
			</g>
		</g>
	</g>
	<g class="st1">
		<g>
			<polyline class="st2" points="368.2,228 368.2,368.4 345.4,368.4 			"/>
			<g>
				<g>
					<circle class="st4" cx="368.2" cy="228.5" r="7.5"/>
					<path class="st3" d="M359.7,228.5c0,4.7,3.8,8.5,8.5,8.5s8.5-3.8,8.5-8.5c0-4.7-3.8-8.5-8.5-8.5S359.7,223.8,359.7,228.5
						C359.7,233.2,359.7,223.8,359.7,228.5z M374.7,228.5c0,3.6-2.9,6.5-6.5,6.5s-6.5-2.9-6.5-6.5c0-3.6,2.9-6.5,6.5-6.5
						S374.7,224.9,374.7,228.5C374.7,232.1,374.7,224.9,374.7,228.5z"/>
				</g>
			</g>
			<g>
				<rect x="344.4" y="361.9" class="st3" width="2" height="13"/>
			</g>
		</g>
	</g>
	<g>
		
			<linearGradient id="SVGID_1_" gradientUnits="userSpaceOnUse" x1="2278.7173" y1="3016.583" x2="2340.1914" y2="3016.583" gradientTransform="matrix(-0.2964 0.9551 -0.9551 -0.2964 3694.2368 -1209.5914)">
			<stop  offset="3.919654e-02" style="stop-color:#2CF4E1"/>
			<stop  offset="1" style="stop-color:#2CB2E1"/>
		</linearGradient>
		<ellipse class="st5" cx="125.6" cy="111.6" rx="31.5" ry="30.7"/>
		
			<linearGradient id="SVGID_2_" gradientUnits="userSpaceOnUse" x1="142.4698" y1="80.6344" x2="169.5281" y2="117.6193" gradientTransform="matrix(1 0 0 1 0 22)">
			<stop  offset="3.919654e-02" style="stop-color:#2CF4E1"/>
			<stop  offset="1" style="stop-color:#2CB2E1"/>
		</linearGradient>
		<path class="st6" d="M147.7,102.4c2.2,3,3.5,6.5,3.5,10.1c0,4.4-1.9,8.6-5,11.8l2,7.1h5.9l6.2-6.9l1.7-10.1l0.3-6l-6.1-6.7
			L147.7,102.4z"/>
		<g>
			
				<linearGradient id="SVGID_3_" gradientUnits="userSpaceOnUse" x1="96.4022" y1="85.0949" x2="134.8741" y2="137.6808" gradientTransform="matrix(1 0 0 1 0 22)">
				<stop  offset="0" style="stop-color:#2CE5E1"/>
				<stop  offset="1" style="stop-color:#2CB2E1"/>
			</linearGradient>
			<path class="st7" d="M79.3,132.2l1.1,4.2c0,0,12.7,25.4,41.3,34.8c0,0,26.8-10.8,38.3-29.2l-16.8-13.5c0,0-7.6,5.9-19,5.9
				s-26.7-6.6-26.7-20.2s15.9-18.5,15.9-18.5l-6.8-1.7H89.4l-11.1,25.9L79.3,132.2z"/>
		</g>
		<path class="st8" d="M163.2,141.7"/>
		
			<linearGradient id="SVGID_4_" gradientUnits="userSpaceOnUse" x1="121.9357" y1="121.6106" x2="121.9357" y2="54.8838" gradientTransform="matrix(1 0 0 1 0 22)">
			<stop  offset="0" style="stop-color:#000000"/>
			<stop  offset="1" style="stop-color:#0D0D0D"/>
		</linearGradient>
		<path class="st9" d="M175.4,105c-0.5-0.5-14.5-15-53.2-28l-0.2-0.1C84.5,89.4,68.4,105,68.4,105c1.5,8.3,5.1,17.5,8.4,24.7
			c0.2,0.6,4.7,8.2,8,12.4c-2-4.2-4-7.8-4-14c0-17.5,14-31.8,31.4-32.4c0.4,0,0.9,0,1.3,0l-4.1-4.1c0,0,16.8-2.7,38.3,10
			c0,0,0.3,0.7,0,2.6c0,0,10.2,4.2,11,12.5s-4.5,13-8.8,13.7c0,0,2.2-3.4-1.2-5.2c-0.7-0.4-1.6-0.6-2.5-0.6l0,0
			c-6.6,0-7.4,7.4-7.4,7.4c-0.1,0.3-0.1,0.7-0.1,1.1c0,0-1.1,10.8,18.6,10.6c0,0,10-11,12.6-20.9c1-3.7,1.7-6.4,2.1-8.4
			c1.1-2.9,2.1-5.8,3.2-8.9L175.4,105z"/>
		<path class="st10" d="M139.3,103.8"/>
		<path class="st11" d="M139.2,104.8c0.2-0.2,1.2-0.6,2.2-1.7c2.1,0.2,4.1,0.9,4.1,0.9c-3.8-2.2-8.9-3.6-14.7-3.5
			C130.8,100.6,133,103.6,139.2,104.8C139.1,104.9,139.1,104.9,139.2,104.8z"/>
		<g>
			<path class="st11" d="M121.8,78.5c3.7,1.1,30.4,9.8,51.8,27l2.4-0.7l-0.2-0.2c-20.9-17.3-47.3-26.3-52.8-28l-0.5-0.2l-0.7-0.2
				l-1.2,0.3c-5.5,1.7-32,10.7-52.9,28l-0.2,0.2l2.3,0.7C91.2,88.3,118.2,79.6,121.8,78.5z"/>
		</g>
		
			<linearGradient id="SVGID_5_" gradientUnits="userSpaceOnUse" x1="121.7705" y1="126.679" x2="121.7705" y2="36.8001" gradientTransform="matrix(1 0 0 1 0 22)">
			<stop  offset="3.919654e-02" style="stop-color:#2CF4E1"/>
			<stop  offset="1" style="stop-color:#2CB2E1"/>
		</linearGradient>
		
			<linearGradient id="SVGID_6_" gradientUnits="userSpaceOnUse" x1="65.8958" y1="99.6276" x2="177.8312" y2="99.6276" gradientTransform="matrix(1 0 0 1 0 22)">
			<stop  offset="3.919654e-02" style="stop-color:#2CF4E1"/>
			<stop  offset="1" style="stop-color:#2CB2E1"/>
		</linearGradient>
		<path class="st12" d="M175.8,101.5c-20.9-17.3-47.3-26.2-52.8-27.9l-0.5-0.2l-0.7-0.2l-1.2,0.3c-5.5,1.7-32,10.6-52.9,27.9
			l-0.4,0.3l0.1,0.6c0.1,0.2,2.3,13.3,10,28c4.5,8.7,10.1,16.3,16.4,22.5c7.8,7.6,16.8,13.3,26.8,16.8l0.6,0.2l0.6,0.2l0.7-0.2
			l0.6-0.2c10-3.5,19-9.1,26.8-16.8c6.3-6.2,11.8-13.8,16.4-22.5c7.7-14.7,10-27.8,10-28l0.1-0.6L175.8,101.5z M164.3,129.5
			c-4.5,8.5-9.8,15.9-16,22c-7.7,7.6-16.5,13.1-26.4,16.5c-9.9-3.4-18.8-8.9-26.4-16.4c-6.2-6.1-11.6-13.5-16-21.9
			c-6.7-12.9-9.2-24.3-9.7-27c21.4-17.4,48.5-26.2,52.2-27.3c3.7,1.2,30.8,9.9,52.2,27.3C173.5,105.3,171,116.8,164.3,129.5z"/>
	</g>
	<g id="OvHZFw.tif">
		<g>
			<path class="st13" d="M365.1,114.1c-4.2,7-8.1,13.8-12.2,20.5c-1,1.7-1.6,3.1-0.7,5.3c2.3,6.1-0.9,12-7.1,13.6
				c-5.8,1.5-11.4-2.3-12.5-8.4c-1-5.5,3.2-10.8,9.2-11.7c0.5-0.1,1-0.1,1.9-0.1c2.9-4.9,6-10,9.2-15.4c-5.8-5.7-9.2-12.4-8.4-20.7
				c0.5-5.9,2.8-10.9,7.1-15.1c8.1-8,20.4-9.2,29.9-3.1c9.1,5.9,13.3,17.3,9.7,27.1c-2.7-0.7-5.4-1.5-8.4-2.3
				c1.1-5.4,0.3-10.3-3.4-14.5c-2.4-2.8-5.5-4.2-9.1-4.7c-7.1-1.1-14,3.5-16.1,10.4C351.9,102.8,355.4,109.3,365.1,114.1z"/>
			<path class="st14" d="M377,105.9c2.9,5.2,5.9,10.4,8.9,15.6c14.9-4.6,26.1,3.6,30.2,12.5c4.9,10.7,1.5,23.3-8,29.9
				c-9.8,6.8-22.2,5.6-30.9-3.1c2.2-1.9,4.4-3.7,6.8-5.7c8.6,5.6,16.1,5.3,21.7-1.3c4.8-5.6,4.7-14-0.2-19.5
				c-5.6-6.4-13.2-6.5-22.4-0.4c-3.8-6.7-7.7-13.4-11.3-20.2c-1.2-2.3-2.6-3.6-5.4-4.1c-4.7-0.8-7.7-4.8-7.9-9.3
				c-0.2-4.4,2.4-8.4,6.5-10c4-1.5,8.8-0.3,11.5,3.1c2.2,2.8,2.9,6,1.8,9.4C377.9,103.8,377.5,104.7,377,105.9z"/>
			<path class="st15" d="M384,148.1c-5.9,0-11.8,0-17.9,0c-1.7,7.1-5.4,12.8-11.8,16.4c-5,2.8-10.3,3.8-16,2.9
				c-10.5-1.7-19.1-11.2-19.9-21.8c-0.9-12.1,7.4-22.8,18.5-25.2c0.8,2.8,1.5,5.6,2.3,8.3c-10.1,5.2-13.7,11.7-10.8,19.9
				c2.5,7.2,9.6,11.1,17.3,9.6c7.9-1.6,11.8-8.1,11.4-18.6c7.5,0,14.9-0.1,22.4,0c2.9,0,5.2-0.3,7.4-2.8c3.6-4.2,10.3-3.8,14.2,0.1
				c4,4.1,3.8,10.6-0.4,14.6c-4.1,3.8-10.5,3.6-14.3-0.5C385.4,150.1,384.8,149.1,384,148.1z"/>
		</g>
	</g>
	<g id="Brandmark">
		<circle id="Core-1_1_" class="st16" cx="245" cy="347.6" r="7.5"/>
		<circle id="Core-2_1_" class="st16" cx="223.1" cy="363.5" r="7.5"/>
		<circle id="Core-3_1_" class="st16" cx="266.8" cy="363.5" r="7.5"/>
		<circle id="Core-4_1_" class="st16" cx="231.5" cy="389.1" r="7.5"/>
		<circle id="Core-5_1_" class="st16" cx="258.5" cy="389.1" r="7.5"/>
		<path id="Center" class="st17" d="M249,389.1c0-2.5,1-4.9,2.8-6.7c1.8-1.8,4.2-2.8,6.7-2.8c2.4,0,4.6,0.9,6.3,2.4
			c1.6-2.8,2.7-5.9,3-9.2c-0.3,0-0.7,0-1,0c-2.5,0-4.9-1-6.7-2.8c-1.8-1.8-2.8-4.2-2.8-6.7s1-4.9,2.8-6.7c0.6-0.6,1.3-1.1,2-1.5
			c-2.2-2.4-4.8-4.4-7.8-5.7c-0.4,1.8-1.3,3.4-2.6,4.7c-1.8,1.8-4.2,2.8-6.7,2.8c-2.5,0-4.9-1-6.7-2.8c-1.3-1.3-2.2-3-2.6-4.7
			c-3,1.3-5.7,3.3-7.8,5.7c0.7,0.4,1.4,0.9,2,1.5c1.8,1.8,2.8,4.2,2.8,6.7s-1,4.9-2.8,6.7s-4.2,2.8-6.7,2.8c-0.3,0-0.7,0-1,0
			c0.3,3.3,1.4,6.5,3,9.2c1.7-1.6,4-2.4,6.3-2.4c2.5,0,4.9,1,6.7,2.8c1.8,1.8,2.8,4.2,2.8,6.7c0,1.4-0.3,2.7-0.8,3.9
			c1.6,0.3,3.2,0.5,4.9,0.5c1.7,0,3.3-0.2,4.9-0.5C249.3,391.8,249,390.5,249,389.1z"/>
		<path id="Circles" class="st17" d="M292.8,352.5c-1.4-3.4-3.5-6.4-6-9c-2.6-2.6-5.6-4.6-9-6c-2.3-1-4.7-1.6-7.1-2
			c-1.4-2.9-3.2-5.6-5.5-7.9c-2.6-2.6-5.6-4.6-9-6c-3.5-1.5-7.2-2.2-11-2.2s-7.5,0.7-11,2.2c-3.4,1.4-6.4,3.5-9,6
			c-2.3,2.3-4.1,4.9-5.5,7.8c-2.6,0.3-5.2,1-7.6,2c-3.4,1.4-6.4,3.4-9,6c-2.6,2.6-4.6,5.6-6,9c-1.5,3.5-2.2,7.2-2.2,10.9
			c0,3.8,0.7,7.5,2.2,11c1.4,3.4,3.5,6.4,6,9c0.2,0.2,0.4,0.4,0.6,0.6c-0.3,1.7-0.5,3.5-0.5,5.2c0,3.8,0.7,7.5,2.2,11
			c1.4,3.4,3.5,6.4,6,9s5.6,4.6,9,6c3.5,1.5,7.2,2.2,11,2.2c3.8,0,7.5-0.7,11-2.2c0.9-0.4,1.7-0.8,2.5-1.2c0.8,0.5,1.7,0.9,2.5,1.2
			c3.5,1.5,7.2,2.2,11,2.2c3.8,0,7.5-0.7,11-2.2c3.4-1.4,6.4-3.5,9-6s4.6-5.6,6-9c1.5-3.5,2.2-7.2,2.2-11c0-1.8-0.2-3.5-0.5-5.2
			c0.2-0.2,0.4-0.4,0.6-0.6c2.6-2.6,4.6-5.6,6-9c1.5-3.5,2.2-7.2,2.2-11C295,359.7,294.2,356,292.8,352.5z M290.6,373.5
			c-1.2,2.9-2.9,5.5-5.1,7.8c-0.3-1-0.7-2.1-1.1-3.1c-1.4-3.4-3.5-6.4-6-9c-0.8-0.8-1.8-1.6-2.7-2.4c-0.3,0.7-0.7,1.4-1.1,2.1
			c0.8,0.6,1.5,1.3,2.2,2c2.4,2.4,4.2,5.1,5.5,8.2c0.5,1.3,1,2.7,1.3,4c-2,1.7-4.3,3.1-6.7,4.2c-2.8,1.2-5.8,1.9-8.9,2
			c0,0.8-0.1,1.6-0.3,2.3c3.5-0.1,6.9-0.8,10.2-2.2c2.3-1,4.4-2.2,6.3-3.7c0.1,1.1,0.2,2.3,0.2,3.4c0,3.5-0.7,6.9-2,10.1
			c-1.3,3.1-3.2,5.8-5.5,8.2c-2.4,2.4-5.1,4.2-8.2,5.5c-3.2,1.3-6.6,2-10.1,2s-6.9-0.7-10.1-2c-0.4-0.2-0.8-0.3-1.1-0.5
			c1.5-1,2.8-2.1,4.1-3.4c2.6-2.6,4.6-5.6,6-9c0.2-0.5,0.4-1,0.6-1.5c-0.8,0-1.6-0.2-2.3-0.4c-0.1,0.3-0.3,0.7-0.4,1
			c-1.3,3.1-3.2,5.8-5.5,8.2c-1.4,1.4-3,2.7-4.8,3.8c-1.7-1.1-3.3-2.3-4.8-3.8c-2.4-2.4-4.2-5.1-5.5-8.2c-0.1-0.3-0.3-0.7-0.4-1
			c-0.7,0.2-1.5,0.4-2.3,0.4c0.2,0.5,0.4,1,0.6,1.5c1.4,3.4,3.5,6.4,6,9c1.3,1.3,2.6,2.4,4.1,3.4c-0.4,0.2-0.7,0.3-1.1,0.5
			c-3.2,1.3-6.6,2-10.1,2c-3.5,0-6.9-0.7-10.1-2c-3.1-1.3-5.8-3.2-8.2-5.5c-2.4-2.4-4.2-5.1-5.5-8.2c-1.3-3.2-2-6.6-2-10.1
			c0-1.2,0.1-2.3,0.2-3.4c1.9,1.5,4,2.7,6.3,3.7c3.2,1.4,6.6,2.1,10.2,2.2c-0.2-0.7-0.3-1.5-0.3-2.3c-3.1-0.1-6.1-0.8-8.9-2
			c-2.5-1-4.7-2.4-6.7-4.2c0.3-1.4,0.8-2.7,1.3-4c1.3-3.1,3.2-5.8,5.5-8.2c0.7-0.7,1.4-1.3,2.2-2c-0.5-0.6-0.8-1.3-1.1-2.1
			c-1,0.7-1.9,1.5-2.7,2.4c-2.6,2.6-4.6,5.6-6,9c-0.4,1-0.8,2.1-1.1,3.1c-2.2-2.3-3.9-4.9-5.1-7.8c-1.3-3.2-2-6.6-2-10.1
			s0.7-6.9,2-10.1c1.3-3.1,3.2-5.8,5.5-8.2c2.4-2.4,5.1-4.2,8.2-5.5c1.8-0.8,3.7-1.3,5.6-1.7c-1.1,3.1-1.7,6.3-1.7,9.6
			c0,2.7,0.4,5.3,1.1,7.8c0.7-0.4,1.4-0.7,2.1-1c-0.6-2.2-0.9-4.5-0.9-6.8c0-3.4,0.7-6.8,2-9.9c0.6,0,1.2-0.1,1.8-0.1
			c3.5,0,6.9,0.7,10.1,2c1.5,0.6,2.9,1.4,4.2,2.3c0.3-0.4,0.6-0.7,0.9-1c0.2-0.2,0.5-0.5,0.8-0.7c-1.5-1.1-3.2-2-4.9-2.7
			c-3.5-1.5-7.2-2.2-11-2.2c-0.2,0-0.5,0-0.7,0c1.2-2.2,2.7-4.2,4.5-6c2.4-2.4,5.1-4.2,8.2-5.5c3.2-1.3,6.6-2,10-2
			c3.5,0,6.9,0.7,10.1,2c3.1,1.3,5.8,3.2,8.2,5.5c1.8,1.8,3.3,3.8,4.5,6c-0.4,0-0.7,0-1.1,0c-3.8,0-7.5,0.7-11,2.2
			c-1.7,0.7-3.4,1.6-4.9,2.7c0.3,0.2,0.5,0.4,0.8,0.7c0.3,0.3,0.6,0.7,0.9,1c1.3-0.9,2.7-1.6,4.2-2.3c3.2-1.3,6.6-2,10.1-2
			c0.7,0,1.5,0,2.2,0.1c1.3,3.1,2,6.5,2,9.9c0,2.4-0.3,4.7-1,7c0.7,0.3,1.4,0.6,2.1,1.1c0.8-2.6,1.2-5.3,1.2-8
			c0-3.3-0.6-6.5-1.6-9.5c1.8,0.3,3.5,0.9,5.2,1.6c3.1,1.3,5.8,3.2,8.2,5.5c2.4,2.4,4.2,5.1,5.5,8.2c1.3,3.2,2,6.6,2,10.1
			C292.7,366.9,292,370.3,290.6,373.5z"/>
	</g>
</g>
</svg>
