<svg xmlns="http://www.w3.org/2000/svg" xmlns:xlink="http://www.w3.org/1999/xlink" id="Layer_1" x="0" y="0" enable-background="new 0 0 400 400" version="1.1" viewBox="0 0 400 400" xml:space="preserve"><style type="text/css">.st0{fill:#00c3ff}.st1{fill:#7ee0ff}</style><title>Blockstream_logo_rgb_blk</title><g><path d="M322.4,110.8c8.1,11.3,14.6,23.7,19.4,36.7l17.3-5.6c-5.5-15-13-29.1-22.2-42L322.4,110.8z" class="st0"/><path d="M204.3,29.1c-4.6-0.2-9.3-0.2-13.9,0l1.3,18.1c7-0.2,13.9-0.1,20.8,0.6c6.9,0.6,13.8,1.7,20.6,3.3l4.6-17.5 c-7.8-1.8-15.6-3.1-23.5-3.8C211,29.5,207.6,29.2,204.3,29.1z" class="st0"/><path d="M35.3,279.5c-7.2-14.7-12.4-30.3-15.4-46.4l-18.9,3c3.3,18.2,9.2,35.9,17.4,52.4L35.3,279.5z" class="st0"/><path d="M25.6,97.5l16.8,9.3C50.8,92.8,61,80,72.8,68.6L60,54.4C46.6,67.1,35,81.6,25.6,97.5z" class="st0"/><path d="M1.8,159.2l18.8,3.3c3.3-16.1,8.9-31.6,16.4-46.2l-16.8-9.3C11.7,123.6,5.5,141.1,1.8,159.2z" class="st0"/><path d="M124.6,13l7.5,17.6c15.3-6,31.3-9.9,47.6-11.5L178.4,0C159.9,1.7,141.9,6.1,124.6,13z" class="st0"/><path d="M68.1,47l12.8,14.3c12.5-10.6,26.4-19.5,41.2-26.4l-7.5-17.6C97.8,24.9,82.1,35,68.1,47z" class="st0"/><path d="M352,328.7l-15-12c-10.6,12.5-22.9,23.5-36.4,32.8l10.3,16.2C326.3,355.4,340.1,343,352,328.7z" class="st0"/><path d="M118.8,362.8c-14.7-7.2-28.4-16.4-40.7-27.3l-13.1,14c13.8,12.4,29.3,22.6,45.9,30.7L118.8,362.8z" class="st0"/><path d="M398.1,218.3c2.5-25.8-0.2-51.9-7.7-76.6l-18.2,6c10.5,35.2,10.1,72.6-1,107.5l18.1,6.4 C393.8,247.6,396.8,233.1,398.1,218.3z" class="st0"/><path d="M286.4,345.8l-9.7-15.2c-12,7.1-24.8,12.7-38.2,16.4l4.3,17.6C258.1,360.3,272.7,354,286.4,345.8z" class="st0"/><path d="M49.1,218.8c-1.3-11.2-1.5-22.6-0.4-34c0.2-2.8,0.6-5.1,1-7.6l-17.8-3.2c-0.4,3-0.8,6-1.1,9.1 c-1.2,12.7-1,25.7,0.6,38.4L49.1,218.8z" class="st0"/><path d="M249.9,25.6c15.8,4.6,30.8,11.4,44.7,20.1l10.7-16c-15.7-9.9-32.6-17.5-50.4-22.7L249.9,25.6z" class="st0"/><path d="M172,398.5l1.8-19.1c-15.4-2.1-30.6-6.2-45-12.1l-8,17.6C137.2,391.6,154.5,396.2,172,398.5z" class="st0"/><path d="M78.2,320.9l12.4-13.1c-9.8-9.9-18.3-21-25.2-33.1l-16.1,8.5C57.2,296.9,67,309.6,78.2,320.9z" class="st0"/><path d="M314.3,35.9l-10.8,16c13.4,9.5,25.3,20.8,35.7,33.6l15.4-11.7C343,59.2,329.4,46.6,314.3,35.9z" class="st0"/><path d="M332.7,301.5c9.5-12.7,17.3-26.7,23-41.6l-17-6.1c-5.1,13-11.9,25.3-20.2,36.4L332.7,301.5z" class="st0"/><path d="M346.8,156.1l-17.1,5.7c4.8,16.4,6.3,33.6,4.8,50.5c-0.9,9.4-2.7,18.8-5.5,27.9l17,6 c3.2-10.5,5.5-21.3,6.5-32.2C354.4,194.5,352.4,174.9,346.8,156.1z" class="st1"/><path d="M176.3,352.8l1.7-18c-10.5-1.6-20.9-4.4-30.8-8.3l-7.4,16.4C151.5,347.6,163.7,351,176.3,352.8z" class="st1"/><path d="M300.3,161.3l16.2-5.5c-3.9-10.2-9-20-15.4-29l-13.5,10.3C292.8,144.7,297,152.8,300.3,161.3z" class="st1"/><path d="M202.6,73.9h-8.9l1.2,16.9c9.1-0.2,18.1,0.6,27.1,2.5l4.4-16.4c-5.4-1.2-10.8-2.1-16.2-2.5 C207.7,74.2,205.1,74,202.6,73.9z" class="st1"/><path d="M65.7,119.9l15.8,8.8c5.9-9.8,13.1-18.8,21.3-26.8L90.7,88.4C81,97.8,72.6,108.3,65.7,119.9z" class="st1"/><path d="M238.5,69c10.9,3.3,21.5,8.1,31.2,14l10.1-15c-11.4-7-23.8-12.5-36.6-16.4L238.5,69z" class="st1"/><path d="M303.5,112.5l14.3-10.9c-8.5-10.5-18.4-19.7-29.2-27.6l-10.1,15C287.9,95.8,296.3,103.6,303.5,112.5z" class="st1"/><path d="M284.2,263l13.3,10.6c6.5-8.9,11.8-18.4,15.9-28.7l-16-5.7C294,247.6,289.5,255.6,284.2,263z" class="st1"/><path d="M108.8,303l-12.4,13.1c10.1,8.9,21.3,16.4,33.4,22.3l7.4-16.4C127,317,117.4,310.5,108.8,303z" class="st1"/><path d="M92.4,212c-0.8-7.7-0.9-15.4-0.2-23.1c0.2-1.3,0.3-2.8,0.5-4l-16.7-3c-0.2,1.8-0.5,3.6-0.6,5.5 c-0.9,9.1-0.7,18.2,0.2,27.3L92.4,212z" class="st1"/><path d="M64.2,226.1l-17.9,2.8c2.5,13.2,6.8,26.1,12.7,38.2l16-8.5C70,248.3,66.4,237.3,64.2,226.1z" class="st1"/><path d="M276.5,311.8l9.7,15.2c11.1-7.6,21.1-16.6,29.8-26.8L301.9,289C294.4,297.7,285.9,305.4,276.5,311.8z" class="st1"/><path d="M76.2,138.2l-15.8-8.7c-6.2,12-10.7,24.7-13.5,37.8l17.8,3.2C67.2,159.2,71,148.4,76.2,138.2z" class="st1"/><path d="M228.1,304.4l4,16.4c10.5-3,20.7-7.3,30.2-12.8l-9.2-14.3C245.2,298.2,236.8,301.8,228.1,304.4z" class="st1"/><path d="M104.1,254.2l-15,7.8c5.5,9.5,12.2,18.2,19.9,26l11.7-12.4C114.3,269.2,108.8,262,104.1,254.2z" class="st1"/><path d="M193.3,336.2c-1.5,0-3-0.2-4.5-0.3l-1.7,18c14.2,1,28.4,0.1,42.3-2.8l-4.2-17.6 C214.8,335.8,204,336.6,193.3,336.2z" class="st1"/><path d="M98.8,81.1l12.1,13.4c8.8-7.4,18.4-13.5,28.8-18.4l-7.1-16.6C120.4,65.2,109.1,72.4,98.8,81.1z" class="st1"/><path d="M142.7,55.2l7.1,16.6c10.7-4.1,21.9-6.9,33.3-8.2l-1.3-18.1C168.3,47.1,155.2,50.3,142.7,55.2z" class="st1"/><path d="M188.3,399.9c17,0.6,34-0.9,50.8-4.1l-4-18.4c-14.5,3-29.3,4.2-44.2,3.6c-2.4,0-4.1-0.3-6.5-0.5l-1.7,19.3 C184.6,399.9,186.5,399.9,188.3,399.9L188.3,399.9z" class="st0"/></g></svg>