<?xml version="1.0" encoding="utf-8"?>
<!-- Generator: Adobe Illustrator 21.0.0, SVG Export Plug-In . SVG Version: 6.00 Build 0)  -->
<svg version="1.1" id="Layer_1" xmlns:sketch="http://www.bohemiancoding.com/sketch/ns"
	 xmlns="http://www.w3.org/2000/svg" xmlns:xlink="http://www.w3.org/1999/xlink" x="0px" y="0px" viewBox="0 0 461 100"
	 style="enable-background:new 0 0 461 100;" xml:space="preserve">
<style type="text/css">
	.st0{fill:#0081C9;}
</style>
<title>Imported Layers</title>
<desc>Created with Sketch.</desc>
<g id="Page-1" sketch:type="MSPage">
	<g id="Imported-Layers" sketch:type="MSLayerGroup">
		<path id="Fill-1" sketch:type="MSShapeGroup" class="st0" d="M29.9,100C14.9,100,0.2,89.2,0.2,64.7c0-24.5,14.7-35.2,29.8-35.2
			c7.4,0,13.2,1.9,17.3,4.6l-4.5,9.9c-2.8-2-6.9-3.3-11.1-3.3c-9,0-17.3,7.2-17.3,23.7s8.5,23.9,17.3,23.9c4.1,0,8.3-1.3,11.1-3.3
			l4.5,10.2C43,98.2,37.4,100,29.9,100"/>
		<path id="Fill-2" sketch:type="MSShapeGroup" class="st0" d="M81.8,100C62.6,100,52,84.8,52,64.7c0-20.1,10.6-35.2,29.8-35.2
			c19.2,0,29.8,15.1,29.8,35.2C111.6,84.8,101,100,81.8,100L81.8,100z M81.8,40.5c-10.7,0-16,9.5-16,24.1c0,14.6,5.3,24.2,16,24.2
			c10.7,0,16-9.7,16-24.2C97.8,50,92.5,40.5,81.8,40.5L81.8,40.5z"/>
		<path id="Fill-3" sketch:type="MSShapeGroup" class="st0" d="M130.1,18.6c-4.5,0-8.2-3.5-8.2-7.8s3.6-7.8,8.2-7.8
			c4.5,0,8.2,3.5,8.2,7.8S134.6,18.6,130.1,18.6L130.1,18.6z M123.2,30.9H137v67.7h-13.8V30.9z"/>
		<path id="Fill-4" sketch:type="MSShapeGroup" class="st0" d="M191.4,98.6V53.4c0-7.9-4.8-12.8-14.2-12.8c-5,0-9.7,0.9-12.4,2v56
			H151V34.3c6.8-2.8,15.5-4.8,26-4.8c19,0,28.1,8.3,28.1,22.6v46.5H191.4"/>
		<path id="Fill-5" sketch:type="MSShapeGroup" class="st0" d="M241.6,100c-8.8,0-17.5-2.1-22.7-4.8V0h13.7v32.7
			c3.3-1.5,8.5-2.8,13.2-2.8c17.5,0,29.3,12.6,29.3,33.3C275,88.7,261.8,100,241.6,100L241.6,100z M243.4,40.6
			c-3.8,0-8.2,0.9-10.8,2.3v44.5c2,0.9,5.9,1.8,9.8,1.8c10.9,0,19-7.5,19-24.9C261.3,49.4,254.3,40.6,243.4,40.6L243.4,40.6z"/>
		<path id="Fill-6" sketch:type="MSShapeGroup" class="st0" d="M312.3,100c-19.5,0-29.3-7.9-29.3-21.2c0-18.8,20.1-22.2,40.6-23.4
			v-4.3c0-8.5-5.7-11.6-14.3-11.6c-6.4,0-14.2,2-18.7,4.1l-3.5-9.4c5.4-2.4,14.6-4.8,23.6-4.8c16.2,0,26,6.3,26,23v42.7
			C331.8,97.9,321.9,100,312.3,100L312.3,100z M323.7,64.6c-13.8,0.8-27.6,1.9-27.6,13.9c0,7.2,5.5,11.6,16,11.6
			c4.4,0,9.5-0.8,11.7-1.8V64.6L323.7,64.6z"/>
		<path id="Fill-7" sketch:type="MSShapeGroup" class="st0" d="M367.6,100c-7.9,0-16.2-2.1-21.1-4.8l4.6-10.6
			c3.5,2.1,10.9,4.4,16.1,4.4c7.4,0,12.3-3.6,12.3-9.3c0-6.2-5.2-8.5-12.1-11.1c-9-3.4-19.2-7.5-19.2-20.2c0-11.2,8.7-19,23.7-19
			c8.2,0,14.9,2,19.7,4.8l-4.3,9.5c-3-1.9-9-4-13.9-4c-7.2,0-11.2,3.8-11.2,8.7c0,6.2,5,8.3,11.7,10.8c9.4,3.5,19.8,7.4,19.8,20.6
			C393.9,92.1,384.6,100,367.6,100"/>
		<path id="Fill-8" sketch:type="MSShapeGroup" class="st0" d="M460.7,64.4l-45,6.3c1.4,12.2,9.3,18.3,20.7,18.3
			c6.8,0,14.1-1.6,18.7-4.1l4,10.3c-5.3,2.8-14.3,4.8-23.6,4.8c-21.4,0-33.3-13.7-33.3-35.3c0-20.7,11.6-35.2,30.5-35.2
			c17.6,0,28,11.6,28,29.8C460.8,60.9,460.8,62.7,460.7,64.4L460.7,64.4z M432.6,39.6c-10.6,0-17.5,8-17.7,22.1l32.8-4.5
			C447.5,45.4,441.6,39.6,432.6,39.6L432.6,39.6z"/>
	</g>
</g>
</svg>
