<?xml version="1.0" encoding="utf-8"?>
<!-- Generator: Adobe Illustrator 21.0.0, SVG Export Plug-In . SVG Version: 6.00 Build 0)  -->
<svg version="1.1" id="Layer_1" xmlns="http://www.w3.org/2000/svg" xmlns:xlink="http://www.w3.org/1999/xlink" x="0px" y="0px"
	 viewBox="0 0 490 490" style="enable-background:new 0 0 490 490;" xml:space="preserve">
<style type="text/css">
	.st0{opacity:0.68;}
	.st1{opacity:0;fill:#FFFFFF;}
	.st2{opacity:1.960800e-02;fill:#FCFCFF;}
	.st3{opacity:3.921600e-02;fill:#F8F9FF;}
	.st4{opacity:5.882400e-02;fill:#F5F6FF;}
	.st5{opacity:7.843100e-02;fill:#F2F4FF;}
	.st6{opacity:9.803900e-02;fill:#EEF1FF;}
	.st7{opacity:0.1176;fill:#EBEEFF;}
	.st8{opacity:0.1373;fill:#E7EBFF;}
	.st9{opacity:0.1569;fill:#E4E8FF;}
	.st10{opacity:0.1765;fill:#E1E5FF;}
	.st11{opacity:0.1961;fill:#DDE2FF;}
	.st12{opacity:0.2157;fill:#DAE0FF;}
	.st13{opacity:0.2353;fill:#D7DDFF;}
	.st14{opacity:0.2549;fill:#D3DAFF;}
	.st15{opacity:0.2745;fill:#D0D7FF;}
	.st16{opacity:0.2941;fill:#CCD4FF;}
	.st17{opacity:0.3137;fill:#C9D1FF;}
	.st18{opacity:0.3333;fill:#C6CEFF;}
	.st19{opacity:0.3529;fill:#C2CBFF;}
	.st20{opacity:0.3725;fill:#BFC9FF;}
	.st21{opacity:0.3922;fill:#BCC6FF;}
	.st22{opacity:0.4118;fill:#B8C3FF;}
	.st23{opacity:0.4314;fill:#B5C0FF;}
	.st24{opacity:0.451;fill:#B1BDFF;}
	.st25{opacity:0.4706;fill:#AEBAFF;}
	.st26{opacity:0.4902;fill:#ABB7FF;}
	.st27{opacity:0.5098;fill:#A7B5FE;}
	.st28{opacity:0.5294;fill:#A4B2FE;}
	.st29{opacity:0.549;fill:#A1AFFE;}
	.st30{opacity:0.5686;fill:#9DACFE;}
	.st31{opacity:0.5882;fill:#9AA9FE;}
	.st32{opacity:0.6078;fill:#96A6FE;}
	.st33{opacity:0.6275;fill:#93A3FE;}
	.st34{opacity:0.6471;fill:#90A1FE;}
	.st35{opacity:0.6667;fill:#8C9EFE;}
	.st36{opacity:0.6863;fill:#899BFE;}
	.st37{opacity:0.7059;fill:#8698FE;}
	.st38{opacity:0.7255;fill:#8295FE;}
	.st39{opacity:0.7451;fill:#7F92FE;}
	.st40{opacity:0.7647;fill:#7B8FFE;}
	.st41{opacity:0.7843;fill:#788CFE;}
	.st42{opacity:0.8039;fill:#758AFE;}
	.st43{opacity:0.8235;fill:#7187FE;}
	.st44{opacity:0.8431;fill:#6E84FE;}
	.st45{opacity:0.8627;fill:#6B81FE;}
	.st46{opacity:0.8824;fill:#677EFE;}
	.st47{opacity:0.902;fill:#647BFE;}
	.st48{opacity:0.9216;fill:#6078FE;}
	.st49{opacity:0.9412;fill:#5D76FE;}
	.st50{opacity:0.9608;fill:#5A73FE;}
	.st51{opacity:0.9804;fill:#5670FE;}
	.st52{fill:#536DFE;}
	.st53{fill:url(#SVGID_1_);}
	.st54{fill:url(#XMLID_2_);}
	.st55{fill:url(#XMLID_3_);}
	.st56{display:none;fill:url(#XMLID_4_);}
	.st57{fill:url(#XMLID_5_);}
	.st58{fill:url(#XMLID_6_);}
	.st59{fill:#1D073F;}
	.st60{fill:url(#XMLID_7_);}
	.st61{fill:url(#XMLID_8_);}
	.st62{clip-path:url(#XMLID_9_);fill:url(#XMLID_10_);}
	.st63{fill:url(#SVGID_2_);}
	.st64{fill:url(#SVGID_3_);}
	.st65{fill:url(#SVGID_4_);}
	.st66{fill:#CC8636;}
	.st67{fill:#FFA744;}
	.st68{fill:url(#SVGID_5_);}
	.st69{fill:url(#SVGID_6_);}
	.st70{fill:url(#SVGID_7_);}
	.st71{fill:url(#SVGID_8_);}
	.st72{fill:url(#SVGID_9_);}
	.st73{fill:url(#SVGID_10_);}
	.st74{fill:url(#SVGID_11_);}
	.st75{fill:url(#SVGID_12_);}
	.st76{fill:url(#SVGID_13_);}
	.st77{fill:url(#SVGID_14_);}
	.st78{fill:url(#SVGID_15_);}
	.st79{fill:url(#SVGID_16_);}
	.st80{fill:url(#SVGID_17_);}
	.st81{fill:url(#SVGID_18_);}
	.st82{fill:url(#SVGID_19_);}
	.st83{fill:url(#SVGID_20_);}
	.st84{fill:url(#SVGID_21_);}
	.st85{fill:url(#SVGID_22_);}
	.st86{fill:url(#SVGID_23_);}
	.st87{fill:url(#SVGID_24_);}
	.st88{fill:url(#SVGID_25_);}
	.st89{fill:none;stroke:url(#XMLID_11_);stroke-miterlimit:10;}
	.st90{opacity:0.8;fill:none;stroke:url(#XMLID_13_);stroke-miterlimit:10;}
	.st91{opacity:0.6;fill:none;stroke:url(#XMLID_15_);stroke-miterlimit:10;}
	.st92{opacity:0.4;fill:none;stroke:url(#XMLID_16_);stroke-miterlimit:10;}
	.st93{opacity:0.2;fill:none;stroke:url(#XMLID_17_);stroke-miterlimit:10;}
	.st94{fill:url(#SVGID_26_);}
	.st95{fill:url(#SVGID_27_);}
	.st96{fill:url(#XMLID_18_);}
	.st97{fill:url(#XMLID_19_);}
	.st98{fill:url(#XMLID_20_);}
	.st99{fill:url(#XMLID_21_);}
	.st100{fill:url(#XMLID_22_);}
	.st101{fill:url(#XMLID_23_);}
	.st102{fill:#48486A;}
	.st103{fill:#343434;}
	.st104{fill:#8C8C8C;}
	.st105{fill:#3C3C3B;}
	.st106{fill:#141414;}
	.st107{fill:#393939;}
	.st108{fill:url(#XMLID_25_);}
	.st109{clip-path:url(#XMLID_26_);fill:url(#XMLID_27_);}
	.st110{fill:none;stroke:url(#XMLID_29_);stroke-miterlimit:10;}
	.st111{opacity:0.8;fill:none;stroke:url(#XMLID_30_);stroke-miterlimit:10;}
	.st112{opacity:0.6;fill:none;stroke:url(#XMLID_31_);stroke-miterlimit:10;}
	.st113{opacity:0.4;fill:none;stroke:url(#XMLID_32_);stroke-miterlimit:10;}
	.st114{opacity:0.2;fill:none;stroke:url(#XMLID_33_);stroke-miterlimit:10;}
	.st115{opacity:0.15;fill:none;stroke:url(#XMLID_35_);stroke-miterlimit:10;}
	.st116{opacity:0.1;fill:none;stroke:url(#XMLID_36_);stroke-miterlimit:10;}
</style>
<g>
	<g>
		<g>
			<g>
				<g class="st0">
					<path id="XMLID_18318_" class="st1" d="M322,183.7c-17.6-10.1-46.3-10.1-63.9,0l-154.9,89.4c-17.6,10.1-17.6,26.8,0,36.9
						L258,399.4c17.6,10.1,46.3,10.1,63.9,0L476.8,310c17.6-10.1,17.6-26.8,0-36.9L322,183.7z"/>
					<path class="st2" d="M321.8,184.2c-17.5-10.1-46.1-10.1-63.6,0l-154.1,89c-17.5,10.1-17.5,26.6,0,36.7l154.1,89
						c17.5,10.1,46.1,10.1,63.6,0l154.1-89c17.5-10.1,17.5-26.6,0-36.7L321.8,184.2z"/>
					<path class="st3" d="M321.7,184.7c-17.4-10.1-45.9-10.1-63.3,0L105,273.3c-17.4,10.1-17.4,26.5,0,36.6l153.4,88.5
						c17.4,10.1,45.9,10.1,63.3,0L475,309.8c17.4-10.1,17.4-26.5,0-36.6L321.7,184.7z"/>
					<path class="st4" d="M321.5,185.2c-17.3-10-45.7-10-63,0l-152.6,88.1c-17.3,10-17.3,26.4,0,36.4l152.6,88.1
						c17.3,10,45.7,10,63,0l152.6-88.1c17.3-10,17.3-26.4,0-36.4L321.5,185.2z"/>
					<path class="st5" d="M321.3,185.8c-17.2-10-45.5-10-62.7,0l-151.9,87.7c-17.2,10-17.2,26.2,0,36.2l151.9,87.7
						c17.2,10,45.5,10,62.7,0l151.9-87.7c17.2-10,17.2-26.2,0-36.2L321.3,185.8z"/>
					<path class="st6" d="M321.2,186.3c-17.2-9.9-45.2-9.9-62.4,0l-151.1,87.3c-17.2,9.9-17.2,26.1,0,36l151.1,87.3
						c17.2,9.9,45.2,9.9,62.4,0l151.1-87.3c17.2-9.9,17.2-26.1,0-36L321.2,186.3z"/>
					<path class="st7" d="M321,186.8c-17.1-9.9-45-9.9-62.1,0l-150.4,86.8c-17.1,9.9-17.1,26,0,35.8L259,396.3
						c17.1,9.9,45,9.9,62.1,0l150.4-86.8c17.1-9.9,17.1-26,0-35.8L321,186.8z"/>
					<path class="st8" d="M320.9,187.3c-17-9.8-44.8-9.8-61.8,0l-149.7,86.4c-17,9.8-17,25.9,0,35.7l149.7,86.4
						c17,9.8,44.8,9.8,61.8,0l149.7-86.4c17-9.8,17-25.9,0-35.7L320.9,187.3z"/>
					<path class="st9" d="M320.7,187.8c-16.9-9.8-44.6-9.8-61.5,0l-148.9,86c-16.9,9.8-16.9,25.7,0,35.5l148.9,86
						c16.9,9.8,44.6,9.8,61.5,0l148.9-86c16.9-9.8,16.9-25.7,0-35.5L320.7,187.8z"/>
					<path class="st10" d="M320.6,188.3c-16.8-9.7-44.3-9.7-61.2,0l-148.2,85.5c-16.8,9.7-16.8,25.6,0,35.3l148.2,85.5
						c16.8,9.7,44.3,9.7,61.2,0l148.2-85.5c16.8-9.7,16.8-25.6,0-35.3L320.6,188.3z"/>
					<path class="st11" d="M320.4,188.9c-16.7-9.7-44.1-9.7-60.9,0L112.1,274c-16.7,9.7-16.7,25.5,0,35.1l147.4,85.1
						c16.7,9.7,44.1,9.7,60.9,0l147.4-85.1c16.7-9.7,16.7-25.5,0-35.1L320.4,188.9z"/>
					<path class="st12" d="M320.3,189.4c-16.7-9.6-43.9-9.6-60.5,0L113,274.1c-16.6,9.6-16.6,25.3,0,35l146.7,84.7
						c16.6,9.6,43.9,9.6,60.5,0L467,309c16.7-9.6,16.7-25.3,0-35L320.3,189.4z"/>
					<path class="st13" d="M320.1,189.9c-16.6-9.6-43.7-9.6-60.2,0l-145.9,84.3c-16.6,9.6-16.6,25.2,0,34.8l145.9,84.3
						c16.6,9.6,43.7,9.6,60.2,0l145.9-84.3c16.6-9.6,16.6-25.2,0-34.8L320.1,189.9z"/>
					<path class="st14" d="M320,190.4c-16.5-9.5-43.5-9.5-59.9,0l-145.2,83.8c-16.5,9.5-16.5,25.1,0,34.6L260,392.7
						c16.5,9.5,43.5,9.5,59.9,0l145.2-83.8c16.5-9.5,16.5-25.1,0-34.6L320,190.4z"/>
					<path class="st15" d="M319.8,190.9c-16.4-9.5-43.2-9.5-59.6,0l-144.5,83.4c-16.4,9.5-16.4,25,0,34.4l144.5,83.4
						c16.4,9.5,43.2,9.5,59.6,0l144.5-83.4c16.4-9.5,16.4-25,0-34.4L319.8,190.9z"/>
					<path class="st16" d="M319.7,191.5c-16.3-9.4-43-9.4-59.3,0l-143.7,83c-16.3,9.4-16.3,24.8,0,34.2l143.7,83
						c16.3,9.4,43,9.4,59.3,0l143.7-83c16.3-9.4,16.3-24.8,0-34.2L319.7,191.5z"/>
					<path class="st17" d="M319.5,192c-16.2-9.4-42.8-9.4-59,0l-143,82.5c-16.2,9.4-16.2,24.7,0,34.1l143,82.5
						c16.2,9.4,42.8,9.4,59,0l143-82.5c16.2-9.4,16.2-24.7,0-34.1L319.5,192z"/>
					<path class="st18" d="M319.4,192.5c-16.1-9.3-42.6-9.3-58.7,0l-142.2,82.1c-16.1,9.3-16.1,24.6,0,33.9l142.2,82.1
						c16.1,9.3,42.6,9.3,58.7,0l142.2-82.1c16.1-9.3,16.1-24.6,0-33.9L319.4,192.5z"/>
					<path class="st19" d="M319.2,193c-16.1-9.3-42.3-9.3-58.4,0l-141.5,81.7c-16.1,9.3-16.1,24.4,0,33.7l141.5,81.7
						c16.1,9.3,42.3,9.3,58.4,0l141.5-81.7c16.1-9.3,16.1-24.4,0-33.7L319.2,193z"/>
					<path class="st20" d="M319,193.5c-16-9.2-42.1-9.2-58.1,0l-140.7,81.3c-16,9.2-16,24.3,0,33.5L261,389.6
						c16,9.2,42.1,9.2,58.1,0l140.7-81.3c16-9.2,16-24.3,0-33.5L319,193.5z"/>
					<path class="st21" d="M318.9,194c-15.9-9.2-41.9-9.2-57.8,0l-140,80.8c-15.9,9.2-15.9,24.2,0,33.4l140,80.8
						c15.9,9.2,41.9,9.2,57.8,0l140-80.8c15.9-9.2,15.9-24.2,0-33.4L318.9,194z"/>
					<path class="st22" d="M318.7,194.6c-15.8-9.1-41.7-9.1-57.5,0L122,275c-15.8,9.1-15.8,24.1,0,33.2l139.3,80.4
						c15.8,9.1,41.7,9.1,57.5,0L458,308.1c15.8-9.1,15.8-24.1,0-33.2L318.7,194.6z"/>
					<path class="st23" d="M318.6,195.1c-15.7-9.1-41.5-9.1-57.2,0l-138.5,80c-15.7,9.1-15.7,23.9,0,33l138.5,80
						c15.7,9.1,41.5,9.1,57.2,0l138.5-80c15.7-9.1,15.7-23.9,0-33L318.6,195.1z"/>
					<path class="st24" d="M318.4,195.6c-15.6-9-41.2-9-56.9,0l-137.8,79.5c-15.6,9-15.6,23.8,0,32.8l137.8,79.5
						c15.6,9,41.2,9,56.9,0L456.2,308c15.6-9,15.6-23.8,0-32.8L318.4,195.6z"/>
					<path class="st25" d="M318.3,196.1c-15.6-9-41-9-56.6,0l-137,79.1c-15.6,9-15.6,23.7,0,32.7l137,79.1c15.6,9,41,9,56.6,0
						l137-79.1c15.6-9,15.6-23.7,0-32.7L318.3,196.1z"/>
					<path class="st26" d="M318.1,196.6c-15.5-8.9-40.8-8.9-56.3,0l-136.3,78.7c-15.5,8.9-15.5,23.5,0,32.5l136.3,78.7
						c15.5,8.9,40.8,8.9,56.3,0l136.3-78.7c15.5-8.9,15.5-23.5,0-32.5L318.1,196.6z"/>
					<path class="st27" d="M318,197.1c-15.4-8.9-40.6-8.9-55.9,0l-135.5,78.3c-15.4,8.9-15.4,23.4,0,32.3L262,386
						c15.4,8.9,40.6,8.9,55.9,0l135.5-78.3c15.4-8.9,15.4-23.4,0-32.3L318,197.1z"/>
					<path class="st28" d="M317.8,197.7c-15.3-8.8-40.3-8.8-55.6,0l-134.8,77.8c-15.3,8.8-15.3,23.3,0,32.1l134.8,77.8
						c15.3,8.8,40.3,8.8,55.6,0l134.8-77.8c15.3-8.8,15.3-23.3,0-32.1L317.8,197.7z"/>
					<path class="st29" d="M317.7,198.2c-15.2-8.8-40.1-8.8-55.3,0l-134.1,77.4c-15.2,8.8-15.2,23.2,0,31.9l134.1,77.4
						c15.2,8.8,40.1,8.8,55.3,0l134.1-77.4c15.2-8.8,15.2-23.2,0-31.9L317.7,198.2z"/>
					<path class="st30" d="M317.5,198.7c-15.1-8.7-39.9-8.7-55,0l-133.3,77c-15.1,8.7-15.1,23,0,31.8l133.3,77
						c15.1,8.7,39.9,8.7,55,0l133.3-77c15.1-8.7,15.1-23,0-31.8L317.5,198.7z"/>
					<path class="st31" d="M317.4,199.2c-15-8.7-39.7-8.7-54.7,0l-132.6,76.5c-15,8.7-15,22.9,0,31.6l132.6,76.5
						c15,8.7,39.7,8.7,54.7,0l132.6-76.5c15-8.7,15-22.9,0-31.6L317.4,199.2z"/>
					<path class="st32" d="M317.2,199.7c-15-8.6-39.5-8.6-54.4,0L131,275.8c-15,8.6-15,22.8,0,31.4l131.8,76.1
						c15,8.6,39.4,8.6,54.4,0L449,307.3c15-8.6,15-22.8,0-31.4L317.2,199.7z"/>
					<path class="st33" d="M317.1,200.3c-14.9-8.6-39.2-8.6-54.1,0l-131.1,75.7c-14.9,8.6-14.9,22.6,0,31.2l131.1,75.7
						c14.9,8.6,39.2,8.6,54.1,0l131.1-75.7c14.9-8.6,14.9-22.6,0-31.2L317.1,200.3z"/>
					<path class="st34" d="M316.9,200.8c-14.8-8.5-39-8.5-53.8,0L132.8,276c-14.8,8.5-14.8,22.5,0,31.1l130.3,75.3
						c14.8,8.5,39,8.5,53.8,0l130.3-75.3c14.8-8.5,14.8-22.5,0-31.1L316.9,200.8z"/>
					<path class="st35" d="M316.7,201.3c-14.7-8.5-38.8-8.5-53.5,0l-129.6,74.8c-14.7,8.5-14.7,22.4,0,30.9l129.6,74.8
						c14.7,8.5,38.8,8.5,53.5,0L446.3,307c14.7-8.5,14.7-22.4,0-30.9L316.7,201.3z"/>
					<path class="st36" d="M316.6,201.8c-14.6-8.4-38.6-8.4-53.2,0l-128.9,74.4c-14.6,8.4-14.6,22.3,0,30.7l128.9,74.4
						c14.6,8.4,38.6,8.4,53.2,0l128.9-74.4c14.6-8.4,14.6-22.3,0-30.7L316.6,201.8z"/>
					<path class="st37" d="M316.4,202.3c-14.5-8.4-38.3-8.4-52.9,0l-128.1,74c-14.5,8.4-14.5,22.1,0,30.5l128.1,74
						c14.5,8.4,38.3,8.4,52.9,0l128.1-74c14.5-8.4,14.5-22.1,0-30.5L316.4,202.3z"/>
					<path class="st38" d="M316.3,202.8c-14.5-8.3-38.1-8.3-52.6,0l-127.4,73.5c-14.5,8.3-14.5,22,0,30.4l127.4,73.5
						c14.5,8.3,38.1,8.3,52.6,0l127.4-73.5c14.5-8.3,14.5-22,0-30.4L316.3,202.8z"/>
					<path class="st39" d="M316.1,203.4c-14.4-8.3-37.9-8.3-52.3,0l-126.6,73.1c-14.4,8.3-14.4,21.9,0,30.2l126.6,73.1
						c14.4,8.3,37.9,8.3,52.3,0l126.6-73.1c14.4-8.3,14.4-21.9,0-30.2L316.1,203.4z"/>
					<path class="st40" d="M316,203.9c-14.3-8.2-37.7-8.2-52,0l-125.9,72.7c-14.3,8.3-14.3,21.8,0,30L264,379.2
						c14.3,8.2,37.7,8.2,52,0l125.9-72.7c14.3-8.2,14.3-21.7,0-30L316,203.9z"/>
					<path class="st41" d="M315.8,204.4c-14.2-8.2-37.4-8.2-51.7,0L139,276.6c-14.2,8.2-14.2,21.6,0,29.8l125.1,72.2
						c14.2,8.2,37.4,8.2,51.7,0L441,306.5c14.2-8.2,14.2-21.6,0-29.8L315.8,204.4z"/>
					<path class="st42" d="M315.7,204.9c-14.1-8.2-37.2-8.2-51.3,0l-124.4,71.8c-14.1,8.2-14.1,21.5,0,29.6l124.4,71.8
						c14.1,8.2,37.2,8.2,51.3,0l124.4-71.8c14.1-8.2,14.1-21.5,0-29.6L315.7,204.9z"/>
					<path class="st43" d="M315.5,205.4c-14-8.1-37-8.1-51,0l-123.7,71.4c-14,8.1-14,21.4,0,29.5l123.7,71.4c14,8.1,37,8.1,51,0
						l123.7-71.4c14-8.1,14-21.4,0-29.5L315.5,205.4z"/>
					<path class="st44" d="M315.4,205.9c-14-8.1-36.8-8.1-50.7,0l-122.9,71c-14,8.1-14,21.2,0,29.3l122.9,71c14,8.1,36.8,8.1,50.7,0
						l122.9-71c14-8.1,14-21.2,0-29.3L315.4,205.9z"/>
					<path class="st45" d="M315.2,206.5c-13.9-8-36.6-8-50.4,0L142.6,277c-13.9,8-13.9,21.1,0,29.1l122.2,70.5c13.9,8,36.6,8,50.4,0
						l122.2-70.5c13.9-8,13.9-21.1,0-29.1L315.2,206.5z"/>
					<path class="st46" d="M315.1,207c-13.8-8-36.3-8-50.1,0l-121.4,70.1c-13.8,8-13.8,21,0,28.9l121.4,70.1c13.8,8,36.3,8,50.1,0
						L436.5,306c13.8-8,13.8-21,0-28.9L315.1,207z"/>
					<path class="st47" d="M314.9,207.5c-13.7-7.9-36.1-7.9-49.8,0l-120.7,69.7c-13.7,7.9-13.7,20.9,0,28.8l120.7,69.7
						c13.7,7.9,36.1,7.9,49.8,0l120.7-69.7c13.7-7.9,13.7-20.9,0-28.8L314.9,207.5z"/>
					<path class="st48" d="M314.8,208c-13.6-7.9-35.9-7.9-49.5,0l-119.9,69.2c-13.6,7.9-13.6,20.7,0,28.6l119.9,69.2
						c13.6,7.9,35.9,7.9,49.5,0l119.9-69.2c13.6-7.9,13.6-20.7,0-28.6L314.8,208z"/>
					<path class="st49" d="M314.6,208.5c-13.5-7.8-35.7-7.8-49.2,0l-119.2,68.8c-13.5,7.8-13.5,20.6,0,28.4l119.2,68.8
						c13.5,7.8,35.7,7.8,49.2,0l119.2-68.8c13.5-7.8,13.5-20.6,0-28.4L314.6,208.5z"/>
					<path class="st50" d="M314.4,209c-13.4-7.8-35.4-7.8-48.9,0l-118.5,68.4c-13.4,7.8-13.4,20.5,0,28.2l118.5,68.4
						c13.4,7.8,35.4,7.8,48.9,0l118.4-68.4c13.4-7.8,13.4-20.5,0-28.2L314.4,209z"/>
					<path class="st51" d="M314.3,209.6c-13.4-7.7-35.2-7.7-48.6,0l-117.7,68c-13.4,7.7-13.4,20.3,0,28.1l117.7,68
						c13.4,7.7,35.2,7.7,48.6,0l117.7-68c13.4-7.7,13.4-20.3,0-28.1L314.3,209.6z"/>
					<path id="XMLID_18317_" class="st52" d="M314.1,210.1c-13.3-7.7-35-7.7-48.3,0l-117,67.5c-13.3,7.7-13.3,20.2,0,27.9l117,67.5
						c13.3,7.7,35,7.7,48.3,0l117-67.5c13.3-7.7,13.3-20.2,0-27.9L314.1,210.1z"/>
				</g>
				<g>
					<linearGradient id="SVGID_1_" gradientUnits="userSpaceOnUse" x1="100.9516" y1="278.9617" x2="479.0484" y2="278.9617">
						<stop  offset="0" style="stop-color:#78727F"/>
						<stop  offset="0.47" style="stop-color:#B4ACBF"/>
						<stop  offset="0.4886" style="stop-color:#C3BACF"/>
						<stop  offset="0.5247" style="stop-color:#EADFF8"/>
						<stop  offset="0.53" style="stop-color:#F0E5FF"/>
					</linearGradient>
					<rect x="101" y="273.6" class="st53" width="378.1" height="10.8"/>
					<linearGradient id="XMLID_2_" gradientUnits="userSpaceOnUse" x1="100.9516" y1="284.3665" x2="479.0484" y2="284.3665">
						<stop  offset="0" style="stop-color:#78727F"/>
						<stop  offset="0.47" style="stop-color:#B4ACBF"/>
						<stop  offset="0.4886" style="stop-color:#C3BACF"/>
						<stop  offset="0.5247" style="stop-color:#EADFF8"/>
						<stop  offset="0.53" style="stop-color:#F0E5FF"/>
					</linearGradient>
					<path id="XMLID_18316_" class="st54" d="M282.4,175.2L104.7,277.9c-5,2.9-5,10.1,0,13l177.7,102.7c4.7,2.7,10.5,2.7,15.2,0
						l177.7-102.7c5-2.9,5-10.1,0-13L297.6,175.2C292.9,172.5,287.1,172.5,282.4,175.2z"/>
					<linearGradient id="XMLID_3_" gradientUnits="userSpaceOnUse" x1="100.9516" y1="273.5569" x2="479.0484" y2="273.5569">
						<stop  offset="0" style="stop-color:#F0E5FF"/>
						<stop  offset="1" style="stop-color:#FFFFFF"/>
					</linearGradient>
					<path id="XMLID_18315_" class="st55" d="M282.4,164.4L104.7,267.1c-5,2.9-5,10.1,0,13l177.7,102.7c4.7,2.7,10.5,2.7,15.2,0
						l177.7-102.7c5-2.9,5-10.1,0-13L297.6,164.4C292.9,161.7,287.1,161.7,282.4,164.4z"/>
				</g>
			</g>
			<g>
				<g>
					
						<radialGradient id="XMLID_4_" cx="290" cy="6187.4399" r="135.9344" gradientTransform="matrix(1 0 0 0.5816 0 -3325.0249)" gradientUnits="userSpaceOnUse">
						<stop  offset="0.7231" style="stop-color:#120426"/>
						<stop  offset="0.7488" style="stop-color:#3C2F4F;stop-opacity:0.9072"/>
						<stop  offset="0.7818" style="stop-color:#6B5F7D;stop-opacity:0.7878"/>
						<stop  offset="0.8159" style="stop-color:#9488A5;stop-opacity:0.6648"/>
						<stop  offset="0.8505" style="stop-color:#B5AAC6;stop-opacity:0.54"/>
						<stop  offset="0.8856" style="stop-color:#CFC4DF;stop-opacity:0.413"/>
						<stop  offset="0.9216" style="stop-color:#E2D6F1;stop-opacity:0.283"/>
						<stop  offset="0.959" style="stop-color:#ECE1FC;stop-opacity:0.148"/>
						<stop  offset="1" style="stop-color:#F0E5FF;stop-opacity:0"/>
					</radialGradient>
					<path id="XMLID_18314_" class="st56" d="M391.1,215.2c-55.6-32.1-146.7-32.1-202.3,0c-55.6,32.1-55.6,84.7,0,116.8
						c55.6,32.1,146.6,32.1,202.3,0C446.8,299.9,446.8,247.3,391.1,215.2z"/>
					<linearGradient id="XMLID_5_" gradientUnits="userSpaceOnUse" x1="172.5946" y1="272.5997" x2="407.4055" y2="272.5997">
						<stop  offset="0" style="stop-color:#B4ACBF"/>
						<stop  offset="0.5146" style="stop-color:#D1C8DE"/>
						<stop  offset="1" style="stop-color:#F0E5FF"/>
					</linearGradient>
					<path id="XMLID_18313_" class="st57" d="M373.1,224.6c-45.7-26.4-120.5-26.4-166.2,0c-45.7,26.4-45.7,69.6,0,96
						c45.7,26.4,120.5,26.4,166.2,0C418.8,294.2,418.8,251,373.1,224.6z"/>
					<linearGradient id="XMLID_6_" gradientUnits="userSpaceOnUse" x1="187.0378" y1="264.261" x2="392.9622" y2="264.261">
						<stop  offset="0" style="stop-color:#F0E5FF"/>
						<stop  offset="1" style="stop-color:#FFFFFF"/>
					</linearGradient>
					<path id="XMLID_18312_" class="st58" d="M362.9,222.2c-40.1-23.1-105.7-23.1-145.8,0c-40.1,23.1-40.1,61,0,84.2
						c40.1,23.1,105.7,23.1,145.8,0C403,283.2,403,245.3,362.9,222.2z"/>
				</g>
				<g>
					<path id="XMLID_18311_" class="st59" d="M375.9,242.8H367c-4-4.7-9.4-9.2-16.2-13.1c-33.4-19.3-88.2-19.3-121.6,0
						c-6.8,3.9-12.2,8.4-16.2,13.1h-8.7v11.7h0.1c-1.6,13.8,6.6,28,24.8,38.5c33.4,19.3,88.2,19.3,121.6,0
						c18.2-10.5,26.4-24.6,24.8-38.5h0.3V242.8z"/>
					<linearGradient id="XMLID_7_" gradientUnits="userSpaceOnUse" x1="204.1172" y1="244.1505" x2="375.8828" y2="244.1505">
						<stop  offset="0" style="stop-color:#2F1359"/>
						<stop  offset="1" style="stop-color:#491E8C"/>
					</linearGradient>
					<path id="XMLID_18310_" class="st60" d="M350.8,209c-33.4-19.3-88.2-19.3-121.6,0c-33.4,19.3-33.4,50.9,0,70.2
						c33.4,19.3,88.2,19.3,121.6,0C384.2,259.9,384.2,228.4,350.8,209z"/>
					<linearGradient id="XMLID_8_" gradientUnits="userSpaceOnUse" x1="290" y1="284.6067" x2="290" y2="56.7105">
						<stop  offset="0" style="stop-color:#C2A3FF"/>
						<stop  offset="1" style="stop-color:#F0E5FF;stop-opacity:0"/>
					</linearGradient>
					<path id="XMLID_18309_" class="st61" d="M220.2,56.9v187.4c0,10.3,6.8,20.7,20.4,28.6c27.2,15.7,71.7,15.7,98.9,0
						c13.6-7.9,20.4-18.2,20.4-28.6V56.7L220.2,56.9z"/>
					<path id="XMLID_18308_" class="st59" d="M339.5,215.7c-27.2-15.7-71.7-15.7-98.9,0c-27.2,15.7-27.2,41.4,0,57.1
						c27.2,15.7,71.7,15.7,98.9,0C366.6,257.1,366.6,231.4,339.5,215.7z"/>
					<g>
						<defs>
							<path id="XMLID_18305_" d="M339.5,215.7c-27.2-15.7-71.7-15.7-98.9,0c-27.2,15.7-27.2,41.4,0,57.1
								c27.2,15.7,71.7,15.7,98.9,0C366.6,257.1,366.6,231.4,339.5,215.7z"/>
						</defs>
						<clipPath id="XMLID_9_">
							<use xlink:href="#XMLID_18305_"  style="overflow:visible;"/>
						</clipPath>
						<radialGradient id="XMLID_10_" cx="290" cy="248.123" r="57.0321" gradientUnits="userSpaceOnUse">
							<stop  offset="0" style="stop-color:#FFFFFF"/>
							<stop  offset="1" style="stop-color:#C2A3FF"/>
						</radialGradient>
						<path id="XMLID_18307_" class="st62" d="M339.5,219.6c-27.2-15.7-71.7-15.7-98.9,0c-27.2,15.7-27.2,41.4,0,57.1
							c27.2,15.7,71.7,15.7,98.9,0C366.6,261,366.6,235.3,339.5,219.6z"/>
					</g>
					<g>
						<g>
							<g>
								<g>
									
										<linearGradient id="SVGID_2_" gradientUnits="userSpaceOnUse" x1="7898.728" y1="5316.1738" x2="7917.3872" y2="5361.188" gradientTransform="matrix(0.3829 -0.9238 0.9238 0.3829 -7642.3452 5391.8403)">
										<stop  offset="0" style="stop-color:#FFA744"/>
										<stop  offset="1" style="stop-color:#FFD4A3"/>
									</linearGradient>
									<path class="st63" d="M293.8,137.8c0.2,0.9,2,4.5,2.8,5.2c2,2.7,5.8,4.5,11.1,4.9c11.5,0.9,25.8-5.4,31.8-14
										c2.8-4,3.3-7.8,1.9-10.9c-0.1-0.3-1.8-4-1.8-4c-0.8-0.9-1.7-1.8-3-2.5c-2.1-1.5-5.1-2.4-8.7-2.7
										c-11.5-0.9-25.8,5.4-31.8,14C293.5,131.5,292.8,135,293.8,137.8z"/>
									<g>
										<linearGradient id="SVGID_3_" gradientUnits="userSpaceOnUse" x1="293.4085" y1="129.0501" x2="340.5508" y2="129.0501">
											<stop  offset="0" style="stop-color:#CC8636"/>
											<stop  offset="0.1974" style="stop-color:#E1943C"/>
											<stop  offset="0.4292" style="stop-color:#F29E40"/>
											<stop  offset="0.6834" style="stop-color:#FCA543"/>
											<stop  offset="1" style="stop-color:#FFA744"/>
										</linearGradient>
										<path class="st64" d="M325.7,113.4v0.9h0c0.7,0,1.4,0,2.1,0.1c5.6,0.4,9.6,2.5,11.2,5.8c1.4,2.8,0.7,6.4-1.8,10
											c-5.5,7.8-17.9,13.7-28.9,13.7c-0.7,0-1.4,0-2.1-0.1c-5.6-0.4-9.6-2.5-11.2-5.8c-1.4-2.8-0.7-6.4,1.8-10
											c5.5-7.8,17.9-13.7,28.9-13.7L325.7,113.4 M325.7,113.4c-11.1,0-24,6-29.6,14.1c-6,8.6-1.5,16.3,10,17.2
											c0.7,0.1,1.5,0.1,2.2,0.1c11.1,0,24-6,29.6-14.1c6-8.6,1.5-16.3-10-17.2C327.1,113.4,326.4,113.4,325.7,113.4L325.7,113.4
											z"/>
									</g>
									
										<linearGradient id="SVGID_4_" gradientUnits="userSpaceOnUse" x1="-5305.4458" y1="7206.3223" x2="-5310.1416" y2="7253.2295" gradientTransform="matrix(-9.971601e-02 0.9949 0.995 9.959931e-02 -7406.1787 4689.2466)">
										<stop  offset="0" style="stop-color:#FFD4A3"/>
										<stop  offset="1" style="stop-color:#FFEBD1"/>
									</linearGradient>
									<path class="st65" d="M295.8,126.8c6-8.6,20.2-14.9,31.8-14c11.5,0.9,16,8.6,10,17.2c-6,8.6-20.2,14.9-31.8,14
										C294.3,143.1,289.8,135.4,295.8,126.8z"/>
									<g>
										<path class="st66" d="M315.9,135.2c-1.7,0.8-3.4,1.1-5.1,1c-1.7-0.1-3.1-0.8-4.4-1.9l-3.9,1.8l-1-1.2l3.8-1.7
											c-1.2-1.6-1.8-3-1.7-4.4l3.8-1.7c-0.1,0.8,0,1.6,0.2,2.4c0.2,0.9,0.6,1.6,1,2.2l6.7-3l-0.1-1c-0.1-1.4,0.2-2.5,0.9-3.5
											c0.7-0.9,1.8-1.8,3.3-2.5c1.7-0.8,3.3-1,4.9-0.9c1.6,0.2,3,0.8,4.1,1.8l3-1.4l1,1.2l-3,1.3c0.9,1.3,1.4,2.7,1.4,4.2
											l-3.8,0.8c0-1.3-0.4-2.5-1-3.5l-6.6,3l0.1,0.9c0.1,1.6-0.2,2.8-0.8,3.7S317.3,134.5,315.9,135.2z M321.3,123.7
											c-0.7,0.3-1.2,0.7-1.4,1.1c-0.3,0.4-0.4,1-0.4,1.8l5.6-2.5c-0.5-0.4-1.1-0.7-1.8-0.7S322,123.4,321.3,123.7z M313.8,133.1
											c0.7-0.3,1.2-0.7,1.4-1.2c0.2-0.5,0.3-1.1,0.3-1.8l-5.7,2.6C311,133.7,312.4,133.8,313.8,133.1z"/>
									</g>
									<g>
										<path class="st67" d="M315.5,134c-1.7,0.8-3.4,1.1-5.1,1c-1.7-0.1-3.1-0.8-4.4-1.9l-3.9,1.8l-1-1.2l3.8-1.7
											c-1.2-1.6-1.8-3-1.7-4.4l3.8-1.7c-0.1,0.8,0,1.6,0.2,2.4c0.2,0.9,0.6,1.6,1,2.2l6.7-3l-0.1-1c-0.1-1.4,0.2-2.5,0.9-3.5
											c0.7-0.9,1.8-1.8,3.3-2.5c1.7-0.8,3.3-1,4.9-0.9s3,0.8,4.1,1.8l3-1.4l1,1.2l-3,1.3c0.9,1.3,1.4,2.7,1.4,4.2l-3.8,0.8
											c0-1.3-0.4-2.5-1-3.5l-6.6,3l0.1,0.9c0.1,1.6-0.2,2.8-0.8,3.7C317.9,132.6,316.9,133.4,315.5,134z M320.9,122.5
											c-0.7,0.3-1.2,0.7-1.4,1.1c-0.3,0.4-0.4,1-0.4,1.8l5.6-2.5c-0.5-0.4-1.1-0.7-1.8-0.7S321.6,122.2,320.9,122.5z M313.4,132
											c0.7-0.3,1.2-0.7,1.4-1.2s0.3-1.1,0.3-1.8l-5.7,2.6C310.6,132.5,311.9,132.6,313.4,132z"/>
									</g>
									<g>
										<linearGradient id="SVGID_5_" gradientUnits="userSpaceOnUse" x1="293.1389" y1="128.3396" x2="340.2811" y2="128.3396">
											<stop  offset="0" style="stop-color:#CC8636"/>
											<stop  offset="0.1974" style="stop-color:#E1943C"/>
											<stop  offset="0.4292" style="stop-color:#F29E40"/>
											<stop  offset="0.6834" style="stop-color:#FCA543"/>
											<stop  offset="1" style="stop-color:#FFA744"/>
										</linearGradient>
										<path class="st68" d="M325.4,112.6v0.9h0c0.7,0,1.4,0,2.1,0.1c5.6,0.4,9.6,2.5,11.2,5.8c1.4,2.8,0.7,6.4-1.8,10
											c-5.5,7.8-17.9,13.7-28.9,13.7c-0.7,0-1.4,0-2.1-0.1c-5.6-0.4-9.6-2.5-11.2-5.8c-1.4-2.8-0.7-6.4,1.8-10
											c5.5-7.8,17.9-13.7,28.9-13.7L325.4,112.6 M325.4,112.6c-11.1,0-24,6-29.6,14.1c-6,8.6-1.5,16.3,10,17.2
											c0.7,0.1,1.5,0.1,2.2,0.1c11.1,0,24-6,29.6-14.1c6-8.6,1.5-16.3-10-17.2C326.9,112.7,326.1,112.6,325.4,112.6L325.4,112.6
											z"/>
									</g>
								</g>
							</g>
						</g>
						<g>
							<g>
								<g>
									
										<linearGradient id="SVGID_6_" gradientUnits="userSpaceOnUse" x1="2407.2026" y1="2061.5713" x2="2368.1912" y2="2066.1414" gradientTransform="matrix(-0.9932 0.1163 0.1163 0.9932 2443.7532 -2274.0227)">
										<stop  offset="0" style="stop-color:#FFA744"/>
										<stop  offset="1" style="stop-color:#FFD4A3"/>
									</linearGradient>
									<path class="st69" d="M325.5,32.5c0.9,0.4,3.7,3.2,4.3,4.1c2,2.7,2.7,6.8,1.7,12c-2.3,11.3-12.2,23.3-22.2,26.8
										c-4.6,1.6-8.4,1.1-11-1.1c-0.3-0.2-3.4-2.9-3.4-2.9c-0.7-1-1.2-2.2-1.6-3.5c-0.8-2.4-1-5.5-0.2-9.1
										c2.3-11.3,12.2-23.3,22.2-26.8C319.5,30.5,323.1,30.8,325.5,32.5z"/>
									<g>
										<linearGradient id="SVGID_7_" gradientUnits="userSpaceOnUse" x1="292.2877" y1="52.4331" x2="329.2287" y2="52.4331">
											<stop  offset="0" style="stop-color:#CC8636"/>
											<stop  offset="0.1974" style="stop-color:#E1943C"/>
											<stop  offset="0.4292" style="stop-color:#F29E40"/>
											<stop  offset="0.6834" style="stop-color:#FCA543"/>
											<stop  offset="1" style="stop-color:#FFA744"/>
										</linearGradient>
										<path class="st70" d="M320,31.8c2.6,0,4.8,0.9,6.2,2.7c2.1,2.5,2.7,6.6,1.7,11.5c-2.3,11.1-11.9,22.8-21.6,26.1
											c-1.7,0.6-3.3,0.9-4.8,0.9c-2.6,0-4.8-0.9-6.2-2.7c-2.1-2.5-2.7-6.6-1.7-11.5c2.3-11.1,11.9-22.8,21.6-26.1
											C316.9,32.1,318.5,31.8,320,31.8 M320,31c-1.5,0-3.2,0.3-5,0.9c-9.9,3.4-19.9,15.4-22.2,26.8c-1.9,9.3,1.9,15.3,8.8,15.3
											c1.5,0,3.2-0.3,5-0.9c9.9-3.4,19.9-15.4,22.2-26.8C330.6,36.9,326.8,31,320,31L320,31z"/>
									</g>
									
										<linearGradient id="SVGID_8_" gradientUnits="userSpaceOnUse" x1="-987.4191" y1="2502.8281" x2="-951.0528" y2="2496.3425" gradientTransform="matrix(0.9844 0.1756 -0.1757 0.9844 1703.3787 -2238.5344)">
										<stop  offset="0" style="stop-color:#FFD4A3"/>
										<stop  offset="1" style="stop-color:#FFEBD1"/>
									</linearGradient>
									<path class="st71" d="M314.3,31.4c-9.9,3.4-19.9,15.4-22.2,26.8S296,76,306,72.5c9.9-3.4,19.9-15.4,22.2-26.8
										C330.4,34.4,324.3,28,314.3,31.4z"/>
									<g>
										<path class="st66" d="M312.1,58.5c-1.2,1.5-2.6,2.5-4.2,3.1c-1.6,0.6-3.2,0.7-4.8,0.2l-2.8,3.3l-1.4-0.7l2.7-3.2
											c-1.8-0.9-2.9-2-3.4-3.2l2.7-3.2c0.3,0.7,0.7,1.4,1.3,2.1s1.2,1.2,1.9,1.5l4.7-5.7l-0.5-0.9c-0.7-1.2-0.9-2.4-0.7-3.5
											c0.2-1.1,0.8-2.4,1.9-3.7c1.2-1.4,2.5-2.4,4-2.9c1.5-0.5,3-0.6,4.5-0.2l2.1-2.5l1.4,0.7l-2.1,2.5c1.4,0.8,2.5,1.8,3.1,3.2
											l-3.1,2.4c-0.6-1.2-1.4-2.1-2.4-2.7l-4.6,5.5l0.5,0.8c0.8,1.4,1.1,2.6,0.9,3.7C313.6,56.2,313.1,57.4,312.1,58.5z
											 M312,45.8c-0.5,0.6-0.8,1.1-0.8,1.6s0.1,1.1,0.4,1.8l3.9-4.7c-0.7-0.2-1.3-0.1-1.9,0.1C313,44.9,312.5,45.3,312,45.8z
											 M309.3,57.6c0.5-0.6,0.7-1.1,0.8-1.7c0-0.5-0.2-1.1-0.5-1.8l-4,4.8C307,59.3,308.3,58.8,309.3,57.6z"/>
									</g>
									<g>
										<path class="st67" d="M311.2,57.7c-1.2,1.5-2.6,2.5-4.2,3.1s-3.2,0.7-4.8,0.2l-2.8,3.3l-1.4-0.7l2.7-3.2
											c-1.8-0.9-2.9-2-3.4-3.2l2.7-3.2c0.3,0.7,0.7,1.4,1.3,2.1s1.2,1.2,1.9,1.5l4.7-5.7l-0.5-0.9c-0.7-1.2-0.9-2.4-0.7-3.5
											c0.2-1.1,0.8-2.4,1.9-3.7c1.2-1.4,2.5-2.4,4-2.9c1.5-0.5,3-0.6,4.5-0.2l2.1-2.5l1.4,0.7l-2.1,2.5c1.4,0.8,2.5,1.8,3.1,3.2
											l-3.1,2.4c-0.6-1.2-1.4-2.1-2.4-2.7l-4.6,5.5l0.5,0.8c0.8,1.4,1.1,2.6,0.9,3.7C312.8,55.4,312.2,56.5,311.2,57.7z
											 M311.1,45c-0.5,0.6-0.8,1.1-0.8,1.6s0.1,1.1,0.4,1.8l3.9-4.7c-0.7-0.2-1.3-0.1-1.9,0.1C312.2,44,311.6,44.4,311.1,45z
											 M308.5,56.7c0.5-0.6,0.7-1.1,0.8-1.7c0-0.5-0.2-1.1-0.5-1.8l-4,4.8C306.1,58.4,307.4,58,308.5,56.7z"/>
									</g>
									<g>
										<linearGradient id="SVGID_9_" gradientUnits="userSpaceOnUse" x1="291.6777" y1="51.9799" x2="328.6186" y2="51.9799">
											<stop  offset="0" style="stop-color:#CC8636"/>
											<stop  offset="0.1974" style="stop-color:#E1943C"/>
											<stop  offset="0.4292" style="stop-color:#F29E40"/>
											<stop  offset="0.6834" style="stop-color:#FCA543"/>
											<stop  offset="1" style="stop-color:#FFA744"/>
										</linearGradient>
										<path class="st72" d="M319.4,31.4c2.6,0,4.8,0.9,6.2,2.7c2.1,2.5,2.7,6.6,1.7,11.5c-2.3,11.1-11.9,22.8-21.6,26.1
											c-1.7,0.6-3.3,0.9-4.8,0.9c-2.6,0-4.8-0.9-6.2-2.7c-2.1-2.5-2.7-6.6-1.7-11.5c2.3-11.1,11.9-22.8,21.6-26.1
											C316.3,31.7,317.9,31.4,319.4,31.4 M319.4,30.5c-1.5,0-3.2,0.3-5,0.9c-9.9,3.4-19.9,15.4-22.2,26.8
											c-1.9,9.3,1.9,15.3,8.8,15.3c1.5,0,3.2-0.3,5-0.9c9.9-3.4,19.9-15.4,22.2-26.8C330,36.5,326.2,30.5,319.4,30.5L319.4,30.5
											z"/>
									</g>
								</g>
							</g>
						</g>
						<g>
							<g>
								<g>
									
										<linearGradient id="SVGID_10_" gradientUnits="userSpaceOnUse" x1="2469.4207" y1="2169.9446" x2="2430.4092" y2="2174.5144" gradientTransform="matrix(-0.9932 0.1163 0.1163 0.9932 2443.7532 -2274.0227)">
										<stop  offset="0" style="stop-color:#FFA744"/>
										<stop  offset="1" style="stop-color:#FFD4A3"/>
									</linearGradient>
									<path class="st73" d="M276.4,147.4c0.9,0.4,3.7,3.2,4.3,4.1c2,2.7,2.7,6.8,1.7,12c-2.3,11.3-12.2,23.3-22.2,26.8
										c-4.6,1.6-8.4,1.1-11-1.1c-0.3-0.2-3.4-2.9-3.4-2.9c-0.7-1-1.2-2.2-1.6-3.5c-0.8-2.4-1-5.5-0.2-9.1
										c2.3-11.3,12.2-23.3,22.2-26.8C270.3,145.4,273.9,145.7,276.4,147.4z"/>
									<g>
										<linearGradient id="SVGID_11_" gradientUnits="userSpaceOnUse" x1="243.0995" y1="167.3105" x2="280.0405" y2="167.3105">
											<stop  offset="0" style="stop-color:#CC8636"/>
											<stop  offset="0.1974" style="stop-color:#E1943C"/>
											<stop  offset="0.4292" style="stop-color:#F29E40"/>
											<stop  offset="0.6834" style="stop-color:#FCA543"/>
											<stop  offset="1" style="stop-color:#FFA744"/>
										</linearGradient>
										<path class="st74" d="M270.8,146.7c2.6,0,4.8,0.9,6.2,2.7c2.1,2.5,2.7,6.6,1.7,11.5c-2.3,11.1-11.9,22.8-21.6,26.1
											c-1.7,0.6-3.3,0.9-4.8,0.9c-2.6,0-4.8-0.9-6.2-2.7c-2.1-2.5-2.7-6.6-1.7-11.5c2.3-11.1,11.9-22.8,21.6-26.1
											C267.7,147,269.3,146.7,270.8,146.7 M270.8,145.8c-1.5,0-3.2,0.3-5,0.9c-9.9,3.4-19.9,15.4-22.2,26.8
											c-1.9,9.3,1.9,15.3,8.8,15.3c1.5,0,3.2-0.3,5-0.9c9.9-3.4,19.9-15.4,22.2-26.8C281.4,151.8,277.7,145.8,270.8,145.8
											L270.8,145.8z"/>
									</g>
									
										<linearGradient id="SVGID_12_" gradientUnits="userSpaceOnUse" x1="-1015.663" y1="2624.5588" x2="-979.2967" y2="2618.0732" gradientTransform="matrix(0.9844 0.1756 -0.1757 0.9844 1703.3787 -2238.5344)">
										<stop  offset="0" style="stop-color:#FFD4A3"/>
										<stop  offset="1" style="stop-color:#FFEBD1"/>
									</linearGradient>
									<path class="st75" d="M265.1,146.3c-9.9,3.4-19.9,15.4-22.2,26.8c-2.3,11.3,3.9,17.8,13.8,14.3
										c9.9-3.4,19.9-15.4,22.2-26.8C281.3,149.3,275.1,142.9,265.1,146.3z"/>
									<g>
										<path class="st66" d="M262.9,173.4c-1.2,1.5-2.6,2.5-4.2,3.1c-1.6,0.6-3.2,0.7-4.8,0.2l-2.8,3.3l-1.4-0.7l2.7-3.2
											c-1.8-0.9-2.9-2-3.4-3.2l2.7-3.2c0.3,0.7,0.7,1.4,1.3,2.1c0.6,0.7,1.2,1.2,1.9,1.5l4.7-5.7l-0.5-0.9
											c-0.7-1.2-0.9-2.4-0.7-3.5c0.2-1.1,0.8-2.4,1.9-3.7c1.2-1.4,2.5-2.4,4-2.9c1.5-0.5,3-0.6,4.5-0.2l2.1-2.5l1.4,0.7
											l-2.1,2.5c1.4,0.8,2.5,1.8,3.1,3.2l-3.1,2.4c-0.6-1.2-1.4-2.1-2.4-2.7l-4.6,5.5l0.5,0.8c0.8,1.4,1.1,2.6,0.9,3.7
											C264.5,171.1,263.9,172.2,262.9,173.4z M262.8,160.7c-0.5,0.6-0.8,1.1-0.8,1.6c-0.1,0.5,0.1,1.1,0.4,1.8l3.9-4.7
											c-0.7-0.2-1.3-0.1-1.9,0.1C263.8,159.8,263.3,160.2,262.8,160.7z M260.2,172.4c0.5-0.6,0.7-1.1,0.8-1.7
											c0-0.5-0.2-1.1-0.5-1.8l-4,4.8C257.8,174.2,259.1,173.7,260.2,172.4z"/>
									</g>
									<g>
										<path class="st67" d="M262,172.5c-1.2,1.5-2.6,2.5-4.2,3.1c-1.6,0.6-3.2,0.7-4.8,0.2l-2.8,3.3l-1.4-0.7l2.7-3.2
											c-1.8-0.9-2.9-2-3.4-3.2l2.7-3.2c0.3,0.7,0.7,1.4,1.3,2.1c0.6,0.7,1.2,1.2,1.9,1.5l4.7-5.7l-0.5-0.9
											c-0.7-1.2-0.9-2.4-0.7-3.5c0.2-1.1,0.8-2.4,1.9-3.7c1.2-1.4,2.5-2.4,4-2.9s3-0.6,4.5-0.2l2.1-2.5l1.4,0.7l-2.1,2.5
											c1.4,0.8,2.5,1.8,3.1,3.2l-3.1,2.4c-0.6-1.2-1.4-2.1-2.4-2.7l-4.6,5.5l0.5,0.8c0.8,1.4,1.1,2.6,0.9,3.7
											C263.6,170.2,263,171.4,262,172.5z M262,159.8c-0.5,0.6-0.8,1.1-0.8,1.6c-0.1,0.5,0.1,1.1,0.4,1.8l3.9-4.7
											c-0.7-0.2-1.3-0.1-1.9,0.1C263,158.9,262.4,159.3,262,159.8z M259.3,171.6c0.5-0.6,0.7-1.1,0.8-1.7c0-0.5-0.2-1.1-0.5-1.8
											l-4,4.8C257,173.3,258.2,172.8,259.3,171.6z"/>
									</g>
									<g>
										<linearGradient id="SVGID_13_" gradientUnits="userSpaceOnUse" x1="242.4895" y1="166.8572" x2="279.4305" y2="166.8572">
											<stop  offset="0" style="stop-color:#CC8636"/>
											<stop  offset="0.1974" style="stop-color:#E1943C"/>
											<stop  offset="0.4292" style="stop-color:#F29E40"/>
											<stop  offset="0.6834" style="stop-color:#FCA543"/>
											<stop  offset="1" style="stop-color:#FFA744"/>
										</linearGradient>
										<path class="st76" d="M270.2,146.3c2.6,0,4.8,0.9,6.2,2.7c2.1,2.5,2.7,6.6,1.7,11.5c-2.3,11.1-11.9,22.8-21.6,26.1
											c-1.7,0.6-3.3,0.9-4.8,0.9c-2.6,0-4.8-0.9-6.2-2.7c-2.1-2.5-2.7-6.6-1.7-11.5c2.3-11.1,11.9-22.8,21.6-26.1
											C267.1,146.6,268.7,146.3,270.2,146.3 M270.2,145.4c-1.5,0-3.2,0.3-5,0.9c-9.9,3.4-19.9,15.4-22.2,26.8
											c-1.9,9.3,1.9,15.3,8.8,15.3c1.5,0,3.2-0.3,5-0.9c9.9-3.4,19.9-15.4,22.2-26.8C280.8,151.4,277,145.4,270.2,145.4
											L270.2,145.4z"/>
									</g>
								</g>
							</g>
						</g>
						<g>
							<g>
								<g>
									
										<linearGradient id="SVGID_14_" gradientUnits="userSpaceOnUse" x1="4023.7141" y1="-196.9653" x2="3998.0181" y2="-221.8835" gradientTransform="matrix(-0.7179 -0.6962 -0.6962 0.7179 3049.8281 3139.2717)">
										<stop  offset="0" style="stop-color:#FFA744"/>
										<stop  offset="1" style="stop-color:#FFD4A3"/>
									</linearGradient>
									<path class="st77" d="M329.2,176.1c-0.7-0.6-4.4-1.9-5.4-2c-3.2-0.6-7.1,0.5-11.2,3.6c-9,6.9-15.2,20.7-14,30.8
										c0.6,4.7,2.7,7.9,5.7,9.1c0.2,0.2,4,1.8,4,1.8c1.2,0.2,2.4,0.2,3.8-0.1c2.5-0.3,5.3-1.5,8.1-3.7c9-6.9,15.2-20.7,14-30.8
										C333.5,180.5,331.7,177.5,329.2,176.1z"/>
									<g>
										<linearGradient id="SVGID_15_" gradientUnits="userSpaceOnUse" x1="301.6257" y1="197.5313" x2="334.3872" y2="197.5313">
											<stop  offset="0" style="stop-color:#CC8636"/>
											<stop  offset="0.1974" style="stop-color:#E1943C"/>
											<stop  offset="0.4292" style="stop-color:#F29E40"/>
											<stop  offset="0.6834" style="stop-color:#FCA543"/>
											<stop  offset="1" style="stop-color:#FFA744"/>
										</linearGradient>
										<path class="st78" d="M325.2,175.3v0.9c4.4,0,7.5,3.4,8.1,9c1.2,9.9-4.9,23.4-13.7,30.1c-3.1,2.4-6.2,3.6-8.9,3.6
											c-4.5,0-7.5-3.3-8.1-9c-1.2-9.9,4.9-23.4,13.7-30.1c3.1-2.4,6.2-3.6,8.9-3.6L325.2,175.3 M325.2,175.3
											c-2.8,0-6.1,1.2-9.4,3.8c-9,6.9-15.2,20.7-14,30.8c0.8,6.4,4.3,9.8,9,9.8c2.8,0,6.1-1.2,9.4-3.8c9-6.9,15.2-20.7,14-30.8
											C333.5,178.7,329.9,175.3,325.2,175.3L325.2,175.3z"/>
									</g>
									
										<linearGradient id="SVGID_16_" gradientUnits="userSpaceOnUse" x1="3999.1125" y1="368.4694" x2="3979.8284" y2="341.9831" gradientTransform="matrix(-0.5886 -0.8084 -0.8084 0.5886 2953.9248 3213.873)">
										<stop  offset="0" style="stop-color:#FFD4A3"/>
										<stop  offset="1" style="stop-color:#FFEBD1"/>
									</linearGradient>
									<path class="st79" d="M334.9,185.4c1.2,10.2-5,24-14,30.8c-9,6.9-17.2,4.2-18.5-6c-1.2-10.2,5-24,14-30.8
										C325.4,172.6,333.7,175.3,334.9,185.4z"/>
									<g>
										<path class="st66" d="M321.5,203.6c-0.8,1.7-1.9,3.1-3.3,4c-1.4,1-2.9,1.4-4.6,1.4l-1.8,3.9l-1.6-0.3l1.8-3.8
											c-1.9-0.4-3.3-1.2-4.2-2.2l1.8-3.8c0.4,0.6,1,1.2,1.8,1.7c0.7,0.5,1.5,0.8,2.2,1l3.1-6.7l-0.7-0.7c-0.9-1-1.5-2.1-1.6-3.2
											s0.2-2.5,0.9-4c0.8-1.6,1.8-2.9,3.2-3.8c1.3-0.9,2.8-1.3,4.3-1.3l1.4-3l1.6,0.3l-1.4,2.9c1.6,0.4,2.8,1.1,3.8,2.3
											l-2.4,3.1c-0.9-1-1.9-1.6-3-2l-3.1,6.5l0.7,0.7c1.1,1.1,1.7,2.3,1.8,3.3S322.2,202.2,321.5,203.6z M318.2,191.4
											c-0.3,0.7-0.4,1.3-0.4,1.8s0.4,1,0.9,1.6l2.6-5.6c-0.7,0-1.3,0.2-1.8,0.6C319,190.2,318.6,190.7,318.2,191.4z
											 M318.6,203.4c0.3-0.7,0.4-1.3,0.3-1.8c-0.1-0.5-0.4-1-1-1.6l-2.7,5.7C316.8,205.6,317.9,204.9,318.6,203.4z"/>
									</g>
									<g>
										<path class="st67" d="M322.8,203.9c-0.8,1.7-1.9,3.1-3.3,4c-1.4,1-2.9,1.4-4.6,1.4l-1.8,3.9l-1.6-0.3l1.8-3.8
											c-1.9-0.4-3.3-1.2-4.2-2.2l1.8-3.8c0.4,0.6,1,1.2,1.8,1.7c0.7,0.5,1.5,0.8,2.2,1l3.1-6.7l-0.7-0.7c-0.9-1-1.5-2.1-1.6-3.2
											c-0.1-1.2,0.2-2.5,0.9-4c0.8-1.6,1.8-2.9,3.2-3.8c1.3-0.9,2.8-1.3,4.3-1.3l1.4-3l1.6,0.3l-1.4,2.9
											c1.6,0.4,2.8,1.1,3.8,2.3l-2.4,3.1c-0.9-1-1.9-1.6-3-2l-3.1,6.5l0.7,0.7c1.1,1.1,1.7,2.3,1.8,3.3
											C323.7,201.2,323.5,202.5,322.8,203.9z M319.5,191.6c-0.3,0.7-0.4,1.3-0.4,1.8s0.4,1,0.9,1.6l2.6-5.6
											c-0.7,0-1.3,0.2-1.8,0.6C320.2,190.4,319.8,190.9,319.5,191.6z M319.9,203.6c0.3-0.7,0.4-1.3,0.3-1.8
											c-0.1-0.5-0.4-1-1-1.6l-2.7,5.7C318.1,205.9,319.2,205.1,319.9,203.6z"/>
									</g>
									<g>
										<linearGradient id="SVGID_17_" gradientUnits="userSpaceOnUse" x1="302.2833" y1="197.8728" x2="335.0447" y2="197.8728">
											<stop  offset="0" style="stop-color:#CC8636"/>
											<stop  offset="0.1974" style="stop-color:#E1943C"/>
											<stop  offset="0.4292" style="stop-color:#F29E40"/>
											<stop  offset="0.6834" style="stop-color:#FCA543"/>
											<stop  offset="1" style="stop-color:#FFA744"/>
										</linearGradient>
										<path class="st80" d="M325.9,175.6v0.9c4.4,0,7.5,3.4,8.1,9c1.2,9.9-4.9,23.4-13.7,30.1c-3.1,2.4-6.2,3.6-8.9,3.6
											c-4.5,0-7.5-3.3-8.1-9c-1.2-9.9,4.9-23.4,13.7-30.1c3.1-2.4,6.2-3.6,8.9-3.6L325.9,175.6 M325.9,175.6
											c-2.8,0-6.1,1.2-9.4,3.8c-9,6.9-15.2,20.7-14,30.8c0.8,6.4,4.3,9.8,9,9.8c2.8,0,6.1-1.2,9.4-3.8c9-6.9,15.2-20.7,14-30.8
											C334.1,179.1,330.6,175.6,325.9,175.6L325.9,175.6z"/>
									</g>
								</g>
							</g>
						</g>
						<g>
							<g>
								<g>
									
										<linearGradient id="SVGID_18_" gradientUnits="userSpaceOnUse" x1="4814.7412" y1="-513.7944" x2="4779.6812" y2="-505.9729" gradientTransform="matrix(-0.976 0.2177 0.2177 0.976 5052.1143 -444.3567)">
										<stop  offset="0" style="stop-color:#FFA744"/>
										<stop  offset="1" style="stop-color:#FFD4A3"/>
									</linearGradient>
									<path class="st81" d="M248.9,80.4c-0.9,0.3-4,2.6-4.6,3.5c-2.3,2.3-3.5,6.2-3.1,11.4c0.8,11.3,8.9,24.1,18.1,28.6
										c4.3,2.1,8,2.1,10.7,0.3c0.3-0.1,3.6-2.4,3.6-2.4c0.8-0.9,1.5-1.9,2-3.2c1.1-2.3,1.6-5.2,1.4-8.8
										c-0.8-11.3-8.9-24.1-18.1-28.6C254.9,79.2,251.5,79.1,248.9,80.4z"/>
									<g>
										<linearGradient id="SVGID_19_" gradientUnits="userSpaceOnUse" x1="243.9834" y1="101.5229" x2="277.352" y2="101.5229">
											<stop  offset="0" style="stop-color:#CC8636"/>
											<stop  offset="0.1974" style="stop-color:#E1943C"/>
											<stop  offset="0.4292" style="stop-color:#F29E40"/>
											<stop  offset="0.6834" style="stop-color:#FCA543"/>
											<stop  offset="1" style="stop-color:#FFA744"/>
										</linearGradient>
										<path class="st82" d="M253.1,80.4L253.1,80.4c1.8,0,3.7,0.5,5.7,1.5c8.9,4.4,16.8,17,17.6,27.9c0.3,4.6-0.6,8.3-2.7,10.5
											c-1.4,1.5-3.3,2.3-5.4,2.3c-1.8,0-3.7-0.5-5.7-1.5c-8.9-4.4-16.8-17-17.6-27.9c-0.3-4.6,0.6-8.3,2.7-10.5
											C249,81.2,250.9,80.4,253.1,80.4 M253.1,79.5c-5.9,0-9.6,5.2-9,13.7c0.8,11.3,8.9,24.1,18.1,28.6c2.2,1.1,4.3,1.6,6.1,1.6
											c5.9,0,9.6-5.2,9-13.7c-0.8-11.3-8.9-24.1-18.1-28.6C257,80,254.9,79.5,253.1,79.5L253.1,79.5z"/>
									</g>
									
										<linearGradient id="SVGID_20_" gradientUnits="userSpaceOnUse" x1="4832.1729" y1="192.576" x2="4798.8413" y2="194.1788" gradientTransform="matrix(-0.9988 4.802643e-02 4.801352e-02 0.9988 5061.8022 -323.2477)">
										<stop  offset="0" style="stop-color:#FFD4A3"/>
										<stop  offset="1" style="stop-color:#FFEBD1"/>
									</linearGradient>
									<path class="st83" d="M259.8,80.8c9.2,4.6,17.3,17.4,18.1,28.6c0.8,11.3-6,16.7-15.1,12.1c-9.2-4.6-17.3-17.4-18.1-28.6
										C243.9,81.6,250.7,76.2,259.8,80.8z"/>
									<g>
										<path class="st66" d="M267.5,101.1c1,1.6,1.6,3.2,1.7,4.9c0.1,1.7-0.3,3.2-1.2,4.6l2.3,3.6l-1.1,1.2l-2.3-3.5
											c-1.4,1.4-2.7,2.2-4.1,2.3l-2.3-3.5c0.8,0,1.6-0.2,2.4-0.6c0.8-0.4,1.5-0.8,2-1.3l-4-6.2l-1,0.2c-1.3,0.3-2.5,0.1-3.5-0.4
											c-1-0.5-2-1.5-2.9-2.9c-1-1.5-1.5-3.1-1.6-4.7c-0.1-1.6,0.3-3.1,1.2-4.4l-1.8-2.8l1.1-1.2l1.8,2.7c1.1-1.1,2.5-1.8,4-2
											l1.4,3.7c-1.3,0.2-2.4,0.7-3.3,1.5l3.9,6l0.9-0.2c1.5-0.3,2.8-0.2,3.8,0.2S266.6,99.8,267.5,101.1z M255.3,97.4
											c0.4,0.6,0.8,1.1,1.3,1.3c0.5,0.2,1.1,0.2,1.8,0.1l-3.3-5.2c-0.3,0.6-0.5,1.2-0.5,1.9S254.9,96.8,255.3,97.4z
											 M265.7,103.5c-0.4-0.6-0.9-1.1-1.3-1.2s-1.1-0.2-1.9,0l3.4,5.3C266.7,106.2,266.6,104.8,265.7,103.5z"/>
									</g>
									<g>
										<path class="st67" d="M268.5,100.7c1,1.6,1.6,3.2,1.7,4.9c0.1,1.7-0.3,3.2-1.2,4.6l2.3,3.6l-1.1,1.2l-2.3-3.5
											c-1.4,1.4-2.7,2.2-4.1,2.3l-2.3-3.5c0.8,0,1.6-0.2,2.4-0.6c0.8-0.4,1.5-0.8,2-1.3l-4-6.2l-1,0.2c-1.3,0.3-2.5,0.1-3.5-0.4
											c-1-0.5-2-1.5-2.9-2.9c-1-1.5-1.5-3.1-1.6-4.7c-0.1-1.6,0.3-3.1,1.2-4.4l-1.8-2.8l1.1-1.2l1.8,2.7c1.1-1.1,2.5-1.8,4-2
											l1.4,3.7c-1.3,0.2-2.4,0.7-3.3,1.5l3.9,6l0.9-0.2c1.5-0.3,2.8-0.2,3.8,0.2C266.8,98.5,267.7,99.4,268.5,100.7z M256.4,97
											c0.4,0.6,0.8,1.1,1.3,1.3c0.5,0.2,1.1,0.2,1.8,0.1l-3.3-5.2c-0.3,0.6-0.5,1.2-0.5,1.9S256,96.4,256.4,97z M266.8,103.1
											c-0.4-0.6-0.9-1.1-1.3-1.2c-0.5-0.2-1.1-0.2-1.9,0l3.4,5.3C267.7,105.8,267.7,104.4,266.8,103.1z"/>
									</g>
									<g>
										<linearGradient id="SVGID_21_" gradientUnits="userSpaceOnUse" x1="244.6299" y1="101.1609" x2="277.9985" y2="101.1609">
											<stop  offset="0" style="stop-color:#CC8636"/>
											<stop  offset="0.1974" style="stop-color:#E1943C"/>
											<stop  offset="0.4292" style="stop-color:#F29E40"/>
											<stop  offset="0.6834" style="stop-color:#FCA543"/>
											<stop  offset="1" style="stop-color:#FFA744"/>
										</linearGradient>
										<path class="st84" d="M253.7,80L253.7,80c1.8,0,3.7,0.5,5.7,1.5c8.9,4.4,16.8,17,17.6,27.9c0.3,4.6-0.6,8.3-2.7,10.5
											c-1.4,1.5-3.3,2.3-5.4,2.3c-1.8,0-3.7-0.5-5.7-1.5c-8.9-4.4-16.8-17-17.6-27.9c-0.3-4.6,0.6-8.3,2.7-10.5
											C249.7,80.8,251.5,80,253.7,80 M253.7,79.2c-5.9,0-9.6,5.2-9,13.7c0.8,11.3,8.9,24.1,18.1,28.6c2.2,1.1,4.3,1.6,6.1,1.6
											c5.9,0,9.6-5.2,9-13.7c-0.8-11.3-8.9-24.1-18.1-28.6C257.6,79.7,255.6,79.2,253.7,79.2L253.7,79.2z"/>
									</g>
								</g>
							</g>
						</g>
						<g>
							<g>
								<g>
									
										<linearGradient id="SVGID_22_" gradientUnits="userSpaceOnUse" x1="4828.3257" y1="-384.9659" x2="4793.2656" y2="-377.1444" gradientTransform="matrix(-0.976 0.2177 0.2177 0.976 5052.1143 -444.3567)">
										<stop  offset="0" style="stop-color:#FFA744"/>
										<stop  offset="1" style="stop-color:#FFD4A3"/>
									</linearGradient>
									<path class="st85" d="M263.6,209.1c-0.9,0.3-4,2.6-4.6,3.5c-2.3,2.3-3.5,6.2-3.1,11.4c0.8,11.3,8.9,24.1,18.1,28.6
										c4.3,2.1,8,2.1,10.7,0.3c0.3-0.1,3.6-2.4,3.6-2.4c0.8-0.9,1.5-1.9,2-3.2c1.1-2.3,1.6-5.2,1.4-8.8
										c-0.8-11.3-8.9-24.1-18.1-28.6C269.7,207.9,266.3,207.8,263.6,209.1z"/>
									<g>
										<linearGradient id="SVGID_23_" gradientUnits="userSpaceOnUse" x1="258.7737" y1="230.212" x2="292.1423" y2="230.212">
											<stop  offset="0" style="stop-color:#CC8636"/>
											<stop  offset="0.1974" style="stop-color:#E1943C"/>
											<stop  offset="0.4292" style="stop-color:#F29E40"/>
											<stop  offset="0.6834" style="stop-color:#FCA543"/>
											<stop  offset="1" style="stop-color:#FFA744"/>
										</linearGradient>
										<path class="st86" d="M267.9,209.1L267.9,209.1c1.8,0,3.7,0.5,5.7,1.5c8.9,4.4,16.8,17,17.6,27.9
											c0.3,4.6-0.6,8.3-2.7,10.5c-1.4,1.5-3.3,2.3-5.4,2.3c-1.8,0-3.7-0.5-5.7-1.5c-8.9-4.4-16.8-17-17.6-27.9
											c-0.3-4.6,0.6-8.3,2.7-10.5C263.8,209.9,265.7,209.1,267.9,209.1 M267.9,208.2c-5.9,0-9.6,5.2-9,13.7
											c0.8,11.3,8.9,24.1,18.1,28.6c2.2,1.1,4.3,1.6,6.1,1.6c5.9,0,9.6-5.2,9-13.7c-0.8-11.3-8.9-24.1-18.1-28.6
											C271.8,208.7,269.7,208.2,267.9,208.2L267.9,208.2z"/>
									</g>
									
										<linearGradient id="SVGID_24_" gradientUnits="userSpaceOnUse" x1="4823.5786" y1="321.8385" x2="4790.2471" y2="323.4413" gradientTransform="matrix(-0.9988 4.802643e-02 4.801352e-02 0.9988 5061.8022 -323.2477)">
										<stop  offset="0" style="stop-color:#FFD4A3"/>
										<stop  offset="1" style="stop-color:#FFEBD1"/>
									</linearGradient>
									<path class="st87" d="M274.6,209.5c9.2,4.6,17.3,17.4,18.1,28.6c0.8,11.3-6,16.7-15.1,12.1c-9.2-4.6-17.3-17.4-18.1-28.6
										C258.7,210.3,265.4,204.9,274.6,209.5z"/>
									<g>
										<path class="st66" d="M282.2,229.8c1,1.6,1.6,3.2,1.7,4.9c0.1,1.7-0.3,3.2-1.2,4.6l2.3,3.6l-1.1,1.2l-2.3-3.5
											c-1.4,1.4-2.7,2.2-4.1,2.3l-2.3-3.5c0.8,0,1.6-0.2,2.4-0.6c0.8-0.4,1.5-0.8,2-1.3l-4-6.2l-1,0.2c-1.3,0.3-2.5,0.1-3.5-0.4
											s-2-1.5-2.9-2.9c-1-1.5-1.5-3.1-1.6-4.7c-0.1-1.6,0.3-3.1,1.2-4.4l-1.8-2.8l1.1-1.2l1.8,2.7c1.1-1.1,2.5-1.8,4-2l1.4,3.7
											c-1.3,0.2-2.4,0.7-3.3,1.5l3.9,6l0.9-0.2c1.5-0.3,2.8-0.2,3.8,0.2C280.5,227.6,281.4,228.5,282.2,229.8z M270.1,226.1
											c0.4,0.6,0.8,1.1,1.3,1.3s1.1,0.2,1.8,0.1l-3.3-5.2c-0.3,0.6-0.5,1.2-0.5,1.9C269.5,224.9,269.7,225.5,270.1,226.1z
											 M280.5,232.1c-0.4-0.6-0.9-1.1-1.3-1.2s-1.1-0.2-1.9,0l3.4,5.3C281.4,234.9,281.4,233.5,280.5,232.1z"/>
									</g>
									<g>
										<path class="st67" d="M283.3,229.4c1,1.6,1.6,3.2,1.7,4.9c0.1,1.7-0.3,3.2-1.2,4.6l2.3,3.6l-1.1,1.2l-2.3-3.5
											c-1.4,1.4-2.7,2.2-4.1,2.3l-2.3-3.5c0.8,0,1.6-0.2,2.4-0.6c0.8-0.4,1.5-0.8,2-1.3l-4-6.2l-1,0.2c-1.3,0.3-2.5,0.1-3.5-0.4
											c-1-0.5-2-1.5-2.9-2.9c-1-1.5-1.5-3.1-1.6-4.7c-0.1-1.6,0.3-3.1,1.2-4.4l-1.8-2.8l1.1-1.2l1.8,2.7c1.1-1.1,2.5-1.8,4-2
											l1.4,3.7c-1.3,0.2-2.4,0.7-3.3,1.5l3.9,6l0.9-0.2c1.5-0.3,2.8-0.2,3.8,0.2C281.6,227.2,282.5,228.1,283.3,229.4z
											 M271.2,225.7c0.4,0.6,0.8,1.1,1.3,1.3s1.1,0.2,1.8,0.1l-3.3-5.2c-0.3,0.6-0.5,1.2-0.5,1.9
											C270.5,224.5,270.8,225.1,271.2,225.7z M281.6,231.7c-0.4-0.6-0.9-1.1-1.3-1.2s-1.1-0.2-1.9,0l3.4,5.3
											C282.5,234.5,282.4,233.1,281.6,231.7z"/>
									</g>
									<g>
										<linearGradient id="SVGID_25_" gradientUnits="userSpaceOnUse" x1="259.4202" y1="229.8499" x2="292.7888" y2="229.8499">
											<stop  offset="0" style="stop-color:#CC8636"/>
											<stop  offset="0.1974" style="stop-color:#E1943C"/>
											<stop  offset="0.4292" style="stop-color:#F29E40"/>
											<stop  offset="0.6834" style="stop-color:#FCA543"/>
											<stop  offset="1" style="stop-color:#FFA744"/>
										</linearGradient>
										<path class="st88" d="M268.5,208.7L268.5,208.7c1.8,0,3.7,0.5,5.7,1.5c8.9,4.4,16.8,17,17.6,27.9
											c0.3,4.6-0.6,8.3-2.7,10.5c-1.4,1.5-3.3,2.3-5.4,2.3c-1.8,0-3.7-0.5-5.7-1.5c-8.9-4.4-16.8-17-17.6-27.9
											c-0.3-4.6,0.6-8.3,2.7-10.5C264.5,209.5,266.3,208.7,268.5,208.7 M268.5,207.9c-5.9,0-9.6,5.2-9,13.7
											c0.8,11.3,8.9,24.1,18.1,28.6c2.2,1.1,4.3,1.6,6.1,1.6c5.9,0,9.6-5.2,9-13.7c-0.8-11.3-8.9-24.1-18.1-28.6
											C272.4,208.4,270.4,207.9,268.5,207.9L268.5,207.9z"/>
									</g>
								</g>
							</g>
						</g>
					</g>
					<g>
						<linearGradient id="XMLID_11_" gradientUnits="userSpaceOnUse" x1="290" y1="259.4808" x2="290" y2="218.6529">
							<stop  offset="0" style="stop-color:#FFFFFF;stop-opacity:0.7"/>
							<stop  offset="1" style="stop-color:#F0E5FF;stop-opacity:0"/>
						</linearGradient>
						<path id="XMLID_18304_" class="st89" d="M220.2,218.7c0,10.3,6.8,20.7,20.4,28.6c27.2,15.7,71.7,15.7,98.9,0
							c13.6-7.9,20.4-18.2,20.4-28.6"/>
						<linearGradient id="XMLID_13_" gradientUnits="userSpaceOnUse" x1="290" y1="233.8549" x2="290" y2="193.027">
							<stop  offset="0" style="stop-color:#FFFFFF;stop-opacity:0.7"/>
							<stop  offset="1" style="stop-color:#F0E5FF;stop-opacity:0"/>
						</linearGradient>
						<path id="XMLID_18303_" class="st90" d="M220.2,193c0,10.3,6.8,20.7,20.4,28.6c27.2,15.7,71.7,15.7,98.9,0
							c13.6-7.9,20.4-18.2,20.4-28.6"/>
						<linearGradient id="XMLID_15_" gradientUnits="userSpaceOnUse" x1="290" y1="208.2289" x2="290" y2="167.401">
							<stop  offset="0" style="stop-color:#FFFFFF;stop-opacity:0.7"/>
							<stop  offset="1" style="stop-color:#F0E5FF;stop-opacity:0"/>
						</linearGradient>
						<path id="XMLID_18302_" class="st91" d="M220.2,167.4c0,10.3,6.8,20.7,20.4,28.6c27.2,15.7,71.7,15.7,98.9,0
							c13.6-7.9,20.4-18.2,20.4-28.6"/>
						<linearGradient id="XMLID_16_" gradientUnits="userSpaceOnUse" x1="290" y1="182.603" x2="290" y2="141.7751">
							<stop  offset="0" style="stop-color:#FFFFFF;stop-opacity:0.7"/>
							<stop  offset="1" style="stop-color:#F0E5FF;stop-opacity:0"/>
						</linearGradient>
						<path id="XMLID_18301_" class="st92" d="M220.2,141.8c0,10.3,6.8,20.7,20.4,28.6c27.2,15.7,71.7,15.7,98.9,0
							c13.6-7.9,20.4-18.2,20.4-28.6"/>
						<linearGradient id="XMLID_17_" gradientUnits="userSpaceOnUse" x1="290" y1="156.9771" x2="290" y2="116.1492">
							<stop  offset="0" style="stop-color:#FFFFFF;stop-opacity:0.7"/>
							<stop  offset="1" style="stop-color:#F0E5FF;stop-opacity:0"/>
						</linearGradient>
						<path id="XMLID_18300_" class="st93" d="M220.2,116.1c0,10.3,6.8,20.7,20.4,28.6c27.2,15.7,71.7,15.7,98.9,0
							c13.6-7.9,20.4-18.2,20.4-28.6"/>
					</g>
				</g>
			</g>
			<g id="XMLID_18293_">
				
					<linearGradient id="SVGID_26_" gradientUnits="userSpaceOnUse" x1="477.2734" y1="352.3494" x2="537.3459" y2="352.3494" gradientTransform="matrix(-1 0 0 1 668.9679 0)">
					<stop  offset="0" style="stop-color:#CC8636"/>
					<stop  offset="0.1464" style="stop-color:#DA8F3A"/>
					<stop  offset="0.4294" style="stop-color:#EE9C3F"/>
					<stop  offset="0.709" style="stop-color:#FBA443"/>
					<stop  offset="0.9788" style="stop-color:#FFA744"/>
				</linearGradient>
				<path class="st94" d="M132.8,369.9c0.2,0,0.4,0,0.6-0.1l57.8-32.8c0.3-0.1,0.5-0.4,0.5-0.7c0.1-0.3,0-0.6-0.1-0.9
					c-0.2-0.4-0.6-0.6-1-0.6c-0.2,0-0.4,0-0.6,0.1l-57.8,32.8c-0.3,0.1-0.5,0.4-0.5,0.7c-0.1,0.3,0,0.6,0.1,0.9
					C132,369.7,132.3,369.9,132.8,369.9z"/>
			</g>
			<g id="XMLID_18292_">
				
					<linearGradient id="SVGID_27_" gradientUnits="userSpaceOnUse" x1="465.7722" y1="359.6098" x2="525.8446" y2="359.6098" gradientTransform="matrix(-1 0 0 1 668.9679 0)">
					<stop  offset="0" style="stop-color:#CC8636"/>
					<stop  offset="0.1464" style="stop-color:#DA8F3A"/>
					<stop  offset="0.4294" style="stop-color:#EE9C3F"/>
					<stop  offset="0.709" style="stop-color:#FBA443"/>
					<stop  offset="0.9788" style="stop-color:#FFA744"/>
				</linearGradient>
				<path class="st95" d="M144.3,377.1c0.2,0,0.4,0,0.6-0.1l57.8-32.8c0.3-0.1,0.5-0.4,0.5-0.7c0.1-0.3,0-0.6-0.1-0.9
					c-0.2-0.4-0.6-0.6-1-0.6c-0.2,0-0.4,0-0.6,0.1L143.7,375c-0.3,0.1-0.5,0.4-0.5,0.7c-0.1,0.3,0,0.6,0.1,0.9
					C143.5,376.9,143.9,377.1,144.3,377.1z"/>
			</g>
		</g>
		<g>
			<g id="XMLID_26136_">
				<g class="st0">
					<path id="XMLID_796_" class="st1" d="M111.5,352.5c-8.4-4.9-22.2-4.9-30.7,0L6.5,395.4c-8.4,4.9-8.4,12.8,0,17.7L80.8,456
						c8.4,4.9,22.2,4.9,30.7,0l74.3-42.9c8.4-4.9,8.4-12.8,0-17.7L111.5,352.5z"/>
					<path class="st2" d="M111.4,352.7c-8.4-4.8-22.1-4.8-30.5,0l-74,42.7c-8.4,4.8-8.4,12.8,0,17.6l74,42.7
						c8.4,4.8,22.1,4.8,30.5,0l74-42.7c8.4-4.8,8.4-12.8,0-17.6L111.4,352.7z"/>
					<path class="st3" d="M111.4,353c-8.4-4.8-22-4.8-30.4,0L7.3,395.5c-8.4,4.8-8.4,12.7,0,17.5L81,455.5c8.4,4.8,22,4.8,30.4,0
						L185,413c8.4-4.8,8.4-12.7,0-17.5L111.4,353z"/>
					<path class="st4" d="M111.3,353.2c-8.3-4.8-21.9-4.8-30.2,0L7.8,395.5c-8.3,4.8-8.3,12.7,0,17.5L81,455.3
						c8.3,4.8,21.9,4.8,30.2,0l73.3-42.3c8.3-4.8,8.3-12.7,0-17.5L111.3,353.2z"/>
					<path class="st5" d="M111.2,353.5c-8.3-4.8-21.8-4.8-30.1,0L8.2,395.6c-8.3,4.8-8.3,12.6,0,17.4L81.1,455
						c8.3,4.8,21.8,4.8,30.1,0l72.9-42.1c8.3-4.8,8.3-12.6,0-17.4L111.2,353.5z"/>
					<path class="st6" d="M111.1,353.7c-8.2-4.8-21.7-4.8-29.9,0L8.6,395.6c-8.2,4.8-8.2,12.5,0,17.3l72.5,41.9
						c8.2,4.8,21.7,4.8,29.9,0l72.5-41.9c8.2-4.8,8.2-12.5,0-17.3L111.1,353.7z"/>
					<path class="st7" d="M111.1,354c-8.2-4.7-21.6-4.7-29.8,0L9.1,395.6c-8.2,4.7-8.2,12.5,0,17.2l72.2,41.7
						c8.2,4.7,21.6,4.7,29.8,0l72.2-41.7c8.2-4.7,8.2-12.5,0-17.2L111.1,354z"/>
					<path class="st8" d="M111,354.2c-8.2-4.7-21.5-4.7-29.7,0L9.5,395.7c-8.2,4.7-8.2,12.4,0,17.1l71.8,41.5
						c8.2,4.7,21.5,4.7,29.7,0l71.8-41.5c8.2-4.7,8.2-12.4,0-17.1L111,354.2z"/>
					<path class="st9" d="M110.9,354.5c-8.1-4.7-21.4-4.7-29.5,0L9.9,395.7c-8.1,4.7-8.1,12.4,0,17L81.4,454
						c8.1,4.7,21.4,4.7,29.5,0l71.5-41.3c8.1-4.7,8.1-12.3,0-17L110.9,354.5z"/>
					<path class="st10" d="M110.8,354.7c-8.1-4.7-21.3-4.7-29.4,0l-71.1,41.1c-8.1,4.7-8.1,12.3,0,16.9l71.1,41.1
						c8.1,4.7,21.3,4.7,29.4,0l71.1-41.1c8.1-4.7,8.1-12.3,0-16.9L110.8,354.7z"/>
					<path class="st11" d="M110.8,355c-8-4.6-21.2-4.6-29.2,0l-70.8,40.9c-8,4.6-8,12.2,0,16.9l70.8,40.9c8,4.6,21.2,4.6,29.2,0
						l70.8-40.9c8-4.6,8-12.2,0-16.9L110.8,355z"/>
					<path class="st12" d="M110.7,355.2c-8-4.6-21.1-4.6-29.1,0l-70.4,40.7c-8,4.6-8,12.2,0,16.8l70.4,40.7c8,4.6,21.1,4.6,29.1,0
						l70.4-40.7c8-4.6,8-12.2,0-16.8L110.7,355.2z"/>
					<path class="st13" d="M110.6,355.5c-8-4.6-21-4.6-28.9,0l-70.1,40.4c-8,4.6-8,12.1,0,16.7L81.7,453c8,4.6,21,4.6,28.9,0
						l70.1-40.4c8-4.6,8-12.1,0-16.7L110.6,355.5z"/>
					<path class="st14" d="M110.5,355.7c-7.9-4.6-20.9-4.6-28.8,0l-69.7,40.2c-7.9,4.6-7.9,12,0,16.6l69.7,40.2
						c7.9,4.6,20.9,4.6,28.8,0l69.7-40.2c7.9-4.6,7.9-12,0-16.6L110.5,355.7z"/>
					<path class="st15" d="M110.5,356c-7.9-4.5-20.8-4.5-28.6,0l-69.3,40c-7.9,4.5-7.9,12,0,16.5l69.3,40c7.9,4.5,20.8,4.5,28.6,0
						l69.3-40c7.9-4.5,7.9-12,0-16.5L110.5,356z"/>
					<path class="st16" d="M110.4,356.2c-7.8-4.5-20.6-4.5-28.5,0l-69,39.8c-7.8,4.5-7.8,11.9,0,16.4l69,39.8
						c7.8,4.5,20.6,4.5,28.5,0l69-39.8c7.8-4.5,7.8-11.9,0-16.4L110.4,356.2z"/>
					<path class="st17" d="M110.3,356.5c-7.8-4.5-20.5-4.5-28.3,0l-68.6,39.6c-7.8,4.5-7.8,11.9,0,16.4L82,452
						c7.8,4.5,20.5,4.5,28.3,0l68.6-39.6c7.8-4.5,7.8-11.9,0-16.4L110.3,356.5z"/>
					<path class="st18" d="M110.3,356.7c-7.7-4.5-20.4-4.5-28.2,0l-68.3,39.4c-7.7,4.5-7.7,11.8,0,16.3l68.3,39.4
						c7.7,4.5,20.4,4.5,28.2,0l68.3-39.4c7.7-4.5,7.7-11.8,0-16.3L110.3,356.7z"/>
					<path class="st19" d="M110.2,356.9c-7.7-4.4-20.3-4.4-28,0l-67.9,39.2c-7.7,4.5-7.7,11.7,0,16.2l67.9,39.2
						c7.7,4.5,20.3,4.5,28,0l67.9-39.2c7.7-4.5,7.7-11.7,0-16.2L110.2,356.9z"/>
					<path class="st20" d="M110.1,357.2c-7.7-4.4-20.2-4.4-27.9,0l-67.6,39c-7.7,4.4-7.7,11.7,0,16.1l67.6,39
						c7.7,4.4,20.2,4.4,27.9,0l67.6-39c7.7-4.4,7.7-11.7,0-16.1L110.1,357.2z"/>
					<path class="st21" d="M110,357.4c-7.6-4.4-20.1-4.4-27.7,0l-67.2,38.8c-7.6,4.4-7.6,11.6,0,16l67.2,38.8
						c7.6,4.4,20.1,4.4,27.7,0l67.2-38.8c7.6-4.4,7.6-11.6,0-16L110,357.4z"/>
					<path class="st22" d="M110,357.7c-7.6-4.4-20-4.4-27.6,0l-66.8,38.6c-7.6,4.4-7.6,11.5,0,15.9l66.8,38.6c7.6,4.4,20,4.4,27.6,0
						l66.8-38.6c7.6-4.4,7.6-11.5,0-15.9L110,357.7z"/>
					<path class="st23" d="M109.9,357.9c-7.5-4.4-19.9-4.4-27.4,0L16,396.3c-7.5,4.4-7.5,11.5,0,15.8l66.5,38.4
						c7.5,4.4,19.9,4.4,27.4,0l66.5-38.4c7.5-4.4,7.5-11.5,0-15.8L109.9,357.9z"/>
					<path class="st24" d="M109.8,358.2c-7.5-4.3-19.8-4.3-27.3,0l-66.1,38.2c-7.5,4.3-7.5,11.4,0,15.8l66.1,38.2
						c7.5,4.3,19.8,4.3,27.3,0l66.1-38.2c7.5-4.3,7.5-11.4,0-15.8L109.8,358.2z"/>
					<path class="st25" d="M109.7,358.4c-7.5-4.3-19.7-4.3-27.1,0l-65.8,38c-7.5,4.3-7.5,11.4,0,15.7l65.8,38
						c7.5,4.3,19.7,4.3,27.1,0l65.8-38c7.5-4.3,7.5-11.4,0-15.7L109.7,358.4z"/>
					<path class="st26" d="M109.7,358.7c-7.4-4.3-19.6-4.3-27,0l-65.4,37.8c-7.4,4.3-7.4,11.3,0,15.6l65.4,37.8
						c7.4,4.3,19.6,4.3,27,0l65.4-37.8c7.4-4.3,7.4-11.3,0-15.6L109.7,358.7z"/>
					<path class="st27" d="M109.6,358.9c-7.4-4.3-19.5-4.3-26.9,0l-65.1,37.6c-7.4,4.3-7.4,11.2,0,15.5l65.1,37.6
						c7.4,4.3,19.5,4.3,26.9,0l65.1-37.6c7.4-4.3,7.4-11.2,0-15.5L109.6,358.9z"/>
					<path class="st28" d="M109.5,359.2c-7.3-4.2-19.4-4.2-26.7,0l-64.7,37.4c-7.3,4.2-7.3,11.2,0,15.4l64.7,37.4
						c7.3,4.2,19.4,4.2,26.7,0l64.7-37.4c7.3-4.2,7.3-11.2,0-15.4L109.5,359.2z"/>
					<path class="st29" d="M109.4,359.4c-7.3-4.2-19.3-4.2-26.6,0l-64.3,37.2c-7.3,4.2-7.3,11.1,0,15.3l64.3,37.2
						c7.3,4.2,19.3,4.2,26.6,0l64.3-37.2c7.3-4.2,7.3-11.1,0-15.3L109.4,359.4z"/>
					<path class="st30" d="M109.4,359.7c-7.3-4.2-19.1-4.2-26.4,0l-64,36.9c-7.3,4.2-7.3,11.1,0,15.2l64,36.9
						c7.3,4.2,19.1,4.2,26.4,0l64-36.9c7.3-4.2,7.3-11.1,0-15.2L109.4,359.7z"/>
					<path class="st31" d="M109.3,359.9c-7.2-4.2-19-4.2-26.3,0l-63.6,36.7c-7.2,4.2-7.2,11,0,15.2L83,448.6c7.2,4.2,19,4.2,26.3,0
						l63.6-36.7c7.2-4.2,7.2-11,0-15.2L109.3,359.9z"/>
					<path class="st32" d="M109.2,360.2c-7.2-4.1-18.9-4.1-26.1,0l-63.3,36.5c-7.2,4.1-7.2,10.9,0,15.1l63.3,36.5
						c7.2,4.1,18.9,4.1,26.1,0l63.3-36.5c7.2-4.1,7.2-10.9,0-15.1L109.2,360.2z"/>
					<path class="st33" d="M109.1,360.4c-7.1-4.1-18.8-4.1-26,0l-62.9,36.3c-7.1,4.1-7.1,10.9,0,15l62.9,36.3c7.1,4.1,18.8,4.1,26,0
						l62.9-36.3c7.1-4.1,7.1-10.9,0-15L109.1,360.4z"/>
					<path class="st34" d="M109.1,360.7c-7.1-4.1-18.7-4.1-25.8,0l-62.6,36.1c-7.1,4.1-7.1,10.8,0,14.9l62.6,36.1
						c7.1,4.1,18.7,4.1,25.8,0l62.6-36.1c7.1-4.1,7.1-10.8,0-14.9L109.1,360.7z"/>
					<path class="st35" d="M109,360.9c-7.1-4.1-18.6-4.1-25.7,0l-62.2,35.9c-7.1,4.1-7.1,10.7,0,14.8l62.2,35.9
						c7.1,4.1,18.6,4.1,25.7,0l62.2-35.9c7.1-4.1,7.1-10.7,0-14.8L109,360.9z"/>
					<path class="st36" d="M108.9,361.2c-7-4.1-18.5-4.1-25.5,0l-61.8,35.7c-7,4.1-7,10.7,0,14.7l61.8,35.7c7,4.1,18.5,4.1,25.5,0
						l61.8-35.7c7-4.1,7-10.7,0-14.7L108.9,361.2z"/>
					<path class="st37" d="M108.9,361.4c-7-4-18.4-4-25.4,0L22,396.9c-7,4-7,10.6,0,14.7l61.5,35.5c7,4,18.4,4,25.4,0l61.5-35.5
						c7-4,7-10.6,0-14.7L108.9,361.4z"/>
					<path class="st38" d="M108.8,361.7c-6.9-4-18.3-4-25.2,0L22.4,397c-6.9,4-6.9,10.6,0,14.6l61.1,35.3c6.9,4,18.3,4,25.2,0
						l61.1-35.3c6.9-4,6.9-10.6,0-14.6L108.8,361.7z"/>
					<path class="st39" d="M108.7,361.9c-6.9-4-18.2-4-25.1,0L22.8,397c-6.9,4-6.9,10.5,0,14.5l60.8,35.1c6.9,4,18.2,4,25.1,0
						l60.8-35.1c6.9-4,6.9-10.5,0-14.5L108.7,361.9z"/>
					<path class="st40" d="M108.6,362.2c-6.9-4-18.1-4-24.9,0l-60.4,34.9c-6.9,4-6.9,10.4,0,14.4l60.4,34.9c6.9,4,18.1,4,24.9,0
						l60.4-34.9c6.9-4,6.9-10.4,0-14.4L108.6,362.2z"/>
					<path class="st41" d="M108.6,362.4c-6.8-3.9-18-3.9-24.8,0l-60.1,34.7c-6.8,3.9-6.8,10.4,0,14.3l60.1,34.7
						c6.8,3.9,18,3.9,24.8,0l60.1-34.7c6.8-3.9,6.8-10.4,0-14.3L108.6,362.4z"/>
					<path class="st42" d="M108.5,362.7c-6.8-3.9-17.9-3.9-24.6,0l-59.7,34.5c-6.8,3.9-6.8,10.3,0,14.2l59.7,34.5
						c6.8,3.9,17.9,3.9,24.6,0l59.7-34.5c6.8-3.9,6.8-10.3,0-14.2L108.5,362.7z"/>
					<path class="st43" d="M108.4,362.9c-6.7-3.9-17.8-3.9-24.5,0l-59.4,34.3c-6.7,3.9-6.7,10.3,0,14.1l59.4,34.3
						c6.7,3.9,17.8,3.9,24.5,0l59.4-34.3c6.7-3.9,6.7-10.3,0-14.1L108.4,362.9z"/>
					<path class="st44" d="M108.3,363.2c-6.7-3.9-17.7-3.9-24.4,0l-59,34.1c-6.7,3.9-6.7,10.2,0,14.1l59,34.1
						c6.7,3.9,17.7,3.9,24.4,0l59-34.1c6.7-3.9,6.7-10.2,0-14.1L108.3,363.2z"/>
					<path class="st45" d="M108.3,363.4c-6.7-3.8-17.5-3.8-24.2,0l-58.6,33.9c-6.7,3.8-6.7,10.1,0,14l58.6,33.9
						c6.7,3.8,17.5,3.8,24.2,0l58.6-33.9c6.7-3.8,6.7-10.1,0-14L108.3,363.4z"/>
					<path class="st46" d="M108.2,363.7c-6.6-3.8-17.4-3.8-24.1,0l-58.3,33.6c-6.6,3.8-6.6,10.1,0,13.9l58.3,33.6
						c6.6,3.8,17.4,3.8,24.1,0l58.3-33.6c6.6-3.8,6.6-10.1,0-13.9L108.2,363.7z"/>
					<path class="st47" d="M108.1,363.9c-6.6-3.8-17.3-3.8-23.9,0l-57.9,33.4c-6.6,3.8-6.6,10,0,13.8l57.9,33.4
						c6.6,3.8,17.3,3.8,23.9,0l57.9-33.4c6.6-3.8,6.6-10,0-13.8L108.1,363.9z"/>
					<path class="st48" d="M108,364.2c-6.5-3.8-17.2-3.8-23.8,0l-57.6,33.2c-6.5,3.8-6.5,9.9,0,13.7l57.6,33.2
						c6.5,3.8,17.2,3.8,23.8,0l57.6-33.2c6.5-3.8,6.5-9.9,0-13.7L108,364.2z"/>
					<path class="st49" d="M108,364.4c-6.5-3.7-17.1-3.7-23.6,0l-57.2,33c-6.5,3.8-6.5,9.9,0,13.6l57.2,33c6.5,3.7,17.1,3.7,23.6,0
						l57.2-33c6.5-3.7,6.5-9.9,0-13.6L108,364.4z"/>
					<path class="st50" d="M107.9,364.7c-6.5-3.7-17-3.7-23.5,0l-56.9,32.8c-6.5,3.7-6.5,9.8,0,13.5l56.9,32.8
						c6.5,3.7,17,3.7,23.5,0l56.9-32.8c6.5-3.7,6.5-9.8,0-13.5L107.9,364.7z"/>
					<path class="st51" d="M107.8,364.9c-6.4-3.7-16.9-3.7-23.3,0L28,397.5c-6.4,3.7-6.4,9.8,0,13.5l56.5,32.6
						c6.4,3.7,16.9,3.7,23.3,0l56.5-32.6c6.4-3.7,6.4-9.8,0-13.5L107.8,364.9z"/>
					<path id="XMLID_794_" class="st52" d="M107.7,365.1c-6.4-3.7-16.8-3.7-23.2,0l-56.1,32.4c-6.4,3.7-6.4,9.7,0,13.4l56.1,32.4
						c6.4,3.7,16.8,3.7,23.2,0l56.1-32.4c6.4-3.7,6.4-9.7,0-13.4L107.7,365.1z"/>
				</g>
				<linearGradient id="XMLID_18_" gradientUnits="userSpaceOnUse" x1="9.1443" y1="401.8897" x2="183.1777" y2="401.8897">
					<stop  offset="0" style="stop-color:#B4ACBF"/>
					<stop  offset="0.5146" style="stop-color:#D1C8DE"/>
					<stop  offset="1" style="stop-color:#F0E5FF"/>
				</linearGradient>
				<path id="XMLID_26138_" class="st96" d="M92.7,351.7L9.1,391.4v11.4c0,0.7,0.4,1.3,0.9,1.6l82.6,47.8c2.2,1.2,4.8,1.2,7,0
					l82.5-47.7c0.7-0.4,1.1-1.1,1.1-1.8v-11.2l-83.5-39.7C97.5,350.4,94.8,350.4,92.7,351.7z"/>
				<linearGradient id="XMLID_19_" gradientUnits="userSpaceOnUse" x1="9.1442" y1="391.3576" x2="183.1777" y2="391.3576">
					<stop  offset="0" style="stop-color:#F0E5FF"/>
					<stop  offset="1" style="stop-color:#FFFFFF"/>
				</linearGradient>
				<path id="XMLID_26137_" class="st97" d="M92.7,341.1l-81.8,47.2c-2.3,1.3-2.3,4.7,0,6l81.8,47.2c2.2,1.2,4.8,1.2,7,0l81.8-47.2
					c2.3-1.3,2.3-4.7,0-6l-81.8-47.2C97.5,339.9,94.8,339.9,92.7,341.1z"/>
			</g>
			<g>
				<linearGradient id="XMLID_20_" gradientUnits="userSpaceOnUse" x1="33.6269" y1="389.7484" x2="157.7585" y2="389.7484">
					<stop  offset="0" style="stop-color:#F0E5FF"/>
					<stop  offset="1" style="stop-color:#FFFFFF"/>
				</linearGradient>
				<path id="XMLID_26130_" class="st98" d="M93.2,353.9l-58.3,33.7c-1.6,0.9-1.6,3.3,0,4.3l58.3,33.7c1.5,0.9,3.4,0.9,5,0
					l58.3-33.7c1.6-0.9,1.6-3.3,0-4.3l-58.3-33.7C96.6,353,94.7,353,93.2,353.9z"/>
				<linearGradient id="XMLID_21_" gradientUnits="userSpaceOnUse" x1="33.6387" y1="407.3055" x2="157.7468" y2="407.3055">
					<stop  offset="0.1499" style="stop-color:#FF9800"/>
					<stop  offset="1" style="stop-color:#FFC107"/>
				</linearGradient>
				<path id="XMLID_26118_" class="st99" d="M156.5,389.1l-58.3,33.7c-1.5,0.9-3.4,0.9-5,0l-58.3-33.7c-0.3-0.2-0.6-0.5-0.8-0.8
					c-0.8,1.1-0.5,2.8,0.8,3.5l58.3,33.7c1.5,0.9,3.4,0.9,5,0l58.3-33.7c1.3-0.8,1.6-2.4,0.8-3.5
					C157.1,388.7,156.9,388.9,156.5,389.1z"/>
				<linearGradient id="XMLID_22_" gradientUnits="userSpaceOnUse" x1="33.6387" y1="407.3055" x2="157.7468" y2="407.3055">
					<stop  offset="0" style="stop-color:#B4ACBF"/>
					<stop  offset="0.5146" style="stop-color:#D1C8DE"/>
					<stop  offset="1" style="stop-color:#F0E5FF"/>
				</linearGradient>
				<path id="XMLID_26114_" class="st100" d="M156.5,389.1l-58.3,33.7c-1.5,0.9-3.4,0.9-5,0l-58.3-33.7c-0.3-0.2-0.6-0.5-0.8-0.8
					c-0.8,1.1-0.5,2.8,0.8,3.5l58.3,33.7c1.5,0.9,3.4,0.9,5,0l58.3-33.7c1.3-0.8,1.6-2.4,0.8-3.5
					C157.1,388.7,156.9,388.9,156.5,389.1z"/>
				<linearGradient id="XMLID_23_" gradientUnits="userSpaceOnUse" x1="46.9552" y1="386.9349" x2="145.056" y2="386.9349">
					<stop  offset="0" style="stop-color:#2F1359"/>
					<stop  offset="1" style="stop-color:#491E8C"/>
				</linearGradient>
				<path id="XMLID_26113_" class="st101" d="M94,358.6l-46.1,26.6c-1.3,0.7-1.3,2.6,0,3.4L94,415.2c1.2,0.7,2.7,0.7,3.9,0
					l46.1-26.6c1.3-0.7,1.3-2.6,0-3.4L98,358.6C96.8,357.9,95.3,357.9,94,358.6z"/>
				<path id="XMLID_26112_" class="st102" d="M58.1,386.5l36.3-21c1-0.6,2.1-0.6,3.1,0l36.3,21c0.4,0.2,0.6,0.5,0.7,0.9
					c0.2-0.6,0-1.4-0.7-1.8l-36.3-21c-1-0.6-2.1-0.6-3.1,0l-36.3,21c-0.7,0.4-0.9,1.1-0.7,1.8C57.5,387,57.8,386.7,58.1,386.5z"/>
				<path id="XMLID_26111_" class="st59" d="M144.1,387.3L98,413.9c-1.2,0.7-2.7,0.7-3.9,0l-46.1-26.6c-0.4-0.2-0.7-0.6-0.8-1
					c-0.3,0.8,0,1.8,0.8,2.3L94,415.2c1.2,0.7,2.7,0.7,3.9,0l46.1-26.6c0.9-0.5,1.1-1.5,0.8-2.3
					C144.8,386.7,144.5,387.1,144.1,387.3z"/>
				<g>
					<polygon class="st103" points="95.7,204.4 94.8,207.2 94.8,290.5 95.7,291.3 134.3,268.5 					"/>
					<polygon class="st104" points="95.7,204.4 57,268.5 95.7,291.3 95.7,250.9 					"/>
					<polygon class="st105" points="95.7,298.6 95.2,299.2 95.2,328.8 95.7,330.2 134.3,275.8 					"/>
					<polygon class="st104" points="95.7,330.2 95.7,298.6 57,275.8 					"/>
					<polygon class="st106" points="95.7,291.3 134.3,268.5 95.7,250.9 					"/>
					<polygon class="st107" points="57,268.5 95.7,291.3 95.7,250.9 					"/>
				</g>
				<g id="XMLID_25844_">
					<g>
						<g>
							<defs>
								<path id="XMLID_44_" d="M94.5,364.6l-36.3,21c-1,0.6-1,2.1,0,2.7l36.3,21c1,0.6,2.1,0.6,3.1,0l36.3-21c1-0.6,1-2.1,0-2.7
									l-36.3-21C96.6,364.1,95.4,364.1,94.5,364.6z"/>
							</defs>
							<clipPath id="XMLID_24_">
								<use xlink:href="#XMLID_44_"  style="overflow:visible;"/>
							</clipPath>
						</g>
					</g>
					<g>
						<path id="XMLID_43_" class="st59" d="M94.5,364.6l-36.3,21c-1,0.6-1,2.1,0,2.7l36.3,21c1,0.6,2.1,0.6,3.1,0l36.3-21
							c1-0.6,1-2.1,0-2.7l-36.3-21C96.6,364.1,95.4,364.1,94.5,364.6z"/>
						<g id="XMLID_41_">
							<g>
								<linearGradient id="XMLID_25_" gradientUnits="userSpaceOnUse" x1="96.0056" y1="409.6562" x2="96.0056" y2="258.6675">
									<stop  offset="0" style="stop-color:#FFA744;stop-opacity:0.7"/>
									<stop  offset="4.740834e-02" style="stop-color:#FDAE59;stop-opacity:0.6668"/>
									<stop  offset="0.1611" style="stop-color:#FABC85;stop-opacity:0.5872"/>
									<stop  offset="0.2801" style="stop-color:#F7C9AA;stop-opacity:0.5039"/>
									<stop  offset="0.4031" style="stop-color:#F4D3C9;stop-opacity:0.4179"/>
									<stop  offset="0.5313" style="stop-color:#F2DBE1;stop-opacity:0.3281"/>
									<stop  offset="0.667" style="stop-color:#F1E1F2;stop-opacity:0.2331"/>
									<stop  offset="0.8154" style="stop-color:#F0E4FC;stop-opacity:0.1292"/>
									<stop  offset="1" style="stop-color:#F0E5FF;stop-opacity:0"/>
								</linearGradient>
								<path id="XMLID_42_" class="st108" d="M57.4,258.7c0,0,0,127.7,0,128.3c0,0.5,0.3,1,0.8,1.3l36.3,21c1,0.6,2.1,0.6,3.1,0
									l36.3-21c0.5-0.3,0.8-0.8,0.8-1.3c0-0.5,0-128.3,0-128.3H57.4z"/>
							</g>
						</g>
						<g>
							<defs>
								<path id="XMLID_39_" d="M94.5,364.6l-36.3,21c-1,0.6-1,2.1,0,2.7l36.3,21c1,0.6,2.1,0.6,3.1,0l36.3-21c1-0.6,1-2.1,0-2.7
									l-36.3-21C96.6,364.1,95.4,364.1,94.5,364.6z"/>
							</defs>
							<clipPath id="XMLID_26_">
								<use xlink:href="#XMLID_39_"  style="overflow:visible;"/>
							</clipPath>
							<radialGradient id="XMLID_27_" cx="96.0056" cy="388.4528" r="31.7034" gradientUnits="userSpaceOnUse">
								<stop  offset="0" style="stop-color:#FFFFFF"/>
								<stop  offset="1" style="stop-color:#FFA744"/>
							</radialGradient>
							<path id="XMLID_40_" class="st109" d="M94.5,366.1l-36.3,21c-1,0.6-1,2.1,0,2.7l36.3,21c1,0.6,2.1,0.6,3.1,0l36.3-21
								c1-0.6,1-2.1,0-2.7l-36.3-21C96.6,365.6,95.4,365.6,94.5,366.1z"/>
						</g>
					</g>
					<g>
						<g>
							<defs>
								<path id="XMLID_34_" d="M94.5,364.6l-36.3,21c-1,0.6-1,2.1,0,2.7l36.3,21c1,0.6,2.1,0.6,3.1,0l36.3-21c1-0.6,1-2.1,0-2.7
									l-36.3-21C96.6,364.1,95.4,364.1,94.5,364.6z"/>
							</defs>
							<clipPath id="XMLID_28_">
								<use xlink:href="#XMLID_34_"  style="overflow:visible;"/>
							</clipPath>
						</g>
					</g>
				</g>
				<g>
					<linearGradient id="XMLID_29_" gradientUnits="userSpaceOnUse" x1="96.0056" y1="394.9778" x2="96.0056" y2="369.9943">
						<stop  offset="0" style="stop-color:#FFFFFF;stop-opacity:0.7"/>
						<stop  offset="1" style="stop-color:#F0E5FF;stop-opacity:0"/>
					</linearGradient>
					<path id="XMLID_25843_" class="st110" d="M58.1,370.4c-1,0.6-1,2.1,0,2.7l36.3,21c1,0.6,2.1,0.6,3.1,0l36.3-21
						c1-0.6,1-2.1,0-2.7"/>
					<linearGradient id="XMLID_30_" gradientUnits="userSpaceOnUse" x1="96.0056" y1="379.7993" x2="96.0056" y2="354.8158">
						<stop  offset="0" style="stop-color:#FFFFFF;stop-opacity:0.7"/>
						<stop  offset="1" style="stop-color:#F0E5FF;stop-opacity:0"/>
					</linearGradient>
					<path id="XMLID_25842_" class="st111" d="M58.1,355.2c-1,0.6-1,2.1,0,2.7l36.3,21c1,0.6,2.1,0.6,3.1,0l36.3-21
						c1-0.6,1-2.1,0-2.7"/>
					<linearGradient id="XMLID_31_" gradientUnits="userSpaceOnUse" x1="96.0056" y1="364.6208" x2="96.0056" y2="339.6373">
						<stop  offset="0" style="stop-color:#FFFFFF;stop-opacity:0.7"/>
						<stop  offset="1" style="stop-color:#F0E5FF;stop-opacity:0"/>
					</linearGradient>
					<path id="XMLID_25841_" class="st112" d="M58.1,340.1c-1,0.6-1,2.1,0,2.7l36.3,21c1,0.6,2.1,0.6,3.1,0l36.3-21
						c1-0.6,1-2.1,0-2.7"/>
					<linearGradient id="XMLID_32_" gradientUnits="userSpaceOnUse" x1="96.0056" y1="349.4423" x2="96.0056" y2="324.4588">
						<stop  offset="0" style="stop-color:#FFFFFF;stop-opacity:0.7"/>
						<stop  offset="1" style="stop-color:#F0E5FF;stop-opacity:0"/>
					</linearGradient>
					<path id="XMLID_25836_" class="st113" d="M58.1,324.9c-1,0.6-1,2.1,0,2.7l36.3,21c1,0.6,2.1,0.6,3.1,0l36.3-21
						c1-0.6,1-2.1,0-2.7"/>
					<linearGradient id="XMLID_33_" gradientUnits="userSpaceOnUse" x1="96.0056" y1="334.2638" x2="96.0056" y2="309.2803">
						<stop  offset="0" style="stop-color:#FFFFFF;stop-opacity:0.7"/>
						<stop  offset="1" style="stop-color:#F0E5FF;stop-opacity:0"/>
					</linearGradient>
					<path id="XMLID_25816_" class="st114" d="M58.1,309.7c-1,0.6-1,2.1,0,2.7l36.3,21c1,0.6,2.1,0.6,3.1,0l36.3-21
						c1-0.6,1-2.1,0-2.7"/>
					<linearGradient id="XMLID_35_" gradientUnits="userSpaceOnUse" x1="96.0056" y1="319.0853" x2="96.0056" y2="294.1018">
						<stop  offset="0" style="stop-color:#FFFFFF;stop-opacity:0.7"/>
						<stop  offset="1" style="stop-color:#F0E5FF;stop-opacity:0"/>
					</linearGradient>
					<path id="XMLID_25814_" class="st115" d="M58.1,294.5c-1,0.6-1,2.1,0,2.7l36.3,21c1,0.6,2.1,0.6,3.1,0l36.3-21
						c1-0.6,1-2.1,0-2.7"/>
					<linearGradient id="XMLID_36_" gradientUnits="userSpaceOnUse" x1="96.0056" y1="303.9068" x2="96.0056" y2="278.9233">
						<stop  offset="0" style="stop-color:#FFFFFF;stop-opacity:0.7"/>
						<stop  offset="1" style="stop-color:#F0E5FF;stop-opacity:0"/>
					</linearGradient>
					<path id="XMLID_18294_" class="st116" d="M58.1,279.4c-1,0.6-1,2.1,0,2.7l36.3,21c1,0.6,2.1,0.6,3.1,0l36.3-21
						c1-0.6,1-2.1,0-2.7"/>
				</g>
			</g>
		</g>
	</g>
</g>
</svg>
