<svg xmlns="http://www.w3.org/2000/svg" xmlns:xlink="http://www.w3.org/1999/xlink" id="Layer_1" x="0" y="0" enable-background="new 0 0 454 100" version="1.1" viewBox="0 0 454 100" xml:space="preserve"><style type="text/css">.st0{fill:#ffd9ff}.st1{fill:#ffe888}.st2{fill:#eaba5c}.st3{fill:#fff8c8}.st4{fill:#44392e}.st5{fill:#fff}.st6{fill:#f930e7}.st7{fill:#ff6cf1}.st8{fill:#fa71f0}.st9{fill:#f630e3}.st10{fill:#ffc8fb}.st11{clip-path:url(#SVGID_2_);fill:#ff9ffe}.st12{fill:#3d2a3e}</style><g><g><path d="M136.9,34c8.8,0,14.4,5.1,15.9,12.9h-6.5c-1.5-4.1-4.2-6.9-9.4-6.9c-6.9,0-11.1,6-11.1,14.2c0,8.1,4.1,14.2,11.1,14.2 c5.2,0,7.9-2.8,9.4-7h6.5c-1.5,7.9-7.1,13-15.9,13c-10,0-17.7-8.1-17.7-20.2S126.9,34,136.9,34z"/><path d="M174.6,51.9c-0.9-0.6-2.4-1-3.8-1c-2.6,0-5,1.5-5.7,4.5v18.3h-6.4V45.4h6.4v2.9c1.1-2.1,3.6-3.6,6.3-3.6 c1.4,0,2.7,0.3,3.1,0.5V51.9z"/><path d="M184.6,84.5l4-10l-10.9-29h6.8l7.4,20.8l7.2-20.8h6.6l-14.9,39H184.6z"/><path d="M217.1,84.5h-6.4v-39h6.4v2.4c1.3-1.6,4.1-3.1,7.2-3.1c8.3,0,13.1,6.9,13.1,14.8s-4.8,14.8-13.1,14.8 c-3.1,0-5.9-1.5-7.2-3.1V84.5z M217.1,64.9c1.1,2.2,3.5,3.8,6.1,3.8c4.9,0,7.8-3.9,7.8-9.1s-2.9-9.1-7.8-9.1c-2.6,0-5,1.5-6.1,3.8 V64.9z"/><path d="M244.8,50.7h-4.5v-5.3h4.5v-7.6h6.4v7.6h6.4v5.3h-6.4v14.6c0,2.3,1.3,3.3,3.4,3.3c1.3,0,2.7-0.5,3.6-1.1v5.8 c-1.1,0.6-2.8,1-4.8,1c-5,0-8.6-2.7-8.6-8.3V50.7z"/><path d="M275.7,74.3c-7.9,0-13.4-6.1-13.4-14.8s5.5-14.8,13.4-14.8s13.4,6.1,13.4,14.8S283.7,74.3,275.7,74.3z M275.7,50.3 c-4.6,0-7.1,3.9-7.1,9.3s2.5,9.3,7.1,9.3c4.6,0,7.1-3.9,7.1-9.3S280.3,50.3,275.7,50.3z"/><path d="M302.1,53.3l16.2-18.7h8.3l-15.8,17.7l16.3,21.3h-8.3l-12.8-16.7l-4,4.6v12.1h-6.6v-39h6.6V53.3z"/><path d="M335.3,40.8c-2.1,0-3.9-1.7-3.9-3.9c0-2.2,1.8-3.9,3.9-3.9c2.1,0,3.9,1.7,3.9,3.9C339.2,39.1,337.4,40.8,335.3,40.8z M338.4,73.7h-6.4V45.4h6.4V73.7z"/><path d="M347.8,50.7h-4.5v-5.3h4.5v-7.6h6.4v7.6h6.4v5.3h-6.4v14.6c0,2.3,1.3,3.3,3.4,3.3c1.3,0,2.7-0.5,3.6-1.1v5.8 c-1.1,0.6-2.8,1-4.8,1c-5,0-8.6-2.7-8.6-8.3V50.7z"/><path d="M369.1,50.7h-4.5v-5.3h4.5v-7.6h6.4v7.6h6.4v5.3h-6.4v14.6c0,2.3,1.3,3.3,3.4,3.3c1.3,0,2.7-0.5,3.6-1.1v5.8 c-1.1,0.6-2.8,1-4.8,1c-5,0-8.6-2.7-8.6-8.3V50.7z"/><path d="M392.1,40.8c-2.1,0-3.9-1.7-3.9-3.9c0-2.2,1.8-3.9,3.9-3.9c2.1,0,3.9,1.7,3.9,3.9C396.1,39.1,394.2,40.8,392.1,40.8z M395.3,73.7h-6.4V45.4h6.4V73.7z"/><path d="M426.5,64.9c-1,5.6-5.1,9.4-11.9,9.4c-7.9,0-13.4-6-13.4-14.7c0-8.5,5.5-14.8,13.2-14.8c7.9,0,12.3,5.7,12.3,13.9V61 h-19.3c0.2,5,3.1,7.9,7.1,7.9c3.1,0,5.3-1.3,6-4.1H426.5z M407.6,56.4h12.8c-0.1-3.4-2-6.2-5.9-6.2 C411,50.1,408.4,52.3,407.6,56.4z"/><path d="M437.1,65.5c0.7,2.4,2.8,3.6,5.6,3.6c2.9,0,4.8-1.1,4.8-3.4c0-1.5-1-2.4-3.3-2.9l-5.9-1.4c-4-1-7-3.1-7-7.8 c0-5.1,4.5-8.8,10.7-8.8c6.6,0,10.4,3.2,11.3,8.3h-6.2c-0.6-1.8-2.2-3.1-5.2-3.1c-2.2,0-4.5,1-4.5,3.2c0,1.3,0.9,2.1,2.9,2.6 l6,1.4c4.8,1.1,7.3,3.9,7.3,8c0,5.6-4.6,9-11,9c-6.6,0-11.2-3.3-12-8.8H437.1z"/></g><g><g><ellipse cx="49" cy="52.8" class="st0" rx="48.6" ry="47.2"/><g><path d="M67.3,80.2c3.4-3.1,6.6-6.4,9.4-10.1c1.9,0.5,3.9,0.3,5.7-0.5c-1.6-1.3-3-2.9-4.1-4.6 c2.6,1,5.5,0.7,7.8-0.7c0,0-7.5-4.2-8.5-7.5c-4-12.4-3.7-13.5-3.7-13.5c2.3-6,4.1-12.8,2.3-15.1c-2.3-2.9-5,1.6-11.9,6.3 c0,0-4.1-3.9-15.2-3.9c-5.1,0.3-10.1,1.6-14.7,4c-3.1-2.3-5.2-4.4-7.7-5.9c-3.8-2.3-5.6-0.2-4.2,4.6c0.6,1.9,1.5,6.2,2.3,10 c0.6,2.7,0,2.1-2.3,10.5c-0.8,2-1.8,4-3,5.8c-1.7,2.3-4.1,4-6.9,4.6c2.4,1.4,5.3,1.7,7.8,0.7c-1.1,1.7-2.5,3.3-4.1,4.6 c1.8,0.9,3.8,1,5.7,0.5c1.9,4.1,5.2,7.5,9.2,9.6c0,0,4.6,5.5,17.9,5.5C61.3,85.2,67.3,80.2,67.3,80.2z" class="st1"/><path d="M38.6,32.5c0,0-13.5,12.8-11.7,30.2c2,19.2,22.4,22.5,22.4,22.5c-11-0.2-21.1-5.8-27-15.1 c0,0-3.9,1.4-5.7-0.5c0,0,3.5-2.3,4.1-4.6c-2.6,1.1-5.5,0.8-7.8-0.7c3.4-0.9,6.2-3.1,7.9-6.1C25.2,50.7,25.3,38.3,38.6,32.5z" class="st2"/><path d="M78.6,58.1c1.7,3,4.6,5.2,7.9,6.1c-2.3,1.5-5.3,1.8-7.8,0.7c0.6,2.3,4.1,4.6,4.1,4.6 c-1.9,1.9-5.7,0.5-5.7,0.5c-5.9,9.2-16,14.9-27,15.1c0,0,20.4-3.3,22.4-22.5c1.8-17.4-11.7-30.2-11.7-30.2 C74.1,38.3,74.2,50.7,78.6,58.1z" class="st3"/><path d="M32.5,36.9c0,0-2.7-2.3-5.7-4.6c-2.3-1.8-3.5-1.8-4.1,0.2l2.8,11.9l2.7-1.6l2.1-3.5L32.5,36.9z M66.7,36.9 c0,0,2.7-2.3,5.7-4.6c2.3-1.8,3.5-1.8,4.1,0.2l-2.8,12l-2.6-1.7L69,39.2L66.7,36.9z" class="st2"/><path d="M49.6,85.9c-9.5,0-16.5-4.2-20.8-7.7c-3.7-3.1-6-6.1-6.8-7.3c-1.9,0.4-4,0.2-5.8-0.7 c-0.2-0.1-0.4-0.3-0.4-0.6c0-0.2,0.1-0.5,0.3-0.6c1-0.9,2-1.8,2.8-2.9c-2.2,0.3-4.5-0.1-6.4-1.3c-0.3-0.2-0.4-0.4-0.3-0.7 c0-0.3,0.3-0.5,0.6-0.6c3.2-0.7,5.9-2.8,7.4-5.8c0.8-1.7,1.8-4,2.8-6.6c1.2-2.9,2.4-5.9,3.5-7.9c5.2-9.4,12-13.5,22.8-13.5 c9.8-0.5,19,4.8,23.5,13.6c1.1,2,2.3,5,3.5,7.9c1,2.5,2,4.9,2.8,6.6c1.5,2.9,4.2,5,7.4,5.8c0.3,0.1,0.5,0.3,0.6,0.6 c0,0.3-0.1,0.6-0.3,0.7c-1.9,1.2-4.2,1.6-6.4,1.3c0.8,1,1.8,2,2.8,2.9c0.2,0.2,0.3,0.4,0.3,0.7c0,0.2-0.2,0.5-0.4,0.6 c-1.8,0.9-3.8,1.1-5.7,0.7c-0.8,1.1-3,4.2-6.8,7.2C66.1,81.7,59,85.9,49.6,85.9z M22.4,69.4c0.2,0,0.5,0.1,0.6,0.3 c0,0,2.4,3.7,6.8,7.4c4.1,3.3,10.8,7.3,19.8,7.3c17.3,0,26.6-14.5,26.7-14.6c0.2-0.3,0.5-0.4,0.8-0.3c1.4,0.4,2.8,0.4,4.2,0 c-1.3-1.2-2.4-2.5-3.3-4c-0.2-0.3-0.2-0.6,0-0.9s0.5-0.3,0.8-0.2c1.8,0.7,3.8,0.7,5.6,0.1c-2.8-1.1-5.1-3.2-6.6-5.9 c-0.9-1.7-1.9-4.1-2.9-6.7c-1.2-2.9-2.4-5.9-3.4-7.8c0,0,0,0,0,0c-4.2-8.3-12.8-13.3-22.1-12.8c0,0,0,0,0,0 c-10.2,0-16.6,3.8-21.5,12.7c-1.1,1.9-2.3,4.9-3.4,7.8c-1,2.6-2,5-2.9,6.7c-1.4,2.7-3.8,4.8-6.6,5.9c1.8,0.6,3.8,0.6,5.6-0.1 c0.3-0.1,0.6,0,0.8,0.2c0.2,0.2,0.2,0.6,0,0.9c-1,1.5-2.1,2.8-3.3,4c1.4,0.4,2.8,0.4,4.2,0C22.2,69.4,22.3,69.4,22.4,69.4z" class="st4"/><path d="M25.3,45.1c-0.3,0-0.5-0.2-0.6-0.5c0-0.1-2.3-9.5-3-12.4c-0.7-3.1,0.4-4.3,1.1-4.7c1.2-0.7,2.9-0.4,4.5,0.8 l7.2,5.4c0.3,0.2,0.3,0.6,0.1,0.9c-0.2,0.3-0.6,0.3-0.9,0.1l-7.2-5.4c-1.2-0.9-2.4-1.2-3.1-0.8c-0.7,0.5-0.9,1.7-0.6,3.4 c0.7,2.9,3,12.3,3,12.4c0.1,0.3-0.1,0.7-0.5,0.7C25.4,45.1,25.4,45.1,25.3,45.1z M73.7,45c0,0-0.1,0-0.1,0 c-0.3-0.1-0.5-0.4-0.5-0.7c0-0.1,2.3-9.6,3-12.5c0.4-1.7,0.2-2.9-0.6-3.4c-0.7-0.4-1.9-0.2-3.1,0.7L64.9,35 c-0.3,0.2-0.7,0.2-0.9-0.1c-0.2-0.3-0.2-0.7,0.1-0.9l7.6-5.9c1.6-1.3,3.3-1.6,4.5-0.8c0.7,0.4,1.8,1.7,1.1,4.7 c-0.7,2.9-3,12.4-3,12.5C74.3,44.8,74,45,73.7,45z" class="st4"/><g><circle cx="31.8" cy="51.5" r="9.5" class="st5"/><path d="M31.8,61.6c-5.6,0-10.1-4.5-10.1-10.1c0-5.6,4.5-10.1,10.1-10.1s10.1,4.5,10.1,10.1 C41.9,57,37.4,61.6,31.8,61.6z M31.8,42.6c-4.9,0-8.9,4-8.9,8.9s4,8.9,8.9,8.9s8.9-4,8.9-8.9S36.7,42.6,31.8,42.6z" class="st4"/></g><g><circle cx="31.9" cy="49.6" r="5.8" class="st4"/><path d="M31.9,56.1c-3.6,0-6.5-2.9-6.5-6.5c0-3.6,2.9-6.5,6.5-6.5s6.5,2.9,6.5,6.5C38.4,53.2,35.5,56.1,31.9,56.1z M31.9,44.4c-2.9,0-5.2,2.3-5.2,5.2s2.3,5.2,5.2,5.2s5.2-2.3,5.2-5.2S34.8,44.4,31.9,44.4z" class="st6"/></g><ellipse cx="31.8" cy="45.7" class="st5" rx="2.7" ry="2.7" transform="matrix(0.7067 -0.7075 0.7075 0.7067 -22.9685 35.9036)"/><g><circle cx="67.4" cy="51.5" r="9.5" class="st5"/><path d="M67.4,61.6c-5.6,0-10.1-4.5-10.1-10.1c0-5.6,4.5-10.1,10.1-10.1c5.6,0,10.1,4.5,10.1,10.1 C77.5,57,73,61.6,67.4,61.6z M67.4,42.6c-4.9,0-8.9,4-8.9,8.9s4,8.9,8.9,8.9c4.9,0,8.9-4,8.9-8.9S72.3,42.6,67.4,42.6z" class="st4"/></g><g><circle cx="67.5" cy="49.6" r="5.8" class="st4"/><path d="M67.5,56c-3.6,0-6.5-2.9-6.5-6.5c0-3.6,2.9-6.5,6.5-6.5s6.5,2.9,6.5,6.5C73.9,53.1,71,56,67.5,56z M67.5,44.4c-2.9,0-5.2,2.3-5.2,5.2s2.3,5.2,5.2,5.2s5.2-2.3,5.2-5.2S70.3,44.4,67.5,44.4z" class="st6"/></g><ellipse cx="67.4" cy="45.6" class="st5" rx="2.7" ry="2.7" transform="matrix(0.7067 -0.7075 0.7075 0.7067 -12.4984 61.0626)"/><path d="M55,67.9c0.1,3.1-2.2,5.8-5.3,6.3c-3.1-0.4-5.4-3.1-5.4-6.3l5.3-3.1L55,67.9z" class="st4"/><path d="M54,71.6c-2.3-2.4-6.1-2.5-8.5-0.2c-0.1,0.1-0.1,0.1-0.2,0.2l4.4,1.9L54,71.6z" class="st6"/><path d="M46,71.9c-0.1,0-0.3-0.1-0.4-0.2c-0.2-0.2-0.2-0.5,0-0.7c1.1-1.1,2.6-1.6,4.1-1.6c1.3,0,2.6,0.4,3.6,1.1 c0.2,0.2,0.3,0.5,0.1,0.7c-0.2,0.2-0.5,0.3-0.7,0.1c-0.9-0.6-1.9-1-3-0.9l0,0l0,0c-1.2-0.1-2.4,0.4-3.3,1.3 C46.2,71.9,46.1,71.9,46,71.9z" class="st4"/><path d="M50.1,68.4h-0.8c-1.1,0-2-0.9-2-2c0-1.1,0.9-2,2-2h0.8c1.1,0,2,0.9,2,2C52.1,67.5,51.2,68.4,50.1,68.4z" class="st5"/><path d="M63.6,66.7c-1.2,1-2.7,1.7-4.3,1.9c-1.6,0.2-3.2,0-4.7-0.4c-1.6-0.4-3.1-1.2-4.3-2.3 c-0.6-0.6-1.1-1.4-1.2-2.3c0-0.4,0-0.8,0-1.3v-1.1c0-0.5,0.4-0.9,0.9-0.9c0,0,0,0,0,0c0.5,0,0.9,0.4,0.9,0.9v1.1 c0,0.3,0,0.7,0,1c0.1,0.6,0.4,1.2,0.8,1.6c1,1.1,2.2,1.8,3.5,2.3c2.7,1.1,5.8,0.8,8.3-0.9c0.1-0.1,0.3-0.1,0.5,0 c0.1,0.2,0,0.4-0.2,0.4C63.6,66.7,63.6,66.7,63.6,66.7z" class="st4"/><path d="M36.9,66.2c1.1,0.9,2.5,1.4,3.9,1.4c1.4,0,2.9-0.2,4.2-0.7c1.3-0.5,2.4-1.3,3.3-2.3c0.3-0.5,0.5-1,0.5-1.6 v-2.3c0-0.5,0.4-0.9,0.9-0.9c0,0,0,0,0,0c0.5,0,0.9,0.4,0.9,0.9v2.3c-0.1,0.9-0.4,1.8-1,2.5c-1.1,1.3-2.5,2.2-4.2,2.7 c-1.5,0.5-3.1,0.7-4.6,0.5c-1.6-0.1-3.1-0.8-4.3-1.9c-0.1-0.1-0.1-0.3,0.1-0.5C36.7,66.2,36.8,66.2,36.9,66.2L36.9,66.2z" class="st4"/><path d="M49.7,74.3c-0.2,0-0.4,0-0.6,0c-2.9-0.3-5.3-2.6-5.6-5.6c0-0.4,0.3-0.8,0.7-0.9c0.4,0,0.8,0.3,0.9,0.7 c0.2,2.2,1.9,3.9,4.1,4.1c2.5,0.2,4.8-1.6,5-4.1c0-0.4,0.4-0.7,0.9-0.7c0.4,0,0.7,0.4,0.7,0.9C55.5,71.9,52.8,74.3,49.7,74.3z" class="st4"/><g><path d="M45.2,60.6c-0.1-0.4,0-0.8,0.3-1.1c1.2-1.1,2.8-1.7,4.4-1.6c1.5-0.2,3.1,0.4,4.2,1.5 c0.3,0.3,0.3,0.8,0.2,1.2c-0.2,0.5-0.7,0.9-1.3,0.9c-0.9,0-1.8,0.4-2.3,1.1l-0.1,0.2c-0.4,0.5-1.2,0.5-1.7,0.1c0,0,0,0-0.1-0.1 c0,0-0.5-0.9-2.3-1C45.9,61.6,45.4,61.2,45.2,60.6L45.2,60.6z M42.6,62.6c-3.5-0.8-7.1-0.7-10.6,0.3c-3.5,1.1-6.5,3.2-8.6,6.2 c2-3.1,4.9-5.5,8.4-6.8c3.5-1.2,7.3-1.6,11-0.9c0.4,0.1,0.6,0.4,0.6,0.7C43.3,62.4,43,62.7,42.6,62.6 C42.7,62.6,42.6,62.6,42.6,62.6L42.6,62.6z" class="st4"/><path d="M42.7,64.2c-2.4-0.3-4.8,0.2-6.9,1.2c-2,1.4-3.4,3.6-3.7,6c0.1-1.2,0.4-2.5,0.9-3.6 c0.5-1.1,1.3-2.2,2.3-2.9c2.2-1.3,4.7-2,7.3-2c0.3,0,0.6,0.2,0.6,0.6c0,0,0,0,0,0C43.3,63.9,43,64.2,42.7,64.2L42.7,64.2z M56.5,61.4c3.7-0.6,7.5-0.3,11,0.9c3.5,1.3,6.4,3.7,8.4,6.8c-2.1-3-5.1-5.1-8.6-6.2c-3.4-1-7.1-1.1-10.6-0.3 c-0.3,0.1-0.7,0-0.8-0.4c-0.1-0.3,0-0.7,0.4-0.8C56.3,61.4,56.4,61.4,56.5,61.4L56.5,61.4z" class="st4"/><path d="M56.6,62.9c2.6-0.1,5.1,0.6,7.3,2c1,0.8,1.8,1.8,2.3,2.9c0.5,1.1,0.8,2.4,0.9,3.6c-0.3-2.4-1.6-4.6-3.7-6 c-2.1-1.1-4.6-1.5-6.9-1.2c-0.4,0-0.7-0.3-0.6-0.7c0,0,0,0,0,0c0-0.3,0.3-0.6,0.6-0.6C56.5,62.9,56.5,62.9,56.6,62.9L56.6,62.9 z" class="st4"/></g></g><path d="M74.8,26.9c0.5,0,1,0.1,1.5,0.4c0.7,0.4,1.8,1.7,1.1,4.7c-0.6,2.6-2.5,10.5-2.9,12.2 c1.9,1.8,3.1,4.4,3.1,7.3c0,0.8-0.1,1.5-0.3,2.2c0.7,1.6,1.3,3,1.9,4.2c1.5,2.9,4.2,5,7.4,5.8c0.3,0.1,0.5,0.3,0.6,0.6 c0,0.3-0.1,0.6-0.3,0.7c-1.5,0.9-3.3,1.4-5,1.4c-0.5,0-0.9,0-1.4-0.1c0.8,1,1.8,2,2.8,2.9c0.2,0.2,0.3,0.4,0.3,0.7 c0,0.2-0.2,0.5-0.4,0.6c-1.2,0.6-2.5,0.9-3.9,0.9c-0.6,0-1.3-0.1-1.9-0.2c-0.8,1.1-3,4.2-6.8,7.2c-4.3,3.5-11.4,7.6-20.8,7.6 c-9.5,0-16.5-4.2-20.8-7.7c-0.5-0.4-1-0.9-1.5-1.3c-0.5-0.4-0.9-0.8-1.3-1.3c-2.1-2.1-3.4-3.9-4-4.7c-0.6,0.1-1.3,0.2-1.9,0.2 c-1.3,0-2.7-0.3-3.9-0.9c-0.2-0.1-0.4-0.3-0.4-0.6c0-0.2,0.1-0.5,0.3-0.6c1-0.9,2-1.8,2.8-2.9c-0.5,0.1-0.9,0.1-1.4,0.1 c-1.8,0-3.5-0.5-5-1.4c-0.3-0.2-0.4-0.4-0.3-0.7c0-0.3,0.3-0.5,0.6-0.6c3.2-0.7,5.9-2.8,7.4-5.8c0.6-1.1,1.2-2.6,1.9-4.2 c-0.2-0.7-0.2-1.4-0.2-2.1c0-2.8,1.1-5.3,2.9-7.1c-0.4-1.6-2.3-9.5-2.9-12.1c-0.7-3.1,0.4-4.3,1.1-4.7c0.4-0.3,0.9-0.4,1.5-0.4 c0.9,0,2,0.4,3,1.2l7.2,5.4c0,0,0,0,0,0c3.9-2.7,8.7-4,14.7-4c0.5,0,0.9,0,1.4,0c4.9,0,9.7,1.5,13.7,4.1l7.4-5.7 C72.8,27.4,73.8,26.9,74.8,26.9 M74.8,26.7c-1,0-2.1,0.4-3.2,1.3l-7.2,5.6c-4.1-2.7-8.8-4.1-13.7-4.1c-0.5,0-0.9,0-1.4,0 c-6,0-10.8,1.3-14.7,3.9l-7.1-5.3c-1.1-0.8-2.2-1.3-3.2-1.3c-0.6,0-1.1,0.1-1.6,0.4c-0.8,0.5-1.9,1.8-1.2,5 c0.6,2.5,2.5,10.2,2.9,12c-1.9,1.9-2.9,4.5-2.9,7.2c0,0.7,0.1,1.4,0.2,2.1c-0.5,1.3-1.2,2.9-1.8,4.1c-1.5,2.9-4.1,4.9-7.3,5.6 c-0.4,0.1-0.7,0.4-0.7,0.8c-0.1,0.4,0.1,0.8,0.5,1c1.5,0.9,3.3,1.4,5.2,1.4c0.3,0,0.5,0,0.8,0c-0.7,0.8-1.5,1.6-2.4,2.3 c-0.3,0.2-0.4,0.5-0.3,0.9c0,0.3,0.2,0.6,0.5,0.8c1.2,0.6,2.6,0.9,4,0.9c0.6,0,1.2-0.1,1.8-0.2c0.5,0.8,1.9,2.6,3.9,4.6 c0.4,0.4,0.9,0.9,1.4,1.3c0.5,0.5,1,0.9,1.5,1.3c4.3,3.5,11.4,7.8,20.9,7.8c9.5,0,16.7-4.2,21-7.7c3.6-3,5.9-5.9,6.8-7.1 c0.6,0.1,1.2,0.2,1.8,0.2c1.4,0,2.7-0.3,4-0.9c0.3-0.1,0.5-0.4,0.5-0.8c0-0.3-0.1-0.7-0.3-0.9c-0.9-0.7-1.7-1.5-2.4-2.3 c0.3,0,0.5,0,0.8,0c1.8,0,3.6-0.5,5.2-1.4c0.3-0.2,0.5-0.6,0.5-1c-0.1-0.4-0.4-0.7-0.7-0.8c-3.1-0.7-5.8-2.8-7.3-5.6 c-0.6-1.2-1.3-2.8-1.8-4.1c0.2-0.7,0.2-1.5,0.2-2.2c0-2.8-1.1-5.4-3.1-7.3c0.4-1.8,2.2-9.5,2.9-12c0.7-3.2-0.5-4.5-1.2-5 C75.9,26.8,75.3,26.7,74.8,26.7L74.8,26.7z" class="st5"/></g><g><g><path d="M36,25.1c-0.2,0-0.4-0.1-0.6-0.3c-0.3-0.3-0.2-0.8,0.1-1l2.3-1.8c0.3-0.3,0.8-0.2,1,0.1 c0.3,0.3,0.2,0.8-0.1,1l-2.3,1.8C36.3,25.1,36.1,25.1,36,25.1z" class="st7"/><path d="M38.2,21.8c0.2,0,0.4,0.1,0.6,0.3c0.3,0.3,0.2,0.8-0.1,1l-2.3,1.8c-0.1,0.1-0.3,0.2-0.5,0.2 c-0.2,0-0.4-0.1-0.6-0.3c-0.3-0.3-0.2-0.8,0.1-1l2.3-1.8C37.9,21.9,38.1,21.8,38.2,21.8 M38.2,21.6L38.2,21.6 c-0.2,0-0.4,0.1-0.6,0.2l-2.3,1.8C35.1,23.8,35,24,35,24.3c0,0.3,0,0.5,0.2,0.7c0.2,0.2,0.5,0.4,0.8,0.4c0.2,0,0.4-0.1,0.6-0.2 l2.3-1.8c0.2-0.2,0.3-0.4,0.4-0.7c0-0.3,0-0.5-0.2-0.7C38.8,21.7,38.5,21.6,38.2,21.6L38.2,21.6z" class="st5"/></g><g><path d="M37.8,7.7c-0.2,0-0.3-0.1-0.5-0.2l-3.3-2.6c-0.3-0.3-0.4-0.7-0.1-1c0.2-0.3,0.7-0.4,1-0.1l3.3,2.6 c0.3,0.3,0.4,0.7,0.1,1C38.3,7.6,38.1,7.7,37.8,7.7z" class="st7"/><path d="M34.6,3.6c0.2,0,0.3,0.1,0.5,0.2l3.3,2.6c0.3,0.3,0.4,0.7,0.1,1c-0.1,0.2-0.4,0.3-0.6,0.3 c-0.2,0-0.3-0.1-0.5-0.2l-3.3-2.6c-0.3-0.3-0.4-0.7-0.1-1C34.2,3.7,34.4,3.6,34.6,3.6 M34.6,3.4L34.6,3.4 c-0.3,0-0.6,0.1-0.8,0.4c-0.3,0.4-0.3,1,0.2,1.4l3.3,2.6c0.2,0.1,0.4,0.2,0.6,0.2c0.3,0,0.6-0.1,0.8-0.4c0.3-0.4,0.3-1-0.2-1.4 l-3.3-2.6C35,3.5,34.8,3.4,34.6,3.4L34.6,3.4z" class="st5"/></g><g><path d="M58.1,8.3c-0.2,0-0.5-0.1-0.6-0.3c-0.2-0.3-0.1-0.8,0.2-1L62,4.1c0.3-0.2,0.8-0.1,1,0.2 c0.2,0.3,0.1,0.8-0.2,1l-4.3,2.9C58.4,8.3,58.2,8.3,58.1,8.3z" class="st7"/><path d="M62.4,4c0.2,0,0.5,0.1,0.6,0.3c0.2,0.3,0.1,0.8-0.2,1l-4.3,2.9c-0.1,0.1-0.3,0.1-0.4,0.1 c-0.2,0-0.5-0.1-0.6-0.3c-0.2-0.3-0.1-0.8,0.2-1L62,4.1C62.1,4.1,62.3,4,62.4,4 M62.4,3.8L62.4,3.8c-0.2,0-0.4,0.1-0.5,0.2 l-4.3,2.9c-0.2,0.1-0.4,0.4-0.4,0.6c-0.1,0.3,0,0.5,0.1,0.7c0.2,0.3,0.5,0.4,0.8,0.4c0.2,0,0.4-0.1,0.5-0.2l4.3-2.9 c0.2-0.1,0.4-0.4,0.4-0.6c0.1-0.3,0-0.5-0.1-0.7C63,3.9,62.7,3.8,62.4,3.8L62.4,3.8z" class="st5"/></g><g><path d="M61.1,24.3c-0.2,0-0.3-0.1-0.5-0.2l-2.3-1.8c-0.3-0.3-0.4-0.7-0.1-1c0.3-0.3,0.7-0.4,1-0.1l2.3,1.8 c0.3,0.3,0.4,0.7,0.1,1C61.6,24.2,61.4,24.3,61.1,24.3z" class="st7"/><path d="M58.9,21c0.2,0,0.3,0.1,0.5,0.2l2.3,1.8c0.3,0.3,0.4,0.7,0.1,1c-0.1,0.2-0.4,0.3-0.6,0.3 c-0.2,0-0.3-0.1-0.5-0.2l-2.3-1.8c-0.3-0.3-0.4-0.7-0.1-1C58.5,21.1,58.7,21,58.9,21 M58.9,20.8L58.9,20.8 c-0.3,0-0.6,0.1-0.8,0.4c-0.3,0.4-0.3,1,0.1,1.4l2.3,1.8c0.2,0.1,0.4,0.2,0.6,0.2c0.3,0,0.6-0.1,0.8-0.4c0.3-0.4,0.3-1-0.1-1.4 L59.5,21C59.3,20.9,59.1,20.8,58.9,20.8L58.9,20.8z" class="st5"/></g><g><circle cx="35.4" cy="13.5" r=".8" class="st7"/><path d="M35.4,12.7c0.4,0,0.8,0.3,0.8,0.8s-0.3,0.8-0.8,0.8c-0.4,0-0.8-0.3-0.8-0.8S35,12.7,35.4,12.7 M35.4,12.5 c-0.6,0-1,0.5-1,1s0.5,1,1,1c0.6,0,1-0.5,1-1S36,12.5,35.4,12.5L35.4,12.5z" class="st5"/></g><g><circle cx="63.6" cy="13.5" r=".8" class="st7"/><path d="M63.6,12.7c0.4,0,0.8,0.3,0.8,0.8s-0.3,0.8-0.8,0.8c-0.4,0-0.8-0.3-0.8-0.8S63.2,12.7,63.6,12.7 M63.6,12.5 c-0.6,0-1,0.5-1,1s0.5,1,1,1c0.6,0,1-0.5,1-1S64.2,12.5,63.6,12.5L63.6,12.5z" class="st5"/></g><g><g><polygon points="49.2 .3 39.6 15.2 49.2 26.7 59.1 15.2" class="st8"/></g><polygon points="49.2 1 40.3 15.1 49.4 26 45 15.2" class="st9"/><g><polygon points="39.9 15.2 49.2 11.7 59.1 15.2 49.2 18.7" class="st10"/></g><g><defs><polygon id="SVGID_1_" points="39.9 15.2 49.2 11.7 59.1 15.2 49.2 18.7"/></defs><clipPath id="SVGID_2_"><use overflow="visible" xlink:href="#SVGID_1_"/></clipPath><polygon points="49.2 1 40.3 15.1 49.4 26 45 15.2" class="st11"/></g><path d="M49.2,12.5l7.6,2.7l-7.6,2.7L42,15.2L49.2,12.5 M49.2,11.7l-9.3,3.5l9.3,3.5l9.9-3.5L49.2,11.7L49.2,11.7z" class="st12"/><rect width=".7" height="25" x="48.8" y="1" class="st12"/><path d="M49.2,26.7C49.2,26.7,49.2,26.7,49.2,26.7c-0.1,0-0.2,0-0.3-0.1l-9.4-11.3c-0.1-0.1-0.1-0.3,0-0.4 l9.4-14.5c0.1-0.1,0.2-0.2,0.3-0.2c0,0,0,0,0,0c0.1,0,0.2,0.1,0.3,0.2l9.6,14.5c0.1,0.1,0.1,0.3,0,0.4l-9.6,11.3 C49.4,26.7,49.3,26.7,49.2,26.7z M40.3,15.1l8.9,10.7l9.1-10.7L49.2,1.3L40.3,15.1z" class="st12"/><path d="M49.2,0.2c0.1,0,0.2,0.1,0.3,0.2l9.6,14.5c0.1,0.1,0.1,0.3,0,0.4l-9.6,11.3c-0.1,0.1-0.2,0.1-0.3,0.1 c0,0,0,0,0,0c-0.1,0-0.2,0-0.3-0.1l-9.4-11.3c-0.1-0.1-0.1-0.3,0-0.4l9.4-14.5C49,0.3,49.1,0.2,49.2,0.2 C49.2,0.2,49.2,0.2,49.2,0.2 M49.2,0L49.2,0c-0.2,0-0.4,0.1-0.5,0.3l-9.4,14.5c-0.1,0.2-0.1,0.5,0,0.7l9.4,11.3 c0.1,0.1,0.3,0.2,0.5,0.2c0.2,0,0.4-0.1,0.5-0.2l9.6-11.3c0.2-0.2,0.2-0.5,0-0.7L49.7,0.3C49.6,0.1,49.4,0,49.2,0L49.2,0z" class="st5"/></g></g></g></g></svg>