<?xml version="1.0" encoding="utf-8"?>
<!-- Generator: Adobe Illustrator 21.0.0, SVG Export Plug-In . SVG Version: 6.00 Build 0)  -->
<svg version="1.1" id="Layer_1" xmlns="http://www.w3.org/2000/svg" xmlns:xlink="http://www.w3.org/1999/xlink" x="0px" y="0px"
	 viewBox="0 0 490 490" style="enable-background:new 0 0 490 490;" xml:space="preserve">
<style type="text/css">
	.st0{fill:#FFFFFF;stroke:#BDAFD6;stroke-width:2;stroke-miterlimit:10;}
	.st1{opacity:0.5;}
	.st2{fill:none;stroke:#BDAFD6;stroke-width:2;stroke-linecap:round;stroke-linejoin:round;stroke-dasharray:0.1,4;}
	.st3{fill:#BDAFD6;}
	.st4{fill:#FFFFFF;}
	.st5{opacity:0.6;enable-background:new    ;}
	.st6{opacity:0.45;enable-background:new    ;}
	.st7{opacity:0.8;enable-background:new    ;}
	.st8{fill:url(#symbol_1_);}
	.st9{fill:url(#SVGID_1_);}
</style>
<g>
	<path class="st0" d="M189.1,200.7H54.4c-6.6,0-12-5.4-12-12v-134c0-6.6,5.4-12,12-12h134.7c6.6,0,12,5.4,12,12v134
		C201.1,195.3,195.7,200.7,189.1,200.7z"/>
	<path class="st0" d="M435.6,200.7H300.9c-6.6,0-12-5.4-12-12v-134c0-6.6,5.4-12,12-12h134.7c6.6,0,12,5.4,12,12v134
		C447.6,195.3,442.2,200.7,435.6,200.7z"/>
	<path class="st0" d="M312.4,447.4H177.6c-6.6,0-12-5.4-12-12v-134c0-6.6,5.4-12,12-12h134.7c6.6,0,12,5.4,12,12v134
		C324.4,442,319,447.4,312.4,447.4z"/>
	<g class="st1">
		<g>
			<polyline class="st2" points="121.8,220.9 121.8,368.4 137.5,368.4 			"/>
			<g>
				<rect x="115.3" y="219.9" class="st3" width="13" height="2"/>
			</g>
			<g>
				<g>
					<circle class="st4" cx="137.1" cy="368.4" r="7.5"/>
					<path class="st3" d="M137.1,376.9c-4.7,0-8.5-3.8-8.5-8.5s3.8-8.5,8.5-8.5c4.7,0,8.5,3.8,8.5,8.5S141.8,376.9,137.1,376.9
						C132.4,376.9,141.8,376.9,137.1,376.9z M137.1,361.8c-3.6,0-6.5,2.9-6.5,6.5s2.9,6.5,6.5,6.5c3.6,0,6.5-2.9,6.5-6.5
						S140.6,361.8,137.1,361.8C133.5,361.8,140.6,361.8,137.1,361.8z"/>
				</g>
			</g>
		</g>
	</g>
	<g class="st1">
		<g>
			<polyline class="st2" points="368.2,228 368.2,368.4 345.4,368.4 			"/>
			<g>
				<g>
					<circle class="st4" cx="368.2" cy="228.5" r="7.5"/>
					<path class="st3" d="M359.7,228.5c0,4.7,3.8,8.5,8.5,8.5s8.5-3.8,8.5-8.5c0-4.7-3.8-8.5-8.5-8.5S359.7,223.8,359.7,228.5
						C359.7,233.2,359.7,223.8,359.7,228.5z M374.7,228.5c0,3.6-2.9,6.5-6.5,6.5s-6.5-2.9-6.5-6.5c0-3.6,2.9-6.5,6.5-6.5
						S374.7,224.9,374.7,228.5C374.7,232.1,374.7,224.9,374.7,228.5z"/>
				</g>
			</g>
			<g>
				<rect x="344.4" y="361.9" class="st3" width="2" height="13"/>
			</g>
		</g>
	</g>
	<g>
		<polygon class="st5" points="121.8,108.6 91.1,122.6 121.8,140.7 152.5,122.6 		"/>
		<polygon class="st6" points="91.1,122.6 121.8,140.7 121.8,108.6 121.8,71.6 		"/>
		<polygon class="st7" points="121.8,71.6 121.8,108.6 121.8,140.7 152.5,122.6 		"/>
		<polygon class="st6" points="91.1,128.4 121.8,171.6 121.8,146.5 		"/>
		<polygon class="st7" points="121.8,146.5 121.8,171.6 152.5,128.4 		"/>
	</g>
	
		<linearGradient id="symbol_1_" gradientUnits="userSpaceOnUse" x1="247.5483" y1="121.7809" x2="595.1887" y2="121.7809" gradientTransform="matrix(1 0 0 -1 0 490)">
		<stop  offset="0" style="stop-color:#4591ED"/>
		<stop  offset="1" style="stop-color:#00C9FF"/>
	</linearGradient>
	<path id="symbol_3_" class="st8" d="M294.1,378.5l-9.5-41.6c-0.5-2.3-2.6-4.5-4.9-5.1L236,318.5c-0.6-0.1-1.3-0.3-1.9-0.3
		c-1.9,0-3.9,0.8-5,1.9l-31.3,29c-1.6,1.5-2.6,4.5-2.1,6.8l10.1,44.4c0.5,2.3,2.6,4.5,4.9,5.1l40.8,12.5c0.6,0.1,1.3,0.3,1.9,0.3
		c1.9,0,3.9-0.8,5-1.9l33.4-31C293.7,383.8,294.6,380.8,294.1,378.5z M240.5,328.2l29.9,9.1c1.1,0.4,1.1,0.9,0,1.1l-15.8,3.6
		c-1.3,0.3-2.9-0.3-3.6-1.1l-11-11.9C239.1,328.4,239.4,328,240.5,328.2z M259.2,381.9c0.3,1.3-0.5,1.9-1.6,1.5l-32.3-9.9
		c-1.1-0.4-1.4-1.4-0.5-2.1l24.8-23c0.9-0.9,1.9-0.5,2.1,0.6L259.2,381.9z M206,352.6l26.3-24.4c0.9-0.9,2.3-0.8,3.1,0.1l13.1,14.1
		c0.9,0.9,0.8,2.3-0.1,3.1L222.1,370c-0.9,0.9-2.3,0.8-3.1-0.1l-13.1-14.1C205.1,354.9,205.1,353.5,206,352.6z M212.3,391.4l-7-30.4
		c-0.3-1.3,0.1-1.4,1-0.5l11,11.9c0.9,0.9,1.3,2.6,0.9,3.8l-4.8,15.4C213.2,392.6,212.6,392.6,212.3,391.4z M250.8,409.1l-34.2-10.5
		c-1.1-0.4-1.9-1.6-1.5-2.8l5.6-18.5c0.4-1.1,1.6-1.9,2.8-1.5l34.2,10.5c1.1,0.4,1.9,1.6,1.5,2.8l-5.6,18.5
		C253.2,408.8,251.9,409.5,250.8,409.1z M281.2,384.2l-22.9,21.3c-0.9,0.9-1.4,0.5-1-0.6l4.8-15.4c0.4-1.1,1.6-2.4,2.9-2.6l15.8-3.6
		C281.8,382.9,282.1,383.4,281.2,384.2z M283.7,379.7l-18.9,4.3c-1.3,0.3-2.4-0.5-2.6-1.6l-8-34.9c-0.3-1.3,0.5-2.4,1.6-2.6
		l18.9-4.3c1.3-0.3,2.4,0.5,2.6,1.6l8,34.9C285.6,378.2,284.8,379.4,283.7,379.7z"/>
	<linearGradient id="SVGID_1_" gradientUnits="userSpaceOnUse" x1="368.2262" y1="171.6407" x2="368.2262" y2="71.6407">
		<stop  offset="0" style="stop-color:#F8C620"/>
		<stop  offset="1" style="stop-color:#EA5D2F"/>
	</linearGradient>
	<path class="st9" d="M413.4,115.8c-0.1-1.7-0.4-3.7-1-5.8c-0.6-2.1-1.4-4.5-2.5-6.9c-1.3-2.4-2.8-4.9-4.7-7.3
		c-0.8-1-1.7-1.8-2.5-2.8c1.4-5.6-1.7-10.5-1.7-10.5c-5.3-0.3-8.6,1.7-9.9,2.5c-0.1-0.1-0.4-0.1-0.7-0.3c-0.8-0.4-1.8-0.7-2.8-1
		c-1-0.3-2-0.6-2.9-0.8c-1-0.3-2-0.4-3.1-0.6c-0.1,0-0.4,0-0.6-0.1c-2.4-7.5-8.9-10.6-8.9-10.6c-7.4,4.8-8.8,11.4-8.8,11.4
		s0,0.1-0.1,0.4c-0.4,0.1-0.8,0.3-1.3,0.4c-0.6,0.1-1.1,0.4-1.7,0.6c-0.6,0.3-1.1,0.4-1.7,0.7c-1.1,0.4-2.2,1-3.3,1.7
		c-1.1,0.6-2.1,1.3-3.1,2c-0.1,0-0.3-0.1-0.3-0.1c-10.3-4-19.4,0.8-19.4,0.8c-0.8,11,4,18.1,5,19.4c-0.3,0.7-0.4,1.4-0.7,2.1
		c-0.7,2.5-1.4,5.1-1.7,7.8c0,0.4-0.1,0.7-0.1,1.1c-9.5,4.8-12.3,14.4-12.3,14.4c7.9,9.2,17.1,9.7,17.1,9.7l0,0
		c1.1,2.1,2.5,4.1,4,6.1c0.7,0.8,1.3,1.6,2,2.3c-2.9,8.3,0.4,15.3,0.4,15.3c8.8,0.3,14.6-4,15.8-4.9c0.8,0.3,1.8,0.6,2.6,0.8
		c2.6,0.7,5.4,1.1,8.2,1.3c0.7,0,1.4,0,2.1,0h0.3h0.3h0.4h0.4c4.2,5.9,11.4,6.8,11.4,6.8c5.2-5.5,5.4-11,5.4-12.3c0,0,0,0,0-0.1
		c0-0.1,0-0.1,0-0.1c0-0.1,0-0.1,0-0.3c1.1-0.7,2.1-1.6,3.1-2.5c2.1-2,3.9-4.1,5.4-6.4c0.1-0.3,0.3-0.4,0.4-0.7
		c5.9,0.3,10-3.7,10-3.7c-1-6.2-4.5-9.2-5.2-9.7c0,0,0,0-0.1,0l0,0c0,0-0.1,0-0.1-0.1c0-0.4,0-0.7,0.1-1.1c0-0.7,0-1.3,0-2V132v-0.3
		v-0.1c0-0.1,0-0.1,0-0.1V131v-0.6c0-0.1,0-0.4,0-0.6s0-0.3,0-0.6v-0.6l-0.1-0.6c-0.1-0.7-0.3-1.4-0.4-2c-0.6-2.7-1.7-5.2-3.1-7.5
		c-1.4-2.3-3.1-4.2-5-6.1c-2-1.7-4-3.1-6.3-4.1c-2.2-1-4.6-1.7-7-2c-1,0.3-2.2,0.1-3.3,0.1h-0.4h-0.1h-0.1h-0.1h-0.4
		c-0.1,0-0.3,0-0.4,0c-0.6,0-1.1,0.1-1.8,0.3c-2.4,0.4-4.5,1.3-6.4,2.4c-2,1.1-3.6,2.7-5,4.2c-1.4,1.7-2.4,3.5-3.2,5.4
		c-0.7,1.8-1.1,3.8-1.3,5.8c0,0.4,0,1,0,1.4c0,0.1,0,0.3,0,0.3v0.4c0,0.3,0,0.4,0,0.7c0.1,1,0.3,1.8,0.6,2.8
		c0.6,1.8,1.4,3.4,2.4,4.8s2.2,2.5,3.5,3.4c1.3,0.8,2.6,1.6,4,2c1.4,0.4,2.6,0.6,4,0.6c0.1,0,0.3,0,0.4,0c0.1,0,0.1,0,0.3,0
		c0.1,0,0.1,0,0.3,0c0.1,0,0.3,0,0.4,0h0.1h0.1c0.1,0,0.1,0,0.3,0c0.1,0,0.3,0,0.4-0.1c0.1,0,0.3,0,0.4-0.1c0.3,0,0.6-0.1,0.8-0.3
		c0.6-0.1,1.1-0.4,1.5-0.7c0.4-0.3,1-0.6,1.4-0.8c0.1-0.1,0.3-0.1,0.3-0.3c0.4-0.4,0.6-1,0.1-1.4c-0.3-0.4-0.8-0.4-1.3-0.3
		c-0.1,0-0.3,0.1-0.3,0.1c-0.4,0.1-0.7,0.3-1.1,0.4c-0.4,0.1-0.8,0.3-1.3,0.3c-0.3,0-0.4,0-0.7,0.1c-0.1,0-0.3,0-0.3,0
		c-0.1,0-0.3,0-0.3,0c-0.1,0-0.3,0-0.3,0c-0.1,0-0.3,0-0.4,0c0,0-0.1,0,0,0h-0.1h-0.1c-0.1,0-0.3,0-0.4,0c-1-0.1-2-0.4-2.9-0.8
		c-1-0.4-2-1.1-2.8-1.8c-0.8-0.7-1.5-1.7-2.1-2.7c-0.6-1-1-2.3-1.1-3.4c-0.1-0.6-0.1-1.3-0.1-1.8c0-0.1,0-0.3,0-0.6l0,0v-0.1
		c0-0.1,0-0.1,0-0.3c0-0.3,0.1-0.7,0.1-1c0.4-2.7,1.8-5.2,3.8-7.2c0.6-0.4,1.1-1,1.7-1.4c0.6-0.4,1.3-0.7,1.8-1.1
		c0.7-0.3,1.3-0.6,2-0.7c0.7-0.1,1.4-0.3,2.1-0.4c0.4,0,0.7,0,1.1,0c0.1,0,0.1,0,0.3,0h0.3h0.1c0.1,0,0,0,0,0h0.1h0.3
		c0.8,0,1.5,0.1,2.4,0.3c1.5,0.3,3.1,0.8,4.5,1.7c2.8,1.6,5.2,4,6.6,6.9c0.7,1.4,1.3,3,1.5,4.7c0,0.4,0.1,0.8,0.1,1.3v0.3v0.3
		c0,0.1,0,0.1,0,0.3c0,0.1,0,0.3,0,0.3v0.3v0.3c0,0.1,0,0.6,0,0.7c0,0.4-0.1,0.8-0.1,1.4c0,0.4-0.1,0.8-0.1,1.3
		c-0.1,0.4-0.1,0.8-0.3,1.3c-0.3,0.8-0.6,1.7-0.8,2.5c-0.7,1.7-1.5,3.2-2.5,4.7c-2.1,3-5,5.2-8.2,6.8c-1.7,0.7-3.3,1.3-5.2,1.6
		c-0.8,0.1-1.8,0.3-2.6,0.3h-0.1h-0.1h-0.3H376h-0.3c0.1,0,0,0,0,0h-0.1c-0.4,0-1,0-1.4-0.1c-2-0.1-3.8-0.4-5.6-1
		c-1.8-0.6-3.6-1.3-5.3-2.1c-3.3-1.8-6.4-4.2-8.6-7.3c-1.1-1.6-2.2-3.1-3.1-4.8c-0.8-1.7-1.5-3.5-2-5.2c-0.6-1.8-0.8-3.7-1-5.5v-0.3
		V125v-0.1v-0.1v-0.3v-0.1v-0.1v-0.3v-0.4v-0.1v-0.1c0-0.3,0-0.4,0-0.7c0-1,0.1-1.8,0.3-2.8c0.1-1,0.3-1.8,0.4-2.8
		c0.1-1,0.4-1.8,0.7-2.8c0.6-1.8,1.1-3.7,2-5.4c1.5-3.4,3.6-6.4,6-8.8c0.6-0.6,1.3-1.1,2-1.7c0.7-0.6,1.4-1,2.1-1.6
		c0.7-0.4,1.4-0.8,2.1-1.3c0.4-0.1,0.7-0.4,1.1-0.6c0.1-0.1,0.4-0.1,0.6-0.3c0.1-0.1,0.4-0.1,0.6-0.3c0.8-0.3,1.5-0.6,2.4-0.8
		c0.1,0,0.4-0.1,0.6-0.1s0.4-0.1,0.6-0.1c0.4-0.1,0.8-0.3,1.3-0.3c0.1,0,0.4-0.1,0.6-0.1c0.1,0,0.4-0.1,0.6-0.1
		c0.1,0,0.4-0.1,0.6-0.1h0.3h0.3c0.1,0,0.4,0,0.6-0.1c0.3,0,0.4,0,0.7-0.1c0.1,0,0.6,0,0.7-0.1c0.1,0,0.3,0,0.4,0h0.3h0.1h0.1
		c0.3,0,0.4,0,0.7,0h0.4c0,0,0.1,0,0,0h0.1h0.1c0.1,0,0.4,0,0.6,0c0.8,0,1.5,0,2.4,0c1.5,0,3.1,0.3,4.6,0.6c3.1,0.6,5.9,1.6,8.4,2.8
		c2.5,1.3,4.9,2.8,6.8,4.5c0.1,0.1,0.3,0.3,0.4,0.3c0.1,0.1,0.3,0.3,0.4,0.3c0.3,0.3,0.4,0.4,0.7,0.7c0.3,0.3,0.4,0.4,0.7,0.7
		c0.3,0.3,0.4,0.4,0.7,0.7c0.8,0.8,1.7,1.8,2.4,2.8c1.4,1.8,2.5,3.7,3.5,5.5c0,0.1,0.1,0.3,0.1,0.3c0,0.1,0.1,0.3,0.1,0.3
		c0.1,0.3,0.3,0.4,0.3,0.7c0.1,0.3,0.1,0.4,0.3,0.6s0.1,0.4,0.3,0.6c0.3,0.8,0.7,1.6,0.8,2.4c0.4,1.1,0.7,2.3,1,3.2
		c0.1,0.4,0.4,0.6,0.8,0.6c0.4,0,0.7-0.4,0.7-0.7C413.5,118.4,413.4,117.3,413.4,115.8z"/>
</g>
</svg>
