<?xml version="1.0" encoding="utf-8"?>
<!-- Generator: Adobe Illustrator 21.0.0, SVG Export Plug-In . SVG Version: 6.00 Build 0)  -->
<svg version="1.1" id="Layer_1" xmlns="http://www.w3.org/2000/svg" xmlns:xlink="http://www.w3.org/1999/xlink" x="0px" y="0px"
	 viewBox="0 0 353 100" style="enable-background:new 0 0 353 100;" xml:space="preserve">
<style type="text/css">
	.st0{clip-path:url(#SVGID_2_);}
	.st1{fill:#FFA000;}
	.st2{opacity:0.12;fill:url(#SVGID_3_);enable-background:new    ;}
	.st3{fill:#F57C00;}
	.st4{opacity:0.2;fill:url(#SVGID_4_);enable-background:new    ;}
	.st5{fill:#FFCA28;}
	.st6{fill:#FFFFFF;fill-opacity:0.2;}
	.st7{opacity:0.2;fill:#A52714;enable-background:new    ;}
	.st8{fill:url(#SVGID_5_);}
	.st9{opacity:0.54;}
</style>
<g id="Layer_1_1_">
	<g>
		<g id="XMLID_19_">
			<g>
				<g>
					<defs>
						<path id="SVGID_1_" d="M63.7,22.4c-0.2-1.3-1.4-2-2.6-1.9c-0.5,0.1-0.9,0.3-1.3,0.6L48.1,33l-9.3-17.7c-0.6-1.1-1.9-1.5-3.1-1
							c-0.4,0.2-0.7,0.6-1,1l-5.1,9.7L17,1.2c-0.6-1.1-2-1.5-3.1-0.9c-0.6,0.3-1.1,1-1.2,1.6L0.4,80.7l32.9,18.5
							c2,1.1,4.6,1.1,6.6,0l33.2-18.5L63.7,22.4z"/>
					</defs>
					<clipPath id="SVGID_2_">
						<use xlink:href="#SVGID_1_"  style="overflow:visible;"/>
					</clipPath>
					<g class="st0">
						<path class="st1" d="M0.4,80.7L12.7,1.9c0.2-1.3,1.4-2.1,2.6-1.9C16,0.2,16.6,0.6,17,1.2L29.7,25l5.1-9.7
							c0.6-1.1,1.9-1.5,3.1-1c0.4,0.2,0.7,0.6,1,1l34.3,65.3H0.4z"/>
						
							<linearGradient id="SVGID_3_" gradientUnits="userSpaceOnUse" x1="14.5617" y1="213.7327" x2="10.0162" y2="211.3577" gradientTransform="matrix(1 0 0 1 0 -160.0064)">
							<stop  offset="0" style="stop-color:#A52714"/>
							<stop  offset="0.4" style="stop-color:#A52714;stop-opacity:0.5"/>
							<stop  offset="0.8" style="stop-color:#A52714;stop-opacity:0"/>
						</linearGradient>
						<path class="st2" d="M42.4,0.6l-60.2-5.1v109.1L0.4,80.7L42.4,0.6z"/>
						<path class="st3" d="M42.9,50L29.7,24.9L0.4,80.7L42.9,50z"/>
						
							<linearGradient id="SVGID_4_" gradientUnits="userSpaceOnUse" x1="33.8737" y1="207.1248" x2="31.8396" y2="205.0908" gradientTransform="matrix(1 0 0 1 0 -160.0064)">
							<stop  offset="0" style="stop-color:#A52714;stop-opacity:0.8"/>
							<stop  offset="0.5" style="stop-color:#A52714;stop-opacity:0.21"/>
							<stop  offset="1" style="stop-color:#A52714;stop-opacity:0"/>
						</linearGradient>
						<path class="st4" d="M-17.8-4.5H91.3v109.1H-17.8C-17.8,104.5-17.8-4.5-17.8-4.5z"/>
						<path class="st5" d="M73.1,80.7l-9.4-58.4c-0.2-1.3-1.4-2-2.6-1.9c-0.5,0.1-0.9,0.3-1.3,0.6L0.4,80.7l32.9,18.5
							c2,1.1,4.6,1.1,6.6,0L73.1,80.7z"/>
						<path class="st6" d="M63.7,22.4c-0.2-1.3-1.4-2-2.6-1.9c-0.5,0.1-0.9,0.3-1.3,0.6L48.1,33l-9.3-17.7c-0.6-1.1-1.9-1.5-3.1-1
							c-0.4,0.2-0.7,0.6-1,1l-5.1,9.7L17,1.2c-0.6-1.1-2-1.5-3.1-0.9c-0.6,0.3-1.1,1-1.2,1.6L0.4,80.7H0.3l0.1,0.1l0.3,0.2
							l47.3-47.4l11.8-11.8c0.9-0.9,2.3-0.9,3.2,0c0.3,0.3,0.6,0.7,0.6,1.3l9.3,57.8l0.1-0.1L63.7,22.4z M0.5,80.6L12.7,2.5
							c0.2-1.3,1.4-2.1,2.6-1.9C16,0.7,16.6,1.2,17,1.8l12.7,23.8l5.1-9.7c0.6-1.1,1.9-1.5,3.1-1c0.4,0.2,0.7,0.6,1,1l9.1,17.3
							L0.5,80.6z"/>
						<path class="st7" d="M39.9,98.6c-2,1.1-4.6,1.1-6.6,0L0.4,80.2l-0.1,0.5l32.9,18.5c2,1.1,4.6,1.1,6.6,0l33.2-18.5l-0.1-0.5
							L39.9,98.6z"/>
						
							<linearGradient id="SVGID_5_" gradientUnits="userSpaceOnUse" x1="-663.6505" y1="-1113.4177" x2="-635.2014" y2="-1141.8668" gradientTransform="matrix(2.67 0 0 -2.67 1770.3768 -2955.2246)">
							<stop  offset="0" style="stop-color:#FFFFFF;stop-opacity:0.1"/>
							<stop  offset="1" style="stop-color:#FFFFFF;stop-opacity:0"/>
						</linearGradient>
						<path class="st8" d="M63.7,22.4c-0.2-1.3-1.4-2-2.6-1.9c-0.5,0.1-0.9,0.3-1.3,0.6L48.1,33l-9.3-17.7c-0.6-1.1-1.9-1.5-3.1-1
							c-0.4,0.2-0.7,0.6-1,1l-5.1,9.7L17,1.2c-0.6-1.1-2-1.5-3.1-0.9c-0.6,0.3-1.1,1-1.2,1.6L0.4,80.7l32.9,18.5
							c2,1.1,4.6,1.1,6.6,0l33.2-18.5L63.7,22.4z"/>
					</g>
				</g>
			</g>
		</g>
		<g class="st9">
			<path d="M109.5,78.4h-6.7v-52h30.4v6.4h-23.7v17.1h21.4v6.3h-21.4L109.5,78.4L109.5,78.4z"/>
			<path d="M144.7,33.9c-0.9,0.9-2,1.4-3.4,1.4c-1.3,0-2.4-0.5-3.4-1.4c-0.9-0.9-1.4-2-1.4-3.4s0.5-2.4,1.4-3.4
				c0.9-0.9,2-1.4,3.4-1.4c1.3,0,2.4,0.5,3.4,1.4c0.9,0.9,1.4,2,1.4,3.4S145.6,32.9,144.7,33.9z M144.7,78.4H138V42.8h6.7V78.4z"/>
			<path d="M158.7,78.4H152V42.8h6.4v5.8h0.3c0.7-1.9,2-3.5,4.2-4.8c2.1-1.3,4.1-1.9,6.1-1.9s3.6,0.3,5,0.9l-2.6,6.3
				c-0.9-0.3-2-0.5-3.6-0.5c-2.4,0-4.5,1-6.4,2.9c-1.9,1.9-2.8,4.4-2.8,7.5V78.4z"/>
			<path d="M190.2,79.6c-5.4,0-9.8-1.8-13.1-5.4c-3.4-3.6-5.1-8.1-5.1-13.6c0-5.2,1.6-9.7,4.9-13.4c3.3-3.8,7.4-5.6,12.6-5.6
				c5.3,0,9.5,1.7,12.7,5.2c3.2,3.5,4.8,8.1,4.8,13.8l-0.1,1.3h-28.1c0.2,3.6,1.4,6.4,3.6,8.5c2.2,2.1,4.8,3.1,7.7,3.1
				c4.8,0,8.1-2,9.8-6.1l6,2.5c-1.1,2.8-3.1,5.1-5.7,6.9C197.3,78.6,194,79.6,190.2,79.6z M199.8,56.3c-0.2-2-1.1-4-2.8-5.8
				c-1.7-1.8-4.3-2.8-7.7-2.8c-2.5,0-4.6,0.8-6.4,2.3c-1.8,1.5-3.1,3.6-3.8,6.3L199.8,56.3L199.8,56.3z"/>
			<path d="M230.4,79.6c-2.7,0-5.2-0.6-7.3-1.8c-2.2-1.1-3.8-2.6-4.8-4.4h-0.3v4.9h-6.4v-52h6.7v16.4l-0.3,4.9h0.3
				c1.1-1.8,2.7-3.2,4.8-4.4c2.2-1.1,4.6-1.8,7.3-1.8c4.6,0,8.6,1.8,11.9,5.5c3.4,3.6,5,8.1,5,13.5c0,5.4-1.6,9.9-5,13.5
				C239,77.8,235,79.6,230.4,79.6z M229.3,73.5c3.1,0,5.8-1.2,8-3.5c2.2-2.3,3.4-5.5,3.4-9.3c0-3.9-1.1-7-3.4-9.3
				c-2.2-2.3-4.9-3.5-8-3.5s-5.9,1.1-8,3.5c-2.2,2.3-3.3,5.5-3.3,9.4s1.1,7,3.3,9.4C223.5,72.3,226.1,73.5,229.3,73.5z"/>
			<path d="M264,79.6c-3.8,0-6.9-1.1-9.5-3.3c-2.6-2.2-3.8-5.1-3.8-8.6c0-3.9,1.5-6.9,4.5-9.1c3-2.2,6.7-3.3,11.1-3.3
				c3.9,0,7.2,0.7,9.7,2.2v-1c0-2.6-0.9-4.7-2.7-6.3c-1.8-1.6-4-2.4-6.6-2.4c-1.9,0-3.7,0.5-5.3,1.4c-1.6,0.9-2.7,2.2-3.2,3.8
				l-6.1-2.6c0.9-2.2,2.4-4.1,4.9-5.9c2.4-1.8,5.6-2.7,9.6-2.7c4.5,0,8.4,1.3,11.4,4c3,2.7,4.5,6.4,4.5,11.3v21.6H276v-4.9h-0.3
				C273,77.6,269.1,79.6,264,79.6z M265.1,73.5c2.8,0,5.3-1,7.5-3.1c2.3-2,3.4-4.5,3.4-7.3c-1.9-1.5-4.7-2.3-8.5-2.3
				c-3.2,0-5.7,0.7-7.3,2.1c-1.6,1.4-2.5,3.1-2.5,4.9c0,1.8,0.7,3.1,2.3,4.1C261.4,73,263.1,73.5,265.1,73.5z"/>
			<path d="M301,79.6c-4,0-7.3-1-9.8-2.9c-2.6-1.9-4.5-4.4-5.7-7.3l6-2.5c1.9,4.5,5.1,6.7,9.7,6.7c2.1,0,3.8-0.5,5.1-1.4
				c1.3-0.9,2-2.2,2-3.6c0-2.3-1.6-3.9-4.9-4.7l-7.2-1.8c-2.3-0.6-4.4-1.7-6.5-3.3c-2-1.6-3.1-3.8-3.1-6.6c0-3.1,1.4-5.7,4.2-7.7
				c2.8-2,6.1-3,9.9-3c3.1,0,6,0.7,8.4,2.2c2.5,1.4,4.3,3.5,5.3,6.1l-5.8,2.4c-1.3-3.1-4-4.7-8.1-4.7c-2,0-3.6,0.4-5,1.3
				c-1.4,0.9-2,1.9-2,3.4c0,2,1.6,3.4,4.7,4.1l7,1.6c3.4,0.8,5.8,2.1,7.4,4c1.6,1.9,2.4,4,2.4,6.4c0,3.2-1.3,5.9-3.9,8
				C308.5,78.6,305.1,79.6,301,79.6z"/>
			<path d="M335.9,79.6c-5.4,0-9.8-1.8-13.1-5.4c-3.4-3.6-5.1-8.1-5.1-13.6c0-5.2,1.6-9.7,4.9-13.4c3.3-3.8,7.4-5.6,12.6-5.6
				c5.3,0,9.5,1.7,12.7,5.2c3.2,3.5,4.8,8.1,4.8,13.8l-0.1,1.3h-28.1c0.2,3.6,1.4,6.4,3.6,8.5c2.2,2.1,4.8,3.1,7.7,3.1
				c4.8,0,8.1-2,9.8-6.1l6,2.5c-1.1,2.8-3.1,5.1-5.7,6.9C343.1,78.6,339.8,79.6,335.9,79.6z M345.5,56.3c-0.2-2-1.1-4-2.8-5.8
				c-1.7-1.8-4.3-2.8-7.7-2.8c-2.5,0-4.6,0.8-6.4,2.3c-1.8,1.5-3.1,3.6-3.8,6.3L345.5,56.3L345.5,56.3z"/>
		</g>
	</g>
</g>
</svg>
