<?xml version="1.0" encoding="utf-8"?>
<!-- Generator: Adobe Illustrator 21.0.0, SVG Export Plug-In . SVG Version: 6.00 Build 0)  -->
<svg version="1.1" id="Layer_1" xmlns="http://www.w3.org/2000/svg" xmlns:xlink="http://www.w3.org/1999/xlink" x="0px" y="0px"
	 viewBox="0 0 400 400" style="enable-background:new 0 0 400 400;" xml:space="preserve">
<g>
	<defs>
		<path id="SVGID_1_" d="M380.7,176.8c-0.6-6.8-1.7-14.7-3.9-23.2c-2.2-8.5-5.6-18.1-10-27.7c-5-9.6-11.2-19.8-19-29.4
			c-3.3-4-6.7-7.3-10-11.3c5.6-22.6-6.7-41.8-6.7-41.8c-21.2-1.1-34.6,6.8-39.6,10.2c-0.6-0.6-1.7-0.6-2.8-1.1
			c-3.3-1.7-7.2-2.8-11.2-4c-3.9-1.1-7.8-2.3-11.7-3.4c-3.9-1.1-7.8-1.7-12.3-2.3c-0.6,0-1.7,0-2.2-0.6C241.8,12.4,215.6,0,215.6,0
			c-29.6,19.2-35.1,45.8-35.1,45.8s0,0.6-0.6,1.7c-1.7,0.6-3.3,1.1-5,1.7c-2.2,0.6-4.5,1.7-6.7,2.3c-2.2,1.1-4.5,1.7-6.7,2.8
			c-4.5,1.7-8.9,4-13.4,6.8c-4.5,2.3-8.4,5.1-12.3,7.9c-0.6,0-1.1-0.6-1.1-0.6c-41.3-15.8-77.5,3.4-77.5,3.4
			c-3.3,44.1,16.2,72.3,20.1,77.4c-1.1,2.8-1.7,5.6-2.8,8.5c-2.8,10.2-5.6,20.3-6.7,31.1c0,1.7-0.6,2.8-0.6,4.5
			c-37.9,19.2-49.1,57.6-49.1,57.6c31.8,36.7,68.6,39,68.6,39l0,0c4.5,8.5,10,16.4,16.2,24.3c2.8,3.4,5,6.2,7.8,9
			c-11.7,33.3,1.7,61,1.7,61c35.1,1.1,58.6-15.8,63-19.8c3.3,1.1,7.2,2.3,10.6,3.4c10.6,2.8,21.8,4.5,32.9,5.1c2.8,0,5.6,0,8.4,0
			h1.1h1.1h1.7h1.7c16.7,23.7,45.7,27.1,45.7,27.1c20.6-22,21.8-44.1,21.8-49.2c0,0,0,0,0-0.6c0-0.6,0-0.6,0-0.6c0-0.6,0-0.6,0-1.1
			c4.5-2.8,8.4-6.2,12.3-10.2c8.4-7.9,15.6-16.4,21.7-25.4c0.6-1.1,1.1-1.7,1.7-2.8c23.4,1.1,40.2-14.7,40.2-14.7
			c-3.9-24.9-17.8-36.7-20.6-39c0,0,0,0-0.6,0l0,0c0,0-0.6,0-0.6-0.6c0-1.7,0-2.8,0.6-4.5c0-2.8,0-5.1,0-7.9v-2.3v-1.1v-0.6
			c0-0.6,0-0.6,0-0.6v-1.7V235c0-0.6,0-1.7,0-2.3c0-0.6,0-1.1,0-2.3v-2.3l-0.6-2.3c-0.6-2.8-1.1-5.6-1.7-7.9
			c-2.2-10.7-6.7-20.9-12.3-29.9c-5.6-9-12.3-16.9-20.1-24.3c-7.8-6.8-16.2-12.4-25.1-16.4c-8.9-4-18.4-6.8-27.9-7.9
			c-3.9,1.1-8.9,0.6-13.4,0.6h-1.7h-0.6h-0.6h-0.6h-1.7c-0.6,0-1.1,0-1.7,0c-2.2,0-4.5,0.6-7.2,1.1c-9.5,1.7-17.8,5.1-25.7,9.6
			c-7.8,4.5-14.5,10.7-20.1,16.9c-5.6,6.8-9.5,14.1-12.8,21.5c-2.8,7.3-4.5,15.3-5,23.2c0,1.7,0,4,0,5.6c0,0.6,0,1.1,0,1.1v1.7
			c0,1.1,0,1.7,0,2.8c0.6,4,1.1,7.3,2.2,11.3c2.2,7.3,5.6,13.6,9.5,19.2c3.9,5.6,8.9,10.2,13.9,13.6c5,3.4,10.6,6.2,16.2,7.9
			c5.6,1.7,10.6,2.3,16.2,2.3c0.6,0,1.1,0,1.7,0c0.6,0,0.6,0,1.1,0c0.6,0,0.6,0,1.1,0s1.1,0,1.7,0h0.6h0.6c0.6,0,0.6,0,1.1,0
			s1.1,0,1.7-0.6c0.6,0,1.1,0,1.7-0.6c1.1,0,2.2-0.6,3.3-1.1c2.2-0.6,4.5-1.7,6.1-2.8c1.7-1.1,3.9-2.3,5.6-3.4
			c0.6-0.6,1.1-0.6,1.1-1.1c1.7-1.7,2.2-4,0.6-5.6c-1.1-1.7-3.3-1.7-5-1.1c-0.6,0-1.1,0.6-1.1,0.6c-1.7,0.6-2.8,1.1-4.5,1.7
			c-1.7,0.6-3.3,1.1-5,1.1c-1.1,0-1.7,0-2.8,0.6c-0.6,0-1.1,0-1.1,0c-0.6,0-1.1,0-1.1,0c-0.6,0-1.1,0-1.1,0c-0.6,0-1.1,0-1.7,0
			c0,0-0.6,0,0,0h-0.6h-0.6c-0.6,0-1.1,0-1.7,0c-3.9-0.6-7.8-1.7-11.7-3.4c-3.9-1.7-7.8-4.5-11.2-7.3c-3.3-2.8-6.1-6.8-8.4-10.7
			c-2.2-4-3.9-9-4.5-13.6c-0.6-2.3-0.6-5.1-0.6-7.3c0-0.6,0-1.1,0-2.3l0,0v-0.6c0-0.6,0-0.6,0-1.1c0-1.1,0.6-2.8,0.6-4
			c1.7-10.7,7.2-20.9,15.1-28.8c2.2-1.7,4.5-4,6.7-5.6c2.2-1.7,5-2.8,7.2-4.5c2.8-1.1,5-2.3,7.8-2.8c2.8-0.6,5.6-1.1,8.4-1.7
			c1.7,0,2.8,0,4.5,0c0.6,0,0.6,0,1.1,0h1.1h0.6c0.6,0,0,0,0,0h0.6h1.1c3.3,0,6.1,0.6,9.5,1.1c6.1,1.1,12.3,3.4,17.8,6.8
			c11.2,6.2,20.6,15.8,26.2,27.7c2.8,5.6,5,11.9,6.1,18.6c0,1.7,0.6,3.4,0.6,5.1v1.1v1.1c0,0.6,0,0.6,0,1.1c0,0.6,0,1.1,0,1.1v1.1
			v1.1c0,0.6,0,2.3,0,2.8c0,1.7-0.6,3.4-0.6,5.6c0,1.7-0.6,3.4-0.6,5.1c-0.6,1.7-0.6,3.4-1.1,5.1c-1.1,3.4-2.2,6.8-3.3,10.2
			c-2.8,6.8-6.1,13-10,18.6c-8.4,11.9-20.1,20.9-32.9,27.1c-6.7,2.8-13.4,5.1-20.6,6.2c-3.3,0.6-7.2,1.1-10.6,1.1h-0.6H234h-1.1
			h-1.7h-1.1c0.6,0,0,0,0,0h-0.6c-1.7,0-3.9,0-5.6-0.6c-7.8-0.6-15.1-1.7-22.3-4c-7.2-2.3-14.5-5.1-21.2-8.5
			c-13.4-7.3-25.7-16.9-34.6-29.4c-4.5-6.2-8.9-12.4-12.3-19.2c-3.3-6.8-6.1-14.1-7.8-20.9c-2.2-7.3-3.3-14.7-3.9-22v-1.1v-0.6V213
			v-0.6v-1.1v-0.6v-0.6V209v-1.7v-0.6v-0.6c0-1.1,0-1.7,0-2.8c0-4,0.6-7.3,1.1-11.3c0.6-4,1.1-7.3,1.7-11.3c0.6-4,1.7-7.3,2.8-11.3
			c2.2-7.3,4.5-14.7,7.8-21.5c6.1-13.6,14.5-25.4,24-35c2.2-2.3,5-4.5,7.8-6.8c2.8-2.3,5.6-4,8.4-6.2c2.8-1.7,5.6-3.4,8.4-5.1
			c1.7-0.6,2.8-1.7,4.5-2.3c0.6-0.6,1.7-0.6,2.2-1.1c0.6-0.6,1.7-0.6,2.2-1.1c3.3-1.1,6.1-2.3,9.5-3.4c0.6,0,1.7-0.6,2.2-0.6
			s1.7-0.6,2.2-0.6c1.7-0.6,3.3-1.1,5-1.1c0.6,0,1.7-0.6,2.2-0.6s1.7-0.6,2.2-0.6c0.6,0,1.7-0.6,2.2-0.6h1.1h1.1
			c0.6,0,1.7,0,2.2-0.6c1.1,0,1.7,0,2.8-0.6c0.6,0,2.2,0,2.8-0.6c0.6,0,1.1,0,1.7,0h1.1h0.6h0.6c1.1,0,1.7,0,2.8,0h1.7
			c0,0,0.6,0,0,0h0.6h0.6c0.6,0,1.7,0,2.2,0c3.3,0,6.1,0,9.5,0c6.1,0,12.3,1.1,18.4,2.3c12.3,2.3,23.4,6.2,33.5,11.3
			c10,5.1,19.5,11.3,27.3,18.1c0.6,0.6,1.1,1.1,1.7,1.1c0.6,0.6,1.1,1.1,1.7,1.1c1.1,1.1,1.7,1.7,2.8,2.8c1.1,1.1,1.7,1.7,2.8,2.8
			c1.1,1.1,1.7,1.7,2.8,2.8c3.3,3.4,6.7,7.3,9.5,11.3c5.6,7.3,10,14.7,13.9,22c0,0.6,0.6,1.1,0.6,1.1c0,0.6,0.6,1.1,0.6,1.1
			c0.6,1.1,1.1,1.7,1.1,2.8c0.6,1.1,0.6,1.7,1.1,2.3c0.6,0.6,0.6,1.7,1.1,2.3c1.1,3.4,2.8,6.2,3.3,9.6c1.7,4.5,2.8,9,3.9,13
			c0.6,1.7,1.7,2.3,3.3,2.3c1.7,0,2.8-1.7,2.8-2.8C381.3,187,380.7,182.5,380.7,176.8z"/>
	</defs>
	<linearGradient id="SVGID_2_" gradientUnits="userSpaceOnUse" x1="200" y1="400" x2="200" y2="-9.094947e-13">
		<stop  offset="0" style="stop-color:#F8C620"/>
		<stop  offset="1" style="stop-color:#EA5D2F"/>
	</linearGradient>
	<use xlink:href="#SVGID_1_"  style="overflow:visible;fill:url(#SVGID_2_);"/>
	<clipPath id="SVGID_3_">
		<use xlink:href="#SVGID_1_"  style="overflow:visible;"/>
	</clipPath>
</g>
</svg>
