<?xml version="1.0" encoding="utf-8"?>
<!-- Generator: Adobe Illustrator 21.0.0, SVG Export Plug-In . SVG Version: 6.00 Build 0)  -->
<svg version="1.1" id="Layer_1" xmlns:sketch="http://www.bohemiancoding.com/sketch/ns"
	 xmlns="http://www.w3.org/2000/svg" xmlns:xlink="http://www.w3.org/1999/xlink" x="0px" y="0px" viewBox="0 0 357 100"
	 style="enable-background:new 0 0 357 100;" xml:space="preserve">
<style type="text/css">
	.st0{fill:#430098;}
</style>
<g id="Page-1" sketch:type="MSPage">
	<g id="main" transform="translate(-25.000000, -23.000000)" sketch:type="MSArtboardGroup">
		<g id="nav" transform="translate(25.000000, 23.000000)" sketch:type="MSLayerGroup">
			<path id="logo" sketch:type="MSShapeGroup" class="st0" d="M80.8,0H9C4,0,0,4,0,9v82c0,5,4,9,9,9h71.8c5,0,9-4,9-9V9
				C89.8,4,85.8,0,80.8,0z M84.8,91c0,2.2-1.7,4-4,4H9c-2.3,0-4-1.8-4-4V9c0-2.3,1.8-4,4-4h71.8c2.3,0,4,1.7,4,4V91z M22.5,85
				l11.2-10L22.5,65V85z M63,44.5c-2-2-5.7-4.5-12-4.5c-6.7,0-13.8,1.8-18.8,3.5V15h-10v43.2l7-3.3c0,0,11.5-5.2,21.5-5.2
				c5,0,6.2,2.8,6.2,5.2v30h10V55C67.3,54.2,67.3,48.8,63,44.5z M49.8,31.2h10c4.5-5.2,6.7-10.5,7.5-16.2h-10
				C56.3,20.8,53.8,26,49.8,31.2z M326,54.8v-22h10v22c0,5,1.8,7.5,5.8,7.5c4,0,5.5-2.2,5.5-7.5v-22h9.8V55
				c0,9.8-4.8,15.5-15.5,15.5C330.8,70.2,326,64.5,326,54.8z M284,32.8h10v13.5l10.3-13.5h11.5l-12.5,14.5l13.5,22.5h-11.2L296.8,55
				l-2.8,3.2v11.5h-10V32.8z M236.5,51c0-13.5,9.2-19.2,18.2-19.2c9,0,18.3,5.8,18.3,19.2s-9.2,19.2-18.3,19.2
				C245.8,70.2,236.5,64.8,236.5,51z M262.8,51c0-6.8-3-11-8.2-11c-5.3,0-8.3,4.2-8.3,11s3,11.2,8.3,11.2
				C259.8,62.2,262.8,58,262.8,51z M196.3,32.8h14.5c9.5,0,15.2,3.2,15.2,12c0,5.8-2.5,9.2-7.2,10.8l7.8,14.2H216L208.8,57H206v12.8
				h-9.7L196.3,32.8L196.3,32.8z M210.5,49.2c4,0,6-1.2,6-4.2s-1.8-4.2-6-4.2h-4.2v8.5C206.3,49.2,210.5,49.2,210.5,49.2z M158,32.8
				h26.5V41H168v6h11.8v7.8H168v6.8h17.2v8H158C158,69.5,158,32.8,158,32.8z M112.8,32.8h10v13.8H135V32.8h10v37h-10v-15h-12.2v15
				h-10V32.8z"/>
		</g>
	</g>
</g>
</svg>
