<?xml version="1.0" encoding="utf-8"?>
<!-- Generator: Adobe Illustrator 21.0.0, SVG Export Plug-In . SVG Version: 6.00 Build 0)  -->
<svg version="1.1" id="Layer_1" xmlns="http://www.w3.org/2000/svg" xmlns:xlink="http://www.w3.org/1999/xlink" x="0px" y="0px"
	 viewBox="0 0 629 100" style="enable-background:new 0 0 629 100;" xml:space="preserve">
<style type="text/css">
	.st0{fill:#5841D8;}
</style>
<g>
	<g>
		<g>
			<path class="st0" d="M137.9,2.3H153v40l40.6-40h20.2l-36.1,34.9L216,96.5h-20.2l-29.7-47.9L153,61.1v35.4h-15.1V2.3z"/>
			<path class="st0" d="M224.2,2.3h15v16.3c1.2-3.2,4.2-7,9-11.5s10.3-6.8,16.6-6.8c0.3,0,0.7,0,1.5,0.1c0.7,0,1.9,0.1,3.6,0.3v16.7
				c-0.9-0.1-1.7-0.3-2.6-0.3c-0.7,0-1.6-0.1-2.6-0.1c-8,0-14.1,2.6-18.3,7.7c-4.2,5.1-6.4,11.1-6.4,17.8v54.1H224V2.3H224.2z"/>
			<path class="st0" d="M329.1,39.4c3.6-0.4,6.1-2,7.3-4.5c0.7-1.5,1-3.5,1-6.1c0-5.4-1.9-9.3-5.8-11.8c-3.8-2.5-9.3-3.6-16.4-3.6
				c-8.3,0-14.1,2.2-17.6,6.7c-1.9,2.5-3.2,6.1-3.8,11.1h-14.8c0.3-11.6,4.1-19.8,11.4-24.3S305.8,0,315.4,0
				c11.1,0,20.1,2.2,26.9,6.4s10.3,10.8,10.3,19.7v54.3c0,1.6,0.3,2.9,1,3.9c0.7,1,2,1.5,4.2,1.5c0.7,0,1.5,0,2.3-0.1
				c0.9-0.1,1.7-0.3,2.8-0.4v11.6c-2.5,0.7-4.4,1.2-5.7,1.3c-1.3,0.1-3.1,0.3-5.2,0.3c-5.4,0-9.5-1.9-11.9-5.8
				c-1.3-2-2.2-4.9-2.8-8.7c-3.2,4.2-7.9,7.9-13.8,11.1c-6.1,3.1-12.7,4.7-19.9,4.7c-8.7,0-15.9-2.6-21.4-8
				c-5.5-5.2-8.3-11.9-8.3-19.9c0-8.7,2.8-15.4,8.2-20.2c5.4-4.8,12.7-7.7,21.4-8.9L329.1,39.4z M295.6,82.2
				c3.3,2.6,7.3,3.9,11.9,3.9c5.5,0,10.9-1.3,16.2-3.9C332.5,78,337,71,337,61.3V48.5c-1.9,1.2-4.4,2.3-7.4,3.1
				c-3.1,0.9-6,1.5-9,1.7l-9.6,1.2c-5.7,0.7-10,1.9-13,3.6c-4.9,2.8-7.3,7.1-7.3,13.1C290.7,76,292.4,79.6,295.6,82.2z"/>
			<path class="st0" d="M373.7,2.3h15.1v40l40.6-40h20.2l-36.2,35.1l38.3,59.2h-20.2l-29.7-47.9l-13,12.4v35.4h-15.3V2.3H373.7z"/>
			<path class="st0" d="M516.3,4.9c6.3,3.2,11.1,7.1,14.3,12.2c3.2,4.8,5.2,10.3,6.3,16.6c0.9,4.4,1.5,11.2,1.5,20.8h-68.6
				c0.3,9.6,2.5,17.3,6.7,23c4.2,5.8,10.6,8.7,19.5,8.7c8.2,0,14.7-2.8,19.7-8.2c2.8-3.2,4.7-6.8,5.8-11.1H537
				c-0.4,3.5-1.7,7.3-4.1,11.5s-4.9,7.7-7.7,10.5c-4.8,4.7-10.6,7.9-17.8,9.5c-3.8,0.9-8,1.5-12.8,1.5c-11.6,0-21.5-4.2-29.7-12.8
				s-12.2-20.5-12.2-35.8c0-15.1,4.1-27.4,12.2-36.8s18.8-14.1,32-14.1C503.7,0.1,510.1,1.7,516.3,4.9z M522,41.9
				c-0.6-6.8-2.2-12.4-4.5-16.4C513.1,17.9,506,14,495.9,14c-7.3,0-13.2,2.6-18.2,7.9s-7.4,11.9-7.7,20.1H522z"/>
			<path class="st0" d="M552.1,2.3h15v13.4c4.5-5.5,9.2-9.5,14.1-11.9c4.9-2.5,10.5-3.6,16.6-3.6c13.4,0,22.4,4.7,27.1,14
				c2.6,5.1,3.9,12.4,3.9,22v60.4h-16.2V37.1c0-5.7-0.9-10.3-2.6-14c-2.8-5.8-7.9-8.7-15.3-8.7c-3.8,0-6.8,0.4-9.2,1.2
				c-4.4,1.3-8.2,3.9-11.5,7.7c-2.6,3.1-4.4,6.3-5.1,9.6c-0.7,3.3-1.2,8-1.2,14.3v49.3H552V2.3H552.1z"/>
		</g>
		<path class="st0" d="M60.4,1.9C27.1,1.9,0.2,29,0.2,62.2v25.8c0,4.8,3.8,8.6,8.6,8.6s8.6-3.8,8.6-8.6V62.2c0-4.8,3.8-8.6,8.6-8.6
			s8.6,3.8,8.6,8.6v25.8c0,4.8,3.8,8.6,8.6,8.6s8.6-3.8,8.6-8.6V62.2c0-4.8,3.8-8.6,8.6-8.6c4.8,0,8.6,3.8,8.6,8.6v25.8
			c0,4.8,3.8,8.6,8.6,8.6c4.8,0,8.6-3.8,8.6-8.6V62.2c0-4.8,3.8-8.6,8.6-8.6s8.6,3.8,8.6,8.6v25.8c0,4.8,3.8,8.6,8.6,8.6
			s8.6-3.8,8.6-8.6V62.2C120.7,29,93.6,1.9,60.4,1.9z"/>
	</g>
</g>
</svg>
