<?xml version="1.0" encoding="utf-8"?>
<!-- Generator: Adobe Illustrator 21.0.0, SVG Export Plug-In . SVG Version: 6.00 Build 0)  -->
<svg version="1.1" id="MESG-Brandmark" xmlns="http://www.w3.org/2000/svg" xmlns:xlink="http://www.w3.org/1999/xlink" x="0px"
	 y="0px" viewBox="0 0 1440 1440" style="enable-background:new 0 0 1440 1440;" xml:space="preserve">
<style type="text/css">
	.st0{fill:#491E8C;}
	.st1{opacity:0.4;fill:#491E8C;enable-background:new    ;}
</style>
<g id="Brandmark">
	<circle id="Core-1_1_" class="st0" cx="720.1" cy="420.8" r="107.5"/>
	<circle id="Core-2_1_" class="st0" cx="405.4" cy="649.3" r="107.5"/>
	<circle id="Core-3_1_" class="st0" cx="1034.7" cy="649.3" r="107.5"/>
	<circle id="Core-4_1_" class="st0" cx="525.6" cy="1019.2" r="107.5"/>
	<circle id="Core-5_1_" class="st0" cx="914.5" cy="1019.2" r="107.5"/>
	<path id="Center" class="st1" d="M778.1,1019.2c0-36.4,14.2-70.7,39.9-96.4c25.7-25.7,60-39.9,96.4-39.9
		c34.1,0,66.3,12.5,91.4,35.2c23.2-39.8,38.4-84.9,43.2-133.1c-4.7,0.5-9.6,0.7-14.4,0.7c-36.4,0-70.7-14.2-96.4-39.9
		c-25.7-25.7-39.9-60-39.9-96.4s14.2-70.7,39.9-96.4c8.6-8.6,18.1-15.9,28.3-21.8c-31.2-34.9-69.7-63.1-113-82.2
		c-5.3,25.7-18.1,49.3-37.1,68.4c-25.7,25.7-60,39.9-96.4,39.9s-70.7-14.2-96.4-39.9c-19-19-31.7-42.7-37.1-68.4
		c-43.3,19.1-81.8,47.3-113,82.2c10.2,5.9,19.7,13.2,28.3,21.8c25.7,25.7,39.9,60,39.9,96.4s-14.2,70.7-39.9,96.4
		c-25.7,25.7-60,39.9-96.4,39.9c-4.9,0-9.7-0.3-14.4-0.7c4.8,48.1,20,93.2,43.2,133.1c25.1-22.7,57.3-35.2,91.4-35.2
		c36.4,0,70.7,14.2,96.4,39.9c25.7,25.7,39.9,60,39.9,96.4c0,19.5-4.1,38.4-11.8,55.7c22.5,4.9,45.9,7.4,69.9,7.4
		c23.9,0,47.3-2.6,69.9-7.4C782.1,1057.6,778.1,1038.7,778.1,1019.2z"/>
	<path id="Circles" class="st1" d="M1408.3,491.5c-20.4-48.3-49.7-91.7-86.9-128.9c-37.2-37.2-80.6-66.5-128.9-86.9
		c-32.9-13.9-67.5-23.4-102.9-28.2c-19.9-42.1-46.8-80.3-79.9-113.4c-37.2-37.2-80.6-66.5-128.9-86.9
		c-50-21.1-103.1-31.9-157.8-31.9S615.2,26.1,565.2,47.3c-48.3,20.4-91.7,49.7-128.9,86.9c-32.9,32.9-59.7,70.8-79.5,112.6
		c-37.5,4.5-74.2,14.2-109.1,29c-48.3,20.4-91.6,49.6-128.9,86.9c-37.2,37.2-66.5,80.6-86.9,128.9C10.7,541.5,0,594.6,0,649.3
		s10.7,107.8,31.9,157.8c20.4,48.3,49.7,91.7,86.9,128.9c2.5,2.5,5.3,5.1,8.4,8.1c-4.6,24.5-6.9,49.7-6.9,75
		c0,54.7,10.7,107.8,31.9,157.8c20.4,48.3,49.7,91.7,86.9,128.9c37.2,37.2,80.6,66.5,128.9,86.9c50,21.1,103.1,31.9,157.8,31.9
		c54.7,0,107.8-10.7,157.8-31.9c12.3-5.2,24.6-11.1,36.5-17.7c11.9,6.5,24.3,12.5,36.5,17.7c50,21.1,103.1,31.9,157.8,31.9
		s107.8-10.7,157.8-31.9c48.3-20.4,91.7-49.7,128.9-86.9c37.2-37.2,66.5-80.6,86.9-128.9c21.1-50,31.9-103.1,31.9-157.8
		c0-25.3-2.3-50.5-6.9-75c3.1-2.9,5.8-5.5,8.4-8.1c37.2-37.2,66.5-80.6,86.9-128.9c21.1-50,31.9-103.1,31.9-157.8
		C1440.1,594.6,1429.4,541.5,1408.3,491.5z M1377.5,794.1c-17.6,41.6-42.3,79.2-73.5,111.9c-4.4-15.1-9.7-30.2-15.9-44.7
		c-20.4-48.3-49.7-91.7-86.9-128.9c-12.2-12.2-25.3-23.7-39.1-34.3c-4,10.5-9.4,20.6-16,29.9c11,8.8,21.5,18.2,31.5,28.1
		c34.2,34.2,61,73.9,79.7,118.3c7.9,18.7,14.3,38.2,19.1,57.9c-29,24.9-61.6,45-96.9,59.9c-40.9,17.3-84.1,27-128.7,28.9
		c-0.1,11.5-1.7,22.7-4.6,33.6c50.7-1.4,99.9-12.1,146.3-31.7c32.5-13.7,63-31.7,90.8-53.3c2.1,16.3,3.3,32.9,3.3,49.5
		c0,50.3-9.9,98.9-29.2,144.8c-18.7,44.3-45.5,84.1-79.7,118.3c-34.2,34.2-73.9,61-118.3,79.7c-45.9,19.4-94.6,29.2-144.8,29.2
		s-98.9-9.9-144.8-29.2c-5.4-2.3-10.9-4.7-16.2-7.3c21.1-14.3,40.9-30.7,58.9-48.8c37.2-37.2,66.5-80.6,86.9-128.9
		c3-7.1,5.8-14.3,8.4-21.6c-11.5-0.5-22.7-2.5-33.4-5.8c-1.9,5-3.8,9.9-5.7,14.5c-18.7,44.3-45.6,84.1-79.7,118.3
		c-20.8,20.8-43.9,39-68.7,54.3c-24.8-15.2-47.9-33.5-68.7-54.3c-34.2-34.2-61-73.9-79.7-118.3c-1.9-4.6-3.9-9.5-5.7-14.5
		c-10.7,3.3-21.9,5.3-33.4,5.8c2.6,7.3,5.4,14.5,8.4,21.6c20.4,48.3,49.7,91.7,86.9,128.9c18.1,18.1,37.9,34.5,58.9,48.8
		c-5.4,2.6-10.8,5-16.2,7.3c-45.9,19.4-94.6,29.2-144.8,29.2s-99.1-9.9-144.9-29.3c-44.3-18.7-84.1-45.6-118.3-79.7
		c-34.2-34.2-61-73.9-79.7-118.3c-19.4-45.9-29.2-94.6-29.2-144.8c0-16.6,1.1-33.2,3.3-49.5c27.8,21.6,58.3,39.5,90.8,53.3
		c46.5,19.7,95.7,30.3,146.3,31.7c-2.9-10.8-4.5-22.1-4.6-33.6c-44.5-1.9-87.8-11.6-128.7-28.9c-35.3-14.9-67.8-35.1-96.9-59.9
		c4.7-19.7,11.1-39.1,19.1-57.9c18.7-44.3,45.5-84.1,79.7-118.3c9.9-9.9,20.5-19.3,31.5-28.1c-6.6-9.3-11.9-19.3-16-29.9
		c-13.7,10.6-26.9,22.1-39.1,34.3c-37.2,37.2-66.5,80.6-86.9,128.9c-6.1,14.6-11.5,29.6-15.9,44.7c-31.3-32.7-56-70.3-73.5-111.9
		c-19.4-45.9-29.2-94.6-29.2-144.8s9.9-98.9,29.2-144.8c18.7-44.3,45.5-84.1,79.7-118.3s73.9-61,118.3-79.7
		c26.1-11,53.3-19,81.1-23.8c-16.1,44.2-24.1,90.6-24.1,138.2c0,38.4,5.3,76.3,15.9,112.7c9.6-6,19.9-10.7,30.7-14.2
		c-8.7-31.9-13.1-64.9-13.1-98.5c0-49.5,9.5-97.5,28.3-142.7c8.7-0.6,17.5-0.9,26.2-0.9c50.3,0,98.9,9.9,144.8,29.2
		c21.1,8.9,41.5,19.9,60.6,32.6c3.9-5.1,8.1-10,12.7-14.7c3.5-3.5,7.1-6.7,10.9-9.7c-22.3-15.3-46.3-28.4-71.2-38.9
		c-50-21.1-103.1-31.9-157.8-31.9c-3.3,0-6.6,0.1-9.9,0.1c17.1-31.6,38.7-60.6,64.3-86.2c34.2-34.2,73.9-61,118.3-79.7
		c45.7-19.3,94.4-29.2,144.7-29.2c50.2,0,98.9,9.9,144.8,29.2c44.3,18.7,84.1,45.5,118.3,79.7c25.7,25.7,47.3,54.7,64.5,86.4
		c-5.3-0.2-10.6-0.3-15.9-0.3c-54.7,0-107.8,10.7-157.8,31.9c-24.9,10.5-48.9,23.7-71.2,38.9c3.7,3.1,7.4,6.3,10.9,9.7
		c4.6,4.6,8.9,9.5,12.7,14.7c19.1-12.7,39.5-23.7,60.6-32.6c45.9-19.4,94.6-29.2,144.8-29.2c10.7,0,21.5,0.5,32.3,1.4
		c18.7,45.1,28.1,92.9,28.1,142.2c0,34.1-4.6,67.9-13.7,100.3c10.7,3.9,20.8,9.1,30.2,15.6c11.1-37.3,16.8-76.3,16.8-115.9
		c0-47.1-8-93.2-23.7-137.1c25.6,4.9,50.7,12.5,74.8,22.7c44.3,18.7,84.1,45.5,118.3,79.7c34.2,34.2,61,73.9,79.7,118.3
		c19.4,45.9,29.2,94.6,29.2,144.8C1406.7,699.5,1396.9,748.3,1377.5,794.1z"/>
</g>
</svg>
