<?xml version="1.0" encoding="utf-8"?>
<!-- Generator: Adobe Illustrator 21.0.0, SVG Export Plug-In . SVG Version: 6.00 Build 0)  -->
<svg version="1.1" id="MESG-Brandmark" xmlns="http://www.w3.org/2000/svg" xmlns:xlink="http://www.w3.org/1999/xlink" x="0px"
	 y="0px" viewBox="0 0 400 400" style="enable-background:new 0 0 400 400;" xml:space="preserve">
<style type="text/css">
	.st0{fill:#491E8C;}
	.st1{opacity:0.4;fill:#491E8C;enable-background:new    ;}
</style>
<g id="Brandmark">
	<circle id="Core-1_1_" class="st0" cx="200" cy="116.9" r="29.9"/>
	<circle id="Core-2_1_" class="st0" cx="112.6" cy="180.4" r="29.9"/>
	<circle id="Core-3_1_" class="st0" cx="287.4" cy="180.4" r="29.9"/>
	<circle id="Core-4_1_" class="st0" cx="146" cy="283.1" r="29.9"/>
	<circle id="Core-5_1_" class="st0" cx="254" cy="283.1" r="29.9"/>
	<path id="Center" class="st1" d="M216.1,283.1c0-10.1,3.9-19.6,11.1-26.8c7.1-7.1,16.7-11.1,26.8-11.1c9.5,0,18.4,3.5,25.4,9.8
		c6.4-11.1,10.7-23.6,12-37c-1.3,0.1-2.7,0.2-4,0.2c-10.1,0-19.6-3.9-26.8-11.1c-7.1-7.1-11.1-16.7-11.1-26.8s3.9-19.6,11.1-26.8
		c2.4-2.4,5-4.4,7.9-6.1c-8.7-9.7-19.4-17.5-31.4-22.8c-1.5,7.1-5,13.7-10.3,19c-7.1,7.1-16.7,11.1-26.8,11.1s-19.6-3.9-26.8-11.1
		c-5.3-5.3-8.8-11.9-10.3-19c-12,5.3-22.7,13.1-31.4,22.8c2.8,1.6,5.5,3.7,7.9,6.1c7.1,7.1,11.1,16.7,11.1,26.8s-3.9,19.6-11.1,26.8
		c-7.1,7.1-16.7,11.1-26.8,11.1c-1.4,0-2.7-0.1-4-0.2c1.3,13.4,5.6,25.9,12,37c7-6.3,15.9-9.8,25.4-9.8c10.1,0,19.6,3.9,26.8,11.1
		c7.1,7.1,11.1,16.7,11.1,26.8c0,5.4-1.1,10.7-3.3,15.5c6.2,1.4,12.7,2.1,19.4,2.1c6.6,0,13.1-0.7,19.4-2.1
		C217.2,293.8,216.1,288.5,216.1,283.1z"/>
	<path id="Circles" class="st1" d="M391.1,136.6c-5.7-13.4-13.8-25.5-24.1-35.8c-10.3-10.3-22.4-18.5-35.8-24.1
		c-9.1-3.9-18.7-6.5-28.6-7.8c-5.5-11.7-13-22.3-22.2-31.5C270.1,27,258,18.8,244.6,13.2c-13.9-5.9-28.6-8.9-43.8-8.9
		s-29.9,3-43.8,8.9c-13.4,5.7-25.5,13.8-35.8,24.1C112,46.5,104.6,57,99.1,68.6c-10.4,1.2-20.6,3.9-30.3,8.1
		C55.4,82.3,43.4,90.4,33,100.8c-10.3,10.3-18.5,22.4-24.1,35.8C3,150.4,0,165.2,0,180.4s3,29.9,8.9,43.8
		c5.7,13.4,13.8,25.5,24.1,35.8c0.7,0.7,1.5,1.4,2.3,2.2c-1.3,6.8-1.9,13.8-1.9,20.8c0,15.2,3,29.9,8.9,43.8
		c5.7,13.4,13.8,25.5,24.1,35.8c10.3,10.3,22.4,18.5,35.8,24.1c13.9,5.9,28.6,8.9,43.8,8.9s29.9-3,43.8-8.9
		c3.4-1.4,6.8-3.1,10.1-4.9c3.3,1.8,6.7,3.5,10.1,4.9c13.9,5.9,28.6,8.9,43.8,8.9s29.9-3,43.8-8.9c13.4-5.7,25.5-13.8,35.8-24.1
		c10.3-10.3,18.5-22.4,24.1-35.8c5.9-13.9,8.9-28.6,8.9-43.8c0-7-0.6-14-1.9-20.8c0.9-0.8,1.6-1.5,2.3-2.2
		c10.3-10.3,18.5-22.4,24.1-35.8c5.9-13.9,8.9-28.6,8.9-43.8C400,165.2,397,150.4,391.1,136.6z M382.6,220.6
		c-4.9,11.6-11.7,22-20.4,31.1c-1.2-4.2-2.7-8.4-4.4-12.4c-5.7-13.4-13.8-25.5-24.1-35.8c-3.4-3.4-7-6.6-10.9-9.5
		c-1.1,2.9-2.6,5.7-4.4,8.3c3.1,2.4,6,5.1,8.7,7.8c9.5,9.5,16.9,20.5,22.1,32.9c2.2,5.2,4,10.6,5.3,16.1
		c-8.1,6.9-17.1,12.5-26.9,16.6c-11.4,4.8-23.4,7.5-35.7,8c0,3.2-0.5,6.3-1.3,9.3c14.1-0.4,27.7-3.4,40.6-8.8
		c9-3.8,17.5-8.8,25.2-14.8c0.6,4.5,0.9,9.1,0.9,13.7c0,14-2.7,27.5-8.1,40.2c-5.2,12.3-12.6,23.4-22.1,32.9
		c-9.5,9.5-20.5,16.9-32.9,22.1c-12.7,5.4-26.3,8.1-40.2,8.1s-27.5-2.7-40.2-8.1c-1.5-0.6-3-1.3-4.5-2c5.9-4,11.4-8.5,16.4-13.6
		c10.3-10.3,18.5-22.4,24.1-35.8c0.8-2,1.6-4,2.3-6c-3.2-0.1-6.3-0.7-9.3-1.6c-0.5,1.4-1.1,2.7-1.6,4c-5.2,12.3-12.7,23.4-22.1,32.9
		c-5.8,5.8-12.2,10.8-19.1,15.1c-6.9-4.2-13.3-9.3-19.1-15.1c-9.5-9.5-16.9-20.5-22.1-32.9c-0.5-1.3-1.1-2.6-1.6-4
		c-3,0.9-6.1,1.5-9.3,1.6c0.7,2,1.5,4,2.3,6c5.7,13.4,13.8,25.5,24.1,35.8c5,5,10.5,9.6,16.4,13.6c-1.5,0.7-3,1.4-4.5,2
		c-12.7,5.4-26.3,8.1-40.2,8.1c-13.9,0-27.5-2.7-40.2-8.1c-12.3-5.2-23.4-12.7-32.9-22.1c-9.5-9.5-16.9-20.5-22.1-32.9
		c-5.4-12.7-8.1-26.3-8.1-40.2c0-4.6,0.3-9.2,0.9-13.7c7.7,6,16.2,11,25.2,14.8c12.9,5.5,26.6,8.4,40.6,8.8c-0.8-3-1.2-6.1-1.3-9.3
		c-12.4-0.5-24.4-3.2-35.7-8c-9.8-4.1-18.8-9.7-26.9-16.6c1.3-5.5,3.1-10.9,5.3-16.1c5.2-12.3,12.6-23.4,22.1-32.9
		c2.7-2.7,5.7-5.4,8.7-7.8c-1.8-2.6-3.3-5.4-4.4-8.3c-3.8,2.9-7.5,6.1-10.9,9.5c-10.3,10.3-18.5,22.4-24.1,35.8
		c-1.7,4.1-3.2,8.2-4.4,12.4c-8.7-9.1-15.6-19.5-20.4-31.1c-5.4-12.7-8.1-26.3-8.1-40.2c0-13.9,2.7-27.5,8.1-40.2
		c5.2-12.3,12.6-23.4,22.1-32.9s20.5-16.9,32.9-22.1c7.2-3.1,14.8-5.3,22.5-6.6c-4.5,12.3-6.7,25.2-6.7,38.4
		c0,10.7,1.5,21.2,4.4,31.3c2.7-1.7,5.5-3,8.5-3.9c-2.4-8.9-3.6-18-3.6-27.4c0-13.7,2.6-27.1,7.9-39.6c2.4-0.2,4.9-0.2,7.3-0.2
		c14,0,27.5,2.7,40.2,8.1c5.9,2.5,11.5,5.5,16.8,9.1c1.1-1.4,2.2-2.8,3.5-4.1c1-1,2-1.9,3-2.7c-6.2-4.2-12.9-7.9-19.8-10.8
		c-13.9-5.9-28.6-8.9-43.8-8.9c-0.9,0-1.8,0-2.7,0c4.7-8.8,10.7-16.8,17.9-23.9c9.5-9.5,20.5-16.9,32.9-22.1
		c12.7-5.4,26.2-8.1,40.2-8.1c13.9,0,27.5,2.7,40.2,8.1c12.3,5.2,23.4,12.6,32.9,22.1c7.1,7.1,13.1,15.2,17.9,24
		c-1.5-0.1-2.9-0.1-4.4-0.1c-15.2,0-29.9,3-43.8,8.9c-6.9,2.9-13.6,6.6-19.8,10.8c1,0.9,2.1,1.7,3,2.7c1.3,1.3,2.5,2.6,3.5,4.1
		c5.3-3.5,11-6.6,16.8-9.1c12.7-5.4,26.3-8.1,40.2-8.1c3,0,6,0.1,9,0.4c5.2,12.5,7.8,25.8,7.8,39.5c0,9.5-1.3,18.9-3.8,27.9
		c3,1.1,5.8,2.5,8.4,4.3c3.1-10.4,4.7-21.2,4.7-32.2c0-13.1-2.2-25.9-6.6-38.1c7.1,1.4,14.1,3.5,20.8,6.3
		c12.3,5.2,23.4,12.6,32.9,22.1s16.9,20.5,22.1,32.9c5.4,12.7,8.1,26.3,8.1,40.2C390.7,194.3,388,207.9,382.6,220.6z"/>
</g>
</svg>
