<svg xmlns="http://www.w3.org/2000/svg" xmlns:xlink="http://www.w3.org/1999/xlink" id="Layer_1" x="0" y="0" enable-background="new 0 0 490 490" version="1.1" viewBox="0 0 490 490" xml:space="preserve"><style type="text/css">.st0{stroke:url(#SVGID_1_)}.st0,.st1,.st2,.st3{fill:none;stroke-width:2;stroke-linecap:round;stroke-linejoin:round;stroke-miterlimit:10}.st1{stroke:url(#SVGID_2_)}.st2{stroke:url(#SVGID_3_)}.st3{stroke:url(#SVGID_4_)}.st4{fill:url(#XMLID_10_)}.st5{fill:url(#XMLID_11_)}.st6{fill:#7e44d8}.st7,.st8{opacity:.5;fill:url(#SVGID_5_)}.st8{fill:url(#SVGID_6_)}.st10,.st9{fill:none;stroke-miterlimit:10}.st9{stroke:#ffa744}.st10{stroke:#24d84b}.st11{opacity:.75}.st12{fill:#8ceda1}.st13{fill:#fff}.st14{fill:#ffd4a3}.st15{opacity:5.000000e-02}.st16{opacity:0;fill:#536dfe}.st17{opacity:2.439000e-02}.st17,.st18,.st19{fill:#536dfe}.st18{opacity:4.878000e-02}.st19{opacity:7.317100e-02}.st20{opacity:9.756100e-02}.st20,.st21,.st22{fill:#536dfe}.st21{opacity:.122}.st22{opacity:.1463}.st23{opacity:.1707}.st23,.st24,.st25{fill:#536dfe}.st24{opacity:.1951}.st25{opacity:.2195}.st26{opacity:.2439}.st26,.st27,.st28{fill:#536dfe}.st27{opacity:.2683}.st28{opacity:.2927}.st29{opacity:.3171}.st29,.st30,.st31{fill:#536dfe}.st30{opacity:.3415}.st31{opacity:.3659}.st32{opacity:.3902}.st32,.st33,.st34{fill:#536dfe}.st33{opacity:.4146}.st34{opacity:.439}.st35{opacity:.4634}.st35,.st36,.st37{fill:#536dfe}.st36{opacity:.4878}.st37{opacity:.5122}.st38{opacity:.5366}.st38,.st39,.st40{fill:#536dfe}.st39{opacity:.561}.st40{opacity:.5854}.st41{opacity:.6098}.st41,.st42,.st43{fill:#536dfe}.st42{opacity:.6341}.st43{opacity:.6585}.st44{opacity:.6829}.st44,.st45,.st46{fill:#536dfe}.st45{opacity:.7073}.st46{opacity:.7317}.st47{opacity:.7561}.st47,.st48,.st49{fill:#536dfe}.st48{opacity:.7805}.st49{opacity:.8049}.st50{opacity:.8293}.st50,.st51,.st52{fill:#536dfe}.st51{opacity:.8537}.st52{opacity:.878}.st53{opacity:.9024}.st53,.st54,.st55{fill:#536dfe}.st54{opacity:.9268}.st55{opacity:.9512}.st56{opacity:.9756}.st56,.st57{fill:#536dfe}.st58{fill:url(#XMLID_12_)}.st59{fill:url(#XMLID_13_)}.st60{fill:#ffa744}.st61{fill:#24d84b}.st62{opacity:.5}.st63{fill:url(#XMLID_14_)}.st64{fill:url(#XMLID_15_)}.st65{opacity:.68}.st66{opacity:0;fill:#fff}.st67{opacity:1.960800e-02;fill:#fcfcff}.st68{opacity:3.921600e-02;fill:#f8f9ff}.st69{opacity:5.882400e-02;fill:#f5f6ff}.st70{opacity:7.843100e-02;fill:#f2f4ff}.st71{opacity:9.803900e-02;fill:#eef1ff}.st72{opacity:.1176;fill:#ebeeff}.st73{opacity:.1373;fill:#e7ebff}.st74{opacity:.1569;fill:#e4e8ff}.st75{opacity:.1765;fill:#e1e5ff}.st76{opacity:.1961;fill:#dde2ff}.st77{opacity:.2157;fill:#dae0ff}.st78{opacity:.2353;fill:#d7ddff}.st79{opacity:.2549;fill:#d3daff}.st80{opacity:.2745;fill:#d0d7ff}.st81{opacity:.2941;fill:#ccd4ff}.st82{opacity:.3137;fill:#c9d1ff}.st83{opacity:.3333;fill:#c6ceff}.st84{opacity:.3529;fill:#c2cbff}.st85{opacity:.3725;fill:#bfc9ff}.st86{opacity:.3922;fill:#bcc6ff}.st87{opacity:.4118;fill:#b8c3ff}.st88{opacity:.4314;fill:#b5c0ff}.st89{opacity:.451;fill:#b1bdff}.st90{opacity:.4706;fill:#aebaff}.st91{opacity:.4902;fill:#abb7ff}.st92{opacity:.5098;fill:#a7b5fe}.st93{opacity:.5294;fill:#a4b2fe}.st94{opacity:.549;fill:#a1affe}.st95{opacity:.5686;fill:#9dacfe}.st96{opacity:.5882;fill:#9aa9fe}.st97{opacity:.6078;fill:#96a6fe}.st98{opacity:.6275;fill:#93a3fe}.st99{opacity:.6471;fill:#90a1fe}.st100{opacity:.6667;fill:#8c9efe}.st101{opacity:.6863;fill:#899bfe}.st102{opacity:.7059;fill:#8698fe}.st103{opacity:.7255;fill:#8295fe}.st104{opacity:.7451;fill:#7f92fe}.st105{opacity:.7647;fill:#7b8ffe}.st106{opacity:.7843;fill:#788cfe}.st107{opacity:.8039;fill:#758afe}.st108{opacity:.8235;fill:#7187fe}.st109{opacity:.8431;fill:#6e84fe}.st110{opacity:.8627;fill:#6b81fe}.st111{opacity:.8824;fill:#677efe}.st112{opacity:.902;fill:#647bfe}.st113{opacity:.9216;fill:#6078fe}.st114{opacity:.9412;fill:#5d76fe}.st115{opacity:.9608;fill:#5a73fe}.st116{opacity:.9804;fill:#5670fe}.st117{fill:url(#XMLID_16_)}.st118{fill:url(#XMLID_17_)}.st119{fill:url(#XMLID_18_)}.st120{fill:url(#XMLID_19_)}.st121{fill:url(#XMLID_21_)}.st122{fill:url(#XMLID_23_)}.st123{fill:url(#XMLID_24_)}.st124{fill:#48486a}.st125{fill:#1d073f}.st126{fill:url(#XMLID_25_)}.st127{fill:url(#XMLID_26_)}.st128{fill:#6134a6}.st129{fill:url(#XMLID_27_)}.st130{fill:#343434}.st131{fill:#8c8c8c}.st132{fill:#3c3c3b}.st133{fill:#141414}.st134{fill:#393939}.st135{fill:url(#XMLID_29_)}.st136{clip-path:url(#XMLID_30_);fill:url(#XMLID_31_)}.st137{stroke:url(#XMLID_33_)}.st137,.st138,.st139,.st140,.st141{fill:none;stroke-miterlimit:10}.st138{opacity:.8;stroke:url(#XMLID_34_)}.st139{opacity:.6;stroke:url(#XMLID_35_)}.st140{opacity:.4;stroke:url(#XMLID_36_)}.st141{opacity:.2;stroke:url(#XMLID_37_)}</style><g><g><g><linearGradient id="SVGID_1_" x1="-523.451" x2="-429.877" y1="250.683" y2="250.683" gradientTransform="matrix(-1 0 0 1 -119.6435 0)" gradientUnits="userSpaceOnUse"><stop offset=".021" stop-color="#FFA744"/><stop offset=".291" stop-color="#FBA443"/><stop offset=".571" stop-color="#EE9C3F"/><stop offset=".854" stop-color="#DA8F3A"/><stop offset="1" stop-color="#CC8636"/></linearGradient><polyline points="311.2 287.3 402.8 234.4 402.8 214.1" class="st0"/><linearGradient id="SVGID_2_" x1="-539.462" x2="-445.887" y1="258.688" y2="258.688" gradientTransform="matrix(-1 0 0 1 -119.6435 0)" gradientUnits="userSpaceOnUse"><stop offset=".021" stop-color="#FFA744"/><stop offset=".291" stop-color="#FBA443"/><stop offset=".571" stop-color="#EE9C3F"/><stop offset=".854" stop-color="#DA8F3A"/><stop offset="1" stop-color="#CC8636"/></linearGradient><polyline points="327.2 295.3 418.8 242.4 418.8 222.1" class="st1"/><linearGradient id="SVGID_3_" x1="70.215" x2="164.404" y1="258.865" y2="258.865" gradientUnits="userSpaceOnUse"><stop offset="0" stop-color="#CC8636"/><stop offset=".146" stop-color="#DA8F3A"/><stop offset=".429" stop-color="#EE9C3F"/><stop offset=".709" stop-color="#FBA443"/><stop offset=".979" stop-color="#FFA744"/></linearGradient><polyline points="163.4 295.6 71.2 242.4 71.2 222.1" class="st2"/><linearGradient id="SVGID_4_" x1="86.225" x2="180.414" y1="250.86" y2="250.86" gradientUnits="userSpaceOnUse"><stop offset="0" stop-color="#CC8636"/><stop offset=".146" stop-color="#DA8F3A"/><stop offset=".429" stop-color="#EE9C3F"/><stop offset=".709" stop-color="#FBA443"/><stop offset=".979" stop-color="#FFA744"/></linearGradient><polyline points="179.4 287.6 87.2 234.4 87.2 214.1" class="st3"/><g><g id="XMLID_18162_"><g id="XMLID_26034_"><linearGradient id="XMLID_10_" x1="42.74" x2="206.802" y1="259.187" y2="48.692" gradientTransform="matrix(1 0 0 1 -46.9386 0)" gradientUnits="userSpaceOnUse"><stop offset="0" stop-color="#1D073F"/><stop offset="1" stop-color="#120426"/></linearGradient><path id="XMLID_26050_" d="M155.8,48.4L155.8,48.4c1.4,1.3,2.2,3.1,2.2,4.9v111.6c0,4.1-2.9,9.1-6.4,11.2 L10.2,258c-1.8,1-4.4,1.4-6.3,0.5l-1-0.5c-1.8-0.9-2.9-2.7-2.9-4.6l0-113.5c0-4.1,2.9-9.1,6.4-11.2l140.1-81.3 C149.6,45.7,153.3,46.1,155.8,48.4z" class="st4"/><linearGradient id="XMLID_11_" x1="161.846" x2="316.128" y1="153.696" y2="153.696" gradientTransform="matrix(-1 0 0 1 319.8683 0)" gradientUnits="userSpaceOnUse"><stop offset="0" stop-color="#491E8C"/><stop offset="1" stop-color="#2F1359"/></linearGradient><path id="XMLID_26045_" d="M151.6,49.3c3.5-2,6.4-0.4,6.4,3.7v112.2c0,4.1-2.9,9.1-6.4,11.2L10.2,258.1 c-3.5,2-6.4,0.4-6.4-3.7V142.1c0-4.1,2.9-9.1,6.4-11.2L151.6,49.3z" class="st5"/><g><g id="XMLID_18167_"><g id="XMLID_18187_"><polygon id="XMLID_18197_" points="41.7 221.7 40.7 222.4 40.7 130.9 41.7 130.4" class="st6"/></g><g id="XMLID_18185_"><polygon id="XMLID_18186_" points="71.3 204.6 70.3 205.3 70.3 113.9 71.3 113.3" class="st6"/></g><g id="XMLID_18182_"><polygon id="XMLID_18184_" points="100.8 188 99.8 188.1 99.8 96.8 100.8 96.2" class="st6"/></g><g id="XMLID_18180_"><polygon id="XMLID_18181_" points="130.4 170.9 129.4 171.5 129.4 79.7 130.4 79.2" class="st6"/></g><linearGradient id="SVGID_5_" x1="12.154" x2="149.144" y1="158.156" y2="158.156" gradientUnits="userSpaceOnUse"><stop offset="0" stop-color="#FFA744"/><stop offset=".163" stop-color="#FFA948"/><stop offset=".333" stop-color="#FFAF55"/><stop offset=".505" stop-color="#FFB969"/><stop offset=".679" stop-color="#FFC786"/><stop offset=".853" stop-color="#FFD9AB"/><stop offset="1" stop-color="#FFEBD1"/></linearGradient><polygon points="149.1 77.5 137.7 97.6 126.3 105.3 117.4 142.2 104.1 130.4 86.5 124.3 74.7 149.4 63.3 149.6 56.7 159.3 29.8 146.9 12.2 171.5 12.2 238.9 149.1 159.3" class="st7"/><linearGradient id="SVGID_6_" x1="11.659" x2="149.144" y1="191.935" y2="191.935" gradientUnits="userSpaceOnUse"><stop offset="0" stop-color="#24D84B"/><stop offset=".152" stop-color="#28D94E"/><stop offset=".31" stop-color="#35DB59"/><stop offset=".47" stop-color="#49DF6A"/><stop offset=".632" stop-color="#66E582"/><stop offset=".795" stop-color="#8CECA0"/><stop offset=".958" stop-color="#B9F5C5"/><stop offset="1" stop-color="#C6F7D0"/></linearGradient><polygon points="149.1 145 123.2 146.9 111.8 168.3 100.3 166.1 92.1 174.1 75.1 171.5 57.9 181.4 56.8 199.2 25.9 178.7 11.7 185.2 11.7 238.9 149.1 159.3" class="st8"/><polyline points="12.2 171.5 29.8 146.9 56.7 159.3 63.3 149.6 74.7 149.4 86.5 124.3 104.1 130.4 117.4 142.2 126.3 105.3 137.7 97.6 149.1 77.5" class="st9"/><polyline points="149.1 145 123.2 146.9 111.8 168.3 100.3 166.1 92.1 174.1 75.1 171.5 57.9 181.4 56.8 199.2 25.9 178.7 11.7 185.2" class="st10"/></g><g id="XMLID_18200_"><polygon id="XMLID_18202_" points="149.1 160.5 11.2 240.1 11.2 238.9 149.1 159.3" class="st6"/></g><g id="XMLID_18198_"><polygon id="XMLID_18199_" points="12.2 238.9 11.2 240 11.2 148 12.2 147.4" class="st6"/></g><g><g id="XMLID_1423_" class="st11"><path d="M25.8,173.1c2.8-1.6,5.1-0.3,5.1,3c0,3.2-2.3,7.2-5.1,8.9c-2.8,1.6-5.1,0.3-5.1-3 C20.7,178.7,23,174.8,25.8,173.1z" class="st12"/></g><g id="XMLID_1425_"><path d="M25.8,177.5c0.7-0.4,1.3-0.1,1.3,0.8c0,0.8-0.6,1.9-1.3,2.3c-0.7,0.4-1.3,0.1-1.3-0.8 C24.5,179,25.1,177.9,25.8,177.5z" class="st13"/></g></g><g><g id="XMLID_1621_" class="st11"><path d="M92.3,168.3c2.8-1.6,5.1-0.3,5.1,3c0,3.2-2.3,7.2-5.1,8.9c-2.8,1.6-5.1,0.3-5.1-3 C87.2,173.9,89.5,169.9,92.3,168.3z" class="st12"/></g><g id="XMLID_1433_"><path d="M92.3,172.6c0.7-0.4,1.3-0.1,1.3,0.8s-0.6,1.9-1.3,2.3c-0.7,0.4-1.3,0.1-1.3-0.8 C91,174.1,91.6,173.1,92.3,172.6z" class="st13"/></g></g><g><g id="XMLID_1623_" class="st11"><path d="M56.7,153.4c2.8-1.6,5.1-0.3,5.1,3c0,3.2-2.3,7.2-5.1,8.9c-2.8,1.6-5.1,0.3-5.1-3 C51.6,159,53.9,155,56.7,153.4z" class="st14"/></g><g id="XMLID_1424_"><path d="M56.7,157.8c0.7-0.4,1.3-0.1,1.3,0.8c0,0.8-0.6,1.9-1.3,2.3c-0.7,0.4-1.3,0.1-1.3-0.8 C55.4,159.2,55.9,158.2,56.7,157.8z" class="st13"/></g></g><g><g id="XMLID_1625_" class="st11"><path d="M126.3,99.6c2.8-1.6,5.1-0.3,5.1,3c0,3.2-2.3,7.2-5.1,8.9c-2.8,1.6-5.1,0.3-5.1-3 C121.2,105.2,123.5,101.2,126.3,99.6z" class="st14"/></g><g id="XMLID_1422_"><path d="M126.3,104c0.7-0.4,1.3-0.1,1.3,0.8c0,0.8-0.6,1.9-1.3,2.3c-0.7,0.4-1.3,0.1-1.3-0.8 C125,105.4,125.6,104.4,126.3,104z" class="st13"/></g></g></g></g></g><g class="st15"><path id="XMLID_18159_" d="M4.1,277.2l149.7-86.9c1.9-1.1,4.2,0.3,4.2,2.4v10.9c0,3-1.6,5.7-4.1,7.2L4.2,297.7 c-1.9,1.1-4.2-0.3-4.2-2.4v-10.9C0,281.4,1.6,278.7,4.1,277.2z" class="st16"/><path d="M4.1,277.2l149.7-86.9c1.9-1.1,4.2,0.3,4.2,2.4v10.6c0,2.9-1.6,5.6-4.1,7.1l-149.8,87 C2.3,298.5,0,297.2,0,295l0-10.6C0,281.4,1.6,278.7,4.1,277.2z" class="st17"/><path d="M4.1,277.2l149.7-86.9c1.9-1.1,4.2,0.3,4.2,2.4v10.4c0,2.9-1.5,5.5-4,7L4.1,297.1 c-1.8,1.1-4.1-0.3-4.1-2.3l0-10.4C0,281.4,1.6,278.7,4.1,277.2z" class="st18"/><path d="M4.1,277.2l149.7-86.9c1.9-1.1,4.2,0.3,4.2,2.4v10.1c0,2.8-1.5,5.4-3.9,6.8L4,296.8c-1.8,1-4-0.3-4-2.3 v-10.1C0,281.4,1.6,278.7,4.1,277.2z" class="st19"/><path d="M4.1,277.2l149.7-86.9c1.9-1.1,4.2,0.3,4.2,2.4v9.8c0,2.8-1.5,5.3-3.9,6.7L3.9,296.5 c-1.7,1-3.9-0.2-3.9-2.3l0-9.8C0,281.4,1.6,278.7,4.1,277.2z" class="st20"/><path d="M4.1,277.2l149.7-86.9c1.9-1.1,4.2,0.3,4.2,2.4v9.5c0,2.7-1.5,5.3-3.8,6.6L3.9,296.1 c-1.7,1-3.9-0.2-3.9-2.2l0-9.5C0,281.4,1.6,278.7,4.1,277.2z" class="st21"/><path d="M4.1,277.2l149.7-86.9c1.9-1.1,4.2,0.3,4.2,2.4v9.2c0,2.7-1.4,5.2-3.8,6.5L3.8,295.8 c-1.7,1-3.8-0.2-3.8-2.2v-9.2C0,281.4,1.6,278.7,4.1,277.2z" class="st22"/><path d="M4.1,277.2l149.7-86.9c1.9-1.1,4.2,0.3,4.2,2.4v8.9c0,2.6-1.4,5.1-3.7,6.4L3.7,295.5 c-1.7,1-3.7-0.2-3.7-2.1l0-9C0,281.4,1.6,278.7,4.1,277.2z" class="st23"/><path d="M4.1,277.2l149.7-86.9c1.9-1.1,4.2,0.3,4.2,2.4v8.6c0,2.6-1.4,5-3.6,6.3L3.7,295.2C2,296.1,0,295,0,293.1 l0-8.7C0,281.4,1.6,278.7,4.1,277.2z" class="st24"/><path d="M4.1,277.2l149.7-86.9c1.9-1.1,4.2,0.3,4.2,2.4v8.3c0,2.5-1.4,4.9-3.6,6.2L3.6,294.9 C2,295.8,0,294.6,0,292.8v-8.4C0,281.4,1.6,278.7,4.1,277.2z" class="st25"/><path d="M4.1,277.2l149.7-86.9c1.9-1.1,4.2,0.3,4.2,2.4v8.1c0,2.5-1.3,4.8-3.5,6.1l-151,87.7 c-1.6,0.9-3.5-0.2-3.5-2l0-8.1C0,281.4,1.6,278.7,4.1,277.2z" class="st26"/><path d="M4.1,277.2l149.7-86.9c1.9-1.1,4.2,0.3,4.2,2.4v7.8c0,2.5-1.3,4.7-3.4,6L3.5,294.2 c-1.5,0.9-3.5-0.2-3.5-2l0-7.9C0,281.4,1.6,278.7,4.1,277.2z" class="st27"/><path d="M4.1,277.2l149.7-86.9c1.9-1.1,4.2,0.3,4.2,2.4v7.5c0,2.4-1.3,4.6-3.4,5.9L3.4,293.9 C1.9,294.8,0,293.7,0,292l0-7.6C0,281.4,1.6,278.7,4.1,277.2z" class="st28"/><path d="M4.1,277.2l149.7-86.9c1.9-1.1,4.2,0.3,4.2,2.4v7.2c0,2.4-1.3,4.6-3.3,5.7L3.3,293.6 c-1.5,0.9-3.3-0.2-3.3-1.9l0-7.3C0,281.4,1.6,278.7,4.1,277.2z" class="st29"/><path d="M4.1,277.2l149.7-86.9c1.9-1.1,4.2,0.3,4.2,2.4v6.9c0,2.3-1.2,4.5-3.2,5.6l-151.5,88 c-1.4,0.8-3.2-0.2-3.2-1.9l0-7C0,281.4,1.6,278.7,4.1,277.2z" class="st30"/><path d="M4.1,277.2l149.7-86.9c1.9-1.1,4.2,0.3,4.2,2.4v6.6c0,2.3-1.2,4.4-3.2,5.5L3.2,292.9 c-1.4,0.8-3.2-0.2-3.2-1.8l0-6.7C0,281.4,1.6,278.7,4.1,277.2z" class="st31"/><path d="M4.1,277.2l149.7-86.9c1.9-1.1,4.2,0.3,4.2,2.4v6.3c0,2.2-1.2,4.3-3.1,5.4L3.1,292.6 c-1.4,0.8-3.1-0.2-3.1-1.8l0-6.5C0,281.4,1.6,278.7,4.1,277.2z" class="st32"/><path d="M4.1,277.2l149.7-86.9c1.9-1.1,4.2,0.3,4.2,2.4v6.1c0,2.2-1.2,4.2-3.1,5.3L3,292.3c-1.3,0.8-3-0.2-3-1.7 l0-6.2C0,281.4,1.6,278.7,4.1,277.2z" class="st33"/><path d="M4.1,277.2l149.7-86.9c1.9-1.1,4.2,0.3,4.2,2.4v5.8c0,2.1-1.1,4.1-3,5.2L3,292c-1.3,0.8-3-0.2-3-1.7 l0-5.9C0,281.4,1.6,278.7,4.1,277.2z" class="st34"/><path d="M4.1,277.2l149.7-86.9c1.9-1.1,4.2,0.3,4.2,2.4v5.5c0,2.1-1.1,4-2.9,5.1L2.9,291.7 C1.6,292.4,0,291.5,0,290v-5.6C0,281.4,1.6,278.7,4.1,277.2z" class="st35"/><path d="M4.1,277.2l149.7-86.9c1.9-1.1,4.2,0.3,4.2,2.4v5.2c0,2-1.1,3.9-2.9,5L2.8,291.3 c-1.3,0.7-2.8-0.2-2.8-1.6l0-5.3C0,281.4,1.6,278.7,4.1,277.2z" class="st36"/><path d="M4.1,277.2l149.7-86.9c1.9-1.1,4.2,0.3,4.2,2.4v4.9c0,2-1.1,3.9-2.8,4.9L2.8,291 c-1.2,0.7-2.8-0.2-2.8-1.6l0-5.1C0,281.4,1.6,278.7,4.1,277.2z" class="st37"/><path d="M4.1,277.2l149.7-86.9c1.9-1.1,4.2,0.3,4.2,2.4v4.6c0,2-1,3.8-2.7,4.7L2.7,290.7 c-1.2,0.7-2.7-0.2-2.7-1.5v-4.8C0,281.4,1.6,278.7,4.1,277.2z" class="st38"/><path d="M4.1,277.2l149.7-86.9c1.9-1.1,4.2,0.3,4.2,2.4v4.3c0,1.9-1,3.7-2.7,4.6L2.6,290.4 c-1.2,0.7-2.6-0.2-2.6-1.5l0-4.5C0,281.4,1.6,278.7,4.1,277.2z" class="st39"/><path d="M4.1,277.2l149.7-86.9c1.9-1.1,4.2,0.3,4.2,2.4v4c0,1.9-1,3.6-2.6,4.5L2.5,290.1 c-1.1,0.7-2.5-0.2-2.5-1.5l0-4.2C0,281.4,1.6,278.7,4.1,277.2z" class="st40"/><path d="M4.1,277.2l149.7-86.9c1.9-1.1,4.2,0.3,4.2,2.4v3.8c0,1.8-1,3.5-2.5,4.4l-153,88.9 c-1.1,0.6-2.5-0.2-2.5-1.4v-3.9C0,281.4,1.6,278.7,4.1,277.2z" class="st41"/><path d="M4.1,277.2l149.7-86.9c1.9-1.1,4.2,0.3,4.2,2.4v3.5c0,1.8-0.9,3.4-2.5,4.3L2.4,289.4 C1.3,290,0,289.3,0,288l0-3.7C0,281.4,1.6,278.7,4.1,277.2z" class="st42"/><path d="M4.1,277.2l149.7-86.9c1.9-1.1,4.2,0.3,4.2,2.4v3.2c0,1.7-0.9,3.3-2.4,4.2l-153.3,89 c-1,0.6-2.3-0.1-2.3-1.3l0-3.4C0,281.4,1.6,278.7,4.1,277.2z" class="st43"/><path d="M4.1,277.2l149.7-86.9c1.9-1.1,4.2,0.3,4.2,2.4v2.9c0,1.7-0.9,3.2-2.4,4.1L2.3,288.8 c-1,0.6-2.3-0.1-2.3-1.3v-3.1C0,281.4,1.6,278.7,4.1,277.2z" class="st44"/><path d="M4.1,277.2l149.7-86.9c1.9-1.1,4.2,0.3,4.2,2.4v2.6c0,1.6-0.9,3.2-2.3,4L2.2,288.5 c-1,0.6-2.2-0.1-2.2-1.3l0-2.8C0,281.4,1.6,278.7,4.1,277.2z" class="st45"/><path d="M4.1,277.2l149.7-86.9c1.9-1.1,4.2,0.3,4.2,2.4v2.3c0,1.6-0.8,3.1-2.2,3.9L2.1,288.1 C1.2,288.7,0,288,0,286.9l0-2.5C0,281.4,1.6,278.7,4.1,277.2z" class="st46"/><path d="M4.1,277.2l149.7-86.9c1.9-1.1,4.2,0.3,4.2,2.4v2c0,1.5-0.8,3-2.2,3.8L2.1,287.8 c-0.9,0.5-2.1-0.1-2.1-1.2l0-2.3C0,281.4,1.6,278.7,4.1,277.2z" class="st47"/><path d="M4.1,277.2l149.7-86.9c1.9-1.1,4.2,0.3,4.2,2.4v1.8c0,1.5-0.8,2.9-2.1,3.6L2,287.5c-0.9,0.5-2-0.1-2-1.1 l0-2C0,281.4,1.6,278.7,4.1,277.2z" class="st48"/><path d="M4.1,277.2l149.7-86.9c1.9-1.1,4.2,0.3,4.2,2.4v1.5c0,1.5-0.8,2.8-2,3.5L1.9,287.2 c-0.9,0.5-1.9-0.1-1.9-1.1l0-1.7C0,281.4,1.6,278.7,4.1,277.2z" class="st49"/><path d="M4.1,277.2l149.7-86.9c1.9-1.1,4.2,0.3,4.2,2.4v1.2c0,1.4-0.8,2.7-2,3.4L1.8,286.9 C1,287.3,0,286.8,0,285.8v-1.4C0,281.4,1.6,278.7,4.1,277.2z" class="st50"/><path d="M4.1,277.2l149.7-86.9c1.9-1.1,4.2,0.3,4.2,2.4v0.9c0,1.4-0.7,2.6-1.9,3.3L1.8,286.5 C1,287,0,286.4,0,285.5l0-1.1C0,281.4,1.6,278.7,4.1,277.2z" class="st51"/><path d="M4.1,277.2l149.7-86.9c1.9-1.1,4.2,0.3,4.2,2.4v0.6c0,1.3-0.7,2.5-1.8,3.2L1.7,286.2 c-0.8,0.4-1.7-0.1-1.7-1l0-0.9C0,281.4,1.6,278.7,4.1,277.2z" class="st52"/><path d="M4.1,277.2l149.7-86.9c1.9-1.1,4.2,0.3,4.2,2.4v0.3c0,1.3-0.7,2.5-1.8,3.1L1.6,285.9 C0.9,286.3,0,285.8,0,285v-0.6C0,281.4,1.6,278.7,4.1,277.2z" class="st53"/><path d="M4.1,277.2l149.7-86.9c1.9-1.1,4.2,0.3,4.2,2.4v0c0,1.2-0.7,2.4-1.7,3L1.6,285.6C0.9,286,0,285.5,0,284.7 l0-0.3C0,281.4,1.6,278.7,4.1,277.2z" class="st54"/><path d="M4.1,277.2l149.7-86.9c1.9-1.1,4.2,0.3,4.2,2.4v-0.3c0,1.2-0.6,2.3-1.7,2.9L1.5,285.3 c-0.7,0.4-1.5-0.1-1.5-0.9l0,0C0,281.4,1.6,278.7,4.1,277.2z" class="st55"/><path d="M4.1,277.2l149.7-86.9c1.9-1.1,4.2,0.3,4.2,2.4v-0.5c0,1.1-0.6,2.2-1.6,2.8l-155,90 c-0.6,0.4-1.4-0.1-1.4-0.8l0,0.3C0,281.4,1.6,278.7,4.1,277.2z" class="st56"/><path id="XMLID_18158_" d="M4.1,277.2l149.7-86.9c1.9-1.1,4.2,0.3,4.2,2.4v-0.8c0,1.1-0.6,2.1-1.5,2.6L1.4,284.6 C0.8,285,0,284.5,0,283.8l0,0.5C0,281.4,1.6,278.7,4.1,277.2z" class="st57"/></g></g><g><g id="XMLID_26107_"><g id="XMLID_27591_"><linearGradient id="XMLID_12_" x1="-733.119" x2="-569.056" y1="259.187" y2="48.692" gradientTransform="matrix(-1 0 0 1 -238.9202 0)" gradientUnits="userSpaceOnUse"><stop offset="0" stop-color="#120426"/><stop offset="1" stop-color="#1D073F"/></linearGradient><path id="XMLID_27593_" d="M334.2,48.4L334.2,48.4c-1.4,1.3-2.2,3.1-2.2,4.9v111.6c0,4.1,2.9,9.1,6.4,11.2 L479.8,258c1.8,1,4.4,1.4,6.3,0.5l1-0.5c1.8-0.9,2.9-2.7,2.9-4.6V139.9c0-4.1-2.9-9.1-6.4-11.2L343.4,47.4 C340.4,45.7,336.7,46.1,334.2,48.4z" class="st58"/><linearGradient id="XMLID_13_" x1="937.705" x2="1091.987" y1="153.696" y2="153.696" gradientTransform="matrix(1 0 0 1 -605.7271 0)" gradientUnits="userSpaceOnUse"><stop offset="0" stop-color="#2F1359"/><stop offset="1" stop-color="#491E8C"/></linearGradient><path id="XMLID_27592_" d="M338.4,49.3c-3.5-2-6.4-0.4-6.4,3.7v112.2c0,4.1,2.9,9.1,6.4,11.2l141.4,81.6 c3.5,2,6.4,0.4,6.4-3.7V142.1c0-4.1-2.9-9.1-6.4-11.2L338.4,49.3z" class="st59"/></g><g id="XMLID_27587_"><path id="XMLID_27588_" d="M363.9,166c-1.7,0-3.6-0.6-5.5-1.6c-6.4-3.7-11.6-12.7-11.6-20c0-3.8,1.3-6.7,3.8-8.1 c2.4-1.4,5.6-1.1,8.9,0.8c6.4,3.7,11.6,12.7,11.6,20c0,3.8-1.3,6.7-3.8,8.1C366.3,165.7,365.2,166,363.9,166z M354.2,137.6 c-0.9,0-1.6,0.2-2.3,0.6c-1.7,1-2.7,3.2-2.7,6.1c0,6.5,4.8,14.8,10.4,18.1c2.6,1.5,4.9,1.7,6.6,0.8c1.7-1,2.7-3.2,2.7-6.1 c0-6.5-4.8-14.8-10.4-18.1l0,0C356.9,138,355.5,137.6,354.2,137.6z" class="st6"/></g><g id="XMLID_27585_"><path id="XMLID_27586_" d="M363.9,166.7c-1.3,0-2.6-0.3-3.9-0.8l0-4.2c2.3,1.3,4.4,1.6,5.9,0.8 c1.5-0.9,2.3-2.8,2.3-5.5c0-3.5-1.5-7.7-3.9-11.4c-0.2-0.4-0.5-0.7-0.8-1.1l3-2.3c0.3,0.4,0.6,0.8,0.9,1.2 c2.9,4.3,4.5,9.2,4.5,13.5c0,4.1-1.5,7.2-4.2,8.7C366.6,166.4,365.3,166.7,363.9,166.7z" class="st60"/></g><g id="XMLID_27581_"><path id="XMLID_27582_" d="M413.6,194.2c-1.7,0-3.6-0.6-5.5-1.6c-6.4-3.7-11.6-12.7-11.6-20 c0-3.8,1.3-6.7,3.8-8.1c2.4-1.4,5.6-1.1,8.9,0.8l0,0c6.4,3.7,11.6,12.7,11.6,20c0,3.8-1.3,6.7-3.8,8.1 C416,193.9,414.8,194.2,413.6,194.2z M403.8,165.8c-0.9,0-1.6,0.2-2.3,0.6c-1.7,1-2.7,3.2-2.7,6.1c0,6.5,4.8,14.8,10.4,18.1 c2.6,1.5,4.9,1.7,6.6,0.8c1.7-1,2.7-3.2,2.7-6.1c0-6.5-4.8-14.8-10.4-18.1C406.6,166.3,405.1,165.8,403.8,165.8z" class="st6"/></g><g id="XMLID_27579_"><path id="XMLID_27580_" d="M414.8,175.3c-0.9-1.6-2-3.1-3.2-4.4c-1.2-1.3-2.5-2.4-3.8-3.1 c-1.2-0.7-2.4-1.1-3.5-1.2c-0.9-0.1-1.7,0.1-2.4,0.5c-0.7,0.4-1.2,1-1.6,1.8c-0.5,1-0.7,2.2-0.7,3.6h-3.8c0-2,0.4-3.7,1-5.2 c0.7-1.5,1.8-2.7,3.1-3.5c1.3-0.8,2.9-1.1,4.6-1c1.6,0.1,3.3,0.7,5,1.7c1.6,0.9,3.2,2.2,4.7,3.8c1.4,1.5,2.7,3.2,3.8,5.1 L414.8,175.3z" class="st61"/></g><g id="XMLID_27511_"><path id="XMLID_27519_" d="M413.6,195c-0.3,0-0.5,0-0.8,0c-1.6-0.1-3.3-0.7-5-1.7c-1.6-0.9-3.2-2.2-4.7-3.8 l2.7-2.6c1.2,1.3,2.5,2.4,3.8,3.1c1.2,0.7,2.4,1.1,3.5,1.2c0.9,0.1,1.7-0.1,2.4-0.5c0.7-0.4,1.2-1,1.6-1.8 c0.5-1,0.7-2.2,0.7-3.6c0-1.5-0.3-3.2-0.8-4.9c-0.5-1.7-1.3-3.4-2.2-5l3.3-1.9c1.1,1.9,1.9,3.8,2.5,5.8c0.6,2.1,0.9,4.1,0.9,6 c0,2-0.4,3.7-1,5.2c-0.7,1.5-1.8,2.7-3.1,3.5C416.3,194.6,414.9,195,413.6,195z" class="st60"/></g><g id="XMLID_26623_"><path id="XMLID_26862_" d="M463.3,223.8c-1.7,0-3.6-0.6-5.5-1.6c-6.4-3.7-11.6-12.7-11.6-20 c0-3.8,1.3-6.7,3.8-8.1c2.4-1.4,5.6-1.1,8.9,0.8c6.4,3.7,11.6,12.7,11.6,20c0,3.8-1.3,6.7-3.8,8.1 C465.7,223.5,464.6,223.8,463.3,223.8z M453.6,195.4c-0.9,0-1.6,0.2-2.3,0.6c-1.7,1-2.7,3.2-2.7,6.1c0,6.5,4.8,14.8,10.4,18.1 c2.6,1.5,4.9,1.7,6.6,0.8c1.7-1,2.7-3.2,2.7-6.1c0-6.5-4.8-14.8-10.4-18.1C456.3,195.9,454.9,195.4,453.6,195.4z" class="st6"/></g><g id="XMLID_26299_"><path id="XMLID_26300_" d="M464.6,204.9c-0.9-1.6-2-3.1-3.2-4.4c-1.2-1.3-2.5-2.4-3.8-3.1 c-1.2-0.7-2.4-1.1-3.5-1.2c-0.9-0.1-1.7,0.1-2.4,0.5c-0.7,0.4-1.2,1-1.6,1.8c-0.5,1-0.7,2.2-0.7,3.6h-3.8c0-2,0.4-3.7,1-5.2 c0.7-1.5,1.8-2.7,3.1-3.5c1.3-0.8,2.9-1.1,4.6-1c1.6,0.1,3.3,0.7,5,1.7c1.6,0.9,3.2,2.2,4.7,3.8c1.4,1.5,2.7,3.2,3.8,5.1 L464.6,204.9z" class="st61"/></g><g id="XMLID_26297_"><path id="XMLID_26298_" d="M470.3,220.1l-3.4-1.6c0.5-1,0.7-2.2,0.7-3.6c0-1.5-0.3-3.2-0.8-4.9 c-0.5-1.7-1.3-3.4-2.2-5l3.3-1.9c1.1,1.9,1.9,3.8,2.5,5.8c0.6,2.1,0.9,4.1,0.9,6C471.3,216.8,471,218.6,470.3,220.1z" class="st60"/></g><g id="XMLID_26295_"><path id="XMLID_26296_" d="M364.3,145.6c-0.2-0.3-1.2-1.7-1.5-2c-0.9-1.1-1.9-2.1-3-2.9 c-0.3-0.2-0.5-0.4-0.8-0.6l0.9-3.9c2,1.2,3.9,2.8,5.7,4.9c0.3,0.3,0.6,0.7,0.9,1.1L364.3,145.6z" class="st61"/></g><g id="XMLID_26201_"><g id="XMLID_26293_"><polygon id="XMLID_26294_" points="478.8 186.8 372.7 125.5 372.7 124.6 478.8 185.9" class="st6"/></g><g id="XMLID_26291_"><polygon id="XMLID_26292_" points="373.4 125.4 372.7 125.4 372.7 85.4 373.4 85.8" class="st6"/></g><g id="XMLID_26289_"><polygon id="XMLID_26290_" points="396.2 138.5 395.4 138.1 395.4 98.5 396.2 99" class="st6"/></g><g id="XMLID_26287_"><polygon id="XMLID_26288_" points="418.9 151.5 418.2 151.2 418.2 111.6 418.9 112.1" class="st6"/></g><g id="XMLID_26285_"><polygon id="XMLID_26286_" points="441.7 165 440.9 164.2 440.9 124.8 441.7 125.2" class="st6"/></g><g id="XMLID_26283_"><polygon id="XMLID_26284_" points="464.4 178.1 463.6 177.7 463.6 137.8 464.4 138.3" class="st6"/></g><g id="XMLID_26281_"><path id="XMLID_26282_" d="M478.8,161.2l-14.8-19c-6.6-8.6-17.7-12.3-28.2-9.6l-4.9,1.3 c-4.9,1.3-10,0.6-14.4-2.1c-4.4-2.6-7.4-6.8-8.6-11.7c-2.9-12.3-13.8-20.9-26.5-20.8l-8,0.1l0-0.8l8-0.1 c13-0.1,24.2,8.7,27.2,21.4c1.1,4.7,4,8.7,8.2,11.2c4.2,2.5,9.1,3.2,13.8,2l4.9-1.3c10.8-2.8,22.2,1,29,9.9l14.2,18.3V161.2z" class="st60"/></g><g id="XMLID_26279_" class="st62"><linearGradient id="XMLID_14_" x1="979.17" x2="1084.566" y1="142.575" y2="142.575" gradientTransform="matrix(1 0 0 1 -605.7271 0)" gradientUnits="userSpaceOnUse"><stop offset="0" stop-color="#FFA744"/><stop offset=".163" stop-color="#FFA948"/><stop offset=".333" stop-color="#FFAF55"/><stop offset=".505" stop-color="#FFB969"/><stop offset=".679" stop-color="#FFC786"/><stop offset=".853" stop-color="#FFD9AB"/><stop offset="1" stop-color="#FFEBD1"/></linearGradient><path id="XMLID_26280_" d="M478.8,161.2l-14.8-19c-6.6-8.6-17.7-12.3-28.2-9.6l-4.9,1.3 c-4.9,1.3-10,0.6-14.4-2.1c-4.4-2.6-7.4-6.8-8.6-11.7c-2.9-12.3-13.8-20.9-26.5-20.8l-8,0.1l0,25.7l105.4,60.9V161.2z" class="st63"/></g><g id="XMLID_26205_"><path id="XMLID_26230_" d="M374.2,125.4l12.7-1.6c10.8-1.4,21.3,3.8,26.7,13.2l2.6,4.4 c2.6,4.4,6.7,7.5,11.6,8.7c4.9,1.2,10,0.4,14.3-2.2c10.8-6.7,24.6-5,33.4,4l3.2,3.2l0-1.1l-2.6-2.7 c-9.2-9.3-23.3-11-34.4-4.1c-4.1,2.6-9,3.3-13.8,2.1c-4.7-1.2-8.7-4.1-11.1-8.4l-2.6-4.4c-5.6-9.6-16.4-15-27.5-13.6 l-13.4,1.7l0,0.2L374.2,125.4z" class="st61"/></g><g id="XMLID_26203_" class="st62"><linearGradient id="XMLID_15_" x1="979.943" x2="1084.566" y1="154.753" y2="154.753" gradientTransform="matrix(1 0 0 1 -605.7271 0)" gradientUnits="userSpaceOnUse"><stop offset="0" stop-color="#24D84B"/><stop offset=".152" stop-color="#28D94E"/><stop offset=".31" stop-color="#35DB59"/><stop offset=".47" stop-color="#49DF6A"/><stop offset=".632" stop-color="#66E582"/><stop offset=".795" stop-color="#8CECA0"/><stop offset=".958" stop-color="#B9F5C5"/><stop offset="1" stop-color="#C6F7D0"/></linearGradient><path id="XMLID_26204_" d="M478.8,155.1l-3.2-3.2c-8.9-9-22.7-10.7-33.4-4c-4.3,2.7-9.4,3.5-14.3,2.2 c-4.9-1.2-9.1-4.3-11.6-8.7l-2.6-4.4c-5.5-9.4-16-14.5-26.7-13.2l-12.7,1.6l104.6,60.4L478.8,155.1z" class="st64"/></g></g><g id="XMLID_26139_"><path id="XMLID_26200_" d="M354.2,76.1c-5-2.9-9.2-0.5-9.2,5.3c0,5.8,4.1,13,9.2,15.9c5,2.9,9.2,0.5,9.2-5.3 C363.4,86.1,359.3,79,354.2,76.1z" class="st6"/><path id="XMLID_26199_" d="M352,87.7c-1.1-1.3-1.8-3-1.8-4.5c0-2.2,1.6-3.1,3.5-2c1.9,1.1,3.5,3.8,3.5,6 c0,1-0.3,1.7-0.8,2.1c1.8,2.3,2.8,5.1,2.8,8v1.1c-1.4,0.2-3.1-0.1-4.9-1.2c-2-1.2-3.8-3-5.4-5.1 C349.1,90.2,350.3,88.5,352,87.7z" class="st13"/></g></g><g class="st15"><path id="XMLID_26055_" d="M485.9,277.2l-149.7-86.9c-1.9-1.1-4.2,0.3-4.2,2.4v10.9c0,3,1.6,5.7,4.1,7.2 l149.7,86.9c1.9,1.1,4.2-0.3,4.2-2.4v-10.9C490,281.4,488.4,278.7,485.9,277.2z" class="st16"/><path d="M485.9,277.2l-149.7-86.9c-1.9-1.1-4.2,0.3-4.2,2.4v10.6c0,2.9,1.6,5.6,4.1,7.1l149.8,87 c1.8,1.1,4.2-0.3,4.2-2.4v-10.6C490,281.4,488.4,278.7,485.9,277.2z" class="st17"/><path d="M485.9,277.2l-149.7-86.9c-1.9-1.1-4.2,0.3-4.2,2.4v10.4c0,2.9,1.5,5.5,4,7l149.9,87.1 c1.8,1.1,4.1-0.3,4.1-2.3v-10.4C490,281.4,488.4,278.7,485.9,277.2z" class="st18"/><path d="M485.9,277.2l-149.7-86.9c-1.9-1.1-4.2,0.3-4.2,2.4v10.1c0,2.8,1.5,5.4,3.9,6.8L486,296.8 c1.8,1,4-0.3,4-2.3v-10.1C490,281.4,488.4,278.7,485.9,277.2z" class="st19"/><path d="M485.9,277.2l-149.7-86.9c-1.9-1.1-4.2,0.3-4.2,2.4v9.8c0,2.8,1.5,5.3,3.9,6.7l150.2,87.2 c1.7,1,3.9-0.2,3.9-2.3v-9.8C490,281.4,488.4,278.7,485.9,277.2z" class="st20"/><path d="M485.9,277.2l-149.7-86.9c-1.9-1.1-4.2,0.3-4.2,2.4v9.5c0,2.7,1.5,5.3,3.8,6.6l150.3,87.3 c1.7,1,3.9-0.2,3.9-2.2v-9.5C490,281.4,488.4,278.7,485.9,277.2z" class="st21"/><path d="M485.9,277.2l-149.7-86.9c-1.9-1.1-4.2,0.3-4.2,2.4v9.2c0,2.7,1.4,5.2,3.8,6.5l150.5,87.4 c1.7,1,3.8-0.2,3.8-2.2v-9.2C490,281.4,488.4,278.7,485.9,277.2z" class="st22"/><path d="M485.9,277.2l-149.7-86.9c-1.9-1.1-4.2,0.3-4.2,2.4v8.9c0,2.6,1.4,5.1,3.7,6.4l150.6,87.5 c1.7,1,3.7-0.2,3.7-2.1v-9C490,281.4,488.4,278.7,485.9,277.2z" class="st23"/><path d="M485.9,277.2l-149.7-86.9c-1.9-1.1-4.2,0.3-4.2,2.4v8.6c0,2.6,1.4,5,3.6,6.3l150.7,87.5 c1.6,0.9,3.7-0.2,3.7-2.1v-8.7C490,281.4,488.4,278.7,485.9,277.2z" class="st24"/><path d="M485.9,277.2l-149.7-86.9c-1.9-1.1-4.2,0.3-4.2,2.4v8.3c0,2.5,1.4,4.9,3.6,6.2l150.9,87.6 c1.6,0.9,3.6-0.2,3.6-2.1v-8.4C490,281.4,488.4,278.7,485.9,277.2z" class="st25"/><path d="M485.9,277.2l-149.7-86.9c-1.9-1.1-4.2,0.3-4.2,2.4v8.1c0,2.5,1.3,4.8,3.5,6.1l151,87.7 c1.6,0.9,3.5-0.2,3.5-2v-8.1C490,281.4,488.4,278.7,485.9,277.2z" class="st26"/><path d="M485.9,277.2l-149.7-86.9c-1.9-1.1-4.2,0.3-4.2,2.4v7.8c0,2.5,1.3,4.7,3.4,6l151.1,87.8 c1.5,0.9,3.5-0.2,3.5-2v-7.9C490,281.4,488.4,278.7,485.9,277.2z" class="st27"/><path d="M485.9,277.2l-149.7-86.9c-1.9-1.1-4.2,0.3-4.2,2.4v7.5c0,2.4,1.3,4.6,3.4,5.9l151.3,87.9 c1.5,0.9,3.4-0.2,3.4-1.9v-7.6C490,281.4,488.4,278.7,485.9,277.2z" class="st28"/><path d="M485.9,277.2l-149.7-86.9c-1.9-1.1-4.2,0.3-4.2,2.4v7.2c0,2.4,1.3,4.6,3.3,5.7l151.4,87.9 c1.5,0.9,3.3-0.2,3.3-1.9v-7.3C490,281.4,488.4,278.7,485.9,277.2z" class="st29"/><path d="M485.9,277.2l-149.7-86.9c-1.9-1.1-4.2,0.3-4.2,2.4v6.9c0,2.3,1.2,4.5,3.2,5.6l151.5,88 c1.4,0.8,3.2-0.2,3.2-1.9v-7C490,281.4,488.4,278.7,485.9,277.2z" class="st30"/><path d="M485.9,277.2l-149.7-86.9c-1.9-1.1-4.2,0.3-4.2,2.4v6.6c0,2.3,1.2,4.4,3.2,5.5l151.7,88.1 c1.4,0.8,3.2-0.2,3.2-1.8v-6.7C490,281.4,488.4,278.7,485.9,277.2z" class="st31"/><path d="M485.9,277.2l-149.7-86.9c-1.9-1.1-4.2,0.3-4.2,2.4v6.3c0,2.2,1.2,4.3,3.1,5.4l151.8,88.2 c1.4,0.8,3.1-0.2,3.1-1.8v-6.5C490,281.4,488.4,278.7,485.9,277.2z" class="st32"/><path d="M485.9,277.2l-149.7-86.9c-1.9-1.1-4.2,0.3-4.2,2.4v6.1c0,2.2,1.2,4.2,3.1,5.3L487,292.3 c1.3,0.8,3-0.2,3-1.7v-6.2C490,281.4,488.4,278.7,485.9,277.2z" class="st33"/><path d="M485.9,277.2l-149.7-86.9c-1.9-1.1-4.2,0.3-4.2,2.4v5.8c0,2.1,1.1,4.1,3,5.2L487,292c1.3,0.8,3-0.2,3-1.7 v-5.9C490,281.4,488.4,278.7,485.9,277.2z" class="st34"/><path d="M485.9,277.2l-149.7-86.9c-1.9-1.1-4.2,0.3-4.2,2.4v5.5c0,2.1,1.1,4,2.9,5.1l152.2,88.4 c1.3,0.7,2.9-0.2,2.9-1.7v-5.6C490,281.4,488.4,278.7,485.9,277.2z" class="st35"/><path d="M485.9,277.2l-149.7-86.9c-1.9-1.1-4.2,0.3-4.2,2.4v5.2c0,2,1.1,3.9,2.9,5l152.3,88.5 c1.3,0.7,2.8-0.2,2.8-1.6v-5.3C490,281.4,488.4,278.7,485.9,277.2z" class="st36"/><path d="M485.9,277.2l-149.7-86.9c-1.9-1.1-4.2,0.3-4.2,2.4v4.9c0,2,1.1,3.9,2.8,4.9L487.2,291 c1.2,0.7,2.8-0.2,2.8-1.6v-5.1C490,281.4,488.4,278.7,485.9,277.2z" class="st37"/><path d="M485.9,277.2l-149.7-86.9c-1.9-1.1-4.2,0.3-4.2,2.4v4.6c0,2,1,3.8,2.7,4.7l152.6,88.6 c1.2,0.7,2.7-0.2,2.7-1.5v-4.8C490,281.4,488.4,278.7,485.9,277.2z" class="st38"/><path d="M485.9,277.2l-149.7-86.9c-1.9-1.1-4.2,0.3-4.2,2.4v4.3c0,1.9,1,3.7,2.7,4.6l152.7,88.7 c1.2,0.7,2.6-0.2,2.6-1.5v-4.5C490,281.4,488.4,278.7,485.9,277.2z" class="st39"/><path d="M485.9,277.2l-149.7-86.9c-1.9-1.1-4.2,0.3-4.2,2.4v4c0,1.9,1,3.6,2.6,4.5l152.9,88.8 c1.1,0.7,2.5-0.2,2.5-1.5v-4.2C490,281.4,488.4,278.7,485.9,277.2z" class="st40"/><path d="M485.9,277.2l-149.7-86.9c-1.9-1.1-4.2,0.3-4.2,2.4v3.8c0,1.8,1,3.5,2.5,4.4l153,88.9 c1.1,0.6,2.5-0.2,2.5-1.4v-3.9C490,281.4,488.4,278.7,485.9,277.2z" class="st41"/><path d="M485.9,277.2l-149.7-86.9c-1.9-1.1-4.2,0.3-4.2,2.4v3.5c0,1.8,0.9,3.4,2.5,4.3l153.1,88.9 c1.1,0.6,2.4-0.2,2.4-1.4v-3.7C490,281.4,488.4,278.7,485.9,277.2z" class="st42"/><path d="M485.9,277.2l-149.7-86.9c-1.9-1.1-4.2,0.3-4.2,2.4v3.2c0,1.7,0.9,3.3,2.4,4.2l153.3,89 c1,0.6,2.3-0.1,2.3-1.3v-3.4C490,281.4,488.4,278.7,485.9,277.2z" class="st43"/><path d="M485.9,277.2l-149.7-86.9c-1.9-1.1-4.2,0.3-4.2,2.4v2.9c0,1.7,0.9,3.2,2.4,4.1l153.4,89.1 c1,0.6,2.3-0.1,2.3-1.3v-3.1C490,281.4,488.4,278.7,485.9,277.2z" class="st44"/><path d="M485.9,277.2l-149.7-86.9c-1.9-1.1-4.2,0.3-4.2,2.4v2.6c0,1.6,0.9,3.2,2.3,4l153.5,89.2 c1,0.6,2.2-0.1,2.2-1.3v-2.8C490,281.4,488.4,278.7,485.9,277.2z" class="st45"/><path d="M485.9,277.2l-149.7-86.9c-1.9-1.1-4.2,0.3-4.2,2.4v2.3c0,1.6,0.8,3.1,2.2,3.9l153.7,89.2 c0.9,0.5,2.1-0.1,2.1-1.2v-2.5C490,281.4,488.4,278.7,485.9,277.2z" class="st46"/><path d="M485.9,277.2l-149.7-86.9c-1.9-1.1-4.2,0.3-4.2,2.4v2c0,1.5,0.8,3,2.2,3.8l153.8,89.3 c0.9,0.5,2.1-0.1,2.1-1.2v-2.3C490,281.4,488.4,278.7,485.9,277.2z" class="st47"/><path d="M485.9,277.2l-149.7-86.9c-1.9-1.1-4.2,0.3-4.2,2.4v1.8c0,1.5,0.8,2.9,2.1,3.6L488,287.5 c0.9,0.5,2-0.1,2-1.1v-2C490,281.4,488.4,278.7,485.9,277.2z" class="st48"/><path d="M485.9,277.2l-149.7-86.9c-1.9-1.1-4.2,0.3-4.2,2.4v1.5c0,1.5,0.8,2.8,2,3.5l154.1,89.5 c0.9,0.5,1.9-0.1,1.9-1.1v-1.7C490,281.4,488.4,278.7,485.9,277.2z" class="st49"/><path d="M485.9,277.2l-149.7-86.9c-1.9-1.1-4.2,0.3-4.2,2.4v1.2c0,1.4,0.8,2.7,2,3.4l154.2,89.6 c0.8,0.5,1.8-0.1,1.8-1.1v-1.4C490,281.4,488.4,278.7,485.9,277.2z" class="st50"/><path d="M485.9,277.2l-149.7-86.9c-1.9-1.1-4.2,0.3-4.2,2.4v0.9c0,1.4,0.7,2.6,1.9,3.3l154.3,89.6 c0.8,0.5,1.8-0.1,1.8-1v-1.1C490,281.4,488.4,278.7,485.9,277.2z" class="st51"/><path d="M485.9,277.2l-149.7-86.9c-1.9-1.1-4.2,0.3-4.2,2.4v0.6c0,1.3,0.7,2.5,1.8,3.2l154.5,89.7 c0.8,0.4,1.7-0.1,1.7-1v-0.9C490,281.4,488.4,278.7,485.9,277.2z" class="st52"/><path d="M485.9,277.2l-149.7-86.9c-1.9-1.1-4.2,0.3-4.2,2.4v0.3c0,1.3,0.7,2.5,1.8,3.1l154.6,89.8 c0.7,0.4,1.6-0.1,1.6-0.9v-0.6C490,281.4,488.4,278.7,485.9,277.2z" class="st53"/><path d="M485.9,277.2l-149.7-86.9c-1.9-1.1-4.2,0.3-4.2,2.4v0c0,1.2,0.7,2.4,1.7,3l154.7,89.9 c0.7,0.4,1.6-0.1,1.6-0.9v-0.3C490,281.4,488.4,278.7,485.9,277.2z" class="st54"/><path d="M485.9,277.2l-149.7-86.9c-1.9-1.1-4.2,0.3-4.2,2.4v-0.3c0,1.2,0.6,2.3,1.7,2.9l154.9,89.9 c0.7,0.4,1.5-0.1,1.5-0.9v0C490,281.4,488.4,278.7,485.9,277.2z" class="st55"/><path d="M485.9,277.2l-149.7-86.9c-1.9-1.1-4.2,0.3-4.2,2.4v-0.5c0,1.1,0.6,2.2,1.6,2.8l155,90 c0.6,0.4,1.4-0.1,1.4-0.8v0.3C490,281.4,488.4,278.7,485.9,277.2z" class="st56"/><path id="XMLID_26051_" d="M485.9,277.2l-149.7-86.9c-1.9-1.1-4.2,0.3-4.2,2.4v-0.8c0,1.1,0.6,2.1,1.5,2.6 l155.1,90.1c0.6,0.4,1.4-0.1,1.4-0.8v0.5C490,281.4,488.4,278.7,485.9,277.2z" class="st57"/></g></g></g><g><g class="st65"><path id="XMLID_804_" d="M272.2,251.6c-15-8.7-39.5-8.7-54.5,0l-132,76.2c-15,8.7-15,22.8,0,31.5l132,76.2 c15,8.7,39.5,8.7,54.5,0l132-76.2c15-8.7,15-22.8,0-31.5L272.2,251.6z" class="st66"/><path d="M272.1,252c-14.9-8.6-39.3-8.6-54.2,0L86.5,327.9c-14.9,8.6-14.9,22.7,0,31.3l131.4,75.9 c14.9,8.6,39.3,8.6,54.2,0l131.4-75.9c14.9-8.6,14.9-22.7,0-31.3L272.1,252z" class="st67"/><path d="M272,252.5c-14.8-8.6-39.1-8.6-54,0L87.3,328c-14.8,8.6-14.8,22.6,0,31.2L218,434.6 c14.8,8.6,39.1,8.6,54,0l130.7-75.5c14.8-8.6,14.8-22.6,0-31.2L272,252.5z" class="st68"/><path d="M271.9,252.9c-14.8-8.5-38.9-8.5-53.7,0L88,328c-14.8,8.5-14.8,22.5,0,31l130.1,75.1 c14.8,8.5,38.9,8.5,53.7,0L402,359.1c14.8-8.5,14.8-22.5,0-31L271.9,252.9z" class="st69"/><path d="M271.7,253.4c-14.7-8.5-38.7-8.5-53.4,0L88.8,328.1c-14.7,8.5-14.7,22.4,0,30.9l129.5,74.8 c14.7,8.5,38.7,8.5,53.4,0L401.2,359c14.7-8.5,14.7-22.4,0-30.9L271.7,253.4z" class="st70"/><path d="M271.6,253.8c-14.6-8.4-38.6-8.4-53.2,0L89.6,328.2c-14.6,8.4-14.6,22.3,0,30.7l128.8,74.4 c14.6,8.4,38.6,8.4,53.2,0l128.8-74.4c14.6-8.4,14.6-22.3,0-30.7L271.6,253.8z" class="st71"/><path d="M271.5,254.2c-14.6-8.4-38.4-8.4-52.9,0l-128.2,74c-14.6,8.4-14.6,22.2,0,30.6l128.2,74 c14.6,8.4,38.4,8.4,52.9,0l128.2-74c14.6-8.4,14.6-22.2,0-30.6L271.5,254.2z" class="st72"/><path d="M271.3,254.7c-14.5-8.4-38.2-8.4-52.7,0L91.1,328.3c-14.5,8.4-14.5,22,0,30.4l127.6,73.7 c14.5,8.4,38.2,8.4,52.7,0l127.6-73.7c14.5-8.4,14.5-22,0-30.4L271.3,254.7z" class="st73"/><path d="M271.2,255.1c-14.4-8.3-38-8.3-52.4,0L91.9,328.4c-14.4,8.3-14.4,21.9,0,30.3L218.8,432 c14.4,8.3,38,8.3,52.4,0l126.9-73.3c14.4-8.3,14.4-21.9,0-30.3L271.2,255.1z" class="st74"/><path d="M271.1,255.6c-14.3-8.3-37.8-8.3-52.1,0L92.6,328.5c-14.3,8.3-14.3,21.8,0,30.1l126.3,72.9 c14.3,8.3,37.8,8.3,52.1,0l126.3-72.9c14.3-8.3,14.3-21.8,0-30.1L271.1,255.6z" class="st75"/><path d="M270.9,256c-14.3-8.2-37.6-8.2-51.9,0L93.4,328.6c-14.3,8.2-14.3,21.7,0,30l125.7,72.6 c14.3,8.2,37.6,8.2,51.9,0l125.7-72.6c14.3-8.2,14.3-21.7,0-30L270.9,256z" class="st76"/><path d="M270.8,256.4c-14.2-8.2-37.4-8.2-51.6,0l-125,72.2c-14.2,8.2-14.2,21.6,0,29.8l125,72.2 c14.2,8.2,37.4,8.2,51.6,0l125-72.2c14.2-8.2,14.2-21.6,0-29.8L270.8,256.4z" class="st77"/><path d="M270.7,256.9c-14.1-8.2-37.2-8.2-51.4,0L94.9,328.7c-14.1,8.2-14.1,21.5,0,29.6l124.4,71.8 c14.1,8.2,37.2,8.2,51.4,0l124.4-71.8c14.1-8.2,14.1-21.5,0-29.6L270.7,256.9z" class="st78"/><path d="M270.5,257.3c-14.1-8.1-37-8.1-51.1,0L95.7,328.8c-14,8.1-14,21.4,0,29.5l123.8,71.5 c14.1,8.1,37,8.1,51.1,0l123.8-71.5c14.1-8.1,14.1-21.4,0-29.5L270.5,257.3z" class="st79"/><path d="M270.4,257.8c-14-8.1-36.9-8.1-50.8,0L96.4,328.9c-14,8.1-14,21.3,0,29.3l123.1,71.1 c14,8.1,36.9,8.1,50.8,0l123.1-71.1c14-8.1,14-21.3,0-29.3L270.4,257.8z" class="st80"/><path d="M270.3,258.2c-13.9-8-36.7-8-50.6,0L97.2,328.9c-13.9,8-13.9,21.2,0,29.2l122.5,70.7c13.9,8,36.7,8,50.6,0 l122.5-70.7c13.9-8,13.9-21.2,0-29.2L270.3,258.2z" class="st81"/><path d="M270.2,258.7c-13.8-8-36.5-8-50.3,0L98,329c-13.8,8-13.8,21.1,0,29l121.9,70.4c13.8,8,36.5,8,50.3,0 L392,358.1c13.8-8,13.8-21.1,0-29L270.2,258.7z" class="st82"/><path d="M270,259.1c-13.8-7.9-36.3-7.9-50,0l-121.2,70C85,337,85,350,98.7,358L220,428c13.8,7.9,36.3,7.9,50,0 l121.2-70c13.8-7.9,13.8-20.9,0-28.9L270,259.1z" class="st83"/><path d="M269.9,259.5c-13.7-7.9-36.1-7.9-49.8,0L99.5,329.2c-13.7,7.9-13.7,20.8,0,28.7l120.6,69.6 c13.7,7.9,36.1,7.9,49.8,0l120.6-69.6c13.7-7.9,13.7-20.8,0-28.7L269.9,259.5z" class="st84"/><path d="M269.8,260c-13.6-7.9-35.9-7.9-49.5,0l-120,69.3c-13.6,7.9-13.6,20.7,0,28.6l120,69.3 c13.6,7.9,35.9,7.9,49.5,0l120-69.3c13.6-7.9,13.6-20.7,0-28.6L269.8,260z" class="st85"/><path d="M269.6,260.4c-13.5-7.8-35.7-7.8-49.3,0L101,329.3c-13.5,7.8-13.5,20.6,0,28.4l119.3,68.9 c13.5,7.8,35.7,7.8,49.3,0L389,357.8c13.5-7.8,13.5-20.6,0-28.4L269.6,260.4z" class="st86"/><path d="M269.5,260.9c-13.5-7.8-35.5-7.8-49,0l-118.7,68.5c-13.5,7.8-13.5,20.5,0,28.3l118.7,68.5 c13.5,7.8,35.5,7.8,49,0l118.7-68.5c13.5-7.8,13.5-20.5,0-28.3L269.5,260.9z" class="st87"/><path d="M269.4,261.3c-13.4-7.7-35.3-7.7-48.7,0l-118.1,68.2c-13.4,7.7-13.4,20.4,0,28.1l118.1,68.2 c13.4,7.7,35.3,7.7,48.7,0l118.1-68.2c13.4-7.7,13.4-20.4,0-28.1L269.4,261.3z" class="st88"/><path d="M269.2,261.7c-13.3-7.7-35.1-7.7-48.5,0l-117.4,67.8c-13.3,7.7-13.3,20.3,0,28l117.4,67.8 c13.3,7.7,35.1,7.7,48.5,0l117.4-67.8c13.3-7.7,13.3-20.3,0-28L269.2,261.7z" class="st89"/><path d="M269.1,262.2c-13.3-7.7-35-7.7-48.2,0l-116.8,67.4c-13.3,7.7-13.3,20.2,0,27.8l116.8,67.4 c13.3,7.7,35,7.7,48.2,0l116.8-67.4c13.3-7.7,13.3-20.2,0-27.8L269.1,262.2z" class="st90"/><path d="M269,262.6c-13.2-7.6-34.8-7.6-48,0l-116.2,67.1c-13.2,7.6-13.2,20.1,0,27.7L221,424.5 c13.2,7.6,34.8,7.6,48,0l116.2-67.1c13.2-7.6,13.2-20.1,0-27.7L269,262.6z" class="st91"/><path d="M268.8,263.1c-13.1-7.6-34.6-7.6-47.7,0l-115.5,66.7c-13.1,7.6-13.1,20,0,27.5L221.2,424 c13.1,7.6,34.6,7.6,47.7,0l115.5-66.7c13.1-7.6,13.1-20,0-27.5L268.8,263.1z" class="st92"/><path d="M268.7,263.5c-13-7.5-34.4-7.5-47.4,0l-114.9,66.3c-13,7.5-13,19.9,0,27.4l114.9,66.3 c13,7.5,34.4,7.5,47.4,0l114.9-66.3c13-7.5,13-19.9,0-27.4L268.7,263.5z" class="st93"/><path d="M268.6,263.9c-13-7.5-34.2-7.5-47.2,0l-114.3,66c-13,7.5-13,19.7,0,27.2l114.3,66c13,7.5,34.2,7.5,47.2,0 l114.3-66c13-7.5,13-19.7,0-27.2L268.6,263.9z" class="st94"/><path d="M268.5,264.4c-12.9-7.4-34-7.4-46.9,0L107.9,330c-12.9,7.4-12.9,19.6,0,27.1l113.6,65.6 c12.9,7.4,34,7.4,46.9,0l113.6-65.6c12.9-7.4,12.9-19.6,0-27.1L268.5,264.4z" class="st95"/><path d="M268.3,264.8c-12.8-7.4-33.8-7.4-46.6,0l-113,65.2c-12.8,7.4-12.8,19.5,0,26.9l113,65.2 c12.8,7.4,33.8,7.4,46.6,0l113-65.2c12.8-7.4,12.8-19.5,0-26.9L268.3,264.8z" class="st96"/><path d="M268.2,265.3c-12.8-7.4-33.6-7.4-46.4,0l-112.4,64.9c-12.8,7.4-12.8,19.4,0,26.8l112.4,64.9 c12.8,7.4,33.6,7.4,46.4,0l112.4-64.9c12.8-7.4,12.8-19.4,0-26.8L268.2,265.3z" class="st97"/><path d="M268.1,265.7c-12.7-7.3-33.4-7.3-46.1,0l-111.7,64.5c-12.7,7.3-12.7,19.3,0,26.6l111.7,64.5 c12.7,7.3,33.4,7.3,46.1,0l111.7-64.5c12.7-7.3,12.7-19.3,0-26.6L268.1,265.7z" class="st98"/><path d="M267.9,266.2c-12.6-7.3-33.3-7.3-45.9,0L111,330.3c-12.6,7.3-12.6,19.2,0,26.5l111.1,64.2 c12.6,7.3,33.3,7.3,45.9,0L379,356.8c12.6-7.3,12.6-19.2,0-26.5L267.9,266.2z" class="st99"/><path d="M267.8,266.6c-12.5-7.2-33.1-7.2-45.6,0l-110.5,63.8c-12.5,7.2-12.5,19.1,0,26.3l110.5,63.8 c12.5,7.2,33.1,7.2,45.6,0l110.5-63.8c12.5-7.2,12.5-19.1,0-26.3L267.8,266.6z" class="st100"/><path d="M267.7,267c-12.5-7.2-32.9-7.2-45.3,0l-109.8,63.4c-12.5,7.2-12.5,19,0,26.2l109.8,63.4 c12.5,7.2,32.9,7.2,45.3,0l109.8-63.4c12.5-7.2,12.5-19,0-26.2L267.7,267z" class="st101"/><path d="M267.5,267.5c-12.4-7.2-32.7-7.2-45.1,0l-109.2,63.1c-12.4,7.2-12.4,18.9,0,26l109.2,63.1 c12.4,7.2,32.7,7.2,45.1,0l109.2-63.1c12.4-7.2,12.4-18.9,0-26L267.5,267.5z" class="st102"/><path d="M267.4,267.9c-12.3-7.1-32.5-7.1-44.8,0L114,330.6c-12.3,7.1-12.3,18.8,0,25.9l108.6,62.7 c12.3,7.1,32.5,7.1,44.8,0L376,356.5c12.3-7.1,12.3-18.8,0-25.9L267.4,267.9z" class="st103"/><path d="M267.3,268.4c-12.3-7.1-32.3-7.1-44.6,0l-107.9,62.3c-12.3,7.1-12.3,18.7,0,25.7l107.9,62.3 c12.3,7.1,32.3,7.1,44.6,0l107.9-62.3c12.3-7.1,12.3-18.6,0-25.7L267.3,268.4z" class="st104"/><path d="M267.1,268.8c-12.2-7-32.1-7-44.3,0l-107.3,62c-12.2,7-12.2,18.5,0,25.6l107.3,62c12.2,7,32.1,7,44.3,0 l107.3-62c12.2-7,12.2-18.5,0-25.6L267.1,268.8z" class="st105"/><path d="M267,269.2c-12.1-7-31.9-7-44,0l-106.7,61.6c-12.1,7-12.1,18.4,0,25.4L223,417.8c12.1,7,31.9,7,44,0 l106.7-61.6c12.1-7,12.1-18.4,0-25.4L267,269.2z" class="st106"/><path d="M266.9,269.7c-12-6.9-31.7-6.9-43.8,0l-106,61.2c-12,7-12,18.3,0,25.3l106,61.2c12,6.9,31.7,6.9,43.8,0 l106-61.2c12-6.9,12-18.3,0-25.3L266.9,269.7z" class="st107"/><path d="M266.8,270.1c-12-6.9-31.5-6.9-43.5,0L117.8,331c-12,6.9-12,18.2,0,25.1L223.2,417 c12,6.9,31.5,6.9,43.5,0l105.4-60.9c12-6.9,12-18.2,0-25.1L266.8,270.1z" class="st108"/><path d="M266.6,270.6c-11.9-6.9-31.4-6.9-43.3,0l-104.8,60.5c-11.9,6.9-11.9,18.1,0,25l104.8,60.5 c11.9,6.9,31.4,6.9,43.3,0L371.4,356c11.9-6.9,11.9-18.1,0-25L266.6,270.6z" class="st109"/><path d="M266.5,271c-11.8-6.8-31.2-6.8-43,0l-104.1,60.1c-11.8,6.8-11.8,18,0,24.8l104.1,60.1 c11.8,6.8,31.2,6.8,43,0L370.6,356c11.8-6.8,11.8-18,0-24.8L266.5,271z" class="st110"/><path d="M266.4,271.4c-11.8-6.8-31-6.8-42.7,0l-103.5,59.8c-11.8,6.8-11.8,17.9,0,24.7l103.5,59.8 c11.7,6.8,31,6.8,42.7,0l103.5-59.8c11.8-6.8,11.8-17.9,0-24.7L266.4,271.4z" class="st111"/><path d="M266.2,271.9c-11.7-6.7-30.8-6.7-42.5,0l-102.9,59.4c-11.7,6.7-11.7,17.8,0,24.5l102.9,59.4 c11.7,6.7,30.8,6.7,42.5,0l102.9-59.4c11.7-6.7,11.7-17.8,0-24.5L266.2,271.9z" class="st112"/><path d="M266.1,272.3c-11.6-6.7-30.6-6.7-42.2,0l-102.2,59c-11.6,6.7-11.6,17.7,0,24.4l102.2,59 c11.6,6.7,30.6,6.7,42.2,0l102.2-59c11.6-6.7,11.6-17.7,0-24.4L266.1,272.3z" class="st113"/><path d="M266,272.8c-11.5-6.7-30.4-6.7-41.9,0l-101.6,58.7c-11.5,6.7-11.5,17.6,0,24.2L224,414.3 c11.5,6.7,30.4,6.7,41.9,0l101.6-58.7c11.5-6.7,11.5-17.6,0-24.2L266,272.8z" class="st114"/><path d="M265.8,273.2c-11.5-6.6-30.2-6.6-41.7,0l-101,58.3c-11.5,6.6-11.5,17.4,0,24.1l101,58.3 c11.5,6.6,30.2,6.6,41.7,0l101-58.3c11.5-6.6,11.5-17.4,0-24.1L265.8,273.2z" class="st115"/><path d="M265.7,273.7c-11.4-6.6-30-6.6-41.4,0l-100.3,57.9c-11.4,6.6-11.4,17.3,0,23.9l100.3,57.9 c11.4,6.6,30,6.6,41.4,0l100.3-57.9c11.4-6.6,11.4-17.3,0-23.9L265.7,273.7z" class="st116"/><path id="XMLID_803_" d="M265.6,274.1c-11.3-6.5-29.8-6.5-41.2,0l-99.7,57.6c-11.3,6.5-11.3,17.2,0,23.8l99.7,57.6 c11.3,6.5,29.8,6.5,41.2,0l99.7-57.6c11.3-6.5,11.3-17.2,0-23.8L265.6,274.1z" class="st57"/></g><linearGradient id="XMLID_16_" x1="90.405" x2="399.596" y1="341.301" y2="341.301" gradientUnits="userSpaceOnUse"><stop offset="0" stop-color="#B4ACBF"/><stop offset=".515" stop-color="#D1C8DE"/><stop offset="1" stop-color="#F0E5FF"/></linearGradient><path id="XMLID_18439_" d="M238.8,252.1l-148.4,82v8.7c0,1.2,0.6,2.3,1.6,2.9l146.7,84.9c3.8,2.2,8.6,2.2,12.4,0 l146.5-84.7c1.2-0.7,1.9-1.9,1.9-3.2v-8.5l-148.4-82C247.4,249.9,242.6,249.9,238.8,252.1z" class="st117"/><linearGradient id="XMLID_17_" x1="90.405" x2="399.595" y1="334.071" y2="334.071" gradientUnits="userSpaceOnUse"><stop offset="0" stop-color="#F0E5FF"/><stop offset="1" stop-color="#FFF"/></linearGradient><path id="XMLID_18438_" d="M238.8,244.9L93.5,328.8c-4.1,2.4-4.1,8.3,0,10.6l145.3,83.9c3.8,2.2,8.6,2.2,12.4,0 l145.3-83.9c4.1-2.4,4.1-8.3,0-10.6l-145.3-83.9C247.4,242.6,242.6,242.6,238.8,244.9z" class="st118"/><linearGradient id="XMLID_18_" x1="140.95" x2="349.05" y1="334.071" y2="334.071" gradientUnits="userSpaceOnUse"><stop offset="0" stop-color="#B4ACBF"/><stop offset=".456" stop-color="#F0E5FF"/><stop offset=".486" stop-color="#F9F5FF"/><stop offset=".502" stop-color="#FFF"/></linearGradient><path id="XMLID_18437_" d="M240.7,272.2l-77.6,0.4l-22,60.9c-0.7,2.5,0.4,5.1,2.6,6.4l96.9,56 c2.7,1.5,5.9,1.5,8.6,0l96.9-56c2.2-1.3,3.3-3.9,2.6-6.4l-22-60.9l-77.6-0.4C246.6,270.7,243.4,270.7,240.7,272.2z" class="st119"/><linearGradient id="XMLID_19_" x1="148.869" x2="341.131" y1="329.54" y2="329.54" gradientUnits="userSpaceOnUse"><stop offset="0" stop-color="#1D073F"/><stop offset=".456" stop-color="#2F1359"/><stop offset=".473" stop-color="#371669"/><stop offset=".502" stop-color="#491E8C"/></linearGradient><path id="XMLID_18436_" d="M333,289.2l-84,48.5c-2.5,1.4-5.5,1.4-8,0l-84-48.5l-7.9,22c-0.6,2.3,0.3,4.7,2.4,5.9 l89.5,51.7c2.5,1.4,5.5,1.4,8,0l89.5-51.7c2.1-1.2,3.1-3.6,2.4-5.9L333,289.2z" class="st120"/><linearGradient id="XMLID_21_" x1="163.115" x2="326.885" y1="272.614" y2="272.614" gradientUnits="userSpaceOnUse"><stop offset="0" stop-color="#F0E5FF"/><stop offset="1" stop-color="#FFF"/></linearGradient><path id="XMLID_18435_" d="M241.7,225.4l-77,44.4c-2.2,1.3-2.2,4.4,0,5.6l77,44.4c2,1.2,4.5,1.2,6.6,0l77-44.4 c2.2-1.3,2.2-4.4,0-5.6l-77-44.4C246.3,224.2,243.7,224.2,241.7,225.4z" class="st121"/><linearGradient id="XMLID_23_" x1="177.84" x2="312.16" y1="272.614" y2="272.614" gradientUnits="userSpaceOnUse"><stop offset="0" stop-color="#2F1359"/><stop offset="1" stop-color="#491E8C"/></linearGradient><path id="XMLID_18434_" d="M242.3,233.9l-63.1,36.4c-1.8,1-1.8,3.6,0,4.6l63.1,36.4c1.7,1,3.7,1,5.4,0l63.1-36.4 c1.8-1,1.8-3.6,0-4.6l-63.1-36.4C246,232.9,244,232.9,242.3,233.9z" class="st122"/><linearGradient id="XMLID_24_" x1="192.078" x2="297.922" y1="272.614" y2="272.614" gradientUnits="userSpaceOnUse"><stop offset=".15" stop-color="#FF9800"/><stop offset="1" stop-color="#FFC107"/></linearGradient><path id="XMLID_18433_" d="M242.9,242.1l-49.7,28.7c-1.4,0.8-1.4,2.8,0,3.6l49.7,28.7c1.3,0.8,2.9,0.8,4.3,0 l49.7-28.7c1.4-0.8,1.4-2.8,0-3.6l-49.7-28.7C245.8,241.3,244.2,241.3,242.9,242.1z" class="st123"/><path id="XMLID_18432_" d="M193.1,272l49.7-28.7c1.3-0.8,2.9-0.8,4.3,0l49.7,28.7c0.5,0.3,0.8,0.7,1,1.2 c0.3-0.9-0.1-1.9-1-2.4l-49.7-28.7c-1.3-0.8-2.9-0.8-4.3,0l-49.7,28.7c-0.9,0.5-1.2,1.5-1,2.4C192.3,272.7,192.6,272.3,193.1,272 z" class="st124"/><path id="XMLID_18431_" d="M310.8,273.1l-63.1,36.4c-1.7,1-3.7,1-5.4,0l-63.1-36.4c-0.6-0.3-1-0.8-1.2-1.4 c-0.4,1.1,0,2.5,1.2,3.2l63.1,36.4c1.7,1,3.7,1,5.4,0l63.1-36.4c1.2-0.7,1.6-2.1,1.2-3.2C311.8,272.3,311.4,272.8,310.8,273.1z" class="st125"/><linearGradient id="XMLID_25_" x1="158.642" x2="186.465" y1="313.714" y2="313.714" gradientUnits="userSpaceOnUse"><stop offset="0" stop-color="#FFA744"/><stop offset=".163" stop-color="#FFA948"/><stop offset=".333" stop-color="#FFAF55"/><stop offset=".505" stop-color="#FFB969"/><stop offset=".679" stop-color="#FFC786"/><stop offset=".853" stop-color="#FFD9AB"/><stop offset="1" stop-color="#FFEBD1"/></linearGradient><path id="XMLID_18425_" d="M164.8,297.9l3.3,1.9l-6.2,17.4l-3.3-1.9L164.8,297.9z M164.1,318.4l3.3,1.9l4.8-13.5 l-3.3-1.9L164.1,318.4z M169.5,321.5l3.3,1.9l3.4-9.7l-3.3-1.9L169.5,321.5z M174.9,324.6l3.3,1.9l5.4-15.3l-3.3-1.9L174.9,324.6 z M180.3,327.7l3.3,1.9l2.8-7.7l-3.3-1.9L180.3,327.7z" class="st126"/><linearGradient id="XMLID_26_" x1="825.51" x2="864.026" y1="341.626" y2="341.626" gradientTransform="matrix(1 0 0 1 -573.5213 0)" gradientUnits="userSpaceOnUse"><stop offset="0" stop-color="#FFA744"/><stop offset=".163" stop-color="#FFA948"/><stop offset=".333" stop-color="#FFAF55"/><stop offset=".505" stop-color="#FFB969"/><stop offset=".679" stop-color="#FFC786"/><stop offset=".853" stop-color="#FFD9AB"/><stop offset="1" stop-color="#FFEBD1"/></linearGradient><path id="XMLID_18424_" d="M285.3,323.6c0,0.2-1.1,1.3-1.3,1.5c-0.4,0.5-0.9,1.1-1.3,1.6c-0.8,1-1,2.5-1.7,3.6 c-0.7,1.1-1.7,2.1-2.9,2.6c-0.8,0.3-1.8,0.4-2.7,0.4c-0.9,0.1-1.8,0.2-2.6,0.6c-1.6,0.9-1.8,3.3-2.3,4.9c-0.2,0.8-0.5,1.5-1,2.1 c-0.5,0.6-1.2,1-1.9,1.3c-0.7,0.3-1.3,0.6-2.1,0.8c-1.4,0.3-2.8,0.1-4.3,0.3c-2.1,0.2-4.1,1.4-5.4,3.1c-0.5,0.6-0.9,1.3-1.3,2 c-0.6,1.1-1.4,2.1-2.1,3.1c-0.7,0.8-0.6,1.2-0.6,2.2l2.1,5.9l36.4-21.4L285.3,323.6z" class="st127"/><polygon id="XMLID_18423_" points="196.4 316.2 209.1 323.4 208.2 325.8 195.6 318.5" class="st6"/><g id="XMLID_18404_"><polygon id="XMLID_18422_" points="194.1 322.4 206.5 329.6 206 330.8 193.7 323.6" class="st6"/><polygon id="XMLID_18421_" points="207.6 330.2 211 332.1 210.5 333.4 207.1 331.4" class="st60"/><polygon id="XMLID_18420_" points="214 337.5 215.5 338.4 215 339.7 213.6 338.8" class="st60"/><polygon id="XMLID_18419_" points="216.3 338.9 217.7 339.8 217.3 341 215.8 340.1" class="st60"/><polygon id="XMLID_18418_" points="193 325.4 199.6 329.2 199.2 330.4 192.6 326.6" class="st6"/><polygon id="XMLID_18417_" points="200.9 329.9 213.3 337.1 212.8 338.3 200.5 331.2" class="st6"/><polygon id="XMLID_18416_" points="206.6 336.8 218.9 343.9 218.5 345.2 206.1 338.1" class="st6"/><polygon id="XMLID_18415_" points="219.8 344.4 229.8 350.2 229.4 351.4 219.4 345.7" class="st6"/><polygon id="XMLID_18414_" points="218.6 340.3 230.9 347.4 230.5 348.6 218.1 341.5" class="st6"/><polygon id="XMLID_18413_" points="212.5 333.1 219.1 336.8 218.6 338.1 212.1 334.3" class="st6"/><polygon id="XMLID_18412_" points="220 337.5 231.9 344.3 231.5 345.5 219.6 338.7" class="st6"/><polygon id="XMLID_18411_" points="192 328.4 194.7 329.9 194.2 331.2 191.5 329.6" class="st6"/><polygon id="XMLID_18410_" points="202.8 334.6 205.5 336.2 205 337.4 202.3 335.9" class="st60"/><polygon id="XMLID_18409_" points="195.5 330.4 202 334.2 201.6 335.4 195 331.6" class="st60"/><polygon id="XMLID_18408_" points="212.4 343.7 219 347.5 218.5 348.7 212 345" class="st60"/><polygon id="XMLID_18407_" points="219.7 347.9 228.8 353.2 228.3 354.4 219.3 349.2" class="st60"/><polygon id="XMLID_18406_" points="190.9 331.3 197.4 335.1 197 336.4 190.4 332.6" class="st6"/><polygon id="XMLID_18405_" points="198.6 335.8 211.2 343 210.7 344.2 198.2 337" class="st6"/></g><g id="XMLID_18390_"><polygon id="XMLID_18403_" points="317.1 309.6 313.7 311.5 314.2 312.8 317.5 310.8" class="st60"/><polygon id="XMLID_18402_" points="310.7 316.9 309.2 317.8 309.7 319.1 311.1 318.2" class="st60"/><polygon id="XMLID_18401_" points="308.4 318.3 307 319.2 307.4 320.4 308.9 319.5" class="st60"/><polygon id="XMLID_18400_" points="318.2 312.5 311.4 316.5 311.9 317.7 318.7 313.7" class="st6"/><polygon id="XMLID_18399_" points="319.3 315.6 305.8 323.3 306.2 324.6 319.8 316.8" class="st6"/><polygon id="XMLID_18398_" points="304.9 323.9 294.9 329.6 295.3 330.8 305.3 325.1" class="st6"/><polygon id="XMLID_18397_" points="306.1 319.7 293.8 326.8 294.2 328 306.6 320.9" class="st6"/><polygon id="XMLID_18396_" points="312.2 312.5 305.6 316.2 306.1 317.5 312.6 313.7" class="st6"/><polygon id="XMLID_18395_" points="304.6 316.9 292.8 323.7 293.2 324.9 305.1 318.1" class="st6"/><polygon id="XMLID_18394_" points="312.9 322.8 309.8 324.6 310.3 325.8 313.3 324" class="st60"/><polygon id="XMLID_18393_" points="309.1 325 308.3 325.4 308.8 326.7 309.6 326.2" class="st60"/><polygon id="XMLID_18392_" points="307.3 326 295.9 332.6 296.4 333.8 307.7 327.2" class="st6"/><polygon id="XMLID_18391_" points="320.4 318.4 313.5 322.4 314 323.6 320.8 319.7" class="st6"/></g><g id="XMLID_18383_"><g id="XMLID_18386_"><path id="XMLID_18387_" d="M327.9,316.2c-0.8,0-1.6-0.2-2.3-0.6c-1.4-0.7-2.4-2.1-2.8-3.8 c-0.8-3.2,0.9-6.7,3.8-7.8c1.4-0.5,2.8-0.4,4.1,0.3c1.4,0.7,2.4,2.1,2.8,3.8l0,0c0.8,3.2-0.9,6.7-3.8,7.8 C329.1,316.1,328.5,316.2,327.9,316.2z M328.3,305.9c-0.3,0-0.7,0.1-1,0.2c-1.9,0.7-3,3-2.4,5.2c0.3,1.1,0.9,2,1.7,2.4 c0.7,0.4,1.5,0.4,2.3,0.1c1.9-0.7,3-3,2.4-5.2l0,0c-0.3-1.1-0.9-2-1.7-2.4C329.2,306,328.8,305.9,328.3,305.9z" class="st128"/></g><g id="XMLID_18384_"><linearGradient id="XMLID_27_" x1="322.764" x2="333.659" y1="309.962" y2="309.962" gradientUnits="userSpaceOnUse"><stop offset="0" stop-color="#FFA744"/><stop offset=".163" stop-color="#FFA948"/><stop offset=".333" stop-color="#FFAF55"/><stop offset=".505" stop-color="#FFB969"/><stop offset=".679" stop-color="#FFC786"/><stop offset=".853" stop-color="#FFD9AB"/><stop offset="1" stop-color="#FFEBD1"/></linearGradient><path id="XMLID_18385_" d="M327.9,316.2c-0.8,0-1.6-0.2-2.3-0.6c-1.4-0.7-2.4-2.1-2.8-3.8 c-0.1-0.6,0.2-1.2,0.8-1.3c0.6-0.1,1.2,0.2,1.3,0.8c0.3,1.1,0.9,2,1.7,2.4c0.7,0.4,1.5,0.4,2.3,0.1c1.9-0.7,3-3,2.4-5.2 c-0.3-1.1-0.9-2-1.7-2.4c-0.7-0.4-1.5-0.4-2.3-0.1c-0.6,0.2-1.2-0.1-1.4-0.6c-0.2-0.6,0.1-1.2,0.6-1.4c1.4-0.5,2.8-0.4,4.1,0.3 c1.4,0.7,2.4,2.1,2.8,3.8c0.8,3.2-0.9,6.7-3.8,7.8C329.1,316.1,328.5,316.2,327.9,316.2z" class="st129"/></g></g><g id="XMLID_18195_"><g><g><defs><path id="XMLID_52_" d="M242.9,242.1l-49.7,28.7c-1.4,0.8-1.4,2.8,0,3.6l49.7,28.7c1.3,0.8,2.9,0.8,4.3,0l49.7-28.7 c1.4-0.8,1.4-2.8,0-3.6l-49.7-28.7C245.8,241.3,244.2,241.3,242.9,242.1z"/></defs><clipPath id="XMLID_28_"><use overflow="visible" xlink:href="#XMLID_52_"/></clipPath></g></g><g><path id="XMLID_51_" d="M242.9,242.1l-49.7,28.7c-1.4,0.8-1.4,2.8,0,3.6l49.7,28.7c1.3,0.8,2.9,0.8,4.3,0 l49.7-28.7c1.4-0.8,1.4-2.8,0-3.6l-49.7-28.7C245.8,241.3,244.2,241.3,242.9,242.1z" class="st125"/><g><polygon points="245 104 244.2 106.6 244.2 183.4 245 184.2 280.6 163.1" class="st130"/><polygon points="245 104 209.4 163.1 245 184.2 245 146.9" class="st131"/><polygon points="245 190.9 244.6 191.4 244.6 218.8 245 220.1 280.6 169.9" class="st132"/><polygon points="245 220.1 245 190.9 209.4 169.9" class="st131"/><polygon points="245 184.2 280.6 163.1 245 146.9" class="st133"/><polygon points="209.4 163.1 245 184.2 245 146.9" class="st134"/></g><g id="XMLID_49_"><g><linearGradient id="XMLID_29_" x1="245" x2="245" y1="303.724" y2="150.087" gradientUnits="userSpaceOnUse"><stop offset="0" stop-color="#FFA744" stop-opacity=".7"/><stop offset=".047" stop-color="#FDAE59" stop-opacity=".667"/><stop offset=".161" stop-color="#FABC85" stop-opacity=".587"/><stop offset=".28" stop-color="#F7C9AA" stop-opacity=".504"/><stop offset=".403" stop-color="#F4D3C9" stop-opacity=".418"/><stop offset=".531" stop-color="#F2DBE1" stop-opacity=".328"/><stop offset=".667" stop-color="#F1E1F2" stop-opacity=".233"/><stop offset=".815" stop-color="#F0E4FC" stop-opacity=".129"/><stop offset="1" stop-color="#F0E5FF" stop-opacity="0"/></linearGradient><path id="XMLID_50_" d="M192.1,150.1c0,0,0,121.8,0,122.5c0,0.7,0.3,1.4,1.1,1.8l49.7,28.7 c1.3,0.8,2.9,0.8,4.3,0l49.7-28.7c0.7-0.4,1.1-1.1,1.1-1.8c0-0.7,0-122.5,0-122.5H192.1z" class="st135"/></g></g><g><defs><path id="XMLID_47_" d="M242.9,242.1l-49.7,28.7c-1.4,0.8-1.4,2.8,0,3.6l49.7,28.7c1.3,0.8,2.9,0.8,4.3,0l49.7-28.7 c1.4-0.8,1.4-2.8,0-3.6l-49.7-28.7C245.8,241.3,244.2,241.3,242.9,242.1z"/></defs><clipPath id="XMLID_30_"><use overflow="visible" xlink:href="#XMLID_47_"/></clipPath><radialGradient id="XMLID_31_" cx="245" cy="274.692" r="43.408" gradientUnits="userSpaceOnUse"><stop offset="0" stop-color="#FFF"/><stop offset="1" stop-color="#FFA744"/></radialGradient><path id="XMLID_48_" d="M242.9,244.2l-49.7,28.7c-1.4,0.8-1.4,2.8,0,3.6l49.7,28.7c1.3,0.8,2.9,0.8,4.3,0 l49.7-28.7c1.4-0.8,1.4-2.8,0-3.6l-49.7-28.7C245.8,243.4,244.2,243.4,242.9,244.2z" class="st136"/></g></g><g><g><defs><path id="XMLID_42_" d="M242.9,242.1l-49.7,28.7c-1.4,0.8-1.4,2.8,0,3.6l49.7,28.7c1.3,0.8,2.9,0.8,4.3,0l49.7-28.7 c1.4-0.8,1.4-2.8,0-3.6l-49.7-28.7C245.8,241.3,244.2,241.3,242.9,242.1z"/></defs><clipPath id="XMLID_32_"><use overflow="visible" xlink:href="#XMLID_42_"/></clipPath></g></g></g><g><linearGradient id="XMLID_33_" x1="245" x2="245" y1="283.442" y2="249.579" gradientUnits="userSpaceOnUse"><stop offset="0" stop-color="#FFF" stop-opacity=".7"/><stop offset="1" stop-color="#F0E5FF" stop-opacity="0"/></linearGradient><path id="XMLID_18194_" d="M193.1,250c-1.4,0.8-1.4,2.8,0,3.6l49.7,28.7c1.3,0.8,2.9,0.8,4.3,0l49.7-28.7 c1.4-0.8,1.4-2.8,0-3.6" class="st137"/><linearGradient id="XMLID_34_" x1="245" x2="245" y1="262.659" y2="228.797" gradientUnits="userSpaceOnUse"><stop offset="0" stop-color="#FFF" stop-opacity=".7"/><stop offset="1" stop-color="#F0E5FF" stop-opacity="0"/></linearGradient><path id="XMLID_18193_" d="M193.1,229.2c-1.4,0.8-1.4,2.8,0,3.6l49.7,28.7c1.3,0.8,2.9,0.8,4.3,0l49.7-28.7 c1.4-0.8,1.4-2.8,0-3.6" class="st138"/><linearGradient id="XMLID_35_" x1="245" x2="245" y1="241.877" y2="208.014" gradientUnits="userSpaceOnUse"><stop offset="0" stop-color="#FFF" stop-opacity=".7"/><stop offset="1" stop-color="#F0E5FF" stop-opacity="0"/></linearGradient><path id="XMLID_18189_" d="M193.1,208.4c-1.4,0.8-1.4,2.8,0,3.6l49.7,28.7c1.3,0.8,2.9,0.8,4.3,0l49.7-28.7 c1.4-0.8,1.4-2.8,0-3.6" class="st139"/><linearGradient id="XMLID_36_" x1="245" x2="245" y1="221.095" y2="187.232" gradientUnits="userSpaceOnUse"><stop offset="0" stop-color="#FFF" stop-opacity=".7"/><stop offset="1" stop-color="#F0E5FF" stop-opacity="0"/></linearGradient><path id="XMLID_18188_" d="M193.1,187.7c-1.4,0.8-1.4,2.8,0,3.6l49.7,28.7c1.3,0.8,2.9,0.8,4.3,0l49.7-28.7 c1.4-0.8,1.4-2.8,0-3.6" class="st140"/><linearGradient id="XMLID_37_" x1="245" x2="245" y1="200.312" y2="166.449" gradientUnits="userSpaceOnUse"><stop offset="0" stop-color="#FFF" stop-opacity=".7"/><stop offset="1" stop-color="#F0E5FF" stop-opacity="0"/></linearGradient><path id="XMLID_18183_" d="M193.1,166.9c-1.4,0.8-1.4,2.8,0,3.6l49.7,28.7c1.3,0.8,2.9,0.8,4.3,0l49.7-28.7 c1.4-0.8,1.4-2.8,0-3.6" class="st141"/></g></g></g></g></svg>