<?xml version="1.0" encoding="utf-8"?>
<!-- Generator: Adobe Illustrator 21.0.0, SVG Export Plug-In . SVG Version: 6.00 Build 0)  -->
<svg version="1.1" id="Layer_1" xmlns="http://www.w3.org/2000/svg" xmlns:xlink="http://www.w3.org/1999/xlink" x="0px" y="0px"
	 viewBox="0 0 490 490" style="enable-background:new 0 0 490 490;" xml:space="preserve">
<style type="text/css">
	.st0{fill:none;stroke:url(#SVGID_1_);stroke-width:2;stroke-linecap:round;stroke-linejoin:round;stroke-miterlimit:10;}
	.st1{fill:none;stroke:url(#SVGID_2_);stroke-width:2;stroke-linecap:round;stroke-linejoin:round;stroke-miterlimit:10;}
	.st2{fill:none;stroke:url(#SVGID_3_);stroke-width:2;stroke-linecap:round;stroke-linejoin:round;stroke-miterlimit:10;}
	.st3{fill:none;stroke:url(#SVGID_4_);stroke-width:2;stroke-linecap:round;stroke-linejoin:round;stroke-miterlimit:10;}
	.st4{fill:url(#XMLID_10_);}
	.st5{fill:url(#XMLID_11_);}
	.st6{fill:#7E44D8;}
	.st7{opacity:0.5;fill:url(#SVGID_5_);}
	.st8{opacity:0.5;fill:url(#SVGID_6_);}
	.st9{fill:none;stroke:#FFA744;stroke-miterlimit:10;}
	.st10{fill:none;stroke:#24D84B;stroke-miterlimit:10;}
	.st11{opacity:0.75;}
	.st12{fill:#8CEDA1;}
	.st13{fill:#FFFFFF;}
	.st14{fill:#FFD4A3;}
	.st15{opacity:5.000000e-02;}
	.st16{opacity:0;fill:#120426;}
	.st17{opacity:2.439000e-02;fill:#120426;}
	.st18{opacity:4.878000e-02;fill:#120426;}
	.st19{opacity:7.317100e-02;fill:#120426;}
	.st20{opacity:9.756100e-02;fill:#120426;}
	.st21{opacity:0.122;fill:#120426;}
	.st22{opacity:0.1463;fill:#120426;}
	.st23{opacity:0.1707;fill:#120426;}
	.st24{opacity:0.1951;fill:#120426;}
	.st25{opacity:0.2195;fill:#120426;}
	.st26{opacity:0.2439;fill:#120426;}
	.st27{opacity:0.2683;fill:#120426;}
	.st28{opacity:0.2927;fill:#120426;}
	.st29{opacity:0.3171;fill:#120426;}
	.st30{opacity:0.3415;fill:#120426;}
	.st31{opacity:0.3659;fill:#120426;}
	.st32{opacity:0.3902;fill:#120426;}
	.st33{opacity:0.4146;fill:#120426;}
	.st34{opacity:0.439;fill:#120426;}
	.st35{opacity:0.4634;fill:#120426;}
	.st36{opacity:0.4878;fill:#120426;}
	.st37{opacity:0.5122;fill:#120426;}
	.st38{opacity:0.5366;fill:#120426;}
	.st39{opacity:0.561;fill:#120426;}
	.st40{opacity:0.5854;fill:#120426;}
	.st41{opacity:0.6098;fill:#120426;}
	.st42{opacity:0.6341;fill:#120426;}
	.st43{opacity:0.6585;fill:#120426;}
	.st44{opacity:0.6829;fill:#120426;}
	.st45{opacity:0.7073;fill:#120426;}
	.st46{opacity:0.7317;fill:#120426;}
	.st47{opacity:0.7561;fill:#120426;}
	.st48{opacity:0.7805;fill:#120426;}
	.st49{opacity:0.8049;fill:#120426;}
	.st50{opacity:0.8293;fill:#120426;}
	.st51{opacity:0.8537;fill:#120426;}
	.st52{opacity:0.878;fill:#120426;}
	.st53{opacity:0.9024;fill:#120426;}
	.st54{opacity:0.9268;fill:#120426;}
	.st55{opacity:0.9512;fill:#120426;}
	.st56{opacity:0.9756;fill:#120426;}
	.st57{fill:#120426;}
	.st58{fill:url(#XMLID_12_);}
	.st59{fill:url(#XMLID_13_);}
	.st60{fill:#FFA744;}
	.st61{fill:#24D84B;}
	.st62{opacity:0.5;}
	.st63{fill:url(#XMLID_14_);}
	.st64{fill:url(#XMLID_15_);}
	.st65{opacity:0;fill:#FFFFFF;}
	.st66{opacity:1.960800e-02;fill:#FBFBFC;}
	.st67{opacity:3.921600e-02;fill:#F8F8F9;}
	.st68{opacity:5.882400e-02;fill:#F4F4F6;}
	.st69{opacity:7.843100e-02;fill:#F1F1F3;}
	.st70{opacity:9.803900e-02;fill:#EDEDF0;}
	.st71{opacity:0.1176;fill:#E9E9ED;}
	.st72{opacity:0.1373;fill:#E6E6EB;}
	.st73{opacity:0.1569;fill:#E2E2E8;}
	.st74{opacity:0.1765;fill:#DFDFE5;}
	.st75{opacity:0.1961;fill:#DBDBE2;}
	.st76{opacity:0.2157;fill:#D8D8DF;}
	.st77{opacity:0.2353;fill:#D4D4DC;}
	.st78{opacity:0.2549;fill:#D0D0D9;}
	.st79{opacity:0.2745;fill:#CDCDD6;}
	.st80{opacity:0.2941;fill:#C9C9D3;}
	.st81{opacity:0.3137;fill:#C6C6D0;}
	.st82{opacity:0.3333;fill:#C2C2CD;}
	.st83{opacity:0.3529;fill:#BEBECA;}
	.st84{opacity:0.3725;fill:#BBBBC7;}
	.st85{opacity:0.3922;fill:#B7B7C5;}
	.st86{opacity:0.4118;fill:#B4B4C2;}
	.st87{opacity:0.4314;fill:#B0B0BF;}
	.st88{opacity:0.451;fill:#ACACBC;}
	.st89{opacity:0.4706;fill:#A9A9B9;}
	.st90{opacity:0.4902;fill:#A5A5B6;}
	.st91{opacity:0.5098;fill:#A2A2B3;}
	.st92{opacity:0.5294;fill:#9E9EB0;}
	.st93{opacity:0.549;fill:#9B9BAD;}
	.st94{opacity:0.5686;fill:#9797AA;}
	.st95{opacity:0.5882;fill:#9393A7;}
	.st96{opacity:0.6078;fill:#9090A4;}
	.st97{opacity:0.6275;fill:#8C8CA2;}
	.st98{opacity:0.6471;fill:#89899F;}
	.st99{opacity:0.6667;fill:#85859C;}
	.st100{opacity:0.6863;fill:#818199;}
	.st101{opacity:0.7059;fill:#7E7E96;}
	.st102{opacity:0.7255;fill:#7A7A93;}
	.st103{opacity:0.7451;fill:#777790;}
	.st104{opacity:0.7647;fill:#73738D;}
	.st105{opacity:0.7843;fill:#6F6F8A;}
	.st106{opacity:0.8039;fill:#6C6C87;}
	.st107{opacity:0.8235;fill:#686884;}
	.st108{opacity:0.8431;fill:#656581;}
	.st109{opacity:0.8627;fill:#61617E;}
	.st110{opacity:0.8824;fill:#5E5E7C;}
	.st111{opacity:0.902;fill:#5A5A79;}
	.st112{opacity:0.9216;fill:#565676;}
	.st113{opacity:0.9412;fill:#535373;}
	.st114{opacity:0.9608;fill:#4F4F70;}
	.st115{opacity:0.9804;fill:#4C4C6D;}
	.st116{fill:#48486A;}
	.st117{fill:url(#XMLID_16_);}
	.st118{fill:url(#XMLID_17_);}
	.st119{fill:url(#XMLID_18_);}
	.st120{fill:url(#XMLID_19_);}
	.st121{fill:url(#XMLID_21_);}
	.st122{fill:url(#XMLID_23_);}
	.st123{fill:url(#XMLID_24_);}
	.st124{fill:#1D073F;}
	.st125{fill:url(#XMLID_25_);}
	.st126{fill:url(#XMLID_26_);}
	.st127{fill:#6134A6;}
	.st128{fill:url(#XMLID_27_);}
	.st129{fill:#343434;}
	.st130{fill:#8C8C8C;}
	.st131{fill:#3C3C3B;}
	.st132{fill:#141414;}
	.st133{fill:#393939;}
	.st134{fill:url(#XMLID_29_);}
	.st135{clip-path:url(#XMLID_30_);fill:url(#XMLID_31_);}
	.st136{fill:none;stroke:url(#XMLID_33_);stroke-miterlimit:10;}
	.st137{opacity:0.8;fill:none;stroke:url(#XMLID_34_);stroke-miterlimit:10;}
	.st138{opacity:0.6;fill:none;stroke:url(#XMLID_35_);stroke-miterlimit:10;}
	.st139{opacity:0.4;fill:none;stroke:url(#XMLID_36_);stroke-miterlimit:10;}
	.st140{opacity:0.2;fill:none;stroke:url(#XMLID_37_);stroke-miterlimit:10;}
</style>
<g>
	<g>
		<g>
			
				<linearGradient id="SVGID_1_" gradientUnits="userSpaceOnUse" x1="-523.4514" y1="250.6828" x2="-429.8766" y2="250.6828" gradientTransform="matrix(-1 0 0 1 -119.6435 0)">
				<stop  offset="2.123200e-02" style="stop-color:#FFA744"/>
				<stop  offset="0.291" style="stop-color:#FBA443"/>
				<stop  offset="0.5706" style="stop-color:#EE9C3F"/>
				<stop  offset="0.8536" style="stop-color:#DA8F3A"/>
				<stop  offset="1" style="stop-color:#CC8636"/>
			</linearGradient>
			<polyline class="st0" points="311.2,287.3 402.8,234.4 402.8,214.1 			"/>
			
				<linearGradient id="SVGID_2_" gradientUnits="userSpaceOnUse" x1="-539.4615" y1="258.6879" x2="-445.8866" y2="258.6879" gradientTransform="matrix(-1 0 0 1 -119.6435 0)">
				<stop  offset="2.123200e-02" style="stop-color:#FFA744"/>
				<stop  offset="0.291" style="stop-color:#FBA443"/>
				<stop  offset="0.5706" style="stop-color:#EE9C3F"/>
				<stop  offset="0.8536" style="stop-color:#DA8F3A"/>
				<stop  offset="1" style="stop-color:#CC8636"/>
			</linearGradient>
			<polyline class="st1" points="327.2,295.3 418.8,242.4 418.8,222.1 			"/>
			<linearGradient id="SVGID_3_" gradientUnits="userSpaceOnUse" x1="70.2154" y1="258.865" x2="164.4041" y2="258.865">
				<stop  offset="0" style="stop-color:#CC8636"/>
				<stop  offset="0.1464" style="stop-color:#DA8F3A"/>
				<stop  offset="0.4294" style="stop-color:#EE9C3F"/>
				<stop  offset="0.709" style="stop-color:#FBA443"/>
				<stop  offset="0.9788" style="stop-color:#FFA744"/>
			</linearGradient>
			<polyline class="st2" points="163.4,295.6 71.2,242.4 71.2,222.1 			"/>
			<linearGradient id="SVGID_4_" gradientUnits="userSpaceOnUse" x1="86.2255" y1="250.86" x2="180.4142" y2="250.86">
				<stop  offset="0" style="stop-color:#CC8636"/>
				<stop  offset="0.1464" style="stop-color:#DA8F3A"/>
				<stop  offset="0.4294" style="stop-color:#EE9C3F"/>
				<stop  offset="0.709" style="stop-color:#FBA443"/>
				<stop  offset="0.9788" style="stop-color:#FFA744"/>
			</linearGradient>
			<polyline class="st3" points="179.4,287.6 87.2,234.4 87.2,214.1 			"/>
			<g>
				<g id="XMLID_18162_">
					<g id="XMLID_26034_">
						
							<linearGradient id="XMLID_10_" gradientUnits="userSpaceOnUse" x1="42.7403" y1="259.187" x2="206.8024" y2="48.6924" gradientTransform="matrix(1 0 0 1 -46.9386 0)">
							<stop  offset="0" style="stop-color:#1D073F"/>
							<stop  offset="1" style="stop-color:#120426"/>
						</linearGradient>
						<path id="XMLID_26050_" class="st4" d="M155.8,48.4L155.8,48.4c1.4,1.3,2.2,3.1,2.2,4.9v111.6c0,4.1-2.9,9.1-6.4,11.2
							L10.2,258c-1.8,1-4.4,1.4-6.3,0.5l-1-0.5c-1.8-0.9-2.9-2.7-2.9-4.6l0-113.5c0-4.1,2.9-9.1,6.4-11.2l140.1-81.3
							C149.6,45.7,153.3,46.1,155.8,48.4z"/>
						
							<linearGradient id="XMLID_11_" gradientUnits="userSpaceOnUse" x1="161.8465" y1="153.6962" x2="316.1285" y2="153.6962" gradientTransform="matrix(-1 0 0 1 319.8683 0)">
							<stop  offset="0" style="stop-color:#491E8C"/>
							<stop  offset="1" style="stop-color:#2F1359"/>
						</linearGradient>
						<path id="XMLID_26045_" class="st5" d="M151.6,49.3c3.5-2,6.4-0.4,6.4,3.7v112.2c0,4.1-2.9,9.1-6.4,11.2L10.2,258.1
							c-3.5,2-6.4,0.4-6.4-3.7V142.1c0-4.1,2.9-9.1,6.4-11.2L151.6,49.3z"/>
						<g>
							<g id="XMLID_18167_">
								<g id="XMLID_18187_">
									<polygon id="XMLID_18197_" class="st6" points="41.7,221.7 40.7,222.4 40.7,130.9 41.7,130.4 									"/>
								</g>
								<g id="XMLID_18185_">
									<polygon id="XMLID_18186_" class="st6" points="71.3,204.6 70.3,205.3 70.3,113.9 71.3,113.3 									"/>
								</g>
								<g id="XMLID_18182_">
									<polygon id="XMLID_18184_" class="st6" points="100.8,188 99.8,188.1 99.8,96.8 100.8,96.2 									"/>
								</g>
								<g id="XMLID_18180_">
									<polygon id="XMLID_18181_" class="st6" points="130.4,170.9 129.4,171.5 129.4,79.7 130.4,79.2 									"/>
								</g>
								<linearGradient id="SVGID_5_" gradientUnits="userSpaceOnUse" x1="12.1544" y1="158.1558" x2="149.1443" y2="158.1558">
									<stop  offset="0" style="stop-color:#FFA744"/>
									<stop  offset="0.1634" style="stop-color:#FFA948"/>
									<stop  offset="0.3328" style="stop-color:#FFAF55"/>
									<stop  offset="0.5049" style="stop-color:#FFB969"/>
									<stop  offset="0.6789" style="stop-color:#FFC786"/>
									<stop  offset="0.8526" style="stop-color:#FFD9AB"/>
									<stop  offset="1" style="stop-color:#FFEBD1"/>
								</linearGradient>
								<polygon class="st7" points="149.1,77.5 137.7,97.6 126.3,105.3 117.4,142.2 104.1,130.4 86.5,124.3 74.7,149.4 63.3,149.6 
									56.7,159.3 29.8,146.9 12.2,171.5 12.2,238.9 149.1,159.3 								"/>
								<linearGradient id="SVGID_6_" gradientUnits="userSpaceOnUse" x1="11.6588" y1="191.9347" x2="149.1443" y2="191.9347">
									<stop  offset="0" style="stop-color:#24D84B"/>
									<stop  offset="0.1521" style="stop-color:#28D94E"/>
									<stop  offset="0.3098" style="stop-color:#35DB59"/>
									<stop  offset="0.47" style="stop-color:#49DF6A"/>
									<stop  offset="0.6321" style="stop-color:#66E582"/>
									<stop  offset="0.7955" style="stop-color:#8CECA0"/>
									<stop  offset="0.9579" style="stop-color:#B9F5C5"/>
									<stop  offset="1" style="stop-color:#C6F7D0"/>
								</linearGradient>
								<polygon class="st8" points="149.1,145 123.2,146.9 111.8,168.3 100.3,166.1 92.1,174.1 75.1,171.5 57.9,181.4 56.8,199.2 
									25.9,178.7 11.7,185.2 11.7,238.9 149.1,159.3 								"/>
								<polyline class="st9" points="12.2,171.5 29.8,146.9 56.7,159.3 63.3,149.6 74.7,149.4 86.5,124.3 104.1,130.4 117.4,142.2 
									126.3,105.3 137.7,97.6 149.1,77.5 								"/>
								<polyline class="st10" points="149.1,145 123.2,146.9 111.8,168.3 100.3,166.1 92.1,174.1 75.1,171.5 57.9,181.4 
									56.8,199.2 25.9,178.7 11.7,185.2 								"/>
							</g>
							<g id="XMLID_18200_">
								<polygon id="XMLID_18202_" class="st6" points="149.1,160.5 11.2,240.1 11.2,238.9 149.1,159.3 								"/>
							</g>
							<g id="XMLID_18198_">
								<polygon id="XMLID_18199_" class="st6" points="12.2,238.9 11.2,240 11.2,148 12.2,147.4 								"/>
							</g>
							<g>
								<g id="XMLID_1423_" class="st11">
									<path class="st12" d="M25.8,173.1c2.8-1.6,5.1-0.3,5.1,3c0,3.2-2.3,7.2-5.1,8.9c-2.8,1.6-5.1,0.3-5.1-3
										C20.7,178.7,23,174.8,25.8,173.1z"/>
								</g>
								<g id="XMLID_1425_">
									<path class="st13" d="M25.8,177.5c0.7-0.4,1.3-0.1,1.3,0.8c0,0.8-0.6,1.9-1.3,2.3c-0.7,0.4-1.3,0.1-1.3-0.8
										C24.5,179,25.1,177.9,25.8,177.5z"/>
								</g>
							</g>
							<g>
								<g id="XMLID_1621_" class="st11">
									<path class="st12" d="M92.3,168.3c2.8-1.6,5.1-0.3,5.1,3c0,3.2-2.3,7.2-5.1,8.9c-2.8,1.6-5.1,0.3-5.1-3
										C87.2,173.9,89.5,169.9,92.3,168.3z"/>
								</g>
								<g id="XMLID_1433_">
									<path class="st13" d="M92.3,172.6c0.7-0.4,1.3-0.1,1.3,0.8s-0.6,1.9-1.3,2.3c-0.7,0.4-1.3,0.1-1.3-0.8
										C91,174.1,91.6,173.1,92.3,172.6z"/>
								</g>
							</g>
							<g>
								<g id="XMLID_1623_" class="st11">
									<path class="st14" d="M56.7,153.4c2.8-1.6,5.1-0.3,5.1,3c0,3.2-2.3,7.2-5.1,8.9c-2.8,1.6-5.1,0.3-5.1-3
										C51.6,159,53.9,155,56.7,153.4z"/>
								</g>
								<g id="XMLID_1424_">
									<path class="st13" d="M56.7,157.8c0.7-0.4,1.3-0.1,1.3,0.8c0,0.8-0.6,1.9-1.3,2.3c-0.7,0.4-1.3,0.1-1.3-0.8
										C55.4,159.2,55.9,158.2,56.7,157.8z"/>
								</g>
							</g>
							<g>
								<g id="XMLID_1625_" class="st11">
									<path class="st14" d="M126.3,99.6c2.8-1.6,5.1-0.3,5.1,3c0,3.2-2.3,7.2-5.1,8.9c-2.8,1.6-5.1,0.3-5.1-3
										C121.2,105.2,123.5,101.2,126.3,99.6z"/>
								</g>
								<g id="XMLID_1422_">
									<path class="st13" d="M126.3,104c0.7-0.4,1.3-0.1,1.3,0.8c0,0.8-0.6,1.9-1.3,2.3c-0.7,0.4-1.3,0.1-1.3-0.8
										C125,105.4,125.6,104.4,126.3,104z"/>
								</g>
							</g>
						</g>
					</g>
				</g>
				<g class="st15">
					<path id="XMLID_18159_" class="st16" d="M4.1,277.2l149.7-86.9c1.9-1.1,4.2,0.3,4.2,2.4v10.9c0,3-1.6,5.7-4.1,7.2L4.2,297.7
						c-1.9,1.1-4.2-0.3-4.2-2.4v-10.9C0,281.4,1.6,278.7,4.1,277.2z"/>
					<path class="st17" d="M4.1,277.2l149.7-86.9c1.9-1.1,4.2,0.3,4.2,2.4v10.6c0,2.9-1.6,5.6-4.1,7.1l-149.8,87
						C2.3,298.5,0,297.2,0,295l0-10.6C0,281.4,1.6,278.7,4.1,277.2z"/>
					<path class="st18" d="M4.1,277.2l149.7-86.9c1.9-1.1,4.2,0.3,4.2,2.4v10.4c0,2.9-1.5,5.5-4,7L4.1,297.1
						c-1.8,1.1-4.1-0.3-4.1-2.3l0-10.4C0,281.4,1.6,278.7,4.1,277.2z"/>
					<path class="st19" d="M4.1,277.2l149.7-86.9c1.9-1.1,4.2,0.3,4.2,2.4v10.1c0,2.8-1.5,5.4-3.9,6.8L4,296.8c-1.8,1-4-0.3-4-2.3
						v-10.1C0,281.4,1.6,278.7,4.1,277.2z"/>
					<path class="st20" d="M4.1,277.2l149.7-86.9c1.9-1.1,4.2,0.3,4.2,2.4v9.8c0,2.8-1.5,5.3-3.9,6.7L3.9,296.5
						c-1.7,1-3.9-0.2-3.9-2.3l0-9.8C0,281.4,1.6,278.7,4.1,277.2z"/>
					<path class="st21" d="M4.1,277.2l149.7-86.9c1.9-1.1,4.2,0.3,4.2,2.4v9.5c0,2.7-1.5,5.3-3.8,6.6L3.9,296.1
						c-1.7,1-3.9-0.2-3.9-2.2l0-9.5C0,281.4,1.6,278.7,4.1,277.2z"/>
					<path class="st22" d="M4.1,277.2l149.7-86.9c1.9-1.1,4.2,0.3,4.2,2.4v9.2c0,2.7-1.4,5.2-3.8,6.5L3.8,295.8
						c-1.7,1-3.8-0.2-3.8-2.2v-9.2C0,281.4,1.6,278.7,4.1,277.2z"/>
					<path class="st23" d="M4.1,277.2l149.7-86.9c1.9-1.1,4.2,0.3,4.2,2.4v8.9c0,2.6-1.4,5.1-3.7,6.4L3.7,295.5
						c-1.7,1-3.7-0.2-3.7-2.1l0-9C0,281.4,1.6,278.7,4.1,277.2z"/>
					<path class="st24" d="M4.1,277.2l149.7-86.9c1.9-1.1,4.2,0.3,4.2,2.4v8.6c0,2.6-1.4,5-3.6,6.3L3.7,295.2C2,296.1,0,295,0,293.1
						l0-8.7C0,281.4,1.6,278.7,4.1,277.2z"/>
					<path class="st25" d="M4.1,277.2l149.7-86.9c1.9-1.1,4.2,0.3,4.2,2.4v8.3c0,2.5-1.4,4.9-3.6,6.2L3.6,294.9
						C2,295.8,0,294.6,0,292.8v-8.4C0,281.4,1.6,278.7,4.1,277.2z"/>
					<path class="st26" d="M4.1,277.2l149.7-86.9c1.9-1.1,4.2,0.3,4.2,2.4v8.1c0,2.5-1.3,4.8-3.5,6.1l-151,87.7
						c-1.6,0.9-3.5-0.2-3.5-2l0-8.1C0,281.4,1.6,278.7,4.1,277.2z"/>
					<path class="st27" d="M4.1,277.2l149.7-86.9c1.9-1.1,4.2,0.3,4.2,2.4v7.8c0,2.5-1.3,4.7-3.4,6L3.5,294.2
						c-1.5,0.9-3.5-0.2-3.5-2l0-7.9C0,281.4,1.6,278.7,4.1,277.2z"/>
					<path class="st28" d="M4.1,277.2l149.7-86.9c1.9-1.1,4.2,0.3,4.2,2.4v7.5c0,2.4-1.3,4.6-3.4,5.9L3.4,293.9
						C1.9,294.8,0,293.7,0,292l0-7.6C0,281.4,1.6,278.7,4.1,277.2z"/>
					<path class="st29" d="M4.1,277.2l149.7-86.9c1.9-1.1,4.2,0.3,4.2,2.4v7.2c0,2.4-1.3,4.6-3.3,5.7L3.3,293.6
						c-1.5,0.9-3.3-0.2-3.3-1.9l0-7.3C0,281.4,1.6,278.7,4.1,277.2z"/>
					<path class="st30" d="M4.1,277.2l149.7-86.9c1.9-1.1,4.2,0.3,4.2,2.4v6.9c0,2.3-1.2,4.5-3.2,5.6l-151.5,88
						c-1.4,0.8-3.2-0.2-3.2-1.9l0-7C0,281.4,1.6,278.7,4.1,277.2z"/>
					<path class="st31" d="M4.1,277.2l149.7-86.9c1.9-1.1,4.2,0.3,4.2,2.4v6.6c0,2.3-1.2,4.4-3.2,5.5L3.2,292.9
						c-1.4,0.8-3.2-0.2-3.2-1.8l0-6.7C0,281.4,1.6,278.7,4.1,277.2z"/>
					<path class="st32" d="M4.1,277.2l149.7-86.9c1.9-1.1,4.2,0.3,4.2,2.4v6.3c0,2.2-1.2,4.3-3.1,5.4L3.1,292.6
						c-1.4,0.8-3.1-0.2-3.1-1.8l0-6.5C0,281.4,1.6,278.7,4.1,277.2z"/>
					<path class="st33" d="M4.1,277.2l149.7-86.9c1.9-1.1,4.2,0.3,4.2,2.4v6.1c0,2.2-1.2,4.2-3.1,5.3L3,292.3c-1.3,0.8-3-0.2-3-1.7
						l0-6.2C0,281.4,1.6,278.7,4.1,277.2z"/>
					<path class="st34" d="M4.1,277.2l149.7-86.9c1.9-1.1,4.2,0.3,4.2,2.4v5.8c0,2.1-1.1,4.1-3,5.2L3,292c-1.3,0.8-3-0.2-3-1.7
						l0-5.9C0,281.4,1.6,278.7,4.1,277.2z"/>
					<path class="st35" d="M4.1,277.2l149.7-86.9c1.9-1.1,4.2,0.3,4.2,2.4v5.5c0,2.1-1.1,4-2.9,5.1L2.9,291.7
						C1.6,292.4,0,291.5,0,290v-5.6C0,281.4,1.6,278.7,4.1,277.2z"/>
					<path class="st36" d="M4.1,277.2l149.7-86.9c1.9-1.1,4.2,0.3,4.2,2.4v5.2c0,2-1.1,3.9-2.9,5L2.8,291.3
						c-1.3,0.7-2.8-0.2-2.8-1.6l0-5.3C0,281.4,1.6,278.7,4.1,277.2z"/>
					<path class="st37" d="M4.1,277.2l149.7-86.9c1.9-1.1,4.2,0.3,4.2,2.4v4.9c0,2-1.1,3.9-2.8,4.9L2.8,291
						c-1.2,0.7-2.8-0.2-2.8-1.6l0-5.1C0,281.4,1.6,278.7,4.1,277.2z"/>
					<path class="st38" d="M4.1,277.2l149.7-86.9c1.9-1.1,4.2,0.3,4.2,2.4v4.6c0,2-1,3.8-2.7,4.7L2.7,290.7
						c-1.2,0.7-2.7-0.2-2.7-1.5v-4.8C0,281.4,1.6,278.7,4.1,277.2z"/>
					<path class="st39" d="M4.1,277.2l149.7-86.9c1.9-1.1,4.2,0.3,4.2,2.4v4.3c0,1.9-1,3.7-2.7,4.6L2.6,290.4
						c-1.2,0.7-2.6-0.2-2.6-1.5l0-4.5C0,281.4,1.6,278.7,4.1,277.2z"/>
					<path class="st40" d="M4.1,277.2l149.7-86.9c1.9-1.1,4.2,0.3,4.2,2.4v4c0,1.9-1,3.6-2.6,4.5L2.5,290.1
						c-1.1,0.7-2.5-0.2-2.5-1.5l0-4.2C0,281.4,1.6,278.7,4.1,277.2z"/>
					<path class="st41" d="M4.1,277.2l149.7-86.9c1.9-1.1,4.2,0.3,4.2,2.4v3.8c0,1.8-1,3.5-2.5,4.4l-153,88.9
						c-1.1,0.6-2.5-0.2-2.5-1.4v-3.9C0,281.4,1.6,278.7,4.1,277.2z"/>
					<path class="st42" d="M4.1,277.2l149.7-86.9c1.9-1.1,4.2,0.3,4.2,2.4v3.5c0,1.8-0.9,3.4-2.5,4.3L2.4,289.4
						C1.3,290,0,289.3,0,288l0-3.7C0,281.4,1.6,278.7,4.1,277.2z"/>
					<path class="st43" d="M4.1,277.2l149.7-86.9c1.9-1.1,4.2,0.3,4.2,2.4v3.2c0,1.7-0.9,3.3-2.4,4.2l-153.3,89
						c-1,0.6-2.3-0.1-2.3-1.3l0-3.4C0,281.4,1.6,278.7,4.1,277.2z"/>
					<path class="st44" d="M4.1,277.2l149.7-86.9c1.9-1.1,4.2,0.3,4.2,2.4v2.9c0,1.7-0.9,3.2-2.4,4.1L2.3,288.8
						c-1,0.6-2.3-0.1-2.3-1.3v-3.1C0,281.4,1.6,278.7,4.1,277.2z"/>
					<path class="st45" d="M4.1,277.2l149.7-86.9c1.9-1.1,4.2,0.3,4.2,2.4v2.6c0,1.6-0.9,3.2-2.3,4L2.2,288.5
						c-1,0.6-2.2-0.1-2.2-1.3l0-2.8C0,281.4,1.6,278.7,4.1,277.2z"/>
					<path class="st46" d="M4.1,277.2l149.7-86.9c1.9-1.1,4.2,0.3,4.2,2.4v2.3c0,1.6-0.8,3.1-2.2,3.9L2.1,288.1
						C1.2,288.7,0,288,0,286.9l0-2.5C0,281.4,1.6,278.7,4.1,277.2z"/>
					<path class="st47" d="M4.1,277.2l149.7-86.9c1.9-1.1,4.2,0.3,4.2,2.4v2c0,1.5-0.8,3-2.2,3.8L2.1,287.8
						c-0.9,0.5-2.1-0.1-2.1-1.2l0-2.3C0,281.4,1.6,278.7,4.1,277.2z"/>
					<path class="st48" d="M4.1,277.2l149.7-86.9c1.9-1.1,4.2,0.3,4.2,2.4v1.8c0,1.5-0.8,2.9-2.1,3.6L2,287.5c-0.9,0.5-2-0.1-2-1.1
						l0-2C0,281.4,1.6,278.7,4.1,277.2z"/>
					<path class="st49" d="M4.1,277.2l149.7-86.9c1.9-1.1,4.2,0.3,4.2,2.4v1.5c0,1.5-0.8,2.8-2,3.5L1.9,287.2
						c-0.9,0.5-1.9-0.1-1.9-1.1l0-1.7C0,281.4,1.6,278.7,4.1,277.2z"/>
					<path class="st50" d="M4.1,277.2l149.7-86.9c1.9-1.1,4.2,0.3,4.2,2.4v1.2c0,1.4-0.8,2.7-2,3.4L1.8,286.9
						C1,287.3,0,286.8,0,285.8v-1.4C0,281.4,1.6,278.7,4.1,277.2z"/>
					<path class="st51" d="M4.1,277.2l149.7-86.9c1.9-1.1,4.2,0.3,4.2,2.4v0.9c0,1.4-0.7,2.6-1.9,3.3L1.8,286.5
						C1,287,0,286.4,0,285.5l0-1.1C0,281.4,1.6,278.7,4.1,277.2z"/>
					<path class="st52" d="M4.1,277.2l149.7-86.9c1.9-1.1,4.2,0.3,4.2,2.4v0.6c0,1.3-0.7,2.5-1.8,3.2L1.7,286.2
						c-0.8,0.4-1.7-0.1-1.7-1l0-0.9C0,281.4,1.6,278.7,4.1,277.2z"/>
					<path class="st53" d="M4.1,277.2l149.7-86.9c1.9-1.1,4.2,0.3,4.2,2.4v0.3c0,1.3-0.7,2.5-1.8,3.1L1.6,285.9
						C0.9,286.3,0,285.8,0,285v-0.6C0,281.4,1.6,278.7,4.1,277.2z"/>
					<path class="st54" d="M4.1,277.2l149.7-86.9c1.9-1.1,4.2,0.3,4.2,2.4v0c0,1.2-0.7,2.4-1.7,3L1.6,285.6C0.9,286,0,285.5,0,284.7
						l0-0.3C0,281.4,1.6,278.7,4.1,277.2z"/>
					<path class="st55" d="M4.1,277.2l149.7-86.9c1.9-1.1,4.2,0.3,4.2,2.4v-0.3c0,1.2-0.6,2.3-1.7,2.9L1.5,285.3
						c-0.7,0.4-1.5-0.1-1.5-0.9l0,0C0,281.4,1.6,278.7,4.1,277.2z"/>
					<path class="st56" d="M4.1,277.2l149.7-86.9c1.9-1.1,4.2,0.3,4.2,2.4v-0.5c0,1.1-0.6,2.2-1.6,2.8l-155,90
						c-0.6,0.4-1.4-0.1-1.4-0.8l0,0.3C0,281.4,1.6,278.7,4.1,277.2z"/>
					<path id="XMLID_18158_" class="st57" d="M4.1,277.2l149.7-86.9c1.9-1.1,4.2,0.3,4.2,2.4v-0.8c0,1.1-0.6,2.1-1.5,2.6L1.4,284.6
						C0.8,285,0,284.5,0,283.8l0,0.5C0,281.4,1.6,278.7,4.1,277.2z"/>
				</g>
			</g>
			<g>
				<g id="XMLID_26107_">
					<g id="XMLID_27591_">
						
							<linearGradient id="XMLID_12_" gradientUnits="userSpaceOnUse" x1="-733.1185" y1="259.187" x2="-569.0563" y2="48.6924" gradientTransform="matrix(-1 0 0 1 -238.9202 0)">
							<stop  offset="0" style="stop-color:#120426"/>
							<stop  offset="1" style="stop-color:#1D073F"/>
						</linearGradient>
						<path id="XMLID_27593_" class="st58" d="M334.2,48.4L334.2,48.4c-1.4,1.3-2.2,3.1-2.2,4.9v111.6c0,4.1,2.9,9.1,6.4,11.2
							L479.8,258c1.8,1,4.4,1.4,6.3,0.5l1-0.5c1.8-0.9,2.9-2.7,2.9-4.6V139.9c0-4.1-2.9-9.1-6.4-11.2L343.4,47.4
							C340.4,45.7,336.7,46.1,334.2,48.4z"/>
						
							<linearGradient id="XMLID_13_" gradientUnits="userSpaceOnUse" x1="937.7052" y1="153.6962" x2="1091.9873" y2="153.6962" gradientTransform="matrix(1 0 0 1 -605.7271 0)">
							<stop  offset="0" style="stop-color:#2F1359"/>
							<stop  offset="1" style="stop-color:#491E8C"/>
						</linearGradient>
						<path id="XMLID_27592_" class="st59" d="M338.4,49.3c-3.5-2-6.4-0.4-6.4,3.7v112.2c0,4.1,2.9,9.1,6.4,11.2l141.4,81.6
							c3.5,2,6.4,0.4,6.4-3.7V142.1c0-4.1-2.9-9.1-6.4-11.2L338.4,49.3z"/>
					</g>
					<g id="XMLID_27587_">
						<path id="XMLID_27588_" class="st6" d="M363.9,166c-1.7,0-3.6-0.6-5.5-1.6c-6.4-3.7-11.6-12.7-11.6-20c0-3.8,1.3-6.7,3.8-8.1
							c2.4-1.4,5.6-1.1,8.9,0.8c6.4,3.7,11.6,12.7,11.6,20c0,3.8-1.3,6.7-3.8,8.1C366.3,165.7,365.2,166,363.9,166z M354.2,137.6
							c-0.9,0-1.6,0.2-2.3,0.6c-1.7,1-2.7,3.2-2.7,6.1c0,6.5,4.8,14.8,10.4,18.1c2.6,1.5,4.9,1.7,6.6,0.8c1.7-1,2.7-3.2,2.7-6.1
							c0-6.5-4.8-14.8-10.4-18.1l0,0C356.9,138,355.5,137.6,354.2,137.6z"/>
					</g>
					<g id="XMLID_27585_">
						<path id="XMLID_27586_" class="st60" d="M363.9,166.7c-1.3,0-2.6-0.3-3.9-0.8l0-4.2c2.3,1.3,4.4,1.6,5.9,0.8
							c1.5-0.9,2.3-2.8,2.3-5.5c0-3.5-1.5-7.7-3.9-11.4c-0.2-0.4-0.5-0.7-0.8-1.1l3-2.3c0.3,0.4,0.6,0.8,0.9,1.2
							c2.9,4.3,4.5,9.2,4.5,13.5c0,4.1-1.5,7.2-4.2,8.7C366.6,166.4,365.3,166.7,363.9,166.7z"/>
					</g>
					<g id="XMLID_27581_">
						<path id="XMLID_27582_" class="st6" d="M413.6,194.2c-1.7,0-3.6-0.6-5.5-1.6c-6.4-3.7-11.6-12.7-11.6-20
							c0-3.8,1.3-6.7,3.8-8.1c2.4-1.4,5.6-1.1,8.9,0.8l0,0c6.4,3.7,11.6,12.7,11.6,20c0,3.8-1.3,6.7-3.8,8.1
							C416,193.9,414.8,194.2,413.6,194.2z M403.8,165.8c-0.9,0-1.6,0.2-2.3,0.6c-1.7,1-2.7,3.2-2.7,6.1c0,6.5,4.8,14.8,10.4,18.1
							c2.6,1.5,4.9,1.7,6.6,0.8c1.7-1,2.7-3.2,2.7-6.1c0-6.5-4.8-14.8-10.4-18.1C406.6,166.3,405.1,165.8,403.8,165.8z"/>
					</g>
					<g id="XMLID_27579_">
						<path id="XMLID_27580_" class="st61" d="M414.8,175.3c-0.9-1.6-2-3.1-3.2-4.4c-1.2-1.3-2.5-2.4-3.8-3.1
							c-1.2-0.7-2.4-1.1-3.5-1.2c-0.9-0.1-1.7,0.1-2.4,0.5c-0.7,0.4-1.2,1-1.6,1.8c-0.5,1-0.7,2.2-0.7,3.6h-3.8c0-2,0.4-3.7,1-5.2
							c0.7-1.5,1.8-2.7,3.1-3.5c1.3-0.8,2.9-1.1,4.6-1c1.6,0.1,3.3,0.7,5,1.7c1.6,0.9,3.2,2.2,4.7,3.8c1.4,1.5,2.7,3.2,3.8,5.1
							L414.8,175.3z"/>
					</g>
					<g id="XMLID_27511_">
						<path id="XMLID_27519_" class="st60" d="M413.6,195c-0.3,0-0.5,0-0.8,0c-1.6-0.1-3.3-0.7-5-1.7c-1.6-0.9-3.2-2.2-4.7-3.8
							l2.7-2.6c1.2,1.3,2.5,2.4,3.8,3.1c1.2,0.7,2.4,1.1,3.5,1.2c0.9,0.1,1.7-0.1,2.4-0.5c0.7-0.4,1.2-1,1.6-1.8
							c0.5-1,0.7-2.2,0.7-3.6c0-1.5-0.3-3.2-0.8-4.9c-0.5-1.7-1.3-3.4-2.2-5l3.3-1.9c1.1,1.9,1.9,3.8,2.5,5.8c0.6,2.1,0.9,4.1,0.9,6
							c0,2-0.4,3.7-1,5.2c-0.7,1.5-1.8,2.7-3.1,3.5C416.3,194.6,414.9,195,413.6,195z"/>
					</g>
					<g id="XMLID_26623_">
						<path id="XMLID_26862_" class="st6" d="M463.3,223.8c-1.7,0-3.6-0.6-5.5-1.6c-6.4-3.7-11.6-12.7-11.6-20
							c0-3.8,1.3-6.7,3.8-8.1c2.4-1.4,5.6-1.1,8.9,0.8c6.4,3.7,11.6,12.7,11.6,20c0,3.8-1.3,6.7-3.8,8.1
							C465.7,223.5,464.6,223.8,463.3,223.8z M453.6,195.4c-0.9,0-1.6,0.2-2.3,0.6c-1.7,1-2.7,3.2-2.7,6.1c0,6.5,4.8,14.8,10.4,18.1
							c2.6,1.5,4.9,1.7,6.6,0.8c1.7-1,2.7-3.2,2.7-6.1c0-6.5-4.8-14.8-10.4-18.1C456.3,195.9,454.9,195.4,453.6,195.4z"/>
					</g>
					<g id="XMLID_26299_">
						<path id="XMLID_26300_" class="st61" d="M464.6,204.9c-0.9-1.6-2-3.1-3.2-4.4c-1.2-1.3-2.5-2.4-3.8-3.1
							c-1.2-0.7-2.4-1.1-3.5-1.2c-0.9-0.1-1.7,0.1-2.4,0.5c-0.7,0.4-1.2,1-1.6,1.8c-0.5,1-0.7,2.2-0.7,3.6h-3.8c0-2,0.4-3.7,1-5.2
							c0.7-1.5,1.8-2.7,3.1-3.5c1.3-0.8,2.9-1.1,4.6-1c1.6,0.1,3.3,0.7,5,1.7c1.6,0.9,3.2,2.2,4.7,3.8c1.4,1.5,2.7,3.2,3.8,5.1
							L464.6,204.9z"/>
					</g>
					<g id="XMLID_26297_">
						<path id="XMLID_26298_" class="st60" d="M470.3,220.1l-3.4-1.6c0.5-1,0.7-2.2,0.7-3.6c0-1.5-0.3-3.2-0.8-4.9
							c-0.5-1.7-1.3-3.4-2.2-5l3.3-1.9c1.1,1.9,1.9,3.8,2.5,5.8c0.6,2.1,0.9,4.1,0.9,6C471.3,216.8,471,218.6,470.3,220.1z"/>
					</g>
					<g id="XMLID_26295_">
						<path id="XMLID_26296_" class="st61" d="M364.3,145.6c-0.2-0.3-1.2-1.7-1.5-2c-0.9-1.1-1.9-2.1-3-2.9
							c-0.3-0.2-0.5-0.4-0.8-0.6l0.9-3.9c2,1.2,3.9,2.8,5.7,4.9c0.3,0.3,0.6,0.7,0.9,1.1L364.3,145.6z"/>
					</g>
					<g id="XMLID_26201_">
						<g id="XMLID_26293_">
							<polygon id="XMLID_26294_" class="st6" points="478.8,186.8 372.7,125.5 372.7,124.6 478.8,185.9 							"/>
						</g>
						<g id="XMLID_26291_">
							<polygon id="XMLID_26292_" class="st6" points="373.4,125.4 372.7,125.4 372.7,85.4 373.4,85.8 							"/>
						</g>
						<g id="XMLID_26289_">
							<polygon id="XMLID_26290_" class="st6" points="396.2,138.5 395.4,138.1 395.4,98.5 396.2,99 							"/>
						</g>
						<g id="XMLID_26287_">
							<polygon id="XMLID_26288_" class="st6" points="418.9,151.5 418.2,151.2 418.2,111.6 418.9,112.1 							"/>
						</g>
						<g id="XMLID_26285_">
							<polygon id="XMLID_26286_" class="st6" points="441.7,165 440.9,164.2 440.9,124.8 441.7,125.2 							"/>
						</g>
						<g id="XMLID_26283_">
							<polygon id="XMLID_26284_" class="st6" points="464.4,178.1 463.6,177.7 463.6,137.8 464.4,138.3 							"/>
						</g>
						<g id="XMLID_26281_">
							<path id="XMLID_26282_" class="st60" d="M478.8,161.2l-14.8-19c-6.6-8.6-17.7-12.3-28.2-9.6l-4.9,1.3
								c-4.9,1.3-10,0.6-14.4-2.1c-4.4-2.6-7.4-6.8-8.6-11.7c-2.9-12.3-13.8-20.9-26.5-20.8l-8,0.1l0-0.8l8-0.1
								c13-0.1,24.2,8.7,27.2,21.4c1.1,4.7,4,8.7,8.2,11.2c4.2,2.5,9.1,3.2,13.8,2l4.9-1.3c10.8-2.8,22.2,1,29,9.9l14.2,18.3V161.2z
								"/>
						</g>
						<g id="XMLID_26279_" class="st62">
							
								<linearGradient id="XMLID_14_" gradientUnits="userSpaceOnUse" x1="979.1697" y1="142.5748" x2="1084.566" y2="142.5748" gradientTransform="matrix(1 0 0 1 -605.7271 0)">
								<stop  offset="0" style="stop-color:#FFA744"/>
								<stop  offset="0.1634" style="stop-color:#FFA948"/>
								<stop  offset="0.3328" style="stop-color:#FFAF55"/>
								<stop  offset="0.5049" style="stop-color:#FFB969"/>
								<stop  offset="0.6789" style="stop-color:#FFC786"/>
								<stop  offset="0.8526" style="stop-color:#FFD9AB"/>
								<stop  offset="1" style="stop-color:#FFEBD1"/>
							</linearGradient>
							<path id="XMLID_26280_" class="st63" d="M478.8,161.2l-14.8-19c-6.6-8.6-17.7-12.3-28.2-9.6l-4.9,1.3
								c-4.9,1.3-10,0.6-14.4-2.1c-4.4-2.6-7.4-6.8-8.6-11.7c-2.9-12.3-13.8-20.9-26.5-20.8l-8,0.1l0,25.7l105.4,60.9V161.2z"/>
						</g>
						<g id="XMLID_26205_">
							<path id="XMLID_26230_" class="st61" d="M374.2,125.4l12.7-1.6c10.8-1.4,21.3,3.8,26.7,13.2l2.6,4.4
								c2.6,4.4,6.7,7.5,11.6,8.7c4.9,1.2,10,0.4,14.3-2.2c10.8-6.7,24.6-5,33.4,4l3.2,3.2l0-1.1l-2.6-2.7
								c-9.2-9.3-23.3-11-34.4-4.1c-4.1,2.6-9,3.3-13.8,2.1c-4.7-1.2-8.7-4.1-11.1-8.4l-2.6-4.4c-5.6-9.6-16.4-15-27.5-13.6
								l-13.4,1.7l0,0.2L374.2,125.4z"/>
						</g>
						<g id="XMLID_26203_" class="st62">
							
								<linearGradient id="XMLID_15_" gradientUnits="userSpaceOnUse" x1="979.9432" y1="154.7532" x2="1084.5662" y2="154.7532" gradientTransform="matrix(1 0 0 1 -605.7271 0)">
								<stop  offset="0" style="stop-color:#24D84B"/>
								<stop  offset="0.1521" style="stop-color:#28D94E"/>
								<stop  offset="0.3098" style="stop-color:#35DB59"/>
								<stop  offset="0.47" style="stop-color:#49DF6A"/>
								<stop  offset="0.6321" style="stop-color:#66E582"/>
								<stop  offset="0.7955" style="stop-color:#8CECA0"/>
								<stop  offset="0.9579" style="stop-color:#B9F5C5"/>
								<stop  offset="1" style="stop-color:#C6F7D0"/>
							</linearGradient>
							<path id="XMLID_26204_" class="st64" d="M478.8,155.1l-3.2-3.2c-8.9-9-22.7-10.7-33.4-4c-4.3,2.7-9.4,3.5-14.3,2.2
								c-4.9-1.2-9.1-4.3-11.6-8.7l-2.6-4.4c-5.5-9.4-16-14.5-26.7-13.2l-12.7,1.6l104.6,60.4L478.8,155.1z"/>
						</g>
					</g>
					<g id="XMLID_26139_">
						<path id="XMLID_26200_" class="st6" d="M354.2,76.1c-5-2.9-9.2-0.5-9.2,5.3c0,5.8,4.1,13,9.2,15.9c5,2.9,9.2,0.5,9.2-5.3
							C363.4,86.1,359.3,79,354.2,76.1z"/>
						<path id="XMLID_26199_" class="st13" d="M352,87.7c-1.1-1.3-1.8-3-1.8-4.5c0-2.2,1.6-3.1,3.5-2c1.9,1.1,3.5,3.8,3.5,6
							c0,1-0.3,1.7-0.8,2.1c1.8,2.3,2.8,5.1,2.8,8v1.1c-1.4,0.2-3.1-0.1-4.9-1.2c-2-1.2-3.8-3-5.4-5.1
							C349.1,90.2,350.3,88.5,352,87.7z"/>
					</g>
				</g>
				<g class="st15">
					<path id="XMLID_26055_" class="st16" d="M485.9,277.2l-149.7-86.9c-1.9-1.1-4.2,0.3-4.2,2.4v10.9c0,3,1.6,5.7,4.1,7.2
						l149.7,86.9c1.9,1.1,4.2-0.3,4.2-2.4v-10.9C490,281.4,488.4,278.7,485.9,277.2z"/>
					<path class="st17" d="M485.9,277.2l-149.7-86.9c-1.9-1.1-4.2,0.3-4.2,2.4v10.6c0,2.9,1.6,5.6,4.1,7.1l149.8,87
						c1.8,1.1,4.2-0.3,4.2-2.4v-10.6C490,281.4,488.4,278.7,485.9,277.2z"/>
					<path class="st18" d="M485.9,277.2l-149.7-86.9c-1.9-1.1-4.2,0.3-4.2,2.4v10.4c0,2.9,1.5,5.5,4,7l149.9,87.1
						c1.8,1.1,4.1-0.3,4.1-2.3v-10.4C490,281.4,488.4,278.7,485.9,277.2z"/>
					<path class="st19" d="M485.9,277.2l-149.7-86.9c-1.9-1.1-4.2,0.3-4.2,2.4v10.1c0,2.8,1.5,5.4,3.9,6.8L486,296.8
						c1.8,1,4-0.3,4-2.3v-10.1C490,281.4,488.4,278.7,485.9,277.2z"/>
					<path class="st20" d="M485.9,277.2l-149.7-86.9c-1.9-1.1-4.2,0.3-4.2,2.4v9.8c0,2.8,1.5,5.3,3.9,6.7l150.2,87.2
						c1.7,1,3.9-0.2,3.9-2.3v-9.8C490,281.4,488.4,278.7,485.9,277.2z"/>
					<path class="st21" d="M485.9,277.2l-149.7-86.9c-1.9-1.1-4.2,0.3-4.2,2.4v9.5c0,2.7,1.5,5.3,3.8,6.6l150.3,87.3
						c1.7,1,3.9-0.2,3.9-2.2v-9.5C490,281.4,488.4,278.7,485.9,277.2z"/>
					<path class="st22" d="M485.9,277.2l-149.7-86.9c-1.9-1.1-4.2,0.3-4.2,2.4v9.2c0,2.7,1.4,5.2,3.8,6.5l150.5,87.4
						c1.7,1,3.8-0.2,3.8-2.2v-9.2C490,281.4,488.4,278.7,485.9,277.2z"/>
					<path class="st23" d="M485.9,277.2l-149.7-86.9c-1.9-1.1-4.2,0.3-4.2,2.4v8.9c0,2.6,1.4,5.1,3.7,6.4l150.6,87.5
						c1.7,1,3.7-0.2,3.7-2.1v-9C490,281.4,488.4,278.7,485.9,277.2z"/>
					<path class="st24" d="M485.9,277.2l-149.7-86.9c-1.9-1.1-4.2,0.3-4.2,2.4v8.6c0,2.6,1.4,5,3.6,6.3l150.7,87.5
						c1.6,0.9,3.7-0.2,3.7-2.1v-8.7C490,281.4,488.4,278.7,485.9,277.2z"/>
					<path class="st25" d="M485.9,277.2l-149.7-86.9c-1.9-1.1-4.2,0.3-4.2,2.4v8.3c0,2.5,1.4,4.9,3.6,6.2l150.9,87.6
						c1.6,0.9,3.6-0.2,3.6-2.1v-8.4C490,281.4,488.4,278.7,485.9,277.2z"/>
					<path class="st26" d="M485.9,277.2l-149.7-86.9c-1.9-1.1-4.2,0.3-4.2,2.4v8.1c0,2.5,1.3,4.8,3.5,6.1l151,87.7
						c1.6,0.9,3.5-0.2,3.5-2v-8.1C490,281.4,488.4,278.7,485.9,277.2z"/>
					<path class="st27" d="M485.9,277.2l-149.7-86.9c-1.9-1.1-4.2,0.3-4.2,2.4v7.8c0,2.5,1.3,4.7,3.4,6l151.1,87.8
						c1.5,0.9,3.5-0.2,3.5-2v-7.9C490,281.4,488.4,278.7,485.9,277.2z"/>
					<path class="st28" d="M485.9,277.2l-149.7-86.9c-1.9-1.1-4.2,0.3-4.2,2.4v7.5c0,2.4,1.3,4.6,3.4,5.9l151.3,87.9
						c1.5,0.9,3.4-0.2,3.4-1.9v-7.6C490,281.4,488.4,278.7,485.9,277.2z"/>
					<path class="st29" d="M485.9,277.2l-149.7-86.9c-1.9-1.1-4.2,0.3-4.2,2.4v7.2c0,2.4,1.3,4.6,3.3,5.7l151.4,87.9
						c1.5,0.9,3.3-0.2,3.3-1.9v-7.3C490,281.4,488.4,278.7,485.9,277.2z"/>
					<path class="st30" d="M485.9,277.2l-149.7-86.9c-1.9-1.1-4.2,0.3-4.2,2.4v6.9c0,2.3,1.2,4.5,3.2,5.6l151.5,88
						c1.4,0.8,3.2-0.2,3.2-1.9v-7C490,281.4,488.4,278.7,485.9,277.2z"/>
					<path class="st31" d="M485.9,277.2l-149.7-86.9c-1.9-1.1-4.2,0.3-4.2,2.4v6.6c0,2.3,1.2,4.4,3.2,5.5l151.7,88.1
						c1.4,0.8,3.2-0.2,3.2-1.8v-6.7C490,281.4,488.4,278.7,485.9,277.2z"/>
					<path class="st32" d="M485.9,277.2l-149.7-86.9c-1.9-1.1-4.2,0.3-4.2,2.4v6.3c0,2.2,1.2,4.3,3.1,5.4l151.8,88.2
						c1.4,0.8,3.1-0.2,3.1-1.8v-6.5C490,281.4,488.4,278.7,485.9,277.2z"/>
					<path class="st33" d="M485.9,277.2l-149.7-86.9c-1.9-1.1-4.2,0.3-4.2,2.4v6.1c0,2.2,1.2,4.2,3.1,5.3L487,292.3
						c1.3,0.8,3-0.2,3-1.7v-6.2C490,281.4,488.4,278.7,485.9,277.2z"/>
					<path class="st34" d="M485.9,277.2l-149.7-86.9c-1.9-1.1-4.2,0.3-4.2,2.4v5.8c0,2.1,1.1,4.1,3,5.2L487,292c1.3,0.8,3-0.2,3-1.7
						v-5.9C490,281.4,488.4,278.7,485.9,277.2z"/>
					<path class="st35" d="M485.9,277.2l-149.7-86.9c-1.9-1.1-4.2,0.3-4.2,2.4v5.5c0,2.1,1.1,4,2.9,5.1l152.2,88.4
						c1.3,0.7,2.9-0.2,2.9-1.7v-5.6C490,281.4,488.4,278.7,485.9,277.2z"/>
					<path class="st36" d="M485.9,277.2l-149.7-86.9c-1.9-1.1-4.2,0.3-4.2,2.4v5.2c0,2,1.1,3.9,2.9,5l152.3,88.5
						c1.3,0.7,2.8-0.2,2.8-1.6v-5.3C490,281.4,488.4,278.7,485.9,277.2z"/>
					<path class="st37" d="M485.9,277.2l-149.7-86.9c-1.9-1.1-4.2,0.3-4.2,2.4v4.9c0,2,1.1,3.9,2.8,4.9L487.2,291
						c1.2,0.7,2.8-0.2,2.8-1.6v-5.1C490,281.4,488.4,278.7,485.9,277.2z"/>
					<path class="st38" d="M485.9,277.2l-149.7-86.9c-1.9-1.1-4.2,0.3-4.2,2.4v4.6c0,2,1,3.8,2.7,4.7l152.6,88.6
						c1.2,0.7,2.7-0.2,2.7-1.5v-4.8C490,281.4,488.4,278.7,485.9,277.2z"/>
					<path class="st39" d="M485.9,277.2l-149.7-86.9c-1.9-1.1-4.2,0.3-4.2,2.4v4.3c0,1.9,1,3.7,2.7,4.6l152.7,88.7
						c1.2,0.7,2.6-0.2,2.6-1.5v-4.5C490,281.4,488.4,278.7,485.9,277.2z"/>
					<path class="st40" d="M485.9,277.2l-149.7-86.9c-1.9-1.1-4.2,0.3-4.2,2.4v4c0,1.9,1,3.6,2.6,4.5l152.9,88.8
						c1.1,0.7,2.5-0.2,2.5-1.5v-4.2C490,281.4,488.4,278.7,485.9,277.2z"/>
					<path class="st41" d="M485.9,277.2l-149.7-86.9c-1.9-1.1-4.2,0.3-4.2,2.4v3.8c0,1.8,1,3.5,2.5,4.4l153,88.9
						c1.1,0.6,2.5-0.2,2.5-1.4v-3.9C490,281.4,488.4,278.7,485.9,277.2z"/>
					<path class="st42" d="M485.9,277.2l-149.7-86.9c-1.9-1.1-4.2,0.3-4.2,2.4v3.5c0,1.8,0.9,3.4,2.5,4.3l153.1,88.9
						c1.1,0.6,2.4-0.2,2.4-1.4v-3.7C490,281.4,488.4,278.7,485.9,277.2z"/>
					<path class="st43" d="M485.9,277.2l-149.7-86.9c-1.9-1.1-4.2,0.3-4.2,2.4v3.2c0,1.7,0.9,3.3,2.4,4.2l153.3,89
						c1,0.6,2.3-0.1,2.3-1.3v-3.4C490,281.4,488.4,278.7,485.9,277.2z"/>
					<path class="st44" d="M485.9,277.2l-149.7-86.9c-1.9-1.1-4.2,0.3-4.2,2.4v2.9c0,1.7,0.9,3.2,2.4,4.1l153.4,89.1
						c1,0.6,2.3-0.1,2.3-1.3v-3.1C490,281.4,488.4,278.7,485.9,277.2z"/>
					<path class="st45" d="M485.9,277.2l-149.7-86.9c-1.9-1.1-4.2,0.3-4.2,2.4v2.6c0,1.6,0.9,3.2,2.3,4l153.5,89.2
						c1,0.6,2.2-0.1,2.2-1.3v-2.8C490,281.4,488.4,278.7,485.9,277.2z"/>
					<path class="st46" d="M485.9,277.2l-149.7-86.9c-1.9-1.1-4.2,0.3-4.2,2.4v2.3c0,1.6,0.8,3.1,2.2,3.9l153.7,89.2
						c0.9,0.5,2.1-0.1,2.1-1.2v-2.5C490,281.4,488.4,278.7,485.9,277.2z"/>
					<path class="st47" d="M485.9,277.2l-149.7-86.9c-1.9-1.1-4.2,0.3-4.2,2.4v2c0,1.5,0.8,3,2.2,3.8l153.8,89.3
						c0.9,0.5,2.1-0.1,2.1-1.2v-2.3C490,281.4,488.4,278.7,485.9,277.2z"/>
					<path class="st48" d="M485.9,277.2l-149.7-86.9c-1.9-1.1-4.2,0.3-4.2,2.4v1.8c0,1.5,0.8,2.9,2.1,3.6L488,287.5
						c0.9,0.5,2-0.1,2-1.1v-2C490,281.4,488.4,278.7,485.9,277.2z"/>
					<path class="st49" d="M485.9,277.2l-149.7-86.9c-1.9-1.1-4.2,0.3-4.2,2.4v1.5c0,1.5,0.8,2.8,2,3.5l154.1,89.5
						c0.9,0.5,1.9-0.1,1.9-1.1v-1.7C490,281.4,488.4,278.7,485.9,277.2z"/>
					<path class="st50" d="M485.9,277.2l-149.7-86.9c-1.9-1.1-4.2,0.3-4.2,2.4v1.2c0,1.4,0.8,2.7,2,3.4l154.2,89.6
						c0.8,0.5,1.8-0.1,1.8-1.1v-1.4C490,281.4,488.4,278.7,485.9,277.2z"/>
					<path class="st51" d="M485.9,277.2l-149.7-86.9c-1.9-1.1-4.2,0.3-4.2,2.4v0.9c0,1.4,0.7,2.6,1.9,3.3l154.3,89.6
						c0.8,0.5,1.8-0.1,1.8-1v-1.1C490,281.4,488.4,278.7,485.9,277.2z"/>
					<path class="st52" d="M485.9,277.2l-149.7-86.9c-1.9-1.1-4.2,0.3-4.2,2.4v0.6c0,1.3,0.7,2.5,1.8,3.2l154.5,89.7
						c0.8,0.4,1.7-0.1,1.7-1v-0.9C490,281.4,488.4,278.7,485.9,277.2z"/>
					<path class="st53" d="M485.9,277.2l-149.7-86.9c-1.9-1.1-4.2,0.3-4.2,2.4v0.3c0,1.3,0.7,2.5,1.8,3.1l154.6,89.8
						c0.7,0.4,1.6-0.1,1.6-0.9v-0.6C490,281.4,488.4,278.7,485.9,277.2z"/>
					<path class="st54" d="M485.9,277.2l-149.7-86.9c-1.9-1.1-4.2,0.3-4.2,2.4v0c0,1.2,0.7,2.4,1.7,3l154.7,89.9
						c0.7,0.4,1.6-0.1,1.6-0.9v-0.3C490,281.4,488.4,278.7,485.9,277.2z"/>
					<path class="st55" d="M485.9,277.2l-149.7-86.9c-1.9-1.1-4.2,0.3-4.2,2.4v-0.3c0,1.2,0.6,2.3,1.7,2.9l154.9,89.9
						c0.7,0.4,1.5-0.1,1.5-0.9v0C490,281.4,488.4,278.7,485.9,277.2z"/>
					<path class="st56" d="M485.9,277.2l-149.7-86.9c-1.9-1.1-4.2,0.3-4.2,2.4v-0.5c0,1.1,0.6,2.2,1.6,2.8l155,90
						c0.6,0.4,1.4-0.1,1.4-0.8v0.3C490,281.4,488.4,278.7,485.9,277.2z"/>
					<path id="XMLID_26051_" class="st57" d="M485.9,277.2l-149.7-86.9c-1.9-1.1-4.2,0.3-4.2,2.4v-0.8c0,1.1,0.6,2.1,1.5,2.6
						l155.1,90.1c0.6,0.4,1.4-0.1,1.4-0.8v0.5C490,281.4,488.4,278.7,485.9,277.2z"/>
				</g>
			</g>
		</g>
		<g>
			<g id="XMLID_18440_">
				<path id="XMLID_18442_" class="st65" d="M238.1,244.6L77.6,337.3c-4.5,2.6-4.5,9.1,0,11.7l160.6,92.7c4.2,2.5,9.5,2.5,13.7,0
					l160.6-92.7c4.5-2.6,4.5-9.1,0-11.7l-160.6-92.7C247.6,242.2,242.4,242.2,238.1,244.6z"/>
				<path class="st66" d="M238.2,244.9L78,337.3c-4.5,2.6-4.5,9.1,0,11.7l160.1,92.5c4.2,2.4,9.4,2.4,13.7,0L412,349.1
					c4.5-2.6,4.5-9.1,0-11.7l-160.1-92.5C247.6,242.4,242.4,242.4,238.2,244.9z"/>
				<path class="st67" d="M238.2,245.2L78.5,337.4c-4.5,2.6-4.5,9.1,0,11.7l159.7,92.2c4.2,2.4,9.4,2.4,13.6,0L411.5,349
					c4.5-2.6,4.5-9.1,0-11.7l-159.7-92.2C247.6,242.7,242.4,242.7,238.2,245.2z"/>
				<path class="st68" d="M238.2,245.4L78.9,337.4c-4.5,2.6-4.5,9.1,0,11.7L238.2,441c4.2,2.4,9.4,2.4,13.6,0L411.1,349
					c4.5-2.6,4.5-9.1,0-11.7l-159.3-91.9C247.6,243,242.4,243,238.2,245.4z"/>
				<path class="st69" d="M238.2,245.7L79.4,337.4c-4.5,2.6-4.5,9,0,11.6l158.8,91.7c4.2,2.4,9.4,2.4,13.6,0L410.6,349
					c4.5-2.6,4.5-9,0-11.6l-158.8-91.7C247.6,243.3,242.4,243.3,238.2,245.7z"/>
				<path class="st70" d="M238.2,246L79.9,337.4c-4.5,2.6-4.5,9,0,11.6l158.4,91.4c4.2,2.4,9.3,2.4,13.5,0L410.1,349
					c4.5-2.6,4.5-9,0-11.6L251.8,246C247.6,243.6,242.4,243.6,238.2,246z"/>
				<path class="st71" d="M238.3,246.2L80.3,337.4c-4.4,2.6-4.4,9,0,11.6l157.9,91.2c4.2,2.4,9.3,2.4,13.5,0L409.7,349
					c4.4-2.6,4.4-9,0-11.6l-157.9-91.2C247.6,243.8,242.4,243.8,238.3,246.2z"/>
				<path class="st72" d="M238.3,246.5L80.8,337.4c-4.4,2.6-4.4,9,0,11.5l157.5,90.9c4.2,2.4,9.3,2.4,13.5,0L409.2,349
					c4.4-2.6,4.4-9,0-11.5l-157.5-90.9C247.6,244.1,242.4,244.1,238.3,246.5z"/>
				<path class="st73" d="M238.3,246.8l-157,90.7c-4.4,2.6-4.4,8.9,0,11.5l157,90.7c4.2,2.4,9.3,2.4,13.4,0l157-90.7
					c4.4-2.6,4.4-8.9,0-11.5l-157-90.7C247.6,244.4,242.4,244.4,238.3,246.8z"/>
				<path class="st74" d="M238.3,247.1L81.7,337.5c-4.4,2.5-4.4,8.9,0,11.5l156.6,90.4c4.1,2.4,9.2,2.4,13.4,0l156.6-90.4
					c4.4-2.5,4.4-8.9,0-11.5l-156.6-90.4C247.6,244.7,242.4,244.7,238.3,247.1z"/>
				<path class="st75" d="M238.3,247.3L82.2,337.5c-4.4,2.5-4.4,8.9,0,11.4l156.2,90.2c4.1,2.4,9.2,2.4,13.3,0l156.2-90.2
					c4.4-2.5,4.4-8.9,0-11.4l-156.2-90.2C247.5,244.9,242.5,244.9,238.3,247.3z"/>
				<path class="st76" d="M238.3,247.6L82.6,337.5c-4.4,2.5-4.4,8.9,0,11.4l155.7,89.9c4.1,2.4,9.2,2.4,13.3,0l155.7-89.9
					c4.4-2.5,4.4-8.9,0-11.4l-155.7-89.9C247.5,245.2,242.5,245.2,238.3,247.6z"/>
				<path class="st77" d="M238.4,247.9L83.1,337.5c-4.4,2.5-4.4,8.8,0,11.4l155.3,89.6c4.1,2.4,9.2,2.4,13.3,0l155.3-89.6
					c4.4-2.5,4.4-8.8,0-11.4l-155.3-89.6C247.5,245.5,242.5,245.5,238.4,247.9z"/>
				<path class="st78" d="M238.4,248.1L83.6,337.5c-4.4,2.5-4.4,8.8,0,11.3l154.8,89.4c4.1,2.4,9.1,2.4,13.2,0l154.8-89.4
					c4.4-2.5,4.4-8.8,0-11.3l-154.8-89.4C247.5,245.8,242.5,245.8,238.4,248.1z"/>
				<path class="st79" d="M238.4,248.4L84,337.6c-4.3,2.5-4.3,8.8,0,11.3L238.4,438c4.1,2.4,9.1,2.4,13.2,0L406,348.8
					c4.3-2.5,4.3-8.8,0-11.3l-154.4-89.1C247.5,246.1,242.5,246.1,238.4,248.4z"/>
				<path class="st80" d="M238.4,248.7L84.5,337.6c-4.3,2.5-4.3,8.8,0,11.3l153.9,88.9c4.1,2.3,9.1,2.3,13.2,0l153.9-88.9
					c4.3-2.5,4.3-8.8,0-11.3l-153.9-88.9C247.5,246.3,242.5,246.3,238.4,248.7z"/>
				<path class="st81" d="M238.4,249L84.9,337.6c-4.3,2.5-4.3,8.7,0,11.2l153.5,88.6c4.1,2.3,9.1,2.3,13.1,0l153.5-88.6
					c4.3-2.5,4.3-8.7,0-11.2L251.6,249C247.5,246.6,242.5,246.6,238.4,249z"/>
				<path class="st82" d="M238.5,249.2L85.4,337.6c-4.3,2.5-4.3,8.7,0,11.2l153.1,88.4c4,2.3,9,2.3,13.1,0l153.1-88.4
					c4.3-2.5,4.3-8.7,0-11.2l-153.1-88.4C247.5,246.9,242.5,246.9,238.5,249.2z"/>
				<path class="st83" d="M238.5,249.5L85.9,337.6c-4.3,2.5-4.3,8.7,0,11.2l152.6,88.1c4,2.3,9,2.3,13,0l152.6-88.1
					c4.3-2.5,4.3-8.7,0-11.2l-152.6-88.1C247.5,247.2,242.5,247.2,238.5,249.5z"/>
				<path class="st84" d="M238.5,249.8L86.3,337.6c-4.3,2.5-4.3,8.7,0,11.1l152.2,87.9c4,2.3,9,2.3,13,0l152.2-87.9
					c4.3-2.5,4.3-8.7,0-11.1l-152.2-87.9C247.5,247.5,242.5,247.5,238.5,249.8z"/>
				<path class="st85" d="M238.5,250.1L86.8,337.6c-4.3,2.5-4.3,8.6,0,11.1l151.7,87.6c4,2.3,9,2.3,13,0l151.7-87.6
					c4.3-2.5,4.3-8.6,0-11.1l-151.7-87.6C247.5,247.7,242.5,247.7,238.5,250.1z"/>
				<path class="st86" d="M238.5,250.3L87.3,337.7c-4.3,2.5-4.3,8.6,0,11.1l151.3,87.3c4,2.3,8.9,2.3,12.9,0l151.3-87.3
					c4.3-2.5,4.3-8.6,0-11.1l-151.3-87.3C247.5,248,242.5,248,238.5,250.3z"/>
				<path class="st87" d="M238.6,250.6L87.7,337.7c-4.2,2.5-4.2,8.6,0,11l150.8,87.1c4,2.3,8.9,2.3,12.9,0l150.8-87.1
					c4.2-2.5,4.2-8.6,0-11l-150.8-87.1C247.5,248.3,242.5,248.3,238.6,250.6z"/>
				<path class="st88" d="M238.6,250.9L88.2,337.7c-4.2,2.4-4.2,8.6,0,11l150.4,86.8c4,2.3,8.9,2.3,12.8,0l150.4-86.8
					c4.2-2.4,4.2-8.6,0-11l-150.4-86.8C247.4,248.6,242.6,248.6,238.6,250.9z"/>
				<path class="st89" d="M238.6,251.1L88.6,337.7c-4.2,2.4-4.2,8.5,0,11l149.9,86.6c4,2.3,8.8,2.3,12.8,0l149.9-86.6
					c4.2-2.4,4.2-8.5,0-11l-149.9-86.6C247.4,248.9,242.6,248.9,238.6,251.1z"/>
				<path class="st90" d="M238.6,251.4L89.1,337.7c-4.2,2.4-4.2,8.5,0,10.9L238.6,435c4,2.3,8.8,2.3,12.8,0l149.5-86.3
					c4.2-2.4,4.2-8.5,0-10.9l-149.5-86.3C247.4,249.1,242.6,249.1,238.6,251.4z"/>
				<path class="st91" d="M238.6,251.7L89.6,337.7c-4.2,2.4-4.2,8.5,0,10.9l149.1,86.1c3.9,2.3,8.8,2.3,12.7,0l149.1-86.1
					c4.2-2.4,4.2-8.5,0-10.9l-149.1-86.1C247.4,249.4,242.6,249.4,238.6,251.7z"/>
				<path class="st92" d="M238.7,252L90,337.8c-4.2,2.4-4.2,8.5,0,10.9l148.6,85.8c3.9,2.3,8.8,2.3,12.7,0L400,348.6
					c4.2-2.4,4.2-8.5,0-10.9L251.3,252C247.4,249.7,242.6,249.7,238.7,252z"/>
				<path class="st93" d="M238.7,252.2L90.5,337.8c-4.2,2.4-4.2,8.4,0,10.8l148.2,85.5c3.9,2.3,8.7,2.3,12.7,0l148.2-85.5
					c4.2-2.4,4.2-8.4,0-10.8l-148.2-85.5C247.4,250,242.6,250,238.7,252.2z"/>
				<path class="st94" d="M238.7,252.5L91,337.8c-4.2,2.4-4.2,8.4,0,10.8l147.7,85.3c3.9,2.3,8.7,2.3,12.6,0L399,348.6
					c4.2-2.4,4.2-8.4,0-10.8l-147.7-85.3C247.4,250.2,242.6,250.2,238.7,252.5z"/>
				<path class="st95" d="M238.7,252.8l-147.3,85c-4.1,2.4-4.1,8.4,0,10.8l147.3,85c3.9,2.2,8.7,2.2,12.6,0l147.3-85
					c4.1-2.4,4.1-8.4,0-10.8l-147.3-85C247.4,250.5,242.6,250.5,238.7,252.8z"/>
				<path class="st96" d="M238.7,253L91.9,337.8c-4.1,2.4-4.1,8.4,0,10.7l146.8,84.8c3.9,2.2,8.7,2.2,12.5,0l146.8-84.8
					c4.1-2.4,4.1-8.4,0-10.7L251.3,253C247.4,250.8,242.6,250.8,238.7,253z"/>
				<path class="st97" d="M238.7,253.3L92.3,337.8c-4.1,2.4-4.1,8.3,0,10.7l146.4,84.5c3.9,2.2,8.6,2.2,12.5,0l146.4-84.5
					c4.1-2.4,4.1-8.3,0-10.7l-146.4-84.5C247.4,251.1,242.6,251.1,238.7,253.3z"/>
				<path class="st98" d="M238.8,253.6l-146,84.3c-4.1,2.4-4.1,8.3,0,10.7l146,84.3c3.9,2.2,8.6,2.2,12.5,0l146-84.3
					c4.1-2.4,4.1-8.3,0-10.7l-146-84.3C247.4,251.4,242.6,251.4,238.8,253.6z"/>
				<path class="st99" d="M238.8,253.9l-145.5,84c-4.1,2.4-4.1,8.3,0,10.6l145.5,84c3.8,2.2,8.6,2.2,12.4,0l145.5-84
					c4.1-2.4,4.1-8.3,0-10.6l-145.5-84C247.4,251.6,242.6,251.6,238.8,253.9z"/>
				<path class="st100" d="M238.8,254.1L93.7,337.9c-4.1,2.4-4.1,8.3,0,10.6l145.1,83.8c3.8,2.2,8.6,2.2,12.4,0l145.1-83.8
					c4.1-2.4,4.1-8.3,0-10.6l-145.1-83.8C247.4,251.9,242.6,251.9,238.8,254.1z"/>
				<path class="st101" d="M238.8,254.4L94.2,337.9c-4.1,2.4-4.1,8.2,0,10.6L238.8,432c3.8,2.2,8.5,2.2,12.4,0l144.6-83.5
					c4.1-2.4,4.1-8.2,0-10.6l-144.6-83.5C247.4,252.2,242.6,252.2,238.8,254.4z"/>
				<path class="st102" d="M238.8,254.7L94.7,337.9c-4.1,2.3-4.1,8.2,0,10.5l144.2,83.2c3.8,2.2,8.5,2.2,12.3,0l144.2-83.2
					c4.1-2.3,4.1-8.2,0-10.5l-144.2-83.2C247.3,252.5,242.7,252.5,238.8,254.7z"/>
				<path class="st103" d="M238.9,255l-143.7,83c-4,2.3-4,8.2,0,10.5l143.7,83c3.8,2.2,8.5,2.2,12.3,0l143.7-83c4-2.3,4-8.2,0-10.5
					l-143.7-83C247.3,252.8,242.7,252.8,238.9,255z"/>
				<path class="st104" d="M238.9,255.2L95.6,338c-4,2.3-4,8.2,0,10.5l143.3,82.7c3.8,2.2,8.5,2.2,12.2,0l143.3-82.7
					c4-2.3,4-8.2,0-10.5l-143.3-82.7C247.3,253,242.7,253,238.9,255.2z"/>
				<path class="st105" d="M238.9,255.5L96,338c-4,2.3-4,8.1,0,10.5l142.9,82.5c3.8,2.2,8.4,2.2,12.2,0L394,348.4
					c4-2.3,4-8.1,0-10.5l-142.9-82.5C247.3,253.3,242.7,253.3,238.9,255.5z"/>
				<path class="st106" d="M238.9,255.8L96.5,338c-4,2.3-4,8.1,0,10.4l142.4,82.2c3.8,2.2,8.4,2.2,12.2,0l142.4-82.2
					c4-2.3,4-8.1,0-10.4l-142.4-82.2C247.3,253.6,242.7,253.6,238.9,255.8z"/>
				<path class="st107" d="M238.9,256L97,338c-4,2.3-4,8.1,0,10.4l142,82c3.8,2.2,8.4,2.2,12.1,0l142-82c4-2.3,4-8.1,0-10.4l-142-82
					C247.3,253.9,242.7,253.9,238.9,256z"/>
				<path class="st108" d="M239,256.3L97.4,338c-4,2.3-4,8.1,0,10.4L239,430.1c3.7,2.2,8.4,2.2,12.1,0l141.5-81.7
					c4-2.3,4-8.1,0-10.4L251,256.3C247.3,254.2,242.7,254.2,239,256.3z"/>
				<path class="st109" d="M239,256.6L97.9,338c-4,2.3-4,8,0,10.3L239,429.8c3.7,2.2,8.3,2.2,12.1,0l141.1-81.5c4-2.3,4-8,0-10.3
					L251,256.6C247.3,254.4,242.7,254.4,239,256.6z"/>
				<path class="st110" d="M239,256.9L98.4,338.1c-4,2.3-4,8,0,10.3L239,429.5c3.7,2.1,8.3,2.1,12,0l140.6-81.2c4-2.3,4-8,0-10.3
					L251,256.9C247.3,254.7,242.7,254.7,239,256.9z"/>
				<path class="st111" d="M239,257.1L98.8,338.1c-3.9,2.3-3.9,8,0,10.3L239,429.3c3.7,2.1,8.3,2.1,12,0l140.2-80.9
					c3.9-2.3,3.9-8,0-10.3L251,257.1C247.3,255,242.7,255,239,257.1z"/>
				<path class="st112" d="M239,257.4L99.3,338.1c-3.9,2.3-3.9,8,0,10.2L239,429c3.7,2.1,8.2,2.1,11.9,0l139.8-80.7
					c3.9-2.3,3.9-8,0-10.2L251,257.4C247.3,255.3,242.7,255.3,239,257.4z"/>
				<path class="st113" d="M239,257.7L99.7,338.1c-3.9,2.3-3.9,7.9,0,10.2L239,428.7c3.7,2.1,8.2,2.1,11.9,0l139.3-80.4
					c3.9-2.3,3.9-7.9,0-10.2L251,257.7C247.3,255.5,242.7,255.5,239,257.7z"/>
				<path class="st114" d="M239.1,257.9l-138.9,80.2c-3.9,2.3-3.9,7.9,0,10.2l138.9,80.2c3.7,2.1,8.2,2.1,11.9,0l138.9-80.2
					c3.9-2.3,3.9-7.9,0-10.2l-138.9-80.2C247.3,255.8,242.7,255.8,239.1,257.9z"/>
				<path class="st115" d="M239.1,258.2l-138.4,79.9c-3.9,2.3-3.9,7.9,0,10.1l138.4,79.9c3.7,2.1,8.2,2.1,11.8,0l138.4-79.9
					c3.9-2.3,3.9-7.9,0-10.1l-138.4-79.9C247.3,256.1,242.7,256.1,239.1,258.2z"/>
				<path id="XMLID_18441_" class="st116" d="M239.1,258.5l-138,79.7c-3.9,2.2-3.9,7.9,0,10.1l138,79.7c3.6,2.1,8.1,2.1,11.8,0
					l138-79.7c3.9-2.2,3.9-7.9,0-10.1l-138-79.7C247.2,256.4,242.8,256.4,239.1,258.5z"/>
			</g>
			<linearGradient id="XMLID_16_" gradientUnits="userSpaceOnUse" x1="90.4047" y1="341.3013" x2="399.5955" y2="341.3013">
				<stop  offset="0" style="stop-color:#B4ACBF"/>
				<stop  offset="0.5146" style="stop-color:#D1C8DE"/>
				<stop  offset="1" style="stop-color:#F0E5FF"/>
			</linearGradient>
			<path id="XMLID_18439_" class="st117" d="M238.8,252.1l-148.4,82v8.7c0,1.2,0.6,2.3,1.6,2.9l146.7,84.9c3.8,2.2,8.6,2.2,12.4,0
				l146.5-84.7c1.2-0.7,1.9-1.9,1.9-3.2v-8.5l-148.4-82C247.4,249.9,242.6,249.9,238.8,252.1z"/>
			<linearGradient id="XMLID_17_" gradientUnits="userSpaceOnUse" x1="90.4046" y1="334.0711" x2="399.5954" y2="334.0711">
				<stop  offset="0" style="stop-color:#F0E5FF"/>
				<stop  offset="1" style="stop-color:#FFFFFF"/>
			</linearGradient>
			<path id="XMLID_18438_" class="st118" d="M238.8,244.9L93.5,328.8c-4.1,2.4-4.1,8.3,0,10.6l145.3,83.9c3.8,2.2,8.6,2.2,12.4,0
				l145.3-83.9c4.1-2.4,4.1-8.3,0-10.6l-145.3-83.9C247.4,242.6,242.6,242.6,238.8,244.9z"/>
			<linearGradient id="XMLID_18_" gradientUnits="userSpaceOnUse" x1="140.9502" y1="334.0711" x2="349.0499" y2="334.0711">
				<stop  offset="0" style="stop-color:#B4ACBF"/>
				<stop  offset="0.4563" style="stop-color:#F0E5FF"/>
				<stop  offset="0.4864" style="stop-color:#F9F5FF"/>
				<stop  offset="0.5019" style="stop-color:#FFFFFF"/>
			</linearGradient>
			<path id="XMLID_18437_" class="st119" d="M240.7,272.2l-77.6,0.4l-22,60.9c-0.7,2.5,0.4,5.1,2.6,6.4l96.9,56
				c2.7,1.5,5.9,1.5,8.6,0l96.9-56c2.2-1.3,3.3-3.9,2.6-6.4l-22-60.9l-77.6-0.4C246.6,270.7,243.4,270.7,240.7,272.2z"/>
			<linearGradient id="XMLID_19_" gradientUnits="userSpaceOnUse" x1="148.8692" y1="329.5401" x2="341.1309" y2="329.5401">
				<stop  offset="0" style="stop-color:#1D073F"/>
				<stop  offset="0.4563" style="stop-color:#2F1359"/>
				<stop  offset="0.4734" style="stop-color:#371669"/>
				<stop  offset="0.5019" style="stop-color:#491E8C"/>
			</linearGradient>
			<path id="XMLID_18436_" class="st120" d="M333,289.2l-84,48.5c-2.5,1.4-5.5,1.4-8,0l-84-48.5l-7.9,22c-0.6,2.3,0.3,4.7,2.4,5.9
				l89.5,51.7c2.5,1.4,5.5,1.4,8,0l89.5-51.7c2.1-1.2,3.1-3.6,2.4-5.9L333,289.2z"/>
			<linearGradient id="XMLID_21_" gradientUnits="userSpaceOnUse" x1="163.1149" y1="272.6142" x2="326.8852" y2="272.6142">
				<stop  offset="0" style="stop-color:#F0E5FF"/>
				<stop  offset="1" style="stop-color:#FFFFFF"/>
			</linearGradient>
			<path id="XMLID_18435_" class="st121" d="M241.7,225.4l-77,44.4c-2.2,1.3-2.2,4.4,0,5.6l77,44.4c2,1.2,4.5,1.2,6.6,0l77-44.4
				c2.2-1.3,2.2-4.4,0-5.6l-77-44.4C246.3,224.2,243.7,224.2,241.7,225.4z"/>
			<linearGradient id="XMLID_23_" gradientUnits="userSpaceOnUse" x1="177.8401" y1="272.6142" x2="312.1601" y2="272.6142">
				<stop  offset="0" style="stop-color:#2F1359"/>
				<stop  offset="1" style="stop-color:#491E8C"/>
			</linearGradient>
			<path id="XMLID_18434_" class="st122" d="M242.3,233.9l-63.1,36.4c-1.8,1-1.8,3.6,0,4.6l63.1,36.4c1.7,1,3.7,1,5.4,0l63.1-36.4
				c1.8-1,1.8-3.6,0-4.6l-63.1-36.4C246,232.9,244,232.9,242.3,233.9z"/>
			<linearGradient id="XMLID_24_" gradientUnits="userSpaceOnUse" x1="192.0782" y1="272.6142" x2="297.922" y2="272.6142">
				<stop  offset="0.1499" style="stop-color:#FF9800"/>
				<stop  offset="1" style="stop-color:#FFC107"/>
			</linearGradient>
			<path id="XMLID_18433_" class="st123" d="M242.9,242.1l-49.7,28.7c-1.4,0.8-1.4,2.8,0,3.6l49.7,28.7c1.3,0.8,2.9,0.8,4.3,0
				l49.7-28.7c1.4-0.8,1.4-2.8,0-3.6l-49.7-28.7C245.8,241.3,244.2,241.3,242.9,242.1z"/>
			<path id="XMLID_18432_" class="st116" d="M193.1,272l49.7-28.7c1.3-0.8,2.9-0.8,4.3,0l49.7,28.7c0.5,0.3,0.8,0.7,1,1.2
				c0.3-0.9-0.1-1.9-1-2.4l-49.7-28.7c-1.3-0.8-2.9-0.8-4.3,0l-49.7,28.7c-0.9,0.5-1.2,1.5-1,2.4C192.3,272.7,192.6,272.3,193.1,272
				z"/>
			<path id="XMLID_18431_" class="st124" d="M310.8,273.1l-63.1,36.4c-1.7,1-3.7,1-5.4,0l-63.1-36.4c-0.6-0.3-1-0.8-1.2-1.4
				c-0.4,1.1,0,2.5,1.2,3.2l63.1,36.4c1.7,1,3.7,1,5.4,0l63.1-36.4c1.2-0.7,1.6-2.1,1.2-3.2C311.8,272.3,311.4,272.8,310.8,273.1z"
				/>
			<linearGradient id="XMLID_25_" gradientUnits="userSpaceOnUse" x1="158.6422" y1="313.7144" x2="186.4647" y2="313.7144">
				<stop  offset="0" style="stop-color:#FFA744"/>
				<stop  offset="0.1634" style="stop-color:#FFA948"/>
				<stop  offset="0.3328" style="stop-color:#FFAF55"/>
				<stop  offset="0.5049" style="stop-color:#FFB969"/>
				<stop  offset="0.6789" style="stop-color:#FFC786"/>
				<stop  offset="0.8526" style="stop-color:#FFD9AB"/>
				<stop  offset="1" style="stop-color:#FFEBD1"/>
			</linearGradient>
			<path id="XMLID_18425_" class="st125" d="M164.8,297.9l3.3,1.9l-6.2,17.4l-3.3-1.9L164.8,297.9z M164.1,318.4l3.3,1.9l4.8-13.5
				l-3.3-1.9L164.1,318.4z M169.5,321.5l3.3,1.9l3.4-9.7l-3.3-1.9L169.5,321.5z M174.9,324.6l3.3,1.9l5.4-15.3l-3.3-1.9L174.9,324.6
				z M180.3,327.7l3.3,1.9l2.8-7.7l-3.3-1.9L180.3,327.7z"/>
			
				<linearGradient id="XMLID_26_" gradientUnits="userSpaceOnUse" x1="825.5095" y1="341.6261" x2="864.0261" y2="341.6261" gradientTransform="matrix(1 0 0 1 -573.5213 0)">
				<stop  offset="0" style="stop-color:#FFA744"/>
				<stop  offset="0.1634" style="stop-color:#FFA948"/>
				<stop  offset="0.3328" style="stop-color:#FFAF55"/>
				<stop  offset="0.5049" style="stop-color:#FFB969"/>
				<stop  offset="0.6789" style="stop-color:#FFC786"/>
				<stop  offset="0.8526" style="stop-color:#FFD9AB"/>
				<stop  offset="1" style="stop-color:#FFEBD1"/>
			</linearGradient>
			<path id="XMLID_18424_" class="st126" d="M285.3,323.6c0,0.2-1.1,1.3-1.3,1.5c-0.4,0.5-0.9,1.1-1.3,1.6c-0.8,1-1,2.5-1.7,3.6
				c-0.7,1.1-1.7,2.1-2.9,2.6c-0.8,0.3-1.8,0.4-2.7,0.4c-0.9,0.1-1.8,0.2-2.6,0.6c-1.6,0.9-1.8,3.3-2.3,4.9c-0.2,0.8-0.5,1.5-1,2.1
				c-0.5,0.6-1.2,1-1.9,1.3c-0.7,0.3-1.3,0.6-2.1,0.8c-1.4,0.3-2.8,0.1-4.3,0.3c-2.1,0.2-4.1,1.4-5.4,3.1c-0.5,0.6-0.9,1.3-1.3,2
				c-0.6,1.1-1.4,2.1-2.1,3.1c-0.7,0.8-0.6,1.2-0.6,2.2l2.1,5.9l36.4-21.4L285.3,323.6z"/>
			<polygon id="XMLID_18423_" class="st6" points="196.4,316.2 209.1,323.4 208.2,325.8 195.6,318.5 			"/>
			<g id="XMLID_18404_">
				<polygon id="XMLID_18422_" class="st6" points="194.1,322.4 206.5,329.6 206,330.8 193.7,323.6 				"/>
				<polygon id="XMLID_18421_" class="st60" points="207.6,330.2 211,332.1 210.5,333.4 207.1,331.4 				"/>
				<polygon id="XMLID_18420_" class="st60" points="214,337.5 215.5,338.4 215,339.7 213.6,338.8 				"/>
				<polygon id="XMLID_18419_" class="st60" points="216.3,338.9 217.7,339.8 217.3,341 215.8,340.1 				"/>
				<polygon id="XMLID_18418_" class="st6" points="193,325.4 199.6,329.2 199.2,330.4 192.6,326.6 				"/>
				<polygon id="XMLID_18417_" class="st6" points="200.9,329.9 213.3,337.1 212.8,338.3 200.5,331.2 				"/>
				<polygon id="XMLID_18416_" class="st6" points="206.6,336.8 218.9,343.9 218.5,345.2 206.1,338.1 				"/>
				<polygon id="XMLID_18415_" class="st6" points="219.8,344.4 229.8,350.2 229.4,351.4 219.4,345.7 				"/>
				<polygon id="XMLID_18414_" class="st6" points="218.6,340.3 230.9,347.4 230.5,348.6 218.1,341.5 				"/>
				<polygon id="XMLID_18413_" class="st6" points="212.5,333.1 219.1,336.8 218.6,338.1 212.1,334.3 				"/>
				<polygon id="XMLID_18412_" class="st6" points="220,337.5 231.9,344.3 231.5,345.5 219.6,338.7 				"/>
				<polygon id="XMLID_18411_" class="st6" points="192,328.4 194.7,329.9 194.2,331.2 191.5,329.6 				"/>
				<polygon id="XMLID_18410_" class="st60" points="202.8,334.6 205.5,336.2 205,337.4 202.3,335.9 				"/>
				<polygon id="XMLID_18409_" class="st60" points="195.5,330.4 202,334.2 201.6,335.4 195,331.6 				"/>
				<polygon id="XMLID_18408_" class="st60" points="212.4,343.7 219,347.5 218.5,348.7 212,345 				"/>
				<polygon id="XMLID_18407_" class="st60" points="219.7,347.9 228.8,353.2 228.3,354.4 219.3,349.2 				"/>
				<polygon id="XMLID_18406_" class="st6" points="190.9,331.3 197.4,335.1 197,336.4 190.4,332.6 				"/>
				<polygon id="XMLID_18405_" class="st6" points="198.6,335.8 211.2,343 210.7,344.2 198.2,337 				"/>
			</g>
			<g id="XMLID_18390_">
				<polygon id="XMLID_18403_" class="st60" points="317.1,309.6 313.7,311.5 314.2,312.8 317.5,310.8 				"/>
				<polygon id="XMLID_18402_" class="st60" points="310.7,316.9 309.2,317.8 309.7,319.1 311.1,318.2 				"/>
				<polygon id="XMLID_18401_" class="st60" points="308.4,318.3 307,319.2 307.4,320.4 308.9,319.5 				"/>
				<polygon id="XMLID_18400_" class="st6" points="318.2,312.5 311.4,316.5 311.9,317.7 318.7,313.7 				"/>
				<polygon id="XMLID_18399_" class="st6" points="319.3,315.6 305.8,323.3 306.2,324.6 319.8,316.8 				"/>
				<polygon id="XMLID_18398_" class="st6" points="304.9,323.9 294.9,329.6 295.3,330.8 305.3,325.1 				"/>
				<polygon id="XMLID_18397_" class="st6" points="306.1,319.7 293.8,326.8 294.2,328 306.6,320.9 				"/>
				<polygon id="XMLID_18396_" class="st6" points="312.2,312.5 305.6,316.2 306.1,317.5 312.6,313.7 				"/>
				<polygon id="XMLID_18395_" class="st6" points="304.6,316.9 292.8,323.7 293.2,324.9 305.1,318.1 				"/>
				<polygon id="XMLID_18394_" class="st60" points="312.9,322.8 309.8,324.6 310.3,325.8 313.3,324 				"/>
				<polygon id="XMLID_18393_" class="st60" points="309.1,325 308.3,325.4 308.8,326.7 309.6,326.2 				"/>
				<polygon id="XMLID_18392_" class="st6" points="307.3,326 295.9,332.6 296.4,333.8 307.7,327.2 				"/>
				<polygon id="XMLID_18391_" class="st6" points="320.4,318.4 313.5,322.4 314,323.6 320.8,319.7 				"/>
			</g>
			<g id="XMLID_18383_">
				<g id="XMLID_18386_">
					<path id="XMLID_18387_" class="st127" d="M327.9,316.2c-0.8,0-1.6-0.2-2.3-0.6c-1.4-0.7-2.4-2.1-2.8-3.8
						c-0.8-3.2,0.9-6.7,3.8-7.8c1.4-0.5,2.8-0.4,4.1,0.3c1.4,0.7,2.4,2.1,2.8,3.8l0,0c0.8,3.2-0.9,6.7-3.8,7.8
						C329.1,316.1,328.5,316.2,327.9,316.2z M328.3,305.9c-0.3,0-0.7,0.1-1,0.2c-1.9,0.7-3,3-2.4,5.2c0.3,1.1,0.9,2,1.7,2.4
						c0.7,0.4,1.5,0.4,2.3,0.1c1.9-0.7,3-3,2.4-5.2l0,0c-0.3-1.1-0.9-2-1.7-2.4C329.2,306,328.8,305.9,328.3,305.9z"/>
				</g>
				<g id="XMLID_18384_">
					<linearGradient id="XMLID_27_" gradientUnits="userSpaceOnUse" x1="322.7636" y1="309.9625" x2="333.6589" y2="309.9625">
						<stop  offset="0" style="stop-color:#FFA744"/>
						<stop  offset="0.1634" style="stop-color:#FFA948"/>
						<stop  offset="0.3328" style="stop-color:#FFAF55"/>
						<stop  offset="0.5049" style="stop-color:#FFB969"/>
						<stop  offset="0.6789" style="stop-color:#FFC786"/>
						<stop  offset="0.8526" style="stop-color:#FFD9AB"/>
						<stop  offset="1" style="stop-color:#FFEBD1"/>
					</linearGradient>
					<path id="XMLID_18385_" class="st128" d="M327.9,316.2c-0.8,0-1.6-0.2-2.3-0.6c-1.4-0.7-2.4-2.1-2.8-3.8
						c-0.1-0.6,0.2-1.2,0.8-1.3c0.6-0.1,1.2,0.2,1.3,0.8c0.3,1.1,0.9,2,1.7,2.4c0.7,0.4,1.5,0.4,2.3,0.1c1.9-0.7,3-3,2.4-5.2
						c-0.3-1.1-0.9-2-1.7-2.4c-0.7-0.4-1.5-0.4-2.3-0.1c-0.6,0.2-1.2-0.1-1.4-0.6c-0.2-0.6,0.1-1.2,0.6-1.4c1.4-0.5,2.8-0.4,4.1,0.3
						c1.4,0.7,2.4,2.1,2.8,3.8c0.8,3.2-0.9,6.7-3.8,7.8C329.1,316.1,328.5,316.2,327.9,316.2z"/>
				</g>
			</g>
			<g id="XMLID_18195_">
				<g>
					<g>
						<defs>
							<path id="XMLID_52_" d="M242.9,242.1l-49.7,28.7c-1.4,0.8-1.4,2.8,0,3.6l49.7,28.7c1.3,0.8,2.9,0.8,4.3,0l49.7-28.7
								c1.4-0.8,1.4-2.8,0-3.6l-49.7-28.7C245.8,241.3,244.2,241.3,242.9,242.1z"/>
						</defs>
						<clipPath id="XMLID_28_">
							<use xlink:href="#XMLID_52_"  style="overflow:visible;"/>
						</clipPath>
					</g>
				</g>
				<g>
					<path id="XMLID_51_" class="st124" d="M242.9,242.1l-49.7,28.7c-1.4,0.8-1.4,2.8,0,3.6l49.7,28.7c1.3,0.8,2.9,0.8,4.3,0
						l49.7-28.7c1.4-0.8,1.4-2.8,0-3.6l-49.7-28.7C245.8,241.3,244.2,241.3,242.9,242.1z"/>
					<g>
						<polygon class="st129" points="245,104 244.2,106.6 244.2,183.4 245,184.2 280.6,163.1 						"/>
						<polygon class="st130" points="245,104 209.4,163.1 245,184.2 245,146.9 						"/>
						<polygon class="st131" points="245,190.9 244.6,191.4 244.6,218.8 245,220.1 280.6,169.9 						"/>
						<polygon class="st130" points="245,220.1 245,190.9 209.4,169.9 						"/>
						<polygon class="st132" points="245,184.2 280.6,163.1 245,146.9 						"/>
						<polygon class="st133" points="209.4,163.1 245,184.2 245,146.9 						"/>
					</g>
					<g id="XMLID_49_">
						<g>
							<linearGradient id="XMLID_29_" gradientUnits="userSpaceOnUse" x1="245.0001" y1="303.7243" x2="245.0001" y2="150.0866">
								<stop  offset="0" style="stop-color:#FFA744;stop-opacity:0.7"/>
								<stop  offset="4.740834e-02" style="stop-color:#FDAE59;stop-opacity:0.6668"/>
								<stop  offset="0.1611" style="stop-color:#FABC85;stop-opacity:0.5872"/>
								<stop  offset="0.2801" style="stop-color:#F7C9AA;stop-opacity:0.5039"/>
								<stop  offset="0.4031" style="stop-color:#F4D3C9;stop-opacity:0.4179"/>
								<stop  offset="0.5313" style="stop-color:#F2DBE1;stop-opacity:0.3281"/>
								<stop  offset="0.667" style="stop-color:#F1E1F2;stop-opacity:0.2331"/>
								<stop  offset="0.8154" style="stop-color:#F0E4FC;stop-opacity:0.1292"/>
								<stop  offset="1" style="stop-color:#F0E5FF;stop-opacity:0"/>
							</linearGradient>
							<path id="XMLID_50_" class="st134" d="M192.1,150.1c0,0,0,121.8,0,122.5c0,0.7,0.3,1.4,1.1,1.8l49.7,28.7
								c1.3,0.8,2.9,0.8,4.3,0l49.7-28.7c0.7-0.4,1.1-1.1,1.1-1.8c0-0.7,0-122.5,0-122.5H192.1z"/>
						</g>
					</g>
					<g>
						<defs>
							<path id="XMLID_47_" d="M242.9,242.1l-49.7,28.7c-1.4,0.8-1.4,2.8,0,3.6l49.7,28.7c1.3,0.8,2.9,0.8,4.3,0l49.7-28.7
								c1.4-0.8,1.4-2.8,0-3.6l-49.7-28.7C245.8,241.3,244.2,241.3,242.9,242.1z"/>
						</defs>
						<clipPath id="XMLID_30_">
							<use xlink:href="#XMLID_47_"  style="overflow:visible;"/>
						</clipPath>
						<radialGradient id="XMLID_31_" cx="245.0001" cy="274.6924" r="43.4083" gradientUnits="userSpaceOnUse">
							<stop  offset="0" style="stop-color:#FFFFFF"/>
							<stop  offset="1" style="stop-color:#FFA744"/>
						</radialGradient>
						<path id="XMLID_48_" class="st135" d="M242.9,244.2l-49.7,28.7c-1.4,0.8-1.4,2.8,0,3.6l49.7,28.7c1.3,0.8,2.9,0.8,4.3,0
							l49.7-28.7c1.4-0.8,1.4-2.8,0-3.6l-49.7-28.7C245.8,243.4,244.2,243.4,242.9,244.2z"/>
					</g>
				</g>
				<g>
					<g>
						<defs>
							<path id="XMLID_42_" d="M242.9,242.1l-49.7,28.7c-1.4,0.8-1.4,2.8,0,3.6l49.7,28.7c1.3,0.8,2.9,0.8,4.3,0l49.7-28.7
								c1.4-0.8,1.4-2.8,0-3.6l-49.7-28.7C245.8,241.3,244.2,241.3,242.9,242.1z"/>
						</defs>
						<clipPath id="XMLID_32_">
							<use xlink:href="#XMLID_42_"  style="overflow:visible;"/>
						</clipPath>
					</g>
				</g>
			</g>
			<g>
				<linearGradient id="XMLID_33_" gradientUnits="userSpaceOnUse" x1="245.0001" y1="283.4419" x2="245.0001" y2="249.5789">
					<stop  offset="0" style="stop-color:#FFFFFF;stop-opacity:0.7"/>
					<stop  offset="1" style="stop-color:#F0E5FF;stop-opacity:0"/>
				</linearGradient>
				<path id="XMLID_18194_" class="st136" d="M193.1,250c-1.4,0.8-1.4,2.8,0,3.6l49.7,28.7c1.3,0.8,2.9,0.8,4.3,0l49.7-28.7
					c1.4-0.8,1.4-2.8,0-3.6"/>
				<linearGradient id="XMLID_34_" gradientUnits="userSpaceOnUse" x1="245.0001" y1="262.6595" x2="245.0001" y2="228.7965">
					<stop  offset="0" style="stop-color:#FFFFFF;stop-opacity:0.7"/>
					<stop  offset="1" style="stop-color:#F0E5FF;stop-opacity:0"/>
				</linearGradient>
				<path id="XMLID_18193_" class="st137" d="M193.1,229.2c-1.4,0.8-1.4,2.8,0,3.6l49.7,28.7c1.3,0.8,2.9,0.8,4.3,0l49.7-28.7
					c1.4-0.8,1.4-2.8,0-3.6"/>
				<linearGradient id="XMLID_35_" gradientUnits="userSpaceOnUse" x1="245.0001" y1="241.877" x2="245.0001" y2="208.0141">
					<stop  offset="0" style="stop-color:#FFFFFF;stop-opacity:0.7"/>
					<stop  offset="1" style="stop-color:#F0E5FF;stop-opacity:0"/>
				</linearGradient>
				<path id="XMLID_18189_" class="st138" d="M193.1,208.4c-1.4,0.8-1.4,2.8,0,3.6l49.7,28.7c1.3,0.8,2.9,0.8,4.3,0l49.7-28.7
					c1.4-0.8,1.4-2.8,0-3.6"/>
				<linearGradient id="XMLID_36_" gradientUnits="userSpaceOnUse" x1="245.0001" y1="221.0946" x2="245.0001" y2="187.2316">
					<stop  offset="0" style="stop-color:#FFFFFF;stop-opacity:0.7"/>
					<stop  offset="1" style="stop-color:#F0E5FF;stop-opacity:0"/>
				</linearGradient>
				<path id="XMLID_18188_" class="st139" d="M193.1,187.7c-1.4,0.8-1.4,2.8,0,3.6l49.7,28.7c1.3,0.8,2.9,0.8,4.3,0l49.7-28.7
					c1.4-0.8,1.4-2.8,0-3.6"/>
				<linearGradient id="XMLID_37_" gradientUnits="userSpaceOnUse" x1="245.0001" y1="200.3122" x2="245.0001" y2="166.4492">
					<stop  offset="0" style="stop-color:#FFFFFF;stop-opacity:0.7"/>
					<stop  offset="1" style="stop-color:#F0E5FF;stop-opacity:0"/>
				</linearGradient>
				<path id="XMLID_18183_" class="st140" d="M193.1,166.9c-1.4,0.8-1.4,2.8,0,3.6l49.7,28.7c1.3,0.8,2.9,0.8,4.3,0l49.7-28.7
					c1.4-0.8,1.4-2.8,0-3.6"/>
			</g>
		</g>
	</g>
</g>
</svg>
