<svg xmlns="http://www.w3.org/2000/svg" xmlns:xlink="http://www.w3.org/1999/xlink" id="Layer_1" x="0" y="0" enable-background="new 0 0 490 490" version="1.1" viewBox="0 0 490 490" xml:space="preserve"><style type="text/css">.st0{fill:#fff;stroke:#bdafd6;stroke-width:2;stroke-miterlimit:10}.st1{opacity:.5}.st2{fill:none;stroke:#bdafd6;stroke-width:2;stroke-linecap:round;stroke-linejoin:round;stroke-dasharray:.1,4}.st3{fill:#bdafd6}.st4{fill:#fff}.st5{opacity:.6}.st5,.st6,.st7{enable-background:new}.st6{opacity:.45}.st7{opacity:.8}.st8{fill:#1a53f0}.st9{clip-path:url(#SVGID_2_)}.st10{fill:url(#SVGID_3_)}.st11{fill:url(#SVGID_4_)}.st12{stroke:#7e44d8}.st12,.st13,.st14{fill:none;stroke-width:.2002;stroke-miterlimit:10}.st13{stroke:#c2a3ff}.st14{stroke:#fff}.st15{fill:url(#SVGID_5_)}.st16{fill:url(#SVGID_6_)}.st17{fill:url(#SVGID_7_)}.st18{fill:url(#SVGID_8_)}.st19{fill:url(#SVGID_9_)}.st20{fill:url(#SVGID_10_)}.st21{fill:url(#SVGID_11_)}.st22{fill:url(#SVGID_12_)}.st23{fill:url(#SVGID_13_)}.st24{fill:url(#SVGID_14_)}.st25{fill:url(#SVGID_15_)}.st26{fill:url(#SVGID_16_)}.st27{fill:url(#SVGID_17_)}.st28{fill:url(#SVGID_18_)}.st29{fill:url(#SVGID_19_)}.st30{fill:url(#SVGID_20_)}.st31{fill:url(#SVGID_21_)}.st32{fill:url(#SVGID_22_)}.st33{fill:url(#SVGID_23_)}.st34{fill:url(#SVGID_24_)}.st35{fill:url(#SVGID_25_)}.st36{fill:url(#SVGID_26_)}.st37{fill:url(#SVGID_27_)}.st38{opacity:.7;fill:url(#SVGID_28_)}.st39{fill:url(#SVGID_29_)}</style><g><path d="M189.1,200.7H54.4c-6.6,0-12-5.4-12-12v-134c0-6.6,5.4-12,12-12h134.7c6.6,0,12,5.4,12,12v134 C201.1,195.3,195.7,200.7,189.1,200.7z" class="st0"/><path d="M435.6,200.7H300.9c-6.6,0-12-5.4-12-12v-134c0-6.6,5.4-12,12-12h134.7c6.6,0,12,5.4,12,12v134 C447.6,195.3,442.2,200.7,435.6,200.7z" class="st0"/><path d="M312.4,447.4H177.6c-6.6,0-12-5.4-12-12v-134c0-6.6,5.4-12,12-12h134.7c6.6,0,12,5.4,12,12v134 C324.4,442,319,447.4,312.4,447.4z" class="st0"/><g class="st1"><g><polyline points="121.8 220.9 121.8 368.4 137.5 368.4" class="st2"/><g><rect width="13" height="2" x="115.3" y="219.9" class="st3"/></g><g><g><circle cx="137.1" cy="368.4" r="7.5" class="st4"/><path d="M137.1,376.9c-4.7,0-8.5-3.8-8.5-8.5s3.8-8.5,8.5-8.5c4.7,0,8.5,3.8,8.5,8.5S141.8,376.9,137.1,376.9 C132.4,376.9,141.8,376.9,137.1,376.9z M137.1,361.8c-3.6,0-6.5,2.9-6.5,6.5s2.9,6.5,6.5,6.5c3.6,0,6.5-2.9,6.5-6.5 S140.6,361.8,137.1,361.8C133.5,361.8,140.6,361.8,137.1,361.8z" class="st3"/></g></g></g></g><g class="st1"><g><polyline points="368.2 228 368.2 368.4 345.4 368.4" class="st2"/><g><g><circle cx="368.2" cy="228.5" r="7.5" class="st4"/><path d="M359.7,228.5c0,4.7,3.8,8.5,8.5,8.5s8.5-3.8,8.5-8.5c0-4.7-3.8-8.5-8.5-8.5S359.7,223.8,359.7,228.5 C359.7,233.2,359.7,223.8,359.7,228.5z M374.7,228.5c0,3.6-2.9,6.5-6.5,6.5s-6.5-2.9-6.5-6.5c0-3.6,2.9-6.5,6.5-6.5 S374.7,224.9,374.7,228.5C374.7,232.1,374.7,224.9,374.7,228.5z" class="st3"/></g></g><g><rect width="2" height="13" x="344.4" y="361.9" class="st3"/></g></g></g><g><polygon points="368.2 108.6 337.5 122.6 368.2 140.7 398.9 122.6" class="st5"/><polygon points="337.5 122.6 368.2 140.7 368.2 108.6 368.2 71.6" class="st6"/><polygon points="368.2 71.6 368.2 108.6 368.2 140.7 398.9 122.6" class="st7"/><polygon points="337.5 128.4 368.2 171.6 368.2 146.5" class="st6"/><polygon points="368.2 146.5 368.2 171.6 398.9 128.4" class="st7"/></g><g id="Group_1_" transform="translate(77.987179, 6.689781)"><path id="Shape_5_" d="M18.2,116.6c-13.2,0-24,10.8-24,24.2s10.7,24.2,24,24.2s24-10.8,24-24.2S31.4,116.6,18.2,116.6 z M18.2,157.6c-9.2,0-16.7-7.5-16.7-16.9s7.5-16.9,16.7-16.9s16.7,7.5,16.7,16.9C34.9,150.1,27.4,157.6,18.2,157.6L18.2,157.6z" class="st8"/><path id="Shape_6_" d="M69.4,64.9c-9.7,0-18.4,5.9-22.1,14.9s-1.6,19.4,5.2,26.4s17.2,9,26.1,5.2s14.8-12.6,14.8-22.3 C93.4,75.8,82.6,64.9,69.4,64.9L69.4,64.9z M69.4,106c-9.2,0-16.7-7.5-16.7-16.9s7.5-16.9,16.7-16.9s16.7,7.5,16.7,16.9 C86.1,98.4,78.6,106,69.4,106L69.4,106z" class="st8"/><path id="Shape_7_" d="M18.2,64.9L18.2,64.9C6.8,64.9-3,73-5.3,84.3s3.7,22.6,14.2,27.1s22.7,0.8,29.1-8.6 s5.3-22.3-2.6-30.5h6.8v-7.3H18.2z M34.9,89.1c0,9.3-7.5,16.9-16.7,16.9S1.5,98.5,1.5,89.1S9,72.3,18.2,72.3 C27.4,72.3,34.9,79.8,34.9,89.1L34.9,89.1z" class="st8"/></g><g><defs><circle id="SVGID_1_" cx="244.9" cy="368.2" r="50"/></defs><clipPath id="SVGID_2_"><use overflow="visible" xlink:href="#SVGID_1_"/></clipPath><g class="st9"><radialGradient id="SVGID_3_" cx="244.887" cy="368.214" r="50" gradientUnits="userSpaceOnUse"><stop offset="0" stop-color="#F0E7FF"/><stop offset=".075" stop-color="#EEE5FE"/><stop offset=".102" stop-color="#E8DEF8"/><stop offset=".122" stop-color="#DDD3EF"/><stop offset=".138" stop-color="#CEC2E2"/><stop offset=".151" stop-color="#BAACD0"/><stop offset=".163" stop-color="#A190BB"/><stop offset=".173" stop-color="#8470A2"/><stop offset=".183" stop-color="#614A84"/><stop offset=".192" stop-color="#3C2164"/><stop offset=".195" stop-color="#2F1359"/><stop offset=".322" stop-color="#32155E"/><stop offset=".469" stop-color="#3B1A6C"/><stop offset=".627" stop-color="#492383"/><stop offset=".793" stop-color="#5E30A4"/><stop offset=".962" stop-color="#7840CE"/><stop offset="1" stop-color="#7E44D8"/></radialGradient><circle cx="244.9" cy="368.2" r="50" class="st10"/><radialGradient id="SVGID_4_" cx="244.887" cy="368.214" r="8.297" gradientUnits="userSpaceOnUse"><stop offset="0" stop-color="#7E44D8" stop-opacity=".8"/><stop offset=".341" stop-color="#7F46D8" stop-opacity=".879"/><stop offset=".464" stop-color="#844DDA" stop-opacity=".908"/><stop offset=".552" stop-color="#8C58DC" stop-opacity=".928"/><stop offset=".623" stop-color="#9869E0" stop-opacity=".945"/><stop offset=".683" stop-color="#A77FE4" stop-opacity=".959"/><stop offset=".737" stop-color="#BA9BEA" stop-opacity=".971"/><stop offset=".786" stop-color="#D0BBF1" stop-opacity=".983"/><stop offset=".829" stop-color="#E9DFF8" stop-opacity=".993"/><stop offset=".861" stop-color="#FFF"/></radialGradient><circle cx="244.9" cy="368.2" r="8.3" class="st11"/><g><g><g><path d="M247.7,366.8c-0.1-1.1-0.1-2.2,0-3.2c0.1-1.1,0.3-2.2,0.7-3.2c0.4-1,1.1-2,1.9-2.8 c0.9-0.8,1.9-1.3,2.9-1.7c1-0.4,2.1-0.7,3.1-0.9c1-0.2,2.1-0.4,3.1-0.6c2.1-0.3,4.1-0.7,6.1-1.3c2-0.6,3.9-1.4,5.6-2.6 c1.7-1.2,3-2.7,4-4.5c2-3.6,2.9-7.9,2.3-11.9" class="st12"/><path d="M247.9,366.8c-0.1-1.1-0.1-2.1,0-3.2c0.1-1.1,0.3-2.2,0.7-3.2c0.4-1,1.1-2,1.9-2.7 c0.8-0.7,1.8-1.3,2.8-1.6c1-0.4,2-0.7,3.1-0.9c1-0.2,2.1-0.4,3.1-0.6c2.1-0.4,4.2-0.7,6.2-1.3c2-0.6,4-1.4,5.6-2.6 c1.7-1.2,3.1-2.8,4.1-4.6c2-3.6,2.9-7.9,2.3-12" class="st13"/><path d="M248.1,366.8c-0.1-1.1-0.1-2.1,0-3.2c0.1-1.1,0.3-2.1,0.7-3.1c0.4-1,1-1.9,1.8-2.6 c0.8-0.7,1.8-1.2,2.8-1.6c1-0.4,2-0.7,3.1-0.9c1-0.2,2.1-0.4,3.1-0.6c2.1-0.4,4.2-0.7,6.2-1.3c2-0.6,4-1.4,5.7-2.6 c1.7-1.2,3.1-2.8,4.2-4.7c2-3.7,2.9-8,2.3-12.2" class="st14"/><path d="M248.3,366.7c-0.1-1-0.1-2.1,0-3.2c0.1-1,0.3-2.1,0.7-3.1c0.4-1,1-1.8,1.8-2.5c0.8-0.7,1.7-1.2,2.7-1.6 c1-0.4,2-0.7,3-0.9c1-0.2,2.1-0.4,3.1-0.6c2.1-0.4,4.2-0.7,6.2-1.3c2-0.6,4-1.4,5.8-2.6c1.7-1.2,3.2-2.9,4.2-4.7 c0.5-0.9,1-1.9,1.3-2.9c0.4-1,0.6-2,0.9-3.1c0.4-2.1,0.5-4.2,0.2-6.3" class="st14"/><path d="M248.5,366.7c-0.1-1-0.1-2.1,0-3.1c0.1-1,0.3-2.1,0.7-3c0.4-0.9,1-1.8,1.7-2.5c0.8-0.7,1.7-1.2,2.6-1.5 c1-0.4,2-0.6,3-0.9c1-0.2,2.1-0.4,3.1-0.6c2.1-0.4,4.2-0.7,6.2-1.3c2-0.6,4.1-1.4,5.8-2.7c1.8-1.2,3.2-2.9,4.3-4.8 c0.5-0.9,1-1.9,1.3-2.9c0.4-1,0.7-2,0.9-3.1c0.4-2.1,0.5-4.3,0.2-6.4" class="st13"/><path d="M248.7,366.7c-0.1-1-0.1-2.1,0-3.1c0.1-1,0.3-2,0.7-2.9c0.4-0.9,0.9-1.7,1.7-2.4 c0.7-0.7,1.6-1.1,2.6-1.5c0.9-0.4,1.9-0.6,3-0.9c1-0.2,2-0.4,3.1-0.6c2.1-0.4,4.2-0.7,6.3-1.3c2.1-0.6,4.1-1.4,5.9-2.7 c0.9-0.6,1.7-1.4,2.4-2.2c0.7-0.8,1.4-1.7,1.9-2.7c0.5-0.9,1-1.9,1.3-3c0.4-1,0.7-2.1,0.9-3.1c0.4-2.1,0.5-4.3,0.2-6.5" class="st12"/></g></g></g><g><g><g><path d="M242.1,363.2c0.6-1,0.9-2.1,1.1-3.2c0.1-1.1,0-2.3-0.3-3.4c-0.6-2.2-1.9-4.2-3.7-5.7 c-1.7-1.5-3.9-2.5-6.2-2.8c-0.6-0.1-1.1-0.1-1.7,0c-0.6,0-1.2,0.1-1.7,0.2c-0.5,0.1-1.1,0.3-1.5,0.6c-0.5,0.3-0.9,0.6-1.3,1" class="st12"/><path d="M242.3,363.3c0.6-1,1-2.1,1.1-3.2c0.1-1.1,0-2.3-0.3-3.4c-0.6-2.2-2-4.2-3.7-5.8c-1.8-1.5-4-2.6-6.3-2.8 c-0.6-0.1-1.2-0.1-1.7,0c-0.6,0-1.2,0.1-1.7,0.2c-0.6,0.1-1.1,0.3-1.6,0.6c-0.5,0.3-0.9,0.6-1.4,1" class="st13"/><path d="M242.4,363.4c0.6-1,1-2.2,1.1-3.3c0.1-1.2,0-2.4-0.3-3.5c-0.6-2.3-2-4.3-3.8-5.9c-1.8-1.5-4-2.6-6.4-2.9 c-0.6-0.1-1.2-0.1-1.8,0c-0.6,0-1.2,0.1-1.8,0.2c-0.6,0.1-1.1,0.3-1.6,0.6c-0.5,0.3-1,0.6-1.4,1.1" class="st14"/><path d="M242.6,363.5c0.6-1,1-2.2,1.1-3.4c0.1-1.2,0-2.4-0.3-3.6c-0.6-2.3-2.1-4.4-3.9-6 c-1.8-1.6-4.1-2.7-6.5-2.9c-0.6-0.1-1.2-0.1-1.8,0c-0.6,0-1.2,0.1-1.8,0.2c-0.6,0.1-1.2,0.3-1.7,0.6c-0.5,0.3-1,0.7-1.4,1.1" class="st14"/><path d="M242.8,363.6c0.6-1.1,1-2.3,1.2-3.5c0.1-1.2,0-2.5-0.3-3.7c-0.7-2.4-2.1-4.5-3.9-6.1 c-1.8-1.6-4.1-2.7-6.6-3c-0.6-0.1-1.2-0.1-1.8,0c-0.6,0-1.2,0.1-1.8,0.2c-0.6,0.1-1.2,0.3-1.8,0.6c-0.5,0.3-1,0.7-1.5,1.1" class="st13"/><path d="M242.9,363.7c0.6-1.1,1-2.3,1.2-3.6c0.1-1.3,0-2.5-0.3-3.7c-0.7-2.4-2.1-4.5-4-6.2 c-1.9-1.6-4.2-2.7-6.7-3c-0.6-0.1-1.2-0.1-1.9,0c-0.6,0-1.2,0.1-1.8,0.2c-0.6,0.1-1.2,0.3-1.8,0.7c-0.6,0.3-1.1,0.7-1.5,1.1" class="st12"/></g></g></g><g><g><g><path d="M246.9,371.7c0.5,0,0.9,0.2,1.3,0.5c0.4,0.3,0.6,0.6,0.8,1c0.4,0.7,0.6,1.5,0.8,2.2 c0.3,1.5,0.4,3,0.4,4.5c0,3-0.2,5.9-0.3,8.8c0,0.7-0.1,1.5-0.1,2.2c0,0.7,0,1.4,0.1,2.1c0.2,1.4,0.8,2.7,1.6,3.8 c0.8,1.2,1.8,2.2,2.8,3.2c0.1,0.1,0.3,0.3,0.4,0.4c0.1,0.1,0.3,0.2,0.4,0.3c0.3,0.2,0.6,0.4,0.9,0.6c0.6,0.4,1.2,0.8,1.9,1.2" class="st12"/><path d="M246.9,371.9c0.4,0,0.8,0.2,1.2,0.5c0.3,0.3,0.6,0.6,0.8,0.9c0.4,0.7,0.6,1.4,0.7,2.2 c0.3,1.5,0.4,3,0.4,4.4c0,3-0.2,5.9-0.3,8.8c0,0.7-0.1,1.5-0.1,2.2c0,0.7,0,1.5,0.1,2.2c0.2,1.4,0.8,2.7,1.6,3.9 c0.8,1.2,1.8,2.3,2.8,3.3c0.5,0.5,1.1,0.9,1.7,1.3c0.6,0.4,1.2,0.8,1.9,1.2" class="st13"/><path d="M246.9,372c0.4,0,0.8,0.2,1.1,0.4c0.3,0.2,0.5,0.5,0.7,0.9c0.4,0.7,0.6,1.4,0.7,2.1 c0.3,1.5,0.4,2.9,0.4,4.4c0,2.9-0.2,5.9-0.3,8.8c0,0.7-0.1,1.5-0.1,2.2c0,0.7,0,1.5,0.1,2.2c0.2,1.4,0.8,2.8,1.6,4 c0.8,1.2,1.8,2.3,2.9,3.3c0.5,0.5,1.1,1,1.7,1.4c0.6,0.4,1.2,0.8,1.9,1.2" class="st14"/><path d="M246.9,372.2c0.3,0,0.7,0.2,1,0.4c0.3,0.2,0.5,0.5,0.7,0.8c0.4,0.6,0.5,1.3,0.7,2 c0.3,1.4,0.4,2.9,0.4,4.4c0,2.9-0.2,5.9-0.3,8.8c0,0.7-0.1,1.5-0.1,2.2c0,0.7,0,1.5,0.1,2.2c0.2,1.5,0.9,2.9,1.7,4.1 c0.8,1.2,1.8,2.3,2.9,3.3c0.5,0.5,1.1,1,1.7,1.4c0.6,0.4,1.2,0.8,1.9,1.2" class="st14"/><path d="M246.8,372.4c0.3,0,0.6,0.2,0.9,0.4c0.2,0.2,0.5,0.5,0.6,0.8c0.3,0.6,0.5,1.3,0.7,2 c0.3,1.4,0.3,2.9,0.4,4.3c0,2.9-0.2,5.9-0.3,8.8c0,0.7-0.1,1.5-0.1,2.2c0,0.7,0,1.5,0.1,2.2c0.2,1.5,0.9,2.9,1.7,4.2 c0.8,1.3,1.9,2.4,2.9,3.4c0.5,0.5,1.1,1,1.8,1.4c0.6,0.4,1.3,0.8,1.9,1.2" class="st13"/><path d="M246.8,372.6c0.3,0,0.5,0.1,0.8,0.3c0.2,0.2,0.4,0.4,0.6,0.7c0.3,0.6,0.5,1.2,0.7,1.9 c0.3,1.4,0.3,2.8,0.4,4.3c0,2.9-0.2,5.8-0.3,8.8c0,0.7-0.1,1.5-0.1,2.2c0,0.7,0,1.5,0.1,2.3c0.2,1.5,0.9,3,1.7,4.2 c0.8,1.3,1.9,2.4,3,3.4c0.1,0.1,0.3,0.3,0.4,0.4c0.1,0.1,0.3,0.3,0.4,0.4c0.3,0.2,0.6,0.5,0.9,0.7c0.6,0.4,1.3,0.8,1.9,1.2" class="st12"/></g></g></g><g><g><g><path d="M241.7,371c-1.2-0.8-2.4-1.4-3.7-1.8c-0.6-0.2-1.3-0.2-1.9-0.2c-0.6,0.1-1.3,0.3-1.8,0.6 c-1.1,0.7-2.1,1.7-3.1,2.7c-0.5,0.5-1,1-1.5,1.5c-0.3,0.3-0.5,0.5-0.8,0.7l-0.8,0.7c-0.5,0.5-1,1-1.6,1.5 c-0.5,0.5-1.1,1-1.9,1.3c-0.7,0.3-1.5,0.4-2.2,0.5c-0.7,0.1-1.4,0.1-2.2,0.1c-0.7,0-1.4,0-2.1,0c-0.7,0-1.4,0-2.2,0 c-1.4-0.1-2.9-0.1-4.3-0.2" class="st12"/><path d="M241.8,370.8c-1.2-0.8-2.4-1.4-3.7-1.8c-0.7-0.2-1.3-0.3-2-0.2c-0.7,0.1-1.3,0.3-1.9,0.6 c-0.6,0.3-1.1,0.8-1.6,1.2c-0.5,0.5-1,1-1.5,1.5c-0.5,0.5-1,1-1.5,1.5c-0.3,0.3-0.5,0.5-0.8,0.7l-0.8,0.7 c-0.5,0.5-1,1-1.6,1.5c-0.5,0.5-1.1,1-1.8,1.3c-0.7,0.3-1.5,0.4-2.2,0.5c-0.7,0.1-1.4,0.1-2.2,0.1c-0.7,0-1.4,0-2.1,0 c-0.7,0-1.4,0-2.1,0c-1.4-0.1-2.9-0.1-4.3-0.2" class="st13"/><path d="M241.9,370.7c-1.2-0.8-2.4-1.5-3.8-1.8c-0.7-0.2-1.4-0.3-2.1-0.2c-0.7,0.1-1.4,0.3-2,0.6 c-0.6,0.3-1.2,0.8-1.7,1.3c-0.5,0.5-1,1-1.5,1.5c-0.5,0.5-1,1-1.5,1.5c-0.5,0.5-1,1-1.6,1.5c-0.5,0.5-1,1-1.6,1.5 c-0.5,0.5-1.1,0.9-1.8,1.2c-0.7,0.3-1.4,0.4-2.1,0.5c-0.7,0.1-1.4,0.1-2.1,0.1c-0.7,0-1.4,0-2.1,0c-0.7,0-1.4,0-2.1,0 c-1.4-0.1-2.8-0.1-4.3-0.2" class="st14"/><path d="M242,370.5c-1.2-0.8-2.5-1.5-3.9-1.9c-0.7-0.2-1.4-0.3-2.2-0.2c-0.7,0.1-1.4,0.3-2.1,0.7 c-0.6,0.4-1.2,0.8-1.7,1.3c-0.5,0.5-1,1-1.5,1.5c-0.5,0.5-1,1-1.5,1.5c-0.5,0.5-1,1-1.6,1.5c-0.5,0.5-1,1-1.6,1.4 c-0.5,0.5-1.1,0.9-1.7,1.2c-0.6,0.3-1.3,0.4-2,0.4c-0.7,0.1-1.4,0.1-2.1,0.1c-0.7,0-1.4,0-2.1,0c-0.7,0-1.4,0-2.1,0 c-1.4-0.1-2.8-0.1-4.3-0.2" class="st14"/><path d="M242.2,370.3c-1.2-0.8-2.5-1.5-3.9-1.9c-0.7-0.2-1.5-0.3-2.2-0.2c-0.8,0.1-1.5,0.3-2.1,0.7 c-0.7,0.4-1.2,0.8-1.8,1.3c-0.5,0.5-1,1-1.5,1.5c-0.5,0.5-1,1-1.5,1.5c-0.5,0.5-1,1-1.6,1.5c-0.5,0.5-1,1-1.6,1.4 c-0.5,0.5-1.1,0.9-1.7,1.2c-0.6,0.3-1.3,0.4-2,0.4c-0.7,0.1-1.4,0.1-2.1,0.1c-0.7,0-1.4,0-2.1,0c-0.7,0-1.4,0-2.1,0 c-1.4-0.1-2.8-0.1-4.3-0.2" class="st13"/><path d="M242.3,370.1c-1.2-0.8-2.5-1.5-4-1.9c-0.7-0.2-1.5-0.3-2.3-0.2c-0.8,0.1-1.5,0.3-2.2,0.7 c-0.7,0.4-1.3,0.9-1.8,1.3c-0.5,0.5-1,1-1.5,1.5c-0.5,0.5-1,1-1.5,1.5c-0.3,0.2-0.5,0.5-0.8,0.7l-0.8,0.7 c-0.5,0.5-1,1-1.6,1.4c-0.5,0.5-1,0.9-1.6,1.1c-0.6,0.2-1.2,0.3-1.9,0.4c-0.7,0.1-1.4,0.1-2.1,0.1c-0.7,0-1.4,0-2.1,0 c-0.7,0-1.4,0-2.1,0c-1.4-0.1-2.8-0.1-4.3-0.2" class="st12"/></g></g></g><g><g><g><path d="M244.3,374.7c-0.1,1.1-0.4,2.1-0.8,3.1c-0.4,1-0.9,2-1.5,2.9c-0.6,0.9-1.3,1.7-2.1,2.5 c-0.7,0.8-1.5,1.5-2.3,2.2c-0.7,0.7-1.4,1.5-2,2.3c-0.6,0.8-1.1,1.7-1.5,2.6c-0.4,0.9-0.6,1.9-0.8,2.9c-0.2,1-0.2,2-0.2,3 c0,1,0.2,2,0.3,3.1c0.1,0.5,0.1,1,0.2,1.6c0.1,0.5,0.1,1.1,0,1.6c0,0.6-0.2,1.2-0.5,1.7c-0.3,0.5-0.8,1-1.2,1.3 c-0.5,0.3-1,0.5-1.5,0.7c-0.5,0.2-1.1,0.3-1.6,0.4c-1.1,0.2-2.1,0.3-3.2,0.4c-1.1,0.1-2.1,0.1-3.2,0c-1,0-2.1-0.1-3.1-0.1 c-1,0-2,0.1-3,0.3" class="st12"/><path d="M244.1,374.7c-0.1,1-0.4,2.1-0.8,3.1c-0.4,1-0.9,2-1.5,2.8c-0.6,0.9-1.3,1.7-2,2.4 c-0.7,0.7-1.5,1.5-2.2,2.2c-0.7,0.7-1.4,1.5-2,2.3c-0.6,0.8-1.1,1.7-1.5,2.7c-0.4,0.9-0.7,1.9-0.8,2.9c-0.2,1-0.2,2-0.2,3.1 c0,1,0.2,2.1,0.3,3.1c0.1,0.5,0.1,1,0.2,1.6c0.1,0.5,0.1,1.1,0,1.6c0,0.5-0.2,1.1-0.5,1.6c-0.3,0.5-0.7,0.9-1.2,1.2 c-0.5,0.3-1,0.5-1.5,0.7c-0.5,0.2-1,0.3-1.6,0.4c-1,0.2-2.1,0.3-3.1,0.4c-1,0.1-2.1,0.1-3.2,0c-1,0-2.1-0.1-3.1-0.1 c-1,0-2.1,0.1-3.1,0.3" class="st13"/><path d="M243.9,374.7c-0.1,1-0.4,2.1-0.7,3.1c-0.4,1-0.8,1.9-1.4,2.8c-0.6,0.9-1.3,1.7-2,2.4 c-0.7,0.7-1.5,1.4-2.2,2.2c-0.7,0.7-1.5,1.5-2.1,2.3c-0.6,0.8-1.1,1.7-1.5,2.7c-0.4,1-0.7,2-0.8,3c-0.2,1-0.2,2.1-0.2,3.1 c0,1,0.2,2.1,0.3,3.1c0.1,1,0.3,2.1,0.2,3.1c0,0.5-0.2,1.1-0.4,1.5c-0.3,0.5-0.7,0.9-1.1,1.1c-0.4,0.3-0.9,0.5-1.4,0.7 c-0.5,0.2-1,0.3-1.5,0.4c-1,0.2-2.1,0.3-3.1,0.4c-1,0.1-2.1,0.1-3.1,0c-1,0-2.1-0.1-3.1-0.1c-1,0-2.1,0.1-3.1,0.3" class="st14"/><path d="M243.7,374.6c-0.1,1-0.4,2-0.7,3c-0.4,1-0.8,1.9-1.4,2.8c-0.6,0.9-1.3,1.6-2,2.4 c-0.7,0.7-1.5,1.4-2.2,2.2c-0.7,0.7-1.5,1.5-2.1,2.3c-0.6,0.8-1.1,1.8-1.5,2.7c-0.4,1-0.7,2-0.8,3c-0.2,1-0.2,2.1-0.2,3.1 c0,1,0.2,2.1,0.3,3.1c0.1,1,0.3,2.1,0.2,3.1c0,0.5-0.2,1-0.4,1.5c-0.2,0.4-0.6,0.8-1,1.1c-0.4,0.3-0.9,0.5-1.4,0.6 c-0.5,0.2-1,0.3-1.5,0.4c-1,0.2-2.1,0.3-3.1,0.4c-1,0.1-2.1,0.1-3.1,0c-1,0-2.1-0.1-3.1-0.1c-1,0-2.1,0.1-3.1,0.3" class="st14"/><path d="M243.5,374.6c-0.1,1-0.4,2-0.7,3c-0.3,1-0.8,1.9-1.4,2.7c-0.6,0.8-1.3,1.6-2,2.3 c-0.7,0.7-1.5,1.4-2.2,2.2c-0.7,0.7-1.5,1.5-2.1,2.4c-0.6,0.9-1.2,1.8-1.6,2.8c-0.4,1-0.7,2-0.8,3.1c-0.2,1.1-0.2,2.1-0.2,3.2 c0,1.1,0.2,2.1,0.3,3.1c0.1,1,0.3,2.1,0.2,3c0,0.5-0.1,1-0.4,1.4c-0.2,0.4-0.6,0.7-1,1c-0.8,0.5-1.8,0.8-2.8,1 c-1,0.2-2,0.3-3.1,0.4c-1,0.1-2.1,0.1-3.1,0c-1,0-2.1-0.1-3.1-0.1c-1.1,0-2.1,0.1-3.2,0.3" class="st13"/><path d="M243.3,374.6c-0.1,1-0.4,2-0.7,2.9c-0.3,0.9-0.8,1.8-1.4,2.7c-0.6,0.8-1.2,1.6-2,2.3 c-0.7,0.7-1.5,1.4-2.2,2.2c-0.8,0.7-1.5,1.5-2.1,2.4c-0.6,0.9-1.2,1.8-1.6,2.8c-0.4,1-0.7,2.1-0.9,3.1 c-0.2,1.1-0.2,2.1-0.2,3.2c0,1.1,0.2,2.1,0.3,3.2c0.1,1,0.3,2.1,0.2,3c0,0.5-0.1,0.9-0.4,1.3c-0.2,0.4-0.5,0.7-0.9,0.9 c-0.8,0.5-1.8,0.8-2.8,0.9c-1,0.2-2,0.3-3,0.4c-1,0.1-2,0.1-3.1,0c-1,0-2.1-0.1-3.1-0.1c-1.1,0-2.1,0.1-3.2,0.3" class="st12"/></g></g></g><g><g><g><path d="M241.8,366.6c-2-0.6-4.1-1-6.3-1.1c-2.1-0.2-4.3-0.2-6.4-0.1c-2.2,0.1-4.3,0.2-6.5,0.2 c-2.2,0-4.4,0-6.6-0.4c-1.1-0.2-2.2-0.5-3.2-0.9c-1-0.4-2.1-1-2.9-1.6c-0.9-0.7-1.7-1.5-2.3-2.4c-0.7-0.9-1.2-1.9-1.6-2.9 c-0.4-1-0.8-2.1-1-3.1c-0.1-0.5-0.3-1.1-0.4-1.6c-0.1-0.5-0.2-1.1-0.2-1.6c-0.1-1.1-0.2-2.2-0.4-3.2c-0.2-1-0.4-2.1-0.8-3" class="st12"/><path d="M241.9,366.4c-2-0.6-4.2-1-6.3-1.1c-2.1-0.2-4.3-0.2-6.5-0.1c-2.2,0.1-4.3,0.2-6.5,0.2 c-2.2,0-4.4,0-6.5-0.4c-1.1-0.2-2.2-0.4-3.2-0.9c-1-0.4-2-0.9-2.9-1.6c-0.9-0.7-1.7-1.5-2.3-2.4c-0.6-0.9-1.2-1.9-1.6-2.9 c-0.4-1-0.8-2.1-1-3.1c-0.1-0.5-0.3-1.1-0.4-1.6c-0.1-0.5-0.2-1.1-0.2-1.6c-0.1-1.1-0.2-2.2-0.4-3.2c-0.2-1.1-0.4-2.1-0.8-3.1" class="st13"/><path d="M242,366.2c-2.1-0.6-4.2-1-6.4-1.1c-2.2-0.2-4.3-0.2-6.5-0.1c-2.2,0.1-4.3,0.2-6.5,0.2 c-2.2,0-4.3,0-6.5-0.4c-1.1-0.2-2.1-0.4-3.1-0.8c-1-0.4-2-0.9-2.8-1.6c-0.9-0.7-1.6-1.5-2.3-2.4c-0.6-0.9-1.2-1.9-1.6-2.9 c-0.4-1-0.8-2-1-3.1c-0.1-0.5-0.3-1.1-0.4-1.6c-0.1-0.5-0.2-1.1-0.2-1.6c-0.1-1.1-0.2-2.2-0.4-3.2c-0.2-1.1-0.4-2.1-0.8-3.1" class="st14"/><path d="M242,366c-2.1-0.6-4.2-1-6.4-1.2c-2.2-0.2-4.3-0.2-6.5-0.1c-2.2,0.1-4.3,0.2-6.5,0.2 c-2.2,0-4.3,0-6.5-0.4c-1.1-0.2-2.1-0.4-3.1-0.8c-1-0.4-2-0.9-2.8-1.6c-0.8-0.7-1.6-1.4-2.2-2.3c-0.6-0.9-1.1-1.8-1.6-2.8 c-0.4-1-0.7-2-1-3.1c-0.1-0.5-0.3-1-0.3-1.6c-0.1-0.5-0.2-1.1-0.2-1.6c-0.1-1.1-0.2-2.2-0.4-3.2c-0.2-1.1-0.4-2.1-0.8-3.2" class="st14"/><path d="M242.1,365.9c-2.1-0.6-4.3-1-6.4-1.2c-2.2-0.2-4.3-0.2-6.5-0.1c-2.2,0.1-4.3,0.2-6.5,0.2 c-2.2,0-4.3,0-6.4-0.4c-1.1-0.2-2.1-0.4-3.1-0.8c-1-0.4-1.9-0.9-2.7-1.5c-0.8-0.6-1.6-1.4-2.2-2.3c-0.6-0.9-1.1-1.8-1.5-2.8 c-0.4-1-0.7-2-1-3c-0.1-0.5-0.3-1-0.3-1.6c-0.1-0.5-0.2-1.1-0.2-1.6c-0.1-1.1-0.2-2.1-0.4-3.2c-0.2-1.1-0.4-2.2-0.8-3.2" class="st13"/><path d="M242.1,365.7c-2.1-0.6-4.3-1-6.5-1.2c-2.2-0.2-4.4-0.2-6.5-0.1c-2.2,0.1-4.3,0.2-6.5,0.2 c-2.1,0-4.3,0-6.4-0.3c-2.1-0.3-4.1-1-5.7-2.3c-1.6-1.3-2.8-3-3.7-5c-0.4-1-0.7-2-1-3c-0.1-0.5-0.2-1-0.3-1.5 c-0.1-0.5-0.2-1-0.2-1.6c-0.1-1.1-0.2-2.1-0.4-3.2c-0.2-1.1-0.4-2.2-0.8-3.2" class="st12"/></g></g></g><g><g><g><path d="M244.4,362.1c0.6-0.8,1.1-1.6,1.5-2.5c0.4-0.9,0.6-1.8,0.7-2.8c0.1-1,0.1-1.9-0.1-2.9 c-0.1-1-0.3-1.9-0.6-2.9c-0.4-2-0.9-4-0.9-6.1c0-1,0.1-2.1,0.3-3.1c0.2-1,0.4-2,0.8-3c0.3-1,0.7-1.9,1.1-2.8 c0.4-0.9,0.7-1.8,0.6-2.7c-0.1-0.8-0.7-1.6-1.3-2.3c-0.7-0.7-1.4-1.3-2.2-1.9c-0.4-0.3-0.8-0.6-1.2-0.9 c-0.4-0.3-0.8-0.5-1.2-0.8c-0.9-0.5-1.7-0.9-2.7-1.4c-1.8-0.9-3.7-1.8-5.3-3.1" class="st12"/><path d="M244.6,362.2c0.6-0.8,1.1-1.6,1.5-2.5c0.4-0.9,0.6-1.9,0.8-2.8c0.1-1,0.1-2-0.1-2.9 c-0.1-1-0.3-2-0.6-2.9c-0.4-2-0.9-4-0.9-6c0-1,0.1-2.1,0.3-3.1c0.2-1,0.4-2,0.8-3c0.3-1,0.7-1.9,1.1-2.8 c0.4-0.9,0.7-1.9,0.6-2.8c-0.1-0.9-0.7-1.7-1.4-2.4c-0.7-0.7-1.5-1.3-2.3-1.9c-0.4-0.3-0.8-0.6-1.2-0.9 c-0.4-0.3-0.8-0.5-1.3-0.8c-0.9-0.5-1.8-0.9-2.7-1.4c-1.8-0.9-3.7-1.7-5.3-3" class="st13"/><path d="M244.7,362.3c0.6-0.8,1.1-1.7,1.5-2.6c0.4-0.9,0.7-1.9,0.8-2.9c0.1-1,0.1-2-0.1-3c-0.1-1-0.3-2-0.6-3 c-0.4-2-0.9-3.9-0.9-6c0-1,0.1-2,0.3-3c0.2-1,0.4-2,0.7-2.9c0.3-1,0.7-1.9,1.1-2.8c0.2-0.5,0.4-0.9,0.5-1.4 c0.1-0.5,0.2-1,0.1-1.5c-0.1-0.5-0.2-0.9-0.5-1.4c-0.3-0.4-0.6-0.8-0.9-1.2c-0.7-0.7-1.5-1.4-2.3-2c-0.8-0.6-1.6-1.2-2.5-1.7 c-0.9-0.5-1.8-0.9-2.7-1.4c-1.8-0.9-3.7-1.7-5.2-3" class="st14"/><path d="M244.9,362.5c0.6-0.8,1.1-1.7,1.5-2.6c0.4-0.9,0.7-1.9,0.8-2.9c0.1-1,0.1-2-0.1-3c-0.1-1-0.3-2-0.6-3 c-0.5-2-0.9-3.9-0.9-5.9c0-1,0.1-2,0.3-3c0.2-1,0.4-2,0.7-2.9c0.3-1,0.7-1.9,1.1-2.8c0.2-0.5,0.4-0.9,0.5-1.4 c0.1-0.5,0.2-1,0.1-1.5c-0.1-0.5-0.3-1-0.5-1.4c-0.3-0.4-0.6-0.8-1-1.2c-0.7-0.7-1.5-1.4-2.3-2c-0.8-0.6-1.6-1.2-2.5-1.7 c-0.9-0.5-1.8-1-2.7-1.4c-1.8-0.9-3.6-1.7-5.2-3" class="st14"/><path d="M245,362.6c0.6-0.8,1.2-1.7,1.6-2.7c0.4-0.9,0.7-2,0.8-3c0.1-1,0.1-2.1-0.1-3.1c-0.1-1-0.4-2-0.6-3 c-0.5-2-0.9-3.9-0.9-5.9c0-1,0.1-2,0.3-3c0.2-1,0.4-1.9,0.7-2.9c0.3-0.9,0.7-1.9,1.1-2.8c0.2-0.5,0.4-1,0.5-1.5 c0.1-0.5,0.2-1.1,0.1-1.6c-0.1-0.6-0.3-1.1-0.6-1.5c-0.3-0.5-0.6-0.9-1-1.2c-0.7-0.7-1.5-1.4-2.3-2c-0.4-0.3-0.8-0.6-1.2-0.9 c-0.4-0.3-0.9-0.6-1.3-0.8c-0.9-0.5-1.8-1-2.7-1.4c-1.8-0.9-3.6-1.7-5.2-3" class="st13"/><path d="M245.2,362.7c0.6-0.8,1.2-1.7,1.6-2.7c0.4-1,0.7-2,0.8-3.1c0.1-1.1,0.1-2.1-0.1-3.1c-0.1-1-0.4-2-0.6-3 c-0.5-2-0.9-3.9-0.9-5.9c0-1,0.1-1.9,0.2-2.9c0.2-1,0.4-1.9,0.7-2.9c0.3-0.9,0.7-1.8,1.1-2.8c0.2-0.5,0.4-1,0.5-1.5 c0.1-0.5,0.2-1.1,0.1-1.7c-0.1-0.6-0.3-1.1-0.6-1.6c-0.3-0.5-0.6-0.9-1-1.3c-0.7-0.8-1.5-1.4-2.4-2c-0.4-0.3-0.8-0.6-1.2-0.9 c-0.4-0.3-0.9-0.6-1.3-0.8c-0.9-0.5-1.8-1-2.7-1.4c-1.8-0.9-3.6-1.7-5.1-2.9" class="st12"/></g></g></g><g><g><g><path d="M244.9,367.4c2.1-0.1,4.2,0.1,6.3,0.3c2.1,0.2,4.1,0.5,6.1,0.6c2,0.1,4.1,0,6-0.5c1-0.2,1.9-0.6,2.8-1.1 c0.9-0.4,1.8-1,2.7-1.5c1.8-1,3.6-2.1,5.6-2.8c1-0.4,2-0.7,3.1-0.8c1.1-0.1,2.2,0,3.3,0.3c1.1,0.3,2,0.9,2.9,1.5 c0.8,0.7,1.6,1.5,2.2,2.4c0.6,1,0.9,2.1,0.9,3.2c0,1.1-0.3,2.2-0.8,3.2" class="st12"/><path d="M244.9,367.6c2.1-0.1,4.2,0.1,6.2,0.3c2.1,0.2,4.1,0.5,6.1,0.6c2,0.1,4.1,0,6.1-0.5 c1-0.3,1.9-0.6,2.8-1.1c0.9-0.5,1.8-1,2.7-1.5c1.8-1,3.6-2.1,5.6-2.8c1-0.4,2-0.7,3.1-0.8c1.1-0.1,2.2,0,3.2,0.3 c1,0.3,2,0.8,2.8,1.5c0.8,0.7,1.6,1.4,2.2,2.4c0.6,0.9,0.9,2,0.9,3.1c0,1.1-0.3,2.1-0.7,3.1" class="st13"/><path d="M244.9,367.8c4.2-0.2,8.2,0.8,12.4,1c2.1,0.1,4.1,0,6.1-0.5c1-0.3,1.9-0.7,2.9-1.1 c0.9-0.5,1.8-1,2.7-1.5c1.8-1,3.6-2.1,5.5-2.8c1-0.4,2-0.6,3-0.7c1-0.1,2.1,0,3.1,0.3c1,0.3,1.9,0.8,2.7,1.5 c0.8,0.6,1.6,1.4,2.1,2.3c0.5,0.9,0.8,1.9,0.8,3c0,1.1-0.3,2.1-0.7,3" class="st14"/><path d="M244.9,368c2.1-0.1,4.1,0.1,6.2,0.3c2,0.2,4.1,0.5,6.2,0.6c2.1,0.1,4.2,0,6.2-0.5c1-0.3,2-0.7,2.9-1.1 c0.9-0.5,1.8-1,2.7-1.5c1.8-1,3.6-2.1,5.5-2.8c1-0.4,2-0.6,3-0.7c1-0.1,2.1,0,3,0.3c1,0.3,1.9,0.8,2.7,1.4 c0.8,0.6,1.5,1.4,2.1,2.2c0.5,0.9,0.8,1.9,0.8,2.9c0,1-0.3,2-0.7,3" class="st14"/><path d="M244.9,368.2c2-0.1,4.1,0.1,6.1,0.3c2,0.2,4.1,0.5,6.2,0.6c2.1,0.1,4.2,0,6.2-0.6c1-0.3,2-0.7,2.9-1.1 c0.9-0.5,1.8-1,2.7-1.5c1.8-1,3.6-2.1,5.5-2.8c0.9-0.4,1.9-0.6,2.9-0.7c1-0.1,2,0,2.9,0.3c0.9,0.3,1.8,0.8,2.6,1.4 c0.8,0.6,1.5,1.3,2,2.2c0.5,0.8,0.8,1.8,0.8,2.8c0,1-0.3,2-0.7,2.9" class="st13"/><path d="M244.9,368.4c2-0.1,4.1,0.1,6.1,0.3c2,0.2,4.1,0.5,6.2,0.6c2.1,0.1,4.2,0,6.3-0.6c1-0.3,2-0.7,3-1.2 c0.9-0.5,1.8-1,2.7-1.5c1.8-1,3.6-2.1,5.4-2.8c0.9-0.4,1.9-0.6,2.9-0.7c1-0.1,1.9,0,2.9,0.3c0.9,0.3,1.8,0.8,2.6,1.4 c0.8,0.6,1.5,1.3,2,2.1c0.5,0.8,0.8,1.7,0.7,2.7c0,0.9-0.3,1.9-0.7,2.8" class="st12"/></g></g></g><g><g><g><path d="M248.9,369.6c1.3,0,2.6,0.2,3.9,0.6c1.3,0.4,2.5,0.9,3.6,1.6c1.1,0.7,2.1,1.6,3,2.5 c0.9,0.9,1.7,2.1,2.2,3.3c0.5,1.2,0.8,2.5,1.1,3.8c0.2,1.3,0.5,2.5,0.9,3.6c0.4,1.2,0.9,2.3,1.7,3.2c0.8,0.9,1.7,1.7,2.8,2.3" class="st12"/><path d="M248.9,369.8c1.3,0,2.6,0.2,3.8,0.6c1.2,0.4,2.4,0.9,3.5,1.6c1.1,0.7,2.1,1.5,3,2.5 c0.9,0.9,1.7,2,2.2,3.2c0.5,1.2,0.8,2.5,1.1,3.7c0.2,1.3,0.5,2.5,0.9,3.7c0.4,1.2,1,2.3,1.7,3.3c0.8,1,1.7,1.8,2.8,2.4" class="st13"/><path d="M248.8,370c1.3,0,2.6,0.2,3.8,0.6c1.2,0.4,2.4,0.9,3.5,1.6c1.1,0.7,2.1,1.5,3,2.4c0.9,0.9,1.6,2,2.2,3.2 c0.5,1.2,0.8,2.4,1,3.7c0.2,1.2,0.5,2.5,0.9,3.7c0.4,1.2,1,2.3,1.8,3.3c0.8,1,1.8,1.8,2.9,2.4" class="st14"/><path d="M248.8,370.2c1.3,0,2.5,0.2,3.7,0.5c1.2,0.4,2.4,0.9,3.4,1.6c1.1,0.7,2,1.5,2.9,2.4 c0.9,0.9,1.6,2,2.1,3.1c1,2.3,1.1,4.9,1.9,7.4c0.4,1.2,1,2.4,1.8,3.4c0.8,1,1.8,1.8,2.9,2.5" class="st14"/><path d="M248.8,370.4c1.2,0,2.5,0.2,3.7,0.5c1.2,0.4,2.3,0.9,3.4,1.6c1.1,0.7,2,1.5,2.9,2.4 c0.9,0.9,1.6,1.9,2.1,3.1c1,2.3,1.1,4.9,1.9,7.4c0.4,1.2,1,2.4,1.8,3.4c0.8,1,1.8,1.9,3,2.5" class="st13"/><path d="M248.8,370.6c1.2,0,2.5,0.2,3.6,0.5c1.2,0.3,2.3,0.9,3.3,1.5c1,0.7,2,1.5,2.8,2.4c0.9,0.9,1.6,1.9,2,3 c1,2.2,1.1,4.8,1.9,7.3c0.2,0.6,0.5,1.2,0.8,1.8c0.3,0.6,0.7,1.2,1.1,1.7c0.8,1,1.9,1.9,3.1,2.6" class="st12"/></g></g></g><g><g><g><path d="M240.4,373.6c-1.9,0.4-3.8,1.1-5.4,2.2c-0.8,0.5-1.5,1.2-2.1,1.9c-0.1,0.1-0.1,0.2-0.2,0.3 c-0.1,0.1-0.1,0.2-0.2,0.3c-0.1,0.2-0.2,0.4-0.3,0.6c-0.2,0.4-0.4,0.9-0.5,1.3c-0.2,0.9-0.3,1.9-0.5,2.9 c-0.1,1-0.3,2.1-0.7,3.1c-0.2,0.5-0.5,1-1,1.4c-0.4,0.4-0.9,0.7-1.4,0.9c-1,0.5-2,0.8-3.1,0.9" class="st12"/><path d="M240.4,373.4c-1.9,0.4-3.8,1.1-5.5,2.2c-0.8,0.6-1.6,1.2-2.2,2c-0.3,0.4-0.6,0.8-0.8,1.2 c-0.2,0.4-0.4,0.9-0.5,1.4c-0.2,1-0.3,1.9-0.5,3c-0.1,1-0.3,2-0.7,3c-0.2,0.5-0.5,0.9-0.9,1.3c-0.4,0.4-0.9,0.7-1.3,0.9 c-0.9,0.5-1.9,0.8-3,0.9" class="st13"/><path d="M240.3,373.3c-2,0.4-3.9,1.1-5.5,2.3c-0.8,0.6-1.6,1.2-2.2,2c-0.3,0.4-0.6,0.8-0.8,1.2 c-0.2,0.4-0.4,0.9-0.5,1.4c-0.2,1-0.3,2-0.5,3c-0.1,1-0.3,2-0.7,3c-0.2,0.5-0.5,0.9-0.9,1.3c-0.4,0.4-0.8,0.6-1.3,0.9 c-0.9,0.5-1.9,0.7-2.9,0.9" class="st14"/><path d="M240.3,373.1c-2,0.4-3.9,1.1-5.6,2.3c-0.8,0.6-1.6,1.3-2.3,2.1c-0.3,0.4-0.6,0.8-0.8,1.3 c-0.2,0.5-0.4,0.9-0.5,1.4c-0.3,1-0.4,2-0.5,3c-0.1,1-0.3,2-0.7,2.9c-0.2,0.4-0.5,0.9-0.8,1.2c-0.4,0.3-0.8,0.6-1.2,0.8 c-0.9,0.4-1.9,0.7-2.9,0.8" class="st14"/><path d="M240.3,372.9c-2,0.4-4,1.2-5.7,2.3c-0.9,0.6-1.6,1.3-2.3,2.1c-0.3,0.4-0.6,0.9-0.9,1.3 c-0.2,0.5-0.4,1-0.5,1.5c-0.3,1-0.4,2-0.5,3c-0.1,1-0.3,2-0.7,2.8c-0.2,0.4-0.5,0.8-0.8,1.2c-0.3,0.3-0.7,0.6-1.2,0.8 c-0.9,0.4-1.8,0.7-2.8,0.8" class="st13"/><path d="M240.2,372.7c-2,0.4-4,1.2-5.8,2.4c-0.9,0.6-1.7,1.3-2.3,2.1c-0.1,0.1-0.2,0.2-0.2,0.3 c-0.1,0.1-0.2,0.2-0.2,0.3c-0.1,0.2-0.3,0.5-0.4,0.7c-0.2,0.5-0.4,1-0.5,1.5c-0.3,1-0.4,2.1-0.5,3c-0.1,1-0.3,2-0.7,2.8 c-0.2,0.4-0.4,0.8-0.7,1.1c-0.3,0.3-0.7,0.6-1.1,0.8c-0.8,0.4-1.8,0.7-2.7,0.8" class="st12"/></g></g></g><g><g><g><path d="M249.3,364.9c0.6-0.4,1.3-0.7,2-1c0.7-0.3,1.3-0.5,2-0.7c0.7-0.2,1.3-0.5,1.9-0.8 c0.6-0.3,1.1-0.7,1.5-1.1c0.8-0.9,0.3-2.2-0.2-3.5c-0.3-0.6-0.6-1.3-0.9-1.9c-0.1-0.3-0.3-0.7-0.4-1c-0.1-0.3-0.2-0.7-0.3-1.1 c0-0.1,0-0.2,0-0.3c0-0.1,0-0.1,0-0.1l0-0.1c0-0.2,0-0.4,0-0.5c0-0.4,0.1-0.7,0.1-1.1c0.1-0.7,0.2-1.4,0.4-2.1 c0.3-1.4,0.7-2.7,1.2-4.1c0.4-1.3,0.9-2.7,1.2-4c0.4-1.3,0.6-2.7,0.7-4" class="st12"/><path d="M249.5,365.1c0.6-0.4,1.3-0.7,1.9-1c0.7-0.3,1.3-0.5,2-0.7c0.7-0.2,1.3-0.5,1.9-0.8 c0.6-0.3,1.2-0.7,1.6-1.2c0.2-0.2,0.4-0.5,0.4-0.8c0.1-0.3,0.1-0.6,0-0.9c-0.1-0.6-0.3-1.3-0.6-1.9c-0.3-0.6-0.6-1.3-0.9-1.9 c-0.1-0.3-0.3-0.7-0.4-1c-0.1-0.3-0.2-0.7-0.3-1.1c0-0.1,0-0.2,0-0.3c0-0.1,0-0.2,0-0.3c0-0.2,0-0.4,0-0.5 c0-0.4,0.1-0.7,0.1-1.1c0.1-0.7,0.2-1.4,0.4-2.1c0.3-1.4,0.7-2.7,1.2-4.1c0.4-1.3,0.9-2.7,1.2-4c0.4-1.3,0.7-2.7,0.8-4.1" class="st13"/><path d="M249.6,365.2c0.6-0.4,1.2-0.7,1.9-1c0.7-0.3,1.3-0.5,2-0.7c0.7-0.2,1.3-0.5,1.9-0.8 c0.6-0.3,1.2-0.7,1.6-1.2c0.2-0.3,0.4-0.6,0.5-0.9c0.1-0.3,0.1-0.7,0-1c-0.1-0.7-0.3-1.3-0.6-2c-0.3-0.6-0.6-1.3-0.9-1.9 c-0.3-0.6-0.6-1.3-0.7-2c0-0.2,0-0.4,0-0.5c0-0.2,0-0.4,0-0.5c0-0.4,0-0.7,0.1-1.1c0.1-0.7,0.2-1.4,0.4-2.1 c0.3-1.4,0.7-2.7,1.2-4.1c0.4-1.3,0.9-2.7,1.2-4c0.4-1.4,0.7-2.7,0.8-4.1" class="st14"/><path d="M249.7,365.4c0.6-0.4,1.2-0.7,1.9-0.9c0.7-0.3,1.3-0.5,2-0.7c0.7-0.2,1.3-0.5,1.9-0.8 c0.6-0.3,1.2-0.7,1.7-1.3c0.2-0.3,0.4-0.6,0.5-1c0.1-0.4,0.1-0.7,0-1.1c-0.1-0.7-0.3-1.4-0.6-2c-0.3-0.7-0.6-1.3-0.9-1.9 c-0.3-0.6-0.6-1.3-0.7-2c0-0.2,0-0.3,0-0.5c0-0.2,0-0.3,0-0.5c0-0.3,0-0.7,0.1-1c0.1-0.7,0.2-1.4,0.4-2.1 c0.3-1.4,0.7-2.7,1.2-4c0.4-1.3,0.9-2.7,1.2-4c0.4-1.4,0.7-2.7,0.8-4.2" class="st14"/><path d="M249.8,365.6c0.5-0.4,1.2-0.7,1.8-0.9c0.6-0.3,1.3-0.5,2-0.7c0.7-0.2,1.3-0.5,2-0.8 c0.6-0.3,1.3-0.7,1.8-1.3c0.1-0.2,0.2-0.3,0.3-0.5c0.1-0.2,0.2-0.4,0.2-0.6c0.1-0.4,0.1-0.8,0-1.2c-0.1-0.7-0.4-1.4-0.6-2.1 c-0.3-0.7-0.6-1.3-0.9-1.9c-0.3-0.6-0.6-1.3-0.7-1.9c0-0.1,0-0.2,0-0.2c0-0.1,0-0.2,0-0.2c0-0.2,0-0.3,0-0.5 c0-0.3,0-0.7,0.1-1c0.1-0.7,0.2-1.4,0.4-2c0.3-1.4,0.7-2.7,1.2-4c0.4-1.3,0.9-2.7,1.2-4c0.4-1.4,0.7-2.8,0.8-4.2" class="st13"/><path d="M249.9,365.7c0.5-0.4,1.1-0.6,1.8-0.9c0.6-0.3,1.3-0.5,2-0.7c0.7-0.2,1.3-0.5,2-0.8 c0.7-0.3,1.3-0.8,1.8-1.4c0.1-0.2,0.2-0.3,0.3-0.5c0.1-0.2,0.2-0.4,0.2-0.6c0.1-0.4,0.1-0.8,0-1.2c-0.1-0.8-0.4-1.5-0.6-2.1 c-0.3-0.7-0.6-1.3-0.9-1.9c-0.1-0.3-0.3-0.6-0.4-0.9c-0.1-0.3-0.2-0.6-0.3-0.9c0-0.1,0-0.1,0-0.2c0,0,0-0.1,0-0.1l0-0.1 c0-0.2,0-0.3,0-0.5c0-0.3,0-0.7,0.1-1c0.1-0.7,0.2-1.4,0.4-2c0.3-1.3,0.7-2.7,1.1-4c0.4-1.3,0.9-2.7,1.2-4 c0.4-1.4,0.7-2.8,0.8-4.2" class="st12"/></g></g></g><radialGradient id="SVGID_5_" cx="267.761" cy="390.989" r="4.537" gradientUnits="userSpaceOnUse"><stop offset="0" stop-color="#FAFFFF"/><stop offset=".214" stop-color="#F9FDFF"/><stop offset=".291" stop-color="#F4F6FD"/><stop offset=".346" stop-color="#ECEBFB"/><stop offset=".39" stop-color="#E1DAF7"/><stop offset=".428" stop-color="#D3C4F3"/><stop offset=".462" stop-color="#C1A8ED"/><stop offset=".493" stop-color="#AB88E6"/><stop offset=".52" stop-color="#9364DF"/><stop offset=".539" stop-color="#7E44D8"/><stop offset=".741" stop-color="#A174EC" stop-opacity=".562"/><stop offset=".909" stop-color="#B996FA" stop-opacity=".198"/><stop offset="1" stop-color="#C2A3FF" stop-opacity="0"/></radialGradient><circle cx="267.8" cy="391" r="4.5" class="st15"/><radialGradient id="SVGID_6_" cx="259.04" cy="337.291" r="7.073" gradientUnits="userSpaceOnUse"><stop offset="0" stop-color="#FAFFFF"/><stop offset=".214" stop-color="#F9FDFF"/><stop offset=".291" stop-color="#F4F6FD"/><stop offset=".346" stop-color="#ECEBFB"/><stop offset=".39" stop-color="#E1DAF7"/><stop offset=".428" stop-color="#D3C4F3"/><stop offset=".462" stop-color="#C1A8ED"/><stop offset=".493" stop-color="#AB88E6"/><stop offset=".52" stop-color="#9364DF"/><stop offset=".539" stop-color="#7E44D8"/><stop offset=".741" stop-color="#A174EC" stop-opacity=".562"/><stop offset=".909" stop-color="#B996FA" stop-opacity=".198"/><stop offset="1" stop-color="#C2A3FF" stop-opacity="0"/></radialGradient><circle cx="259" cy="337.3" r="7.1" class="st16"/><radialGradient id="SVGID_7_" cx="225.037" cy="389.03" r="4.537" gradientUnits="userSpaceOnUse"><stop offset="0" stop-color="#FAFFFF"/><stop offset=".214" stop-color="#F9FDFF"/><stop offset=".291" stop-color="#F4F6FD"/><stop offset=".346" stop-color="#ECEBFB"/><stop offset=".39" stop-color="#E1DAF7"/><stop offset=".428" stop-color="#D3C4F3"/><stop offset=".462" stop-color="#C1A8ED"/><stop offset=".493" stop-color="#AB88E6"/><stop offset=".52" stop-color="#9364DF"/><stop offset=".539" stop-color="#7E44D8"/><stop offset=".741" stop-color="#A174EC" stop-opacity=".562"/><stop offset=".909" stop-color="#B996FA" stop-opacity=".198"/><stop offset="1" stop-color="#C2A3FF" stop-opacity="0"/></radialGradient><circle cx="225" cy="389" r="4.5" class="st17"/><radialGradient id="SVGID_8_" cx="204.225" cy="347.697" r="2.939" gradientUnits="userSpaceOnUse"><stop offset="0" stop-color="#FAFFFF"/><stop offset=".214" stop-color="#F9FDFF"/><stop offset=".291" stop-color="#F4F6FD"/><stop offset=".346" stop-color="#ECEBFB"/><stop offset=".39" stop-color="#E1DAF7"/><stop offset=".428" stop-color="#D3C4F3"/><stop offset=".462" stop-color="#C1A8ED"/><stop offset=".493" stop-color="#AB88E6"/><stop offset=".52" stop-color="#9364DF"/><stop offset=".539" stop-color="#7E44D8"/><stop offset=".741" stop-color="#A174EC" stop-opacity=".562"/><stop offset=".909" stop-color="#B996FA" stop-opacity=".198"/><stop offset="1" stop-color="#C2A3FF" stop-opacity="0"/></radialGradient><circle cx="204.2" cy="347.7" r="2.9" class="st18"/><radialGradient id="SVGID_9_" cx="240.324" cy="373.155" r="1.781" gradientUnits="userSpaceOnUse"><stop offset="0" stop-color="#FAFFFF"/><stop offset=".214" stop-color="#F9FDFF"/><stop offset=".291" stop-color="#F4F6FD"/><stop offset=".346" stop-color="#ECEBFB"/><stop offset=".39" stop-color="#E1DAF7"/><stop offset=".428" stop-color="#D3C4F3"/><stop offset=".462" stop-color="#C1A8ED"/><stop offset=".493" stop-color="#AB88E6"/><stop offset=".52" stop-color="#9364DF"/><stop offset=".539" stop-color="#7E44D8"/><stop offset=".741" stop-color="#A174EC" stop-opacity=".562"/><stop offset=".909" stop-color="#B996FA" stop-opacity=".198"/><stop offset="1" stop-color="#C2A3FF" stop-opacity="0"/></radialGradient><circle cx="240.3" cy="373.2" r="1.8" class="st19"/><radialGradient id="SVGID_10_" cx="248.849" cy="370.117" r="1.781" gradientUnits="userSpaceOnUse"><stop offset="0" stop-color="#FAFFFF"/><stop offset=".214" stop-color="#F9FDFF"/><stop offset=".291" stop-color="#F4F6FD"/><stop offset=".346" stop-color="#ECEBFB"/><stop offset=".39" stop-color="#E1DAF7"/><stop offset=".428" stop-color="#D3C4F3"/><stop offset=".462" stop-color="#C1A8ED"/><stop offset=".493" stop-color="#AB88E6"/><stop offset=".52" stop-color="#9364DF"/><stop offset=".539" stop-color="#7E44D8"/><stop offset=".741" stop-color="#A174EC" stop-opacity=".562"/><stop offset=".909" stop-color="#B996FA" stop-opacity=".198"/><stop offset="1" stop-color="#C2A3FF" stop-opacity="0"/></radialGradient><circle cx="248.8" cy="370.1" r="1.8" class="st20"/><radialGradient id="SVGID_11_" cx="249.633" cy="365.316" r="1.781" gradientUnits="userSpaceOnUse"><stop offset="0" stop-color="#FAFFFF"/><stop offset=".214" stop-color="#F9FDFF"/><stop offset=".291" stop-color="#F4F6FD"/><stop offset=".346" stop-color="#ECEBFB"/><stop offset=".39" stop-color="#E1DAF7"/><stop offset=".428" stop-color="#D3C4F3"/><stop offset=".462" stop-color="#C1A8ED"/><stop offset=".493" stop-color="#AB88E6"/><stop offset=".52" stop-color="#9364DF"/><stop offset=".539" stop-color="#7E44D8"/><stop offset=".741" stop-color="#A174EC" stop-opacity=".562"/><stop offset=".909" stop-color="#B996FA" stop-opacity=".198"/><stop offset="1" stop-color="#C2A3FF" stop-opacity="0"/></radialGradient><circle cx="249.6" cy="365.3" r="1.8" class="st21"/><radialGradient id="SVGID_12_" cx="211.701" cy="377.899" r="4.537" gradientUnits="userSpaceOnUse"><stop offset="0" stop-color="#FAFFFF"/><stop offset=".214" stop-color="#F9FDFF"/><stop offset=".291" stop-color="#F4F6FD"/><stop offset=".346" stop-color="#ECEBFB"/><stop offset=".39" stop-color="#E1DAF7"/><stop offset=".428" stop-color="#D3C4F3"/><stop offset=".462" stop-color="#C1A8ED"/><stop offset=".493" stop-color="#AB88E6"/><stop offset=".52" stop-color="#9364DF"/><stop offset=".539" stop-color="#7E44D8"/><stop offset=".741" stop-color="#A174EC" stop-opacity=".562"/><stop offset=".909" stop-color="#B996FA" stop-opacity=".198"/><stop offset="1" stop-color="#C2A3FF" stop-opacity="0"/></radialGradient><circle cx="211.7" cy="377.9" r="4.5" class="st22"/><radialGradient id="SVGID_13_" cx="226.45" cy="349.424" r="6.906" gradientUnits="userSpaceOnUse"><stop offset="0" stop-color="#FAFFFF"/><stop offset=".214" stop-color="#F9FDFF"/><stop offset=".291" stop-color="#F4F6FD"/><stop offset=".346" stop-color="#ECEBFB"/><stop offset=".39" stop-color="#E1DAF7"/><stop offset=".428" stop-color="#D3C4F3"/><stop offset=".462" stop-color="#C1A8ED"/><stop offset=".493" stop-color="#AB88E6"/><stop offset=".52" stop-color="#9364DF"/><stop offset=".539" stop-color="#7E44D8"/><stop offset=".741" stop-color="#A174EC" stop-opacity=".562"/><stop offset=".909" stop-color="#B996FA" stop-opacity=".198"/><stop offset="1" stop-color="#C2A3FF" stop-opacity="0"/></radialGradient><circle cx="226.5" cy="349.4" r="6.9" class="st23"/><radialGradient id="SVGID_14_" cx="285.565" cy="372.149" r="7.073" gradientUnits="userSpaceOnUse"><stop offset="0" stop-color="#FAFFFF"/><stop offset=".214" stop-color="#F9FDFF"/><stop offset=".291" stop-color="#F4F6FD"/><stop offset=".346" stop-color="#ECEBFB"/><stop offset=".39" stop-color="#E1DAF7"/><stop offset=".428" stop-color="#D3C4F3"/><stop offset=".462" stop-color="#C1A8ED"/><stop offset=".493" stop-color="#AB88E6"/><stop offset=".52" stop-color="#9364DF"/><stop offset=".539" stop-color="#7E44D8"/><stop offset=".741" stop-color="#A174EC" stop-opacity=".562"/><stop offset=".909" stop-color="#B996FA" stop-opacity=".198"/><stop offset="1" stop-color="#C2A3FF" stop-opacity="0"/></radialGradient><circle cx="285.6" cy="372.1" r="7.1" class="st24"/><radialGradient id="SVGID_15_" cx="235.619" cy="323.65" r="2.939" gradientUnits="userSpaceOnUse"><stop offset="0" stop-color="#FAFFFF"/><stop offset=".214" stop-color="#F9FDFF"/><stop offset=".291" stop-color="#F4F6FD"/><stop offset=".346" stop-color="#ECEBFB"/><stop offset=".39" stop-color="#E1DAF7"/><stop offset=".428" stop-color="#D3C4F3"/><stop offset=".462" stop-color="#C1A8ED"/><stop offset=".493" stop-color="#AB88E6"/><stop offset=".52" stop-color="#9364DF"/><stop offset=".539" stop-color="#7E44D8"/><stop offset=".741" stop-color="#A174EC" stop-opacity=".562"/><stop offset=".909" stop-color="#B996FA" stop-opacity=".198"/><stop offset="1" stop-color="#C2A3FF" stop-opacity="0"/></radialGradient><circle cx="235.6" cy="323.7" r="2.9" class="st25"/><radialGradient id="SVGID_16_" cx="218.232" cy="405.944" r="2.939" gradientUnits="userSpaceOnUse"><stop offset="0" stop-color="#FAFFFF"/><stop offset=".214" stop-color="#F9FDFF"/><stop offset=".291" stop-color="#F4F6FD"/><stop offset=".346" stop-color="#ECEBFB"/><stop offset=".39" stop-color="#E1DAF7"/><stop offset=".428" stop-color="#D3C4F3"/><stop offset=".462" stop-color="#C1A8ED"/><stop offset=".493" stop-color="#AB88E6"/><stop offset=".52" stop-color="#9364DF"/><stop offset=".539" stop-color="#7E44D8"/><stop offset=".741" stop-color="#A174EC" stop-opacity=".562"/><stop offset=".909" stop-color="#B996FA" stop-opacity=".198"/><stop offset="1" stop-color="#C2A3FF" stop-opacity="0"/></radialGradient><circle cx="218.2" cy="405.9" r="2.9" class="st26"/><radialGradient id="SVGID_17_" cx="257.525" cy="403.223" r="2.939" gradientUnits="userSpaceOnUse"><stop offset="0" stop-color="#FAFFFF"/><stop offset=".214" stop-color="#F9FDFF"/><stop offset=".291" stop-color="#F4F6FD"/><stop offset=".346" stop-color="#ECEBFB"/><stop offset=".39" stop-color="#E1DAF7"/><stop offset=".428" stop-color="#D3C4F3"/><stop offset=".462" stop-color="#C1A8ED"/><stop offset=".493" stop-color="#AB88E6"/><stop offset=".52" stop-color="#9364DF"/><stop offset=".539" stop-color="#7E44D8"/><stop offset=".741" stop-color="#A174EC" stop-opacity=".562"/><stop offset=".909" stop-color="#B996FA" stop-opacity=".198"/><stop offset="1" stop-color="#C2A3FF" stop-opacity="0"/></radialGradient><circle cx="257.5" cy="403.2" r="2.9" class="st27"/><radialGradient id="SVGID_18_" cx="278.15" cy="335.829" r="2.939" gradientUnits="userSpaceOnUse"><stop offset="0" stop-color="#FAFFFF"/><stop offset=".214" stop-color="#F9FDFF"/><stop offset=".291" stop-color="#F4F6FD"/><stop offset=".346" stop-color="#ECEBFB"/><stop offset=".39" stop-color="#E1DAF7"/><stop offset=".428" stop-color="#D3C4F3"/><stop offset=".462" stop-color="#C1A8ED"/><stop offset=".493" stop-color="#AB88E6"/><stop offset=".52" stop-color="#9364DF"/><stop offset=".539" stop-color="#7E44D8"/><stop offset=".741" stop-color="#A174EC" stop-opacity=".562"/><stop offset=".909" stop-color="#B996FA" stop-opacity=".198"/><stop offset="1" stop-color="#C2A3FF" stop-opacity="0"/></radialGradient><circle cx="278.1" cy="335.8" r="2.9" class="st28"/><radialGradient id="SVGID_19_" cx="241.99" cy="366.146" r="1.78" gradientUnits="userSpaceOnUse"><stop offset="0" stop-color="#FAFFFF"/><stop offset=".214" stop-color="#F9FDFF"/><stop offset=".291" stop-color="#F4F6FD"/><stop offset=".346" stop-color="#ECEBFB"/><stop offset=".39" stop-color="#E1DAF7"/><stop offset=".428" stop-color="#D3C4F3"/><stop offset=".462" stop-color="#C1A8ED"/><stop offset=".493" stop-color="#AB88E6"/><stop offset=".52" stop-color="#9364DF"/><stop offset=".539" stop-color="#7E44D8"/><stop offset=".741" stop-color="#A174EC" stop-opacity=".562"/><stop offset=".909" stop-color="#B996FA" stop-opacity=".198"/><stop offset="1" stop-color="#C2A3FF" stop-opacity="0"/></radialGradient><circle cx="242" cy="366.1" r="1.8" class="st29"/><radialGradient id="SVGID_20_" cx="242.459" cy="363.341" r="1.781" gradientUnits="userSpaceOnUse"><stop offset="0" stop-color="#FAFFFF"/><stop offset=".214" stop-color="#F9FDFF"/><stop offset=".291" stop-color="#F4F6FD"/><stop offset=".346" stop-color="#ECEBFB"/><stop offset=".39" stop-color="#E1DAF7"/><stop offset=".428" stop-color="#D3C4F3"/><stop offset=".462" stop-color="#C1A8ED"/><stop offset=".493" stop-color="#AB88E6"/><stop offset=".52" stop-color="#9364DF"/><stop offset=".539" stop-color="#7E44D8"/><stop offset=".741" stop-color="#A174EC" stop-opacity=".562"/><stop offset=".909" stop-color="#B996FA" stop-opacity=".198"/><stop offset="1" stop-color="#C2A3FF" stop-opacity="0"/></radialGradient><circle cx="242.5" cy="363.3" r="1.8" class="st30"/><radialGradient id="SVGID_21_" cx="244.887" cy="362.486" r="1.781" gradientUnits="userSpaceOnUse"><stop offset="0" stop-color="#FAFFFF"/><stop offset=".214" stop-color="#F9FDFF"/><stop offset=".291" stop-color="#F4F6FD"/><stop offset=".346" stop-color="#ECEBFB"/><stop offset=".39" stop-color="#E1DAF7"/><stop offset=".428" stop-color="#D3C4F3"/><stop offset=".462" stop-color="#C1A8ED"/><stop offset=".493" stop-color="#AB88E6"/><stop offset=".52" stop-color="#9364DF"/><stop offset=".539" stop-color="#7E44D8"/><stop offset=".741" stop-color="#A174EC" stop-opacity=".562"/><stop offset=".909" stop-color="#B996FA" stop-opacity=".198"/><stop offset="1" stop-color="#C2A3FF" stop-opacity="0"/></radialGradient><circle cx="244.9" cy="362.5" r="1.8" class="st31"/><radialGradient id="SVGID_22_" cx="248.106" cy="366.75" r="1.781" gradientUnits="userSpaceOnUse"><stop offset="0" stop-color="#FAFFFF"/><stop offset=".214" stop-color="#F9FDFF"/><stop offset=".291" stop-color="#F4F6FD"/><stop offset=".346" stop-color="#ECEBFB"/><stop offset=".39" stop-color="#E1DAF7"/><stop offset=".428" stop-color="#D3C4F3"/><stop offset=".462" stop-color="#C1A8ED"/><stop offset=".493" stop-color="#AB88E6"/><stop offset=".52" stop-color="#9364DF"/><stop offset=".539" stop-color="#7E44D8"/><stop offset=".741" stop-color="#A174EC" stop-opacity=".562"/><stop offset=".909" stop-color="#B996FA" stop-opacity=".198"/><stop offset="1" stop-color="#C2A3FF" stop-opacity="0"/></radialGradient><circle cx="248.1" cy="366.7" r="1.8" class="st32"/><radialGradient id="SVGID_23_" cx="244.887" cy="367.813" r="1.781" gradientUnits="userSpaceOnUse"><stop offset="0" stop-color="#FAFFFF"/><stop offset=".214" stop-color="#F9FDFF"/><stop offset=".291" stop-color="#F4F6FD"/><stop offset=".346" stop-color="#ECEBFB"/><stop offset=".39" stop-color="#E1DAF7"/><stop offset=".428" stop-color="#D3C4F3"/><stop offset=".462" stop-color="#C1A8ED"/><stop offset=".493" stop-color="#AB88E6"/><stop offset=".52" stop-color="#9364DF"/><stop offset=".539" stop-color="#7E44D8"/><stop offset=".741" stop-color="#A174EC" stop-opacity=".562"/><stop offset=".909" stop-color="#B996FA" stop-opacity=".198"/><stop offset="1" stop-color="#C2A3FF" stop-opacity="0"/></radialGradient><circle cx="244.9" cy="367.8" r="1.8" class="st33"/><radialGradient id="SVGID_24_" cx="241.837" cy="370.613" r="1.781" gradientUnits="userSpaceOnUse"><stop offset="0" stop-color="#FAFFFF"/><stop offset=".214" stop-color="#F9FDFF"/><stop offset=".291" stop-color="#F4F6FD"/><stop offset=".346" stop-color="#ECEBFB"/><stop offset=".39" stop-color="#E1DAF7"/><stop offset=".428" stop-color="#D3C4F3"/><stop offset=".462" stop-color="#C1A8ED"/><stop offset=".493" stop-color="#AB88E6"/><stop offset=".52" stop-color="#9364DF"/><stop offset=".539" stop-color="#7E44D8"/><stop offset=".741" stop-color="#A174EC" stop-opacity=".562"/><stop offset=".909" stop-color="#B996FA" stop-opacity=".198"/><stop offset="1" stop-color="#C2A3FF" stop-opacity="0"/></radialGradient><circle cx="241.8" cy="370.6" r="1.8" class="st34"/><radialGradient id="SVGID_25_" cx="246.863" cy="372.149" r="1.781" gradientUnits="userSpaceOnUse"><stop offset="0" stop-color="#FAFFFF"/><stop offset=".214" stop-color="#F9FDFF"/><stop offset=".291" stop-color="#F4F6FD"/><stop offset=".346" stop-color="#ECEBFB"/><stop offset=".39" stop-color="#E1DAF7"/><stop offset=".428" stop-color="#D3C4F3"/><stop offset=".462" stop-color="#C1A8ED"/><stop offset=".493" stop-color="#AB88E6"/><stop offset=".52" stop-color="#9364DF"/><stop offset=".539" stop-color="#7E44D8"/><stop offset=".741" stop-color="#A174EC" stop-opacity=".562"/><stop offset=".909" stop-color="#B996FA" stop-opacity=".198"/><stop offset="1" stop-color="#C2A3FF" stop-opacity="0"/></radialGradient><circle cx="246.9" cy="372.1" r="1.8" class="st35"/><radialGradient id="SVGID_26_" cx="243.834" cy="374.651" r="1.78" gradientUnits="userSpaceOnUse"><stop offset="0" stop-color="#FAFFFF"/><stop offset=".214" stop-color="#F9FDFF"/><stop offset=".291" stop-color="#F4F6FD"/><stop offset=".346" stop-color="#ECEBFB"/><stop offset=".39" stop-color="#E1DAF7"/><stop offset=".428" stop-color="#D3C4F3"/><stop offset=".462" stop-color="#C1A8ED"/><stop offset=".493" stop-color="#AB88E6"/><stop offset=".52" stop-color="#9364DF"/><stop offset=".539" stop-color="#7E44D8"/><stop offset=".741" stop-color="#A174EC" stop-opacity=".562"/><stop offset=".909" stop-color="#B996FA" stop-opacity=".198"/><stop offset="1" stop-color="#C2A3FF" stop-opacity="0"/></radialGradient><circle cx="243.8" cy="374.7" r="1.8" class="st36"/><radialGradient id="SVGID_27_" cx="244.887" cy="368.214" r="8.297" gradientUnits="userSpaceOnUse"><stop offset="0" stop-color="#7E44D8" stop-opacity=".8"/><stop offset=".397" stop-color="#7F46D8" stop-opacity=".84"/><stop offset=".539" stop-color="#844DDA" stop-opacity=".854"/><stop offset=".641" stop-color="#8C58DC" stop-opacity=".864"/><stop offset=".724" stop-color="#9869E0" stop-opacity=".872"/><stop offset=".794" stop-color="#A77FE4" stop-opacity=".879"/><stop offset=".857" stop-color="#BA9BEA" stop-opacity=".886"/><stop offset=".913" stop-color="#D0BBF1" stop-opacity=".891"/><stop offset=".963" stop-color="#E9DFF8" stop-opacity=".896"/><stop offset="1" stop-color="#FFF" stop-opacity=".9"/></radialGradient><circle cx="244.9" cy="368.2" r="8.3" class="st37"/><radialGradient id="SVGID_28_" cx="244.887" cy="368.214" r="50" gradientUnits="userSpaceOnUse"><stop offset=".85" stop-color="#FFF" stop-opacity="0"/><stop offset=".987" stop-color="#FFF" stop-opacity=".91"/><stop offset="1" stop-color="#FFF"/></radialGradient><circle cx="244.9" cy="368.2" r="50" class="st38"/><g><linearGradient id="SVGID_29_" x1="194.887" x2="294.888" y1="368.214" y2="368.214" gradientUnits="userSpaceOnUse"><stop offset="0" stop-color="#2F1359"/><stop offset="1" stop-color="#7E44D8" stop-opacity="0"/></linearGradient><path d="M244.9,321.1c26,0,47.1,21.1,47.1,47.1c0,26-21.1,47.1-47.1,47.1c-26,0-47.1-21.1-47.1-47.1 C197.7,342.2,218.9,321.1,244.9,321.1 M244.9,318.2c-27.6,0-50,22.4-50,50c0,27.6,22.4,50,50,50c27.6,0,50-22.4,50-50 C294.9,340.6,272.5,318.2,244.9,318.2L244.9,318.2z" class="st39"/></g></g></g></g></svg>