<?xml version="1.0" encoding="utf-8"?>
<!-- Generator: Adobe Illustrator 21.0.0, SVG Export Plug-In . SVG Version: 6.00 Build 0)  -->
<svg version="1.1" id="Layer_1" xmlns="http://www.w3.org/2000/svg" xmlns:xlink="http://www.w3.org/1999/xlink" x="0px" y="0px"
	 viewBox="0 0 400 400" style="enable-background:new 0 0 400 400;" xml:space="preserve">
<style type="text/css">
	.st0{fill:#1A53F0;}
</style>
<g id="Group_1_" transform="translate(77.987179, 6.689781)">
	<path id="Shape_5_" class="st0" d="M19.7,199.8c-53,0-95.9,43.3-95.9,96.8s42.9,96.8,95.9,96.8s95.9-43.3,95.9-96.8
		S72.6,199.8,19.7,199.8z M19.7,364c-36.9,0-66.9-30.2-66.9-67.5S-17.3,229,19.7,229s66.9,30.2,66.9,67.5
		C86.5,333.8,56.6,364,19.7,364L19.7,364z"/>
	<path id="Shape_6_" class="st0" d="M224.5-6.7c-38.8,0-73.7,23.6-88.6,59.7s-6.6,77.8,20.8,105.5s68.7,36,104.5,21
		s59.2-50.3,59.2-89.4C320.4,36.6,277.4-6.7,224.5-6.7L224.5-6.7z M224.5,157.6c-36.9,0-66.9-30.2-66.9-67.5s29.9-67.5,66.9-67.5
		s66.9,30.2,66.9,67.5C291.3,127.3,261.4,157.5,224.5,157.6L224.5,157.6z"/>
	<path id="Shape_7_" class="st0" d="M19.7-6.7L19.7-6.7c-45.7,0-85,32.4-94.1,77.6s14.7,90.5,56.7,108.4s90.8,3.4,116.5-34.6
		s21.3-89.2-10.5-122.2h27.2V-6.7H19.7z M86.6,90.1c0,37.3-30,67.5-66.9,67.5s-66.9-30.2-66.9-67.5s29.9-67.5,66.9-67.5
		C56.6,22.6,86.5,52.8,86.6,90.1L86.6,90.1z"/>
</g>
</svg>
