<?xml version="1.0" encoding="utf-8"?>
<!-- Generator: Adobe Illustrator 21.0.0, SVG Export Plug-In . SVG Version: 6.00 Build 0)  -->
<svg version="1.1" id="Layer_1" xmlns="http://www.w3.org/2000/svg" xmlns:xlink="http://www.w3.org/1999/xlink" x="0px" y="0px"
	 viewBox="0 0 490 490" style="enable-background:new 0 0 490 490;" xml:space="preserve">
<style type="text/css">
	.st0{opacity:0;fill:#FFFFFF;}
	.st1{opacity:1.960800e-02;fill:#FBFBFC;}
	.st2{opacity:3.921600e-02;fill:#F8F8F9;}
	.st3{opacity:5.882400e-02;fill:#F4F4F6;}
	.st4{opacity:7.843100e-02;fill:#F1F1F3;}
	.st5{opacity:9.803900e-02;fill:#EDEDF0;}
	.st6{opacity:0.1176;fill:#E9E9ED;}
	.st7{opacity:0.1373;fill:#E6E6EB;}
	.st8{opacity:0.1569;fill:#E2E2E8;}
	.st9{opacity:0.1765;fill:#DFDFE5;}
	.st10{opacity:0.1961;fill:#DBDBE2;}
	.st11{opacity:0.2157;fill:#D8D8DF;}
	.st12{opacity:0.2353;fill:#D4D4DC;}
	.st13{opacity:0.2549;fill:#D0D0D9;}
	.st14{opacity:0.2745;fill:#CDCDD6;}
	.st15{opacity:0.2941;fill:#C9C9D3;}
	.st16{opacity:0.3137;fill:#C6C6D0;}
	.st17{opacity:0.3333;fill:#C2C2CD;}
	.st18{opacity:0.3529;fill:#BEBECA;}
	.st19{opacity:0.3725;fill:#BBBBC7;}
	.st20{opacity:0.3922;fill:#B7B7C5;}
	.st21{opacity:0.4118;fill:#B4B4C2;}
	.st22{opacity:0.4314;fill:#B0B0BF;}
	.st23{opacity:0.451;fill:#ACACBC;}
	.st24{opacity:0.4706;fill:#A9A9B9;}
	.st25{opacity:0.4902;fill:#A5A5B6;}
	.st26{opacity:0.5098;fill:#A2A2B3;}
	.st27{opacity:0.5294;fill:#9E9EB0;}
	.st28{opacity:0.549;fill:#9B9BAD;}
	.st29{opacity:0.5686;fill:#9797AA;}
	.st30{opacity:0.5882;fill:#9393A7;}
	.st31{opacity:0.6078;fill:#9090A4;}
	.st32{opacity:0.6275;fill:#8C8CA2;}
	.st33{opacity:0.6471;fill:#89899F;}
	.st34{opacity:0.6667;fill:#85859C;}
	.st35{opacity:0.6863;fill:#818199;}
	.st36{opacity:0.7059;fill:#7E7E96;}
	.st37{opacity:0.7255;fill:#7A7A93;}
	.st38{opacity:0.7451;fill:#777790;}
	.st39{opacity:0.7647;fill:#73738D;}
	.st40{opacity:0.7843;fill:#6F6F8A;}
	.st41{opacity:0.8039;fill:#6C6C87;}
	.st42{opacity:0.8235;fill:#686884;}
	.st43{opacity:0.8431;fill:#656581;}
	.st44{opacity:0.8627;fill:#61617E;}
	.st45{opacity:0.8824;fill:#5E5E7C;}
	.st46{opacity:0.902;fill:#5A5A79;}
	.st47{opacity:0.9216;fill:#565676;}
	.st48{opacity:0.9412;fill:#535373;}
	.st49{opacity:0.9608;fill:#4F4F70;}
	.st50{opacity:0.9804;fill:#4C4C6D;}
	.st51{fill:#48486A;}
	.st52{fill:url(#SVGID_1_);}
	.st53{fill:url(#SVGID_2_);}
	.st54{fill:url(#XMLID_2_);}
	.st55{fill:url(#XMLID_3_);}
	.st56{fill:url(#XMLID_4_);}
	.st57{fill:url(#XMLID_5_);}
	.st58{opacity:0.43;fill:url(#XMLID_6_);}
	.st59{fill:url(#SVGID_3_);}
	.st60{fill:url(#SVGID_4_);}
	.st61{fill:url(#XMLID_7_);}
	.st62{fill:url(#XMLID_8_);}
	.st63{fill:url(#XMLID_9_);}
	.st64{fill:url(#XMLID_10_);}
	.st65{fill:url(#SVGID_5_);}
	.st66{opacity:0.43;fill:url(#XMLID_11_);}
	.st67{fill:url(#SVGID_6_);}
	.st68{fill:url(#SVGID_7_);}
	.st69{fill:url(#XMLID_12_);}
	.st70{fill:url(#XMLID_13_);}
	.st71{fill:url(#XMLID_14_);}
	.st72{fill:url(#XMLID_15_);}
	.st73{opacity:0.43;fill:url(#XMLID_16_);}
	.st74{fill:#00C3FF;}
	.st75{fill:#7EE0FF;}
	.st76{fill:url(#SVGID_8_);}
	.st77{fill:url(#SVGID_9_);}
	.st78{enable-background:new    ;}
	.st79{fill:#FFFFFF;}
	.st80{fill:#491E8C;}
	.st81{opacity:0.4;fill:#491E8C;enable-background:new    ;}
	.st82{fill:#655AE6;}
	.st83{fill:#5A50CE;}
	.st84{fill:#4896F0;}
	.st85{fill:#4086D7;}
	.st86{fill:#F5D980;}
	.st87{fill:#F2D268;}
	.st88{fill:#FADA70;}
</style>
<g>
	<g>
		<g>
			<g>
				<g id="XMLID_18118_">
					<path id="XMLID_18120_" class="st0" d="M95.9,266.3L6,318.2c-2.5,1.5-2.5,5.1,0,6.6l89.9,51.9c2.4,1.4,5.3,1.4,7.7,0l89.9-51.9
						c2.5-1.5,2.5-5.1,0-6.6l-89.9-51.9C101.2,264.9,98.2,264.9,95.9,266.3z"/>
					<path class="st1" d="M95.9,266.4L6.2,318.2c-2.5,1.5-2.5,5.1,0,6.6l89.7,51.8c2.4,1.4,5.3,1.4,7.7,0l89.7-51.8
						c2.5-1.5,2.5-5.1,0-6.6l-89.7-51.8C101.2,265,98.2,265,95.9,266.4z"/>
					<path class="st2" d="M95.9,266.6L6.5,318.2c-2.5,1.5-2.5,5.1,0,6.5l89.4,51.6c2.4,1.4,5.3,1.4,7.6,0l89.4-51.6
						c2.5-1.5,2.5-5.1,0-6.5l-89.4-51.6C101.2,265.2,98.3,265.2,95.9,266.6z"/>
					<path class="st3" d="M95.9,266.7L6.7,318.2c-2.5,1.4-2.5,5.1,0,6.5l89.2,51.5c2.4,1.4,5.3,1.4,7.6,0l89.2-51.5
						c2.5-1.4,2.5-5.1,0-6.5l-89.2-51.5C101.2,265.4,98.3,265.4,95.9,266.7z"/>
					<path class="st4" d="M95.9,266.9L7,318.2c-2.5,1.4-2.5,5.1,0,6.5L95.9,376c2.4,1.4,5.2,1.4,7.6,0l88.9-51.3
						c2.5-1.4,2.5-5.1,0-6.5l-88.9-51.3C101.2,265.5,98.3,265.5,95.9,266.9z"/>
					<path class="st5" d="M95.9,267L7.3,318.2c-2.5,1.4-2.5,5,0,6.5l88.7,51.2c2.3,1.4,5.2,1.4,7.6,0l88.7-51.2c2.5-1.4,2.5-5,0-6.5
						L103.5,267C101.2,265.7,98.3,265.7,95.9,267z"/>
					<path class="st6" d="M95.9,267.2l-88.4,51c-2.5,1.4-2.5,5,0,6.5l88.4,51c2.3,1.3,5.2,1.3,7.6,0l88.4-51c2.5-1.4,2.5-5,0-6.5
						l-88.4-51C101.1,265.8,98.3,265.8,95.9,267.2z"/>
					<path class="st7" d="M95.9,267.3L7.8,318.2c-2.5,1.4-2.5,5,0,6.5l88.2,50.9c2.3,1.3,5.2,1.3,7.5,0l88.2-50.9
						c2.5-1.4,2.5-5,0-6.5l-88.2-50.9C101.1,266,98.3,266,95.9,267.3z"/>
					<path class="st8" d="M96,267.5L8,318.2c-2.5,1.4-2.5,5,0,6.4L96,375.4c2.3,1.3,5.2,1.3,7.5,0l87.9-50.8c2.5-1.4,2.5-5,0-6.4
						l-87.9-50.8C101.1,266.1,98.3,266.1,96,267.5z"/>
					<path class="st9" d="M96,267.6L8.3,318.2c-2.5,1.4-2.5,5,0,6.4L96,375.3c2.3,1.3,5.2,1.3,7.5,0l87.7-50.6c2.5-1.4,2.5-5,0-6.4
						l-87.7-50.6C101.1,266.3,98.3,266.3,96,267.6z"/>
					<path class="st10" d="M96,267.8L8.6,318.3c-2.5,1.4-2.5,5,0,6.4L96,375.1c2.3,1.3,5.2,1.3,7.5,0l87.4-50.5c2.5-1.4,2.5-5,0-6.4
						l-87.4-50.5C101.1,266.4,98.3,266.4,96,267.8z"/>
					<path class="st11" d="M96,267.9L8.8,318.3c-2.5,1.4-2.5,5,0,6.4L96,375c2.3,1.3,5.1,1.3,7.4,0l87.2-50.3c2.5-1.4,2.5-5,0-6.4
						l-87.2-50.3C101.1,266.6,98.3,266.6,96,267.9z"/>
					<path class="st12" d="M96,268.1L9.1,318.3c-2.4,1.4-2.4,4.9,0,6.4L96,374.8c2.3,1.3,5.1,1.3,7.4,0l86.9-50.2
						c2.4-1.4,2.4-4.9,0-6.4l-86.9-50.2C101.1,266.8,98.3,266.8,96,268.1z"/>
					<path class="st13" d="M96,268.2l-86.7,50c-2.4,1.4-2.4,4.9,0,6.3l86.7,50c2.3,1.3,5.1,1.3,7.4,0l86.7-50c2.4-1.4,2.4-4.9,0-6.3
						l-86.7-50C101.1,266.9,98.3,266.9,96,268.2z"/>
					<path class="st14" d="M96,268.4L9.6,318.3c-2.4,1.4-2.4,4.9,0,6.3L96,374.5c2.3,1.3,5.1,1.3,7.4,0l86.4-49.9
						c2.4-1.4,2.4-4.9,0-6.3l-86.4-49.9C101.1,267.1,98.3,267.1,96,268.4z"/>
					<path class="st15" d="M96,268.5L9.8,318.3c-2.4,1.4-2.4,4.9,0,6.3L96,374.4c2.3,1.3,5.1,1.3,7.4,0l86.2-49.8
						c2.4-1.4,2.4-4.9,0-6.3l-86.2-49.8C101.1,267.2,98.3,267.2,96,268.5z"/>
					<path class="st16" d="M96,268.7l-85.9,49.6c-2.4,1.4-2.4,4.9,0,6.3L96,374.2c2.3,1.3,5.1,1.3,7.3,0l85.9-49.6
						c2.4-1.4,2.4-4.9,0-6.3l-85.9-49.6C101.1,267.4,98.3,267.4,96,268.7z"/>
					<path class="st17" d="M96,268.8l-85.7,49.5c-2.4,1.4-2.4,4.9,0,6.3L96,374.1c2.3,1.3,5.1,1.3,7.3,0l85.7-49.5
						c2.4-1.4,2.4-4.9,0-6.3l-85.7-49.5C101.1,267.5,98.3,267.5,96,268.8z"/>
					<path class="st18" d="M96.1,269l-85.4,49.3c-2.4,1.4-2.4,4.9,0,6.3l85.4,49.3c2.3,1.3,5,1.3,7.3,0l85.4-49.3
						c2.4-1.4,2.4-4.9,0-6.3L103.4,269C101.1,267.7,98.3,267.7,96.1,269z"/>
					<path class="st19" d="M96.1,269.2l-85.2,49.2c-2.4,1.4-2.4,4.8,0,6.2l85.2,49.2c2.3,1.3,5,1.3,7.3,0l85.2-49.2
						c2.4-1.4,2.4-4.8,0-6.2l-85.2-49.2C101.1,267.9,98.3,267.9,96.1,269.2z"/>
					<path class="st20" d="M96.1,269.3l-84.9,49c-2.4,1.4-2.4,4.8,0,6.2l84.9,49c2.2,1.3,5,1.3,7.3,0l84.9-49c2.4-1.4,2.4-4.8,0-6.2
						l-84.9-49C101.1,268,98.3,268,96.1,269.3z"/>
					<path class="st21" d="M96.1,269.5l-84.7,48.9c-2.4,1.4-2.4,4.8,0,6.2l84.7,48.9c2.2,1.3,5,1.3,7.2,0l84.7-48.9
						c2.4-1.4,2.4-4.8,0-6.2l-84.7-48.9C101.1,268.2,98.3,268.2,96.1,269.5z"/>
					<path class="st22" d="M96.1,269.6l-84.4,48.8c-2.4,1.4-2.4,4.8,0,6.2l84.4,48.8c2.2,1.3,5,1.3,7.2,0l84.4-48.8
						c2.4-1.4,2.4-4.8,0-6.2l-84.4-48.8C101.1,268.3,98.3,268.3,96.1,269.6z"/>
					<path class="st23" d="M96.1,269.8l-84.2,48.6c-2.4,1.4-2.4,4.8,0,6.2l84.2,48.6c2.2,1.3,5,1.3,7.2,0l84.2-48.6
						c2.4-1.4,2.4-4.8,0-6.2l-84.2-48.6C101.1,268.5,98.3,268.5,96.1,269.8z"/>
					<path class="st24" d="M96.1,269.9l-83.9,48.5c-2.4,1.4-2.4,4.8,0,6.1L96.1,373c2.2,1.3,5,1.3,7.2,0l83.9-48.5
						c2.4-1.4,2.4-4.8,0-6.1l-83.9-48.5C101.1,268.6,98.3,268.6,96.1,269.9z"/>
					<path class="st25" d="M96.1,270.1l-83.7,48.3c-2.4,1.4-2.4,4.8,0,6.1l83.7,48.3c2.2,1.3,4.9,1.3,7.2,0l83.7-48.3
						c2.4-1.4,2.4-4.8,0-6.1l-83.7-48.3C101.1,268.8,98.3,268.8,96.1,270.1z"/>
					<path class="st26" d="M96.1,270.2l-83.5,48.2c-2.3,1.4-2.3,4.7,0,6.1l83.5,48.2c2.2,1.3,4.9,1.3,7.1,0l83.5-48.2
						c2.3-1.4,2.3-4.7,0-6.1l-83.5-48.2C101.1,268.9,98.3,268.9,96.1,270.2z"/>
					<path class="st27" d="M96.2,270.4l-83.2,48c-2.3,1.4-2.3,4.7,0,6.1l83.2,48c2.2,1.3,4.9,1.3,7.1,0l83.2-48
						c2.3-1.4,2.3-4.7,0-6.1l-83.2-48C101.1,269.1,98.4,269.1,96.2,270.4z"/>
					<path class="st28" d="M96.2,270.5l-83,47.9c-2.3,1.3-2.3,4.7,0,6.1l83,47.9c2.2,1.3,4.9,1.3,7.1,0l83-47.9
						c2.3-1.3,2.3-4.7,0-6.1l-83-47.9C101.1,269.3,98.4,269.3,96.2,270.5z"/>
					<path class="st29" d="M96.2,270.7l-82.7,47.8c-2.3,1.3-2.3,4.7,0,6.1l82.7,47.8c2.2,1.3,4.9,1.3,7.1,0l82.7-47.8
						c2.3-1.3,2.3-4.7,0-6.1l-82.7-47.8C101.1,269.4,98.4,269.4,96.2,270.7z"/>
					<path class="st30" d="M96.2,270.8l-82.5,47.6c-2.3,1.3-2.3,4.7,0,6l82.5,47.6c2.2,1.3,4.9,1.3,7,0l82.5-47.6
						c2.3-1.3,2.3-4.7,0-6l-82.5-47.6C101.1,269.6,98.4,269.6,96.2,270.8z"/>
					<path class="st31" d="M96.2,271L14,318.4c-2.3,1.3-2.3,4.7,0,6l82.2,47.5c2.2,1.3,4.9,1.3,7,0l82.2-47.5c2.3-1.3,2.3-4.7,0-6
						L103.2,271C101,269.7,98.4,269.7,96.2,271z"/>
					<path class="st32" d="M96.2,271.1l-82,47.3c-2.3,1.3-2.3,4.7,0,6l82,47.3c2.2,1.3,4.8,1.3,7,0l82-47.3c2.3-1.3,2.3-4.7,0-6
						l-82-47.3C101,269.9,98.4,269.9,96.2,271.1z"/>
					<path class="st33" d="M96.2,271.3l-81.7,47.2c-2.3,1.3-2.3,4.6,0,6l81.7,47.2c2.2,1.2,4.8,1.2,7,0l81.7-47.2
						c2.3-1.3,2.3-4.6,0-6l-81.7-47.2C101,270,98.4,270,96.2,271.3z"/>
					<path class="st34" d="M96.2,271.4l-81.5,47c-2.3,1.3-2.3,4.6,0,6l81.5,47c2.2,1.2,4.8,1.2,7,0l81.5-47c2.3-1.3,2.3-4.6,0-6
						l-81.5-47C101,270.2,98.4,270.2,96.2,271.4z"/>
					<path class="st35" d="M96.2,271.6L15,318.5c-2.3,1.3-2.3,4.6,0,5.9l81.2,46.9c2.1,1.2,4.8,1.2,6.9,0l81.2-46.9
						c2.3-1.3,2.3-4.6,0-5.9l-81.2-46.9C101,270.3,98.4,270.3,96.2,271.6z"/>
					<path class="st36" d="M96.2,271.7l-81,46.7c-2.3,1.3-2.3,4.6,0,5.9l81,46.7c2.1,1.2,4.8,1.2,6.9,0l81-46.7
						c2.3-1.3,2.3-4.6,0-5.9l-81-46.7C101,270.5,98.4,270.5,96.2,271.7z"/>
					<path class="st37" d="M96.3,271.9l-80.7,46.6c-2.3,1.3-2.3,4.6,0,5.9L96.3,371c2.1,1.2,4.8,1.2,6.9,0l80.7-46.6
						c2.3-1.3,2.3-4.6,0-5.9l-80.7-46.6C101,270.7,98.4,270.7,96.3,271.9z"/>
					<path class="st38" d="M96.3,272l-80.5,46.5c-2.3,1.3-2.3,4.6,0,5.9l80.5,46.5c2.1,1.2,4.7,1.2,6.9,0l80.5-46.5
						c2.3-1.3,2.3-4.6,0-5.9L103.1,272C101,270.8,98.4,270.8,96.3,272z"/>
					<path class="st39" d="M96.3,272.2l-80.2,46.3c-2.3,1.3-2.3,4.6,0,5.9l80.2,46.3c2.1,1.2,4.7,1.2,6.9,0l80.2-46.3
						c2.3-1.3,2.3-4.6,0-5.9l-80.2-46.3C101,271,98.4,271,96.3,272.2z"/>
					<path class="st40" d="M96.3,272.4l-80,46.2c-2.3,1.3-2.3,4.6,0,5.9l80,46.2c2.1,1.2,4.7,1.2,6.8,0l80-46.2
						c2.3-1.3,2.3-4.6,0-5.9l-80-46.2C101,271.1,98.4,271.1,96.3,272.4z"/>
					<path class="st41" d="M96.3,272.5l-79.7,46c-2.2,1.3-2.2,4.5,0,5.8l79.7,46c2.1,1.2,4.7,1.2,6.8,0l79.7-46
						c2.2-1.3,2.2-4.5,0-5.8l-79.7-46C101,271.3,98.4,271.3,96.3,272.5z"/>
					<path class="st42" d="M96.3,272.7l-79.5,45.9c-2.2,1.3-2.2,4.5,0,5.8l79.5,45.9c2.1,1.2,4.7,1.2,6.8,0l79.5-45.9
						c2.2-1.3,2.2-4.5,0-5.8l-79.5-45.9C101,271.4,98.4,271.4,96.3,272.7z"/>
					<path class="st43" d="M96.3,272.8l-79.2,45.7c-2.2,1.3-2.2,4.5,0,5.8l79.2,45.7c2.1,1.2,4.7,1.2,6.8,0l79.2-45.7
						c2.2-1.3,2.2-4.5,0-5.8l-79.2-45.7C101,271.6,98.4,271.6,96.3,272.8z"/>
					<path class="st44" d="M96.3,273l-79,45.6c-2.2,1.3-2.2,4.5,0,5.8l79,45.6c2.1,1.2,4.7,1.2,6.7,0l79-45.6c2.2-1.3,2.2-4.5,0-5.8
						l-79-45.6C101,271.8,98.4,271.8,96.3,273z"/>
					<path class="st45" d="M96.3,273.1l-78.7,45.5c-2.2,1.3-2.2,4.5,0,5.8l78.7,45.5c2.1,1.2,4.6,1.2,6.7,0l78.7-45.5
						c2.2-1.3,2.2-4.5,0-5.8l-78.7-45.5C101,271.9,98.4,271.9,96.3,273.1z"/>
					<path class="st46" d="M96.4,273.3l-78.5,45.3c-2.2,1.3-2.2,4.5,0,5.7l78.5,45.3c2.1,1.2,4.6,1.2,6.7,0l78.5-45.3
						c2.2-1.3,2.2-4.5,0-5.7l-78.5-45.3C101,272.1,98.4,272.1,96.4,273.3z"/>
					<path class="st47" d="M96.4,273.4l-78.2,45.2c-2.2,1.3-2.2,4.5,0,5.7l78.2,45.2c2.1,1.2,4.6,1.2,6.7,0l78.2-45.2
						c2.2-1.3,2.2-4.5,0-5.7l-78.2-45.2C101,272.2,98.4,272.2,96.4,273.4z"/>
					<path class="st48" d="M96.4,273.6l-78,45c-2.2,1.3-2.2,4.4,0,5.7l78,45c2.1,1.2,4.6,1.2,6.7,0l78-45c2.2-1.3,2.2-4.4,0-5.7
						l-78-45C101,272.4,98.4,272.4,96.4,273.6z"/>
					<path class="st49" d="M96.4,273.7l-77.7,44.9c-2.2,1.3-2.2,4.4,0,5.7l77.7,44.9c2.1,1.2,4.6,1.2,6.6,0l77.7-44.9
						c2.2-1.3,2.2-4.4,0-5.7L103,273.7C101,272.5,98.4,272.5,96.4,273.7z"/>
					<path class="st50" d="M96.4,273.9l-77.5,44.7c-2.2,1.3-2.2,4.4,0,5.7L96.4,369c2,1.2,4.6,1.2,6.6,0l77.5-44.7
						c2.2-1.3,2.2-4.4,0-5.7L103,273.9C101,272.7,98.4,272.7,96.4,273.9z"/>
					<path id="XMLID_18119_" class="st51" d="M96.4,274l-77.2,44.6c-2.2,1.3-2.2,4.4,0,5.7l77.2,44.6c2,1.2,4.6,1.2,6.6,0l77.2-44.6
						c2.2-1.3,2.2-4.4,0-5.7L103,274C101,272.8,98.5,272.8,96.4,274z"/>
				</g>
				<g>
					<linearGradient id="SVGID_1_" gradientUnits="userSpaceOnUse" x1="9.8988" y1="252.2802" x2="189.5175" y2="252.2802">
						<stop  offset="0" style="stop-color:#B4ACBF"/>
						<stop  offset="0.6" style="stop-color:#F0E5FF"/>
					</linearGradient>
					<path class="st52" d="M11,135.5v177.8v7.2c0.5,0.8,1.2,1.4,2.1,2l75.6,43.7c3.5,2,7.3,3,11.2,3c3.9,0,7.7-1,11.2-3l75.4-43.5
						c0.8-0.5,1.5-1.1,2-1.8v-7.1V135.5H11z"/>
					<linearGradient id="SVGID_2_" gradientUnits="userSpaceOnUse" x1="10.9751" y1="135.8419" x2="188.4316" y2="135.8419">
						<stop  offset="0" style="stop-color:#F0E5FF"/>
						<stop  offset="1" style="stop-color:#FFFFFF"/>
					</linearGradient>
					<path class="st53" d="M14.1,141.3l74.7,43.1c6.8,3.9,15.2,3.9,22.1,0l74.5-43c2.3-1.3,3.2-3.7,3-6c-0.2-1.8-1.2-3.6-3-4.6
						l-76.1-43.9c-6.2-3.6-13.9-3.6-20.1,0l-75.1,43.4c-2,1.2-3,3.1-3.1,5.2C10.9,137.7,11.9,140,14.1,141.3z"/>
					<g>
						<g id="XMLID_1601_">
							<linearGradient id="XMLID_2_" gradientUnits="userSpaceOnUse" x1="36.3397" y1="134.9944" x2="163.3395" y2="134.9944">
								<stop  offset="0" style="stop-color:#B4ACBF"/>
								<stop  offset="0.5146" style="stop-color:#D1C8DE"/>
								<stop  offset="1" style="stop-color:#F0E5FF"/>
							</linearGradient>
							<path id="XMLID_1603_" class="st54" d="M97.3,98.3l-60.9,29v8.3c0,0.5,0.3,0.9,0.7,1.2l60.3,34.9c1.6,0.9,3.5,0.9,5.1,0
								l60.2-34.8c0.5-0.3,0.8-0.8,0.8-1.3v-8.2l-60.9-29C100.8,97.4,98.9,97.4,97.3,98.3z"/>
							<linearGradient id="XMLID_3_" gradientUnits="userSpaceOnUse" x1="36.3396" y1="127.3086" x2="163.3396" y2="127.3086">
								<stop  offset="0" style="stop-color:#F0E5FF"/>
								<stop  offset="1" style="stop-color:#FFFFFF"/>
							</linearGradient>
							<path id="XMLID_1602_" class="st55" d="M97.3,90.7l-59.7,34.5c-1.7,1-1.7,3.4,0,4.4L97.3,164c1.6,0.9,3.5,0.9,5.1,0
								l59.7-34.5c1.7-1,1.7-3.4,0-4.4l-59.7-34.5C100.8,89.8,98.9,89.8,97.3,90.7z"/>
						</g>
						<linearGradient id="XMLID_4_" gradientUnits="userSpaceOnUse" x1="54.2057" y1="126.1343" x2="144.79" y2="126.1343">
							<stop  offset="0" style="stop-color:#F0E5FF"/>
							<stop  offset="1" style="stop-color:#FFFFFF"/>
						</linearGradient>
						<path id="XMLID_1600_" class="st56" d="M97.7,100l-42.6,24.6c-1.2,0.7-1.2,2.4,0,3.1l42.6,24.6c1.1,0.6,2.5,0.6,3.6,0
							l42.6-24.6c1.2-0.7,1.2-2.4,0-3.1L101.3,100C100.2,99.3,98.8,99.3,97.7,100z"/>
						<linearGradient id="XMLID_5_" gradientUnits="userSpaceOnUse" x1="54.2143" y1="138.9465" x2="144.7815" y2="138.9465">
							<stop  offset="0" style="stop-color:#B4ACBF"/>
							<stop  offset="0.5146" style="stop-color:#D1C8DE"/>
							<stop  offset="1" style="stop-color:#F0E5FF"/>
						</linearGradient>
						<path id="XMLID_1599_" class="st57" d="M143.9,125.7l-42.6,24.6c-1.1,0.6-2.5,0.6-3.6,0l-42.6-24.6c-0.3-0.1-0.4-0.3-0.6-0.6
							c-0.6,0.8-0.4,2,0.6,2.6l42.6,24.6c1.1,0.6,2.5,0.6,3.6,0l42.6-24.6c0.9-0.5,1.1-1.7,0.6-2.6
							C144.3,125.4,144.1,125.5,143.9,125.7z"/>
					</g>
				</g>
			</g>
			
				<radialGradient id="XMLID_6_" cx="99.8396" cy="7661.0244" r="40.4353" gradientTransform="matrix(1 0 0 0.5172 0 -3836.8115)" gradientUnits="userSpaceOnUse">
				<stop  offset="0" style="stop-color:#120426"/>
				<stop  offset="8.588529e-02" style="stop-color:#1A0D2E;stop-opacity:0.9141"/>
				<stop  offset="0.2261" style="stop-color:#322543;stop-opacity:0.7739"/>
				<stop  offset="0.4031" style="stop-color:#574D65;stop-opacity:0.5969"/>
				<stop  offset="0.6102" style="stop-color:#8B8495;stop-opacity:0.3898"/>
				<stop  offset="0.8395" style="stop-color:#CDCAD1;stop-opacity:0.1605"/>
				<stop  offset="1" style="stop-color:#FFFFFF;stop-opacity:0"/>
			</radialGradient>
			<path id="XMLID_1598_" class="st58" d="M71.5,109.1c15.6-9,41.1-9,56.6,0c15.6,9,15.6,23.7,0,32.7c-15.6,9-41.1,9-56.6,0
				C55.9,132.8,55.9,118.1,71.5,109.1z"/>
			<g>
				<g id="XMLID_18121_">
					<path id="XMLID_18123_" class="st0" d="M386.5,266.3l-89.9,51.9c-2.5,1.5-2.5,5.1,0,6.6l89.9,51.9c2.4,1.4,5.3,1.4,7.7,0
						l89.9-51.9c2.5-1.5,2.5-5.1,0-6.6l-89.9-51.9C391.8,264.9,388.8,264.9,386.5,266.3z"/>
					<path class="st1" d="M386.5,266.4l-89.7,51.8c-2.5,1.5-2.5,5.1,0,6.6l89.7,51.8c2.4,1.4,5.3,1.4,7.7,0l89.7-51.8
						c2.5-1.5,2.5-5.1,0-6.6l-89.7-51.8C391.8,265,388.8,265,386.5,266.4z"/>
					<path class="st2" d="M386.5,266.6l-89.4,51.6c-2.5,1.5-2.5,5.1,0,6.5l89.4,51.6c2.4,1.4,5.3,1.4,7.6,0l89.4-51.6
						c2.5-1.5,2.5-5.1,0-6.5l-89.4-51.6C391.7,265.2,388.8,265.2,386.5,266.6z"/>
					<path class="st3" d="M386.5,266.7l-89.2,51.5c-2.5,1.4-2.5,5.1,0,6.5l89.2,51.5c2.4,1.4,5.3,1.4,7.6,0l89.2-51.5
						c2.5-1.4,2.5-5.1,0-6.5l-89.2-51.5C391.7,265.4,388.8,265.4,386.5,266.7z"/>
					<path class="st4" d="M386.5,266.9l-88.9,51.3c-2.5,1.4-2.5,5.1,0,6.5l88.9,51.3c2.4,1.4,5.2,1.4,7.6,0l88.9-51.3
						c2.5-1.4,2.5-5.1,0-6.5l-88.9-51.3C391.7,265.5,388.8,265.5,386.5,266.9z"/>
					<path class="st5" d="M386.5,267l-88.7,51.2c-2.5,1.4-2.5,5,0,6.5l88.7,51.2c2.3,1.4,5.2,1.4,7.6,0l88.7-51.2
						c2.5-1.4,2.5-5,0-6.5L394.1,267C391.7,265.7,388.8,265.7,386.5,267z"/>
					<path class="st6" d="M386.5,267.2l-88.4,51c-2.5,1.4-2.5,5,0,6.5l88.4,51c2.3,1.3,5.2,1.3,7.6,0l88.4-51c2.5-1.4,2.5-5,0-6.5
						l-88.4-51C391.7,265.8,388.9,265.8,386.5,267.2z"/>
					<path class="st7" d="M386.5,267.3l-88.2,50.9c-2.5,1.4-2.5,5,0,6.5l88.2,50.9c2.3,1.3,5.2,1.3,7.5,0l88.2-50.9
						c2.5-1.4,2.5-5,0-6.5l-88.2-50.9C391.7,266,388.9,266,386.5,267.3z"/>
					<path class="st8" d="M386.5,267.5l-87.9,50.8c-2.5,1.4-2.5,5,0,6.4l87.9,50.8c2.3,1.3,5.2,1.3,7.5,0l87.9-50.8
						c2.5-1.4,2.5-5,0-6.4L394,267.5C391.7,266.1,388.9,266.1,386.5,267.5z"/>
					<path class="st9" d="M386.5,267.6l-87.7,50.6c-2.5,1.4-2.5,5,0,6.4l87.7,50.6c2.3,1.3,5.2,1.3,7.5,0l87.7-50.6
						c2.5-1.4,2.5-5,0-6.4L394,267.6C391.7,266.3,388.9,266.3,386.5,267.6z"/>
					<path class="st10" d="M386.6,267.8l-87.4,50.5c-2.5,1.4-2.5,5,0,6.4l87.4,50.5c2.3,1.3,5.2,1.3,7.5,0l87.4-50.5
						c2.5-1.4,2.5-5,0-6.4L394,267.8C391.7,266.4,388.9,266.4,386.6,267.8z"/>
					<path class="st11" d="M386.6,267.9l-87.2,50.3c-2.5,1.4-2.5,5,0,6.4l87.2,50.3c2.3,1.3,5.1,1.3,7.4,0l87.2-50.3
						c2.5-1.4,2.5-5,0-6.4L394,267.9C391.7,266.6,388.9,266.6,386.6,267.9z"/>
					<path class="st12" d="M386.6,268.1l-86.9,50.2c-2.4,1.4-2.4,4.9,0,6.4l86.9,50.2c2.3,1.3,5.1,1.3,7.4,0l86.9-50.2
						c2.4-1.4,2.4-4.9,0-6.4L394,268.1C391.7,266.8,388.9,266.8,386.6,268.1z"/>
					<path class="st13" d="M386.6,268.2l-86.7,50c-2.4,1.4-2.4,4.9,0,6.3l86.7,50c2.3,1.3,5.1,1.3,7.4,0l86.7-50
						c2.4-1.4,2.4-4.9,0-6.3l-86.7-50C391.7,266.9,388.9,266.9,386.6,268.2z"/>
					<path class="st14" d="M386.6,268.4l-86.4,49.9c-2.4,1.4-2.4,4.9,0,6.3l86.4,49.9c2.3,1.3,5.1,1.3,7.4,0l86.4-49.9
						c2.4-1.4,2.4-4.9,0-6.3L394,268.4C391.7,267.1,388.9,267.1,386.6,268.4z"/>
					<path class="st15" d="M386.6,268.5l-86.2,49.8c-2.4,1.4-2.4,4.9,0,6.3l86.2,49.8c2.3,1.3,5.1,1.3,7.4,0l86.2-49.8
						c2.4-1.4,2.4-4.9,0-6.3L394,268.5C391.7,267.2,388.9,267.2,386.6,268.5z"/>
					<path class="st16" d="M386.6,268.7l-85.9,49.6c-2.4,1.4-2.4,4.9,0,6.3l85.9,49.6c2.3,1.3,5.1,1.3,7.3,0l85.9-49.6
						c2.4-1.4,2.4-4.9,0-6.3L394,268.7C391.7,267.4,388.9,267.4,386.6,268.7z"/>
					<path class="st17" d="M386.6,268.8l-85.7,49.5c-2.4,1.4-2.4,4.9,0,6.3l85.7,49.5c2.3,1.3,5.1,1.3,7.3,0l85.7-49.5
						c2.4-1.4,2.4-4.9,0-6.3L394,268.8C391.7,267.5,388.9,267.5,386.6,268.8z"/>
					<path class="st18" d="M386.6,269l-85.4,49.3c-2.4,1.4-2.4,4.9,0,6.3l85.4,49.3c2.3,1.3,5,1.3,7.3,0l85.4-49.3
						c2.4-1.4,2.4-4.9,0-6.3L393.9,269C391.7,267.7,388.9,267.7,386.6,269z"/>
					<path class="st19" d="M386.7,269.2l-85.2,49.2c-2.4,1.4-2.4,4.8,0,6.2l85.2,49.2c2.3,1.3,5,1.3,7.3,0l85.2-49.2
						c2.4-1.4,2.4-4.8,0-6.2l-85.2-49.2C391.7,267.9,388.9,267.9,386.7,269.2z"/>
					<path class="st20" d="M386.7,269.3l-84.9,49c-2.4,1.4-2.4,4.8,0,6.2l84.9,49c2.2,1.3,5,1.3,7.3,0l84.9-49
						c2.4-1.4,2.4-4.8,0-6.2l-84.9-49C391.7,268,388.9,268,386.7,269.3z"/>
					<path class="st21" d="M386.7,269.5L302,318.4c-2.4,1.4-2.4,4.8,0,6.2l84.7,48.9c2.2,1.3,5,1.3,7.2,0l84.7-48.9
						c2.4-1.4,2.4-4.8,0-6.2l-84.7-48.9C391.7,268.2,388.9,268.2,386.7,269.5z"/>
					<path class="st22" d="M386.7,269.6l-84.4,48.8c-2.4,1.4-2.4,4.8,0,6.2l84.4,48.8c2.2,1.3,5,1.3,7.2,0l84.4-48.8
						c2.4-1.4,2.4-4.8,0-6.2l-84.4-48.8C391.7,268.3,388.9,268.3,386.7,269.6z"/>
					<path class="st23" d="M386.7,269.8l-84.2,48.6c-2.4,1.4-2.4,4.8,0,6.2l84.2,48.6c2.2,1.3,5,1.3,7.2,0l84.2-48.6
						c2.4-1.4,2.4-4.8,0-6.2l-84.2-48.6C391.7,268.5,388.9,268.5,386.7,269.8z"/>
					<path class="st24" d="M386.7,269.9l-83.9,48.5c-2.4,1.4-2.4,4.8,0,6.1l83.9,48.5c2.2,1.3,5,1.3,7.2,0l83.9-48.5
						c2.4-1.4,2.4-4.8,0-6.1l-83.9-48.5C391.7,268.6,388.9,268.6,386.7,269.9z"/>
					<path class="st25" d="M386.7,270.1L303,318.4c-2.4,1.4-2.4,4.8,0,6.1l83.7,48.3c2.2,1.3,4.9,1.3,7.2,0l83.7-48.3
						c2.4-1.4,2.4-4.8,0-6.1l-83.7-48.3C391.7,268.8,388.9,268.8,386.7,270.1z"/>
					<path class="st26" d="M386.7,270.2l-83.5,48.2c-2.3,1.4-2.3,4.7,0,6.1l83.5,48.2c2.2,1.3,4.9,1.3,7.1,0l83.5-48.2
						c2.3-1.4,2.3-4.7,0-6.1l-83.5-48.2C391.7,268.9,388.9,268.9,386.7,270.2z"/>
					<path class="st27" d="M386.7,270.4l-83.2,48c-2.3,1.4-2.3,4.7,0,6.1l83.2,48c2.2,1.3,4.9,1.3,7.1,0l83.2-48
						c2.3-1.4,2.3-4.7,0-6.1l-83.2-48C391.6,269.1,388.9,269.1,386.7,270.4z"/>
					<path class="st28" d="M386.7,270.5l-83,47.9c-2.3,1.3-2.3,4.7,0,6.1l83,47.9c2.2,1.3,4.9,1.3,7.1,0l83-47.9
						c2.3-1.3,2.3-4.7,0-6.1l-83-47.9C391.6,269.3,388.9,269.3,386.7,270.5z"/>
					<path class="st29" d="M386.8,270.7l-82.7,47.8c-2.3,1.3-2.3,4.7,0,6.1l82.7,47.8c2.2,1.3,4.9,1.3,7.1,0l82.7-47.8
						c2.3-1.3,2.3-4.7,0-6.1l-82.7-47.8C391.6,269.4,388.9,269.4,386.8,270.7z"/>
					<path class="st30" d="M386.8,270.8l-82.5,47.6c-2.3,1.3-2.3,4.7,0,6l82.5,47.6c2.2,1.3,4.9,1.3,7,0l82.5-47.6
						c2.3-1.3,2.3-4.7,0-6l-82.5-47.6C391.6,269.6,388.9,269.6,386.8,270.8z"/>
					<path class="st31" d="M386.8,271l-82.2,47.5c-2.3,1.3-2.3,4.7,0,6l82.2,47.5c2.2,1.3,4.9,1.3,7,0l82.2-47.5
						c2.3-1.3,2.3-4.7,0-6L393.8,271C391.6,269.7,389,269.7,386.8,271z"/>
					<path class="st32" d="M386.8,271.1l-82,47.3c-2.3,1.3-2.3,4.7,0,6l82,47.3c2.2,1.3,4.8,1.3,7,0l82-47.3c2.3-1.3,2.3-4.7,0-6
						l-82-47.3C391.6,269.9,389,269.9,386.8,271.1z"/>
					<path class="st33" d="M386.8,271.3l-81.7,47.2c-2.3,1.3-2.3,4.6,0,6l81.7,47.2c2.2,1.2,4.8,1.2,7,0l81.7-47.2
						c2.3-1.3,2.3-4.6,0-6l-81.7-47.2C391.6,270,389,270,386.8,271.3z"/>
					<path class="st34" d="M386.8,271.4l-81.5,47c-2.3,1.3-2.3,4.6,0,6l81.5,47c2.2,1.2,4.8,1.2,7,0l81.5-47c2.3-1.3,2.3-4.6,0-6
						l-81.5-47C391.6,270.2,389,270.2,386.8,271.4z"/>
					<path class="st35" d="M386.8,271.6l-81.2,46.9c-2.3,1.3-2.3,4.6,0,5.9l81.2,46.9c2.1,1.2,4.8,1.2,6.9,0l81.2-46.9
						c2.3-1.3,2.3-4.6,0-5.9l-81.2-46.9C391.6,270.3,389,270.3,386.8,271.6z"/>
					<path class="st36" d="M386.8,271.7l-81,46.7c-2.3,1.3-2.3,4.6,0,5.9l81,46.7c2.1,1.2,4.8,1.2,6.9,0l81-46.7
						c2.3-1.3,2.3-4.6,0-5.9l-81-46.7C391.6,270.5,389,270.5,386.8,271.7z"/>
					<path class="st37" d="M386.8,271.9l-80.7,46.6c-2.3,1.3-2.3,4.6,0,5.9l80.7,46.6c2.1,1.2,4.8,1.2,6.9,0l80.7-46.6
						c2.3-1.3,2.3-4.6,0-5.9l-80.7-46.6C391.6,270.7,389,270.7,386.8,271.9z"/>
					<path class="st38" d="M386.9,272l-80.5,46.5c-2.3,1.3-2.3,4.6,0,5.9l80.5,46.5c2.1,1.2,4.7,1.2,6.9,0l80.5-46.5
						c2.3-1.3,2.3-4.6,0-5.9L393.7,272C391.6,270.8,389,270.8,386.9,272z"/>
					<path class="st39" d="M386.9,272.2l-80.2,46.3c-2.3,1.3-2.3,4.6,0,5.9l80.2,46.3c2.1,1.2,4.7,1.2,6.9,0l80.2-46.3
						c2.3-1.3,2.3-4.6,0-5.9l-80.2-46.3C391.6,271,389,271,386.9,272.2z"/>
					<path class="st40" d="M386.9,272.4l-80,46.2c-2.3,1.3-2.3,4.6,0,5.9l80,46.2c2.1,1.2,4.7,1.2,6.8,0l80-46.2
						c2.3-1.3,2.3-4.6,0-5.9l-80-46.2C391.6,271.1,389,271.1,386.9,272.4z"/>
					<path class="st41" d="M386.9,272.5l-79.7,46c-2.2,1.3-2.2,4.5,0,5.8l79.7,46c2.1,1.2,4.7,1.2,6.8,0l79.7-46
						c2.2-1.3,2.2-4.5,0-5.8l-79.7-46C391.6,271.3,389,271.3,386.9,272.5z"/>
					<path class="st42" d="M386.9,272.7l-79.5,45.9c-2.2,1.3-2.2,4.5,0,5.8l79.5,45.9c2.1,1.2,4.7,1.2,6.8,0l79.5-45.9
						c2.2-1.3,2.2-4.5,0-5.8l-79.5-45.9C391.6,271.4,389,271.4,386.9,272.7z"/>
					<path class="st43" d="M386.9,272.8l-79.2,45.7c-2.2,1.3-2.2,4.5,0,5.8l79.2,45.7c2.1,1.2,4.7,1.2,6.8,0l79.2-45.7
						c2.2-1.3,2.2-4.5,0-5.8l-79.2-45.7C391.6,271.6,389,271.6,386.9,272.8z"/>
					<path class="st44" d="M386.9,273l-79,45.6c-2.2,1.3-2.2,4.5,0,5.8l79,45.6c2.1,1.2,4.7,1.2,6.7,0l79-45.6
						c2.2-1.3,2.2-4.5,0-5.8l-79-45.6C391.6,271.8,389,271.8,386.9,273z"/>
					<path class="st45" d="M386.9,273.1l-78.7,45.5c-2.2,1.3-2.2,4.5,0,5.8l78.7,45.5c2.1,1.2,4.6,1.2,6.7,0l78.7-45.5
						c2.2-1.3,2.2-4.5,0-5.8l-78.7-45.5C391.6,271.9,389,271.9,386.9,273.1z"/>
					<path class="st46" d="M386.9,273.3l-78.5,45.3c-2.2,1.3-2.2,4.5,0,5.7l78.5,45.3c2.1,1.2,4.6,1.2,6.7,0l78.5-45.3
						c2.2-1.3,2.2-4.5,0-5.7l-78.5-45.3C391.6,272.1,389,272.1,386.9,273.3z"/>
					<path class="st47" d="M386.9,273.4l-78.2,45.2c-2.2,1.3-2.2,4.5,0,5.7l78.2,45.2c2.1,1.2,4.6,1.2,6.7,0l78.2-45.2
						c2.2-1.3,2.2-4.5,0-5.7l-78.2-45.2C391.6,272.2,389,272.2,386.9,273.4z"/>
					<path class="st48" d="M387,273.6l-78,45c-2.2,1.3-2.2,4.4,0,5.7l78,45c2.1,1.2,4.6,1.2,6.7,0l78-45c2.2-1.3,2.2-4.4,0-5.7
						l-78-45C391.6,272.4,389,272.4,387,273.6z"/>
					<path class="st49" d="M387,273.7l-77.7,44.9c-2.2,1.3-2.2,4.4,0,5.7l77.7,44.9c2.1,1.2,4.6,1.2,6.6,0l77.7-44.9
						c2.2-1.3,2.2-4.4,0-5.7l-77.7-44.9C391.6,272.5,389,272.5,387,273.7z"/>
					<path class="st50" d="M387,273.9l-77.5,44.7c-2.2,1.3-2.2,4.4,0,5.7L387,369c2,1.2,4.6,1.2,6.6,0l77.5-44.7
						c2.2-1.3,2.2-4.4,0-5.7l-77.5-44.7C391.6,272.7,389,272.7,387,273.9z"/>
					<path id="XMLID_18122_" class="st51" d="M387,274l-77.2,44.6c-2.2,1.3-2.2,4.4,0,5.7l77.2,44.6c2,1.2,4.6,1.2,6.6,0l77.2-44.6
						c2.2-1.3,2.2-4.4,0-5.7L393.6,274C391.5,272.8,389,272.8,387,274z"/>
				</g>
				<g>
					<linearGradient id="SVGID_3_" gradientUnits="userSpaceOnUse" x1="300.2771" y1="210.2113" x2="479.8958" y2="210.2113">
						<stop  offset="0" style="stop-color:#B4ACBF"/>
						<stop  offset="0.6" style="stop-color:#F0E5FF"/>
					</linearGradient>
					<polyline class="st59" points="478.8,313.2 478.8,107.3 301.4,107.3 301.4,312.8 					"/>
					<linearGradient id="SVGID_4_" gradientUnits="userSpaceOnUse" x1="301.5636" y1="107.2535" x2="479.0201" y2="107.2535">
						<stop  offset="0" style="stop-color:#F0E5FF"/>
						<stop  offset="1" style="stop-color:#FFFFFF"/>
					</linearGradient>
					<path class="st60" d="M304.7,112.7l74.7,43.1c6.8,3.9,15.2,3.9,22.1,0l74.5-43c2.3-1.3,3.2-3.7,3-6c-0.2-1.8-1.2-3.6-3-4.6
						l-76.1-43.9c-6.2-3.6-13.9-3.6-20.1,0l-75.1,43.4c-2,1.2-3,3.1-3.1,5.2C301.5,109.1,302.5,111.4,304.7,112.7z"/>
					<g>
						<g id="XMLID_1595_">
							<linearGradient id="XMLID_7_" gradientUnits="userSpaceOnUse" x1="326.9282" y1="106.2682" x2="453.9281" y2="106.2682">
								<stop  offset="0" style="stop-color:#B4ACBF"/>
								<stop  offset="0.5146" style="stop-color:#D1C8DE"/>
								<stop  offset="1" style="stop-color:#F0E5FF"/>
							</linearGradient>
							<path id="XMLID_1597_" class="st61" d="M387.9,69.6l-60.9,29v8.3c0,0.5,0.3,0.9,0.7,1.2l60.3,34.9c1.6,0.9,3.5,0.9,5.1,0
								l60.2-34.8c0.5-0.3,0.8-0.8,0.8-1.3v-8.2l-60.9-29C391.4,68.7,389.5,68.7,387.9,69.6z"/>
							<linearGradient id="XMLID_8_" gradientUnits="userSpaceOnUse" x1="326.9281" y1="98.5824" x2="453.9281" y2="98.5824">
								<stop  offset="0" style="stop-color:#F0E5FF"/>
								<stop  offset="1" style="stop-color:#FFFFFF"/>
							</linearGradient>
							<path id="XMLID_1596_" class="st62" d="M387.9,61.9l-59.7,34.5c-1.7,1-1.7,3.4,0,4.4l59.7,34.5c1.6,0.9,3.5,0.9,5.1,0
								l59.7-34.5c1.7-1,1.7-3.4,0-4.4L393,61.9C391.4,61,389.5,61,387.9,61.9z"/>
						</g>
						<linearGradient id="XMLID_9_" gradientUnits="userSpaceOnUse" x1="344.7943" y1="97.4081" x2="435.3786" y2="97.4081">
							<stop  offset="0" style="stop-color:#F0E5FF"/>
							<stop  offset="1" style="stop-color:#FFFFFF"/>
						</linearGradient>
						<path id="XMLID_1594_" class="st63" d="M388.3,71.3l-42.6,24.6c-1.2,0.7-1.2,2.4,0,3.1l42.6,24.6c1.1,0.6,2.5,0.6,3.6,0
							L434.5,99c1.2-0.7,1.2-2.4,0-3.1l-42.6-24.6C390.8,70.6,389.4,70.6,388.3,71.3z"/>
						<linearGradient id="XMLID_10_" gradientUnits="userSpaceOnUse" x1="344.8028" y1="110.2203" x2="435.37" y2="110.2203">
							<stop  offset="0" style="stop-color:#B4ACBF"/>
							<stop  offset="0.5146" style="stop-color:#D1C8DE"/>
							<stop  offset="1" style="stop-color:#F0E5FF"/>
						</linearGradient>
						<path id="XMLID_1593_" class="st64" d="M434.5,97l-42.6,24.6c-1.1,0.6-2.5,0.6-3.6,0L345.7,97c-0.3-0.1-0.4-0.3-0.6-0.6
							c-0.6,0.8-0.4,2,0.6,2.6l42.6,24.6c1.1,0.6,2.5,0.6,3.6,0L434.5,99c0.9-0.5,1.1-1.7,0.6-2.6C434.9,96.6,434.7,96.8,434.5,97z"
							/>
					</g>
					<linearGradient id="SVGID_5_" gradientUnits="userSpaceOnUse" x1="300.2771" y1="340.6772" x2="479.8958" y2="340.6772">
						<stop  offset="0" style="stop-color:#B4ACBF"/>
						<stop  offset="0.6" style="stop-color:#F0E5FF"/>
					</linearGradient>
					<path class="st65" d="M301.4,312.8v7.2c0.5,0.8,1.2,1.4,2.1,2l75.6,43.7c3.5,2,7.3,3,11.2,3c3.9,0,7.7-1,11.2-3l75.4-43.5
						c0.8-0.5,1.5-1.1,2-1.8v-7.1"/>
				</g>
			</g>
			
				<radialGradient id="XMLID_11_" cx="390.4281" cy="7605.5215" r="40.4353" gradientTransform="matrix(1 0 0 0.5172 0 -3836.8115)" gradientUnits="userSpaceOnUse">
				<stop  offset="0" style="stop-color:#120426"/>
				<stop  offset="8.588529e-02" style="stop-color:#1A0D2E;stop-opacity:0.9141"/>
				<stop  offset="0.2261" style="stop-color:#322543;stop-opacity:0.7739"/>
				<stop  offset="0.4031" style="stop-color:#574D65;stop-opacity:0.5969"/>
				<stop  offset="0.6102" style="stop-color:#8B8495;stop-opacity:0.3898"/>
				<stop  offset="0.8395" style="stop-color:#CDCAD1;stop-opacity:0.1605"/>
				<stop  offset="1" style="stop-color:#FFFFFF;stop-opacity:0"/>
			</radialGradient>
			<path id="XMLID_1592_" class="st66" d="M362.1,80.4c15.6-9,41.1-9,56.6,0c15.6,9,15.6,23.7,0,32.7c-15.6,9-41.1,9-56.6,0
				C346.5,104.1,346.5,89.4,362.1,80.4z"/>
			<g>
				<g id="XMLID_18124_">
					<path id="XMLID_18145_" class="st0" d="M239,305.3l-149,86c-4.2,2.4-4.2,8.5,0,10.9l149,86c3.9,2.3,8.8,2.3,12.7,0l149-86
						c4.2-2.4,4.2-8.5,0-10.9l-149-86C247.7,303.1,242.9,303.1,239,305.3z"/>
					<path class="st1" d="M239,305.6L90.4,391.4c-4.2,2.4-4.2,8.5,0,10.9L239,488c3.9,2.3,8.8,2.3,12.7,0l148.6-85.8
						c4.2-2.4,4.2-8.5,0-10.9l-148.6-85.8C247.7,303.3,242.9,303.3,239,305.6z"/>
					<path class="st2" d="M239,305.8L90.8,391.4c-4.2,2.4-4.2,8.4,0,10.8L239,487.8c3.9,2.3,8.7,2.3,12.7,0l148.2-85.6
						c4.2-2.4,4.2-8.4,0-10.8l-148.2-85.6C247.7,303.6,242.9,303.6,239,305.8z"/>
					<path class="st3" d="M239,306.1L91.2,391.4c-4.2,2.4-4.2,8.4,0,10.8L239,487.5c3.9,2.3,8.7,2.3,12.6,0l147.8-85.3
						c4.2-2.4,4.2-8.4,0-10.8l-147.8-85.3C247.7,303.8,242.9,303.8,239,306.1z"/>
					<path class="st4" d="M239,306.3L91.7,391.4c-4.1,2.4-4.1,8.4,0,10.8L239,487.3c3.9,2.2,8.7,2.2,12.6,0L399,402.2
						c4.1-2.4,4.1-8.4,0-10.8l-147.4-85.1C247.7,304.1,242.9,304.1,239,306.3z"/>
					<path class="st5" d="M239,306.6l-147,84.8c-4.1,2.4-4.1,8.4,0,10.8L239,487c3.9,2.2,8.7,2.2,12.6,0l147-84.8
						c4.1-2.4,4.1-8.4,0-10.8l-147-84.8C247.7,304.4,242.9,304.4,239,306.6z"/>
					<path class="st6" d="M239.1,306.8L92.5,391.5c-4.1,2.4-4.1,8.3,0,10.7l146.5,84.6c3.9,2.2,8.6,2.2,12.5,0l146.5-84.6
						c4.1-2.4,4.1-8.3,0-10.7l-146.5-84.6C247.7,304.6,242.9,304.6,239.1,306.8z"/>
					<path class="st7" d="M239.1,307.1L92.9,391.5c-4.1,2.4-4.1,8.3,0,10.7l146.1,84.4c3.9,2.2,8.6,2.2,12.5,0l146.1-84.4
						c4.1-2.4,4.1-8.3,0-10.7l-146.1-84.4C247.7,304.9,242.9,304.9,239.1,307.1z"/>
					<path class="st8" d="M239.1,307.4L93.4,391.5c-4.1,2.4-4.1,8.3,0,10.7l145.7,84.1c3.9,2.2,8.6,2.2,12.5,0l145.7-84.1
						c4.1-2.4,4.1-8.3,0-10.7l-145.7-84.1C247.7,305.1,242.9,305.1,239.1,307.4z"/>
					<path class="st9" d="M239.1,307.6L93.8,391.5c-4.1,2.4-4.1,8.3,0,10.6L239.1,486c3.8,2.2,8.6,2.2,12.4,0l145.3-83.9
						c4.1-2.4,4.1-8.3,0-10.6l-145.3-83.9C247.7,305.4,243,305.4,239.1,307.6z"/>
					<path class="st10" d="M239.1,307.9L94.2,391.5c-4.1,2.4-4.1,8.2,0,10.6l144.9,83.7c3.8,2.2,8.5,2.2,12.4,0l144.9-83.7
						c4.1-2.4,4.1-8.2,0-10.6l-144.9-83.7C247.7,305.6,243,305.6,239.1,307.9z"/>
					<path class="st11" d="M239.1,308.1L94.7,391.5c-4.1,2.3-4.1,8.2,0,10.6l144.5,83.4c3.8,2.2,8.5,2.2,12.3,0L396,402.1
						c4.1-2.3,4.1-8.2,0-10.6l-144.5-83.4C247.7,305.9,243,305.9,239.1,308.1z"/>
					<path class="st12" d="M239.2,308.4L95.1,391.5c-4.1,2.3-4.1,8.2,0,10.5l144.1,83.2c3.8,2.2,8.5,2.2,12.3,0l144.1-83.2
						c4.1-2.3,4.1-8.2,0-10.5l-144.1-83.2C247.7,306.2,243,306.2,239.2,308.4z"/>
					<path class="st13" d="M239.2,308.6L95.5,391.6c-4,2.3-4,8.2,0,10.5L239.2,485c3.8,2.2,8.5,2.2,12.3,0l143.7-82.9
						c4-2.3,4-8.2,0-10.5l-143.7-82.9C247.7,306.4,243,306.4,239.2,308.6z"/>
					<path class="st14" d="M239.2,308.9L95.9,391.6c-4,2.3-4,8.2,0,10.5l143.2,82.7c3.8,2.2,8.5,2.2,12.2,0l143.2-82.7
						c4-2.3,4-8.2,0-10.5l-143.2-82.7C247.7,306.7,243,306.7,239.2,308.9z"/>
					<path class="st15" d="M239.2,309.1L96.4,391.6c-4,2.3-4,8.1,0,10.4l142.8,82.5c3.8,2.2,8.4,2.2,12.2,0L394.3,402
						c4-2.3,4-8.1,0-10.4l-142.8-82.5C247.6,306.9,243,306.9,239.2,309.1z"/>
					<path class="st16" d="M239.2,309.4L96.8,391.6c-4,2.3-4,8.1,0,10.4l142.4,82.2c3.8,2.2,8.4,2.2,12.2,0L393.8,402
						c4-2.3,4-8.1,0-10.4l-142.4-82.2C247.6,307.2,243,307.2,239.2,309.4z"/>
					<path class="st17" d="M239.3,309.6l-142,82c-4,2.3-4,8.1,0,10.4l142,82c3.8,2.2,8.4,2.2,12.1,0l142-82c4-2.3,4-8.1,0-10.4
						l-142-82C247.6,307.5,243,307.5,239.3,309.6z"/>
					<path class="st18" d="M239.3,309.9L97.7,391.6c-4,2.3-4,8.1,0,10.4l141.6,81.8c3.7,2.2,8.4,2.2,12.1,0L393,402
						c4-2.3,4-8.1,0-10.4l-141.6-81.8C247.6,307.7,243,307.7,239.3,309.9z"/>
					<path class="st19" d="M239.3,310.1L98.1,391.6c-4,2.3-4,8,0,10.3l141.2,81.5c3.7,2.2,8.3,2.2,12.1,0L392.5,402
						c4-2.3,4-8,0-10.3l-141.2-81.5C247.6,308,243,308,239.3,310.1z"/>
					<path class="st20" d="M239.3,310.4L98.5,391.7c-4,2.3-4,8,0,10.3l140.8,81.3c3.7,2.1,8.3,2.1,12,0L392.1,402c4-2.3,4-8,0-10.3
						l-140.8-81.3C247.6,308.2,243,308.2,239.3,310.4z"/>
					<path class="st21" d="M239.3,310.6L99,391.7c-4,2.3-4,8,0,10.3l140.4,81c3.7,2.1,8.3,2.1,12,0l140.4-81c4-2.3,4-8,0-10.3
						l-140.4-81C247.6,308.5,243,308.5,239.3,310.6z"/>
					<path class="st22" d="M239.3,310.9l-140,80.8c-3.9,2.3-3.9,8,0,10.2l140,80.8c3.7,2.1,8.3,2.1,12,0l140-80.8
						c3.9-2.3,3.9-8,0-10.2l-140-80.8C247.6,308.8,243,308.8,239.3,310.9z"/>
					<path class="st23" d="M239.4,311.1L99.8,391.7c-3.9,2.3-3.9,7.9,0,10.2l139.5,80.6c3.7,2.1,8.2,2.1,11.9,0l139.5-80.6
						c3.9-2.3,3.9-7.9,0-10.2l-139.5-80.6C247.6,309,243,309,239.4,311.1z"/>
					<path class="st24" d="M239.4,311.4l-139.1,80.3c-3.9,2.3-3.9,7.9,0,10.2l139.1,80.3c3.7,2.1,8.2,2.1,11.9,0l139.1-80.3
						c3.9-2.3,3.9-7.9,0-10.2l-139.1-80.3C247.6,309.3,243.1,309.3,239.4,311.4z"/>
					<path class="st25" d="M239.4,311.6l-138.7,80.1c-3.9,2.3-3.9,7.9,0,10.1L239.4,482c3.7,2.1,8.2,2.1,11.9,0L390,401.9
						c3.9-2.3,3.9-7.9,0-10.1l-138.7-80.1C247.6,309.5,243.1,309.5,239.4,311.6z"/>
					<path class="st26" d="M239.4,311.9l-138.3,79.9c-3.9,2.2-3.9,7.9,0,10.1l138.3,79.9c3.7,2.1,8.2,2.1,11.8,0l138.3-79.9
						c3.9-2.2,3.9-7.9,0-10.1l-138.3-79.9C247.6,309.8,243.1,309.8,239.4,311.9z"/>
					<path class="st27" d="M239.4,312.2l-137.9,79.6c-3.9,2.2-3.9,7.8,0,10.1l137.9,79.6c3.6,2.1,8.1,2.1,11.8,0l137.9-79.6
						c3.9-2.2,3.9-7.8,0-10.1l-137.9-79.6C247.6,310,243.1,310,239.4,312.2z"/>
					<path class="st28" d="M239.4,312.4L102,391.8c-3.9,2.2-3.9,7.8,0,10.1l137.5,79.4c3.6,2.1,8.1,2.1,11.7,0l137.5-79.4
						c3.9-2.2,3.9-7.8,0-10.1l-137.5-79.4C247.6,310.3,243.1,310.3,239.4,312.4z"/>
					<path class="st29" d="M239.5,312.7l-137.1,79.1c-3.9,2.2-3.9,7.8,0,10L239.5,481c3.6,2.1,8.1,2.1,11.7,0l137.1-79.1
						c3.9-2.2,3.9-7.8,0-10l-137.1-79.1C247.6,310.6,243.1,310.6,239.5,312.7z"/>
					<path class="st30" d="M239.5,312.9l-136.7,78.9c-3.8,2.2-3.8,7.8,0,10l136.7,78.9c3.6,2.1,8.1,2.1,11.7,0l136.7-78.9
						c3.8-2.2,3.8-7.8,0-10l-136.7-78.9C247.5,310.8,243.1,310.8,239.5,312.9z"/>
					<path class="st31" d="M239.5,313.2l-136.3,78.7c-3.8,2.2-3.8,7.8,0,10l136.3,78.7c3.6,2.1,8,2.1,11.6,0l136.3-78.7
						c3.8-2.2,3.8-7.8,0-10l-136.3-78.7C247.5,311.1,243.1,311.1,239.5,313.2z"/>
					<path class="st32" d="M239.5,313.4l-135.8,78.4c-3.8,2.2-3.8,7.7,0,9.9l135.8,78.4c3.6,2.1,8,2.1,11.6,0L387,401.8
						c3.8-2.2,3.8-7.7,0-9.9l-135.8-78.4C247.5,311.3,243.1,311.3,239.5,313.4z"/>
					<path class="st33" d="M239.5,313.7l-135.4,78.2c-3.8,2.2-3.8,7.7,0,9.9L239.5,480c3.6,2.1,8,2.1,11.6,0l135.4-78.2
						c3.8-2.2,3.8-7.7,0-9.9l-135.4-78.2C247.5,311.6,243.1,311.6,239.5,313.7z"/>
					<path class="st34" d="M239.5,313.9l-135,78c-3.8,2.2-3.8,7.7,0,9.9l135,78c3.6,2.1,8,2.1,11.5,0l135-78c3.8-2.2,3.8-7.7,0-9.9
						l-135-78C247.5,311.9,243.1,311.9,239.5,313.9z"/>
					<path class="st35" d="M239.6,314.2L105,391.9c-3.8,2.2-3.8,7.7,0,9.8l134.6,77.7c3.6,2.1,7.9,2.1,11.5,0l134.6-77.7
						c3.8-2.2,3.8-7.7,0-9.8l-134.6-77.7C247.5,312.1,243.1,312.1,239.6,314.2z"/>
					<path class="st36" d="M239.6,314.4l-134.2,77.5c-3.8,2.2-3.8,7.6,0,9.8l134.2,77.5c3.5,2,7.9,2,11.5,0l134.2-77.5
						c3.8-2.2,3.8-7.6,0-9.8l-134.2-77.5C247.5,312.4,243.1,312.4,239.6,314.4z"/>
					<path class="st37" d="M239.6,314.7l-133.8,77.2c-3.8,2.2-3.8,7.6,0,9.8l133.8,77.2c3.5,2,7.9,2,11.4,0l133.8-77.2
						c3.8-2.2,3.8-7.6,0-9.8L251,314.7C247.5,312.6,243.1,312.6,239.6,314.7z"/>
					<path class="st38" d="M239.6,314.9l-133.4,77c-3.8,2.2-3.8,7.6,0,9.8l133.4,77c3.5,2,7.9,2,11.4,0l133.4-77
						c3.8-2.2,3.8-7.6,0-9.8l-133.4-77C247.5,312.9,243.1,312.9,239.6,314.9z"/>
					<path class="st39" d="M239.6,315.2l-133,76.8c-3.7,2.2-3.7,7.6,0,9.7l133,76.8c3.5,2,7.8,2,11.4,0l133-76.8
						c3.7-2.2,3.7-7.6,0-9.7l-133-76.8C247.5,313.2,243.2,313.2,239.6,315.2z"/>
					<path class="st40" d="M239.7,315.4L107.1,392c-3.7,2.2-3.7,7.5,0,9.7l132.6,76.5c3.5,2,7.8,2,11.3,0l132.6-76.5
						c3.7-2.2,3.7-7.5,0-9.7L251,315.4C247.5,313.4,243.2,313.4,239.7,315.4z"/>
					<path class="st41" d="M239.7,315.7L107.5,392c-3.7,2.1-3.7,7.5,0,9.7l132.1,76.3c3.5,2,7.8,2,11.3,0l132.1-76.3
						c3.7-2.1,3.7-7.5,0-9.7L251,315.7C247.5,313.7,243.2,313.7,239.7,315.7z"/>
					<path class="st42" d="M239.7,315.9L108,392c-3.7,2.1-3.7,7.5,0,9.6l131.7,76.1c3.5,2,7.8,2,11.3,0l131.7-76.1
						c3.7-2.1,3.7-7.5,0-9.6l-131.7-76.1C247.5,313.9,243.2,313.9,239.7,315.9z"/>
					<path class="st43" d="M239.7,316.2L108.4,392c-3.7,2.1-3.7,7.5,0,9.6l131.3,75.8c3.5,2,7.7,2,11.2,0l131.3-75.8
						c3.7-2.1,3.7-7.5,0-9.6l-131.3-75.8C247.5,314.2,243.2,314.2,239.7,316.2z"/>
					<path class="st44" d="M239.7,316.4L108.8,392c-3.7,2.1-3.7,7.4,0,9.6l130.9,75.6c3.5,2,7.7,2,11.2,0l130.9-75.6
						c3.7-2.1,3.7-7.4,0-9.6l-130.9-75.6C247.4,314.4,243.2,314.4,239.7,316.4z"/>
					<path class="st45" d="M239.7,316.7L109.2,392c-3.7,2.1-3.7,7.4,0,9.5l130.5,75.3c3.4,2,7.7,2,11.1,0l130.5-75.3
						c3.7-2.1,3.7-7.4,0-9.5l-130.5-75.3C247.4,314.7,243.2,314.7,239.7,316.7z"/>
					<path class="st46" d="M239.8,317l-130.1,75.1c-3.7,2.1-3.7,7.4,0,9.5l130.1,75.1c3.4,2,7.7,2,11.1,0L381,401.6
						c3.7-2.1,3.7-7.4,0-9.5L250.9,317C247.4,315,243.2,315,239.8,317z"/>
					<path class="st47" d="M239.8,317.2l-129.7,74.9c-3.7,2.1-3.7,7.4,0,9.5l129.7,74.9c3.4,2,7.7,2,11.1,0l129.7-74.9
						c3.7-2.1,3.7-7.4,0-9.5l-129.7-74.9C247.4,315.2,243.2,315.2,239.8,317.2z"/>
					<path class="st48" d="M239.8,317.5l-129.3,74.6c-3.6,2.1-3.6,7.4,0,9.5l129.3,74.6c3.4,2,7.6,2,11,0l129.3-74.6
						c3.6-2.1,3.6-7.4,0-9.5l-129.3-74.6C247.4,315.5,243.2,315.5,239.8,317.5z"/>
					<path class="st49" d="M239.8,317.7L111,392.1c-3.6,2.1-3.6,7.3,0,9.4l128.9,74.4c3.4,2,7.6,2,11,0l128.9-74.4
						c3.6-2.1,3.6-7.3,0-9.4l-128.9-74.4C247.4,315.7,243.2,315.7,239.8,317.7z"/>
					<path class="st50" d="M239.8,318l-128.4,74.2c-3.6,2.1-3.6,7.3,0,9.4l128.4,74.2c3.4,2,7.6,2,11,0l128.4-74.2
						c3.6-2.1,3.6-7.3,0-9.4L250.8,318C247.4,316,243.2,316,239.8,318z"/>
					<path id="XMLID_18126_" class="st51" d="M239.8,318.2l-128,73.9c-3.6,2.1-3.6,7.3,0,9.4l128,73.9c3.4,2,7.6,2,10.9,0l128-73.9
						c3.6-2.1,3.6-7.3,0-9.4l-128-73.9C247.4,316.3,243.2,316.3,239.8,318.2z"/>
				</g>
				<g>
					<g>
						<linearGradient id="SVGID_6_" gradientUnits="userSpaceOnUse" x1="92.3314" y1="366.9626" x2="397.9441" y2="366.9626">
							<stop  offset="0" style="stop-color:#B4ACBF"/>
							<stop  offset="0.6" style="stop-color:#F0E5FF"/>
						</linearGradient>
						<path class="st67" d="M94.2,257.5v123.9v12.3c0.9,1.3,2.1,2.5,3.6,3.3l128.7,74.3c5.9,3.4,12.4,5.1,19,5.1
							c6.6,0,13.1-1.7,19-5.1l128.3-74.1c1.4-0.8,2.5-1.9,3.3-3.1v-12.1V257.5H94.2z"/>
						<linearGradient id="SVGID_7_" gradientUnits="userSpaceOnUse" x1="94.2647" y1="257.5559" x2="396.0964" y2="257.5559">
							<stop  offset="0" style="stop-color:#F0E5FF"/>
							<stop  offset="1" style="stop-color:#FFFFFF"/>
						</linearGradient>
						<path class="st68" d="M226.5,340.1L99.7,266.9c-7.2-4.1-7.2-14.5,0-18.7l127.5-73.6c10.5-6.1,23.5-6.1,34.1,0l129.1,74.5
							c6.9,4,7.9,13.3,1,17.3L264,340.1C252.4,346.8,238.1,346.8,226.5,340.1z"/>
						<g>
							<g id="XMLID_1589_">
								<linearGradient id="XMLID_12_" gradientUnits="userSpaceOnUse" x1="128.8142" y1="256.0488" x2="361.8221" y2="256.0488">
									<stop  offset="0" style="stop-color:#B4ACBF"/>
									<stop  offset="0.5146" style="stop-color:#D1C8DE"/>
									<stop  offset="1" style="stop-color:#F0E5FF"/>
								</linearGradient>
								<path id="XMLID_1591_" class="st69" d="M240.6,188.8l-111.8,53.1v15.2c0,0.9,0.5,1.7,1.2,2.2l110.6,64
									c2.9,1.7,6.5,1.7,9.4,0l110.4-63.9c0.9-0.5,1.4-1.4,1.4-2.4v-15L250,188.8C247.1,187.1,243.5,187.1,240.6,188.8z"/>
								<linearGradient id="XMLID_13_" gradientUnits="userSpaceOnUse" x1="128.814" y1="241.9477" x2="361.8222" y2="241.9477">
									<stop  offset="0" style="stop-color:#F0E5FF"/>
									<stop  offset="1" style="stop-color:#FFFFFF"/>
								</linearGradient>
								<path id="XMLID_1590_" class="st70" d="M240.6,174.7l-109.5,63.2c-3.1,1.8-3.1,6.2,0,8l109.5,63.2c2.9,1.7,6.5,1.7,9.4,0
									L359.5,246c3.1-1.8,3.1-6.2,0-8L250,174.7C247.1,173,243.5,173,240.6,174.7z"/>
							</g>
							<linearGradient id="XMLID_14_" gradientUnits="userSpaceOnUse" x1="161.5932" y1="239.7931" x2="327.7891" y2="239.7931">
								<stop  offset="0" style="stop-color:#F0E5FF"/>
								<stop  offset="1" style="stop-color:#FFFFFF"/>
							</linearGradient>
							<path id="XMLID_1415_" class="st71" d="M241.4,191.8l-78.1,45.1c-2.2,1.3-2.2,4.4,0,5.7l78.1,45.1c2.1,1.2,4.6,1.2,6.7,0
								l78.1-45.1c2.2-1.3,2.2-4.4,0-5.7L248,191.8C246,190.6,243.4,190.6,241.4,191.8z"/>
							<linearGradient id="XMLID_15_" gradientUnits="userSpaceOnUse" x1="161.6089" y1="263.2999" x2="327.7734" y2="263.2999">
								<stop  offset="0" style="stop-color:#B4ACBF"/>
								<stop  offset="0.5146" style="stop-color:#D1C8DE"/>
								<stop  offset="1" style="stop-color:#F0E5FF"/>
							</linearGradient>
							<path id="XMLID_1413_" class="st72" d="M326.1,239L248,284.1c-2.1,1.2-4.6,1.2-6.7,0L163.2,239c-0.5-0.3-0.8-0.6-1.1-1
								c-1,1.5-0.7,3.7,1.1,4.7l78.1,45.1c2.1,1.2,4.6,1.2,6.7,0l78.1-45.1c1.7-1,2.1-3.2,1.1-4.7
								C326.9,238.4,326.6,238.7,326.1,239z"/>
						</g>
					</g>
				</g>
			</g>
			
				<radialGradient id="XMLID_16_" cx="244.8815" cy="7874.4229" r="40.4353" gradientTransform="matrix(1 0 0 0.5172 0 -3836.8115)" gradientUnits="userSpaceOnUse">
				<stop  offset="0" style="stop-color:#120426"/>
				<stop  offset="8.588529e-02" style="stop-color:#1A0D2E;stop-opacity:0.9141"/>
				<stop  offset="0.2261" style="stop-color:#322543;stop-opacity:0.7739"/>
				<stop  offset="0.4031" style="stop-color:#574D65;stop-opacity:0.5969"/>
				<stop  offset="0.6102" style="stop-color:#8B8495;stop-opacity:0.3898"/>
				<stop  offset="0.8395" style="stop-color:#CDCAD1;stop-opacity:0.1605"/>
				<stop  offset="1" style="stop-color:#FFFFFF;stop-opacity:0"/>
			</radialGradient>
			<path id="XMLID_1411_" class="st73" d="M216.6,219.5c15.6-9,41.1-9,56.6,0c15.6,9,15.6,23.7,0,32.7c-15.6,9-41.1,9-56.6,0
				C201,243.2,201,228.5,216.6,219.5z"/>
		</g>
		<g>
			<path class="st74" d="M407.9,23.1c1.2,1.2,2.1,2.8,2.8,4.6l2.5-2.4c-0.8-2.1-1.9-3.8-3.3-5.2L407.9,23.1z"/>
			<path class="st74" d="M390.5,19.3c-0.7,0.4-1.4,0.8-2,1.2l0.2,3c1-0.6,2-1.2,3.1-1.7c1-0.5,2-0.9,3-1.2l0.7-3.4
				c-1.1,0.4-2.3,0.8-3.4,1.3C391.5,18.8,391,19,390.5,19.3z"/>
			<path class="st74" d="M365.8,76c-1.1-1.9-1.8-4.1-2.3-6.6l-2.8,2.1c0.5,2.8,1.3,5.3,2.6,7.4L365.8,76z"/>
			<path class="st74" d="M364.3,46l2.5,0.2c1.2-3.1,2.7-6.1,4.5-9l-1.9-1.3C367.4,39.1,365.7,42.5,364.3,46z"/>
			<path class="st74" d="M360.8,58.5l2.8-1c0.5-3,1.3-6.1,2.4-9.2l-2.5-0.2C362.3,51.6,361.4,55.1,360.8,58.5z"/>
			<path class="st74" d="M378.9,23.3l1.1,2.3c2.2-2.3,4.6-4.3,7-6l-0.2-3.1C384,18.4,381.4,20.7,378.9,23.3z"/>
			<path class="st74" d="M370.6,33.9l1.9,1.3c1.8-2.9,3.9-5.5,6-8l-1.1-2.3C374.9,27.6,372.6,30.7,370.6,33.9z"/>
			<path class="st74" d="M412.2,57.5l-2.2-0.8c-1.6,3-3.4,5.9-5.3,8.6l1.5,1.9C408.4,64.2,410.5,61,412.2,57.5z"/>
			<path class="st74" d="M378,83.1c-2.2,0-4.2-0.4-6-1.2l-1.9,3.5c2,0.9,4.3,1.3,6.7,1.3L378,83.1z"/>
			<path class="st74" d="M419,34.9c0.4-4.6,0-8.8-1.1-12.3l-2.7,2.6c1.5,5.1,1.5,11.4-0.1,18.3l2.7-0.4
				C418.3,40.3,418.8,37.6,419,34.9z"/>
			<path class="st74" d="M402.6,66l-1.4-1.8c-1.8,2.2-3.6,4.3-5.6,6l0.6,2.6C398.4,70.8,400.6,68.5,402.6,66z"/>
			<path class="st74" d="M367.8,64.6c-0.2-1.8-0.2-3.7-0.1-5.7c0-0.5,0.1-0.9,0.1-1.4l-2.6,1c-0.1,0.5-0.1,1.1-0.2,1.6
				c-0.2,2.3-0.1,4.4,0.1,6.5L367.8,64.6z"/>
			<path class="st74" d="M397.2,14.9c2.3-0.6,4.5-0.7,6.6-0.4l1.6-3.6c-2.3-0.3-4.8-0.2-7.4,0.4L397.2,14.9z"/>
			<path class="st74" d="M385.8,84.6l0.3-3.4c-2.3,0.9-4.5,1.5-6.6,1.8l-1.2,3.7C380.7,86.4,383.2,85.7,385.8,84.6z"/>
			<path class="st74" d="M372,79.4l1.8-3.3c-1.4-0.8-2.7-2-3.7-3.5l-2.4,2.8C369,77.1,370.4,78.4,372,79.4z"/>
			<path class="st74" d="M406.7,11.1l-1.6,3.6c2,0.5,3.7,1.4,5.2,2.7l2.3-3.3C410.9,12.7,408.9,11.7,406.7,11.1z"/>
			<path class="st74" d="M409.4,54.6c1.4-3,2.5-6,3.4-9l-2.5,0.4c-0.7,2.6-1.7,5.3-3,7.9L409.4,54.6z"/>
			<path class="st75" d="M411.4,28.7l-2.5,2.4c0.7,2.4,0.9,5.2,0.7,8.1c-0.1,1.7-0.4,3.4-0.8,5.2l2.5-0.4c0.5-2,0.8-4.1,1-6
				C412.6,34.6,412.3,31.5,411.4,28.7z"/>
			<path class="st75" d="M386.4,76.5l0.2-3.2c-1.5,0.6-3.1,1-4.5,1.2l-1.1,3.4C382.8,77.7,384.6,77.3,386.4,76.5z"/>
			<path class="st75" d="M404.6,33.6l2.4-2.3c-0.6-1.4-1.3-2.6-2.3-3.6l-2,2.9C403.5,31.4,404.1,32.4,404.6,33.6z"/>
			<path class="st75" d="M390.3,27l-1.3,0.8l0.2,2.8c1.3-0.8,2.7-1.4,4-1.9l0.6-3.1c-0.8,0.3-1.6,0.6-2.4,0.9
				C391,26.7,390.7,26.8,390.3,27z"/>
			<path class="st75" d="M370.2,46.4l2.3,0.2c0.9-2.2,1.9-4.3,3.1-6.3l-1.8-1.3C372.5,41.4,371.2,43.9,370.2,46.4z"/>
			<path class="st75" d="M395.6,23.2c1.6-0.4,3.2-0.4,4.6-0.3l1.5-3.4c-1.7-0.2-3.5-0.1-5.4,0.3L395.6,23.2z"/>
			<path class="st75" d="M405.1,25l2.1-3.1c-1.2-1.1-2.7-1.8-4.3-2.2l-1.5,3.4C402.8,23.5,404,24.1,405.1,25z"/>
			<path class="st75" d="M402.3,52.2l2,0.7c1-2.1,1.7-4.1,2.3-6.2l-2.3,0.4C403.7,48.7,403,50.4,402.3,52.2z"/>
			<path class="st75" d="M376.5,73.8l-1.8,3.3c1.5,0.7,3.1,1,4.9,0.9l1.1-3.4C379.2,74.6,377.8,74.3,376.5,73.8z"/>
			<path class="st75" d="M374.1,59.8c-0.1-1.2-0.1-2.5,0-3.9c0-0.2,0-0.5,0.1-0.7l-2.4,0.9c0,0.3-0.1,0.7-0.1,1
				c-0.1,1.6-0.1,3.1,0,4.6L374.1,59.8z"/>
			<path class="st75" d="M370,64.5l-2.6,2c0.4,2,1,3.8,1.9,5.4l2.3-2.8C370.8,67.8,370.3,66.2,370,64.5z"/>
			<path class="st75" d="M401.1,61.1l1.4,1.8c1.6-2.2,3.1-4.6,4.4-7.1l-2.1-0.7C403.8,57.2,402.5,59.2,401.1,61.1z"/>
			<path class="st75" d="M371.8,48.6l-2.3-0.1c-0.9,2.6-1.6,5.1-2,7.5l2.6-1C370.4,52.9,371,50.8,371.8,48.6z"/>
			<path class="st75" d="M394,63.9l0.6,2.4c1.5-1.4,3-3,4.4-4.7l-1.3-1.6C396.5,61.4,395.3,62.7,394,63.9z"/>
			<path class="st75" d="M375.8,65.9l-2.2,2.6c0.8,1.1,1.8,2,2.9,2.7l1.7-3.1C377.3,67.6,376.5,66.8,375.8,65.9z"/>
			<path class="st75" d="M388.9,72.2c-0.2,0.1-0.4,0.2-0.7,0.3l-0.2,3.2c2.1-1,4.2-2.4,6.2-4.1l-0.6-2.6
				C392.1,70.4,390.5,71.4,388.9,72.2z"/>
			<path class="st75" d="M375.1,37l1.8,1.2c1.3-2,2.7-3.8,4.2-5.6l-1-2.2C378.2,32.5,376.6,34.7,375.1,37z"/>
			<path class="st75" d="M381.5,28.9l1,2.2c1.6-1.6,3.2-3,4.9-4.2l-0.2-3C385.3,25.4,383.3,27.1,381.5,28.9z"/>
			<path class="st74" d="M388.2,83.5c2.5-1.3,5-3,7.4-5l-0.6-2.8c-2.1,1.7-4.3,3.2-6.5,4.4c-0.4,0.2-0.6,0.3-1,0.5l-0.2,3.4
				C387.6,83.8,387.9,83.6,388.2,83.5L388.2,83.5z"/>
		</g>
		<g>
			
				<radialGradient id="SVGID_8_" cx="465.8905" cy="1587.4561" r="32.6128" gradientTransform="matrix(0.9023 -0.5209 0 1.042 -175.043 -1225.8444)" gradientUnits="userSpaceOnUse">
				<stop  offset="0" style="stop-color:#491E8C"/>
				<stop  offset="1" style="stop-color:#9452FF"/>
			</radialGradient>
			<path class="st76" d="M245.3,151.6c16.3-9.4,29.4-1.8,29.4,17s-13.2,41.6-29.4,51s-29.4,1.8-29.4-17S229.1,160.9,245.3,151.6z"/>
			<g>
				
					<radialGradient id="SVGID_9_" cx="465.7564" cy="1587.4561" r="30.8938" gradientTransform="matrix(0.9023 -0.5209 0 1.042 -175.043 -1225.8444)" gradientUnits="userSpaceOnUse">
					<stop  offset="0" style="stop-color:#251440"/>
					<stop  offset="1" style="stop-color:#491E8C"/>
				</radialGradient>
				<path class="st77" d="M245.7,157.9c3.2-1.8,6.3-2.9,9.2-3.2c2.8-0.3,5.4,0.3,7.5,1.5s3.9,3.2,5.1,5.8c1.2,2.7,1.9,5.9,1.9,9.6
					c0,3.7-0.6,7.6-1.9,11.7c-1.2,4-2.9,7.9-5.1,11.6c-2.2,3.8-4.7,7.2-7.5,10.2c-2.9,3.1-6,5.6-9.2,7.5c-3.2,1.8-6.3,2.9-9.2,3.2
					c-2.8,0.3-5.4-0.3-7.5-1.5c-2.2-1.3-3.9-3.2-5.1-5.8c-1.2-2.7-1.9-5.9-1.9-9.6s0.6-7.6,1.9-11.7c1.2-4,2.9-7.9,5.1-11.6
					s4.7-7.2,7.5-10.2C239.4,162.3,242.5,159.8,245.7,157.9 M245.2,153.4c-15.4,8.9-27.9,30.5-27.9,48.3s12.5,25,27.9,16.1
					s27.9-30.5,27.9-48.3S260.6,144.5,245.2,153.4L245.2,153.4z"/>
				<g class="st78">
					<path class="st79" d="M245.7,157.9c13.1-7.5,23.7-1.4,23.7,13.7s-10.6,33.5-23.7,41c-13.1,7.5-23.7,1.4-23.7-13.7
						S232.7,165.5,245.7,157.9z"/>
				</g>
				<g id="Brandmark_358_">
					<path id="Core-1_359_" class="st80" d="M245.7,173.3c1.5-0.9,2.7-0.2,2.7,1.6c0,1.8-1.2,3.9-2.7,4.8s-2.7,0.2-2.7-1.6
						C243,176.3,244.2,174.1,245.7,173.3z"/>
					<path id="Core-2_359_" class="st80" d="M237.7,184.7c1.5-0.9,2.7-0.2,2.7,1.6c0,1.8-1.2,3.9-2.7,4.8c-1.5,0.9-2.7,0.2-2.7-1.6
						C235,187.7,236.2,185.5,237.7,184.7z"/>
					<path id="Core-3_359_" class="st80" d="M253.8,175.4c1.5-0.9,2.7-0.2,2.7,1.6c0,1.8-1.2,3.9-2.7,4.8s-2.7,0.2-2.7-1.6
						S252.2,176.3,253.8,175.4z"/>
					<path id="Core-4_359_" class="st80" d="M240.8,193.8c1.5-0.9,2.7-0.2,2.7,1.6s-1.2,3.9-2.7,4.8c-1.5,0.9-2.7,0.2-2.7-1.6
						S239.2,194.7,240.8,193.8z"/>
					<path id="Core-5_359_" class="st80" d="M250.6,188.1c1.5-0.9,2.7-0.2,2.7,1.6c0,1.8-1.2,3.9-2.7,4.8c-1.5,0.9-2.7,0.2-2.7-1.6
						S249.1,189,250.6,188.1z"/>
					<path id="Center_358_" class="st81" d="M247.2,193.3c0-1.1,0.4-2.3,1-3.5c0.7-1.2,1.6-2.1,2.5-2.6c0.9-0.5,1.7-0.6,2.3-0.3
						c0.6-1.5,1-3.1,1.1-4.5c-0.1,0.1-0.2,0.2-0.4,0.3c-0.9,0.5-1.8,0.6-2.5,0.3s-1-1.2-1-2.3s0.4-2.3,1-3.5
						c0.2-0.4,0.5-0.7,0.8-1.1c-0.8-0.6-1.8-0.9-2.9-0.7c-0.1,0.8-0.5,1.8-0.9,2.5c-0.7,1.2-1.6,2.1-2.5,2.6
						c-0.9,0.5-1.8,0.6-2.5,0.3c-0.5-0.3-0.8-0.8-0.9-1.5c-1.1,1.2-2.1,2.6-2.9,4.1c0.3,0,0.5,0.1,0.8,0.2c0.7,0.4,1,1.2,1,2.3
						c0,1.1-0.4,2.3-1,3.5c-0.7,1.2-1.6,2.1-2.5,2.6c-0.1,0.1-0.2,0.1-0.4,0.2c0.1,1.4,0.5,2.5,1.1,3.2c0.7-1,1.5-1.9,2.3-2.4
						c0.9-0.5,1.8-0.6,2.5-0.3c0.7,0.4,1,1.2,1,2.3c0,0.6-0.1,1.2-0.3,1.8c0.6-0.2,1.2-0.5,1.8-0.8s1.2-0.7,1.8-1.3
						C247.3,194.3,247.2,193.8,247.2,193.3z"/>
					<path id="Circles_358_" class="st81" d="M263.3,168.5c-0.5-1.1-1.3-1.9-2.2-2.5c-0.9-0.5-2-0.8-3.3-0.7
						c-0.8,0.1-1.7,0.3-2.6,0.7c-0.5-1-1.2-1.7-2-2.1c-0.9-0.5-2-0.8-3.3-0.7c-1.3,0.1-2.6,0.5-4,1.4s-2.7,1.9-4,3.3
						c-1.2,1.3-2.3,2.8-3.3,4.5c-0.8,1.5-1.6,2.9-2,4.5c-1,0.7-1.9,1.5-2.8,2.5c-1.2,1.3-2.3,2.8-3.3,4.5c-0.9,1.6-1.7,3.4-2.2,5.1
						c-0.5,1.8-0.8,3.5-0.8,5.1c0,1.6,0.3,3,0.8,4.2c0.5,1.1,1.3,1.9,2.2,2.5c0,0,0.1,0.1,0.2,0.1c-0.1,0.8-0.2,1.6-0.2,2.3
						c0,1.6,0.3,3,0.8,4.2c0.5,1.1,1.3,1.9,2.2,2.5c0.9,0.5,2,0.8,3.3,0.7c1.3-0.1,2.6-0.5,4-1.4s2.7-1.9,4-3.3
						c0.3-0.3,0.6-0.7,0.9-1c0.3,0,0.6,0,0.9,0c1.3-0.1,2.6-0.5,4-1.4c1.4-0.8,2.7-1.9,4-3.3c1.2-1.3,2.3-2.8,3.3-4.5
						c0.9-1.6,1.7-3.4,2.2-5.1c0.5-1.8,0.8-3.5,0.8-5.1c0-0.8,0-1.5-0.2-2.1c0.1-0.2,0.1-0.2,0.2-0.4c0.9-1.6,1.7-3.4,2.2-5.1
						c0.5-1.8,0.8-3.5,0.8-5.1C264.1,171,263.8,169.6,263.3,168.5z M262.5,177.8c-0.4,1.5-1.1,3-1.9,4.3c-0.1-0.4-0.2-0.7-0.4-1.1
						c-0.5-1.1-1.3-1.9-2.2-2.5c-0.3-0.2-0.7-0.3-1-0.4c-0.1,0.4-0.2,0.7-0.4,1.1c0.3,0.1,0.6,0.2,0.8,0.4c0.9,0.5,1.6,1.3,2,2.3
						c0.2,0.4,0.4,0.9,0.5,1.4c-0.8,1.2-1.6,2.2-2.5,3.2c-1,1.1-2.1,2-3.3,2.8c0,0.4,0,0.7-0.1,1c1.3-0.8,2.6-1.8,3.7-3.1
						c0.8-0.9,1.6-1.9,2.3-2.9c0,0.4,0.1,0.9,0.1,1.4c0,1.5-0.3,3.1-0.8,4.7c-0.5,1.6-1.2,3.1-2,4.7c-0.9,1.5-1.9,2.9-3,4.1
						c-1.2,1.3-2.4,2.3-3.7,3c-1.3,0.8-2.5,1.2-3.7,1.3c-0.1,0-0.3,0-0.4,0c0.5-0.7,1-1.5,1.5-2.3c0.9-1.6,1.7-3.4,2.2-5.1
						c0.1-0.3,0.1-0.5,0.2-0.8c-0.3,0.2-0.6,0.3-0.8,0.3c0,0.2-0.1,0.4-0.1,0.5c-0.5,1.6-1.2,3.1-2,4.7c-0.5,0.9-1.1,1.8-1.8,2.6
						c-0.7-0.1-1.2-0.3-1.8-0.6c-0.9-0.5-1.6-1.3-2-2.3c0-0.1-0.1-0.2-0.1-0.4c-0.3,0.3-0.6,0.5-0.8,0.6c0,0.2,0.1,0.4,0.2,0.5
						c0.5,1.1,1.3,1.9,2.2,2.5c0.5,0.3,1,0.5,1.5,0.6c-0.1,0.1-0.3,0.3-0.4,0.4c-1.2,1.3-2.4,2.3-3.7,3s-2.5,1.2-3.7,1.3
						c-1.1,0.1-2.1-0.2-3-0.6c-0.9-0.5-1.6-1.3-2-2.3c-0.5-1.1-0.8-2.3-0.8-3.9c0-0.5,0-1,0.1-1.5c0.7,0.3,1.5,0.3,2.3,0.3
						c1.2-0.1,2.4-0.5,3.7-1.2c-0.1-0.3-0.1-0.6-0.1-0.9c-1.2,0.6-2.2,0.9-3.3,1c-0.9,0.1-1.7,0-2.5-0.4c0.1-0.6,0.3-1.4,0.5-2
						c0.5-1.6,1.2-3.1,2-4.7c0.3-0.5,0.5-0.9,0.8-1.3c-0.2-0.2-0.3-0.4-0.4-0.6c-0.4,0.5-0.7,1-1,1.6c-0.9,1.6-1.7,3.4-2.2,5.1
						c-0.1,0.5-0.3,1-0.4,1.6c-0.8-0.5-1.5-1.2-1.9-2.2c-0.5-1.1-0.8-2.3-0.8-3.9c0-1.5,0.3-3.1,0.8-4.7c0.5-1.6,1.2-3.1,2-4.7
						c0.9-1.5,1.9-2.9,3-4.1c0.7-0.7,1.4-1.4,2-1.9c-0.4,1.5-0.6,3-0.6,4.5c0,1.1,0.1,2.2,0.4,3.1c0.2-0.3,0.5-0.6,0.8-0.9
						c-0.2-0.8-0.3-1.7-0.3-2.7c0-1.5,0.2-3,0.8-4.6c0.2-0.2,0.4-0.3,0.7-0.4c1.3-0.7,2.5-1.2,3.7-1.3c0.5-0.1,1.1-0.1,1.6,0.1
						c0.1-0.2,0.2-0.4,0.3-0.6c0.1-0.2,0.2-0.3,0.3-0.4c-0.6-0.1-1.2-0.2-1.8-0.1c-1.3,0.1-2.6,0.5-4,1.4c-0.1,0.1-0.2,0.1-0.3,0.2
						c0.4-1.2,1-2.4,1.6-3.5c0.9-1.5,1.9-2.9,3-4.1c1.2-1.3,2.4-2.3,3.7-3c1.3-0.7,2.5-1.2,3.7-1.3c1.1-0.1,2.1,0.2,3,0.6
						c0.7,0.4,1.2,0.9,1.6,1.6c-0.1,0.1-0.3,0.2-0.4,0.2c-1.4,0.8-2.7,1.9-4,3.3c-0.7,0.7-1.2,1.4-1.8,2.2c0.1,0.1,0.2,0.1,0.3,0.1
						c0.1,0.1,0.2,0.1,0.3,0.3c0.5-0.6,1-1.3,1.6-1.9c1.2-1.3,2.4-2.3,3.7-3c0.3-0.2,0.6-0.3,0.8-0.4c0.5,1,0.7,2.4,0.7,3.8
						c0,1-0.1,2.1-0.4,3.2c0.3-0.1,0.5-0.1,0.8,0c0.3-1.3,0.4-2.5,0.4-3.6c0-1.4-0.2-2.6-0.6-3.7c0.7-0.2,1.3-0.4,1.9-0.4
						c1.1-0.1,2.1,0.2,3,0.6c0.9,0.5,1.6,1.3,2,2.3c0.5,1.1,0.8,2.3,0.8,3.9C263.2,174.6,263,176.1,262.5,177.8z"/>
				</g>
			</g>
		</g>
		<g>
			<path class="st82" d="M132.3,96.2v-38l-32.6-19v38L132.3,96.2z"/>
			<path class="st83" d="M132.3,58.2l-32.6-19v38L132.3,58.2z"/>
			<path class="st82" d="M132.3,96.2l-32.6-19l32.6-19V96.2z"/>
			<path class="st84" d="M132.3,96.2l-32.6-19l-32.6,19l32.6,19L132.3,96.2z"/>
			<path class="st84" d="M99.7,115.2v-38l32.6,19L99.7,115.2z"/>
			<path class="st85" d="M67.1,96.2l32.6-19v38L67.1,96.2z"/>
			<path class="st86" d="M99.7,39.2l-32.6,19v38l32.6-19L99.7,39.2z"/>
			<path class="st87" d="M67.1,58.2v38l32.6-19L67.1,58.2z"/>
			<path class="st88" d="M99.7,39.2l-32.6,19l32.6,19L99.7,39.2z"/>
		</g>
	</g>
</g>
</svg>
