<svg xmlns="http://www.w3.org/2000/svg" xmlns:xlink="http://www.w3.org/1999/xlink" id="Layer_1" x="0" y="0" enable-background="new 0 0 400 400" version="1.1" viewBox="0 0 400 400" xml:space="preserve"><style type="text/css">.st0{fill:#655ae6}.st1{fill:#5a50ce}.st2{fill:#4896f0}.st3{fill:#4086d7}.st4{fill:#f5d980}.st5{fill:#f2d268}.st6{fill:#fada70}</style><g><g><path d="M371.8,300V100L200,0v200L371.8,300z" class="st0"/><path d="M371.8,100L200,0v200L371.8,100z" class="st1"/><path d="M371.8,300L200,200l171.8-100V300z" class="st0"/><path d="M371.8,300L200,200L28.2,300L200,400L371.8,300z" class="st2"/><path d="M200,400V200l171.8,100L200,400z" class="st2"/><path d="M28.2,300L200,200v200L28.2,300z" class="st3"/><path d="M200,0L28.2,100v200L200,200L200,0z" class="st4"/><path d="M28.2,100v200L200,200L28.2,100z" class="st5"/><path d="M200,0L28.2,100L200,200L200,0z" class="st6"/></g></g></svg>