<?xml version="1.0" encoding="utf-8"?>
<!-- Generator: Adobe Illustrator 21.0.0, SVG Export Plug-In . SVG Version: 6.00 Build 0)  -->
<svg version="1.1" id="Layer_1" xmlns="http://www.w3.org/2000/svg" xmlns:xlink="http://www.w3.org/1999/xlink" x="0px" y="0px"
	 viewBox="0 0 400 400" style="enable-background:new 0 0 400 400;" xml:space="preserve">
<style type="text/css">
	.st0{fill:#655AE6;}
	.st1{fill:#5A50CE;}
	.st2{fill:#4896F0;}
	.st3{fill:#4086D7;}
	.st4{fill:#F5D980;}
	.st5{fill:#F2D268;}
	.st6{fill:#FADA70;}
</style>
<g>
	<g>
		<path class="st0" d="M371.8,300V100L200,0v200L371.8,300z"/>
		<path class="st1" d="M371.8,100L200,0v200L371.8,100z"/>
		<path class="st0" d="M371.8,300L200,200l171.8-100V300z"/>
		<path class="st2" d="M371.8,300L200,200L28.2,300L200,400L371.8,300z"/>
		<path class="st2" d="M200,400V200l171.8,100L200,400z"/>
		<path class="st3" d="M28.2,300L200,200v200L28.2,300z"/>
		<path class="st4" d="M200,0L28.2,100v200L200,200L200,0z"/>
		<path class="st5" d="M28.2,100v200L200,200L28.2,100z"/>
		<path class="st6" d="M200,0L28.2,100L200,200L200,0z"/>
	</g>
</g>
</svg>
