<?xml version="1.0" encoding="utf-8"?>
<!-- Generator: Adobe Illustrator 21.0.0, SVG Export Plug-In . SVG Version: 6.00 Build 0)  -->
<svg version="1.1" id="Layer_1" xmlns="http://www.w3.org/2000/svg" xmlns:xlink="http://www.w3.org/1999/xlink" x="0px" y="0px"
	 viewBox="0 0 490 490" style="enable-background:new 0 0 490 490;" xml:space="preserve">
<style type="text/css">
	.st0{fill:url(#SVGID_1_);}
	.st1{fill:url(#SVGID_2_);}
	.st2{fill:url(#SVGID_3_);}
	.st3{fill:url(#SVGID_4_);}
	.st4{fill:url(#XMLID_2_);}
	.st5{fill:url(#XMLID_3_);}
	.st6{fill:url(#XMLID_4_);}
	.st7{fill:url(#XMLID_5_);}
	.st8{opacity:0.43;fill:url(#XMLID_6_);}
	.st9{fill:url(#SVGID_5_);}
	.st10{fill:url(#SVGID_6_);}
	.st11{fill:url(#SVGID_7_);}
	.st12{fill:url(#SVGID_8_);}
	.st13{fill:url(#SVGID_9_);}
	.st14{fill:url(#XMLID_7_);}
	.st15{fill:url(#XMLID_8_);}
	.st16{fill:url(#XMLID_9_);}
	.st17{fill:url(#XMLID_10_);}
	.st18{opacity:0.43;fill:url(#XMLID_11_);}
	.st19{fill:url(#SVGID_10_);}
	.st20{fill:url(#SVGID_11_);}
	.st21{fill:url(#XMLID_12_);}
	.st22{fill:url(#XMLID_13_);}
	.st23{fill:url(#XMLID_14_);}
	.st24{fill:url(#XMLID_15_);}
	.st25{fill:url(#SVGID_12_);}
	.st26{fill:url(#SVGID_13_);}
	.st27{opacity:0.43;fill:url(#XMLID_16_);}
	.st28{fill:#00C3FF;}
	.st29{fill:#7EE0FF;}
	.st30{fill:url(#SVGID_14_);}
	.st31{fill:url(#SVGID_15_);}
	.st32{enable-background:new    ;}
	.st33{fill:#FFFFFF;}
	.st34{fill:#491E8C;}
	.st35{opacity:0.4;fill:#491E8C;enable-background:new    ;}
	.st36{fill:#655AE6;}
	.st37{fill:#5A50CE;}
	.st38{fill:#4896F0;}
	.st39{fill:#4086D7;}
	.st40{fill:#F5D980;}
	.st41{fill:#F2D268;}
	.st42{fill:#FADA70;}
</style>
<g>
	<g>
		<g>
			<g>
				<g>
					<linearGradient id="SVGID_1_" gradientUnits="userSpaceOnUse" x1="9.07" y1="287.0693" x2="189.4384" y2="287.0693">
						<stop  offset="0" style="stop-color:#B4ACBF"/>
						<stop  offset="0.5146" style="stop-color:#D1C8DE"/>
						<stop  offset="1" style="stop-color:#F0E5FF"/>
					</linearGradient>
					<rect x="10.7" y="135.5" class="st0" width="177.4" height="303.2"/>
					<linearGradient id="SVGID_2_" gradientUnits="userSpaceOnUse" x1="10.657" y1="135.8419" x2="188.1135" y2="135.8419">
						<stop  offset="0" style="stop-color:#F0E5FF"/>
						<stop  offset="1" style="stop-color:#FFFFFF"/>
					</linearGradient>
					<path class="st1" d="M13.8,141.3l74.7,43.1c6.8,3.9,15.2,3.9,22.1,0l74.5-43c2.3-1.3,3.2-3.7,3-6c-0.2-1.8-1.2-3.6-3-4.6
						L109,86.9c-6.2-3.6-13.9-3.6-20.1,0l-75.1,43.4c-2,1.2-3,3.1-3.1,5.2C10.5,137.7,11.6,140,13.8,141.3z"/>
					<linearGradient id="SVGID_3_" gradientUnits="userSpaceOnUse" x1="99.3901" y1="446.4145" x2="99.3901" y2="133.1756">
						<stop  offset="0" style="stop-color:#FFFFFF"/>
						<stop  offset="0.45" style="stop-color:#FFFFFF;stop-opacity:0.7"/>
						<stop  offset="0.4993" style="stop-color:#FFFFFF;stop-opacity:0.6373"/>
						<stop  offset="1" style="stop-color:#FFFFFF;stop-opacity:0"/>
					</linearGradient>
					<rect x="8.5" y="135.5" class="st2" width="181.8" height="308.2"/>
					<linearGradient id="SVGID_4_" gradientUnits="userSpaceOnUse" x1="99.3901" y1="446.4145" x2="99.3901" y2="133.1756">
						<stop  offset="0" style="stop-color:#FFFFFF"/>
						<stop  offset="0.45" style="stop-color:#FFFFFF;stop-opacity:0.7"/>
						<stop  offset="0.4993" style="stop-color:#FFFFFF;stop-opacity:0.6373"/>
						<stop  offset="1" style="stop-color:#FFFFFF;stop-opacity:0"/>
					</linearGradient>
					<rect x="8.5" y="135.5" class="st3" width="181.8" height="308.2"/>
					<g>
						<g id="XMLID_1601_">
							<linearGradient id="XMLID_2_" gradientUnits="userSpaceOnUse" x1="36.0216" y1="134.9944" x2="163.0214" y2="134.9944">
								<stop  offset="0" style="stop-color:#B4ACBF"/>
								<stop  offset="0.5146" style="stop-color:#D1C8DE"/>
								<stop  offset="1" style="stop-color:#F0E5FF"/>
							</linearGradient>
							<path id="XMLID_1603_" class="st4" d="M97,98.3l-60.9,29v8.3c0,0.5,0.3,0.9,0.7,1.2L97,171.6c1.6,0.9,3.5,0.9,5.1,0
								l60.2-34.8c0.5-0.3,0.8-0.8,0.8-1.3v-8.2l-60.9-29C100.5,97.4,98.5,97.4,97,98.3z"/>
							<linearGradient id="XMLID_3_" gradientUnits="userSpaceOnUse" x1="36.0215" y1="127.3086" x2="163.0215" y2="127.3086">
								<stop  offset="0" style="stop-color:#F0E5FF"/>
								<stop  offset="1" style="stop-color:#FFFFFF"/>
							</linearGradient>
							<path id="XMLID_1602_" class="st5" d="M97,90.7l-59.7,34.5c-1.7,1-1.7,3.4,0,4.4L97,164c1.6,0.9,3.5,0.9,5.1,0l59.7-34.5
								c1.7-1,1.7-3.4,0-4.4l-59.7-34.5C100.5,89.8,98.5,89.8,97,90.7z"/>
						</g>
						<linearGradient id="XMLID_4_" gradientUnits="userSpaceOnUse" x1="53.8876" y1="126.1343" x2="144.4719" y2="126.1343">
							<stop  offset="0" style="stop-color:#F0E5FF"/>
							<stop  offset="1" style="stop-color:#FFFFFF"/>
						</linearGradient>
						<path id="XMLID_1600_" class="st6" d="M97.4,100l-42.6,24.6c-1.2,0.7-1.2,2.4,0,3.1l42.6,24.6c1.1,0.6,2.5,0.6,3.6,0
							l42.6-24.6c1.2-0.7,1.2-2.4,0-3.1L101,100C99.9,99.3,98.5,99.3,97.4,100z"/>
						<linearGradient id="XMLID_5_" gradientUnits="userSpaceOnUse" x1="53.8962" y1="138.9465" x2="144.4634" y2="138.9465">
							<stop  offset="0" style="stop-color:#B4ACBF"/>
							<stop  offset="0.5146" style="stop-color:#D1C8DE"/>
							<stop  offset="1" style="stop-color:#F0E5FF"/>
						</linearGradient>
						<path id="XMLID_1599_" class="st7" d="M143.6,125.7L101,150.3c-1.1,0.6-2.5,0.6-3.6,0l-42.6-24.6c-0.3-0.1-0.4-0.3-0.6-0.6
							c-0.6,0.8-0.4,2,0.6,2.6l42.6,24.6c1.1,0.6,2.5,0.6,3.6,0l42.6-24.6c0.9-0.5,1.1-1.7,0.6-2.6
							C144,125.4,143.8,125.5,143.6,125.7z"/>
					</g>
				</g>
			</g>
			
				<radialGradient id="XMLID_6_" cx="99.5215" cy="7660.0908" r="40.4353" gradientTransform="matrix(1 0 0 0.5172 0 -3836.3289)" gradientUnits="userSpaceOnUse">
				<stop  offset="0" style="stop-color:#120426"/>
				<stop  offset="8.588529e-02" style="stop-color:#1A0D2E;stop-opacity:0.9141"/>
				<stop  offset="0.2261" style="stop-color:#322543;stop-opacity:0.7739"/>
				<stop  offset="0.4031" style="stop-color:#574D65;stop-opacity:0.5969"/>
				<stop  offset="0.6102" style="stop-color:#8B8495;stop-opacity:0.3898"/>
				<stop  offset="0.8395" style="stop-color:#CDCAD1;stop-opacity:0.1605"/>
				<stop  offset="1" style="stop-color:#FFFFFF;stop-opacity:0"/>
			</radialGradient>
			<path id="XMLID_1598_" class="st8" d="M71.2,109.1c15.6-9,41.1-9,56.6,0c15.6,9,15.6,23.7,0,32.7c-15.6,9-41.1,9-56.6,0
				C55.6,132.8,55.6,118.1,71.2,109.1z"/>
			<g>
				<g>
					<linearGradient id="SVGID_5_" gradientUnits="userSpaceOnUse" x1="299.9238" y1="275.2061" x2="480.0249" y2="275.2061">
						<stop  offset="0" style="stop-color:#B4ACBF"/>
						<stop  offset="0.5146" style="stop-color:#D1C8DE"/>
						<stop  offset="1" style="stop-color:#F0E5FF"/>
					</linearGradient>
					<rect x="301.5" y="106.8" class="st9" width="177.2" height="336.9"/>
					<linearGradient id="SVGID_6_" gradientUnits="userSpaceOnUse" x1="301.2455" y1="107.2535" x2="478.702" y2="107.2535">
						<stop  offset="0" style="stop-color:#F0E5FF"/>
						<stop  offset="1" style="stop-color:#FFFFFF"/>
					</linearGradient>
					<path class="st10" d="M304.4,112.7l74.7,43.1c6.8,3.9,15.2,3.9,22.1,0l74.5-43c2.3-1.3,3.2-3.7,3-6c-0.2-1.8-1.2-3.6-3-4.6
						l-76.1-43.9c-6.2-3.6-13.9-3.6-20.1,0l-75.1,43.4c-2,1.2-3,3.1-3.1,5.2C301.1,109.1,302.2,111.4,304.4,112.7z"/>
					<linearGradient id="SVGID_7_" gradientUnits="userSpaceOnUse" x1="390.11" y1="450.9526" x2="390.11" y2="104.2235">
						<stop  offset="0" style="stop-color:#FFFFFF"/>
						<stop  offset="0.45" style="stop-color:#FFFFFF;stop-opacity:0.7"/>
						<stop  offset="0.4993" style="stop-color:#FFFFFF;stop-opacity:0.6373"/>
						<stop  offset="1" style="stop-color:#FFFFFF;stop-opacity:0"/>
					</linearGradient>
					<rect x="298.7" y="106.8" class="st11" width="182.8" height="341.1"/>
					<linearGradient id="SVGID_8_" gradientUnits="userSpaceOnUse" x1="390.11" y1="450.9526" x2="390.11" y2="104.2235">
						<stop  offset="0" style="stop-color:#FFFFFF"/>
						<stop  offset="0.45" style="stop-color:#FFFFFF;stop-opacity:0.7"/>
						<stop  offset="0.4993" style="stop-color:#FFFFFF;stop-opacity:0.6373"/>
						<stop  offset="1" style="stop-color:#FFFFFF;stop-opacity:0"/>
					</linearGradient>
					<rect x="298.7" y="106.8" class="st12" width="182.8" height="341.1"/>
					<linearGradient id="SVGID_9_" gradientUnits="userSpaceOnUse" x1="390.11" y1="441.6473" x2="390.11" y2="104.411">
						<stop  offset="0" style="stop-color:#FFFFFF"/>
						<stop  offset="0.45" style="stop-color:#FFFFFF;stop-opacity:0.7"/>
						<stop  offset="0.4993" style="stop-color:#FFFFFF;stop-opacity:0.6373"/>
						<stop  offset="1" style="stop-color:#FFFFFF;stop-opacity:0"/>
					</linearGradient>
					<path class="st13" d="M478.7,106.9c0.3,2.3-0.7,4.7-3,6l-74.5,43c-6.8,3.9-15.2,3.9-22.1,0l-74.7-43.1
						c-2.2-1.3-3.3-3.6-3.1-5.8h-0.1v278.8v4.6c0.4,0.5,1,1,1.6,1.3l76.2,44c7,4,15.5,4,22.5,0l75.9-43.8c0.7-0.4,1.3-0.9,1.7-1.5
						v-4.6V106.9H478.7z"/>
					<g>
						<g id="XMLID_1595_">
							<linearGradient id="XMLID_7_" gradientUnits="userSpaceOnUse" x1="326.6101" y1="106.2682" x2="453.61" y2="106.2682">
								<stop  offset="0" style="stop-color:#B4ACBF"/>
								<stop  offset="0.5146" style="stop-color:#D1C8DE"/>
								<stop  offset="1" style="stop-color:#F0E5FF"/>
							</linearGradient>
							<path id="XMLID_1597_" class="st14" d="M387.6,69.6l-60.9,29v8.3c0,0.5,0.3,0.9,0.7,1.2l60.3,34.9c1.6,0.9,3.5,0.9,5.1,0
								l60.2-34.8c0.5-0.3,0.8-0.8,0.8-1.3v-8.2l-60.9-29C391.1,68.7,389.1,68.7,387.6,69.6z"/>
							<linearGradient id="XMLID_8_" gradientUnits="userSpaceOnUse" x1="326.61" y1="98.5824" x2="453.61" y2="98.5824">
								<stop  offset="0" style="stop-color:#F0E5FF"/>
								<stop  offset="1" style="stop-color:#FFFFFF"/>
							</linearGradient>
							<path id="XMLID_1596_" class="st15" d="M387.6,61.9l-59.7,34.5c-1.7,1-1.7,3.4,0,4.4l59.7,34.5c1.6,0.9,3.5,0.9,5.1,0
								l59.7-34.5c1.7-1,1.7-3.4,0-4.4l-59.7-34.5C391.1,61,389.1,61,387.6,61.9z"/>
						</g>
						<linearGradient id="XMLID_9_" gradientUnits="userSpaceOnUse" x1="344.4761" y1="97.4081" x2="435.0605" y2="97.4081">
							<stop  offset="0" style="stop-color:#F0E5FF"/>
							<stop  offset="1" style="stop-color:#FFFFFF"/>
						</linearGradient>
						<path id="XMLID_1594_" class="st16" d="M387.9,71.3l-42.6,24.6c-1.2,0.7-1.2,2.4,0,3.1l42.6,24.6c1.1,0.6,2.5,0.6,3.6,0
							L434.2,99c1.2-0.7,1.2-2.4,0-3.1l-42.6-24.6C390.5,70.6,389.1,70.6,387.9,71.3z"/>
						<linearGradient id="XMLID_10_" gradientUnits="userSpaceOnUse" x1="344.4847" y1="110.2203" x2="435.0519" y2="110.2203">
							<stop  offset="0" style="stop-color:#B4ACBF"/>
							<stop  offset="0.5146" style="stop-color:#D1C8DE"/>
							<stop  offset="1" style="stop-color:#F0E5FF"/>
						</linearGradient>
						<path id="XMLID_1593_" class="st17" d="M434.2,97l-42.6,24.6c-1.1,0.6-2.5,0.6-3.6,0L345.4,97c-0.3-0.1-0.4-0.3-0.6-0.6
							c-0.6,0.8-0.4,2,0.6,2.6l42.6,24.6c1.1,0.6,2.5,0.6,3.6,0L434.2,99c0.9-0.5,1.1-1.7,0.6-2.6C434.6,96.6,434.4,96.8,434.2,97z"
							/>
					</g>
				</g>
			</g>
			
				<radialGradient id="XMLID_11_" cx="390.11" cy="7604.5879" r="40.4353" gradientTransform="matrix(1 0 0 0.5172 0 -3836.3289)" gradientUnits="userSpaceOnUse">
				<stop  offset="0" style="stop-color:#120426"/>
				<stop  offset="8.588529e-02" style="stop-color:#1A0D2E;stop-opacity:0.9141"/>
				<stop  offset="0.2261" style="stop-color:#322543;stop-opacity:0.7739"/>
				<stop  offset="0.4031" style="stop-color:#574D65;stop-opacity:0.5969"/>
				<stop  offset="0.6102" style="stop-color:#8B8495;stop-opacity:0.3898"/>
				<stop  offset="0.8395" style="stop-color:#CDCAD1;stop-opacity:0.1605"/>
				<stop  offset="1" style="stop-color:#FFFFFF;stop-opacity:0"/>
			</radialGradient>
			<path id="XMLID_1592_" class="st18" d="M361.8,80.4c15.6-9,41.1-9,56.6,0c15.6,9,15.6,23.7,0,32.7c-15.6,9-41.1,9-56.6,0
				C346.2,104.1,346.2,89.4,361.8,80.4z"/>
			<g>
				<g>
					<g>
						<linearGradient id="SVGID_10_" gradientUnits="userSpaceOnUse" x1="87.8484" y1="377.9079" x2="401.311" y2="377.9079">
							<stop  offset="0" style="stop-color:#B4ACBF"/>
							<stop  offset="0.5146" style="stop-color:#D1C8DE"/>
							<stop  offset="1" style="stop-color:#F0E5FF"/>
						</linearGradient>
						<rect x="90.6" y="265.8" class="st19" width="308.4" height="224.2"/>
						<linearGradient id="SVGID_11_" gradientUnits="userSpaceOnUse" x1="90.7106" y1="266.4392" x2="399.0085" y2="266.4392">
							<stop  offset="0" style="stop-color:#F0E5FF"/>
							<stop  offset="1" style="stop-color:#FFFFFF"/>
						</linearGradient>
						<path class="st20" d="M225.8,350.7L96.2,275.9c-7.3-4.2-7.3-14.8,0-19.1l130.3-75.2c10.8-6.2,24-6.2,34.8,0l131.9,76.1
							c7.1,4.1,8.1,13.6,1,17.6L264,350.7C252.2,357.6,237.6,357.6,225.8,350.7z"/>
						<g>
							<g id="XMLID_1589_">
								<linearGradient id="XMLID_12_" gradientUnits="userSpaceOnUse" x1="126.0002" y1="264.8999" x2="363.9999" y2="264.8999">
									<stop  offset="0" style="stop-color:#B4ACBF"/>
									<stop  offset="0.5146" style="stop-color:#D1C8DE"/>
									<stop  offset="1" style="stop-color:#F0E5FF"/>
								</linearGradient>
								<path id="XMLID_1591_" class="st21" d="M240.2,196.2L126,250.5v15.6c0,0.9,0.5,1.7,1.3,2.2l113,65.3c3,1.7,6.6,1.7,9.6,0
									l112.8-65.2c0.9-0.5,1.4-1.5,1.4-2.5v-15.4l-114.2-54.3C246.8,194.5,243.2,194.5,240.2,196.2z"/>
								<linearGradient id="XMLID_13_" gradientUnits="userSpaceOnUse" x1="126" y1="250.4966" x2="364" y2="250.4966">
									<stop  offset="0" style="stop-color:#F0E5FF"/>
									<stop  offset="1" style="stop-color:#FFFFFF"/>
								</linearGradient>
								<path id="XMLID_1590_" class="st22" d="M240.2,181.8l-111.9,64.6c-3.1,1.8-3.1,6.4,0,8.2l111.9,64.6c3,1.7,6.6,1.7,9.6,0
									l111.9-64.6c3.1-1.8,3.1-6.4,0-8.2l-111.9-64.6C246.8,180.1,243.2,180.1,240.2,181.8z"/>
							</g>
							<linearGradient id="XMLID_14_" gradientUnits="userSpaceOnUse" x1="159.4814" y1="248.2959" x2="329.2378" y2="248.2959">
								<stop  offset="0" style="stop-color:#F0E5FF"/>
								<stop  offset="1" style="stop-color:#FFFFFF"/>
							</linearGradient>
							<path id="XMLID_1415_" class="st23" d="M241,199.3l-79.8,46.1c-2.2,1.3-2.2,4.5,0,5.8l79.8,46.1c2.1,1.2,4.7,1.2,6.8,0
								l79.8-46.1c2.2-1.3,2.2-4.5,0-5.8l-79.8-46.1C245.7,198.1,243.1,198.1,241,199.3z"/>
							<linearGradient id="XMLID_15_" gradientUnits="userSpaceOnUse" x1="159.4975" y1="272.3063" x2="329.2218" y2="272.3063">
								<stop  offset="0" style="stop-color:#B4ACBF"/>
								<stop  offset="0.5146" style="stop-color:#D1C8DE"/>
								<stop  offset="1" style="stop-color:#F0E5FF"/>
							</linearGradient>
							<path id="XMLID_1413_" class="st24" d="M327.6,247.5l-79.8,46.1c-2.1,1.2-4.7,1.2-6.8,0l-79.8-46.1c-0.5-0.3-0.8-0.6-1.1-1
								c-1,1.5-0.7,3.8,1.1,4.8l79.8,46.1c2.1,1.2,4.7,1.2,6.8,0l79.8-46.1c1.8-1,2.1-3.3,1.1-4.8
								C328.4,246.8,328,247.2,327.6,247.5z"/>
						</g>
					</g>
					<linearGradient id="SVGID_12_" gradientUnits="userSpaceOnUse" x1="244.7785" y1="492.0171" x2="244.7785" y2="264.1419">
						<stop  offset="0" style="stop-color:#FFFFFF"/>
						<stop  offset="0.35" style="stop-color:#FFFFFF;stop-opacity:0.7"/>
						<stop  offset="0.4083" style="stop-color:#FFFFFF;stop-opacity:0.6373"/>
						<stop  offset="1" style="stop-color:#FFFFFF;stop-opacity:0"/>
					</linearGradient>
					<rect x="90.5" y="265.8" class="st25" width="308.5" height="224.2"/>
					<linearGradient id="SVGID_13_" gradientUnits="userSpaceOnUse" x1="244.7785" y1="492.0171" x2="244.7785" y2="264.1419">
						<stop  offset="0" style="stop-color:#FFFFFF"/>
						<stop  offset="0.35" style="stop-color:#FFFFFF;stop-opacity:0.7"/>
						<stop  offset="0.4083" style="stop-color:#FFFFFF;stop-opacity:0.6373"/>
						<stop  offset="1" style="stop-color:#FFFFFF;stop-opacity:0"/>
					</linearGradient>
					<rect x="90.5" y="265.8" class="st26" width="308.5" height="224.2"/>
				</g>
			</g>
			
				<radialGradient id="XMLID_16_" cx="244.5634" cy="7892.8364" r="40.4353" gradientTransform="matrix(1 0 0 0.5172 0 -3836.3289)" gradientUnits="userSpaceOnUse">
				<stop  offset="0" style="stop-color:#120426"/>
				<stop  offset="8.588529e-02" style="stop-color:#1A0D2E;stop-opacity:0.9141"/>
				<stop  offset="0.2261" style="stop-color:#322543;stop-opacity:0.7739"/>
				<stop  offset="0.4031" style="stop-color:#574D65;stop-opacity:0.5969"/>
				<stop  offset="0.6102" style="stop-color:#8B8495;stop-opacity:0.3898"/>
				<stop  offset="0.8395" style="stop-color:#CDCAD1;stop-opacity:0.1605"/>
				<stop  offset="1" style="stop-color:#FFFFFF;stop-opacity:0"/>
			</radialGradient>
			<path id="XMLID_1411_" class="st27" d="M216.2,229.5c15.6-9,41.1-9,56.6,0c15.6,9,15.6,23.7,0,32.7c-15.6,9-41.1,9-56.6,0
				C200.7,253.2,200.7,238.5,216.2,229.5z"/>
		</g>
		<g>
			<path class="st28" d="M409.7,22.4c1.3,1.1,2.4,2.5,3.2,4.2l2.8-2.6c-0.9-1.9-2.1-3.5-3.6-4.8L409.7,22.4z"/>
			<path class="st28" d="M390.3,20.2c-0.8,0.4-1.5,0.8-2.3,1.3l0.2,2.8c1.1-0.7,2.3-1.3,3.4-1.9c1.1-0.6,2.3-1,3.4-1.4l0.8-3.3
				c-1.3,0.4-2.6,1-3.9,1.6C391.4,19.6,390.8,19.9,390.3,20.2z"/>
			<path class="st28" d="M362.6,77.2c-1.2-1.7-2-3.8-2.5-6.2l-3.1,2.3c0.5,2.7,1.5,5,2.9,6.9L362.6,77.2z"/>
			<path class="st28" d="M361,48.3l2.8-0.1c1.4-3.1,3-6.2,5-9.1l-2.1-1.1C364.4,41.3,362.5,44.8,361,48.3z"/>
			<path class="st28" d="M357.1,60.7l3.1-1.2c0.5-3,1.5-6,2.7-9.1l-2.8,0.1C358.7,53.9,357.7,57.4,357.1,60.7z"/>
			<path class="st28" d="M377.2,25.1l1.2,2.2c2.5-2.4,5.1-4.6,7.8-6.4l-0.2-3C383,19.9,380.1,22.3,377.2,25.1z"/>
			<path class="st28" d="M368,36l2.1,1.1c2-2.9,4.3-5.7,6.8-8.2l-1.2-2.2C372.8,29.6,370.3,32.7,368,36z"/>
			<path class="st28" d="M414.5,55.3l-2.5-0.5c-1.7,3.1-3.8,6-6,8.8l1.7,1.7C410.3,62.1,412.6,58.8,414.5,55.3z"/>
			<path class="st28" d="M376.3,83c-2.4,0.2-4.7,0-6.7-0.6l-2.1,3.5c2.3,0.7,4.8,0.9,7.5,0.7L376.3,83z"/>
			<path class="st28" d="M422.1,32.9c0.4-4.5,0-8.5-1.3-11.8l-3,2.7c1.7,4.8,1.7,10.9-0.2,17.7l3-0.7
				C421.4,38.1,421.9,35.4,422.1,32.9z"/>
			<path class="st28" d="M403.8,64.3l-1.6-1.6c-2,2.3-4.1,4.4-6.3,6.3l0.7,2.5C399.1,69.4,401.5,67,403.8,64.3z"/>
			<path class="st28" d="M364.8,66c-0.2-1.7-0.2-3.6-0.1-5.5c0-0.5,0.1-0.9,0.2-1.3l-2.9,1.2c-0.1,0.5-0.1,1.1-0.2,1.6
				c-0.2,2.2-0.2,4.3,0.1,6.2L364.8,66z"/>
			<path class="st28" d="M397.8,15.3c2.6-0.7,5.1-1,7.3-0.9l1.8-3.6c-2.6-0.1-5.3,0.2-8.3,1L397.8,15.3z"/>
			<path class="st28" d="M385,83.8l0.3-3.3c-2.5,1.1-5,1.9-7.4,2.3l-1.3,3.6C379.3,86,382.1,85.1,385,83.8z"/>
			<path class="st28" d="M369.6,80l2-3.3c-1.6-0.7-3-1.7-4.1-3l-2.6,2.9C366.2,78,367.8,79.2,369.6,80z"/>
			<path class="st28" d="M408.3,10.9l-1.8,3.6c2.2,0.3,4.1,1,5.9,2.1l2.5-3.4C413,12,410.8,11.2,408.3,10.9z"/>
			<path class="st28" d="M411.3,52.7c1.6-3,2.8-6,3.8-9l-2.8,0.6c-0.8,2.6-2,5.3-3.3,7.9L411.3,52.7z"/>
			<path class="st29" d="M413.7,27.5l-2.8,2.6c0.8,2.2,1,4.9,0.8,7.8c-0.1,1.6-0.4,3.3-0.9,5.1l2.8-0.6c0.5-2,0.9-4,1.1-5.9
				C414.9,33.1,414.6,30.1,413.7,27.5z"/>
			<path class="st29" d="M385.7,75.9l0.3-3.1c-1.7,0.7-3.4,1.3-5.1,1.6l-1.2,3.4C381.6,77.4,383.6,76.8,385.7,75.9z"/>
			<path class="st29" d="M406,32.8l2.7-2.4c-0.6-1.3-1.5-2.4-2.5-3.3l-2.2,3C404.8,30.8,405.5,31.7,406,32.8z"/>
			<path class="st29" d="M390,27.7l-1.5,0.8l0.2,2.7c1.5-0.9,3-1.6,4.4-2.2l0.7-3.1c-0.9,0.3-1.8,0.7-2.7,1.1
				C390.9,27.3,390.4,27.5,390,27.7z"/>
			<path class="st29" d="M367.6,48.2l2.6-0.1c1-2.2,2.1-4.3,3.5-6.4l-2-1.1C370.1,43.1,368.7,45.6,367.6,48.2z"/>
			<path class="st29" d="M395.9,23.5c1.8-0.5,3.5-0.7,5.1-0.7l1.7-3.4c-1.9-0.1-3.9,0.2-6,0.8L395.9,23.5z"/>
			<path class="st29" d="M406.6,24.5l2.3-3.1c-1.4-0.9-3-1.5-4.8-1.8l-1.7,3.4C404,23.2,405.4,23.7,406.6,24.5z"/>
			<path class="st29" d="M403.4,51l2.2,0.5c1.1-2.1,1.9-4.1,2.6-6.2l-2.6,0.6C405,47.5,404.3,49.3,403.4,51z"/>
			<path class="st29" d="M374.6,74.1l-2,3.3c1.7,0.5,3.5,0.7,5.5,0.5l1.2-3.4C377.6,74.7,376,74.6,374.6,74.1z"/>
			<path class="st29" d="M371.9,60.8c-0.1-1.2-0.1-2.4,0-3.8c0-0.2,0-0.5,0.1-0.7l-2.7,1.1c0,0.3-0.1,0.6-0.1,1
				c-0.1,1.6-0.1,3.1,0,4.5L371.9,60.8z"/>
			<path class="st29" d="M367.3,65.7l-2.9,2.2c0.4,1.9,1.1,3.6,2.1,5.1l2.6-2.9C368.3,68.8,367.7,67.4,367.3,65.7z"/>
			<path class="st29" d="M402.1,59.7l1.6,1.6c1.8-2.3,3.5-4.7,4.9-7.2l-2.3-0.5C405.1,55.7,403.7,57.8,402.1,59.7z"/>
			<path class="st29" d="M369.3,50.2l-2.6,0.1c-1,2.6-1.8,5.1-2.2,7.5l2.9-1.2C367.8,54.5,368.4,52.4,369.3,50.2z"/>
			<path class="st29" d="M394.2,63.1l0.7,2.3c1.7-1.5,3.4-3.2,5-5l-1.5-1.5C397,60.4,395.6,61.8,394.2,63.1z"/>
			<path class="st29" d="M373.9,66.6l-2.5,2.7c0.9,1,2,1.8,3.3,2.4l1.9-3.1C375.5,68.1,374.6,67.4,373.9,66.6z"/>
			<path class="st29" d="M388.5,71.6c-0.2,0.1-0.5,0.3-0.7,0.4l-0.3,3.1c2.3-1.2,4.7-2.7,6.9-4.5l-0.7-2.5
				C392,69.5,390.2,70.6,388.5,71.6z"/>
			<path class="st29" d="M373,38.7l2,1.1c1.4-2,3-4,4.7-5.7l-1.2-2C376.5,34,374.7,36.3,373,38.7z"/>
			<path class="st29" d="M380.2,30.3l1.2,2c1.8-1.7,3.6-3.2,5.5-4.5l-0.2-2.8C384.4,26.5,382.2,28.3,380.2,30.3z"/>
			<path class="st28" d="M387.7,82.5c2.8-1.5,5.6-3.4,8.3-5.5l-0.7-2.6c-2.4,1.9-4.8,3.5-7.2,4.8c-0.4,0.2-0.7,0.3-1.1,0.5l-0.3,3.3
				C387.1,82.8,387.4,82.7,387.7,82.5L387.7,82.5z"/>
		</g>
		<g>
			
				<radialGradient id="SVGID_14_" cx="260.7476" cy="1596.3693" r="31.579" gradientTransform="matrix(1.0419 -0.6015 0 1.042 -26.6633 -1310.976)" gradientUnits="userSpaceOnUse">
				<stop  offset="0" style="stop-color:#491E8C"/>
				<stop  offset="1" style="stop-color:#9452FF"/>
			</radialGradient>
			<path class="st30" d="M245,162.6c18.2-10.5,32.9-4.3,32.9,13.9S263.2,218,245,228.4c-18.2,10.5-32.9,4.3-32.9-13.9
				S226.8,173.1,245,162.6z"/>
			<g>
				
					<radialGradient id="SVGID_15_" cx="260.6176" cy="1596.3693" r="29.9144" gradientTransform="matrix(1.0419 -0.6015 0 1.042 -26.6633 -1310.976)" gradientUnits="userSpaceOnUse">
					<stop  offset="0" style="stop-color:#251440"/>
					<stop  offset="1" style="stop-color:#491E8C"/>
				</radialGradient>
				<path class="st31" d="M245.5,168.8c3.6-2.1,7-3.4,10.3-3.9c3.2-0.5,6-0.2,8.4,0.8c2.4,1,4.4,2.7,5.7,5.1
					c1.4,2.5,2.1,5.5,2.1,9.1s-0.7,7.4-2.1,11.5c-1.3,3.9-3.3,7.9-5.7,11.7c-2.4,3.8-5.3,7.4-8.4,10.6c-3.3,3.3-6.7,6-10.3,8
					c-3.6,2.1-7,3.4-10.3,3.9c-3.2,0.5-6,0.2-8.4-0.8s-4.4-2.7-5.7-5.1c-1.4-2.5-2.1-5.5-2.1-9.1c0-3.6,0.7-7.4,2.1-11.5
					c1.3-3.9,3.3-7.9,5.7-11.7c2.4-3.8,5.3-7.4,8.4-10.6C238.4,173.5,241.9,170.8,245.5,168.8 M244.9,164.5
					c-17.2,9.9-31.2,32-31.2,49.2s14,23.1,31.2,13.2c17.2-9.9,31.2-32,31.2-49.2S262.1,154.5,244.9,164.5L244.9,164.5z"/>
				<g class="st32">
					<path class="st33" d="M245.5,168.8c14.6-8.4,26.5-3.4,26.5,11.2c0,14.6-11.8,33.4-26.5,41.8c-14.6,8.4-26.5,3.4-26.5-11.2
						S230.8,177.2,245.5,168.8z"/>
				</g>
				<g id="Brandmark_358_">
					<path id="Core-1_359_" class="st34" d="M245.5,183.6c1.7-1,3.1-0.4,3.1,1.3c0,1.7-1.4,3.9-3.1,4.8c-1.7,1-3.1,0.4-3.1-1.3
						C242.4,186.8,243.8,184.6,245.5,183.6z"/>
					<path id="Core-2_359_" class="st34" d="M236.5,195.4c1.7-1,3.1-0.4,3.1,1.3c0,1.7-1.4,3.9-3.1,4.8c-1.7,1-3.1,0.4-3.1-1.3
						C233.4,198.5,234.8,196.3,236.5,195.4z"/>
					<path id="Core-3_359_" class="st34" d="M254.4,185c1.7-1,3.1-0.4,3.1,1.3s-1.4,3.9-3.1,4.8s-3.1,0.4-3.1-1.3
						C251.4,188.1,252.7,186,254.4,185z"/>
					<path id="Core-4_359_" class="st34" d="M239.9,203.9c1.7-1,3.1-0.4,3.1,1.3c0,1.7-1.4,3.9-3.1,4.8c-1.7,1-3.1,0.4-3.1-1.3
						C236.8,207.1,238.2,204.9,239.9,203.9z"/>
					<path id="Core-5_359_" class="st34" d="M251,197.6c1.7-1,3.1-0.4,3.1,1.3c0,1.7-1.4,3.9-3.1,4.8s-3.1,0.4-3.1-1.3
						S249.3,198.5,251,197.6z"/>
					<path id="Center_358_" class="st35" d="M247.1,202.9c0-1,0.4-2.3,1.1-3.4s1.7-2.1,2.8-2.7c1-0.6,1.9-0.7,2.6-0.4
						c0.6-1.5,1.1-3.1,1.2-4.5c-0.1,0.1-0.2,0.2-0.4,0.3c-1,0.6-2,0.8-2.8,0.5c-0.7-0.3-1.1-1.1-1.1-2.1s0.4-2.2,1.1-3.4
						c0.2-0.4,0.5-0.8,0.8-1.1c-0.9-0.5-2-0.7-3.2-0.5c-0.1,0.8-0.5,1.8-1,2.5c-0.7,1.2-1.7,2.1-2.8,2.7s-2,0.7-2.8,0.5
						c-0.5-0.2-0.9-0.7-1-1.3c-1.2,1.3-2.3,2.7-3.2,4.2c0.3,0,0.5,0,0.8,0.2c0.7,0.3,1.1,1.1,1.1,2.1s-0.4,2.2-1.1,3.4
						c-0.7,1.2-1.7,2.1-2.8,2.7c-0.1,0.1-0.2,0.1-0.4,0.2c0.1,1.3,0.5,2.4,1.2,3.1c0.7-1.1,1.6-2,2.6-2.5c1-0.6,2-0.7,2.8-0.5
						c0.7,0.3,1.1,1.1,1.1,2.1c0,0.5-0.1,1.2-0.3,1.8c0.6-0.2,1.3-0.6,2-0.9s1.3-0.8,2-1.4C247.2,203.9,247.1,203.4,247.1,202.9z"/>
					<path id="Circles_358_" class="st35" d="M265.1,177.5c-0.6-1-1.4-1.7-2.5-2.2c-1-0.4-2.3-0.6-3.7-0.4c-0.9,0.1-1.9,0.5-2.9,0.9
						c-0.5-0.9-1.3-1.5-2.3-1.9c-1-0.4-2.3-0.6-3.7-0.4c-1.4,0.2-2.9,0.7-4.5,1.7c-1.6,0.9-3.1,2.1-4.5,3.5
						c-1.4,1.4-2.6,2.9-3.7,4.6c-0.9,1.5-1.7,3-2.3,4.5c-1.1,0.8-2.1,1.6-3.1,2.6c-1.4,1.4-2.6,2.9-3.7,4.6c-1,1.6-1.9,3.4-2.5,5.1
						c-0.6,1.8-0.9,3.5-0.9,5.1c0,1.5,0.3,2.9,0.9,4c0.6,1,1.4,1.7,2.5,2.2c0,0,0.1,0.1,0.2,0.1c-0.1,0.8-0.2,1.6-0.2,2.2
						c0,1.5,0.3,2.9,0.9,4c0.6,1,1.4,1.7,2.5,2.2c1,0.4,2.3,0.6,3.7,0.4c1.4-0.2,2.9-0.7,4.5-1.7s3.1-2.1,4.5-3.5
						c0.3-0.3,0.7-0.7,1-1.1c0.3,0,0.7-0.1,1-0.1c1.4-0.2,2.9-0.7,4.5-1.7c1.5-0.9,3.1-2.1,4.5-3.5c1.4-1.4,2.6-2.9,3.7-4.6
						c1-1.6,1.9-3.4,2.5-5.1c0.6-1.8,0.9-3.5,0.9-5.1c0-0.7,0-1.4-0.2-2c0.1-0.2,0.1-0.2,0.2-0.4c1-1.6,1.9-3.4,2.5-5.1
						c0.6-1.8,0.9-3.5,0.9-5.1C266,179.9,265.7,178.5,265.1,177.5z M264.2,186.5c-0.5,1.5-1.2,3-2.1,4.4c-0.1-0.4-0.2-0.7-0.4-1
						c-0.6-1-1.4-1.7-2.5-2.2c-0.3-0.1-0.7-0.3-1.1-0.3c-0.1,0.4-0.2,0.7-0.4,1.1c0.3,0,0.6,0.2,0.9,0.3c1,0.4,1.7,1.1,2.3,2.1
						c0.2,0.4,0.4,0.9,0.5,1.3c-0.8,1.2-1.7,2.3-2.8,3.3c-1.1,1.2-2.4,2.1-3.7,3c0,0.3,0,0.7-0.1,1c1.4-0.9,2.9-2,4.2-3.3
						c0.9-0.9,1.8-2,2.6-3c0,0.4,0.1,0.9,0.1,1.4c0,1.4-0.3,3-0.8,4.6c-0.5,1.6-1.3,3.1-2.3,4.7s-2.1,2.9-3.4,4.2
						c-1.3,1.3-2.7,2.4-4.2,3.2c-1.5,0.9-2.8,1.3-4.2,1.6c-0.1,0-0.3,0-0.4,0.1c0.6-0.7,1.1-1.5,1.7-2.4c1-1.6,1.9-3.4,2.5-5.1
						c0.1-0.3,0.1-0.5,0.2-0.8c-0.3,0.2-0.6,0.3-0.9,0.4c0,0.2-0.1,0.4-0.1,0.5c-0.5,1.6-1.3,3.1-2.3,4.7c-0.6,0.9-1.2,1.9-2,2.7
						c-0.7,0-1.4-0.1-2-0.4c-1-0.4-1.7-1.1-2.3-2.1c0-0.1-0.1-0.2-0.1-0.4c-0.3,0.3-0.6,0.5-0.9,0.7c0,0.2,0.1,0.4,0.2,0.5
						c0.6,1,1.4,1.7,2.5,2.2c0.5,0.2,1.1,0.4,1.7,0.4c-0.1,0.1-0.3,0.3-0.4,0.5c-1.3,1.3-2.7,2.4-4.2,3.2c-1.5,0.9-2.8,1.3-4.2,1.6
						c-1.2,0.2-2.4,0-3.4-0.3c-1-0.4-1.7-1.1-2.3-2.1c-0.5-1-0.8-2.2-0.8-3.7c0-0.4,0-1,0.1-1.5c0.8,0.2,1.7,0.2,2.6,0
						c1.3-0.2,2.7-0.7,4.2-1.5c-0.1-0.2-0.1-0.6-0.1-0.9c-1.3,0.7-2.5,1.1-3.7,1.3c-1,0.2-1.9,0.1-2.8-0.1c0.1-0.6,0.3-1.3,0.5-1.9
						c0.5-1.6,1.3-3.1,2.3-4.7c0.3-0.5,0.6-0.9,0.9-1.3c-0.2-0.1-0.3-0.3-0.4-0.6c-0.4,0.5-0.7,1.1-1.1,1.6c-1,1.6-1.9,3.4-2.5,5.1
						c-0.1,0.5-0.3,1-0.4,1.5c-0.9-0.4-1.6-1-2.1-2c-0.5-1-0.8-2.2-0.8-3.7c0-1.4,0.3-3,0.8-4.6c0.5-1.6,1.3-3.1,2.3-4.7
						c1-1.6,2.1-2.9,3.4-4.2c0.7-0.8,1.5-1.4,2.3-2c-0.4,1.5-0.7,3-0.7,4.4c0,1.1,0.1,2.1,0.4,3c0.2-0.3,0.5-0.6,0.9-0.9
						c-0.2-0.8-0.3-1.6-0.3-2.6c0-1.4,0.2-2.9,0.8-4.5c0.2-0.2,0.5-0.3,0.7-0.5c1.4-0.8,2.8-1.3,4.2-1.6c0.6-0.1,1.2-0.1,1.7-0.1
						c0.1-0.2,0.2-0.4,0.3-0.6c0.1-0.2,0.2-0.3,0.3-0.4c-0.6-0.1-1.3-0.1-2,0c-1.4,0.2-2.9,0.7-4.5,1.7c-0.1,0.1-0.2,0.1-0.3,0.2
						c0.5-1.2,1.1-2.4,1.8-3.5c1-1.6,2.1-2.9,3.4-4.2c1.3-1.3,2.7-2.4,4.2-3.2c1.4-0.8,2.8-1.3,4.2-1.6c1.2-0.2,2.4,0,3.4,0.3
						c0.7,0.3,1.3,0.8,1.8,1.4c-0.1,0.1-0.3,0.2-0.4,0.3c-1.5,0.9-3.1,2.1-4.5,3.5c-0.7,0.7-1.4,1.5-2,2.3c0.1,0,0.2,0,0.3,0.1
						c0.1,0.1,0.2,0.1,0.3,0.2c0.5-0.7,1.1-1.4,1.7-1.9c1.3-1.3,2.7-2.4,4.2-3.2c0.3-0.2,0.6-0.4,0.9-0.5c0.5,1,0.8,2.2,0.8,3.6
						c0,1-0.1,2-0.4,3.1c0.3-0.1,0.6-0.1,0.8,0c0.3-1.2,0.5-2.5,0.5-3.6c0-1.3-0.2-2.5-0.7-3.5c0.7-0.3,1.4-0.5,2.1-0.6
						c1.2-0.2,2.4,0,3.4,0.3c1,0.4,1.7,1.1,2.3,2.1c0.5,1,0.8,2.2,0.8,3.7C265,183.4,264.8,184.9,264.2,186.5z"/>
				</g>
			</g>
		</g>
		<g>
			<path class="st36" d="M132,96.2v-38l-32.6-19v38L132,96.2z"/>
			<path class="st37" d="M132,58.2l-32.6-19v38L132,58.2z"/>
			<path class="st36" d="M132,96.2l-32.6-19l32.6-19V96.2z"/>
			<path class="st38" d="M132,96.2l-32.6-19l-32.6,19l32.6,19L132,96.2z"/>
			<path class="st38" d="M99.4,115.2v-38l32.6,19L99.4,115.2z"/>
			<path class="st39" d="M66.7,96.2l32.6-19v38L66.7,96.2z"/>
			<path class="st40" d="M99.4,39.2l-32.6,19v38l32.6-19L99.4,39.2z"/>
			<path class="st41" d="M66.7,58.2v38l32.6-19L66.7,58.2z"/>
			<path class="st42" d="M99.4,39.2l-32.6,19l32.6,19L99.4,39.2z"/>
		</g>
	</g>
</g>
</svg>
