<svg xmlns="http://www.w3.org/2000/svg" xmlns:xlink="http://www.w3.org/1999/xlink" id="Layer_1" x="0" y="0" enable-background="new 0 0 490 490" version="1.1" viewBox="0 0 490 490" xml:space="preserve"><style type="text/css">.st0{fill:#fff;stroke:#bdafd6;stroke-width:2;stroke-miterlimit:10}.st1{opacity:.5}.st2{fill:none;stroke:#bdafd6;stroke-width:2;stroke-linecap:round;stroke-linejoin:round;stroke-dasharray:.1,4}.st3{fill:#bdafd6}.st4{fill:#fff}.st5,.st6{fill:#491e8c}.st6{opacity:.4;enable-background:new}.st7{fill:#655ae6}.st8{fill:#5a50ce}.st9{fill:#4896f0}.st10{fill:#4086d7}.st11{fill:#f5d980}.st12{fill:#f2d268}.st13{fill:#fada70}.st14{fill:#00c3ff}.st15{fill:#7ee0ff}</style><g><path d="M189.1,200.7H54.4c-6.6,0-12-5.4-12-12v-134c0-6.6,5.4-12,12-12h134.7c6.6,0,12,5.4,12,12v134 C201.1,195.3,195.7,200.7,189.1,200.7z" class="st0"/><path d="M435.6,200.7H300.9c-6.6,0-12-5.4-12-12v-134c0-6.6,5.4-12,12-12h134.7c6.6,0,12,5.4,12,12v134 C447.6,195.3,442.2,200.7,435.6,200.7z" class="st0"/><path d="M312.4,447.4H177.6c-6.6,0-12-5.4-12-12v-134c0-6.6,5.4-12,12-12h134.7c6.6,0,12,5.4,12,12v134 C324.4,442,319,447.4,312.4,447.4z" class="st0"/><g class="st1"><g><polyline points="121.8 220.9 121.8 368.4 137.5 368.4" class="st2"/><g><rect width="13" height="2" x="115.3" y="219.9" class="st3"/></g><g><g><circle cx="137.1" cy="368.4" r="7.5" class="st4"/><path d="M137.1,376.9c-4.7,0-8.5-3.8-8.5-8.5s3.8-8.5,8.5-8.5c4.7,0,8.5,3.8,8.5,8.5S141.8,376.9,137.1,376.9 C132.4,376.9,141.8,376.9,137.1,376.9z M137.1,361.8c-3.6,0-6.5,2.9-6.5,6.5s2.9,6.5,6.5,6.5c3.6,0,6.5-2.9,6.5-6.5 S140.6,361.8,137.1,361.8C133.5,361.8,140.6,361.8,137.1,361.8z" class="st3"/></g></g></g></g><g class="st1"><g><polyline points="368.2 228 368.2 368.4 345.4 368.4" class="st2"/><g><g><circle cx="368.2" cy="228.5" r="7.5" class="st4"/><path d="M359.7,228.5c0,4.7,3.8,8.5,8.5,8.5s8.5-3.8,8.5-8.5c0-4.7-3.8-8.5-8.5-8.5S359.7,223.8,359.7,228.5 C359.7,233.2,359.7,223.8,359.7,228.5z M374.7,228.5c0,3.6-2.9,6.5-6.5,6.5s-6.5-2.9-6.5-6.5c0-3.6,2.9-6.5,6.5-6.5 S374.7,224.9,374.7,228.5C374.7,232.1,374.7,224.9,374.7,228.5z" class="st3"/></g></g><g><rect width="2" height="13" x="344.4" y="361.9" class="st3"/></g></g></g><g id="Brandmark_2_"><circle id="Core-1_2_" cx="245" cy="347.6" r="7.5" class="st5"/><circle id="Core-2_2_" cx="223.1" cy="363.5" r="7.5" class="st5"/><circle id="Core-3_2_" cx="266.8" cy="363.5" r="7.5" class="st5"/><circle id="Core-4_2_" cx="231.5" cy="389.1" r="7.5" class="st5"/><circle id="Core-5_2_" cx="258.5" cy="389.1" r="7.5" class="st5"/><path id="Center_2_" d="M249,389.1c0-2.5,1-4.9,2.8-6.7c1.8-1.8,4.2-2.8,6.7-2.8c2.4,0,4.6,0.9,6.3,2.4 c1.6-2.8,2.7-5.9,3-9.2c-0.3,0-0.7,0-1,0c-2.5,0-4.9-1-6.7-2.8c-1.8-1.8-2.8-4.2-2.8-6.7s1-4.9,2.8-6.7c0.6-0.6,1.3-1.1,2-1.5 c-2.2-2.4-4.8-4.4-7.8-5.7c-0.4,1.8-1.3,3.4-2.6,4.7c-1.8,1.8-4.2,2.8-6.7,2.8c-2.5,0-4.9-1-6.7-2.8c-1.3-1.3-2.2-3-2.6-4.7 c-3,1.3-5.7,3.3-7.8,5.7c0.7,0.4,1.4,0.9,2,1.5c1.8,1.8,2.8,4.2,2.8,6.7s-1,4.9-2.8,6.7s-4.2,2.8-6.7,2.8c-0.3,0-0.7,0-1,0 c0.3,3.3,1.4,6.5,3,9.2c1.7-1.6,4-2.4,6.3-2.4c2.5,0,4.9,1,6.7,2.8c1.8,1.8,2.8,4.2,2.8,6.7c0,1.4-0.3,2.7-0.8,3.9 c1.6,0.3,3.2,0.5,4.9,0.5c1.7,0,3.3-0.2,4.9-0.5C249.3,391.8,249,390.5,249,389.1z" class="st6"/><path id="Circles_2_" d="M292.8,352.5c-1.4-3.4-3.5-6.4-6-9c-2.6-2.6-5.6-4.6-9-6c-2.3-1-4.7-1.6-7.1-2 c-1.4-2.9-3.2-5.6-5.5-7.9c-2.6-2.6-5.6-4.6-9-6c-3.5-1.5-7.2-2.2-11-2.2s-7.5,0.7-11,2.2c-3.4,1.4-6.4,3.5-9,6 c-2.3,2.3-4.1,4.9-5.5,7.8c-2.6,0.3-5.2,1-7.6,2c-3.4,1.4-6.4,3.4-9,6c-2.6,2.6-4.6,5.6-6,9c-1.5,3.5-2.2,7.2-2.2,10.9 c0,3.8,0.7,7.5,2.2,11c1.4,3.4,3.5,6.4,6,9c0.2,0.2,0.4,0.4,0.6,0.6c-0.3,1.7-0.5,3.5-0.5,5.2c0,3.8,0.7,7.5,2.2,11 c1.4,3.4,3.5,6.4,6,9s5.6,4.6,9,6c3.5,1.5,7.2,2.2,11,2.2c3.8,0,7.5-0.7,11-2.2c0.9-0.4,1.7-0.8,2.5-1.2c0.8,0.5,1.7,0.9,2.5,1.2 c3.5,1.5,7.2,2.2,11,2.2c3.8,0,7.5-0.7,11-2.2c3.4-1.4,6.4-3.5,9-6s4.6-5.6,6-9c1.5-3.5,2.2-7.2,2.2-11c0-1.8-0.2-3.5-0.5-5.2 c0.2-0.2,0.4-0.4,0.6-0.6c2.6-2.6,4.6-5.6,6-9c1.5-3.5,2.2-7.2,2.2-11C295,359.7,294.2,356,292.8,352.5z M290.6,373.5 c-1.2,2.9-2.9,5.5-5.1,7.8c-0.3-1-0.7-2.1-1.1-3.1c-1.4-3.4-3.5-6.4-6-9c-0.8-0.8-1.8-1.6-2.7-2.4c-0.3,0.7-0.7,1.4-1.1,2.1 c0.8,0.6,1.5,1.3,2.2,2c2.4,2.4,4.2,5.1,5.5,8.2c0.5,1.3,1,2.7,1.3,4c-2,1.7-4.3,3.1-6.7,4.2c-2.8,1.2-5.8,1.9-8.9,2 c0,0.8-0.1,1.6-0.3,2.3c3.5-0.1,6.9-0.8,10.2-2.2c2.3-1,4.4-2.2,6.3-3.7c0.1,1.1,0.2,2.3,0.2,3.4c0,3.5-0.7,6.9-2,10.1 c-1.3,3.1-3.2,5.8-5.5,8.2c-2.4,2.4-5.1,4.2-8.2,5.5c-3.2,1.3-6.6,2-10.1,2s-6.9-0.7-10.1-2c-0.4-0.2-0.8-0.3-1.1-0.5 c1.5-1,2.8-2.1,4.1-3.4c2.6-2.6,4.6-5.6,6-9c0.2-0.5,0.4-1,0.6-1.5c-0.8,0-1.6-0.2-2.3-0.4c-0.1,0.3-0.3,0.7-0.4,1 c-1.3,3.1-3.2,5.8-5.5,8.2c-1.4,1.4-3,2.7-4.8,3.8c-1.7-1.1-3.3-2.3-4.8-3.8c-2.4-2.4-4.2-5.1-5.5-8.2c-0.1-0.3-0.3-0.7-0.4-1 c-0.7,0.2-1.5,0.4-2.3,0.4c0.2,0.5,0.4,1,0.6,1.5c1.4,3.4,3.5,6.4,6,9c1.3,1.3,2.6,2.4,4.1,3.4c-0.4,0.2-0.7,0.3-1.1,0.5 c-3.2,1.3-6.6,2-10.1,2c-3.5,0-6.9-0.7-10.1-2c-3.1-1.3-5.8-3.2-8.2-5.5c-2.4-2.4-4.2-5.1-5.5-8.2c-1.3-3.2-2-6.6-2-10.1 c0-1.2,0.1-2.3,0.2-3.4c1.9,1.5,4,2.7,6.3,3.7c3.2,1.4,6.6,2.1,10.2,2.2c-0.2-0.7-0.3-1.5-0.3-2.3c-3.1-0.1-6.1-0.8-8.9-2 c-2.5-1-4.7-2.4-6.7-4.2c0.3-1.4,0.8-2.7,1.3-4c1.3-3.1,3.2-5.8,5.5-8.2c0.7-0.7,1.4-1.3,2.2-2c-0.5-0.6-0.8-1.3-1.1-2.1 c-1,0.7-1.9,1.5-2.7,2.4c-2.6,2.6-4.6,5.6-6,9c-0.4,1-0.8,2.1-1.1,3.1c-2.2-2.3-3.9-4.9-5.1-7.8c-1.3-3.2-2-6.6-2-10.1 s0.7-6.9,2-10.1c1.3-3.1,3.2-5.8,5.5-8.2c2.4-2.4,5.1-4.2,8.2-5.5c1.8-0.8,3.7-1.3,5.6-1.7c-1.1,3.1-1.7,6.3-1.7,9.6 c0,2.7,0.4,5.3,1.1,7.8c0.7-0.4,1.4-0.7,2.1-1c-0.6-2.2-0.9-4.5-0.9-6.8c0-3.4,0.7-6.8,2-9.9c0.6,0,1.2-0.1,1.8-0.1 c3.5,0,6.9,0.7,10.1,2c1.5,0.6,2.9,1.4,4.2,2.3c0.3-0.4,0.6-0.7,0.9-1c0.2-0.2,0.5-0.5,0.8-0.7c-1.5-1.1-3.2-2-4.9-2.7 c-3.5-1.5-7.2-2.2-11-2.2c-0.2,0-0.5,0-0.7,0c1.2-2.2,2.7-4.2,4.5-6c2.4-2.4,5.1-4.2,8.2-5.5c3.2-1.3,6.6-2,10-2 c3.5,0,6.9,0.7,10.1,2c3.1,1.3,5.8,3.2,8.2,5.5c1.8,1.8,3.3,3.8,4.5,6c-0.4,0-0.7,0-1.1,0c-3.8,0-7.5,0.7-11,2.2 c-1.7,0.7-3.4,1.6-4.9,2.7c0.3,0.2,0.5,0.4,0.8,0.7c0.3,0.3,0.6,0.7,0.9,1c1.3-0.9,2.7-1.6,4.2-2.3c3.2-1.3,6.6-2,10.1-2 c0.7,0,1.5,0,2.2,0.1c1.3,3.1,2,6.5,2,9.9c0,2.4-0.3,4.7-1,7c0.7,0.3,1.4,0.6,2.1,1.1c0.8-2.6,1.2-5.3,1.2-8 c0-3.3-0.6-6.5-1.6-9.5c1.8,0.3,3.5,0.9,5.2,1.6c3.1,1.3,5.8,3.2,8.2,5.5c2.4,2.4,4.2,5.1,5.5,8.2c1.3,3.2,2,6.6,2,10.1 C292.7,366.9,292,370.3,290.6,373.5z" class="st6"/></g><g><path d="M164.7,146.6v-50l-43-25v50L164.7,146.6z" class="st7"/><path d="M164.7,96.6l-43-25v50L164.7,96.6z" class="st8"/><path d="M164.7,146.6l-43-25l43-25V146.6z" class="st7"/><path d="M164.7,146.6l-43-25l-43,25l43,25L164.7,146.6z" class="st9"/><path d="M121.8,171.6v-50l43,25L121.8,171.6z" class="st9"/><path d="M78.8,146.6l43-25v50L78.8,146.6z" class="st10"/><path d="M121.8,71.6l-43,25v50l43-25L121.8,71.6z" class="st11"/><path d="M78.8,96.6v50l43-25L78.8,96.6z" class="st12"/><path d="M121.8,71.6l-43,25l43,25L121.8,71.6z" class="st13"/></g><g><path d="M398.8,99.3c2,2.8,3.6,5.9,4.8,9.2l4.3-1.4c-1.4-3.7-3.2-7.3-5.6-10.5L398.8,99.3z" class="st14"/><path d="M369.3,78.9c-1.1,0-2.3,0-3.5,0l0.3,4.5c1.7-0.1,3.5,0,5.2,0.1c1.7,0.2,3.4,0.4,5.1,0.8l1.1-4.4 c-1.9-0.5-3.9-0.8-5.9-1C371,79,370.1,78.9,369.3,78.9z" class="st14"/><path d="M327.1,141.5c-1.8-3.7-3.1-7.6-3.9-11.6l-4.7,0.8c0.8,4.6,2.3,9,4.4,13.1L327.1,141.5z" class="st14"/><path d="M324.6,96l4.2,2.3c2.1-3.5,4.7-6.7,7.6-9.6l-3.2-3.6C329.9,88.4,327,92.1,324.6,96z" class="st14"/><path d="M318.7,111.4l4.7,0.8c0.8-4,2.2-7.9,4.1-11.5l-4.2-2.3C321.2,102.5,319.6,106.9,318.7,111.4z" class="st14"/><path d="M349.4,74.9l1.9,4.4c3.8-1.5,7.8-2.5,11.9-2.9l-0.3-4.8C358.2,72.1,353.7,73.2,349.4,74.9z" class="st14"/><path d="M335.3,83.4l3.2,3.6c3.1-2.7,6.6-4.9,10.3-6.6l-1.9-4.4C342.7,77.9,338.8,80.4,335.3,83.4z" class="st14"/><path d="M406.2,153.8l-3.7-3c-2.7,3.1-5.7,5.9-9.1,8.2l2.6,4.1C399.8,160.5,403.3,157.4,406.2,153.8z" class="st14"/><path d="M347.9,162.4c-3.7-1.8-7.1-4.1-10.2-6.8l-3.3,3.5c3.4,3.1,7.3,5.7,11.5,7.7L347.9,162.4z" class="st14"/><path d="M417.8,126.2c0.6-6.5,0-13-1.9-19.2l-4.6,1.5c2.6,8.8,2.5,18.1-0.3,26.9l4.5,1.6 C416.7,133.6,417.4,129.9,417.8,126.2z" class="st14"/><path d="M389.8,158.1l-2.4-3.8c-3,1.8-6.2,3.2-9.6,4.1l1.1,4.4C382.8,161.7,386.4,160.2,389.8,158.1z" class="st14"/><path d="M330.5,126.4c-0.3-2.8-0.4-5.7-0.1-8.5c0.1-0.7,0.1-1.3,0.2-1.9l-4.5-0.8c-0.1,0.8-0.2,1.5-0.3,2.3 c-0.3,3.2-0.3,6.4,0.1,9.6L330.5,126.4z" class="st14"/><path d="M380.7,78c3.9,1.1,7.7,2.9,11.2,5l2.7-4c-3.9-2.5-8.2-4.4-12.6-5.7L380.7,78z" class="st14"/><path d="M361.3,171.3l0.5-4.8c-3.9-0.5-7.6-1.5-11.2-3l-2,4.4C352.5,169.6,356.9,170.7,361.3,171.3z" class="st14"/><path d="M337.8,151.9l3.1-3.3c-2.5-2.5-4.6-5.2-6.3-8.3l-4,2.1C332.6,145.9,335,149.1,337.8,151.9z" class="st14"/><path d="M396.8,80.6l-2.7,4c3.3,2.4,6.3,5.2,8.9,8.4l3.8-2.9C404,86.4,400.6,83.3,396.8,80.6z" class="st14"/><path d="M401.4,147c2.4-3.2,4.3-6.7,5.8-10.4l-4.3-1.5c-1.3,3.2-3,6.3-5,9.1L401.4,147z" class="st14"/><path d="M405,110.7l-4.3,1.4c1.2,4.1,1.6,8.4,1.2,12.6c-0.2,2.4-0.7,4.7-1.4,7l4.3,1.5c0.8-2.6,1.4-5.3,1.6-8.1 C406.8,120.3,406.3,115.4,405,110.7z" class="st15"/><path d="M362.3,159.8l0.4-4.5c-2.6-0.4-5.2-1.1-7.7-2.1l-1.9,4.1C356.1,158.6,359.2,159.4,362.3,159.8z" class="st15"/><path d="M393.3,112l4-1.4c-1-2.6-2.3-5-3.8-7.2l-3.4,2.6C391.4,107.8,392.5,109.8,393.3,112z" class="st15"/><path d="M368.9,90.1h-2.2l0.3,4.2c2.3-0.1,4.5,0.1,6.8,0.6l1.1-4.1c-1.3-0.3-2.7-0.5-4.1-0.6 C370.2,90.2,369.5,90.2,368.9,90.1z" class="st15"/><path d="M334.7,101.6l4,2.2c1.5-2.5,3.3-4.7,5.3-6.7l-3-3.4C338.5,96.1,336.4,98.7,334.7,101.6z" class="st15"/><path d="M377.9,88.9c2.7,0.8,5.4,2,7.8,3.5l2.5-3.8c-2.9-1.8-5.9-3.1-9.1-4.1L377.9,88.9z" class="st15"/><path d="M394.1,99.8l3.6-2.7c-2.1-2.6-4.6-4.9-7.3-6.9l-2.5,3.8C390.2,95.6,392.3,97.6,394.1,99.8z" class="st15"/><path d="M389.3,137.4l3.3,2.7c1.6-2.2,2.9-4.6,4-7.2l-4-1.4C391.7,133.6,390.6,135.6,389.3,137.4z" class="st15"/><path d="M345.4,147.4l-3.1,3.3c2.5,2.2,5.3,4.1,8.4,5.6l1.9-4.1C350,150.9,347.6,149.3,345.4,147.4z" class="st15"/><path d="M341.3,124.6c-0.2-1.9-0.2-3.9,0-5.8c0-0.3,0.1-0.7,0.1-1l-4.2-0.8c-0.1,0.5-0.1,0.9-0.2,1.4 c-0.2,2.3-0.2,4.6,0.1,6.8L341.3,124.6z" class="st15"/><path d="M334.3,128.2l-4.5,0.7c0.6,3.3,1.7,6.5,3.2,9.6l4-2.1C335.7,133.7,334.8,131,334.3,128.2z" class="st15"/><path d="M387.4,149.6l2.4,3.8c2.8-1.9,5.3-4.2,7.5-6.7l-3.5-2.8C391.9,146.1,389.7,148,387.4,149.6z" class="st15"/><path d="M337.3,106.2l-3.9-2.2c-1.5,3-2.7,6.2-3.4,9.5l4.5,0.8C335,111.4,336,108.7,337.3,106.2z" class="st15"/><path d="M375.3,147.7l1,4.1c2.6-0.8,5.2-1.8,7.5-3.2l-2.3-3.6C379.5,146.2,377.4,147.1,375.3,147.7z" class="st15"/><path d="M344.3,135.2l-3.8,2c1.4,2.4,3,4.6,5,6.5l2.9-3.1C346.8,138.9,345.4,137.1,344.3,135.2z" class="st15"/><path d="M366.6,155.7c-0.4,0-0.8,0-1.1-0.1l-0.4,4.5c3.5,0.3,7.1,0,10.6-0.7l-1-4.4 C371.9,155.6,369.2,155.8,366.6,155.7z" class="st15"/><path d="M342.9,91.9l3,3.3c2.2-1.8,4.6-3.4,7.2-4.6l-1.8-4.2C348.3,87.9,345.5,89.8,342.9,91.9z" class="st15"/><path d="M353.9,85.4l1.8,4.2c2.7-1,5.5-1.7,8.3-2l-0.3-4.5C360.3,83.4,357,84.2,353.9,85.4z" class="st15"/><path d="M365.3,171.6c4.3,0.1,8.5-0.2,12.7-1l-1-4.6c-3.6,0.8-7.3,1-11,0.9c-0.6,0-1-0.1-1.6-0.1l-0.4,4.8 C364.4,171.6,364.9,171.6,365.3,171.6L365.3,171.6z" class="st14"/></g></g></svg>