<?xml version="1.0" encoding="utf-8"?>
<!-- Generator: Adobe Illustrator 21.0.0, SVG Export Plug-In . SVG Version: 6.00 Build 0)  -->
<svg version="1.1" id="Layer_1" xmlns="http://www.w3.org/2000/svg" xmlns:xlink="http://www.w3.org/1999/xlink" x="0px" y="0px"
	 viewBox="0 0 490 490" style="enable-background:new 0 0 490 490;" xml:space="preserve">
<style type="text/css">
	.st0{opacity:0.68;}
	.st1{opacity:0;fill:#FFFFFF;}
	.st2{opacity:1.960800e-02;fill:#FCFCFF;}
	.st3{opacity:3.921600e-02;fill:#F8F9FF;}
	.st4{opacity:5.882400e-02;fill:#F5F6FF;}
	.st5{opacity:7.843100e-02;fill:#F2F4FF;}
	.st6{opacity:9.803900e-02;fill:#EEF1FF;}
	.st7{opacity:0.1176;fill:#EBEEFF;}
	.st8{opacity:0.1373;fill:#E7EBFF;}
	.st9{opacity:0.1569;fill:#E4E8FF;}
	.st10{opacity:0.1765;fill:#E1E5FF;}
	.st11{opacity:0.1961;fill:#DDE2FF;}
	.st12{opacity:0.2157;fill:#DAE0FF;}
	.st13{opacity:0.2353;fill:#D7DDFF;}
	.st14{opacity:0.2549;fill:#D3DAFF;}
	.st15{opacity:0.2745;fill:#D0D7FF;}
	.st16{opacity:0.2941;fill:#CCD4FF;}
	.st17{opacity:0.3137;fill:#C9D1FF;}
	.st18{opacity:0.3333;fill:#C6CEFF;}
	.st19{opacity:0.3529;fill:#C2CBFF;}
	.st20{opacity:0.3725;fill:#BFC9FF;}
	.st21{opacity:0.3922;fill:#BCC6FF;}
	.st22{opacity:0.4118;fill:#B8C3FF;}
	.st23{opacity:0.4314;fill:#B5C0FF;}
	.st24{opacity:0.451;fill:#B1BDFF;}
	.st25{opacity:0.4706;fill:#AEBAFF;}
	.st26{opacity:0.4902;fill:#ABB7FF;}
	.st27{opacity:0.5098;fill:#A7B5FE;}
	.st28{opacity:0.5294;fill:#A4B2FE;}
	.st29{opacity:0.549;fill:#A1AFFE;}
	.st30{opacity:0.5686;fill:#9DACFE;}
	.st31{opacity:0.5882;fill:#9AA9FE;}
	.st32{opacity:0.6078;fill:#96A6FE;}
	.st33{opacity:0.6275;fill:#93A3FE;}
	.st34{opacity:0.6471;fill:#90A1FE;}
	.st35{opacity:0.6667;fill:#8C9EFE;}
	.st36{opacity:0.6863;fill:#899BFE;}
	.st37{opacity:0.7059;fill:#8698FE;}
	.st38{opacity:0.7255;fill:#8295FE;}
	.st39{opacity:0.7451;fill:#7F92FE;}
	.st40{opacity:0.7647;fill:#7B8FFE;}
	.st41{opacity:0.7843;fill:#788CFE;}
	.st42{opacity:0.8039;fill:#758AFE;}
	.st43{opacity:0.8235;fill:#7187FE;}
	.st44{opacity:0.8431;fill:#6E84FE;}
	.st45{opacity:0.8627;fill:#6B81FE;}
	.st46{opacity:0.8824;fill:#677EFE;}
	.st47{opacity:0.902;fill:#647BFE;}
	.st48{opacity:0.9216;fill:#6078FE;}
	.st49{opacity:0.9412;fill:#5D76FE;}
	.st50{opacity:0.9608;fill:#5A73FE;}
	.st51{opacity:0.9804;fill:#5670FE;}
	.st52{fill:#536DFE;}
	.st53{fill:url(#XMLID_2_);}
	.st54{fill:url(#XMLID_3_);}
	.st55{fill:url(#XMLID_4_);}
	.st56{fill:url(#XMLID_5_);}
	.st57{fill:url(#XMLID_6_);}
	.st58{fill:url(#XMLID_7_);}
	.st59{fill:#48486A;}
	.st60{fill:#1D073F;}
	.st61{fill:url(#XMLID_9_);}
	.st62{clip-path:url(#XMLID_10_);fill:url(#XMLID_11_);}
	.st63{fill:none;stroke:url(#XMLID_19_);stroke-miterlimit:10;}
	.st64{opacity:0.8;fill:none;stroke:url(#XMLID_20_);stroke-miterlimit:10;}
	.st65{opacity:0.6;fill:none;stroke:url(#XMLID_21_);stroke-miterlimit:10;}
	.st66{opacity:0.4;fill:none;stroke:url(#XMLID_22_);stroke-miterlimit:10;}
	.st67{opacity:0.2;fill:none;stroke:url(#XMLID_23_);stroke-miterlimit:10;}
	.st68{opacity:0.15;fill:none;stroke:url(#XMLID_24_);stroke-miterlimit:10;}
	.st69{opacity:0.1;fill:none;stroke:url(#XMLID_25_);stroke-miterlimit:10;}
	.st70{fill:none;stroke:url(#SVGID_1_);stroke-width:2;stroke-linecap:round;stroke-linejoin:round;stroke-miterlimit:10;}
	.st71{fill:none;stroke:url(#SVGID_2_);stroke-width:2;stroke-linecap:round;stroke-linejoin:round;stroke-miterlimit:10;}
	.st72{fill:url(#SVGID_3_);}
	.st73{fill:url(#SVGID_4_);}
	.st74{fill:url(#SVGID_5_);}
	.st75{opacity:0.8;fill:url(#SVGID_6_);}
	.st76{opacity:0.1;}
	.st77{clip-path:url(#SVGID_9_);}
	.st78{fill:url(#SVGID_10_);}
	.st79{fill:url(#SVGID_11_);}
	.st80{fill:url(#SVGID_12_);}
	.st81{fill:#343434;}
	.st82{fill:#8C8C8C;}
	.st83{fill:#3C3C3B;}
	.st84{fill:#141414;}
	.st85{fill:#393939;}
	.st86{fill:url(#SVGID_13_);}
	.st87{fill:url(#SVGID_14_);}
	.st88{fill:url(#SVGID_15_);}
	.st89{fill:url(#SVGID_16_);}
	.st90{fill:url(#SVGID_17_);}
	.st91{fill:url(#SVGID_18_);}
	.st92{opacity:0.4;fill:#FFA744;}
	.st93{opacity:0.2;fill:#FFA744;}
	.st94{fill:#FFA744;}
	.st95{clip-path:url(#SVGID_20_);}
	.st96{fill:url(#SVGID_21_);}
	.st97{fill:url(#SVGID_22_);}
	.st98{fill:url(#SVGID_23_);}
	.st99{fill:url(#SVGID_24_);}
	.st100{fill:url(#SVGID_25_);}
	.st101{fill:url(#SVGID_26_);}
	.st102{fill:none;stroke:url(#SVGID_27_);stroke-width:2;stroke-linecap:round;stroke-linejoin:round;stroke-miterlimit:10;}
	.st103{fill:none;stroke:url(#SVGID_28_);stroke-width:2;stroke-linecap:round;stroke-linejoin:round;stroke-miterlimit:10;}
	.st104{fill:url(#XMLID_26_);}
	.st105{fill:url(#XMLID_27_);}
	.st106{fill:url(#XMLID_28_);}
	.st107{fill:url(#XMLID_29_);}
	.st108{fill:url(#XMLID_30_);}
	.st109{fill:url(#XMLID_31_);}
	.st110{fill:url(#XMLID_33_);}
	.st111{clip-path:url(#XMLID_34_);fill:url(#XMLID_35_);}
	.st112{fill:none;stroke:url(#XMLID_37_);stroke-miterlimit:10;}
	.st113{opacity:0.8;fill:none;stroke:url(#XMLID_41_);stroke-miterlimit:10;}
	.st114{opacity:0.6;fill:none;stroke:url(#XMLID_42_);stroke-miterlimit:10;}
	.st115{opacity:0.4;fill:none;stroke:url(#XMLID_43_);stroke-miterlimit:10;}
	.st116{opacity:0.2;fill:none;stroke:url(#XMLID_44_);stroke-miterlimit:10;}
	.st117{opacity:0.15;fill:none;stroke:url(#XMLID_63_);stroke-miterlimit:10;}
	.st118{opacity:0.1;fill:none;stroke:url(#XMLID_64_);stroke-miterlimit:10;}
	.st119{fill:url(#XMLID_65_);}
	.st120{fill:url(#XMLID_66_);}
	.st121{fill:url(#XMLID_70_);}
	.st122{fill:url(#XMLID_71_);}
	.st123{fill:url(#XMLID_72_);}
	.st124{fill:url(#XMLID_73_);}
	.st125{fill:url(#XMLID_75_);}
	.st126{clip-path:url(#XMLID_76_);fill:url(#XMLID_77_);}
	.st127{fill:none;stroke:url(#XMLID_79_);stroke-miterlimit:10;}
	.st128{opacity:0.8;fill:none;stroke:url(#XMLID_80_);stroke-miterlimit:10;}
	.st129{opacity:0.6;fill:none;stroke:url(#XMLID_81_);stroke-miterlimit:10;}
	.st130{opacity:0.4;fill:none;stroke:url(#XMLID_82_);stroke-miterlimit:10;}
	.st131{opacity:0.2;fill:none;stroke:url(#XMLID_83_);stroke-miterlimit:10;}
	.st132{opacity:0.15;fill:none;stroke:url(#XMLID_84_);stroke-miterlimit:10;}
	.st133{opacity:0.1;fill:none;stroke:url(#XMLID_85_);stroke-miterlimit:10;}
</style>
<g>
	<g>
		<g>
			<g id="XMLID_25834_">
				<g class="st0">
					<path id="XMLID_802_" class="st1" d="M74.8,105.9c-5.3-3.1-14-3.1-19.3,0L8.6,133c-5.3,3.1-5.3,8.1,0,11.2l46.8,27
						c5.3,3.1,14,3.1,19.3,0l46.8-27c5.3-3.1,5.3-8.1,0-11.2L74.8,105.9z"/>
					<path class="st2" d="M74.7,106.1c-5.3-3.1-14-3.1-19.2,0L8.8,133c-5.3,3.1-5.3,8.1,0,11.1L55.5,171c5.3,3.1,14,3.1,19.2,0
						l46.6-26.9c5.3-3.1,5.3-8.1,0-11.1L74.7,106.1z"/>
					<path class="st3" d="M74.7,106.3c-5.3-3-13.9-3-19.2,0L9.1,133c-5.3,3-5.3,8,0,11.1l46.4,26.8c5.3,3,13.9,3,19.2,0l46.4-26.8
						c5.3-3,5.3-8,0-11.1L74.7,106.3z"/>
					<path class="st4" d="M74.6,106.4c-5.2-3-13.8-3-19.1,0L9.4,133.1c-5.2,3-5.2,8,0,11l46.2,26.7c5.2,3,13.8,3,19.1,0l46.2-26.7
						c5.2-3,5.2-8,0-11L74.6,106.4z"/>
					<path class="st5" d="M74.6,106.6c-5.2-3-13.7-3-19,0L9.7,133.1c-5.2,3-5.2,7.9,0,10.9l45.9,26.5c5.2,3,13.7,3,19,0l45.9-26.5
						c5.2-3,5.2-7.9,0-10.9L74.6,106.6z"/>
					<path class="st6" d="M74.5,106.7c-5.2-3-13.7-3-18.9,0L9.9,133.1c-5.2,3-5.2,7.9,0,10.9l45.7,26.4c5.2,3,13.7,3,18.9,0
						l45.7-26.4c5.2-3,5.2-7.9,0-10.9L74.5,106.7z"/>
					<path class="st7" d="M74.5,106.9c-5.2-3-13.6-3-18.8,0l-45.5,26.3c-5.2,3-5.2,7.9,0,10.8l45.5,26.3c5.2,3,13.6,3,18.8,0
						L120,144c5.2-3,5.2-7.9,0-10.8L74.5,106.9z"/>
					<path class="st8" d="M74.4,107c-5.1-3-13.5-3-18.7,0l-45.3,26.1c-5.1,3-5.1,7.8,0,10.8l45.3,26.1c5.1,3,13.5,3,18.7,0
						l45.3-26.1c5.1-3,5.1-7.8,0-10.8L74.4,107z"/>
					<path class="st9" d="M74.4,107.2c-5.1-3-13.5-3-18.6,0l-45,26c-5.1,3-5.1,7.8,0,10.7l45,26c5.1,3,13.5,3,18.6,0l45-26
						c5.1-3,5.1-7.8,0-10.7L74.4,107.2z"/>
					<path class="st10" d="M74.3,107.4c-5.1-2.9-13.4-2.9-18.5,0L11,133.2c-5.1,2.9-5.1,7.7,0,10.7l44.8,25.9
						c5.1,2.9,13.4,2.9,18.5,0l44.8-25.9c5.1-2.9,5.1-7.7,0-10.7L74.3,107.4z"/>
					<path class="st11" d="M74.3,107.5c-5.1-2.9-13.3-2.9-18.4,0l-44.6,25.7c-5.1,2.9-5.1,7.7,0,10.6l44.6,25.7
						c5.1,2.9,13.3,2.9,18.4,0l44.6-25.7c5.1-2.9,5.1-7.7,0-10.6L74.3,107.5z"/>
					<path class="st12" d="M74.2,107.7c-5-2.9-13.3-2.9-18.3,0l-44.4,25.6c-5,2.9-5,7.7,0,10.6l44.4,25.6c5,2.9,13.3,2.9,18.3,0
						l44.4-25.6c5-2.9,5-7.7,0-10.6L74.2,107.7z"/>
					<path class="st13" d="M74.2,107.8c-5-2.9-13.2-2.9-18.2,0l-44.1,25.5c-5,2.9-5,7.6,0,10.5L56,169.3c5,2.9,13.2,2.9,18.2,0
						l44.1-25.5c5-2.9,5-7.6,0-10.5L74.2,107.8z"/>
					<path class="st14" d="M74.2,108c-5-2.9-13.1-2.9-18.1,0l-43.9,25.4c-5,2.9-5,7.6,0,10.5L56,169.2c5,2.9,13.1,2.9,18.1,0
						l43.9-25.4c5-2.9,5-7.6,0-10.5L74.2,108z"/>
					<path class="st15" d="M74.1,108.1c-5-2.9-13.1-2.9-18,0l-43.7,25.2c-5,2.9-5,7.6,0,10.4L56.1,169c5,2.9,13.1,2.9,18,0
						l43.7-25.2c5-2.9,5-7.5,0-10.4L74.1,108.1z"/>
					<path class="st16" d="M74.1,108.3c-4.9-2.8-13-2.8-17.9,0l-43.5,25.1c-4.9,2.8-4.9,7.5,0,10.4l43.5,25.1c4.9,2.8,13,2.8,17.9,0
						l43.5-25.1c4.9-2.8,4.9-7.5,0-10.4L74.1,108.3z"/>
					<path class="st17" d="M74,108.5c-4.9-2.8-12.9-2.8-17.9,0l-43.2,25c-4.9,2.8-4.9,7.5,0,10.3l43.2,25c4.9,2.8,12.9,2.8,17.9,0
						l43.2-25c4.9-2.8,4.9-7.5,0-10.3L74,108.5z"/>
					<path class="st18" d="M74,108.6c-4.9-2.8-12.9-2.8-17.8,0l-43,24.8c-4.9,2.8-4.9,7.4,0,10.3l43,24.8c4.9,2.8,12.9,2.8,17.8,0
						l43-24.8c4.9-2.8,4.9-7.4,0-10.3L74,108.6z"/>
					<path class="st19" d="M73.9,108.8c-4.9-2.8-12.8-2.8-17.7,0l-42.8,24.7c-4.9,2.8-4.9,7.4,0,10.2l42.8,24.7
						c4.9,2.8,12.8,2.8,17.7,0l42.8-24.7c4.9-2.8,4.9-7.4,0-10.2L73.9,108.8z"/>
					<path class="st20" d="M73.9,108.9c-4.8-2.8-12.7-2.8-17.6,0l-42.6,24.6c-4.8,2.8-4.8,7.4,0,10.1l42.6,24.6
						c4.8,2.8,12.7,2.8,17.6,0l42.6-24.6c4.8-2.8,4.8-7.4,0-10.1L73.9,108.9z"/>
					<path class="st21" d="M73.8,109.1c-4.8-2.8-12.7-2.8-17.5,0L14,133.5c-4.8,2.8-4.8,7.3,0,10.1l42.3,24.5
						c4.8,2.8,12.7,2.8,17.5,0l42.3-24.5c4.8-2.8,4.8-7.3,0-10.1L73.8,109.1z"/>
					<path class="st22" d="M73.8,109.2c-4.8-2.8-12.6-2.8-17.4,0l-42.1,24.3c-4.8,2.8-4.8,7.3,0,10l42.1,24.3
						c4.8,2.8,12.6,2.8,17.4,0l42.1-24.3c4.8-2.8,4.8-7.3,0-10L73.8,109.2z"/>
					<path class="st23" d="M73.7,109.4c-4.8-2.7-12.5-2.7-17.3,0l-41.9,24.2c-4.8,2.7-4.8,7.2,0,10l41.9,24.2
						c4.8,2.7,12.5,2.7,17.3,0l41.9-24.2c4.8-2.7,4.8-7.2,0-10L73.7,109.4z"/>
					<path class="st24" d="M73.7,109.5c-4.7-2.7-12.5-2.7-17.2,0l-41.7,24.1c-4.7,2.7-4.7,7.2,0,9.9l41.7,24.1
						c4.7,2.7,12.5,2.7,17.2,0l41.7-24.1c4.7-2.7,4.7-7.2,0-9.9L73.7,109.5z"/>
					<path class="st25" d="M73.6,109.7c-4.7-2.7-12.4-2.7-17.1,0l-41.5,23.9c-4.7,2.7-4.7,7.2,0,9.9l41.5,23.9
						c4.7,2.7,12.4,2.7,17.1,0l41.4-23.9c4.7-2.7,4.7-7.2,0-9.9L73.6,109.7z"/>
					<path class="st26" d="M73.6,109.9c-4.7-2.7-12.3-2.7-17,0l-41.2,23.8c-4.7,2.7-4.7,7.1,0,9.8l41.2,23.8c4.7,2.7,12.3,2.7,17,0
						l41.2-23.8c4.7-2.7,4.7-7.1,0-9.8L73.6,109.9z"/>
					<path class="st27" d="M73.5,110c-4.7-2.7-12.3-2.7-16.9,0l-41,23.7c-4.7,2.7-4.7,7.1,0,9.8l41,23.7c4.7,2.7,12.3,2.7,16.9,0
						l41-23.7c4.7-2.7,4.7-7.1,0-9.8L73.5,110z"/>
					<path class="st28" d="M73.5,110.2c-4.6-2.7-12.2-2.7-16.8,0l-40.8,23.5c-4.6,2.7-4.6,7,0,9.7L56.7,167c4.6,2.7,12.2,2.7,16.8,0
						l40.8-23.5c4.6-2.7,4.6-7,0-9.7L73.5,110.2z"/>
					<path class="st29" d="M73.5,110.3c-4.6-2.7-12.1-2.7-16.7,0l-40.6,23.4c-4.6,2.7-4.6,7,0,9.7l40.6,23.4
						c4.6,2.7,12.1,2.7,16.7,0l40.6-23.4c4.6-2.7,4.6-7,0-9.7L73.5,110.3z"/>
					<path class="st30" d="M73.4,110.5c-4.6-2.6-12.1-2.6-16.6,0l-40.3,23.3c-4.6,2.6-4.6,7,0,9.6l40.3,23.3
						c4.6,2.6,12.1,2.6,16.6,0l40.3-23.3c4.6-2.6,4.6-7,0-9.6L73.4,110.5z"/>
					<path class="st31" d="M73.4,110.6c-4.6-2.6-12-2.6-16.6,0l-40.1,23.2c-4.6,2.6-4.6,6.9,0,9.6l40.1,23.2c4.6,2.6,12,2.6,16.6,0
						l40.1-23.2c4.6-2.6,4.6-6.9,0-9.6L73.4,110.6z"/>
					<path class="st32" d="M73.3,110.8c-4.5-2.6-11.9-2.6-16.5,0l-39.9,23c-4.5,2.6-4.5,6.9,0,9.5l39.9,23c4.5,2.6,11.9,2.6,16.5,0
						l39.9-23c4.5-2.6,4.5-6.9,0-9.5L73.3,110.8z"/>
					<path class="st33" d="M73.3,111c-4.5-2.6-11.9-2.6-16.4,0l-39.7,22.9c-4.5,2.6-4.5,6.9,0,9.4l39.7,22.9
						c4.5,2.6,11.9,2.6,16.4,0l39.7-22.9c4.5-2.6,4.5-6.9,0-9.4L73.3,111z"/>
					<path class="st34" d="M73.2,111.1c-4.5-2.6-11.8-2.6-16.3,0l-39.4,22.8c-4.5,2.6-4.5,6.8,0,9.4L56.9,166
						c4.5,2.6,11.8,2.6,16.3,0l39.4-22.8c4.5-2.6,4.5-6.8,0-9.4L73.2,111.1z"/>
					<path class="st35" d="M73.2,111.3c-4.5-2.6-11.7-2.6-16.2,0l-39.2,22.6c-4.4,2.6-4.4,6.8,0,9.3L57,165.9
						c4.4,2.6,11.7,2.6,16.2,0l39.2-22.6c4.5-2.6,4.5-6.8,0-9.3L73.2,111.3z"/>
					<path class="st36" d="M73.1,111.4c-4.4-2.6-11.7-2.6-16.1,0l-39,22.5c-4.4,2.6-4.4,6.7,0,9.3l39,22.5c4.4,2.6,11.7,2.6,16.1,0
						l39-22.5c4.4-2.6,4.4-6.7,0-9.3L73.1,111.4z"/>
					<path class="st37" d="M73.1,111.6c-4.4-2.5-11.6-2.5-16,0L18.3,134c-4.4,2.5-4.4,6.7,0,9.2l38.8,22.4c4.4,2.5,11.6,2.5,16,0
						l38.8-22.4c4.4-2.5,4.4-6.7,0-9.2L73.1,111.6z"/>
					<path class="st38" d="M73,111.7c-4.4-2.5-11.5-2.5-15.9,0L18.6,134c-4.4,2.5-4.4,6.7,0,9.2l38.5,22.2c4.4,2.5,11.5,2.5,15.9,0
						l38.5-22.2c4.4-2.5,4.4-6.7,0-9.2L73,111.7z"/>
					<path class="st39" d="M73,111.9c-4.3-2.5-11.5-2.5-15.8,0L18.9,134c-4.3,2.5-4.3,6.6,0,9.1l38.3,22.1c4.3,2.5,11.5,2.5,15.8,0
						l38.3-22.1c4.3-2.5,4.3-6.6,0-9.1L73,111.9z"/>
					<path class="st40" d="M72.9,112.1c-4.3-2.5-11.4-2.5-15.7,0l-38.1,22c-4.3,2.5-4.3,6.6,0,9.1l38.1,22c4.3,2.5,11.4,2.5,15.7,0
						l38.1-22c4.3-2.5,4.3-6.6,0-9.1L72.9,112.1z"/>
					<path class="st41" d="M72.9,112.2c-4.3-2.5-11.3-2.5-15.6,0l-37.9,21.9c-4.3,2.5-4.3,6.5,0,9l37.9,21.9
						c4.3,2.5,11.3,2.5,15.6,0l37.9-21.9c4.3-2.5,4.3-6.5,0-9L72.9,112.2z"/>
					<path class="st42" d="M72.9,112.4c-4.3-2.5-11.3-2.5-15.5,0l-37.6,21.7c-4.3,2.5-4.3,6.5,0,9l37.6,21.7
						c4.3,2.5,11.3,2.5,15.5,0l37.6-21.7c4.3-2.5,4.3-6.5,0-9L72.9,112.4z"/>
					<path class="st43" d="M72.8,112.5c-4.2-2.5-11.2-2.5-15.4,0L20,134.1c-4.2,2.5-4.2,6.5,0,8.9l37.4,21.6
						c4.2,2.5,11.2,2.5,15.4,0l37.4-21.6c4.2-2.5,4.2-6.5,0-8.9L72.8,112.5z"/>
					<path class="st44" d="M72.8,112.7c-4.2-2.4-11.1-2.4-15.3,0l-37.2,21.5c-4.2,2.4-4.2,6.4,0,8.9l37.2,21.5
						c4.2,2.4,11.1,2.4,15.3,0l37.2-21.5c4.2-2.4,4.2-6.4,0-8.9L72.8,112.7z"/>
					<path class="st45" d="M72.7,112.8c-4.2-2.4-11.1-2.4-15.3,0l-37,21.3c-4.2,2.4-4.2,6.4,0,8.8l37,21.3c4.2,2.4,11.1,2.4,15.3,0
						l37-21.3c4.2-2.4,4.2-6.4,0-8.8L72.7,112.8z"/>
					<path class="st46" d="M72.7,113c-4.2-2.4-11-2.4-15.2,0l-36.7,21.2c-4.2,2.4-4.2,6.3,0,8.8l36.7,21.2c4.2,2.4,11,2.4,15.2,0
						l36.7-21.2c4.2-2.4,4.2-6.3,0-8.8L72.7,113z"/>
					<path class="st47" d="M72.6,113.1c-4.1-2.4-10.9-2.4-15.1,0L21,134.2c-4.1,2.4-4.1,6.3,0,8.7L57.6,164c4.1,2.4,10.9,2.4,15.1,0
						l36.5-21.1c4.1-2.4,4.1-6.3,0-8.7L72.6,113.1z"/>
					<path class="st48" d="M72.6,113.3c-4.1-2.4-10.9-2.4-15,0l-36.3,20.9c-4.1,2.4-4.1,6.3,0,8.6l36.3,20.9c4.1,2.4,10.9,2.4,15,0
						l36.3-20.9c4.1-2.4,4.1-6.3,0-8.6L72.6,113.3z"/>
					<path class="st49" d="M72.5,113.5c-4.1-2.4-10.8-2.4-14.9,0l-36.1,20.8c-4.1,2.4-4.1,6.2,0,8.6l36.1,20.8
						c4.1,2.4,10.8,2.4,14.9,0l36.1-20.8c4.1-2.4,4.1-6.2,0-8.6L72.5,113.5z"/>
					<path class="st50" d="M72.5,113.6c-4.1-2.3-10.7-2.3-14.8,0l-35.8,20.7c-4.1,2.3-4.1,6.2,0,8.5l35.8,20.7
						c4.1,2.3,10.7,2.3,14.8,0l35.8-20.7c4.1-2.3,4.1-6.2,0-8.5L72.5,113.6z"/>
					<path class="st51" d="M72.4,113.8c-4-2.3-10.7-2.3-14.7,0l-35.6,20.6c-4,2.3-4,6.2,0,8.5l35.6,20.6c4,2.3,10.7,2.3,14.7,0
						l35.6-20.6c4-2.3,4-6.2,0-8.5L72.4,113.8z"/>
					<path id="XMLID_801_" class="st52" d="M72.4,113.9c-4-2.3-10.6-2.3-14.6,0l-35.4,20.4c-4,2.3-4,6.1,0,8.4l35.4,20.4
						c4,2.3,10.6,2.3,14.6,0l35.4-20.4c4-2.3,4-6.1,0-8.4L72.4,113.9z"/>
				</g>
				<linearGradient id="XMLID_2_" gradientUnits="userSpaceOnUse" x1="10.3656" y1="137.1332" x2="120.1492" y2="137.1332">
					<stop  offset="0" style="stop-color:#B4ACBF"/>
					<stop  offset="0.5146" style="stop-color:#D1C8DE"/>
					<stop  offset="1" style="stop-color:#F0E5FF"/>
				</linearGradient>
				<path id="XMLID_25837_" class="st53" d="M63.1,105.5l-52.7,25v7.2c0,0.4,0.2,0.8,0.6,1l52.1,30.1c1.4,0.8,3,0.8,4.4,0l52-30.1
					c0.4-0.2,0.7-0.7,0.7-1.1v-7.1l-52.7-25C66.1,104.7,64.4,104.7,63.1,105.5z"/>
				<linearGradient id="XMLID_3_" gradientUnits="userSpaceOnUse" x1="10.3655" y1="130.4893" x2="120.1493" y2="130.4893">
					<stop  offset="0" style="stop-color:#F0E5FF"/>
					<stop  offset="1" style="stop-color:#FFFFFF"/>
				</linearGradient>
				<path id="XMLID_25835_" class="st54" d="M63.1,98.8l-51.6,29.8c-1.5,0.8-1.5,2.9,0,3.8l51.6,29.8c1.4,0.8,3,0.8,4.4,0l51.6-29.8
					c1.5-0.8,1.5-2.9,0-3.8L67.5,98.8C66.1,98,64.4,98,63.1,98.8z"/>
			</g>
			<g>
				<linearGradient id="XMLID_4_" gradientUnits="userSpaceOnUse" x1="25.8096" y1="129.4742" x2="104.1143" y2="129.4742">
					<stop  offset="0" style="stop-color:#F0E5FF"/>
					<stop  offset="1" style="stop-color:#FFFFFF"/>
				</linearGradient>
				<path id="XMLID_25833_" class="st55" d="M63.4,106.9l-36.8,21.2c-1,0.6-1,2.1,0,2.7l36.8,21.2c1,0.6,2.2,0.6,3.1,0l36.8-21.2
					c1-0.6,1-2.1,0-2.7l-36.8-21.2C65.6,106.3,64.4,106.3,63.4,106.9z"/>
				<linearGradient id="XMLID_5_" gradientUnits="userSpaceOnUse" x1="25.8171" y1="140.5496" x2="104.1069" y2="140.5496">
					<stop  offset="0" style="stop-color:#B4ACBF"/>
					<stop  offset="0.5146" style="stop-color:#D1C8DE"/>
					<stop  offset="1" style="stop-color:#F0E5FF"/>
				</linearGradient>
				<path id="XMLID_25832_" class="st56" d="M103.3,129.1l-36.8,21.2c-1,0.6-2.2,0.6-3.1,0l-36.8-21.2c-0.2-0.1-0.4-0.3-0.5-0.5
					c-0.5,0.7-0.3,1.7,0.5,2.2l36.8,21.2c1,0.6,2.2,0.6,3.1,0l36.8-21.2c0.8-0.5,1-1.5,0.5-2.2C103.7,128.8,103.6,129,103.3,129.1z"
					/>
				<linearGradient id="XMLID_6_" gradientUnits="userSpaceOnUse" x1="34.144" y1="127.6924" x2="96.028" y2="127.6924">
					<stop  offset="0" style="stop-color:#2F1359"/>
					<stop  offset="1" style="stop-color:#491E8C"/>
				</linearGradient>
				<path id="XMLID_25831_" class="st57" d="M63.8,109.8l-29.1,16.8c-0.8,0.5-0.8,1.7,0,2.1l29.1,16.8c0.8,0.4,1.7,0.4,2.5,0
					l29.1-16.8c0.8-0.5,0.8-1.7,0-2.1l-29.1-16.8C65.6,109.4,64.6,109.4,63.8,109.8z"/>
				<linearGradient id="XMLID_7_" gradientUnits="userSpaceOnUse" x1="40.7038" y1="127.6924" x2="89.4682" y2="127.6924">
					<stop  offset="0.1499" style="stop-color:#FF9800"/>
					<stop  offset="1" style="stop-color:#FFC107"/>
				</linearGradient>
				<path id="XMLID_25830_" class="st58" d="M64.1,113.6l-22.9,13.2c-0.6,0.4-0.6,1.3,0,1.7l22.9,13.2c0.6,0.3,1.4,0.3,2,0L89,128.5
					c0.6-0.4,0.6-1.3,0-1.7l-22.9-13.2C65.5,113.3,64.7,113.3,64.1,113.6z"/>
				<path id="XMLID_25829_" class="st59" d="M41.2,127.4l22.9-13.2c0.6-0.3,1.4-0.3,2,0L89,127.4c0.2,0.1,0.4,0.3,0.4,0.6
					c0.1-0.4,0-0.9-0.4-1.1l-22.9-13.2c-0.6-0.3-1.4-0.3-2,0l-22.9,13.2c-0.4,0.2-0.6,0.7-0.4,1.1C40.8,127.7,41,127.5,41.2,127.4z"
					/>
				<path id="XMLID_25828_" class="st60" d="M95.4,127.9l-29.1,16.8c-0.8,0.4-1.7,0.4-2.5,0l-29.1-16.8c-0.3-0.2-0.4-0.4-0.5-0.6
					c-0.2,0.5,0,1.2,0.5,1.5l29.1,16.8c0.8,0.4,1.7,0.4,2.5,0l29.1-16.8c0.6-0.3,0.7-1,0.5-1.5C95.9,127.5,95.7,127.8,95.4,127.9z"
					/>
				<g id="XMLID_18335_">
					<g>
						<g>
							<defs>
								<path id="XMLID_62_" d="M64.1,113.6l-22.9,13.2c-0.6,0.4-0.6,1.3,0,1.7l22.9,13.2c0.6,0.3,1.4,0.3,2,0L89,128.5
									c0.6-0.4,0.6-1.3,0-1.7l-22.9-13.2C65.5,113.3,64.7,113.3,64.1,113.6z"/>
							</defs>
							<clipPath id="XMLID_8_">
								<use xlink:href="#XMLID_62_"  style="overflow:visible;"/>
							</clipPath>
						</g>
					</g>
					<g>
						<path id="XMLID_61_" class="st60" d="M64.1,113.6l-22.9,13.2c-0.6,0.4-0.6,1.3,0,1.7l22.9,13.2c0.6,0.3,1.4,0.3,2,0L89,128.5
							c0.6-0.4,0.6-1.3,0-1.7l-22.9-13.2C65.5,113.3,64.7,113.3,64.1,113.6z"/>
						<g id="XMLID_59_">
							<g>
								<linearGradient id="XMLID_9_" gradientUnits="userSpaceOnUse" x1="65.086" y1="142.0255" x2="65.086" y2="54.3582">
									<stop  offset="0" style="stop-color:#C2A3FF;stop-opacity:0.7"/>
									<stop  offset="8.197117e-02" style="stop-color:#CBAFFF;stop-opacity:0.6426"/>
									<stop  offset="0.2782" style="stop-color:#DBC7FF;stop-opacity:0.5053"/>
									<stop  offset="0.4872" style="stop-color:#E7D8FF;stop-opacity:0.359"/>
									<stop  offset="0.7156" style="stop-color:#EEE2FF;stop-opacity:0.1991"/>
									<stop  offset="1" style="stop-color:#F0E5FF;stop-opacity:0"/>
								</linearGradient>
								<path id="XMLID_60_" class="st61" d="M40.7,54.4c0,0,0,73,0,73.3c0,0.3,0.2,0.7,0.5,0.8l22.9,13.2c0.6,0.3,1.4,0.3,2,0
									L89,128.5c0.3-0.2,0.5-0.5,0.5-0.8c0-0.3,0-73.3,0-73.3H40.7z"/>
							</g>
						</g>
						<g>
							<defs>
								<path id="XMLID_57_" d="M64.1,113.6l-22.9,13.2c-0.6,0.4-0.6,1.3,0,1.7l22.9,13.2c0.6,0.3,1.4,0.3,2,0L89,128.5
									c0.6-0.4,0.6-1.3,0-1.7l-22.9-13.2C65.5,113.3,64.7,113.3,64.1,113.6z"/>
							</defs>
							<clipPath id="XMLID_10_">
								<use xlink:href="#XMLID_57_"  style="overflow:visible;"/>
							</clipPath>
							<radialGradient id="XMLID_11_" cx="65.086" cy="128.6499" r="19.9991" gradientUnits="userSpaceOnUse">
								<stop  offset="0" style="stop-color:#FFFFFF"/>
								<stop  offset="1" style="stop-color:#C2A3FF"/>
							</radialGradient>
							<path id="XMLID_58_" class="st62" d="M64.1,114.6l-22.9,13.2c-0.6,0.4-0.6,1.3,0,1.7l22.9,13.2c0.6,0.3,1.4,0.3,2,0L89,129.5
								c0.6-0.4,0.6-1.3,0-1.7l-22.9-13.2C65.5,114.2,64.7,114.2,64.1,114.6z"/>
						</g>
					</g>
					<g>
						<g>
							<defs>
								<path id="XMLID_40_" d="M64.1,113.6l-22.9,13.2c-0.6,0.4-0.6,1.3,0,1.7l22.9,13.2c0.6,0.3,1.4,0.3,2,0L89,128.5
									c0.6-0.4,0.6-1.3,0-1.7l-22.9-13.2C65.5,113.3,64.7,113.3,64.1,113.6z"/>
							</defs>
							<clipPath id="XMLID_15_">
								<use xlink:href="#XMLID_40_"  style="overflow:visible;"/>
							</clipPath>
						</g>
					</g>
				</g>
				<g>
					<linearGradient id="XMLID_19_" gradientUnits="userSpaceOnUse" x1="65.086" y1="132.9506" x2="65.086" y2="116.8461">
						<stop  offset="0" style="stop-color:#FFFFFF;stop-opacity:0.7"/>
						<stop  offset="1" style="stop-color:#F0E5FF;stop-opacity:0"/>
					</linearGradient>
					<path id="XMLID_18334_" class="st63" d="M41.2,117.3c-0.6,0.4-0.6,1.3,0,1.7l22.9,13.2c0.6,0.3,1.4,0.3,2,0L89,119
						c0.6-0.4,0.6-1.3,0-1.7"/>
					<linearGradient id="XMLID_20_" gradientUnits="userSpaceOnUse" x1="65.086" y1="123.3757" x2="65.086" y2="107.2712">
						<stop  offset="0" style="stop-color:#FFFFFF;stop-opacity:0.7"/>
						<stop  offset="1" style="stop-color:#F0E5FF;stop-opacity:0"/>
					</linearGradient>
					<path id="XMLID_18333_" class="st64" d="M41.2,107.7c-0.6,0.4-0.6,1.3,0,1.7l22.9,13.2c0.6,0.3,1.4,0.3,2,0L89,109.4
						c0.6-0.4,0.6-1.3,0-1.7"/>
					<linearGradient id="XMLID_21_" gradientUnits="userSpaceOnUse" x1="65.086" y1="113.8008" x2="65.086" y2="97.6963">
						<stop  offset="0" style="stop-color:#FFFFFF;stop-opacity:0.7"/>
						<stop  offset="1" style="stop-color:#F0E5FF;stop-opacity:0"/>
					</linearGradient>
					<path id="XMLID_18332_" class="st65" d="M41.2,98.1c-0.6,0.4-0.6,1.3,0,1.7L64.1,113c0.6,0.3,1.4,0.3,2,0L89,99.8
						c0.6-0.4,0.6-1.3,0-1.7"/>
					<linearGradient id="XMLID_22_" gradientUnits="userSpaceOnUse" x1="65.086" y1="104.2259" x2="65.086" y2="88.1214">
						<stop  offset="0" style="stop-color:#FFFFFF;stop-opacity:0.7"/>
						<stop  offset="1" style="stop-color:#F0E5FF;stop-opacity:0"/>
					</linearGradient>
					<path id="XMLID_18331_" class="st66" d="M41.2,88.6c-0.6,0.4-0.6,1.3,0,1.7l22.9,13.2c0.6,0.3,1.4,0.3,2,0L89,90.2
						c0.6-0.4,0.6-1.3,0-1.7"/>
					<linearGradient id="XMLID_23_" gradientUnits="userSpaceOnUse" x1="65.086" y1="94.651" x2="65.086" y2="78.5465">
						<stop  offset="0" style="stop-color:#FFFFFF;stop-opacity:0.7"/>
						<stop  offset="1" style="stop-color:#F0E5FF;stop-opacity:0"/>
					</linearGradient>
					<path id="XMLID_18330_" class="st67" d="M41.2,79c-0.6,0.4-0.6,1.3,0,1.7l22.9,13.2c0.6,0.3,1.4,0.3,2,0L89,80.7
						c0.6-0.4,0.6-1.3,0-1.7"/>
					<linearGradient id="XMLID_24_" gradientUnits="userSpaceOnUse" x1="65.086" y1="85.0761" x2="65.086" y2="68.9716">
						<stop  offset="0" style="stop-color:#FFFFFF;stop-opacity:0.7"/>
						<stop  offset="1" style="stop-color:#F0E5FF;stop-opacity:0"/>
					</linearGradient>
					<path id="XMLID_18201_" class="st68" d="M41.2,69.4c-0.6,0.4-0.6,1.3,0,1.7l22.9,13.2c0.6,0.3,1.4,0.3,2,0L89,71.1
						c0.6-0.4,0.6-1.3,0-1.7"/>
					<linearGradient id="XMLID_25_" gradientUnits="userSpaceOnUse" x1="65.086" y1="75.5012" x2="65.086" y2="59.3967">
						<stop  offset="0" style="stop-color:#FFFFFF;stop-opacity:0.7"/>
						<stop  offset="1" style="stop-color:#F0E5FF;stop-opacity:0"/>
					</linearGradient>
					<path id="XMLID_18196_" class="st69" d="M41.2,59.8c-0.6,0.4-0.6,1.3,0,1.7l22.9,13.2c0.6,0.3,1.4,0.3,2,0L89,61.5
						c0.6-0.4,0.6-1.3,0-1.7"/>
				</g>
			</g>
		</g>
		<linearGradient id="SVGID_1_" gradientUnits="userSpaceOnUse" x1="-2.537433e-04" y1="196.2225" x2="117.5624" y2="196.2225">
			<stop  offset="0" style="stop-color:#CC8636"/>
			<stop  offset="0.1464" style="stop-color:#DA8F3A"/>
			<stop  offset="0.4294" style="stop-color:#EE9C3F"/>
			<stop  offset="0.709" style="stop-color:#FBA443"/>
			<stop  offset="0.9788" style="stop-color:#FFA744"/>
		</linearGradient>
		<path class="st70" d="M116.6,242.2L1,175.5l31.7-18.3c2.8-1.6,1.3-5.7,3.4-7"/>
		<g class="st0">
			<path id="XMLID_26194_" class="st1" d="M278,130.7c13.2-7.6,34.9-7.6,48.1,0l116.5,67.2c13.2,7.6,13.2,20.1,0,27.8L180.3,376.8
				c-13.2,7.6-34.9,7.6-48.1,0L15.8,309.5c-13.2-7.6-13.2-20.1,0-27.8L278,130.7z"/>
			<path class="st2" d="M278.1,131.1c13.2-7.6,34.7-7.6,47.8,0L441.8,198c13.2,7.6,13.2,20,0,27.6L180.2,376.4
				c-13.2,7.6-34.7,7.6-47.8,0L16.5,309.5c-13.2-7.6-13.2-20,0-27.6L278.1,131.1z"/>
			<path class="st3" d="M278.2,131.5c13.1-7.6,34.5-7.6,47.6,0l115.3,66.6c13.1,7.6,13.1,19.9,0,27.5L180.1,376
				c-13.1,7.6-34.5,7.6-47.6,0L17.1,309.4c-13.1-7.6-13.1-19.9,0-27.5L278.2,131.5z"/>
			<path class="st4" d="M278.3,131.9c13-7.5,34.3-7.5,47.4,0l114.8,66.3c13,7.5,13,19.8,0,27.4L180,375.6c-13,7.5-34.3,7.5-47.4,0
				L17.8,309.3c-13-7.5-13-19.8,0-27.4L278.3,131.9z"/>
			<path class="st5" d="M278.5,132.2c13-7.5,34.2-7.5,47.1,0l114.2,65.9c13,7.5,13,19.7,0,27.2l-260,149.8c-13,7.5-34.2,7.5-47.1,0
				L18.5,309.3c-13-7.5-13-19.7,0-27.2L278.5,132.2z"/>
			<path class="st6" d="M278.6,132.6c12.9-7.4,34-7.4,46.9,0l113.7,65.6c12.9,7.4,12.9,19.6,0,27.1L179.7,374.8
				c-12.9,7.4-34,7.4-46.9,0L19.2,309.2c-12.9-7.4-12.9-19.6,0-27.1L278.6,132.6z"/>
			<path class="st7" d="M278.7,133c12.8-7.4,33.8-7.4,46.7,0l113.1,65.3c12.8,7.4,12.8,19.5,0,27L179.6,374.4
				c-12.8,7.4-33.8,7.4-46.7,0L19.8,309.1c-12.8-7.4-12.8-19.5,0-27L278.7,133z"/>
			<path class="st8" d="M278.8,133.4c12.8-7.4,33.7-7.4,46.5,0l112.5,65c12.8,7.4,12.8,19.4,0,26.8L179.5,374.1
				c-12.8,7.4-33.7,7.4-46.5,0l-112.5-65c-12.8-7.4-12.8-19.4,0-26.8L278.8,133.4z"/>
			<path class="st9" d="M278.9,133.8c12.7-7.3,33.5-7.3,46.2,0l112,64.7c12.7,7.3,12.7,19.3,0,26.7L179.4,373.7
				c-12.7,7.3-33.5,7.3-46.2,0L21.2,309c-12.7-7.3-12.7-19.3,0-26.7L278.9,133.8z"/>
			<path class="st10" d="M279,134.2c12.6-7.3,33.3-7.3,46,0l111.4,64.3c12.6,7.3,12.6,19.3,0,26.6L179.3,373.3
				c-12.6,7.3-33.3,7.3-46,0L21.9,308.9c-12.6-7.3-12.6-19.3,0-26.6L279,134.2z"/>
			<path class="st11" d="M279.1,134.6c12.6-7.3,33.2-7.3,45.8,0l110.9,64c12.6,7.3,12.6,19.2,0,26.4L179.2,372.9
				c-12.6,7.3-33.2,7.3-45.8,0l-110.9-64c-12.6-7.3-12.6-19.2,0-26.4L279.1,134.6z"/>
			<path class="st12" d="M279.3,135c12.5-7.2,33-7.2,45.5,0l110.3,63.7c12.5,7.2,12.5,19.1,0,26.3L179,372.5
				c-12.5,7.2-33,7.2-45.5,0L23.2,308.8c-12.5-7.2-12.5-19.1,0-26.3L279.3,135z"/>
			<path class="st13" d="M279.4,135.4c12.5-7.2,32.8-7.2,45.3,0l109.7,63.4c12.5,7.2,12.5,19,0,26.2L178.9,372.1
				c-12.5,7.2-32.8,7.2-45.3,0L23.9,308.7c-12.5-7.2-12.5-19,0-26.2L279.4,135.4z"/>
			<path class="st14" d="M279.5,135.7c12.4-7.2,32.7-7.2,45.1,0l109.2,63c12.4,7.2,12.4,18.9,0,26L178.8,371.7
				c-12.4,7.2-32.7,7.2-45.1,0l-109.2-63c-12.4-7.2-12.4-18.9,0-26L279.5,135.7z"/>
			<path class="st15" d="M279.6,136.1c12.3-7.1,32.5-7.1,44.8,0l108.6,62.7c12.3,7.1,12.3,18.8,0,25.9L178.7,371.3
				c-12.3,7.1-32.5,7.1-44.8,0L25.2,308.6c-12.3-7.1-12.3-18.8,0-25.9L279.6,136.1z"/>
			<path class="st16" d="M279.7,136.5c12.3-7.1,32.3-7.1,44.6,0l108.1,62.4c12.3,7.1,12.3,18.7,0,25.8L178.6,370.9
				c-12.3,7.1-32.3,7.1-44.6,0L25.9,308.5c-12.3-7.1-12.3-18.7,0-25.8L279.7,136.5z"/>
			<path class="st17" d="M279.8,136.9c12.2-7,32.2-7,44.4,0L431.7,199c12.2,7,12.2,18.6,0,25.6L178.5,370.6c-12.2,7-32.2,7-44.4,0
				L26.6,308.5c-12.2-7-12.2-18.6,0-25.6L279.8,136.9z"/>
			<path class="st18" d="M280,137.3c12.1-7,32-7,44.1,0l107,61.8c12.1,7,12.1,18.5,0,25.5L178.3,370.2c-12.1,7-32,7-44.1,0
				l-107-61.8c-12.1-7-12.1-18.5,0-25.5L280,137.3z"/>
			<path class="st19" d="M280.1,137.7c12.1-7,31.8-7,43.9,0l106.4,61.4c12.1,7,12.1,18.4,0,25.4L178.2,369.8c-12.1,7-31.8,7-43.9,0
				L27.9,308.3c-12.1-7-12.1-18.4,0-25.4L280.1,137.7z"/>
			<path class="st20" d="M280.2,138.1c12-6.9,31.7-6.9,43.7,0l105.8,61.1c12,6.9,12,18.3,0,25.2l-251.6,145c-12,6.9-31.7,6.9-43.7,0
				L28.6,308.3c-12-6.9-12-18.3,0-25.2L280.2,138.1z"/>
			<path class="st21" d="M280.3,138.5c12-6.9,31.5-6.9,43.5,0L429,199.3c11.9,6.9,11.9,18.2,0,25.1L178,369c-12,6.9-31.5,6.9-43.5,0
				L29.3,308.2c-12-6.9-12-18.2,0-25.1L280.3,138.5z"/>
			<path class="st22" d="M280.4,138.9c11.9-6.9,31.3-6.9,43.2,0l104.7,60.5c11.9,6.9,11.9,18.1,0,25L177.9,368.6
				c-11.9,6.9-31.3,6.9-43.2,0L29.9,308.1c-11.9-6.9-11.9-18.1,0-25L280.4,138.9z"/>
			<path class="st23" d="M280.5,139.2c11.8-6.8,31.2-6.8,43,0l104.2,60.1c11.8,6.8,11.8,18,0,24.8l-249.9,144
				c-11.8,6.8-31.2,6.8-43,0L30.6,308.1c-11.8-6.8-11.8-18,0-24.8L280.5,139.2z"/>
			<path class="st24" d="M280.6,139.6c11.8-6.8,31-6.8,42.8,0L427,199.5c11.8,6.8,11.8,17.9,0,24.7L177.7,367.8
				c-11.8,6.8-31,6.8-42.8,0L31.3,308c-11.8-6.8-11.8-17.9,0-24.7L280.6,139.6z"/>
			<path class="st25" d="M280.8,140c11.7-6.8,30.8-6.8,42.5,0l103,59.5c11.7,6.8,11.7,17.8,0,24.6L177.5,367.4
				c-11.7,6.8-30.8,6.8-42.5,0L32,307.9c-11.7-6.8-11.7-17.8,0-24.6L280.8,140z"/>
			<path class="st26" d="M280.9,140.4c11.6-6.7,30.7-6.7,42.3,0l102.5,59.2c11.6,6.7,11.6,17.7,0,24.4l-248.2,143
				c-11.6,6.7-30.7,6.7-42.3,0L32.6,307.9c-11.6-6.7-11.6-17.7,0-24.4L280.9,140.4z"/>
			<path class="st27" d="M281,140.8c11.6-6.7,30.5-6.7,42.1,0L425,199.7c11.6,6.7,11.6,17.6,0,24.3L177.3,366.7
				c-11.6,6.7-30.5,6.7-42.1,0L33.3,307.8c-11.6-6.7-11.6-17.6,0-24.3L281,140.8z"/>
			<path class="st28" d="M281.1,141.2c11.5-6.6,30.3-6.6,41.8,0l101.4,58.5c11.5,6.6,11.5,17.5,0,24.2L177.2,366.3
				c-11.5,6.6-30.3,6.6-41.8,0L34,307.7c-11.5-6.6-11.5-17.5,0-24.2L281.1,141.2z"/>
			<path class="st29" d="M281.2,141.6c11.4-6.6,30.2-6.6,41.6,0l100.8,58.2c11.4,6.6,11.4,17.4,0,24L177.1,365.9
				c-11.4,6.6-30.2,6.6-41.6,0L34.7,307.7c-11.4-6.6-11.4-17.4,0-24L281.2,141.6z"/>
			<path class="st30" d="M281.3,142c11.4-6.6,30-6.6,41.4,0L423,199.9c11.4,6.6,11.4,17.3,0,23.9L177,365.5c-11.4,6.6-30,6.6-41.4,0
				L35.3,307.6c-11.4-6.6-11.4-17.3,0-23.9L281.3,142z"/>
			<path class="st31" d="M281.5,142.4c11.3-6.5,29.8-6.5,41.2,0l99.7,57.6c11.3,6.5,11.3,17.2,0,23.8L176.8,365.1
				c-11.3,6.5-29.8,6.5-41.2,0L36,307.5c-11.3-6.5-11.3-17.2,0-23.8L281.5,142.4z"/>
			<path class="st32" d="M281.6,142.7c11.3-6.5,29.7-6.5,40.9,0l99.1,57.2c11.3,6.5,11.3,17.1,0,23.6L176.7,364.7
				c-11.3,6.5-29.7,6.5-40.9,0l-99.1-57.2c-11.3-6.5-11.3-17.1,0-23.6L281.6,142.7z"/>
			<path class="st33" d="M281.7,143.1c11.2-6.5,29.5-6.5,40.7,0l98.6,56.9c11.2,6.5,11.2,17,0,23.5L176.6,364.3
				c-11.2,6.5-29.5,6.5-40.7,0l-98.6-56.9c-11.2-6.5-11.2-17,0-23.5L281.7,143.1z"/>
			<path class="st34" d="M281.8,143.5c11.1-6.4,29.3-6.4,40.5,0l98,56.6c11.1,6.4,11.1,16.9,0,23.4L176.5,363.9
				c-11.1,6.4-29.3,6.4-40.5,0l-98-56.6c-11.1-6.4-11.1-16.9,0-23.4L281.8,143.5z"/>
			<path class="st35" d="M281.9,143.9c11.1-6.4,29.2-6.4,40.2,0l97.5,56.3c11.1,6.4,11.1,16.8,0,23.2L176.4,363.5
				c-11.1,6.4-29.2,6.4-40.2,0l-97.5-56.3c-11.1-6.4-11.1-16.8,0-23.2L281.9,143.9z"/>
			<path class="st36" d="M282,144.3c11-6.3,29-6.3,40,0l96.9,55.9c11,6.4,11,16.7,0,23.1L176.3,363.2c-11,6.3-29,6.3-40,0
				l-96.9-55.9c-11-6.3-11-16.7,0-23.1L282,144.3z"/>
			<path class="st37" d="M282.1,144.7c10.9-6.3,28.8-6.3,39.8,0l96.3,55.6c10.9,6.3,10.9,16.6,0,23L176.2,362.8
				c-10.9,6.3-28.8,6.3-39.8,0l-96.3-55.6c-10.9-6.3-10.9-16.6,0-23L282.1,144.7z"/>
			<path class="st38" d="M282.3,145.1c10.9-6.3,28.7-6.3,39.5,0l95.8,55.3c10.9,6.3,10.9,16.5,0,22.8L176,362.4
				c-10.9,6.3-28.7,6.3-39.5,0l-95.8-55.3c-10.9-6.3-10.9-16.5,0-22.8L282.3,145.1z"/>
			<path class="st39" d="M282.4,145.5c10.8-6.2,28.5-6.2,39.3,0l95.2,55c10.8,6.2,10.8,16.5,0,22.7L175.9,362
				c-10.8,6.2-28.5,6.2-39.3,0l-95.2-55c-10.8-6.2-10.8-16.5,0-22.7L282.4,145.5z"/>
			<path class="st40" d="M282.5,145.9c10.7-6.2,28.3-6.2,39.1,0l94.7,54.7c10.7,6.2,10.7,16.4,0,22.6L175.8,361.6
				c-10.7,6.2-28.3,6.2-39.1,0l-94.7-54.7c-10.7-6.2-10.7-16.4,0-22.6L282.5,145.9z"/>
			<path class="st41" d="M282.6,146.3c10.7-6.2,28.2-6.2,38.8,0l94.1,54.3c10.7,6.2,10.7,16.3,0,22.4L175.7,361.2
				c-10.7,6.2-28.2,6.2-38.8,0l-94.1-54.3c-10.7-6.2-10.7-16.3,0-22.4L282.6,146.3z"/>
			<path class="st42" d="M282.7,146.6c10.6-6.1,28-6.1,38.6,0l93.5,54c10.6,6.1,10.6,16.2,0,22.3L175.6,360.8
				c-10.6,6.1-28,6.1-38.6,0l-93.5-54c-10.6-6.1-10.6-16.2,0-22.3L282.7,146.6z"/>
			<path class="st43" d="M282.8,147c10.6-6.1,27.8-6.1,38.4,0l93,53.7c10.6,6.1,10.6,16.1,0,22.2L175.5,360.4
				c-10.6,6.1-27.8,6.1-38.4,0l-93-53.7c-10.6-6.1-10.6-16.1,0-22.2L282.8,147z"/>
			<path class="st44" d="M283,147.4c10.5-6.1,27.7-6.1,38.2,0l92.4,53.4c10.5,6.1,10.5,16,0,22L175.3,360c-10.5,6.1-27.7,6.1-38.2,0
				l-92.4-53.4c-10.5-6.1-10.5-16,0-22L283,147.4z"/>
			<path class="st45" d="M283.1,147.8c10.4-6,27.5-6,37.9,0l91.9,53c10.4,6,10.4,15.9,0,21.9L175.2,359.7c-10.4,6-27.5,6-37.9,0
				l-91.9-53c-10.4-6-10.4-15.9,0-21.9L283.1,147.8z"/>
			<path class="st46" d="M283.2,148.2c10.4-6,27.3-6,37.7,0l91.3,52.7c10.4,6,10.4,15.8,0,21.8L175.1,359.3c-10.4,6-27.3,6-37.7,0
				l-91.3-52.7c-10.4-6-10.4-15.8,0-21.8L283.2,148.2z"/>
			<path class="st47" d="M283.3,148.6c10.3-5.9,27.2-5.9,37.5,0l90.8,52.4c10.3,5.9,10.3,15.7,0,21.6L175,358.9
				c-10.3,5.9-27.2,5.9-37.5,0l-90.8-52.4c-10.3-5.9-10.3-15.7,0-21.6L283.3,148.6z"/>
			<path class="st48" d="M283.4,149c10.2-5.9,27-5.9,37.2,0l90.2,52.1c10.2,5.9,10.2,15.6,0,21.5l-236,135.9
				c-10.2,5.9-27,5.9-37.2,0l-90.2-52.1c-10.2-5.9-10.2-15.6,0-21.5L283.4,149z"/>
			<path class="st49" d="M283.5,149.4c10.2-5.9,26.8-5.9,37,0l89.6,51.8c10.2,5.9,10.2,15.5,0,21.4L174.8,358.1
				c-10.2,5.9-26.8,5.9-37,0l-89.6-51.8c-10.2-5.9-10.2-15.5,0-21.4L283.5,149.4z"/>
			<path class="st50" d="M283.6,149.8c10.1-5.8,26.7-5.8,36.8,0l89.1,51.4c10.1,5.8,10.1,15.4,0,21.2L174.7,357.7
				c-10.1,5.8-26.7,5.8-36.8,0l-89.1-51.4c-10.1-5.8-10.1-15.4,0-21.2L283.6,149.8z"/>
			<path class="st51" d="M283.8,150.1c10-5.8,26.5-5.8,36.5,0l88.5,51.1c10,5.8,10,15.3,0,21.1l-234.3,135c-10,5.8-26.5,5.8-36.5,0
				l-88.5-51.1c-10-5.8-10-15.3,0-21.1L283.8,150.1z"/>
			<path id="XMLID_26193_" class="st52" d="M283.9,150.5c10-5.8,26.3-5.8,36.3,0l88,50.8c10,5.8,10,15.2,0,21L174.4,356.9
				c-10,5.8-26.3,5.8-36.3,0l-88-50.8c-10-5.8-10-15.2,0-21L283.9,150.5z"/>
		</g>
		<g>
			<g>
				<linearGradient id="SVGID_2_" gradientUnits="userSpaceOnUse" x1="10.2037" y1="260.43" x2="448.4779" y2="260.43">
					<stop  offset="0" style="stop-color:#CC8636"/>
					<stop  offset="0.1464" style="stop-color:#DA8F3A"/>
					<stop  offset="0.4294" style="stop-color:#EE9C3F"/>
					<stop  offset="0.709" style="stop-color:#FBA443"/>
					<stop  offset="0.9788" style="stop-color:#FFA744"/>
				</linearGradient>
				<path class="st71" d="M164.2,386.5c-4,0-7.7-0.8-10.6-2.4L15.5,304.3c-2.8-1.6-4.3-3.8-4.3-6.3c0-2.9,2.2-5.9,6-8.1l263.5-152.1
					c7.2-4.1,18.1-4.6,24.3-1l138.2,79.8c2.8,1.6,4.3,3.8,4.3,6.3c0,2.9-2.2,5.9-6,8.1L177.9,383.1C174,385.3,169,386.5,164.2,386.5
					z"/>
			</g>
			<g>
				<g>
					<linearGradient id="SVGID_3_" gradientUnits="userSpaceOnUse" x1="11.5014" y1="248.9917" x2="447.1797" y2="248.9917">
						<stop  offset="0" style="stop-color:#B4ACBF"/>
						<stop  offset="0.5146" style="stop-color:#D1C8DE"/>
						<stop  offset="1" style="stop-color:#F0E5FF"/>
					</linearGradient>
					<path class="st72" d="M447.2,196l-19.8,3.4l-122.5-70.7c-6.1-3.5-16.9-3.1-24,1L46.6,265l-35.1,6l0,12.4l0,0
						c0,2.3,1.3,4.4,4.1,6.1l138.2,79.8c6.1,3.5,16.9,3.1,24-1l263.5-152.1c3.8-2.2,5.8-5,5.8-7.7l0,0V196z"/>
					<path class="st60" d="M153.8,356.8L15.6,277c-6.1-3.5-5.4-9.7,1.7-13.8L280.9,111c7.1-4.1,17.8-4.5,24-1L443,189.8
						c6.1,3.5,5.4,9.7-1.7,13.8L177.8,355.8C170.7,359.9,160,360.3,153.8,356.8z"/>
					<linearGradient id="SVGID_4_" gradientUnits="userSpaceOnUse" x1="11.5108" y1="278.6976" x2="447.1612" y2="278.6976">
						<stop  offset="0" style="stop-color:#F0E5FF"/>
						<stop  offset="1" style="stop-color:#FFFFFF"/>
					</linearGradient>
					<path class="st73" d="M441.3,203.6L177.8,355.8c-7.1,4.1-17.8,4.5-24,1L15.6,277c-2.5-1.4-3.8-3.3-4.1-5.2
						c-0.4,2.6,0.9,5,4.1,6.9l138.2,79.8c6.1,3.5,16.9,3.1,24-1l263.5-152.1c4.2-2.5,6.2-5.7,5.8-8.6
						C446.7,199.1,444.8,201.6,441.3,203.6z"/>
					<linearGradient id="SVGID_5_" gradientUnits="userSpaceOnUse" x1="16.8326" y1="233.3694" x2="441.5988" y2="233.3694">
						<stop  offset="0" style="stop-color:#2F1359"/>
						<stop  offset="1" style="stop-color:#491E8C"/>
					</linearGradient>
					<path class="st74" d="M154.1,353.7l-133.2-77c-5.9-3.4-5.2-9.4,1.7-13.4L281.1,114c6.9-4,17.2-4.4,23.2-1l133.2,77
						c5.9,3.4,5.2,9.4-1.7,13.4L177.3,352.7C170.4,356.7,160,357.1,154.1,353.7z"/>
				</g>
				<g>
					<linearGradient id="SVGID_6_" gradientUnits="userSpaceOnUse" x1="290.0234" y1="310.6288" x2="168.4076" y2="149.2392">
						<stop  offset="0" style="stop-color:#C2A3FF"/>
						<stop  offset="5.604863e-03" style="stop-color:#C0A1FD"/>
						<stop  offset="0.1327" style="stop-color:#9178CE"/>
						<stop  offset="0.2641" style="stop-color:#6955A6"/>
						<stop  offset="0.3982" style="stop-color:#483885"/>
						<stop  offset="0.5358" style="stop-color:#2F216C"/>
						<stop  offset="0.6782" style="stop-color:#1D125A"/>
						<stop  offset="0.8285" style="stop-color:#12084F"/>
						<stop  offset="1" style="stop-color:#0F054C"/>
					</linearGradient>
					<path class="st75" d="M164.2,353c-3.9,0-7.5-0.8-10.3-2.4l-133.2-77c-2.7-1.6-4.2-3.8-4.2-6.2c0-2.9,2.1-5.8,5.9-7.9
						l258.6-149.3c7-4,17.6-4.5,23.6-1l133.2,77c2.7,1.6,4.2,3.8,4.2,6.2c0,2.9-2.1,5.8-5.9,7.9L177.5,349.6
						C173.7,351.8,168.8,353,164.2,353z M154.3,349.9c5.8,3.4,16,2.9,22.8-1l258.6-149.3c3.5-2,5.5-4.6,5.5-7.2c0-2.1-1.3-4-3.8-5.4
						l-133.2-77c-5.8-3.4-16-2.9-22.8,1L22.7,260.3c-3.5,2-5.5,4.6-5.5,7.2c0,2.1,1.3,4,3.8,5.4L154.3,349.9z"/>
				</g>
				<g class="st76">
					<defs>
						<path id="SVGID_7_" class="st76" d="M154.1,350.2l-133.2-77c-5.9-3.4-5.2-9.4,1.7-13.4l258.6-149.3c6.9-4,17.2-4.4,23.2-1
							l133.2,77c5.9,3.4,5.2,9.4-1.7,13.4L177.3,349.3C170.4,353.2,160,353.7,154.1,350.2z"/>
					</defs>
					
						<radialGradient id="SVGID_8_" cx="217.6161" cy="229.2769" r="341.7559" gradientTransform="matrix(0.9978 0 0 0.9978 1.3886 5.2813)" gradientUnits="userSpaceOnUse">
						<stop  offset="0" style="stop-color:#42E8E0"/>
						<stop  offset="0.1055" style="stop-color:#37B6BF"/>
						<stop  offset="0.2197" style="stop-color:#2C87A1"/>
						<stop  offset="0.338" style="stop-color:#235F87"/>
						<stop  offset="0.4587" style="stop-color:#1C3F72"/>
						<stop  offset="0.5824" style="stop-color:#162561"/>
						<stop  offset="0.7105" style="stop-color:#121355"/>
						<stop  offset="0.8458" style="stop-color:#10084E"/>
						<stop  offset="1" style="stop-color:#0F054C"/>
					</radialGradient>
					<use xlink:href="#SVGID_7_"  style="overflow:visible;opacity:0.5;fill:url(#SVGID_8_);"/>
					<clipPath id="SVGID_9_">
						<use xlink:href="#SVGID_7_"  style="overflow:visible;opacity:0.5;"/>
					</clipPath>
					<g class="st77">
						<linearGradient id="SVGID_10_" gradientUnits="userSpaceOnUse" x1="248.7824" y1="306.7887" x2="301.2706" y2="306.7887">
							<stop  offset="0" style="stop-color:#343434"/>
							<stop  offset="1.766866e-02" style="stop-color:#383838"/>
							<stop  offset="0.1842" style="stop-color:#565656"/>
							<stop  offset="0.3594" style="stop-color:#6E6E6E"/>
							<stop  offset="0.5448" style="stop-color:#7F7F7F"/>
							<stop  offset="0.7476" style="stop-color:#898989"/>
							<stop  offset="1" style="stop-color:#8C8C8C"/>
						</linearGradient>
						<path class="st78" d="M301.3,321.3c0-16.7-11.7-37.1-26.2-45.5c-7.3-4.2-13.8-4.6-18.6-1.8v0l-5,2.9l1.4,0.1
							c-2.6,3.2-4.1,7.9-4.1,13.9c0,16.7,11.7,37.1,26.2,45.5c5,2.9,9.6,4,13.6,3.5l-0.1,1.3l5-2.9c0,0,0,0,0.1,0l0.2-0.1l0,0
							C298.4,335.4,301.3,329.6,301.3,321.3z"/>
						<linearGradient id="SVGID_11_" gradientUnits="userSpaceOnUse" x1="243.765" y1="309.1154" x2="296.2533" y2="309.1154">
							<stop  offset="0" style="stop-color:#B4ACBF"/>
							<stop  offset="7.015020e-02" style="stop-color:#BEB5C9"/>
							<stop  offset="0.2689" style="stop-color:#D4CAE1"/>
							<stop  offset="0.4806" style="stop-color:#E4D9F2"/>
							<stop  offset="0.7119" style="stop-color:#EDE2FC"/>
							<stop  offset="1" style="stop-color:#F0E5FF"/>
						</linearGradient>
						<path class="st79" d="M296.3,324.3c0,16.7-11.7,23.5-26.2,15.2c-14.5-8.4-26.2-28.7-26.2-45.5c0-16.7,11.7-23.5,26.2-15.2
							C284.5,287.2,296.3,307.5,296.3,324.3z"/>
						<g>
							<g>
								<linearGradient id="SVGID_12_" gradientUnits="userSpaceOnUse" x1="243.765" y1="309.1154" x2="296.2533" y2="309.1154">
									<stop  offset="0" style="stop-color:#141414"/>
									<stop  offset="8.304238e-02" style="stop-color:#1B1B1B"/>
									<stop  offset="0.3479" style="stop-color:#2C2C2C"/>
									<stop  offset="0.6383" style="stop-color:#363636"/>
									<stop  offset="1" style="stop-color:#393939"/>
								</linearGradient>
								<path class="st80" d="M258.3,277.2L258.3,277.2c3.3,0,7,1.1,10.7,3.3c13.9,8,25.2,27.7,25.2,43.7c0,10.3-4.8,16.7-12.5,16.7
									c-3.3,0-7-1.1-10.7-3.3c-13.9-8-25.2-27.7-25.2-43.7C245.8,283.6,250.6,277.2,258.3,277.2 M258.3,275.2
									c-8.6,0-14.5,6.9-14.5,18.7c0,16.7,11.7,37.1,26.2,45.5c4.2,2.4,8.2,3.6,11.7,3.6c8.6,0,14.5-6.9,14.5-18.7
									c0-16.7-11.7-37.1-26.2-45.5C265.8,276.4,261.8,275.2,258.3,275.2L258.3,275.2z"/>
							</g>
						</g>
						<g>
							<polygon class="st81" points="259.1,292.4 259.3,293.3 272.8,315.4 273.2,315.5 279.7,303.2 							"/>
							<polygon class="st82" points="259.1,292.4 259.2,315.7 273.2,315.5 266.6,304.8 							"/>
							<polygon class="st83" points="274.4,317.4 274.3,317.6 279.1,325.5 279.5,325.8 280.9,305.1 							"/>
							<polygon class="st82" points="279.5,325.8 274.4,317.4 260.4,317.6 							"/>
							<polygon class="st84" points="273.2,315.5 279.7,303.2 266.6,304.8 							"/>
							<polygon class="st85" points="259.2,315.7 273.2,315.5 266.6,304.8 							"/>
						</g>
					</g>
					<g class="st77">
						<polygon class="st81" points="259.8,182 260.1,182.9 273.5,205 273.9,205.1 280.4,192.8 						"/>
						<polygon class="st82" points="259.8,182 260,205.3 273.9,205.1 267.4,194.4 						"/>
						<polygon class="st83" points="275.1,207 275,207.2 279.8,215.1 280.2,215.4 281.6,194.7 						"/>
						<polygon class="st82" points="280.2,215.4 275.1,207 261.1,207.2 						"/>
						<polygon class="st84" points="273.9,205.1 280.4,192.8 267.4,194.4 						"/>
						<polygon class="st85" points="260,205.3 273.9,205.1 267.4,194.4 						"/>
					</g>
				</g>
				<g>
					<linearGradient id="SVGID_13_" gradientUnits="userSpaceOnUse" x1="205.761" y1="110.7858" x2="249.0103" y2="110.7858">
						<stop  offset="0" style="stop-color:#343434"/>
						<stop  offset="1.766866e-02" style="stop-color:#383838"/>
						<stop  offset="0.1842" style="stop-color:#565656"/>
						<stop  offset="0.3594" style="stop-color:#6E6E6E"/>
						<stop  offset="0.5448" style="stop-color:#7F7F7F"/>
						<stop  offset="0.7476" style="stop-color:#898989"/>
						<stop  offset="1" style="stop-color:#8C8C8C"/>
					</linearGradient>
					<path class="st86" d="M240,138.6c9.7-13.6,12-37,5-52.2c-3.5-7.6-8.6-11.8-14.1-12.3l0,0l-5.7-0.5l1.1,0.9c-4,1.1-8,4-11.5,8.9
						c-9.7,13.6-12,37-5,52.2c2.4,5.2,5.5,8.8,9.1,10.7l-0.9,1l5.8,0.5c0,0,0,0,0.1,0l0.2,0l0,0C229.5,148.4,235.2,145.3,240,138.6z
						"/>
					<linearGradient id="SVGID_14_" gradientUnits="userSpaceOnUse" x1="199.9718" y1="110.4981" x2="243.2211" y2="110.4981">
						<stop  offset="0" style="stop-color:#B4ACBF"/>
						<stop  offset="7.015020e-02" style="stop-color:#BEB5C9"/>
						<stop  offset="0.2689" style="stop-color:#D4CAE1"/>
						<stop  offset="0.4806" style="stop-color:#E4D9F2"/>
						<stop  offset="0.7119" style="stop-color:#EDE2FC"/>
						<stop  offset="1" style="stop-color:#F0E5FF"/>
					</linearGradient>
					<path class="st87" d="M234.2,138.1c-9.7,13.6-23.2,12.3-30.2-2.9c-6.9-15.2-4.7-38.6,5-52.2c9.7-13.6,23.2-12.3,30.2,2.9
						C246.1,101.1,243.9,124.4,234.2,138.1z"/>
					<g>
						<linearGradient id="SVGID_15_" gradientUnits="userSpaceOnUse" x1="199.9718" y1="110.4981" x2="243.2211" y2="110.4981">
							<stop  offset="0" style="stop-color:#141414"/>
							<stop  offset="8.304238e-02" style="stop-color:#1B1B1B"/>
							<stop  offset="0.3479" style="stop-color:#2C2C2C"/>
							<stop  offset="0.6383" style="stop-color:#363636"/>
							<stop  offset="1" style="stop-color:#393939"/>
						</linearGradient>
						<path class="st88" d="M224,73.5v2c5.3,0,10.2,4.1,13.4,11.2c6.7,14.6,4.5,37.2-4.8,50.3c-3.9,5.5-8.7,8.6-13.3,8.6
							c-5.3,0-10.2-4.1-13.4-11.2c-6.7-14.6-4.5-37.2,4.8-50.3c3.9-5.5,8.7-8.6,13.3-8.6L224,73.5 M224,73.5
							c-5.1,0-10.4,3.1-14.9,9.4c-9.7,13.6-12,37-5,52.2c3.7,8.2,9.3,12.3,15.2,12.3c5.1,0,10.4-3.1,14.9-9.4c9.7-13.6,12-37,5-52.2
							C235.5,77.7,229.9,73.5,224,73.5L224,73.5z"/>
					</g>
				</g>
				<g class="st76">
					<linearGradient id="SVGID_16_" gradientUnits="userSpaceOnUse" x1="196.2943" y1="234.222" x2="248.7824" y2="234.222">
						<stop  offset="0" style="stop-color:#343434"/>
						<stop  offset="1.766866e-02" style="stop-color:#383838"/>
						<stop  offset="0.1842" style="stop-color:#565656"/>
						<stop  offset="0.3594" style="stop-color:#6E6E6E"/>
						<stop  offset="0.5448" style="stop-color:#7F7F7F"/>
						<stop  offset="0.7476" style="stop-color:#898989"/>
						<stop  offset="1" style="stop-color:#8C8C8C"/>
					</linearGradient>
					<path class="st89" d="M248.8,248.8c0-16.7-11.7-37.1-26.2-45.5c-7.3-4.2-13.8-4.6-18.6-1.8v0l-5,2.9l1.4,0.1
						c-2.6,3.2-4.1,7.9-4.1,13.9c0,16.7,11.7,37.1,26.2,45.5c5,2.9,9.6,4,13.6,3.5l-0.1,1.3l5-2.9c0,0,0,0,0.1,0l0.2-0.1l0,0
						C245.9,262.8,248.8,257,248.8,248.8z"/>
					<linearGradient id="SVGID_17_" gradientUnits="userSpaceOnUse" x1="191.2769" y1="236.5486" x2="243.7652" y2="236.5486">
						<stop  offset="0" style="stop-color:#B4ACBF"/>
						<stop  offset="7.015020e-02" style="stop-color:#BEB5C9"/>
						<stop  offset="0.2689" style="stop-color:#D4CAE1"/>
						<stop  offset="0.4806" style="stop-color:#E4D9F2"/>
						<stop  offset="0.7119" style="stop-color:#EDE2FC"/>
						<stop  offset="1" style="stop-color:#F0E5FF"/>
					</linearGradient>
					<path class="st90" d="M243.8,251.7c0,16.7-11.7,23.5-26.2,15.2s-26.2-28.7-26.2-45.5s11.7-23.5,26.2-15.2
						S243.8,235,243.8,251.7z"/>
					<g>
						<g>
							<linearGradient id="SVGID_18_" gradientUnits="userSpaceOnUse" x1="191.2769" y1="236.5486" x2="243.7652" y2="236.5486">
								<stop  offset="0" style="stop-color:#141414"/>
								<stop  offset="8.304238e-02" style="stop-color:#1B1B1B"/>
								<stop  offset="0.3479" style="stop-color:#2C2C2C"/>
								<stop  offset="0.6383" style="stop-color:#363636"/>
								<stop  offset="1" style="stop-color:#393939"/>
							</linearGradient>
							<path class="st91" d="M205.8,204.7L205.8,204.7c3.3,0,7,1.1,10.7,3.3c13.9,8,25.2,27.7,25.2,43.7c0,10.3-4.8,16.7-12.5,16.7
								c-3.3,0-7-1.1-10.7-3.3c-13.9-8-25.2-27.7-25.2-43.7C193.3,211.1,198.1,204.7,205.8,204.7 M205.8,202.7
								c-8.6,0-14.5,6.9-14.5,18.7c0,16.7,11.7,37.1,26.2,45.5c4.2,2.4,8.2,3.6,11.7,3.6c8.6,0,14.5-6.9,14.5-18.7
								c0-16.7-11.7-37.1-26.2-45.5C213.3,203.8,209.3,202.7,205.8,202.7L205.8,202.7z"/>
						</g>
					</g>
					<g>
						<polygon class="st81" points="207.4,219.9 207.6,220.8 221,242.8 221.4,242.9 228,230.6 						"/>
						<polygon class="st82" points="207.4,219.9 207.5,243.1 221.4,242.9 214.9,232.2 						"/>
						<polygon class="st83" points="222.6,244.9 222.5,245.1 227.3,253 227.7,253.2 229.1,232.6 						"/>
						<polygon class="st82" points="227.7,253.2 222.6,244.9 208.6,245 						"/>
						<polygon class="st84" points="221.4,242.9 228,230.6 214.9,232.2 						"/>
						<polygon class="st85" points="207.5,243.1 221.4,242.9 214.9,232.2 						"/>
					</g>
				</g>
				<path class="st92" d="M219.2,276.1c-18.1,0-36.2-4-50-11.9c-13.4-7.7-20.8-18-20.8-29c0-11,7.4-21.3,20.8-29
					c27.6-15.9,72.4-15.9,100,0c13.4,7.7,20.8,18,20.8,29c0,11-7.4,21.3-20.8,29C255.4,272.1,237.3,276.1,219.2,276.1z M219.2,194.7
					c-18,0-36,4-49.7,11.9c-13.2,7.6-20.5,17.8-20.5,28.6c0,10.8,7.3,20.9,20.5,28.6c27.4,15.8,72,15.8,99.5,0
					c13.2-7.6,20.5-17.8,20.5-28.6c0-10.8-7.3-20.9-20.5-28.6C255.2,198.6,237.2,194.7,219.2,194.7z"/>
				<path class="st93" d="M219.2,287.1c-23,0-45.9-5-63.4-15.1c-17-9.8-26.4-22.9-26.4-36.8c0-13.9,9.4-27,26.4-36.8
					c35-20.2,91.9-20.2,126.9,0c17,9.8,26.4,22.9,26.4,36.8c0,13.9-9.4,27-26.4,36.8C265.2,282,242.2,287.1,219.2,287.1z
					 M219.2,183.7c-22.9,0-45.8,5-63.2,15.1c-16.8,9.7-26.1,22.6-26.1,36.3c0,13.7,9.3,26.6,26.1,36.3c34.8,20.1,91.5,20.1,126.4,0
					c16.8-9.7,26.1-22.6,26.1-36.3c0-13.7-9.3-26.6-26.1-36.3C265,188.7,242.1,183.7,219.2,183.7z"/>
				<path class="st94" d="M219.2,267.4c-14.3,0-28.5-3.1-39.4-9.4c-10.6-6.1-16.4-14.2-16.4-22.9c0-8.7,5.8-16.8,16.4-22.9
					c21.7-12.5,57.1-12.5,78.8,0c10.6,6.1,16.4,14.2,16.4,22.9c0,8.7-5.8,16.8-16.4,22.9C247.8,264.3,233.5,267.4,219.2,267.4z
					 M219.2,203.3c-14.2,0-28.3,3.1-39.1,9.3c-10.4,6-16.1,14-16.1,22.4c0,8.5,5.7,16.4,16.1,22.4c21.6,12.5,56.7,12.5,78.3,0
					l0.1,0.2l-0.1-0.2c10.4-6,16.1-14,16.1-22.4s-5.7-16.4-16.1-22.4C247.6,206.5,233.4,203.3,219.2,203.3z"/>
				<g>
					<defs>
						<polygon id="SVGID_19_" points="260.3,242.1 243.8,251.6 178.1,213.7 178.1,140.8 260.3,188.2 						"/>
					</defs>
					<clipPath id="SVGID_20_">
						<use xlink:href="#SVGID_19_"  style="overflow:visible;"/>
					</clipPath>
					<g class="st95">
						<linearGradient id="SVGID_21_" gradientUnits="userSpaceOnUse" x1="196.2943" y1="234.222" x2="248.7824" y2="234.222">
							<stop  offset="0" style="stop-color:#343434"/>
							<stop  offset="1.766866e-02" style="stop-color:#383838"/>
							<stop  offset="0.1842" style="stop-color:#565656"/>
							<stop  offset="0.3594" style="stop-color:#6E6E6E"/>
							<stop  offset="0.5448" style="stop-color:#7F7F7F"/>
							<stop  offset="0.7476" style="stop-color:#898989"/>
							<stop  offset="1" style="stop-color:#8C8C8C"/>
						</linearGradient>
						<path class="st96" d="M248.8,248.8c0-16.7-11.7-37.1-26.2-45.5c-7.3-4.2-13.8-4.6-18.6-1.8v0l-5,2.9l1.4,0.1
							c-2.6,3.2-4.1,7.9-4.1,13.9c0,16.7,11.7,37.1,26.2,45.5c5,2.9,9.6,4,13.6,3.5l-0.1,1.3l5-2.9c0,0,0,0,0.1,0l0.2-0.1l0,0
							C245.9,262.8,248.8,257,248.8,248.8z"/>
						<linearGradient id="SVGID_22_" gradientUnits="userSpaceOnUse" x1="191.2769" y1="236.5486" x2="243.7652" y2="236.5486">
							<stop  offset="0" style="stop-color:#B4ACBF"/>
							<stop  offset="7.015020e-02" style="stop-color:#BEB5C9"/>
							<stop  offset="0.2689" style="stop-color:#D4CAE1"/>
							<stop  offset="0.4806" style="stop-color:#E4D9F2"/>
							<stop  offset="0.7119" style="stop-color:#EDE2FC"/>
							<stop  offset="1" style="stop-color:#F0E5FF"/>
						</linearGradient>
						<path class="st97" d="M243.8,251.7c0,16.7-11.7,23.5-26.2,15.2s-26.2-28.7-26.2-45.5s11.7-23.5,26.2-15.2
							S243.8,235,243.8,251.7z"/>
						<g>
							<g>
								<linearGradient id="SVGID_23_" gradientUnits="userSpaceOnUse" x1="191.2769" y1="236.5486" x2="243.7652" y2="236.5486">
									<stop  offset="0" style="stop-color:#141414"/>
									<stop  offset="8.304238e-02" style="stop-color:#1B1B1B"/>
									<stop  offset="0.3479" style="stop-color:#2C2C2C"/>
									<stop  offset="0.6383" style="stop-color:#363636"/>
									<stop  offset="1" style="stop-color:#393939"/>
								</linearGradient>
								<path class="st98" d="M205.8,204.7L205.8,204.7c3.3,0,7,1.1,10.7,3.3c13.9,8,25.2,27.7,25.2,43.7c0,10.3-4.8,16.7-12.5,16.7
									c-3.3,0-7-1.1-10.7-3.3c-13.9-8-25.2-27.7-25.2-43.7C193.3,211.1,198.1,204.7,205.8,204.7 M205.8,202.7
									c-8.6,0-14.5,6.9-14.5,18.7c0,16.7,11.7,37.1,26.2,45.5c4.2,2.4,8.2,3.6,11.7,3.6c8.6,0,14.5-6.9,14.5-18.7
									c0-16.7-11.7-37.1-26.2-45.5C213.3,203.8,209.3,202.7,205.8,202.7L205.8,202.7z"/>
							</g>
						</g>
					</g>
					<g class="st95">
						<polygon class="st81" points="207.4,219.9 207.6,220.8 221,242.8 221.4,242.9 228,230.6 						"/>
						<polygon class="st82" points="207.4,219.9 207.5,243.1 221.4,242.9 214.9,232.2 						"/>
						<polygon class="st83" points="222.6,244.9 222.5,245.1 227.3,253 227.7,253.2 229.1,232.6 						"/>
						<polygon class="st82" points="227.7,253.2 222.6,244.9 208.6,245 						"/>
						<polygon class="st84" points="221.4,242.9 228,230.6 214.9,232.2 						"/>
						<polygon class="st85" points="207.5,243.1 221.4,242.9 214.9,232.2 						"/>
					</g>
				</g>
				<g>
					<linearGradient id="SVGID_24_" gradientUnits="userSpaceOnUse" x1="248.7824" y1="196.3803" x2="301.2706" y2="196.3803">
						<stop  offset="0" style="stop-color:#343434"/>
						<stop  offset="1.766866e-02" style="stop-color:#383838"/>
						<stop  offset="0.1842" style="stop-color:#565656"/>
						<stop  offset="0.3594" style="stop-color:#6E6E6E"/>
						<stop  offset="0.5448" style="stop-color:#7F7F7F"/>
						<stop  offset="0.7476" style="stop-color:#898989"/>
						<stop  offset="1" style="stop-color:#8C8C8C"/>
					</linearGradient>
					<path class="st99" d="M301.3,210.9c0-16.7-11.7-37.1-26.2-45.5c-7.3-4.2-13.8-4.6-18.6-1.8v0l-5,2.9l1.4,0.1
						c-2.6,3.2-4.1,7.9-4.1,13.9c0,16.7,11.7,37.1,26.2,45.5c5,2.9,9.6,4,13.6,3.5l-0.1,1.3l5-2.9c0,0,0,0,0.1,0l0.2-0.1l0,0
						C298.4,225,301.3,219.2,301.3,210.9z"/>
					<linearGradient id="SVGID_25_" gradientUnits="userSpaceOnUse" x1="243.765" y1="198.707" x2="296.2533" y2="198.707">
						<stop  offset="0" style="stop-color:#B4ACBF"/>
						<stop  offset="7.015020e-02" style="stop-color:#BEB5C9"/>
						<stop  offset="0.2689" style="stop-color:#D4CAE1"/>
						<stop  offset="0.4806" style="stop-color:#E4D9F2"/>
						<stop  offset="0.7119" style="stop-color:#EDE2FC"/>
						<stop  offset="1" style="stop-color:#F0E5FF"/>
					</linearGradient>
					<path class="st100" d="M296.3,213.9c0,16.7-11.7,23.5-26.2,15.2c-14.5-8.4-26.2-28.7-26.2-45.5c0-16.7,11.7-23.5,26.2-15.2
						C284.5,176.8,296.3,197.1,296.3,213.9z"/>
					<g>
						<g>
							<linearGradient id="SVGID_26_" gradientUnits="userSpaceOnUse" x1="243.765" y1="198.707" x2="296.2533" y2="198.707">
								<stop  offset="0" style="stop-color:#141414"/>
								<stop  offset="8.304238e-02" style="stop-color:#1B1B1B"/>
								<stop  offset="0.3479" style="stop-color:#2C2C2C"/>
								<stop  offset="0.6383" style="stop-color:#363636"/>
								<stop  offset="1" style="stop-color:#393939"/>
							</linearGradient>
							<path class="st101" d="M258.3,166.8L258.3,166.8c3.3,0,7,1.1,10.7,3.3c13.9,8,25.2,27.7,25.2,43.7c0,10.3-4.8,16.7-12.5,16.7
								c-3.3,0-7-1.1-10.7-3.3c-13.9-8-25.2-27.7-25.2-43.7C245.8,173.2,250.6,166.8,258.3,166.8 M258.3,164.8
								c-8.6,0-14.5,6.9-14.5,18.7c0,16.7,11.7,37.1,26.2,45.5c4.2,2.4,8.2,3.6,11.7,3.6c8.6,0,14.5-6.9,14.5-18.7
								c0-16.7-11.7-37.1-26.2-45.5C265.8,166,261.8,164.8,258.3,164.8L258.3,164.8z"/>
						</g>
					</g>
				</g>
				<g>
					<polygon class="st81" points="223.3,91 223,91.9 220.7,117.6 220.9,117.9 233.5,111.9 					"/>
					<polygon class="st82" points="223.3,91 209.6,109.8 220.9,117.9 222,105.4 					"/>
					<polygon class="st83" points="220.7,120.2 220.6,120.4 219.7,129.5 219.9,130 233.3,114.2 					"/>
					<polygon class="st82" points="219.9,130 220.7,120.2 209.4,112.1 					"/>
					<polygon class="st84" points="220.9,117.9 233.5,111.9 222,105.4 					"/>
					<polygon class="st85" points="209.6,109.8 220.9,117.9 222,105.4 					"/>
				</g>
				<g>
					<polygon class="st81" points="259.8,182 260.1,182.9 273.5,205 273.9,205.1 280.4,192.8 					"/>
					<polygon class="st82" points="259.8,182 260,205.3 273.9,205.1 267.4,194.4 					"/>
					<polygon class="st83" points="275.1,207 275,207.2 279.8,215.1 280.2,215.4 281.6,194.7 					"/>
					<polygon class="st82" points="280.2,215.4 275.1,207 261.1,207.2 					"/>
					<polygon class="st84" points="273.9,205.1 280.4,192.8 267.4,194.4 					"/>
					<polygon class="st85" points="260,205.3 273.9,205.1 267.4,194.4 					"/>
				</g>
			</g>
		</g>
		<linearGradient id="SVGID_27_" gradientUnits="userSpaceOnUse" x1="293.144" y1="347.2422" x2="375.0391" y2="347.2422">
			<stop  offset="0" style="stop-color:#CC8636"/>
			<stop  offset="0.1464" style="stop-color:#DA8F3A"/>
			<stop  offset="0.4294" style="stop-color:#EE9C3F"/>
			<stop  offset="0.709" style="stop-color:#FBA443"/>
			<stop  offset="0.9788" style="stop-color:#FFA744"/>
		</linearGradient>
		<polyline class="st102" points="294.1,316 374,362.2 373.6,362.5 345.5,378.4 		"/>
		<linearGradient id="SVGID_28_" gradientUnits="userSpaceOnUse" x1="353.2421" y1="302.5038" x2="428.7603" y2="302.5038">
			<stop  offset="0" style="stop-color:#CC8636"/>
			<stop  offset="0.1464" style="stop-color:#DA8F3A"/>
			<stop  offset="0.4294" style="stop-color:#EE9C3F"/>
			<stop  offset="0.709" style="stop-color:#FBA443"/>
			<stop  offset="0.9788" style="stop-color:#FFA744"/>
		</linearGradient>
		<line class="st103" x1="354.2" y1="281.3" x2="427.8" y2="323.7"/>
		<g>
			<g id="XMLID_26043_">
				<g class="st0">
					<path id="XMLID_798_" class="st1" d="M439.1,301.7c-5.3-3.1-14-3.1-19.3,0l-46.8,27c-5.3,3.1-5.3,8.1,0,11.2l46.8,27
						c5.3,3.1,14,3.1,19.3,0l46.8-27c5.3-3.1,5.3-8.1,0-11.2L439.1,301.7z"/>
					<path class="st2" d="M439.1,301.9c-5.3-3.1-14-3.1-19.2,0l-46.6,26.9c-5.3,3.1-5.3,8.1,0,11.1l46.6,26.9c5.3,3.1,14,3.1,19.2,0
						l46.6-26.9c5.3-3.1,5.3-8.1,0-11.1L439.1,301.9z"/>
					<path class="st3" d="M439,302c-5.3-3-13.9-3-19.2,0l-46.4,26.8c-5.3,3-5.3,8,0,11.1l46.4,26.8c5.3,3,13.9,3,19.2,0l46.4-26.8
						c5.3-3,5.3-8,0-11.1L439,302z"/>
					<path class="st4" d="M439,302.2c-5.2-3-13.8-3-19.1,0l-46.2,26.7c-5.2,3-5.2,8,0,11l46.2,26.7c5.2,3,13.8,3,19.1,0l46.2-26.7
						c5.2-3,5.2-8,0-11L439,302.2z"/>
					<path class="st5" d="M438.9,302.3c-5.2-3-13.7-3-19,0L374,328.9c-5.2,3-5.2,7.9,0,10.9l45.9,26.5c5.2,3,13.7,3,19,0l45.9-26.5
						c5.2-3,5.2-7.9,0-10.9L438.9,302.3z"/>
					<path class="st6" d="M438.9,302.5c-5.2-3-13.7-3-18.9,0l-45.7,26.4c-5.2,3-5.2,7.9,0,10.9l45.7,26.4c5.2,3,13.7,3,18.9,0
						l45.7-26.4c5.2-3,5.2-7.9,0-10.9L438.9,302.5z"/>
					<path class="st7" d="M438.9,302.6c-5.2-3-13.6-3-18.8,0l-45.5,26.3c-5.2,3-5.2,7.9,0,10.8l45.5,26.3c5.2,3,13.6,3,18.8,0
						l45.5-26.3c5.2-3,5.2-7.9,0-10.8L438.9,302.6z"/>
					<path class="st8" d="M438.8,302.8c-5.1-3-13.5-3-18.7,0l-45.3,26.1c-5.1,3-5.1,7.8,0,10.8l45.3,26.1c5.1,3,13.5,3,18.7,0
						l45.3-26.1c5.1-3,5.1-7.8,0-10.8L438.8,302.8z"/>
					<path class="st9" d="M438.8,302.9c-5.1-3-13.5-3-18.6,0l-45,26c-5.1,3-5.1,7.8,0,10.7l45,26c5.1,3,13.5,3,18.6,0l45-26
						c5.1-3,5.1-7.8,0-10.7L438.8,302.9z"/>
					<path class="st10" d="M438.7,303.1c-5.1-2.9-13.4-2.9-18.5,0L375.4,329c-5.1,2.9-5.1,7.7,0,10.7l44.8,25.9
						c5.1,2.9,13.4,2.9,18.5,0l44.8-25.9c5.1-2.9,5.1-7.7,0-10.7L438.7,303.1z"/>
					<path class="st11" d="M438.7,303.3c-5.1-2.9-13.3-2.9-18.4,0L375.7,329c-5.1,2.9-5.1,7.7,0,10.6l44.6,25.7
						c5.1,2.9,13.3,2.9,18.4,0l44.6-25.7c5.1-2.9,5.1-7.7,0-10.6L438.7,303.3z"/>
					<path class="st12" d="M438.6,303.4c-5-2.9-13.3-2.9-18.3,0L375.9,329c-5,2.9-5,7.7,0,10.6l44.4,25.6c5,2.9,13.3,2.9,18.3,0
						l44.4-25.6c5-2.9,5-7.7,0-10.6L438.6,303.4z"/>
					<path class="st13" d="M438.6,303.6c-5-2.9-13.2-2.9-18.2,0l-44.1,25.5c-5,2.9-5,7.6,0,10.5l44.1,25.5c5,2.9,13.2,2.9,18.2,0
						l44.1-25.5c5-2.9,5-7.6,0-10.5L438.6,303.6z"/>
					<path class="st14" d="M438.5,303.7c-5-2.9-13.1-2.9-18.1,0l-43.9,25.4c-5,2.9-5,7.6,0,10.5l43.9,25.4c5,2.9,13.1,2.9,18.1,0
						l43.9-25.4c5-2.9,5-7.6,0-10.5L438.5,303.7z"/>
					<path class="st15" d="M438.5,303.9c-5-2.9-13.1-2.9-18,0l-43.7,25.2c-5,2.9-5,7.6,0,10.4l43.7,25.2c5,2.9,13.1,2.9,18,0
						l43.7-25.2c5-2.9,5-7.5,0-10.4L438.5,303.9z"/>
					<path class="st16" d="M438.4,304c-4.9-2.8-13-2.8-17.9,0L377,329.1c-4.9,2.8-4.9,7.5,0,10.4l43.5,25.1c4.9,2.8,13,2.8,17.9,0
						l43.5-25.1c4.9-2.8,4.9-7.5,0-10.4L438.4,304z"/>
					<path class="st17" d="M438.4,304.2c-4.9-2.8-12.9-2.8-17.9,0l-43.2,25c-4.9,2.8-4.9,7.5,0,10.3l43.2,25
						c4.9,2.8,12.9,2.8,17.9,0l43.2-25c4.9-2.8,4.9-7.5,0-10.3L438.4,304.2z"/>
					<path class="st18" d="M438.3,304.4c-4.9-2.8-12.9-2.8-17.8,0l-43,24.8c-4.9,2.8-4.9,7.4,0,10.3l43,24.8
						c4.9,2.8,12.9,2.8,17.8,0l43-24.8c4.9-2.8,4.9-7.4,0-10.3L438.3,304.4z"/>
					<path class="st19" d="M438.3,304.5c-4.9-2.8-12.8-2.8-17.7,0l-42.8,24.7c-4.9,2.8-4.9,7.4,0,10.2l42.8,24.7
						c4.9,2.8,12.8,2.8,17.7,0l42.8-24.7c4.9-2.8,4.9-7.4,0-10.2L438.3,304.5z"/>
					<path class="st20" d="M438.2,304.7c-4.8-2.8-12.7-2.8-17.6,0l-42.6,24.6c-4.8,2.8-4.8,7.4,0,10.1l42.6,24.6
						c4.8,2.8,12.7,2.8,17.6,0l42.6-24.6c4.8-2.8,4.8-7.4,0-10.1L438.2,304.7z"/>
					<path class="st21" d="M438.2,304.8c-4.8-2.8-12.7-2.8-17.5,0l-42.3,24.5c-4.8,2.8-4.8,7.3,0,10.1l42.3,24.5
						c4.8,2.8,12.7,2.8,17.5,0l42.3-24.5c4.8-2.8,4.8-7.3,0-10.1L438.2,304.8z"/>
					<path class="st22" d="M438.2,305c-4.8-2.8-12.6-2.8-17.4,0l-42.1,24.3c-4.8,2.8-4.8,7.3,0,10l42.1,24.3
						c4.8,2.8,12.6,2.8,17.4,0l42.1-24.3c4.8-2.8,4.8-7.3,0-10L438.2,305z"/>
					<path class="st23" d="M438.1,305.1c-4.8-2.7-12.5-2.7-17.3,0l-41.9,24.2c-4.8,2.7-4.8,7.2,0,10l41.9,24.2
						c4.8,2.7,12.5,2.7,17.3,0l41.9-24.2c4.8-2.7,4.8-7.2,0-10L438.1,305.1z"/>
					<path class="st24" d="M438.1,305.3c-4.7-2.7-12.5-2.7-17.2,0l-41.7,24.1c-4.7,2.7-4.7,7.2,0,9.9l41.7,24.1
						c4.7,2.7,12.5,2.7,17.2,0l41.7-24.1c4.7-2.7,4.7-7.2,0-9.9L438.1,305.3z"/>
					<path class="st25" d="M438,305.5c-4.7-2.7-12.4-2.7-17.1,0l-41.5,23.9c-4.7,2.7-4.7,7.2,0,9.9l41.5,23.9
						c4.7,2.7,12.4,2.7,17.1,0l41.4-23.9c4.7-2.7,4.7-7.2,0-9.9L438,305.5z"/>
					<path class="st26" d="M438,305.6c-4.7-2.7-12.3-2.7-17,0l-41.2,23.8c-4.7,2.7-4.7,7.1,0,9.8L421,363c4.7,2.7,12.3,2.7,17,0
						l41.2-23.8c4.7-2.7,4.7-7.1,0-9.8L438,305.6z"/>
					<path class="st27" d="M437.9,305.8c-4.7-2.7-12.3-2.7-16.9,0l-41,23.7c-4.7,2.7-4.7,7.1,0,9.8l41,23.7c4.7,2.7,12.3,2.7,16.9,0
						l41-23.7c4.7-2.7,4.7-7.1,0-9.8L437.9,305.8z"/>
					<path class="st28" d="M437.9,305.9c-4.6-2.7-12.2-2.7-16.8,0l-40.8,23.5c-4.6,2.7-4.6,7,0,9.7l40.8,23.5
						c4.6,2.7,12.2,2.7,16.8,0l40.8-23.5c4.6-2.7,4.6-7,0-9.7L437.9,305.9z"/>
					<path class="st29" d="M437.8,306.1c-4.6-2.7-12.1-2.7-16.7,0l-40.6,23.4c-4.6,2.7-4.6,7,0,9.7l40.6,23.4
						c4.6,2.7,12.1,2.7,16.7,0l40.6-23.4c4.6-2.7,4.6-7,0-9.7L437.8,306.1z"/>
					<path class="st30" d="M437.8,306.2c-4.6-2.6-12.1-2.6-16.6,0l-40.3,23.3c-4.6,2.6-4.6,7,0,9.6l40.3,23.3
						c4.6,2.6,12.1,2.6,16.6,0l40.3-23.3c4.6-2.6,4.6-7,0-9.6L437.8,306.2z"/>
					<path class="st31" d="M437.7,306.4c-4.6-2.6-12-2.6-16.6,0l-40.1,23.2c-4.6,2.6-4.6,6.9,0,9.6l40.1,23.2c4.6,2.6,12,2.6,16.6,0
						l40.1-23.2c4.6-2.6,4.6-6.9,0-9.6L437.7,306.4z"/>
					<path class="st32" d="M437.7,306.6c-4.5-2.6-11.9-2.6-16.5,0l-39.9,23c-4.5,2.6-4.5,6.9,0,9.5l39.9,23c4.5,2.6,11.9,2.6,16.5,0
						l39.9-23c4.5-2.6,4.5-6.9,0-9.5L437.7,306.6z"/>
					<path class="st33" d="M437.6,306.7c-4.5-2.6-11.9-2.6-16.4,0l-39.7,22.9c-4.5,2.6-4.5,6.9,0,9.4l39.7,22.9
						c4.5,2.6,11.9,2.6,16.4,0l39.7-22.9c4.5-2.6,4.5-6.9,0-9.4L437.6,306.7z"/>
					<path class="st34" d="M437.6,306.9c-4.5-2.6-11.8-2.6-16.3,0l-39.4,22.8c-4.5,2.6-4.5,6.8,0,9.4l39.4,22.8
						c4.5,2.6,11.8,2.6,16.3,0L477,339c4.5-2.6,4.5-6.8,0-9.4L437.6,306.9z"/>
					<path class="st35" d="M437.6,307c-4.5-2.6-11.7-2.6-16.2,0l-39.2,22.6c-4.4,2.6-4.4,6.8,0,9.3l39.2,22.6
						c4.4,2.6,11.7,2.6,16.2,0l39.2-22.6c4.5-2.6,4.5-6.8,0-9.3L437.6,307z"/>
					<path class="st36" d="M437.5,307.2c-4.4-2.6-11.7-2.6-16.1,0l-39,22.5c-4.4,2.6-4.4,6.7,0,9.3l39,22.5c4.4,2.6,11.7,2.6,16.1,0
						l39-22.5c4.4-2.6,4.4-6.7,0-9.3L437.5,307.2z"/>
					<path class="st37" d="M437.5,307.3c-4.4-2.5-11.6-2.5-16,0l-38.8,22.4c-4.4,2.5-4.4,6.7,0,9.2l38.8,22.4c4.4,2.5,11.6,2.5,16,0
						l38.8-22.4c4.4-2.5,4.4-6.7,0-9.2L437.5,307.3z"/>
					<path class="st38" d="M437.4,307.5c-4.4-2.5-11.5-2.5-15.9,0L383,329.7c-4.4,2.5-4.4,6.7,0,9.2l38.5,22.2
						c4.4,2.5,11.5,2.5,15.9,0l38.5-22.2c4.4-2.5,4.4-6.7,0-9.2L437.4,307.5z"/>
					<path class="st39" d="M437.4,307.6c-4.3-2.5-11.5-2.5-15.8,0l-38.3,22.1c-4.3,2.5-4.3,6.6,0,9.1l38.3,22.1
						c4.3,2.5,11.5,2.5,15.8,0l38.3-22.1c4.3-2.5,4.3-6.6,0-9.1L437.4,307.6z"/>
					<path class="st40" d="M437.3,307.8c-4.3-2.5-11.4-2.5-15.7,0l-38.1,22c-4.3,2.5-4.3,6.6,0,9.1l38.1,22c4.3,2.5,11.4,2.5,15.7,0
						l38.1-22c4.3-2.5,4.3-6.6,0-9.1L437.3,307.8z"/>
					<path class="st41" d="M437.3,308c-4.3-2.5-11.3-2.5-15.6,0l-37.9,21.9c-4.3,2.5-4.3,6.5,0,9l37.9,21.9c4.3,2.5,11.3,2.5,15.6,0
						l37.9-21.9c4.3-2.5,4.3-6.5,0-9L437.3,308z"/>
					<path class="st42" d="M437.2,308.1c-4.3-2.5-11.3-2.5-15.5,0l-37.6,21.7c-4.3,2.5-4.3,6.5,0,9l37.6,21.7
						c4.3,2.5,11.3,2.5,15.5,0l37.6-21.7c4.3-2.5,4.3-6.5,0-9L437.2,308.1z"/>
					<path class="st43" d="M437.2,308.3c-4.2-2.5-11.2-2.5-15.4,0l-37.4,21.6c-4.2,2.5-4.2,6.5,0,8.9l37.4,21.6
						c4.2,2.5,11.2,2.5,15.4,0l37.4-21.6c4.2-2.5,4.2-6.5,0-8.9L437.2,308.3z"/>
					<path class="st44" d="M437.1,308.4c-4.2-2.4-11.1-2.4-15.3,0l-37.2,21.5c-4.2,2.4-4.2,6.4,0,8.9l37.2,21.5
						c4.2,2.4,11.1,2.4,15.3,0l37.2-21.5c4.2-2.4,4.2-6.4,0-8.9L437.1,308.4z"/>
					<path class="st45" d="M437.1,308.6c-4.2-2.4-11.1-2.4-15.3,0l-37,21.3c-4.2,2.4-4.2,6.4,0,8.8l37,21.3c4.2,2.4,11.1,2.4,15.3,0
						l37-21.3c4.2-2.4,4.2-6.4,0-8.8L437.1,308.6z"/>
					<path class="st46" d="M437,308.7c-4.2-2.4-11-2.4-15.2,0l-36.7,21.2c-4.2,2.4-4.2,6.3,0,8.8l36.7,21.2c4.2,2.4,11,2.4,15.2,0
						l36.7-21.2c4.2-2.4,4.2-6.3,0-8.8L437,308.7z"/>
					<path class="st47" d="M437,308.9c-4.1-2.4-10.9-2.4-15.1,0L385.4,330c-4.1,2.4-4.1,6.3,0,8.7l36.5,21.1
						c4.1,2.4,10.9,2.4,15.1,0l36.5-21.1c4.1-2.4,4.1-6.3,0-8.7L437,308.9z"/>
					<path class="st48" d="M437,309.1c-4.1-2.4-10.9-2.4-15,0L385.7,330c-4.1,2.4-4.1,6.3,0,8.6l36.3,20.9c4.1,2.4,10.9,2.4,15,0
						l36.3-20.9c4.1-2.4,4.1-6.3,0-8.6L437,309.1z"/>
					<path class="st49" d="M436.9,309.2c-4.1-2.4-10.8-2.4-14.9,0L386,330c-4.1,2.4-4.1,6.2,0,8.6l36.1,20.8
						c4.1,2.4,10.8,2.4,14.9,0l36.1-20.8c4.1-2.4,4.1-6.2,0-8.6L436.9,309.2z"/>
					<path class="st50" d="M436.9,309.4c-4.1-2.3-10.7-2.3-14.8,0l-35.8,20.7c-4.1,2.3-4.1,6.2,0,8.5l35.8,20.7
						c4.1,2.3,10.7,2.3,14.8,0l35.8-20.7c4.1-2.3,4.1-6.2,0-8.5L436.9,309.4z"/>
					<path class="st51" d="M436.8,309.5c-4-2.3-10.7-2.3-14.7,0l-35.6,20.6c-4,2.3-4,6.2,0,8.5l35.6,20.6c4,2.3,10.7,2.3,14.7,0
						l35.6-20.6c4-2.3,4-6.2,0-8.5L436.8,309.5z"/>
					<path id="XMLID_797_" class="st52" d="M436.8,309.7c-4-2.3-10.6-2.3-14.6,0l-35.4,20.4c-4,2.3-4,6.1,0,8.4l35.4,20.4
						c4,2.3,10.6,2.3,14.6,0l35.4-20.4c4-2.3,4-6.1,0-8.4L436.8,309.7z"/>
				</g>
				<linearGradient id="XMLID_26_" gradientUnits="userSpaceOnUse" x1="374.4486" y1="333.3333" x2="484.2323" y2="333.3333">
					<stop  offset="0" style="stop-color:#B4ACBF"/>
					<stop  offset="0.5146" style="stop-color:#D1C8DE"/>
					<stop  offset="1" style="stop-color:#F0E5FF"/>
				</linearGradient>
				<path id="XMLID_26046_" class="st104" d="M427.1,301.7l-52.7,25v7.2c0,0.4,0.2,0.8,0.6,1l52.1,30.1c1.4,0.8,3,0.8,4.4,0l52-30.1
					c0.4-0.2,0.7-0.7,0.7-1.1v-7.1l-52.7-25C430.2,300.9,428.5,300.9,427.1,301.7z"/>
				<linearGradient id="XMLID_27_" gradientUnits="userSpaceOnUse" x1="374.4485" y1="326.6894" x2="484.2324" y2="326.6894">
					<stop  offset="0" style="stop-color:#F0E5FF"/>
					<stop  offset="1" style="stop-color:#FFFFFF"/>
				</linearGradient>
				<path id="XMLID_26044_" class="st105" d="M427.1,295l-51.6,29.8c-1.5,0.8-1.5,2.9,0,3.8l51.6,29.8c1.4,0.8,3,0.8,4.4,0
					l51.6-29.8c1.5-0.8,1.5-2.9,0-3.8L431.5,295C430.2,294.2,428.5,294.2,427.1,295z"/>
			</g>
			<g>
				<linearGradient id="XMLID_28_" gradientUnits="userSpaceOnUse" x1="389.8927" y1="325.6742" x2="468.1974" y2="325.6742">
					<stop  offset="0" style="stop-color:#F0E5FF"/>
					<stop  offset="1" style="stop-color:#FFFFFF"/>
				</linearGradient>
				<path id="XMLID_26042_" class="st106" d="M427.5,303.1l-36.8,21.2c-1,0.6-1,2.1,0,2.7l36.8,21.2c1,0.6,2.2,0.6,3.1,0l36.8-21.2
					c1-0.6,1-2.1,0-2.7l-36.8-21.2C429.6,302.5,428.4,302.5,427.5,303.1z"/>
				<linearGradient id="XMLID_29_" gradientUnits="userSpaceOnUse" x1="389.9001" y1="336.7496" x2="468.19" y2="336.7496">
					<stop  offset="0" style="stop-color:#B4ACBF"/>
					<stop  offset="0.5146" style="stop-color:#D1C8DE"/>
					<stop  offset="1" style="stop-color:#F0E5FF"/>
				</linearGradient>
				<path id="XMLID_26041_" class="st107" d="M467.4,325.3l-36.8,21.2c-1,0.6-2.2,0.6-3.1,0l-36.8-21.2c-0.2-0.1-0.4-0.3-0.5-0.5
					c-0.5,0.7-0.3,1.7,0.5,2.2l36.8,21.2c1,0.6,2.2,0.6,3.1,0l36.8-21.2c0.8-0.5,1-1.5,0.5-2.2C467.8,325,467.6,325.2,467.4,325.3z"
					/>
				<linearGradient id="XMLID_30_" gradientUnits="userSpaceOnUse" x1="398.2271" y1="323.8924" x2="460.1111" y2="323.8924">
					<stop  offset="0" style="stop-color:#2F1359"/>
					<stop  offset="1" style="stop-color:#491E8C"/>
				</linearGradient>
				<path id="XMLID_26040_" class="st108" d="M427.9,306l-29.1,16.8c-0.8,0.5-0.8,1.7,0,2.1l29.1,16.8c0.8,0.4,1.7,0.4,2.5,0
					l29.1-16.8c0.8-0.5,0.8-1.7,0-2.1L430.4,306C429.6,305.6,428.7,305.6,427.9,306z"/>
				<linearGradient id="XMLID_31_" gradientUnits="userSpaceOnUse" x1="404.7869" y1="323.8924" x2="453.5513" y2="323.8924">
					<stop  offset="0.1499" style="stop-color:#FF9800"/>
					<stop  offset="1" style="stop-color:#FFC107"/>
				</linearGradient>
				<path id="XMLID_26039_" class="st109" d="M428.2,309.8l-22.9,13.2c-0.6,0.4-0.6,1.3,0,1.7l22.9,13.2c0.6,0.3,1.4,0.3,2,0
					l22.9-13.2c0.6-0.4,0.6-1.3,0-1.7l-22.9-13.2C429.5,309.5,428.8,309.5,428.2,309.8z"/>
				<path id="XMLID_26038_" class="st59" d="M405.3,323.6l22.9-13.2c0.6-0.3,1.4-0.3,2,0l22.9,13.2c0.2,0.1,0.4,0.3,0.4,0.6
					c0.1-0.4,0-0.9-0.4-1.1l-22.9-13.2c-0.6-0.3-1.4-0.3-2,0l-22.9,13.2c-0.4,0.2-0.6,0.7-0.4,1.1
					C404.9,323.9,405,323.7,405.3,323.6z"/>
				<path id="XMLID_26037_" class="st60" d="M459.5,324.1l-29.1,16.8c-0.8,0.4-1.7,0.4-2.5,0l-29.1-16.8c-0.3-0.2-0.4-0.4-0.5-0.6
					c-0.2,0.5,0,1.2,0.5,1.5l29.1,16.8c0.8,0.4,1.7,0.4,2.5,0l29.1-16.8c0.6-0.3,0.7-1,0.5-1.5C459.9,323.7,459.8,324,459.5,324.1z"
					/>
				<g id="XMLID_25820_">
					<g>
						<g>
							<defs>
								<path id="XMLID_54_" d="M428.2,309.8l-22.9,13.2c-0.6,0.4-0.6,1.3,0,1.7l22.9,13.2c0.6,0.3,1.4,0.3,2,0l22.9-13.2
									c0.6-0.4,0.6-1.3,0-1.7l-22.9-13.2C429.5,309.5,428.8,309.5,428.2,309.8z"/>
							</defs>
							<clipPath id="XMLID_32_">
								<use xlink:href="#XMLID_54_"  style="overflow:visible;"/>
							</clipPath>
						</g>
					</g>
					<g>
						<path id="XMLID_53_" class="st60" d="M428.2,309.8l-22.9,13.2c-0.6,0.4-0.6,1.3,0,1.7l22.9,13.2c0.6,0.3,1.4,0.3,2,0
							l22.9-13.2c0.6-0.4,0.6-1.3,0-1.7l-22.9-13.2C429.5,309.5,428.8,309.5,428.2,309.8z"/>
						<g id="XMLID_51_">
							<g>
								<linearGradient id="XMLID_33_" gradientUnits="userSpaceOnUse" x1="429.1691" y1="338.2255" x2="429.1691" y2="250.5582">
									<stop  offset="0" style="stop-color:#C2A3FF;stop-opacity:0.7"/>
									<stop  offset="8.197117e-02" style="stop-color:#CBAFFF;stop-opacity:0.6426"/>
									<stop  offset="0.2782" style="stop-color:#DBC7FF;stop-opacity:0.5053"/>
									<stop  offset="0.4872" style="stop-color:#E7D8FF;stop-opacity:0.359"/>
									<stop  offset="0.7156" style="stop-color:#EEE2FF;stop-opacity:0.1991"/>
									<stop  offset="1" style="stop-color:#F0E5FF;stop-opacity:0"/>
								</linearGradient>
								<path id="XMLID_52_" class="st110" d="M404.8,250.6c0,0,0,73,0,73.3c0,0.3,0.2,0.7,0.5,0.8l22.9,13.2c0.6,0.3,1.4,0.3,2,0
									l22.9-13.2c0.3-0.2,0.5-0.5,0.5-0.8c0-0.3,0-73.3,0-73.3H404.8z"/>
							</g>
						</g>
						<g>
							<defs>
								<path id="XMLID_48_" d="M428.2,309.8l-22.9,13.2c-0.6,0.4-0.6,1.3,0,1.7l22.9,13.2c0.6,0.3,1.4,0.3,2,0l22.9-13.2
									c0.6-0.4,0.6-1.3,0-1.7l-22.9-13.2C429.5,309.5,428.8,309.5,428.2,309.8z"/>
							</defs>
							<clipPath id="XMLID_34_">
								<use xlink:href="#XMLID_48_"  style="overflow:visible;"/>
							</clipPath>
							<radialGradient id="XMLID_35_" cx="429.1691" cy="324.8499" r="19.9991" gradientUnits="userSpaceOnUse">
								<stop  offset="0" style="stop-color:#FFFFFF"/>
								<stop  offset="1" style="stop-color:#C2A3FF"/>
							</radialGradient>
							<path id="XMLID_50_" class="st111" d="M428.2,310.8L405.3,324c-0.6,0.4-0.6,1.3,0,1.7l22.9,13.2c0.6,0.3,1.4,0.3,2,0
								l22.9-13.2c0.6-0.4,0.6-1.3,0-1.7l-22.9-13.2C429.5,310.4,428.8,310.4,428.2,310.8z"/>
						</g>
					</g>
					<g>
						<g>
							<defs>
								<path id="XMLID_38_" d="M428.2,309.8l-22.9,13.2c-0.6,0.4-0.6,1.3,0,1.7l22.9,13.2c0.6,0.3,1.4,0.3,2,0l22.9-13.2
									c0.6-0.4,0.6-1.3,0-1.7l-22.9-13.2C429.5,309.5,428.8,309.5,428.2,309.8z"/>
							</defs>
							<clipPath id="XMLID_36_">
								<use xlink:href="#XMLID_38_"  style="overflow:visible;"/>
							</clipPath>
						</g>
					</g>
				</g>
				<g>
					<linearGradient id="XMLID_37_" gradientUnits="userSpaceOnUse" x1="429.1691" y1="329.1506" x2="429.1691" y2="313.0461">
						<stop  offset="0" style="stop-color:#FFFFFF;stop-opacity:0.7"/>
						<stop  offset="1" style="stop-color:#F0E5FF;stop-opacity:0"/>
					</linearGradient>
					<path id="XMLID_25819_" class="st112" d="M405.3,313.5c-0.6,0.4-0.6,1.3,0,1.7l22.9,13.2c0.6,0.3,1.4,0.3,2,0l22.9-13.2
						c0.6-0.4,0.6-1.3,0-1.7"/>
					<linearGradient id="XMLID_41_" gradientUnits="userSpaceOnUse" x1="429.1691" y1="319.5757" x2="429.1691" y2="303.4712">
						<stop  offset="0" style="stop-color:#FFFFFF;stop-opacity:0.7"/>
						<stop  offset="1" style="stop-color:#F0E5FF;stop-opacity:0"/>
					</linearGradient>
					<path id="XMLID_25818_" class="st113" d="M405.3,303.9c-0.6,0.4-0.6,1.3,0,1.7l22.9,13.2c0.6,0.3,1.4,0.3,2,0l22.9-13.2
						c0.6-0.4,0.6-1.3,0-1.7"/>
					<linearGradient id="XMLID_42_" gradientUnits="userSpaceOnUse" x1="429.1691" y1="310.0008" x2="429.1691" y2="293.8963">
						<stop  offset="0" style="stop-color:#FFFFFF;stop-opacity:0.7"/>
						<stop  offset="1" style="stop-color:#F0E5FF;stop-opacity:0"/>
					</linearGradient>
					<path id="XMLID_25817_" class="st114" d="M405.3,294.3c-0.6,0.4-0.6,1.3,0,1.7l22.9,13.2c0.6,0.3,1.4,0.3,2,0l22.9-13.2
						c0.6-0.4,0.6-1.3,0-1.7"/>
					<linearGradient id="XMLID_43_" gradientUnits="userSpaceOnUse" x1="429.1691" y1="300.4259" x2="429.1691" y2="284.3214">
						<stop  offset="0" style="stop-color:#FFFFFF;stop-opacity:0.7"/>
						<stop  offset="1" style="stop-color:#F0E5FF;stop-opacity:0"/>
					</linearGradient>
					<path id="XMLID_25815_" class="st115" d="M405.3,284.8c-0.6,0.4-0.6,1.3,0,1.7l22.9,13.2c0.6,0.3,1.4,0.3,2,0l22.9-13.2
						c0.6-0.4,0.6-1.3,0-1.7"/>
					<linearGradient id="XMLID_44_" gradientUnits="userSpaceOnUse" x1="429.1691" y1="290.851" x2="429.1691" y2="274.7465">
						<stop  offset="0" style="stop-color:#FFFFFF;stop-opacity:0.7"/>
						<stop  offset="1" style="stop-color:#F0E5FF;stop-opacity:0"/>
					</linearGradient>
					<path id="XMLID_25813_" class="st116" d="M405.3,275.2c-0.6,0.4-0.6,1.3,0,1.7l22.9,13.2c0.6,0.3,1.4,0.3,2,0l22.9-13.2
						c0.6-0.4,0.6-1.3,0-1.7"/>
					<linearGradient id="XMLID_63_" gradientUnits="userSpaceOnUse" x1="429.1691" y1="281.2761" x2="429.1691" y2="265.1716">
						<stop  offset="0" style="stop-color:#FFFFFF;stop-opacity:0.7"/>
						<stop  offset="1" style="stop-color:#F0E5FF;stop-opacity:0"/>
					</linearGradient>
					<path id="XMLID_18378_" class="st117" d="M405.3,265.6c-0.6,0.4-0.6,1.3,0,1.7l22.9,13.2c0.6,0.3,1.4,0.3,2,0l22.9-13.2
						c0.6-0.4,0.6-1.3,0-1.7"/>
					<linearGradient id="XMLID_64_" gradientUnits="userSpaceOnUse" x1="429.1691" y1="271.7012" x2="429.1691" y2="255.5967">
						<stop  offset="0" style="stop-color:#FFFFFF;stop-opacity:0.7"/>
						<stop  offset="1" style="stop-color:#F0E5FF;stop-opacity:0"/>
					</linearGradient>
					<path id="XMLID_18377_" class="st118" d="M405.3,256c-0.6,0.4-0.6,1.3,0,1.7l22.9,13.2c0.6,0.3,1.4,0.3,2,0l22.9-13.2
						c0.6-0.4,0.6-1.3,0-1.7"/>
				</g>
			</g>
		</g>
		<g>
			<g id="XMLID_26128_">
				<g class="st0">
					<path id="XMLID_800_" class="st1" d="M324.7,367.9c-5.3-3.1-14-3.1-19.3,0l-46.8,27c-5.3,3.1-5.3,8.1,0,11.2l46.8,27
						c5.3,3.1,14,3.1,19.3,0l46.8-27c5.3-3.1,5.3-8.1,0-11.2L324.7,367.9z"/>
					<path class="st2" d="M324.6,368.1c-5.3-3.1-14-3.1-19.2,0L258.8,395c-5.3,3.1-5.3,8.1,0,11.1l46.6,26.9c5.3,3.1,14,3.1,19.2,0
						l46.6-26.9c5.3-3.1,5.3-8.1,0-11.1L324.6,368.1z"/>
					<path class="st3" d="M324.6,368.3c-5.3-3-13.9-3-19.2,0L259,395c-5.3,3-5.3,8,0,11.1l46.4,26.8c5.3,3,13.9,3,19.2,0l46.4-26.8
						c5.3-3,5.3-8,0-11.1L324.6,368.3z"/>
					<path class="st4" d="M324.5,368.4c-5.2-3-13.8-3-19.1,0l-46.2,26.7c-5.2,3-5.2,8,0,11l46.2,26.7c5.2,3,13.8,3,19.1,0l46.2-26.7
						c5.2-3,5.2-8,0-11L324.5,368.4z"/>
					<path class="st5" d="M324.5,368.6c-5.2-3-13.7-3-19,0l-45.9,26.5c-5.2,3-5.2,7.9,0,10.9l45.9,26.5c5.2,3,13.7,3,19,0l45.9-26.5
						c5.2-3,5.2-7.9,0-10.9L324.5,368.6z"/>
					<path class="st6" d="M324.4,368.7c-5.2-3-13.7-3-18.9,0l-45.7,26.4c-5.2,3-5.2,7.9,0,10.9l45.7,26.4c5.2,3,13.7,3,18.9,0
						l45.7-26.4c5.2-3,5.2-7.9,0-10.9L324.4,368.7z"/>
					<path class="st7" d="M324.4,368.9c-5.2-3-13.6-3-18.8,0l-45.5,26.3c-5.2,3-5.2,7.9,0,10.8l45.5,26.3c5.2,3,13.6,3,18.8,0
						l45.5-26.3c5.2-3,5.2-7.9,0-10.8L324.4,368.9z"/>
					<path class="st8" d="M324.3,369c-5.1-3-13.5-3-18.7,0l-45.3,26.1c-5.1,3-5.1,7.8,0,10.8l45.3,26.1c5.1,3,13.5,3,18.7,0
						l45.3-26.1c5.1-3,5.1-7.8,0-10.8L324.3,369z"/>
					<path class="st9" d="M324.3,369.2c-5.1-3-13.5-3-18.6,0l-45,26c-5.1,3-5.1,7.8,0,10.7l45,26c5.1,3,13.5,3,18.6,0l45-26
						c5.1-3,5.1-7.8,0-10.7L324.3,369.2z"/>
					<path class="st10" d="M324.2,369.4c-5.1-2.9-13.4-2.9-18.5,0l-44.8,25.9c-5.1,2.9-5.1,7.7,0,10.7l44.8,25.9
						c5.1,2.9,13.4,2.9,18.5,0l44.8-25.9c5.1-2.9,5.1-7.7,0-10.7L324.2,369.4z"/>
					<path class="st11" d="M324.2,369.5c-5.1-2.9-13.3-2.9-18.4,0l-44.6,25.7c-5.1,2.9-5.1,7.7,0,10.6l44.6,25.7
						c5.1,2.9,13.3,2.9,18.4,0l44.6-25.7c5.1-2.9,5.1-7.7,0-10.6L324.2,369.5z"/>
					<path class="st12" d="M324.2,369.7c-5-2.9-13.3-2.9-18.3,0l-44.4,25.6c-5,2.9-5,7.7,0,10.6l44.4,25.6c5,2.9,13.3,2.9,18.3,0
						l44.4-25.6c5-2.9,5-7.7,0-10.6L324.2,369.7z"/>
					<path class="st13" d="M324.1,369.8c-5-2.9-13.2-2.9-18.2,0l-44.1,25.5c-5,2.9-5,7.6,0,10.5l44.1,25.5c5,2.9,13.2,2.9,18.2,0
						l44.1-25.5c5-2.9,5-7.6,0-10.5L324.1,369.8z"/>
					<path class="st14" d="M324.1,370c-5-2.9-13.1-2.9-18.1,0L262,395.3c-5,2.9-5,7.6,0,10.5l43.9,25.4c5,2.9,13.1,2.9,18.1,0
						l43.9-25.4c5-2.9,5-7.6,0-10.5L324.1,370z"/>
					<path class="st15" d="M324,370.1c-5-2.9-13.1-2.9-18,0l-43.7,25.2c-5,2.9-5,7.6,0,10.4L306,431c5,2.9,13.1,2.9,18,0l43.7-25.2
						c5-2.9,5-7.5,0-10.4L324,370.1z"/>
					<path class="st16" d="M324,370.3c-4.9-2.8-13-2.8-17.9,0l-43.5,25.1c-4.9,2.8-4.9,7.5,0,10.4l43.5,25.1c4.9,2.8,13,2.8,17.9,0
						l43.5-25.1c4.9-2.8,4.9-7.5,0-10.4L324,370.3z"/>
					<path class="st17" d="M323.9,370.5c-4.9-2.8-12.9-2.8-17.9,0l-43.2,25c-4.9,2.8-4.9,7.5,0,10.3l43.2,25
						c4.9,2.8,12.9,2.8,17.9,0l43.2-25c4.9-2.8,4.9-7.5,0-10.3L323.9,370.5z"/>
					<path class="st18" d="M323.9,370.6c-4.9-2.8-12.9-2.8-17.8,0l-43,24.8c-4.9,2.8-4.9,7.4,0,10.3l43,24.8
						c4.9,2.8,12.9,2.8,17.8,0l43-24.8c4.9-2.8,4.9-7.4,0-10.3L323.9,370.6z"/>
					<path class="st19" d="M323.8,370.8c-4.9-2.8-12.8-2.8-17.7,0l-42.8,24.7c-4.9,2.8-4.9,7.4,0,10.2l42.8,24.7
						c4.9,2.8,12.8,2.8,17.7,0l42.8-24.7c4.9-2.8,4.9-7.4,0-10.2L323.8,370.8z"/>
					<path class="st20" d="M323.8,370.9c-4.8-2.8-12.7-2.8-17.6,0l-42.6,24.6c-4.8,2.8-4.8,7.4,0,10.1l42.6,24.6
						c4.8,2.8,12.7,2.8,17.6,0l42.6-24.6c4.8-2.8,4.8-7.4,0-10.1L323.8,370.9z"/>
					<path class="st21" d="M323.7,371.1c-4.8-2.8-12.7-2.8-17.5,0l-42.3,24.5c-4.8,2.8-4.8,7.3,0,10.1l42.3,24.5
						c4.8,2.8,12.7,2.8,17.5,0l42.3-24.5c4.8-2.8,4.8-7.3,0-10.1L323.7,371.1z"/>
					<path class="st22" d="M323.7,371.2c-4.8-2.8-12.6-2.8-17.4,0l-42.1,24.3c-4.8,2.8-4.8,7.3,0,10l42.1,24.3
						c4.8,2.8,12.6,2.8,17.4,0l42.1-24.3c4.8-2.8,4.8-7.3,0-10L323.7,371.2z"/>
					<path class="st23" d="M323.6,371.4c-4.8-2.7-12.5-2.7-17.3,0l-41.9,24.2c-4.8,2.7-4.8,7.2,0,10l41.9,24.2
						c4.8,2.7,12.5,2.7,17.3,0l41.9-24.2c4.8-2.7,4.8-7.2,0-10L323.6,371.4z"/>
					<path class="st24" d="M323.6,371.5c-4.7-2.7-12.5-2.7-17.2,0l-41.7,24.1c-4.7,2.7-4.7,7.2,0,9.9l41.7,24.1
						c4.7,2.7,12.5,2.7,17.2,0l41.7-24.1c4.7-2.7,4.7-7.2,0-9.9L323.6,371.5z"/>
					<path class="st25" d="M323.6,371.7c-4.7-2.7-12.4-2.7-17.1,0L265,395.6c-4.7,2.7-4.7,7.2,0,9.9l41.5,23.9
						c4.7,2.7,12.4,2.7,17.1,0l41.4-23.9c4.7-2.7,4.7-7.2,0-9.9L323.6,371.7z"/>
					<path class="st26" d="M323.5,371.9c-4.7-2.7-12.3-2.7-17,0l-41.2,23.8c-4.7,2.7-4.7,7.1,0,9.8l41.2,23.8c4.7,2.7,12.3,2.7,17,0
						l41.2-23.8c4.7-2.7,4.7-7.1,0-9.8L323.5,371.9z"/>
					<path class="st27" d="M323.5,372c-4.7-2.7-12.3-2.7-16.9,0l-41,23.7c-4.7,2.7-4.7,7.1,0,9.8l41,23.7c4.7,2.7,12.3,2.7,16.9,0
						l41-23.7c4.7-2.7,4.7-7.1,0-9.8L323.5,372z"/>
					<path class="st28" d="M323.4,372.2c-4.6-2.7-12.2-2.7-16.8,0l-40.8,23.5c-4.6,2.7-4.6,7,0,9.7l40.8,23.5
						c4.6,2.7,12.2,2.7,16.8,0l40.8-23.5c4.6-2.7,4.6-7,0-9.7L323.4,372.2z"/>
					<path class="st29" d="M323.4,372.3c-4.6-2.7-12.1-2.7-16.7,0l-40.6,23.4c-4.6,2.7-4.6,7,0,9.7l40.6,23.4
						c4.6,2.7,12.1,2.7,16.7,0l40.6-23.4c4.6-2.7,4.6-7,0-9.7L323.4,372.3z"/>
					<path class="st30" d="M323.3,372.5c-4.6-2.6-12.1-2.6-16.6,0l-40.3,23.3c-4.6,2.6-4.6,7,0,9.6l40.3,23.3
						c4.6,2.6,12.1,2.6,16.6,0l40.3-23.3c4.6-2.6,4.6-7,0-9.6L323.3,372.5z"/>
					<path class="st31" d="M323.3,372.6c-4.6-2.6-12-2.6-16.6,0l-40.1,23.2c-4.6,2.6-4.6,6.9,0,9.6l40.1,23.2c4.6,2.6,12,2.6,16.6,0
						l40.1-23.2c4.6-2.6,4.6-6.9,0-9.6L323.3,372.6z"/>
					<path class="st32" d="M323.2,372.8c-4.5-2.6-11.9-2.6-16.5,0l-39.9,23c-4.5,2.6-4.5,6.9,0,9.5l39.9,23c4.5,2.6,11.9,2.6,16.5,0
						l39.9-23c4.5-2.6,4.5-6.9,0-9.5L323.2,372.8z"/>
					<path class="st33" d="M323.2,373c-4.5-2.6-11.9-2.6-16.4,0l-39.7,22.9c-4.5,2.6-4.5,6.9,0,9.4l39.7,22.9
						c4.5,2.6,11.9,2.6,16.4,0l39.7-22.9c4.5-2.6,4.5-6.9,0-9.4L323.2,373z"/>
					<path class="st34" d="M323.1,373.1c-4.5-2.6-11.8-2.6-16.3,0l-39.4,22.8c-4.5,2.6-4.5,6.8,0,9.4l39.4,22.8
						c4.5,2.6,11.8,2.6,16.3,0l39.4-22.8c4.5-2.6,4.5-6.8,0-9.4L323.1,373.1z"/>
					<path class="st35" d="M323.1,373.3c-4.5-2.6-11.7-2.6-16.2,0l-39.2,22.6c-4.4,2.6-4.4,6.8,0,9.3l39.2,22.6
						c4.4,2.6,11.7,2.6,16.2,0l39.2-22.6c4.5-2.6,4.5-6.8,0-9.3L323.1,373.3z"/>
					<path class="st36" d="M323,373.4c-4.4-2.6-11.7-2.6-16.1,0l-39,22.5c-4.4,2.6-4.4,6.7,0,9.3l39,22.5c4.4,2.6,11.7,2.6,16.1,0
						l39-22.5c4.4-2.6,4.4-6.7,0-9.3L323,373.4z"/>
					<path class="st37" d="M323,373.6c-4.4-2.5-11.6-2.5-16,0L268.2,396c-4.4,2.5-4.4,6.7,0,9.2l38.8,22.4c4.4,2.5,11.6,2.5,16,0
						l38.8-22.4c4.4-2.5,4.4-6.7,0-9.2L323,373.6z"/>
					<path class="st38" d="M323,373.7c-4.4-2.5-11.5-2.5-15.9,0L268.5,396c-4.4,2.5-4.4,6.7,0,9.2l38.5,22.2
						c4.4,2.5,11.5,2.5,15.9,0l38.5-22.2c4.4-2.5,4.4-6.7,0-9.2L323,373.7z"/>
					<path class="st39" d="M322.9,373.9c-4.3-2.5-11.5-2.5-15.8,0L268.8,396c-4.3,2.5-4.3,6.6,0,9.1l38.3,22.1
						c4.3,2.5,11.5,2.5,15.8,0l38.3-22.1c4.3-2.5,4.3-6.6,0-9.1L322.9,373.9z"/>
					<path class="st40" d="M322.9,374.1c-4.3-2.5-11.4-2.5-15.7,0l-38.1,22c-4.3,2.5-4.3,6.6,0,9.1l38.1,22c4.3,2.5,11.4,2.5,15.7,0
						l38.1-22c4.3-2.5,4.3-6.6,0-9.1L322.9,374.1z"/>
					<path class="st41" d="M322.8,374.2c-4.3-2.5-11.3-2.5-15.6,0l-37.9,21.9c-4.3,2.5-4.3,6.5,0,9l37.9,21.9
						c4.3,2.5,11.3,2.5,15.6,0l37.9-21.9c4.3-2.5,4.3-6.5,0-9L322.8,374.2z"/>
					<path class="st42" d="M322.8,374.4c-4.3-2.5-11.3-2.5-15.5,0l-37.6,21.7c-4.3,2.5-4.3,6.5,0,9l37.6,21.7
						c4.3,2.5,11.3,2.5,15.5,0l37.6-21.7c4.3-2.5,4.3-6.5,0-9L322.8,374.4z"/>
					<path class="st43" d="M322.7,374.5c-4.2-2.5-11.2-2.5-15.4,0l-37.4,21.6c-4.2,2.5-4.2,6.5,0,8.9l37.4,21.6
						c4.2,2.5,11.2,2.5,15.4,0l37.4-21.6c4.2-2.5,4.2-6.5,0-8.9L322.7,374.5z"/>
					<path class="st44" d="M322.7,374.7c-4.2-2.4-11.1-2.4-15.3,0l-37.2,21.5c-4.2,2.4-4.2,6.4,0,8.9l37.2,21.5
						c4.2,2.4,11.1,2.4,15.3,0l37.2-21.5c4.2-2.4,4.2-6.4,0-8.9L322.7,374.7z"/>
					<path class="st45" d="M322.6,374.8c-4.2-2.4-11.1-2.4-15.3,0l-37,21.3c-4.2,2.4-4.2,6.4,0,8.8l37,21.3c4.2,2.4,11.1,2.4,15.3,0
						l37-21.3c4.2-2.4,4.2-6.4,0-8.8L322.6,374.8z"/>
					<path class="st46" d="M322.6,375c-4.2-2.4-11-2.4-15.2,0l-36.7,21.2c-4.2,2.4-4.2,6.3,0,8.8l36.7,21.2c4.2,2.4,11,2.4,15.2,0
						l36.7-21.2c4.2-2.4,4.2-6.3,0-8.8L322.6,375z"/>
					<path class="st47" d="M322.5,375.1c-4.1-2.4-10.9-2.4-15.1,0L271,396.2c-4.1,2.4-4.1,6.3,0,8.7l36.5,21.1
						c4.1,2.4,10.9,2.4,15.1,0l36.5-21.1c4.1-2.4,4.1-6.3,0-8.7L322.5,375.1z"/>
					<path class="st48" d="M322.5,375.3c-4.1-2.4-10.9-2.4-15,0l-36.3,20.9c-4.1,2.4-4.1,6.3,0,8.6l36.3,20.9c4.1,2.4,10.9,2.4,15,0
						l36.3-20.9c4.1-2.4,4.1-6.3,0-8.6L322.5,375.3z"/>
					<path class="st49" d="M322.4,375.5c-4.1-2.4-10.8-2.4-14.9,0l-36.1,20.8c-4.1,2.4-4.1,6.2,0,8.6l36.1,20.8
						c4.1,2.4,10.8,2.4,14.9,0l36.1-20.8c4.1-2.4,4.1-6.2,0-8.6L322.4,375.5z"/>
					<path class="st50" d="M322.4,375.6c-4.1-2.3-10.7-2.3-14.8,0l-35.8,20.7c-4.1,2.3-4.1,6.2,0,8.5l35.8,20.7
						c4.1,2.3,10.7,2.3,14.8,0l35.8-20.7c4.1-2.3,4.1-6.2,0-8.5L322.4,375.6z"/>
					<path class="st51" d="M322.3,375.8c-4-2.3-10.7-2.3-14.7,0L272,396.3c-4,2.3-4,6.2,0,8.5l35.6,20.6c4,2.3,10.7,2.3,14.7,0
						l35.6-20.6c4-2.3,4-6.2,0-8.5L322.3,375.8z"/>
					<path id="XMLID_799_" class="st52" d="M322.3,375.9c-4-2.3-10.6-2.3-14.6,0l-35.4,20.4c-4,2.3-4,6.1,0,8.4l35.4,20.4
						c4,2.3,10.6,2.3,14.6,0l35.4-20.4c4-2.3,4-6.1,0-8.4L322.3,375.9z"/>
				</g>
				<linearGradient id="XMLID_65_" gradientUnits="userSpaceOnUse" x1="260.1069" y1="399.3089" x2="369.8905" y2="399.3089">
					<stop  offset="0" style="stop-color:#B4ACBF"/>
					<stop  offset="0.5146" style="stop-color:#D1C8DE"/>
					<stop  offset="1" style="stop-color:#F0E5FF"/>
				</linearGradient>
				<path id="XMLID_26131_" class="st119" d="M312.8,367.6l-52.7,25v7.2c0,0.4,0.2,0.8,0.6,1l52.1,30.1c1.4,0.8,3,0.8,4.4,0l52-30.1
					c0.4-0.2,0.7-0.7,0.7-1.1v-7.1l-52.7-25C315.8,366.8,314.2,366.8,312.8,367.6z"/>
				<linearGradient id="XMLID_66_" gradientUnits="userSpaceOnUse" x1="260.1068" y1="392.665" x2="369.8906" y2="392.665">
					<stop  offset="0" style="stop-color:#F0E5FF"/>
					<stop  offset="1" style="stop-color:#FFFFFF"/>
				</linearGradient>
				<path id="XMLID_26129_" class="st120" d="M312.8,361l-51.6,29.8c-1.5,0.8-1.5,2.9,0,3.8l51.6,29.8c1.4,0.8,3,0.8,4.4,0
					l51.6-29.8c1.5-0.8,1.5-2.9,0-3.8L317.2,361C315.8,360.2,314.2,360.2,312.8,361z"/>
			</g>
			<g>
				<linearGradient id="XMLID_70_" gradientUnits="userSpaceOnUse" x1="275.5509" y1="391.6499" x2="353.8556" y2="391.6499">
					<stop  offset="0" style="stop-color:#F0E5FF"/>
					<stop  offset="1" style="stop-color:#FFFFFF"/>
				</linearGradient>
				<path id="XMLID_26127_" class="st121" d="M313.1,369.1l-36.8,21.2c-1,0.6-1,2.1,0,2.7l36.8,21.2c1,0.6,2.2,0.6,3.1,0l36.8-21.2
					c1-0.6,1-2.1,0-2.7l-36.8-21.2C315.3,368.5,314.1,368.5,313.1,369.1z"/>
				<linearGradient id="XMLID_71_" gradientUnits="userSpaceOnUse" x1="275.5584" y1="402.7253" x2="353.8482" y2="402.7253">
					<stop  offset="0" style="stop-color:#B4ACBF"/>
					<stop  offset="0.5146" style="stop-color:#D1C8DE"/>
					<stop  offset="1" style="stop-color:#F0E5FF"/>
				</linearGradient>
				<path id="XMLID_26126_" class="st122" d="M353.1,391.3l-36.8,21.2c-1,0.6-2.2,0.6-3.1,0l-36.8-21.2c-0.2-0.1-0.4-0.3-0.5-0.5
					c-0.5,0.7-0.3,1.7,0.5,2.2l36.8,21.2c1,0.6,2.2,0.6,3.1,0l36.8-21.2c0.8-0.5,1-1.5,0.5-2.2C353.5,391,353.3,391.1,353.1,391.3z"
					/>
				<linearGradient id="XMLID_72_" gradientUnits="userSpaceOnUse" x1="283.8853" y1="389.8681" x2="345.7693" y2="389.8681">
					<stop  offset="0" style="stop-color:#2F1359"/>
					<stop  offset="1" style="stop-color:#491E8C"/>
				</linearGradient>
				<path id="XMLID_26125_" class="st123" d="M313.6,372l-29.1,16.8c-0.8,0.5-0.8,1.7,0,2.1l29.1,16.8c0.8,0.4,1.7,0.4,2.5,0
					l29.1-16.8c0.8-0.5,0.8-1.7,0-2.1L316.1,372C315.3,371.6,314.4,371.6,313.6,372z"/>
				<linearGradient id="XMLID_73_" gradientUnits="userSpaceOnUse" x1="290.4451" y1="389.8681" x2="339.2095" y2="389.8681">
					<stop  offset="0.1499" style="stop-color:#FF9800"/>
					<stop  offset="1" style="stop-color:#FFC107"/>
				</linearGradient>
				<path id="XMLID_26124_" class="st124" d="M313.8,375.8L290.9,389c-0.6,0.4-0.6,1.3,0,1.7l22.9,13.2c0.6,0.3,1.4,0.3,2,0
					l22.9-13.2c0.6-0.4,0.6-1.3,0-1.7l-22.9-13.2C315.2,375.4,314.5,375.4,313.8,375.8z"/>
				<path id="XMLID_26123_" class="st59" d="M290.9,389.6l22.9-13.2c0.6-0.3,1.4-0.3,2,0l22.9,13.2c0.2,0.1,0.4,0.3,0.4,0.6
					c0.1-0.4,0-0.9-0.4-1.1l-22.9-13.2c-0.6-0.3-1.4-0.3-2,0L290.9,389c-0.4,0.2-0.6,0.7-0.4,1.1
					C290.6,389.9,290.7,389.7,290.9,389.6z"/>
				<path id="XMLID_26122_" class="st60" d="M345.2,390.1l-29.1,16.8c-0.8,0.4-1.7,0.4-2.5,0l-29.1-16.8c-0.3-0.2-0.4-0.4-0.5-0.6
					c-0.2,0.5,0,1.2,0.5,1.5l29.1,16.8c0.8,0.4,1.7,0.4,2.5,0l29.1-16.8c0.6-0.3,0.7-1,0.5-1.5C345.6,389.7,345.4,389.9,345.2,390.1
					z"/>
				<g id="XMLID_26029_">
					<g>
						<g>
							<defs>
								<path id="XMLID_56_" d="M313.8,375.8L290.9,389c-0.6,0.4-0.6,1.3,0,1.7l22.9,13.2c0.6,0.3,1.4,0.3,2,0l22.9-13.2
									c0.6-0.4,0.6-1.3,0-1.7l-22.9-13.2C315.2,375.4,314.5,375.4,313.8,375.8z"/>
							</defs>
							<clipPath id="XMLID_74_">
								<use xlink:href="#XMLID_56_"  style="overflow:visible;"/>
							</clipPath>
						</g>
					</g>
					<g>
						<path id="XMLID_55_" class="st60" d="M313.8,375.8L290.9,389c-0.6,0.4-0.6,1.3,0,1.7l22.9,13.2c0.6,0.3,1.4,0.3,2,0l22.9-13.2
							c0.6-0.4,0.6-1.3,0-1.7l-22.9-13.2C315.2,375.4,314.5,375.4,313.8,375.8z"/>
						<g id="XMLID_47_">
							<g>
								<linearGradient id="XMLID_75_" gradientUnits="userSpaceOnUse" x1="314.8273" y1="404.2012" x2="314.8273" y2="316.5339">
									<stop  offset="0" style="stop-color:#C2A3FF;stop-opacity:0.7"/>
									<stop  offset="8.197117e-02" style="stop-color:#CBAFFF;stop-opacity:0.6426"/>
									<stop  offset="0.2782" style="stop-color:#DBC7FF;stop-opacity:0.5053"/>
									<stop  offset="0.4872" style="stop-color:#E7D8FF;stop-opacity:0.359"/>
									<stop  offset="0.7156" style="stop-color:#EEE2FF;stop-opacity:0.1991"/>
									<stop  offset="1" style="stop-color:#F0E5FF;stop-opacity:0"/>
								</linearGradient>
								<path id="XMLID_49_" class="st125" d="M290.4,316.5c0,0,0,73,0,73.3c0,0.3,0.2,0.7,0.5,0.8l22.9,13.2c0.6,0.3,1.4,0.3,2,0
									l22.9-13.2c0.3-0.2,0.5-0.5,0.5-0.8c0-0.3,0-73.3,0-73.3H290.4z"/>
							</g>
						</g>
						<g>
							<defs>
								<path id="XMLID_45_" d="M313.8,375.8L290.9,389c-0.6,0.4-0.6,1.3,0,1.7l22.9,13.2c0.6,0.3,1.4,0.3,2,0l22.9-13.2
									c0.6-0.4,0.6-1.3,0-1.7l-22.9-13.2C315.2,375.4,314.5,375.4,313.8,375.8z"/>
							</defs>
							<clipPath id="XMLID_76_">
								<use xlink:href="#XMLID_45_"  style="overflow:visible;"/>
							</clipPath>
							<radialGradient id="XMLID_77_" cx="314.8273" cy="390.8256" r="19.9991" gradientUnits="userSpaceOnUse">
								<stop  offset="0" style="stop-color:#FFFFFF"/>
								<stop  offset="1" style="stop-color:#C2A3FF"/>
							</radialGradient>
							<path id="XMLID_46_" class="st126" d="M313.8,376.8L290.9,390c-0.6,0.4-0.6,1.3,0,1.7l22.9,13.2c0.6,0.3,1.4,0.3,2,0
								l22.9-13.2c0.6-0.4,0.6-1.3,0-1.7l-22.9-13.2C315.2,376.4,314.5,376.4,313.8,376.8z"/>
						</g>
					</g>
					<g>
						<g>
							<defs>
								<path id="XMLID_39_" d="M313.8,375.8L290.9,389c-0.6,0.4-0.6,1.3,0,1.7l22.9,13.2c0.6,0.3,1.4,0.3,2,0l22.9-13.2
									c0.6-0.4,0.6-1.3,0-1.7l-22.9-13.2C315.2,375.4,314.5,375.4,313.8,375.8z"/>
							</defs>
							<clipPath id="XMLID_78_">
								<use xlink:href="#XMLID_39_"  style="overflow:visible;"/>
							</clipPath>
						</g>
					</g>
				</g>
				<g>
					<linearGradient id="XMLID_79_" gradientUnits="userSpaceOnUse" x1="314.8273" y1="395.1263" x2="314.8273" y2="379.0218">
						<stop  offset="0" style="stop-color:#FFFFFF;stop-opacity:0.7"/>
						<stop  offset="1" style="stop-color:#F0E5FF;stop-opacity:0"/>
					</linearGradient>
					<path id="XMLID_26028_" class="st127" d="M290.9,379.5c-0.6,0.4-0.6,1.3,0,1.7l22.9,13.2c0.6,0.3,1.4,0.3,2,0l22.9-13.2
						c0.6-0.4,0.6-1.3,0-1.7"/>
					<linearGradient id="XMLID_80_" gradientUnits="userSpaceOnUse" x1="314.8273" y1="385.5514" x2="314.8273" y2="369.4469">
						<stop  offset="0" style="stop-color:#FFFFFF;stop-opacity:0.7"/>
						<stop  offset="1" style="stop-color:#F0E5FF;stop-opacity:0"/>
					</linearGradient>
					<path id="XMLID_26027_" class="st128" d="M290.9,369.9c-0.6,0.4-0.6,1.3,0,1.7l22.9,13.2c0.6,0.3,1.4,0.3,2,0l22.9-13.2
						c0.6-0.4,0.6-1.3,0-1.7"/>
					<linearGradient id="XMLID_81_" gradientUnits="userSpaceOnUse" x1="314.8273" y1="375.9765" x2="314.8273" y2="359.8719">
						<stop  offset="0" style="stop-color:#FFFFFF;stop-opacity:0.7"/>
						<stop  offset="1" style="stop-color:#F0E5FF;stop-opacity:0"/>
					</linearGradient>
					<path id="XMLID_26026_" class="st129" d="M290.9,360.3c-0.6,0.4-0.6,1.3,0,1.7l22.9,13.2c0.6,0.3,1.4,0.3,2,0l22.9-13.2
						c0.6-0.4,0.6-1.3,0-1.7"/>
					<linearGradient id="XMLID_82_" gradientUnits="userSpaceOnUse" x1="314.8273" y1="366.4016" x2="314.8273" y2="350.2971">
						<stop  offset="0" style="stop-color:#FFFFFF;stop-opacity:0.7"/>
						<stop  offset="1" style="stop-color:#F0E5FF;stop-opacity:0"/>
					</linearGradient>
					<path id="XMLID_26024_" class="st130" d="M290.9,350.7c-0.6,0.4-0.6,1.3,0,1.7l22.9,13.2c0.6,0.3,1.4,0.3,2,0l22.9-13.2
						c0.6-0.4,0.6-1.3,0-1.7"/>
					<linearGradient id="XMLID_83_" gradientUnits="userSpaceOnUse" x1="314.8273" y1="356.8267" x2="314.8273" y2="340.7222">
						<stop  offset="0" style="stop-color:#FFFFFF;stop-opacity:0.7"/>
						<stop  offset="1" style="stop-color:#F0E5FF;stop-opacity:0"/>
					</linearGradient>
					<path id="XMLID_26022_" class="st131" d="M290.9,341.2c-0.6,0.4-0.6,1.3,0,1.7l22.9,13.2c0.6,0.3,1.4,0.3,2,0l22.9-13.2
						c0.6-0.4,0.6-1.3,0-1.7"/>
					<linearGradient id="XMLID_84_" gradientUnits="userSpaceOnUse" x1="314.8273" y1="347.2518" x2="314.8273" y2="331.1473">
						<stop  offset="0" style="stop-color:#FFFFFF;stop-opacity:0.7"/>
						<stop  offset="1" style="stop-color:#F0E5FF;stop-opacity:0"/>
					</linearGradient>
					<path id="XMLID_25825_" class="st132" d="M290.9,331.6c-0.6,0.4-0.6,1.3,0,1.7l22.9,13.2c0.6,0.3,1.4,0.3,2,0l22.9-13.2
						c0.6-0.4,0.6-1.3,0-1.7"/>
					<linearGradient id="XMLID_85_" gradientUnits="userSpaceOnUse" x1="314.8273" y1="337.6769" x2="314.8273" y2="321.5724">
						<stop  offset="0" style="stop-color:#FFFFFF;stop-opacity:0.7"/>
						<stop  offset="1" style="stop-color:#F0E5FF;stop-opacity:0"/>
					</linearGradient>
					<path id="XMLID_25824_" class="st133" d="M290.9,322c-0.6,0.4-0.6,1.3,0,1.7l22.9,13.2c0.6,0.3,1.4,0.3,2,0l22.9-13.2
						c0.6-0.4,0.6-1.3,0-1.7"/>
				</g>
			</g>
		</g>
	</g>
</g>
</svg>
