<?xml version="1.0" encoding="utf-8"?>
<!-- Generator: Adobe Illustrator 21.0.0, SVG Export Plug-In . SVG Version: 6.00 Build 0)  -->
<svg version="1.1" id="Layer_1" xmlns="http://www.w3.org/2000/svg" xmlns:xlink="http://www.w3.org/1999/xlink" x="0px" y="0px"
	 viewBox="0 0 459 100" style="enable-background:new 0 0 459 100;" xml:space="preserve">
<style type="text/css">
	.st0{fill:#243746;}
	.st1{fill:#99E1F4;}
	.st2{fill:#1A82E2;}
	.st3{fill:#00B2E3;}
	.st4{fill:#009DD9;}
</style>
<g>
	<g>
		<path class="st0" d="M94.7,88l11.6-9.1c3.2,5.6,8.4,8.9,14.4,8.9c6.4,0,9.9-4.2,9.9-8.8c0-5.4-6.6-7.2-13.7-9.4
			C107.9,66.9,98,63.5,98,50.8c0-10.6,9.3-19.1,22.1-19.1c10.8,0,17,4.1,22.4,9.6L132,49.2c-2.8-4.1-6.6-6.2-11.8-6.2
			c-5.9,0-9.1,3.2-9.1,7.4c0,5.1,6.4,6.8,13.4,9.2c9,2.9,19.2,6.9,19.2,19.6c0,10.6-8.4,20.7-23,20.7C108.7,99.9,100.7,94.8,94.7,88
			z M196.3,53.6h12.4v5.1c2.9-3.8,7.4-6,12.6-6c10.7,0,17.2,6.9,17.2,18.6v27.7h-12.7V72.9c0-6.1-2.8-9.6-8.4-9.6
			c-4.8,0-8.6,3.2-8.6,10.9v24.8h-12.4L196.3,53.6L196.3,53.6z M241.3,76.3c0-16.1,11.8-23.6,22.1-23.6c5.9,0,10.6,2.2,13.6,5.4
			V32.7h12.4V99h-12.4v-5.1c-3,3.6-7.8,6-13.7,6C253.5,99.9,241.3,92.2,241.3,76.3z M277.2,76.2c0-6.8-4.9-12.2-11.6-12.2
			c-6.9,0-12.2,5.2-12.2,12.2c0,7,5.2,12.2,12.2,12.2C272.3,88.4,277.2,82.9,277.2,76.2z M292.2,65.9c0-18.9,14.2-34.1,33.9-34.1
			c9.8,0,18.1,3.6,24.1,9.2c2.4,2.3,4.5,4.9,6.1,7.8l-11.1,6.8c-4.1-7.6-10.4-11.4-19-11.4c-12.1,0-21.4,9.9-21.4,21.8
			c0,12.2,9.2,21.8,21.9,21.8c9.6,0,16.4-5.4,18.8-13.9h-20.8V61.8h34.4v5.1c0,17.8-12.7,33.1-32.4,33.1
			C305.9,99.9,292.2,84.2,292.2,65.9z M362.2,53.6h12.4V61c2.2-4.7,6.4-7.4,12.6-7.4h5l-4.5,12.1h-3.4c-6.6,0-9.6,3.4-9.6,11.9v21.4
			h-12.4L362.2,53.6L362.2,53.6z M395.3,53.6h12.4V99h-12.4V65.7h-4.5L395.3,53.6z M401.6,46.7c4.1,0,7.4-3.3,7.4-7.4
			s-3.3-7.4-7.4-7.4c-4.1,0-7.4,3.3-7.4,7.4C394.2,43.3,397.5,46.7,401.6,46.7z M410.7,76.3c0-16.1,11.8-23.6,22.1-23.6
			c5.9,0,10.6,2.2,13.6,5.4V32.7h12.4V99h-12.4v-5.1c-3,3.6-7.8,6-13.7,6C423,99.9,410.7,92.2,410.7,76.3z M446.7,76.2
			c0-6.8-4.9-12.2-11.6-12.2c-6.9,0-12.2,5.2-12.2,12.2c0,7,5.2,12.2,12.2,12.2C441.8,88.4,446.7,82.9,446.7,76.2z M193.3,76.2
			c0-13.1-9.6-23.5-23.4-23.5c-13.1,0-23.6,10.6-23.6,23.6s9.8,23.6,24,23.6c9.8,0,16.9-4.8,20.8-11.5l-9.9-5.9
			c-2.1,4-6.1,6.5-10.9,6.5c-6.6,0-10.6-3.2-12.1-8.2h35.1L193.3,76.2L193.3,76.2z M158.8,70.8c1.9-4.2,5.9-7.2,11.2-7.2
			c5.2,0,9.2,2.4,10.8,7.2H158.8z"/>
	</g>
	<g>
		<rect x="26.7" y="72.5" class="st1" width="26.5" height="26.5"/>
		<polygon class="st1" points="26.7,45.9 26.7,45.9 26.7,45.9 0.2,45.9 0.2,72.5 26.7,72.5 		"/>
		<rect x="0.2" y="72.5" class="st2" width="26.5" height="26.5"/>
		<polygon class="st3" points="79.8,45.9 79.8,45.9 53.3,45.9 53.3,72.5 79.8,72.5 		"/>
		<rect x="26.7" y="19.4" class="st3" width="26.5" height="26.5"/>
		<polygon class="st4" points="26.7,45.9 26.7,72.5 53.3,72.5 53.3,45.9 53.3,45.9 		"/>
		<rect x="53.3" y="19.4" class="st2" width="26.5" height="26.5"/>
	</g>
	<g>
		<g>
			<path class="st0" d="M107.2,3.4v15.4h-3.6V3.4h-5.5V0.3h14.6v3.1L107.2,3.4L107.2,3.4z"/>
			<path class="st0" d="M138.8,18.9h-3.4l-4.1-13.5l-4.1,13.5h-3.4l-5.2-18.6l3.8,0.1l3.4,13.1l3.9-13.1h3.6l3.9,13.1l3.4-13.1h3.6
				L138.8,18.9z"/>
			<path class="st0" d="M151.2,18.9V0.3h3.6v18.6H151.2z"/>
			<path class="st0" d="M163,18.9V0.3h3.6v15.4h6.2l0.1,3.1H163z"/>
			<path class="st0" d="M180.2,18.9V0.3h3.6v18.6H180.2z"/>
			<path class="st0" d="M200.1,19.3c-5.2,0-8.7-3.9-8.7-9.6s3.4-9.6,8.8-9.6s8.7,3.9,8.7,9.6C208.8,15.3,205.4,19.3,200.1,19.3z
				 M200.1,2.9c-3.2,0-5.1,2.6-5.1,6.7s1.9,6.7,5.1,6.7c3.2,0,5.1-2.6,5.1-6.7S203.3,2.9,200.1,2.9z"/>
		</g>
	</g>
</g>
</svg>
