<svg xmlns="http://www.w3.org/2000/svg" xmlns:xlink="http://www.w3.org/1999/xlink" id="Layer_1" x="0" y="0" enable-background="new 0 0 490 490" version="1.1" viewBox="0 0 490 490" xml:space="preserve"><style type="text/css">.st0{opacity:.68}.st1{opacity:0;fill:#fff}.st2{opacity:1.960800e-02;fill:#fcfcff}.st3{opacity:3.921600e-02;fill:#f8f9ff}.st4{opacity:5.882400e-02;fill:#f5f6ff}.st5{opacity:7.843100e-02;fill:#f2f4ff}.st6{opacity:9.803900e-02;fill:#eef1ff}.st7{opacity:.1176;fill:#ebeeff}.st8{opacity:.1373;fill:#e7ebff}.st9{opacity:.1569;fill:#e4e8ff}.st10{opacity:.1765;fill:#e1e5ff}.st11{opacity:.1961;fill:#dde2ff}.st12{opacity:.2157;fill:#dae0ff}.st13{opacity:.2353;fill:#d7ddff}.st14{opacity:.2549;fill:#d3daff}.st15{opacity:.2745;fill:#d0d7ff}.st16{opacity:.2941;fill:#ccd4ff}.st17{opacity:.3137;fill:#c9d1ff}.st18{opacity:.3333;fill:#c6ceff}.st19{opacity:.3529;fill:#c2cbff}.st20{opacity:.3725;fill:#bfc9ff}.st21{opacity:.3922;fill:#bcc6ff}.st22{opacity:.4118;fill:#b8c3ff}.st23{opacity:.4314;fill:#b5c0ff}.st24{opacity:.451;fill:#b1bdff}.st25{opacity:.4706;fill:#aebaff}.st26{opacity:.4902;fill:#abb7ff}.st27{opacity:.5098;fill:#a7b5fe}.st28{opacity:.5294;fill:#a4b2fe}.st29{opacity:.549;fill:#a1affe}.st30{opacity:.5686;fill:#9dacfe}.st31{opacity:.5882;fill:#9aa9fe}.st32{opacity:.6078;fill:#96a6fe}.st33{opacity:.6275;fill:#93a3fe}.st34{opacity:.6471;fill:#90a1fe}.st35{opacity:.6667;fill:#8c9efe}.st36{opacity:.6863;fill:#899bfe}.st37{opacity:.7059;fill:#8698fe}.st38{opacity:.7255;fill:#8295fe}.st39{opacity:.7451;fill:#7f92fe}.st40{opacity:.7647;fill:#7b8ffe}.st41{opacity:.7843;fill:#788cfe}.st42{opacity:.8039;fill:#758afe}.st43{opacity:.8235;fill:#7187fe}.st44{opacity:.8431;fill:#6e84fe}.st45{opacity:.8627;fill:#6b81fe}.st46{opacity:.8824;fill:#677efe}.st47{opacity:.902;fill:#647bfe}.st48{opacity:.9216;fill:#6078fe}.st49{opacity:.9412;fill:#5d76fe}.st50{opacity:.9608;fill:#5a73fe}.st51{opacity:.9804;fill:#5670fe}.st52{fill:#536dfe}.st53{fill:url(#XMLID_2_)}.st54{fill:url(#XMLID_3_)}.st55{fill:url(#XMLID_4_)}.st56{fill:url(#XMLID_5_)}.st57{fill:url(#XMLID_6_)}.st58{fill:url(#XMLID_7_)}.st59{opacity:.43;fill:url(#XMLID_8_)}.st60{fill:url(#XMLID_9_)}.st61{fill:url(#XMLID_10_)}.st62{fill:url(#XMLID_11_)}.st63{fill:url(#XMLID_12_)}.st64{fill:url(#XMLID_13_)}.st65{fill:url(#XMLID_14_)}.st66{opacity:.43;fill:url(#XMLID_15_)}.st67{fill:url(#XMLID_16_)}.st68{fill:url(#XMLID_17_)}.st69{fill:url(#XMLID_18_)}.st70{fill:url(#XMLID_19_)}.st71{fill:url(#XMLID_20_)}.st72{fill:url(#XMLID_21_)}.st73{opacity:.43;fill:url(#XMLID_22_)}.st74{fill:url(#SVGID_1_)}.st75{fill:url(#SVGID_2_)}.st76{enable-background:new}.st77{fill:#fff}.st78,.st79{fill:#491e8c}.st79{opacity:.4;enable-background:new}.st80{fill:#343434}.st81{fill:#8c8c8c}.st82{fill:#3c3c3b}.st83{fill:#141414}.st84{fill:#393939}.st85{fill:#9de1f3}.st86{fill:#27b4e1}.st87{fill:#1a82e2}.st88{fill:#239fd7}</style><g><g><g><g><g><g class="st0"><path id="XMLID_945_" d="M125.2,286.1c-8-4.6-21-4.6-29,0L26,326.6c-8,4.6-8,12.1,0,16.7l70.2,40.5 c8,4.6,21,4.6,29,0l70.2-40.5c8-4.6,8-12.1,0-16.7L125.2,286.1z" class="st1"/><path d="M125.1,286.3c-7.9-4.6-20.9-4.6-28.8,0l-69.9,40.3c-7.9,4.6-7.9,12.1,0,16.7l69.9,40.3 c7.9,4.6,20.9,4.6,28.8,0l69.9-40.3c7.9-4.6,7.9-12.1,0-16.7L125.1,286.3z" class="st2"/><path d="M125,286.6c-7.9-4.6-20.8-4.6-28.7,0l-69.5,40.1c-7.9,4.6-7.9,12,0,16.6l69.5,40.1 c7.9,4.6,20.8,4.6,28.7,0l69.5-40.1c7.9-4.6,7.9-12,0-16.6L125,286.6z" class="st3"/><path d="M125,286.8c-7.9-4.5-20.7-4.5-28.6,0l-69.2,40c-7.9,4.5-7.9,12,0,16.5l69.2,40c7.9,4.5,20.7,4.5,28.6,0 l69.2-40c7.9-4.5,7.9-12,0-16.5L125,286.8z" class="st4"/><path d="M124.9,287c-7.8-4.5-20.6-4.5-28.4,0l-68.9,39.8c-7.8,4.5-7.8,11.9,0,16.4L96.5,383 c7.8,4.5,20.6,4.5,28.4,0l68.9-39.8c7.8-4.5,7.8-11.9,0-16.4L124.9,287z" class="st5"/><path d="M124.8,287.3c-7.8-4.5-20.5-4.5-28.3,0L28,326.8c-7.8,4.5-7.8,11.8,0,16.3l68.5,39.6 c7.8,4.5,20.5,4.5,28.3,0l68.5-39.6c7.8-4.5,7.8-11.8,0-16.3L124.8,287.3z" class="st6"/><path d="M124.8,287.5c-7.7-4.5-20.4-4.5-28.1,0l-68.2,39.4c-7.7,4.5-7.7,11.8,0,16.3l68.2,39.4 c7.7,4.5,20.4,4.5,28.1,0l68.2-39.4c7.7-4.5,7.7-11.8,0-16.3L124.8,287.5z" class="st7"/><path d="M124.7,287.7c-7.7-4.4-20.3-4.4-28,0l-67.9,39.2c-7.7,4.4-7.7,11.7,0,16.2l67.9,39.2 c7.7,4.4,20.3,4.4,28,0l67.9-39.2c7.7-4.4,7.7-11.7,0-16.2L124.7,287.7z" class="st8"/><path d="M124.6,288c-7.7-4.4-20.2-4.4-27.9,0l-67.5,39c-7.7,4.4-7.7,11.7,0,16.1l67.5,39c7.7,4.4,20.2,4.4,27.9,0 l67.5-39c7.7-4.4,7.7-11.7,0-16.1L124.6,288z" class="st9"/><path d="M124.5,288.2c-7.6-4.4-20.1-4.4-27.7,0L29.6,327c-7.6,4.4-7.6,11.6,0,16l67.2,38.8 c7.6,4.4,20.1,4.4,27.7,0l67.2-38.8c7.6-4.4,7.6-11.6,0-16L124.5,288.2z" class="st10"/><path d="M124.5,288.4c-7.6-4.4-20-4.4-27.6,0L30,327c-7.6,4.4-7.6,11.5,0,15.9l66.8,38.6c7.6,4.4,20,4.4,27.6,0 l66.8-38.6c7.6-4.4,7.6-11.5,0-15.9L124.5,288.4z" class="st11"/><path d="M124.4,288.7c-7.5-4.4-19.9-4.4-27.5,0l-66.5,38.4c-7.5,4.4-7.5,11.5,0,15.8L97,381.3 c7.5,4.4,19.9,4.4,27.5,0l66.5-38.4c7.5-4.4,7.5-11.5,0-15.8L124.4,288.7z" class="st12"/><path d="M124.3,288.9c-7.5-4.3-19.8-4.3-27.3,0l-66.2,38.2c-7.5,4.3-7.5,11.4,0,15.8L97,381.1 c7.5,4.3,19.8,4.3,27.3,0l66.2-38.2c7.5-4.3,7.5-11.4,0-15.8L124.3,288.9z" class="st13"/><path d="M124.3,289.1c-7.5-4.3-19.7-4.3-27.2,0l-65.8,38c-7.5,4.3-7.5,11.4,0,15.7l65.8,38 c7.5,4.3,19.7,4.3,27.2,0l65.8-38c7.5-4.3,7.5-11.4,0-15.7L124.3,289.1z" class="st14"/><path d="M124.2,289.4c-7.4-4.3-19.6-4.3-27,0l-65.5,37.8c-7.4,4.3-7.4,11.3,0,15.6l65.5,37.8 c7.4,4.3,19.6,4.3,27,0l65.5-37.8c7.4-4.3,7.4-11.3,0-15.6L124.2,289.4z" class="st15"/><path d="M124.1,289.6c-7.4-4.3-19.5-4.3-26.9,0l-65.2,37.6c-7.4,4.3-7.4,11.3,0,15.5l65.2,37.6 c7.4,4.3,19.5,4.3,26.9,0l65.2-37.6c7.4-4.3,7.4-11.3,0-15.5L124.1,289.6z" class="st16"/><path d="M124.1,289.8c-7.4-4.2-19.4-4.2-26.8,0l-64.8,37.4c-7.4,4.2-7.4,11.2,0,15.4l64.8,37.4 c7.4,4.2,19.4,4.2,26.8,0l64.8-37.4c7.4-4.2,7.4-11.2,0-15.4L124.1,289.8z" class="st17"/><path d="M124,290.1c-7.3-4.2-19.3-4.2-26.6,0l-64.5,37.2c-7.3,4.2-7.3,11.1,0,15.4l64.5,37.2 c7.3,4.2,19.3,4.2,26.6,0l64.5-37.2c7.3-4.2,7.3-11.1,0-15.4L124,290.1z" class="st18"/><path d="M123.9,290.3c-7.3-4.2-19.2-4.2-26.5,0l-64.1,37c-7.3,4.2-7.3,11.1,0,15.3l64.1,37 c7.3,4.2,19.2,4.2,26.5,0l64.1-37c7.3-4.2,7.3-11.1,0-15.3L123.9,290.3z" class="st19"/><path d="M123.9,290.6c-7.2-4.2-19.1-4.2-26.3,0l-63.8,36.8c-7.2,4.2-7.2,11,0,15.2l63.8,36.8 c7.2,4.2,19.1,4.2,26.3,0l63.8-36.8c7.2-4.2,7.2-11,0-15.2L123.9,290.6z" class="st20"/><path d="M123.8,290.8c-7.2-4.2-19-4.2-26.2,0l-63.5,36.6c-7.2,4.2-7.2,11,0,15.1l63.5,36.6 c7.2,4.2,19,4.2,26.2,0l63.5-36.6c7.2-4.2,7.2-11,0-15.1L123.8,290.8z" class="st21"/><path d="M123.7,291c-7.2-4.1-18.9-4.1-26.1,0l-63.1,36.5c-7.2,4.1-7.2,10.9,0,15L97.6,379 c7.2,4.1,18.9,4.1,26.1,0l63.1-36.5c7.2-4.1,7.2-10.9,0-15L123.7,291z" class="st22"/><path d="M123.6,291.3c-7.1-4.1-18.8-4.1-25.9,0l-62.8,36.3c-7.1,4.1-7.1,10.9,0,15l62.8,36.3 c7.1,4.1,18.8,4.1,25.9,0l62.8-36.3c7.1-4.1,7.1-10.9,0-15L123.6,291.3z" class="st23"/><path d="M123.6,291.5c-7.1-4.1-18.7-4.1-25.8,0l-62.5,36.1c-7.1,4.1-7.1,10.8,0,14.9l62.5,36.1 c7.1,4.1,18.7,4.1,25.8,0l62.5-36.1c7.1-4.1,7.1-10.8,0-14.9L123.6,291.5z" class="st24"/><path d="M123.5,291.7c-7.1-4.1-18.6-4.1-25.6,0l-62.1,35.9c-7.1,4.1-7.1,10.7,0,14.8l62.1,35.9 c7.1,4.1,18.6,4.1,25.6,0l62.1-35.9c7.1-4.1,7.1-10.7,0-14.8L123.5,291.7z" class="st25"/><path d="M123.4,292c-7-4-18.5-4-25.5,0l-61.8,35.7c-7,4-7,10.7,0,14.7L97.9,378c7,4,18.5,4,25.5,0l61.8-35.7 c7-4,7-10.7,0-14.7L123.4,292z" class="st26"/><path d="M123.4,292.2c-7-4-18.4-4-25.4,0l-61.5,35.5c-7,4-7,10.6,0,14.6L98,377.8c7,4,18.4,4,25.4,0l61.5-35.5 c7-4,7-10.6,0-14.6L123.4,292.2z" class="st27"/><path d="M123.3,292.4c-6.9-4-18.3-4-25.2,0l-61.1,35.3c-6.9,4-6.9,10.6,0,14.6l61.1,35.3c6.9,4,18.3,4,25.2,0 l61.1-35.3c6.9-4,6.9-10.6,0-14.6L123.3,292.4z" class="st28"/><path d="M123.2,292.7c-6.9-4-18.2-4-25.1,0l-60.8,35.1c-6.9,4-6.9,10.5,0,14.5l60.8,35.1c6.9,4,18.2,4,25.1,0 l60.8-35.1c6.9-4,6.9-10.5,0-14.5L123.2,292.7z" class="st29"/><path d="M123.2,292.9c-6.9-4-18.1-4-24.9,0l-60.4,34.9c-6.9,4-6.9,10.4,0,14.4l60.4,34.9c6.9,4,18.1,4,24.9,0 l60.4-34.9c6.9-4,6.9-10.4,0-14.4L123.2,292.9z" class="st30"/><path d="M123.1,293.1c-6.8-3.9-18-3.9-24.8,0l-60.1,34.7c-6.8,3.9-6.8,10.4,0,14.3l60.1,34.7 c6.8,3.9,18,3.9,24.8,0l60.1-34.7c6.8-3.9,6.8-10.4,0-14.3L123.1,293.1z" class="st31"/><path d="M123,293.4c-6.8-3.9-17.9-3.9-24.7,0l-59.8,34.5c-6.8,3.9-6.8,10.3,0,14.2l59.8,34.5 c6.8,3.9,17.9,3.9,24.7,0l59.8-34.5c6.8-3.9,6.8-10.3,0-14.2L123,293.4z" class="st32"/><path d="M122.9,293.6c-6.7-3.9-17.8-3.9-24.5,0L39,327.9c-6.7,3.9-6.7,10.3,0,14.2l59.4,34.3 c6.7,3.9,17.8,3.9,24.5,0l59.4-34.3c6.7-3.9,6.7-10.3,0-14.2L122.9,293.6z" class="st33"/><path d="M122.9,293.8c-6.7-3.9-17.7-3.9-24.4,0L39.4,328c-6.7,3.9-6.7,10.2,0,14.1l59.1,34.1 c6.7,3.9,17.7,3.9,24.4,0L182,342c6.7-3.9,6.7-10.2,0-14.1L122.9,293.8z" class="st34"/><path d="M122.8,294.1c-6.7-3.9-17.6-3.9-24.3,0L39.8,328c-6.7,3.9-6.7,10.2,0,14l58.8,33.9 c6.7,3.9,17.6,3.9,24.3,0l58.8-33.9c6.7-3.9,6.7-10.2,0-14L122.8,294.1z" class="st35"/><path d="M122.7,294.3c-6.6-3.8-17.5-3.8-24.1,0L40.2,328c-6.6,3.8-6.6,10.1,0,13.9l58.4,33.7 c6.6,3.8,17.5,3.8,24.1,0l58.4-33.7c6.6-3.8,6.6-10.1,0-13.9L122.7,294.3z" class="st36"/><path d="M122.7,294.5c-6.6-3.8-17.4-3.8-24,0l-58.1,33.5c-6.6,3.8-6.6,10,0,13.8l58.1,33.5 c6.6,3.8,17.4,3.8,24,0l58.1-33.5c6.6-3.8,6.6-10,0-13.8L122.7,294.5z" class="st37"/><path d="M122.6,294.8c-6.6-3.8-17.3-3.8-23.8,0L41,328.1c-6.6,3.8-6.6,10,0,13.8l57.7,33.3 c6.6,3.8,17.3,3.8,23.8,0l57.7-33.3c6.6-3.8,6.6-10,0-13.8L122.6,294.8z" class="st38"/><path d="M122.5,295c-6.5-3.8-17.2-3.8-23.7,0l-57.4,33.1c-6.5,3.8-6.5,9.9,0,13.7L98.8,375 c6.5,3.8,17.2,3.8,23.7,0l57.4-33.1c6.5-3.8,6.5-9.9,0-13.7L122.5,295z" class="st39"/><path d="M122.5,295.2c-6.5-3.7-17.1-3.7-23.6,0l-57.1,33c-6.5,3.7-6.5,9.9,0,13.6l57.1,33 c6.5,3.7,17.1,3.7,23.6,0l57.1-33c6.5-3.7,6.5-9.9,0-13.6L122.5,295.2z" class="st40"/><path d="M122.4,295.5c-6.4-3.7-17-3.7-23.4,0l-56.7,32.8c-6.4,3.7-6.4,9.8,0,13.5L99,374.5 c6.4,3.7,17,3.7,23.4,0l56.7-32.8c6.4-3.7,6.4-9.8,0-13.5L122.4,295.5z" class="st41"/><path d="M122.3,295.7c-6.4-3.7-16.9-3.7-23.3,0l-56.4,32.6c-6.4,3.7-6.4,9.7,0,13.4L99,374.3 c6.4,3.7,16.9,3.7,23.3,0l56.4-32.6c6.4-3.7,6.4-9.7,0-13.4L122.3,295.7z" class="st42"/><path d="M122.3,296c-6.4-3.7-16.8-3.7-23.1,0L43,328.3c-6.4,3.7-6.4,9.7,0,13.4L99.1,374 c6.4,3.7,16.8,3.7,23.1,0l56.1-32.4c6.4-3.7,6.4-9.7,0-13.4L122.3,296z" class="st43"/><path d="M122.2,296.2c-6.3-3.7-16.7-3.7-23,0l-55.7,32.2c-6.3,3.7-6.3,9.6,0,13.3l55.7,32.2 c6.3,3.7,16.7,3.7,23,0l55.7-32.2c6.3-3.7,6.3-9.6,0-13.3L122.2,296.2z" class="st44"/><path d="M122.1,296.4c-6.3-3.6-16.6-3.6-22.9,0l-55.4,32c-6.3,3.6-6.3,9.6,0,13.2l55.4,32 c6.3,3.6,16.6,3.6,22.9,0l55.4-32c6.3-3.6,6.3-9.6,0-13.2L122.1,296.4z" class="st45"/><path d="M122,296.7c-6.2-3.6-16.5-3.6-22.7,0l-55.1,31.8c-6.2,3.6-6.2,9.5,0,13.1l55.1,31.8 c6.2,3.6,16.5,3.6,22.7,0l55.1-31.8c6.2-3.6,6.2-9.5,0-13.1L122,296.7z" class="st46"/><path d="M122,296.9c-6.2-3.6-16.4-3.6-22.6,0l-54.7,31.6c-6.2,3.6-6.2,9.5,0,13l54.7,31.6 c6.2,3.6,16.4,3.6,22.6,0l54.7-31.6c6.2-3.6,6.2-9.5,0-13L122,296.9z" class="st47"/><path d="M121.9,297.1c-6.2-3.6-16.3-3.6-22.4,0l-54.4,31.4c-6.2,3.6-6.2,9.4,0,13l54.4,31.4 c6.2,3.6,16.3,3.6,22.4,0l54.4-31.4c6.2-3.6,6.2-9.4,0-13L121.9,297.1z" class="st48"/><path d="M121.8,297.4c-6.1-3.5-16.2-3.5-22.3,0l-54,31.2c-6.1,3.5-6.1,9.3,0,12.9l54,31.2 c6.1,3.5,16.2,3.5,22.3,0l54-31.2c6.1-3.5,6.1-9.3,0-12.9L121.8,297.4z" class="st49"/><path d="M121.8,297.6c-6.1-3.5-16.1-3.5-22.2,0l-53.7,31c-6.1,3.5-6.1,9.3,0,12.8l53.7,31 c6.1,3.5,16.1,3.5,22.2,0l53.7-31c6.1-3.5,6.1-9.3,0-12.8L121.8,297.6z" class="st50"/><path d="M121.7,297.8c-6.1-3.5-16-3.5-22,0l-53.4,30.8c-6.1,3.5-6.1,9.2,0,12.7l53.4,30.8c6.1,3.5,16,3.5,22,0 l53.4-30.8c6.1-3.5,6.1-9.2,0-12.7L121.7,297.8z" class="st51"/><path id="XMLID_944_" d="M121.6,298.1c-6-3.5-15.9-3.5-21.9,0l-53,30.6c-6,3.5-6,9.2,0,12.6l53,30.6 c6,3.5,15.9,3.5,21.9,0l53-30.6c6-3.5,6-9.2,0-12.6L121.6,298.1z" class="st52"/></g><linearGradient id="XMLID_2_" x1="-4315.695" x2="-4479.678" y1="250.936" y2="250.936" gradientTransform="matrix(-1 0 0 1 -4287.0015 0)" gradientUnits="userSpaceOnUse"><stop offset="0" stop-color="#B4ACBF"/><stop offset=".6" stop-color="#F0E5FF"/></linearGradient><path id="XMLID_943_" d="M114,121l78.7,43.5v169.9c0,0.6-0.3,1.2-0.9,1.5l-77.8,45c-2,1.2-4.5,1.2-6.6,0 l-77.7-44.9c-0.6-0.4-1-1-1-1.7l0-169.7l78.7-43.5C109.4,119.8,111.9,119.8,114,121z" class="st53"/><linearGradient id="XMLID_3_" x1="28.693" x2="192.677" y1="164.486" y2="164.486" gradientUnits="userSpaceOnUse"><stop offset="0" stop-color="#F0E5FF"/><stop offset="1" stop-color="#FFF"/></linearGradient><path id="XMLID_942_" d="M107.4,117.2l-77.1,44.5c-2.2,1.3-2.2,4.4,0,5.6l77.1,44.5c2,1.2,4.5,1.2,6.6,0 l77.1-44.5c2.2-1.3,2.2-4.4,0-5.6L114,117.2C111.9,116,109.4,116,107.4,117.2z" class="st54"/></g><g><g id="XMLID_939_"><linearGradient id="XMLID_4_" x1="52.057" x2="169.571" y1="163.239" y2="163.239" gradientUnits="userSpaceOnUse"><stop offset="0" stop-color="#B4ACBF"/><stop offset=".515" stop-color="#D1C8DE"/><stop offset="1" stop-color="#F0E5FF"/></linearGradient><path id="XMLID_941_" d="M108.5,129.3l-56.4,26.8v7.7c0,0.4,0.2,0.9,0.6,1.1l55.8,32.3c1.5,0.8,3.3,0.8,4.7,0 l55.7-32.2c0.4-0.3,0.7-0.7,0.7-1.2v-7.6l-56.4-26.8C111.7,128.5,109.9,128.5,108.5,129.3z" class="st55"/><linearGradient id="XMLID_5_" x1="52.057" x2="169.571" y1="156.128" y2="156.128" gradientUnits="userSpaceOnUse"><stop offset="0" stop-color="#F0E5FF"/><stop offset="1" stop-color="#FFF"/></linearGradient><path id="XMLID_940_" d="M108.5,122.2l-55.2,31.9c-1.6,0.9-1.6,3.1,0,4l55.2,31.9c1.5,0.8,3.3,0.8,4.7,0 l55.2-31.9c1.6-0.9,1.6-3.1,0-4l-55.2-31.9C111.7,121.4,109.9,121.4,108.5,122.2z" class="st56"/></g><linearGradient id="XMLID_6_" x1="68.588" x2="152.407" y1="155.041" y2="155.041" gradientUnits="userSpaceOnUse"><stop offset="0" stop-color="#F0E5FF"/><stop offset="1" stop-color="#FFF"/></linearGradient><path id="XMLID_938_" d="M108.8,130.9l-39.4,22.7c-1.1,0.6-1.1,2.2,0,2.9l39.4,22.7c1,0.6,2.3,0.6,3.4,0 l39.4-22.7c1.1-0.6,1.1-2.2,0-2.9l-39.4-22.7C111.1,130.3,109.9,130.3,108.8,130.9z" class="st57"/><linearGradient id="XMLID_7_" x1="68.596" x2="152.399" y1="166.897" y2="166.897" gradientUnits="userSpaceOnUse"><stop offset="0" stop-color="#B4ACBF"/><stop offset=".515" stop-color="#D1C8DE"/><stop offset="1" stop-color="#F0E5FF"/></linearGradient><path id="XMLID_937_" d="M151.6,154.6l-39.4,22.7c-1,0.6-2.3,0.6-3.4,0l-39.4-22.7c-0.2-0.1-0.4-0.3-0.5-0.5 c-0.5,0.8-0.3,1.9,0.5,2.4l39.4,22.7c1,0.6,2.3,0.6,3.4,0l39.4-22.7c0.9-0.5,1-1.6,0.5-2.4C152,154.3,151.8,154.5,151.6,154.6z" class="st58"/></g></g><radialGradient id="XMLID_8_" cx="110.814" cy="7717.011" r="37.415" gradientTransform="matrix(1 0 0 0.5172 0 -3836.8115)" gradientUnits="userSpaceOnUse"><stop offset="0" stop-color="#120426"/><stop offset=".086" stop-color="#1A0D2E" stop-opacity=".914"/><stop offset=".226" stop-color="#322543" stop-opacity=".774"/><stop offset=".403" stop-color="#574D65" stop-opacity=".597"/><stop offset=".61" stop-color="#8B8495" stop-opacity=".39"/><stop offset=".84" stop-color="#CDCAD1" stop-opacity=".161"/><stop offset="1" stop-color="#FFF" stop-opacity="0"/></radialGradient><path id="XMLID_936_" d="M84.6,139.3c14.4-8.3,38-8.3,52.4,0c14.4,8.3,14.4,21.9,0,30.3c-14.4,8.3-38,8.3-52.4,0 C70.2,161.2,70.2,147.6,84.6,139.3z" class="st59"/><g><g><g class="st0"><path id="XMLID_930_" d="M393.8,287.6c-8-4.6-21-4.6-29,0l-70.2,40.5c-8,4.6-8,12.1,0,16.7l70.2,40.5 c8,4.6,21,4.6,29,0l70.2-40.5c8-4.6,8-12.1,0-16.7L393.8,287.6z" class="st1"/><path d="M393.7,287.9c-7.9-4.6-20.9-4.6-28.8,0L295,328.2c-7.9,4.6-7.9,12.1,0,16.7l69.9,40.3 c7.9,4.6,20.9,4.6,28.8,0l69.9-40.3c7.9-4.6,7.9-12.1,0-16.7L393.7,287.9z" class="st2"/><path d="M393.7,288.1c-7.9-4.6-20.8-4.6-28.7,0l-69.5,40.1c-7.9,4.6-7.9,12,0,16.6L365,385 c7.9,4.6,20.8,4.6,28.7,0l69.5-40.1c7.9-4.6,7.9-12,0-16.6L393.7,288.1z" class="st3"/><path d="M393.6,288.3c-7.9-4.5-20.7-4.5-28.6,0l-69.2,40c-7.9,4.5-7.9,12,0,16.5l69.2,40c7.9,4.5,20.7,4.5,28.6,0 l69.2-40c7.9-4.5,7.9-12,0-16.5L393.6,288.3z" class="st4"/><path d="M393.5,288.6c-7.8-4.5-20.6-4.5-28.4,0l-68.9,39.8c-7.8,4.5-7.8,11.9,0,16.4l68.9,39.8 c7.8,4.5,20.6,4.5,28.4,0l68.9-39.8c7.8-4.5,7.8-11.9,0-16.4L393.5,288.6z" class="st5"/><path d="M393.5,288.8c-7.8-4.5-20.5-4.5-28.3,0l-68.5,39.6c-7.8,4.5-7.8,11.8,0,16.3l68.5,39.6 c7.8,4.5,20.5,4.5,28.3,0l68.5-39.6c7.8-4.5,7.8-11.8,0-16.3L393.5,288.8z" class="st6"/><path d="M393.4,289c-7.7-4.5-20.4-4.5-28.1,0l-68.2,39.4c-7.7,4.5-7.7,11.8,0,16.3l68.2,39.4 c7.7,4.5,20.4,4.5,28.1,0l68.2-39.4c7.7-4.5,7.7-11.8,0-16.3L393.4,289z" class="st7"/><path d="M393.3,289.3c-7.7-4.4-20.3-4.4-28,0l-67.9,39.2c-7.7,4.4-7.7,11.7,0,16.2l67.9,39.2 c7.7,4.4,20.3,4.4,28,0l67.9-39.2c7.7-4.4,7.7-11.7,0-16.2L393.3,289.3z" class="st8"/><path d="M393.3,289.5c-7.7-4.4-20.2-4.4-27.9,0l-67.5,39c-7.7,4.4-7.7,11.7,0,16.1l67.5,39 c7.7,4.4,20.2,4.4,27.9,0l67.5-39c7.7-4.4,7.7-11.7,0-16.1L393.3,289.5z" class="st9"/><path d="M393.2,289.7c-7.6-4.4-20.1-4.4-27.7,0l-67.2,38.8c-7.6,4.4-7.6,11.6,0,16l67.2,38.8 c7.6,4.4,20.1,4.4,27.7,0l67.2-38.8c7.6-4.4,7.6-11.6,0-16L393.2,289.7z" class="st10"/><path d="M393.1,290c-7.6-4.4-20-4.4-27.6,0l-66.8,38.6c-7.6,4.4-7.6,11.5,0,15.9l66.8,38.6 c7.6,4.4,20,4.4,27.6,0l66.8-38.6c7.6-4.4,7.6-11.5,0-15.9L393.1,290z" class="st11"/><path d="M393,290.2c-7.5-4.4-19.9-4.4-27.5,0l-66.5,38.4c-7.5,4.4-7.5,11.5,0,15.8l66.5,38.4 c7.5,4.4,19.9,4.4,27.5,0l66.5-38.4c7.5-4.4,7.5-11.5,0-15.8L393,290.2z" class="st12"/><path d="M393,290.4c-7.5-4.3-19.8-4.3-27.3,0l-66.2,38.2c-7.5,4.3-7.5,11.4,0,15.8l66.2,38.2 c7.5,4.3,19.8,4.3,27.3,0l66.2-38.2c7.5-4.3,7.5-11.4,0-15.8L393,290.4z" class="st13"/><path d="M392.9,290.7c-7.5-4.3-19.7-4.3-27.2,0l-65.8,38c-7.5,4.3-7.5,11.4,0,15.7l65.8,38 c7.5,4.3,19.7,4.3,27.2,0l65.8-38c7.5-4.3,7.5-11.4,0-15.7L392.9,290.7z" class="st14"/><path d="M392.8,290.9c-7.4-4.3-19.6-4.3-27,0l-65.5,37.8c-7.4,4.3-7.4,11.3,0,15.6l65.5,37.8 c7.4,4.3,19.6,4.3,27,0l65.5-37.8c7.4-4.3,7.4-11.3,0-15.6L392.8,290.9z" class="st15"/><path d="M392.8,291.2c-7.4-4.3-19.5-4.3-26.9,0l-65.2,37.6c-7.4,4.3-7.4,11.3,0,15.5l65.2,37.6 c7.4,4.3,19.5,4.3,26.9,0l65.2-37.6c7.4-4.3,7.4-11.3,0-15.5L392.8,291.2z" class="st16"/><path d="M392.7,291.4c-7.4-4.2-19.4-4.2-26.8,0l-64.8,37.4c-7.4,4.2-7.4,11.2,0,15.4l64.8,37.4 c7.4,4.2,19.4,4.2,26.8,0l64.8-37.4c7.4-4.2,7.4-11.2,0-15.4L392.7,291.4z" class="st17"/><path d="M392.6,291.6c-7.3-4.2-19.3-4.2-26.6,0l-64.5,37.2c-7.3,4.2-7.3,11.1,0,15.4l64.5,37.2 c7.3,4.2,19.3,4.2,26.6,0l64.5-37.2c7.3-4.2,7.3-11.1,0-15.4L392.6,291.6z" class="st18"/><path d="M392.6,291.9c-7.3-4.2-19.2-4.2-26.5,0l-64.1,37c-7.3,4.2-7.3,11.1,0,15.3l64.1,37 c7.3,4.2,19.2,4.2,26.5,0l64.1-37c7.3-4.2,7.3-11.1,0-15.3L392.6,291.9z" class="st19"/><path d="M392.5,292.1c-7.2-4.2-19.1-4.2-26.3,0l-63.8,36.8c-7.2,4.2-7.2,11,0,15.2l63.8,36.8 c7.2,4.2,19.1,4.2,26.3,0l63.8-36.8c7.2-4.2,7.2-11,0-15.2L392.5,292.1z" class="st20"/><path d="M392.4,292.3c-7.2-4.2-19-4.2-26.2,0L302.7,329c-7.2,4.2-7.2,11,0,15.1l63.5,36.6c7.2,4.2,19,4.2,26.2,0 l63.5-36.6c7.2-4.2,7.2-11,0-15.1L392.4,292.3z" class="st21"/><path d="M392.4,292.6c-7.2-4.1-18.9-4.1-26.1,0L303.2,329c-7.2,4.1-7.2,10.9,0,15l63.1,36.5 c7.2,4.1,18.9,4.1,26.1,0l63.1-36.5c7.2-4.1,7.2-10.9,0-15L392.4,292.6z" class="st22"/><path d="M392.3,292.8c-7.1-4.1-18.8-4.1-25.9,0l-62.8,36.3c-7.1,4.1-7.1,10.9,0,15l62.8,36.3 c7.1,4.1,18.8,4.1,25.9,0l62.8-36.3c7.1-4.1,7.1-10.9,0-15L392.3,292.8z" class="st23"/><path d="M392.2,293c-7.1-4.1-18.7-4.1-25.8,0L304,329.1c-7.1,4.1-7.1,10.8,0,14.9l62.5,36.1 c7.1,4.1,18.7,4.1,25.8,0l62.5-36.1c7.1-4.1,7.1-10.8,0-14.9L392.2,293z" class="st24"/><path d="M392.1,293.3c-7.1-4.1-18.6-4.1-25.6,0l-62.1,35.9c-7.1,4.1-7.1,10.7,0,14.8l62.1,35.9 c7.1,4.1,18.6,4.1,25.6,0l62.1-35.9c7.1-4.1,7.1-10.7,0-14.8L392.1,293.3z" class="st25"/><path d="M392.1,293.5c-7-4-18.5-4-25.5,0l-61.8,35.7c-7,4-7,10.7,0,14.7l61.8,35.7c7,4,18.5,4,25.5,0l61.8-35.7 c7-4,7-10.7,0-14.7L392.1,293.5z" class="st26"/><path d="M392,293.7c-7-4-18.4-4-25.4,0l-61.5,35.5c-7,4-7,10.6,0,14.6l61.5,35.5c7,4,18.4,4,25.4,0l61.5-35.5 c7-4,7-10.6,0-14.6L392,293.7z" class="st27"/><path d="M391.9,294c-6.9-4-18.3-4-25.2,0l-61.1,35.3c-6.9,4-6.9,10.6,0,14.6l61.1,35.3c6.9,4,18.3,4,25.2,0 l61.1-35.3c6.9-4,6.9-10.6,0-14.6L391.9,294z" class="st28"/><path d="M391.9,294.2c-6.9-4-18.2-4-25.1,0L306,329.3c-6.9,4-6.9,10.5,0,14.5l60.8,35.1c6.9,4,18.2,4,25.1,0 l60.8-35.1c6.9-4,6.9-10.5,0-14.5L391.9,294.2z" class="st29"/><path d="M391.8,294.4c-6.9-4-18.1-4-24.9,0l-60.4,34.9c-6.9,4-6.9,10.4,0,14.4l60.4,34.9c6.9,4,18.1,4,24.9,0 l60.4-34.9c6.9-4,6.9-10.4,0-14.4L391.8,294.4z" class="st30"/><path d="M391.7,294.7c-6.8-3.9-18-3.9-24.8,0l-60.1,34.7c-6.8,3.9-6.8,10.4,0,14.3l60.1,34.7 c6.8,3.9,18,3.9,24.8,0l60.1-34.7c6.8-3.9,6.8-10.4,0-14.3L391.7,294.7z" class="st31"/><path d="M391.7,294.9c-6.8-3.9-17.9-3.9-24.7,0l-59.8,34.5c-6.8,3.9-6.8,10.3,0,14.2l59.8,34.5 c6.8,3.9,17.9,3.9,24.7,0l59.8-34.5c6.8-3.9,6.8-10.3,0-14.2L391.7,294.9z" class="st32"/><path d="M391.6,295.1c-6.7-3.9-17.8-3.9-24.5,0l-59.4,34.3c-6.7,3.9-6.7,10.3,0,14.2l59.4,34.3 c6.7,3.9,17.8,3.9,24.5,0l59.4-34.3c6.7-3.9,6.7-10.3,0-14.2L391.6,295.1z" class="st33"/><path d="M391.5,295.4c-6.7-3.9-17.7-3.9-24.4,0L308,329.5c-6.7,3.9-6.7,10.2,0,14.1l59.1,34.1 c6.7,3.9,17.7,3.9,24.4,0l59.1-34.1c6.7-3.9,6.7-10.2,0-14.1L391.5,295.4z" class="st34"/><path d="M391.4,295.6c-6.7-3.9-17.6-3.9-24.3,0l-58.8,33.9c-6.7,3.9-6.7,10.2,0,14l58.8,33.9 c6.7,3.9,17.6,3.9,24.3,0l58.8-33.9c6.7-3.9,6.7-10.2,0-14L391.4,295.6z" class="st35"/><path d="M391.4,295.8c-6.6-3.8-17.5-3.8-24.1,0l-58.4,33.7c-6.6,3.8-6.6,10.1,0,13.9l58.4,33.7 c6.6,3.8,17.5,3.8,24.1,0l58.4-33.7c6.6-3.8,6.6-10.1,0-13.9L391.4,295.8z" class="st36"/><path d="M391.3,296.1c-6.6-3.8-17.4-3.8-24,0l-58.1,33.5c-6.6,3.8-6.6,10,0,13.8l58.1,33.5 c6.6,3.8,17.4,3.8,24,0l58.1-33.5c6.6-3.8,6.6-10,0-13.8L391.3,296.1z" class="st37"/><path d="M391.2,296.3c-6.6-3.8-17.3-3.8-23.8,0l-57.7,33.3c-6.6,3.8-6.6,10,0,13.8l57.7,33.3 c6.6,3.8,17.3,3.8,23.8,0l57.7-33.3c6.6-3.8,6.6-10,0-13.8L391.2,296.3z" class="st38"/><path d="M391.2,296.5c-6.5-3.8-17.2-3.8-23.7,0l-57.4,33.1c-6.5,3.8-6.5,9.9,0,13.7l57.4,33.1 c6.5,3.8,17.2,3.8,23.7,0l57.4-33.1c6.5-3.8,6.5-9.9,0-13.7L391.2,296.5z" class="st39"/><path d="M391.1,296.8c-6.5-3.7-17.1-3.7-23.6,0l-57.1,33c-6.5,3.7-6.5,9.9,0,13.6l57.1,33 c6.5,3.7,17.1,3.7,23.6,0l57.1-33c6.5-3.7,6.5-9.9,0-13.6L391.1,296.8z" class="st40"/><path d="M391,297c-6.4-3.7-17-3.7-23.4,0l-56.7,32.8c-6.4,3.7-6.4,9.8,0,13.5l56.7,32.8c6.4,3.7,17,3.7,23.4,0 l56.7-32.8c6.4-3.7,6.4-9.8,0-13.5L391,297z" class="st41"/><path d="M391,297.3c-6.4-3.7-16.9-3.7-23.3,0l-56.4,32.6c-6.4,3.7-6.4,9.7,0,13.4l56.4,32.6 c6.4,3.7,16.9,3.7,23.3,0l56.4-32.6c6.4-3.7,6.4-9.7,0-13.4L391,297.3z" class="st42"/><path d="M390.9,297.5c-6.4-3.7-16.8-3.7-23.1,0l-56.1,32.4c-6.4,3.7-6.4,9.7,0,13.4l56.1,32.4 c6.4,3.7,16.8,3.7,23.1,0l56.1-32.4c6.4-3.7,6.4-9.7,0-13.4L390.9,297.5z" class="st43"/><path d="M390.8,297.7c-6.3-3.7-16.7-3.7-23,0l-55.7,32.2c-6.3,3.7-6.3,9.6,0,13.3l55.7,32.2 c6.3,3.7,16.7,3.7,23,0l55.7-32.2c6.3-3.7,6.3-9.6,0-13.3L390.8,297.7z" class="st44"/><path d="M390.8,298c-6.3-3.6-16.6-3.6-22.9,0l-55.4,32c-6.3,3.6-6.3,9.6,0,13.2l55.4,32c6.3,3.6,16.6,3.6,22.9,0 l55.4-32c6.3-3.6,6.3-9.6,0-13.2L390.8,298z" class="st45"/><path d="M390.7,298.2c-6.2-3.6-16.5-3.6-22.7,0L312.9,330c-6.2,3.6-6.2,9.5,0,13.1l55.1,31.8 c6.2,3.6,16.5,3.6,22.7,0l55.1-31.8c6.2-3.6,6.2-9.5,0-13.1L390.7,298.2z" class="st46"/><path d="M390.6,298.4c-6.2-3.6-16.4-3.6-22.6,0L313.3,330c-6.2,3.6-6.2,9.5,0,13l54.7,31.6 c6.2,3.6,16.4,3.6,22.6,0l54.7-31.6c6.2-3.6,6.2-9.5,0-13L390.6,298.4z" class="st47"/><path d="M390.5,298.7c-6.2-3.6-16.3-3.6-22.4,0l-54.4,31.4c-6.2,3.6-6.2,9.4,0,13l54.4,31.4 c6.2,3.6,16.3,3.6,22.4,0l54.4-31.4c6.2-3.6,6.2-9.4,0-13L390.5,298.7z" class="st48"/><path d="M390.5,298.9c-6.1-3.5-16.2-3.5-22.3,0l-54,31.2c-6.1,3.5-6.1,9.3,0,12.9l54,31.2 c6.1,3.5,16.2,3.5,22.3,0l54-31.2c6.1-3.5,6.1-9.3,0-12.9L390.5,298.9z" class="st49"/><path d="M390.4,299.1c-6.1-3.5-16.1-3.5-22.2,0l-53.7,31c-6.1,3.5-6.1,9.3,0,12.8l53.7,31 c6.1,3.5,16.1,3.5,22.2,0l53.7-31c6.1-3.5,6.1-9.3,0-12.8L390.4,299.1z" class="st50"/><path d="M390.3,299.4c-6.1-3.5-16-3.5-22,0l-53.4,30.8c-6.1,3.5-6.1,9.2,0,12.7l53.4,30.8c6.1,3.5,16,3.5,22,0 l53.4-30.8c6.1-3.5,6.1-9.2,0-12.7L390.3,299.4z" class="st51"/><path id="XMLID_929_" d="M390.3,299.6c-6-3.5-15.9-3.5-21.9,0l-53,30.6c-6,3.5-6,9.2,0,12.6l53,30.6 c6,3.5,15.9,3.5,21.9,0l53-30.6c6-3.5,6-9.2,0-12.6L390.3,299.6z" class="st52"/></g><linearGradient id="XMLID_9_" x1="-4584.386" x2="-4748.37" y1="238.371" y2="238.371" gradientTransform="matrix(-1 0 0 1 -4287.0015 0)" gradientUnits="userSpaceOnUse"><stop offset="0" stop-color="#B4ACBF"/><stop offset=".6" stop-color="#F0E5FF"/></linearGradient><path id="XMLID_928_" d="M382.7,94.6l78.7,43.5v197.6c0,0.6-0.3,1.2-0.9,1.5l-77.8,45c-2,1.2-4.5,1.2-6.6,0 l-77.7-44.9c-0.6-0.4-1-1-1-1.7l0-197.5l78.7-43.5C378.1,93.4,380.6,93.4,382.7,94.6z" class="st60"/><linearGradient id="XMLID_10_" x1="297.385" x2="461.368" y1="138.033" y2="138.033" gradientUnits="userSpaceOnUse"><stop offset="0" stop-color="#F0E5FF"/><stop offset="1" stop-color="#FFF"/></linearGradient><path id="XMLID_927_" d="M376.1,90.7L299,135.2c-2.2,1.3-2.2,4.4,0,5.6l77.1,44.5c2,1.2,4.5,1.2,6.6,0l77.1-44.5 c2.2-1.3,2.2-4.4,0-5.6l-77.1-44.5C380.6,89.5,378.1,89.5,376.1,90.7z" class="st61"/></g><g><g id="XMLID_924_"><linearGradient id="XMLID_11_" x1="320.941" x2="438.455" y1="136.659" y2="136.659" gradientUnits="userSpaceOnUse"><stop offset="0" stop-color="#B4ACBF"/><stop offset=".515" stop-color="#D1C8DE"/><stop offset="1" stop-color="#F0E5FF"/></linearGradient><path id="XMLID_926_" d="M377.3,102.8l-56.4,26.8v7.7c0,0.4,0.2,0.9,0.6,1.1l55.8,32.3c1.5,0.8,3.3,0.8,4.7,0 l55.7-32.2c0.4-0.3,0.7-0.7,0.7-1.2v-7.6l-56.4-26.8C380.6,101.9,378.8,101.9,377.3,102.8z" class="st62"/><linearGradient id="XMLID_12_" x1="320.94" x2="438.455" y1="129.547" y2="129.547" gradientUnits="userSpaceOnUse"><stop offset="0" stop-color="#F0E5FF"/><stop offset="1" stop-color="#FFF"/></linearGradient><path id="XMLID_925_" d="M377.3,95.6l-55.2,31.9c-1.6,0.9-1.6,3.1,0,4l55.2,31.9c1.5,0.8,3.3,0.8,4.7,0 l55.2-31.9c1.6-0.9,1.6-3.1,0-4l-55.2-31.9C380.6,94.8,378.8,94.8,377.3,95.6z" class="st63"/></g><linearGradient id="XMLID_13_" x1="337.472" x2="421.291" y1="128.461" y2="128.461" gradientUnits="userSpaceOnUse"><stop offset="0" stop-color="#F0E5FF"/><stop offset="1" stop-color="#FFF"/></linearGradient><path id="XMLID_923_" d="M377.7,104.3L338.3,127c-1.1,0.6-1.1,2.2,0,2.9l39.4,22.7c1,0.6,2.3,0.6,3.4,0l39.4-22.7 c1.1-0.6,1.1-2.2,0-2.9l-39.4-22.7C380,103.7,378.7,103.7,377.7,104.3z" class="st64"/><linearGradient id="XMLID_14_" x1="337.48" x2="421.283" y1="140.316" y2="140.316" gradientUnits="userSpaceOnUse"><stop offset="0" stop-color="#B4ACBF"/><stop offset=".515" stop-color="#D1C8DE"/><stop offset="1" stop-color="#F0E5FF"/></linearGradient><path id="XMLID_922_" d="M420.5,128.1l-39.4,22.7c-1,0.6-2.3,0.6-3.4,0l-39.4-22.7c-0.2-0.1-0.4-0.3-0.5-0.5 c-0.5,0.8-0.3,1.9,0.5,2.4l39.4,22.7c1,0.6,2.3,0.6,3.4,0l39.4-22.7c0.9-0.5,1-1.6,0.5-2.4 C420.9,127.7,420.7,127.9,420.5,128.1z" class="st65"/></g></g><radialGradient id="XMLID_15_" cx="379.697" cy="7665.654" r="37.415" gradientTransform="matrix(1 0 0 0.5172 0 -3836.8115)" gradientUnits="userSpaceOnUse"><stop offset="0" stop-color="#120426"/><stop offset=".086" stop-color="#1A0D2E" stop-opacity=".914"/><stop offset=".226" stop-color="#322543" stop-opacity=".774"/><stop offset=".403" stop-color="#574D65" stop-opacity=".597"/><stop offset=".61" stop-color="#8B8495" stop-opacity=".39"/><stop offset=".84" stop-color="#CDCAD1" stop-opacity=".161"/><stop offset="1" stop-color="#FFF" stop-opacity="0"/></radialGradient><path id="XMLID_921_" d="M353.5,112.7c14.4-8.3,38-8.3,52.4,0c14.4,8.3,14.4,21.9,0,30.3c-14.4,8.3-38,8.3-52.4,0 C339.1,134.7,339.1,121.1,353.5,112.7z" class="st66"/><g><g><g class="st0"><path id="XMLID_920_" d="M269.7,317.4c-13.6-7.8-35.8-7.8-49.4,0l-119.6,69.1c-13.6,7.8-13.6,20.7,0,28.5 l119.6,69.1c13.6,7.8,35.8,7.8,49.4,0L389.4,415c13.6-7.8,13.6-20.7,0-28.5L269.7,317.4z" class="st1"/><path d="M269.6,317.8c-13.5-7.8-35.6-7.8-49.2,0l-119.1,68.7c-13.5,7.8-13.5,20.6,0,28.4l119.1,68.7 c13.5,7.8,35.6,7.8,49.2,0L388.7,415c13.5-7.8,13.5-20.6,0-28.4L269.6,317.8z" class="st2"/><path d="M269.5,318.2c-13.5-7.8-35.5-7.8-48.9,0l-118.5,68.4c-13.5,7.8-13.5,20.5,0,28.2l118.5,68.4 c13.5,7.8,35.5,7.8,48.9,0L388,414.9c13.5-7.8,13.5-20.5,0-28.2L269.5,318.2z" class="st3"/><path d="M269.4,318.6c-13.4-7.7-35.3-7.7-48.7,0l-117.9,68.1c-13.4,7.7-13.4,20.4,0,28.1l117.9,68.1 c13.4,7.7,35.3,7.7,48.7,0l117.9-68.1c13.4-7.7,13.4-20.4,0-28.1L269.4,318.6z" class="st4"/><path d="M269.3,319c-13.3-7.7-35.1-7.7-48.4,0l-117.4,67.8c-13.3,7.7-13.3,20.3,0,28l117.4,67.8 c13.3,7.7,35.1,7.7,48.4,0l117.3-67.8c13.3-7.7,13.3-20.3,0-28L269.3,319z" class="st5"/><path d="M269.1,319.4c-13.3-7.7-34.9-7.7-48.2,0l-116.8,67.4c-13.3,7.7-13.3,20.2,0,27.8l116.8,67.4 c13.3,7.7,34.9,7.7,48.2,0l116.8-67.4c13.3-7.7,13.3-20.2,0-27.8L269.1,319.4z" class="st6"/><path d="M269,319.8c-13.2-7.6-34.8-7.6-48,0l-116.2,67.1c-13.2,7.6-13.2,20.1,0,27.7L221,481.7 c13.2,7.6,34.8,7.6,48,0l116.2-67.1c13.2-7.6,13.2-20.1,0-27.7L269,319.8z" class="st7"/><path d="M268.9,320.2c-13.1-7.6-34.6-7.6-47.7,0L105.5,387c-13.1,7.6-13.1,20,0,27.6l115.6,66.8 c13.1,7.6,34.6,7.6,47.7,0l115.6-66.8c13.1-7.6,13.1-20,0-27.6L268.9,320.2z" class="st8"/><path d="M268.8,320.6c-13.1-7.5-34.4-7.5-47.5,0l-115.1,66.4c-13.1,7.5-13.1,19.9,0,27.4l115.1,66.4 c13.1,7.5,34.4,7.5,47.5,0l115.1-66.4c13.1-7.5,13.1-19.9,0-27.4L268.8,320.6z" class="st9"/><path d="M268.7,321c-13-7.5-34.3-7.5-47.3,0l-114.5,66.1c-13,7.5-13,19.8,0,27.3l114.5,66.1 c13,7.5,34.3,7.5,47.3,0l114.5-66.1c13-7.5,13-19.8,0-27.3L268.7,321z" class="st10"/><path d="M268.5,321.4c-12.9-7.5-34.1-7.5-47,0l-113.9,65.8c-12.9,7.5-12.9,19.7,0,27.1l113.9,65.8 c12.9,7.5,34.1,7.5,47,0l113.9-65.8c12.9-7.5,12.9-19.7,0-27.1L268.5,321.4z" class="st11"/><path d="M268.4,321.8c-12.9-7.4-33.9-7.4-46.8,0l-113.3,65.4c-12.9,7.4-12.9,19.6,0,27l113.3,65.4 c12.9,7.4,33.9,7.4,46.8,0l113.3-65.4c12.9-7.4,12.9-19.6,0-27L268.4,321.8z" class="st12"/><path d="M268.3,322.2c-12.8-7.4-33.7-7.4-46.5,0L109,387.3c-12.8,7.4-12.8,19.5,0,26.9l112.8,65.1 c12.8,7.4,33.7,7.4,46.5,0l112.8-65.1c12.8-7.4,12.8-19.5,0-26.9L268.3,322.2z" class="st13"/><path d="M268.2,322.6c-12.7-7.4-33.6-7.4-46.3,0l-112.2,64.8c-12.7,7.4-12.7,19.4,0,26.7l112.2,64.8 c12.7,7.4,33.6,7.4,46.3,0l112.2-64.8c12.7-7.4,12.7-19.4,0-26.7L268.2,322.6z" class="st14"/><path d="M268.1,323c-12.7-7.3-33.4-7.3-46.1,0l-111.6,64.4c-12.7,7.3-12.7,19.3,0,26.6L222,478.5 c12.7,7.3,33.4,7.3,46.1,0l111.6-64.4c12.7-7.3,12.7-19.3,0-26.6L268.1,323z" class="st15"/><path d="M267.9,323.4c-12.6-7.3-33.2-7.3-45.8,0l-111,64.1c-12.6,7.3-12.6,19.2,0,26.5l111,64.1 c12.6,7.3,33.2,7.3,45.8,0L379,414c12.6-7.3,12.6-19.2,0-26.5L267.9,323.4z" class="st16"/><path d="M267.8,323.8c-12.5-7.2-33.1-7.2-45.6,0l-110.5,63.8c-12.5,7.2-12.5,19.1,0,26.3l110.5,63.8 c12.5,7.2,33.1,7.2,45.6,0l110.5-63.8c12.5-7.2,12.5-19.1,0-26.3L267.8,323.8z" class="st17"/><path d="M267.7,324.2c-12.5-7.2-32.9-7.2-45.4,0l-109.9,63.4c-12.5,7.2-12.5,19,0,26.2l109.9,63.4 c12.5,7.2,32.9,7.2,45.4,0l109.9-63.4c12.5-7.2,12.5-19,0-26.2L267.7,324.2z" class="st18"/><path d="M267.6,324.6c-12.4-7.2-32.7-7.2-45.1,0l-109.3,63.1c-12.4,7.2-12.4,18.9,0,26.1l109.3,63.1 c12.4,7.2,32.7,7.2,45.1,0l109.3-63.1c12.4-7.2,12.4-18.9,0-26.1L267.6,324.6z" class="st19"/><path d="M267.5,325c-12.3-7.1-32.5-7.1-44.9,0l-108.7,62.8c-12.3,7.1-12.3,18.8,0,25.9l108.7,62.8 c12.3,7.1,32.5,7.1,44.9,0l108.7-62.8c12.3-7.1,12.3-18.8,0-25.9L267.5,325z" class="st20"/><path d="M267.4,325.4c-12.3-7.1-32.4-7.1-44.6,0l-108.2,62.4c-12.3,7.1-12.3,18.7,0,25.8l108.2,62.5 c12.3,7.1,32.4,7.1,44.6,0l108.2-62.5c12.3-7.1,12.3-18.7,0-25.8L267.4,325.4z" class="st21"/><path d="M267.2,325.8c-12.2-7.1-32.2-7.1-44.4,0L115.2,388c-12.2,7.1-12.2,18.6,0,25.6l107.6,62.1 c12.2,7.1,32.2,7.1,44.4,0l107.6-62.1c12.2-7.1,12.2-18.6,0-25.6L267.2,325.8z" class="st22"/><path d="M267.1,326.2c-12.1-7-32-7-44.2,0l-107,61.8c-12.1,7-12.1,18.5,0,25.5l107,61.8c12.1,7,32,7,44.2,0 l107-61.8c12.1-7,12.1-18.5,0-25.5L267.1,326.2z" class="st23"/><path d="M267,326.6c-12.1-7-31.9-7-43.9,0l-106.4,61.5c-12.1,7-12.1,18.4,0,25.4l106.4,61.5 c12.1,7,31.9,7,43.9,0l106.4-61.5c12.1-7,12.1-18.4,0-25.4L267,326.6z" class="st24"/><path d="M266.9,327c-12-6.9-31.7-6.9-43.7,0l-105.9,61.1c-12,6.9-12,18.3,0,25.2l105.9,61.1 c12,6.9,31.7,6.9,43.7,0l105.9-61.1c12-6.9,12-18.3,0-25.2L266.9,327z" class="st25"/><path d="M266.8,327.4c-12-6.9-31.5-6.9-43.5,0L118,388.2c-12,6.9-12,18.2,0,25.1l105.3,60.8 c12,6.9,31.5,6.9,43.5,0l105.3-60.8c12-6.9,12-18.2,0-25.1L266.8,327.4z" class="st26"/><path d="M266.6,327.8c-11.9-6.9-31.3-6.9-43.2,0l-104.7,60.5c-11.9,6.9-11.9,18.1,0,25l104.7,60.5 c11.9,6.9,31.3,6.9,43.2,0l104.7-60.5c11.9-6.9,11.9-18.1,0-25L266.6,327.8z" class="st27"/><path d="M266.5,328.2c-11.8-6.8-31.2-6.8-43,0l-104.1,60.1c-11.8,6.8-11.8,18,0,24.8l104.1,60.1 c11.8,6.8,31.2,6.8,43,0l104.1-60.1c11.8-6.8,11.8-18,0-24.8L266.5,328.2z" class="st28"/><path d="M266.4,328.6c-11.8-6.8-31-6.8-42.8,0l-103.6,59.8c-11.8,6.8-11.8,17.9,0,24.7l103.6,59.8 c11.8,6.8,31,6.8,42.8,0L370,413.1c11.8-6.8,11.8-17.9,0-24.7L266.4,328.6z" class="st29"/><path d="M266.3,329c-11.7-6.7-30.8-6.7-42.5,0l-103,59.5c-11.7,6.8-11.7,17.8,0,24.5l103,59.5 c11.7,6.8,30.8,6.8,42.5,0l103-59.5c11.7-6.7,11.7-17.8,0-24.5L266.3,329z" class="st30"/><path d="M266.2,329.4c-11.6-6.7-30.7-6.7-42.3,0l-102.4,59.1c-11.6,6.7-11.6,17.7,0,24.4l102.4,59.1 c11.6,6.7,30.7,6.7,42.3,0L368.6,413c11.6-6.7,11.6-17.7,0-24.4L266.2,329.4z" class="st31"/><path d="M266.1,329.8c-11.6-6.7-30.5-6.7-42,0l-101.9,58.8c-11.6,6.7-11.6,17.6,0,24.3L224,471.7 c11.6,6.7,30.5,6.7,42,0l101.9-58.8c11.6-6.7,11.6-17.6,0-24.3L266.1,329.8z" class="st32"/><path d="M265.9,330.2c-11.5-6.6-30.3-6.6-41.8,0l-101.3,58.5c-11.5,6.6-11.5,17.5,0,24.1l101.3,58.5 c11.5,6.6,30.3,6.6,41.8,0l101.3-58.5c11.5-6.6,11.5-17.5,0-24.1L265.9,330.2z" class="st33"/><path d="M265.8,330.6c-11.4-6.6-30.1-6.6-41.6,0l-100.7,58.1c-11.4,6.6-11.4,17.4,0,24l100.7,58.1 c11.4,6.6,30.1,6.6,41.6,0l100.7-58.1c11.4-6.6,11.4-17.4,0-24L265.8,330.6z" class="st34"/><path d="M265.7,331c-11.4-6.6-30-6.6-41.3,0l-100.1,57.8c-11.4,6.6-11.4,17.3,0,23.9l100.1,57.8 c11.4,6.6,30,6.6,41.3,0l100.1-57.8c11.4-6.6,11.4-17.3,0-23.9L265.7,331z" class="st35"/><path d="M265.6,331.4c-11.3-6.5-29.8-6.5-41.1,0l-99.6,57.5c-11.3,6.5-11.3,17.2,0,23.7l99.6,57.5 c11.3,6.5,29.8,6.5,41.1,0l99.6-57.5c11.3-6.5,11.3-17.2,0-23.7L265.6,331.4z" class="st36"/><path d="M265.5,331.8c-11.2-6.5-29.6-6.5-40.9,0l-99,57.1c-11.2,6.5-11.2,17.1,0,23.6l99,57.1 c11.2,6.5,29.6,6.5,40.9,0l99-57.1c11.2-6.5,11.2-17.1,0-23.6L265.5,331.8z" class="st37"/><path d="M265.3,332.2c-11.2-6.4-29.4-6.4-40.6,0l-98.4,56.8c-11.2,6.5-11.2,17,0,23.5l98.4,56.8 c11.2,6.4,29.4,6.4,40.6,0l98.4-56.8c11.2-6.4,11.2-17,0-23.5L265.3,332.2z" class="st38"/><path d="M265.2,332.6c-11.1-6.4-29.3-6.4-40.4,0L127,389.1c-11.1,6.4-11.1,16.9,0,23.3l97.8,56.5 c11.1,6.4,29.3,6.4,40.4,0l97.8-56.5c11.1-6.4,11.1-16.9,0-23.3L265.2,332.6z" class="st39"/><path d="M265.1,333c-11-6.4-29.1-6.4-40.1,0l-97.3,56.2c-11,6.4-11,16.8,0,23.2l97.3,56.2 c11,6.4,29.1,6.4,40.1,0l97.3-56.2c11-6.4,11-16.8,0-23.2L265.1,333z" class="st40"/><path d="M265,333.4c-11-6.3-28.9-6.3-39.9,0l-96.7,55.8c-11,6.3-11,16.7,0,23l96.7,55.8c11,6.3,28.9,6.3,39.9,0 l96.7-55.8c11-6.3,11-16.7,0-23L265,333.4z" class="st41"/><path d="M264.9,333.8c-10.9-6.3-28.8-6.3-39.7,0l-96.1,55.5c-10.9,6.3-10.9,16.6,0,22.9l96.1,55.5 c10.9,6.3,28.8,6.3,39.7,0l96.1-55.5c10.9-6.3,10.9-16.6,0-22.9L264.9,333.8z" class="st42"/><path d="M264.7,334.2c-10.8-6.3-28.6-6.3-39.4,0l-95.5,55.2c-10.8,6.3-10.8,16.5,0,22.8l95.5,55.2 c10.8,6.3,28.6,6.3,39.4,0l95.5-55.2c10.8-6.3,10.8-16.5,0-22.8L264.7,334.2z" class="st43"/><path d="M264.6,334.6c-10.8-6.2-28.4-6.2-39.2,0l-95,54.8c-10.8,6.2-10.8,16.4,0,22.6l95,54.8 c10.8,6.2,28.4,6.2,39.2,0l95-54.8c10.8-6.2,10.8-16.4,0-22.6L264.6,334.6z" class="st44"/><path d="M264.5,335c-10.7-6.2-28.2-6.2-39,0l-94.4,54.5c-10.7,6.2-10.7,16.3,0,22.5l94.4,54.5 c10.7,6.2,28.2,6.2,39,0l94.4-54.5c10.7-6.2,10.7-16.3,0-22.5L264.5,335z" class="st45"/><path d="M264.4,335.4c-10.6-6.1-28.1-6.1-38.7,0l-93.8,54.2c-10.6,6.1-10.6,16.2,0,22.4l93.8,54.2 c10.6,6.1,28.1,6.1,38.7,0l93.8-54.2c10.7-6.1,10.7-16.2,0-22.4L264.4,335.4z" class="st46"/><path d="M264.3,335.8c-10.6-6.1-27.9-6.1-38.5,0l-93.2,53.8c-10.6,6.1-10.6,16.1,0,22.2l93.2,53.8 c10.6,6.1,27.9,6.1,38.5,0l93.2-53.8c10.6-6.1,10.6-16.1,0-22.2L264.3,335.8z" class="st47"/><path d="M264.2,336.2c-10.5-6.1-27.7-6.1-38.3,0l-92.7,53.5c-10.5,6.1-10.5,16,0,22.1l92.7,53.5 c10.5,6.1,27.7,6.1,38.3,0l92.7-53.5c10.5-6.1,10.5-16,0-22.1L264.2,336.2z" class="st48"/><path d="M264,336.6c-10.5-6-27.6-6-38,0l-92.1,53.2c-10.5,6-10.5,15.9,0,21.9l92.1,53.2c10.5,6,27.6,6,38,0 l92.1-53.2c10.5-6,10.5-15.9,0-21.9L264,336.6z" class="st49"/><path d="M263.9,337c-10.4-6-27.4-6-37.8,0l-91.5,52.8c-10.4,6-10.4,15.8,0,21.8l91.5,52.8c10.4,6,27.4,6,37.8,0 l91.5-52.8c10.4-6,10.4-15.8,0-21.8L263.9,337z" class="st50"/><path d="M263.8,337.4c-10.3-6-27.2-6-37.5,0l-90.9,52.5c-10.3,6-10.3,15.7,0,21.7l90.9,52.5 c10.3,6,27.2,6,37.5,0l90.9-52.5c10.3-6,10.3-15.7,0-21.7L263.8,337.4z" class="st51"/><path id="XMLID_919_" d="M263.7,337.8c-10.3-5.9-27-5.9-37.3,0L136,390c-10.3,5.9-10.3,15.6,0,21.5l90.4,52.2 c10.3,5.9,27,5.9,37.3,0l90.4-52.2c10.3-5.9,10.3-15.6,0-21.5L263.7,337.8z" class="st52"/></g><linearGradient id="XMLID_16_" x1="-4392.758" x2="-4672.097" y1="341.668" y2="341.668" gradientTransform="matrix(-1 0 0 1 -4287.0015 0)" gradientUnits="userSpaceOnUse"><stop offset="0" stop-color="#B4ACBF"/><stop offset=".6" stop-color="#F0E5FF"/></linearGradient><path id="XMLID_918_" d="M251,203.7l134.1,74.1v122.7c0,1.1-0.6,2-1.5,2.6L251,479.7c-3.5,2-7.7,2-11.2,0 l-132.4-76.6c-1-0.6-1.7-1.7-1.7-2.9l0-122.5l134.1-74.1C243.3,201.7,247.6,201.7,251,203.7z" class="st67"/><linearGradient id="XMLID_17_" x1="105.756" x2="385.096" y1="277.735" y2="277.735" gradientUnits="userSpaceOnUse"><stop offset="0" stop-color="#F0E5FF"/><stop offset="1" stop-color="#FFF"/></linearGradient><path id="XMLID_917_" d="M239.8,197.1l-131.3,75.8c-3.7,2.1-3.7,7.5,0,9.6l131.3,75.8c3.5,2,7.7,2,11.2,0 l131.3-75.8c3.7-2.1,3.7-7.5,0-9.6L251,197.1C247.6,195.1,243.3,195.1,239.8,197.1z" class="st68"/></g><g><g id="XMLID_914_"><linearGradient id="XMLID_18_" x1="137.624" x2="353.228" y1="275.252" y2="275.252" gradientUnits="userSpaceOnUse"><stop offset="0" stop-color="#B4ACBF"/><stop offset=".515" stop-color="#D1C8DE"/><stop offset="1" stop-color="#F0E5FF"/></linearGradient><path id="XMLID_916_" d="M241.1,213l-103.5,49.2v14.1c0,0.8,0.4,1.6,1.1,2l102.3,59.2c2.7,1.5,6,1.5,8.7,0 l102.2-59.1c0.8-0.5,1.3-1.3,1.3-2.3v-13.9L249.8,213C247.1,211.5,243.8,211.5,241.1,213z" class="st69"/><linearGradient id="XMLID_19_" x1="137.624" x2="353.228" y1="262.204" y2="262.204" gradientUnits="userSpaceOnUse"><stop offset="0" stop-color="#F0E5FF"/><stop offset="1" stop-color="#FFF"/></linearGradient><path id="XMLID_915_" d="M241.1,200l-101.3,58.5c-2.9,1.6-2.9,5.8,0,7.4l101.3,58.5c2.7,1.5,6,1.5,8.7,0 l101.3-58.5c2.9-1.6,2.9-5.8,0-7.4L249.8,200C247.1,198.4,243.8,198.4,241.1,200z" class="st70"/></g><linearGradient id="XMLID_20_" x1="167.955" x2="321.737" y1="260.211" y2="260.211" gradientUnits="userSpaceOnUse"><stop offset="0" stop-color="#F0E5FF"/><stop offset="1" stop-color="#FFF"/></linearGradient><path id="XMLID_913_" d="M241.8,215.8l-72.3,41.7c-2,1.2-2,4.1,0,5.3l72.3,41.7c1.9,1.1,4.3,1.1,6.2,0l72.3-41.7 c2-1.2,2-4.1,0-5.3l-72.3-41.7C246,214.7,243.7,214.7,241.8,215.8z" class="st71"/><linearGradient id="XMLID_21_" x1="167.969" x2="321.723" y1="281.962" y2="281.962" gradientUnits="userSpaceOnUse"><stop offset="0" stop-color="#B4ACBF"/><stop offset=".515" stop-color="#D1C8DE"/><stop offset="1" stop-color="#F0E5FF"/></linearGradient><path id="XMLID_912_" d="M320.2,259.5l-72.3,41.7c-1.9,1.1-4.3,1.1-6.2,0l-72.3-41.7c-0.4-0.2-0.7-0.6-1-0.9 c-0.9,1.4-0.6,3.4,1,4.3l72.3,41.7c1.9,1.1,4.3,1.1,6.2,0l72.3-41.7c1.6-0.9,1.9-3,1-4.3C321,258.9,320.6,259.2,320.2,259.5z" class="st72"/></g></g><radialGradient id="XMLID_22_" cx="245.022" cy="7914.471" r="37.415" gradientTransform="matrix(1 0 0 0.5172 0 -3836.8115)" gradientUnits="userSpaceOnUse"><stop offset="0" stop-color="#120426"/><stop offset=".086" stop-color="#1A0D2E" stop-opacity=".914"/><stop offset=".226" stop-color="#322543" stop-opacity=".774"/><stop offset=".403" stop-color="#574D65" stop-opacity=".597"/><stop offset=".61" stop-color="#8B8495" stop-opacity=".39"/><stop offset=".84" stop-color="#CDCAD1" stop-opacity=".161"/><stop offset="1" stop-color="#FFF" stop-opacity="0"/></radialGradient><path id="XMLID_911_" d="M218.8,241.4c14.4-8.3,38-8.3,52.4,0c14.4,8.3,14.4,21.9,0,30.3c-14.4,8.3-38,8.3-52.4,0 C204.4,263.4,204.4,249.7,218.8,241.4z" class="st73"/></g><g><radialGradient id="SVGID_1_" cx="210.429" cy="1614.89" r="30.177" gradientTransform="matrix(0.9023 -0.5209 0 1.042 55.1656 -1363.2494)" gradientUnits="userSpaceOnUse"><stop offset="0" stop-color="#491E8C"/><stop offset="1" stop-color="#9452FF"/></radialGradient><path d="M245,178.4c15-8.7,27.2-1.6,27.2,15.7s-12.2,38.5-27.2,47.2s-27.2,1.6-27.2-15.7S230,187,245,178.4z" class="st74"/><g><radialGradient id="SVGID_2_" cx="210.305" cy="1614.89" r="28.586" gradientTransform="matrix(0.9023 -0.5209 0 1.042 55.1656 -1363.2494)" gradientUnits="userSpaceOnUse"><stop offset="0" stop-color="#251440"/><stop offset="1" stop-color="#491E8C"/></radialGradient><path d="M245.4,184.2c3-1.7,5.8-2.7,8.5-2.9c2.6-0.2,5,0.3,7,1.4c2,1.2,3.6,2.9,4.7,5.3c1.1,2.5,1.7,5.4,1.7,8.9 c0,3.4-0.6,7.1-1.7,10.8c-1.1,3.7-2.7,7.3-4.7,10.8c-2,3.5-4.3,6.7-7,9.5c-2.7,2.9-5.6,5.2-8.5,6.9c-3,1.7-5.8,2.7-8.5,2.9 c-2.6,0.2-5-0.3-7-1.4c-2-1.2-3.6-2.9-4.7-5.3c-1.1-2.5-1.7-5.4-1.7-8.9c0-3.4,0.6-7.1,1.7-10.8c1.1-3.7,2.7-7.3,4.7-10.8 c2-3.5,4.3-6.7,7-9.5C239.6,188.3,242.5,185.9,245.4,184.2 M244.9,180.1c-14.2,8.2-25.8,28.2-25.8,44.7s11.6,23.1,25.8,14.9 c14.2-8.2,25.8-28.2,25.8-44.7S259.1,171.9,244.9,180.1L244.9,180.1z" class="st75"/><g class="st76"><path d="M245.4,184.2c12.1-7,21.9-1.3,21.9,12.7c0,14-9.8,31-21.9,38c-12.1,7-21.9,1.3-21.9-12.7 C223.5,208.2,233.3,191.2,245.4,184.2z" class="st77"/></g><g id="Brandmark_355_"><path id="Core-1_356_" d="M245.4,198.4c1.4-0.8,2.5-0.2,2.5,1.5c0,1.6-1.1,3.6-2.5,4.4c-1.4,0.8-2.5,0.2-2.5-1.5 C242.9,201.2,244,199.3,245.4,198.4z" class="st78"/><path id="Core-2_356_" d="M238,209c1.4-0.8,2.5-0.2,2.5,1.5s-1.1,3.6-2.5,4.4c-1.4,0.8-2.5,0.2-2.5-1.5 S236.6,209.8,238,209z" class="st78"/><path id="Core-3_356_" d="M252.8,200.4c1.4-0.8,2.5-0.2,2.5,1.5c0,1.6-1.1,3.6-2.5,4.4c-1.4,0.8-2.5,0.2-2.5-1.5 C250.3,203.2,251.4,201.2,252.8,200.4z" class="st78"/><path id="Core-4_356_" d="M240.8,217.4c1.4-0.8,2.5-0.2,2.5,1.5c0,1.6-1.1,3.6-2.5,4.4c-1.4,0.8-2.5,0.2-2.5-1.5 S239.4,218.2,240.8,217.4z" class="st78"/><path id="Core-5_356_" d="M250,212.2c1.4-0.8,2.5-0.2,2.5,1.5c0,1.6-1.1,3.6-2.5,4.4c-1.4,0.8-2.5,0.2-2.5-1.5 C247.4,214.9,248.6,213,250,212.2z" class="st78"/><path id="Center_355_" d="M246.8,216.9c0-1,0.3-2.1,0.9-3.2c0.6-1.1,1.4-1.9,2.3-2.4c0.8-0.5,1.6-0.6,2.1-0.2 c0.5-1.4,0.9-2.8,1-4.2c-0.1,0.1-0.2,0.2-0.4,0.3c-0.9,0.5-1.7,0.6-2.3,0.2c-0.6-0.4-0.9-1.1-0.9-2.1c0-1,0.3-2.1,0.9-3.2 c0.2-0.4,0.5-0.7,0.7-1c-0.7-0.5-1.6-0.8-2.7-0.7c-0.1,0.8-0.5,1.6-0.9,2.3c-0.6,1.1-1.4,1.9-2.3,2.4c-0.9,0.5-1.6,0.6-2.3,0.2 c-0.5-0.3-0.7-0.8-0.9-1.3c-1,1.1-1.9,2.4-2.7,3.8c0.2,0,0.5,0.1,0.7,0.2c0.6,0.4,0.9,1.1,0.9,2.1c0,1-0.3,2.1-0.9,3.2 c-0.6,1.1-1.4,1.9-2.3,2.4c-0.1,0.1-0.2,0.1-0.4,0.2c0.1,1.3,0.5,2.3,1,3c0.6-1,1.4-1.8,2.1-2.2c0.9-0.5,1.6-0.6,2.3-0.2 c0.6,0.4,0.9,1.1,0.9,2.1c0,0.5-0.1,1.1-0.3,1.7c0.5-0.2,1.1-0.4,1.6-0.8c0.5-0.3,1.1-0.7,1.7-1.2 C246.9,217.9,246.8,217.5,246.8,216.9z" class="st79"/><path id="Circles_355_" d="M261.7,194c-0.5-1-1.2-1.8-2.1-2.3c-0.9-0.5-1.9-0.8-3-0.6c-0.8,0.1-1.6,0.3-2.4,0.6 c-0.5-0.9-1.1-1.5-1.9-2c-0.9-0.5-1.9-0.8-3-0.6c-1.2,0.1-2.4,0.5-3.7,1.3c-1.3,0.8-2.5,1.8-3.7,3.1c-1.1,1.2-2.1,2.6-3,4.1 c-0.8,1.3-1.4,2.7-1.9,4.2c-0.9,0.7-1.7,1.4-2.6,2.3c-1.1,1.2-2.1,2.6-3,4.1c-0.9,1.5-1.6,3.1-2.1,4.7 c-0.5,1.7-0.8,3.2-0.8,4.8c0,1.5,0.2,2.8,0.8,3.9c0.5,1,1.2,1.8,2.1,2.3c0,0,0.1,0.1,0.2,0.1c-0.1,0.7-0.2,1.5-0.2,2.1 c0,1.5,0.2,2.8,0.8,3.9c0.5,1,1.2,1.8,2.1,2.3c0.9,0.5,1.9,0.8,3,0.6c1.2-0.1,2.4-0.5,3.7-1.3c1.3-0.8,2.5-1.8,3.7-3.1 c0.3-0.3,0.6-0.7,0.9-1c0.3,0,0.6,0,0.9,0c1.2-0.1,2.4-0.5,3.7-1.3c1.3-0.7,2.5-1.8,3.7-3.1c1.1-1.2,2.1-2.6,3-4.1 c0.9-1.5,1.6-3.1,2.1-4.7c0.5-1.7,0.8-3.2,0.8-4.8c0-0.7,0-1.3-0.2-1.9c0.1-0.1,0.1-0.2,0.2-0.4c0.9-1.5,1.6-3.1,2.1-4.7 c0.5-1.7,0.8-3.2,0.8-4.8C262.4,196.4,262.1,195,261.7,194z M260.9,202.6c-0.4,1.4-1,2.8-1.7,4c-0.1-0.4-0.2-0.7-0.4-1 c-0.5-1-1.2-1.8-2.1-2.3c-0.3-0.2-0.6-0.3-0.9-0.4c-0.1,0.3-0.2,0.7-0.4,1c0.3,0.1,0.5,0.2,0.7,0.3c0.8,0.5,1.4,1.2,1.9,2.1 c0.2,0.4,0.3,0.9,0.5,1.3c-0.7,1.1-1.4,2.1-2.3,3c-0.9,1-2,1.8-3,2.6c0,0.3,0,0.6-0.1,1c1.2-0.7,2.4-1.7,3.4-2.8 c0.8-0.8,1.5-1.7,2.1-2.7c0,0.4,0.1,0.9,0.1,1.3c0,1.4-0.2,2.8-0.7,4.4c-0.5,1.4-1.1,2.9-1.9,4.3c-0.8,1.4-1.7,2.7-2.8,3.8 c-1.1,1.2-2.2,2.1-3.4,2.8c-1.2,0.7-2.3,1.1-3.4,1.2c-0.1,0-0.2,0-0.4,0c0.5-0.7,0.9-1.4,1.4-2.1c0.9-1.5,1.6-3.1,2.1-4.7 c0.1-0.2,0.1-0.4,0.2-0.7c-0.3,0.2-0.5,0.3-0.8,0.3c0,0.2-0.1,0.3-0.1,0.5c-0.5,1.4-1.1,2.9-1.9,4.3c-0.5,0.9-1,1.7-1.6,2.4 c-0.6-0.1-1.1-0.2-1.6-0.5c-0.8-0.5-1.4-1.2-1.9-2.1c0-0.1-0.1-0.2-0.1-0.4c-0.2,0.2-0.5,0.4-0.8,0.6c0,0.2,0.1,0.4,0.2,0.5 c0.5,1,1.2,1.8,2.1,2.3c0.5,0.3,0.9,0.4,1.4,0.5c-0.1,0.1-0.2,0.3-0.4,0.4c-1.1,1.2-2.2,2.1-3.4,2.8c-1.2,0.7-2.3,1.1-3.4,1.2 c-1,0.1-2-0.1-2.8-0.6c-0.8-0.5-1.4-1.2-1.9-2.1c-0.5-1-0.7-2.2-0.7-3.6c0-0.4,0-0.9,0.1-1.4c0.7,0.2,1.4,0.3,2.1,0.2 c1.1-0.1,2.3-0.5,3.4-1.1c-0.1-0.2-0.1-0.5-0.1-0.8c-1.1,0.6-2.1,0.9-3,0.9c-0.9,0.1-1.6,0-2.3-0.3c0.1-0.6,0.3-1.3,0.5-1.8 c0.5-1.4,1.1-2.9,1.9-4.3c0.2-0.4,0.5-0.8,0.7-1.2c-0.2-0.1-0.3-0.4-0.4-0.6c-0.3,0.5-0.6,1-0.9,1.5c-0.9,1.5-1.6,3.1-2.1,4.7 c-0.1,0.5-0.3,1-0.4,1.4c-0.7-0.5-1.4-1.1-1.7-2c-0.5-1-0.7-2.2-0.7-3.6c0-1.4,0.2-2.8,0.7-4.4c0.5-1.4,1.1-2.9,1.9-4.3 s1.7-2.7,2.8-3.8c0.6-0.7,1.3-1.3,1.9-1.8c-0.4,1.4-0.6,2.8-0.6,4.1c0,1,0.1,2,0.4,2.9c0.2-0.3,0.5-0.5,0.7-0.8 c-0.2-0.8-0.3-1.6-0.3-2.5c0-1.4,0.2-2.8,0.7-4.3c0.2-0.2,0.4-0.3,0.6-0.4c1.2-0.7,2.3-1.1,3.4-1.2c0.5,0,1,0,1.4,0.1 c0.1-0.2,0.2-0.4,0.3-0.6c0.1-0.1,0.2-0.3,0.2-0.4c-0.5-0.1-1.1-0.2-1.7-0.1c-1.2,0.1-2.4,0.5-3.7,1.3c-0.1,0-0.2,0.1-0.2,0.1 c0.4-1.1,0.9-2.2,1.5-3.2c0.8-1.4,1.7-2.7,2.8-3.8c1.1-1.2,2.2-2.1,3.4-2.8c1.2-0.7,2.3-1.1,3.4-1.2c1-0.1,2,0.1,2.8,0.6 c0.6,0.4,1.1,0.8,1.5,1.5c-0.1,0.1-0.2,0.1-0.4,0.2c-1.3,0.7-2.5,1.8-3.7,3.1c-0.6,0.6-1.1,1.3-1.7,2.1c0.1,0,0.2,0,0.2,0.1 c0.1,0.1,0.2,0.1,0.3,0.3c0.5-0.6,0.9-1.2,1.4-1.7c1.1-1.2,2.2-2.1,3.4-2.8c0.2-0.1,0.5-0.3,0.8-0.4c0.5,1,0.7,2.2,0.7,3.5 c0,0.9-0.1,1.9-0.3,2.9c0.2,0,0.5,0,0.7,0c0.3-1.2,0.4-2.3,0.4-3.4c0-1.3-0.2-2.4-0.6-3.4c0.6-0.2,1.2-0.4,1.8-0.4 c1-0.1,2,0.1,2.8,0.6c0.8,0.5,1.4,1.2,1.9,2.1c0.5,1,0.7,2.2,0.7,3.6C261.6,199.7,261.4,201.1,260.9,202.6z" class="st79"/></g></g></g><g><polygon points="110.3 74.4 109.8 76 109.8 122.5 110.3 123 131.9 110.2" class="st80"/><polygon points="110.3 74.4 88.7 110.2 110.3 123 110.3 100.4" class="st81"/><polygon points="110.3 127.1 110 127.4 110 143.9 110.3 144.7 131.9 114.3" class="st82"/><polygon points="110.3 144.7 110.3 127.1 88.7 114.3" class="st81"/><polygon points="110.3 123 131.9 110.2 110.3 100.4" class="st83"/><polygon points="88.7 110.2 110.3 123 110.3 100.4" class="st84"/></g><g><polygon points="372.5 79.1 359 86.9 359 102.5 359 118.2 372.5 110.3 386.1 102.5 386.1 86.9 386.1 71.3" class="st85"/><polygon points="372.5 63.5 372.5 79.1 372.5 94.7 386.1 86.9 399.6 79.1 399.6 47.8" class="st86"/><polygon points="359 118.2 372.5 110.3 372.5 94.7 359 102.5" class="st87"/><polygon points="386.1 71.3 399.6 63.5 399.6 47.8 386.1 55.7" class="st87"/><polygon points="372.5 94.7 386.1 86.9 386.1 71.3 372.5 79.1" class="st88"/></g></g></g></svg>