<svg xmlns="http://www.w3.org/2000/svg" xmlns:xlink="http://www.w3.org/1999/xlink" id="Layer_1" x="0" y="0" enable-background="new 0 0 400 400" version="1.1" viewBox="0 0 400 400" xml:space="preserve"><style type="text/css">.st0{fill:url(#SVGID_1_)}.st1{fill:#fff}</style><g><linearGradient id="SVGID_1_" x1="2.417" x2=".855" y1="399.849" y2="400.761" gradientTransform="matrix(256 0 0 -256 -255 102657)" gradientUnits="userSpaceOnUse"><stop offset="0" stop-color="#2697D4"/><stop offset=".5" stop-color="#207BCB"/><stop offset="1" stop-color="#2285CE"/></linearGradient><rect width="400" height="400" class="st0"/><g><path d="M218.3,173.4C198.1,166,187,160.2,187,151c0-7.7,6.4-12.2,17.7-12.2c20.8,0,42.1,8,56.7,15.2l8.3-51.2 c-11.6-5.5-35.4-14.7-68.3-14.7c-23.2,0-42.6,6.1-56.4,17.4c-14.4,11.9-21.9,29.1-21.9,49.8c0,37.6,23,53.7,60.3,67.2 c24.1,8.6,32.1,14.7,32.1,24.1c0,9.1-7.7,14.4-21.9,14.4c-17.4,0-46.2-8.6-65-19.6l-8.3,51.7c16,9.1,45.9,18.5,76.9,18.5 c24.6,0,45.1-5.8,58.9-16.9c15.5-12.2,23.5-30.2,23.5-53.4C279.7,203,256.2,187,218.3,173.4L218.3,173.4z" class="st1"/></g></g></svg>