<?xml version="1.0" encoding="utf-8"?>
<!-- Generator: Adobe Illustrator 21.0.0, SVG Export Plug-In . SVG Version: 6.00 Build 0)  -->
<svg version="1.1" id="Layer_1" xmlns="http://www.w3.org/2000/svg" xmlns:xlink="http://www.w3.org/1999/xlink" x="0px" y="0px"
	 viewBox="0 0 490 490" style="enable-background:new 0 0 490 490;" xml:space="preserve">
<style type="text/css">
	.st0{display:none;fill:url(#SVGID_1_);}
	.st1{display:none;fill:url(#SVGID_2_);}
	.st2{fill:#FFFFFF;fill-opacity:0;}
	.st3{opacity:1.960800e-02;fill:#FBFBFC;enable-background:new    ;}
	.st4{opacity:3.921600e-02;fill:#F8F8F9;enable-background:new    ;}
	.st5{opacity:5.882400e-02;fill:#F4F4F6;enable-background:new    ;}
	.st6{opacity:7.843100e-02;fill:#F1F1F3;enable-background:new    ;}
	.st7{opacity:9.803900e-02;fill:#EDEDF0;enable-background:new    ;}
	.st8{opacity:0.1176;fill:#E9E9ED;enable-background:new    ;}
	.st9{opacity:0.1373;fill:#E6E6EB;enable-background:new    ;}
	.st10{opacity:0.1569;fill:#E2E2E8;enable-background:new    ;}
	.st11{opacity:0.1765;fill:#DFDFE5;enable-background:new    ;}
	.st12{opacity:0.1961;fill:#DBDBE2;enable-background:new    ;}
	.st13{opacity:0.2157;fill:#D8D8DF;enable-background:new    ;}
	.st14{opacity:0.2353;fill:#D4D4DC;enable-background:new    ;}
	.st15{opacity:0.2549;fill:#D0D0D9;enable-background:new    ;}
	.st16{opacity:0.2745;fill:#CDCDD6;enable-background:new    ;}
	.st17{opacity:0.2941;fill:#C9C9D3;enable-background:new    ;}
	.st18{opacity:0.3137;fill:#C6C6D0;enable-background:new    ;}
	.st19{opacity:0.3333;fill:#C2C2CD;enable-background:new    ;}
	.st20{opacity:0.3529;fill:#BEBECA;enable-background:new    ;}
	.st21{opacity:0.3725;fill:#BBBBC7;enable-background:new    ;}
	.st22{opacity:0.3922;fill:#B7B7C5;enable-background:new    ;}
	.st23{opacity:0.4118;fill:#B4B4C2;enable-background:new    ;}
	.st24{opacity:0.4314;fill:#B0B0BF;enable-background:new    ;}
	.st25{opacity:0.451;fill:#ACACBC;enable-background:new    ;}
	.st26{opacity:0.4706;fill:#A9A9B9;enable-background:new    ;}
	.st27{opacity:0.4902;fill:#A5A5B6;enable-background:new    ;}
	.st28{opacity:0.5098;fill:#A2A2B3;enable-background:new    ;}
	.st29{opacity:0.5294;fill:#9E9EB0;enable-background:new    ;}
	.st30{opacity:0.549;fill:#9B9BAD;enable-background:new    ;}
	.st31{opacity:0.5686;fill:#9797AA;enable-background:new    ;}
	.st32{opacity:0.5882;fill:#9393A7;enable-background:new    ;}
	.st33{opacity:0.6078;fill:#9090A4;enable-background:new    ;}
	.st34{opacity:0.6275;fill:#8C8CA2;enable-background:new    ;}
	.st35{opacity:0.6471;fill:#89899F;enable-background:new    ;}
	.st36{opacity:0.6667;fill:#85859C;enable-background:new    ;}
	.st37{opacity:0.6863;fill:#818199;enable-background:new    ;}
	.st38{opacity:0.7059;fill:#7E7E96;enable-background:new    ;}
	.st39{opacity:0.7255;fill:#7A7A93;enable-background:new    ;}
	.st40{opacity:0.7451;fill:#777790;enable-background:new    ;}
	.st41{opacity:0.7647;fill:#73738D;enable-background:new    ;}
	.st42{opacity:0.7843;fill:#6F6F8A;enable-background:new    ;}
	.st43{opacity:0.8039;fill:#6C6C87;enable-background:new    ;}
	.st44{opacity:0.8235;fill:#686884;enable-background:new    ;}
	.st45{opacity:0.8431;fill:#656581;enable-background:new    ;}
	.st46{opacity:0.8627;fill:#61617E;enable-background:new    ;}
	.st47{opacity:0.8824;fill:#5E5E7C;enable-background:new    ;}
	.st48{opacity:0.902;fill:#5A5A79;enable-background:new    ;}
	.st49{opacity:0.9216;fill:#565676;enable-background:new    ;}
	.st50{opacity:0.9412;fill:#535373;enable-background:new    ;}
	.st51{opacity:0.9608;fill:#4F4F70;enable-background:new    ;}
	.st52{opacity:0.9804;fill:#4C4C6D;enable-background:new    ;}
	.st53{fill:#48486A;}
	.st54{fill:url(#SVGID_3_);}
	.st55{fill:url(#SVGID_4_);}
	.st56{fill:url(#XMLID_5_);}
	.st57{fill:url(#XMLID_6_);}
	.st58{fill:url(#XMLID_7_);}
	.st59{fill:url(#XMLID_8_);}
	.st60{opacity:0.43;fill:url(#XMLID_9_);enable-background:new    ;}
	.st61{fill:url(#SVGID_5_);}
	.st62{fill:url(#SVGID_6_);}
	.st63{fill:url(#XMLID_10_);}
	.st64{fill:url(#XMLID_11_);}
	.st65{fill:url(#XMLID_12_);}
	.st66{fill:url(#XMLID_13_);}
	.st67{fill:url(#SVGID_7_);}
	.st68{opacity:0.43;fill:url(#XMLID_14_);enable-background:new    ;}
	.st69{fill:url(#SVGID_8_);}
	.st70{fill:url(#SVGID_9_);}
	.st71{fill:url(#XMLID_15_);}
	.st72{fill:url(#XMLID_16_);}
	.st73{fill:url(#XMLID_17_);}
	.st74{fill:url(#XMLID_18_);}
	.st75{opacity:0.43;fill:url(#XMLID_19_);enable-background:new    ;}
	.st76{fill:#343434;}
	.st77{fill:#8C8C8C;}
	.st78{fill:#3C3C3B;}
	.st79{fill:#141414;}
	.st80{fill:#393939;}
	.st81{fill:url(#SVGID_10_);}
	.st82{fill:#FFFFFF;}
	.st83{fill:#9DE1F3;}
	.st84{fill:#27B4E1;}
	.st85{fill:#1A82E2;}
	.st86{fill:#239FD7;}
</style>
<linearGradient id="SVGID_1_" gradientUnits="userSpaceOnUse" x1="245" y1="494.4065" x2="245" y2="-3.412">
	<stop  offset="0" style="stop-color:#FFFFFF"/>
	<stop  offset="0.35" style="stop-color:#FFFFFF;stop-opacity:0.8"/>
	<stop  offset="0.4083" style="stop-color:#FFFFFF;stop-opacity:0.7283"/>
	<stop  offset="1" style="stop-color:#FFFFFF;stop-opacity:0"/>
</linearGradient>
<path class="st0" d="M488.8,0.2c0.7,6.3-1.9,12.9-8.2,16.5L275.5,135.1c-18.8,10.9-42,10.9-60.8,0L9,16.3C2.9,12.8,0,6.4,0.4,0.2H0
	v338.7v12.8c1.2,1.4,2.7,7.9,4.4,8.9l209.8,121.1c19.2,11.1,42.8,11.1,62,0l209-120.7c2-1.1,3.5-7.8,4.8-9.4V339V0.2H488.8z"/>
<linearGradient id="SVGID_2_" gradientUnits="userSpaceOnUse" x1="244.95" y1="491.4355" x2="244.95" y2="329.2613">
	<stop  offset="0" style="stop-color:#FFFFFF"/>
	<stop  offset="0.15" style="stop-color:#FFFFFF;stop-opacity:0.7"/>
	<stop  offset="0.2262" style="stop-color:#FFFFFF;stop-opacity:0.6373"/>
	<stop  offset="1" style="stop-color:#FFFFFF;stop-opacity:0"/>
</linearGradient>
<path class="st1" d="M10.7,330.5v20.1v12.2c1.2,1.3,2.6,2.5,4.2,3.5l200.6,115.8c18.3,10.6,40.9,10.6,59.2,0l199.9-115.4
	c1.9-1.1,3.4-2.5,4.6-4v-12.1v-20.1L10.7,330.5L10.7,330.5z"/>
<g>
	<g>
		<g>
			<g>
				<g id="XMLID_26216_">
					<path id="XMLID_26218_" class="st2" d="M105.7,281.2l-84,48.5c-2.3,1.4-2.3,4.8,0,6.2l84,48.5c2.2,1.3,4.9,1.3,7.2,0l84-48.5
						c2.3-1.4,2.3-4.8,0-6.2l-84-48.5C110.7,279.8,107.9,279.8,105.7,281.2z"/>
					<path class="st3" d="M105.7,281.2l-83.8,48.4c-2.3,1.4-2.3,4.8,0,6.2l83.8,48.4c2.2,1.3,4.9,1.3,7.2,0l83.8-48.4
						c2.3-1.4,2.3-4.8,0-6.2l-83.8-48.4C110.7,279.9,107.9,279.9,105.7,281.2z"/>
					<path class="st4" d="M105.7,281.4l-83.5,48.2c-2.3,1.4-2.3,4.8,0,6.1l83.5,48.2c2.2,1.3,4.9,1.3,7.1,0l83.5-48.2
						c2.3-1.4,2.3-4.8,0-6.1l-83.5-48.2C110.7,280.1,108,280.1,105.7,281.4z"/>
					<path class="st5" d="M105.7,281.5l-83.3,48.1c-2.3,1.3-2.3,4.8,0,6.1l83.3,48.1c2.2,1.3,4.9,1.3,7.1,0l83.3-48.1
						c2.3-1.3,2.3-4.8,0-6.1l-83.3-48.1C110.7,280.3,108,280.3,105.7,281.5z"/>
					<path class="st6" d="M105.7,281.7l-83,47.9c-2.3,1.3-2.3,4.8,0,6.1l83,47.9c2.2,1.3,4.9,1.3,7.1,0l83-47.9
						c2.3-1.3,2.3-4.8,0-6.1l-83-47.9C110.7,280.4,108,280.4,105.7,281.7z"/>
					<path class="st7" d="M105.7,281.8L23,329.6c-2.3,1.3-2.3,4.7,0,6.1l82.8,47.8c2.1,1.3,4.9,1.3,7.1,0l82.8-47.8
						c2.3-1.3,2.3-4.7,0-6.1l-82.9-47.8C110.7,280.6,108,280.6,105.7,281.8z"/>
					<path class="st8" d="M105.7,282l-82.6,47.6c-2.3,1.3-2.3,4.7,0,6.1l82.6,47.6c2.1,1.2,4.9,1.2,7.1,0l82.6-47.6
						c2.3-1.3,2.3-4.7,0-6.1L112.8,282C110.6,280.7,108,280.7,105.7,282z"/>
					<path class="st9" d="M105.7,282.1l-82.3,47.5c-2.3,1.3-2.3,4.7,0,6.1l82.4,47.5c2.1,1.2,4.9,1.2,7,0l82.4-47.5
						c2.3-1.3,2.3-4.7,0-6.1l-82.4-47.5C110.6,280.9,108,280.9,105.7,282.1z"/>
					<path class="st10" d="M105.8,282.3l-82.2,47.3c-2.3,1.3-2.3,4.7,0,6l82.2,47.4c2.1,1.2,4.9,1.2,7,0l82.1-47.4
						c2.3-1.3,2.3-4.7,0-6l-82.1-47.4C110.6,281,108,281,105.8,282.3z"/>
					<path class="st11" d="M105.8,282.4l-81.9,47.3c-2.3,1.3-2.3,4.7,0,6l81.9,47.3c2.1,1.2,4.9,1.2,7,0l81.9-47.3
						c2.3-1.3,2.3-4.7,0-6l-81.9-47.3C110.6,281.2,108,281.2,105.8,282.4z"/>
					<path class="st12" d="M105.8,282.6l-81.6,47.2c-2.3,1.3-2.3,4.7,0,6l81.6,47.1c2.1,1.2,4.9,1.2,7,0l81.6-47.2
						c2.3-1.3,2.3-4.7,0-6l-81.6-47.2C110.6,281.2,108,281.2,105.8,282.6z"/>
					<path class="st13" d="M105.8,282.7l-81.4,47.1c-2.3,1.3-2.3,4.7,0,6l81.4,47c2.1,1.2,4.8,1.2,6.9,0l81.4-47
						c2.3-1.3,2.3-4.7,0-6l-81.4-47C110.6,281.4,108,281.4,105.8,282.7z"/>
					<path class="st14" d="M105.8,282.8l-81.2,46.9c-2.2,1.3-2.2,4.6,0,6l81.2,46.8c2.1,1.2,4.8,1.2,6.9,0l81.2-46.9
						c2.2-1.3,2.2-4.6,0-6l-81.2-46.9C110.6,281.6,108,281.6,105.8,282.8z"/>
					<path class="st15" d="M105.8,282.9l-81,46.7c-2.2,1.3-2.2,4.6,0,5.9l81,46.7c2.1,1.2,4.8,1.2,6.9,0l81-46.7
						c2.2-1.3,2.2-4.6,0-5.9l-81-46.7C110.6,281.7,108,281.7,105.8,282.9z"/>
					<path class="st16" d="M105.8,283.1l-80.7,46.6c-2.2,1.3-2.2,4.6,0,5.9l80.7,46.6c2.1,1.2,4.8,1.2,6.9,0l80.7-46.6
						c2.2-1.3,2.2-4.6,0-5.9l-80.7-46.6C110.6,281.9,108,281.9,105.8,283.1z"/>
					<path class="st17" d="M105.8,283.2l-80.5,46.5c-2.2,1.3-2.2,4.6,0,5.9l80.5,46.5c2.1,1.2,4.8,1.2,6.9,0l80.5-46.5
						c2.2-1.3,2.2-4.6,0-5.9l-80.5-46.5C110.6,282,108,282,105.8,283.2z"/>
					<path class="st18" d="M105.8,283.4l-80.2,46.3c-2.2,1.3-2.2,4.6,0,5.9l80.2,46.3c2.1,1.2,4.8,1.2,6.8,0l80.2-46.3
						c2.2-1.3,2.2-4.6,0-5.9l-80.2-46.3C110.6,282.2,108,282.2,105.8,283.4z"/>
					<path class="st19" d="M105.8,283.5l-80,46.2c-2.2,1.3-2.2,4.6,0,5.9l80,46.2c2.1,1.2,4.8,1.2,6.8,0l80-46.2
						c2.2-1.3,2.2-4.6,0-5.9l-80-46.2C110.6,282.3,108,282.3,105.8,283.5z"/>
					<path class="st20" d="M105.9,283.7l-79.8,46c-2.2,1.3-2.2,4.6,0,5.9l79.8,46c2.1,1.2,4.7,1.2,6.8,0l79.8-46
						c2.2-1.3,2.2-4.6,0-5.9l-79.8-46C110.6,282.5,108,282.5,105.9,283.7z"/>
					<path class="st21" d="M105.9,283.9l-79.6,45.9c-2.2,1.3-2.2,4.5,0,5.8l79.6,45.9c2.1,1.2,4.7,1.2,6.8,0l79.6-45.9
						c2.2-1.3,2.2-4.5,0-5.8l-79.6-45.9C110.6,282.7,108,282.7,105.9,283.9z"/>
					<path class="st22" d="M105.9,284l-79.3,45.8c-2.2,1.3-2.2,4.5,0,5.8l79.3,45.8c2.1,1.2,4.7,1.2,6.8,0l79.3-45.8
						c2.2-1.3,2.2-4.5,0-5.8L112.7,284C110.6,282.7,108,282.7,105.9,284z"/>
					<path class="st23" d="M105.9,284.1l-79.1,45.7c-2.2,1.3-2.2,4.5,0,5.8l79.1,45.7c2.1,1.2,4.7,1.2,6.7,0l79.1-45.7
						c2.2-1.3,2.2-4.5,0-5.8l-79.1-45.7C110.6,282.9,108,282.9,105.9,284.1z"/>
					<path class="st24" d="M105.9,284.2l-78.8,45.6c-2.2,1.3-2.2,4.5,0,5.8l78.8,45.6c2.1,1.2,4.7,1.2,6.7,0l78.8-45.6
						c2.2-1.3,2.2-4.5,0-5.8l-78.8-45.6C110.6,283,108,283,105.9,284.2z"/>
					<path class="st25" d="M105.9,284.4l-78.6,45.4c-2.2,1.3-2.2,4.5,0,5.8l78.6,45.4c2.1,1.2,4.7,1.2,6.7,0l78.6-45.4
						c2.2-1.3,2.2-4.5,0-5.8l-78.6-45.4C110.6,283.2,108,283.2,105.9,284.4z"/>
					<path class="st26" d="M105.9,284.5l-78.4,45.3c-2.2,1.3-2.2,4.5,0,5.7l78.4,45.3c2.1,1.2,4.7,1.2,6.7,0l78.4-45.3
						c2.2-1.3,2.2-4.5,0-5.7l-78.4-45.3C110.6,283.3,108,283.3,105.9,284.5z"/>
					<path class="st27" d="M105.9,284.7l-78.2,45.1c-2.2,1.3-2.2,4.5,0,5.7l78.2,45.1c2.1,1.2,4.6,1.2,6.7,0l78.2-45.1
						c2.2-1.3,2.2-4.5,0-5.7l-78.2-45.1C110.6,283.5,108,283.5,105.9,284.7z"/>
					<path class="st28" d="M105.9,284.8l-78,45c-2.1,1.3-2.1,4.4,0,5.7l78,45c2.1,1.2,4.6,1.2,6.6,0l78-45c2.1-1.3,2.1-4.4,0-5.7
						l-78-45C110.6,283.6,108,283.6,105.9,284.8z"/>
					<path class="st29" d="M106,285l-77.7,44.8c-2.1,1.3-2.1,4.4,0,5.7l77.7,44.8c2.1,1.2,4.6,1.2,6.6,0l77.7-44.8
						c2.1-1.3,2.1-4.4,0-5.7L112.6,285C110.6,283.8,108,283.8,106,285z"/>
					<path class="st30" d="M106,285.1l-77.5,44.7c-2.1,1.2-2.1,4.4,0,5.7l77.5,44.7c2.1,1.2,4.6,1.2,6.6,0l77.5-44.7
						c2.1-1.2,2.1-4.4,0-5.7l-77.5-44.7C110.6,284,108,284,106,285.1z"/>
					<path class="st31" d="M106,285.3l-77.2,44.6c-2.1,1.2-2.1,4.4,0,5.7l77.2,44.6c2.1,1.2,4.6,1.2,6.6,0l77.2-44.6
						c2.1-1.2,2.1-4.4,0-5.7l-77.2-44.6C110.6,284.1,108,284.1,106,285.3z"/>
					<path class="st32" d="M106,285.4l-77,44.5c-2.1,1.2-2.1,4.4,0,5.6l77,44.5c2.1,1.2,4.6,1.2,6.5,0l77-44.5
						c2.1-1.2,2.1-4.4,0-5.6l-77-44.5C110.6,284.2,108,284.2,106,285.4z"/>
					<path class="st33" d="M106,285.5l-76.8,44.3c-2.1,1.2-2.1,4.4,0,5.6l76.8,44.4c2.1,1.2,4.6,1.2,6.5,0l76.8-44.4
						c2.1-1.2,2.1-4.4,0-5.6l-76.8-44.3C110.5,284.3,108,284.3,106,285.5z"/>
					<path class="st34" d="M106,285.6l-76.6,44.2c-2.1,1.2-2.1,4.4,0,5.6l76.6,44.2c2.1,1.2,4.5,1.2,6.5,0l76.6-44.2
						c2.1-1.2,2.1-4.4,0-5.6l-76.6-44.2C110.5,284.5,108,284.5,106,285.6z"/>
					<path class="st35" d="M106,285.8l-76.3,44.1c-2.1,1.2-2.1,4.3,0,5.6l76.3,44.1c2.1,1.1,4.5,1.1,6.5,0l76.3-44.1
						c2.1-1.2,2.1-4.3,0-5.6l-76.3-44.1C110.5,284.6,108,284.6,106,285.8z"/>
					<path class="st36" d="M106,285.9l-76.1,43.9c-2.1,1.2-2.1,4.3,0,5.6l76.1,43.9c2.1,1.1,4.5,1.1,6.5,0l76.1-43.9
						c2.1-1.2,2.1-4.3,0-5.6l-76.1-43.9C110.5,284.8,108,284.8,106,285.9z"/>
					<path class="st37" d="M106,286.1l-75.8,43.8c-2.1,1.2-2.1,4.3,0,5.5l75.8,43.8c2,1.1,4.5,1.1,6.4,0l75.8-43.8
						c2.1-1.2,2.1-4.3,0-5.5l-75.8-43.8C110.5,284.9,108,284.9,106,286.1z"/>
					<path class="st38" d="M106,286.2l-75.6,43.6c-2.1,1.2-2.1,4.3,0,5.5l75.6,43.6c2,1.1,4.5,1.1,6.4,0l75.6-43.6
						c2.1-1.2,2.1-4.3,0-5.5l-75.6-43.6C110.5,285.1,108,285.1,106,286.2z"/>
					<path class="st39" d="M106.1,286.4l-75.4,43.5c-2.1,1.2-2.1,4.3,0,5.5l75.4,43.5c2,1.1,4.5,1.1,6.4,0l75.4-43.5
						c2.1-1.2,2.1-4.3,0-5.5l-75.4-43.5C110.5,285.3,108,285.3,106.1,286.4z"/>
					<path class="st40" d="M106.1,286.5l-75.2,43.4c-2.1,1.2-2.1,4.3,0,5.5l75.2,43.4c2,1.1,4.4,1.1,6.4,0l75.2-43.4
						c2.1-1.2,2.1-4.3,0-5.5l-75.3-43.4C110.5,285.4,108,285.4,106.1,286.5z"/>
					<path class="st41" d="M106.1,286.7l-74.9,43.2c-2.1,1.2-2.1,4.3,0,5.5l74.9,43.2c2,1.1,4.4,1.1,6.4,0l74.9-43.2
						c2.1-1.2,2.1-4.3,0-5.5l-74.9-43.2C110.5,285.5,108,285.5,106.1,286.7z"/>
					<path class="st42" d="M106.1,286.9L31.4,330c-2.1,1.2-2.1,4.3,0,5.5l74.7,43.1c2,1.1,4.4,1.1,6.4,0l74.7-43.1
						c2.1-1.2,2.1-4.3,0-5.5l-74.7-43.1C110.5,285.6,108,285.6,106.1,286.9z"/>
					<path class="st43" d="M106.1,286.9l-74.4,43c-2.1,1.2-2.1,4.2,0,5.4l74.4,43c2,1.1,4.4,1.1,6.4,0l74.4-43
						c2.1-1.2,2.1-4.2,0-5.4l-74.4-43C110.5,285.8,108,285.8,106.1,286.9z"/>
					<path class="st44" d="M106.1,287.1L31.8,330c-2.1,1.2-2.1,4.2,0,5.4l74.2,42.9c2,1.1,4.4,1.1,6.4,0l74.2-42.9
						c2.1-1.2,2.1-4.2,0-5.4l-74.2-42.9C110.5,285.9,108,285.9,106.1,287.1z"/>
					<path class="st45" d="M106.1,287.2l-74,42.7c-2.1,1.2-2.1,4.2,0,5.4l74,42.7c2,1.1,4.4,1.1,6.4,0l74-42.7
						c2.1-1.2,2.1-4.2,0-5.4l-74-42.7C110.5,286.1,108,286.1,106.1,287.2z"/>
					<path class="st46" d="M106.1,287.4L32.3,330c-2.1,1.2-2.1,4.2,0,5.4l73.8,42.6c2,1.1,4.4,1.1,6.3,0l73.8-42.6
						c2.1-1.2,2.1-4.2,0-5.4l-73.8-42.6C110.5,286.3,108,286.3,106.1,287.4z"/>
					<path class="st47" d="M106.1,287.5L32.6,330c-2.1,1.2-2.1,4.2,0,5.4l73.5,42.5c2,1.1,4.3,1.1,6.3,0l73.5-42.5
						c2.1-1.2,2.1-4.2,0-5.4l-73.5-42.5C110.5,286.4,108,286.4,106.1,287.5z"/>
					<path class="st48" d="M106.2,287.7L32.9,330c-2.1,1.2-2.1,4.2,0,5.3l73.3,42.3c2,1.1,4.3,1.1,6.3,0l73.3-42.3
						c2.1-1.2,2.1-4.2,0-5.3l-73.3-42.3C110.5,286.6,108,286.6,106.2,287.7z"/>
					<path class="st49" d="M106.2,287.8l-73,42.2c-2.1,1.2-2.1,4.2,0,5.3l73,42.2c2,1.1,4.3,1.1,6.3,0l73-42.2
						c2.1-1.2,2.1-4.2,0-5.3l-73-42.2C110.5,286.7,108,286.7,106.2,287.8z"/>
					<path class="st50" d="M106.2,288l-72.8,42c-2.1,1.2-2.1,4.1,0,5.3l72.8,42c2,1.1,4.3,1.1,6.3,0l72.8-42c2.1-1.2,2.1-4.1,0-5.3
						l-72.8-42C110.5,286.9,108,286.9,106.2,288z"/>
					<path class="st51" d="M106.2,288.1L33.6,330c-2.1,1.2-2.1,4.1,0,5.3l72.6,41.9c2,1.1,4.3,1.1,6.2,0l72.6-41.9
						c2.1-1.2,2.1-4.1,0-5.3l-72.6-41.9C110.5,286.9,108,286.9,106.2,288.1z"/>
					<path class="st52" d="M106.2,288.3L33.8,330c-2.1,1.2-2.1,4.1,0,5.3l72.4,41.7c1.9,1.1,4.3,1.1,6.2,0l72.4-41.7
						c2.1-1.2,2.1-4.1,0-5.3l-72.4-41.7C110.5,287.1,108,287.1,106.2,288.3z"/>
					<path id="XMLID_26217_" class="st53" d="M106.2,288.3L34.1,330c-2.1,1.2-2.1,4.1,0,5.3l72.1,41.7c1.9,1.1,4.3,1.1,6.2,0
						l72.1-41.7c2.1-1.2,2.1-4.1,0-5.3l-72.1-41.7C110.5,287.2,108.1,287.2,106.2,288.3z"/>
				</g>
				<g>
					
						<linearGradient id="SVGID_3_" gradientUnits="userSpaceOnUse" x1="25.3922" y1="221.8714" x2="193.1382" y2="221.8714" gradientTransform="matrix(1 0 0 -1 0 490)">
						<stop  offset="0" style="stop-color:#B4ACBF"/>
						<stop  offset="0.6" style="stop-color:#F0E5FF"/>
					</linearGradient>
					<path class="st54" d="M26.4,159v166v6.7c0.5,0.7,1.1,1.3,2,1.9L99,374.5c3.3,1.9,6.8,2.8,10.5,2.8c3.6,0,7.2-0.9,10.5-2.8
						l70.4-40.6c0.7-0.5,1.4-1,1.9-1.7v-6.6V159H26.4z"/>
					
						<linearGradient id="SVGID_4_" gradientUnits="userSpaceOnUse" x1="26.4142" y1="330.7526" x2="192.1198" y2="330.7526" gradientTransform="matrix(1 0 0 -1 0 490)">
						<stop  offset="0" style="stop-color:#F0E5FF"/>
						<stop  offset="1" style="stop-color:#FFFFFF"/>
					</linearGradient>
					<path class="st55" d="M29.3,164.4l69.8,40.3c6.4,3.6,14.2,3.6,20.6,0l69.6-40.2c2.1-1.2,3-3.5,2.8-5.6
						c-0.2-1.7-1.1-3.4-2.8-4.3l-71.1-41c-5.8-3.4-13-3.4-18.8,0l-70.1,40.5c-1.9,1.1-2.8,2.9-2.9,4.9
						C26.3,161.1,27.3,163.2,29.3,164.4z"/>
					<g>
						<g id="XMLID_26212_">
							
								<linearGradient id="XMLID_5_" gradientUnits="userSpaceOnUse" x1="50.1416" y1="331.459" x2="168.8404" y2="331.459" gradientTransform="matrix(1 0 0 -1 0 490)">
								<stop  offset="0" style="stop-color:#B4ACBF"/>
								<stop  offset="0.5146" style="stop-color:#D1C8DE"/>
								<stop  offset="1" style="stop-color:#F0E5FF"/>
							</linearGradient>
							<path id="XMLID_26215_" class="st56" d="M107,124.3l-56.9,27.1v7.8c0,0.5,0.3,0.8,0.7,1.1l56.3,32.6c1.5,0.8,3.3,0.8,4.8,0
								l56.2-32.5c0.5-0.3,0.7-0.7,0.7-1.2v-7.7L112,124.4C110.3,123.4,108.5,123.4,107,124.3z"/>
							
								<linearGradient id="XMLID_6_" gradientUnits="userSpaceOnUse" x1="50.0716" y1="338.6151" x2="168.7237" y2="338.6151" gradientTransform="matrix(1 0 0 -1 0 490)">
								<stop  offset="0" style="stop-color:#F0E5FF"/>
								<stop  offset="1" style="stop-color:#FFFFFF"/>
							</linearGradient>
							<path id="XMLID_26213_" class="st57" d="M107,117.2l-55.8,32.2c-1.6,0.9-1.6,3.2,0,4.1l55.8,32.1c1.5,0.8,3.3,0.8,4.8,0
								l55.8-32.2c1.6-0.9,1.6-3.2,0-4.1l-55.8-32.2C110.3,116.3,108.5,116.3,107,117.2z"/>
						</g>
						
							<linearGradient id="XMLID_7_" gradientUnits="userSpaceOnUse" x1="66.7651" y1="339.7647" x2="151.3764" y2="339.7647" gradientTransform="matrix(1 0 0 -1 0 490)">
							<stop  offset="0" style="stop-color:#F0E5FF"/>
							<stop  offset="1" style="stop-color:#FFFFFF"/>
						</linearGradient>
						<path id="XMLID_26211_" class="st58" d="M107.4,125.8l-39.8,23c-1.1,0.7-1.1,2.2,0,2.9l39.8,23c1,0.6,2.3,0.6,3.4,0l39.8-23
							c1.1-0.7,1.1-2.2,0-2.9l-39.8-23C109.7,125.2,108.4,125.2,107.4,125.8z"/>
						
							<linearGradient id="XMLID_8_" gradientUnits="userSpaceOnUse" x1="66.73" y1="327.7991" x2="151.3464" y2="327.7991" gradientTransform="matrix(1 0 0 -1 0 490)">
							<stop  offset="0" style="stop-color:#B4ACBF"/>
							<stop  offset="0.5146" style="stop-color:#D1C8DE"/>
							<stop  offset="1" style="stop-color:#F0E5FF"/>
						</linearGradient>
						<path id="XMLID_26210_" class="st59" d="M150.5,149.9l-39.8,23c-1,0.6-2.3,0.6-3.4,0l-39.8-23c-0.3-0.1-0.4-0.3-0.6-0.6
							c-0.6,0.7-0.4,1.9,0.6,2.4l39.8,23c1,0.6,2.3,0.6,3.4,0l39.8-23c0.8-0.5,1-1.6,0.6-2.4C150.9,149.6,150.7,149.7,150.5,149.9z"
							/>
					</g>
				</g>
			</g>
			
				<radialGradient id="XMLID_9_" cx="109.3509" cy="-7217.7109" r="37.7608" gradientTransform="matrix(1 0 0 -0.5172 0 -3583.3835)" gradientUnits="userSpaceOnUse">
				<stop  offset="0" style="stop-color:#120426"/>
				<stop  offset="8.588529e-02" style="stop-color:#1A0D2E;stop-opacity:0.9141"/>
				<stop  offset="0.2261" style="stop-color:#322543;stop-opacity:0.7739"/>
				<stop  offset="0.4031" style="stop-color:#574D65;stop-opacity:0.5969"/>
				<stop  offset="0.6102" style="stop-color:#8B8495;stop-opacity:0.3898"/>
				<stop  offset="0.8395" style="stop-color:#CDCAD1;stop-opacity:0.1605"/>
				<stop  offset="1" style="stop-color:#FFFFFF;stop-opacity:0"/>
			</radialGradient>
			<path id="XMLID_26209_" class="st60" d="M82.9,134.3c14.6-8.4,38.4-8.4,52.9,0c14.6,8.4,14.6,22.1,0,30.5s-38.4,8.4-52.9,0
				C68.4,156.5,68.4,142.8,82.9,134.3z"/>
			<g>
				<g id="XMLID_1618_">
					<path id="XMLID_1620_" class="st2" d="M377.1,281.2l-84,48.5c-2.3,1.4-2.3,4.8,0,6.2l84,48.5c2.2,1.3,4.9,1.3,7.2,0l84-48.5
						c2.3-1.4,2.3-4.8,0-6.2l-84-48.5C382,279.8,379.2,279.8,377.1,281.2z"/>
					<path class="st3" d="M377.1,281.2l-83.8,48.4c-2.3,1.4-2.3,4.8,0,6.2l83.8,48.4c2.2,1.3,4.9,1.3,7.2,0l83.8-48.4
						c2.3-1.4,2.3-4.8,0-6.2l-83.8-48.4C382,279.9,379.2,279.9,377.1,281.2z"/>
					<path class="st4" d="M377.1,281.4l-83.5,48.2c-2.3,1.4-2.3,4.8,0,6.1l83.5,48.2c2.2,1.3,4.9,1.3,7.1,0l83.5-48.2
						c2.3-1.4,2.3-4.8,0-6.1l-83.5-48.2C382,280.1,379.2,280.1,377.1,281.4z"/>
					<path class="st5" d="M377.1,281.5l-83.3,48.1c-2.3,1.3-2.3,4.8,0,6.1l83.3,48.1c2.2,1.3,4.9,1.3,7.1,0l83.3-48.1
						c2.3-1.3,2.3-4.8,0-6.1l-83.3-48.1C382,280.3,379.2,280.3,377.1,281.5z"/>
					<path class="st6" d="M377.1,281.7l-83,47.9c-2.3,1.3-2.3,4.8,0,6.1l83,47.9c2.2,1.3,4.9,1.3,7.1,0l83-47.9
						c2.3-1.3,2.3-4.8,0-6.1l-83-47.9C382,280.4,379.2,280.4,377.1,281.7z"/>
					<path class="st7" d="M377.1,281.8l-82.8,47.8c-2.3,1.3-2.3,4.7,0,6.1l82.8,47.8c2.1,1.3,4.9,1.3,7.1,0l82.8-47.8
						c2.3-1.3,2.3-4.7,0-6.1l-82.8-47.8C382,280.6,379.2,280.6,377.1,281.8z"/>
					<path class="st8" d="M377.1,282l-82.6,47.6c-2.3,1.3-2.3,4.7,0,6.1l82.6,47.6c2.1,1.2,4.9,1.2,7.1,0l82.6-47.6
						c2.3-1.3,2.3-4.7,0-6.1L384.2,282C382,280.7,379.3,280.7,377.1,282z"/>
					<path class="st9" d="M377.1,282.1l-82.4,47.5c-2.3,1.3-2.3,4.7,0,6.1l82.4,47.5c2.1,1.2,4.9,1.2,7,0l82.4-47.5
						c2.3-1.3,2.3-4.7,0-6.1l-82.4-47.5C382,280.9,379.3,280.9,377.1,282.1z"/>
					<path class="st10" d="M377.1,282.3L295,329.7c-2.3,1.3-2.3,4.7,0,6l82.1,47.4c2.1,1.2,4.9,1.2,7,0l82.1-47.4
						c2.3-1.3,2.3-4.7,0-6l-82.1-47.4C382,281,379.3,281,377.1,282.3z"/>
					<path class="st11" d="M377.1,282.4l-81.9,47.3c-2.3,1.3-2.3,4.7,0,6l81.9,47.3c2.1,1.2,4.9,1.2,7,0l81.9-47.3
						c2.3-1.3,2.3-4.7,0-6l-81.9-47.3C382,281.2,379.3,281.2,377.1,282.4z"/>
					<path class="st12" d="M377.2,282.6l-81.6,47.2c-2.3,1.3-2.3,4.7,0,6l81.6,47.2c2.1,1.2,4.9,1.2,7,0l81.6-47.2
						c2.3-1.3,2.3-4.7,0-6l-81.7-47.2C382,281.2,379.3,281.2,377.2,282.6z"/>
					<path class="st13" d="M377.2,282.7l-81.4,47c-2.3,1.3-2.3,4.7,0,6l81.4,47c2.1,1.2,4.8,1.2,6.9,0l81.4-47c2.3-1.3,2.3-4.7,0-6
						l-81.4-47C382,281.4,379.3,281.4,377.2,282.7z"/>
					<path class="st14" d="M377.2,282.8L296,329.7c-2.2,1.3-2.2,4.6,0,6l81.2,46.9c2.1,1.2,4.8,1.2,6.9,0l81.2-46.9
						c2.2-1.3,2.2-4.6,0-6l-81.2-46.9C382,281.6,379.3,281.6,377.2,282.8z"/>
					<path class="st15" d="M377.2,282.9l-81,46.7c-2.2,1.3-2.2,4.6,0,5.9l81,46.7c2.1,1.2,4.8,1.2,6.9,0l81-46.7
						c2.2-1.3,2.2-4.6,0-5.9l-81-46.7C382,281.7,379.3,281.7,377.2,282.9z"/>
					<path class="st16" d="M377.2,283.1l-80.7,46.6c-2.2,1.3-2.2,4.6,0,5.9l80.7,46.6c2.1,1.2,4.8,1.2,6.9,0l80.7-46.6
						c2.2-1.3,2.2-4.6,0-5.9l-80.7-46.6C382,281.9,379.3,281.9,377.2,283.1z"/>
					<path class="st17" d="M377.2,283.2l-80.5,46.5c-2.2,1.3-2.2,4.6,0,5.9l80.5,46.5c2.1,1.2,4.8,1.2,6.9,0l80.5-46.5
						c2.2-1.3,2.2-4.6,0-5.9l-80.5-46.5C382,282,379.3,282,377.2,283.2z"/>
					<path class="st18" d="M377.2,283.4L297,329.7c-2.2,1.3-2.2,4.6,0,5.9l80.2,46.3c2.1,1.2,4.8,1.2,6.8,0l80.2-46.3
						c2.2-1.3,2.2-4.6,0-5.9l-80.1-46.3C382,282.2,379.3,282.2,377.2,283.4z"/>
					<path class="st19" d="M377.2,283.5l-80,46.2c-2.2,1.3-2.2,4.6,0,5.9l80,46.2c2.1,1.2,4.8,1.2,6.8,0l80-46.2
						c2.2-1.3,2.2-4.6,0-5.9l-79.9-46.2C382,282.3,379.3,282.3,377.2,283.5z"/>
					<path class="st20" d="M377.2,283.7l-79.8,46c-2.2,1.3-2.2,4.6,0,5.9l79.8,46c2.1,1.2,4.7,1.2,6.8,0l79.8-46
						c2.2-1.3,2.2-4.6,0-5.9l-79.8-46C382,282.5,379.3,282.5,377.2,283.7z"/>
					<path class="st21" d="M377.3,283.9l-79.6,45.9c-2.2,1.3-2.2,4.5,0,5.8l79.6,45.9c2.1,1.2,4.7,1.2,6.8,0l79.6-45.9
						c2.2-1.3,2.2-4.5,0-5.8l-79.6-45.9C382,282.7,379.3,282.7,377.3,283.9z"/>
					<path class="st22" d="M377.3,284L298,329.7c-2.2,1.3-2.2,4.5,0,5.8l79.3,45.8c2.1,1.2,4.7,1.2,6.8,0l79.3-45.8
						c2.2-1.3,2.2-4.5,0-5.8L384.1,284C382,282.7,379.3,282.7,377.3,284z"/>
					<path class="st23" d="M377.3,284.1l-79.1,45.7c-2.2,1.3-2.2,4.5,0,5.8l79.1,45.7c2.1,1.2,4.7,1.2,6.7,0l79.1-45.7
						c2.2-1.3,2.2-4.5,0-5.8L384,284.1C382,282.9,379.3,282.9,377.3,284.1z"/>
					<path class="st24" d="M377.3,284.2l-78.8,45.6c-2.2,1.3-2.2,4.5,0,5.8l78.8,45.6c2.1,1.2,4.7,1.2,6.7,0l78.8-45.6
						c2.2-1.3,2.2-4.5,0-5.8L384,284.2C382,283,379.3,283,377.3,284.2z"/>
					<path class="st25" d="M377.3,284.4l-78.6,45.4c-2.2,1.3-2.2,4.5,0,5.8l78.6,45.4c2.1,1.2,4.7,1.2,6.7,0l78.6-45.4
						c2.2-1.3,2.2-4.5,0-5.8L384,284.4C382,283.2,379.3,283.2,377.3,284.4z"/>
					<path class="st26" d="M377.3,284.5l-78.4,45.3c-2.2,1.3-2.2,4.5,0,5.7l78.4,45.3c2.1,1.2,4.7,1.2,6.7,0l78.4-45.3
						c2.2-1.3,2.2-4.5,0-5.7L384,284.5C382,283.3,379.3,283.3,377.3,284.5z"/>
					<path class="st27" d="M377.3,284.7l-78.2,45.1c-2.2,1.3-2.2,4.5,0,5.7l78.2,45.1c2.1,1.2,4.6,1.2,6.7,0l78.2-45.1
						c2.2-1.3,2.2-4.5,0-5.7L384,284.7C382,283.5,379.3,283.5,377.3,284.7z"/>
					<path class="st28" d="M377.3,284.8l-78,45c-2.1,1.3-2.1,4.4,0,5.7l78,45c2.1,1.2,4.6,1.2,6.6,0l78-45c2.1-1.3,2.1-4.4,0-5.7
						l-78-45C382,283.6,379.3,283.6,377.3,284.8z"/>
					<path class="st29" d="M377.3,285l-77.7,44.8c-2.1,1.3-2.1,4.4,0,5.7l77.7,44.8c2.1,1.2,4.6,1.2,6.6,0l77.7-44.8
						c2.1-1.3,2.1-4.4,0-5.7L383.9,285C381.9,283.8,379.3,283.8,377.3,285z"/>
					<path class="st30" d="M377.3,285.1l-77.5,44.7c-2.1,1.2-2.1,4.4,0,5.7l77.5,44.7c2.1,1.2,4.6,1.2,6.6,0l77.5-44.7
						c2.1-1.2,2.1-4.4,0-5.7l-77.5-44.7C381.9,284,379.3,284,377.3,285.1z"/>
					<path class="st31" d="M377.4,285.3l-77.2,44.6c-2.1,1.2-2.1,4.4,0,5.7l77.2,44.6c2.1,1.2,4.6,1.2,6.6,0l77.2-44.6
						c2.1-1.2,2.1-4.4,0-5.7L384,285.3C381.9,284.1,379.3,284.1,377.4,285.3z"/>
					<path class="st32" d="M377.4,285.4l-77,44.5c-2.1,1.2-2.1,4.4,0,5.6l77,44.5c2.1,1.2,4.6,1.2,6.5,0l77-44.5
						c2.1-1.2,2.1-4.4,0-5.6l-77-44.5C381.9,284.2,379.3,284.2,377.4,285.4z"/>
					<path class="st33" d="M377.4,285.5l-76.8,44.4c-2.1,1.2-2.1,4.4,0,5.6l76.8,44.4c2.1,1.2,4.6,1.2,6.5,0l76.8-44.4
						c2.1-1.2,2.1-4.4,0-5.6l-76.8-44.4C381.9,284.3,379.4,284.3,377.4,285.5z"/>
					<path class="st34" d="M377.4,285.6l-76.6,44.2c-2.1,1.2-2.1,4.4,0,5.6l76.6,44.2c2.1,1.2,4.5,1.2,6.5,0l76.6-44.2
						c2.1-1.2,2.1-4.4,0-5.6l-76.6-44.2C381.9,284.5,379.4,284.5,377.4,285.6z"/>
					<path class="st35" d="M377.4,285.8l-76.3,44.1c-2.1,1.2-2.1,4.3,0,5.6l76.3,44.1c2.1,1.1,4.5,1.1,6.5,0l76.3-44.1
						c2.1-1.2,2.1-4.3,0-5.6l-76.3-44.1C381.9,284.6,379.4,284.6,377.4,285.8z"/>
					<path class="st36" d="M377.4,285.9l-76.1,43.9c-2.1,1.2-2.1,4.3,0,5.6l76.1,43.9c2.1,1.1,4.5,1.1,6.5,0l76.1-43.9
						c2.1-1.2,2.1-4.3,0-5.6l-76.1-43.9C381.9,284.8,379.4,284.8,377.4,285.9z"/>
					<path class="st37" d="M377.4,286.1l-75.8,43.8c-2.1,1.2-2.1,4.3,0,5.5l75.8,43.8c2,1.1,4.5,1.1,6.4,0l75.8-43.8
						c2.1-1.2,2.1-4.3,0-5.5l-75.8-43.8C381.9,284.9,379.4,284.9,377.4,286.1z"/>
					<path class="st38" d="M377.4,286.2l-75.6,43.6c-2.1,1.2-2.1,4.3,0,5.5l75.6,43.6c2,1.1,4.5,1.1,6.4,0l75.6-43.6
						c2.1-1.2,2.1-4.3,0-5.5l-75.6-43.6C381.9,285.1,379.4,285.1,377.4,286.2z"/>
					<path class="st39" d="M377.4,286.4L302,329.9c-2.1,1.2-2.1,4.3,0,5.5l75.4,43.5c2,1.1,4.5,1.1,6.4,0l75.4-43.5
						c2.1-1.2,2.1-4.3,0-5.5l-75.4-43.5C381.9,285.3,379.4,285.3,377.4,286.4z"/>
					<path class="st40" d="M377.5,286.5l-75.2,43.4c-2.1,1.2-2.1,4.3,0,5.5l75.2,43.4c2,1.1,4.4,1.1,6.4,0l75.2-43.4
						c2.1-1.2,2.1-4.3,0-5.5l-75.3-43.4C381.9,285.4,379.4,285.4,377.5,286.5z"/>
					<path class="st41" d="M377.5,286.7l-74.9,43.2c-2.1,1.2-2.1,4.3,0,5.5l74.9,43.2c2,1.1,4.4,1.1,6.4,0l74.9-43.2
						c2.1-1.2,2.1-4.3,0-5.5l-74.9-43.2C381.9,285.5,379.4,285.5,377.5,286.7z"/>
					<path class="st42" d="M377.5,286.9L302.8,330c-2.1,1.2-2.1,4.3,0,5.5l74.7,43.1c2,1.1,4.4,1.1,6.4,0l74.7-43.1
						c2.1-1.2,2.1-4.3,0-5.5l-74.7-43.1C381.9,285.6,379.4,285.6,377.5,286.9z"/>
					<path class="st43" d="M377.5,286.9l-74.4,43c-2.1,1.2-2.1,4.2,0,5.4l74.4,43c2,1.1,4.4,1.1,6.4,0l74.4-43
						c2.1-1.2,2.1-4.2,0-5.4l-74.4-43C381.9,285.8,379.4,285.8,377.5,286.9z"/>
					<path class="st44" d="M377.5,287.1L303.2,330c-2.1,1.2-2.1,4.2,0,5.4l74.2,42.9c2,1.1,4.4,1.1,6.4,0l74.2-42.9
						c2.1-1.2,2.1-4.2,0-5.4l-74.2-42.9C381.9,285.9,379.4,285.9,377.5,287.1z"/>
					<path class="st45" d="M377.5,287.2l-74,42.7c-2.1,1.2-2.1,4.2,0,5.4l74,42.7c2,1.1,4.4,1.1,6.4,0l74-42.7
						c2.1-1.2,2.1-4.2,0-5.4l-74-42.7C381.9,286.1,379.4,286.1,377.5,287.2z"/>
					<path class="st46" d="M377.5,287.4L303.7,330c-2.1,1.2-2.1,4.2,0,5.4l73.8,42.6c2,1.1,4.4,1.1,6.3,0l73.8-42.6
						c2.1-1.2,2.1-4.2,0-5.4l-73.8-42.6C381.9,286.3,379.4,286.3,377.5,287.4z"/>
					<path class="st47" d="M377.5,287.5L304,330c-2.1,1.2-2.1,4.2,0,5.4l73.5,42.5c2,1.1,4.3,1.1,6.3,0l73.5-42.5
						c2.1-1.2,2.1-4.2,0-5.4l-73.5-42.5C381.9,286.4,379.4,286.4,377.5,287.5z"/>
					<path class="st48" d="M377.5,287.7L304.2,330c-2.1,1.2-2.1,4.2,0,5.3l73.3,42.3c2,1.1,4.3,1.1,6.3,0l73.3-42.3
						c2.1-1.2,2.1-4.2,0-5.3l-73.3-42.3C381.9,286.6,379.4,286.6,377.5,287.7z"/>
					<path class="st49" d="M377.5,287.8l-73,42.2c-2.1,1.2-2.1,4.2,0,5.3l73,42.2c2,1.1,4.3,1.1,6.3,0l73-42.2
						c2.1-1.2,2.1-4.2,0-5.3l-73-42.2C381.9,286.7,379.4,286.7,377.5,287.8z"/>
					<path class="st50" d="M377.6,288l-72.8,42c-2.1,1.2-2.1,4.1,0,5.3l72.8,42c2,1.1,4.3,1.1,6.3,0l72.8-42c2.1-1.2,2.1-4.1,0-5.3
						l-72.8-42C381.9,286.9,379.4,286.9,377.6,288z"/>
					<path class="st51" d="M377.6,288.1L305,330c-2.1,1.2-2.1,4.1,0,5.3l72.6,41.9c2,1.1,4.3,1.1,6.2,0l72.6-41.9
						c2.1-1.2,2.1-4.1,0-5.3l-72.6-41.9C381.9,286.9,379.4,286.9,377.6,288.1z"/>
					<path class="st52" d="M377.6,288.3L305.2,330c-2.1,1.2-2.1,4.1,0,5.3l72.4,41.7c1.9,1.1,4.3,1.1,6.2,0l72.4-41.7
						c2.1-1.2,2.1-4.1,0-5.3l-72.4-41.7C381.9,287.1,379.4,287.1,377.6,288.3z"/>
					<path id="XMLID_1619_" class="st53" d="M377.6,288.3L305.5,330c-2.1,1.2-2.1,4.1,0,5.3l72.1,41.7c1.9,1.1,4.3,1.1,6.2,0
						l72.1-41.7c2.1-1.2,2.1-4.1,0-5.3l-72.1-41.7C381.8,287.2,379.4,287.2,377.6,288.3z"/>
				</g>
				<g>
					
						<linearGradient id="SVGID_5_" gradientUnits="userSpaceOnUse" x1="296.5766" y1="261.1886" x2="464.3226" y2="261.1886" gradientTransform="matrix(1 0 0 -1 0 490)">
						<stop  offset="0" style="stop-color:#B4ACBF"/>
						<stop  offset="0.6" style="stop-color:#F0E5FF"/>
					</linearGradient>
					<polyline class="st61" points="463.3,325 463.3,132.7 297.6,132.7 297.6,324.6 					"/>
					
						<linearGradient id="SVGID_6_" gradientUnits="userSpaceOnUse" x1="297.8057" y1="357.4621" x2="463.5113" y2="357.4621" gradientTransform="matrix(1 0 0 -1 0 490)">
						<stop  offset="0" style="stop-color:#F0E5FF"/>
						<stop  offset="1" style="stop-color:#FFFFFF"/>
					</linearGradient>
					<path class="st62" d="M300.7,137.7l69.8,40.3c6.4,3.6,14.2,3.6,20.6,0l69.6-40.2c2.1-1.2,3-3.5,2.8-5.6
						c-0.2-1.7-1.1-3.4-2.8-4.3l-71.1-41c-5.8-3.4-13-3.4-18.8,0l-70.1,40.5c-1.9,1.1-2.8,2.9-2.9,4.9
						C297.7,134.3,298.7,136.5,300.7,137.7z"/>
					<g>
						<g id="XMLID_1615_">
							
								<linearGradient id="XMLID_10_" gradientUnits="userSpaceOnUse" x1="321.5331" y1="358.262" x2="440.2319" y2="358.262" gradientTransform="matrix(1 0 0 -1 0 490)">
								<stop  offset="0" style="stop-color:#B4ACBF"/>
								<stop  offset="0.5146" style="stop-color:#D1C8DE"/>
								<stop  offset="1" style="stop-color:#F0E5FF"/>
							</linearGradient>
							<path id="XMLID_1617_" class="st63" d="M378.4,97.5l-56.9,27.1v7.8c0,0.5,0.3,0.8,0.7,1.1l56.3,32.6c1.5,0.8,3.3,0.8,4.8,0
								l56.2-32.5c0.5-0.3,0.7-0.7,0.7-1.2v-7.7l-56.9-27.1C381.7,96.6,379.9,96.6,378.4,97.5z"/>
							
								<linearGradient id="XMLID_11_" gradientUnits="userSpaceOnUse" x1="321.4631" y1="365.4586" x2="440.1152" y2="365.4586" gradientTransform="matrix(1 0 0 -1 0 490)">
								<stop  offset="0" style="stop-color:#F0E5FF"/>
								<stop  offset="1" style="stop-color:#FFFFFF"/>
							</linearGradient>
							<path id="XMLID_1616_" class="st64" d="M378.4,90.3l-55.8,32.2c-1.6,0.9-1.6,3.2,0,4.1l55.8,32.2c1.5,0.8,3.3,0.8,4.8,0
								l55.8-32.2c1.6-0.9,1.6-3.2,0-4.1l-55.8-32.2C381.7,89.4,379.9,89.4,378.4,90.3z"/>
						</g>
						
							<linearGradient id="XMLID_12_" gradientUnits="userSpaceOnUse" x1="338.1566" y1="366.5676" x2="422.768" y2="366.5676" gradientTransform="matrix(1 0 0 -1 0 490)">
							<stop  offset="0" style="stop-color:#F0E5FF"/>
							<stop  offset="1" style="stop-color:#FFFFFF"/>
						</linearGradient>
						<path id="XMLID_1614_" class="st65" d="M378.8,99L339,122c-1.1,0.7-1.1,2.2,0,2.9l39.8,23c1,0.6,2.3,0.6,3.4,0l39.8-23
							c1.1-0.7,1.1-2.2,0-2.9l-39.8-23C381.1,98.4,379.8,98.4,378.8,99z"/>
						
							<linearGradient id="XMLID_13_" gradientUnits="userSpaceOnUse" x1="338.1216" y1="354.602" x2="422.7379" y2="354.602" gradientTransform="matrix(1 0 0 -1 0 490)">
							<stop  offset="0" style="stop-color:#B4ACBF"/>
							<stop  offset="0.5146" style="stop-color:#D1C8DE"/>
							<stop  offset="1" style="stop-color:#F0E5FF"/>
						</linearGradient>
						<path id="XMLID_1613_" class="st66" d="M421.9,123l-39.8,23c-1,0.6-2.3,0.6-3.4,0L339,123c-0.3-0.1-0.4-0.3-0.6-0.6
							c-0.6,0.7-0.4,1.9,0.6,2.4l39.8,23c1,0.6,2.3,0.6,3.4,0l39.8-23c0.8-0.5,1-1.6,0.6-2.4C422.3,122.7,422.1,122.9,421.9,123z"/>
					</g>
					
						<linearGradient id="SVGID_7_" gradientUnits="userSpaceOnUse" x1="296.5766" y1="139.3146" x2="464.3226" y2="139.3146" gradientTransform="matrix(1 0 0 -1 0 490)">
						<stop  offset="0" style="stop-color:#B4ACBF"/>
						<stop  offset="0.6" style="stop-color:#F0E5FF"/>
					</linearGradient>
					<path class="st67" d="M297.6,324.6v6.7c0.5,0.7,1.1,1.3,2,1.9l70.6,40.8c3.3,1.9,6.8,2.8,10.5,2.8c3.6,0,7.2-0.9,10.5-2.8
						l70.4-40.6c0.7-0.5,1.4-1,1.9-1.7V325"/>
				</g>
			</g>
			
				<radialGradient id="XMLID_14_" cx="380.7425" cy="-7165.8882" r="37.7615" gradientTransform="matrix(1 0 0 -0.5172 0 -3583.3835)" gradientUnits="userSpaceOnUse">
				<stop  offset="0" style="stop-color:#120426"/>
				<stop  offset="8.588529e-02" style="stop-color:#1A0D2E;stop-opacity:0.9141"/>
				<stop  offset="0.2261" style="stop-color:#322543;stop-opacity:0.7739"/>
				<stop  offset="0.4031" style="stop-color:#574D65;stop-opacity:0.5969"/>
				<stop  offset="0.6102" style="stop-color:#8B8495;stop-opacity:0.3898"/>
				<stop  offset="0.8395" style="stop-color:#CDCAD1;stop-opacity:0.1605"/>
				<stop  offset="1" style="stop-color:#FFFFFF;stop-opacity:0"/>
			</radialGradient>
			<path id="XMLID_1612_" class="st68" d="M354.3,107.5c14.6-8.4,38.4-8.4,52.9,0c14.6,8.4,14.6,22.1,0,30.5s-38.4,8.4-52.9,0
				C339.7,129.7,339.7,115.9,354.3,107.5z"/>
			<g>
				<g id="XMLID_1609_">
					<path id="XMLID_1611_" class="st2" d="M239.3,317.6l-139.2,80.3c-3.9,2.2-3.9,7.9,0,10.2l139.2,80.3c3.6,2.1,8.2,2.1,11.9,0
						l139.2-80.3c3.9-2.2,3.9-7.9,0-10.2l-139.2-80.3C247.5,315.5,243,315.5,239.3,317.6z"/>
					<path class="st3" d="M239.3,317.9L100.6,398c-3.9,2.2-3.9,7.9,0,10.2l138.8,80c3.6,2.1,8.2,2.1,11.9,0L390,408.1
						c3.9-2.2,3.9-7.9,0-10.2l-138.8-80.1C247.5,315.7,243,315.7,239.3,317.9z"/>
					<path class="st4" d="M239.3,318L100.9,398c-3.9,2.2-3.9,7.8,0,10.1L239.3,488c3.6,2.1,8.1,2.1,11.9,0l138.4-79.9
						c3.9-2.2,3.9-7.8,0-10.1L251.2,318C247.5,316,243,316,239.3,318z"/>
					<path class="st5" d="M239.3,318.3l-138,79.7c-3.9,2.2-3.9,7.8,0,10.1l138,79.7c3.6,2.1,8.1,2.1,11.8,0l138-79.7
						c3.9-2.2,3.9-7.8,0-10.1l-138-79.7C247.5,316.2,243,316.2,239.3,318.3z"/>
					<path class="st6" d="M239.3,318.5L101.8,398c-3.8,2.2-3.8,7.8,0,10.1l137.6,79.5c3.6,2.1,8.1,2.1,11.8,0l137.7-79.5
						c3.8-2.2,3.8-7.8,0-10.1l-137.7-79.5C247.5,316.5,243,316.5,239.3,318.5z"/>
					<path class="st7" d="M239.3,318.8L102.1,398c-3.8,2.2-3.8,7.8,0,10.1l137.3,79.2c3.6,2.1,8.1,2.1,11.8,0l137.3-79.2
						c3.8-2.2,3.8-7.8,0-10.1l-137.3-79.2C247.5,316.7,243,316.7,239.3,318.8z"/>
					<path class="st8" d="M239.4,319l-136.9,79.1c-3.8,2.2-3.8,7.8,0,10l136.8,79c3.6,2.1,8,2.1,11.7,0l136.8-79
						c3.8-2.2,3.8-7.8,0-10l-136.8-79C247.5,316.9,243,316.9,239.4,319z"/>
					<path class="st9" d="M239.4,319.3l-136.5,78.8c-3.8,2.2-3.8,7.8,0,10l136.4,78.8c3.6,2.1,8,2.1,11.7,0l136.4-78.8
						c3.8-2.2,3.8-7.8,0-10L251,319.3C247.5,317.2,243,317.2,239.4,319.3z"/>
					<path class="st10" d="M239.4,319.5l-136.1,78.5c-3.8,2.2-3.8,7.8,0,10l136.1,78.5c3.6,2.1,8,2.1,11.7,0l136.1-78.5
						c3.8-2.2,3.8-7.8,0-10l-136.1-78.5C247.5,317.4,243,317.4,239.4,319.5z"/>
					<path class="st11" d="M239.4,319.7l-135.7,78.4c-3.8,2.2-3.8,7.8,0,9.9l135.7,78.4c3.5,2.1,8,2.1,11.6,0L386.7,408
						c3.8-2.2,3.8-7.8,0-9.9L251,319.7C247.5,317.7,243.1,317.7,239.4,319.7z"/>
					<path class="st12" d="M239.4,320l-135.3,78.1c-3.8,2.2-3.8,7.7,0,9.9l135.3,78.2c3.5,2.1,7.9,2.1,11.6,0L386.3,408
						c3.8-2.2,3.8-7.7,0-9.9L251,319.9C247.5,317.9,243.1,317.9,239.4,320z"/>
					<path class="st13" d="M239.4,320.2l-134.9,77.9c-3.8,2.1-3.8,7.7,0,9.9l134.9,77.9c3.5,2.1,7.9,2.1,11.5,0L386,408
						c3.8-2.1,3.8-7.7,0-9.9L251,320.2C247.5,318.1,243.1,318.1,239.4,320.2z"/>
					<path class="st14" d="M239.5,320.5L105,398.1c-3.8,2.1-3.8,7.7,0,9.8l134.6,77.7c3.5,2.1,7.9,2.1,11.5,0l134.6-77.7
						c3.8-2.1,3.8-7.7,0-9.8L251,320.4C247.5,318.4,243.1,318.4,239.5,320.5z"/>
					<path class="st15" d="M239.5,320.7l-134.2,77.5c-3.7,2.1-3.7,7.7,0,9.8l134.2,77.4c3.5,2.1,7.9,2.1,11.5,0L385.2,408
						c3.7-2.1,3.7-7.7,0-9.8L251,320.8C247.5,318.6,243.1,318.6,239.5,320.7z"/>
					<path class="st16" d="M239.5,320.9l-133.8,77.2c-3.7,2.1-3.7,7.7,0,9.8l133.7,77.2c3.5,2.1,7.9,2.1,11.4,0L384.6,408
						c3.7-2.1,3.7-7.7,0-9.8l-133.7-77.2C247.5,318.9,243.1,318.9,239.5,320.9z"/>
					<path class="st17" d="M239.5,321.1l-133.4,77c-3.7,2.1-3.7,7.6,0,9.7l133.4,77c3.5,2.1,7.8,2.1,11.4,0l133.5-77
						c3.7-2.1,3.7-7.6,0-9.7l-133.4-77C247.4,319.1,243.1,319.1,239.5,321.1z"/>
					<path class="st18" d="M239.5,321.4l-133,76.8c-3.7,2.1-3.7,7.6,0,9.7l133,76.8c3.5,2.1,7.8,2.1,11.4,0l133-76.8
						c3.7-2.1,3.7-7.6,0-9.7l-133-76.8C247.4,319.4,243.1,319.4,239.5,321.4z"/>
					<path class="st19" d="M239.6,321.6L107,398.2c-3.7,2.1-3.7,7.6,0,9.7l132.6,76.6c3.5,2.1,7.8,2.1,11.3,0l132.6-76.6
						c3.7-2.1,3.7-7.6,0-9.7l-132.6-76.6C247.4,319.6,243.1,319.6,239.6,321.6z"/>
					<path class="st20" d="M239.6,321.9l-132.2,76.3c-3.7,2.1-3.7,7.6,0,9.7l132.2,76.4c3.5,2.1,7.8,2.1,11.3,0l132.2-76.4
						c3.7-2.1,3.7-7.6,0-9.7l-132.2-76.4C247.4,319.8,243.1,319.8,239.6,321.9z"/>
					<path class="st21" d="M239.6,322.1l-131.9,76.1c-3.7,2.1-3.7,7.5,0,9.6l131.9,76.1c3.5,2.1,7.8,2.1,11.3,0l131.8-76
						c3.7-2.1,3.7-7.5,0-9.6l-131.9-76.1C247.4,320.1,243.1,320.1,239.6,322.1z"/>
					<path class="st22" d="M239.6,322.3l-131.5,75.9c-3.7,2.1-3.7,7.5,0,9.6l131.5,75.9c3.5,2,7.8,2,11.2,0l131.5-75.9
						c3.7-2.1,3.7-7.5,0-9.6l-131.5-75.9C247.4,320.3,243.1,320.3,239.6,322.3z"/>
					<path class="st23" d="M239.6,322.5l-131,75.7c-3.7,2.1-3.7,7.5,0,9.6l131.1,75.6c3.5,2,7.8,2,11.2,0L382,407.9
						c3.7-2.1,3.7-7.5,0-9.6l-131.1-75.6C247.4,320.6,243.1,320.6,239.6,322.5z"/>
					<path class="st24" d="M239.6,322.8l-130.7,75.5c-3.6,2.1-3.6,7.5,0,9.5l130.7,75.5c3.5,2,7.8,2,11.2,0l130.7-75.5
						c3.6-2.1,3.6-7.5,0-9.5l-130.7-75.5C247.4,320.8,243.1,320.8,239.6,322.8z"/>
					<path class="st25" d="M239.7,323l-130.4,75.3c-3.6,2.1-3.6,7.4,0,9.5l130.3,75.3c3.5,2,7.7,2,11.1,0L381,407.8
						c3.6-2.1,3.6-7.4,0-9.5L250.7,323C247.4,321,243.1,321,239.7,323z"/>
					<path class="st26" d="M239.7,323.3l-129.9,75c-3.6,2.1-3.6,7.4,0,9.5l129.9,75c3.5,2,7.7,2,11.1,0l129.9-75
						c3.6-2.1,3.6-7.4,0-9.5l-129.9-75C247.4,321.3,243.2,321.3,239.7,323.3z"/>
					<path class="st27" d="M239.7,323.5l-129.5,74.8c-3.6,2.1-3.6,7.4,0,9.4l129.5,74.9c3.5,2,7.7,2,11.1,0l129.5-74.8
						c3.6-2.1,3.6-7.4,0-9.4l-129.5-74.8C247.4,321.5,243.2,321.5,239.7,323.5z"/>
					<path class="st28" d="M239.7,323.7l-129.2,74.6c-3.6,2.1-3.6,7.4,0,9.4l129.2,74.6c3.5,2,7.7,2,11,0l129.2-74.6
						c3.6-2.1,3.6-7.4,0-9.4l-129.2-74.6C247.4,321.8,243.2,321.8,239.7,323.7z"/>
					<path class="st29" d="M239.7,324l-128.8,74.3c-3.6,2.1-3.6,7.3,0,9.4l128.8,74.3c3.4,2,7.6,2,11,0l128.8-74.3
						c3.6-2.1,3.6-7.3,0-9.4L250.7,324C247.4,322,243.2,322,239.7,324z"/>
					<path class="st30" d="M239.7,324.2l-128.3,74.2c-3.6,2.1-3.6,7.3,0,9.4l128.4,74.2c3.4,2,7.6,2,10.9,0l128.4-74.2
						c3.6-2.1,3.6-7.3,0-9.4l-128.4-74.2C247.4,322.2,243.2,322.2,239.7,324.2z"/>
					<path class="st31" d="M239.8,324.5l-128,73.9c-3.6,2.1-3.6,7.3,0,9.3l128,74c3.4,2,7.6,2,10.9,0l128-73.9
						c3.6-2.1,3.6-7.3,0-9.3l-128-73.9C247.4,322.5,243.2,322.5,239.8,324.5z"/>
					<path class="st32" d="M239.8,324.7l-127.7,73.7c-3.5,2.1-3.5,7.3,0,9.3l127.7,73.7c3.4,2,7.6,2,10.9,0l127.7-73.7
						c3.5-2.1,3.5-7.3,0-9.3l-127.7-73.7C247.3,322.7,243.2,322.7,239.8,324.7z"/>
					<path class="st33" d="M239.8,325l-127.3,73.5c-3.5,2.1-3.5,7.3,0,9.3l127.3,73.5c3.4,2,7.5,2,10.8,0l127.3-73.5
						c3.5-2.1,3.5-7.3,0-9.3L250.7,325C247.3,323,243.2,323,239.8,325z"/>
					<path class="st34" d="M239.8,325.1L113,398.4c-3.5,2.1-3.5,7.2,0,9.2l126.8,73.2c3.4,2,7.5,2,10.8,0l126.9-73.1
						c3.5-2.1,3.5-7.2,0-9.2l-126.8-73.2C247.3,323.2,243.2,323.2,239.8,325.1z"/>
					<path class="st35" d="M239.8,325.4l-126.5,73c-3.5,2.1-3.5,7.2,0,9.2l126.5,73c3.4,2,7.5,2,10.8,0l126.5-73
						c3.5-2.1,3.5-7.2,0-9.2l-126.5-73C247.3,323.5,243.2,323.5,239.8,325.4z"/>
					<path class="st36" d="M239.8,325.6l-126.1,72.8c-3.5,2.1-3.5,7.2,0,9.2l126.1,72.8c3.4,2,7.5,2,10.7,0l126.1-72.8
						c3.5-2.1,3.5-7.2,0-9.2l-126.1-72.8C247.3,323.7,243.2,323.7,239.8,325.6z"/>
					<path class="st37" d="M239.9,325.9l-125.7,72.6c-3.5,2.1-3.5,7.2,0,9.2l125.7,72.6c3.4,2,7.4,2,10.7,0l125.7-72.6
						c3.5-2.1,3.5-7.2,0-9.2l-125.7-72.6C247.3,323.9,243.2,323.9,239.9,325.9z"/>
					<path class="st38" d="M239.9,326.1l-125.3,72.4c-3.5,2.1-3.5,7.1,0,9.2L239.9,480c3.3,1.9,7.4,1.9,10.7,0L376,407.6
						c3.5-2.1,3.5-7.1,0-9.2l-125.3-72.4C247.3,324.2,243.2,324.2,239.9,326.1z"/>
					<path class="st39" d="M239.9,326.4l-125,72.1c-3.5,2.1-3.5,7.1,0,9.2l125,72.1c3.3,1.9,7.4,1.9,10.6,0l125-72.1
						c3.5-2.1,3.5-7.1,0-9.2l-125-72.1C247.3,324.4,243.2,324.4,239.9,326.4z"/>
					<path class="st40" d="M239.9,326.5l-124.6,71.9c-3.5,2.1-3.5,7.1,0,9.2l124.6,71.9c3.3,1.9,7.4,1.9,10.6,0l124.6-71.9
						c3.5-2.1,3.5-7.1,0-9.2l-124.6-71.9C247.3,324.7,243.2,324.7,239.9,326.5z"/>
					<path class="st41" d="M239.9,326.8l-124.2,71.7c-3.5,2.1-3.5,7.1,0,9.1l124.2,71.7c3.3,1.9,7.3,1.9,10.6,0l124.2-71.7
						c3.5-2.1,3.5-7.1,0-9.1l-124.2-71.7C247.3,325,243.3,325,239.9,326.8z"/>
					<path class="st42" d="M240,327l-123.8,71.5c-3.5,2.1-3.5,7,0,9.1L240,479.1c3.3,1.9,7.3,1.9,10.6,0l123.8-71.4
						c3.5-2.1,3.5-7,0-9.1L250.6,327C247.3,325.1,243.3,325.1,240,327z"/>
					<path class="st43" d="M240,327.3l-123.5,71.3c-3.5,2-3.5,7,0,9.1l123.4,71.3c3.3,1.9,7.3,1.9,10.6,0l123.4-71.3
						c3.5-2,3.5-7,0-9.1l-123.3-71.3C247.3,325.4,243.3,325.4,240,327.3z"/>
					<path class="st44" d="M240,327.5l-123,71.1c-3.5,2-3.5,7,0,9l123,71.1c3.3,1.9,7.3,1.9,10.6,0l123-71.1c3.5-2,3.5-7,0-9
						l-123-71.1C247.3,325.6,243.3,325.6,240,327.5z"/>
					<path class="st45" d="M240,327.8l-122.6,70.8c-3.5,2-3.5,7,0,9L240,478.3c3.3,1.9,7.2,1.9,10.5,0l122.6-70.8c3.5-2,3.5-7,0-9
						l-122.6-70.8C247.3,325.9,243.3,325.9,240,327.8z"/>
					<path class="st46" d="M240,327.9l-122.2,70.6c-3.5,2-3.5,6.9,0,9L240,478.1c3.3,1.9,7.2,1.9,10.5,0l122.2-70.6
						c3.5-2,3.5-6.9,0-9l-122.2-70.6C247.2,326.1,243.3,326.1,240,327.9z"/>
					<path class="st47" d="M240,328.2l-121.9,70.3c-3.5,2-3.5,6.9,0,8.9L240,477.7c3.2,1.9,7.2,1.9,10.4,0l121.9-70.3
						c3.5-2,3.5-6.9,0-8.9l-121.9-70.3C247.2,326.4,243.3,326.4,240,328.2z"/>
					<path class="st48" d="M240.1,328.5l-121.5,70.1c-3.5,2-3.5,6.9,0,8.9l121.5,70.1c3.2,1.9,7.2,1.9,10.4,0L372,407.5
						c3.5-2,3.5-6.9,0-8.9l-121.5-70.1C247.2,326.6,243.3,326.6,240.1,328.5z"/>
					<path class="st49" d="M240.1,328.7L119,398.6c-3.5,2-3.5,6.9,0,8.9l121.1,69.9c3.2,1.9,7.2,1.9,10.4,0l121.1-69.9
						c3.5-2,3.5-6.9,0-8.9l-121.1-69.9C247.2,326.8,243.3,326.8,240.1,328.7z"/>
					<path class="st50" d="M240.1,329l-120.8,69.7c-3.4,2-3.4,6.9,0,8.9l120.8,69.7c3.2,1.9,7.1,1.9,10.3,0l120.8-69.7
						c3.4-2,3.4-6.9,0-8.9L250.4,329C247.2,327.1,243.3,327.1,240.1,329z"/>
					<path class="st51" d="M240.1,329.2l-120.3,69.5c-3.4,2-3.4,6.8,0,8.8l120.4,69.5c3.2,1.9,7.1,1.9,10.3,0l120.4-69.5
						c3.4-2,3.4-6.8,0-8.8l-120.4-69.5C247.2,327.3,243.3,327.3,240.1,329.2z"/>
					<path class="st52" d="M240.1,329.4l-119.9,69.3c-3.4,2-3.4,6.8,0,8.8l119.9,69.3c3.2,1.9,7.1,1.9,10.3,0l119.9-69.3
						c3.4-2,3.4-6.8,0-8.8l-119.9-69.3C247.2,327.6,243.3,327.6,240.1,329.4z"/>
					<path id="XMLID_1610_" class="st53" d="M240.1,329.6l-119.5,69c-3.4,2-3.4,6.8,0,8.8l119.5,69c3.2,1.9,7.1,1.9,10.2,0l119.5-69
						c3.4-2,3.4-6.8,0-8.8l-119.5-69C247.2,327.9,243.3,327.9,240.1,329.6z"/>
				</g>
				<g>
					<g>
						
							<linearGradient id="SVGID_8_" gradientUnits="userSpaceOnUse" x1="102.376" y1="114.8464" x2="387.7879" y2="114.8464" gradientTransform="matrix(1 0 0 -1 0 490)">
							<stop  offset="0" style="stop-color:#B4ACBF"/>
							<stop  offset="0.6" style="stop-color:#F0E5FF"/>
						</linearGradient>
						<path class="st69" d="M104.1,272.9v115.7v11.5c0.8,1.2,2,2.3,3.4,3.1l120.2,69.4c5.5,3.2,11.6,4.8,17.7,4.8
							c6.2,0,12.2-1.6,17.7-4.8L383,403.4c1.3-0.7,2.3-1.8,3.1-2.9v-11.3V272.9H104.1z"/>
						
							<linearGradient id="SVGID_9_" gradientUnits="userSpaceOnUse" x1="104.2145" y1="216.9918" x2="386.0676" y2="216.9918" gradientTransform="matrix(1 0 0 -1 0 490)">
							<stop  offset="0" style="stop-color:#F0E5FF"/>
							<stop  offset="1" style="stop-color:#FFFFFF"/>
						</linearGradient>
						<path class="st70" d="M227.7,350.1l-118.4-68.4c-6.7-3.8-6.7-13.5,0-17.5l119.1-68.7c9.8-5.7,21.9-5.7,31.8,0l120.6,69.6
							c6.4,3.7,7.4,12.4,0.9,16.2l-119,68.8C251.9,356.3,238.5,356.3,227.7,350.1z"/>
						<g>
							<g id="XMLID_1606_">
								
									<linearGradient id="XMLID_15_" gradientUnits="userSpaceOnUse" x1="136.4341" y1="218.416" x2="354.0329" y2="218.416" gradientTransform="matrix(1 0 0 -1 0 490)">
									<stop  offset="0" style="stop-color:#B4ACBF"/>
									<stop  offset="0.5146" style="stop-color:#D1C8DE"/>
									<stop  offset="1" style="stop-color:#F0E5FF"/>
								</linearGradient>
								<path id="XMLID_1608_" class="st71" d="M240.8,208.8l-104.4,49.6v14.2c0,0.8,0.5,1.6,1.1,2.1l103.3,59.8
									c2.7,1.6,6.1,1.6,8.8,0l103.1-59.7c0.8-0.5,1.3-1.3,1.3-2.2v-14l-104.4-49.7C246.9,207.2,243.6,207.2,240.8,208.8z"/>
								
									<linearGradient id="XMLID_16_" gradientUnits="userSpaceOnUse" x1="136.4107" y1="231.6307" x2="354.0562" y2="231.6307" gradientTransform="matrix(1 0 0 -1 0 490)">
									<stop  offset="0" style="stop-color:#F0E5FF"/>
									<stop  offset="1" style="stop-color:#FFFFFF"/>
								</linearGradient>
								<path id="XMLID_1607_" class="st72" d="M240.8,195.6l-102.3,59c-2.9,1.7-2.9,5.8,0,7.5l102.3,59c2.7,1.6,6.1,1.6,8.8,0
									l102.3-58.9c2.9-1.7,2.9-5.8,0-7.5l-102.3-59.1C246.9,194,243.6,194,240.8,195.6z"/>
							</g>
							
								<linearGradient id="XMLID_17_" gradientUnits="userSpaceOnUse" x1="167.1127" y1="233.6385" x2="322.327" y2="233.6385" gradientTransform="matrix(1 0 0 -1 0 490)">
								<stop  offset="0" style="stop-color:#F0E5FF"/>
								<stop  offset="1" style="stop-color:#FFFFFF"/>
							</linearGradient>
							<path id="XMLID_1605_" class="st73" d="M241.6,211.6l-72.9,42.1c-2.1,1.2-2.1,4.1,0,5.3l72.9,42.1c2,1.1,4.3,1.1,6.3,0
								l72.9-42.1c2.1-1.2,2.1-4.1,0-5.3l-73-42.1C245.9,210.5,243.5,210.5,241.6,211.6z"/>
							
								<linearGradient id="XMLID_18_" gradientUnits="userSpaceOnUse" x1="167.0043" y1="211.5985" x2="322.2245" y2="211.5985" gradientTransform="matrix(1 0 0 -1 0 490)">
								<stop  offset="0" style="stop-color:#B4ACBF"/>
								<stop  offset="0.5146" style="stop-color:#D1C8DE"/>
								<stop  offset="1" style="stop-color:#F0E5FF"/>
							</linearGradient>
							<path id="XMLID_1604_" class="st74" d="M320.7,255.7l-72.9,42.1c-2,1.1-4.3,1.1-6.3,0l-72.9-42.1c-0.5-0.3-0.7-0.6-1-0.9
								c-0.9,1.4-0.7,3.5,1,4.4l72.9,42.1c2,1.1,4.3,1.1,6.3,0l72.9-42.1c1.6-0.9,2-3,1-4.4C321.4,255.1,321.2,255.4,320.7,255.7z"
								/>
						</g>
					</g>
				</g>
			</g>
			
				<radialGradient id="XMLID_19_" cx="244.8599" cy="-7417.0586" r="37.7639" gradientTransform="matrix(1 0 0 -0.5172 0 -3583.3835)" gradientUnits="userSpaceOnUse">
				<stop  offset="0" style="stop-color:#120426"/>
				<stop  offset="8.588529e-02" style="stop-color:#1A0D2E;stop-opacity:0.9141"/>
				<stop  offset="0.2261" style="stop-color:#322543;stop-opacity:0.7739"/>
				<stop  offset="0.4031" style="stop-color:#574D65;stop-opacity:0.5969"/>
				<stop  offset="0.6102" style="stop-color:#8B8495;stop-opacity:0.3898"/>
				<stop  offset="0.8395" style="stop-color:#CDCAD1;stop-opacity:0.1605"/>
				<stop  offset="1" style="stop-color:#FFFFFF;stop-opacity:0"/>
			</radialGradient>
			<path id="XMLID_1418_" class="st75" d="M218.4,237.4c14.6-8.4,38.4-8.4,52.9,0c14.6,8.4,14.6,22.1,0,30.5
				c-14.6,8.4-38.4,8.4-52.9,0C203.9,259.6,203.9,245.9,218.4,237.4z"/>
		</g>
		<g>
			<g>
				<polygon class="st76" points="245,170.2 244.6,171.9 244.6,218.8 245,219.2 266.9,206.4 				"/>
				<polygon class="st77" points="245,170.2 223.3,206.4 245,219.2 245,196.5 				"/>
				<polygon class="st78" points="245,223.3 244.8,223.7 244.8,240.4 245,241.2 266.9,210.6 				"/>
				<polygon class="st77" points="245,241.2 245,223.3 223.3,210.6 				"/>
				<polygon class="st79" points="245,219.2 266.9,206.4 245,196.5 				"/>
				<polygon class="st80" points="223.3,206.4 245,219.2 245,196.5 				"/>
			</g>
		</g>
		<g>
			<g>
				<g>
					
						<linearGradient id="SVGID_10_" gradientUnits="userSpaceOnUse" x1="-54.2886" y1="-54.1584" x2="-54.4578" y2="-54.2571" gradientTransform="matrix(256 -147.8017 0 256 14025 5945.2656)">
						<stop  offset="0" style="stop-color:#2697D4"/>
						<stop  offset="0.5" style="stop-color:#207BCB"/>
						<stop  offset="1" style="stop-color:#2285CE"/>
					</linearGradient>
					<polygon class="st81" points="88.9,92.7 129.9,69.1 129.9,116.4 88.9,140 					"/>
				</g>
				<g>
					<path class="st82" d="M111.2,100.4c-2.1,0.3-3.2,0.3-3.2-0.8c0-0.9,0.7-1.8,1.8-2.5c2.1-1.2,4.3-1.5,5.8-1.6l0.8-6.5
						c-1.2,0-3.6,0.4-7,2.3c-2.3,1.4-4.4,3.3-5.8,5.4c-1.5,2.2-2.2,4.8-2.2,7.2c0,4.5,2.3,4.9,6.2,4.4c2.4-0.4,3.3-0.2,3.3,0.9
						c0,1.1-0.8,2.1-2.2,3c-1.8,1-4.8,1.7-6.6,1.5l-0.8,6.6c1.7,0.1,4.7-0.6,7.8-2.3c2.5-1.5,4.6-3.4,6.1-5.5
						c1.6-2.3,2.4-4.9,2.4-7.8C117.6,100.3,115.1,99.7,111.2,100.4L111.2,100.4z"/>
				</g>
			</g>
		</g>
		<g>
			<g>
				<polygon class="st83" points="373.9,73.8 360.3,81.7 360.3,97.5 360.3,113.2 373.9,105.4 387.6,97.5 387.6,81.7 387.6,65.9 				
					"/>
				<polygon class="st84" points="373.9,58 373.9,73.8 373.9,89.6 387.6,81.7 401.3,73.8 401.3,42.3 				"/>
				<polygon class="st85" points="360.3,113.2 373.9,105.4 373.9,89.6 360.3,97.5 				"/>
				<polygon class="st85" points="387.6,65.9 401.3,58 401.3,42.3 387.6,50.2 				"/>
				<polygon class="st86" points="373.9,89.6 387.6,81.7 387.6,65.9 373.9,73.8 				"/>
			</g>
		</g>
	</g>
</g>
</svg>
