<?xml version="1.0" encoding="utf-8"?>
<!-- Generator: Adobe Illustrator 21.0.0, SVG Export Plug-In . SVG Version: 6.00 Build 0)  -->
<svg version="1.1" id="Layer_1" xmlns="http://www.w3.org/2000/svg" xmlns:xlink="http://www.w3.org/1999/xlink" x="0px" y="0px"
	 viewBox="0 0 333 100" style="enable-background:new 0 0 333 100;" xml:space="preserve">
<style type="text/css">
	.st0{fill:#F22F46;}
</style>
<path class="st0" d="M48.3,37.7C48.3,43.3,43.7,48,38,48s-10.3-4.7-10.3-10.3S32.3,27.3,38,27.3S48.3,32,48.3,37.7z M38,52
	c-5.7,0-10.3,4.7-10.3,10.3S32.3,72.7,38,72.7S48.3,68,48.3,62.3S43.7,52,38,52z M100.3,50c0,27.7-22.3,50-50,50s-50-22.3-50-50
	s22.3-50,50-50S100.3,22.3,100.3,50z M87,50c0-20.3-16.3-36.7-36.7-36.7S13.7,29.7,13.7,50S30,86.7,50.3,86.7S87,70.3,87,50z
	 M62.7,52c-5.7,0-10.3,4.7-10.3,10.3S57,72.7,62.7,72.7S73,68,73,62.3S68.3,52,62.7,52z M62.7,27.3c-5.7,0-10.3,4.7-10.3,10.3
	S57,48,62.7,48S73,43.3,73,37.7S68.3,27.3,62.7,27.3z M234.7,19.7c0.3,0,0.7,0.3,1,0.7V31c0,0.7-0.7,1-1,1H217c-0.7,0-1-0.7-1-1
	V20.7c0-0.7,0.7-1,1-1C217,19.7,234.7,19.7,234.7,19.7z M234.3,34.7h-34c-0.3,0-1,0.3-1,1L195,52.3l-0.3,1l-5.3-17.7
	c0-0.3-0.7-1-1-1H175c-0.3,0-1,0.3-1,1l-5,16.7l-0.3,1l-0.3-1l-2-8.3l-2-8.3c0-0.3-0.7-1-1-1h-26.7V20.3c0-0.3-0.7-1-1.3-0.7
	L118.7,25c-0.7,0-1,0.3-1,1v9h-4.3c-0.3,0-1,0.3-1,1v12.7c0,0.3,0.3,1,1,1h4.3v15.7c0,11,6,16,17,16c4.7,0,9-1,12-2.7V65.3
	c0-0.7-0.7-1-1-0.7c-1.7,0.7-3.3,1-4.7,1c-3,0-4.7-1.3-4.7-4.7V49.7h9.7c0.3,0,1-0.3,1-1V38l12.7,42c0,0.3,0.7,1,1,1h14
	c0.3,0,1-0.3,1-1l6-18.7l3,9.7l2.7,9c0,0.3,0.7,1,1,1h14c0.3,0,1-0.3,1-1L216,38v42c0,0.3,0.3,1,1,1h17c0.3,0,1-0.3,1-1V35.7
	C235,35.3,234.7,34.7,234.3,34.7z M256.7,19.7h-17c-0.3,0-1,0.3-1,1v59c0,0.3,0.3,1,1,1h17c0.3,0,1-0.3,1-1V20.3
	C257.7,20,257.3,19.7,256.7,19.7z M279.3,19.7h-17.7c-0.3,0-1,0.3-1,1V31c0,0.3,0.3,1,1,1h17.7c0.3,0,1-0.3,1-1V20.3
	C280.3,20,280,19.7,279.3,19.7z M279,34.7h-17c-0.3,0-1,0.3-1,1v43.7c0,0.3,0.3,1,1,1h17c0.3,0,1-0.3,1-1V35.7
	C280,35.3,279.7,34.7,279,34.7z M332.7,57.3C332.7,70,322,81,307,81c-14.7,0-25.3-11-25.3-23.7s10.7-23.7,25.7-23.7
	C322,33.7,332.7,44.7,332.7,57.3z M314.7,57.7c0-4.7-3.3-8.3-7.3-8c-4.3,0-7.3,3.7-7.3,8s3.3,8,7.3,8
	C311.7,65.7,314.7,62,314.7,57.7z"/>
</svg>
