
<svg version="1.1" id="Layer_1" xmlns="http://www.w3.org/2000/svg" xmlns:xlink="http://www.w3.org/1999/xlink" x="0px" y="0px"
	 viewBox="0 0 400 270" style="enable-background:new 0 0 400 270;" xml:space="preserve">
<style type="text/css">
	.st0{opacity:0.45;}
	.st1{fill:url(#SVGID_1_);}
	.st2{opacity:0.15;fill:#9452FF;enable-background:new    ;}
	.st3{fill:url(#SVGID_2_);}
	.st4{fill:url(#SVGID_3_);}
	.st5{fill:url(#SVGID_4_);}
	.st6{fill:url(#SVGID_5_);}
	.st7{fill:url(#SVGID_6_);}
	.st8{fill:#9452FF;}
	.st9{fill:url(#SVGID_7_);}
	.st10{fill:none;stroke:#FFA744;stroke-width:0.5945;stroke-miterlimit:10;enable-background:new    ;}
	.st11{fill:url(#SVGID_8_);}
	.st12{fill:url(#SVGID_9_);}
	.st13{fill:url(#SVGID_10_);}
	.st14{fill:url(#SVGID_11_);}
	.st15{fill:url(#SVGID_12_);}
	.st16{fill:url(#SVGID_13_);}
	.st17{fill:#CD9476;}
	.st18{fill:#221101;}
	.st19{opacity:0.45;fill:#251440;enable-background:new    ;}
	.st20{fill:url(#Shirt_1_);}
	.st21{fill:url(#SVGID_14_);}
	.st22{fill:url(#SVGID_15_);}
	.st23{fill:url(#SVGID_16_);}
	.st24{fill:url(#SVGID_17_);}
	.st25{fill:url(#SVGID_18_);}
	.st26{fill:url(#SVGID_19_);}
	.st27{fill:url(#Shirt_3_);}
	.st28{fill:none;stroke:url(#SVGID_20_);stroke-linecap:round;stroke-linejoin:round;stroke-dasharray:0.9629,3.8515;}
	.st29{fill:#FFFFFF;}
	.st30{fill:url(#SVGID_21_);}

		.st31{fill:none;stroke:url(#SVGID_22_);stroke-linecap:round;stroke-linejoin:round;stroke-miterlimit:10;stroke-dasharray:0.9629,3.8515;}
	.st32{fill:none;stroke:url(#SVGID_23_);stroke-linecap:round;stroke-linejoin:round;stroke-dasharray:0.9629,3.8515;}
	.st33{fill:url(#SVGID_24_);}

		.st34{fill:none;stroke:url(#SVGID_25_);stroke-linecap:round;stroke-linejoin:round;stroke-miterlimit:10;stroke-dasharray:0.9629,3.8515;}
	.st35{fill:url(#SVGID_26_);}
	.st36{fill:url(#SVGID_27_);}
	.st37{fill:#FFA744;}
	.st38{fill:url(#SVGID_28_);}
	.st39{fill:url(#SVGID_29_);}
	.st40{opacity:0.85;}
	.st41{fill:url(#SVGID_30_);}
	.st42{fill:url(#SVGID_31_);}
	.st43{enable-background:new    ;}
	.st44{fill:#491E8C;}
	.st45{opacity:0.4;fill:#491E8C;enable-background:new    ;}
	.st46{fill:url(#SVGID_32_);}
	.st47{clip-path:url(#SVGID_34_);fill:url(#SVGID_35_);}
	.st48{opacity:0.15;clip-path:url(#SVGID_34_);fill:url(#SVGID_36_);}
	.st49{opacity:0.15;clip-path:url(#SVGID_34_);fill:url(#SVGID_37_);}
	.st50{opacity:0.15;clip-path:url(#SVGID_34_);fill:url(#SVGID_38_);}
	.st51{opacity:0.15;clip-path:url(#SVGID_34_);fill:url(#SVGID_39_);}
	.st52{opacity:0.15;clip-path:url(#SVGID_34_);fill:url(#SVGID_40_);}
	.st53{opacity:0.15;clip-path:url(#SVGID_34_);fill:url(#SVGID_41_);}
	.st54{opacity:0.15;clip-path:url(#SVGID_34_);fill:url(#SVGID_42_);}
	.st55{opacity:0.15;clip-path:url(#SVGID_34_);fill:url(#SVGID_43_);}
	.st56{opacity:0.15;clip-path:url(#SVGID_34_);fill:url(#SVGID_44_);}
	.st57{opacity:0.15;clip-path:url(#SVGID_34_);fill:url(#SVGID_45_);}
	.st58{opacity:0.15;clip-path:url(#SVGID_34_);fill:url(#SVGID_46_);}
	.st59{opacity:0.15;clip-path:url(#SVGID_34_);fill:url(#SVGID_47_);}
	.st60{fill:url(#SVGID_48_);}
	.st61{clip-path:url(#SVGID_50_);fill:url(#SVGID_51_);}
	.st62{opacity:0.15;clip-path:url(#SVGID_50_);fill:url(#SVGID_52_);}
	.st63{opacity:0.15;clip-path:url(#SVGID_50_);fill:url(#SVGID_53_);}
	.st64{opacity:0.15;clip-path:url(#SVGID_50_);fill:url(#SVGID_54_);}
	.st65{opacity:0.15;clip-path:url(#SVGID_50_);fill:url(#SVGID_55_);}
	.st66{opacity:0.15;clip-path:url(#SVGID_50_);fill:url(#SVGID_56_);}
	.st67{opacity:0.15;clip-path:url(#SVGID_50_);fill:url(#SVGID_57_);}
	.st68{opacity:0.15;clip-path:url(#SVGID_50_);fill:url(#SVGID_58_);}
	.st69{opacity:0.15;clip-path:url(#SVGID_50_);fill:url(#SVGID_59_);}
	.st70{opacity:0.15;clip-path:url(#SVGID_50_);fill:url(#SVGID_60_);}
	.st71{opacity:0.15;clip-path:url(#SVGID_50_);fill:url(#SVGID_61_);}
	.st72{opacity:0.15;clip-path:url(#SVGID_50_);fill:url(#SVGID_62_);}
	.st73{opacity:0.15;clip-path:url(#SVGID_50_);fill:url(#SVGID_63_);}
</style>
<g>
	<g>
		<g class="st0">
			<radialGradient id="SVGID_1_" cx="196.3975" cy="169.1615" r="145.2711" gradientUnits="userSpaceOnUse">
				<stop  offset="0" style="stop-color:#9452FF"/>
				<stop  offset="1" style="stop-color:#4A297F;stop-opacity:0.3"/>
			</radialGradient>
			<path class="st1" d="M134.8,231.1l-0.6,0.4l-5.2,0.4l-0.1-0.6c2.6-0.2,4-0.3,4.1-0.3c0.1,0,0.3,0,0.4,0c-0.8-0.4-1.6-0.8-2.3-1.2
				l-7.9-4.6l0.7-0.4L134.8,231.1z M143.5,226.1l-0.6,0.4l-5.2,0.4l-0.1-0.6c2.6-0.2,4-0.3,4.1-0.3c0.1,0,0.3,0,0.4,0
				c-0.8-0.4-1.6-0.8-2.3-1.2l-7.9-4.6l0.7-0.4L143.5,226.1z M152.8,219.3c0.3,0.9-0.1,1.7-1.2,2.3c-1.2,0.7-2.5,0.9-4,0.7
				c-1.5-0.2-3.2-0.8-5.1-1.9c-1.9-1.1-3-2.1-3.3-2.9c-0.4-0.9,0-1.7,1.2-2.3c1.2-0.7,2.5-0.9,4-0.7c1.5,0.2,3.2,0.8,5.1,1.9
				C151.4,217.4,152.5,218.4,152.8,219.3z M147.6,221.7c1.3,0.2,2.4,0.1,3.3-0.5s1.2-1.2,0.8-1.9c-0.4-0.7-1.4-1.6-3-2.5
				c-1.6-0.9-3.1-1.5-4.3-1.8c-1.3-0.2-2.4-0.1-3.3,0.5c-0.9,0.5-1.2,1.1-0.8,1.9c0.4,0.7,1.4,1.6,3.1,2.5
				C145,220.9,146.4,221.5,147.6,221.7z M160.9,216.1l-0.6,0.4l-5.2,0.4l-0.1-0.6c2.6-0.2,4-0.3,4.1-0.3c0.1,0,0.3,0,0.4,0
				c-0.8-0.4-1.6-0.8-2.3-1.2l-7.9-4.6l0.7-0.4L160.9,216.1z M170.2,209.2c0.3,0.9-0.1,1.7-1.2,2.3c-1.2,0.7-2.5,0.9-4,0.7
				c-1.5-0.2-3.2-0.8-5.1-1.9c-1.9-1.1-3-2.1-3.3-2.9c-0.4-0.9,0-1.7,1.2-2.3c1.2-0.7,2.5-0.9,4-0.7c1.5,0.2,3.2,0.8,5.1,1.9
				C168.8,207.4,169.9,208.3,170.2,209.2z M165.1,211.6c1.3,0.2,2.4,0.1,3.3-0.5c0.9-0.5,1.2-1.2,0.8-1.9c-0.4-0.7-1.4-1.6-3-2.5
				c-1.6-0.9-3.1-1.5-4.3-1.8c-1.3-0.2-2.4-0.1-3.3,0.5c-0.9,0.5-1.2,1.1-0.8,1.9c0.4,0.7,1.4,1.6,3.1,2.5
				C162.4,210.8,163.8,211.4,165.1,211.6z M178.3,206l-0.6,0.4l-5.2,0.4l-0.1-0.6c2.6-0.2,4-0.3,4.1-0.3c0.1,0,0.3,0,0.4,0
				c-0.8-0.4-1.6-0.8-2.3-1.2l-7.9-4.6l0.7-0.4L178.3,206z M187.6,199.2c0.3,0.9-0.1,1.7-1.2,2.3c-1.2,0.7-2.5,0.9-4,0.7
				c-1.5-0.2-3.2-0.8-5.1-1.9c-1.9-1.1-3-2.1-3.3-2.9c-0.4-0.9,0-1.7,1.2-2.3c1.2-0.7,2.5-0.9,4-0.7c1.5,0.2,3.2,0.8,5.1,1.9
				C186.2,197.3,187.3,198.3,187.6,199.2z M182.5,201.6c1.3,0.2,2.4,0.1,3.3-0.5s1.2-1.2,0.8-1.9c-0.4-0.7-1.4-1.6-3-2.5
				c-1.6-0.9-3.1-1.5-4.3-1.8c-1.3-0.2-2.4-0.1-3.3,0.5c-0.9,0.5-1.2,1.1-0.8,1.9c0.4,0.7,1.4,1.6,3.1,2.5
				C179.8,200.8,181.2,201.3,182.5,201.6z M195.7,196l-0.6,0.4l-5.2,0.4l-0.1-0.6c2.6-0.2,4-0.3,4.1-0.3c0.1,0,0.3,0,0.4,0
				c-0.8-0.4-1.6-0.8-2.3-1.2l-7.9-4.6l0.7-0.4L195.7,196z M117.1,218.8c0.3,0.9-0.1,1.7-1.2,2.3c-1.2,0.7-2.5,0.9-4,0.7
				c-1.5-0.2-3.2-0.8-5.1-1.9c-1.9-1.1-3-2.1-3.3-2.9c-0.4-0.9,0-1.7,1.2-2.3c1.2-0.7,2.5-0.9,4-0.7c1.5,0.2,3.2,0.8,5.1,1.9
				C115.7,216.9,116.7,217.9,117.1,218.8z M111.9,221.2c1.3,0.2,2.4,0.1,3.3-0.5c0.9-0.5,1.2-1.2,0.8-1.9c-0.4-0.7-1.4-1.6-3-2.5
				c-1.6-0.9-3.1-1.5-4.3-1.8c-1.3-0.2-2.4-0.1-3.3,0.5c-0.9,0.5-1.2,1.1-0.8,1.9c0.4,0.7,1.4,1.6,3.1,2.5
				C109.2,220.4,110.7,220.9,111.9,221.2z M125.2,215.6l-0.6,0.4l-5.2,0.4l-0.1-0.6c2.6-0.2,4-0.3,4.1-0.3c0.1,0,0.3,0,0.4,0
				c-0.8-0.4-1.6-0.8-2.3-1.2l-7.9-4.6l0.7-0.4L125.2,215.6z M134.5,208.7c0.3,0.9-0.1,1.7-1.2,2.3c-1.2,0.7-2.5,0.9-4,0.7
				c-1.5-0.2-3.2-0.8-5.1-1.9c-1.9-1.1-3-2.1-3.3-2.9c-0.4-0.9,0-1.7,1.2-2.3c1.2-0.7,2.5-0.9,4-0.7c1.5,0.2,3.2,0.8,5.1,1.9
				C133.1,206.9,134.2,207.8,134.5,208.7z M129.3,211.1c1.3,0.2,2.4,0.1,3.3-0.5c0.9-0.5,1.2-1.2,0.8-1.9c-0.4-0.7-1.4-1.6-3-2.5
				c-1.6-0.9-3.1-1.5-4.3-1.8c-1.3-0.2-2.4-0.1-3.3,0.5c-0.9,0.5-1.2,1.1-0.8,1.9c0.4,0.7,1.4,1.6,3.1,2.5
				C126.6,210.3,128.1,210.9,129.3,211.1z M142.6,205.5l-0.6,0.4l-5.2,0.4l-0.1-0.6c2.6-0.2,4-0.3,4.1-0.3c0.1,0,0.3,0,0.4,0
				c-0.8-0.4-1.6-0.8-2.3-1.2l-7.9-4.6l0.7-0.4L142.6,205.5z M151.9,198.7c0.3,0.9-0.1,1.7-1.2,2.3c-1.2,0.7-2.5,0.9-4,0.7
				c-1.5-0.2-3.2-0.8-5.1-1.9c-1.9-1.1-3-2.1-3.3-2.9c-0.4-0.9,0-1.7,1.2-2.3c1.2-0.7,2.5-0.9,4-0.7c1.5,0.2,3.2,0.8,5.1,1.9
				C150.5,196.8,151.6,197.8,151.9,198.7z M146.7,201.1c1.3,0.2,2.4,0.1,3.3-0.5s1.2-1.2,0.8-1.9c-0.4-0.7-1.4-1.6-3-2.5
				c-1.6-0.9-3.1-1.5-4.3-1.8c-1.3-0.2-2.4-0.1-3.3,0.5c-0.9,0.5-1.2,1.1-0.8,1.9c0.4,0.7,1.4,1.6,3.1,2.5
				C144.1,200.2,145.5,200.8,146.7,201.1z M160,195.4l-0.6,0.4l-5.2,0.4l-0.1-0.6c2.6-0.2,4-0.3,4.1-0.3c0.1,0,0.3,0,0.4,0
				c-0.8-0.4-1.6-0.8-2.3-1.2l-7.9-4.6l0.7-0.4L160,195.4z M169.3,188.6c0.3,0.9-0.1,1.7-1.2,2.3c-1.2,0.7-2.5,0.9-4,0.7
				c-1.5-0.2-3.2-0.8-5.1-1.9c-1.9-1.1-3-2.1-3.3-2.9c-0.4-0.9,0-1.7,1.2-2.3c1.2-0.7,2.5-0.9,4-0.7c1.5,0.2,3.2,0.8,5.1,1.9
				C167.9,186.7,169,187.7,169.3,188.6z M164.2,191c1.3,0.2,2.4,0.1,3.3-0.5c0.9-0.5,1.2-1.2,0.8-1.9c-0.4-0.7-1.4-1.6-3-2.5
				c-1.6-0.9-3.1-1.5-4.3-1.8c-1.3-0.2-2.4-0.1-3.3,0.5c-0.9,0.5-1.2,1.1-0.8,1.9c0.4,0.7,1.4,1.6,3.1,2.5
				C161.5,190.2,162.9,190.8,164.2,191z M177.4,185.4l-0.6,0.4l-5.2,0.4l-0.1-0.6c2.6-0.2,4-0.3,4.1-0.3c0.1,0,0.3,0,0.4,0
				c-0.8-0.4-1.6-0.8-2.3-1.2l-7.9-4.6l0.7-0.4L177.4,185.4z M98.2,210l-0.6,0.4l-5.2,0.4l-0.1-0.6c2.6-0.2,4-0.3,4.1-0.3
				c0.1,0,0.3,0,0.4,0c-0.8-0.4-1.6-0.8-2.3-1.2l-7.9-4.6l0.7-0.4L98.2,210z M107.5,203.2c0.3,0.9-0.1,1.7-1.2,2.3
				c-1.2,0.7-2.5,0.9-4,0.7c-1.5-0.2-3.2-0.8-5.1-1.9c-1.9-1.1-3-2.1-3.3-2.9c-0.4-0.9,0-1.7,1.2-2.3c1.2-0.7,2.5-0.9,4-0.7
				c1.5,0.2,3.2,0.8,5.1,1.9C106.1,201.3,107.1,202.3,107.5,203.2z M102.3,205.6c1.3,0.2,2.4,0.1,3.3-0.5c0.9-0.5,1.2-1.2,0.8-1.9
				c-0.4-0.7-1.4-1.6-3-2.5c-1.6-0.9-3.1-1.5-4.3-1.8c-1.3-0.2-2.4-0.1-3.3,0.5c-0.9,0.5-1.2,1.1-0.8,1.9c0.4,0.7,1.4,1.6,3.1,2.5
				C99.6,204.8,101.1,205.3,102.3,205.6z M115.6,200l-0.6,0.4l-5.2,0.4l-0.1-0.6c2.6-0.2,4-0.3,4.1-0.3c0.1,0,0.3,0,0.4,0
				c-0.8-0.4-1.6-0.8-2.3-1.2l-7.9-4.6l0.7-0.4L115.6,200z M124.9,193.1c0.3,0.9-0.1,1.7-1.2,2.3c-1.2,0.7-2.5,0.9-4,0.7
				c-1.5-0.2-3.2-0.8-5.1-1.9c-1.9-1.1-3-2.1-3.3-2.9c-0.4-0.9,0-1.7,1.2-2.3c1.2-0.7,2.5-0.9,4-0.7c1.5,0.2,3.2,0.8,5.1,1.9
				C123.5,191.3,124.6,192.2,124.9,193.1z M119.7,195.5c1.3,0.2,2.4,0.1,3.3-0.5c0.9-0.5,1.2-1.2,0.8-1.9c-0.4-0.7-1.4-1.6-3-2.5
				c-1.6-0.9-3.1-1.5-4.3-1.8c-1.3-0.2-2.4-0.1-3.3,0.5c-0.9,0.5-1.2,1.1-0.8,1.9c0.4,0.7,1.4,1.6,3.1,2.5
				C117,194.7,118.5,195.3,119.7,195.5z M133,189.9l-0.6,0.4l-5.2,0.4l-0.1-0.6c2.6-0.2,4-0.3,4.1-0.3c0.1,0,0.3,0,0.4,0
				c-0.8-0.4-1.6-0.8-2.3-1.2l-7.9-4.6l0.7-0.4L133,189.9z M141.7,184.9l-0.6,0.4l-5.2,0.4l-0.1-0.6c2.6-0.2,4-0.3,4.1-0.3
				c0.1,0,0.3,0,0.4,0c-0.8-0.4-1.6-0.8-2.3-1.2l-7.9-4.6l0.7-0.4L141.7,184.9z M150.4,179.8l-0.6,0.4l-5.2,0.4l-0.1-0.6
				c2.6-0.2,4-0.3,4.1-0.3c0.1,0,0.3,0,0.4,0c-0.8-0.4-1.6-0.8-2.3-1.2l-7.9-4.6l0.7-0.4L150.4,179.8z M159.7,173
				c0.3,0.9-0.1,1.7-1.2,2.3c-1.2,0.7-2.5,0.9-4,0.7c-1.5-0.2-3.2-0.8-5.1-1.9c-1.9-1.1-3-2.1-3.3-2.9c-0.4-0.9,0-1.7,1.2-2.3
				c1.2-0.7,2.5-0.9,4-0.7c1.5,0.2,3.2,0.8,5.1,1.9C158.3,171.1,159.4,172.1,159.7,173z M154.6,175.4c1.3,0.2,2.4,0.1,3.3-0.5
				c0.9-0.5,1.2-1.2,0.8-1.9c-0.4-0.7-1.4-1.6-3-2.5c-1.6-0.9-3.1-1.5-4.3-1.8c-1.3-0.2-2.4-0.1-3.3,0.5c-0.9,0.5-1.2,1.1-0.8,1.9
				c0.4,0.7,1.4,1.6,3.1,2.5C151.9,174.6,153.3,175.2,154.6,175.4z M79.8,199.4l-0.6,0.4l-5.2,0.4l-0.1-0.6c2.6-0.2,4-0.3,4.1-0.3
				c0.1,0,0.3,0,0.4,0c-0.8-0.4-1.6-0.8-2.3-1.2l-7.9-4.6l0.7-0.4L79.8,199.4z M89.2,192.6c0.3,0.9-0.1,1.7-1.2,2.3
				c-1.2,0.7-2.5,0.9-4,0.7c-1.5-0.2-3.2-0.8-5.1-1.9c-1.9-1.1-3-2.1-3.3-2.9c-0.4-0.9,0-1.7,1.2-2.3c1.2-0.7,2.5-0.9,4-0.7
				c1.5,0.2,3.2,0.8,5.1,1.9C87.7,190.7,88.8,191.7,89.2,192.6z M84,195c1.3,0.2,2.4,0.1,3.3-0.5c0.9-0.5,1.2-1.2,0.8-1.9
				c-0.4-0.7-1.4-1.6-3-2.5c-1.6-0.9-3.1-1.5-4.3-1.8c-1.3-0.2-2.4-0.1-3.3,0.5c-0.9,0.5-1.2,1.1-0.8,1.9c0.4,0.7,1.4,1.6,3.1,2.5
				C81.3,194.2,82.8,194.8,84,195z M97.3,189.4l-0.6,0.4l-5.2,0.4l-0.1-0.6c2.6-0.2,4-0.3,4.1-0.3c0.1,0,0.3,0,0.4,0
				c-0.8-0.4-1.6-0.8-2.3-1.2l-7.9-4.6l0.7-0.4L97.3,189.4z M106.6,182.6c0.3,0.9-0.1,1.7-1.2,2.3c-1.2,0.7-2.5,0.9-4,0.7
				c-1.5-0.2-3.2-0.8-5.1-1.9c-1.9-1.1-3-2.1-3.3-2.9c-0.4-0.9,0-1.7,1.2-2.3c1.2-0.7,2.5-0.9,4-0.7c1.5,0.2,3.2,0.8,5.1,1.9
				C105.2,180.7,106.3,181.7,106.6,182.6z M101.4,185c1.3,0.2,2.4,0.1,3.3-0.5c0.9-0.5,1.2-1.2,0.8-1.9c-0.4-0.7-1.4-1.6-3-2.5
				c-1.6-0.9-3.1-1.5-4.3-1.8c-1.3-0.2-2.4-0.1-3.3,0.5c-0.9,0.5-1.2,1.1-0.8,1.9c0.4,0.7,1.4,1.6,3.1,2.5
				C98.7,184.1,100.2,184.7,101.4,185z M115.3,177.5c0.3,0.9-0.1,1.7-1.2,2.3c-1.2,0.7-2.5,0.9-4,0.7c-1.5-0.2-3.2-0.8-5.1-1.9
				c-1.9-1.1-3-2.1-3.3-2.9c-0.4-0.9,0-1.7,1.2-2.3c1.2-0.7,2.5-0.9,4-0.7c1.5,0.2,3.2,0.8,5.1,1.9
				C113.9,175.7,115,176.6,115.3,177.5z M110.1,179.9c1.3,0.2,2.4,0.1,3.3-0.5c0.9-0.5,1.2-1.2,0.8-1.9c-0.4-0.7-1.4-1.6-3-2.5
				c-1.6-0.9-3.1-1.5-4.3-1.8c-1.3-0.2-2.4-0.1-3.3,0.5c-0.9,0.5-1.2,1.1-0.8,1.9c0.4,0.7,1.4,1.6,3.1,2.5
				C107.5,179.1,108.9,179.7,110.1,179.9z M123.4,174.3l-0.6,0.4l-5.2,0.4l-0.1-0.6c2.6-0.2,4-0.3,4.1-0.3c0.1,0,0.3,0,0.4,0
				c-0.8-0.4-1.6-0.8-2.3-1.2l-7.9-4.6l0.7-0.4L123.4,174.3z M132.1,169.3l-0.6,0.4l-5.2,0.4l-0.1-0.6c2.6-0.2,4-0.3,4.1-0.3
				c0.1,0,0.3,0,0.4,0c-0.8-0.4-1.6-0.8-2.3-1.2l-7.9-4.6l0.7-0.4L132.1,169.3z M141.4,162.4c0.3,0.9-0.1,1.7-1.2,2.3
				c-1.2,0.7-2.5,0.9-4,0.7c-1.5-0.2-3.2-0.8-5.1-1.9c-1.9-1.1-3-2.1-3.3-2.9c-0.4-0.9,0-1.7,1.2-2.3c1.2-0.7,2.5-0.9,4-0.7
				c1.5,0.2,3.2,0.8,5.1,1.9C140,160.6,141.1,161.6,141.4,162.4z M136.3,164.9c1.3,0.2,2.4,0.1,3.3-0.5c0.9-0.5,1.2-1.2,0.8-1.9
				c-0.4-0.7-1.4-1.6-3-2.5c-1.6-0.9-3.1-1.5-4.3-1.8c-1.3-0.2-2.4-0.1-3.3,0.5c-0.9,0.5-1.2,1.1-0.8,1.9c0.4,0.7,1.4,1.6,3.1,2.5
				C133.6,164,135,164.6,136.3,164.9z M62.2,187.1c0.3,0.9-0.1,1.7-1.2,2.3c-1.2,0.7-2.5,0.9-4,0.7c-1.5-0.2-3.2-0.8-5.1-1.9
				c-1.9-1.1-3-2.1-3.3-2.9c-0.4-0.9,0-1.7,1.2-2.3c1.2-0.7,2.5-0.9,4-0.7c1.5,0.2,3.2,0.8,5.1,1.9
				C60.7,185.2,61.8,186.2,62.2,187.1z M57,189.5c1.3,0.2,2.4,0.1,3.3-0.5c0.9-0.5,1.2-1.2,0.8-1.9c-0.4-0.7-1.4-1.6-3-2.5
				c-1.6-0.9-3.1-1.5-4.3-1.8c-1.3-0.2-2.4-0.1-3.3,0.5c-0.9,0.5-1.2,1.1-0.8,1.9c0.4,0.7,1.4,1.6,3.1,2.5
				C54.3,188.7,55.7,189.2,57,189.5z M70.2,183.8l-0.6,0.4l-5.2,0.4l-0.1-0.6c2.6-0.2,4-0.3,4.1-0.3c0.1,0,0.3,0,0.4,0
				c-0.8-0.4-1.6-0.8-2.3-1.2l-7.9-4.6l0.7-0.4L70.2,183.8z M79.6,177c0.3,0.9-0.1,1.7-1.2,2.3c-1.2,0.7-2.5,0.9-4,0.7
				c-1.5-0.2-3.2-0.8-5.1-1.9c-1.9-1.1-3-2.1-3.3-2.9c-0.4-0.9,0-1.7,1.2-2.3c1.2-0.7,2.5-0.9,4-0.7c1.5,0.2,3.2,0.8,5.1,1.9
				C78.2,175.1,79.2,176.1,79.6,177z M74.4,179.4c1.3,0.2,2.4,0.1,3.3-0.5c0.9-0.5,1.2-1.2,0.8-1.9c-0.4-0.7-1.4-1.6-3-2.5
				c-1.6-0.9-3.1-1.5-4.3-1.8c-1.3-0.2-2.4-0.1-3.3,0.5c-0.9,0.5-1.2,1.1-0.8,1.9c0.4,0.7,1.4,1.6,3.1,2.5
				C71.7,178.6,73.2,179.2,74.4,179.4z M87.7,173.8l-0.6,0.4l-5.2,0.4l-0.1-0.6c2.6-0.2,4-0.3,4.1-0.3c0.1,0,0.3,0,0.4,0
				c-0.8-0.4-1.6-0.8-2.3-1.2l-7.9-4.6l0.7-0.4L87.7,173.8z M97,167c0.3,0.9-0.1,1.7-1.2,2.3c-1.2,0.7-2.5,0.9-4,0.7
				c-1.5-0.2-3.2-0.8-5.1-1.9c-1.9-1.1-3-2.1-3.3-2.9c-0.4-0.9,0-1.7,1.2-2.3c1.2-0.7,2.5-0.9,4-0.7c1.5,0.2,3.2,0.8,5.1,1.9
				C95.6,165.1,96.7,166.1,97,167z M91.8,169.4c1.3,0.2,2.4,0.1,3.3-0.5c0.9-0.5,1.2-1.2,0.8-1.9c-0.4-0.7-1.4-1.6-3-2.5
				c-1.6-0.9-3.1-1.5-4.3-1.8c-1.3-0.2-2.4-0.1-3.3,0.5c-0.9,0.5-1.2,1.1-0.8,1.9c0.4,0.7,1.4,1.6,3.1,2.5
				C89.1,168.5,90.6,169.1,91.8,169.4z M105.7,161.9c0.3,0.9-0.1,1.7-1.2,2.3c-1.2,0.7-2.5,0.9-4,0.7c-1.5-0.2-3.2-0.8-5.1-1.9
				c-1.9-1.1-3-2.1-3.3-2.9c-0.4-0.9,0-1.7,1.2-2.3c1.2-0.7,2.5-0.9,4-0.7c1.5,0.2,3.2,0.8,5.1,1.9
				C104.3,160.1,105.4,161,105.7,161.9z M100.5,164.3c1.3,0.2,2.4,0.1,3.3-0.5c0.9-0.5,1.2-1.2,0.8-1.9c-0.4-0.7-1.4-1.6-3-2.5
				c-1.6-0.9-3.1-1.5-4.3-1.8c-1.3-0.2-2.4-0.1-3.3,0.5c-0.9,0.5-1.2,1.1-0.8,1.9c0.4,0.7,1.4,1.6,3.1,2.5
				C97.9,163.5,99.3,164.1,100.5,164.3z M113.8,158.7l-0.6,0.4l-5.2,0.4l-0.1-0.6c2.6-0.2,4-0.3,4.1-0.3c0.1,0,0.3,0,0.4,0
				c-0.8-0.4-1.6-0.8-2.3-1.2l-7.9-4.6l0.7-0.4L113.8,158.7z M123.1,151.9c0.3,0.9-0.1,1.7-1.2,2.3c-1.2,0.7-2.5,0.9-4,0.7
				c-1.5-0.2-3.2-0.8-5.1-1.9c-1.9-1.1-3-2.1-3.3-2.9c-0.4-0.9,0-1.7,1.2-2.3c1.2-0.7,2.5-0.9,4-0.7c1.5,0.2,3.2,0.8,5.1,1.9
				C121.7,150,122.8,151,123.1,151.9z M118,154.3c1.3,0.2,2.4,0.1,3.3-0.5c0.9-0.5,1.2-1.2,0.8-1.9c-0.4-0.7-1.4-1.6-3-2.5
				c-1.6-0.9-3.1-1.5-4.3-1.8c-1.3-0.2-2.4-0.1-3.3,0.5c-0.9,0.5-1.2,1.1-0.8,1.9c0.4,0.7,1.4,1.6,3.1,2.5
				C115.3,153.5,116.7,154,118,154.3z M43.2,178.3l-0.6,0.4l-5.2,0.4l-0.1-0.6c2.6-0.2,4-0.3,4.1-0.3c0.1,0,0.3,0,0.4,0
				c-0.8-0.4-1.6-0.8-2.3-1.2l-7.9-4.6l0.7-0.4L43.2,178.3z M52.6,171.5c0.3,0.9-0.1,1.7-1.2,2.3c-1.2,0.7-2.5,0.9-4,0.7
				c-1.5-0.2-3.2-0.8-5.1-1.9c-1.9-1.1-3-2.1-3.3-2.9c-0.4-0.9,0-1.7,1.2-2.3c1.2-0.7,2.5-0.9,4-0.7c1.5,0.2,3.2,0.8,5.1,1.9
				C51.1,169.6,52.2,170.6,52.6,171.5z M47.4,173.9c1.3,0.2,2.4,0.1,3.3-0.5c0.9-0.5,1.2-1.2,0.8-1.9c-0.4-0.7-1.4-1.6-3-2.5
				c-1.6-0.9-3.1-1.5-4.3-1.8c-1.3-0.2-2.4-0.1-3.3,0.5c-0.9,0.5-1.2,1.1-0.8,1.9c0.4,0.7,1.4,1.6,3.1,2.5
				C44.7,173.1,46.2,173.6,47.4,173.9z M60.7,168.3l-0.6,0.4l-5.2,0.4l-0.1-0.6c2.6-0.2,4-0.3,4.1-0.3c0.1,0,0.3,0,0.4,0
				c-0.8-0.4-1.6-0.8-2.3-1.2l-7.9-4.6l0.7-0.4L60.7,168.3z M70,161.4c0.3,0.9-0.1,1.7-1.2,2.3c-1.2,0.7-2.5,0.9-4,0.7
				c-1.5-0.2-3.2-0.8-5.1-1.9c-1.9-1.1-3-2.1-3.3-2.9c-0.4-0.9,0-1.7,1.2-2.3c1.2-0.7,2.5-0.9,4-0.7c1.5,0.2,3.2,0.8,5.1,1.9
				C68.6,159.6,69.6,160.5,70,161.4z M64.8,163.8c1.3,0.2,2.4,0.1,3.3-0.5c0.9-0.5,1.2-1.2,0.8-1.9c-0.4-0.7-1.4-1.6-3-2.5
				c-1.6-0.9-3.1-1.5-4.3-1.8c-1.3-0.2-2.4-0.1-3.3,0.5c-0.9,0.5-1.2,1.1-0.8,1.9c0.4,0.7,1.4,1.6,3.1,2.5
				C62.1,163,63.6,163.6,64.8,163.8z M78.1,158.2l-0.6,0.4l-5.2,0.4l-0.1-0.6c2.6-0.2,4-0.3,4.1-0.3c0.1,0,0.3,0,0.4,0
				c-0.8-0.4-1.6-0.8-2.3-1.2l-7.9-4.6l0.7-0.4L78.1,158.2z M87.4,151.4c0.3,0.9-0.1,1.7-1.2,2.3c-1.2,0.7-2.5,0.9-4,0.7
				c-1.5-0.2-3.2-0.8-5.1-1.9c-1.9-1.1-3-2.1-3.3-2.9c-0.4-0.9,0-1.7,1.2-2.3c1.2-0.7,2.5-0.9,4-0.7c1.5,0.2,3.2,0.8,5.1,1.9
				C86,149.5,87.1,150.5,87.4,151.4z M82.2,153.8c1.3,0.2,2.4,0.1,3.3-0.5c0.9-0.5,1.2-1.2,0.8-1.9c-0.4-0.7-1.4-1.6-3-2.5
				c-1.6-0.9-3.1-1.5-4.3-1.8c-1.3-0.2-2.4-0.1-3.3,0.5c-0.9,0.5-1.2,1.1-0.8,1.9c0.4,0.7,1.4,1.6,3.1,2.5
				C79.5,152.9,81,153.5,82.2,153.8z M95.5,148.1l-0.6,0.4l-5.2,0.4l-0.1-0.6c2.6-0.2,4-0.3,4.1-0.3c0.1,0,0.3,0,0.4,0
				c-0.8-0.4-1.6-0.8-2.3-1.2l-7.9-4.6l0.7-0.4L95.5,148.1z M104.8,141.3c0.3,0.9-0.1,1.7-1.2,2.3c-1.2,0.7-2.5,0.9-4,0.7
				c-1.5-0.2-3.2-0.8-5.1-1.9c-1.9-1.1-3-2.1-3.3-2.9c-0.4-0.9,0-1.7,1.2-2.3c1.2-0.7,2.5-0.9,4-0.7c1.5,0.2,3.2,0.8,5.1,1.9
				C103.4,139.4,104.5,140.4,104.8,141.3z M99.7,143.7c1.3,0.2,2.4,0.1,3.3-0.5c0.9-0.5,1.2-1.2,0.8-1.9c-0.4-0.7-1.4-1.6-3-2.5
				c-1.6-0.9-3.1-1.5-4.3-1.8c-1.3-0.2-2.4-0.1-3.3,0.5c-0.9,0.5-1.2,1.1-0.8,1.9c0.4,0.7,1.4,1.6,3.1,2.5
				C97,142.9,98.4,143.5,99.7,143.7z M24.9,167.7l-0.6,0.4l-5.2,0.4L19,168c2.6-0.2,4-0.3,4.1-0.3c0.1,0,0.3,0,0.4,0
				c-0.8-0.4-1.6-0.8-2.3-1.2l-7.9-4.6l0.7-0.4L24.9,167.7z M34.3,160.9c0.3,0.9-0.1,1.7-1.2,2.3c-1.2,0.7-2.5,0.9-4,0.7
				c-1.5-0.2-3.2-0.8-5.1-1.9c-1.9-1.1-3-2.1-3.3-2.9c-0.4-0.9,0-1.7,1.2-2.3c1.2-0.7,2.5-0.9,4-0.7c1.5,0.2,3.2,0.8,5.1,1.9
				C32.8,159,33.9,160,34.3,160.9z M29.1,163.3c1.3,0.2,2.4,0.1,3.3-0.5c0.9-0.5,1.2-1.2,0.8-1.9c-0.4-0.7-1.4-1.6-3-2.5
				c-1.6-0.9-3.1-1.5-4.3-1.8c-1.3-0.2-2.4-0.1-3.3,0.5c-0.9,0.5-1.2,1.1-0.8,1.9c0.4,0.7,1.4,1.6,3.1,2.5
				C26.4,162.5,27.8,163.1,29.1,163.3z M42.3,157.7l-0.6,0.4l-5.2,0.4l-0.1-0.6c2.6-0.2,4-0.3,4.1-0.3c0.1,0,0.3,0,0.4,0
				c-0.8-0.4-1.6-0.8-2.3-1.2l-7.9-4.6l0.7-0.4L42.3,157.7z M51.7,150.9c0.3,0.9-0.1,1.7-1.2,2.3c-1.2,0.7-2.5,0.9-4,0.7
				c-1.5-0.2-3.2-0.8-5.1-1.9c-1.9-1.1-3-2.1-3.3-2.9c-0.4-0.9,0-1.7,1.2-2.3c1.2-0.7,2.5-0.9,4-0.7c1.5,0.2,3.2,0.8,5.1,1.9
				C50.2,149,51.3,150,51.7,150.9z M46.5,153.3c1.3,0.2,2.4,0.1,3.3-0.5c0.9-0.5,1.2-1.2,0.8-1.9c-0.4-0.7-1.4-1.6-3-2.5
				c-1.6-0.9-3.1-1.5-4.3-1.8c-1.3-0.2-2.4-0.1-3.3,0.5c-0.9,0.5-1.2,1.1-0.8,1.9c0.4,0.7,1.4,1.6,3.1,2.5
				C43.8,152.4,45.3,153,46.5,153.3z M59.8,147.6l-0.6,0.4l-5.2,0.4l-0.1-0.6c2.6-0.2,4-0.3,4.1-0.3c0.1,0,0.3,0,0.4,0
				c-0.8-0.4-1.6-0.8-2.3-1.2l-7.9-4.6l0.7-0.4L59.8,147.6z M69.1,140.8c0.3,0.9-0.1,1.7-1.2,2.3c-1.2,0.7-2.5,0.9-4,0.7
				c-1.5-0.2-3.2-0.8-5.1-1.9c-1.9-1.1-3-2.1-3.3-2.9c-0.4-0.9,0-1.7,1.2-2.3c1.2-0.7,2.5-0.9,4-0.7c1.5,0.2,3.2,0.8,5.1,1.9
				C67.7,138.9,68.8,139.9,69.1,140.8z M63.9,143.2c1.3,0.2,2.4,0.1,3.3-0.5c0.9-0.5,1.2-1.2,0.8-1.9c-0.4-0.7-1.4-1.6-3-2.5
				c-1.6-0.9-3.1-1.5-4.3-1.8c-1.3-0.2-2.4-0.1-3.3,0.5c-0.9,0.5-1.2,1.1-0.8,1.9c0.4,0.7,1.4,1.6,3.1,2.5
				C61.2,142.4,62.7,143,63.9,143.2z M86.5,130.7c0.3,0.9-0.1,1.7-1.2,2.3c-1.2,0.7-2.5,0.9-4,0.7c-1.5-0.2-3.2-0.8-5.1-1.9
				c-1.9-1.1-3-2.1-3.3-2.9c-0.4-0.9,0-1.7,1.2-2.3c1.2-0.7,2.5-0.9,4-0.7c1.5,0.2,3.2,0.8,5.1,1.9
				C85.1,128.9,86.2,129.9,86.5,130.7z M81.3,133.1c1.3,0.2,2.4,0.1,3.3-0.5c0.9-0.5,1.2-1.2,0.8-1.9c-0.4-0.7-1.4-1.6-3-2.5
				c-1.6-0.9-3.1-1.5-4.3-1.8c-1.3-0.2-2.4-0.1-3.3,0.5c-0.9,0.5-1.2,1.1-0.8,1.9c0.4,0.7,1.4,1.6,3.1,2.5
				C78.7,132.3,80.1,132.9,81.3,133.1z M24.7,145.3c0.3,0.9-0.1,1.7-1.2,2.3c-1.2,0.7-2.5,0.9-4,0.7c-1.5-0.2-3.2-0.8-5.1-1.9
				c-1.9-1.1-3-2.1-3.3-2.9c-0.4-0.9,0-1.7,1.2-2.3c1.2-0.7,2.5-0.9,4-0.7c1.5,0.2,3.2,0.8,5.1,1.9
				C23.2,143.4,24.3,144.4,24.7,145.3z M19.5,147.7c1.3,0.2,2.4,0.1,3.3-0.5s1.2-1.2,0.8-1.9c-0.4-0.7-1.4-1.6-3-2.5
				c-1.6-0.9-3.1-1.5-4.3-1.8c-1.3-0.2-2.4-0.1-3.3,0.5c-0.9,0.5-1.2,1.1-0.8,1.9c0.4,0.7,1.4,1.6,3.1,2.5
				C16.8,146.9,18.2,147.5,19.5,147.7z M32.7,142.1l-0.6,0.4l-5.2,0.4l-0.1-0.6c2.6-0.2,4-0.3,4.1-0.3c0.1,0,0.3,0,0.4,0
				c-0.8-0.4-1.6-0.8-2.3-1.2l-7.9-4.6l0.7-0.4L32.7,142.1z M41.5,137.1l-0.6,0.4l-5.2,0.4l-0.1-0.6c2.6-0.2,4-0.3,4.1-0.3
				c0.1,0,0.3,0,0.4,0c-0.8-0.4-1.6-0.8-2.3-1.2l-7.9-4.6l0.7-0.4L41.5,137.1z M50.2,132l-0.6,0.4l-5.2,0.4l-0.1-0.6
				c2.6-0.2,4-0.3,4.1-0.3c0.1,0,0.3,0,0.4,0c-0.8-0.4-1.6-0.8-2.3-1.2l-7.9-4.6l0.7-0.4L50.2,132z M67.6,122l-0.6,0.4l-5.2,0.4
				l-0.1-0.6c2.6-0.2,4-0.3,4.1-0.3c0.1,0,0.3,0,0.4,0c-0.8-0.4-1.6-0.8-2.3-1.2l-7.9-4.6l0.7-0.4L67.6,122z M15.1,129.7
				c0.3,0.9-0.1,1.7-1.2,2.3c-1.2,0.7-2.5,0.9-4,0.7c-1.5-0.2-3.2-0.8-5.1-1.9c-1.9-1.1-3-2.1-3.3-2.9c-0.4-0.9,0-1.7,1.2-2.3
				c1.2-0.7,2.5-0.9,4-0.7c1.5,0.2,3.2,0.8,5.1,1.9C13.6,127.8,14.7,128.8,15.1,129.7z M9.9,132.1c1.3,0.2,2.4,0.1,3.3-0.5
				s1.2-1.2,0.8-1.9c-0.4-0.7-1.4-1.6-3-2.5c-1.6-0.9-3.1-1.5-4.3-1.8c-1.3-0.2-2.4-0.1-3.3,0.5c-0.9,0.5-1.2,1.1-0.8,1.9
				c0.4,0.7,1.4,1.6,3.1,2.5C7.2,131.3,8.6,131.9,9.9,132.1z M32.5,119.7c0.3,0.9-0.1,1.7-1.2,2.3c-1.2,0.7-2.5,0.9-4,0.7
				c-1.5-0.2-3.2-0.8-5.1-1.9c-1.9-1.1-3-2.1-3.3-2.9c-0.4-0.9,0-1.7,1.2-2.3c1.2-0.7,2.5-0.9,4-0.7c1.5,0.2,3.2,0.8,5.1,1.9
				C31.1,117.8,32.1,118.8,32.5,119.7z M27.3,122.1c1.3,0.2,2.4,0.1,3.3-0.5c0.9-0.5,1.2-1.2,0.8-1.9c-0.4-0.7-1.4-1.6-3-2.5
				c-1.6-0.9-3.1-1.5-4.3-1.8c-1.3-0.2-2.4-0.1-3.3,0.5c-0.9,0.5-1.2,1.1-0.8,1.9c0.4,0.7,1.4,1.6,3.1,2.5
				C24.6,121.2,26.1,121.8,27.3,122.1z M13.6,110.9l-0.6,0.4l-5.2,0.4l-0.1-0.6c2.6-0.2,4-0.3,4.1-0.3c0.1,0,0.3,0,0.4,0
				c-0.8-0.4-1.6-0.8-2.3-1.2L1.9,105l0.7-0.4L13.6,110.9z M208.1,198.1l-0.6-0.4l-0.7-3l1-0.1c0.3,1.5,0.5,2.3,0.5,2.4
				c0,0.1,0,0.2,0,0.3c0.7-0.5,1.4-0.9,2.2-1.3l7.9-4.6l0.7,0.4L208.1,198.1z M219.9,203.5c-1.5,0.2-2.9,0-4-0.7
				c-1.2-0.7-1.6-1.4-1.2-2.3c0.3-0.9,1.5-1.8,3.4-2.9c1.9-1.1,3.6-1.7,5.1-1.9c1.5-0.2,2.9,0,4,0.7c1.2,0.7,1.6,1.5,1.3,2.3
				c-0.3,0.9-1.5,1.9-3.4,3C223.2,202.7,221.5,203.3,219.9,203.5z M215.8,200.5c-0.4,0.7-0.1,1.4,0.8,1.9s2,0.7,3.3,0.5
				c1.3-0.2,2.7-0.8,4.3-1.7c1.6-0.9,2.7-1.8,3.1-2.5c0.4-0.7,0.1-1.4-0.8-1.9c-0.9-0.5-2-0.7-3.2-0.5c-1.2,0.2-2.7,0.8-4.4,1.8
				C217.2,198.9,216.2,199.8,215.8,200.5z M225.5,208.1l-0.6-0.4l-0.7-3l1-0.1c0.3,1.5,0.5,2.3,0.5,2.4c0,0.1,0,0.2,0,0.3
				c0.7-0.5,1.4-0.9,2.2-1.3l7.9-4.6l0.7,0.4L225.5,208.1z M237.3,213.5c-1.5,0.2-2.9,0-4-0.7c-1.2-0.7-1.6-1.4-1.2-2.3
				c0.3-0.9,1.5-1.8,3.4-2.9c1.9-1.1,3.6-1.7,5.1-1.9c1.5-0.2,2.9,0,4,0.7c1.2,0.7,1.6,1.5,1.3,2.3c-0.3,0.9-1.5,1.9-3.4,3
				C240.6,212.7,238.9,213.3,237.3,213.5z M233.2,210.6c-0.4,0.7-0.1,1.4,0.8,1.9c0.9,0.5,2,0.7,3.3,0.5c1.3-0.2,2.7-0.8,4.3-1.7
				c1.6-0.9,2.7-1.8,3.1-2.5c0.4-0.7,0.1-1.4-0.8-1.9c-0.9-0.5-2-0.7-3.2-0.5c-1.2,0.2-2.7,0.8-4.4,1.8
				C234.6,209,233.6,209.8,233.2,210.6z M242.9,218.2l-0.6-0.4l-0.7-3l1-0.1c0.3,1.5,0.5,2.3,0.5,2.4c0,0.1,0,0.2,0,0.3
				c0.7-0.5,1.4-0.9,2.2-1.3l7.9-4.6l0.7,0.4L242.9,218.2z M254.7,223.6c-1.5,0.2-2.9,0-4-0.7c-1.2-0.7-1.6-1.4-1.2-2.3
				c0.3-0.9,1.5-1.8,3.4-2.9c1.9-1.1,3.6-1.7,5.1-1.9c1.5-0.2,2.9,0,4,0.7c1.2,0.7,1.6,1.5,1.3,2.3c-0.3,0.9-1.5,1.9-3.4,3
				C258,222.8,256.3,223.4,254.7,223.6z M250.6,220.6c-0.4,0.7-0.1,1.4,0.8,1.9c0.9,0.5,2,0.7,3.3,0.5c1.3-0.2,2.7-0.8,4.3-1.7
				c1.6-0.9,2.7-1.8,3.1-2.5c0.4-0.7,0.1-1.4-0.8-1.9c-0.9-0.5-2-0.7-3.2-0.5c-1.2,0.2-2.7,0.8-4.4,1.8
				C252,219.1,251,219.9,250.6,220.6z M260.3,228.3l-0.6-0.4l-0.7-3l1-0.1c0.3,1.5,0.5,2.3,0.5,2.4c0,0.1,0,0.2,0,0.3
				c0.7-0.5,1.4-0.9,2.2-1.3l7.9-4.6l0.7,0.4L260.3,228.3z M272.2,233.6c-1.5,0.2-2.9,0-4-0.7c-1.2-0.7-1.6-1.4-1.2-2.3
				c0.3-0.9,1.5-1.8,3.4-2.9c1.9-1.1,3.6-1.7,5.1-1.9c1.5-0.2,2.9,0,4,0.7c1.2,0.7,1.6,1.5,1.3,2.3c-0.3,0.9-1.5,1.9-3.4,3
				C275.4,232.8,273.7,233.4,272.2,233.6z M268,230.7c-0.4,0.7-0.1,1.4,0.8,1.9c0.9,0.5,2,0.7,3.3,0.5c1.3-0.2,2.7-0.8,4.3-1.7
				c1.6-0.9,2.7-1.8,3.1-2.5c0.4-0.7,0.1-1.4-0.8-1.9c-0.9-0.5-2-0.7-3.2-0.5c-1.2,0.2-2.7,0.8-4.4,1.8
				C269.4,229.1,268.4,229.9,268,230.7z M226.4,187.5l-0.6-0.4l-0.7-3l1-0.1c0.3,1.5,0.5,2.3,0.5,2.4c0,0.1,0,0.2,0,0.3
				c0.7-0.5,1.4-0.9,2.2-1.3l7.9-4.6l0.7,0.4L226.4,187.5z M238.2,192.9c-1.5,0.2-2.9,0-4-0.7c-1.2-0.7-1.6-1.4-1.2-2.3
				c0.3-0.9,1.5-1.8,3.4-2.9c1.9-1.1,3.6-1.7,5.1-1.9c1.5-0.2,2.9,0,4,0.7c1.2,0.7,1.6,1.5,1.3,2.3c-0.3,0.9-1.5,1.9-3.4,3
				C241.5,192.1,239.8,192.7,238.2,192.9z M234.1,189.9c-0.4,0.7-0.1,1.4,0.8,1.9c0.9,0.5,2,0.7,3.3,0.5c1.3-0.2,2.7-0.8,4.3-1.7
				c1.6-0.9,2.7-1.8,3.1-2.5c0.4-0.7,0.1-1.4-0.8-1.9c-0.9-0.5-2-0.7-3.2-0.5c-1.2,0.2-2.7,0.8-4.4,1.8
				C235.5,188.4,234.5,189.2,234.1,189.9z M243.8,197.6l-0.6-0.4l-0.7-3l1-0.1c0.3,1.5,0.5,2.3,0.5,2.4c0,0.1,0,0.2,0,0.3
				c0.7-0.5,1.4-0.9,2.2-1.3l7.9-4.6l0.7,0.4L243.8,197.6z M255.6,203c-1.5,0.2-2.9,0-4-0.7c-1.2-0.7-1.6-1.4-1.2-2.3
				c0.3-0.9,1.5-1.8,3.4-2.9c1.9-1.1,3.6-1.7,5.1-1.9c1.5-0.2,2.9,0,4,0.7c1.2,0.7,1.6,1.5,1.3,2.3c-0.3,0.9-1.5,1.9-3.4,3
				C258.9,202.1,257.2,202.8,255.6,203z M251.5,200c-0.4,0.7-0.1,1.4,0.8,1.9c0.9,0.5,2,0.7,3.3,0.5c1.3-0.2,2.7-0.8,4.3-1.7
				c1.6-0.9,2.7-1.8,3.1-2.5c0.4-0.7,0.1-1.4-0.8-1.9c-0.9-0.5-2-0.7-3.2-0.5c-1.2,0.2-2.7,0.8-4.4,1.8
				C252.9,198.4,251.9,199.3,251.5,200z M261.2,207.6l-0.6-0.4l-0.7-3l1-0.1c0.3,1.5,0.5,2.3,0.5,2.4c0,0.1,0,0.2,0,0.3
				c0.7-0.5,1.4-0.9,2.2-1.3l7.9-4.6l0.7,0.4L261.2,207.6z M273.1,213c-1.5,0.2-2.9,0-4-0.7c-1.2-0.7-1.6-1.4-1.2-2.3
				c0.3-0.9,1.5-1.8,3.4-2.9c1.9-1.1,3.6-1.7,5.1-1.9c1.5-0.2,2.9,0,4,0.7c1.2,0.7,1.6,1.5,1.3,2.3c-0.3,0.9-1.5,1.9-3.4,3
				C276.3,212.2,274.6,212.8,273.1,213z M268.9,210c-0.4,0.7-0.1,1.4,0.8,1.9s2,0.7,3.3,0.5c1.3-0.2,2.7-0.8,4.3-1.7
				c1.6-0.9,2.7-1.8,3.1-2.5c0.4-0.7,0.1-1.4-0.8-1.9c-0.9-0.5-2-0.7-3.2-0.5c-1.2,0.2-2.7,0.8-4.4,1.8
				C270.3,208.5,269.3,209.3,268.9,210z M278.6,217.7l-0.6-0.4l-0.7-3l1-0.1c0.3,1.5,0.5,2.3,0.5,2.4c0,0.1,0,0.2,0,0.3
				c0.7-0.5,1.4-0.9,2.2-1.3l7.9-4.6l0.7,0.4L278.6,217.7z M287.3,222.7l-0.6-0.4l-0.7-3l1-0.1c0.3,1.5,0.5,2.3,0.5,2.4
				c0,0.1,0,0.2,0,0.3c0.7-0.5,1.4-0.9,2.2-1.3l7.9-4.6l0.7,0.4L287.3,222.7z M247.8,177.3c-1.5,0.2-2.9,0-4-0.7
				c-1.2-0.7-1.6-1.4-1.2-2.3c0.3-0.9,1.5-1.8,3.4-2.9c1.9-1.1,3.6-1.7,5.1-1.9c1.5-0.2,2.9,0,4,0.7c1.2,0.7,1.6,1.5,1.3,2.3
				c-0.3,0.9-1.5,1.9-3.4,3C251.1,176.5,249.4,177.1,247.8,177.3z M243.7,174.3c-0.4,0.7-0.1,1.4,0.8,1.9s2,0.7,3.3,0.5
				c1.3-0.2,2.7-0.8,4.3-1.7c1.6-0.9,2.7-1.8,3.1-2.5c0.4-0.7,0.1-1.4-0.8-1.9c-0.9-0.5-2-0.7-3.2-0.5c-1.2,0.2-2.7,0.8-4.4,1.8
				C245.1,172.8,244.1,173.6,243.7,174.3z M253.4,182l-0.6-0.4l-0.7-3l1-0.1c0.3,1.5,0.5,2.3,0.5,2.4c0,0.1,0,0.2,0,0.3
				c0.7-0.5,1.4-0.9,2.2-1.3l7.9-4.6l0.7,0.4L253.4,182z M262.1,187l-0.6-0.4l-0.7-3l1-0.1c0.3,1.5,0.5,2.3,0.5,2.4
				c0,0.1,0,0.2,0,0.3c0.7-0.5,1.4-0.9,2.2-1.3l7.9-4.6l0.7,0.4L262.1,187z M270.8,192l-0.6-0.4l-0.7-3l1-0.1
				c0.3,1.5,0.5,2.3,0.5,2.4c0,0.1,0,0.2,0,0.3c0.7-0.5,1.4-0.9,2.2-1.3l7.9-4.6l0.7,0.4L270.8,192z M282.7,197.4
				c-1.5,0.2-2.9,0-4-0.7c-1.2-0.7-1.6-1.4-1.2-2.3c0.3-0.9,1.5-1.8,3.4-2.9c1.9-1.1,3.6-1.7,5.1-1.9c1.5-0.2,2.9,0,4,0.7
				c1.2,0.7,1.6,1.5,1.3,2.3c-0.3,0.9-1.5,1.9-3.4,3C285.9,196.6,284.2,197.2,282.7,197.4z M278.5,194.4c-0.4,0.7-0.1,1.4,0.8,1.9
				s2,0.7,3.3,0.5c1.3-0.2,2.7-0.8,4.3-1.7c1.6-0.9,2.7-1.8,3.1-2.5c0.4-0.7,0.1-1.4-0.8-1.9c-0.9-0.5-2-0.7-3.2-0.5
				c-1.2,0.2-2.7,0.8-4.4,1.8C279.9,192.9,278.9,193.7,278.5,194.4z M288.2,202.1l-0.6-0.4l-0.7-3l1-0.1c0.3,1.5,0.5,2.3,0.5,2.4
				c0,0.1,0,0.2,0,0.3c0.7-0.5,1.4-0.9,2.2-1.3l7.9-4.6l0.7,0.4L288.2,202.1z M300.1,207.5c-1.5,0.2-2.9,0-4-0.7
				c-1.2-0.7-1.6-1.4-1.2-2.3c0.3-0.9,1.5-1.8,3.4-2.9c1.9-1.1,3.6-1.7,5.1-1.9c1.5-0.2,2.9,0,4,0.7c1.2,0.7,1.6,1.5,1.3,2.3
				c-0.3,0.9-1.5,1.9-3.4,3C303.3,206.7,301.6,207.3,300.1,207.5z M295.9,204.5c-0.4,0.7-0.1,1.4,0.8,1.9c0.9,0.5,2,0.7,3.3,0.5
				c1.3-0.2,2.7-0.8,4.3-1.7c1.6-0.9,2.7-1.8,3.1-2.5c0.4-0.7,0.1-1.4-0.8-1.9c-0.9-0.5-2-0.7-3.2-0.5c-1.2,0.2-2.7,0.8-4.4,1.8
				C297.3,202.9,296.3,203.8,295.9,204.5z M305.6,212.1l-0.6-0.4l-0.7-3l1-0.1c0.3,1.5,0.5,2.3,0.5,2.4c0,0.1,0,0.2,0,0.3
				c0.7-0.5,1.4-0.9,2.2-1.3l7.9-4.6l0.7,0.4L305.6,212.1z M266.1,166.7c-1.5,0.2-2.9,0-4-0.7c-1.2-0.7-1.6-1.4-1.2-2.3
				c0.3-0.9,1.5-1.8,3.4-2.9c1.9-1.1,3.6-1.7,5.1-1.9c1.5-0.2,2.9,0,4,0.7c1.2,0.7,1.6,1.5,1.3,2.3c-0.3,0.9-1.5,1.9-3.4,3
				C269.4,165.9,267.7,166.5,266.1,166.7z M262,163.8c-0.4,0.7-0.1,1.4,0.8,1.9c0.9,0.5,2,0.7,3.3,0.5c1.3-0.2,2.7-0.8,4.3-1.7
				c1.6-0.9,2.7-1.8,3.1-2.5c0.4-0.7,0.1-1.4-0.8-1.9c-0.9-0.5-2-0.7-3.2-0.5c-1.2,0.2-2.7,0.8-4.4,1.8
				C263.4,162.2,262.4,163,262,163.8z M274.8,171.8c-1.5,0.2-2.9,0-4-0.7c-1.2-0.7-1.6-1.4-1.2-2.3c0.3-0.9,1.5-1.8,3.4-2.9
				c1.9-1.1,3.6-1.7,5.1-1.9c1.5-0.2,2.9,0,4,0.7c1.2,0.7,1.6,1.5,1.3,2.3c-0.3,0.9-1.5,1.9-3.4,3
				C278.1,170.9,276.4,171.6,274.8,171.8z M270.7,168.8c-0.4,0.7-0.1,1.4,0.8,1.9c0.9,0.5,2,0.7,3.3,0.5c1.3-0.2,2.7-0.8,4.3-1.7
				c1.6-0.9,2.7-1.8,3.1-2.5c0.4-0.7,0.1-1.4-0.8-1.9c-0.9-0.5-2-0.7-3.2-0.5c-1.2,0.2-2.7,0.8-4.4,1.8
				C272.1,167.2,271.1,168.1,270.7,168.8z M280.4,176.4l-0.6-0.4l-0.7-3l1-0.1c0.3,1.5,0.5,2.3,0.5,2.4c0,0.1,0,0.2,0,0.3
				c0.7-0.5,1.4-0.9,2.2-1.3l7.9-4.6l0.7,0.4L280.4,176.4z M289.1,181.5l-0.6-0.4l-0.7-3l1-0.1c0.3,1.5,0.5,2.3,0.5,2.4
				c0,0.1,0,0.2,0,0.3c0.7-0.5,1.4-0.9,2.2-1.3l7.9-4.6l0.7,0.4L289.1,181.5z M301,186.9c-1.5,0.2-2.9,0-4-0.7
				c-1.2-0.7-1.6-1.4-1.2-2.3c0.3-0.9,1.5-1.8,3.4-2.9c1.9-1.1,3.6-1.7,5.1-1.9c1.5-0.2,2.9,0,4,0.7c1.2,0.7,1.6,1.5,1.3,2.3
				c-0.3,0.9-1.5,1.9-3.4,3C304.2,186,302.5,186.7,301,186.9z M296.8,183.9c-0.4,0.7-0.1,1.4,0.8,1.9s2,0.7,3.3,0.5
				c1.3-0.2,2.7-0.8,4.3-1.7c1.6-0.9,2.7-1.8,3.1-2.5c0.4-0.7,0.1-1.4-0.8-1.9c-0.9-0.5-2-0.7-3.2-0.5c-1.2,0.2-2.7,0.8-4.4,1.8
				C298.2,182.3,297.2,183.1,296.8,183.9z M306.5,191.5l-0.6-0.4l-0.7-3l1-0.1c0.3,1.5,0.5,2.3,0.5,2.4c0,0.1,0,0.2,0,0.3
				c0.7-0.5,1.4-0.9,2.2-1.3l7.9-4.6l0.7,0.4L306.5,191.5z M318.4,196.9c-1.5,0.2-2.9,0-4-0.7c-1.2-0.7-1.6-1.4-1.2-2.3
				c0.3-0.9,1.5-1.8,3.4-2.9c1.9-1.1,3.6-1.7,5.1-1.9c1.5-0.2,2.9,0,4,0.7c1.2,0.7,1.6,1.5,1.3,2.3c-0.3,0.9-1.5,1.9-3.4,3
				C321.6,196.1,319.9,196.7,318.4,196.9z M314.2,193.9c-0.4,0.7-0.1,1.4,0.8,1.9c0.9,0.5,2,0.7,3.3,0.5c1.3-0.2,2.7-0.8,4.3-1.7
				c1.6-0.9,2.7-1.8,3.1-2.5c0.4-0.7,0.1-1.4-0.8-1.9c-0.9-0.5-2-0.7-3.2-0.5c-1.2,0.2-2.7,0.8-4.4,1.8
				C315.6,192.4,314.6,193.2,314.2,193.9z M327.1,201.9c-1.5,0.2-2.9,0-4-0.7c-1.2-0.7-1.6-1.4-1.2-2.3c0.3-0.9,1.5-1.8,3.4-2.9
				c1.9-1.1,3.6-1.7,5.1-1.9c1.5-0.2,2.9,0,4,0.7c1.2,0.7,1.6,1.5,1.3,2.3c-0.3,0.9-1.5,1.9-3.4,3
				C330.3,201.1,328.6,201.7,327.1,201.9z M322.9,199c-0.4,0.7-0.1,1.4,0.8,1.9s2,0.7,3.3,0.5c1.3-0.2,2.7-0.8,4.3-1.7
				c1.6-0.9,2.7-1.8,3.1-2.5c0.4-0.7,0.1-1.4-0.8-1.9c-0.9-0.5-2-0.7-3.2-0.5c-1.2,0.2-2.7,0.8-4.4,1.8
				C324.3,197.4,323.3,198.2,322.9,199z M281.3,155.8l-0.6-0.4l-0.7-3l1-0.1c0.3,1.5,0.5,2.3,0.5,2.4c0,0.1,0,0.2,0,0.3
				c0.7-0.5,1.4-0.9,2.2-1.3l7.9-4.6l0.7,0.4L281.3,155.8z M293.1,161.2c-1.5,0.2-2.9,0-4-0.7c-1.2-0.7-1.6-1.4-1.2-2.3
				c0.3-0.9,1.5-1.8,3.4-2.9c1.9-1.1,3.6-1.7,5.1-1.9c1.5-0.2,2.9,0,4,0.7c1.2,0.7,1.6,1.5,1.3,2.3c-0.3,0.9-1.5,1.9-3.4,3
				C296.4,160.4,294.7,161,293.1,161.2z M289,158.2c-0.4,0.7-0.1,1.4,0.8,1.9s2,0.7,3.3,0.5c1.3-0.2,2.7-0.8,4.3-1.7
				c1.6-0.9,2.7-1.8,3.1-2.5c0.4-0.7,0.1-1.4-0.8-1.9c-0.9-0.5-2-0.7-3.2-0.5s-2.7,0.8-4.4,1.8C290.4,156.7,289.4,157.5,289,158.2z
				 M301.8,166.2c-1.5,0.2-2.9,0-4-0.7c-1.2-0.7-1.6-1.4-1.2-2.3c0.3-0.9,1.5-1.8,3.4-2.9c1.9-1.1,3.6-1.7,5.1-1.9
				c1.5-0.2,2.9,0,4,0.7c1.2,0.7,1.6,1.5,1.3,2.3c-0.3,0.9-1.5,1.9-3.4,3C305.1,165.4,303.4,166,301.8,166.2z M297.7,163.3
				c-0.4,0.7-0.1,1.4,0.8,1.9c0.9,0.5,2,0.7,3.3,0.5c1.3-0.2,2.7-0.8,4.3-1.7c1.6-0.9,2.7-1.8,3.1-2.5c0.4-0.7,0.1-1.4-0.8-1.9
				c-0.9-0.5-2-0.7-3.2-0.5c-1.2,0.2-2.7,0.8-4.4,1.8C299.1,161.7,298.1,162.5,297.7,163.3z M307.4,170.9l-0.6-0.4l-0.7-3l1-0.1
				c0.3,1.5,0.5,2.3,0.5,2.4c0,0.1,0,0.2,0,0.3c0.7-0.5,1.4-0.9,2.2-1.3l7.9-4.6l0.7,0.4L307.4,170.9z M319.3,176.3
				c-1.5,0.2-2.9,0-4-0.7c-1.2-0.7-1.6-1.4-1.2-2.3c0.3-0.9,1.5-1.8,3.4-2.9c1.9-1.1,3.6-1.7,5.1-1.9c1.5-0.2,2.9,0,4,0.7
				c1.2,0.7,1.6,1.5,1.3,2.3c-0.3,0.9-1.5,1.9-3.4,3C322.5,175.5,320.8,176.1,319.3,176.3z M315.1,173.3c-0.4,0.7-0.1,1.4,0.8,1.9
				c0.9,0.5,2,0.7,3.3,0.5c1.3-0.2,2.7-0.8,4.3-1.7c1.6-0.9,2.7-1.8,3.1-2.5c0.4-0.7,0.1-1.4-0.8-1.9c-0.9-0.5-2-0.7-3.2-0.5
				c-1.2,0.2-2.7,0.8-4.4,1.8C316.5,171.8,315.5,172.6,315.1,173.3z M324.8,181l-0.6-0.4l-0.7-3l1-0.1c0.3,1.5,0.5,2.3,0.5,2.4
				c0,0.1,0,0.2,0,0.3c0.7-0.5,1.4-0.9,2.2-1.3l7.9-4.6l0.7,0.4L324.8,181z M336.7,186.3c-1.5,0.2-2.9,0-4-0.7
				c-1.2-0.7-1.6-1.4-1.2-2.3c0.3-0.9,1.5-1.8,3.4-2.9c1.9-1.1,3.6-1.7,5.1-1.9c1.5-0.2,2.9,0,4,0.7c1.2,0.7,1.6,1.5,1.3,2.3
				c-0.3,0.9-1.5,1.9-3.4,3C339.9,185.5,338.2,186.1,336.7,186.3z M332.5,183.4c-0.4,0.7-0.1,1.4,0.8,1.9s2,0.7,3.3,0.5
				c1.3-0.2,2.7-0.8,4.3-1.7c1.6-0.9,2.7-1.8,3.1-2.5c0.4-0.7,0.1-1.4-0.8-1.9c-0.9-0.5-2-0.7-3.2-0.5c-1.2,0.2-2.7,0.8-4.4,1.8
				C333.9,181.8,332.9,182.6,332.5,183.4z M302.7,145.6c-1.5,0.2-2.9,0-4-0.7c-1.2-0.7-1.6-1.4-1.2-2.3c0.3-0.9,1.5-1.8,3.4-2.9
				c1.9-1.1,3.6-1.7,5.1-1.9c1.5-0.2,2.9,0,4,0.7c1.2,0.7,1.6,1.5,1.3,2.3c-0.3,0.9-1.5,1.9-3.4,3
				C306,144.8,304.3,145.4,302.7,145.6z M298.6,142.6c-0.4,0.7-0.1,1.4,0.8,1.9c0.9,0.5,2,0.7,3.3,0.5c1.3-0.2,2.7-0.8,4.3-1.7
				c1.6-0.9,2.7-1.8,3.1-2.5c0.4-0.7,0.1-1.4-0.8-1.9c-0.9-0.5-2-0.7-3.2-0.5c-1.2,0.2-2.7,0.8-4.4,1.8
				C300,141.1,299,141.9,298.6,142.6z M308.3,150.3l-0.6-0.4l-0.7-3l1-0.1c0.3,1.5,0.5,2.3,0.5,2.4c0,0.1,0,0.2,0,0.3
				c0.7-0.5,1.4-0.9,2.2-1.3l7.9-4.6l0.7,0.4L308.3,150.3z M320.2,155.7c-1.5,0.2-2.9,0-4-0.7c-1.2-0.7-1.6-1.4-1.2-2.3
				c0.3-0.9,1.5-1.8,3.4-2.9c1.9-1.1,3.6-1.7,5.1-1.9c1.5-0.2,2.9,0,4,0.7c1.2,0.7,1.6,1.5,1.3,2.3c-0.3,0.9-1.5,1.9-3.4,3
				C323.4,154.8,321.7,155.5,320.2,155.7z M316,152.7c-0.4,0.7-0.1,1.4,0.8,1.9c0.9,0.5,2,0.7,3.3,0.5c1.3-0.2,2.7-0.8,4.3-1.7
				c1.6-0.9,2.7-1.8,3.1-2.5c0.4-0.7,0.1-1.4-0.8-1.9c-0.9-0.5-2-0.7-3.2-0.5c-1.2,0.2-2.7,0.8-4.4,1.8
				C317.4,151.1,316.4,152,316,152.7z M325.7,160.3l-0.6-0.4l-0.7-3l1-0.1c0.3,1.5,0.5,2.3,0.5,2.4c0,0.1,0,0.2,0,0.3
				c0.7-0.5,1.4-0.9,2.2-1.3l7.9-4.6l0.7,0.4L325.7,160.3z M337.6,165.7c-1.5,0.2-2.9,0-4-0.7c-1.2-0.7-1.6-1.4-1.2-2.3
				c0.3-0.9,1.5-1.8,3.4-2.9c1.9-1.1,3.6-1.7,5.1-1.9c1.5-0.2,2.9,0,4,0.7c1.2,0.7,1.6,1.5,1.3,2.3c-0.3,0.9-1.5,1.9-3.4,3
				C340.8,164.9,339.1,165.5,337.6,165.7z M333.4,162.7c-0.4,0.7-0.1,1.4,0.8,1.9c0.9,0.5,2,0.7,3.3,0.5c1.3-0.2,2.7-0.8,4.3-1.7
				c1.6-0.9,2.7-1.8,3.1-2.5c0.4-0.7,0.1-1.4-0.8-1.9c-0.9-0.5-2-0.7-3.2-0.5c-1.2,0.2-2.7,0.8-4.4,1.8
				C334.8,161.2,333.8,162,333.4,162.7z M343.2,170.4l-0.6-0.4l-0.7-3l1-0.1c0.3,1.5,0.5,2.3,0.5,2.4c0,0.1,0,0.2,0,0.3
				c0.7-0.5,1.4-0.9,2.2-1.3l7.9-4.6l0.7,0.4L343.2,170.4z M355,175.8c-1.5,0.2-2.9,0-4-0.7c-1.2-0.7-1.6-1.4-1.2-2.3
				c0.3-0.9,1.5-1.8,3.4-2.9c1.9-1.1,3.6-1.7,5.1-1.9c1.5-0.2,2.9,0,4,0.7c1.2,0.7,1.6,1.5,1.3,2.3c-0.3,0.9-1.5,1.9-3.4,3
				C358.2,174.9,356.5,175.6,355,175.8z M350.8,172.8c-0.4,0.7-0.1,1.4,0.8,1.9s2,0.7,3.3,0.5s2.7-0.8,4.3-1.7
				c1.6-0.9,2.7-1.8,3.1-2.5c0.4-0.7,0.1-1.4-0.8-1.9c-0.9-0.5-2-0.7-3.2-0.5c-1.2,0.2-2.7,0.8-4.4,1.8
				C352.2,171.2,351.2,172.1,350.8,172.8z M321,135c-1.5,0.2-2.9,0-4-0.7c-1.2-0.7-1.6-1.4-1.2-2.3c0.3-0.9,1.5-1.8,3.4-2.9
				c1.9-1.1,3.6-1.7,5.1-1.9c1.5-0.2,2.9,0,4,0.7c1.2,0.7,1.6,1.5,1.3,2.3c-0.3,0.9-1.5,1.9-3.4,3C324.3,134.2,322.6,134.8,321,135z
				 M316.9,132.1c-0.4,0.7-0.1,1.4,0.8,1.9c0.9,0.5,2,0.7,3.3,0.5c1.3-0.2,2.7-0.8,4.3-1.7c1.6-0.9,2.7-1.8,3.1-2.5s0.1-1.4-0.8-1.9
				c-0.9-0.5-2-0.7-3.2-0.5c-1.2,0.2-2.7,0.8-4.4,1.8C318.3,130.5,317.3,131.3,316.9,132.1z M326.6,139.7l-0.6-0.4l-0.7-3l1-0.1
				c0.3,1.5,0.5,2.3,0.5,2.4c0,0.1,0,0.2,0,0.3c0.7-0.5,1.4-0.9,2.2-1.3l7.9-4.6l0.7,0.4L326.6,139.7z M338.5,145.1
				c-1.5,0.2-2.9,0-4-0.7c-1.2-0.7-1.6-1.4-1.2-2.3c0.3-0.9,1.5-1.8,3.4-2.9c1.9-1.1,3.6-1.7,5.1-1.9c1.5-0.2,2.9,0,4,0.7
				c1.2,0.7,1.6,1.5,1.3,2.3c-0.3,0.9-1.5,1.9-3.4,3C341.7,144.3,340,144.9,338.5,145.1z M334.3,142.1c-0.4,0.7-0.1,1.4,0.8,1.9
				s2,0.7,3.3,0.5c1.3-0.2,2.7-0.8,4.3-1.7c1.6-0.9,2.7-1.8,3.1-2.5c0.4-0.7,0.1-1.4-0.8-1.9c-0.9-0.5-2-0.7-3.2-0.5
				c-1.2,0.2-2.7,0.8-4.4,1.8C335.7,140.6,334.7,141.4,334.3,142.1z M344,149.8l-0.6-0.4l-0.7-3l1-0.1c0.3,1.5,0.5,2.3,0.5,2.4
				c0,0.1,0,0.2,0,0.3c0.7-0.5,1.4-0.9,2.2-1.3l7.9-4.6l0.7,0.4L344,149.8z M355.9,155.2c-1.5,0.2-2.9,0-4-0.7
				c-1.2-0.7-1.6-1.4-1.2-2.3c0.3-0.9,1.5-1.8,3.4-2.9c1.9-1.1,3.6-1.7,5.1-1.9c1.5-0.2,2.9,0,4,0.7c1.2,0.7,1.6,1.5,1.3,2.3
				c-0.3,0.9-1.5,1.9-3.4,3C359.1,154.3,357.4,155,355.9,155.2z M351.7,152.2c-0.4,0.7-0.1,1.4,0.8,1.9c0.9,0.5,2,0.7,3.3,0.5
				c1.3-0.2,2.7-0.8,4.3-1.7c1.6-0.9,2.7-1.8,3.1-2.5c0.4-0.7,0.1-1.4-0.8-1.9c-0.9-0.5-2-0.7-3.2-0.5c-1.2,0.2-2.7,0.8-4.4,1.8
				C353.1,150.6,352.1,151.4,351.7,152.2z M361.5,159.8l-0.6-0.4l-0.7-3l1-0.1c0.3,1.5,0.5,2.3,0.5,2.4c0,0.1,0,0.2,0,0.3
				c0.7-0.5,1.4-0.9,2.2-1.3l7.9-4.6l0.7,0.4L361.5,159.8z M336.2,124.1l-0.6-0.4l-0.7-3l1-0.1c0.3,1.5,0.5,2.3,0.5,2.4
				c0,0.1,0,0.2,0,0.3c0.7-0.5,1.4-0.9,2.2-1.3l7.9-4.6l0.7,0.4L336.2,124.1z M353.6,134.2l-0.6-0.4l-0.7-3l1-0.1
				c0.3,1.5,0.5,2.3,0.5,2.4c0,0.1,0,0.2,0,0.3c0.7-0.5,1.4-0.9,2.2-1.3l7.9-4.6l0.7,0.4L353.6,134.2z M371.1,144.2l-0.6-0.4l-0.7-3
				l1-0.1c0.3,1.5,0.5,2.3,0.5,2.4c0,0.1,0,0.2,0,0.3c0.7-0.5,1.4-0.9,2.2-1.3l7.9-4.6l0.7,0.4L371.1,144.2z M382.9,149.6
				c-1.5,0.2-2.9,0-4-0.7c-1.2-0.7-1.6-1.4-1.2-2.3c0.3-0.9,1.5-1.8,3.4-2.9c1.9-1.1,3.6-1.7,5.1-1.9c1.5-0.2,2.9,0,4,0.7
				c1.2,0.7,1.6,1.5,1.3,2.3c-0.3,0.9-1.5,1.9-3.4,3C386.1,148.8,384.4,149.4,382.9,149.6z M378.7,146.6c-0.4,0.7-0.1,1.4,0.8,1.9
				c0.9,0.5,2,0.7,3.3,0.5c1.3-0.2,2.7-0.8,4.3-1.7c1.6-0.9,2.7-1.8,3.1-2.5c0.4-0.7,0.1-1.4-0.8-1.9c-0.9-0.5-2-0.7-3.2-0.5
				c-1.2,0.2-2.7,0.8-4.4,1.8C380.2,145.1,379.1,145.9,378.7,146.6z M375.1,124c-1.5,0.2-2.9,0-4-0.7c-1.2-0.7-1.6-1.4-1.2-2.3
				c0.3-0.9,1.5-1.8,3.4-2.9c1.9-1.1,3.6-1.7,5.1-1.9c1.5-0.2,2.9,0,4,0.7c1.2,0.7,1.6,1.5,1.3,2.3c-0.3,0.9-1.5,1.9-3.4,3
				C378.3,123.1,376.6,123.8,375.1,124z M370.9,121c-0.4,0.7-0.1,1.4,0.8,1.9c0.9,0.5,2,0.7,3.3,0.5c1.3-0.2,2.7-0.8,4.3-1.7
				c1.6-0.9,2.7-1.8,3.1-2.5c0.4-0.7,0.1-1.4-0.8-1.9c-0.9-0.5-2-0.7-3.2-0.5c-1.2,0.2-2.7,0.8-4.4,1.8
				C372.3,119.4,371.3,120.3,370.9,121z"/>
		</g>
		<g>
			<g>
				<polygon class="st2" points="340,187.9 280.5,153.6 340,119.3 399.4,153.6 				"/>
				<g>

						<linearGradient id="SVGID_2_" gradientUnits="userSpaceOnUse" x1="303.6719" y1="248.4053" x2="376.2499" y2="248.4053" gradientTransform="matrix(1 0 0 -1 0 402)">
						<stop  offset="0" style="stop-color:#491E8C"/>
						<stop  offset="1" style="stop-color:#251440"/>
					</linearGradient>
					<path class="st3" d="M365.6,168.4c-14.2,8.2-37.2,8.2-51.3,0c-14.2-8.2-14.2-21.4,0-29.7c14.2-8.2,37.2-8.2,51.3,0
						C379.8,147,379.8,160.3,365.6,168.4z"/>

						<linearGradient id="SVGID_3_" gradientUnits="userSpaceOnUse" x1="303.6719" y1="252.964" x2="376.2499" y2="252.964" gradientTransform="matrix(1 0 0 -1 0 402)">
						<stop  offset="0" style="stop-color:#9452FF"/>
						<stop  offset="0.5" style="stop-color:#4A297F"/>
					</linearGradient>
					<path class="st4" d="M365.6,163.9c-14.2,8.2-37.2,8.2-51.3,0c-14.2-8.2-14.2-21.4,0-29.7c14.2-8.2,37.2-8.2,51.3,0
						C379.8,142.4,379.8,155.7,365.6,163.9z"/>

						<linearGradient id="SVGID_4_" gradientUnits="userSpaceOnUse" x1="303.6719" y1="254.5099" x2="376.2499" y2="254.5099" gradientTransform="matrix(1 0 0 -1 0 402)">
						<stop  offset="0" style="stop-color:#9452FF"/>
						<stop  offset="0.5" style="stop-color:#4A297F"/>
					</linearGradient>
					<path class="st5" d="M365.6,162.3c-14.2,8.2-37.2,8.2-51.3,0c-14.2-8.2-14.2-21.4,0-29.7s37.2-8.2,51.3,0
						C379.8,140.9,379.8,154.2,365.6,162.3z"/>

						<linearGradient id="SVGID_5_" gradientUnits="userSpaceOnUse" x1="312.2228" y1="254.9782" x2="367.7189" y2="254.9782" gradientTransform="matrix(1 0 0 -1 0 402)">
						<stop  offset="0" style="stop-color:#491E8C"/>
						<stop  offset="1" style="stop-color:#251440"/>
					</linearGradient>
					<path class="st6" d="M359.6,158.4c-10.8,6.3-28.4,6.3-39.2,0c-10.8-6.3-10.8-16.4,0-22.7c10.8-6.3,28.4-6.3,39.2,0
						C370.4,141.9,370.4,152.1,359.6,158.4z"/>

						<linearGradient id="SVGID_6_" gradientUnits="userSpaceOnUse" x1="312.2228" y1="260.0521" x2="367.7189" y2="260.0521" gradientTransform="matrix(1 0 0 -1 0 402)">
						<stop  offset="0" style="stop-color:#9452FF"/>
						<stop  offset="0.5" style="stop-color:#4A297F"/>
					</linearGradient>
					<path class="st7" d="M359.6,153.3c-10.8,6.3-28.4,6.3-39.2,0c-10.8-6.3-10.8-16.4,0-22.7c10.8-6.3,28.4-6.3,39.2,0
						C370.4,136.9,370.4,147,359.6,153.3z"/>
					<path class="st8" d="M359.6,151.7c-10.8,6.3-28.4,6.3-39.2,0c-10.8-6.3-10.8-16.4,0-22.7c10.8-6.3,28.4-6.3,39.2,0
						C370.4,135.3,370.4,145.5,359.6,151.7z"/>

						<linearGradient id="SVGID_7_" gradientUnits="userSpaceOnUse" x1="326.2014" y1="261.5783" x2="353.7105" y2="261.5783" gradientTransform="matrix(1 0 0 -1 0 402)">
						<stop  offset="0" style="stop-color:#491E8C"/>
						<stop  offset="1" style="stop-color:#251440"/>
					</linearGradient>
					<path class="st9" d="M349.7,146c-5.4,3.1-14.1,3.1-19.5,0c-5.4-3.1-5.4-8.1,0-11.2c5.4-3.1,14.1-3.1,19.5,0
						C355.1,137.9,355.1,142.9,349.7,146z"/>
				</g>
			</g>
			<g>
				<polygon class="st2" points="340,187.9 280.5,153.6 340,119.3 399.4,153.6 				"/>
				<polygon class="st10" points="340,187.9 280.5,153.6 340,119.3 399.4,153.6 				"/>
				<g>

						<linearGradient id="SVGID_8_" gradientUnits="userSpaceOnUse" x1="303.6719" y1="248.4053" x2="376.2499" y2="248.4053" gradientTransform="matrix(1 0 0 -1 0 402)">
						<stop  offset="0" style="stop-color:#491E8C"/>
						<stop  offset="1" style="stop-color:#251440"/>
					</linearGradient>
					<path class="st11" d="M365.6,168.4c-14.2,8.2-37.2,8.2-51.3,0c-14.2-8.2-14.2-21.4,0-29.7c14.2-8.2,37.2-8.2,51.3,0
						C379.8,146.9,379.8,160.3,365.6,168.4z"/>

						<linearGradient id="SVGID_9_" gradientUnits="userSpaceOnUse" x1="303.6719" y1="252.964" x2="376.2499" y2="252.964" gradientTransform="matrix(1 0 0 -1 0 402)">
						<stop  offset="0" style="stop-color:#9452FF"/>
						<stop  offset="0.5" style="stop-color:#4A297F"/>
					</linearGradient>
					<path class="st12" d="M365.6,163.9c-14.2,8.2-37.2,8.2-51.3,0c-14.2-8.2-14.2-21.4,0-29.7c14.2-8.2,37.2-8.2,51.3,0
						C379.8,142.4,379.8,155.7,365.6,163.9z"/>

						<linearGradient id="SVGID_10_" gradientUnits="userSpaceOnUse" x1="303.6719" y1="254.5099" x2="376.2499" y2="254.5099" gradientTransform="matrix(1 0 0 -1 0 402)">
						<stop  offset="0" style="stop-color:#9452FF"/>
						<stop  offset="0.5" style="stop-color:#4A297F"/>
					</linearGradient>
					<path class="st13" d="M365.6,162.3c-14.2,8.2-37.2,8.2-51.3,0c-14.2-8.2-14.2-21.4,0-29.7s37.2-8.2,51.3,0
						S379.8,154.2,365.6,162.3z"/>

						<linearGradient id="SVGID_11_" gradientUnits="userSpaceOnUse" x1="312.2228" y1="254.9782" x2="367.7189" y2="254.9782" gradientTransform="matrix(1 0 0 -1 0 402)">
						<stop  offset="0" style="stop-color:#491E8C"/>
						<stop  offset="1" style="stop-color:#251440"/>
					</linearGradient>
					<path class="st14" d="M359.6,158.4c-10.8,6.3-28.4,6.3-39.2,0c-10.8-6.3-10.8-16.4,0-22.7c10.8-6.3,28.4-6.3,39.2,0
						C370.4,141.9,370.4,152.1,359.6,158.4z"/>

						<linearGradient id="SVGID_12_" gradientUnits="userSpaceOnUse" x1="312.2228" y1="260.0918" x2="367.7189" y2="260.0918" gradientTransform="matrix(1 0 0 -1 0 402)">
						<stop  offset="0" style="stop-color:#9452FF"/>
						<stop  offset="0.5" style="stop-color:#4A297F"/>
					</linearGradient>
					<path class="st15" d="M359.6,153.2c-10.8,6.3-28.4,6.3-39.2,0c-10.8-6.3-10.8-16.4,0-22.7c10.8-6.3,28.4-6.3,39.2,0
						C370.4,136.9,370.4,147,359.6,153.2z"/>
					<path class="st8" d="M359.6,151.7c-10.8,6.3-28.4,6.3-39.2,0c-10.8-6.3-10.8-16.4,0-22.7c10.8-6.3,28.4-6.3,39.2,0
						C370.4,135.3,370.4,145.5,359.6,151.7z"/>

						<linearGradient id="SVGID_13_" gradientUnits="userSpaceOnUse" x1="339.9362" y1="253.672" x2="339.9362" y2="269.5074" gradientTransform="matrix(1 0 0 -1 0 402)">
						<stop  offset="0" style="stop-color:#FFA744"/>
						<stop  offset="1" style="stop-color:#FFFFFF"/>
					</linearGradient>
					<path class="st16" d="M349.7,146c-5.4,3.1-14.1,3.1-19.5,0c-5.4-3.1-5.4-8.1,0-11.2c5.4-3.1,14.1-3.1,19.5,0
						C355.1,137.9,355.1,142.9,349.7,146z"/>
				</g>
				<g>
					<g id="Man">
						<path id="Body" class="st17" d="M373.4,115.3c-5.2-7.7-12.9-12.6-22.3-14.6l-0.2-4.4c3.8-3.8,7.3-9,9-14.4
							c1.2,0.2,2.6-1.9,3.3-4.6c0.7-3,0.2-5.7-1.2-6.3c-0.4-0.2-0.8,0-1.2,0.2c-1.4-11.7-9.2-20.7-21.4-20.7s-20,8.9-21.4,20.6
							c-0.4-0.2-0.7-0.3-1.1-0.2c-1.4,0.4-2,3.3-1.4,6.3c0.6,2.7,1.9,4.6,3.3,4.6c1.7,5.6,5.1,10.9,9,14.7l-0.2,4
							c-10,1.9-18.2,6.5-22.5,15c-1.1,2.3,24,15.1,34.2,15.1C353,130.8,375.2,117.9,373.4,115.3z"/>
						<path id="Hair" class="st18" d="M317.8,71.2c0,0-0.3-22.5,19.2-22.5c3.3-1.2,12.4-1.8,19.7,5.9c6.5,6.9,4,16.6,4,16.6
							s-13.3-1.5-22.6-13.6C338.2,57.5,324.8,59,317.8,71.2z"/>
						<path class="st19" d="M351.5,100.3c0,0-0.1,0.2-0.2,0.5c-0.1,0-0.1,0-0.2,0l-0.2-4.4c3.8-3.8,7.3-9,9-14.4
							c1.2,0.2,2.6-1.9,3.3-4.6c0.7-3,0.2-5.7-1.2-6.3c-0.4-0.2-0.8,0-1.2,0.2c0-0.1,0-0.3,0-0.4c0.4-1.9,1.6-10.2-4.1-16.3
							c-7.2-7.7-16.4-7.1-19.7-5.9c-18.3,0-19.1,19.9-19.2,22.3c-0.3-0.1-0.5-0.2-0.8,0c-1.4,0.4-2,3.3-1.4,6.3
							c0.6,2.7,1.9,4.6,3.3,4.6c1.7,5.6,5.1,10.9,9,14.7l-0.2,4c-0.2,0-0.3,0-0.4,0.1c-0.1-0.2-0.1-0.2-0.1-0.2
							c-14.9,1.2-23.3,14.9-23.3,14.9s17.6,30,36,30c18.5,0,35.3-29.5,35.3-29.5C365.6,101.8,351.5,100.3,351.5,100.3z M317.9,70.9
							c0.1-0.1,0.2-0.2,0.2-0.4c0,0.2,0,0.3,0,0.4C318,71,318,71,317.9,70.9z"/>

							<linearGradient id="Shirt_1_" gradientUnits="userSpaceOnUse" x1="303.9692" y1="279.238" x2="375.269" y2="279.238" gradientTransform="matrix(1 0 0 -1 0 402)">
							<stop  offset="0" style="stop-color:#491E8C"/>
							<stop  offset="1" style="stop-color:#251440"/>
						</linearGradient>
						<path id="Shirt" class="st20" d="M327.3,100.3c0,0,5.5,11.1,12,11.1c6.7,0,12.2-11.1,12.2-11.1s14.1,1.4,23.8,15.3
							c0,0-16.8,29.5-35.3,29.5s-36-30-36-30S312.3,101.6,327.3,100.3z"/>
					</g>
				</g>
			</g>
		</g>
		<g>
			<g>
				<polygon class="st2" points="60,187.8 0.6,153.5 60,119.1 119.5,153.5 				"/>
				<polygon class="st10" points="60,187.8 0.6,153.5 60,119.1 119.5,153.5 				"/>
				<g>

						<linearGradient id="SVGID_14_" gradientUnits="userSpaceOnUse" x1="23.76" y1="248.5304" x2="96.338" y2="248.5304" gradientTransform="matrix(1 0 0 -1 0 402)">
						<stop  offset="0" style="stop-color:#491E8C"/>
						<stop  offset="1" style="stop-color:#251440"/>
					</linearGradient>
					<path class="st21" d="M85.7,168.3c-14.2,8.2-37.2,8.2-51.3,0c-14.2-8.2-14.2-21.4,0-29.7s37.2-8.2,51.3,0
						S99.9,160.1,85.7,168.3z"/>

						<linearGradient id="SVGID_15_" gradientUnits="userSpaceOnUse" x1="23.76" y1="253.0891" x2="96.338" y2="253.0891" gradientTransform="matrix(1 0 0 -1 0 402)">
						<stop  offset="0" style="stop-color:#9452FF"/>
						<stop  offset="0.5" style="stop-color:#4A297F"/>
					</linearGradient>
					<path class="st22" d="M85.7,163.7c-14.2,8.2-37.2,8.2-51.3,0c-14.2-8.2-14.2-21.4,0-29.7s37.2-8.2,51.3,0
						C99.9,142.3,99.9,155.5,85.7,163.7z"/>

						<linearGradient id="SVGID_16_" gradientUnits="userSpaceOnUse" x1="23.76" y1="254.635" x2="96.338" y2="254.635" gradientTransform="matrix(1 0 0 -1 0 402)">
						<stop  offset="0" style="stop-color:#9452FF"/>
						<stop  offset="0.5" style="stop-color:#4A297F"/>
					</linearGradient>
					<path class="st23" d="M85.7,162.2c-14.2,8.2-37.2,8.2-51.3,0c-14.2-8.2-14.2-21.4,0-29.7s37.2-8.2,51.3,0S99.9,154,85.7,162.2z
						"/>

						<linearGradient id="SVGID_17_" gradientUnits="userSpaceOnUse" x1="32.3108" y1="255.1033" x2="87.8069" y2="255.1033" gradientTransform="matrix(1 0 0 -1 0 402)">
						<stop  offset="0" style="stop-color:#491E8C"/>
						<stop  offset="1" style="stop-color:#251440"/>
					</linearGradient>
					<path class="st24" d="M79.7,158.2c-10.8,6.3-28.4,6.3-39.2,0s-10.8-16.4,0-22.7s28.4-6.3,39.2,0
						C90.5,141.8,90.5,152,79.7,158.2z"/>

						<linearGradient id="SVGID_18_" gradientUnits="userSpaceOnUse" x1="32.3108" y1="260.2169" x2="87.7921" y2="260.2169" gradientTransform="matrix(1 0 0 -1 0 402)">
						<stop  offset="0" style="stop-color:#9452FF"/>
						<stop  offset="0.5" style="stop-color:#4A297F"/>
					</linearGradient>
					<path class="st25" d="M79.7,153.1c-10.8,6.3-28.4,6.3-39.2,0s-10.8-16.4,0-22.7c10.8-6.3,28.4-6.3,39.2,0
						C90.5,136.7,90.5,146.9,79.7,153.1z"/>
					<path class="st8" d="M79.7,151.6c-10.8,6.3-28.4,6.3-39.2,0c-10.8-6.3-10.8-16.4,0-22.7c10.8-6.3,28.4-6.3,39.2,0
						C90.5,135.2,90.5,145.4,79.7,151.6z"/>

						<linearGradient id="SVGID_19_" gradientUnits="userSpaceOnUse" x1="60.0242" y1="253.797" x2="60.0242" y2="269.6325" gradientTransform="matrix(1 0 0 -1 0 402)">
						<stop  offset="0" style="stop-color:#FFA744"/>
						<stop  offset="1" style="stop-color:#FFFFFF"/>
					</linearGradient>
					<path class="st26" d="M69.8,145.9c-5.4,3.1-14.1,3.1-19.5,0s-5.4-8.1,0-11.2s14.1-3.1,19.5,0C75.1,137.8,75.1,142.8,69.8,145.9
						z"/>
				</g>
				<g>
					<g>
						<g id="Women-1">
							<path id="Hair-back" class="st18" d="M39,78.6c0,0,2.6,23.7-0.2,26.4h41.5c0,0-1.5-20,0.6-28.1L39,78.6z"/>
							<path id="Body_2_" class="st17" d="M93.9,113.9c-5.5-8-13.7-12.9-23.8-14.9L70,95.9c5.5-5.3,10-13.9,10-22.2
								c0-13.6-6.6-24.5-20.3-24.5s-20.2,11-20.2,24.5c0,8.6,4.7,17.3,10.3,22.6l-0.2,2.6c-10.7,1.7-19.6,6.4-23.9,15.3
								c-1.1,2.3,23.9,15.1,34.2,15.1C73.4,129.3,95.6,116.5,93.9,113.9z"/>
							<path id="Hair_2_" class="st18" d="M84.9,103.4c-1.1-5-0.7-33.5-0.7-33.5c0-6.3-4.2-24.1-24.3-21.6
								c-20-2.5-24.3,14.9-24.3,21.6c0,0.7,0.2,31.6-0.6,33.5c-1.8,4.8,8.2-1.2,8.2-2.9c0-4.1,0-29.3,0.6-29.7
								c0.4-0.3,2.1-0.6,4.2-0.8l1-6l1.1,5.7c3.2-0.4,7.3-0.7,9.8-0.7c2.1,0,5.9,0.4,9.3,1l0.4-2.9l0.6,3c0.7,0.2,1.2,0.2,1.8,0.3
								l0.4-2.2l0.4,2.5c1.7,0.3,2.7,0.7,2.9,0.8c1,1.1,1,30.8,1.3,31.9C77.4,104.9,85.9,107.8,84.9,103.4z"/>

								<linearGradient id="Shirt_3_" gradientUnits="userSpaceOnUse" x1="24.3743" y1="280.0964" x2="95.7137" y2="280.0964" gradientTransform="matrix(1 0 0 -1 0 402)">
								<stop  offset="0" style="stop-color:#491E8C"/>
								<stop  offset="1" style="stop-color:#251440"/>
							</linearGradient>
							<path id="Shirt_2_" class="st27" d="M47.8,99.1c0,0,8.9,13.1,12,13.1c3.4,0,12.2-13.2,12.2-13.2S86,100.2,95.7,114
								c0,0-16.8,30.8-35.3,30.8s-36.1-30.4-36.1-30.4S32.7,100.2,47.8,99.1z"/>
						</g>
					</g>
				</g>
			</g>
		</g>
	</g>
	<g>
		<g>
			<g>
				<linearGradient id="SVGID_20_" gradientUnits="userSpaceOnUse" x1="90.2398" y1="202.3121" x2="200.6029" y2="202.3121">
					<stop  offset="0" style="stop-color:#FFA744"/>
					<stop  offset="0.75" style="stop-color:#491E8C;stop-opacity:0.2"/>
					<stop  offset="1" style="stop-color:#491E8C;stop-opacity:0"/>
				</linearGradient>
				<polyline class="st28" points="90.7,170.7 162,211.9 200.1,233.9 				"/>
				<g>
					<g>
						<ellipse transform="matrix(0.5 -0.866 0.866 0.5 -102.497 163.9541)" class="st29" cx="90.7" cy="170.7" rx="3.8" ry="3.8"/>
						<linearGradient id="SVGID_21_" gradientUnits="userSpaceOnUse" x1="90.2398" y1="170.742" x2="200.6029" y2="170.742">
							<stop  offset="0" style="stop-color:#FFA744"/>
							<stop  offset="0.75" style="stop-color:#491E8C;stop-opacity:0.2"/>
							<stop  offset="1" style="stop-color:#491E8C;stop-opacity:0"/>
						</linearGradient>
						<path class="st30" d="M88.6,174.4c2,1.2,4.6,0.5,5.8-1.6c1.2-2,0.5-4.6-1.6-5.8c-2-1.2-4.6-0.5-5.8,1.6
							C85.9,170.6,86.6,173.3,88.6,174.4C90.6,175.6,86.6,173.3,88.6,174.4z M92.4,167.9c1.6,0.9,2.1,2.9,1.2,4.5
							c-0.9,1.6-2.9,2.1-4.5,1.2c-1.6-0.9-2.1-2.9-1.2-4.5C88.8,167.6,90.8,167,92.4,167.9C93.9,168.8,90.8,167,92.4,167.9z"/>
					</g>
				</g>
			</g>
		</g>
		<linearGradient id="SVGID_22_" gradientUnits="userSpaceOnUse" x1="302.0427" y1="203.0662" x2="399.9055" y2="203.0662">
			<stop  offset="0" style="stop-color:#FFA744"/>
			<stop  offset="0.75" style="stop-color:#491E8C;stop-opacity:0.5"/>
			<stop  offset="1" style="stop-color:#491E8C;stop-opacity:0"/>
		</linearGradient>
		<line class="st31" x1="302.5" y1="175.1" x2="399.4" y2="231"/>
		<g>
			<g>
				<linearGradient id="SVGID_23_" gradientUnits="userSpaceOnUse" x1="199.6029" y1="202.3066" x2="309.8757" y2="202.3066">
					<stop  offset="0" style="stop-color:#491E8C;stop-opacity:0"/>
					<stop  offset="0.25" style="stop-color:#491E8C;stop-opacity:0.2"/>
					<stop  offset="1" style="stop-color:#FFA744"/>
				</linearGradient>
				<polyline class="st32" points="309.4,170.7 237.4,212.3 200.1,233.9 				"/>
				<g>
					<g>
						<ellipse transform="matrix(0.866 -0.5 0.5 0.866 -43.917 177.5612)" class="st29" cx="309.4" cy="170.7" rx="3.8" ry="3.8"/>
						<linearGradient id="SVGID_24_" gradientUnits="userSpaceOnUse" x1="199.6029" y1="170.7309" x2="309.8757" y2="170.7309">
							<stop  offset="0" style="stop-color:#491E8C;stop-opacity:0"/>
							<stop  offset="0.25" style="stop-color:#491E8C;stop-opacity:0.2"/>
							<stop  offset="1" style="stop-color:#FFA744"/>
						</linearGradient>
						<path class="st33" d="M307.2,167c-2,1.2-2.7,3.8-1.6,5.8c1.2,2,3.8,2.7,5.8,1.6c2-1.2,2.7-3.8,1.6-5.8
							C311.9,166.6,309.3,165.9,307.2,167C305.2,168.2,309.3,165.9,307.2,167z M311,173.6c-1.6,0.9-3.6,0.4-4.5-1.2
							c-0.9-1.6-0.4-3.6,1.2-4.5c1.6-0.9,3.6-0.4,4.5,1.2C313.1,170.7,312.6,172.7,311,173.6C309.4,174.5,312.6,172.7,311,173.6z"/>
					</g>
				</g>
			</g>
		</g>
		<linearGradient id="SVGID_25_" gradientUnits="userSpaceOnUse" x1="-0.2366" y1="202.9842" x2="97.8432" y2="202.9842">
			<stop  offset="0" style="stop-color:#491E8C;stop-opacity:0"/>
			<stop  offset="0.25" style="stop-color:#491E8C;stop-opacity:0.5"/>
			<stop  offset="1" style="stop-color:#FFA744"/>
		</linearGradient>
		<line class="st34" x1="97.3" y1="175" x2="0.3" y2="231"/>
	</g>
	<g>
		<g>
			<g>
				<g>
					<path class="st19" d="M192.1,268.3l-48.2-27.8c-4.4-2.5-3.8-7,1.2-9.9l45.8-26.4c5-2.9,12.7-3.2,17.1-0.7l48.2,27.8
						c4.4,2.5,3.8,7-1.2,9.9l-45.8,26.4C204.1,270.5,196.4,270.9,192.1,268.3z"/>
					<linearGradient id="SVGID_26_" gradientUnits="userSpaceOnUse" x1="140.8893" y1="207.8279" x2="259.1024" y2="207.8279">
						<stop  offset="0" style="stop-color:#9452FF"/>
						<stop  offset="1" style="stop-color:#28104C"/>
					</linearGradient>
					<path class="st35" d="M140.9,156.6c0,0,0,65.6,0,68.3c0,2.6,1.6,3.8,4,5.2s43.6,25.2,47.2,27.2c3.6,2,11.2,2.7,17.1-0.7
						c5.9-3.4,42.4-24.5,45.8-26.4c3.3-1.9,4.2-4.1,4.2-5.3c0-1.2,0-68.3,0-68.3H140.9z"/>

						<linearGradient id="SVGID_27_" gradientUnits="userSpaceOnUse" x1="-1582.5814" y1="235.7107" x2="-1548.4521" y2="176.5971" gradientTransform="matrix(0.866 0.5 -1.5 0.2887 1865.0111 879.8873)">
						<stop  offset="0" style="stop-color:#9452FF"/>
						<stop  offset="1" style="stop-color:#491E8C"/>
					</linearGradient>
					<path class="st36" d="M192.1,189.1l-48.2-27.8c-4.4-2.5-3.8-7,1.2-9.9l45.8-26.4c5-2.9,12.7-3.2,17.1-0.7l48.2,27.8
						c4.4,2.5,3.8,7-1.2,9.9l-45.8,26.4C204.1,191.3,196.4,191.6,192.1,189.1z"/>
				</g>
				<g>
					<g>
						<ellipse class="st37" cx="199.7" cy="156.4" rx="37.7" ry="21.8"/>

							<linearGradient id="SVGID_28_" gradientUnits="userSpaceOnUse" x1="200.0828" y1="178.1819" x2="200.0828" y2="-4.424758e-02">
							<stop  offset="0" style="stop-color:#FFFFFF;stop-opacity:0.9"/>
							<stop  offset="1" style="stop-color:#491E8C;stop-opacity:0"/>
						</linearGradient>
						<path class="st38" d="M270.5,0c0,0-33,153.5-33,156.5c0,12-16.9,21.8-37.7,21.8c-20.8,0-37.7-9.7-37.7-21.8
							c0-3-32.4-156.5-32.4-156.5H270.5z"/>
						<radialGradient id="SVGID_29_" cx="199.7405" cy="156.4304" r="30.7612" gradientUnits="userSpaceOnUse">
							<stop  offset="0" style="stop-color:#FFFFFF;stop-opacity:0.8"/>
							<stop  offset="1" style="stop-color:#FFFFFF;stop-opacity:0"/>
						</radialGradient>
						<ellipse class="st39" cx="199.7" cy="156.4" rx="37.7" ry="21.8"/>
						<g class="st40">

								<linearGradient id="SVGID_30_" gradientUnits="userSpaceOnUse" x1="158.1084" y1="303.8388" x2="241.8976" y2="303.8388" gradientTransform="matrix(1 0 0 -1 0 402)">
								<stop  offset="0" style="stop-color:#9452FF"/>
								<stop  offset="1" style="stop-color:#491E8C"/>
							</linearGradient>
							<circle class="st41" cx="200" cy="98.2" r="41.9"/>
							<g>

									<linearGradient id="SVGID_31_" gradientUnits="userSpaceOnUse" x1="235.9714" y1="287.0665" x2="164.0346" y2="320.6111" gradientTransform="matrix(1 0 0 -1 0 402)">
									<stop  offset="0" style="stop-color:#251440"/>
									<stop  offset="1" style="stop-color:#491E8C"/>
								</linearGradient>
								<path class="st42" d="M200,64.4c4.6,0,9,0.9,13.1,2.6c4,1.7,7.6,4.1,10.7,7.2c3.1,3.1,5.5,6.7,7.2,10.7
									c1.8,4.1,2.6,8.6,2.6,13.2s-0.9,9-2.6,13.2c-1.7,4-4.1,7.6-7.2,10.7c-3.1,3.1-6.7,5.5-10.7,7.2c-4.1,1.8-8.6,2.6-13.1,2.6
									s-9-0.9-13.1-2.6c-4-1.7-7.6-4.1-10.7-7.2s-5.5-6.7-7.2-10.7c-1.8-4.1-2.6-8.6-2.6-13.2c0-4.6,0.9-9,2.6-13.2
									c1.7-4,4.1-7.6,7.2-10.7c3.1-3.1,6.7-5.5,10.7-7.2C191,65.3,195.4,64.4,200,64.4 M200,58.4c-21.9,0-39.7,17.8-39.7,39.7
									s17.8,39.7,39.7,39.7s39.7-17.8,39.7-39.7S221.9,58.4,200,58.4L200,58.4z"/>
								<g class="st43">
									<ellipse class="st29" cx="200" cy="98.2" rx="33.7" ry="33.8"/>
								</g>
								<g id="Brandmark_95_">
									<ellipse id="Core-1_96_" class="st44" cx="200" cy="87.3" rx="3.9" ry="3.9"/>
									<ellipse id="Core-2_96_" class="st44" cx="188.6" cy="95.6" rx="3.9" ry="3.9"/>
									<ellipse id="Core-3_96_" class="st44" cx="211.4" cy="95.6" rx="3.9" ry="3.9"/>
									<ellipse id="Core-4_96_" class="st44" cx="193" cy="109" rx="3.9" ry="3.9"/>
									<ellipse id="Core-5_96_" class="st44" cx="207" cy="109" rx="3.9" ry="3.9"/>
									<path id="Center_95_" class="st45" d="M202.1,109c0-1.3,0.5-2.6,1.5-3.5c0.9-0.9,2.2-1.5,3.5-1.5c1.3,0,2.4,0.5,3.3,1.3
										c0.8-1.5,1.4-3.1,1.6-4.8c-0.2,0-0.3,0-0.5,0c-1.3,0-2.6-0.5-3.5-1.5c-1-1-1.5-2.2-1.5-3.5c0-1.3,0.5-2.6,1.5-3.5
										c0.3-0.3,0.7-0.6,1-0.8c-1.1-1.3-2.5-2.3-4.1-3c-0.2,0.9-0.7,1.8-1.3,2.5c-0.9,0.9-2.2,1.5-3.5,1.5c-1.3,0-2.6-0.5-3.5-1.5
										c-0.7-0.7-1.1-1.6-1.3-2.5c-1.6,0.7-3,1.7-4.1,3c0.4,0.2,0.7,0.5,1,0.8c0.9,0.9,1.5,2.2,1.5,3.5c0,1.3-0.5,2.6-1.5,3.5
										c-1,1-2.2,1.5-3.5,1.5c-0.2,0-0.3,0-0.5,0c0.2,1.8,0.7,3.4,1.6,4.8c0.9-0.8,2.1-1.3,3.3-1.3c1.3,0,2.6,0.5,3.5,1.5
										c0.9,0.9,1.5,2.2,1.5,3.5c0,0.7-0.2,1.4-0.4,2c0.8,0.2,1.7,0.3,2.6,0.3s1.7-0.1,2.6-0.3C202.3,110.4,202.1,109.7,202.1,109
										z"/>
									<path id="Circles_95_" class="st45" d="M225,89.9c-0.8-1.8-1.8-3.3-3.1-4.7c-1.3-1.3-2.9-2.4-4.7-3.1
										c-1.2-0.5-2.5-0.8-3.7-1c-0.7-1.6-1.7-2.9-2.9-4.1c-1.3-1.3-2.9-2.4-4.7-3.1c-1.8-0.8-3.7-1.2-5.7-1.2
										c-2,0-3.9,0.4-5.7,1.2c-1.8,0.8-3.3,1.8-4.7,3.1c-1.2,1.2-2.2,2.6-2.9,4.1c-1.4,0.2-2.7,0.5-4,1c-1.8,0.8-3.3,1.8-4.7,3.1
										c-1.3,1.3-2.4,2.9-3.1,4.7c-0.8,1.8-1.2,3.7-1.2,5.7c0,2,0.4,3.9,1.2,5.7c0.8,1.8,1.8,3.3,3.1,4.7c0.1,0.1,0.2,0.2,0.3,0.3
										c-0.2,0.9-0.3,1.8-0.3,2.7c0,2,0.4,3.9,1.2,5.7c0.8,1.8,1.8,3.3,3.1,4.7c1.3,1.3,2.9,2.4,4.7,3.1c1.8,0.8,3.7,1.2,5.7,1.2
										c2,0,3.9-0.4,5.7-1.2c0.5-0.2,0.9-0.4,1.3-0.6c0.4,0.3,0.9,0.5,1.3,0.6c1.8,0.8,3.7,1.2,5.7,1.2c2,0,3.9-0.4,5.7-1.2
										c1.8-0.8,3.3-1.8,4.7-3.1c1.3-1.3,2.4-2.9,3.1-4.7c0.8-1.8,1.2-3.7,1.2-5.7c0-0.9-0.1-1.8-0.3-2.7c0.1-0.1,0.2-0.2,0.3-0.3
										c1.3-1.3,2.4-2.9,3.1-4.7c0.8-1.8,1.2-3.7,1.2-5.7C226.1,93.6,225.8,91.7,225,89.9z M223.9,100.8c-0.6,1.5-1.6,2.9-2.7,4.1
										c-0.2-0.5-0.3-1.1-0.6-1.6c-0.8-1.8-1.8-3.3-3.1-4.7c-0.5-0.5-0.9-0.9-1.4-1.3c-0.1,0.4-0.3,0.8-0.6,1.1
										c0.4,0.3,0.8,0.7,1.1,1c1.3,1.3,2.2,2.7,2.9,4.3c0.3,0.7,0.5,1.4,0.7,2.1c-1,0.9-2.2,1.6-3.5,2.2c-1.5,0.6-3.1,1-4.7,1
										c0,0.4,0,0.8-0.2,1.2c1.8,0,3.6-0.4,5.3-1.1c1.2-0.5,2.3-1.1,3.3-1.9c0.1,0.6,0.1,1.2,0.1,1.8c0,1.8-0.4,3.6-1,5.3
										c-0.7,1.6-1.6,3.1-2.9,4.3c-1.3,1.3-2.7,2.2-4.3,2.9c-1.7,0.7-3.4,1-5.3,1s-3.6-0.4-5.3-1c-0.2-0.1-0.4-0.2-0.6-0.3
										c0.8-0.5,1.5-1.1,2.1-1.8c1.3-1.3,2.4-2.9,3.1-4.7c0.1-0.3,0.2-0.5,0.3-0.8c-0.4,0-0.8-0.1-1.2-0.2
										c-0.1,0.2-0.1,0.4-0.2,0.5c-0.7,1.6-1.6,3.1-2.9,4.3c-0.8,0.8-1.6,1.4-2.5,2c-0.9-0.5-1.8-1.2-2.5-2
										c-1.3-1.3-2.2-2.7-2.9-4.3c-0.1-0.2-0.1-0.3-0.2-0.5c-0.4,0.1-0.8,0.2-1.2,0.2c0.1,0.3,0.2,0.5,0.3,0.8
										c0.8,1.8,1.8,3.3,3.1,4.7c0.7,0.7,1.4,1.3,2.1,1.8c-0.2,0.1-0.4,0.2-0.6,0.3c-1.7,0.7-3.4,1-5.3,1c-1.8,0-3.6-0.4-5.3-1
										c-1.6-0.7-3.1-1.7-4.3-2.9c-1.3-1.3-2.2-2.7-2.9-4.3c-0.7-1.7-1-3.4-1-5.3c0-0.6,0-1.2,0.1-1.8c1,0.8,2.1,1.4,3.3,1.9
										c1.7,0.7,3.5,1.1,5.3,1.1c-0.1-0.4-0.2-0.8-0.2-1.2c-1.6-0.1-3.2-0.4-4.7-1c-1.3-0.5-2.5-1.3-3.5-2.2
										c0.2-0.7,0.4-1.4,0.7-2.1c0.7-1.6,1.6-3.1,2.9-4.3c0.4-0.4,0.8-0.7,1.1-1c-0.3-0.3-0.4-0.7-0.6-1.1c-0.5,0.4-1,0.8-1.4,1.3
										c-1.3,1.3-2.4,2.9-3.1,4.7c-0.2,0.5-0.4,1.1-0.6,1.6c-1.1-1.2-2.1-2.6-2.7-4.1c-0.7-1.7-1-3.4-1-5.3s0.4-3.6,1-5.3
										c0.7-1.6,1.6-3.1,2.9-4.3c1.3-1.3,2.7-2.2,4.3-2.9c1-0.4,1.9-0.7,2.9-0.9c-0.6,1.6-0.9,3.3-0.9,5c0,1.4,0.2,2.8,0.6,4.1
										c0.3-0.2,0.7-0.4,1.1-0.5c-0.3-1.2-0.5-2.3-0.5-3.6c0-1.8,0.3-3.6,1-5.2c0.3,0,0.6,0,1,0c1.8,0,3.6,0.4,5.3,1
										c0.8,0.3,1.5,0.7,2.2,1.2c0.1-0.2,0.3-0.4,0.5-0.5c0.1-0.1,0.3-0.3,0.4-0.3c-0.8-0.5-1.7-1-2.6-1.4
										c-1.8-0.8-3.7-1.2-5.7-1.2c-0.1,0-0.3,0-0.4,0c0.6-1.1,1.4-2.2,2.3-3.1c1.3-1.3,2.7-2.2,4.3-2.9c1.7-0.7,3.4-1,5.3-1
										c1.8,0,3.6,0.4,5.3,1c1.6,0.7,3.1,1.7,4.3,2.9c0.9,0.9,1.7,2,2.3,3.1c-0.2,0-0.4,0-0.6,0c-2,0-3.9,0.4-5.7,1.2
										c-0.9,0.4-1.8,0.9-2.6,1.4c0.1,0.1,0.3,0.2,0.4,0.3c0.2,0.2,0.3,0.3,0.5,0.5c0.7-0.5,1.4-0.9,2.2-1.2c1.7-0.7,3.4-1,5.3-1
										c0.4,0,0.8,0,1.2,0c0.7,1.6,1,3.4,1,5.2c0,1.3-0.2,2.5-0.5,3.6c0.4,0.1,0.8,0.3,1.1,0.6c0.4-1.3,0.6-2.8,0.6-4.2
										c0-1.7-0.3-3.4-0.9-5c0.9,0.2,1.8,0.5,2.7,0.8c1.6,0.7,3.1,1.7,4.3,2.9c1.3,1.3,2.2,2.7,2.9,4.3c0.7,1.7,1,3.4,1,5.3
										C224.9,97.4,224.6,99.2,223.9,100.8z"/>
								</g>
							</g>
						</g>
					</g>
				</g>
			</g>
		</g>
		<g>

				<linearGradient id="SVGID_32_" gradientUnits="userSpaceOnUse" x1="151.1097" y1="230.2734" x2="188.1514" y2="166.1153" gradientTransform="matrix(1 1.1547 0 1 0 -183.5706)">
				<stop  offset="0" style="stop-color:#FFFFFF;stop-opacity:0"/>
				<stop  offset="0.5" style="stop-color:#FFFFFF;stop-opacity:0.9"/>
				<stop  offset="1" style="stop-color:#FFA744"/>
			</linearGradient>
			<path class="st46" d="M184.6,242.1l-29.9-17.3c-2.7-1.5-4.9-5-4.9-7.7V181c0-2.7,2.2-3.6,4.9-2.1l29.9,17.3
				c2.7,1.5,4.9,5,4.9,7.7V240C189.5,242.7,187.3,243.6,184.6,242.1z"/>
			<g>
				<defs>
					<path id="SVGID_33_" d="M184.6,242.1l-29.9-17.3c-2.7-1.5-4.9-5-4.9-7.7V181c0-2.7,2.2-3.6,4.9-2.1l29.9,17.3
						c2.7,1.5,4.9,5,4.9,7.7V240C189.5,242.7,187.3,243.6,184.6,242.1z"/>
				</defs>
				<clipPath id="SVGID_34_">
					<use xlink:href="#SVGID_33_"  style="overflow:visible;"/>
				</clipPath>
				<radialGradient id="SVGID_35_" cx="173.4862" cy="208.293" r="26.8164" gradientUnits="userSpaceOnUse">
					<stop  offset="0" style="stop-color:#FFA744"/>
					<stop  offset="1" style="stop-color:#BF7D33"/>
				</radialGradient>
				<path class="st47" d="M188.5,239.9l-29.9-17.3c-2.7-1.5-4.9-5-4.9-7.7v-36.1c0-2.7,2.2-3.6,4.9-2.1l29.9,17.3
					c2.7,1.5,4.9,5,4.9,7.7v36.1C193.3,240.5,191.1,241.4,188.5,239.9z"/>
				<radialGradient id="SVGID_36_" cx="166.2741" cy="211.9786" r="2.9309" gradientUnits="userSpaceOnUse">
					<stop  offset="0" style="stop-color:#FFFFFF"/>
					<stop  offset="1" style="stop-color:#491E8C"/>
				</radialGradient>
				<circle class="st48" cx="166.3" cy="212" r="2.9"/>
				<radialGradient id="SVGID_37_" cx="190.9691" cy="203.2464" r="2.9309" gradientUnits="userSpaceOnUse">
					<stop  offset="0" style="stop-color:#FFFFFF"/>
					<stop  offset="1" style="stop-color:#491E8C"/>
				</radialGradient>
				<circle class="st49" cx="191" cy="203.2" r="2.9"/>
				<radialGradient id="SVGID_38_" cx="177.4922" cy="226.0544" r="2.9309" gradientUnits="userSpaceOnUse">
					<stop  offset="0" style="stop-color:#FFFFFF"/>
					<stop  offset="1" style="stop-color:#491E8C"/>
				</radialGradient>
				<circle class="st50" cx="177.5" cy="226.1" r="2.9"/>
				<radialGradient id="SVGID_39_" cx="170.6626" cy="221.2405" r="2.5017" gradientUnits="userSpaceOnUse">
					<stop  offset="0" style="stop-color:#FFFFFF"/>
					<stop  offset="1" style="stop-color:#491E8C"/>
				</radialGradient>
				<circle class="st51" cx="170.7" cy="221.2" r="2.5"/>
				<radialGradient id="SVGID_40_" cx="179.9245" cy="205.3621" r="4.4397" gradientUnits="userSpaceOnUse">
					<stop  offset="0" style="stop-color:#FFFFFF"/>
					<stop  offset="1" style="stop-color:#491E8C"/>
				</radialGradient>
				<circle class="st52" cx="179.9" cy="205.4" r="4.4"/>
				<radialGradient id="SVGID_41_" cx="180.4497" cy="189.8047" r="5.8579" gradientUnits="userSpaceOnUse">
					<stop  offset="0" style="stop-color:#FFFFFF"/>
					<stop  offset="1" style="stop-color:#491E8C"/>
				</radialGradient>
				<circle class="st53" cx="180.4" cy="189.8" r="5.9"/>
				<radialGradient id="SVGID_42_" cx="164.2667" cy="196.4827" r="4.9383" gradientUnits="userSpaceOnUse">
					<stop  offset="0" style="stop-color:#FFFFFF"/>
					<stop  offset="1" style="stop-color:#491E8C"/>
				</radialGradient>
				<circle class="st54" cx="164.3" cy="196.5" r="4.9"/>
				<radialGradient id="SVGID_43_" cx="181.0883" cy="216.4627" r="3.5962" gradientUnits="userSpaceOnUse">
					<stop  offset="0" style="stop-color:#FFFFFF"/>
					<stop  offset="1" style="stop-color:#491E8C"/>
				</radialGradient>
				<circle class="st55" cx="181.1" cy="216.5" r="3.6"/>
				<radialGradient id="SVGID_44_" cx="190.3324" cy="235.5382" r="3.5962" gradientUnits="userSpaceOnUse">
					<stop  offset="0" style="stop-color:#FFFFFF"/>
					<stop  offset="1" style="stop-color:#491E8C"/>
				</radialGradient>
				<circle class="st56" cx="190.3" cy="235.5" r="3.6"/>
				<radialGradient id="SVGID_45_" cx="186.3076" cy="227.3027" r="1.7306" gradientUnits="userSpaceOnUse">
					<stop  offset="0" style="stop-color:#FFFFFF"/>
					<stop  offset="1" style="stop-color:#491E8C"/>
				</radialGradient>
				<circle class="st57" cx="186.3" cy="227.3" r="1.7"/>
				<radialGradient id="SVGID_46_" cx="168.161" cy="188.0741" r="1.7306" gradientUnits="userSpaceOnUse">
					<stop  offset="0" style="stop-color:#FFFFFF"/>
					<stop  offset="1" style="stop-color:#491E8C"/>
				</radialGradient>
				<circle class="st58" cx="168.2" cy="188.1" r="1.7"/>
				<radialGradient id="SVGID_47_" cx="159.3284" cy="217.8748" r="1.7306" gradientUnits="userSpaceOnUse">
					<stop  offset="0" style="stop-color:#FFFFFF"/>
					<stop  offset="1" style="stop-color:#491E8C"/>
				</radialGradient>
				<circle class="st59" cx="159.3" cy="217.9" r="1.7"/>
			</g>
		</g>
		<g>

				<linearGradient id="SVGID_48_" gradientUnits="userSpaceOnUse" x1="104.9615" y1="282.5447" x2="142.0033" y2="218.3866" gradientTransform="matrix(-1 1.1547 0 1 355.6456 -183.5706)">
				<stop  offset="0" style="stop-color:#FFFFFF;stop-opacity:0"/>
				<stop  offset="0.5" style="stop-color:#FFFFFF;stop-opacity:0.9"/>
				<stop  offset="1" style="stop-color:#FFA744"/>
			</linearGradient>
			<path class="st60" d="M217.2,241l29.9-17.3c2.7-1.5,4.9-5,4.9-7.7V180c0-2.7-2.2-3.6-4.9-2.1l-29.9,17.3c-2.7,1.5-4.9,5-4.9,7.7
				V239C212.3,241.7,214.5,242.6,217.2,241z"/>
			<g>
				<defs>
					<path id="SVGID_49_" d="M217.2,241l29.9-17.3c2.7-1.5,4.9-5,4.9-7.7V180c0-2.7-2.2-3.6-4.9-2.1l-29.9,17.3
						c-2.7,1.5-4.9,5-4.9,7.7V239C212.3,241.7,214.5,242.6,217.2,241z"/>
				</defs>
				<clipPath id="SVGID_50_">
					<use xlink:href="#SVGID_49_"  style="overflow:visible;"/>
				</clipPath>
				<radialGradient id="SVGID_51_" cx="228.3076" cy="207.2771" r="26.8164" gradientUnits="userSpaceOnUse">
					<stop  offset="0" style="stop-color:#FFA744"/>
					<stop  offset="1" style="stop-color:#BF7D33"/>
				</radialGradient>
				<path class="st61" d="M213.3,238.8l29.9-17.3c2.7-1.5,4.9-5,4.9-7.7v-36.1c0-2.7-2.2-3.6-4.9-2.1L213.3,193
					c-2.7,1.5-4.9,5-4.9,7.7v36.1C208.5,239.5,210.7,240.4,213.3,238.8z"/>

					<radialGradient id="SVGID_52_" cx="217.4914" cy="242.2649" r="2.9309" gradientTransform="matrix(-0.9886 -0.1503 -0.1503 0.9886 486.6996 2.9073)" gradientUnits="userSpaceOnUse">
					<stop  offset="0" style="stop-color:#FFFFFF"/>
					<stop  offset="1" style="stop-color:#491E8C"/>
				</radialGradient>
				<circle class="st62" cx="235.3" cy="209.7" r="2.9"/>

					<radialGradient id="SVGID_53_" cx="242.1864" cy="233.5327" r="2.9309" gradientTransform="matrix(-0.9886 -0.1503 -0.1503 0.9886 486.6996 2.9073)" gradientUnits="userSpaceOnUse">
					<stop  offset="0" style="stop-color:#FFFFFF"/>
					<stop  offset="1" style="stop-color:#491E8C"/>
				</radialGradient>
				<circle class="st63" cx="212.2" cy="197.4" r="2.9"/>

					<radialGradient id="SVGID_54_" cx="228.7095" cy="256.3407" r="2.9309" gradientTransform="matrix(-0.9886 -0.1503 -0.1503 0.9886 486.6996 2.9073)" gradientUnits="userSpaceOnUse">
					<stop  offset="0" style="stop-color:#FFFFFF"/>
					<stop  offset="1" style="stop-color:#491E8C"/>
				</radialGradient>
				<circle class="st64" cx="222.1" cy="222" r="2.9"/>

					<radialGradient id="SVGID_55_" cx="221.8799" cy="251.5267" r="2.5017" gradientTransform="matrix(-0.9886 -0.1503 -0.1503 0.9886 486.6996 2.9073)" gradientUnits="userSpaceOnUse">
					<stop  offset="0" style="stop-color:#FFFFFF"/>
					<stop  offset="1" style="stop-color:#491E8C"/>
				</radialGradient>
				<circle class="st65" cx="229.5" cy="218.2" r="2.5"/>

					<radialGradient id="SVGID_56_" cx="231.1418" cy="235.6484" r="4.4397" gradientTransform="matrix(-0.9886 -0.1503 -0.1503 0.9886 486.6996 2.9073)" gradientUnits="userSpaceOnUse">
					<stop  offset="0" style="stop-color:#FFFFFF"/>
					<stop  offset="1" style="stop-color:#491E8C"/>
				</radialGradient>
				<circle class="st66" cx="222.8" cy="201.1" r="4.4"/>

					<radialGradient id="SVGID_57_" cx="231.6671" cy="220.091" r="5.8579" gradientTransform="matrix(-0.9886 -0.1503 -0.1503 0.9886 486.6996 2.9073)" gradientUnits="userSpaceOnUse">
					<stop  offset="0" style="stop-color:#FFFFFF"/>
					<stop  offset="1" style="stop-color:#491E8C"/>
				</radialGradient>
				<circle class="st67" cx="224.6" cy="185.7" r="5.9"/>

					<radialGradient id="SVGID_58_" cx="215.484" cy="226.769" r="4.9383" gradientTransform="matrix(-0.9886 -0.1503 -0.1503 0.9886 486.6996 2.9073)" gradientUnits="userSpaceOnUse">
					<stop  offset="0" style="stop-color:#FFFFFF"/>
					<stop  offset="1" style="stop-color:#491E8C"/>
				</radialGradient>
				<circle class="st68" cx="239.6" cy="194.7" r="4.9"/>

					<radialGradient id="SVGID_59_" cx="232.3056" cy="246.749" r="3.5962" gradientTransform="matrix(-0.9886 -0.1503 -0.1503 0.9886 486.6996 2.9073)" gradientUnits="userSpaceOnUse">
					<stop  offset="0" style="stop-color:#FFFFFF"/>
					<stop  offset="1" style="stop-color:#491E8C"/>
				</radialGradient>
				<circle class="st69" cx="219.9" cy="211.9" r="3.6"/>

					<radialGradient id="SVGID_60_" cx="241.5497" cy="265.8245" r="3.5962" gradientTransform="matrix(-0.9886 -0.1503 -0.1503 0.9886 486.6996 2.9073)" gradientUnits="userSpaceOnUse">
					<stop  offset="0" style="stop-color:#FFFFFF"/>
					<stop  offset="1" style="stop-color:#491E8C"/>
				</radialGradient>
				<circle class="st70" cx="207.9" cy="229.4" r="3.6"/>

					<radialGradient id="SVGID_61_" cx="237.5249" cy="257.589" r="1.7306" gradientTransform="matrix(-0.9886 -0.1503 -0.1503 0.9886 486.6996 2.9073)" gradientUnits="userSpaceOnUse">
					<stop  offset="0" style="stop-color:#FFFFFF"/>
					<stop  offset="1" style="stop-color:#491E8C"/>
				</radialGradient>
				<circle class="st71" cx="213.1" cy="221.9" r="1.7"/>

					<radialGradient id="SVGID_62_" cx="219.3783" cy="218.3604" r="1.7306" gradientTransform="matrix(-0.9886 -0.1503 -0.1503 0.9886 486.6996 2.9073)" gradientUnits="userSpaceOnUse">
					<stop  offset="0" style="stop-color:#FFFFFF"/>
					<stop  offset="1" style="stop-color:#491E8C"/>
				</radialGradient>
				<circle class="st72" cx="237" cy="185.8" r="1.7"/>

					<radialGradient id="SVGID_63_" cx="210.5457" cy="248.1611" r="1.7306" gradientTransform="matrix(-0.9886 -0.1503 -0.1503 0.9886 486.6996 2.9073)" gradientUnits="userSpaceOnUse">
					<stop  offset="0" style="stop-color:#FFFFFF"/>
					<stop  offset="1" style="stop-color:#491E8C"/>
				</radialGradient>
				<circle class="st73" cx="241.2" cy="216.6" r="1.7"/>
			</g>
		</g>
	</g>
</g>
</svg>
