<?xml version="1.0" encoding="utf-8"?>
<!-- Generator: Adobe Illustrator 21.0.0, SVG Export Plug-In . SVG Version: 6.00 Build 0)  -->
<svg version="1.1" id="Layer_1" xmlns="http://www.w3.org/2000/svg" xmlns:xlink="http://www.w3.org/1999/xlink" x="0px" y="0px"
	 viewBox="0 0 1141.2 181.4" style="enable-background:new 0 0 1141.2 181.4;" xml:space="preserve">
<style type="text/css">
	.st0{fill:#EFBC4E;}
</style>
<g>
	<path class="st0" d="M489.8,68.5h22.7v97.2h-22.7V68.5z"/>
	<circle class="st0" cx="501.2" cy="38.9" r="15"/>
	<path class="st0" d="M628.2,14v151.7h22v-61.8H719V81.7h-68.3v-47h78V14L628.2,14z"/>
	<path class="st0" d="M793.8,52.4h-13.5c-20.3,0-36.8,16.5-36.8,36.8l0,0v41.2c0,20.3,16.5,36.8,36.8,36.8h13.5
		c20.3,0,36.8-16.5,36.8-36.8V89.2C830.5,68.9,814,52.4,793.8,52.4L793.8,52.4z M808.2,126.2c0,11.3-9.2,20.5-20.5,20.5h-1.5
		c-11.3,0-20.5-9.2-20.5-20.5v-32c0-11.3,9.2-20.5,20.5-20.5h1.5c11.3,0,20.5,9.2,20.5,20.5V126.2z"/>
	<path class="st0" d="M1040.8,54.3h26l24.7,37.5l24.8-37.5h24.8l-37.2,55.3l37.2,55.4h-24.7l-25.5-36.8l-24.6,36.8h-25.6l37.6-55.3
		L1040.8,54.3z"/>
	<path class="st0" d="M860.5,165h23V90.3c0,0,0-15.2,16.4-17h15.5V51.9h-15.1c-22,0-39.8,17.8-39.8,39.8l0,0V165z"/>
	<path class="st0" d="M546.6,26.9h22v27h25V74h-25.2v55.8c0,8.1,6.5,14.6,14.6,14.7c0,0,0,0,0.1,0h10.6v22.1h-14.8
		c-17.8,0-32.2-14.4-32.2-32.2l0,0V26.9z"/>
	<path class="st0" d="M435.4,84.3c0,0,14.5-11.1,15.1-30.4c0,0-0.2-21.9-17.6-34.3c-6.5-4.6-14.4-7.1-22.4-7h-63.8v153h69
		c11.6,0.1,22.7-4.7,30.5-13.3c6.2-6.9,11.3-17.3,11.6-33C457.9,119.4,459.3,95,435.4,84.3z M368.7,34.8h40.8
		c5.3-0.1,10.4,2.3,13.7,6.5c1.1,1.5,2,3.1,2.7,4.8c1.9,4.8,2.2,10,0.6,14.9c-1.3,4.2-4,7.9-7.6,10.3c-2.7,1.8-5.9,2.7-9.2,2.7h-41
		L368.7,34.8z M434.3,127.8c-1.4,5-4.5,9.3-8.7,12.2c-3.1,2.1-6.7,3.2-10.4,3.2h-46.5V96.5H415c6.1,0,11.9,2.8,15.5,7.7
		c1.3,1.8,2.3,3.7,3.1,5.7C435.8,115.6,436,121.9,434.3,127.8L434.3,127.8z"/>
	<path class="st0" d="M262,0c-3.3,36.3-39.3,31.8-39.3,31.8V0h-36.1v31.8h-77.9V0H73.3v31.7c-35.5,2.2-37.8-31-37.8-31H0v1.5
		c0,34.9,27.8,63.5,62.8,64.5L73,66.9v45.2c0,38.2,31,69.2,69.2,69.2h11.2c38.2-0.1,69.1-31.1,69.2-69.2V66.7h10.7
		c35.3,0,63.9-28.6,63.9-63.9c0,0,0,0,0,0V0H262z M186.8,108.3c0,21.5-17.4,38.9-38.9,38.9c-21.5,0-38.9-17.4-38.9-38.9v0V65.9h77.8
		V108.3z"/>
	<path class="st0" d="M1023.5,119.8V90.2c0-21.9-17.8-39.7-39.7-39.7h-4.1c-24.2,0-43.8,19.6-43.8,43.8v34.5
		c0,21.7,17.6,39.2,39.3,39.2h9.5c15.3,0,29.1-8.9,35.5-22.7l-17.7-9c-5.4,7.6-14.3,11.9-23.5,11.3c0,0-22.8,1.1-20.5-27.8
		L1023.5,119.8z M958.7,91.5c0-10.4,8.5-18.9,18.9-18.9h6.2c10.4,0,18.9,8.5,18.9,18.9v9.8h-44.1L958.7,91.5z"/>
</g>
</svg>
