<?xml version="1.0" encoding="utf-8"?>
<!-- Generator: Adobe Illustrator 21.0.0, SVG Export Plug-In . SVG Version: 6.00 Build 0)  -->
<svg version="1.1" id="Layer_1" xmlns="http://www.w3.org/2000/svg" xmlns:xlink="http://www.w3.org/1999/xlink" x="0px" y="0px"
	 viewBox="0 0 490 490" style="enable-background:new 0 0 490 490;" xml:space="preserve">
<style type="text/css">
	.st0{fill:url(#SVGID_1_);}
	.st1{fill:url(#SVGID_2_);}
	.st2{fill:#0E061C;}
	.st3{fill:#757575;}
	.st4{fill:#491E8C;}
	.st5{fill:url(#SVGID_3_);}
	.st6{fill:#D3D2D6;}
	.st7{fill:url(#SVGID_4_);}
	.st8{fill:#202124;}
	.st9{fill:#FC5B57;}
	.st10{fill:#E5BF3C;}
	.st11{fill:#57C038;}
	.st12{clip-path:url(#SVGID_6_);fill:url(#SVGID_7_);}
	.st13{clip-path:url(#SVGID_6_);fill:url(#SVGID_8_);}
	.st14{clip-path:url(#SVGID_6_);fill:url(#SVGID_9_);}
	.st15{clip-path:url(#SVGID_6_);}
	.st16{fill:#717272;}
	.st17{clip-path:url(#SVGID_6_);fill:none;stroke:#D7D7D7;stroke-width:0.3119;stroke-miterlimit:10;}
	.st18{clip-path:url(#SVGID_6_);fill:#757575;}
	.st19{fill:url(#SVGID_10_);}
	.st20{fill:url(#SVGID_11_);}
	.st21{fill:url(#SVGID_12_);}
	.st22{fill:url(#SVGID_13_);}
	.st23{fill:url(#SVGID_14_);}
	.st24{fill:url(#SVGID_15_);}
	.st25{fill:url(#SVGID_16_);}
	.st26{fill:#FFFFFF;}
	.st27{opacity:0.4;fill:#FFFFFF;enable-background:new    ;}
	.st28{fill:url(#SVGID_17_);}
	.st29{fill:url(#SVGID_18_);}
	.st30{fill:url(#SVGID_19_);}
</style>
<g>
	<g>
		
			<linearGradient id="SVGID_1_" gradientUnits="userSpaceOnUse" x1="362.3477" y1="-7412.6572" x2="467.9643" y2="-7412.6572" gradientTransform="matrix(1 1.1547 0 1 0 7090.769)">
			<stop  offset="0" style="stop-color:#B4ACBF"/>
			<stop  offset="0.5146" style="stop-color:#D1C8DE"/>
			<stop  offset="1" style="stop-color:#F0E5FF"/>
		</linearGradient>
		<path class="st0" d="M463.2,256.2l-96.1-55.5c-2.6-1.5-4.8-4.9-4.8-7.5V60.8c0-2.6,2.1-3.5,4.8-2l96.1,55.5
			c2.6,1.5,4.8,4.9,4.8,7.5v132.5C468,256.9,465.8,257.8,463.2,256.2z"/>
		
			<linearGradient id="SVGID_2_" gradientUnits="userSpaceOnUse" x1="359.2383" y1="-7406.9941" x2="464.8549" y2="-7406.9941" gradientTransform="matrix(1 1.1547 0 1 0 7090.769)">
			<stop  offset="0" style="stop-color:#F0E5FF"/>
			<stop  offset="1" style="stop-color:#FFFFFF"/>
		</linearGradient>
		<path class="st1" d="M460.1,258.3L364,202.8c-2.6-1.5-4.8-4.9-4.8-7.5V62.8c0-2.6,2.1-3.5,4.8-2l96.1,55.5
			c2.6,1.5,4.8,4.9,4.8,7.5v132.5C464.9,258.9,462.7,259.8,460.1,258.3z"/>
		<g>
			<g>
				<path class="st2" d="M372.9,143.7l-4.7-2.7c-0.4-0.3-0.8-0.8-0.8-1.3v-4.3c0-0.4,0.4-0.6,0.8-0.3l4.7,2.7
					c0.4,0.3,0.8,0.8,0.8,1.3v4.3C373.7,143.8,373.3,144,372.9,143.7z"/>
				<path class="st3" d="M394.8,166.5l-26.5-15.3c-0.4-0.3-0.8-0.8-0.8-1.3v-2.8c0-0.4,0.4-0.6,0.8-0.3l26.5,15.3
					c0.4,0.3,0.8,0.8,0.8,1.3v2.8C395.6,166.6,395.2,166.8,394.8,166.5z"/>
				<path class="st3" d="M378.8,164.9l-10.5-6.1c-0.4-0.3-0.8-0.8-0.8-1.3v-2.8c0-0.4,0.4-0.6,0.8-0.3l10.5,6.1
					c0.4,0.3,0.8,0.8,0.8,1.3v2.8C379.6,165,379.2,165.1,378.8,164.9z"/>
				<path class="st3" d="M391.9,180l-23.6-13.6c-0.4-0.3-0.8-0.8-0.8-1.3v-2.8c0-0.4,0.4-0.6,0.8-0.3l23.6,13.6
					c0.4,0.3,0.8,0.8,0.8,1.3v2.8C392.7,180.1,392.3,180.2,391.9,180z"/>
				<path class="st3" d="M380.9,181.3l-12.6-7.3c-0.4-0.3-0.8-0.8-0.8-1.3v-2.8c0-0.4,0.4-0.6,0.8-0.3l12.6,7.3
					c0.4,0.3,0.8,0.8,0.8,1.3v2.8C381.7,181.4,381.3,181.5,380.9,181.3z"/>
				<path class="st3" d="M388.6,198.8l-8.3-4.8c-0.4-0.3-0.8-0.8-0.8-1.3v-2c0-0.4,0.4-0.6,0.8-0.3l8.3,4.8c0.4,0.3,0.8,0.8,0.8,1.3
					v2C389.4,198.9,389.1,199,388.6,198.8z"/>
				<path class="st3" d="M389.3,206l-8.9-5.2c-0.4-0.3-0.8-0.8-0.8-1.3v-2c0-0.4,0.4-0.6,0.8-0.3l8.9,5.2c0.4,0.3,0.8,0.8,0.8,1.3v2
					C390.1,206.2,389.7,206.3,389.3,206z"/>
				<path class="st3" d="M401.4,213l-8.9-5.2c-0.4-0.3-0.8-0.8-0.8-1.3v-2c0-0.4,0.4-0.6,0.8-0.3l8.9,5.2c0.4,0.3,0.8,0.8,0.8,1.3v2
					C402.2,213.1,401.8,213.3,401.4,213z"/>
				<path class="st3" d="M409.5,217.7l-5.1-2.9c-0.4-0.3-0.8-0.8-0.8-1.3v-2c0-0.4,0.4-0.6,0.8-0.3l5.1,2.9c0.4,0.3,0.8,0.8,0.8,1.3
					v2C410.3,217.8,409.9,218,409.5,217.7z"/>
				<path class="st3" d="M415.2,201.1l-31.1-18c-0.4-0.3-0.8-0.8-0.8-1.3v-2.8c0-0.4,0.4-0.6,0.8-0.3l31.1,18
					c0.4,0.3,0.8,0.8,0.8,1.3v2.8C416,201.2,415.7,201.4,415.2,201.1z"/>
				<path class="st3" d="M416.5,194.2l-21.5-12.4c-0.4-0.3-0.8-0.8-0.8-1.3v-2.8c0-0.4,0.4-0.6,0.8-0.3l21.5,12.4
					c0.4,0.3,0.8,0.8,0.8,1.3v2.8C417.3,194.3,416.9,194.4,416.5,194.2z"/>
				<path class="st3" d="M435.9,205.4l-15.8-9.1c-0.4-0.3-0.8-0.8-0.8-1.3v-2.8c0-0.4,0.4-0.6,0.8-0.3l15.8,9.1
					c0.4,0.3,0.8,0.8,0.8,1.3v2.8C436.7,205.5,436.3,205.7,435.9,205.4z"/>
				<path class="st3" d="M444.6,210.4l-5.3-3c-0.4-0.3-0.8-0.8-0.8-1.3v-2.8c0-0.4,0.4-0.6,0.8-0.3l5.3,3c0.4,0.3,0.8,0.8,0.8,1.3
					v2.8C445.4,210.5,445,210.7,444.6,210.4z"/>
				<path class="st3" d="M397.3,175.6l-15.5-8.9c-0.4-0.3-0.8-0.8-0.8-1.3v-2.8c0-0.4,0.4-0.6,0.8-0.3l15.5,8.9
					c0.4,0.3,0.8,0.8,0.8,1.3v2.8C398.1,175.7,397.8,175.8,397.3,175.6z"/>
				<path class="st3" d="M409.6,182.6l-8.9-5.2c-0.4-0.3-0.8-0.8-0.8-1.3v-2.8c0-0.4,0.4-0.6,0.8-0.3l8.9,5.2
					c0.4,0.3,0.8,0.8,0.8,1.3v2.8C410.4,182.8,410,182.9,409.6,182.6z"/>
				<path class="st3" d="M439.8,200.1l-26.9-15.5c-0.4-0.3-0.8-0.8-0.8-1.3v-2.8c0-0.4,0.4-0.6,0.8-0.3l26.9,15.5
					c0.4,0.3,0.8,0.8,0.8,1.3v2.8C440.6,200.2,440.2,200.3,439.8,200.1z"/>
				<path class="st3" d="M452.9,207.7l-9.7-5.6c-0.4-0.3-0.8-0.8-0.8-1.3V198c0-0.4,0.4-0.6,0.8-0.3l9.7,5.6
					c0.4,0.3,0.8,0.8,0.8,1.3v2.8C453.7,207.8,453.4,207.9,452.9,207.7z"/>
				<path class="st3" d="M402.7,171.1l-4.8-2.8c-0.4-0.3-0.8-0.8-0.8-1.3v-2.8c0-0.4,0.4-0.6,0.8-0.3l4.8,2.8
					c0.4,0.3,0.8,0.8,0.8,1.3v2.8C403.5,171.2,403.1,171.4,402.7,171.1z"/>
				<path class="st3" d="M428.3,185.9l-22.5-13c-0.4-0.3-0.8-0.8-0.8-1.3v-2.8c0-0.4,0.4-0.6,0.8-0.3l22.5,13
					c0.4,0.3,0.8,0.8,0.8,1.3v2.8C429.1,186,428.8,186.2,428.3,185.9z"/>
				<path class="st3" d="M446.3,196.3l-15.1-8.7c-0.4-0.3-0.8-0.8-0.8-1.3v-2.8c0-0.4,0.4-0.6,0.8-0.3l15.1,8.7
					c0.4,0.3,0.8,0.8,0.8,1.3v2.8C447.1,196.4,446.8,196.6,446.3,196.3z"/>
				<path class="st2" d="M401.8,160.4l-24.2-14c-0.4-0.3-0.8-0.8-0.8-1.3v-4.3c0-0.4,0.4-0.6,0.8-0.3l24.2,14
					c0.4,0.3,0.8,0.8,0.8,1.3v4.3C402.6,160.5,402.2,160.7,401.8,160.4z"/>
				<path class="st2" d="M430.2,176.8l-24.5-14.2c-0.4-0.3-0.8-0.8-0.8-1.3v-4.3c0-0.4,0.4-0.6,0.8-0.3l24.5,14.2
					c0.4,0.3,0.8,0.8,0.8,1.3v4.3C431,176.9,430.6,177,430.2,176.8z"/>
				<path class="st4" d="M377.8,194.5c0,3.9-2.7,5.5-6.1,3.5c-3.4-2-6.1-6.7-6.1-10.6s2.7-5.5,6.1-3.5
					C375,185.8,377.8,190.6,377.8,194.5z"/>
			</g>
			<g>
				
					<linearGradient id="SVGID_3_" gradientUnits="userSpaceOnUse" x1="367.0351" y1="-3657.9622" x2="456.1923" y2="-3657.9622" gradientTransform="matrix(1 0.5774 0 1 0 3545.3845)">
					<stop  offset="0" style="stop-color:#FFA744"/>
					<stop  offset="0.2511" style="stop-color:#FFB663"/>
					<stop  offset="0.7976" style="stop-color:#FFDCB2"/>
					<stop  offset="1" style="stop-color:#FFEBD1"/>
				</linearGradient>
				<polygon class="st5" points="367,126.5 367,72.2 456.2,123.7 456.2,177.9 				"/>
				<g>
					<path class="st6" d="M367.3,72.6l88.7,51.2v53.7l-88.7-51.2V72.6 M366.8,71.8v54.8l89.7,51.8v-54.8L366.8,71.8L366.8,71.8z"/>
				</g>
			</g>
		</g>
	</g>
	<g>
		<linearGradient id="SVGID_4_" gradientUnits="userSpaceOnUse" x1="104.8062" y1="243.6587" x2="389.2177" y2="243.6587">
			<stop  offset="0" style="stop-color:#B4ACBF"/>
			<stop  offset="0.5146" style="stop-color:#D1C8DE"/>
			<stop  offset="1" style="stop-color:#F0E5FF"/>
		</linearGradient>
		<path class="st7" d="M383,486.4l-271.9-157c-3.4-2-6.3-6.4-6.3-9.9V3.6c0-3.4,2.8-4.6,6.3-2.6l271.9,157c3.4,2,6.3,6.4,6.3,9.9
			v315.9C389.2,487.2,386.4,488.3,383,486.4z"/>
		<g>
			<path class="st8" d="M378.9,489L107,332.1c-3.4-2-6.3-6.4-6.3-9.9V6.3c0-3.4,2.8-4.6,6.3-2.6l271.9,157c3.4,2,6.3,6.4,6.3,9.9
				v315.9C385.2,489.8,382.4,491,378.9,489z"/>
			<g>
				<path class="st9" d="M114.7,21.4c0,1.5-1.1,2.2-2.4,1.4c-1.3-0.8-2.4-2.6-2.4-4.2s1.1-2.2,2.4-1.4
					C113.6,18,114.7,19.9,114.7,21.4z"/>
				<path class="st10" d="M123.8,26.7c0,1.5-1.1,2.2-2.4,1.4s-2.4-2.6-2.4-4.2s1.1-2.2,2.4-1.4S123.8,25.1,123.8,26.7z"/>
				<path class="st11" d="M133,31.9c0,1.5-1.1,2.2-2.4,1.4c-1.3-0.8-2.4-2.6-2.4-4.2s1.1-2.2,2.4-1.4C131.9,28.5,133,30.4,133,31.9z
					"/>
			</g>
		</g>
		<g>
			<defs>
				<path id="SVGID_5_" d="M378.9,489L107,332.1c-3.4-2-6.3-6.4-6.3-9.9V6.3c0-3.4,2.8-4.6,6.3-2.6l271.9,157c3.4,2,6.3,6.4,6.3,9.9
					v315.9C385.2,489.8,382.4,491,378.9,489z"/>
			</defs>
			<clipPath id="SVGID_6_">
				<use xlink:href="#SVGID_5_"  style="overflow:visible;"/>
			</clipPath>
			<linearGradient id="SVGID_7_" gradientUnits="userSpaceOnUse" x1="100.7823" y1="115.8461" x2="385.1938" y2="115.8461">
				<stop  offset="0" style="stop-color:#F0E5FF"/>
				<stop  offset="1" style="stop-color:#FFFFFF"/>
			</linearGradient>
			<polygon class="st12" points="385.2,206 100.8,41.8 100.8,25.7 385.2,189.9 			"/>
			<linearGradient id="SVGID_8_" gradientUnits="userSpaceOnUse" x1="100.7823" y1="286.8797" x2="385.1938" y2="286.8797">
				<stop  offset="0" style="stop-color:#F0E5FF"/>
				<stop  offset="1" style="stop-color:#FFFFFF"/>
			</linearGradient>
			<polygon class="st13" points="385.2,492.6 100.8,328.4 100.8,81.1 385.2,245.3 			"/>
			<linearGradient id="SVGID_9_" gradientUnits="userSpaceOnUse" x1="100.7823" y1="143.5606" x2="385.1938" y2="143.5606">
				<stop  offset="0" style="stop-color:#2F1359"/>
				<stop  offset="0.6338" style="stop-color:#3F1A78"/>
				<stop  offset="1" style="stop-color:#491E8C"/>
			</linearGradient>
			<polygon class="st14" points="385.2,206 100.8,41.8 100.8,81.1 385.2,245.3 			"/>
			<g class="st15">
				<path class="st16" d="M330.7,162.3c0,0,0.1,0,0.2,0.1l21.4,12.3c0.3,0.2,0.5,0.5,0.5,0.7v8c0,0,0,0,0,0c0,0-0.1,0-0.2-0.1
					L331.2,171c-0.3-0.2-0.5-0.5-0.5-0.7L330.7,162.3C330.7,162.3,330.7,162.3,330.7,162.3C330.7,162.3,330.7,162.3,330.7,162.3
					 M330.7,162c-0.2,0-0.3,0.1-0.3,0.4v8c0,0.3,0.3,0.8,0.6,1l21.4,12.3c0.1,0.1,0.2,0.1,0.3,0.1c0.2,0,0.3-0.1,0.3-0.4v-8
					c0-0.3-0.3-0.8-0.6-1L331,162C330.9,162,330.8,162,330.7,162L330.7,162z"/>
			</g>
			<line class="st17" x1="132.1" y1="113" x2="353.4" y2="240.8"/>
			<path class="st18" d="M348.5,178.1l-13.7-7.9c-0.3-0.2-0.6-0.6-0.6-1v-1.3c0-0.3,0.3-0.5,0.6-0.3l13.7,7.9c0.3,0.2,0.6,0.6,0.6,1
				v1.3C349.1,178.2,348.9,178.3,348.5,178.1z"/>
			<g class="st15">
				<path class="st16" d="M340.3,224.7c0,0,0.1,0,0.2,0.1l11.8,6.8c0.3,0.2,0.5,0.5,0.5,0.7v3.5c0,0,0,0,0,0c0,0-0.1,0-0.2-0.1
					l-11.8-6.8c-0.3-0.2-0.5-0.5-0.5-0.7L340.3,224.7C340.3,224.7,340.3,224.7,340.3,224.7C340.3,224.7,340.3,224.7,340.3,224.7
					 M340.3,224.4c-0.2,0-0.3,0.1-0.3,0.4v3.5c0,0.3,0.3,0.8,0.6,1l11.8,6.8c0.1,0.1,0.2,0.1,0.3,0.1c0.2,0,0.3-0.1,0.3-0.4v-3.5
					c0-0.3-0.3-0.8-0.6-1l-11.8-6.8C340.5,224.4,340.4,224.4,340.3,224.4L340.3,224.4z"/>
			</g>
			<g class="st15">
				<path class="st16" d="M323.1,219.1l-3.7-2.1c-0.1-0.1-0.2-0.2-0.2-0.3v-4.3c0-0.1,0.1-0.1,0.2-0.1l3.7,2.1
					c0.1,0.1,0.2,0.2,0.2,0.3v4.3C323.3,219.1,323.2,219.1,323.1,219.1z"/>
			</g>
			<g class="st15">
				<path class="st16" d="M330.4,223.3l-3.7-2.1c-0.1-0.1-0.2-0.2-0.2-0.3v-4.3c0-0.1,0.1-0.1,0.2-0.1l3.7,2.1
					c0.1,0.1,0.2,0.2,0.2,0.3v4.3C330.6,223.3,330.5,223.4,330.4,223.3z"/>
			</g>
			<g class="st15">
				<path class="st16" d="M337.4,227.3l-3.7-2.1c-0.1-0.1-0.2-0.2-0.2-0.3v-4.3c0-0.1,0.1-0.1,0.2-0.1l3.7,2.1
					c0.1,0.1,0.2,0.2,0.2,0.3v4.3C337.6,227.3,337.5,227.4,337.4,227.3z"/>
			</g>
			<path class="st18" d="M350.2,233.7l-7.4-4.3c-0.3-0.2-0.6-0.6-0.6-1v-1.3c0-0.3,0.3-0.5,0.6-0.3l7.4,4.3c0.3,0.2,0.6,0.6,0.6,1
				v1.3C350.8,233.7,350.5,233.9,350.2,233.7z"/>
			<path class="st18" d="M326.2,165.2l-7.7-4.5c-0.3-0.2-0.6-0.6-0.6-1v-1.3c0-0.3,0.3-0.5,0.6-0.3l7.7,4.5c0.3,0.2,0.6,0.6,0.6,1
				v1.3C326.8,165.2,326.5,165.4,326.2,165.2z"/>
			<path class="st18" d="M158.5,123.1l-25.9-15c-0.3-0.2-0.6-0.6-0.6-1v-1.3c0-0.3,0.3-0.5,0.6-0.3l25.9,15c0.3,0.2,0.6,0.6,0.6,1
				v1.3C159.2,123.2,158.9,123.3,158.5,123.1z"/>
			<path class="st18" d="M179.4,135.2l-14.5-8.4c-0.3-0.2-0.6-0.6-0.6-1v-1.3c0-0.3,0.3-0.5,0.6-0.3l14.5,8.4c0.3,0.2,0.6,0.6,0.6,1
				v1.3C180.1,135.3,179.8,135.4,179.4,135.2z"/>
			<path class="st18" d="M204.7,149.8l-19.2-11.1c-0.3-0.2-0.6-0.6-0.6-1v-1.3c0-0.3,0.3-0.5,0.6-0.3l19.2,11.1
				c0.3,0.2,0.6,0.6,0.6,1v1.3C205.3,149.8,205,150,204.7,149.8z"/>
			<path class="st18" d="M215,155.7l-4.3-2.5c-0.3-0.2-0.6-0.6-0.6-1v-1.3c0-0.3,0.3-0.5,0.6-0.3l4.3,2.5c0.3,0.2,0.6,0.6,0.6,1v1.3
				C215.6,155.8,215.3,155.9,215,155.7z"/>
			<g class="st15">
				<g>
					<path class="st2" d="M136.6,271.5l-3.7-2.1c-0.3-0.2-0.6-0.6-0.6-1V265c0-0.3,0.3-0.5,0.6-0.3l3.7,2.1c0.3,0.2,0.6,0.6,0.6,1
						v3.4C137.2,271.6,136.9,271.7,136.6,271.5z"/>
					<path class="st3" d="M153.8,289.4l-20.8-12c-0.3-0.2-0.6-0.6-0.6-1v-2.2c0-0.3,0.3-0.5,0.6-0.3l20.8,12c0.3,0.2,0.6,0.6,0.6,1
						v2.2C154.4,289.5,154.1,289.6,153.8,289.4z"/>
					<path class="st3" d="M141.2,288.1l-8.3-4.8c-0.3-0.2-0.6-0.6-0.6-1v-2.2c0-0.3,0.3-0.5,0.6-0.3l8.3,4.8c0.3,0.2,0.6,0.6,0.6,1
						v2.2C141.8,288.2,141.6,288.3,141.2,288.1z"/>
					<path class="st3" d="M151.5,300l-18.5-10.7c-0.3-0.2-0.6-0.6-0.6-1l0-2.2c0-0.3,0.3-0.5,0.6-0.3l18.5,10.7
						c0.3,0.2,0.6,0.6,0.6,1v2.2C152.1,300.1,151.8,300.2,151.5,300z"/>
					<path class="st3" d="M142.8,301l-9.9-5.7c-0.3-0.2-0.6-0.6-0.6-1v-2.2c0-0.3,0.3-0.5,0.6-0.3l9.9,5.7c0.3,0.2,0.6,0.6,0.6,1
						v2.2C143.5,301.1,143.2,301.2,142.8,301z"/>
					<path class="st3" d="M148.9,314.7l-6.5-3.8c-0.3-0.2-0.6-0.6-0.6-1v-1.6c0-0.3,0.3-0.5,0.6-0.3l6.5,3.8c0.3,0.2,0.6,0.6,0.6,1
						v1.6C149.6,314.8,149.3,314.9,148.9,314.7z"/>
					<path class="st3" d="M149.5,320.4l-7-4.1c-0.3-0.2-0.6-0.6-0.6-1v-1.6c0-0.3,0.3-0.5,0.6-0.3l7,4.1c0.3,0.2,0.6,0.6,0.6,1v1.6
						C150.1,320.5,149.8,320.6,149.5,320.4z"/>
					<path class="st3" d="M158.9,325.9l-7-4.1c-0.3-0.2-0.6-0.6-0.6-1v-1.6c0-0.3,0.3-0.5,0.6-0.3l7,4.1c0.3,0.2,0.6,0.6,0.6,1v1.6
						C159.6,326,159.3,326.1,158.9,325.9z"/>
					<path class="st3" d="M165.3,329.6l-4-2.3c-0.3-0.2-0.6-0.6-0.6-1v-1.6c0-0.3,0.3-0.5,0.6-0.3l4,2.3c0.3,0.2,0.6,0.6,0.6,1v1.6
						C165.9,329.7,165.7,329.8,165.3,329.6z"/>
					<path class="st3" d="M169.8,316.6l-24.4-14.1c-0.3-0.2-0.6-0.6-0.6-1v-2.2c0-0.3,0.3-0.5,0.6-0.3l24.4,14.1
						c0.3,0.2,0.6,0.6,0.6,1v2.2C170.5,316.6,170.2,316.8,169.8,316.6z"/>
					<path class="st3" d="M170.8,311.1l-16.9-9.8c-0.3-0.2-0.6-0.6-0.6-1v-2.2c0-0.3,0.3-0.5,0.6-0.3l16.9,9.8
						c0.3,0.2,0.6,0.6,0.6,1v2.2C171.4,311.2,171.1,311.3,170.8,311.1z"/>
					<path class="st3" d="M186,319.9l-12.4-7.2c-0.3-0.2-0.6-0.6-0.6-1v-2.2c0-0.3,0.3-0.5,0.6-0.3l12.4,7.2c0.3,0.2,0.6,0.6,0.6,1
						v2.2C186.7,320,186.4,320.1,186,319.9z"/>
					<path class="st3" d="M192.9,323.9l-4.1-2.4c-0.3-0.2-0.6-0.6-0.6-1v-2.2c0-0.3,0.3-0.5,0.6-0.3l4.1,2.4c0.3,0.2,0.6,0.6,0.6,1
						v2.2C193.5,323.9,193.2,324.1,192.9,323.9z"/>
					<path class="st3" d="M155.8,296.5l-12.2-7c-0.3-0.2-0.6-0.6-0.6-1l0-2.2c0-0.3,0.3-0.5,0.6-0.3l12.2,7c0.3,0.2,0.6,0.6,0.6,1
						l0,2.2C156.4,296.6,156.1,296.7,155.8,296.5z"/>
					<path class="st3" d="M165.4,302.1l-7-4.1c-0.3-0.2-0.6-0.6-0.6-1v-2.2c0-0.3,0.3-0.5,0.6-0.3l7,4.1c0.3,0.2,0.6,0.6,0.6,1v2.2
						C166,302.1,165.7,302.3,165.4,302.1z"/>
					<path class="st3" d="M189.1,315.8L168,303.5c-0.3-0.2-0.6-0.6-0.6-1v-2.2c0-0.3,0.3-0.5,0.6-0.3l21.1,12.2
						c0.3,0.2,0.6,0.6,0.6,1v2.2C189.7,315.8,189.4,316,189.1,315.8z"/>
					<path class="st3" d="M199.4,321.7l-7.6-4.4c-0.3-0.2-0.6-0.6-0.6-1v-2.2c0-0.3,0.3-0.5,0.6-0.3l7.6,4.4c0.3,0.2,0.6,0.6,0.6,1
						v2.2C200,321.8,199.8,321.9,199.4,321.7z"/>
					<path class="st3" d="M160,293l-3.8-2.2c-0.3-0.2-0.6-0.6-0.6-1v-2.2c0-0.3,0.3-0.5,0.6-0.3l3.8,2.2c0.3,0.2,0.6,0.6,0.6,1v2.2
						C160.6,293.1,160.3,293.2,160,293z"/>
					<path class="st3" d="M180.1,304.6l-17.7-10.2c-0.3-0.2-0.6-0.6-0.6-1v-2.2c0-0.3,0.3-0.5,0.6-0.3l17.7,10.2
						c0.3,0.2,0.6,0.6,0.6,1v2.2C180.7,304.7,180.5,304.8,180.1,304.6z"/>
					<path class="st3" d="M194.2,312.8l-11.8-6.8c-0.3-0.2-0.6-0.6-0.6-1v-2.2c0-0.3,0.3-0.5,0.6-0.3l11.8,6.8
						c0.3,0.2,0.6,0.6,0.6,1v2.2C194.9,312.9,194.6,313,194.2,312.8z"/>
					<path class="st2" d="M159.3,284.6l-19-11c-0.3-0.2-0.6-0.6-0.6-1v-3.4c0-0.3,0.3-0.5,0.6-0.3l19,11c0.3,0.2,0.6,0.6,0.6,1v3.4
						C159.9,284.7,159.6,284.8,159.3,284.6z"/>
					<path class="st2" d="M181.6,297.5l-19.2-11.1c-0.3-0.2-0.6-0.6-0.6-1V282c0-0.3,0.3-0.5,0.6-0.3l19.2,11.1
						c0.3,0.2,0.6,0.6,0.6,1v3.4C182.2,297.5,181.9,297.7,181.6,297.5z"/>
					<path class="st4" d="M140.4,311.3c0,3.1-2.1,4.3-4.8,2.8c-2.7-1.5-4.8-5.3-4.8-8.3c0-3.1,2.1-4.3,4.8-2.8
						C138.3,304.6,140.4,308.3,140.4,311.3z"/>
				</g>
				<g>
					<linearGradient id="SVGID_10_" gradientUnits="userSpaceOnUse" x1="132.0508" y1="256.8694" x2="201.9165" y2="256.8694">
						<stop  offset="0" style="stop-color:#E0D1FF"/>
						<stop  offset="1" style="stop-color:#F0E7FF"/>
					</linearGradient>
					<polygon class="st19" points="132.1,257.9 132.1,215.5 201.9,255.8 201.9,298.3 					"/>
					<g>
						<path class="st6" d="M132.3,215.9l69.4,40v41.9l-69.4-40V215.9 M131.8,215v43l70.4,40.6v-43L131.8,215L131.8,215z"/>
					</g>
				</g>
			</g>
			<g class="st15">
				<g>
					<path class="st2" d="M212,315l-3.7-2.1c-0.3-0.2-0.6-0.6-0.6-1v-3.4c0-0.3,0.3-0.5,0.6-0.3l3.7,2.1c0.3,0.2,0.6,0.6,0.6,1v3.4
						C212.6,315.1,212.3,315.2,212,315z"/>
					<path class="st3" d="M229.1,332.9l-20.8-12c-0.3-0.2-0.6-0.6-0.6-1v-2.2c0-0.3,0.3-0.5,0.6-0.3l20.8,12c0.3,0.2,0.6,0.6,0.6,1
						v2.2C229.8,333,229.5,333.1,229.1,332.9z"/>
					<path class="st3" d="M216.6,331.6l-8.3-4.8c-0.3-0.2-0.6-0.6-0.6-1v-2.2c0-0.3,0.3-0.5,0.6-0.3l8.3,4.8c0.3,0.2,0.6,0.6,0.6,1
						v2.2C217.2,331.7,216.9,331.8,216.6,331.6z"/>
					<path class="st3" d="M226.9,343.5l-18.5-10.7c-0.3-0.2-0.6-0.6-0.6-1v-2.2c0-0.3,0.3-0.5,0.6-0.3l18.5,10.7
						c0.3,0.2,0.6,0.6,0.6,1v2.2C227.5,343.6,227.2,343.7,226.9,343.5z"/>
					<path class="st3" d="M218.2,344.5l-9.9-5.7c-0.3-0.2-0.6-0.6-0.6-1v-2.2c0-0.3,0.3-0.5,0.6-0.3l9.9,5.7c0.3,0.2,0.6,0.6,0.6,1
						v2.2C218.8,344.6,218.6,344.7,218.2,344.5z"/>
					<path class="st3" d="M224.3,358.2l-6.5-3.8c-0.3-0.2-0.6-0.6-0.6-1v-1.6c0-0.3,0.3-0.5,0.6-0.3l6.5,3.8c0.3,0.2,0.6,0.6,0.6,1
						v1.6C224.9,358.3,224.7,358.4,224.3,358.2z"/>
					<path class="st3" d="M224.8,363.9l-7-4.1c-0.3-0.2-0.6-0.6-0.6-1v-1.6c0-0.3,0.3-0.5,0.6-0.3l7,4.1c0.3,0.2,0.6,0.6,0.6,1v1.6
						C225.5,364,225.2,364.1,224.8,363.9z"/>
					<path class="st3" d="M234.3,369.4l-7-4.1c-0.3-0.2-0.6-0.6-0.6-1v-1.6c0-0.3,0.3-0.5,0.6-0.3l7,4.1c0.3,0.2,0.6,0.6,0.6,1v1.6
						C234.9,369.5,234.7,369.6,234.3,369.4z"/>
					<path class="st3" d="M240.7,373.1l-4-2.3c-0.3-0.2-0.6-0.6-0.6-1v-1.6c0-0.3,0.3-0.5,0.6-0.3l4,2.3c0.3,0.2,0.6,0.6,0.6,1v1.6
						C241.3,373.2,241,373.3,240.7,373.1z"/>
					<path class="st3" d="M245.2,360.1L220.8,346c-0.3-0.2-0.6-0.6-0.6-1v-2.2c0-0.3,0.3-0.5,0.6-0.3l24.4,14.1
						c0.3,0.2,0.6,0.6,0.6,1v2.2C245.8,360.2,245.6,360.3,245.2,360.1z"/>
					<path class="st3" d="M246.2,354.6l-16.9-9.8c-0.3-0.2-0.6-0.6-0.6-1v-2.2c0-0.3,0.3-0.5,0.6-0.3l16.9,9.8
						c0.3,0.2,0.6,0.6,0.6,1v2.2C246.8,354.7,246.5,354.8,246.2,354.6z"/>
					<path class="st3" d="M261.4,363.4l-12.4-7.2c-0.3-0.2-0.6-0.6-0.6-1v-2.2c0-0.3,0.3-0.5,0.6-0.3l12.4,7.2
						c0.3,0.2,0.6,0.6,0.6,1v2.2C262,363.5,261.8,363.6,261.4,363.4z"/>
					<path class="st3" d="M268.2,367.4l-4.1-2.4c-0.3-0.2-0.6-0.6-0.6-1v-2.2c0-0.3,0.3-0.5,0.6-0.3l4.1,2.4c0.3,0.2,0.6,0.6,0.6,1
						v2.2C268.9,367.5,268.6,367.6,268.2,367.4z"/>
					<path class="st3" d="M231.2,340l-12.2-7c-0.3-0.2-0.6-0.6-0.6-1v-2.2c0-0.3,0.3-0.5,0.6-0.3l12.2,7c0.3,0.2,0.6,0.6,0.6,1v2.2
						C231.8,340.1,231.5,340.2,231.2,340z"/>
					<path class="st3" d="M240.8,345.6l-7-4.1c-0.3-0.2-0.6-0.6-0.6-1v-2.2c0-0.3,0.3-0.5,0.6-0.3l7,4.1c0.3,0.2,0.6,0.6,0.6,1v2.2
						C241.4,345.7,241.1,345.8,240.8,345.6z"/>
					<path class="st3" d="M264.5,359.3l-21.1-12.2c-0.3-0.2-0.6-0.6-0.6-1v-2.2c0-0.3,0.3-0.5,0.6-0.3l21.1,12.2
						c0.3,0.2,0.6,0.6,0.6,1v2.2C265.1,359.4,264.8,359.5,264.5,359.3z"/>
					<path class="st3" d="M274.8,365.2l-7.6-4.4c-0.3-0.2-0.6-0.6-0.6-1v-2.2c0-0.3,0.3-0.5,0.6-0.3l7.6,4.4c0.3,0.2,0.6,0.6,0.6,1
						v2.2C275.4,365.3,275.1,365.4,274.8,365.2z"/>
					<path class="st3" d="M235.3,336.5l-3.8-2.2c-0.3-0.2-0.6-0.6-0.6-1v-2.2c0-0.3,0.3-0.5,0.6-0.3l3.8,2.2c0.3,0.2,0.6,0.6,0.6,1
						v2.2C236,336.6,235.7,336.7,235.3,336.5z"/>
					<path class="st3" d="M255.5,348.2l-17.7-10.2c-0.3-0.2-0.6-0.6-0.6-1v-2.2c0-0.3,0.3-0.5,0.6-0.3l17.7,10.2
						c0.3,0.2,0.6,0.6,0.6,1v2.2C256.1,348.2,255.8,348.4,255.5,348.2z"/>
					<path class="st3" d="M269.6,356.3l-11.8-6.8c-0.3-0.2-0.6-0.6-0.6-1v-2.2c0-0.3,0.3-0.5,0.6-0.3l11.8,6.8
						c0.3,0.2,0.6,0.6,0.6,1v2.2C270.2,356.4,269.9,356.5,269.6,356.3z"/>
					<path class="st2" d="M234.7,328.1l-19-11c-0.3-0.2-0.6-0.6-0.6-1v-3.4c0-0.3,0.3-0.5,0.6-0.3l19,11c0.3,0.2,0.6,0.6,0.6,1v3.4
						C235.3,328.2,235,328.3,234.7,328.1z"/>
					<path class="st2" d="M256.9,341l-19.2-11.1c-0.3-0.2-0.6-0.6-0.6-1v-3.4c0-0.3,0.3-0.5,0.6-0.3l19.2,11.1
						c0.3,0.2,0.6,0.6,0.6,1v3.4C257.6,341.1,257.3,341.2,256.9,341z"/>
					<path class="st4" d="M215.8,354.9c0,3.1-2.1,4.3-4.8,2.8c-2.7-1.5-4.8-5.3-4.8-8.3c0-3.1,2.1-4.3,4.8-2.8
						C213.7,348.1,215.8,351.8,215.8,354.9z"/>
				</g>
				<g>
					<linearGradient id="SVGID_11_" gradientUnits="userSpaceOnUse" x1="207.4287" y1="300.3887" x2="277.2939" y2="300.3887">
						<stop  offset="0" style="stop-color:#E0D1FF"/>
						<stop  offset="1" style="stop-color:#F0E7FF"/>
					</linearGradient>
					<polygon class="st20" points="207.4,301.4 207.4,259 277.3,299.3 277.3,341.8 					"/>
					<g>
						<path class="st6" d="M207.7,259.4l69.4,40v41.9l-69.4-40V259.4 M207.2,258.6v43l70.4,40.6v-43L207.2,258.6L207.2,258.6z"/>
					</g>
				</g>
			</g>
			<g class="st15">
				<g>
					<path class="st2" d="M287.6,358.7l-3.7-2.1c-0.3-0.2-0.6-0.6-0.6-1v-3.4c0-0.3,0.3-0.5,0.6-0.3l3.7,2.1c0.3,0.2,0.6,0.6,0.6,1
						v3.4C288.2,358.8,287.9,358.9,287.6,358.7z"/>
					<path class="st3" d="M304.7,376.6l-20.8-12c-0.3-0.2-0.6-0.6-0.6-1v-2.2c0-0.3,0.3-0.5,0.6-0.3l20.8,12c0.3,0.2,0.6,0.6,0.6,1
						v2.2C305.4,376.7,305.1,376.8,304.7,376.6z"/>
					<path class="st3" d="M292.2,375.3l-8.3-4.8c-0.3-0.2-0.6-0.6-0.6-1v-2.2c0-0.3,0.3-0.5,0.6-0.3l8.3,4.8c0.3,0.2,0.6,0.6,0.6,1
						v2.2C292.8,375.4,292.5,375.5,292.2,375.3z"/>
					<path class="st3" d="M302.5,387.1l-18.5-10.7c-0.3-0.2-0.6-0.6-0.6-1v-2.2c0-0.3,0.3-0.5,0.6-0.3l18.5,10.7
						c0.3,0.2,0.6,0.6,0.6,1v2.2C303.1,387.2,302.8,387.3,302.5,387.1z"/>
					<path class="st3" d="M293.8,388.2l-9.9-5.7c-0.3-0.2-0.6-0.6-0.6-1v-2.2c0-0.3,0.3-0.5,0.6-0.3l9.9,5.7c0.3,0.2,0.6,0.6,0.6,1
						v2.2C294.5,388.2,294.2,388.4,293.8,388.2z"/>
					<path class="st3" d="M299.9,401.9l-6.5-3.8c-0.3-0.2-0.6-0.6-0.6-1v-1.6c0-0.3,0.3-0.5,0.6-0.3l6.5,3.8c0.3,0.2,0.6,0.6,0.6,1
						v1.6C300.5,402,300.3,402.1,299.9,401.9z"/>
					<path class="st3" d="M300.4,407.6l-7-4.1c-0.3-0.2-0.6-0.6-0.6-1V401c0-0.3,0.3-0.5,0.6-0.3l7,4.1c0.3,0.2,0.6,0.6,0.6,1v1.6
						C301.1,407.7,300.8,407.8,300.4,407.6z"/>
					<path class="st3" d="M309.9,413.1l-7-4.1c-0.3-0.2-0.6-0.6-0.6-1v-1.6c0-0.3,0.3-0.5,0.6-0.3l7,4.1c0.3,0.2,0.6,0.6,0.6,1v1.6
						C310.5,413.1,310.3,413.3,309.9,413.1z"/>
					<path class="st3" d="M316.3,416.8l-4-2.3c-0.3-0.2-0.6-0.6-0.6-1v-1.6c0-0.3,0.3-0.5,0.6-0.3l4,2.3c0.3,0.2,0.6,0.6,0.6,1v1.6
						C316.9,416.8,316.6,417,316.3,416.8z"/>
					<path class="st3" d="M320.8,403.7l-24.4-14.1c-0.3-0.2-0.6-0.6-0.6-1v-2.2c0-0.3,0.3-0.5,0.6-0.3l24.4,14.1
						c0.3,0.2,0.6,0.6,0.6,1l0,2.2C321.4,403.8,321.2,403.9,320.8,403.7z"/>
					<path class="st3" d="M321.8,398.3l-16.9-9.8c-0.3-0.2-0.6-0.6-0.6-1v-2.2c0-0.3,0.3-0.5,0.6-0.3l16.9,9.8
						c0.3,0.2,0.6,0.6,0.6,1v2.2C322.4,398.4,322.1,398.5,321.8,398.3z"/>
					<path class="st3" d="M337,407.1l-12.4-7.2c-0.3-0.2-0.6-0.6-0.6-1v-2.2c0-0.3,0.3-0.5,0.6-0.3l12.4,7.2c0.3,0.2,0.6,0.6,0.6,1
						v2.2C337.6,407.2,337.4,407.3,337,407.1z"/>
					<path class="st3" d="M343.9,411l-4.1-2.4c-0.3-0.2-0.6-0.6-0.6-1v-2.2c0-0.3,0.3-0.5,0.6-0.3l4.1,2.4c0.3,0.2,0.6,0.6,0.6,1
						v2.2C344.5,411.1,344.2,411.2,343.9,411z"/>
					<path class="st3" d="M306.8,383.7l-12.2-7c-0.3-0.2-0.6-0.6-0.6-1v-2.2c0-0.3,0.3-0.5,0.6-0.3l12.2,7c0.3,0.2,0.6,0.6,0.6,1
						v2.2C307.4,383.8,307.1,383.9,306.8,383.7z"/>
					<path class="st3" d="M316.4,389.2l-7-4.1c-0.3-0.2-0.6-0.6-0.6-1V382c0-0.3,0.3-0.5,0.6-0.3l7,4.1c0.3,0.2,0.6,0.6,0.6,1v2.2
						C317,389.3,316.7,389.4,316.4,389.2z"/>
					<path class="st3" d="M340.1,402.9l-21.1-12.2c-0.3-0.2-0.6-0.6-0.6-1v-2.2c0-0.3,0.3-0.5,0.6-0.3l21.1,12.2
						c0.3,0.2,0.6,0.6,0.6,1v2.2C340.7,403,340.4,403.1,340.1,402.9z"/>
					<path class="st3" d="M350.4,408.9l-7.6-4.4c-0.3-0.2-0.6-0.6-0.6-1v-2.2c0-0.3,0.3-0.5,0.6-0.3l7.6,4.4c0.3,0.2,0.6,0.6,0.6,1
						v2.2C351,409,350.7,409.1,350.4,408.9z"/>
					<path class="st3" d="M310.9,380.2l-3.8-2.2c-0.3-0.2-0.6-0.6-0.6-1v-2.2c0-0.3,0.3-0.5,0.6-0.3l3.8,2.2c0.3,0.2,0.6,0.6,0.6,1
						v2.2C311.6,380.2,311.3,380.4,310.9,380.2z"/>
					<path class="st3" d="M331.1,391.8l-17.7-10.2c-0.3-0.2-0.6-0.6-0.6-1v-2.2c0-0.3,0.3-0.5,0.6-0.3l17.7,10.2
						c0.3,0.2,0.6,0.6,0.6,1v2.2C331.7,391.9,331.4,392,331.1,391.8z"/>
					<path class="st3" d="M345.2,400l-11.8-6.8c-0.3-0.2-0.6-0.6-0.6-1v-2.2c0-0.3,0.3-0.5,0.6-0.3l11.8,6.8c0.3,0.2,0.6,0.6,0.6,1
						v2.2C345.8,400,345.5,400.2,345.2,400z"/>
					<path class="st2" d="M310.3,371.8l-19-11c-0.3-0.2-0.6-0.6-0.6-1v-3.4c0-0.3,0.3-0.5,0.6-0.3l19,11c0.3,0.2,0.6,0.6,0.6,1v3.4
						C310.9,371.9,310.6,372,310.3,371.8z"/>
					<path class="st2" d="M332.5,384.6l-19.2-11.1c-0.3-0.2-0.6-0.6-0.6-1v-3.4c0-0.3,0.3-0.5,0.6-0.3l19.2,11.1
						c0.3,0.2,0.6,0.6,0.6,1v3.4C333.2,384.7,332.9,384.8,332.5,384.6z"/>
					<path class="st4" d="M291.4,398.5c0,3.1-2.1,4.3-4.8,2.8c-2.7-1.5-4.8-5.3-4.8-8.3s2.1-4.3,4.8-2.8
						C289.3,391.7,291.4,395.4,291.4,398.5z"/>
				</g>
				<g>
					<linearGradient id="SVGID_12_" gradientUnits="userSpaceOnUse" x1="283.0293" y1="344.0371" x2="352.8955" y2="344.0371">
						<stop  offset="0" style="stop-color:#E0D1FF"/>
						<stop  offset="1" style="stop-color:#F0E7FF"/>
					</linearGradient>
					<polygon class="st21" points="283,345.1 283,302.6 352.9,343 352.9,385.4 					"/>
					<g>
						<path class="st6" d="M283.3,303.1l69.4,40V385l-69.4-40V303.1 M282.8,302.2v43l70.4,40.6v-43L282.8,302.2L282.8,302.2z"/>
					</g>
				</g>
			</g>
			<g class="st15">
				<g>
					<path class="st2" d="M287,218.2l-3.7-2.1c-0.3-0.2-0.6-0.6-0.6-1v-4.4c0-0.3,0.3-0.5,0.6-0.3l3.7,2.1c0.3,0.2,0.6,0.6,0.6,1
						v4.4C287.6,218.3,287.4,218.4,287,218.2z"/>
					<path class="st2" d="M303.1,236.5l-19.7-11.4c-0.3-0.2-0.6-0.6-0.6-1v-4.4c0-0.3,0.3-0.5,0.6-0.3l19.7,11.4
						c0.3,0.2,0.6,0.6,0.6,1v4.4C303.7,236.5,303.4,236.7,303.1,236.5z"/>
					<path class="st3" d="M304.2,243.2l-20.8-12c-0.3-0.2-0.6-0.6-0.6-1V228c0-0.3,0.3-0.5,0.6-0.3l20.8,12c0.3,0.2,0.6,0.6,0.6,1
						v2.2C304.8,243.3,304.5,243.4,304.2,243.2z"/>
					<path class="st3" d="M291.6,241.9l-8.3-4.8c-0.3-0.2-0.6-0.6-0.6-1v-2.2c0-0.3,0.3-0.5,0.6-0.3l8.3,4.8c0.3,0.2,0.6,0.6,0.6,1
						v2.2C292.2,242,292,242.1,291.6,241.9z"/>
					<path class="st3" d="M301.9,253.8L283.4,243c-0.3-0.2-0.6-0.6-0.6-1v-2.2c0-0.3,0.3-0.5,0.6-0.3l18.5,10.7
						c0.3,0.2,0.6,0.6,0.6,1v2.2C302.5,253.8,302.2,254,301.9,253.8z"/>
					<path class="st3" d="M293.3,254.8l-9.9-5.7c-0.3-0.2-0.6-0.6-0.6-1v-2.2c0-0.3,0.3-0.5,0.6-0.3l9.9,5.7c0.3,0.2,0.6,0.6,0.6,1
						v2.2C293.9,254.8,293.6,255,293.3,254.8z"/>
					<path class="st3" d="M299.4,268.5l-6.5-3.8c-0.3-0.2-0.6-0.6-0.6-1v-1.6c0-0.3,0.3-0.5,0.6-0.3l6.5,3.8c0.3,0.2,0.6,0.6,0.6,1
						v1.6C300,268.6,299.7,268.7,299.4,268.5z"/>
					<path class="st3" d="M299.9,274.2l-7-4.1c-0.3-0.2-0.6-0.6-0.6-1v-1.6c0-0.3,0.3-0.5,0.6-0.3l7,4.1c0.3,0.2,0.6,0.6,0.6,1v1.6
						C300.5,274.3,300.2,274.4,299.9,274.2z"/>
					<path class="st3" d="M309.3,279.7l-7-4.1c-0.3-0.2-0.6-0.6-0.6-1V273c0-0.3,0.3-0.5,0.6-0.3l7,4.1c0.3,0.2,0.6,0.6,0.6,1v1.6
						C310,279.8,309.7,279.9,309.3,279.7z"/>
					<path class="st3" d="M315.7,283.4l-4-2.3c-0.3-0.2-0.6-0.6-0.6-1v-1.6c0-0.3,0.3-0.5,0.6-0.3l4,2.3c0.3,0.2,0.6,0.6,0.6,1v1.6
						C316.4,283.4,316.1,283.6,315.7,283.4z"/>
					<path class="st3" d="M320.2,270.3l-24.4-14.1c-0.3-0.2-0.6-0.6-0.6-1v-2.2c0-0.3,0.3-0.5,0.6-0.3l24.4,14.1
						c0.3,0.2,0.6,0.6,0.6,1v2.2C320.9,270.4,320.6,270.5,320.2,270.3z"/>
					<path class="st3" d="M321.2,264.9l-16.9-9.8c-0.3-0.2-0.6-0.6-0.6-1V252c0-0.3,0.3-0.5,0.6-0.3l16.9,9.8c0.3,0.2,0.6,0.6,0.6,1
						v2.2C321.8,265,321.5,265.1,321.2,264.9z"/>
					<path class="st3" d="M336.4,273.7l-12.4-7.2c-0.3-0.2-0.6-0.6-0.6-1v-2.2c0-0.3,0.3-0.5,0.6-0.3l12.4,7.2
						c0.3,0.2,0.6,0.6,0.6,1v2.2C337.1,273.8,336.8,273.9,336.4,273.7z"/>
					<path class="st3" d="M343.3,277.6l-4.1-2.4c-0.3-0.2-0.6-0.6-0.6-1v-2.2c0-0.3,0.3-0.5,0.6-0.3l4.1,2.4c0.3,0.2,0.6,0.6,0.6,1
						v2.2C343.9,277.7,343.6,277.8,343.3,277.6z"/>
					<path class="st3" d="M306.2,250.3l-12.2-7c-0.3-0.2-0.6-0.6-0.6-1v-2.2c0-0.3,0.3-0.5,0.6-0.3l12.2,7c0.3,0.2,0.6,0.6,0.6,1
						v2.2C306.8,250.4,306.5,250.5,306.2,250.3z"/>
					<path class="st3" d="M315.8,255.8l-7-4.1c-0.3-0.2-0.6-0.6-0.6-1v-2.2c0-0.3,0.3-0.5,0.6-0.3l7,4.1c0.3,0.2,0.6,0.6,0.6,1v2.2
						C316.4,255.9,316.1,256,315.8,255.8z"/>
					<path class="st3" d="M339.5,269.5l-21.1-12.2c-0.3-0.2-0.6-0.6-0.6-1v-2.2c0-0.3,0.3-0.5,0.6-0.3l21.1,12.2
						c0.3,0.2,0.6,0.6,0.6,1v2.2C340.1,269.6,339.8,269.7,339.5,269.5z"/>
					<path class="st3" d="M349.8,275.5l-7.6-4.4c-0.3-0.2-0.6-0.6-0.6-1v-2.2c0-0.3,0.3-0.5,0.6-0.3l7.6,4.4c0.3,0.2,0.6,0.6,0.6,1
						v2.2C350.5,275.6,350.2,275.7,349.8,275.5z"/>
					<path class="st3" d="M310.4,246.8l-3.8-2.2c-0.3-0.2-0.6-0.6-0.6-1v-2.2c0-0.3,0.3-0.5,0.6-0.3l3.8,2.2c0.3,0.2,0.6,0.6,0.6,1
						v2.2C311,246.9,310.7,247,310.4,246.8z"/>
					<path class="st3" d="M330.5,258.4l-17.7-10.2c-0.3-0.2-0.6-0.6-0.6-1V245c0-0.3,0.3-0.5,0.6-0.3l17.7,10.2
						c0.3,0.2,0.6,0.6,0.6,1v2.2C331.1,258.5,330.9,258.6,330.5,258.4z"/>
					<path class="st3" d="M344.6,266.6l-11.8-6.8c-0.3-0.2-0.6-0.6-0.6-1v-2.2c0-0.3,0.3-0.5,0.6-0.3l11.8,6.8
						c0.3,0.2,0.6,0.6,0.6,1v2.2C345.3,266.6,345,266.8,344.6,266.6z"/>
					<path class="st2" d="M309.7,231.3l-19-11c-0.3-0.2-0.6-0.6-0.6-1v-4.4c0-0.3,0.3-0.5,0.6-0.3l19,11c0.3,0.2,0.6,0.6,0.6,1v4.4
						C310.3,231.4,310,231.5,309.7,231.3z"/>
					<path class="st2" d="M332,244.2l-19.2-11.1c-0.3-0.2-0.6-0.6-0.6-1v-4.4c0-0.3,0.3-0.5,0.6-0.3l19.2,11.1
						c0.3,0.2,0.6,0.6,0.6,1v4.4C332.6,244.2,332.3,244.4,332,244.2z"/>
					<path class="st4" d="M290.8,265.1c0,3.1-2.1,4.3-4.8,2.8c-2.7-1.5-4.8-5.3-4.8-8.3s2.1-4.3,4.8-2.8
						C288.7,258.3,290.8,262.1,290.8,265.1z"/>
				</g>
				<g>
					<linearGradient id="SVGID_13_" gradientUnits="userSpaceOnUse" x1="132.0508" y1="205.9319" x2="276.6074" y2="205.9319">
						<stop  offset="0" style="stop-color:#E0D1FF"/>
						<stop  offset="1" style="stop-color:#F0E7FF"/>
					</linearGradient>
					<polygon class="st22" points="132.1,207.6 132.1,120.9 276.6,204.3 276.6,291 					"/>
					<g>
						<path class="st6" d="M132.3,121.3l144.1,83.2v86.1l-144.1-83.2V121.3 M131.8,120.4v87.3l145.1,83.7v-87.3L131.8,120.4
							L131.8,120.4z"/>
					</g>
				</g>
			</g>
			<g class="st15">
				<linearGradient id="SVGID_14_" gradientUnits="userSpaceOnUse" x1="132.0508" y1="375.0869" x2="201.9165" y2="375.0869">
					<stop  offset="0" style="stop-color:#E0D1FF"/>
					<stop  offset="1" style="stop-color:#F0E7FF"/>
				</linearGradient>
				<polygon class="st23" points="132.1,376.1 132.1,333.7 201.9,374 201.9,416.5 				"/>
				<g>
					<path class="st6" d="M132.3,334.1l69.4,40V416l-69.4-40V334.1 M131.8,333.3v43l70.4,40.6v-43L131.8,333.3L131.8,333.3z"/>
				</g>
			</g>
			<g class="st15">
				<linearGradient id="SVGID_15_" gradientUnits="userSpaceOnUse" x1="207.2246" y1="418.4883" x2="277.0898" y2="418.4883">
					<stop  offset="0" style="stop-color:#E0D1FF"/>
					<stop  offset="1" style="stop-color:#F0E7FF"/>
				</linearGradient>
				<polygon class="st24" points="207.2,419.5 207.2,377.1 277.1,417.4 277.1,459.9 				"/>
				<g>
					<path class="st6" d="M207.5,377.5l69.4,40v41.9l-69.4-40V377.5 M207,376.7v43l70.4,40.6v-43L207,376.7L207,376.7z"/>
				</g>
			</g>
			<g class="st15">
				<linearGradient id="SVGID_16_" gradientUnits="userSpaceOnUse" x1="282.9414" y1="462.2041" x2="352.8076" y2="462.2041">
					<stop  offset="0" style="stop-color:#E0D1FF"/>
					<stop  offset="1" style="stop-color:#F0E7FF"/>
				</linearGradient>
				<polygon class="st25" points="282.9,463.3 282.9,420.8 352.8,461.1 352.8,503.6 				"/>
				<g>
					<path class="st6" d="M283.2,421.2l69.4,40v41.9l-69.4-40V421.2 M282.7,420.4v43l70.4,40.6v-43L282.7,420.4L282.7,420.4z"/>
				</g>
			</g>
			<g class="st15">
				<path d="M140.4,52.3v8.6l-7.5-4.3V48L140.4,52.3z M139.2,53.5l-1.4-0.8l-1,2.3l-1.1-3.5l-1.5-0.8v0.1l0.5,0.9
					c0,0.1,0.1,0.2,0.1,0.2v2.6c0,0.1,0,0.2-0.1,0.2l-0.5,0.4v0.1l1.5,0.9V56l-0.5-1c-0.1-0.1-0.1-0.2-0.1-0.3v-2.2l1.3,4.1l0.2,0.1
					l1.1-2.7v2.6c0,0.1,0,0.1,0,0.1l-0.4,0.2V57l2,1.1V58l-0.4-0.7c0,0-0.1-0.1,0-0.2v-3.3c0-0.1,0-0.1,0-0.1L139.2,53.5L139.2,53.5
					z"/>
			</g>
			<g id="Logo_26_" class="st15">
				<g id="Wordmark_27_">
					<path id="M_27_" class="st26" d="M162.9,91c-0.2-0.3-0.4-0.5-0.6-0.7c-0.3-0.2-0.5-0.2-0.7,0l-3.6,4.2l-3.6-8.3
						c-0.1-0.2-0.2-0.4-0.3-0.5c-0.1-0.2-0.3-0.3-0.4-0.4c-0.3-0.1-0.5-0.2-0.6-0.1c-0.2,0.1-0.3,0.3-0.3,0.6v10.9
						c0,0.3,0.1,0.6,0.2,0.9c0.2,0.3,0.4,0.5,0.6,0.6c0.3,0.1,0.5,0.2,0.6,0.1c0.2-0.1,0.2-0.3,0.2-0.6v-8l2.8,6.6
						c0.1,0.2,0.2,0.3,0.3,0.5c0.1,0.2,0.3,0.3,0.4,0.3c0.1,0.1,0.3,0.1,0.4,0.1c0.1,0,0.2-0.1,0.3-0.1l2.8-3.3v7.8
						c0,0.3,0.1,0.6,0.3,0.9c0.2,0.3,0.4,0.5,0.7,0.7c0.3,0.2,0.5,0.2,0.7,0.1c0.2-0.1,0.2-0.3,0.2-0.6V91.8
						C163.2,91.5,163.1,91.3,162.9,91L162.9,91z"/>
					<path id="E_27_" class="st26" d="M173,98.5c0.3,0.1,0.5,0.2,0.6,0.1c0.2-0.1,0.3-0.3,0.3-0.6c0-0.3-0.1-0.6-0.3-0.9
						c-0.2-0.3-0.4-0.5-0.6-0.6l-5.4-3.1c-0.2-0.1-0.5-0.2-0.6-0.1c-0.2,0.1-0.3,0.3-0.3,0.6v10.9c0,0.3,0.1,0.6,0.3,0.9
						c0.2,0.3,0.4,0.5,0.6,0.7l5.4,3.1c0.3,0.1,0.5,0.2,0.6,0.1c0.2-0.1,0.3-0.3,0.3-0.6c0-0.3-0.1-0.6-0.2-0.8l0,0
						c-0.2-0.3-0.4-0.5-0.6-0.7l-4.5-2.6v-3.7l3.8,2.2c0.3,0.1,0.5,0.2,0.6,0.1c0.2-0.1,0.3-0.3,0.3-0.6c0-0.3-0.1-0.6-0.3-0.9
						c-0.2-0.3-0.4-0.5-0.6-0.6l-3.8-2.2v-3.4L173,98.5z"/>
					<path id="S_27_" class="st26" d="M182.4,108.1c-0.5-0.6-1.2-1.2-2-1.9c-0.8-0.7-1.4-1.3-1.8-1.8c-0.4-0.5-0.6-1-0.6-1.5
						c0-0.5,0.2-0.8,0.6-0.9c0.4-0.1,0.9,0.1,1.6,0.4c0.4,0.2,0.9,0.6,1.3,1.1c0.5,0.5,0.8,0.9,1.1,1.4c0.1,0.2,0.3,0.3,0.4,0.4
						c0.2,0.1,0.4,0.2,0.6,0c0.2-0.1,0.2-0.3,0.2-0.5c0-0.3-0.1-0.7-0.4-1.1c-0.4-0.6-0.8-1.2-1.4-1.8c-0.6-0.6-1.2-1.1-1.9-1.5
						c-0.7-0.4-1.4-0.7-2-0.7c-0.6,0-1.1,0.1-1.4,0.5c-0.3,0.4-0.5,0.9-0.5,1.7c0,1.1,0.3,2.1,0.9,3c0.6,0.9,1.4,1.9,2.5,2.7
						c0.9,0.7,1.5,1.4,2,2c0.4,0.6,0.6,1.1,0.6,1.7c0,0.5-0.2,0.7-0.6,0.8c-0.4,0.1-1-0.1-1.6-0.4c-0.5-0.3-1-0.7-1.5-1.1
						c-0.4-0.4-0.8-1-1.2-1.7c-0.2-0.2-0.3-0.4-0.5-0.6c-0.2-0.1-0.4-0.1-0.6,0c-0.2,0.1-0.3,0.3-0.3,0.5c0,0.3,0.1,0.7,0.4,1.1
						c0.5,0.9,1.1,1.6,1.7,2.2l0,0c0.6,0.6,1.3,1.1,2.1,1.6c0.7,0.4,1.4,0.6,2,0.7c0.6,0,1.1-0.1,1.4-0.5c0.4-0.4,0.5-0.9,0.5-1.6
						c0-0.8-0.1-1.6-0.4-2.3C183.4,109.3,183,108.7,182.4,108.1z"/>
					<path id="G_27_" class="st26" d="M195.8,115.9L195.8,115.9c-0.2-0.3-0.4-0.5-0.6-0.7l-2.7-1.6c-0.2-0.1-0.5-0.2-0.6-0.1
						c-0.2,0.1-0.3,0.3-0.3,0.6c0,0.3,0.1,0.6,0.3,0.9c0.2,0.3,0.4,0.5,0.6,0.6l1.8,1v2.6c-0.3,0-0.6-0.1-0.9-0.2
						c-0.4-0.1-0.7-0.3-1.1-0.5c-0.7-0.4-1.4-1-2-1.8c-0.6-0.8-1.1-1.6-1.4-2.5c-0.3-0.9-0.5-1.8-0.5-2.6c0-0.8,0.2-1.5,0.5-2
						c0.3-0.5,0.8-0.8,1.4-0.9c0.6-0.1,1.3,0.1,2,0.5c0.7,0.4,1.3,1,2,1.7c0.1,0.2,0.3,0.3,0.5,0.4c0.2,0.1,0.4,0.1,0.6,0
						c0.2-0.1,0.2-0.3,0.2-0.6c0-0.2,0-0.4-0.1-0.5c-0.1-0.2-0.2-0.4-0.3-0.5c-0.4-0.5-0.8-1-1.3-1.4c-0.5-0.4-1-0.8-1.5-1.1
						c-1.1-0.6-2-0.9-2.9-0.8c-0.9,0.1-1.6,0.5-2.1,1.2c-0.5,0.7-0.8,1.7-0.8,2.9c0,1.2,0.3,2.5,0.8,3.8c0.5,1.3,1.2,2.5,2.1,3.6
						c0.9,1.1,1.9,2,2.9,2.6c0.6,0.4,1.2,0.6,1.8,0.7c0.6,0.1,1.1,0.2,1.6,0.1c0.3,0,0.4-0.3,0.4-0.6v-4.1
						C196,116.5,195.9,116.2,195.8,115.9z"/>
				</g>
				<g id="Brandmark_63_">
					<path id="Core-1_62_" class="st26" d="M140.6,78.6c0.7,0.4,1.3,1.4,1.3,2.2c0,0.8-0.6,1.2-1.3,0.7s-1.3-1.4-1.3-2.2
						C139.3,78.5,139.8,78.2,140.6,78.6z"/>
					<path id="Core-2_62_" class="st26" d="M136.8,79.6c0.7,0.4,1.3,1.4,1.3,2.2s-0.6,1.2-1.3,0.7c-0.7-0.4-1.3-1.4-1.3-2.2
						S136.1,79.2,136.8,79.6z"/>
					<path id="Core-3_62_" class="st26" d="M144.3,83.9c0.7,0.4,1.3,1.4,1.3,2.2s-0.6,1.2-1.3,0.7c-0.7-0.4-1.3-1.4-1.3-2.2
						S143.6,83.5,144.3,83.9z"/>
					<path id="Core-4_62_" class="st26" d="M138.2,85.5c0.7,0.4,1.3,1.4,1.3,2.2s-0.6,1.2-1.3,0.7c-0.7-0.4-1.3-1.4-1.3-2.2
						C136.9,85.5,137.5,85.1,138.2,85.5z"/>
					<path id="Core-5_62_" class="st26" d="M142.9,88.2c0.7,0.4,1.3,1.4,1.3,2.2c0,0.8-0.6,1.2-1.3,0.7c-0.7-0.4-1.3-1.4-1.3-2.2
						S142.2,87.8,142.9,88.2z"/>
					<path id="Center_63_" class="st27" d="M141.3,88.8c0-0.5,0.2-0.9,0.5-1.1c0.3-0.2,0.7-0.1,1.2,0.1c0.4,0.2,0.8,0.6,1.1,1.1
						c0.3-0.4,0.5-0.9,0.5-1.5c-0.1,0-0.1-0.1-0.2-0.1c-0.4-0.3-0.8-0.7-1.2-1.2s-0.5-1.1-0.5-1.6c0-0.5,0.2-0.9,0.5-1.1
						c0.1-0.1,0.2-0.1,0.3-0.1c-0.4-0.7-0.8-1.4-1.4-1.9c-0.1,0.3-0.2,0.6-0.4,0.7c-0.3,0.2-0.7,0.1-1.2-0.1
						c-0.4-0.3-0.8-0.7-1.2-1.2c-0.2-0.4-0.4-0.8-0.4-1.2c-0.5,0-1,0.1-1.4,0.4c0.1,0.2,0.2,0.3,0.3,0.5c0.3,0.5,0.5,1.1,0.5,1.6
						c0,0.5-0.2,0.9-0.5,1.1c-0.3,0.2-0.7,0.1-1.2-0.1c-0.1,0-0.1-0.1-0.2-0.1c0.1,0.7,0.2,1.4,0.5,2.1c0.3-0.1,0.7-0.1,1.1,0.1
						c0.4,0.3,0.8,0.7,1.2,1.2c0.3,0.5,0.5,1.1,0.5,1.6c0,0.3,0,0.5-0.1,0.7c0.3,0.2,0.5,0.4,0.8,0.6c0.3,0.2,0.6,0.3,0.8,0.4
						C141.3,89.3,141.3,89,141.3,88.8z"/>
					<path id="Circles_63_" class="st27" d="M148.8,85.8c-0.2-0.8-0.6-1.6-1-2.4c-0.4-0.8-1-1.5-1.5-2.1c-0.4-0.4-0.8-0.8-1.2-1.1
						c-0.2-0.7-0.6-1.4-1-2.1c-0.4-0.8-1-1.5-1.5-2.1c-0.6-0.6-1.2-1.2-1.9-1.5c-0.7-0.4-1.3-0.6-1.9-0.7c-0.6-0.1-1.1,0.1-1.5,0.3
						c-0.4,0.2-0.7,0.6-1,1c-0.4-0.2-0.9-0.3-1.3-0.4c-0.6-0.1-1.1,0.1-1.5,0.3c-0.4,0.3-0.8,0.7-1,1.2c-0.3,0.5-0.4,1.2-0.4,2
						s0.1,1.6,0.4,2.4c0.2,0.8,0.6,1.6,1,2.4c0,0.1,0.1,0.1,0.1,0.2c-0.1,0.3-0.1,0.6-0.1,1c0,0.8,0.1,1.6,0.4,2.4
						c0.2,0.8,0.6,1.6,1,2.4c0.4,0.8,1,1.5,1.5,2.1c0.6,0.6,1.2,1.2,1.9,1.5c0.7,0.4,1.3,0.6,1.9,0.7c0.1,0,0.3,0,0.4,0
						c0.1,0.2,0.3,0.3,0.4,0.5c0.6,0.6,1.2,1.2,1.9,1.5c0.7,0.4,1.3,0.6,1.9,0.7c0.6,0.1,1.1-0.1,1.5-0.3c0.4-0.3,0.8-0.7,1-1.2
						c0.3-0.5,0.4-1.2,0.4-2c0-0.3,0-0.7-0.1-1.1c0,0,0.1,0,0.1-0.1c0.4-0.3,0.8-0.7,1-1.2c0.3-0.5,0.4-1.2,0.4-2
						C149.2,87.5,149.1,86.7,148.8,85.8z M148.4,89.8c-0.2,0.5-0.5,0.8-0.9,1c-0.1-0.2-0.1-0.5-0.2-0.7c-0.2-0.8-0.6-1.6-1-2.4
						c-0.1-0.3-0.3-0.5-0.5-0.7c0,0.1-0.1,0.2-0.2,0.3c0.1,0.2,0.3,0.4,0.4,0.6c0.4,0.7,0.7,1.4,1,2.2c0.1,0.3,0.2,0.6,0.2,0.9
						c-0.3,0.1-0.7,0.2-1.2,0.2c-0.5,0-1-0.2-1.5-0.5c0,0.2,0,0.3-0.1,0.4c0.6,0.3,1.2,0.5,1.8,0.6c0.4,0,0.8,0,1.1-0.1
						c0,0.2,0,0.5,0,0.7c0,0.7-0.1,1.3-0.3,1.8c-0.2,0.5-0.5,0.8-1,1.1s-0.9,0.3-1.4,0.3c-0.5,0-1.1-0.3-1.7-0.6
						c-0.6-0.3-1.2-0.8-1.7-1.4c-0.1-0.1-0.1-0.1-0.2-0.2c0.3-0.1,0.5-0.1,0.7-0.3c0.4-0.3,0.8-0.7,1-1.2c0-0.1,0.1-0.2,0.1-0.2
						c-0.1-0.1-0.3-0.2-0.4-0.3c0,0.1,0,0.1-0.1,0.2c-0.2,0.5-0.5,0.8-1,1.1c-0.2,0.1-0.5,0.2-0.8,0.3c-0.3-0.4-0.6-0.8-0.8-1.2
						c-0.4-0.7-0.7-1.4-1-2.2c0-0.1,0-0.2-0.1-0.2c-0.1,0-0.3-0.1-0.4-0.2c0,0.1,0.1,0.2,0.1,0.4c0.2,0.8,0.6,1.6,1,2.4
						c0.2,0.4,0.5,0.7,0.7,1.1c-0.1,0-0.1,0-0.2,0c-0.5,0-1.1-0.3-1.7-0.6c-0.6-0.3-1.2-0.8-1.7-1.4c-0.5-0.6-1-1.2-1.4-1.9
						c-0.4-0.7-0.7-1.4-1-2.2c-0.2-0.8-0.3-1.5-0.3-2.2c0-0.2,0-0.5,0-0.7c0.3,0.5,0.7,1,1.1,1.4c0.6,0.6,1.1,1.1,1.8,1.5
						c0-0.2-0.1-0.3-0.1-0.5c-0.5-0.3-1.1-0.8-1.5-1.3c-0.4-0.5-0.8-1-1.2-1.5c0.1-0.2,0.1-0.5,0.2-0.7c0.2-0.5,0.5-0.8,1-1.1
						c0.1-0.1,0.2-0.1,0.4-0.2c-0.1-0.2-0.1-0.4-0.2-0.5c-0.2,0.1-0.3,0.1-0.5,0.2c-0.4,0.3-0.8,0.7-1,1.2c-0.1,0.2-0.1,0.3-0.2,0.5
						c-0.4-0.7-0.7-1.4-0.9-2.1c-0.2-0.8-0.3-1.5-0.3-2.2s0.1-1.3,0.3-1.8c0.2-0.5,0.5-0.8,1-1.1c0.4-0.2,0.9-0.3,1.4-0.3
						c0.3,0,0.6,0.1,1,0.2c-0.2,0.5-0.3,1.1-0.3,1.7c0,0.5,0.1,1.1,0.2,1.7c0.1,0,0.2,0,0.4,0c-0.1-0.5-0.2-1-0.2-1.5
						c0-0.7,0.1-1.3,0.3-1.8c0.1,0.1,0.2,0.1,0.3,0.2c0.6,0.3,1.2,0.8,1.7,1.4c0.3,0.3,0.5,0.6,0.7,0.9c0,0,0.1-0.1,0.2-0.1
						c0,0,0.1,0,0.1-0.1c-0.3-0.4-0.6-0.7-0.9-1c-0.6-0.6-1.2-1.2-1.9-1.5c0,0-0.1,0-0.1-0.1c0.2-0.3,0.5-0.6,0.8-0.7
						c0.4-0.2,0.9-0.3,1.4-0.3c0.5,0,1.1,0.2,1.7,0.6c0.6,0.3,1.2,0.8,1.7,1.4c0.5,0.6,1,1.2,1.4,1.9c0.3,0.5,0.6,1.1,0.8,1.6
						c-0.1,0-0.1-0.1-0.2-0.1c-0.7-0.4-1.3-0.6-1.9-0.7c-0.3,0-0.6,0-0.9,0c0,0.1,0.1,0.1,0.1,0.2c0.1,0.1,0.1,0.2,0.2,0.3
						c0.2,0,0.5-0.1,0.7,0c0.5,0,1.1,0.3,1.7,0.6c0.1,0.1,0.3,0.2,0.4,0.2c0.2,0.8,0.3,1.5,0.3,2.2c0,0.5-0.1,0.9-0.2,1.3
						c0.1,0.1,0.2,0.3,0.4,0.4c0.1-0.4,0.2-0.9,0.2-1.5c0-0.7-0.1-1.3-0.3-2.1c0.3,0.2,0.6,0.5,0.9,0.8c0.5,0.6,1,1.2,1.4,1.9
						s0.7,1.4,1,2.2c0.2,0.8,0.3,1.5,0.3,2.2C148.8,88.7,148.7,89.3,148.4,89.8z"/>
				</g>
			</g>
		</g>
	</g>
	<g>
		
			<linearGradient id="SVGID_17_" gradientUnits="userSpaceOnUse" x1="25.1451" y1="-6850.3467" x2="130.7617" y2="-6850.3467" gradientTransform="matrix(1 1.1547 0 1 0 7090.769)">
			<stop  offset="0" style="stop-color:#B4ACBF"/>
			<stop  offset="0.5146" style="stop-color:#D1C8DE"/>
			<stop  offset="1" style="stop-color:#F0E5FF"/>
		</linearGradient>
		<path class="st28" d="M126,429.2l-96.1-55.5c-2.6-1.5-4.8-4.9-4.8-7.5V233.7c0-2.6,2.1-3.5,4.8-2l96.1,55.5
			c2.6,1.5,4.8,4.9,4.8,7.5v132.5C130.8,429.8,128.6,430.7,126,429.2z"/>
		
			<linearGradient id="SVGID_18_" gradientUnits="userSpaceOnUse" x1="22.0357" y1="-6844.6836" x2="127.6523" y2="-6844.6836" gradientTransform="matrix(1 1.1547 0 1 0 7090.769)">
			<stop  offset="0" style="stop-color:#F0E5FF"/>
			<stop  offset="1" style="stop-color:#FFFFFF"/>
		</linearGradient>
		<path class="st29" d="M122.9,431.3l-96.1-55.5c-2.6-1.5-4.8-4.9-4.8-7.5V235.8c0-2.6,2.1-3.5,4.8-2l96.1,55.5
			c2.6,1.5,4.8,4.9,4.8,7.5v132.5C127.7,431.9,125.5,432.8,122.9,431.3z"/>
		<g>
			<g>
				<path class="st2" d="M35.7,316.7L31,314c-0.4-0.3-0.8-0.8-0.8-1.3v-4.3c0-0.4,0.4-0.6,0.8-0.3l4.7,2.7c0.4,0.3,0.8,0.8,0.8,1.3
					v4.3C36.5,316.8,36.1,316.9,35.7,316.7z"/>
				<path class="st3" d="M57.6,339.5L31,324.2c-0.4-0.3-0.8-0.8-0.8-1.3v-2.8c0-0.4,0.4-0.6,0.8-0.3l26.5,15.3
					c0.4,0.3,0.8,0.8,0.8,1.3v2.8C58.4,339.6,58,339.7,57.6,339.5z"/>
				<path class="st3" d="M41.6,337.8L31,331.7c-0.4-0.3-0.8-0.8-0.8-1.3v-2.8c0-0.4,0.4-0.6,0.8-0.3l10.5,6.1
					c0.4,0.3,0.8,0.8,0.8,1.3l0,2.8C42.4,337.9,42,338.1,41.6,337.8z"/>
				<path class="st3" d="M54.7,352.9L31,339.3c-0.4-0.3-0.8-0.8-0.8-1.3v-2.8c0-0.4,0.4-0.6,0.8-0.3l23.6,13.6
					c0.4,0.3,0.8,0.8,0.8,1.3v2.8C55.5,353,55.1,353.2,54.7,352.9z"/>
				<path class="st3" d="M43.7,354.2L31,346.9c-0.4-0.3-0.8-0.8-0.8-1.3v-2.8c0-0.4,0.4-0.6,0.8-0.3l12.6,7.3
					c0.4,0.3,0.8,0.8,0.8,1.3v2.8C44.5,354.3,44.1,354.5,43.7,354.2z"/>
				<path class="st3" d="M51.4,371.7l-8.3-4.8c-0.4-0.3-0.8-0.8-0.8-1.3v-2c0-0.4,0.4-0.6,0.8-0.3l8.3,4.8c0.4,0.3,0.8,0.8,0.8,1.3
					v2C52.2,371.8,51.9,372,51.4,371.7z"/>
				<path class="st3" d="M52.1,379l-8.9-5.2c-0.4-0.3-0.8-0.8-0.8-1.3v-2c0-0.4,0.4-0.6,0.8-0.3l8.9,5.2c0.4,0.3,0.8,0.8,0.8,1.3v2
					C52.9,379.1,52.5,379.2,52.1,379z"/>
				<path class="st3" d="M64.2,386l-8.9-5.2c-0.4-0.3-0.8-0.8-0.8-1.3v-2c0-0.4,0.4-0.6,0.8-0.3l8.9,5.2c0.4,0.3,0.8,0.8,0.8,1.3v2
					C65,386.1,64.6,386.2,64.2,386z"/>
				<path class="st3" d="M72.3,390.7l-5.1-2.9c-0.4-0.3-0.8-0.8-0.8-1.3v-2c0-0.4,0.4-0.6,0.8-0.3l5.1,2.9c0.4,0.3,0.8,0.8,0.8,1.3
					v2C73.1,390.8,72.7,390.9,72.3,390.7z"/>
				<path class="st3" d="M78,374.1l-31.1-18c-0.4-0.3-0.8-0.8-0.8-1.3v-2.8c0-0.4,0.4-0.6,0.8-0.3l31.1,18c0.4,0.3,0.8,0.8,0.8,1.3
					l0,2.8C78.8,374.2,78.5,374.3,78,374.1z"/>
				<path class="st3" d="M79.3,367.1l-21.5-12.4c-0.4-0.3-0.8-0.8-0.8-1.3v-2.8c0-0.4,0.4-0.6,0.8-0.3l21.5,12.4
					c0.4,0.3,0.8,0.8,0.8,1.3v2.8C80.1,367.2,79.7,367.4,79.3,367.1z"/>
				<path class="st3" d="M98.7,378.4l-15.8-9.1c-0.4-0.3-0.8-0.8-0.8-1.3v-2.8c0-0.4,0.4-0.6,0.8-0.3l15.8,9.1
					c0.4,0.3,0.8,0.8,0.8,1.3l0,2.8C99.5,378.5,99.1,378.6,98.7,378.4z"/>
				<path class="st3" d="M107.4,383.4l-5.3-3c-0.4-0.3-0.8-0.8-0.8-1.3v-2.8c0-0.4,0.4-0.6,0.8-0.3l5.3,3c0.4,0.3,0.8,0.8,0.8,1.3
					v2.8C108.2,383.5,107.8,383.6,107.4,383.4z"/>
				<path class="st3" d="M60.1,348.5l-15.5-8.9c-0.4-0.3-0.8-0.8-0.8-1.3l0-2.8c0-0.4,0.4-0.6,0.8-0.3l15.5,8.9
					c0.4,0.3,0.8,0.8,0.8,1.3v2.8C60.9,348.6,60.6,348.8,60.1,348.5z"/>
				<path class="st3" d="M72.4,355.6l-8.9-5.2c-0.4-0.3-0.8-0.8-0.8-1.3v-2.8c0-0.4,0.4-0.6,0.8-0.3l8.9,5.2
					c0.4,0.3,0.8,0.8,0.8,1.3v2.8C73.2,355.7,72.8,355.8,72.4,355.6z"/>
				<path class="st3" d="M102.6,373l-26.9-15.5c-0.4-0.3-0.8-0.8-0.8-1.3v-2.8c0-0.4,0.4-0.6,0.8-0.3l26.9,15.5
					c0.4,0.3,0.8,0.8,0.8,1.3v2.8C103.4,373.1,103,373.3,102.6,373z"/>
				<path class="st3" d="M115.7,380.6L106,375c-0.4-0.3-0.8-0.8-0.8-1.3V371c0-0.4,0.4-0.6,0.8-0.3l9.7,5.6c0.4,0.3,0.8,0.8,0.8,1.3
					v2.8C116.5,380.7,116.2,380.9,115.7,380.6z"/>
				<path class="st3" d="M65.5,344l-4.8-2.8c-0.4-0.3-0.8-0.8-0.8-1.3v-2.8c0-0.4,0.4-0.6,0.8-0.3l4.8,2.8c0.4,0.3,0.8,0.8,0.8,1.3
					v2.8C66.3,344.1,65.9,344.3,65.5,344z"/>
				<path class="st3" d="M91.1,358.9l-22.5-13c-0.4-0.3-0.8-0.8-0.8-1.3v-2.8c0-0.4,0.4-0.6,0.8-0.3l22.5,13
					c0.4,0.3,0.8,0.8,0.8,1.3v2.8C91.9,359,91.6,359.1,91.1,358.9z"/>
				<path class="st3" d="M109.1,369.3l-15.1-8.7c-0.4-0.3-0.8-0.8-0.8-1.3v-2.8c0-0.4,0.4-0.6,0.8-0.3l15.1,8.7
					c0.4,0.3,0.8,0.8,0.8,1.3v2.8C109.9,369.4,109.6,369.5,109.1,369.3z"/>
				<path class="st2" d="M64.6,333.3l-24.2-14c-0.4-0.3-0.8-0.8-0.8-1.3v-4.3c0-0.4,0.4-0.6,0.8-0.3l24.2,14
					c0.4,0.3,0.8,0.8,0.8,1.3v4.3C65.4,333.5,65,333.6,64.6,333.3z"/>
				<path class="st2" d="M93,349.7l-24.5-14.2c-0.4-0.3-0.8-0.8-0.8-1.3V330c0-0.4,0.4-0.6,0.8-0.3L93,343.8
					c0.4,0.3,0.8,0.8,0.8,1.3v4.3C93.8,349.8,93.4,350,93,349.7z"/>
				<path class="st4" d="M40.6,367.4c0,3.9-2.7,5.5-6.1,3.5c-3.4-2-6.1-6.7-6.1-10.6s2.7-5.5,6.1-3.5
					C37.8,358.8,40.6,363.5,40.6,367.4z"/>
			</g>
			<g>
				
					<linearGradient id="SVGID_19_" gradientUnits="userSpaceOnUse" x1="29.8321" y1="-3290.3357" x2="118.9898" y2="-3290.3357" gradientTransform="matrix(1 0.5774 0 1 0 3545.3845)">
					<stop  offset="0" style="stop-color:#491E8C"/>
					<stop  offset="0.4416" style="stop-color:#5F2EAB"/>
					<stop  offset="1" style="stop-color:#7E44D8"/>
				</linearGradient>
				<polygon class="st30" points="29.8,299.4 29.8,245.1 119,296.6 119,350.9 				"/>
				<g>
					<path class="st6" d="M30.1,245.6l88.7,51.2v53.7l-88.7-51.2V245.6 M29.6,244.7v54.8l89.7,51.8v-54.8L29.6,244.7L29.6,244.7z"/>
				</g>
			</g>
		</g>
	</g>
</g>
</svg>
