<?xml version="1.0" encoding="utf-8"?>
<!-- Generator: Adobe Illustrator 21.0.0, SVG Export Plug-In . SVG Version: 6.00 Build 0)  -->
<svg version="1.1" id="Layer_1" xmlns="http://www.w3.org/2000/svg" xmlns:xlink="http://www.w3.org/1999/xlink" x="0px" y="0px"
	 viewBox="0 0 908.2 177.4" style="enable-background:new 0 0 908.2 177.4;" xml:space="preserve">
<style type="text/css">
	.st0{fill:#1141F3;}
	.st1{fill:#FFFFFF;}
</style>
<path class="st0" d="M0,30.9h30.4V0H0V30.9z"/>
<path class="st0" d="M89.9,0h-38v52.7h36.5c19.9,0,36,16.1,36,36s-16.1,36-36,36H51.9V52.7H0v124.7h89.9
	c47.6-1.8,85.1-41.1,84.8-88.7C175,41.1,137.4,1.8,89.9,0"/>
<path class="st1" d="M236.1,48.4v63.2H258c10,0.7,19.4-4.9,23.5-14.1c2.6-5.8,3.8-12.1,3.6-18.4c0.5-7.9-1.5-15.8-5.5-22.7
	c-3.7-5.5-11.1-7.9-21.7-7.9L236.1,48.4z M279.6,33.7c7.6,2,14.4,6.3,19.4,12.3c3.8,4.6,6.6,9.9,8.1,15.6c1.4,5.2,2.1,10.6,2.2,16
	c0.4,11.6-2.8,23-9.1,32.7c-8.2,12-20.9,18.1-38,18.1H213V31.5h49C267.9,31.5,273.8,32.2,279.6,33.7z"/>
<path class="st1" d="M325.5,128.4h22.2V56.8h-22.2V128.4z M325.5,48.2h22.2V31h-22.2V48.2z"/>
<path class="st1" d="M418,108c4-4.2,6-10,5.5-15.8c0.4-5.6-1.4-11.2-5-15.5C415,73,410.1,71,405,71.2c-6.7-0.6-13.1,3.1-15.9,9.3
	c-1.7,3.8-2.5,8-2.3,12.1c-0.1,3.8,0.8,7.6,2.5,11.1c2.9,6,9.2,9.7,15.9,9.1c4.8,0.1,9.5-1.7,13-5 M410.8,56.4
	c5.3,2,9.8,5.7,12.8,10.6V56.8h21.4v68c0.5,7.4-1.4,14.7-5.5,20.8c-6.3,8.1-18.3,12.1-36,12.1c-9.1,0.3-18.1-1.6-26.3-5.5
	c-6.3-3-10.5-9.2-11.1-16.1h23.9c0.4,1.9,1.5,3.6,3,4.7c3.7,2,7.8,2.9,12,2.6c6.1,0.9,12.2-1.7,15.9-6.8c2-4.6,2.8-9.5,2.4-14.5
	v-4.4c-1.8,2.7-4.1,5.1-6.8,6.9c-5.1,3-11,4.5-17,4.3c-9.6,0.5-19-3.1-25.9-9.7c-6.7-7.1-10.1-16.5-9.6-26.2
	c-0.3-9.8,3-19.4,9.3-26.8c6.6-7.5,16.4-11.6,26.4-11.1c3.8-0.1,7.5,0.5,11.1,1.6"/>
<path class="st1" d="M465.6,128.4h22.2V56.8h-22.2V128.4z M465.6,48.2h22.2V31h-22.2V48.2z"/>
<path class="st1" d="M511,31.7h80.9v17h-57.4v22.2h50.3v16.9h-50.3v40.6H511L511,31.7z"/>
<path class="st1" d="M605.9,128.4h22.2V56.8h-22.2V128.4z M605.9,48.2h22.2V31h-22.2V48.2z"/>
<path class="st1" d="M717.1,61c5.8,4.6,8.9,11.9,8.3,19.3v48.2h-22.5V84.8c0.2-3-0.4-6-1.8-8.6c-2.7-4-7.4-6.1-12.2-5.6
	c-6.2-0.6-12.3,2.6-15.2,8.1c-1.6,3.5-2.3,7.3-2.1,11.1v38.8h-22.2V56.9h21.4v10.4c2.2-3.1,4.9-5.7,8-7.9c5.2-3.1,11.1-4.6,17.1-4.3
	c7.4-0.4,14.8,1.6,21.1,5.5"/>
<path class="st1" d="M767.6,74.4c-3.2,2.9-5.2,6.8-5.8,11.1h37.8c-0.2-4.4-2.3-8.4-5.8-11.1c-3.8-2.7-8.4-4-13-3.9
	c-4.7-0.3-9.4,1.2-13.1,4.1 M800.5,58.5c5.7,2.1,10.6,5.7,14.4,10.4c3.5,4.3,5.8,9.4,6.7,14.8c0.7,4.7,0.9,9.4,0.7,14.2h-61
	c-0.2,6.3,3.2,12.2,8.8,15.2c3.7,1.9,7.9,2.8,12.1,2.7c4.3,0.2,8.6-1,12.2-3.3c1.8-1.3,3.4-3,4.5-4.9h22.5c-1.1,5.1-4,9.7-8.2,12.9
	c-8.8,7.4-20.1,11.2-31.5,10.5c-10.5,0.2-20.9-2.9-29.6-8.8c-8.5-5.9-12.8-15.4-12.8-28.7c-0.7-10.8,3.6-21.3,11.5-28.5
	c8.5-6.9,19.2-10.4,30-9.9c6.7-0.1,13.4,1,19.7,3.4"/>
<path class="st1" d="M825.1,128.4l28.7-36.2l-27.4-35.2h26.9l14,20.7L881,56.9h26.1l-27.5,34.9l28.7,36.6h-27.4l-14.4-21.5
	l-14.6,21.5H825.1z"/>
</svg>
