<svg xmlns="http://www.w3.org/2000/svg" xmlns:xlink="http://www.w3.org/1999/xlink" id="Layer_1" x="0" y="0" enable-background="new 0 0 490 490" version="1.1" viewBox="0 0 490 490" xml:space="preserve"><style type="text/css">.st0{opacity:.68}.st1{opacity:0;fill:#fff}.st2{opacity:1.960800e-02;fill:#fcfcff}.st3{opacity:3.921600e-02;fill:#f8f9ff}.st4{opacity:5.882400e-02;fill:#f5f6ff}.st5{opacity:7.843100e-02;fill:#f2f4ff}.st6{opacity:9.803900e-02;fill:#eef1ff}.st7{opacity:.1176;fill:#ebeeff}.st8{opacity:.1373;fill:#e7ebff}.st9{opacity:.1569;fill:#e4e8ff}.st10{opacity:.1765;fill:#e1e5ff}.st11{opacity:.1961;fill:#dde2ff}.st12{opacity:.2157;fill:#dae0ff}.st13{opacity:.2353;fill:#d7ddff}.st14{opacity:.2549;fill:#d3daff}.st15{opacity:.2745;fill:#d0d7ff}.st16{opacity:.2941;fill:#ccd4ff}.st17{opacity:.3137;fill:#c9d1ff}.st18{opacity:.3333;fill:#c6ceff}.st19{opacity:.3529;fill:#c2cbff}.st20{opacity:.3725;fill:#bfc9ff}.st21{opacity:.3922;fill:#bcc6ff}.st22{opacity:.4118;fill:#b8c3ff}.st23{opacity:.4314;fill:#b5c0ff}.st24{opacity:.451;fill:#b1bdff}.st25{opacity:.4706;fill:#aebaff}.st26{opacity:.4902;fill:#abb7ff}.st27{opacity:.5098;fill:#a7b5fe}.st28{opacity:.5294;fill:#a4b2fe}.st29{opacity:.549;fill:#a1affe}.st30{opacity:.5686;fill:#9dacfe}.st31{opacity:.5882;fill:#9aa9fe}.st32{opacity:.6078;fill:#96a6fe}.st33{opacity:.6275;fill:#93a3fe}.st34{opacity:.6471;fill:#90a1fe}.st35{opacity:.6667;fill:#8c9efe}.st36{opacity:.6863;fill:#899bfe}.st37{opacity:.7059;fill:#8698fe}.st38{opacity:.7255;fill:#8295fe}.st39{opacity:.7451;fill:#7f92fe}.st40{opacity:.7647;fill:#7b8ffe}.st41{opacity:.7843;fill:#788cfe}.st42{opacity:.8039;fill:#758afe}.st43{opacity:.8235;fill:#7187fe}.st44{opacity:.8431;fill:#6e84fe}.st45{opacity:.8627;fill:#6b81fe}.st46{opacity:.8824;fill:#677efe}.st47{opacity:.902;fill:#647bfe}.st48{opacity:.9216;fill:#6078fe}.st49{opacity:.9412;fill:#5d76fe}.st50{opacity:.9608;fill:#5a73fe}.st51{opacity:.9804;fill:#5670fe}.st52{fill:#536dfe}.st53{fill:url(#XMLID_2_)}.st54{fill:url(#XMLID_3_)}.st55{fill:url(#XMLID_4_)}.st56{fill:url(#XMLID_5_)}.st57{fill:url(#XMLID_6_)}.st58{fill:url(#XMLID_7_)}.st59{fill:#48486a}.st60{fill:#1d073f}.st61{fill:url(#XMLID_9_)}.st62{clip-path:url(#XMLID_10_);fill:url(#XMLID_11_)}.st63{fill:#ffd4a3}.st64{fill:#ffa744}.st65{fill:none;stroke:url(#XMLID_17_);stroke-miterlimit:10}.st66{opacity:.8;stroke:url(#XMLID_18_)}.st66,.st67,.st68,.st69,.st70,.st71{fill:none;stroke-miterlimit:10}.st67{opacity:.6;stroke:url(#XMLID_19_)}.st68{opacity:.4;stroke:url(#XMLID_20_)}.st69{opacity:.2;stroke:url(#XMLID_21_)}.st70{opacity:.15;stroke:url(#XMLID_22_)}.st71{opacity:.1;stroke:url(#XMLID_23_)}.st72{fill:url(#SVGID_1_)}.st73{fill:url(#SVGID_2_)}.st74{fill:url(#XMLID_24_)}.st75{fill:url(#XMLID_25_)}.st76{fill:url(#SVGID_3_)}.st77{fill:url(#SVGID_4_)}.st78{fill:url(#SVGID_5_)}.st79{fill:url(#XMLID_26_)}.st80{fill:url(#XMLID_27_)}.st81{fill:url(#XMLID_28_)}.st82{fill:url(#XMLID_29_)}.st83{fill:url(#XMLID_30_)}.st84{fill:url(#XMLID_31_)}.st85{fill:url(#XMLID_32_)}.st86{fill:url(#XMLID_33_)}.st87{fill:url(#XMLID_34_)}.st88{fill:url(#XMLID_38_)}.st89{clip-path:url(#XMLID_39_);fill:url(#XMLID_40_)}.st90{fill:#c2a3ff}.st91{fill:#e0d1ff}.st92{fill:#abcfff}.st93{stroke:url(#XMLID_54_)}.st93,.st94,.st95,.st96,.st97{fill:none;stroke-miterlimit:10}.st94{opacity:.8;stroke:url(#XMLID_55_)}.st95{opacity:.6;stroke:url(#XMLID_56_)}.st96{opacity:.4;stroke:url(#XMLID_57_)}.st97{opacity:.2;stroke:url(#XMLID_60_)}.st98{opacity:.15;stroke:url(#XMLID_61_)}.st100,.st101,.st98,.st99{fill:none;stroke-miterlimit:10}.st99{opacity:.1;stroke:url(#XMLID_62_)}.st100{stroke:url(#XMLID_63_)}.st101{stroke:url(#XMLID_64_)}.st102{fill:#120426}.st103{fill:url(#SVGID_6_)}.st104{fill:url(#SVGID_7_)}.st105{fill:url(#SVGID_8_)}.st106{fill:url(#SVGID_9_)}.st107{fill:url(#SVGID_10_)}.st108{fill:url(#SVGID_11_)}.st109{fill:url(#SVGID_12_)}.st110{fill:#2f1359}.st111{fill:url(#SVGID_13_)}.st112{fill:url(#SVGID_14_)}.st113{fill:#491e8c}.st114{fill:#9777c7}.st115{fill:url(#XMLID_65_)}.st116{fill:url(#XMLID_66_)}.st117{fill:#3c3940}.st118{fill:#c8b6e3}.st119{fill:url(#SVGID_15_)}.st120{fill:url(#SVGID_16_)}.st121{fill:url(#SVGID_17_)}.st122{fill:#7e44d8}.st123{fill:url(#SVGID_18_)}.st124{fill:url(#SVGID_19_)}.st125{fill:url(#SVGID_20_)}.st126{fill:url(#SVGID_21_)}.st127{fill:url(#SVGID_22_)}.st128{fill:url(#SVGID_23_)}.st129{fill:url(#SVGID_24_)}.st130{fill:url(#SVGID_25_)}.st131{fill:#ffc2b0}.st132{fill:#dbefff}.st133{fill:#ccad85}.st134{fill:url(#SVGID_26_)}.st135{fill:#231f20}.st136{fill:url(#SVGID_27_)}.st137{fill:url(#SVGID_28_)}.st138{fill:url(#SVGID_29_)}.st139{fill:#fff}.st140{fill:url(#SVGID_30_)}.st141{fill:#f1a32f}.st142{fill:url(#SVGID_31_)}.st143{fill:url(#SVGID_32_)}.st144{fill:#e5d5be}.st145{fill:url(#SVGID_33_)}.st146{fill:url(#SVGID_34_)}.st147{fill:url(#SVGID_35_)}.st148{fill:url(#SVGID_36_)}.st149{fill:url(#SVGID_37_)}.st150{fill:url(#SVGID_38_)}.st151{fill:url(#SVGID_39_)}.st152{fill:url(#XMLID_67_)}.st153{fill:url(#XMLID_68_)}.st154{fill:url(#XMLID_69_)}.st155{fill:url(#XMLID_70_)}</style><g><g><g><g><g><g><g id="XMLID_4204_"><g class="st0"><path id="XMLID_748_" d="M427.8,185.3c-6.5-3.8-17.1-3.8-23.7,0l-57.3,33.1c-6.5,3.8-6.5,9.9,0,13.7l57.3,33.1 c6.5,3.8,17.1,3.8,23.7,0l57.3-33.1c6.5-3.8,6.5-9.9,0-13.7L427.8,185.3z" class="st1"/><path d="M427.7,185.5c-6.5-3.7-17.1-3.7-23.5,0l-57,32.9c-6.5,3.7-6.5,9.9,0,13.6l57,32.9 c6.5,3.7,17.1,3.7,23.5,0l57-32.9c6.5-3.7,6.5-9.9,0-13.6L427.7,185.5z" class="st2"/><path d="M427.7,185.7c-6.4-3.7-17-3.7-23.4,0l-56.7,32.8c-6.4,3.7-6.4,9.8,0,13.5l56.7,32.8 c6.4,3.7,17,3.7,23.4,0l56.7-32.8c6.4-3.7,6.4-9.8,0-13.5L427.7,185.7z" class="st3"/><path d="M427.6,185.9c-6.4-3.7-16.9-3.7-23.3,0l-56.5,32.6c-6.4,3.7-6.4,9.8,0,13.5l56.5,32.6 c6.4,3.7,16.9,3.7,23.3,0l56.5-32.6c6.4-3.7,6.4-9.8,0-13.5L427.6,185.9z" class="st4"/><path d="M427.5,186c-6.4-3.7-16.8-3.7-23.2,0l-56.2,32.4c-6.4,3.7-6.4,9.7,0,13.4l56.2,32.4 c6.4,3.7,16.8,3.7,23.2,0l56.2-32.4c6.4-3.7,6.4-9.7,0-13.4L427.5,186z" class="st5"/><path d="M427.5,186.2c-6.3-3.7-16.7-3.7-23.1,0l-55.9,32.3c-6.3,3.7-6.3,9.7,0,13.3l55.9,32.3 c6.3,3.7,16.7,3.7,23.1,0l55.9-32.3c6.3-3.7,6.3-9.7,0-13.3L427.5,186.2z" class="st6"/><path d="M427.4,186.4c-6.3-3.6-16.7-3.6-23,0l-55.6,32.1c-6.3,3.6-6.3,9.6,0,13.3l55.6,32.1 c6.3,3.6,16.7,3.6,23,0l55.6-32.1c6.3-3.6,6.3-9.6,0-13.3L427.4,186.4z" class="st7"/><path d="M427.4,186.6c-6.3-3.6-16.6-3.6-22.9,0l-55.4,32c-6.3,3.6-6.3,9.6,0,13.2l55.4,32 c6.3,3.6,16.6,3.6,22.9,0l55.4-32c6.3-3.6,6.3-9.6,0-13.2L427.4,186.6z" class="st8"/><path d="M427.3,186.8c-6.3-3.6-16.5-3.6-22.7,0l-55.1,31.8c-6.3,3.6-6.3,9.5,0,13.1l55.1,31.8 c6.3,3.6,16.5,3.6,22.7,0l55.1-31.8c6.3-3.6,6.3-9.5,0-13.1L427.3,186.8z" class="st9"/><path d="M427.3,187c-6.2-3.6-16.4-3.6-22.6,0l-54.8,31.7c-6.2,3.6-6.2,9.5,0,13.1l54.8,31.7 c6.2,3.6,16.4,3.6,22.6,0l54.8-31.7c6.2-3.6,6.2-9.5,0-13.1L427.3,187z" class="st10"/><path d="M427.2,187.2c-6.2-3.6-16.3-3.6-22.5,0l-54.5,31.5c-6.2,3.6-6.2,9.4,0,13l54.5,31.5 c6.2,3.6,16.3,3.6,22.5,0l54.5-31.5c6.2-3.6,6.2-9.4,0-13L427.2,187.2z" class="st11"/><path d="M427.1,187.4c-6.2-3.6-16.2-3.6-22.4,0l-54.3,31.3c-6.2,3.6-6.2,9.4,0,12.9l54.3,31.3 c6.2,3.6,16.2,3.6,22.4,0l54.3-31.3c6.2-3.6,6.2-9.4,0-12.9L427.1,187.4z" class="st12"/><path d="M427.1,187.6c-6.1-3.5-16.2-3.5-22.3,0l-54,31.2c-6.1,3.5-6.1,9.3,0,12.9l54,31.2 c6.1,3.5,16.2,3.5,22.3,0l54-31.2c6.1-3.5,6.1-9.3,0-12.9L427.1,187.6z" class="st13"/><path d="M427,187.8c-6.1-3.5-16.1-3.5-22.2,0l-53.7,31c-6.1,3.5-6.1,9.3,0,12.8l53.7,31 c6.1,3.5,16.1,3.5,22.2,0l53.7-31c6.1-3.5,6.1-9.3,0-12.8L427,187.8z" class="st14"/><path d="M427,188c-6.1-3.5-16-3.5-22.1,0l-53.4,30.9c-6.1,3.5-6.1,9.2,0,12.7l53.4,30.9c6.1,3.5,16,3.5,22.1,0 l53.4-30.9c6.1-3.5,6.1-9.2,0-12.7L427,188z" class="st15"/><path d="M426.9,188.2c-6-3.5-15.9-3.5-21.9,0l-53.2,30.7c-6,3.5-6,9.2,0,12.7l53.2,30.7c6,3.5,15.9,3.5,21.9,0 l53.2-30.7c6-3.5,6-9.2,0-12.7L426.9,188.2z" class="st16"/><path d="M426.9,188.3c-6-3.5-15.8-3.5-21.8,0l-52.9,30.5c-6,3.5-6,9.1,0,12.6L405,262c6,3.5,15.8,3.5,21.8,0 l52.9-30.5c6-3.5,6-9.1,0-12.6L426.9,188.3z" class="st17"/><path d="M426.8,188.5c-6-3.4-15.7-3.4-21.7,0l-52.6,30.4c-6,3.4-6,9.1,0,12.5l52.6,30.4c6,3.4,15.7,3.4,21.7,0 l52.6-30.4c6-3.4,6-9.1,0-12.5L426.8,188.5z" class="st18"/><path d="M426.7,188.7c-5.9-3.4-15.7-3.4-21.6,0l-52.3,30.2c-5.9,3.4-5.9,9,0,12.5l52.3,30.2 c5.9,3.4,15.7,3.4,21.6,0l52.3-30.2c5.9-3.4,5.9-9,0-12.5L426.7,188.7z" class="st19"/><path d="M426.7,188.9c-5.9-3.4-15.6-3.4-21.5,0L353.1,219c-5.9,3.4-5.9,9,0,12.4l52.1,30.1 c5.9,3.4,15.6,3.4,21.5,0l52.1-30.1c5.9-3.4,5.9-9,0-12.4L426.7,188.9z" class="st20"/><path d="M426.6,189.1c-5.9-3.4-15.5-3.4-21.4,0L353.5,219c-5.9,3.4-5.9,8.9,0,12.3l51.8,29.9 c5.9,3.4,15.5,3.4,21.4,0l51.8-29.9c5.9-3.4,5.9-8.9,0-12.3L426.6,189.1z" class="st21"/><path d="M426.6,189.3c-5.8-3.4-15.4-3.4-21.3,0L353.8,219c-5.8,3.4-5.8,8.9,0,12.3l51.5,29.7 c5.8,3.4,15.4,3.4,21.3,0l51.5-29.7c5.8-3.4,5.8-8.9,0-12.3L426.6,189.3z" class="st22"/><path d="M426.5,189.5c-5.8-3.4-15.3-3.4-21.2,0l-51.2,29.6c-5.8,3.4-5.8,8.9,0,12.2l51.2,29.6 c5.8,3.4,15.3,3.4,21.2,0l51.2-29.6c5.8-3.4,5.8-8.9,0-12.2L426.5,189.5z" class="st23"/><path d="M426.5,189.7c-5.8-3.3-15.3-3.3-21,0l-51,29.4c-5.8,3.3-5.8,8.8,0,12.1l51,29.4c5.8,3.3,15.3,3.3,21,0 l51-29.4c5.8-3.3,5.8-8.8,0-12.1L426.5,189.7z" class="st24"/><path d="M426.4,189.9c-5.8-3.3-15.2-3.3-20.9,0l-50.7,29.3c-5.8,3.3-5.8,8.8,0,12.1l50.7,29.3 c5.8,3.3,15.2,3.3,20.9,0l50.7-29.3c5.8-3.3,5.8-8.8,0-12.1L426.4,189.9z" class="st25"/><path d="M426.3,190.1c-5.7-3.3-15.1-3.3-20.8,0l-50.4,29.1c-5.7,3.3-5.7,8.7,0,12l50.4,29.1 c5.7,3.3,15.1,3.3,20.8,0l50.4-29.1c5.7-3.3,5.7-8.7,0-12L426.3,190.1z" class="st26"/><path d="M426.3,190.3c-5.7-3.3-15-3.3-20.7,0l-50.1,29c-5.7,3.3-5.7,8.7,0,12l50.1,29c5.7,3.3,15,3.3,20.7,0 l50.1-29c5.7-3.3,5.7-8.7,0-12L426.3,190.3z" class="st27"/><path d="M426.2,190.4c-5.7-3.3-14.9-3.3-20.6,0l-49.9,28.8c-5.7,3.3-5.7,8.6,0,11.9l49.9,28.8 c5.7,3.3,14.9,3.3,20.6,0l49.9-28.8c5.7-3.3,5.7-8.6,0-11.9L426.2,190.4z" class="st28"/><path d="M426.2,190.6c-5.6-3.2-14.8-3.2-20.5,0l-49.6,28.6c-5.6,3.3-5.6,8.6,0,11.8l49.6,28.6 c5.6,3.3,14.8,3.3,20.5,0l49.6-28.6c5.6-3.3,5.6-8.6,0-11.8L426.2,190.6z" class="st29"/><path d="M426.1,190.8c-5.6-3.2-14.8-3.2-20.4,0l-49.3,28.5c-5.6,3.2-5.6,8.5,0,11.8l49.3,28.5 c5.6,3.2,14.8,3.2,20.4,0l49.3-28.5c5.6-3.2,5.6-8.5,0-11.8L426.1,190.8z" class="st30"/><path d="M426.1,191c-5.6-3.2-14.7-3.2-20.2,0l-49,28.3c-5.6,3.2-5.6,8.5,0,11.7l49,28.3 c5.6,3.2,14.7,3.2,20.2,0l49-28.3c5.6-3.2,5.6-8.5,0-11.7L426.1,191z" class="st31"/><path d="M426,191.2c-5.5-3.2-14.6-3.2-20.1,0l-48.8,28.2c-5.5,3.2-5.5,8.4,0,11.6l48.8,28.2 c5.5,3.2,14.6,3.2,20.1,0l48.8-28.2c5.5-3.2,5.5-8.4,0-11.6L426,191.2z" class="st32"/><path d="M426,191.4c-5.5-3.2-14.5-3.2-20,0l-48.5,28c-5.5,3.2-5.5,8.4,0,11.6l48.5,28c5.5,3.2,14.5,3.2,20,0 l48.5-28c5.5-3.2,5.5-8.4,0-11.6L426,191.4z" class="st33"/><path d="M425.9,191.6c-5.5-3.2-14.4-3.2-19.9,0l-48.2,27.8c-5.5,3.2-5.5,8.3,0,11.5l48.2,27.8 c5.5,3.2,14.4,3.2,19.9,0l48.2-27.8c5.5-3.2,5.5-8.3,0-11.5L425.9,191.6z" class="st34"/><path d="M425.8,191.8c-5.4-3.1-14.3-3.1-19.8,0l-48,27.7c-5.4,3.1-5.4,8.3,0,11.4l48,27.7 c5.4,3.1,14.3,3.1,19.8,0l47.9-27.7c5.4-3.1,5.4-8.3,0-11.4L425.8,191.8z" class="st35"/><path d="M425.8,192c-5.4-3.1-14.3-3.1-19.7,0l-47.7,27.5c-5.4,3.1-5.4,8.2,0,11.4l47.7,27.5 c5.4,3.1,14.3,3.1,19.7,0l47.7-27.5c5.4-3.1,5.4-8.2,0-11.4L425.8,192z" class="st36"/><path d="M425.7,192.2c-5.4-3.1-14.2-3.1-19.6,0l-47.4,27.4c-5.4,3.1-5.4,8.2,0,11.3l47.4,27.4 c5.4,3.1,14.2,3.1,19.6,0l47.4-27.4c5.4-3.1,5.4-8.2,0-11.3L425.7,192.2z" class="st37"/><path d="M425.7,192.4c-5.3-3.1-14.1-3.1-19.5,0l-47.1,27.2c-5.3,3.1-5.3,8.1,0,11.2l47.1,27.2 c5.3,3.1,14.1,3.1,19.5,0l47.1-27.2c5.3-3.1,5.3-8.1,0-11.2L425.7,192.4z" class="st38"/><path d="M425.6,192.6c-5.3-3.1-14-3.1-19.3,0l-46.9,27c-5.3,3.1-5.3,8.1,0,11.2l46.9,27c5.3,3.1,14,3.1,19.3,0 l46.9-27c5.3-3.1,5.3-8.1,0-11.2L425.6,192.6z" class="st39"/><path d="M425.6,192.7c-5.3-3.1-13.9-3.1-19.2,0l-46.6,26.9c-5.3,3.1-5.3,8,0,11.1l46.6,26.9 c5.3,3.1,13.9,3.1,19.2,0l46.6-26.9c5.3-3.1,5.3-8,0-11.1L425.6,192.7z" class="st40"/><path d="M425.5,192.9c-5.3-3-13.9-3-19.1,0l-46.3,26.7c-5.3,3-5.3,8,0,11l46.3,26.7c5.3,3,13.9,3,19.1,0 l46.3-26.7c5.3-3,5.3-8,0-11L425.5,192.9z" class="st41"/><path d="M425.4,193.1c-5.2-3-13.8-3-19,0l-46,26.6c-5.2,3-5.2,8,0,11l46,26.6c5.2,3,13.8,3,19,0l46-26.6 c5.2-3,5.2-8,0-11L425.4,193.1z" class="st42"/><path d="M425.4,193.3c-5.2-3-13.7-3-18.9,0l-45.8,26.4c-5.2,3-5.2,7.9,0,10.9l45.8,26.4c5.2,3,13.7,3,18.9,0 l45.8-26.4c5.2-3,5.2-7.9,0-10.9L425.4,193.3z" class="st43"/><path d="M425.3,193.5c-5.2-3-13.6-3-18.8,0l-45.5,26.3c-5.2,3-5.2,7.9,0,10.8l45.5,26.3c5.2,3,13.6,3,18.8,0 l45.5-26.3c5.2-3,5.2-7.9,0-10.8L425.3,193.5z" class="st44"/><path d="M425.3,193.7c-5.1-3-13.5-3-18.7,0l-45.2,26.1c-5.1,3-5.1,7.8,0,10.8l45.2,26.1c5.1,3,13.5,3,18.7,0 l45.2-26.1c5.1-3,5.1-7.8,0-10.8L425.3,193.7z" class="st45"/><path d="M425.2,193.9c-5.1-2.9-13.4-2.9-18.5,0l-44.9,25.9c-5.1,2.9-5.1,7.8,0,10.7l44.9,25.9 c5.1,2.9,13.4,2.9,18.5,0l44.9-25.9c5.1-2.9,5.1-7.8,0-10.7L425.2,193.9z" class="st46"/><path d="M425.2,194.1c-5.1-2.9-13.4-2.9-18.4,0l-44.7,25.8c-5.1,2.9-5.1,7.7,0,10.6l44.7,25.8 c5.1,2.9,13.4,2.9,18.4,0l44.7-25.8c5.1-2.9,5.1-7.7,0-10.6L425.2,194.1z" class="st47"/><path d="M425.1,194.3c-5-2.9-13.3-2.9-18.3,0l-44.4,25.6c-5,2.9-5,7.7,0,10.6l44.4,25.6c5,2.9,13.3,2.9,18.3,0 l44.4-25.6c5-2.9,5-7.7,0-10.6L425.1,194.3z" class="st48"/><path d="M425,194.5c-5-2.9-13.2-2.9-18.2,0l-44.1,25.5c-5,2.9-5,7.6,0,10.5l44.1,25.5c5,2.9,13.2,2.9,18.2,0 l44.1-25.5c5-2.9,5-7.6,0-10.5L425,194.5z" class="st49"/><path d="M425,194.7c-5-2.9-13.1-2.9-18.1,0L363.1,220c-5,2.9-5,7.6,0,10.4l43.8,25.3c5,2.9,13.1,2.9,18.1,0 l43.8-25.3c5-2.9,5-7.6,0-10.4L425,194.7z" class="st50"/><path d="M424.9,194.9c-4.9-2.9-13-2.9-18,0L363.4,220c-4.9,2.9-4.9,7.5,0,10.4l43.6,25.1c4.9,2.9,13,2.9,18,0 l43.6-25.1c4.9-2.9,4.9-7.5,0-10.4L424.9,194.9z" class="st51"/><path id="XMLID_746_" d="M424.9,195c-4.9-2.8-13-2.8-17.9,0l-43.3,25c-4.9,2.8-4.9,7.5,0,10.3l43.3,25 c4.9,2.8,13,2.8,17.9,0l43.3-25c4.9-2.8,4.9-7.5,0-10.3L424.9,195z" class="st52"/></g><linearGradient id="XMLID_2_" x1="349.135" x2="482.987" y1="223.757" y2="223.757" gradientUnits="userSpaceOnUse"><stop offset="0" stop-color="#B4ACBF"/><stop offset=".515" stop-color="#D1C8DE"/><stop offset="1" stop-color="#F0E5FF"/></linearGradient><path id="XMLID_4206_" d="M413.4,185.1l-64.2,30.5v8.7c0,0.5,0.3,1,0.7,1.2l63.5,36.7c1.7,1,3.7,1,5.4,0 l63.4-36.7c0.5-0.3,0.8-0.8,0.8-1.4v-8.6l-64.2-30.5C417.1,184.2,415,184.2,413.4,185.1z" class="st53"/><linearGradient id="XMLID_3_" x1="349.135" x2="482.987" y1="215.657" y2="215.657" gradientUnits="userSpaceOnUse"><stop offset="0" stop-color="#F0E5FF"/><stop offset="1" stop-color="#FFF"/></linearGradient><path id="XMLID_4205_" d="M413.4,177l-62.9,36.3c-1.8,1-1.8,3.6,0,4.6l62.9,36.3c1.7,1,3.7,1,5.4,0l62.9-36.3 c1.8-1,1.8-3.6,0-4.6L418.7,177C417.1,176.1,415,176.1,413.4,177z" class="st54"/></g><g><linearGradient id="XMLID_4_" x1="367.965" x2="463.437" y1="214.419" y2="214.419" gradientUnits="userSpaceOnUse"><stop offset="0" stop-color="#F0E5FF"/><stop offset="1" stop-color="#FFF"/></linearGradient><path id="XMLID_4203_" d="M413.8,186.9l-44.9,25.9c-1.3,0.7-1.3,2.6,0,3.3l44.9,25.9c1.2,0.7,2.6,0.7,3.8,0 l44.9-25.9c1.3-0.7,1.3-2.6,0-3.3l-44.9-25.9C416.4,186.2,415,186.2,413.8,186.9z" class="st55"/><linearGradient id="XMLID_5_" x1="367.974" x2="463.428" y1="227.923" y2="227.923" gradientUnits="userSpaceOnUse"><stop offset=".15" stop-color="#FF9800"/><stop offset="1" stop-color="#FFC107"/></linearGradient><path id="XMLID_4202_" d="M462.5,214l-44.9,25.9c-1.2,0.7-2.6,0.7-3.8,0L368.9,214c-0.3-0.2-0.5-0.4-0.6-0.6 c-0.6,0.9-0.4,2.1,0.6,2.7l44.9,25.9c1.2,0.7,2.6,0.7,3.8,0l44.9-25.9c1-0.6,1.2-1.8,0.6-2.7 C462.9,213.6,462.8,213.8,462.5,214z" class="st56"/><linearGradient id="XMLID_6_" x1="367.974" x2="463.428" y1="227.923" y2="227.923" gradientUnits="userSpaceOnUse"><stop offset="0" stop-color="#B4ACBF"/><stop offset=".515" stop-color="#D1C8DE"/><stop offset="1" stop-color="#F0E5FF"/></linearGradient><path id="XMLID_4201_" d="M462.5,214l-44.9,25.9c-1.2,0.7-2.6,0.7-3.8,0L368.9,214c-0.3-0.2-0.5-0.4-0.6-0.6 c-0.6,0.9-0.4,2.1,0.6,2.7l44.9,25.9c1.2,0.7,2.6,0.7,3.8,0l44.9-25.9c1-0.6,1.2-1.8,0.6-2.7 C462.9,213.6,462.8,213.8,462.5,214z" class="st57"/><linearGradient id="XMLID_7_" x1="378.216" x2="453.667" y1="212.255" y2="212.255" gradientUnits="userSpaceOnUse"><stop offset="0" stop-color="#2F1359"/><stop offset="1" stop-color="#491E8C"/></linearGradient><path id="XMLID_4312_" d="M414.4,190.5L379,211c-1,0.6-1,2,0,2.6l35.5,20.5c0.9,0.5,2.1,0.5,3,0l35.5-20.5 c1-0.6,1-2,0-2.6l-35.5-20.5C416.5,189.9,415.4,189.9,414.4,190.5z" class="st58"/><path id="XMLID_4310_" d="M386.8,211.9l27.9-16.1c0.7-0.4,1.6-0.4,2.4,0l27.9,16.1c0.3,0.2,0.5,0.4,0.5,0.7 c0.1-0.5,0-1.1-0.5-1.4l-27.9-16.1c-0.7-0.4-1.6-0.4-2.4,0l-27.9,16.1c-0.5,0.3-0.7,0.9-0.5,1.4 C386.3,212.3,386.5,212.1,386.8,211.9z" class="st59"/><path id="XMLID_4309_" d="M452.9,212.5L417.5,233c-0.9,0.5-2.1,0.5-3,0L379,212.5c-0.3-0.2-0.5-0.5-0.6-0.8 c-0.2,0.6,0,1.4,0.6,1.8l35.5,20.5c0.9,0.5,2.1,0.5,3,0l35.5-20.5c0.7-0.4,0.9-1.2,0.6-1.8 C453.5,212.1,453.2,212.3,452.9,212.5z" class="st60"/><g id="XMLID_4282_"><g><g><defs><path id="XMLID_53_" d="M414.7,195.1l-27.9,16.1c-0.8,0.5-0.8,1.6,0,2l27.9,16.1c0.7,0.4,1.6,0.4,2.4,0l27.9-16.1 c0.8-0.5,0.8-1.6,0-2l-27.9-16.1C416.4,194.7,415.5,194.7,414.7,195.1z"/></defs><clipPath id="XMLID_8_"><use overflow="visible" xlink:href="#XMLID_53_"/></clipPath></g></g><g><path id="XMLID_52_" d="M414.7,195.1l-27.9,16.1c-0.8,0.5-0.8,1.6,0,2l27.9,16.1c0.7,0.4,1.6,0.4,2.4,0 l27.9-16.1c0.8-0.5,0.8-1.6,0-2l-27.9-16.1C416.4,194.7,415.5,194.7,414.7,195.1z" class="st60"/><g id="XMLID_50_"><g><linearGradient id="XMLID_9_" x1="415.942" x2="415.942" y1="229.731" y2="82.819" gradientUnits="userSpaceOnUse"><stop offset="0" stop-color="#FFA744" stop-opacity=".7"/><stop offset=".047" stop-color="#FDAE59" stop-opacity=".667"/><stop offset=".161" stop-color="#FABC85" stop-opacity=".587"/><stop offset=".28" stop-color="#F7C9AA" stop-opacity=".504"/><stop offset=".403" stop-color="#F4D3C9" stop-opacity=".418"/><stop offset=".531" stop-color="#F2DBE1" stop-opacity=".328"/><stop offset=".667" stop-color="#F1E1F2" stop-opacity=".233"/><stop offset=".815" stop-color="#F0E4FC" stop-opacity=".129"/><stop offset="1" stop-color="#F0E5FF" stop-opacity="0"/></linearGradient><path id="XMLID_51_" d="M386.2,82.8c0,0,0,129,0,129.4c0,0.4,0.2,0.8,0.6,1l27.9,16.1 c0.7,0.4,1.6,0.4,2.4,0l27.9-16.1c0.4-0.2,0.6-0.6,0.6-1c0-0.4,0-129.4,0-129.4H386.2z" class="st61"/></g></g><g><defs><path id="XMLID_48_" d="M414.7,195.1l-27.9,16.1c-0.8,0.5-0.8,1.6,0,2l27.9,16.1c0.7,0.4,1.6,0.4,2.4,0l27.9-16.1 c0.8-0.5,0.8-1.6,0-2l-27.9-16.1C416.4,194.7,415.5,194.7,414.7,195.1z"/></defs><clipPath id="XMLID_10_"><use overflow="visible" xlink:href="#XMLID_48_"/></clipPath><radialGradient id="XMLID_11_" cx="415.942" cy="213.423" r="24.384" gradientUnits="userSpaceOnUse"><stop offset="0" stop-color="#FFF"/><stop offset="1" stop-color="#FFA744"/></radialGradient><path id="XMLID_49_" d="M414.7,196.3l-27.9,16.1c-0.8,0.5-0.8,1.6,0,2l27.9,16.1c0.7,0.4,1.6,0.4,2.4,0 l27.9-16.1c0.8-0.5,0.8-1.6,0-2l-27.9-16.1C416.4,195.8,415.5,195.8,414.7,196.3z" class="st62"/></g></g><g><g><defs><path id="XMLID_37_" d="M414.7,195.1l-27.9,16.1c-0.8,0.5-0.8,1.6,0,2l27.9,16.1c0.7,0.4,1.6,0.4,2.4,0l27.9-16.1 c0.8-0.5,0.8-1.6,0-2l-27.9-16.1C416.4,194.7,415.5,194.7,414.7,195.1z"/></defs><clipPath id="XMLID_14_"><use overflow="visible" xlink:href="#XMLID_37_"/></clipPath></g></g></g><g><g><g><g><path d="M430.1,30.9c-12.7-7.3-23.6-7.2-31.8-2.3l0,0l-25.7,14.9l45.1,18.8l11.5,23.2 c-6.4,4.7-13.6,10.1-13.2,24.3L404,127.7l6.3,7.3l-17.9,10.3c0,0,8.4,15.6,9.2,15.9c0.8,0.3,13.6,23.3,13.6,23.3 l23.2-13.3c0.2-0.1,0.5-0.3,0.7-0.4l0.1,0l0,0c2.7-1.8,4.3-5.4,4.3-10.5c0-10.2-6.1-21.6-14.5-27.1l10.2-5.9 c-2.1-25.3,24.3-17.5,24.3-42.6C463.4,60.9,449,41.8,430.1,30.9z" class="st63"/><path d="M414.8,86.3c0-8.3-4.8-15.5-11.8-19.6c-6.5-3.8-11.3-2.7-16,0l-14.3-23.2c8.3-6.1,19.9-6.9,33.7,1 c18.9,10.9,33.3,29.9,33.3,53.8c0,25.1-26.4,17.3-24.3,42.6l-22.7-13.1C389.1,98.1,414.8,101.4,414.8,86.3z M388.4,155.9 c0-10.7,6.5-15,15.5-9.9c9,5.2,15.7,17.1,15.7,27.9c0,10.5-6.7,14.7-15.7,9.5C394.9,178.3,388.4,166.4,388.4,155.9z" class="st64"/></g></g></g></g><g><linearGradient id="XMLID_17_" x1="415.942" x2="415.942" y1="218.557" y2="199.126" gradientUnits="userSpaceOnUse"><stop offset="0" stop-color="#FFF" stop-opacity=".7"/><stop offset="1" stop-color="#F0E5FF" stop-opacity="0"/></linearGradient><path id="XMLID_4281_" d="M386.8,199.6c-0.8,0.5-0.8,1.6,0,2l27.9,16.1c0.7,0.4,1.6,0.4,2.4,0l27.9-16.1 c0.8-0.5,0.8-1.6,0-2" class="st65"/><linearGradient id="XMLID_18_" x1="415.942" x2="415.942" y1="206.883" y2="187.452" gradientUnits="userSpaceOnUse"><stop offset="0" stop-color="#FFF" stop-opacity=".7"/><stop offset="1" stop-color="#F0E5FF" stop-opacity="0"/></linearGradient><path id="XMLID_4280_" d="M386.8,187.9c-0.8,0.5-0.8,1.6,0,2l27.9,16.1c0.7,0.4,1.6,0.4,2.4,0l27.9-16.1 c0.8-0.5,0.8-1.6,0-2" class="st66"/><linearGradient id="XMLID_19_" x1="415.942" x2="415.942" y1="195.209" y2="175.778" gradientUnits="userSpaceOnUse"><stop offset="0" stop-color="#FFF" stop-opacity=".7"/><stop offset="1" stop-color="#F0E5FF" stop-opacity="0"/></linearGradient><path id="XMLID_4279_" d="M386.8,176.2c-0.8,0.5-0.8,1.6,0,2l27.9,16.1c0.7,0.4,1.6,0.4,2.4,0l27.9-16.1 c0.8-0.5,0.8-1.6,0-2" class="st67"/><linearGradient id="XMLID_20_" x1="415.942" x2="415.942" y1="183.535" y2="164.104" gradientUnits="userSpaceOnUse"><stop offset="0" stop-color="#FFF" stop-opacity=".7"/><stop offset="1" stop-color="#F0E5FF" stop-opacity="0"/></linearGradient><path id="XMLID_4278_" d="M386.8,164.5c-0.8,0.5-0.8,1.6,0,2l27.9,16.1c0.7,0.4,1.6,0.4,2.4,0l27.9-16.1 c0.8-0.5,0.8-1.6,0-2" class="st68"/><linearGradient id="XMLID_21_" x1="415.942" x2="415.942" y1="171.861" y2="152.43" gradientUnits="userSpaceOnUse"><stop offset="0" stop-color="#FFF" stop-opacity=".7"/><stop offset="1" stop-color="#F0E5FF" stop-opacity="0"/></linearGradient><path id="XMLID_4277_" d="M386.8,152.9c-0.8,0.5-0.8,1.6,0,2l27.9,16.1c0.7,0.4,1.6,0.4,2.4,0l27.9-16.1 c0.8-0.5,0.8-1.6,0-2" class="st69"/><linearGradient id="XMLID_22_" x1="415.942" x2="415.942" y1="160.186" y2="140.756" gradientUnits="userSpaceOnUse"><stop offset="0" stop-color="#FFF" stop-opacity=".7"/><stop offset="1" stop-color="#F0E5FF" stop-opacity="0"/></linearGradient><path id="XMLID_4143_" d="M386.8,141.2c-0.8,0.5-0.8,1.6,0,2l27.9,16.1c0.7,0.4,1.6,0.4,2.4,0l27.9-16.1 c0.8-0.5,0.8-1.6,0-2" class="st70"/><linearGradient id="XMLID_23_" x1="415.942" x2="415.942" y1="148.512" y2="129.082" gradientUnits="userSpaceOnUse"><stop offset="0" stop-color="#FFF" stop-opacity=".7"/><stop offset="1" stop-color="#F0E5FF" stop-opacity="0"/></linearGradient><path id="XMLID_2160_" d="M386.8,129.5c-0.8,0.5-0.8,1.6,0,2l27.9,16.1c0.7,0.4,1.6,0.4,2.4,0l27.9-16.1 c0.8-0.5,0.8-1.6,0-2" class="st71"/></g></g></g></g></g><g><g id="XMLID_4266_"><linearGradient id="SVGID_1_" x1="296.837" x2="352.266" y1="251.819" y2="251.819" gradientTransform="matrix(-1 0 0 1 668.9679 0)" gradientUnits="userSpaceOnUse"><stop offset="0" stop-color="#CC8636"/><stop offset=".146" stop-color="#DA8F3A"/><stop offset=".429" stop-color="#EE9C3F"/><stop offset=".709" stop-color="#FBA443"/><stop offset=".979" stop-color="#FFA744"/></linearGradient><path d="M317.9,268.1c0.2,0,0.4-0.1,0.6-0.2l53-30.1c0.3-0.2,0.5-0.4,0.6-0.7c0.1-0.3,0-0.6-0.1-0.9 c-0.2-0.4-0.6-0.6-1.1-0.6c-0.2,0-0.4,0.1-0.6,0.2l-53,30.1c-0.3,0.2-0.5,0.4-0.6,0.7c-0.1,0.3,0,0.6,0.1,0.9 C317.1,267.8,317.5,268.1,317.9,268.1z" class="st72"/></g><g id="XMLID_3930_"><linearGradient id="SVGID_2_" x1="288.832" x2="344.261" y1="256.822" y2="256.822" gradientTransform="matrix(-1 0 0 1 668.9679 0)" gradientUnits="userSpaceOnUse"><stop offset="0" stop-color="#CC8636"/><stop offset=".146" stop-color="#DA8F3A"/><stop offset=".429" stop-color="#EE9C3F"/><stop offset=".709" stop-color="#FBA443"/><stop offset=".979" stop-color="#FFA744"/></linearGradient><path d="M325.9,273.1c0.2,0,0.4-0.1,0.6-0.2l53-30.1c0.3-0.2,0.5-0.4,0.6-0.7c0.1-0.3,0-0.6-0.1-0.9 c-0.2-0.4-0.6-0.6-1.1-0.6c-0.2,0-0.4,0.1-0.6,0.2l-53,30.1c-0.3,0.2-0.5,0.4-0.6,0.7c-0.1,0.3,0,0.6,0.1,0.9 C325.1,272.8,325.5,273.1,325.9,273.1z" class="st73"/></g></g><g class="st0"><path id="XMLID_202_" d="M272.1,230.2c-14.9-8.6-39.4-8.6-54.3,0l-131.6,76c-14.9,8.6-14.9,22.7,0,31.4l131.6,76 c14.9,8.6,39.4,8.6,54.3,0l131.6-76c14.9-8.6,14.9-22.7,0-31.4L272.1,230.2z" class="st1"/><path d="M271.9,230.7c-14.9-8.6-39.2-8.6-54.1,0l-131,75.6c-14.9,8.6-14.9,22.6,0,31.2l131,75.6 c14.9,8.6,39.2,8.6,54.1,0l131-75.6c14.9-8.6,14.9-22.6,0-31.2L271.9,230.7z" class="st2"/><path d="M271.8,231.1c-14.8-8.5-39-8.5-53.8,0L87.6,306.4c-14.8,8.5-14.8,22.5,0,31.1L218,412.7 c14.8,8.5,39,8.5,53.8,0l130.4-75.3c14.8-8.5,14.8-22.5,0-31.1L271.8,231.1z" class="st3"/><path d="M271.7,231.6c-14.7-8.5-38.8-8.5-53.6,0L88.4,306.5c-14.7,8.5-14.7,22.4,0,30.9l129.7,74.9 c14.7,8.5,38.8,8.5,53.6,0l129.7-74.9c14.7-8.5,14.7-22.4,0-30.9L271.7,231.6z" class="st4"/><path d="M271.5,232c-14.7-8.5-38.6-8.5-53.3,0L89.1,306.5c-14.7,8.5-14.7,22.3,0,30.8l129.1,74.5 c14.7,8.5,38.6,8.5,53.3,0l129.1-74.5c14.7-8.5,14.7-22.3,0-30.8L271.5,232z" class="st5"/><path d="M271.4,232.4c-14.6-8.4-38.4-8.4-53,0L89.9,306.6c-14.6,8.4-14.6,22.2,0,30.6l128.5,74.2 c14.6,8.4,38.4,8.4,53,0l128.5-74.2c14.6-8.4,14.6-22.2,0-30.6L271.4,232.4z" class="st6"/><path d="M271.3,232.9c-14.5-8.4-38.3-8.4-52.8,0L90.7,306.7c-14.5,8.4-14.5,22.1,0,30.5L218.5,411 c14.5,8.4,38.3,8.4,52.8,0l127.8-73.8c14.5-8.4,14.5-22.1,0-30.5L271.3,232.9z" class="st7"/><path d="M271.1,233.3c-14.4-8.3-38.1-8.3-52.5,0L91.4,306.8c-14.4,8.3-14.4,22,0,30.3l127.2,73.4 c14.4,8.3,38.1,8.3,52.5,0l127.2-73.4c14.4-8.3,14.4-22,0-30.3L271.1,233.3z" class="st8"/><path d="M271,233.8c-14.4-8.3-37.9-8.3-52.2,0L92.2,306.8c-14.4,8.3-14.4,21.9,0,30.2l126.6,73.1 c14.4,8.3,37.9,8.3,52.2,0L397.6,337c14.4-8.3,14.4-21.9,0-30.2L271,233.8z" class="st9"/><path d="M270.9,234.2c-14.3-8.3-37.7-8.3-52,0L93,306.9c-14.3,8.3-14.3,21.8,0,30l125.9,72.7 c14.3,8.3,37.7,8.3,52,0l125.9-72.7c14.3-8.3,14.3-21.8,0-30L270.9,234.2z" class="st10"/><path d="M270.8,234.6c-14.2-8.2-37.5-8.2-51.7,0L93.7,307c-14.2,8.2-14.2,21.7,0,29.9L219,409.2 c14.2,8.2,37.5,8.2,51.7,0l125.3-72.4c14.2-8.2,14.2-21.7,0-29.9L270.8,234.6z" class="st11"/><path d="M270.6,235.1c-14.2-8.2-37.3-8.2-51.5,0l-124.7,72c-14.2,8.2-14.2,21.5,0,29.7l124.7,72 c14.2,8.2,37.3,8.2,51.5,0l124.7-72c14.2-8.2,14.2-21.5,0-29.7L270.6,235.1z" class="st12"/><path d="M270.5,235.5c-14.1-8.1-37.1-8.1-51.2,0L95.2,307.1c-14.1,8.1-14.1,21.4,0,29.6l124.1,71.6 c14.1,8.1,37.1,8.1,51.2,0l124-71.6c14.1-8.1,14.1-21.4,0-29.6L270.5,235.5z" class="st13"/><path d="M270.4,236c-14-8.1-36.9-8.1-50.9,0L96,307.2c-14,8.1-14,21.3,0,29.4l123.4,71.3c14,8.1,36.9,8.1,50.9,0 l123.4-71.3c14-8.1,14-21.3,0-29.4L270.4,236z" class="st14"/><path d="M270.2,236.4c-13.9-8-36.7-8-50.7,0L96.8,307.3c-13.9,8-13.9,21.2,0,29.3l122.8,70.9c13.9,8,36.7,8,50.7,0 L393,336.6c13.9-8,13.9-21.2,0-29.3L270.2,236.4z" class="st15"/><path d="M270.1,236.8c-13.9-8-36.6-8-50.4,0L97.5,307.4c-13.9,8-13.9,21.1,0,29.1L219.7,407c13.9,8,36.6,8,50.4,0 l122.2-70.5c13.9-8,13.9-21.1,0-29.1L270.1,236.8z" class="st16"/><path d="M270,237.3c-13.8-8-36.4-8-50.2,0L98.3,307.4c-13.8,8-13.8,21,0,29l121.5,70.2c13.8,8,36.4,8,50.2,0 l121.5-70.2c13.8-8,13.8-21,0-29L270,237.3z" class="st17"/><path d="M269.8,237.7c-13.7-7.9-36.2-7.9-49.9,0L99,307.5c-13.7,7.9-13.7,20.9,0,28.8l120.9,69.8 c13.7,7.9,36.2,7.9,49.9,0l120.9-69.8c13.7-7.9,13.7-20.9,0-28.8L269.8,237.7z" class="st18"/><path d="M269.7,238.2c-13.7-7.9-36-7.9-49.6,0L99.8,307.6c-13.7,7.9-13.7,20.8,0,28.7l120.3,69.4 c13.7,7.9,36,7.9,49.6,0L390,336.3c13.7-7.9,13.7-20.8,0-28.7L269.7,238.2z" class="st19"/><path d="M269.6,238.6c-13.6-7.8-35.8-7.8-49.4,0l-119.6,69.1c-13.6,7.8-13.6,20.7,0,28.5l119.6,69.1 c13.6,7.8,35.8,7.8,49.4,0l119.6-69.1c13.6-7.8,13.6-20.7,0-28.5L269.6,238.6z" class="st20"/><path d="M269.4,239c-13.5-7.8-35.6-7.8-49.1,0l-119,68.7c-13.5,7.8-13.5,20.6,0,28.4l119,68.7 c13.5,7.8,35.6,7.8,49.1,0l119-68.7c13.5-7.8,13.5-20.6,0-28.4L269.4,239z" class="st21"/><path d="M269.3,239.5c-13.4-7.8-35.4-7.8-48.9,0l-118.4,68.3c-13.4,7.8-13.4,20.5,0,28.2l118.4,68.3 c13.4,7.8,35.4,7.8,48.9,0L387.7,336c13.4-7.8,13.4-20.5,0-28.2L269.3,239.5z" class="st22"/><path d="M269.2,239.9c-13.4-7.7-35.2-7.7-48.6,0l-117.7,68c-13.4,7.7-13.4,20.3,0,28.1l117.7,68 c13.4,7.7,35.2,7.7,48.6,0l117.7-68c13.4-7.7,13.4-20.3,0-28.1L269.2,239.9z" class="st23"/><path d="M269.1,240.4c-13.3-7.7-35-7.7-48.3,0L103.6,308c-13.3,7.7-13.3,20.2,0,27.9l117.1,67.6 c13.3,7.7,35,7.7,48.3,0l117.1-67.6c13.3-7.7,13.3-20.2,0-27.9L269.1,240.4z" class="st24"/><path d="M268.9,240.8c-13.2-7.6-34.9-7.6-48.1,0L104.4,308c-13.2,7.6-13.2,20.1,0,27.8L220.9,403 c13.2,7.6,34.9,7.6,48.1,0l116.5-67.2c13.2-7.6,13.2-20.1,0-27.8L268.9,240.8z" class="st25"/><path d="M268.8,241.2c-13.1-7.6-34.7-7.6-47.8,0l-115.8,66.9c-13.1,7.6-13.1,20,0,27.6L221,402.6 c13.1,7.6,34.7,7.6,47.8,0l115.8-66.9c13.2-7.6,13.2-20,0-27.6L268.8,241.2z" class="st26"/><path d="M268.7,241.7c-13.1-7.5-34.5-7.5-47.6,0l-115.2,66.5c-13.1,7.6-13.1,19.9,0,27.5l115.2,66.5 c13.1,7.5,34.5,7.5,47.6,0l115.2-66.5c13.1-7.5,13.1-19.9,0-27.5L268.7,241.7z" class="st27"/><path d="M268.5,242.1c-13-7.5-34.3-7.5-47.3,0l-114.6,66.2c-13,7.5-13,19.8,0,27.3l114.6,66.2 c13,7.5,34.3,7.5,47.3,0l114.6-66.2c13-7.5,13-19.8,0-27.3L268.5,242.1z" class="st28"/><path d="M268.4,242.6c-12.9-7.5-34.1-7.5-47,0l-113.9,65.8c-12.9,7.5-12.9,19.7,0,27.2l113.9,65.8 c12.9,7.5,34.1,7.5,47,0l113.9-65.8c12.9-7.5,12.9-19.7,0-27.2L268.4,242.6z" class="st29"/><path d="M268.3,243c-12.9-7.4-33.9-7.4-46.8,0l-113.3,65.4c-12.9,7.4-12.9,19.6,0,27l113.3,65.4 c12.9,7.4,33.9,7.4,46.8,0l113.3-65.4c12.9-7.4,12.9-19.6,0-27L268.3,243z" class="st30"/><path d="M268.1,243.4c-12.8-7.4-33.7-7.4-46.5,0L109,308.5c-12.8,7.4-12.8,19.5,0,26.9l112.7,65.1 c12.8,7.4,33.7,7.4,46.5,0l112.7-65.1c12.8-7.4,12.8-19.5,0-26.9L268.1,243.4z" class="st31"/><path d="M268,243.9c-12.7-7.3-33.5-7.3-46.3,0l-112.1,64.7c-12.7,7.3-12.7,19.4,0,26.7L221.8,400 c12.7,7.3,33.5,7.3,46.3,0l112-64.7c12.7-7.3,12.7-19.4,0-26.7L268,243.9z" class="st32"/><path d="M267.9,244.3c-12.6-7.3-33.3-7.3-46,0l-111.4,64.3c-12.6,7.3-12.6,19.3,0,26.6l111.4,64.3 c12.6,7.3,33.3,7.3,46,0l111.4-64.3c12.6-7.3,12.6-19.2,0-26.6L267.9,244.3z" class="st33"/><path d="M267.8,244.8c-12.6-7.3-33.2-7.3-45.7,0l-110.8,64c-12.6,7.3-12.6,19.1,0,26.4l110.8,64 c12.6,7.3,33.2,7.3,45.7,0l110.8-64c12.6-7.3,12.6-19.1,0-26.4L267.8,244.8z" class="st34"/><path d="M267.6,245.2c-12.5-7.2-33-7.2-45.5,0L112,308.8c-12.5,7.2-12.5,19,0,26.3l110.2,63.6 c12.5,7.2,33,7.2,45.5,0L377.8,335c12.5-7.2,12.5-19,0-26.3L267.6,245.2z" class="st35"/><path d="M267.5,245.6c-12.4-7.2-32.8-7.2-45.2,0l-109.5,63.2c-12.4,7.2-12.4,18.9,0,26.1l109.5,63.2 c12.4,7.2,32.8,7.2,45.2,0L377,335c12.4-7.2,12.4-18.9,0-26.1L267.5,245.6z" class="st36"/><path d="M267.4,246.1c-12.4-7.1-32.6-7.1-44.9,0l-108.9,62.9c-12.4,7.1-12.4,18.8,0,26l108.9,62.9 c12.4,7.1,32.6,7.1,44.9,0l108.9-62.9c12.4-7.1,12.4-18.8,0-26L267.4,246.1z" class="st37"/><path d="M267.2,246.5c-12.3-7.1-32.4-7.1-44.7,0L114.3,309c-12.3,7.1-12.3,18.7,0,25.8l108.3,62.5 c12.3,7.1,32.4,7.1,44.7,0l108.3-62.5c12.3-7.1,12.3-18.7,0-25.8L267.2,246.5z" class="st38"/><path d="M267.1,247c-12.2-7.1-32.2-7.1-44.4,0L115,309.1c-12.2,7.1-12.2,18.6,0,25.6l107.6,62.1 c12.2,7.1,32.2,7.1,44.4,0l107.6-62.1c12.2-7.1,12.2-18.6,0-25.6L267.1,247z" class="st39"/><path d="M267,247.4c-12.1-7-32-7-44.2,0l-107,61.8c-12.1,7-12.1,18.5,0,25.5l107,61.8c12.1,7,32,7,44.2,0l107-61.8 c12.1-7,12.1-18.5,0-25.5L267,247.4z" class="st40"/><path d="M266.8,247.8c-12.1-7-31.8-7-43.9,0l-106.4,61.4c-12.1,7-12.1,18.4,0,25.3L222.9,396c12.1,7,31.8,7,43.9,0 l106.4-61.4c12.1-7,12.1-18.4,0-25.3L266.8,247.8z" class="st41"/><path d="M266.7,248.3c-12-6.9-31.6-6.9-43.6,0l-105.7,61c-12,6.9-12,18.3,0,25.2l105.7,61c12,6.9,31.6,6.9,43.6,0 l105.7-61c12-6.9,12-18.3,0-25.2L266.7,248.3z" class="st42"/><path d="M266.6,248.7c-11.9-6.9-31.5-6.9-43.4,0l-105.1,60.7c-11.9,6.9-11.9,18.2,0,25l105.1,60.7 c11.9,6.9,31.5,6.9,43.4,0l105.1-60.7c11.9-6.9,11.9-18.2,0-25L266.6,248.7z" class="st43"/><path d="M266.5,249.2c-11.9-6.8-31.3-6.8-43.1,0l-104.5,60.3c-11.9,6.8-11.9,18.1,0,24.9l104.5,60.3 c11.9,6.8,31.3,6.8,43.1,0l104.5-60.3c11.9-6.8,11.9-18.1,0-24.9L266.5,249.2z" class="st44"/><path d="M266.3,249.6c-11.8-6.8-31.1-6.8-42.9,0l-103.8,60c-11.8,6.8-11.8,17.9,0,24.7l103.8,60 c11.8,6.8,31.1,6.8,42.9,0l103.8-60c11.8-6.8,11.8-17.9,0-24.7L266.3,249.6z" class="st45"/><path d="M266.2,250c-11.7-6.8-30.9-6.8-42.6,0l-103.2,59.6c-11.7,6.8-11.7,17.8,0,24.6l103.2,59.6 c11.7,6.8,30.9,6.8,42.6,0l103.2-59.6c11.7-6.8,11.7-17.8,0-24.6L266.2,250z" class="st46"/><path d="M266.1,250.5c-11.6-6.7-30.7-6.7-42.3,0l-102.6,59.2c-11.6,6.7-11.6,17.7,0,24.4l102.6,59.2 c11.6,6.7,30.7,6.7,42.3,0l102.6-59.2c11.6-6.7,11.6-17.7,0-24.4L266.1,250.5z" class="st47"/><path d="M265.9,250.9c-11.6-6.7-30.5-6.7-42.1,0l-101.9,58.9c-11.6,6.7-11.6,17.6,0,24.3l101.9,58.9 c11.6,6.7,30.5,6.7,42.1,0l101.9-58.9c11.6-6.7,11.6-17.6,0-24.3L265.9,250.9z" class="st48"/><path d="M265.8,251.4c-11.5-6.6-30.3-6.6-41.8,0l-101.3,58.5c-11.5,6.6-11.5,17.5,0,24.1L224,392.5 c11.5,6.6,30.3,6.6,41.8,0L367.1,334c11.5-6.6,11.5-17.5,0-24.1L265.8,251.4z" class="st49"/><path d="M265.7,251.8c-11.4-6.6-30.1-6.6-41.6,0l-100.7,58.1c-11.4,6.6-11.4,17.4,0,24l100.7,58.1 c11.4,6.6,30.1,6.6,41.6,0l100.7-58.1c11.4-6.6,11.4-17.4,0-24L265.7,251.8z" class="st50"/><path d="M265.5,252.2c-11.4-6.6-29.9-6.6-41.3,0L124.2,310c-11.4,6.6-11.4,17.3,0,23.8l100.1,57.8 c11.4,6.6,29.9,6.6,41.3,0l100.1-57.8c11.4-6.6,11.4-17.3,0-23.8L265.5,252.2z" class="st51"/><path id="XMLID_201_" d="M265.4,252.7c-11.3-6.5-29.8-6.5-41,0L125,310.1c-11.3,6.5-11.3,17.2,0,23.7l99.4,57.4 c11.3,6.5,29.8,6.5,41,0l99.4-57.4c11.3-6.5,11.3-17.2,0-23.7L265.4,252.7z" class="st52"/></g><linearGradient id="XMLID_24_" x1="90.809" x2="399.232" y1="320.031" y2="320.031" gradientUnits="userSpaceOnUse"><stop offset="0" stop-color="#78727F"/><stop offset=".47" stop-color="#B4ACBF"/><stop offset=".489" stop-color="#C3BACF"/><stop offset=".525" stop-color="#EADFF8"/><stop offset=".53" stop-color="#F0E5FF"/></linearGradient><path id="XMLID_4262_" d="M238.8,231l-148,81.8v8.7c0,1.2,0.6,2.3,1.6,2.9L238.8,409c3.8,2.2,8.6,2.2,12.4,0 l146.2-84.5c1.2-0.7,1.9-1.9,1.9-3.2v-8.5l-148-81.8C247.4,228.8,242.7,228.8,238.8,231z" class="st74"/><linearGradient id="XMLID_25_" x1="90.809" x2="399.232" y1="312.819" y2="312.819" gradientUnits="userSpaceOnUse"><stop offset="0" stop-color="#F0E5FF"/><stop offset="1" stop-color="#FFF"/></linearGradient><path id="XMLID_4261_" d="M238.8,223.8l-145,83.7c-4.1,2.4-4.1,8.2,0,10.6l145,83.7c3.8,2.2,8.6,2.2,12.4,0 l145-83.7c4.1-2.4,4.1-8.2,0-10.6l-145-83.7C247.4,221.6,242.7,221.6,238.8,223.8z" class="st75"/><g id="XMLID_4260_"><linearGradient id="SVGID_3_" x1="509.839" x2="569.849" y1="376.141" y2="376.141" gradientTransform="matrix(-1 0 0 1 668.9679 0)" gradientUnits="userSpaceOnUse"><stop offset="0" stop-color="#2F1359"/><stop offset=".098" stop-color="#3E1C71"/><stop offset=".278" stop-color="#552A96"/><stop offset=".457" stop-color="#6736B3"/><stop offset=".635" stop-color="#743EC7"/><stop offset=".81" stop-color="#7B42D4"/><stop offset=".979" stop-color="#7E44D8"/></linearGradient><path d="M100.3,393.6c0.2,0,0.4-0.1,0.6-0.2l57.6-32.5c0.3-0.2,0.5-0.4,0.6-0.7s0-0.6-0.1-0.9 c-0.2-0.4-0.6-0.6-1.1-0.6c-0.2,0-0.4,0.1-0.6,0.2l-57.6,32.5c-0.3,0.2-0.5,0.4-0.6,0.7c-0.1,0.3,0,0.6,0.1,0.9 C99.5,393.3,99.9,393.6,100.3,393.6z" class="st76"/><g id="XMLID_2325_"><linearGradient id="SVGID_4_" x1="501.834" x2="561.844" y1="381.144" y2="381.144" gradientTransform="matrix(-1 0 0 1 668.9679 0)" gradientUnits="userSpaceOnUse"><stop offset="0" stop-color="#2F1359"/><stop offset=".098" stop-color="#3E1C71"/><stop offset=".278" stop-color="#552A96"/><stop offset=".457" stop-color="#6736B3"/><stop offset=".635" stop-color="#743EC7"/><stop offset=".81" stop-color="#7B42D4"/><stop offset=".979" stop-color="#7E44D8"/></linearGradient><path d="M108.3,398.6c0.2,0,0.4-0.1,0.6-0.2l57.6-32.5c0.3-0.2,0.5-0.4,0.6-0.7s0-0.6-0.1-0.9 c-0.2-0.4-0.6-0.6-1.1-0.6c-0.2,0-0.4,0.1-0.6,0.2l-57.6,32.5c-0.3,0.2-0.5,0.4-0.6,0.7c-0.1,0.3,0,0.6,0.1,0.9 C107.5,398.3,107.9,398.6,108.3,398.6z" class="st77"/></g></g><g><linearGradient id="SVGID_5_" x1="114.81" x2="375.231" y1="292.688" y2="292.688" gradientUnits="userSpaceOnUse"><stop offset="0" stop-color="#B4ACBF"/><stop offset=".456" stop-color="#F0E5FF"/><stop offset=".486" stop-color="#F9F5FF"/><stop offset=".502" stop-color="#FFF"/></linearGradient><path d="M375.1,277c0.7-4.8-2-9.7-8.4-13.4l-100.9-58.3c-11.5-6.6-30.2-6.6-41.7,0l-100.9,58.3 c-6.3,3.7-9,8.6-8.4,13.4c-0.1,0.9-0.1,30.4,0,31.3c-0.7,4.8,2,9.7,8.4,13.4L224.2,380c11.5,6.6,30.2,6.6,41.7,0l100.9-58.3 c6.3-3.7,9-8.6,8.4-13.4C375.3,307.4,375.3,278,375.1,277z" class="st78"/><linearGradient id="XMLID_26_" x1="114.806" x2="375.235" y1="324.847" y2="324.847" gradientUnits="userSpaceOnUse"><stop offset="0" stop-color="#1D073F"/><stop offset=".456" stop-color="#2F1359"/><stop offset=".473" stop-color="#371669"/><stop offset=".502" stop-color="#491E8C"/></linearGradient><path id="XMLID_2513_" d="M366.7,292.8L265.8,351c-11.4,6.6-30.2,6.6-41.6,0l-100.8-58.2c-5.7-3.3-8.6-7.7-8.6-12 l0,0v7c0,14.6,4.1,15,10.8,19.1l98.6,57c11.4,6.6,30.2,6.6,41.6,0l98.2-56.6c6.9-4,11.2-5.6,11.2-19.3v-7.1 C375.2,285.2,372.4,289.5,366.7,292.8z" class="st79"/></g><linearGradient id="XMLID_27_" x1="90.809" x2="399.232" y1="256.991" y2="256.991" gradientUnits="userSpaceOnUse"><stop offset="0" stop-color="#78727F"/><stop offset=".47" stop-color="#B4ACBF"/><stop offset=".489" stop-color="#C3BACF"/><stop offset=".525" stop-color="#EADFF8"/><stop offset=".53" stop-color="#F0E5FF"/></linearGradient><path id="XMLID_4722_" d="M238.8,168l-148,81.8v8.7c0,1.2,0.6,2.3,1.6,2.9L238.8,346c3.8,2.2,8.6,2.2,12.4,0 l146.2-84.5c1.2-0.7,1.9-1.9,1.9-3.2v-8.5l-148-81.8C247.4,165.8,242.7,165.8,238.8,168z" class="st80"/><linearGradient id="XMLID_28_" x1="90.809" x2="399.232" y1="249.779" y2="249.779" gradientUnits="userSpaceOnUse"><stop offset="0" stop-color="#F0E5FF"/><stop offset="1" stop-color="#FFF"/></linearGradient><path id="XMLID_4267_" d="M238.8,160.8l-145,83.7c-4.1,2.4-4.1,8.2,0,10.6l145,83.7c3.8,2.2,8.6,2.2,12.4,0 l145-83.7c4.1-2.4,4.1-8.2,0-10.6l-145-83.7C247.4,158.6,242.7,158.6,238.8,160.8z" class="st81"/><g><g><g><g id="XMLID_4145_"><g class="st0"><path id="XMLID_745_" d="M85.8,381.5c-6.5-3.8-17.1-3.8-23.7,0L4.9,414.6c-6.5,3.8-6.5,9.9,0,13.7l57.3,33.1 c6.5,3.8,17.1,3.8,23.7,0l57.3-33.1c6.5-3.8,6.5-9.9,0-13.7L85.8,381.5z" class="st1"/><path d="M85.7,381.7c-6.5-3.7-17.1-3.7-23.5,0l-57,32.9c-6.5,3.7-6.5,9.9,0,13.6l57,32.9 c6.5,3.7,17.1,3.7,23.5,0l57-32.9c6.5-3.7,6.5-9.9,0-13.6L85.7,381.7z" class="st2"/><path d="M85.7,381.9c-6.4-3.7-17-3.7-23.4,0L5.5,414.6c-6.4,3.7-6.4,9.8,0,13.5l56.7,32.8 c6.4,3.7,17,3.7,23.4,0l56.7-32.8c6.4-3.7,6.4-9.8,0-13.5L85.7,381.9z" class="st3"/><path d="M85.6,382c-6.4-3.7-16.9-3.7-23.3,0L5.9,414.7c-6.4,3.7-6.4,9.8,0,13.5l56.5,32.6 c6.4,3.7,16.9,3.7,23.3,0l56.5-32.6c6.4-3.7,6.4-9.8,0-13.5L85.6,382z" class="st4"/><path d="M85.6,382.2c-6.4-3.7-16.8-3.7-23.2,0L6.2,414.7c-6.4,3.7-6.4,9.7,0,13.4l56.2,32.4 c6.4,3.7,16.8,3.7,23.2,0l56.2-32.4c6.4-3.7,6.4-9.7,0-13.4L85.6,382.2z" class="st5"/><path d="M85.5,382.4c-6.3-3.7-16.7-3.7-23.1,0L6.5,414.7c-6.3,3.7-6.3,9.7,0,13.3l55.9,32.3 c6.3,3.7,16.7,3.7,23.1,0l55.9-32.3c6.3-3.7,6.3-9.7,0-13.3L85.5,382.4z" class="st6"/><path d="M85.5,382.6c-6.3-3.6-16.7-3.6-23,0L6.8,414.8c-6.3,3.6-6.3,9.6,0,13.3l55.6,32.1 c6.3,3.6,16.7,3.6,23,0l55.6-32.1c6.3-3.6,6.3-9.6,0-13.3L85.5,382.6z" class="st7"/><path d="M85.4,382.8c-6.3-3.6-16.6-3.6-22.9,0l-55.4,32c-6.3,3.6-6.3,9.6,0,13.2l55.4,32 c6.3,3.6,16.6,3.6,22.9,0l55.4-32c6.3-3.6,6.3-9.6,0-13.2L85.4,382.8z" class="st8"/><path d="M85.4,383c-6.3-3.6-16.5-3.6-22.7,0L7.5,414.8c-6.3,3.6-6.3,9.5,0,13.1l55.1,31.8 c6.3,3.6,16.5,3.6,22.7,0l55.1-31.8c6.3-3.6,6.3-9.5,0-13.1L85.4,383z" class="st9"/><path d="M85.3,383.2c-6.2-3.6-16.4-3.6-22.6,0L7.8,414.9c-6.2,3.6-6.2,9.5,0,13.1l54.8,31.7 c6.2,3.6,16.4,3.6,22.6,0l54.8-31.7c6.2-3.6,6.2-9.5,0-13.1L85.3,383.2z" class="st10"/><path d="M85.2,383.4c-6.2-3.6-16.3-3.6-22.5,0L8.2,414.9c-6.2,3.6-6.2,9.4,0,13l54.5,31.5 c6.2,3.6,16.3,3.6,22.5,0l54.5-31.5c6.2-3.6,6.2-9.4,0-13L85.2,383.4z" class="st11"/><path d="M85.2,383.6c-6.2-3.6-16.2-3.6-22.4,0L8.5,414.9c-6.2,3.6-6.2,9.4,0,12.9l54.3,31.3 c6.2,3.6,16.2,3.6,22.4,0l54.3-31.3c6.2-3.6,6.2-9.4,0-12.9L85.2,383.6z" class="st12"/><path d="M85.1,383.8c-6.1-3.5-16.2-3.5-22.3,0l-54,31.2c-6.1,3.5-6.1,9.3,0,12.9l54,31.2 c6.1,3.5,16.2,3.5,22.3,0l54-31.2c6.1-3.5,6.1-9.3,0-12.9L85.1,383.8z" class="st13"/><path d="M85.1,384c-6.1-3.5-16.1-3.5-22.2,0L9.2,415c-6.1,3.5-6.1,9.3,0,12.8l53.7,31c6.1,3.5,16.1,3.5,22.2,0 l53.7-31c6.1-3.5,6.1-9.3,0-12.8L85.1,384z" class="st14"/><path d="M85,384.2c-6.1-3.5-16-3.5-22.1,0L9.5,415c-6.1,3.5-6.1,9.2,0,12.7l53.4,30.9c6.1,3.5,16,3.5,22.1,0 l53.4-30.9c6.1-3.5,6.1-9.2,0-12.7L85,384.2z" class="st15"/><path d="M85,384.3c-6-3.5-15.9-3.5-21.9,0L9.8,415c-6,3.5-6,9.2,0,12.7L63,458.4c6,3.5,15.9,3.5,21.9,0 l53.2-30.7c6-3.5,6-9.2,0-12.7L85,384.3z" class="st16"/><path d="M84.9,384.5c-6-3.5-15.8-3.5-21.8,0l-52.9,30.5c-6,3.5-6,9.1,0,12.6l52.9,30.5c6,3.5,15.8,3.5,21.8,0 l52.9-30.5c6-3.5,6-9.1,0-12.6L84.9,384.5z" class="st17"/><path d="M84.8,384.7c-6-3.4-15.7-3.4-21.7,0l-52.6,30.4c-6,3.4-6,9.1,0,12.5L63.1,458c6,3.4,15.7,3.4,21.7,0 l52.6-30.4c6-3.4,6-9.1,0-12.5L84.8,384.7z" class="st18"/><path d="M84.8,384.9c-5.9-3.4-15.7-3.4-21.6,0l-52.3,30.2c-5.9,3.4-5.9,9,0,12.5l52.3,30.2 c5.9,3.4,15.7,3.4,21.6,0l52.3-30.2c5.9-3.4,5.9-9,0-12.5L84.8,384.9z" class="st19"/><path d="M84.7,385.1c-5.9-3.4-15.6-3.4-21.5,0l-52.1,30.1c-5.9,3.4-5.9,9,0,12.4l52.1,30.1 c5.9,3.4,15.6,3.4,21.5,0l52.1-30.1c5.9-3.4,5.9-9,0-12.4L84.7,385.1z" class="st20"/><path d="M84.7,385.3c-5.9-3.4-15.5-3.4-21.4,0l-51.8,29.9c-5.9,3.4-5.9,8.9,0,12.3l51.8,29.9 c5.9,3.4,15.5,3.4,21.4,0l51.8-29.9c5.9-3.4,5.9-8.9,0-12.3L84.7,385.3z" class="st21"/><path d="M84.6,385.5c-5.8-3.4-15.4-3.4-21.3,0l-51.5,29.7c-5.8,3.4-5.8,8.9,0,12.3l51.5,29.7 c5.8,3.4,15.4,3.4,21.3,0l51.5-29.7c5.8-3.4,5.8-8.9,0-12.3L84.6,385.5z" class="st22"/><path d="M84.6,385.7c-5.8-3.4-15.3-3.4-21.2,0l-51.2,29.6c-5.8,3.4-5.8,8.9,0,12.2l51.2,29.6 c5.8,3.4,15.3,3.4,21.2,0l51.2-29.6c5.8-3.4,5.8-8.9,0-12.2L84.6,385.7z" class="st23"/><path d="M84.5,385.9c-5.8-3.3-15.3-3.3-21,0l-51,29.4c-5.8,3.3-5.8,8.8,0,12.1l51,29.4c5.8,3.3,15.3,3.3,21,0 l51-29.4c5.8-3.3,5.8-8.8,0-12.1L84.5,385.9z" class="st24"/><path d="M84.4,386.1c-5.8-3.3-15.2-3.3-20.9,0l-50.7,29.3c-5.8,3.3-5.8,8.8,0,12.1l50.7,29.3 c5.8,3.3,15.2,3.3,20.9,0l50.7-29.3c5.8-3.3,5.8-8.8,0-12.1L84.4,386.1z" class="st25"/><path d="M84.4,386.3c-5.7-3.3-15.1-3.3-20.8,0l-50.4,29.1c-5.7,3.3-5.7,8.7,0,12l50.4,29.1 c5.7,3.3,15.1,3.3,20.8,0l50.4-29.1c5.7-3.3,5.7-8.7,0-12L84.4,386.3z" class="st26"/><path d="M84.3,386.5c-5.7-3.3-15-3.3-20.7,0l-50.1,29c-5.7,3.3-5.7,8.7,0,12l50.1,29c5.7,3.3,15,3.3,20.7,0 l50.1-29c5.7-3.3,5.7-8.7,0-12L84.3,386.5z" class="st27"/><path d="M84.3,386.6c-5.7-3.3-14.9-3.3-20.6,0l-49.9,28.8c-5.7,3.3-5.7,8.6,0,11.9l49.9,28.8 c5.7,3.3,14.9,3.3,20.6,0l49.9-28.8c5.7-3.3,5.7-8.6,0-11.9L84.3,386.6z" class="st28"/><path d="M84.2,386.8c-5.6-3.2-14.8-3.2-20.5,0l-49.6,28.6c-5.6,3.3-5.6,8.6,0,11.8l49.6,28.6 c5.6,3.3,14.8,3.3,20.5,0l49.6-28.6c5.6-3.3,5.6-8.6,0-11.8L84.2,386.8z" class="st29"/><path d="M84.2,387c-5.6-3.2-14.8-3.2-20.4,0l-49.3,28.5c-5.6,3.2-5.6,8.5,0,11.8l49.3,28.5 c5.6,3.2,14.8,3.2,20.4,0l49.3-28.5c5.6-3.2,5.6-8.5,0-11.8L84.2,387z" class="st30"/><path d="M84.1,387.2c-5.6-3.2-14.7-3.2-20.2,0l-49,28.3c-5.6,3.2-5.6,8.5,0,11.7l49,28.3 c5.6,3.2,14.7,3.2,20.2,0l49-28.3c5.6-3.2,5.6-8.5,0-11.7L84.1,387.2z" class="st31"/><path d="M84,387.4c-5.5-3.2-14.6-3.2-20.1,0l-48.8,28.2c-5.5,3.2-5.5,8.4,0,11.6l48.8,28.2 c5.5,3.2,14.6,3.2,20.1,0l48.8-28.2c5.5-3.2,5.5-8.4,0-11.6L84,387.4z" class="st32"/><path d="M84,387.6c-5.5-3.2-14.5-3.2-20,0l-48.5,28c-5.5,3.2-5.5,8.4,0,11.6l48.5,28c5.5,3.2,14.5,3.2,20,0 l48.5-28c5.5-3.2,5.5-8.4,0-11.6L84,387.6z" class="st33"/><path d="M83.9,387.8c-5.5-3.2-14.4-3.2-19.9,0l-48.2,27.8c-5.5,3.2-5.5,8.3,0,11.5L64,455 c5.5,3.2,14.4,3.2,19.9,0l48.2-27.8c5.5-3.2,5.5-8.3,0-11.5L83.9,387.8z" class="st34"/><path d="M83.9,388c-5.4-3.1-14.3-3.1-19.8,0l-48,27.7c-5.4,3.1-5.4,8.3,0,11.4l48,27.7 c5.4,3.1,14.3,3.1,19.8,0l47.9-27.7c5.4-3.1,5.4-8.3,0-11.4L83.9,388z" class="st35"/><path d="M83.8,388.2c-5.4-3.1-14.3-3.1-19.7,0l-47.7,27.5c-5.4,3.1-5.4,8.2,0,11.4l47.7,27.5 c5.4,3.1,14.3,3.1,19.7,0l47.7-27.5c5.4-3.1,5.4-8.2,0-11.4L83.8,388.2z" class="st36"/><path d="M83.8,388.4c-5.4-3.1-14.2-3.1-19.6,0l-47.4,27.4c-5.4,3.1-5.4,8.2,0,11.3l47.4,27.4 c5.4,3.1,14.2,3.1,19.6,0l47.4-27.4c5.4-3.1,5.4-8.2,0-11.3L83.8,388.4z" class="st37"/><path d="M83.7,388.6c-5.3-3.1-14.1-3.1-19.5,0l-47.1,27.2c-5.3,3.1-5.3,8.1,0,11.2l47.1,27.2 c5.3,3.1,14.1,3.1,19.5,0l47.1-27.2c5.3-3.1,5.3-8.1,0-11.2L83.7,388.6z" class="st38"/><path d="M83.6,388.8c-5.3-3.1-14-3.1-19.3,0l-46.9,27c-5.3,3.1-5.3,8.1,0,11.2l46.9,27c5.3,3.1,14,3.1,19.3,0 l46.9-27c5.3-3.1,5.3-8.1,0-11.2L83.6,388.8z" class="st39"/><path d="M83.6,388.9c-5.3-3.1-13.9-3.1-19.2,0l-46.6,26.9c-5.3,3.1-5.3,8,0,11.1l46.6,26.9 c5.3,3.1,13.9,3.1,19.2,0l46.6-26.9c5.3-3.1,5.3-8,0-11.1L83.6,388.9z" class="st40"/><path d="M83.5,389.1c-5.3-3-13.9-3-19.1,0l-46.3,26.7c-5.3,3-5.3,8,0,11l46.3,26.7c5.3,3,13.9,3,19.1,0 l46.3-26.7c5.3-3,5.3-8,0-11L83.5,389.1z" class="st41"/><path d="M83.5,389.3c-5.2-3-13.8-3-19,0l-46,26.6c-5.2,3-5.2,8,0,11l46,26.6c5.2,3,13.8,3,19,0l46-26.6 c5.2-3,5.2-8,0-11L83.5,389.3z" class="st42"/><path d="M83.4,389.5c-5.2-3-13.7-3-18.9,0l-45.8,26.4c-5.2,3-5.2,7.9,0,10.9l45.8,26.4c5.2,3,13.7,3,18.9,0 l45.8-26.4c5.2-3,5.2-7.9,0-10.9L83.4,389.5z" class="st43"/><path d="M83.4,389.7c-5.2-3-13.6-3-18.8,0L19.1,416c-5.2,3-5.2,7.9,0,10.8l45.5,26.3c5.2,3,13.6,3,18.8,0 l45.5-26.3c5.2-3,5.2-7.9,0-10.8L83.4,389.7z" class="st44"/><path d="M83.3,389.9c-5.1-3-13.5-3-18.7,0L19.4,416c-5.1,3-5.1,7.8,0,10.8l45.2,26.1c5.1,3,13.5,3,18.7,0 l45.2-26.1c5.1-3,5.1-7.8,0-10.8L83.3,389.9z" class="st45"/><path d="M83.3,390.1c-5.1-2.9-13.4-2.9-18.5,0L19.8,416c-5.1,2.9-5.1,7.8,0,10.7l44.9,25.9 c5.1,2.9,13.4,2.9,18.5,0l44.9-25.9c5.1-2.9,5.1-7.8,0-10.7L83.3,390.1z" class="st46"/><path d="M83.2,390.3c-5.1-2.9-13.4-2.9-18.4,0l-44.7,25.8c-5.1,2.9-5.1,7.7,0,10.6l44.7,25.8 c5.1,2.9,13.4,2.9,18.4,0l44.7-25.8c5.1-2.9,5.1-7.7,0-10.6L83.2,390.3z" class="st47"/><path d="M83.1,390.5c-5-2.9-13.3-2.9-18.3,0l-44.4,25.6c-5,2.9-5,7.7,0,10.6l44.4,25.6c5,2.9,13.3,2.9,18.3,0 l44.4-25.6c5-2.9,5-7.7,0-10.6L83.1,390.5z" class="st48"/><path d="M83.1,390.7c-5-2.9-13.2-2.9-18.2,0l-44.1,25.5c-5,2.9-5,7.6,0,10.5l44.1,25.5c5,2.9,13.2,2.9,18.2,0 l44.1-25.5c5-2.9,5-7.6,0-10.5L83.1,390.7z" class="st49"/><path d="M83,390.9c-5-2.9-13.1-2.9-18.1,0l-43.8,25.3c-5,2.9-5,7.6,0,10.4l43.8,25.3c5,2.9,13.1,2.9,18.1,0 l43.8-25.3c5-2.9,5-7.6,0-10.4L83,390.9z" class="st50"/><path d="M83,391c-4.9-2.9-13-2.9-18,0l-43.6,25.1c-4.9,2.9-4.9,7.5,0,10.4L65,451.7c4.9,2.9,13,2.9,18,0 l43.6-25.1c4.9-2.9,4.9-7.5,0-10.4L83,391z" class="st51"/><path id="XMLID_203_" d="M82.9,391.2c-4.9-2.8-13-2.8-17.9,0l-43.3,25c-4.9,2.8-4.9,7.5,0,10.3l43.3,25 c4.9,2.8,13,2.8,17.9,0l43.3-25c4.9-2.8,4.9-7.5,0-10.3L82.9,391.2z" class="st52"/></g><linearGradient id="XMLID_29_" x1="7.053" x2="140.906" y1="420.561" y2="420.561" gradientUnits="userSpaceOnUse"><stop offset="0" stop-color="#B4ACBF"/><stop offset=".515" stop-color="#D1C8DE"/><stop offset="1" stop-color="#F0E5FF"/></linearGradient><path id="XMLID_4147_" d="M71.3,381.9L7.1,412.5v8.7c0,0.5,0.3,1,0.7,1.2l63.5,36.7c1.7,1,3.7,1,5.4,0 l63.4-36.7c0.5-0.3,0.8-0.8,0.8-1.4v-8.6l-64.2-30.5C75,381,73,381,71.3,381.9z" class="st82"/><linearGradient id="XMLID_30_" x1="7.053" x2="140.906" y1="412.461" y2="412.461" gradientUnits="userSpaceOnUse"><stop offset="0" stop-color="#F0E5FF"/><stop offset="1" stop-color="#FFF"/></linearGradient><path id="XMLID_4146_" d="M71.3,373.8L8.4,410.2c-1.8,1-1.8,3.6,0,4.6l62.9,36.3c1.7,1,3.7,1,5.4,0l62.9-36.3 c1.8-1,1.8-3.6,0-4.6l-62.9-36.3C75,372.9,73,372.9,71.3,373.8z" class="st83"/></g><g><linearGradient id="XMLID_31_" x1="25.884" x2="121.355" y1="411.223" y2="411.223" gradientUnits="userSpaceOnUse"><stop offset="0" stop-color="#F0E5FF"/><stop offset="1" stop-color="#FFF"/></linearGradient><path id="XMLID_4144_" d="M71.7,383.7l-44.9,25.9c-1.3,0.7-1.3,2.6,0,3.3l44.9,25.9c1.2,0.7,2.6,0.7,3.8,0 l44.9-25.9c1.3-0.7,1.3-2.6,0-3.3l-44.9-25.9C74.4,383,72.9,383,71.7,383.7z" class="st84"/><linearGradient id="XMLID_32_" x1="25.893" x2="121.346" y1="424.727" y2="424.727" gradientUnits="userSpaceOnUse"><stop offset="0" stop-color="#B4ACBF"/><stop offset=".515" stop-color="#D1C8DE"/><stop offset="1" stop-color="#F0E5FF"/></linearGradient><path id="XMLID_4142_" d="M120.4,410.8l-44.9,25.9c-1.2,0.7-2.6,0.7-3.8,0l-44.9-25.9c-0.3-0.2-0.5-0.4-0.6-0.6 c-0.6,0.9-0.4,2.1,0.6,2.7l44.9,25.9c1.2,0.7,2.6,0.7,3.8,0l44.9-25.9c1-0.6,1.2-1.8,0.6-2.7 C120.9,410.4,120.7,410.6,120.4,410.8z" class="st85"/><linearGradient id="XMLID_33_" x1="36.045" x2="111.496" y1="409.051" y2="409.051" gradientUnits="userSpaceOnUse"><stop offset="0" stop-color="#2F1359"/><stop offset="1" stop-color="#491E8C"/></linearGradient><path id="XMLID_4295_" d="M72.3,387.3l-35.5,20.5c-1,0.6-1,2,0,2.6l35.5,20.5c0.9,0.5,2.1,0.5,3,0l35.5-20.5 c1-0.6,1-2,0-2.6l-35.5-20.5C74.3,386.7,73.2,386.7,72.3,387.3z" class="st86"/><linearGradient id="XMLID_34_" x1="44.043" x2="103.498" y1="409.051" y2="409.051" gradientUnits="userSpaceOnUse"><stop offset=".15" stop-color="#FF9800"/><stop offset="1" stop-color="#FFC107"/></linearGradient><path id="XMLID_4294_" d="M72.6,391.9L44.6,408c-0.8,0.5-0.8,1.6,0,2l27.9,16.1c0.7,0.4,1.6,0.4,2.4,0 l27.9-16.1c0.8-0.5,0.8-1.6,0-2L75,391.9C74.2,391.5,73.3,391.5,72.6,391.9z" class="st87"/><path id="XMLID_4293_" d="M44.6,408.7l27.9-16.1c0.7-0.4,1.6-0.4,2.4,0l27.9,16.1c0.3,0.2,0.5,0.4,0.5,0.7 c0.1-0.5,0-1.1-0.5-1.4L75,391.9c-0.7-0.4-1.6-0.4-2.4,0L44.6,408c-0.5,0.3-0.7,0.9-0.5,1.4 C44.2,409.1,44.4,408.9,44.6,408.7z" class="st59"/><path id="XMLID_4292_" d="M110.7,409.3l-35.5,20.5c-0.9,0.5-2.1,0.5-3,0l-35.5-20.5c-0.3-0.2-0.5-0.5-0.6-0.8 c-0.2,0.6,0,1.4,0.6,1.8l35.5,20.5c0.9,0.5,2.1,0.5,3,0l35.5-20.5c0.7-0.4,0.9-1.2,0.6-1.8 C111.3,408.9,111.1,409.1,110.7,409.3z" class="st60"/><g id="XMLID_4276_"><g><g><defs><path id="XMLID_47_" d="M72.6,391.9L44.6,408c-0.8,0.5-0.8,1.6,0,2l27.9,16.1c0.7,0.4,1.6,0.4,2.4,0l27.9-16.1 c0.8-0.5,0.8-1.6,0-2L75,391.9C74.2,391.5,73.3,391.5,72.6,391.9z"/></defs><clipPath id="XMLID_35_"><use overflow="visible" xlink:href="#XMLID_47_"/></clipPath></g></g><g><path id="XMLID_46_" d="M72.6,391.9L44.6,408c-0.8,0.5-0.8,1.6,0,2l27.9,16.1c0.7,0.4,1.6,0.4,2.4,0 l27.9-16.1c0.8-0.5,0.8-1.6,0-2L75,391.9C74.2,391.5,73.3,391.5,72.6,391.9z" class="st60"/><g id="XMLID_44_"><g><linearGradient id="XMLID_38_" x1="73.771" x2="73.771" y1="426.526" y2="279.614" gradientUnits="userSpaceOnUse"><stop offset="0" stop-color="#C2A3FF" stop-opacity=".7"/><stop offset=".082" stop-color="#CBAFFF" stop-opacity=".643"/><stop offset=".278" stop-color="#DBC7FF" stop-opacity=".505"/><stop offset=".487" stop-color="#E7D8FF" stop-opacity=".359"/><stop offset=".716" stop-color="#EEE2FF" stop-opacity=".199"/><stop offset="1" stop-color="#F0E5FF" stop-opacity="0"/></linearGradient><path id="XMLID_45_" d="M44,279.6c0,0,0,129,0,129.4c0,0.4,0.2,0.8,0.6,1l27.9,16.1c0.7,0.4,1.6,0.4,2.4,0 l27.9-16.1c0.4-0.2,0.6-0.6,0.6-1c0-0.4,0-129.4,0-129.4H44z" class="st88"/></g></g><g><defs><path id="XMLID_42_" d="M72.6,391.9L44.6,408c-0.8,0.5-0.8,1.6,0,2l27.9,16.1c0.7,0.4,1.6,0.4,2.4,0l27.9-16.1 c0.8-0.5,0.8-1.6,0-2L75,391.9C74.2,391.5,73.3,391.5,72.6,391.9z"/></defs><clipPath id="XMLID_39_"><use overflow="visible" xlink:href="#XMLID_42_"/></clipPath><radialGradient id="XMLID_40_" cx="73.771" cy="410.218" r="24.384" gradientUnits="userSpaceOnUse"><stop offset="0" stop-color="#FFF"/><stop offset="1" stop-color="#C2A3FF"/></radialGradient><path id="XMLID_43_" d="M72.6,393.1l-27.9,16.1c-0.8,0.5-0.8,1.6,0,2l27.9,16.1c0.7,0.4,1.6,0.4,2.4,0 l27.9-16.1c0.8-0.5,0.8-1.6,0-2L75,393.1C74.2,392.6,73.3,392.6,72.6,393.1z" class="st89"/></g></g><g><g><defs><path id="XMLID_36_" d="M72.6,391.9L44.6,408c-0.8,0.5-0.8,1.6,0,2l27.9,16.1c0.7,0.4,1.6,0.4,2.4,0l27.9-16.1 c0.8-0.5,0.8-1.6,0-2L75,391.9C74.2,391.5,73.3,391.5,72.6,391.9z"/></defs><clipPath id="XMLID_41_"><use overflow="visible" xlink:href="#XMLID_36_"/></clipPath></g></g></g><g><g><path d="M47.9,357.6c0-9.8,6.1-20.8,14.4-25.6c3.8-2.2,7.1-2.5,9.6-1.3l0,0l0,0c0.2,0.1,0.5,0.2,0.7,0.4 l22.2,12.8c0,0-7.7,14.4-8.4,14.6c-0.7,0.2-12.5,21.4-12.5,21.4l-21.3-12.3c-0.2-0.1-0.4-0.2-0.6-0.4l-0.1,0l0,0 C49.4,365.7,47.9,362.3,47.9,357.6z" class="st90"/><path d="M84.1,378.9c-8.2,4.8-14.4,0.9-14.4-8.8c0-9.8,6.1-20.8,14.4-25.6c8.2-4.8,14.2-0.8,14.2,9 C98.3,363.3,92.4,374.1,84.1,378.9z" class="st91"/><path d="M71.9,345.5" class="st92"/><polygon points="72.8 339.9 57.1 331.9 50.3 244.2 78.2 228.1 96.3 238.9" class="st90"/><g><path d="M91.8,329.1l-19,10.8l-3.5-56.7L68.4,255l27.9-16.1l-0.9,29.3L91.8,329.1z" class="st91"/></g></g></g><g><linearGradient id="XMLID_54_" x1="73.771" x2="73.771" y1="415.352" y2="395.921" gradientUnits="userSpaceOnUse"><stop offset="0" stop-color="#FFF" stop-opacity=".7"/><stop offset="1" stop-color="#F0E5FF" stop-opacity="0"/></linearGradient><path id="XMLID_4275_" d="M44.6,396.4c-0.8,0.5-0.8,1.6,0,2l27.9,16.1c0.7,0.4,1.6,0.4,2.4,0l27.9-16.1 c0.8-0.5,0.8-1.6,0-2" class="st93"/><linearGradient id="XMLID_55_" x1="73.771" x2="73.771" y1="403.678" y2="384.247" gradientUnits="userSpaceOnUse"><stop offset="0" stop-color="#FFF" stop-opacity=".7"/><stop offset="1" stop-color="#F0E5FF" stop-opacity="0"/></linearGradient><path id="XMLID_4274_" d="M44.6,384.7c-0.8,0.5-0.8,1.6,0,2l27.9,16.1c0.7,0.4,1.6,0.4,2.4,0l27.9-16.1 c0.8-0.5,0.8-1.6,0-2" class="st94"/><linearGradient id="XMLID_56_" x1="73.771" x2="73.771" y1="392.004" y2="372.573" gradientUnits="userSpaceOnUse"><stop offset="0" stop-color="#FFF" stop-opacity=".7"/><stop offset="1" stop-color="#F0E5FF" stop-opacity="0"/></linearGradient><path id="XMLID_4273_" d="M44.6,373c-0.8,0.5-0.8,1.6,0,2l27.9,16.1c0.7,0.4,1.6,0.4,2.4,0l27.9-16.1 c0.8-0.5,0.8-1.6,0-2" class="st95"/><linearGradient id="XMLID_57_" x1="73.771" x2="73.771" y1="380.33" y2="360.899" gradientUnits="userSpaceOnUse"><stop offset="0" stop-color="#FFF" stop-opacity=".7"/><stop offset="1" stop-color="#F0E5FF" stop-opacity="0"/></linearGradient><path id="XMLID_4272_" d="M44.6,361.3c-0.8,0.5-0.8,1.6,0,2l27.9,16.1c0.7,0.4,1.6,0.4,2.4,0l27.9-16.1 c0.8-0.5,0.8-1.6,0-2" class="st96"/><linearGradient id="XMLID_60_" x1="73.771" x2="73.771" y1="368.656" y2="349.225" gradientUnits="userSpaceOnUse"><stop offset="0" stop-color="#FFF" stop-opacity=".7"/><stop offset="1" stop-color="#F0E5FF" stop-opacity="0"/></linearGradient><path id="XMLID_4271_" d="M44.6,349.7c-0.8,0.5-0.8,1.6,0,2l27.9,16.1c0.7,0.4,1.6,0.4,2.4,0l27.9-16.1 c0.8-0.5,0.8-1.6,0-2" class="st97"/><linearGradient id="XMLID_61_" x1="73.771" x2="73.771" y1="356.982" y2="337.551" gradientUnits="userSpaceOnUse"><stop offset="0" stop-color="#FFF" stop-opacity=".7"/><stop offset="1" stop-color="#F0E5FF" stop-opacity="0"/></linearGradient><path id="XMLID_4270_" d="M44.6,338c-0.8,0.5-0.8,1.6,0,2l27.9,16.1c0.7,0.4,1.6,0.4,2.4,0l27.9-16.1 c0.8-0.5,0.8-1.6,0-2" class="st98"/><linearGradient id="XMLID_62_" x1="73.771" x2="73.771" y1="345.308" y2="325.877" gradientUnits="userSpaceOnUse"><stop offset="0" stop-color="#FFF" stop-opacity=".7"/><stop offset="1" stop-color="#F0E5FF" stop-opacity="0"/></linearGradient><path id="XMLID_4269_" d="M44.6,326.3c-0.8,0.5-0.8,1.6,0,2l27.9,16.1c0.7,0.4,1.6,0.4,2.4,0l27.9-16.1 c0.8-0.5,0.8-1.6,0-2" class="st99"/></g></g></g></g></g><linearGradient id="XMLID_63_" x1="118.986" x2="235.986" y1="249.667" y2="249.667" gradientUnits="userSpaceOnUse"><stop offset="0" stop-color="#491E8C"/><stop offset=".139" stop-color="#5D359B"/><stop offset=".353" stop-color="#7652AE"/><stop offset=".566" stop-color="#8866BC"/><stop offset=".776" stop-color="#9373C4"/><stop offset=".979" stop-color="#9777C7"/></linearGradient><path id="XMLID_4299_" d="M175.2,216.2l-54.5,31.5c-1.5,0.9-1.5,3.1,0,4l54.5,31.5c1.4,0.8,3.2,0.8,4.7,0 l54.5-31.5c1.5-0.9,1.5-3.1,0-4l-54.5-31.5C178.4,215.4,176.6,215.4,175.2,216.2z" class="st100"/><linearGradient id="XMLID_64_" x1="254.116" x2="371.116" y1="249.632" y2="249.632" gradientUnits="userSpaceOnUse"><stop offset="0" stop-color="#FFA744"/><stop offset=".166" stop-color="#FFB561"/><stop offset=".374" stop-color="#FFC27E"/><stop offset=".58" stop-color="#FFCC92"/><stop offset=".783" stop-color="#FFD29F"/><stop offset=".979" stop-color="#FFD4A3"/></linearGradient><path id="XMLID_4300_" d="M310.3,216.2l-54.5,31.5c-1.5,0.9-1.5,3.1,0,4l54.5,31.5c1.4,0.8,3.2,0.8,4.7,0 l54.5-31.5c1.5-0.9,1.5-3.1,0-4l-54.5-31.5C313.5,215.3,311.7,215.3,310.3,216.2z" class="st101"/></g><g><g><g><path d="M174.6,245.2l0.7-0.4c0.4-0.2,0.5-0.7,0.3-1.1l0,0c-0.2-0.4-0.7-0.5-1.1-0.3l-0.7,0.4 c-0.4,0.2-0.5,0.7-0.3,1.1l0,0C173.7,245.3,174.2,245.4,174.6,245.2z" class="st102"/><path d="M175.7,244.1l0-3.6c0-0.4-0.4-0.8-0.8-0.8l0,0c-0.4,0-0.8,0.4-0.8,0.8v3.6c0,0.4,0.4,0.8,0.8,0.8l0,0 C175.3,244.9,175.7,244.6,175.7,244.1z" class="st102"/><g><linearGradient id="SVGID_6_" x1="171.621" x2="194.203" y1="239.549" y2="239.549" gradientUnits="userSpaceOnUse"><stop offset="0" stop-color="#2F1359"/><stop offset=".002" stop-color="#2F1359"/><stop offset=".203" stop-color="#3B1870"/><stop offset=".42" stop-color="#431B80"/><stop offset=".666" stop-color="#471D89"/><stop offset="1" stop-color="#491E8C"/></linearGradient><path d="M171.7,234.6c0.8,4,1.7,10,1.7,10l1.5,0.3l-0.2-4.2c0.2-0.6,1.2,0.1,1.7,0.7c2.7,3.9,1,6.4,3.6,8.2 c0,0,6.1,2.8,12.3,1.6c0,0,2.9-1.1,1.7-2.8c-2.5-3.5-11.5-13.2-13.3-15.4l-0.5-0.2l-3.2-5.2c-1.2-0.4-3.5,1.5-4.4,3.1 C171.7,231.5,171.4,232.9,171.7,234.6z" class="st103"/><linearGradient id="SVGID_7_" x1="173.412" x2="188.727" y1="236" y2="236" gradientUnits="userSpaceOnUse"><stop offset="0" stop-color="#B57676"/><stop offset=".039" stop-color="#BD7F7D"/><stop offset=".179" stop-color="#D59A93"/><stop offset=".332" stop-color="#E8AFA5"/><stop offset=".5" stop-color="#F5BEB1"/><stop offset=".699" stop-color="#FDC7B8"/><stop offset="1" stop-color="#FFCABA"/></linearGradient><path d="M177.7,227.2l2.7,2.3c0,0,6.8,10.7,8.1,12.9c1.5,2.5-7.5,6.8-13.7-7.9 C170.4,226.7,177.7,227.2,177.7,227.2z" class="st104"/></g></g><linearGradient id="SVGID_8_" x1="173.904" x2="190.569" y1="187.315" y2="187.315" gradientUnits="userSpaceOnUse"><stop offset="0" stop-color="#B57676"/><stop offset=".039" stop-color="#BD7F7D"/><stop offset=".179" stop-color="#D59A93"/><stop offset=".332" stop-color="#E8AFA5"/><stop offset=".5" stop-color="#F5BEB1"/><stop offset=".699" stop-color="#FDC7B8"/><stop offset="1" stop-color="#FFCABA"/></linearGradient><path d="M180,143.4c0.4,29.1-1.1,57.7-6,86.4c-1.1,6.6,9,9.5,10.2,2.8c5-29.7,6.8-59.1,6.4-89.2 C190.4,136.6,179.9,136.6,180,143.4L180,143.4z" class="st105"/><linearGradient id="SVGID_9_" x1="161.669" x2="179.92" y1="195.244" y2="195.244" gradientUnits="userSpaceOnUse"><stop offset="0" stop-color="#B57676"/><stop offset=".039" stop-color="#BD7F7D"/><stop offset=".179" stop-color="#D59A93"/><stop offset=".332" stop-color="#E8AFA5"/><stop offset=".5" stop-color="#F5BEB1"/><stop offset=".699" stop-color="#FDC7B8"/><stop offset="1" stop-color="#FFCABA"/></linearGradient><path d="M166.2,153.1c5.7,28.6,3.7,56.5-4.3,84.4c-1.9,6.5,8.3,9.3,10.2,2.8c8.5-29.8,10.4-59.6,4.3-90 C175,143.6,164.9,146.4,166.2,153.1L166.2,153.1z" class="st106"/><g><path d="M163,251.4l0.7-0.4c0.4-0.2,0.5-0.7,0.3-1.1l0,0c-0.2-0.4-0.7-0.5-1.1-0.3l-0.7,0.4 c-0.4,0.2-0.5,0.7-0.3,1.1l0,0C162.1,251.5,162.6,251.6,163,251.4z" class="st102"/><path d="M164.1,250.4l0-3.6c0-0.4-0.4-0.8-0.8-0.8l0,0c-0.4,0-0.8,0.4-0.8,0.8l0,3.6c0,0.4,0.4,0.8,0.8,0.8l0,0 C163.7,251.2,164.1,250.8,164.1,250.4z" class="st102"/><g><linearGradient id="SVGID_10_" x1="160.047" x2="182.629" y1="245.782" y2="245.782" gradientUnits="userSpaceOnUse"><stop offset="0" stop-color="#2F1359"/><stop offset=".002" stop-color="#2F1359"/><stop offset=".203" stop-color="#3B1870"/><stop offset=".42" stop-color="#431B80"/><stop offset=".666" stop-color="#471D89"/><stop offset="1" stop-color="#491E8C"/></linearGradient><path d="M160.2,240.8c0.8,4,1.7,10,1.7,10l1.5,0.3l-0.2-4.2c0.2-0.6,1.2,0.1,1.7,0.7c2.7,3.9,1,6.4,3.6,8.2 c0,0,6.1,2.8,12.3,1.6c0,0,2.9-1.1,1.7-2.8c-2.5-3.5-11.5-13.2-13.3-15.4l-0.5-0.2l-3.2-5.2c-1.2-0.4-3.5,1.5-4.4,3.1 C160.2,237.8,159.8,239.2,160.2,240.8z" class="st107"/><linearGradient id="SVGID_11_" x1="161.838" x2="177.154" y1="242.232" y2="242.232" gradientUnits="userSpaceOnUse"><stop offset="0" stop-color="#B57676"/><stop offset=".039" stop-color="#BD7F7D"/><stop offset=".179" stop-color="#D59A93"/><stop offset=".332" stop-color="#E8AFA5"/><stop offset=".5" stop-color="#F5BEB1"/><stop offset=".699" stop-color="#FDC7B8"/><stop offset="1" stop-color="#FFCABA"/></linearGradient><path d="M166.1,233.4l2.7,2.3c0,0,6.8,10.7,8.1,12.9c1.5,2.5-7.5,6.8-13.7-7.9 C158.8,232.9,166.1,233.4,166.1,233.4z" class="st108"/></g></g><linearGradient id="SVGID_12_" x1="155.427" x2="194.236" y1="163.816" y2="163.816" gradientUnits="userSpaceOnUse"><stop offset="0" stop-color="#120426"/><stop offset=".238" stop-color="#180633"/><stop offset=".54" stop-color="#1C073C"/><stop offset="1" stop-color="#1D073F"/></linearGradient><path d="M191,136.4c0,0-5.4-16.6-15.1-11c-9.7,5.6-21.6,12.2-20.4,29.6c0.3,3.5,1,6.3,2.1,8.4l6.7,34 c-0.1,2.4,1.3,4,4.1,4.7c24.2,5.7,22.9-7.9,25.3-11.8c0.4-0.6,0.6-1.3,0.6-2L191,136.4z" class="st109"/><g><path d="M184.2,88.5c2.1,13.5,4,26.8,8.1,39.8c1.7,5.4,10,2.4,8.3-3c-3.9-12.3-5.7-24.8-7.7-37.5 C192.1,82.3,183.3,82.9,184.2,88.5L184.2,88.5z" class="st110"/></g><linearGradient id="SVGID_13_" x1="152.967" x2="191.694" y1="115.09" y2="115.09" gradientUnits="userSpaceOnUse"><stop offset="0" stop-color="#2F1359"/><stop offset=".002" stop-color="#2F1359"/><stop offset=".203" stop-color="#3B1870"/><stop offset=".42" stop-color="#431B80"/><stop offset=".666" stop-color="#471D89"/><stop offset="1" stop-color="#491E8C"/></linearGradient><path d="M188.9,91.8l2.8,9.3c0,0-1.8,29.4-2.4,32c0,0-10.6,11.4-29.6,0.4l-6.7-29.2L188.9,91.8z" class="st111"/><linearGradient id="SVGID_14_" x1="147.989" x2="191.286" y1="107.587" y2="107.587" gradientUnits="userSpaceOnUse"><stop offset="0" stop-color="#2F1359"/><stop offset=".002" stop-color="#2F1359"/><stop offset=".203" stop-color="#3B1870"/><stop offset=".42" stop-color="#431B80"/><stop offset=".666" stop-color="#471D89"/><stop offset="1" stop-color="#491E8C"/></linearGradient><path d="M152.6,108.7c-0.8-0.5-3.9,0.3-3.9,0.3c-0.2-4.9-3.2-7.7,4.7-15.6c1.2-1.2,16.8-7.9,26.1-9.6 c4.5-0.8,7.2-1.8,8.7,2.1c0.9,2.3,3.1,10,3.1,10c-0.2,8.9-3.5-2.7-4.5,2.2c0-0.1,0.1-0.2,0.1-0.4c0,0-1.8,8.3-3.1,14.8 c-0.8,4-1.4,6.9-1.5,7.4c0,0,0,0,0,0.1l-16.8,12.2l-7.3-14.2l0,0L152.6,108.7z" class="st112"/><path d="M189,92.1c0,0,6.9,4.6,6.7,13.2c-0.2,8.6-8,14.1-8,14.1L189,92.1z" class="st113"/><polygon points="191.9 115.1 186.2 117.6 190.6 119.3" class="st110"/><path d="M167,136.7l-1.6-11.4l7.6-3.9c0,0-12.4,5.2-14.5-10.6c0,0-2.7-6.2-10.6-0.3l11.7,23.2 C162.1,135,164.5,136,167,136.7z" class="st110"/><path d="M191.5,132.8L191.5,132.8c0.2,0.7-0.1,1.4-0.6,1.9c-1.9,1.7-7.1,5.4-15.6,4.9c-7.3-0.4-11.6-1.7-13.7-2.6 c-0.9-0.4-1.4-1.4-1.1-2.3l0.2-0.6c0.3-1,1.4-1.6,2.4-1.2c3.9,1.4,13.3,4.2,19.5,1.9c2.9-1.1,4.7-2.1,5.9-3 C189.6,130.9,191.2,131.5,191.5,132.8z" class="st114"/><g id="XMLID_2509_"><linearGradient id="XMLID_65_" x1="2362.282" x2="2399.425" y1="142.464" y2="142.464" gradientTransform="matrix(1 0 0 1 -2223.9712 0)" gradientUnits="userSpaceOnUse"><stop offset="0" stop-color="#120426"/><stop offset="1" stop-color="#3C3940"/></linearGradient><path id="XMLID_2512_" d="M174.7,138.4L139.4,118c-0.5-0.3-1.1,0.1-1.1,0.6v26.6c0,0.6,0.3,1.1,0.8,1.3 l35.3,20.4c0.5,0.3,1.1-0.1,1.1-0.6v-26.6C175.5,139.2,175.2,138.6,174.7,138.4z" class="st115"/><linearGradient id="XMLID_66_" x1="-1573.175" x2="-1536.032" y1="142.768" y2="142.768" gradientTransform="matrix(-1 0 0 1 -1398.1774 0)" gradientUnits="userSpaceOnUse"><stop offset="0" stop-color="#78727F"/><stop offset="1" stop-color="#3C3940"/></linearGradient><path id="XMLID_2511_" d="M174.2,138.7l-35.3-20.4c-0.5-0.3-1.1,0.1-1.1,0.6v26.6c0,0.6,0.3,1.1,0.8,1.3 l35.3,20.4c0.5,0.3,1.1-0.1,1.1-0.6V140C175,139.5,174.7,139,174.2,138.7z" class="st116"/><path id="XMLID_2510_" d="M156.4,140.2c-1.2-0.7-2.2-0.1-2.2,1.3c0,1.4,1,3.1,2.2,3.8c1.2,0.7,2.2,0.1,2.2-1.3 C158.6,142.6,157.6,140.9,156.4,140.2z" class="st117"/></g><path d="M180.5,140.7l4.9-1.1c1.6-0.4,2.9-2,2.9-3.6l0,0c0-1.6-1.4-2.7-3-2.3l-4.9,1.1c-1.6,0.4-2.9,2-2.9,3.6 l0,0C177.6,140,178.9,141,180.5,140.7z" class="st118"/><linearGradient id="SVGID_15_" x1="137.779" x2="163.09" y1="129.183" y2="129.183" gradientUnits="userSpaceOnUse"><stop offset="0" stop-color="#B57676"/><stop offset=".039" stop-color="#BD7F7D"/><stop offset=".179" stop-color="#D59A93"/><stop offset=".332" stop-color="#E8AFA5"/><stop offset=".5" stop-color="#F5BEB1"/><stop offset=".699" stop-color="#FDC7B8"/><stop offset="1" stop-color="#FFCABA"/></linearGradient><path d="M163.1,152.3c-0.1-1.8-1-3.4-2.5-4.3c-7.1-9.2-18.4-18.9-11.9-30.9c2.8-5.2,6.1-10.2,9.1-15.3 c2.9-4.9-4.7-9.3-7.6-4.4c-3.8,6.3-8.8,12.9-11.3,19.9c-4.9,14.4,5.7,24.1,13.6,34.6c0,0,0,0,0,0l-0.6,5.4 c-0.3,2.9,1.8,5.5,4.7,5.8l0,0c2.9,0.3,5.5-1.8,5.8-4.7l0.5-5C163.1,153,163.1,152.7,163.1,152.3z" class="st119"/><g><linearGradient id="SVGID_16_" x1="136.99" x2="161.196" y1="116.883" y2="116.883" gradientUnits="userSpaceOnUse"><stop offset="0" stop-color="#2F1359"/><stop offset=".002" stop-color="#2F1359"/><stop offset=".203" stop-color="#3B1870"/><stop offset=".42" stop-color="#431B80"/><stop offset=".666" stop-color="#471D89"/><stop offset="1" stop-color="#491E8C"/></linearGradient><path d="M149.9,96.5c-4.8,6.2-9.4,11.3-11.7,19c-2.4,8-0.6,15.7,3.1,22.8c3.2,6.1,13.6,1.1,10.4-5 c-2.8-5.3-4.9-10.8-2.8-16.1c2.3-5.7,7.7-9.2,11.6-14.2c1.8-2.3,0.3-8.1-2-9.5c-2.8-1.6-5.5-0.4-7.3,1.9L149.9,96.5z" class="st120"/></g><linearGradient id="SVGID_17_" x1="191.548" x2="208.778" y1="107.894" y2="107.894" gradientUnits="userSpaceOnUse"><stop offset="0" stop-color="#B57676"/><stop offset=".039" stop-color="#BD7F7D"/><stop offset=".179" stop-color="#D59A93"/><stop offset=".332" stop-color="#E8AFA5"/><stop offset=".5" stop-color="#F5BEB1"/><stop offset=".699" stop-color="#FDC7B8"/><stop offset="1" stop-color="#FFCABA"/></linearGradient><path d="M200,88.7c-0.8,6.8-1,13.7-1.7,20.6c-0.2,2.3-0.7,12.7-3.6,13.4c-5.5,1.3-3.2,9.8,2.3,8.5 c6.7-1.7,8.4-10,9.3-15.8c1.3-8.8,1.4-17.8,2.5-26.7C209.4,83.1,200.6,83.1,200,88.7L200,88.7z" class="st121"/><path d="M174.4,101.3c-7.5,0-15.9-9-16.3-9.5c-0.5-0.5-0.4-1.3,0.1-1.7c0.5-0.4,1.3-0.4,1.7,0.1 c0.1,0.1,11.9,12.9,18.4,7.2c1.7-1.5,2.6-3.2,2.6-5.1c0-3.9-3.7-7.3-3.7-7.3c-0.5-0.4-0.5-1.2-0.1-1.7c0.5-0.5,1.2-0.5,1.7-0.1 c0.2,0.2,4.6,4.2,4.5,9.1c0,2.6-1.2,4.9-3.5,6.9C178.2,100.7,176.3,101.3,174.4,101.3z" class="st122"/><linearGradient id="SVGID_18_" x1="159.211" x2="181.677" y1="85.901" y2="85.901" gradientUnits="userSpaceOnUse"><stop offset="0" stop-color="#B57676"/><stop offset=".039" stop-color="#BD7F7D"/><stop offset=".179" stop-color="#D59A93"/><stop offset=".332" stop-color="#E8AFA5"/><stop offset=".5" stop-color="#F5BEB1"/><stop offset=".699" stop-color="#FDC7B8"/><stop offset="1" stop-color="#FFCABA"/></linearGradient><path d="M177.7,83.9c-0.4,0-0.8,0.1-1.3,0.1l2.6-11.9l-9.9,2.8l-2.7,11.4c0,0.1-0.1,0.3-0.1,0.5 c-2.4,1-4.8,2.3-7.2,3.7c0,0,12.5,13.7,19.6,7.7C185.8,92.3,177.7,83.9,177.7,83.9z" class="st123"/><linearGradient id="SVGID_19_" x1="183.681" x2="191.245" y1="66.578" y2="66.578" gradientUnits="userSpaceOnUse"><stop offset="0" stop-color="#120426"/><stop offset=".237" stop-color="#180633"/><stop offset=".561" stop-color="#1C073C"/><stop offset="1" stop-color="#1D073F"/></linearGradient><path d="M183.7,56.6c0.9,3.6,3.5,6.5,4.5,10c1,3.5-2.1,6.5-1.8,10.3c0.1,1.7,2.8,1.7,2.7,0c-0.3-3.8,2.8-6,2-9.9 c-0.8-4-3.8-7.2-4.8-11.1C185.9,54.3,183.3,55,183.7,56.6L183.7,56.6z" class="st124"/><linearGradient id="SVGID_20_" x1="151.119" x2="169.873" y1="60.438" y2="60.438" gradientUnits="userSpaceOnUse"><stop offset="0" stop-color="#120426"/><stop offset=".237" stop-color="#180633"/><stop offset=".561" stop-color="#1C073C"/><stop offset="1" stop-color="#1D073F"/></linearGradient><circle cx="160.5" cy="60.4" r="9.4" class="st125"/><linearGradient id="SVGID_21_" x1="166.691" x2="188.229" y1="67.732" y2="67.732" gradientUnits="userSpaceOnUse"><stop offset="0" stop-color="#B57676"/><stop offset=".039" stop-color="#BD7F7D"/><stop offset=".179" stop-color="#D59A93"/><stop offset=".332" stop-color="#E8AFA5"/><stop offset=".5" stop-color="#F5BEB1"/><stop offset=".699" stop-color="#FDC7B8"/><stop offset="1" stop-color="#FFCABA"/></linearGradient><path d="M176.5,84.7l3.2-0.1c4.9-0.2,8.7-4.3,8.6-9.2l-0.6-16.1c-0.2-4.9-4.3-8.7-9.2-8.6l-3.2,0.1 c-4.9,0.2-8.7,4.3-8.6,9.2l0.6,16.1C167.5,81.1,171.6,84.9,176.5,84.7z" class="st126"/><linearGradient id="SVGID_22_" x1="158.659" x2="189.147" y1="64.915" y2="64.915" gradientUnits="userSpaceOnUse"><stop offset="0" stop-color="#120426"/><stop offset=".237" stop-color="#180633"/><stop offset=".561" stop-color="#1C073C"/><stop offset="1" stop-color="#1D073F"/></linearGradient><path d="M172.8,64.4c3.4-4.8,10.5,0.1,14.1-1.5c3.9-1.8,2.2-5.8-0.7-8.9c-1.6-1.7-3.5-3-7.3-4.2 c-10.6-3.2-20.6,1.9-20.2,13.6c0,0,0.2,16,9.6,17.7l0.4-2.4c0,0-3.7-4.5,1.8-8.4c1.3-0.9,0.2-1.4-0.1-3.3 C170.2,65,171.6,66,172.8,64.4z" class="st127"/><linearGradient id="SVGID_23_" x1="163.515" x2="169.215" y1="73.526" y2="73.526" gradientUnits="userSpaceOnUse"><stop offset="0" stop-color="#B57676"/><stop offset=".039" stop-color="#BD7F7D"/><stop offset=".179" stop-color="#D59A93"/><stop offset=".332" stop-color="#E8AFA5"/><stop offset=".5" stop-color="#F5BEB1"/><stop offset=".699" stop-color="#FDC7B8"/><stop offset="1" stop-color="#FFCABA"/></linearGradient><path d="M165.5,76.6c1.5,1.1,3.1,0.6,3.6-1.2c0.5-1.7-0.4-4-1.9-5.1c-1.5-1.1-3.1-0.6-3.6,1.2 C163.2,73.3,164,75.6,165.5,76.6z" class="st128"/><linearGradient id="SVGID_24_" x1="164.066" x2="172.275" y1="75.265" y2="75.265" gradientUnits="userSpaceOnUse"><stop offset="0" stop-color="#120426"/><stop offset=".237" stop-color="#180633"/><stop offset=".561" stop-color="#1C073C"/><stop offset="1" stop-color="#1D073F"/></linearGradient><path d="M169.5,62.4c0.2,5,0.2,10.7-2.6,15c-1,1.5-2.4,2.8-2.8,4.7c-0.5,2.2,0.7,4.2,1.2,6.3 c0.4,1.7,2.9,1,2.6-0.7c-0.8-3.6-0.8-5.7,1.3-9c1-1.5,1.6-2.8,2-4.5c1-3.8,1.1-7.9,0.9-11.8C172.1,60.7,169.4,60.7,169.5,62.4 L169.5,62.4z" class="st129"/><linearGradient id="SVGID_25_" x1="171.273" x2="176.488" y1="85.282" y2="85.282" gradientUnits="userSpaceOnUse"><stop offset=".15" stop-color="#C7755C"/><stop offset="1" stop-color="#FFC2B0"/></linearGradient><path d="M176.5,84.7c-1.2,0-4.1-0.6-5.2-1.5c0,0,1.9,3.2,4.5,4.2L176.5,84.7z" class="st130"/></g><g><g><path d="M252.5,110c4.4,3.6,10.3,5.6,15.5,7.5c5.6,2.1,12.3,4.7,18.4,4.1c5.3-0.6,4.9-8.9-0.4-8.3 c-4.6,0.5-10.4-1.8-14.9-3.4c-2.8-1-5.5-2.2-8.2-3.4c-1-0.5-2.1-1-3.1-1.5c-0.4-0.2-0.8-0.5-1.2-0.7c-0.2-0.1-0.4-0.3-0.7-0.4 c0.4,0.3,0.4,0.3,0.1,0C253.9,100.5,248.3,106.7,252.5,110L252.5,110z" class="st131"/></g><polygon points="261.3 105.2 267 107.1 262 116.2 257.2 113.6" class="st132"/><path d="M264.5,105.8c2.1,0.8,10.9,1.7,17.5,4.4c6.5-10.7,6.5-31,11.5-40.5c3.1-5.8,12.5-1.8,9.4,4 c-2.9,5.4-4.7,11-5.4,17c-0.6,5.1-0.5,10.2-0.7,15.3c-0.2,4.7-2.6,6.9-4,11.4c-0.9,2.9-2.9,5.1-6.3,5.6 c-6.9,1-26.2-5.8-26.5-6.4L264.5,105.8z" class="st133"/><path d="M328.8,81l-22.1-9.7l2.7-9.3c5.7-0.1,15.9,5.6,20.6,8.9L328.8,81z" class="st133"/><path d="M333.5,258.3c0.1-0.3,2.1-4.7,2.6-7.2c0.1-0.5,0.3-2.8,0.3-3.5c-0.1-1.7,0.2-2.8-3.7-5.1 c-6.3-3.9-12.3,17.5-12.3,17.5l-0.4,5.2c-0.2,0.9,0.6,1.9,1.4,2.5l0.5,0.1c3.1,0.7,4.9,0,6.2-1.5 C330.3,263.7,331.3,263.4,333.5,258.3z" class="st102"/><linearGradient id="SVGID_26_" x1="319.942" x2="336.079" y1="253.652" y2="253.652" gradientUnits="userSpaceOnUse"><stop offset="0" stop-color="#CCAD85"/><stop offset=".043" stop-color="#CFB18B"/><stop offset=".236" stop-color="#D9C1A2"/><stop offset=".445" stop-color="#E0CCB2"/><stop offset=".68" stop-color="#E4D3BB"/><stop offset="1" stop-color="#E5D5BE"/></linearGradient><path d="M333.6,241.5c-5-2-7.5,2.9-9.5,8.2c-0.6,1.6-2,4.9-2.6,6c-0.4,0.8-1,3.4-1.1,4.3l-0.4,3.8 c-0.2,1.5,1.3,2,2.3,2.2c2,0.5,4.1,0.4,5.4-1.1c0.7-0.8,2.1-2.2,2.7-2.9c0,0,0,0,0,0c1-1.1,1.9-2.5,3.1-5.2 C333.5,256.6,339.3,243.7,333.6,241.5z" class="st134"/><g><path d="M325.1,239c3,2.5,9,2.1,11.3-1.2c0.1,1.8,0.1,3.6,0.1,5.4c-0.1,7.3-11.4,7.5-11.3,0.2 C325.1,241.9,325.1,240.4,325.1,239z" class="st135"/></g><g><linearGradient id="SVGID_27_" x1="315.034" x2="336.831" y1="190.376" y2="190.376" gradientUnits="userSpaceOnUse"><stop offset="0" stop-color="#1D073F"/><stop offset=".46" stop-color="#1C073C"/><stop offset=".762" stop-color="#180633"/><stop offset="1" stop-color="#120426"/></linearGradient><path d="M317.8,136.1c-4.7,13.8-2,35.1-1.6,49.6c0.4,13.6,5.1,25,6.6,38.5c0.5,4.7,1.2,9.4,1.1,14.1 c-0.2,8.3,12.8,8.5,12.9,0.1c0.2-9.8-1.8-19.8-2.8-29.5c-1.5-14.4-2.5-29-1.6-43.5c0.5-7.5,0.1-8,0-15.6 c-0.2-11.9-5.8-17.6-8.5-9.7L317.8,136.1z" class="st136"/></g><g><linearGradient id="SVGID_28_" x1="289.408" x2="309.882" y1="181.524" y2="181.524" gradientUnits="userSpaceOnUse"><stop offset="0" stop-color="#1D073F"/><stop offset=".46" stop-color="#1C073C"/><stop offset=".762" stop-color="#180633"/><stop offset="1" stop-color="#120426"/></linearGradient><path d="M296,135.8c-2.9,10.5-4.2,21.5-5.3,32.3c-0.7,6.5-1.7,13.1-1.1,19.6c1.2,12.5,3.6,25.2,3.5,37.8 c-0.1,8.3,12.9,8.3,12.9,0c0.1-12.4-2.2-25-3.4-37.4c-0.6-6.2,6.5-28.4,7.1-34.6c1-10.2-4-4.5-1.3-14.4 C310.7,131.2,298.2,127.8,296,135.8L296,135.8z" class="st137"/></g><g><linearGradient id="SVGID_29_" x1="293.5" x2="335.216" y1="146.782" y2="146.782" gradientUnits="userSpaceOnUse"><stop offset="0" stop-color="#1D073F"/><stop offset=".46" stop-color="#1C073C"/><stop offset=".762" stop-color="#180633"/><stop offset="1" stop-color="#120426"/></linearGradient><path d="M301.9,157.3l0.9-0.2c1.2,1.3-1.3-3.6,0.2-2.6c3.1,1.9,15.9,11,19.5,11c4.4,0.1,6,2.6,9.3-0.3 c3.1-2.8,4.2-12.2,2.8-15.8c-0.4-1.1-3.2-3-3.7-4.1c-0.5-1.1,3.7-1,2.7-1.7c-7.7-5.9-23-20.4-33.8-15.7 C287.3,133.3,296.3,151.1,301.9,157.3z" class="st138"/></g><path d="M297.7,68c-2.2,2.9-2,4.7-1.9,8.6c0.1,3.8,2.7,7.2,6.4,8.2l37.9,10.6c0,0,2.2-14.6-5.3-19 c-4-2.4-10.3-6.1-15.2-9.1C312.5,63,302.9,61.3,297.7,68z" class="st139"/><path d="M295.7,136.4c1.1,1.5,2.6-39.4,0.3-65.2l42.6,20.3c-0.2,19.5-5.9,34.3-3.6,58.1L295.7,136.4z" class="st139"/><path d="M324.3,152.2c-10.5-3.8-20.6-8-26.5-15.3c-2.9-1.7-2.5-4.6,0.8-6.5l0,0c3.3-1.9,8.4-2.1,11.3-0.5 C310,129.9,327.2,153.9,324.3,152.2z" class="st139"/><linearGradient id="SVGID_30_" x1="307.394" x2="321.66" y1="66.449" y2="66.449" gradientUnits="userSpaceOnUse"><stop offset="0" stop-color="#B57676"/><stop offset=".039" stop-color="#BD7F7D"/><stop offset=".179" stop-color="#D59A93"/><stop offset=".332" stop-color="#E8AFA5"/><stop offset=".5" stop-color="#F5BEB1"/><stop offset=".699" stop-color="#FDC7B8"/><stop offset="1" stop-color="#FFCABA"/></linearGradient><path d="M311.3,72.1l-3.9-15.3l11.1,2.8l3.2,12.5C322.3,74.2,314.2,79.9,311.3,72.1z" class="st140"/><path d="M313.3,150c3.4,1.6,7.1,3,10.8,4.3c2.9,1.7,9.6-4.2,9.6-4.2c-2.3-23.7,4.7-39.1,4.9-58.6l-1.5-0.7 C336.4,113.4,332.7,149.1,313.3,150z" class="st141"/><linearGradient id="SVGID_31_" x1="310.01" x2="340.449" y1="113.457" y2="113.457" gradientUnits="userSpaceOnUse"><stop offset="0" stop-color="#CCAD85"/><stop offset=".043" stop-color="#CFB18B"/><stop offset=".236" stop-color="#D9C1A2"/><stop offset=".445" stop-color="#E0CCB2"/><stop offset=".68" stop-color="#E4D3BB"/><stop offset="1" stop-color="#E5D5BE"/></linearGradient><path d="M329.9,70.6c0,0-16.3,14.1-18.8,46.4c-1,13.3-1.4,18.4-0.9,25.2c0.2,3.3,0.1,8.6,3.1,10.2 c4.6,2.4,11.6,4.9,18.6,3.8c3.5-0.6,5-4.2,5.1-6.5c-1.7-19.6,0.3-38,3.4-57.4l-2.1-12.4c-0.1-0.9-0.5-2.6-1.1-3.4L329.9,70.6z" class="st142"/><linearGradient id="SVGID_32_" x1="292.723" x2="310.212" y1="104.774" y2="104.774" gradientUnits="userSpaceOnUse"><stop offset="0" stop-color="#CCAD85"/><stop offset=".043" stop-color="#CFB18B"/><stop offset=".236" stop-color="#D9C1A2"/><stop offset=".445" stop-color="#E0CCB2"/><stop offset=".68" stop-color="#E4D3BB"/><stop offset="1" stop-color="#E5D5BE"/></linearGradient><path d="M308.5,65.3c0,0-13.9,12-4.3,79c0.3,1.8-2,2.7-3.7,1.9c-1.8-0.9-4.3-3.7-5.8-4.7c-1.4-0.9-2.1-2.8-2-4.4 c0.5-11,0-54.5,0-54.5s0-20.5,15.2-19.6C312.7,63.3,308.5,65.3,308.5,65.3z" class="st143"/><path d="M301,64.5c-5,6.7-6.5,15.6-5.3,20.8l3.9,0.7l-3.8,6.3l5.6,25.1c0,0-3.8-32.2,7.9-55.4 C305.9,62,304.8,62.7,301,64.5z" class="st144"/><g><linearGradient id="SVGID_33_" x1="310.249" x2="314.948" y1="68.46" y2="68.46" gradientUnits="userSpaceOnUse"><stop offset=".15" stop-color="#C7755C"/><stop offset="1" stop-color="#FFC2B0"/></linearGradient><path d="M310.2,68.6c0,0,4.7-3.1,4.7-3.1c0,0-1.5,4.7-3.8,6.1L310.2,68.6z" class="st145"/><linearGradient id="SVGID_34_" x1="297.39" x2="321.23" y1="50.737" y2="50.737" gradientUnits="userSpaceOnUse"><stop offset="0" stop-color="#B57676"/><stop offset=".039" stop-color="#BD7F7D"/><stop offset=".179" stop-color="#D59A93"/><stop offset=".332" stop-color="#E8AFA5"/><stop offset=".5" stop-color="#F5BEB1"/><stop offset=".699" stop-color="#FDC7B8"/><stop offset="1" stop-color="#FFCABA"/></linearGradient><path d="M308.7,68.4l-3.3-0.4c-5-0.6-8.6-5.3-8-10.3l2.1-16.6c0.6-5,5.3-8.6,10.3-8l3.3,0.4 c5,0.6,8.6,5.3,8,10.3L320,56C319.3,61,313.7,69.1,308.7,68.4z" class="st146"/><linearGradient id="SVGID_35_" x1="299.986" x2="329.292" y1="47.866" y2="47.866" gradientUnits="userSpaceOnUse"><stop offset="0" stop-color="#120426"/><stop offset=".237" stop-color="#180633"/><stop offset=".561" stop-color="#1C073C"/><stop offset="1" stop-color="#1D073F"/></linearGradient><path d="M312,46c-3.7,1.1-5.7,0.6-9.2-1.5c-3.8-2.2-3.7-7.6,0-10.1c2-1.3,2.3-2.2,6.2-3.2 c11.2-2.6,21.7,4.7,20.1,16.7c0,0,0.6,16.2-9.3,17l-1.6-5.4c0,0,2.3-0.5,0.4-3c-0.5-0.7-1.3-1.5-2.4-2.5c-1.2-1-1.2-3-0.8-5 C315.9,47.1,314,45.4,312,46z" class="st147"/><linearGradient id="SVGID_36_" x1="317.178" x2="323.281" y1="57.788" y2="57.788" gradientUnits="userSpaceOnUse"><stop offset="0" stop-color="#B57676"/><stop offset=".039" stop-color="#BD7F7D"/><stop offset=".179" stop-color="#D59A93"/><stop offset=".332" stop-color="#E8AFA5"/><stop offset=".5" stop-color="#F5BEB1"/><stop offset=".699" stop-color="#FDC7B8"/><stop offset="1" stop-color="#FFCABA"/></linearGradient><path d="M320.8,61.1c-1.7,1-3.3,0.3-3.6-1.5c-0.3-1.8,0.8-4.1,2.4-5.1s3.3-0.3,3.6,1.5 C323.5,57.8,322.5,60.1,320.8,61.1z" class="st148"/></g><linearGradient id="SVGID_37_" x1="324.896" x2="340.429" y1="141.221" y2="141.221" gradientUnits="userSpaceOnUse"><stop offset="0" stop-color="#B57676"/><stop offset=".039" stop-color="#BD7F7D"/><stop offset=".179" stop-color="#D59A93"/><stop offset=".332" stop-color="#E8AFA5"/><stop offset=".5" stop-color="#F5BEB1"/><stop offset=".699" stop-color="#FDC7B8"/><stop offset="1" stop-color="#FFCABA"/></linearGradient><path d="M340.4,140.3l-4.9-5.9l-5.6,4.2l0,0c-2.6,0.6-5.1,2.7-5.1,2.7s3.6,4.7,6.5,6.8c0.2,0.2,3-1.2,3.8-3.7l0,0 L340.4,140.3z" class="st149"/><g><linearGradient id="SVGID_38_" x1="326.959" x2="357.054" y1="108.551" y2="108.551" gradientUnits="userSpaceOnUse"><stop offset="0" stop-color="#CCAD85"/><stop offset=".043" stop-color="#CFB18B"/><stop offset=".236" stop-color="#D9C1A2"/><stop offset=".445" stop-color="#E0CCB2"/><stop offset=".68" stop-color="#E4D3BB"/><stop offset="1" stop-color="#E5D5BE"/></linearGradient><path d="M335.2,132.6c3.6-4.1,9.6-14.9,9.6-14.9s-9.5-22.6-16.9-33.7c-3.7-5.6,4-11.7,9.3-7.7 c8,6.1,15.8,26.7,19.1,36.4c1.1,3.2,0.9,6.7-0.5,9.8c-2.6,5.6-10.6,16.2-15.9,19.6C338.8,142.8,330.5,138,335.2,132.6z" class="st150"/></g><g><g><path d="M323.2,136.8c0.6,3.3,2.1,6.2,3.9,9c1.6,2.6,3.7,4.2,6,6.1c0.9,0.7,2.2-0.6,1.3-1.3 c-2.2-1.8-4.2-3.3-5.7-5.7c-1.7-2.7-3.2-5.4-3.7-8.6C324.8,135.1,323,135.6,323.2,136.8L323.2,136.8z" class="st133"/></g></g><path d="M335.2,75.1l-7.4,18.2l-3.6-0.6l0.1,7.4l-13.3,20c0,0,5.4-13.2,9.6-30.7c1.7-7,5.5-13,5.3-21.4 C329.3,70.4,332.2,72.1,335.2,75.1z" class="st133"/><path d="M333.7,73.7l-7.2,17.6l-4.8-0.7l1.3,7.5l-12,21.5c0,0-1.6-16.2,8.8-35.6c2.5-4.6,4.8-12.5,3.7-17.1 C326.8,68.4,330.7,70.8,333.7,73.7z" class="st144"/><g><path d="M294.7,249.7c0.3-0.2,3.2-2.8,3.4-2.9c0.4-0.2,4.6-2.7,5.3-3.1c1.4-0.9,4.9-1.7,2.8-6.2 c-3.1-6.6-20.4,5.4-20.4,5.4l-5.7,5.1c-0.7,0.6-0.9,1.5-0.6,2.4l0,0c0.6,1.6,2.9,2.7,4.9,2.3 C287.9,251.9,289.7,252.3,294.7,249.7z" class="st102"/><linearGradient id="SVGID_39_" x1="278.903" x2="307.241" y1="242.15" y2="242.15" gradientUnits="userSpaceOnUse"><stop offset="0" stop-color="#CCAD85"/><stop offset=".043" stop-color="#CFB18B"/><stop offset=".236" stop-color="#D9C1A2"/><stop offset=".445" stop-color="#E0CCB2"/><stop offset=".68" stop-color="#E4D3BB"/><stop offset="1" stop-color="#E5D5BE"/></linearGradient><path d="M306.6,235.3c-3.1-6.6-21.2,5.8-21.2,5.8l-2.9,2.6h0l-2.8,2.5c-0.2,0.2-0.3,0.3-0.4,0.5 c-0.2,0.4-0.3,0.8-0.3,1.2c0,0.2,0.1,0.4,0.2,0.7c0.6,1.6,2.7,2.7,4.7,2.3c0.1,0,0.1,0,0.2,0c0,0,0,0,0,0c0.1,0,0.2,0,0.2,0 c1-0.2,2.4-0.3,3.2-0.4c0,0,0-0.1,0-0.1c1.8-0.3,3.7-0.8,6.9-2.4c0.3-0.2,3.2-2.8,3.4-2.9c0.4-0.2,5.5-2.7,6.2-3.1 C305.3,241,308.7,239.8,306.6,235.3z" class="st151"/></g><g><path d="M294.6,229.6c3.1,2.1,9.1,1.3,11.2-1.7c0.1,1.6,0.3,3.2,0.3,4.7c0.3,6.5-11,7.3-11.3,0.8 C294.7,232.2,294.7,230.9,294.6,229.6z" class="st135"/></g><g><g id="XMLID_2765_"><linearGradient id="XMLID_67_" x1="2472.724" x2="2533.353" y1="122.273" y2="122.273" gradientTransform="matrix(1 0 0 1 -2223.9712 0)" gradientUnits="userSpaceOnUse"><stop offset="0" stop-color="#78727F"/><stop offset="1" stop-color="#3C3940"/></linearGradient><path id="XMLID_5237_" d="M271.4,105.3l-22.6,11.9c0,0-0.1,1.8,0.4,2l34.6,20c0.9,0.5,2,0.5,2.9,0l22.2-12.7 c0.9-0.6,0.4-2,0.4-2l-35-19.2C273.3,104.8,272.3,104.8,271.4,105.3z" class="st152"/><linearGradient id="XMLID_68_" x1="-1707.392" x2="-1646.942" y1="120.905" y2="120.905" gradientTransform="matrix(-1 0 0 1 -1398.1774 0)" gradientUnits="userSpaceOnUse"><stop offset="0" stop-color="#78727F"/><stop offset="1" stop-color="#3C3940"/></linearGradient><path id="XMLID_5236_" d="M271.4,103.9l-22.2,12.7c-0.5,0.3-0.5,1,0,1.3l34.6,20c0.9,0.5,2,0.5,2.9,0l22.2-12.7 c0.5-0.3,0.5-1,0-1.3l-34.6-20C273.3,103.4,272.3,103.4,271.4,103.9z" class="st153"/><path id="XMLID_5235_" d="M287.2,120.3l5.6-3.2c0.1-0.1,0.1-0.2,0-0.3l-8.8-5.1c-0.2-0.1-0.5-0.1-0.7,0 l-5.6,3.2c-0.1,0.1-0.1,0.2,0,0.3l8.8,5.1C286.7,120.4,287,120.4,287.2,120.3z" class="st117"/><g><path id="XMLID_5234_" d="M283,134.2l-1.8-1.1c-0.1,0-0.1-0.1,0-0.2l0.9-0.5c0.1,0,0.2,0,0.2,0l1.8,1.1 c0.1,0,0.1,0.1,0,0.2l-0.9,0.5C283.1,134.3,283,134.3,283,134.2z" class="st102"/><path id="XMLID_5233_" d="M280.3,132.6l-1.8-1.1c-0.1,0-0.1-0.1,0-0.2l0.9-0.5c0.1,0,0.2,0,0.2,0l1.8,1.1 c0.1,0,0.1,0.1,0,0.2l-0.9,0.5C280.4,132.7,280.3,132.7,280.3,132.6z" class="st102"/><path id="XMLID_5232_" d="M277.6,131.1l-1.8-1.1c-0.1,0-0.1-0.1,0-0.2l0.9-0.5c0.1,0,0.2,0,0.2,0l1.8,1.1 c0.1,0,0.1,0.1,0,0.2l-0.9,0.5C277.7,131.1,277.6,131.1,277.6,131.1z" class="st102"/><path id="XMLID_5231_" d="M274.8,129.5l-1.8-1.1c-0.1,0-0.1-0.1,0-0.2l0.9-0.5c0.1,0,0.2,0,0.2,0l1.8,1.1 c0.1,0,0.1,0.1,0,0.2l-0.9,0.5C274.9,129.6,274.9,129.6,274.8,129.5z" class="st102"/><path id="XMLID_5230_" d="M272.1,128l-1.8-1.1c-0.1,0-0.1-0.1,0-0.2l0.9-0.5c0.1,0,0.2,0,0.2,0l1.8,1.1 c0.1,0,0.1,0.1,0,0.2l-0.9,0.5C272.3,128.1,272.2,128.1,272.1,128z" class="st102"/><path id="XMLID_5229_" d="M269.5,126.4l-1.8-1.1c-0.1,0-0.1-0.1,0-0.2l0.9-0.5c0.1,0,0.2,0,0.2,0l1.8,1.1 c0.1,0,0.1,0.1,0,0.2l-0.9,0.5C269.7,126.5,269.6,126.5,269.5,126.4z" class="st102"/><path id="XMLID_5228_" d="M266.8,124.9l-1.8-1.1c-0.1,0-0.1-0.1,0-0.2l0.9-0.5c0.1,0,0.2,0,0.2,0l1.8,1.1 c0.1,0,0.1,0.1,0,0.2l-0.9,0.5C266.9,125,266.8,125,266.8,124.9z" class="st102"/><path id="XMLID_5227_" d="M264.1,123.3l-1.8-1.1c-0.1,0-0.1-0.1,0-0.2l0.9-0.5c0.1,0,0.2,0,0.2,0l1.8,1.1 c0.1,0,0.1,0.1,0,0.2l-0.9,0.5C264.3,123.4,264.2,123.4,264.1,123.3z" class="st102"/><path id="XMLID_5226_" d="M261.5,121.8l-1.8-1.1c-0.1,0-0.1-0.1,0-0.2l0.9-0.5c0.1,0,0.2,0,0.2,0l1.8,1.1 c0.1,0,0.1,0.1,0,0.2l-0.9,0.5C261.6,121.8,261.5,121.8,261.5,121.8z" class="st102"/><path id="XMLID_5225_" d="M258.7,120.2l-1.8-1.1c-0.1,0-0.1-0.1,0-0.2l0.9-0.5c0.1,0,0.2,0,0.2,0l1.8,1.1 c0.1,0,0.1,0.1,0,0.2l-0.9,0.5C258.8,120.2,258.7,120.2,258.7,120.2z" class="st102"/><path id="XMLID_5224_" d="M256,118.7l-1.8-1.1c-0.1,0-0.1-0.1,0-0.2l0.9-0.5c0.1,0,0.2,0,0.2,0l1.8,1.1 c0.1,0,0.1,0.1,0,0.2l-0.9,0.5C256.1,118.7,256,118.7,256,118.7z" class="st102"/><g id="XMLID_2801_"><path id="XMLID_5223_" d="M286.7,132.2l-1.2,0.7c-0.2,0.1-0.4,0.1-0.5,0l-1.2-0.7c-0.2-0.1-0.2-0.3,0-0.4 l1.2-0.7c0.2-0.1,0.4-0.1,0.5,0l1.2,0.7C286.9,131.9,286.9,132.1,286.7,132.2z" class="st102"/><path id="XMLID_2811_" d="M283.9,130.6l-1.2,0.7c-0.2,0.1-0.4,0.1-0.5,0l-1.2-0.7c-0.2-0.1-0.2-0.3,0-0.4 l1.2-0.7c0.2-0.1,0.4-0.1,0.5,0l1.2,0.7C284.1,130.3,284.1,130.5,283.9,130.6z" class="st102"/><path id="XMLID_2810_" d="M281.2,129.1l-1.2,0.7c-0.2,0.1-0.4,0.1-0.5,0l-1.2-0.7c-0.2-0.1-0.2-0.3,0-0.4 l1.2-0.7c0.2-0.1,0.4-0.1,0.5,0l1.2,0.7C281.4,128.8,281.4,129,281.2,129.1z" class="st102"/><path id="XMLID_2809_" d="M278.3,127.5l-1.2,0.7c-0.2,0.1-0.4,0.1-0.5,0l-1.2-0.7c-0.2-0.1-0.2-0.3,0-0.4 l1.2-0.7c0.2-0.1,0.4-0.1,0.5,0l1.2,0.7C278.5,127.2,278.5,127.4,278.3,127.5z" class="st102"/><path id="XMLID_2808_" d="M275.8,126l-1.2,0.7c-0.2,0.1-0.4,0.1-0.5,0l-1.2-0.7c-0.2-0.1-0.2-0.3,0-0.4 l1.2-0.7c0.2-0.1,0.4-0.1,0.5,0l1.2,0.7C276,125.7,276,125.9,275.8,126z" class="st102"/><path id="XMLID_2807_" d="M273.2,124.4l-1.2,0.7c-0.2,0.1-0.4,0.1-0.5,0l-1.2-0.7c-0.2-0.1-0.2-0.3,0-0.4 l1.2-0.7c0.2-0.1,0.4-0.1,0.5,0l1.2,0.7C273.4,124.1,273.4,124.3,273.2,124.4z" class="st102"/><path id="XMLID_2806_" d="M270.5,122.9l-1.2,0.7c-0.2,0.1-0.4,0.1-0.5,0l-1.2-0.7c-0.2-0.1-0.2-0.3,0-0.4 l1.2-0.7c0.2-0.1,0.4-0.1,0.5,0l1.2,0.7C270.6,122.6,270.6,122.8,270.5,122.9z" class="st102"/><path id="XMLID_2805_" d="M267.8,121.4l-1.2,0.7c-0.2,0.1-0.4,0.1-0.5,0l-1.2-0.7c-0.2-0.1-0.2-0.3,0-0.4 l1.2-0.7c0.2-0.1,0.4-0.1,0.5,0l1.2,0.7C267.9,121.1,267.9,121.3,267.8,121.4z" class="st102"/><path id="XMLID_2804_" d="M265.1,119.8l-1.2,0.7c-0.2,0.1-0.4,0.1-0.5,0l-1.2-0.7c-0.2-0.1-0.2-0.3,0-0.4 l1.2-0.7c0.2-0.1,0.4-0.1,0.5,0l1.2,0.7C265.3,119.4,265.3,119.7,265.1,119.8z" class="st102"/><path id="XMLID_2803_" d="M262.2,118.1l-1.2,0.7c-0.2,0.1-0.4,0.1-0.5,0l-1.2-0.7c-0.2-0.1-0.2-0.3,0-0.4 l1.2-0.7c0.2-0.1,0.4-0.1,0.5,0l1.2,0.7C262.4,117.7,262.4,118,262.2,118.1z" class="st102"/><path id="XMLID_2802_" d="M259.6,116.7l-1.2,0.7c-0.2,0.1-0.4,0.1-0.5,0l-1.2-0.7c-0.2-0.1-0.2-0.3,0-0.4 l1.2-0.7c0.2-0.1,0.4-0.1,0.5,0l1.2,0.7C259.8,116.3,259.8,116.6,259.6,116.7z" class="st102"/></g><g id="XMLID_2789_"><path id="XMLID_2800_" d="M289.5,130.7l-1.2,0.7c-0.2,0.1-0.4,0.1-0.5,0l-1.2-0.7c-0.2-0.1-0.2-0.3,0-0.4 l1.2-0.7c0.2-0.1,0.4-0.1,0.5,0l1.2,0.7C289.7,130.4,289.7,130.6,289.5,130.7z" class="st102"/><path id="XMLID_2799_" d="M286.7,129.1l-1.2,0.7c-0.2,0.1-0.4,0.1-0.5,0l-1.2-0.7c-0.2-0.1-0.2-0.3,0-0.4 l1.2-0.7c0.2-0.1,0.4-0.1,0.5,0l1.2,0.7C286.9,128.8,286.9,129,286.7,129.1z" class="st102"/><path id="XMLID_2798_" d="M284,127.6l-1.2,0.7c-0.2,0.1-0.4,0.1-0.5,0l-1.2-0.7c-0.2-0.1-0.2-0.3,0-0.4 l1.2-0.7c0.2-0.1,0.4-0.1,0.5,0l1.2,0.7C284.2,127.2,284.2,127.5,284,127.6z" class="st102"/><path id="XMLID_2797_" d="M281.1,126l-1.2,0.7c-0.2,0.1-0.4,0.1-0.5,0l-1.2-0.7c-0.2-0.1-0.2-0.3,0-0.4 l1.2-0.7c0.2-0.1,0.4-0.1,0.5,0l1.2,0.7C281.3,125.7,281.3,125.9,281.1,126z" class="st102"/><path id="XMLID_2796_" d="M278.6,124.5l-1.2,0.7c-0.2,0.1-0.4,0.1-0.5,0l-1.2-0.7c-0.2-0.1-0.2-0.3,0-0.4 l1.2-0.7c0.2-0.1,0.4-0.1,0.5,0l1.2,0.7C278.7,124.2,278.7,124.4,278.6,124.5z" class="st102"/><path id="XMLID_2795_" d="M276,122.9l-1.2,0.7c-0.2,0.1-0.4,0.1-0.5,0L273,123c-0.2-0.1-0.2-0.3,0-0.4 l1.2-0.7c0.2-0.1,0.4-0.1,0.5,0l1.2,0.7C276.2,122.6,276.2,122.8,276,122.9z" class="st102"/><path id="XMLID_2794_" d="M273.2,121.4l-1.2,0.7c-0.2,0.1-0.4,0.1-0.5,0l-1.2-0.7c-0.2-0.1-0.2-0.3,0-0.4 l1.2-0.7c0.2-0.1,0.4-0.1,0.5,0l1.2,0.7C273.4,121.1,273.4,121.3,273.2,121.4z" class="st102"/><path id="XMLID_2793_" d="M270.5,119.9l-1.2,0.7c-0.2,0.1-0.4,0.1-0.5,0l-1.2-0.7c-0.2-0.1-0.2-0.3,0-0.4 l1.2-0.7c0.2-0.1,0.4-0.1,0.5,0l1.2,0.7C270.7,119.5,270.7,119.8,270.5,119.9z" class="st102"/><path id="XMLID_2792_" d="M267.9,118.3l-1.2,0.7c-0.2,0.1-0.4,0.1-0.5,0l-1.2-0.7c-0.2-0.1-0.2-0.3,0-0.4 l1.2-0.7c0.2-0.1,0.4-0.1,0.5,0l1.2,0.7C268,117.9,268,118.2,267.9,118.3z" class="st102"/><path id="XMLID_2791_" d="M265,116.6l-1.2,0.7c-0.2,0.1-0.4,0.1-0.5,0l-1.2-0.7c-0.2-0.1-0.2-0.3,0-0.4 l1.2-0.7c0.2-0.1,0.4-0.1,0.5,0l1.2,0.7C265.2,116.2,265.2,116.5,265,116.6z" class="st102"/><path id="XMLID_2790_" d="M262.4,115.1l-1.2,0.7c-0.2,0.1-0.4,0.1-0.5,0l-1.2-0.7c-0.2-0.1-0.2-0.3,0-0.4 l1.2-0.7c0.2-0.1,0.4-0.1,0.5,0l1.2,0.7C262.5,114.8,262.5,115,262.4,115.1z" class="st102"/></g><g id="XMLID_2777_"><path id="XMLID_2788_" d="M292.3,129.2l-1.2,0.7c-0.2,0.1-0.4,0.1-0.5,0l-1.2-0.7c-0.2-0.1-0.2-0.3,0-0.4 l1.2-0.7c0.2-0.1,0.4-0.1,0.5,0l1.2,0.7C292.4,128.9,292.4,129.1,292.3,129.2z" class="st102"/><path id="XMLID_2787_" d="M289.5,127.6l-1.2,0.7c-0.2,0.1-0.4,0.1-0.5,0l-1.2-0.7c-0.2-0.1-0.2-0.3,0-0.4 l1.2-0.7c0.2-0.1,0.4-0.1,0.5,0l1.2,0.7C289.6,127.3,289.6,127.5,289.5,127.6z" class="st102"/><path id="XMLID_2786_" d="M286.8,126.1l-1.2,0.7c-0.2,0.1-0.4,0.1-0.5,0l-1.2-0.7c-0.2-0.1-0.2-0.3,0-0.4 l1.2-0.7c0.2-0.1,0.4-0.1,0.5,0l1.2,0.7C286.9,125.7,286.9,126,286.8,126.1z" class="st102"/><path id="XMLID_2785_" d="M283.9,124.5l-1.2,0.7c-0.2,0.1-0.4,0.1-0.5,0l-1.2-0.7c-0.2-0.1-0.2-0.3,0-0.4 l1.2-0.7c0.2-0.1,0.4-0.1,0.5,0l1.2,0.7C284.1,124.2,284.1,124.4,283.9,124.5z" class="st102"/><path id="XMLID_2784_" d="M281.3,123l-1.2,0.7c-0.2,0.1-0.4,0.1-0.5,0l-1.2-0.7c-0.2-0.1-0.2-0.3,0-0.4 l1.2-0.7c0.2-0.1,0.4-0.1,0.5,0l1.2,0.7C281.5,122.7,281.5,122.9,281.3,123z" class="st102"/><path id="XMLID_2783_" d="M278.8,121.4l-1.2,0.7c-0.2,0.1-0.4,0.1-0.5,0l-1.2-0.7c-0.2-0.1-0.2-0.3,0-0.4 l1.2-0.7c0.2-0.1,0.4-0.1,0.5,0l1.2,0.7C278.9,121.1,278.9,121.3,278.8,121.4z" class="st102"/><path id="XMLID_2782_" d="M276,119.9l-1.2,0.7c-0.2,0.1-0.4,0.1-0.5,0l-1.2-0.7c-0.2-0.1-0.2-0.3,0-0.4 l1.2-0.7c0.2-0.1,0.4-0.1,0.5,0l1.2,0.7C276.2,119.6,276.2,119.8,276,119.9z" class="st102"/><path id="XMLID_2781_" d="M273.3,118.4l-1.2,0.7c-0.2,0.1-0.4,0.1-0.5,0l-1.2-0.7c-0.2-0.1-0.2-0.3,0-0.4 l1.2-0.7c0.2-0.1,0.4-0.1,0.5,0l1.2,0.7C273.5,118,273.5,118.3,273.3,118.4z" class="st102"/><path id="XMLID_2780_" d="M270.7,116.8l-1.2,0.7c-0.2,0.1-0.4,0.1-0.5,0l-1.2-0.7c-0.2-0.1-0.2-0.3,0-0.4 l1.2-0.7c0.2-0.1,0.4-0.1,0.5,0l1.2,0.7C270.8,116.4,270.8,116.7,270.7,116.8z" class="st102"/><path id="XMLID_2779_" d="M267.8,115.1l-1.2,0.7c-0.2,0.1-0.4,0.1-0.5,0l-1.2-0.7c-0.2-0.1-0.2-0.3,0-0.4 l1.2-0.7c0.2-0.1,0.4-0.1,0.5,0l1.2,0.7C267.9,114.7,267.9,115,267.8,115.1z" class="st102"/><path id="XMLID_2778_" d="M265.2,113.6l-1.2,0.7c-0.2,0.1-0.4,0.1-0.5,0l-1.2-0.7c-0.2-0.1-0.2-0.3,0-0.4 l1.2-0.7c0.2-0.1,0.4-0.1,0.5,0l1.2,0.7C265.3,113.3,265.3,113.5,265.2,113.6z" class="st102"/></g><g id="XMLID_2767_"><path id="XMLID_2776_" d="M295,127.7l-1.2,0.7c-0.2,0.1-0.4,0.1-0.5,0l-1.2-0.7c-0.2-0.1-0.2-0.3,0-0.4 l1.2-0.7c0.2-0.1,0.4-0.1,0.5,0l1.2,0.7C295.2,127.3,295.2,127.6,295,127.7z" class="st102"/><path id="XMLID_2775_" d="M292.2,126.1l-1.2,0.7c-0.2,0.1-0.4,0.1-0.5,0l-1.2-0.7c-0.2-0.1-0.2-0.3,0-0.4 l1.2-0.7c0.2-0.1,0.4-0.1,0.5,0l1.2,0.7C292.4,125.7,292.4,126,292.2,126.1z" class="st102"/><path id="XMLID_2774_" d="M289.5,124.6l-1.2,0.7c-0.2,0.1-0.4,0.1-0.5,0l-1.2-0.7c-0.2-0.1-0.2-0.3,0-0.4 l1.2-0.7c0.2-0.1,0.4-0.1,0.5,0l1.2,0.7C289.7,124.2,289.7,124.5,289.5,124.6z" class="st102"/><path id="XMLID_2773_" d="M286.7,123l-1.2,0.7c-0.2,0.1-0.4,0.1-0.5,0l-1.2-0.7c-0.2-0.1-0.2-0.3,0-0.4 l1.2-0.7c0.2-0.1,0.4-0.1,0.5,0l1.2,0.7C286.8,122.7,286.8,122.9,286.7,123z" class="st102"/><path id="XMLID_2772_" d="M283.9,121.3l-1.2,0.7c-0.2,0.1-0.4,0.1-0.5,0l-6.3-3.7c-0.2-0.1-0.2-0.3,0-0.4 l1.2-0.7c0.2-0.1,0.4-0.1,0.5,0l6.4,3.7C284.1,121,284.1,121.2,283.9,121.3z" class="st102"/><path id="XMLID_2771_" d="M276.1,116.9l-1.2,0.7c-0.2,0.1-0.4,0.1-0.5,0l-1.2-0.7c-0.2-0.1-0.2-0.3,0-0.4 l1.2-0.7c0.2-0.1,0.4-0.1,0.5,0l1.2,0.7C276.3,116.5,276.3,116.8,276.1,116.9z" class="st102"/><path id="XMLID_2770_" d="M273.4,115.2l-1.2,0.7c-0.2,0.1-0.4,0.1-0.5,0l-1.2-0.7c-0.2-0.1-0.2-0.3,0-0.4 l1.2-0.7c0.2-0.1,0.4-0.1,0.5,0l1.2,0.7C273.6,114.9,273.6,115.1,273.4,115.2z" class="st102"/><path id="XMLID_2769_" d="M270.5,113.5l-1.2,0.7c-0.2,0.1-0.4,0.1-0.5,0l-1.2-0.7c-0.2-0.1-0.2-0.3,0-0.4 l1.2-0.7c0.2-0.1,0.4-0.1,0.5,0l1.2,0.7C270.7,113.2,270.7,113.4,270.5,113.5z" class="st102"/><path id="XMLID_2768_" d="M267.9,112.1l-1.2,0.7c-0.2,0.1-0.4,0.1-0.5,0l-1.2-0.7c-0.2-0.1-0.2-0.3,0-0.4 l1.2-0.7c0.2-0.1,0.4-0.1,0.5,0l1.2,0.7C268.1,111.8,268.1,112,267.9,112.1z" class="st102"/></g></g></g><g id="XMLID_2744_"><linearGradient id="XMLID_69_" x1="2472.788" x2="2509.931" y1="114.882" y2="114.882" gradientTransform="matrix(1 0 0 1 -2223.9712 0)" gradientUnits="userSpaceOnUse"><stop offset="0" stop-color="#120426"/><stop offset="1" stop-color="#3C3940"/></linearGradient><path id="XMLID_2747_" d="M285.2,110.8l-35.3-20.4c-0.5-0.3-1.1,0.1-1.1,0.6v26.6c0,0.6,0.3,1.1,0.8,1.3 l35.3,20.4c0.5,0.3,1.1-0.1,1.1-0.6v-26.6C286,111.6,285.7,111.1,285.2,110.8z" class="st154"/><linearGradient id="XMLID_70_" x1="-1683.681" x2="-1646.538" y1="115.186" y2="115.186" gradientTransform="matrix(-1 0 0 1 -1398.1774 0)" gradientUnits="userSpaceOnUse"><stop offset="0" stop-color="#78727F"/><stop offset="1" stop-color="#3C3940"/></linearGradient><path id="XMLID_2746_" d="M284.7,111.1l-35.3-20.4c-0.5-0.3-1.1,0.1-1.1,0.6v26.6c0,0.6,0.3,1.1,0.8,1.3 l35.3,20.4c0.5,0.3,1.1-0.1,1.1-0.6v-26.6C285.5,111.9,285.2,111.4,284.7,111.1z" class="st155"/><path id="XMLID_2745_" d="M266.9,112.7c-1.2-0.7-2.2-0.1-2.2,1.3s1,3.1,2.2,3.8c1.2,0.7,2.2,0.1,2.2-1.3 C269.1,115.1,268.1,113.4,266.9,112.7z" class="st117"/></g></g></g></g></g></g></svg>