<?xml version="1.0" encoding="utf-8"?>
<!-- Generator: Adobe Illustrator 21.0.0, SVG Export Plug-In . SVG Version: 6.00 Build 0)  -->
<svg version="1.1" id="Layer_1" xmlns="http://www.w3.org/2000/svg" xmlns:xlink="http://www.w3.org/1999/xlink" x="0px" y="0px"
	 viewBox="0 0 100 100" style="enable-background:new 0 0 100 100;" xml:space="preserve">
<style type="text/css">
	.st0{opacity:0.24;fill:#9452FF;}
	.st1{fill:none;stroke:#FFA744;stroke-width:0.9899;stroke-linecap:round;stroke-linejoin:round;stroke-miterlimit:10;}
	.st2{fill:#9452FF;}
	.st3{fill:#FFFFFF;}
	.st4{fill:#491E8C;}
	.st5{fill:#FFA744;}
</style>
<circle class="st0" cx="50" cy="50" r="50"/>
<g>
	<path class="st1" d="M74,93.3c-7.1,4-15.3,6.2-24.1,6.2c-23.3,0-42.8-16.1-48.1-37.7"/>
	<path class="st1" d="M26.8,6.2c6.9-3.7,14.8-5.7,23.1-5.7c13.9,0,26.5,5.8,35.5,15"/>
</g>
<g>
	<g>
		<path class="st2" d="M41.7,10H5.4c-3,0-5.4,2.4-5.4,5.4v36.3c0,3,2.4,5.4,5.4,5.4h11.5c0,2.6,0,6.5,0,6.8c0,0.4,0.5,0.6,0.8,0.3
			c0.2-0.2,5.2-4.4,8.5-7.1h15.5c3,0,5.4-2.4,5.4-5.4V15.4C47.1,12.4,44.7,10,41.7,10z"/>
		<g>
			<path class="st3" d="M20.8,34c0.4-0.4,0.9-0.6,1.5-0.6c1.5,0,2.7-0.3,3.6-1c0.9-0.7,1.4-1.8,1.4-3.2c0-1.1-0.4-2.1-1.2-2.8
				c-0.8-0.7-1.8-1.1-3-1.1c-1.2,0-2.3,0.4-3.3,1.2c-0.5,0.5-1.1,0.7-1.7,0.7c-0.4,0-0.8-0.1-1.1-0.4c-0.6-0.5-0.9-1-0.9-1.6
				c0-0.5,0.2-1,0.6-1.4c0.8-0.8,1.8-1.5,2.9-1.9c1.1-0.5,2.3-0.7,3.5-0.7c1.5,0,2.9,0.3,4.2,1c1.3,0.7,2.3,1.7,3,2.9
				c0.7,1.2,1.1,2.6,1.1,4c0,2.2-0.6,3.9-1.9,5.1c-1.2,1.3-2.9,2-4.9,2.4c-0.1,0-0.2,0.1-0.2,0.2V38c0,0.6-0.2,1.1-0.6,1.5
				c-0.4,0.4-0.9,0.6-1.5,0.6s-1.1-0.2-1.5-0.6c-0.4-0.4-0.6-0.9-0.6-1.5v-2.6C20.2,34.9,20.4,34.4,20.8,34z M20.6,45.6
				c-0.3-0.3-0.5-0.8-0.5-1.5v-0.6c0-0.7,0.2-1.2,0.5-1.5c0.3-0.3,0.8-0.5,1.5-0.5h0.4c0.7,0,1.2,0.2,1.5,0.5
				c0.3,0.3,0.5,0.9,0.5,1.5v0.6c0,0.7-0.2,1.2-0.5,1.5c-0.4,0.3-0.9,0.5-1.5,0.5h-0.4C21.4,46.1,20.9,46,20.6,45.6z"/>
		</g>
	</g>
	<g>
		<path class="st4" d="M45.8,19.3h47.1c3.9,0,7.1,3.2,7.1,7.1v47.1c0,3.9-3.2,7.1-7.1,7.1H78c0,3.4,0,8.4,0,8.8
			c0,0.6-0.6,0.8-1.1,0.4c-0.3-0.2-6.8-5.7-11-9.2H45.8c-3.9,0-7.1-3.2-7.1-7.1V26.4C38.7,22.5,41.9,19.3,45.8,19.3z"/>
		<g>
			<g>
				<path class="st3" d="M68.4,32.1H47.2c-0.7,0-1.2-0.6-1.2-1.2v0c0-0.7,0.6-1.2,1.2-1.2h21.3c0.7,0,1.2,0.6,1.2,1.2v0
					C69.7,31.6,69.1,32.1,68.4,32.1z"/>
				<path class="st3" d="M91.6,32.1H76.2c-0.7,0-1.2-0.6-1.2-1.2v0c0-0.7,0.6-1.2,1.2-1.2h15.3c0.7,0,1.2,0.6,1.2,1.2v0
					C92.8,31.6,92.3,32.1,91.6,32.1z"/>
			</g>
			<g>
				<path class="st3" d="M63.7,44.2H47.2c-0.7,0-1.2-0.6-1.2-1.2v0c0-0.7,0.6-1.2,1.2-1.2h16.5c0.7,0,1.2,0.6,1.2,1.2v0
					C65,43.6,64.4,44.2,63.7,44.2z"/>
				<path class="st3" d="M82.1,44.2H71.5c-0.7,0-1.2-0.6-1.2-1.2v0c0-0.7,0.6-1.2,1.2-1.2h10.6c0.7,0,1.2,0.6,1.2,1.2v0
					C83.4,43.6,82.8,44.2,82.1,44.2z"/>
			</g>
			<g>
				<path class="st3" d="M59,38.2H47.2c-0.7,0-1.2-0.6-1.2-1.2v0c0-0.7,0.6-1.2,1.2-1.2H59c0.7,0,1.2,0.6,1.2,1.2v0
					C60.2,37.6,59.7,38.2,59,38.2z"/>
				<path class="st3" d="M76.3,38.2h-9.5c-0.7,0-1.2-0.6-1.2-1.2v0c0-0.7,0.6-1.2,1.2-1.2h9.5c0.7,0,1.2,0.6,1.2,1.2v0
					C77.5,37.6,76.9,38.2,76.3,38.2z"/>
				<path class="st3" d="M86.1,38.2h-2.4c-0.7,0-1.2-0.6-1.2-1.2v0c0-0.7,0.6-1.2,1.2-1.2h2.4c0.7,0,1.2,0.6,1.2,1.2v0
					C87.4,37.6,86.8,38.2,86.1,38.2z"/>
			</g>
		</g>
		<g>
			<g>
				<path class="st3" d="M68.4,69.9H47.2c-0.7,0-1.2,0.6-1.2,1.2l0,0c0,0.7,0.6,1.2,1.2,1.2h21.3c0.7,0,1.2-0.6,1.2-1.2l0,0
					C69.7,70.4,69.1,69.9,68.4,69.9z"/>
				<path class="st3" d="M91.6,69.9H76.2c-0.7,0-1.2,0.6-1.2,1.2l0,0c0,0.7,0.6,1.2,1.2,1.2h15.3c0.7,0,1.2-0.6,1.2-1.2l0,0
					C92.8,70.4,92.3,69.9,91.6,69.9z"/>
			</g>
			<g>
				<path class="st3" d="M63.7,57.8H47.2c-0.7,0-1.2,0.6-1.2,1.2v0c0,0.7,0.6,1.2,1.2,1.2h16.5c0.7,0,1.2-0.6,1.2-1.2v0
					C65,58.4,64.4,57.8,63.7,57.8z"/>
				<path class="st3" d="M82.1,57.8H71.5c-0.7,0-1.2,0.6-1.2,1.2v0c0,0.7,0.6,1.2,1.2,1.2h10.6c0.7,0,1.2-0.6,1.2-1.2v0
					C83.4,58.4,82.8,57.8,82.1,57.8z"/>
			</g>
			<g>
				<path class="st3" d="M59,63.9H47.2c-0.7,0-1.2,0.6-1.2,1.2v0c0,0.7,0.6,1.2,1.2,1.2H59c0.7,0,1.2-0.6,1.2-1.2v0
					C60.2,64.4,59.7,63.9,59,63.9z"/>
				<path class="st3" d="M76.3,63.9h-9.5c-0.7,0-1.2,0.6-1.2,1.2v0c0,0.7,0.6,1.2,1.2,1.2h9.5c0.7,0,1.2-0.6,1.2-1.2v0
					C77.5,64.4,76.9,63.9,76.3,63.9z"/>
				<path class="st3" d="M86.1,63.9h-2.4c-0.7,0-1.2,0.6-1.2,1.2v0c0,0.7,0.6,1.2,1.2,1.2h2.4c0.7,0,1.2-0.6,1.2-1.2v0
					C87.4,64.4,86.8,63.9,86.1,63.9z"/>
			</g>
		</g>
		<g>
			<path class="st5" d="M50.6,51.7h-4c-0.4,0-0.7-0.3-0.7-0.7v0c0-0.4,0.3-0.7,0.7-0.7h4c0.4,0,0.7,0.3,0.7,0.7v0
				C51.2,51.4,50.9,51.7,50.6,51.7z"/>
			<path class="st5" d="M58.9,51.7h-5c-0.4,0-0.7-0.3-0.7-0.7v0c0-0.4,0.3-0.7,0.7-0.7h5c0.4,0,0.7,0.3,0.7,0.7v0
				C59.6,51.4,59.3,51.7,58.9,51.7z"/>
			<path class="st5" d="M67.2,51.7h-5c-0.4,0-0.7-0.3-0.7-0.7v0c0-0.4,0.3-0.7,0.7-0.7h5c0.4,0,0.7,0.3,0.7,0.7v0
				C67.9,51.4,67.6,51.7,67.2,51.7z"/>
			<path class="st5" d="M75.5,51.7h-5c-0.4,0-0.7-0.3-0.7-0.7v0c0-0.4,0.3-0.7,0.7-0.7h5c0.4,0,0.7,0.3,0.7,0.7v0
				C76.2,51.4,75.9,51.7,75.5,51.7z"/>
			<path class="st5" d="M83.8,51.7h-5c-0.4,0-0.7-0.3-0.7-0.7v0c0-0.4,0.3-0.7,0.7-0.7h5c0.4,0,0.7,0.3,0.7,0.7v0
				C84.5,51.4,84.2,51.7,83.8,51.7z"/>
			<path class="st5" d="M92.1,51.7h-5c-0.4,0-0.7-0.3-0.7-0.7v0c0-0.4,0.3-0.7,0.7-0.7h5c0.4,0,0.7,0.3,0.7,0.7v0
				C92.8,51.4,92.5,51.7,92.1,51.7z"/>
		</g>
	</g>
</g>
</svg>
