<?xml version="1.0" encoding="utf-8"?>
<!-- Generator: Adobe Illustrator 21.0.0, SVG Export Plug-In . SVG Version: 6.00 Build 0)  -->
<svg version="1.1" id="Layer_1" xmlns="http://www.w3.org/2000/svg" xmlns:xlink="http://www.w3.org/1999/xlink" x="0px" y="0px"
	 viewBox="0 0 490 490" style="enable-background:new 0 0 490 490;" xml:space="preserve">
<style type="text/css">
	.st0{fill:url(#SVGID_1_);}
	.st1{fill:url(#SVGID_2_);}
	.st2{fill:none;}
	.st3{fill:#0366D6;}
	.st4{font-family:'OpenSans-Bold';}
	.st5{font-size:10.8549px;}
	.st6{fill:#586069;}
	.st7{font-family:'OpenSans-Regular';}
	.st8{font-size:7.7535px;}
	.st9{font-size:6.2028px;}
	.st10{fill:#F1F8FF;}
	.st11{font-family:'OpenSans-SemiBold';}
	.st12{fill:#00ADD8;}
	.st13{fill:url(#SVGID_3_);}
	.st14{fill:url(#SVGID_4_);}
	.st15{fill:url(#SVGID_5_);}
	.st16{fill:#2B7489;}
	.st17{fill:url(#SVGID_6_);}
	.st18{fill:url(#SVGID_7_);}
	.st19{fill:url(#SVGID_8_);}
	.st20{fill:url(#SVGID_9_);}
</style>
<g>
	<g>
		<linearGradient id="SVGID_1_" gradientUnits="userSpaceOnUse" x1="74.0519" y1="145.5248" x2="420.0272" y2="145.5248">
			<stop  offset="0" style="stop-color:#B4ACBF"/>
			<stop  offset="0.5146" style="stop-color:#D1C8DE"/>
			<stop  offset="1" style="stop-color:#F0E5FF"/>
		</linearGradient>
		<path class="st0" d="M411.4,289.7L82.7,100c-4.8-2.8-8.7-8.9-8.7-13.7V5c0-4.8,3.9-6.4,8.7-3.7l328.7,189.8
			c4.8,2.8,8.7,8.9,8.7,13.7V286C420,290.8,416.2,292.5,411.4,289.7z"/>
		<linearGradient id="SVGID_2_" gradientUnits="userSpaceOnUse" x1="69.9728" y1="148.7881" x2="415.9481" y2="148.7881">
			<stop  offset="0" style="stop-color:#F0E5FF"/>
			<stop  offset="1" style="stop-color:#FFFFFF"/>
		</linearGradient>
		<path class="st1" d="M407.3,293L78.6,103.2c-4.8-2.8-8.7-8.9-8.7-13.7V8.3c0-4.8,3.9-6.4,8.7-3.7l328.7,189.8
			c4.8,2.8,8.7,8.9,8.7,13.7v81.3C415.9,294.1,412.1,295.7,407.3,293z"/>
		<g>
			<polygon class="st2" points="183.1,88.8 81.7,30.2 81.7,19.7 183.1,78.2 			"/>
			<text transform="matrix(0.866 0.5 0 1 81.717 27.9121)" class="st3 st4 st5">engine</text>
			<polygon class="st2" points="305.8,185.5 81.7,56.1 81.7,35.7 305.8,165 			"/>
			<text transform="matrix(0.866 0.5 0 1 81.717 41.5625)"><tspan x="0" y="0" class="st6 st7 st8">Build apps or autonomous workflows with reusable, shareable integrations </tspan><tspan x="0" y="12.4" class="st6 st7 st8">connecting any service, app, blockchain or decentralized network.</tspan></text>
			<polygon class="st2" points="145.4,128 117.4,111.8 117.4,107 145.4,123.1 			"/>
			<text transform="matrix(0.866 0.5 0 1 117.419 111.7102)" class="st6 st7 st9">Apache-2.0</text>
			<polygon class="st2" points="169.7,142 161.9,137.5 161.9,132.7 169.7,137.2 			"/>
			<text transform="matrix(0.866 0.5 0 1 161.8799 137.3798)" class="st6 st7 st9">13</text>
			<polygon class="st2" points="194.5,156.3 186.7,151.8 186.7,147 194.5,151.5 			"/>
			<text transform="matrix(0.866 0.5 0 1 186.6989 151.709)" class="st6 st7 st9">71</text>
			<polygon class="st2" points="267.3,198.4 212.2,166.6 212.2,161.7 267.3,193.5 			"/>
			<text transform="matrix(0.866 0.5 0 1 212.2479 166.4597)" class="st6 st7 st9">22 (4 issues need help)</text>
			<polygon class="st2" points="357,250.2 285.3,208.8 285.3,203.9 357,245.3 			"/>
			<text transform="matrix(0.866 0.5 0 1 285.2807 208.6252)" class="st6 st7 st9">2       Updated 30 minutes ago</text>
			<g>
				<path class="st10" d="M110.3,91.7L84.2,76.6c-0.8-0.5-1.4-1.5-1.4-2.3V63.1c0-0.8,0.6-1.1,1.4-0.6l26.1,15.1
					c0.8,0.5,1.4,1.5,1.4,2.3v11.2C111.8,91.9,111.1,92.2,110.3,91.7z"/>
				<polygon class="st2" points="111.8,87.9 82.8,71.2 82.8,66.3 111.8,83 				"/>
				<text transform="matrix(0.866 0.5 0 1 88.3923 74.2231)" class="st3 st11 st9">docker</text>
			</g>
			<g>
				<path class="st10" d="M145.8,112.2l-29.6-17.1c-0.8-0.5-1.4-1.5-1.4-2.3V81.6c0-0.8,0.6-1.1,1.4-0.6l29.6,17.1
					c0.8,0.5,1.4,1.5,1.4,2.3v11.2C147.2,112.4,146.6,112.6,145.8,112.2z"/>
				<polygon class="st2" points="147.2,108.4 114.7,89.6 114.7,84.7 147.2,103.5 				"/>
				<text transform="matrix(0.866 0.5 0 1 120.6038 92.8204)" class="st3 st11 st9">services</text>
			</g>
			<g>
				<path class="st10" d="M187.6,136.3l-36-20.8c-0.8-0.5-1.4-1.5-1.4-2.3V102c0-0.8,0.6-1.1,1.4-0.6l36,20.8
					c0.8,0.5,1.4,1.5,1.4,2.3v11.2C189,136.5,188.4,136.8,187.6,136.3z"/>
				<polygon class="st2" points="189,132.5 150.1,110.1 150.1,105.2 189,127.6 				"/>
				<text transform="matrix(0.866 0.5 0 1 155.6154 113.0344)" class="st3 st11 st9">blockchain</text>
			</g>
			<g>
				<path class="st10" d="M234.6,163.5l-41.2-23.8c-0.8-0.5-1.4-1.5-1.4-2.3v-11.2c0-0.8,0.6-1.1,1.4-0.6l41.2,23.8
					c0.8,0.5,1.4,1.5,1.4,2.3v11.2C236.1,163.6,235.4,163.9,234.6,163.5z"/>
				<polygon class="st2" points="236.1,159.7 191.9,134.2 191.9,129.3 236.1,154.8 				"/>
				<text transform="matrix(0.866 0.5 0 1 197.5811 137.2633)" class="st3 st11 st9">event-driven</text>
			</g>
			<g>
				<path class="st6" d="M108.6,106.9c-0.8-0.5-1.5-1.3-1.5-1.9c0-0.2,0-0.1,1-1.8c0.2-0.3,0.8,0,1,0.6c1,2.9,1,2.7,1,3
					C110.1,107.3,109.4,107.4,108.6,106.9z M107.8,105.2l1.6,1l-0.8-2.4L107.8,105.2z M113.4,110.3v0.4c0,0.1-0.1,0.2-0.2,0.1
					l-4.8-2.7c-0.1-0.1-0.2-0.2-0.2-0.3v-0.4c0-0.1,0.1-0.2,0.2-0.1l2,1.2v-3.9c-0.3-0.3-0.5-0.7-0.5-1.1l-1.5-0.9
					c-0.1-0.1-0.2-0.2-0.2-0.3v-0.4c0-0.1,0.1-0.2,0.2-0.1l1.7,1c0.2-0.2,0.4-0.2,0.7,0c0.3,0.2,0.6,0.5,0.7,0.8l1.7,1
					c0.1,0.1,0.2,0.2,0.2,0.3v0.4c0,0.1-0.1,0.2-0.2,0.1l-1.5-0.9c-0.1,0.3-0.3,0.5-0.5,0.5v3.9l2,1.2
					C113.3,110.1,113.4,110.2,113.4,110.3z M113,109.5c-0.8-0.5-1.5-1.3-1.5-1.9c0-0.2,0-0.1,1-1.8c0.2-0.3,0.8,0,1,0.6
					c1,2.9,1,2.7,1,3C114.5,109.8,113.8,109.9,113,109.5z M113.9,108.7l-0.8-2.4l-0.8,1.4L113.9,108.7z"/>
			</g>
			<polygon class="st2" points="100.5,102.1 90.6,96.3 90.6,91.5 100.5,97.2 			"/>
			<text transform="matrix(0.866 0.5 0 1 90.5589 96.2025)" class="st6 st7 st9">Go</text>
			<g>
				<g>
					<path class="st6" d="M160.2,134.1c0,0.4-0.1,0.6-0.2,0.8c-0.3,0.3-0.9,0-1.4-0.2c-0.3-0.1-0.6-0.3-0.8-0.3
						c-0.1,0-0.1,0-0.2,0.1c0.3,0.3,0.6,0.9,0.6,1.3c0,0.6-0.4,0.8-0.9,0.5c-0.5-0.3-0.9-1-0.9-1.6c0-0.5,0.3-0.7,0.6-0.6v-2.6
						c-0.4-0.3-0.6-0.9-0.6-1.4c0-0.6,0.4-0.8,0.9-0.5c0.5,0.3,0.9,1,0.9,1.6c0,0.5-0.3,0.7-0.6,0.6v1.9c0.3,0,0.6,0.2,0.9,0.3
						c0.4,0.2,0.8,0.4,1,0.2c0.1-0.1,0.1-0.2,0.1-0.4c-0.4-0.3-0.7-0.9-0.7-1.4c0-0.6,0.4-0.8,0.9-0.5c0.5,0.3,0.9,1,0.9,1.6
						C160.9,134,160.6,134.2,160.2,134.1z M157.2,130.5c0,0.1,0.1,0.3,0.2,0.3c0.1,0.1,0.2,0,0.2-0.1c0-0.1-0.1-0.3-0.2-0.3
						C157.3,130.4,157.2,130.4,157.2,130.5z M157.6,135.4c0-0.1-0.1-0.3-0.2-0.3c-0.1-0.1-0.2,0-0.2,0.1s0.1,0.3,0.2,0.3
						C157.5,135.6,157.6,135.5,157.6,135.4z M159.8,132.9c0,0.1,0.1,0.3,0.2,0.3s0.2,0,0.2-0.1c0-0.1-0.1-0.3-0.2-0.3
						S159.8,132.7,159.8,132.9z"/>
				</g>
			</g>
			<g>
				<g>
					<path class="st6" d="M182.5,144.3l0.7,2.2l1.7,1.2c0.3,0.2,0.4,0.7,0.2,0.8l-1.2,0.7l0.3,2.1c0.1,0.4-0.3,0.5-0.5,0.1l-1.5-1.8
						l-1.5,0c-0.3,0-0.6-0.4-0.5-0.8l0.3-1.8l-1.2-2.1c-0.2-0.4-0.1-0.7,0.2-0.6l1.7,0.7l0.7-1.3
						C181.9,143.7,182.3,143.9,182.5,144.3z"/>
				</g>
			</g>
			<g>
				<g>
					<path class="st6" d="M209.3,162.9c0,1.9-1.3,2.6-2.9,1.7c-1.6-0.9-2.9-3.2-2.9-5.1c0-1.9,1.3-2.6,2.9-1.7
						C208,158.8,209.3,161.1,209.3,162.9z M208.7,162.6c0-1.5-1.1-3.3-2.4-4.1s-2.4-0.1-2.4,1.4c0,1.5,1.1,3.3,2.4,4.1
						C207.7,164.7,208.7,164.1,208.7,162.6z M206.4,163.1c-0.3-0.2-0.5-0.5-0.5-0.9c0-0.3,0.2-0.4,0.5-0.3c0.3,0.2,0.5,0.5,0.5,0.9
						C206.9,163.2,206.6,163.3,206.4,163.1z M206,159.3l0.6,0.4c0.1,0,0.1,0.2,0.1,0.3l-0.1,1.8c0,0.1-0.1,0.1-0.1,0.1l-0.5-0.3
						c-0.1,0-0.1-0.1-0.1-0.2l-0.1-1.9C205.9,159.3,206,159.3,206,159.3z"/>
				</g>
			</g>
			<g>
				<g>
					<path class="st6" d="M282.6,204.8c0,0.4-0.1,0.6-0.2,0.8c-0.3,0.3-0.9,0-1.4-0.2c-0.3-0.1-0.6-0.3-0.8-0.3
						c-0.1,0-0.1,0-0.2,0.1c0.3,0.3,0.6,0.9,0.6,1.3c0,0.6-0.4,0.8-0.9,0.5c-0.5-0.3-0.9-1-0.9-1.6c0-0.5,0.3-0.7,0.6-0.6v-2.6
						c-0.4-0.3-0.6-0.9-0.6-1.4c0-0.6,0.4-0.8,0.9-0.5s0.9,1,0.9,1.6c0,0.5-0.3,0.7-0.6,0.6v1.9c0.3,0,0.6,0.2,0.9,0.3
						c0.4,0.2,0.8,0.4,1,0.2c0.1-0.1,0.1-0.2,0.1-0.4c-0.4-0.3-0.7-0.9-0.7-1.4c0-0.6,0.4-0.8,0.9-0.5c0.5,0.3,0.9,1,0.9,1.6
						C283.2,204.6,283,204.8,282.6,204.8z M279.6,201.2c0,0.1,0.1,0.3,0.2,0.3c0.1,0.1,0.2,0,0.2-0.1c0-0.1-0.1-0.3-0.2-0.3
						C279.6,201,279.6,201.1,279.6,201.2z M279.9,206c0-0.1-0.1-0.3-0.2-0.3c-0.1-0.1-0.2,0-0.2,0.1c0,0.1,0.1,0.3,0.2,0.3
						C279.8,206.2,279.9,206.2,279.9,206z M282.1,203.5c0,0.1,0.1,0.3,0.2,0.3s0.2,0,0.2-0.1c0-0.1-0.1-0.3-0.2-0.3
						S282.1,203.4,282.1,203.5z"/>
				</g>
			</g>
			<path class="st12" d="M88.7,93.3c0,1.9-1.3,2.6-2.9,1.7s-2.9-3.2-2.9-5.1c0-1.9,1.3-2.6,2.9-1.7S88.7,91.5,88.7,93.3z"/>
		</g>
		
			<linearGradient id="SVGID_3_" gradientUnits="userSpaceOnUse" x1="365.3806" y1="-3330.5098" x2="365.3806" y2="-3349.5056" gradientTransform="matrix(1 0.5774 0 1 0 3337.3857)">
			<stop  offset="0" style="stop-color:#D7ECAD"/>
			<stop  offset="0.5" style="stop-color:#87CA8A"/>
			<stop  offset="0.7184" style="stop-color:#74AF7A"/>
			<stop  offset="1" style="stop-color:#5E9067"/>
		</linearGradient>
		<polygon class="st13" points="364.8,217.5 362.7,214.3 361.4,213.9 359.8,210.7 358.2,205.6 357.3,205.6 355.8,208.9 354.1,204.7 
			350.6,206 347.9,204.8 346.3,199.8 345.4,194.3 344.3,201.9 342.3,201.1 340.6,199.2 339.3,198.6 338,197.2 336.4,197.9 
			334.8,195 331.7,191.4 330.5,186.9 329.2,188.8 327.5,187 327.9,186.1 328.8,187.1 330.7,184.2 332.5,191 335.5,194.5 
			336.4,196.3 337.8,195.7 339.4,197.5 340.7,198 342.5,200 343.5,200.4 345.3,187.3 347.2,200 348.5,203.9 350.2,204.6 
			354.4,203.1 355.6,206.2 356.5,204.3 358.8,204.3 360.7,210.7 361.8,212.8 362.9,213.2 364.2,215.1 365.6,210.1 368,213.8 
			368.9,216 371.6,212.3 373.1,214.4 374.7,209.1 376.5,221.2 377.6,220.2 379,221.2 380.4,219.8 381.9,221.5 383.8,219.2 
			385.1,219.8 386.3,223.1 387.8,212.3 390.2,218.9 391.3,227.6 392.8,229.2 394.1,231 395.4,231.4 396.4,231.9 398.3,226.6 
			399.8,230.6 401.5,226.1 403.3,233 402.3,232.9 401.5,229.6 400,233.5 398.5,229.6 397.1,233.4 395.6,232.7 393.8,232.1 
			392.3,229.8 390.4,227.9 389.2,218.6 388.3,216.2 386.8,227.1 384.6,220.8 384.4,220.7 382.2,223.3 380.7,221.5 379.5,222.6 
			378,221.7 375.9,223.6 374.5,213.9 373.7,216.7 371.9,214.2 368.9,218.3 367.2,214 366.2,212.5 		"/>
	</g>
	<g>
		<linearGradient id="SVGID_4_" gradientUnits="userSpaceOnUse" x1="74.0519" y1="345.6558" x2="420.0272" y2="345.6558">
			<stop  offset="0" style="stop-color:#B4ACBF"/>
			<stop  offset="0.5146" style="stop-color:#D1C8DE"/>
			<stop  offset="1" style="stop-color:#F0E5FF"/>
		</linearGradient>
		<path class="st14" d="M411.4,485.4L82.7,295.6c-4.8-2.8-8.7-8.9-8.7-13.7v-72.4c0-4.8,3.9-6.4,8.7-3.7l328.7,189.8
			c4.8,2.8,8.7,8.9,8.7,13.7v72.4C420,486.5,416.2,488.2,411.4,485.4z"/>
		<linearGradient id="SVGID_5_" gradientUnits="userSpaceOnUse" x1="69.9728" y1="348.9191" x2="415.9481" y2="348.9191">
			<stop  offset="0" style="stop-color:#F0E5FF"/>
			<stop  offset="1" style="stop-color:#FFFFFF"/>
		</linearGradient>
		<path class="st15" d="M407.3,488.7L78.6,298.9c-4.8-2.8-8.7-8.9-8.7-13.7v-72.4c0-4.8,3.9-6.4,8.7-3.7l328.7,189.8
			c4.8,2.8,8.7,8.9,8.7,13.7V485C415.9,489.8,412.1,491.4,407.3,488.7z"/>
		<g>
			<g>
				<polygon class="st2" points="183.1,294.3 81.7,235.8 81.7,225.2 183.1,283.8 				"/>
				<text transform="matrix(0.866 0.5 0 1 81.717 233.4736)" class="st3 st4 st5">mesg-js</text>
				<polygon class="st2" points="305.8,379.5 81.7,250.1 81.7,241.2 305.8,370.6 				"/>
				<text transform="matrix(0.866 0.5 0 1 81.717 247.1211)" class="st6 st7 st8">Javascript library to interact with MESG Engine</text>
				<polygon class="st2" points="165.5,334.3 137.6,318.2 137.6,313.3 165.5,329.5 				"/>
				<text transform="matrix(0.866 0.5 0 1 137.5756 318.0479)" class="st6 st7 st9">Apache-2.0</text>
				<polygon class="st2" points="189.8,348.4 182,343.9 182,339 189.8,343.5 				"/>
				<text transform="matrix(0.866 0.5 0 1 182.0366 343.7174)" class="st6 st7 st9">2</text>
				<polygon class="st2" points="214.7,362.7 206.9,358.2 206.9,353.3 214.7,357.8 				"/>
				<text transform="matrix(0.866 0.5 0 1 206.8555 358.0466)" class="st6 st7 st9">6</text>
				<polygon class="st2" points="287.4,404.7 232.4,372.9 232.4,368.1 287.4,399.8 				"/>
				<text transform="matrix(0.866 0.5 0 1 232.4048 372.7975)" class="st6 st7 st9">5 (1 issues need help)</text>
				<polygon class="st2" points="377.2,456.5 305.4,415.1 305.4,410.2 377.2,451.7 				"/>
				<text transform="matrix(0.866 0.5 0 1 305.4372 414.9628)" class="st6 st7 st9">1       Updated yesterday</text>
				<g>
					<path class="st10" d="M113,287.9l-28.8-16.6c-0.8-0.5-1.4-1.5-1.4-2.3v-11.2c0-0.8,0.6-1.1,1.4-0.6l28.8,16.6
						c0.8,0.5,1.4,1.5,1.4,2.3v11.2C114.5,288.1,113.8,288.4,113,287.9z"/>
					<polygon class="st2" points="114.5,284.2 82.8,265.9 82.8,261 114.5,279.3 					"/>
					<text transform="matrix(0.866 0.5 0 1 86.0454 267.5674)" class="st3 st11 st9">javascript</text>
				</g>
				<g>
					<path class="st10" d="M151.2,310l-32.3-18.7c-0.8-0.5-1.4-1.5-1.4-2.3v-11.2c0-0.8,0.6-1.1,1.4-0.6l32.3,18.7
						c0.8,0.5,1.4,1.5,1.4,2.3v11.2C152.6,310.2,152,310.4,151.2,310z"/>
					<polygon class="st2" points="152.6,306.2 117.4,285.9 117.4,281 152.6,301.3 					"/>
					<text transform="matrix(0.866 0.5 0 1 122.0294 288.3428)" class="st3 st11 st9">typescript</text>
				</g>
				<g>
					<path class="st10" d="M182.2,327.9L157,313.3c-0.8-0.5-1.4-1.5-1.4-2.3v-11.2c0-0.8,0.6-1.1,1.4-0.6l25.3,14.6
						c0.8,0.5,1.4,1.5,1.4,2.3v11.2C183.7,328.1,183,328.4,182.2,327.9z"/>
					<polygon class="st2" points="183.7,324.1 155.5,307.9 155.5,303 183.7,319.2 					"/>
					<text transform="matrix(0.866 0.5 0 1 162.6739 311.8088)" class="st3 st11 st9">mesg</text>
				</g>
				<g>
					<path class="st10" d="M229.3,355L188,331.2c-0.8-0.5-1.4-1.5-1.4-2.3v-11.2c0-0.8,0.6-1.1,1.4-0.6l41.2,23.8
						c0.8,0.5,1.4,1.5,1.4,2.3v11.2C230.7,355.2,230.1,355.5,229.3,355z"/>
					<polygon class="st2" points="230.7,351.3 186.6,325.8 186.6,320.9 230.7,346.4 					"/>
					<text transform="matrix(0.866 0.5 0 1 192.3674 328.9524)" class="st3 st11 st9">mesg-library</text>
				</g>
				<g>
					<path class="st6" d="M128.8,313.3c-0.8-0.5-1.5-1.3-1.5-1.9c0-0.2,0-0.1,1-1.8c0.2-0.3,0.8,0,1,0.6c1,2.9,1,2.7,1,3
						C130.3,313.6,129.6,313.7,128.8,313.3z M128,311.5l1.6,1l-0.8-2.4L128,311.5z M133.6,316.7v0.4c0,0.1-0.1,0.2-0.2,0.1l-4.8-2.7
						c-0.1-0.1-0.2-0.2-0.2-0.3v-0.4c0-0.1,0.1-0.2,0.2-0.1l2,1.2v-3.9c-0.3-0.3-0.5-0.7-0.5-1.1l-1.5-0.9c-0.1-0.1-0.2-0.2-0.2-0.3
						v-0.4c0-0.1,0.1-0.2,0.2-0.1l1.7,1c0.2-0.2,0.4-0.2,0.7,0c0.3,0.2,0.6,0.5,0.7,0.8l1.7,1c0.1,0.1,0.2,0.2,0.2,0.3v0.4
						c0,0.1-0.1,0.2-0.2,0.1l-1.5-0.9c-0.1,0.3-0.3,0.5-0.5,0.5v3.9l2,1.2C133.5,316.4,133.6,316.5,133.6,316.7z M133.2,315.8
						c-0.8-0.5-1.5-1.3-1.5-1.9c0-0.2,0-0.1,1-1.8c0.2-0.3,0.8,0,1,0.6c1,2.9,1,2.7,1,3C134.7,316.2,134,316.3,133.2,315.8z
						 M134,315l-0.8-2.4l-0.8,1.4L134,315z"/>
				</g>
				<polygon class="st2" points="116,305.7 90.6,291 90.6,286.2 116,300.9 				"/>
				<text transform="matrix(0.866 0.5 0 1 90.5589 290.9008)" class="st6 st7 st9">TypeScript</text>
				<g>
					<g>
						<path class="st6" d="M180.4,340.5c0,0.4-0.1,0.6-0.2,0.8c-0.3,0.3-0.9,0-1.4-0.2c-0.3-0.1-0.6-0.3-0.8-0.3
							c-0.1,0-0.1,0-0.2,0.1c0.3,0.3,0.6,0.9,0.6,1.3c0,0.6-0.4,0.8-0.9,0.5c-0.5-0.3-0.9-1-0.9-1.6c0-0.5,0.3-0.7,0.6-0.6v-2.6
							c-0.4-0.3-0.6-0.9-0.6-1.4c0-0.6,0.4-0.8,0.9-0.5c0.5,0.3,0.9,1,0.9,1.6c0,0.5-0.3,0.7-0.6,0.6v1.9c0.3,0,0.6,0.2,0.9,0.3
							c0.4,0.2,0.8,0.4,1,0.2c0.1-0.1,0.1-0.2,0.1-0.4c-0.4-0.3-0.7-0.9-0.7-1.4c0-0.6,0.4-0.8,0.9-0.5s0.9,1,0.9,1.6
							C181,340.3,180.8,340.5,180.4,340.5z M177.4,336.9c0,0.1,0.1,0.3,0.2,0.3c0.1,0.1,0.2,0,0.2-0.1s-0.1-0.3-0.2-0.3
							C177.4,336.7,177.4,336.8,177.4,336.9z M177.7,341.7c0-0.1-0.1-0.3-0.2-0.3c-0.1-0.1-0.2,0-0.2,0.1s0.1,0.3,0.2,0.3
							C177.6,341.9,177.7,341.9,177.7,341.7z M179.9,339.2c0,0.1,0.1,0.3,0.2,0.3c0.1,0.1,0.2,0,0.2-0.1s-0.1-0.3-0.2-0.3
							S179.9,339.1,179.9,339.2z"/>
					</g>
				</g>
				<g>
					<g>
						<path class="st6" d="M202.6,350.6l0.7,2.2l1.7,1.2c0.3,0.2,0.4,0.7,0.2,0.8l-1.2,0.7l0.3,2.1c0.1,0.4-0.3,0.5-0.5,0.1
							l-1.5-1.8l-1.5,0c-0.3,0-0.6-0.4-0.5-0.8l0.3-1.8l-1.2-2.1c-0.2-0.4-0.1-0.7,0.2-0.6l1.7,0.7l0.7-1.3
							C202.1,350,202.5,350.3,202.6,350.6z"/>
					</g>
				</g>
				<g>
					<g>
						<path class="st6" d="M229.5,369.3c0,1.9-1.3,2.6-2.9,1.7c-1.6-0.9-2.9-3.2-2.9-5.1c0-1.9,1.3-2.6,2.9-1.7
							C228.1,365.1,229.5,367.4,229.5,369.3z M228.9,368.9c0-1.5-1.1-3.3-2.4-4.1c-1.3-0.8-2.4-0.1-2.4,1.4c0,1.5,1.1,3.3,2.4,4.1
							C227.8,371.1,228.9,370.5,228.9,368.9z M226.5,369.5c-0.3-0.2-0.5-0.5-0.5-0.9c0-0.3,0.2-0.4,0.5-0.3c0.3,0.2,0.5,0.5,0.5,0.9
							C227,369.5,226.8,369.6,226.5,369.5z M226.2,365.7l0.6,0.4c0.1,0,0.1,0.2,0.1,0.3l-0.1,1.8c0,0.1-0.1,0.1-0.1,0.1l-0.5-0.3
							c-0.1,0-0.1-0.1-0.1-0.2l-0.1-1.9C226.1,365.6,226.1,365.6,226.2,365.7z"/>
					</g>
				</g>
				<g>
					<g>
						<path class="st6" d="M302.8,411.1c0,0.4-0.1,0.6-0.2,0.8c-0.3,0.3-0.9,0-1.4-0.2c-0.3-0.1-0.6-0.3-0.8-0.3
							c-0.1,0-0.1,0-0.2,0.1c0.3,0.3,0.6,0.9,0.6,1.3c0,0.6-0.4,0.8-0.9,0.5c-0.5-0.3-0.9-1-0.9-1.6c0-0.5,0.3-0.7,0.6-0.6v-2.6
							c-0.4-0.3-0.6-0.9-0.6-1.4c0-0.6,0.4-0.8,0.9-0.5c0.5,0.3,0.9,1,0.9,1.6c0,0.5-0.3,0.7-0.6,0.6v1.9c0.3,0,0.6,0.2,0.9,0.3
							c0.4,0.2,0.8,0.4,1,0.2c0.1-0.1,0.1-0.2,0.1-0.4c-0.4-0.3-0.7-0.9-0.7-1.4c0-0.6,0.4-0.8,0.9-0.5c0.5,0.3,0.9,1,0.9,1.6
							C303.4,410.9,303.1,411.2,302.8,411.1z M299.7,407.5c0,0.1,0.1,0.3,0.2,0.3c0.1,0.1,0.2,0,0.2-0.1s-0.1-0.3-0.2-0.3
							C299.8,407.4,299.7,407.4,299.7,407.5z M300.1,412.4c0-0.1-0.1-0.3-0.2-0.3c-0.1-0.1-0.2,0-0.2,0.1s0.1,0.3,0.2,0.3
							C300,412.5,300.1,412.5,300.1,412.4z M302.3,409.8c0,0.1,0.1,0.3,0.2,0.3c0.1,0.1,0.2,0,0.2-0.1s-0.1-0.3-0.2-0.3
							C302.4,409.7,302.3,409.7,302.3,409.8z"/>
					</g>
				</g>
				<path class="st16" d="M88.7,288c0,1.9-1.3,2.6-2.9,1.7c-1.6-0.9-2.9-3.2-2.9-5.1s1.3-2.6,2.9-1.7
					C87.4,283.9,88.7,286.2,88.7,288z"/>
			</g>
			
				<linearGradient id="SVGID_6_" gradientUnits="userSpaceOnUse" x1="365.3806" y1="-3124.9485" x2="365.3806" y2="-3143.9443" gradientTransform="matrix(1 0.5774 0 1 0 3337.3857)">
				<stop  offset="0" style="stop-color:#D7ECAD"/>
				<stop  offset="0.5" style="stop-color:#87CA8A"/>
				<stop  offset="0.7184" style="stop-color:#74AF7A"/>
				<stop  offset="1" style="stop-color:#5E9067"/>
			</linearGradient>
			<polygon class="st17" points="364.8,423 362.7,419.9 361.4,419.5 359.8,416.3 358.2,411.1 357.3,411.1 355.8,414.5 354.1,410.2 
				350.6,411.6 347.9,410.4 346.3,405.3 345.4,399.8 344.3,407.5 342.3,406.7 340.6,404.7 339.3,404.2 338,402.7 336.4,403.4 
				334.8,400.5 331.7,396.9 330.5,392.5 329.2,394.4 327.5,392.5 327.9,391.7 328.8,392.6 330.7,389.8 332.5,396.6 335.5,400.1 
				336.4,401.8 337.8,401.3 339.4,403.1 340.7,403.6 342.5,405.5 343.5,405.9 345.3,392.8 347.2,405.5 348.5,409.5 350.2,410.2 
				354.4,408.6 355.6,411.7 356.5,409.8 358.8,409.8 360.7,416.3 361.8,418.4 362.9,418.8 364.2,420.7 365.6,415.7 368,419.4 
				368.9,421.6 371.6,417.9 373.1,420 374.7,414.6 376.5,426.7 377.6,425.8 379,426.7 380.4,425.4 381.9,427.1 383.8,424.8 
				385.1,425.4 386.3,428.6 387.8,417.9 390.2,424.5 391.3,433.2 392.8,434.7 394.1,436.6 395.4,437 396.4,437.4 398.3,432.1 
				399.8,436.1 401.5,431.6 403.3,438.6 402.3,438.4 401.5,435.1 400,439.1 398.5,435.1 397.1,438.9 395.6,438.2 393.8,437.7 
				392.3,435.4 390.4,433.5 389.2,424.2 388.3,421.8 386.8,432.7 384.6,426.3 384.4,426.2 382.2,428.8 380.7,427 379.5,428.2 
				378,427.2 375.9,429.2 374.5,419.5 373.7,422.2 371.9,419.8 368.9,423.9 367.2,419.6 366.2,418 			"/>
		</g>
	</g>
	<g>
		<linearGradient id="SVGID_7_" gradientUnits="userSpaceOnUse" x1="74.0519" y1="247.8122" x2="420.0272" y2="247.8122">
			<stop  offset="0" style="stop-color:#B4ACBF"/>
			<stop  offset="0.5146" style="stop-color:#D1C8DE"/>
			<stop  offset="1" style="stop-color:#F0E5FF"/>
		</linearGradient>
		<path class="st18" d="M411.4,375.1L82.7,185.3c-4.8-2.8-8.7-8.9-8.7-13.7v-47.5c0-4.8,3.9-6.4,8.7-3.7l328.7,189.8
			c4.8,2.8,8.7,8.9,8.7,13.7v47.5C420,376.2,416.2,377.9,411.4,375.1z"/>
		<linearGradient id="SVGID_8_" gradientUnits="userSpaceOnUse" x1="69.9728" y1="251.0755" x2="415.9481" y2="251.0755">
			<stop  offset="0" style="stop-color:#F0E5FF"/>
			<stop  offset="1" style="stop-color:#FFFFFF"/>
		</linearGradient>
		<path class="st19" d="M407.3,378.4L78.6,188.6c-4.8-2.8-8.7-8.9-8.7-13.7v-47.5c0-4.8,3.9-6.4,8.7-3.7l328.7,189.8
			c4.8,2.8,8.7,8.9,8.7,13.7v47.5C415.9,379.5,412.1,381.1,407.3,378.4z"/>
		<g>
			<g>
				<polygon class="st2" points="183.1,209.1 81.7,150.5 81.7,140 183.1,198.6 				"/>
				<text transform="matrix(0.866 0.5 0 1 81.717 148.248)" class="st3 st4 st5">cli</text>
				<polygon class="st2" points="305.8,292.2 81.7,162.9 81.7,156 305.8,285.4 				"/>
				<text transform="matrix(0.866 0.5 0 1 81.717 161.8965)" class="st6 st7 st8">CLI to interact with MESG Engine</text>
				<polygon class="st2" points="141.5,210.8 133.7,206.3 133.7,201.5 141.5,206 				"/>
				<text transform="matrix(0.866 0.5 0 1 133.6605 206.1996)" class="st6 st7 st9">0</text>
				<polygon class="st2" points="166.3,225.2 158.5,220.7 158.5,215.8 166.3,220.3 				"/>
				<text transform="matrix(0.866 0.5 0 1 158.4795 220.5288)" class="st6 st7 st9">0</text>
				<polygon class="st2" points="239,267.2 184,235.4 184,230.6 239,262.3 				"/>
				<text transform="matrix(0.866 0.5 0 1 184.0287 235.2797)" class="st6 st7 st9">22 (6 issues need help)</text>
				<polygon class="st2" points="320.7,314.3 257.1,277.6 257.1,272.7 320.7,309.5 				"/>
				<text transform="matrix(0.866 0.5 0 1 257.0613 277.4451)" class="st6 st7 st9">1       Updated 5 hours ago</text>
				<polygon class="st2" points="117.2,196.8 90.6,181.5 90.6,176.6 117.2,192 				"/>
				<text transform="matrix(0.866 0.5 0 1 90.5589 181.3148)" class="st6 st7 st9">TypeScript</text>
				<g>
					<g>
						<path class="st6" d="M132,203c0,0.4-0.1,0.6-0.2,0.8c-0.3,0.3-0.9,0-1.4-0.2c-0.3-0.1-0.6-0.3-0.8-0.3c-0.1,0-0.1,0-0.2,0.1
							c0.3,0.3,0.6,0.9,0.6,1.3c0,0.6-0.4,0.8-0.9,0.5c-0.5-0.3-0.9-1-0.9-1.6c0-0.5,0.3-0.7,0.6-0.6v-2.6c-0.4-0.3-0.6-0.9-0.6-1.4
							c0-0.6,0.4-0.8,0.9-0.5c0.5,0.3,0.9,1,0.9,1.6c0,0.5-0.3,0.7-0.6,0.6v1.9c0.3,0,0.6,0.2,0.9,0.3c0.4,0.2,0.8,0.4,1,0.2
							c0.1-0.1,0.1-0.2,0.1-0.4c-0.4-0.3-0.7-0.9-0.7-1.4c0-0.6,0.4-0.8,0.9-0.5c0.5,0.3,0.9,1,0.9,1.6
							C132.6,202.8,132.4,203,132,203z M129,199.4c0,0.1,0.1,0.3,0.2,0.3c0.1,0.1,0.2,0,0.2-0.1c0-0.1-0.1-0.3-0.2-0.3
							C129.1,199.2,129,199.2,129,199.4z M129.4,204.2c0-0.1-0.1-0.3-0.2-0.3s-0.2,0-0.2,0.1c0,0.1,0.1,0.3,0.2,0.3
							S129.4,204.3,129.4,204.2z M131.6,201.7c0,0.1,0.1,0.3,0.2,0.3c0.1,0.1,0.2,0,0.2-0.1s-0.1-0.3-0.2-0.3
							C131.6,201.5,131.6,201.6,131.6,201.7z"/>
					</g>
				</g>
				<g>
					<g>
						<path class="st6" d="M154.2,213.1l0.7,2.2l1.7,1.2c0.3,0.2,0.4,0.7,0.2,0.8l-1.2,0.7l0.3,2.1c0.1,0.4-0.3,0.5-0.5,0.1
							l-1.5-1.8l-1.5,0c-0.3,0-0.6-0.4-0.5-0.8l0.3-1.8L151,214c-0.2-0.4-0.1-0.7,0.2-0.6l1.7,0.7l0.7-1.3
							C153.7,212.5,154.1,212.7,154.2,213.1z"/>
					</g>
				</g>
				<g>
					<g>
						<path class="st6" d="M181.1,231.8c0,1.9-1.3,2.6-2.9,1.7c-1.6-0.9-2.9-3.2-2.9-5.1c0-1.9,1.3-2.6,2.9-1.7
							C179.8,227.6,181.1,229.9,181.1,231.8z M180.5,231.4c0-1.5-1.1-3.3-2.4-4.1s-2.4-0.1-2.4,1.4c0,1.5,1.1,3.3,2.4,4.1
							C179.5,233.5,180.5,232.9,180.5,231.4z M178.2,231.9c-0.3-0.2-0.5-0.5-0.5-0.9c0-0.3,0.2-0.4,0.5-0.3c0.3,0.2,0.5,0.5,0.5,0.9
							C178.6,232,178.4,232.1,178.2,231.9z M177.8,228.1l0.6,0.4c0.1,0,0.1,0.2,0.1,0.3l-0.1,1.8c0,0.1-0.1,0.1-0.1,0.1l-0.5-0.3
							c-0.1,0-0.1-0.1-0.1-0.2l-0.1-1.9C177.7,228.1,177.7,228.1,177.8,228.1z"/>
					</g>
				</g>
				<g>
					<g>
						<path class="st6" d="M254.4,273.6c0,0.4-0.1,0.6-0.2,0.8c-0.3,0.3-0.9,0-1.4-0.2c-0.3-0.1-0.6-0.3-0.8-0.3
							c-0.1,0-0.1,0-0.2,0.1c0.3,0.3,0.6,0.9,0.6,1.3c0,0.6-0.4,0.8-0.9,0.5c-0.5-0.3-0.9-1-0.9-1.6c0-0.5,0.3-0.7,0.6-0.6V271
							c-0.4-0.3-0.6-0.9-0.6-1.4c0-0.6,0.4-0.8,0.9-0.5s0.9,1,0.9,1.6c0,0.5-0.3,0.7-0.6,0.6v1.9c0.3,0,0.6,0.2,0.9,0.3
							c0.4,0.2,0.8,0.4,1,0.2c0.1-0.1,0.1-0.2,0.1-0.4c-0.4-0.3-0.7-0.9-0.7-1.4c0-0.6,0.4-0.8,0.9-0.5c0.5,0.3,0.9,1,0.9,1.6
							C255,273.4,254.7,273.7,254.4,273.6z M251.3,270c0,0.1,0.1,0.3,0.2,0.3s0.2,0,0.2-0.1s-0.1-0.3-0.2-0.3S251.3,269.9,251.3,270
							z M251.7,274.9c0-0.1-0.1-0.3-0.2-0.3s-0.2,0-0.2,0.1c0,0.1,0.1,0.3,0.2,0.3S251.7,275,251.7,274.9z M253.9,272.3
							c0,0.1,0.1,0.3,0.2,0.3c0.1,0.1,0.2,0,0.2-0.1s-0.1-0.3-0.2-0.3C254,272.2,253.9,272.2,253.9,272.3z"/>
					</g>
				</g>
				<path class="st16" d="M88.7,178.4c0,1.9-1.3,2.6-2.9,1.7c-1.6-0.9-2.9-3.2-2.9-5.1c0-1.9,1.3-2.6,2.9-1.7
					C87.4,174.3,88.7,176.6,88.7,178.4z"/>
			</g>
			
				<linearGradient id="SVGID_9_" gradientUnits="userSpaceOnUse" x1="364.9968" y1="-3225.7581" x2="364.9968" y2="-3246.4927" gradientTransform="matrix(1 0.5774 0 1 0 3337.3857)">
				<stop  offset="0" style="stop-color:#D7ECAD"/>
				<stop  offset="0.5" style="stop-color:#87CA8A"/>
				<stop  offset="0.7184" style="stop-color:#74AF7A"/>
				<stop  offset="1" style="stop-color:#5E9067"/>
			</linearGradient>
			<polygon class="st20" points="388.1,335.7 386.1,328.7 384.9,328 383.7,326.1 382.4,330.3 380.6,330.4 379.3,327.7 378,328.7 
				370,324.1 367.5,321.2 365.9,321.6 362.8,317.1 361.6,316.4 360.1,318.1 327.3,299.2 327.3,298 359.6,316.7 361,314.9 
				363.1,316.1 365.9,320.2 367.4,319.8 370.4,323.2 377.5,327.3 379.4,326 380.9,329.1 381.5,329 383.2,323.6 385.2,327.1 
				386.7,327.9 388,332.2 389.2,328.6 391,316.6 392.9,335.2 397,335 398.4,338.6 399.7,337.5 401.3,337.5 402.7,338.7 402.4,339.7 
				401.4,338.8 400.3,338.8 398.3,340.6 396.6,336.4 395.5,336.4 392.1,336.6 390.9,324.8 390.2,329.5 			"/>
		</g>
	</g>
</g>
</svg>
