
<svg version="1.1" id="Layer_1" xmlns="http://www.w3.org/2000/svg" xmlns:xlink="http://www.w3.org/1999/xlink" x="0px" y="0px"
	 viewBox="0 0 400 102" style="enable-background:new 0 0 400 102;" xml:space="preserve">
<style type="text/css">

		.st0{fill:none;stroke:#FFA744;stroke-width:2;stroke-linecap:round;stroke-linejoin:round;stroke-miterlimit:10;stroke-dasharray:1,4;}
	.st1{fill:#221101;}
	.st2{fill:#CD9476;}
	.st3{fill:url(#Shirt_1_);}
	.st4{fill:none;stroke:#FFA744;stroke-width:2;stroke-linecap:round;stroke-linejoin:round;stroke-dasharray:0.9971,3.9883;}
	.st5{fill:url(#SVGID_1_);}
	.st6{fill:url(#SVGID_2_);}
	.st7{enable-background:new    ;}
	.st8{fill:#FFFFFF;}
	.st9{fill:#491E8C;}
	.st10{opacity:0.4;fill:#491E8C;enable-background:new    ;}
	.st11{fill:#1141F3;}
</style>
<g>
	<g>
		<circle class="st0" cx="51" cy="51" r="50"/>
		<g>
			<g>
				<g id="Women-1">
					<path id="Hair-back" class="st1" d="M33.6,36.3c0,0,2.1,19.6-0.1,21.9h34.3c0,0-1.2-16.5,0.5-23.2L33.6,36.3z"/>
					<path id="Body_2_" class="st2" d="M79,65.4c-4.5-6.7-11.3-10.7-19.7-12.3l-0.1-2.6c4.5-4.4,8.3-11.5,8.3-18.3
						C67.5,21,62,12,50.7,12S34,21.1,34,32.2c0,7.1,3.9,14.3,8.5,18.7l-0.1,2.1c-8.8,1.4-16.2,5.3-19.8,12.6
						c-0.9,1.9,19.8,12.5,28.2,12.5C62,78.2,80.4,67.6,79,65.4z"/>
					<path id="Hair_2_" class="st1" d="M71.5,56.8C70.7,52.6,71,29.1,71,29.1c0-5.2-3.5-20-20.1-17.9c-16.5-2-20.1,12.3-20.1,17.9
						c0,0.6,0.1,26.1-0.5,27.7c-1.5,3.9,6.8-1,6.8-2.4c0-3.4,0-24.2,0.5-24.5c0.3-0.2,1.7-0.5,3.5-0.7l0.8-4.9l0.9,4.7
						c2.7-0.3,6-0.6,8.1-0.6c1.7,0,4.9,0.3,7.7,0.8l0.3-2.4l0.5,2.5c0.6,0.1,1,0.1,1.5,0.2l0.3-1.8l0.3,2c1.4,0.2,2.3,0.6,2.4,0.7
						c0.8,0.9,0.8,25.5,1.1,26.3C65.3,58,72.4,60.4,71.5,56.8z"/>

						<linearGradient id="Shirt_1_" gradientUnits="userSpaceOnUse" x1="21.5307" y1="129.9516" x2="80.4879" y2="129.9516" gradientTransform="matrix(1 0 0 -1 0 202)">
						<stop  offset="0" style="stop-color:#491E8C"/>
						<stop  offset="1" style="stop-color:#251440"/>
					</linearGradient>
					<path id="Shirt_2_" class="st3" d="M40.9,53.2c0,0,7.4,10.8,9.9,10.8c2.8,0,10.1-10.9,10.1-10.9s11.6,1,19.7,12.4
						c0,0-13.9,25.5-29.2,25.5S21.5,65.8,21.5,65.8S28.4,54.1,40.9,53.2z"/>
				</g>
			</g>
		</g>
	</g>
	<g>
		<g>
			<circle class="st4" cx="349" cy="51" r="50"/>
		</g>
		<g>

				<linearGradient id="SVGID_1_" gradientUnits="userSpaceOnUse" x1="308.9907" y1="151" x2="388.9907" y2="151" gradientTransform="matrix(1 0 0 -1 0 202)">
				<stop  offset="0" style="stop-color:#9452FF"/>
				<stop  offset="1" style="stop-color:#491E8C"/>
			</linearGradient>
			<circle class="st5" cx="349" cy="51" r="40"/>
			<g>

					<linearGradient id="SVGID_2_" gradientUnits="userSpaceOnUse" x1="383.3325" y1="134.9862" x2="314.6489" y2="167.0138" gradientTransform="matrix(1 0 0 -1 0 202)">
					<stop  offset="0" style="stop-color:#251440"/>
					<stop  offset="1" style="stop-color:#491E8C"/>
				</linearGradient>
				<path class="st6" d="M349,18.8c4.4,0,8.6,0.8,12.5,2.5c3.8,1.6,7.3,4,10.2,6.9c3,3,5.3,6.4,6.9,10.2c1.7,4,2.5,8.2,2.5,12.6
					s-0.8,8.6-2.5,12.6c-1.6,3.8-4,7.3-6.9,10.2c-3,3-6.4,5.3-10.2,6.9c-4,1.7-8.2,2.5-12.5,2.5s-8.6-0.8-12.5-2.5
					c-3.8-1.6-7.3-4-10.2-6.9c-3-3-5.3-6.4-6.9-10.2c-1.7-4-2.5-8.2-2.5-12.6s0.8-8.6,2.5-12.6c1.6-3.8,4-7.3,6.9-10.2
					c3-3,6.4-5.3,10.2-6.9C340.4,19.6,344.6,18.8,349,18.8 M349,13.1c-20.9,0-37.9,17-37.9,37.9s17,37.9,37.9,37.9
					s37.9-17,37.9-37.9S369.9,13.1,349,13.1L349,13.1z"/>
				<g class="st7">
					<ellipse class="st8" cx="349" cy="51" rx="32.2" ry="32.2"/>
				</g>
				<g id="Brandmark_95_">
					<ellipse id="Core-1_96_" class="st9" cx="349" cy="40.6" rx="3.7" ry="3.7"/>
					<ellipse id="Core-2_96_" class="st9" cx="338.1" cy="48.5" rx="3.7" ry="3.7"/>
					<ellipse id="Core-3_96_" class="st9" cx="359.9" cy="48.5" rx="3.7" ry="3.7"/>
					<ellipse id="Core-4_96_" class="st9" cx="342.3" cy="61.4" rx="3.7" ry="3.7"/>
					<ellipse id="Core-5_96_" class="st9" cx="355.7" cy="61.4" rx="3.7" ry="3.7"/>
					<path id="Center_95_" class="st10" d="M351,61.4c0-1.3,0.5-2.4,1.4-3.4c0.9-0.9,2.1-1.4,3.4-1.4c1.2,0,2.3,0.4,3.2,1.2
						c0.8-1.4,1.3-3,1.5-4.6c-0.2,0-0.3,0-0.5,0c-1.3,0-2.4-0.5-3.4-1.4c-0.9-0.9-1.4-2.1-1.4-3.4s0.5-2.4,1.4-3.4
						c0.3-0.3,0.6-0.6,1-0.8c-1.1-1.2-2.4-2.2-3.9-2.8c-0.2,0.9-0.6,1.7-1.3,2.4c-0.9,0.9-2.1,1.4-3.4,1.4c-1.3,0-2.4-0.5-3.4-1.4
						c-0.6-0.6-1.1-1.5-1.3-2.4c-1.5,0.7-2.8,1.6-3.9,2.8c0.4,0.2,0.7,0.4,1,0.8c0.9,0.9,1.4,2.1,1.4,3.4s-0.5,2.4-1.4,3.4
						c-0.9,0.9-2.1,1.4-3.4,1.4c-0.2,0-0.3,0-0.5,0c0.2,1.7,0.7,3.2,1.5,4.6c0.9-0.8,2-1.2,3.2-1.2c1.3,0,2.4,0.5,3.4,1.4
						c0.9,0.9,1.4,2.1,1.4,3.4c0,0.7-0.2,1.3-0.4,1.9c0.8,0.2,1.6,0.2,2.4,0.2s1.6-0.1,2.4-0.2C351.2,62.7,351,62,351,61.4z"/>
					<path id="Circles_95_" class="st10" d="M372.8,43.1c-0.7-1.7-1.7-3.2-3-4.5c-1.3-1.3-2.8-2.3-4.5-3c-1.2-0.5-2.4-0.8-3.6-1
						c-0.7-1.5-1.6-2.8-2.8-3.9c-1.3-1.3-2.8-2.3-4.5-3c-1.7-0.7-3.6-1.1-5.5-1.1s-3.7,0.4-5.5,1.1c-1.7,0.7-3.2,1.7-4.5,3
						c-1.2,1.2-2.1,2.4-2.8,3.9c-1.3,0.2-2.6,0.5-3.8,1c-1.7,0.7-3.2,1.7-4.5,3c-1.3,1.3-2.3,2.8-3,4.5c-0.7,1.7-1.1,3.6-1.1,5.5
						c0,1.9,0.4,3.8,1.1,5.5c0.7,1.7,1.7,3.2,3,4.5c0.1,0.1,0.2,0.2,0.3,0.3c-0.2,0.8-0.2,1.7-0.2,2.6c0,1.9,0.4,3.8,1.1,5.5
						c0.7,1.7,1.7,3.2,3,4.5c1.3,1.3,2.8,2.3,4.5,3c1.7,0.7,3.6,1.1,5.5,1.1c1.9,0,3.7-0.4,5.5-1.1c0.4-0.2,0.8-0.4,1.3-0.6
						c0.4,0.2,0.8,0.4,1.3,0.6c1.7,0.7,3.6,1.1,5.5,1.1c1.9,0,3.7-0.4,5.5-1.1c1.7-0.7,3.2-1.7,4.5-3c1.3-1.3,2.3-2.8,3-4.5
						c0.7-1.7,1.1-3.6,1.1-5.5c0-0.9-0.1-1.8-0.2-2.6c0.1-0.1,0.2-0.2,0.3-0.3c1.3-1.3,2.3-2.8,3-4.5c0.7-1.7,1.1-3.6,1.1-5.5
						C374,46.6,373.6,44.8,372.8,43.1z M371.8,53.6c-0.6,1.4-1.5,2.8-2.6,3.9c-0.2-0.5-0.3-1-0.6-1.6c-0.7-1.7-1.7-3.2-3-4.5
						c-0.4-0.4-0.9-0.8-1.4-1.2c-0.1,0.4-0.3,0.7-0.6,1c0.4,0.3,0.8,0.6,1.1,1c1.2,1.2,2.1,2.6,2.8,4.1c0.3,0.6,0.5,1.3,0.7,2
						c-1,0.9-2.1,1.6-3.4,2.1c-1.4,0.6-2.9,0.9-4.5,1c0,0.4,0,0.8-0.2,1.2c1.8,0,3.5-0.4,5.1-1.1c1.1-0.5,2.2-1.1,3.2-1.8
						c0.1,0.6,0.1,1.2,0.1,1.7c0,1.8-0.4,3.4-1,5c-0.6,1.5-1.6,2.9-2.8,4.1c-1.2,1.2-2.6,2.1-4.1,2.8c-1.6,0.7-3.3,1-5,1
						c-1.8,0-3.4-0.4-5-1c-0.2-0.1-0.4-0.2-0.6-0.2c0.7-0.5,1.4-1.1,2-1.7c1.3-1.3,2.3-2.8,3-4.5c0.1-0.2,0.2-0.5,0.3-0.8
						c-0.4,0-0.8-0.1-1.2-0.2c-0.1,0.2-0.1,0.4-0.2,0.5c-0.6,1.5-1.6,2.9-2.8,4.1c-0.7,0.7-1.5,1.4-2.4,1.9
						c-0.9-0.5-1.7-1.2-2.4-1.9c-1.2-1.2-2.1-2.6-2.8-4.1c-0.1-0.2-0.1-0.3-0.2-0.5c-0.4,0.1-0.8,0.2-1.2,0.2
						c0.1,0.2,0.2,0.5,0.3,0.8c0.7,1.7,1.7,3.2,3,4.5c0.6,0.6,1.3,1.2,2,1.7c-0.2,0.1-0.4,0.2-0.6,0.2c-1.6,0.7-3.3,1-5,1
						c-1.8,0-3.4-0.4-5-1c-1.5-0.6-2.9-1.6-4.1-2.8c-1.2-1.2-2.1-2.6-2.8-4.1c-0.7-1.6-1-3.3-1-5c0-0.6,0-1.2,0.1-1.7
						c1,0.8,2,1.4,3.2,1.8c1.6,0.7,3.3,1,5.1,1.1c-0.1-0.4-0.2-0.8-0.2-1.2c-1.6-0.1-3-0.4-4.5-1c-1.2-0.5-2.4-1.2-3.4-2.1
						c0.2-0.7,0.4-1.4,0.7-2c0.6-1.5,1.6-2.9,2.8-4.1c0.4-0.4,0.7-0.7,1.1-1c-0.2-0.3-0.4-0.7-0.6-1c-0.5,0.4-0.9,0.8-1.4,1.2
						c-1.3,1.3-2.3,2.8-3,4.5c-0.2,0.5-0.4,1-0.6,1.6c-1.1-1.1-2-2.4-2.6-3.9c-0.7-1.6-1-3.3-1-5c0-1.8,0.4-3.4,1-5
						c0.6-1.5,1.6-2.9,2.8-4.1c1.2-1.2,2.6-2.1,4.1-2.8c0.9-0.4,1.8-0.6,2.8-0.8c-0.6,1.5-0.8,3.2-0.8,4.8c0,1.3,0.2,2.6,0.6,3.9
						c0.3-0.2,0.7-0.4,1.1-0.5c-0.3-1.1-0.4-2.2-0.4-3.4c0-1.7,0.3-3.4,1-5c0.3,0,0.6,0,0.9,0c1.8,0,3.4,0.4,5,1
						c0.7,0.3,1.4,0.7,2.1,1.1c0.1-0.2,0.3-0.4,0.4-0.5c0.1-0.1,0.2-0.2,0.4-0.3c-0.8-0.5-1.6-1-2.5-1.4c-1.7-0.7-3.6-1.1-5.5-1.1
						c-0.1,0-0.2,0-0.4,0c0.6-1.1,1.4-2.1,2.2-3c1.2-1.2,2.6-2.1,4.1-2.8c1.6-0.7,3.3-1,5-1c1.8,0,3.4,0.4,5,1
						c1.5,0.6,2.9,1.6,4.1,2.8c0.9,0.9,1.6,1.9,2.2,3c-0.2,0-0.4,0-0.6,0c-1.9,0-3.7,0.4-5.5,1.1c-0.9,0.4-1.7,0.8-2.5,1.4
						c0.1,0.1,0.2,0.2,0.4,0.3c0.2,0.2,0.3,0.3,0.4,0.5c0.7-0.4,1.4-0.8,2.1-1.1c1.6-0.7,3.3-1,5-1c0.4,0,0.8,0,1.1,0
						c0.6,1.6,1,3.2,1,4.9c0,1.2-0.2,2.4-0.5,3.5c0.4,0.1,0.7,0.3,1,0.6c0.4-1.3,0.6-2.6,0.6-4c0-1.6-0.3-3.2-0.8-4.8
						c0.9,0.2,1.8,0.4,2.6,0.8c1.5,0.6,2.9,1.6,4.1,2.8c1.2,1.2,2.1,2.6,2.8,4.1c0.7,1.6,1,3.3,1,5C372.8,50.3,372.5,52,371.8,53.6z
						"/>
				</g>
			</g>
		</g>
	</g>
	<line class="st0" x1="101" y1="51" x2="299" y2="51"/>
	<g>
		<circle class="st11" cx="200" cy="51" r="50"/>
		<g>
			<path class="st8" d="M174.5,31.5h10.3V21h-10.3V31.5z"/>
			<path class="st8" d="M204.9,21H192v17.8h12.3c6.7,0,12.2,5.4,12.2,12.2s-5.4,12.2-12.2,12.2H192V38.8h-17.6V81h30.4
				c16.1-0.6,28.8-13.9,28.7-30C233.6,34.9,220.9,21.6,204.9,21"/>
		</g>
	</g>
</g>
</svg>
