
<svg version="1.1" id="Layer_1" xmlns="http://www.w3.org/2000/svg" xmlns:xlink="http://www.w3.org/1999/xlink" x="0px" y="0px"
	 viewBox="0 0 400 133" style="enable-background:new 0 0 400 133;" xml:space="preserve">
<style type="text/css">
	.st0{fill:url(#SVGID_1_);}
	.st1{fill:url(#SVGID_2_);}
	.st2{enable-background:new    ;}
	.st3{fill:#FFFFFF;}
	.st4{fill:#491E8C;}
	.st5{opacity:0.4;fill:#491E8C;enable-background:new    ;}
	.st6{opacity:0.85;}
	.st7{fill:#1141F3;}
</style>
<g>
	<g>

			<linearGradient id="SVGID_1_" gradientUnits="userSpaceOnUse" x1="0" y1="335.5" x2="132.7867" y2="335.5" gradientTransform="matrix(1 0 0 -1 0 402)">
			<stop  offset="0" style="stop-color:#9452FF"/>
			<stop  offset="1" style="stop-color:#491E8C"/>
		</linearGradient>
		<circle class="st0" cx="66.4" cy="66.5" r="66.4"/>
		<g>

				<linearGradient id="SVGID_2_" gradientUnits="userSpaceOnUse" x1="123.395" y1="308.9197" x2="9.3917" y2="362.0803" gradientTransform="matrix(1 0 0 -1 0 402)">
				<stop  offset="0" style="stop-color:#251440"/>
				<stop  offset="1" style="stop-color:#491E8C"/>
			</linearGradient>
			<path class="st1" d="M66.4,13c7.2,0,14.2,1.4,20.8,4.2c6.4,2.7,12.1,6.6,17,11.5c4.9,4.9,8.8,10.6,11.5,17
				c2.8,6.6,4.2,13.6,4.2,20.8s-1.4,14.2-4.2,20.8c-2.7,6.4-6.6,12.1-11.5,17c-4.9,4.9-10.6,8.8-17,11.5c-6.6,2.8-13.6,4.2-20.8,4.2
				s-14.2-1.4-20.8-4.2c-6.4-2.7-12.1-6.6-17-11.5c-4.9-4.9-8.8-10.6-11.5-17c-2.8-6.6-4.2-13.6-4.2-20.8s1.4-14.2,4.2-20.8
				c2.7-6.4,6.6-12.1,11.5-17c4.9-4.9,10.6-8.8,17-11.5C52.2,14.4,59.2,13,66.4,13 M66.4,3.6C31.7,3.6,3.5,31.8,3.5,66.5
				s28.2,62.9,62.9,62.9s62.9-28.2,62.9-62.9S101.1,3.6,66.4,3.6L66.4,3.6z"/>
			<g class="st2">
				<ellipse class="st3" cx="66.4" cy="66.5" rx="53.4" ry="53.5"/>
			</g>
			<g id="Brandmark_95_">
				<ellipse id="Core-1_96_" class="st4" cx="66.4" cy="49.2" rx="6.2" ry="6.2"/>
				<ellipse id="Core-2_96_" class="st4" cx="48.3" cy="62.4" rx="6.2" ry="6.2"/>
				<ellipse id="Core-3_96_" class="st4" cx="84.5" cy="62.4" rx="6.2" ry="6.2"/>
				<ellipse id="Core-4_96_" class="st4" cx="55.2" cy="83.7" rx="6.2" ry="6.2"/>
				<ellipse id="Core-5_96_" class="st4" cx="77.5" cy="83.7" rx="6.2" ry="6.2"/>
				<path id="Center_95_" class="st5" d="M69.7,83.7c0-2.1,0.8-4.1,2.3-5.6c1.5-1.5,3.5-2.3,5.6-2.3c2,0,3.8,0.7,5.2,2.1
					c1.3-2.3,2.2-4.9,2.5-7.6c-0.3,0-0.5,0.1-0.9,0.1c-2.1,0-4.1-0.8-5.6-2.3c-1.5-1.5-2.3-3.5-2.3-5.6c0-2.1,0.8-4,2.3-5.6
					c0.5-0.5,1.1-0.9,1.7-1.3c-1.8-2-4-3.7-6.5-4.7c-0.3,1.5-1.1,2.9-2.1,3.9c-1.5,1.5-3.5,2.3-5.6,2.3c-2.1,0-4-0.8-5.6-2.3
					c-1.1-1.1-1.8-2.5-2.1-3.9c-2.5,1.1-4.7,2.7-6.5,4.7c0.6,0.3,1.1,0.7,1.7,1.3c1.5,1.5,2.3,3.5,2.3,5.6c0,2.1-0.8,4-2.3,5.6
					s-3.5,2.3-5.6,2.3c-0.3,0-0.5,0-0.9-0.1c0.3,2.8,1.1,5.4,2.5,7.6c1.5-1.3,3.3-2.1,5.2-2.1c2.1,0,4,0.8,5.6,2.3
					c1.5,1.5,2.3,3.5,2.3,5.6c0,1.1-0.3,2.2-0.7,3.2c1.3,0.3,2.7,0.4,4,0.4s2.7-0.1,4.1-0.4C70,85.9,69.7,84.8,69.7,83.7z"/>
				<path id="Circles_95_" class="st5" d="M106,53.4c-1.2-2.8-2.9-5.2-5-7.4c-2.1-2.1-4.6-3.9-7.4-5c-1.9-0.8-3.9-1.3-5.9-1.6
					c-1.1-2.5-2.7-4.6-4.6-6.5c-2.1-2.1-4.6-3.9-7.4-5c-2.9-1.2-5.9-1.9-9.1-1.9c-3.2,0-6.2,0.6-9.1,1.9c-2.8,1.2-5.2,2.9-7.4,5
					c-1.9,1.9-3.5,4-4.6,6.5c-2.2,0.3-4.2,0.8-6.3,1.7c-2.8,1.2-5.2,2.9-7.4,5c-2.1,2.1-3.9,4.6-5,7.4c-1.2,2.9-1.9,5.9-1.9,9.1
					c0,3.1,0.6,6.2,1.9,9.1c1.2,2.8,2.9,5.2,5,7.4c0.1,0.1,0.3,0.3,0.5,0.5c-0.3,1.4-0.4,2.9-0.4,4.3c0,3.1,0.6,6.2,1.9,9.1
					c1.2,2.8,2.9,5.2,5,7.4c2.1,2.1,4.6,3.9,7.4,5c2.9,1.2,5.9,1.9,9.1,1.9s6.2-0.6,9.1-1.9c0.7-0.3,1.4-0.7,2.1-1
					c0.7,0.4,1.4,0.7,2.1,1c2.9,1.2,5.9,1.9,9.1,1.9c3.1,0,6.2-0.6,9.1-1.9c2.8-1.2,5.2-2.9,7.4-5c2.1-2.1,3.9-4.6,5-7.4
					c1.2-2.9,1.9-5.9,1.9-9.1c0-1.5-0.1-2.9-0.4-4.3c0.2-0.2,0.3-0.3,0.5-0.5c2.1-2.1,3.9-4.6,5-7.4c1.2-2.9,1.9-5.9,1.9-9.1
					C107.8,59.3,107.2,56.2,106,53.4z M104.2,70.7c-1,2.4-2.5,4.6-4.2,6.4c-0.3-0.9-0.5-1.7-0.9-2.6c-1.2-2.8-2.9-5.2-5-7.4
					c-0.7-0.7-1.5-1.4-2.3-2c-0.2,0.6-0.5,1.2-0.9,1.7c0.7,0.5,1.3,1.1,1.8,1.6c2,2,3.5,4.2,4.6,6.8c0.5,1.1,0.8,2.2,1.1,3.3
					c-1.7,1.5-3.5,2.6-5.6,3.5c-2.3,1-4.8,1.5-7.4,1.7c0,0.7-0.1,1.3-0.3,1.9c2.9-0.1,5.8-0.7,8.4-1.8c1.9-0.8,3.7-1.8,5.2-3.1
					c0.1,0.9,0.2,1.9,0.2,2.9c0,2.9-0.6,5.7-1.7,8.4c-1.1,2.5-2.6,4.8-4.6,6.8s-4.2,3.5-6.8,4.6c-2.7,1.1-5.4,1.7-8.4,1.7
					s-5.7-0.6-8.4-1.7c-0.3-0.1-0.6-0.3-0.9-0.4c1.2-0.8,2.3-1.8,3.4-2.8c2.1-2.1,3.9-4.6,5-7.4c0.2-0.4,0.3-0.8,0.5-1.3
					c-0.7,0-1.3-0.1-1.9-0.3c-0.1,0.3-0.2,0.6-0.3,0.9c-1.1,2.5-2.6,4.8-4.6,6.8c-1.2,1.2-2.5,2.3-4,3.1c-1.5-0.9-2.8-1.9-4-3.1
					c-2-2-3.5-4.2-4.6-6.8c-0.1-0.3-0.2-0.5-0.3-0.9c-0.6,0.2-1.3,0.3-1.9,0.3c0.1,0.4,0.3,0.9,0.5,1.3c1.2,2.8,2.9,5.2,5,7.4
					c1.1,1.1,2.2,2,3.4,2.8c-0.3,0.1-0.6,0.3-0.9,0.4c-2.7,1.1-5.4,1.7-8.4,1.7s-5.7-0.6-8.4-1.7c-2.5-1.1-4.8-2.7-6.8-4.6
					c-2-2-3.5-4.2-4.6-6.8c-1.1-2.7-1.7-5.4-1.7-8.4c0-0.9,0.1-1.9,0.2-2.9c1.6,1.3,3.4,2.3,5.2,3.1c2.7,1.1,5.5,1.7,8.4,1.8
					c-0.2-0.6-0.3-1.3-0.3-1.9c-2.6-0.1-5-0.7-7.4-1.7c-2.1-0.9-3.9-2-5.6-3.5c0.3-1.1,0.7-2.3,1.1-3.3c1.1-2.5,2.6-4.8,4.6-6.8
					c0.6-0.6,1.2-1.1,1.8-1.6c-0.4-0.5-0.7-1.1-0.9-1.7c-0.8,0.6-1.5,1.3-2.3,2c-2.1,2.1-3.9,4.6-5,7.4c-0.3,0.9-0.7,1.7-0.9,2.6
					c-1.8-1.9-3.3-4-4.2-6.4c-1.1-2.7-1.7-5.4-1.7-8.4c0-2.9,0.6-5.7,1.7-8.4c1.1-2.5,2.6-4.8,4.6-6.8c2-2,4.2-3.5,6.8-4.6
					c1.5-0.7,3.1-1.1,4.6-1.4c-0.9,2.5-1.4,5.2-1.4,8c0,2.2,0.3,4.4,0.9,6.5c0.5-0.3,1.1-0.6,1.8-0.8c-0.5-1.9-0.7-3.7-0.7-5.6
					c0-2.9,0.5-5.6,1.7-8.2c0.5-0.1,1-0.1,1.5-0.1c2.9,0,5.7,0.6,8.4,1.7c1.2,0.5,2.4,1.1,3.5,1.9c0.2-0.3,0.5-0.6,0.7-0.9
					c0.2-0.2,0.4-0.4,0.6-0.5c-1.3-0.9-2.7-1.7-4.1-2.3c-2.9-1.2-5.9-1.9-9.1-1.9c-0.2,0-0.4,0-0.6,0c1-1.8,2.3-3.5,3.7-5
					c2-2,4.2-3.5,6.8-4.6c2.7-1.1,5.4-1.7,8.4-1.7c2.9,0,5.7,0.6,8.4,1.7c2.5,1.1,4.8,2.7,6.8,4.6c1.5,1.5,2.7,3.1,3.7,5
					c-0.3,0-0.6,0-0.9,0c-3.1,0-6.2,0.6-9.1,1.9c-1.5,0.6-2.8,1.4-4.1,2.3c0.2,0.2,0.4,0.3,0.6,0.5c0.3,0.3,0.5,0.5,0.7,0.9
					c1.1-0.7,2.3-1.4,3.5-1.9c2.7-1.1,5.4-1.7,8.4-1.7c0.6,0,1.3,0,1.9,0.1c1.1,2.6,1.6,5.4,1.6,8.2c0,2-0.3,3.9-0.8,5.8
					c0.6,0.2,1.2,0.5,1.7,0.9c0.7-2.1,1-4.4,1-6.6c0-2.7-0.5-5.4-1.4-7.9c1.5,0.3,2.9,0.7,4.3,1.3c2.5,1.1,4.8,2.7,6.8,4.6
					c2,2,3.5,4.2,4.6,6.8c1.1,2.7,1.7,5.4,1.7,8.4C105.9,65.3,105.4,68.1,104.2,70.7z"/>
			</g>
		</g>
	</g>
	<g>
		<g class="st6">
			<path class="st3" d="M157.5,42.8V27.6h2.5v13h6.4v2.1H157.5z"/>
			<path class="st3" d="M168.6,28.3c0-0.4,0.1-0.8,0.4-1c0.2-0.2,0.6-0.4,1-0.4c0.4,0,0.8,0.1,1,0.4c0.2,0.2,0.4,0.6,0.4,1
				c0,0.4-0.1,0.7-0.4,1c-0.2,0.2-0.6,0.4-1,0.4c-0.4,0-0.8-0.1-1-0.4C168.7,29,168.6,28.7,168.6,28.3z M171.2,42.8h-2.4V31.3h2.4
				V42.8z"/>
			<path class="st3" d="M182.3,39.5c0,1.1-0.4,2-1.2,2.6c-0.8,0.6-2,0.9-3.5,0.9c-1.5,0-2.8-0.2-3.7-0.7v-2.1
				c1.3,0.6,2.6,0.9,3.8,0.9c1.5,0,2.2-0.5,2.2-1.4c0-0.3-0.1-0.5-0.2-0.7c-0.2-0.2-0.4-0.4-0.8-0.6c-0.4-0.2-0.9-0.4-1.6-0.7
				c-1.3-0.5-2.2-1-2.7-1.5c-0.5-0.5-0.7-1.2-0.7-2c0-1,0.4-1.7,1.2-2.3c0.8-0.5,1.9-0.8,3.2-0.8c1.3,0,2.6,0.3,3.8,0.8l-0.8,1.8
				c-1.2-0.5-2.3-0.8-3.1-0.8c-1.3,0-1.9,0.4-1.9,1.1c0,0.4,0.2,0.7,0.5,0.9s1.1,0.6,2.2,1c0.9,0.4,1.6,0.7,2.1,1
				c0.4,0.3,0.7,0.7,1,1.1S182.3,38.9,182.3,39.5z"/>
			<path class="st3" d="M189.2,41c0.6,0,1.2-0.1,1.8-0.3v1.8c-0.3,0.1-0.6,0.2-1,0.3c-0.4,0.1-0.9,0.1-1.3,0.1
				c-2.3,0-3.5-1.2-3.5-3.6v-6.2h-1.6v-1.1l1.7-0.9l0.8-2.4h1.5v2.5h3.3v1.8h-3.3v6.1c0,0.6,0.1,1,0.4,1.3
				C188.4,40.9,188.7,41,189.2,41z"/>
			<path class="st3" d="M198.3,43c-1.8,0-3.2-0.5-4.2-1.6c-1-1-1.5-2.5-1.5-4.3c0-1.9,0.5-3.3,1.4-4.4s2.2-1.6,3.8-1.6
				c1.5,0,2.7,0.5,3.6,1.4c0.9,0.9,1.3,2.2,1.3,3.8v1.3h-7.6c0,1.1,0.3,2,0.9,2.6c0.6,0.6,1.4,0.9,2.4,0.9c0.7,0,1.3-0.1,1.9-0.2
				c0.6-0.1,1.2-0.3,1.9-0.6v2c-0.6,0.3-1.2,0.5-1.8,0.6C199.8,42.9,199.1,43,198.3,43z M197.8,32.9c-0.8,0-1.4,0.2-1.9,0.7
				c-0.5,0.5-0.7,1.2-0.8,2.1h5.2c0-0.9-0.2-1.7-0.7-2.1C199.2,33.2,198.6,32.9,197.8,32.9z"/>
			<path class="st3" d="M209.4,43c-1.4,0-2.5-0.5-3.3-1.6c-0.8-1-1.2-2.5-1.2-4.4c0-1.9,0.4-3.3,1.2-4.4c0.8-1,1.9-1.6,3.4-1.6
				c1.5,0,2.7,0.6,3.4,1.7h0.1c-0.1-0.8-0.2-1.5-0.2-1.9v-4.2h2.4v16.1h-1.9l-0.4-1.5h-0.1C212,42.4,210.9,43,209.4,43z M210,41
				c1,0,1.7-0.3,2.2-0.8c0.5-0.6,0.7-1.5,0.7-2.7v-0.3c0-1.4-0.2-2.5-0.7-3.1c-0.5-0.6-1.2-0.9-2.2-0.9c-0.9,0-1.5,0.3-2,1
				c-0.5,0.7-0.7,1.7-0.7,3c0,1.3,0.2,2.2,0.7,2.9C208.4,40.7,209.1,41,210,41z"/>
			<path class="st3" d="M234.4,37c0,1.9-0.5,3.3-1.4,4.4c-1,1-2.3,1.6-4,1.6c-1.1,0-2-0.2-2.8-0.7c-0.8-0.5-1.5-1.2-1.9-2.1
				c-0.4-0.9-0.7-2-0.7-3.1c0-1.9,0.5-3.3,1.4-4.3c1-1,2.3-1.6,4-1.6c1.7,0,3,0.5,3.9,1.6C233.9,33.8,234.4,35.2,234.4,37z M226,37
				c0,2.6,1,4,2.9,4c1.9,0,2.9-1.3,2.9-4c0-2.6-1-3.9-2.9-3.9c-1,0-1.8,0.3-2.2,1C226.3,34.8,226,35.7,226,37z"/>
			<path class="st3" d="M247.2,42.8h-2.4v-7c0-0.9-0.2-1.5-0.5-2c-0.4-0.4-0.9-0.7-1.7-0.7c-1,0-1.8,0.3-2.3,0.9s-0.7,1.6-0.7,3.1
				v5.7h-2.4V31.3h1.9l0.3,1.5h0.1c0.3-0.5,0.8-1,1.5-1.3c0.6-0.3,1.3-0.4,2.1-0.4c2.7,0,4.1,1.4,4.1,4.2V42.8z"/>
		</g>
		<g>
			<path class="st7" d="M154.7,66.8h8.2v-8.3h-8.2V66.8z"/>
			<path class="st7" d="M179,58.5h-10.3v14.2h9.9c5.4,0,9.7,4.3,9.7,9.7c0,5.4-4.3,9.7-9.7,9.7h-9.9V72.7h-14v33.7H179
				c12.9-0.5,23-11.1,22.9-24C202,69.6,191.8,58.9,179,58.5"/>
			<path class="st3" d="M218.5,71.5v17.1h5.9c2.7,0.2,5.2-1.3,6.3-3.8c0.7-1.6,1-3.3,1-5c0.1-2.1-0.4-4.3-1.5-6.1
				c-1-1.5-3-2.1-5.9-2.1L218.5,71.5z M230.2,67.6c2.1,0.5,3.9,1.7,5.2,3.3c1,1.2,1.8,2.7,2.2,4.2c0.4,1.4,0.6,2.9,0.6,4.3
				c0.1,3.1-0.8,6.2-2.5,8.8c-2.2,3.2-5.6,4.9-10.3,4.9h-13.3V67h13.2C227.1,67,228.7,67.2,230.2,67.6z"/>
			<path class="st3" d="M242.6,93.1h6V73.8h-6V93.1z M242.6,71.5h6v-4.6h-6V71.5z"/>
			<path class="st3" d="M267.6,87.6c1.1-1.1,1.6-2.7,1.5-4.3c0.1-1.5-0.4-3-1.4-4.2c-0.9-1-2.3-1.5-3.6-1.5
				c-1.8-0.2-3.5,0.8-4.3,2.5c-0.5,1-0.7,2.2-0.6,3.3c0,1,0.2,2.1,0.7,3c0.8,1.6,2.5,2.6,4.3,2.5C265.4,88.9,266.7,88.5,267.6,87.6
				 M265.7,73.7c1.4,0.5,2.6,1.5,3.5,2.9v-2.8h5.8v18.4c0.1,2-0.4,4-1.5,5.6c-1.7,2.2-4.9,3.3-9.7,3.3c-2.5,0.1-4.9-0.4-7.1-1.5
				c-1.7-0.8-2.8-2.5-3-4.3h6.5c0.1,0.5,0.4,1,0.8,1.3c1,0.5,2.1,0.8,3.2,0.7c1.6,0.2,3.3-0.5,4.3-1.8c0.5-1.2,0.8-2.6,0.6-3.9v-1.2
				c-0.5,0.7-1.1,1.4-1.8,1.9c-1.4,0.8-3,1.2-4.6,1.2c-2.6,0.1-5.1-0.8-7-2.6c-1.8-1.9-2.7-4.5-2.6-7.1c-0.1-2.6,0.8-5.2,2.5-7.2
				c1.8-2,4.4-3.1,7.1-3C263.7,73.3,264.7,73.5,265.7,73.7"/>
			<path class="st3" d="M280.5,93.1h6V73.8h-6V93.1z M280.5,71.5h6v-4.6h-6V71.5z"/>
			<path class="st3" d="M292.7,67h21.8v4.6h-15.5v6h13.6v4.6h-13.6v11h-6.3V67z"/>
			<path class="st3" d="M318.3,93.1h6V73.8h-6V93.1z M318.3,71.5h6v-4.6h-6V71.5z"/>
			<path class="st3" d="M348.4,74.9c1.6,1.2,2.4,3.2,2.2,5.2v13h-6.1V81.4c0.1-0.8-0.1-1.6-0.5-2.3c-0.7-1.1-2-1.6-3.3-1.5
				c-1.7-0.2-3.3,0.7-4.1,2.2c-0.4,0.9-0.6,2-0.6,3v10.5h-6V73.8h5.8v2.8c0.6-0.8,1.3-1.5,2.2-2.1c1.4-0.8,3-1.2,4.6-1.2
				c2-0.1,4,0.4,5.7,1.5"/>
			<path class="st3" d="M362,78.5c-0.9,0.8-1.4,1.8-1.6,3h10.2c-0.1-1.2-0.6-2.3-1.6-3c-1-0.7-2.3-1.1-3.5-1.1
				C364.3,77.4,363,77.8,362,78.5 M370.9,74.3c1.5,0.6,2.9,1.5,3.9,2.8c0.9,1.2,1.6,2.5,1.8,4c0.2,1.3,0.2,2.5,0.2,3.8h-16.5
				c-0.1,1.7,0.9,3.3,2.4,4.1c1,0.5,2.1,0.8,3.3,0.7c1.2,0.1,2.3-0.3,3.3-0.9c0.5-0.4,0.9-0.8,1.2-1.3h6.1c-0.3,1.4-1.1,2.6-2.2,3.5
				c-2.4,2-5.4,3-8.5,2.8c-2.8,0.1-5.6-0.8-8-2.4c-2.3-1.6-3.5-4.2-3.5-7.7c-0.2-2.9,1-5.8,3.1-7.7c2.3-1.9,5.2-2.8,8.1-2.7
				C367.4,73.3,369.2,73.6,370.9,74.3"/>
			<path class="st3" d="M377.5,93.1l7.7-9.8l-7.4-9.5h7.3l3.8,5.6l3.7-5.6h7l-7.4,9.4l7.7,9.9h-7.4l-3.9-5.8l-3.9,5.8H377.5z"/>
		</g>
	</g>
</g>
</svg>
