
<svg version="1.1" id="Layer_1" xmlns="http://www.w3.org/2000/svg" xmlns:xlink="http://www.w3.org/1999/xlink" x="0px" y="0px"
	 viewBox="0 0 598 80" style="enable-background:new 0 0 598 80;" xml:space="preserve">
<style type="text/css">
	.st0{fill:url(#SVGID_1_);}
	.st1{fill:url(#SVGID_2_);}
	.st2{enable-background:new    ;}
	.st3{fill:#FFFFFF;}
	.st4{fill:#491E8C;}
	.st5{opacity:0.4;fill:#491E8C;enable-background:new    ;}
	.st6{opacity:0.85;}
	.st7{fill:#1141F3;}
	.st8{opacity:0.85;fill:#FFFFFF;}
</style>
<g>
	<g>
		<g>

				<linearGradient id="SVGID_1_" gradientUnits="userSpaceOnUse" x1="0.2678" y1="-30" x2="80.2678" y2="-30" gradientTransform="matrix(1 0 0 -1 0 10)">
				<stop  offset="0" style="stop-color:#9452FF"/>
				<stop  offset="1" style="stop-color:#491E8C"/>
			</linearGradient>
			<circle class="st0" cx="40.3" cy="40" r="40"/>
			<g>

					<linearGradient id="SVGID_2_" gradientUnits="userSpaceOnUse" x1="74.6096" y1="-46.0138" x2="5.926" y2="-13.9862" gradientTransform="matrix(1 0 0 -1 0 10)">
					<stop  offset="0" style="stop-color:#251440"/>
					<stop  offset="1" style="stop-color:#491E8C"/>
				</linearGradient>
				<path class="st1" d="M40.3,7.8c4.4,0,8.6,0.8,12.5,2.5c3.8,1.6,7.3,4,10.2,6.9s5.3,6.4,6.9,10.2c1.7,4,2.5,8.2,2.5,12.6
					s-0.8,8.6-2.5,12.6c-1.6,3.8-4,7.3-6.9,10.2c-3,3-6.4,5.3-10.2,6.9c-4,1.7-8.2,2.5-12.5,2.5s-8.6-0.8-12.5-2.5
					c-3.8-1.6-7.3-4-10.2-6.9c-3-3-5.3-6.4-6.9-10.2c-1.7-4-2.5-8.2-2.5-12.6s0.8-8.6,2.5-12.6c1.6-3.8,4-7.3,6.9-10.2
					c3-3,6.4-5.3,10.2-6.9C31.7,8.6,35.9,7.8,40.3,7.8 M40.3,2.1C19.3,2.1,2.4,19.1,2.4,40s17,37.9,37.9,37.9s37.9-17,37.9-37.9
					S61.2,2.1,40.3,2.1L40.3,2.1z"/>
				<g class="st2">
					<ellipse class="st3" cx="40.3" cy="40" rx="32.2" ry="32.2"/>
				</g>
				<g id="Brandmark_1_">
					<ellipse id="Core-1_1_" class="st4" cx="40.3" cy="29.6" rx="3.7" ry="3.7"/>
					<ellipse id="Core-2_1_" class="st4" cx="29.3" cy="37.5" rx="3.7" ry="3.7"/>
					<ellipse id="Core-3_1_" class="st4" cx="51.2" cy="37.5" rx="3.7" ry="3.7"/>
					<ellipse id="Core-4_1_" class="st4" cx="33.5" cy="50.4" rx="3.7" ry="3.7"/>
					<ellipse id="Core-5_1_" class="st4" cx="47" cy="50.4" rx="3.7" ry="3.7"/>
					<path id="Center_1_" class="st5" d="M42.3,50.4c0-1.3,0.5-2.4,1.4-3.4c0.9-0.9,2.1-1.4,3.4-1.4c1.2,0,2.3,0.4,3.2,1.2
						c0.8-1.4,1.3-3,1.5-4.6c-0.2,0-0.3,0-0.5,0c-1.3,0-2.4-0.5-3.4-1.4c-0.9-0.9-1.4-2.1-1.4-3.4s0.5-2.4,1.4-3.4
						c0.3-0.3,0.6-0.6,1-0.8c-1.1-1.2-2.4-2.2-3.9-2.8c-0.2,0.9-0.6,1.7-1.3,2.4c-0.9,0.9-2.1,1.4-3.4,1.4c-1.3,0-2.4-0.5-3.4-1.4
						c-0.6-0.6-1.1-1.5-1.3-2.4c-1.5,0.7-2.8,1.6-3.9,2.8c0.4,0.2,0.7,0.4,1,0.8c0.9,0.9,1.4,2.1,1.4,3.4s-0.5,2.4-1.4,3.4
						c-0.9,0.9-2.1,1.4-3.4,1.4c-0.2,0-0.3,0-0.5,0c0.2,1.7,0.7,3.2,1.5,4.6c0.9-0.8,2-1.2,3.2-1.2c1.3,0,2.4,0.5,3.4,1.4
						c0.9,0.9,1.4,2.1,1.4,3.4c0,0.7-0.2,1.3-0.4,1.9c0.8,0.2,1.6,0.2,2.4,0.2c0.8,0,1.6-0.1,2.4-0.2C42.4,51.7,42.3,51,42.3,50.4z"
						/>
					<path id="Circles_1_" class="st5" d="M64.1,32.1c-0.7-1.7-1.7-3.2-3-4.5c-1.3-1.3-2.8-2.3-4.5-3c-1.2-0.5-2.4-0.8-3.6-1
						c-0.7-1.5-1.6-2.8-2.8-3.9c-1.3-1.3-2.8-2.3-4.5-3c-1.7-0.7-3.6-1.1-5.5-1.1c-1.9,0-3.7,0.4-5.5,1.1c-1.7,0.7-3.2,1.7-4.5,3
						c-1.2,1.2-2.1,2.4-2.8,3.9c-1.3,0.2-2.6,0.5-3.8,1c-1.7,0.7-3.2,1.7-4.5,3c-1.3,1.3-2.3,2.8-3,4.5c-0.7,1.7-1.1,3.6-1.1,5.5
						c0,1.9,0.4,3.8,1.1,5.5c0.7,1.7,1.7,3.2,3,4.5c0.1,0.1,0.2,0.2,0.3,0.3c-0.2,0.8-0.2,1.7-0.2,2.6c0,1.9,0.4,3.8,1.1,5.5
						c0.7,1.7,1.7,3.2,3,4.5c1.3,1.3,2.8,2.3,4.5,3c1.7,0.7,3.6,1.1,5.5,1.1s3.7-0.4,5.5-1.1c0.4-0.2,0.8-0.4,1.3-0.6
						c0.4,0.2,0.8,0.4,1.3,0.6c1.7,0.7,3.6,1.1,5.5,1.1c1.9,0,3.7-0.4,5.5-1.1c1.7-0.7,3.2-1.7,4.5-3c1.3-1.3,2.3-2.8,3-4.5
						c0.7-1.7,1.1-3.6,1.1-5.5c0-0.9-0.1-1.8-0.2-2.6c0.1-0.1,0.2-0.2,0.3-0.3c1.3-1.3,2.3-2.8,3-4.5c0.7-1.7,1.1-3.6,1.1-5.5
						C65.2,35.6,64.9,33.8,64.1,32.1z M63.1,42.6c-0.6,1.4-1.5,2.8-2.6,3.9c-0.2-0.5-0.3-1-0.6-1.6c-0.7-1.7-1.7-3.2-3-4.5
						c-0.4-0.4-0.9-0.8-1.4-1.2c-0.1,0.4-0.3,0.7-0.6,1c0.4,0.3,0.8,0.6,1.1,1c1.2,1.2,2.1,2.6,2.8,4.1c0.3,0.6,0.5,1.3,0.7,2
						c-1,0.9-2.1,1.6-3.4,2.1c-1.4,0.6-2.9,0.9-4.5,1c0,0.4,0,0.8-0.2,1.2c1.8,0,3.5-0.4,5.1-1.1c1.1-0.5,2.2-1.1,3.2-1.8
						c0.1,0.6,0.1,1.2,0.1,1.7c0,1.8-0.4,3.4-1,5c-0.6,1.5-1.6,2.9-2.8,4.1c-1.2,1.2-2.6,2.1-4.1,2.8c-1.6,0.7-3.3,1-5,1
						s-3.4-0.4-5-1c-0.2-0.1-0.4-0.2-0.6-0.2c0.7-0.5,1.4-1.1,2-1.7c1.3-1.3,2.3-2.8,3-4.5c0.1-0.2,0.2-0.5,0.3-0.8
						c-0.4,0-0.8-0.1-1.2-0.2c-0.1,0.2-0.1,0.4-0.2,0.5c-0.6,1.5-1.6,2.9-2.8,4.1c-0.7,0.7-1.5,1.4-2.4,1.9
						c-0.9-0.5-1.7-1.2-2.4-1.9c-1.2-1.2-2.1-2.6-2.8-4.1c-0.1-0.2-0.1-0.3-0.2-0.5c-0.4,0.1-0.8,0.2-1.2,0.2
						c0.1,0.2,0.2,0.5,0.3,0.8c0.7,1.7,1.7,3.2,3,4.5c0.6,0.6,1.3,1.2,2,1.7c-0.2,0.1-0.4,0.2-0.6,0.2c-1.6,0.7-3.3,1-5,1
						s-3.4-0.4-5-1c-1.5-0.6-2.9-1.6-4.1-2.8c-1.2-1.2-2.1-2.6-2.8-4.1c-0.7-1.6-1-3.3-1-5c0-0.6,0-1.2,0.1-1.7c1,0.8,2,1.4,3.2,1.8
						c1.6,0.7,3.3,1,5.1,1.1c-0.1-0.4-0.2-0.8-0.2-1.2c-1.6-0.1-3-0.4-4.5-1c-1.2-0.5-2.4-1.2-3.4-2.1c0.2-0.7,0.4-1.4,0.7-2
						c0.6-1.5,1.6-2.9,2.8-4.1c0.4-0.4,0.7-0.7,1.1-1c-0.2-0.3-0.4-0.7-0.6-1c-0.5,0.4-0.9,0.8-1.4,1.2c-1.3,1.3-2.3,2.8-3,4.5
						c-0.2,0.5-0.4,1-0.6,1.6c-1.1-1.1-2-2.4-2.6-3.9c-0.7-1.6-1-3.3-1-5c0-1.8,0.4-3.4,1-5c0.6-1.5,1.6-2.9,2.8-4.1
						c1.2-1.2,2.6-2.1,4.1-2.8c0.9-0.4,1.8-0.6,2.8-0.8c-0.6,1.5-0.8,3.2-0.8,4.8c0,1.3,0.2,2.6,0.6,3.9c0.3-0.2,0.7-0.4,1.1-0.5
						c-0.3-1.1-0.4-2.2-0.4-3.4c0-1.7,0.3-3.4,1-5c0.3,0,0.6,0,0.9,0c1.8,0,3.4,0.4,5,1c0.7,0.3,1.4,0.7,2.1,1.1
						c0.1-0.2,0.3-0.4,0.4-0.5c0.1-0.1,0.2-0.2,0.4-0.3c-0.8-0.5-1.6-1-2.5-1.4c-1.7-0.7-3.6-1.1-5.5-1.1c-0.1,0-0.2,0-0.4,0
						c0.6-1.1,1.4-2.1,2.2-3c1.2-1.2,2.6-2.1,4.1-2.8c1.6-0.7,3.3-1,5-1c1.8,0,3.4,0.4,5,1c1.5,0.6,2.9,1.6,4.1,2.8
						c0.9,0.9,1.6,1.9,2.2,3c-0.2,0-0.4,0-0.6,0c-1.9,0-3.7,0.4-5.5,1.1c-0.9,0.4-1.7,0.8-2.5,1.4c0.1,0.1,0.2,0.2,0.4,0.3
						c0.2,0.2,0.3,0.3,0.4,0.5c0.7-0.4,1.4-0.8,2.1-1.1c1.6-0.7,3.3-1,5-1c0.4,0,0.8,0,1.1,0c0.6,1.6,1,3.2,1,4.9
						c0,1.2-0.2,2.4-0.5,3.5c0.4,0.1,0.7,0.3,1,0.6c0.4-1.3,0.6-2.6,0.6-4c0-1.6-0.3-3.2-0.8-4.8c0.9,0.2,1.8,0.4,2.6,0.8
						c1.5,0.6,2.9,1.6,4.1,2.8c1.2,1.2,2.1,2.6,2.8,4.1c0.7,1.6,1,3.3,1,5C64.1,39.3,63.7,41,63.1,42.6z"/>
				</g>
			</g>
		</g>
	</g>
	<g>
		<g class="st6">
			<path class="st3" d="M123.6,57.1V24.6h5.3v27.9h13.7v4.6H123.6z"/>
			<path class="st3" d="M147.4,26c0-0.9,0.3-1.7,0.8-2.2s1.2-0.8,2.2-0.8c0.9,0,1.6,0.3,2.1,0.8s0.8,1.2,0.8,2.2
				c0,0.9-0.3,1.6-0.8,2.1c-0.5,0.5-1.2,0.8-2.1,0.8c-0.9,0-1.7-0.3-2.2-0.8C147.6,27.6,147.4,26.9,147.4,26z M152.9,57.1h-5.2V32.5
				h5.2V57.1z"/>
			<path class="st3" d="M176.9,50.1c0,2.4-0.9,4.2-2.6,5.5c-1.7,1.3-4.2,1.9-7.5,1.9c-3.3,0-5.9-0.5-7.9-1.5v-4.5
				c2.9,1.3,5.6,2,8.1,2c3.2,0,4.8-1,4.8-2.9c0-0.6-0.2-1.1-0.5-1.6c-0.4-0.4-0.9-0.8-1.8-1.3c-0.8-0.4-1.9-0.9-3.4-1.5
				c-2.8-1.1-4.7-2.2-5.7-3.3c-1-1.1-1.5-2.5-1.5-4.3c0-2.1,0.8-3.7,2.5-4.9c1.7-1.2,4-1.7,6.9-1.7c2.9,0,5.6,0.6,8.2,1.8l-1.7,3.9
				c-2.7-1.1-4.9-1.6-6.7-1.6c-2.8,0-4.1,0.8-4.1,2.4c0,0.8,0.4,1.4,1.1,2s2.3,1.3,4.7,2.2c2,0.8,3.5,1.5,4.4,2.2
				c0.9,0.7,1.6,1.4,2,2.3C176.7,47.9,176.9,48.9,176.9,50.1z"/>
			<path class="st3" d="M191.7,53.3c1.3,0,2.5-0.2,3.8-0.6v3.9c-0.6,0.3-1.3,0.5-2.2,0.6c-0.9,0.2-1.9,0.3-2.8,0.3
				c-4.9,0-7.4-2.6-7.4-7.8V36.4h-3.4v-2.3l3.6-1.9L185,27h3.2v5.5h7v4h-7v13.1c0,1.3,0.3,2.2,0.9,2.8
				C189.8,53,190.6,53.3,191.7,53.3z"/>
			<path class="st3" d="M211.1,57.5c-3.8,0-6.8-1.1-9-3.3c-2.2-2.2-3.2-5.3-3.2-9.2c0-4,1-7.2,3-9.5c2-2.3,4.7-3.4,8.2-3.4
				c3.2,0,5.8,1,7.7,3c1.9,2,2.8,4.7,2.8,8.1V46h-16.4c0.1,2.4,0.7,4.2,1.9,5.5c1.2,1.3,2.9,1.9,5.1,1.9c1.5,0,2.8-0.1,4.1-0.4
				s2.6-0.7,4-1.4v4.2c-1.3,0.6-2.6,1-3.9,1.3C214.3,57.4,212.8,57.5,211.1,57.5z M210.2,36c-1.7,0-3,0.5-4,1.6
				c-1,1.1-1.6,2.6-1.8,4.6h11.1c0-2-0.5-3.6-1.5-4.6C213.1,36.5,211.8,36,210.2,36z"/>
			<path class="st3" d="M234.9,57.5c-3.1,0-5.5-1.1-7.2-3.3c-1.7-2.2-2.6-5.3-2.6-9.3c0-4,0.9-7.2,2.6-9.4c1.7-2.2,4.1-3.4,7.2-3.4
				c3.2,0,5.7,1.2,7.4,3.6h0.3c-0.3-1.8-0.4-3.2-0.4-4.2v-8.9h5.2v34.6h-4.1l-0.9-3.2h-0.2C240.6,56.3,238.1,57.5,234.9,57.5z
				 M236.3,53.3c2.1,0,3.7-0.6,4.7-1.8c1-1.2,1.5-3.2,1.5-5.9v-0.7c0-3.1-0.5-5.3-1.5-6.6c-1-1.3-2.6-2-4.7-2
				c-1.8,0-3.2,0.7-4.2,2.2c-1,1.5-1.5,3.6-1.5,6.4c0,2.7,0.5,4.8,1.4,6.2S234.4,53.3,236.3,53.3z"/>
			<path class="st3" d="M288.5,44.7c0,4-1,7.1-3.1,9.4s-4.9,3.4-8.6,3.4c-2.3,0-4.3-0.5-6.1-1.6c-1.8-1-3.1-2.5-4.1-4.5
				c-0.9-1.9-1.4-4.2-1.4-6.8c0-4,1-7.1,3.1-9.3c2-2.2,4.9-3.4,8.6-3.4c3.6,0,6.4,1.1,8.4,3.4C287.5,37.8,288.5,40.9,288.5,44.7z
				 M270.7,44.7c0,5.7,2.1,8.5,6.3,8.5c4.1,0,6.2-2.8,6.2-8.5c0-5.6-2.1-8.4-6.3-8.4c-2.2,0-3.8,0.7-4.8,2.2
				C271.2,39.9,270.7,42,270.7,44.7z"/>
			<path class="st3" d="M316.1,57.1h-5.2V42c0-1.9-0.4-3.3-1.1-4.2c-0.8-0.9-2-1.4-3.6-1.4c-2.2,0-3.8,0.7-4.8,2
				c-1,1.3-1.5,3.5-1.5,6.6v12.2h-5.2V32.5h4.1l0.7,3.2h0.3c0.7-1.2,1.8-2.1,3.2-2.7c1.4-0.6,2.9-1,4.5-1c5.9,0,8.8,3,8.8,9V57.1z"
				/>
		</g>
		<g>
			<g>
				<path class="st7" d="M341.7,23.7h8.6V15h-8.6V23.7z"/>
				<path class="st7" d="M367.1,15h-10.7v14.9h10.3c5.6,0,10.1,4.5,10.1,10.1s-4.5,10.1-10.1,10.1h-10.3V29.9h-14.6V65h25.3
					c13.4-0.5,24-11.6,23.9-25C391.1,26.6,380.5,15.5,367.1,15"/>
				<path class="st3" d="M408.3,28.6v17.8h6.2c2.8,0.2,5.5-1.4,6.6-4c0.7-1.6,1.1-3.4,1-5.2c0.1-2.2-0.4-4.5-1.6-6.4
					c-1-1.6-3.1-2.2-6.1-2.2L408.3,28.6z M420.5,24.5c2.1,0.6,4.1,1.8,5.5,3.5c1.1,1.3,1.9,2.8,2.3,4.4c0.4,1.5,0.6,3,0.6,4.5
					c0.1,3.3-0.8,6.5-2.6,9.2c-2.3,3.4-5.9,5.1-10.7,5.1h-13.9V23.9h13.8C417.2,23.9,418.9,24.1,420.5,24.5z"/>
				<path class="st3" d="M433.5,51.2h6.3V31h-6.3V51.2z M433.5,28.6h6.3v-4.8h-6.3V28.6z"/>
				<path class="st3" d="M459.5,45.4c1.1-1.2,1.7-2.8,1.6-4.5c0.1-1.6-0.4-3.2-1.4-4.4c-1-1-2.4-1.6-3.8-1.6
					c-1.9-0.2-3.7,0.9-4.5,2.6c-0.5,1.1-0.7,2.3-0.6,3.4c0,1.1,0.2,2.1,0.7,3.1c0.8,1.7,2.6,2.7,4.5,2.6
					C457.3,46.8,458.6,46.3,459.5,45.4 M457.5,30.9c1.5,0.6,2.8,1.6,3.6,3V31h6v19.2c0.1,2.1-0.4,4.1-1.6,5.9
					c-1.8,2.3-5.2,3.4-10.1,3.4c-2.6,0.1-5.1-0.5-7.4-1.6c-1.8-0.8-3-2.6-3.1-4.5h6.7c0.1,0.5,0.4,1,0.8,1.3c1,0.6,2.2,0.8,3.4,0.7
					c1.7,0.3,3.4-0.5,4.5-1.9c0.6-1.3,0.8-2.7,0.7-4.1v-1.2c-0.5,0.8-1.2,1.4-1.9,1.9c-1.4,0.8-3.1,1.3-4.8,1.2
					c-2.7,0.1-5.4-0.9-7.3-2.7c-1.9-2-2.8-4.7-2.7-7.4c-0.1-2.8,0.8-5.5,2.6-7.6c1.9-2.1,4.6-3.3,7.4-3.1
					C455.5,30.5,456.5,30.7,457.5,30.9"/>
				<path class="st3" d="M473,51.2h6.3V31H473V51.2z M473,28.6h6.3v-4.8H473V28.6z"/>
				<path class="st3" d="M485.8,23.9h22.8v4.8h-16.2V35h14.2v4.8h-14.2v11.4h-6.6V23.9z"/>
				<path class="st3" d="M512.5,51.2h6.3V31h-6.3V51.2z M512.5,28.6h6.3v-4.8h-6.3V28.6z"/>
				<path class="st3" d="M543.8,32.2c1.6,1.3,2.5,3.4,2.3,5.4v13.6h-6.3V38.9c0.1-0.8-0.1-1.7-0.5-2.4c-0.8-1.1-2.1-1.7-3.4-1.6
					c-1.7-0.2-3.5,0.7-4.3,2.3c-0.5,1-0.6,2.1-0.6,3.1v10.9h-6.3V31h6V34c0.6-0.9,1.4-1.6,2.3-2.2c1.5-0.9,3.1-1.3,4.8-1.2
					c2.1-0.1,4.2,0.5,5.9,1.6"/>
				<path class="st3" d="M558.1,36c-0.9,0.8-1.5,1.9-1.6,3.1h10.7c-0.1-1.2-0.6-2.4-1.6-3.1c-1.1-0.8-2.4-1.1-3.7-1.1
					C560.5,34.8,559.1,35.2,558.1,36 M567.3,31.5c1.6,0.6,3,1.6,4.1,2.9c1,1.2,1.6,2.6,1.9,4.2c0.2,1.3,0.3,2.6,0.2,4h-17.2
					c-0.1,1.8,0.9,3.4,2.5,4.3c1,0.5,2.2,0.8,3.4,0.8c1.2,0.1,2.4-0.3,3.4-0.9c0.5-0.4,1-0.8,1.3-1.4h6.3c-0.3,1.4-1.1,2.7-2.3,3.6
					c-2.5,2.1-5.7,3.2-8.9,3c-3,0.1-5.9-0.8-8.3-2.5c-2.4-1.7-3.6-4.3-3.6-8.1c-0.2-3,1-6,3.2-8c2.4-1.9,5.4-2.9,8.5-2.8
					C563.7,30.5,565.6,30.8,567.3,31.5"/>
				<path class="st3" d="M574.3,51.2l8.1-10.2l-7.7-9.9h7.6l3.9,5.8L590,31h7.4l-7.8,9.8l8.1,10.3H590l-4.1-6.1l-4.1,6.1H574.3z"/>
			</g>
		</g>
	</g>
	<rect x="101.4" class="st8" width="1" height="80"/>
</g>
</svg>
