<svg xmlns="http://www.w3.org/2000/svg" xmlns:xlink="http://www.w3.org/1999/xlink" id="Layer_1" x="0" y="0" enable-background="new 0 0 50 50" version="1.1" viewBox="0 0 50 50" xml:space="preserve"><style type="text/css">.st0{fill:#edddfd}.st1{fill:none;stroke:#8350db;stroke-width:2;stroke-linecap:round;stroke-linejoin:round;stroke-miterlimit:10}</style><g><g><path d="M25,2c12.7,0,23,10.3,23,23S37.7,48,25,48S2,37.7,2,25S12.3,2,25,2 M25,0C11.2,0,0,11.2,0,25s11.2,25,25,25 s25-11.2,25-25S38.8,0,25,0L25,0z" class="st0"/></g><path d="M25,49C11.8,49,1,38.2,1,25S11.8,1,25,1c10.4,0,19.2,6.6,22.5,15.8" class="st1"/></g></svg>