<?xml version="1.0" encoding="utf-8"?>
<!-- Generator: Adobe Illustrator 21.0.0, SVG Export Plug-In . SVG Version: 6.00 Build 0)  -->
<svg version="1.1" id="Layer_1" xmlns="http://www.w3.org/2000/svg" xmlns:xlink="http://www.w3.org/1999/xlink" x="0px" y="0px"
	 viewBox="0 0 558 463" style="enable-background:new 0 0 558 463;" xml:space="preserve">
<style type="text/css">
	.st0{opacity:0.2;fill:#491E8C;enable-background:new    ;}
	.st1{fill:#1D073F;}
	.st2{opacity:0.45;fill:#251440;}
	.st3{fill:#491E8C;}
	.st4{display:none;}
	.st5{display:inline;fill:none;stroke:#FFA744;stroke-width:0.4697;stroke-miterlimit:10;}
	.st6{opacity:0.8;fill:#9452FF;enable-background:new    ;}
	.st7{fill:#5D28B2;}
	.st8{fill:#9452FF;}
	.st9{opacity:0.8;fill:#513FE8;enable-background:new    ;}
	.st10{fill:#281B9B;}
	.st11{fill:#513FE8;}
	.st12{opacity:0.8;fill:#AE3FE8;enable-background:new    ;}
	.st13{fill:#6F1B9B;}
	.st14{fill:#AE3FE8;}
	.st15{fill:#FFFFFF;}
	.st16{opacity:0.4;fill:#FFFFFF;enable-background:new    ;}
	.st17{display:none;opacity:0.2;fill:#491E8C;enable-background:new    ;}
</style>
<g>
	<polygon class="st0" points="264.1,138 0.4,298.7 0.4,160 264.1,0.1 	"/>
	<polygon class="st0" points="264.1,138 557.6,261.8 557.6,123.5 264.1,0.1 	"/>
	<polygon class="st1" points="0.4,297.1 0.4,315.3 18.2,304.6 	"/>
	<polygon class="st1" points="557.6,260.6 557.6,278.8 539.8,271.4 	"/>
	<g>
		<polygon class="st2" points="293.9,462.9 0.4,339.6 264.1,179.8 557.6,303.1 		"/>
		<polygon class="st1" points="293.9,438.7 0.4,315.3 264.1,155.5 557.6,278.8 		"/>
		<polygon class="st3" points="293.9,420.5 0.4,297.1 264.1,137.3 557.6,260.6 		"/>
		<g class="st4">
			<polygon class="st5" points="364.2,226.8 272.3,213.9 184.3,238.8 151.6,287.4 193.5,330.5 286.2,343.4 374.6,318.5 406.7,270.4 
							"/>
			<polygon class="st5" points="328.1,234.5 255.1,232 196.4,257 185.7,294.6 229.8,323.1 303.3,325.6 362.1,300.6 372.7,263.1 			
				"/>
			<polygon class="st5" points="288.8,244 238,252.8 211.8,276.4 224.6,301.8 269.9,313.7 320,304.9 346.4,281.1 333.6,255.9 			"/>
			<path class="st5" d="M128.3,257.4l6.6,62.2l91.1,38.3l122.1-8l82-49.7l-6.5-62.1l-91-38.2l-121.7,8
				C210.8,207.8,128.3,257.9,128.3,257.4z"/>
			<polyline class="st5" points="272.3,213.9 288.8,244 332.4,199.8 			"/>
			<polyline class="st5" points="348,349.9 320,304.9 374.6,318.5 			"/>
			<polyline class="st5" points="430,300.2 346.4,281.1 406.7,270.4 			"/>
			<polyline class="st5" points="286.2,343.4 269.9,313.7 225.9,357.9 			"/>
			<polyline class="st5" points="134.8,319.6 224.6,301.8 193.5,330.5 			"/>
			<polyline class="st5" points="151.6,287.4 211.8,276.4 128.3,257.4 			"/>
			<polyline class="st5" points="210.8,207.8 238,252.8 184.3,238.8 			"/>
			<polyline class="st5" points="364.2,226.8 333.6,255.9 423.5,238 			"/>
			<polygon class="st5" points="211.8,276.4 196.4,257 238,252.8 255.1,232 288.8,244 328.1,234.5 333.6,255.9 372.7,263.1 
				346.4,281.1 362.1,300.6 320,304.9 303.3,325.6 269.9,313.7 229.8,323.1 224.6,301.8 185.7,294.6 			"/>
		</g>
		<g>
			<path class="st6" d="M338.7,190.3c10.3,1.5,15.7,7,12,12.4c-3.6,5.4-14.9,8.6-25.2,7.1c-10.3-1.5-15.7-7-12-12.4
				C317.1,192,328.4,188.8,338.7,190.3z"/>
			<path class="st7" d="M335,195.7c4.6,0.6,6.9,3.1,5.3,5.5c-1.6,2.4-6.6,3.8-11.2,3.2c-4.6-0.6-6.9-3.1-5.3-5.5
				C325.5,196.5,330.5,195.1,335,195.7z"/>
			<path class="st8" d="M335,192.9c4.6,0.6,6.9,3.1,5.3,5.5c-1.6,2.4-6.6,3.8-11.2,3.2c-4.6-0.6-6.9-3.1-5.3-5.5
				C325.5,193.7,330.5,192.3,335,192.9z"/>
			<path class="st9" d="M271.4,206.6c8.2-0.5,15.1,2.4,15.6,6.5c0.4,4.1-5.8,7.9-14,8.5s-15.1-2.4-15.6-6.5
				C257,210.9,263.2,207.1,271.4,206.6z"/>
			<path class="st10" d="M271.8,210.7c3.6-0.2,6.7,1.1,6.9,2.9c0.2,1.8-2.6,3.5-6.2,3.8s-6.7-1.1-6.9-2.9
				C265.4,212.7,268.2,211,271.8,210.7z"/>
			<path class="st11" d="M271.8,208.9c3.6-0.2,6.7,1.1,6.9,2.9c0.2,1.8-2.6,3.5-6.2,3.8s-6.7-1.1-6.9-2.9
				C265.4,210.8,268.2,209.1,271.8,208.9z"/>
			<path class="st12" d="M201.6,199.3c9.8-2.8,21.6-1.1,26.3,3.7c4.7,4.8,0.5,11-9.3,13.8c-9.8,2.8-21.6,1.1-26.3-3.7
				C187.6,208.2,191.8,202,201.6,199.3z"/>
			<path class="st13" d="M206.3,204.1c4.4-1.2,9.6-0.5,11.7,1.7c2.1,2.1,0.2,4.9-4.1,6.1s-9.6,0.5-11.7-1.7
				C200.1,208.1,202,205.4,206.3,204.1z"/>
			<path class="st14" d="M206.3,201.4c4.4-1.2,9.6-0.5,11.7,1.7s0.2,4.9-4.1,6.1s-9.6,0.5-11.7-1.7
				C200.1,205.3,202,202.6,206.3,201.4z"/>
			<path class="st6" d="M193.9,233c6.1,2.6,6.6,7.3,1.1,10.6s-14.8,3.9-20.9,1.4c-6.1-2.6-6.6-7.3-1.1-10.6
				C178.4,231,187.8,230.4,193.9,233z"/>
			<path class="st7" d="M188.4,236.3c2.7,1.1,2.9,3.2,0.5,4.7c-2.4,1.5-6.6,1.7-9.3,0.6c-2.7-1.1-2.9-3.2-0.5-4.7
				C181.5,235.4,185.7,235.2,188.4,236.3z"/>
			<path class="st8" d="M188.4,234.4c2.7,1.1,2.9,3.2,0.5,4.7c-2.4,1.5-6.6,1.7-9.3,0.6c-2.7-1.1-2.9-3.2-0.5-4.7
				C181.5,233.6,185.7,233.3,188.4,234.4z"/>
			<path class="st9" d="M135,247.8c10.3,1.5,15.7,7,12,12.4c-3.6,5.4-14.9,8.6-25.2,7.1s-15.7-7-12-12.4
				C113.5,249.5,124.7,246.3,135,247.8z"/>
			<path class="st10" d="M131.3,253.2c4.6,0.6,6.9,3.1,5.3,5.5c-1.6,2.4-6.6,3.8-11.2,3.2s-6.9-3.1-5.3-5.5
				C121.8,254,126.8,252.6,131.3,253.2z"/>
			<path class="st11" d="M131.3,250.4c4.6,0.6,6.9,3.1,5.3,5.5c-1.6,2.4-6.6,3.8-11.2,3.2s-6.9-3.1-5.3-5.5
				C121.8,251.2,126.8,249.8,131.3,250.4z"/>
			<path class="st12" d="M150.7,279.7c8.2-0.5,15.1,2.4,15.6,6.5s-5.8,7.9-14,8.5c-8.2,0.5-15.1-2.4-15.6-6.5
				S142.6,280.2,150.7,279.7z"/>
			<path class="st13" d="M151.2,283.9c3.6-0.2,6.7,1.1,6.9,2.9c0.2,1.8-2.6,3.5-6.2,3.8s-6.7-1.1-6.9-2.9
				C144.8,285.8,147.5,284.1,151.2,283.9z"/>
			<path class="st14" d="M151.2,282c3.6-0.2,6.7,1.1,6.9,2.9c0.2,1.8-2.6,3.5-6.2,3.8s-6.7-1.1-6.9-2.9
				C144.8,283.9,147.5,282.3,151.2,282z"/>
			<path class="st6" d="M126.5,310.8c9.8-2.8,21.6-1.1,26.3,3.7c4.7,4.8,0.5,11-9.3,13.8c-9.8,2.8-21.6,1.1-26.3-3.7
				S116.6,313.6,126.5,310.8z"/>
			<path class="st7" d="M131.2,315.7c4.4-1.2,9.6-0.5,11.7,1.7c2.1,2.1,0.2,4.9-4.1,6.1c-4.4,1.2-9.6,0.5-11.7-1.7
				C125,319.6,126.9,316.9,131.2,315.7z"/>
			<path class="st8" d="M131.2,312.9c4.4-1.2,9.6-0.5,11.7,1.7c2.1,2.1,0.2,4.9-4.1,6.1c-4.4,1.2-9.6,0.5-11.7-1.7
				C125,316.8,126.9,314.1,131.2,312.9z"/>
			<path class="st9" d="M203.5,324.6c6.1,2.6,6.6,7.3,1.1,10.6c-5.5,3.3-14.8,3.9-20.9,1.4c-6.1-2.6-6.6-7.3-1.1-10.6
				C188.1,322.7,197.5,322.1,203.5,324.6z"/>
			<path class="st10" d="M198,327.9c2.7,1.1,2.9,3.2,0.5,4.7c-2.4,1.5-6.6,1.7-9.3,0.6c-2.7-1.1-2.9-3.2-0.5-4.7
				C191.2,327.1,195.3,326.8,198,327.9z"/>
			<path class="st11" d="M198,326.1c2.7,1.1,2.9,3.2,0.5,4.7c-2.4,1.5-6.6,1.7-9.3,0.6s-2.9-3.2-0.5-4.7
				C191.2,325.2,195.3,324.9,198,326.1z"/>
			<path class="st12" d="M232.4,348c10.3,1.5,15.7,7,12,12.4c-3.6,5.4-14.9,8.6-25.2,7.1c-10.3-1.5-15.7-7-12-12.4
				C210.9,349.7,222.2,346.5,232.4,348z"/>
			<path class="st13" d="M228.8,353.4c4.6,0.6,6.9,3.1,5.3,5.5c-1.6,2.4-6.6,3.8-11.2,3.2c-4.6-0.6-6.9-3.1-5.3-5.5
				C219.2,354.2,224.2,352.8,228.8,353.4z"/>
			<path class="st14" d="M228.8,350.6c4.6,0.6,6.9,3.1,5.3,5.5c-1.6,2.4-6.6,3.8-11.2,3.2c-4.6-0.6-6.9-3.1-5.3-5.5
				C219.2,351.4,224.2,350,228.8,350.6z"/>
			<path class="st12" d="M304.7,364.2c17.7,2.5,26.9,12,20.7,21.3c-6.2,9.2-25.6,14.7-43.2,12.2s-26.9-12-20.7-21.3
				C267.7,367.2,287.1,361.7,304.7,364.2z"/>
			<path class="st13" d="M298.4,373.5c7.8,1.1,11.9,5.3,9.2,9.4c-2.8,4.1-11.3,6.5-19.2,5.4c-7.8-1.1-11.9-5.3-9.2-9.4
				C282,374.8,290.6,372.4,298.4,373.5z"/>
			<path class="st14" d="M298.4,368.7c7.8,1.1,11.9,5.3,9.2,9.4c-2.8,4.1-11.3,6.5-19.2,5.4c-7.8-1.1-11.9-5.3-9.2-9.4
				C282,370,290.6,367.6,298.4,368.7z"/>
			<path class="st12" d="M275.7,159.8c17.7,2.5,26.9,12,20.7,21.3c-6.2,9.2-25.6,14.7-43.2,12.2s-26.9-12-20.7-21.3
				C238.6,162.8,258,157.3,275.7,159.8z"/>
			<path class="st13" d="M269.4,169.2c7.8,1.1,11.9,5.3,9.2,9.4c-2.8,4.1-11.3,6.5-19.2,5.4c-7.8-1.1-11.9-5.3-9.2-9.4
				C253,170.5,261.6,168,269.4,169.2z"/>
			<path class="st14" d="M269.4,164.4c7.8,1.1,11.9,5.3,9.2,9.4c-2.8,4.1-11.3,6.5-19.2,5.4c-7.8-1.1-11.9-5.3-9.2-9.4
				C253,165.7,261.6,163.3,269.4,164.4z"/>
			<path class="st9" d="M88,276.1c17.7,2.5,26.9,12,20.7,21.3c-6.2,9.2-25.6,14.7-43.2,12.2s-26.9-12-20.7-21.3
				C51,279.1,70.3,273.6,88,276.1z"/>
			<path class="st10" d="M81.7,285.5c7.8,1.1,11.9,5.3,9.2,9.4c-2.8,4.1-11.3,6.5-19.2,5.4s-11.9-5.3-9.2-9.4S73.9,284.4,81.7,285.5
				z"/>
			<path class="st11" d="M81.7,280.7c7.8,1.1,11.9,5.3,9.2,9.4c-2.8,4.1-11.3,6.5-19.2,5.4s-11.9-5.3-9.2-9.4
				C65.3,282,73.9,279.6,81.7,280.7z"/>
			<path class="st6" d="M492.2,250.4c17.7,2.5,26.9,12,20.7,21.3c-6.2,9.2-25.6,14.7-43.2,12.2s-26.9-12-20.7-21.3
				C455.2,253.3,474.5,247.9,492.2,250.4z"/>
			<path class="st7" d="M485.9,259.7c7.8,1.1,11.9,5.3,9.2,9.4c-2.8,4.1-11.3,6.5-19.2,5.4c-7.8-1.1-11.9-5.3-9.2-9.4
				C469.5,261,478.1,258.6,485.9,259.7z"/>
			<path class="st8" d="M485.9,254.9c7.8,1.1,11.9,5.3,9.2,9.4c-2.8,4.1-11.3,6.5-19.2,5.4c-7.8-1.1-11.9-5.3-9.2-9.4
				S478.1,253.8,485.9,254.9z"/>
			<path class="st6" d="M285,336.1c8.2-0.5,15.1,2.4,15.6,6.5c0.4,4.1-5.8,7.9-14,8.5s-15.1-2.4-15.6-6.5
				C270.6,340.5,276.9,336.7,285,336.1z"/>
			<path class="st7" d="M285.5,340.3c3.6-0.2,6.7,1.1,6.9,2.9c0.2,1.8-2.6,3.5-6.2,3.8c-3.6,0.2-6.7-1.1-6.9-2.9
				C279.1,342.2,281.8,340.6,285.5,340.3z"/>
			<path class="st8" d="M285.5,338.5c3.6-0.2,6.7,1.1,6.9,2.9c0.2,1.8-2.6,3.5-6.2,3.8c-3.6,0.2-6.7-1.1-6.9-2.9
				C279.1,340.4,281.8,338.7,285.5,338.5z"/>
			<path class="st9" d="M339.4,341c9.8-2.8,21.6-1.1,26.3,3.7c4.7,4.8,0.5,11-9.3,13.8c-9.8,2.8-21.6,1.1-26.3-3.7
				S329.6,343.7,339.4,341z"/>
			<path class="st10" d="M344.1,345.8c4.4-1.2,9.6-0.5,11.7,1.7c2.1,2.1,0.2,4.9-4.1,6.1c-4.4,1.2-9.6,0.5-11.7-1.7
				C337.9,349.8,339.8,347.1,344.1,345.8z"/>
			<path class="st11" d="M344.1,343.1c4.4-1.2,9.6-0.5,11.7,1.7c2.1,2.1,0.2,4.9-4.1,6.1c-4.4,1.2-9.6,0.5-11.7-1.7
				C337.9,347,339.8,344.3,344.1,343.1z"/>
			<path class="st12" d="M383.9,312.8c6.1,2.6,6.6,7.3,1.1,10.6s-14.8,3.9-20.9,1.4c-6.1-2.6-6.6-7.3-1.1-10.6
				C368.5,310.8,377.8,310.2,383.9,312.8z"/>
			<path class="st13" d="M378.4,316.1c2.7,1.1,2.9,3.2,0.5,4.7c-2.4,1.5-6.6,1.7-9.3,0.6c-2.7-1.1-2.9-3.2-0.5-4.7
				C371.5,315.3,375.7,315,378.4,316.1z"/>
			<path class="st14" d="M378.4,314.3c2.7,1.1,2.9,3.2,0.5,4.7c-2.4,1.5-6.6,1.7-9.3,0.6c-2.7-1.1-2.9-3.2-0.5-4.7
				S375.7,313.1,378.4,314.3z"/>
			<path class="st6" d="M436.1,290.5c10.3,1.5,15.7,7,12,12.4c-3.6,5.4-14.9,8.6-25.2,7.1c-10.3-1.5-15.7-7-12-12.4
				C414.6,292.2,425.9,289,436.1,290.5z"/>
			<path class="st7" d="M432.5,295.9c4.6,0.6,6.9,3.1,5.3,5.5c-1.6,2.4-6.6,3.8-11.2,3.2s-6.9-3.1-5.3-5.5
				C422.9,296.7,427.9,295.3,432.5,295.9z"/>
			<path class="st8" d="M432.5,293.1c4.6,0.6,6.9,3.1,5.3,5.5c-1.6,2.4-6.6,3.8-11.2,3.2s-6.9-3.1-5.3-5.5
				C422.9,293.9,427.9,292.5,432.5,293.1z"/>
			<path class="st9" d="M405.7,263c8.2-0.5,15.1,2.4,15.6,6.5s-5.8,7.9-14,8.5c-8.2,0.5-15.1-2.4-15.6-6.5
				C391.3,267.3,397.5,263.5,405.7,263z"/>
			<path class="st10" d="M406.1,267.2c3.6-0.2,6.7,1.1,6.9,2.9c0.2,1.8-2.6,3.5-6.2,3.8c-3.6,0.2-6.7-1.1-6.9-2.9
				C399.7,269.1,402.5,267.4,406.1,267.2z"/>
			<path class="st11" d="M406.1,265.3c3.6-0.2,6.7,1.1,6.9,2.9c0.2,1.8-2.6,3.5-6.2,3.8c-3.6,0.2-6.7-1.1-6.9-2.9
				C399.7,267.2,402.5,265.6,406.1,265.3z"/>
			<path class="st12" d="M414.5,229.5c9.8-2.8,21.6-1.1,26.3,3.7c4.7,4.8,0.5,11-9.3,13.8s-21.6,1.1-26.3-3.7
				S404.7,232.2,414.5,229.5z"/>
			<path class="st13" d="M419.3,234.3c4.4-1.2,9.6-0.5,11.7,1.7c2.1,2.1,0.2,4.9-4.1,6.1c-4.4,1.2-9.6,0.5-11.7-1.7
				C413,238.3,414.9,235.6,419.3,234.3z"/>
			<path class="st14" d="M419.3,231.5c4.4-1.2,9.6-0.5,11.7,1.7c2.1,2.1,0.2,4.9-4.1,6.1c-4.4,1.2-9.6,0.5-11.7-1.7
				C413,235.5,414.9,232.8,419.3,231.5z"/>
			<path class="st6" d="M374.2,221.1c6.1,2.6,6.6,7.3,1.1,10.6c-5.5,3.3-14.8,3.9-20.9,1.4s-6.6-7.3-1.1-10.6
				C358.8,219.2,368.2,218.6,374.2,221.1z"/>
			<path class="st7" d="M368.7,224.5c2.7,1.1,2.9,3.2,0.5,4.7c-2.4,1.5-6.6,1.7-9.3,0.6c-2.7-1.1-2.9-3.2-0.5-4.7
				C361.9,223.6,366,223.3,368.7,224.5z"/>
			<path class="st8" d="M368.7,222.6c2.7,1.1,2.9,3.2,0.5,4.7c-2.4,1.5-6.6,1.7-9.3,0.6s-2.9-3.2-0.5-4.7
				C361.9,221.7,366,221.5,368.7,222.6z"/>
			<path class="st6" d="M183.4,290.3c4.8-0.8,9.6,0.5,10.8,2.9s-1.7,5-6.4,5.8c-4.8,0.8-9.6-0.5-10.8-2.9S178.7,291.1,183.4,290.3z"
				/>
			<path class="st7" d="M184.7,292.7c2.1-0.4,4.3,0.2,4.8,1.3s-0.7,2.2-2.8,2.6c-2.1,0.4-4.3-0.2-4.8-1.3S182.6,293,184.7,292.7z"/>
			<path class="st8" d="M184.7,291.8c2.1-0.4,4.3,0.2,4.8,1.3c0.5,1.1-0.7,2.2-2.8,2.6c-2.1,0.4-4.3-0.2-4.8-1.3
				S182.6,292.1,184.7,291.8z"/>
			<path class="st9" d="M212.9,272c4.9,0.2,8.2,2.3,7.5,4.8c-0.7,2.5-5.2,4.4-10.1,4.2s-8.2-2.3-7.5-4.8S208,271.8,212.9,272z"/>
			<path class="st10" d="M212.2,274.5c2.2,0.1,3.7,1,3.3,2.2c-0.3,1.1-2.3,2-4.5,1.9c-2.2-0.1-3.7-1-3.3-2.2
				C208,275.2,210,274.4,212.2,274.5z"/>
			<path class="st11" d="M212.2,273.6c2.2,0.1,3.7,1,3.3,2.2c-0.3,1.1-2.3,2-4.5,1.9c-2.2-0.1-3.7-1-3.3-2.2
				C208,274.3,210,273.5,212.2,273.6z"/>
			<path class="st12" d="M200.7,252.9c4.2,1.1,5.6,3.8,3.1,6.1c-2.5,2.2-7.9,3.2-12.2,2c-4.2-1.1-5.6-3.8-3.1-6.1
				C191,252.7,196.4,251.8,200.7,252.9z"/>
			<path class="st13" d="M198.1,255.1c1.9,0.5,2.5,1.7,1.4,2.7s-3.5,1.4-5.4,0.9c-1.9-0.5-2.5-1.7-1.4-2.7
				C193.8,255.1,196.3,254.7,198.1,255.1z"/>
			<path class="st14" d="M198.1,254.2c1.9,0.5,2.5,1.7,1.4,2.7c-1.1,1-3.5,1.4-5.4,0.9s-2.5-1.7-1.4-2.7
				C193.8,254.1,196.3,253.7,198.1,254.2z"/>
			<path class="st6" d="M232.8,249.2c3.9-1.6,9.5-1.5,12.4,0.4c2.9,1.9,2.1,4.8-1.8,6.4c-3.9,1.6-9.5,1.5-12.4-0.4
				C228.1,253.7,228.9,250.9,232.8,249.2z"/>
			<path class="st7" d="M235.8,251.1c1.7-0.7,4.2-0.6,5.5,0.2c1.3,0.8,1,2.1-0.8,2.8c-1.7,0.7-4.2,0.6-5.5-0.2
				S234,251.8,235.8,251.1z"/>
			<path class="st8" d="M235.8,250.2c1.7-0.7,4.2-0.6,5.5,0.2s1,2.1-0.8,2.8c-1.7,0.7-4.2,0.6-5.5-0.2S234,250.9,235.8,250.2z"/>
			<path class="st9" d="M253,227.8c4.8-0.8,9.6,0.5,10.8,2.9c1.2,2.4-1.7,5-6.4,5.8c-4.8,0.8-9.6-0.5-10.8-2.9
				S248.2,228.6,253,227.8z"/>
			<path class="st10" d="M254.2,230.2c2.1-0.4,4.3,0.2,4.8,1.3c0.5,1.1-0.7,2.2-2.8,2.6c-2.1,0.4-4.3-0.2-4.8-1.3
				C250.8,231.7,252.1,230.6,254.2,230.2z"/>
			<path class="st11" d="M254.2,229.3c2.1-0.4,4.3,0.2,4.8,1.3c0.5,1.1-0.7,2.2-2.8,2.6c-2.1,0.4-4.3-0.2-4.8-1.3
				S252.1,229.7,254.2,229.3z"/>
			<path class="st12" d="M290,239.6c4.9,0.2,8.2,2.3,7.5,4.8c-0.7,2.5-5.2,4.4-10.1,4.2c-4.9-0.2-8.2-2.3-7.5-4.8
				C280.6,241.3,285.1,239.4,290,239.6z"/>
			<path class="st13" d="M289.3,242.1c2.2,0.1,3.7,1,3.3,2.2c-0.3,1.1-2.3,2-4.5,1.9s-3.7-1-3.3-2.2S287.1,242,289.3,242.1z"/>
			<path class="st14" d="M289.3,241.2c2.2,0.1,3.7,1,3.3,2.2c-0.3,1.1-2.3,2-4.5,1.9c-2.2-0.1-3.7-1-3.3-2.2
				C285.1,241.9,287.1,241.1,289.3,241.2z"/>
			<path class="st6" d="M332.7,230.6c4.2,1.1,5.6,3.8,3.1,6.1c-2.5,2.2-7.9,3.2-12.2,2c-4.2-1.1-5.6-3.8-3.1-6.1
				C323,230.4,328.5,229.5,332.7,230.6z"/>
			<path class="st7" d="M330.2,232.9c1.9,0.5,2.5,1.7,1.4,2.7c-1.1,1-3.5,1.4-5.4,0.9c-1.9-0.5-2.5-1.7-1.4-2.7
				C325.9,232.8,328.3,232.4,330.2,232.9z"/>
			<path class="st8" d="M330.2,232c1.9,0.5,2.5,1.7,1.4,2.7c-1.1,1-3.5,1.4-5.4,0.9c-1.9-0.5-2.5-1.7-1.4-2.7S328.3,231.5,330.2,232
				z"/>
			<path class="st9" d="M328.2,252.5c3.9-1.6,9.5-1.5,12.4,0.4s2.1,4.8-1.8,6.4c-3.9,1.6-9.5,1.5-12.4-0.4S324.3,254.2,328.2,252.5z
				"/>
			<path class="st10" d="M331.1,254.4c1.7-0.7,4.2-0.6,5.5,0.2c1.3,0.8,1,2.1-0.8,2.8s-4.2,0.6-5.5-0.2S329.4,255.2,331.1,254.4z"/>
			<path class="st11" d="M331.1,253.5c1.7-0.7,4.2-0.6,5.5,0.2s1,2.1-0.8,2.8c-1.7,0.7-4.2,0.6-5.5-0.2S329.4,254.2,331.1,253.5z"/>
			<path class="st12" d="M370.2,258.9c4.8-0.8,9.6,0.5,10.8,2.9c1.2,2.4-1.7,5-6.4,5.8s-9.6-0.5-10.8-2.9
				C362.6,262.2,365.4,259.7,370.2,258.9z"/>
			<path class="st13" d="M371.4,261.2c2.1-0.4,4.3,0.2,4.8,1.3c0.5,1.1-0.7,2.2-2.8,2.6c-2.1,0.4-4.3-0.2-4.8-1.3
				C368,262.7,369.3,261.6,371.4,261.2z"/>
			<path class="st14" d="M371.4,260.3c2.1-0.4,4.3,0.2,4.8,1.3c0.5,1.1-0.7,2.2-2.8,2.6c-2.1,0.4-4.3-0.2-4.8-1.3
				C368,261.8,369.3,260.7,371.4,260.3z"/>
			<path class="st6" d="M347.7,276.7c4.9,0.2,8.2,2.3,7.5,4.8c-0.7,2.5-5.2,4.4-10.1,4.2c-4.9-0.2-8.2-2.3-7.5-4.8
				C338.3,278.4,342.8,276.6,347.7,276.7z"/>
			<path class="st7" d="M347,279.2c2.2,0.1,3.7,1,3.3,2.2c-0.3,1.1-2.3,2-4.5,1.9c-2.2-0.1-3.7-1-3.3-2.2
				C342.8,280,344.8,279.2,347,279.2z"/>
			<path class="st8" d="M347,278.3c2.2,0.1,3.7,1,3.3,2.2c-0.3,1.1-2.3,2-4.5,1.9c-2.2-0.1-3.7-1-3.3-2.2
				C342.8,279.1,344.8,278.2,347,278.3z"/>
			<path class="st9" d="M366.4,296.7c4.2,1.1,5.6,3.8,3.1,6.1c-2.5,2.2-7.9,3.2-12.2,2s-5.6-3.8-3.1-6.1S362.2,295.6,366.4,296.7z"
				/>
			<path class="st10" d="M363.9,299c1.9,0.5,2.5,1.7,1.4,2.7c-1.1,1-3.5,1.4-5.4,0.9s-2.5-1.7-1.4-2.7
				C359.6,298.9,362,298.5,363.9,299z"/>
			<path class="st11" d="M363.9,298.1c1.9,0.5,2.5,1.7,1.4,2.7s-3.5,1.4-5.4,0.9s-2.5-1.7-1.4-2.7C359.6,298,362,297.6,363.9,298.1z
				"/>
			<path class="st12" d="M314.5,301.7c3.9-1.6,9.5-1.5,12.4,0.4s2.1,4.8-1.8,6.4c-3.9,1.6-9.5,1.5-12.4-0.4
				C309.8,306.2,310.6,303.3,314.5,301.7z"/>
			<path class="st13" d="M317.5,303.6c1.7-0.7,4.2-0.6,5.5,0.2c1.3,0.8,1,2.1-0.8,2.8s-4.2,0.6-5.5-0.2
				C315.4,305.6,315.8,304.3,317.5,303.6z"/>
			<path class="st14" d="M317.5,302.7c1.7-0.7,4.2-0.6,5.5,0.2c1.3,0.8,1,2.1-0.8,2.8s-4.2,0.6-5.5-0.2
				C315.4,304.7,315.8,303.4,317.5,302.7z"/>
			<path class="st6" d="M300.6,321.3c4.8-0.8,9.6,0.5,10.8,2.9c1.2,2.4-1.7,5-6.4,5.8c-4.8,0.8-9.6-0.5-10.8-2.9
				C293,324.7,295.9,322.1,300.6,321.3z"/>
			<path class="st7" d="M301.8,323.7c2.1-0.4,4.3,0.2,4.8,1.3c0.5,1.1-0.7,2.2-2.8,2.6c-2.1,0.4-4.3-0.2-4.8-1.3
				S299.7,324,301.8,323.7z"/>
			<path class="st8" d="M301.8,322.8c2.1-0.4,4.3,0.2,4.8,1.3s-0.7,2.2-2.8,2.6c-2.1,0.4-4.3-0.2-4.8-1.3
				C298.5,324.3,299.7,323.1,301.8,322.8z"/>
			<path class="st9" d="M270.6,309.1c4.9,0.2,8.2,2.3,7.5,4.8c-0.7,2.5-5.2,4.4-10.1,4.2c-4.9-0.2-8.2-2.3-7.5-4.8
				C261.2,310.8,265.7,308.9,270.6,309.1z"/>
			<path class="st10" d="M269.9,311.6c2.2,0.1,3.7,1,3.3,2.2s-2.3,2-4.5,1.9s-3.7-1-3.3-2.2C265.7,312.4,267.7,311.5,269.9,311.6z"
				/>
			<path class="st11" d="M269.9,310.7c2.2,0.1,3.7,1,3.3,2.2c-0.3,1.1-2.3,2-4.5,1.9c-2.2-0.1-3.7-1-3.3-2.2
				C265.7,311.5,267.7,310.6,269.9,310.7z"/>
			<path class="st12" d="M234.4,319c4.2,1.1,5.6,3.8,3.1,6.1s-7.9,3.2-12.2,2s-5.6-3.8-3.1-6.1S230.2,317.9,234.4,319z"/>
			<path class="st13" d="M231.9,321.2c1.9,0.5,2.5,1.7,1.4,2.7c-1.1,1-3.5,1.4-5.4,0.9s-2.5-1.7-1.4-2.7
				C227.6,321.1,230,320.7,231.9,321.2z"/>
			<path class="st14" d="M231.9,320.3c1.9,0.5,2.5,1.7,1.4,2.7s-3.5,1.4-5.4,0.9c-1.9-0.5-2.5-1.7-1.4-2.7
				C227.6,320.2,230,319.8,231.9,320.3z"/>
			<path class="st6" d="M219.2,298.4c3.9-1.6,9.5-1.5,12.4,0.4s2.1,4.8-1.8,6.4c-3.9,1.6-9.5,1.5-12.4-0.4
				C214.5,302.9,215.3,300,219.2,298.4z"/>
			<path class="st7" d="M222.1,300.3c1.7-0.7,4.2-0.6,5.5,0.2s1,2.1-0.8,2.8s-4.2,0.6-5.5-0.2S220.4,301,222.1,300.3z"/>
			<path class="st8" d="M222.1,299.4c1.7-0.7,4.2-0.6,5.5,0.2s1,2.1-0.8,2.8s-4.2,0.6-5.5-0.2C220,301.4,220.4,300.1,222.1,299.4z"
				/>
		</g>
		<g id="Brandmark">
			<path id="Core-1_1_" class="st15" d="M293.9,269.8c2.4,1,2.6,2.9,0.4,4.2c-2.2,1.3-5.9,1.6-8.3,0.5c-2.4-1-2.6-2.9-0.4-4.2
				C287.7,269.1,291.5,268.8,293.9,269.8z"/>
			<path id="Core-2_1_" class="st15" d="M272.7,269.5c2.4,1,2.6,2.9,0.4,4.2c-2.2,1.3-5.9,1.6-8.3,0.5c-2.4-1-2.6-2.9-0.4-4.2
				S270.3,268.5,272.7,269.5z"/>
			<path id="Core-3_1_" class="st15" d="M298.3,280.3c2.4,1,2.6,2.9,0.4,4.2c-2.2,1.3-5.9,1.6-8.3,0.5c-2.4-1-2.6-2.9-0.4-4.2
				S295.9,279.3,298.3,280.3z"/>
			<path id="Core-4_1_" class="st15" d="M264.1,279.8c2.4,1,2.6,2.9,0.4,4.2c-2.2,1.3-5.9,1.6-8.3,0.5c-2.4-1-2.6-2.9-0.4-4.2
				S261.6,278.8,264.1,279.8z"/>
			<path id="Core-5_1_" class="st15" d="M279.9,286.5c2.4,1,2.6,2.9,0.4,4.2c-2.2,1.3-5.9,1.6-8.3,0.5c-2.4-1-2.6-2.9-0.4-4.2
				S277.5,285.4,279.9,286.5z"/>
			<path id="Center" class="st16" d="M270.4,286.5c1.3-0.8,3.2-1.3,5.2-1.5c2-0.1,3.9,0.1,5.4,0.8c1.4,0.6,2.2,1.4,2.4,2.3
				c2.4-0.5,4.7-1.2,6.6-2.2c-0.2-0.1-0.4-0.1-0.6-0.2c-1.5-0.6-2.4-1.5-2.5-2.5c-0.1-1,0.6-2,1.9-2.8c1.3-0.8,3.2-1.3,5.2-1.5
				c0.7,0,1.3,0,2,0c0-1.3-0.5-2.6-1.6-3.8c-1.2,0.5-2.5,0.8-4,0.9c-2,0.1-3.9-0.1-5.4-0.8c-1.5-0.6-2.4-1.5-2.5-2.5
				c-0.1-0.7,0.3-1.5,1-2.2c-2.5-0.3-5.1-0.4-7.6-0.1c0.2,0.3,0.3,0.6,0.4,1c0.1,1-0.6,2-1.9,2.8c-1.3,0.8-3.2,1.3-5.2,1.5
				c-2,0.1-3.9-0.1-5.4-0.8c-0.2-0.1-0.4-0.2-0.6-0.3c-1.6,1.1-2.6,2.4-3.1,3.7c1.9-0.1,3.6,0.2,5,0.8c1.5,0.6,2.4,1.5,2.5,2.5
				s-0.6,2-1.9,2.8c-0.7,0.4-1.6,0.8-2.5,1c0.7,0.5,1.6,1,2.6,1.4c1,0.4,2,0.8,3.1,1C269.2,287.4,269.7,286.9,270.4,286.5z"/>
			<path id="Circles" class="st16" d="M315.4,285.6c0.9-1.4,1.3-2.9,1.2-4.3c-0.2-1.5-0.9-2.9-2.1-4.1c-0.8-0.9-1.9-1.7-3.2-2.4
				c0.7-1.3,1-2.6,0.9-3.9c-0.2-1.5-0.9-2.9-2.1-4.1c-1.3-1.3-3-2.5-5.3-3.4s-4.8-1.6-7.6-2c-2.7-0.4-5.6-0.5-8.4-0.3
				c-2.5,0.2-5,0.5-7.4,1.1c-1.7-0.5-3.5-1-5.5-1.2c-2.7-0.4-5.6-0.5-8.4-0.3c-2.9,0.2-5.7,0.7-8.3,1.4c-2.7,0.7-5.1,1.7-7.1,3
				c-2,1.2-3.5,2.6-4.5,4c-0.9,1.4-1.3,2.9-1.2,4.3c0,0.1,0,0.2,0,0.3c-1.1,0.5-2.1,1-3,1.5c-2,1.2-3.5,2.6-4.5,4
				c-0.9,1.4-1.3,2.9-1.2,4.3c0.2,1.5,0.9,2.9,2.1,4.1c1.3,1.3,3,2.5,5.3,3.4c2.2,0.9,4.8,1.6,7.6,2c0.7,0.1,1.4,0.2,2.1,0.2
				c0.2,0.3,0.5,0.7,0.8,1c1.3,1.3,3,2.5,5.3,3.4c2.2,0.9,4.8,1.6,7.6,2c2.7,0.4,5.6,0.5,8.4,0.3c2.9-0.2,5.7-0.7,8.3-1.4
				c2.7-0.7,5.1-1.7,7.1-3c0.9-0.6,1.8-1.2,2.5-1.8c0.2,0,0.4,0,0.6,0c2.9-0.2,5.7-0.7,8.3-1.4c2.7-0.7,5.1-1.7,7.1-3
				C312.9,288.4,314.4,287.1,315.4,285.6z M303.1,291.8c-2.2,0.6-4.6,1-7.1,1.2c0.4-0.4,0.7-0.8,1-1.3c0.9-1.4,1.3-2.9,1.2-4.3
				c-0.1-0.5-0.2-1-0.3-1.4c-0.5,0.2-1.1,0.3-1.7,0.4c0.1,0.4,0.2,0.8,0.3,1.2c0.1,1.3-0.2,2.7-1.1,4c-0.4,0.6-0.8,1.1-1.3,1.6
				c-2.1,0.1-4.2-0.1-6.1-0.3c-2.3-0.3-4.4-0.8-6.3-1.6c-0.4,0.3-0.9,0.5-1.4,0.7c2.1,0.8,4.5,1.4,7.1,1.8c1.8,0.3,3.7,0.4,5.7,0.4
				c-0.5,0.4-1.1,0.8-1.7,1.2c-1.8,1.1-4,2-6.5,2.7c-2.4,0.7-4.9,1.1-7.6,1.3c-2.6,0.2-5.2,0.1-7.7-0.3c-2.6-0.4-4.9-1-7-1.8
				c-2-0.9-3.7-1.9-4.8-3.1c-0.1-0.1-0.3-0.3-0.4-0.4c1.4,0,2.8,0,4.2-0.1c2.9-0.2,5.7-0.7,8.3-1.4c0.4-0.1,0.8-0.2,1.1-0.3
				c-0.5-0.2-0.8-0.4-1.1-0.7c-0.3,0.1-0.5,0.2-0.8,0.2c-2.4,0.7-4.9,1.1-7.6,1.3c-1.6,0.1-3.2,0.1-4.8,0c-0.5-0.8-0.7-1.6-0.8-2.4
				c-0.1-1.3,0.2-2.7,1.1-4c0.1-0.1,0.2-0.3,0.3-0.4c-0.6-0.1-1.1-0.3-1.6-0.4c-0.2,0.2-0.3,0.4-0.4,0.6c-0.9,1.4-1.3,2.9-1.2,4.3
				c0.1,0.7,0.3,1.4,0.6,2.1c-0.3,0-0.6-0.1-0.9-0.1c-2.6-0.4-4.9-1-7-1.8c-2-0.9-3.7-1.9-4.8-3.1c-1.1-1.2-1.8-2.5-1.9-3.8
				c-0.1-1.3,0.2-2.7,1.1-4c0.9-1.4,2.3-2.6,4.1-3.7c0.6-0.4,1.3-0.7,1.9-1c0.3,1,0.9,1.9,1.7,2.7c1.2,1.2,2.8,2.3,4.8,3.2
				c0.3-0.3,0.6-0.6,1-0.8c-1.7-0.8-3.2-1.8-4.2-2.8c-0.9-0.9-1.5-1.9-1.8-3c0.9-0.4,1.9-0.7,2.9-1c2.4-0.7,4.9-1.1,7.6-1.3
				c0.8-0.1,1.5-0.1,2.3-0.1c0.1-0.3,0.2-0.6,0.4-0.9c-0.9,0-1.9,0-2.8,0.1c-2.9,0.2-5.7,0.7-8.3,1.4c-0.8,0.2-1.6,0.5-2.3,0.7
				c-0.1-1.3,0.3-2.5,1.1-3.7c0.9-1.4,2.3-2.6,4.1-3.7c1.8-1.1,4-2,6.5-2.7c2.4-0.7,4.9-1.1,7.6-1.3s5.2-0.1,7.7,0.3
				c1.5,0.2,2.9,0.5,4.2,0.9c-2.3,0.7-4.3,1.6-6,2.7c-1.4,0.9-2.6,1.8-3.5,2.8c0.6,0,1.2,0.1,1.8,0.2c0.8-0.9,1.8-1.7,3.1-2.4
				c1.8-1.1,4-2,6.4-2.7c0.4,0.1,0.7,0.3,1.1,0.4c2.1,0.9,3.7,1.9,4.8,3.1c0.5,0.6,1,1.2,1.3,1.8c0.3,0,0.7-0.1,1.1-0.1
				c0.3,0,0.5,0,0.8,0c-0.3-0.7-0.8-1.4-1.5-2.1c-1.3-1.3-3-2.5-5.3-3.4c-0.1-0.1-0.3-0.1-0.4-0.2c1.9-0.4,3.8-0.7,5.8-0.8
				c2.6-0.2,5.2-0.1,7.7,0.3c2.6,0.4,4.9,1,7,1.8c2,0.9,3.7,1.9,4.8,3.1c1.1,1.2,1.8,2.5,1.9,3.8c0.1,1-0.1,2-0.5,3
				c-0.2-0.1-0.4-0.2-0.6-0.3c-2.2-0.9-4.8-1.6-7.6-2c-1.4-0.2-2.9-0.3-4.3-0.4c0,0.1,0.1,0.3,0.1,0.4c0,0.2,0,0.4,0,0.5
				c1.2,0,2.5,0.2,3.7,0.3c2.6,0.4,4.9,1,7,1.8c0.4,0.2,0.9,0.4,1.3,0.6c-0.9,1.3-2.3,2.5-4.1,3.6c-1.2,0.8-2.7,1.4-4.2,2
				c0.3,0.3,0.5,0.6,0.7,0.9c1.8-0.6,3.5-1.4,4.9-2.3c1.7-1,3.1-2.2,4.1-3.4c0.9,0.5,1.6,1.1,2.2,1.8c1.1,1.2,1.8,2.5,1.9,3.8
				s-0.2,2.7-1.1,4c-0.9,1.4-2.3,2.6-4.1,3.7C307.7,290.2,305.6,291.1,303.1,291.8z"/>
		</g>
	</g>
	<polygon class="st17" points="293.9,420.5 0.4,298.7 0.4,160 293.9,283.3 	"/>
	<polygon class="st17" points="293.9,420.5 557.6,261.8 557.6,123.5 293.9,283.3 	"/>
</g>
</svg>
