<svg xmlns="http://www.w3.org/2000/svg" width="376" height="100" viewBox="0 0 376 100">
    <g fill="#FFF" fill-rule="nonzero">
        <path d="M73.764 53.846c-4.918 0-8.929-4.01-8.929-8.928a8.914 8.914 0 0 1 4.616-7.803A23.378 23.378 0 0 0 60 30.247c-.797 4.121-4.423 7.253-8.764 7.253-4.34 0-7.994-3.132-8.763-7.253a23.898 23.898 0 0 0-9.451 6.868c2.747 1.539 4.615 4.45 4.615 7.803 0 4.917-4.01 8.928-8.928 8.928a7.13 7.13 0 0 1-1.1-.082 23.238 23.238 0 0 0 3.627 11.154 8.813 8.813 0 0 1 6.1-2.418c4.917 0 8.928 4.011 8.928 8.929a8.81 8.81 0 0 1-.852 3.79c1.868.468 3.846.743 5.852.743 2.033 0 3.983-.248 5.851-.742a8.81 8.81 0 0 1-.851-3.791c0-4.918 4.01-8.929 8.928-8.929 2.363 0 4.506.934 6.1 2.418a23.834 23.834 0 0 0 3.626-11.127c-.413 0-.797.055-1.154.055z" opacity=".4"/>
        <circle cx="51.209" cy="28.516" r="7.802"/>
        <circle cx="73.764" cy="44.89" r="7.802"/>
        <circle cx="37.253" cy="71.401" r="7.802"/>
        <circle cx="65.137" cy="71.401" r="7.802"/>
        <circle cx="28.654" cy="44.89" r="7.802"/>
        <path d="M102.198 44.89c0-14.56-11.017-26.593-25.165-28.242C72.527 6.868 62.637.082 51.209.082c-11.456 0-21.319 6.814-25.824 16.566C11.236 18.27.22 30.33.22 44.89c0 8.242 3.544 15.687 9.176 20.907a29.218 29.218 0 0 0-.55 5.632c0 15.686 12.747 28.434 28.434 28.434 5.055 0 9.808-1.347 13.929-3.654a28.155 28.155 0 0 0 13.928 3.654c15.687 0 28.434-12.748 28.434-28.434 0-1.924-.192-3.792-.549-5.632 5.632-5.193 9.176-12.638 9.176-20.907zM92.72 64.505c-1.621-6.51-5.522-12.142-10.797-16.016-.165.357-.33.687-.522 1.016 5.137 3.82 8.901 9.424 10.357 15.88-4.753 4.175-10.934 6.73-17.72 6.813-.027.384-.082.769-.164 1.154a28.395 28.395 0 0 0 18.159-6.649c.275 1.539.412 3.132.412 4.753 0 15.055-12.253 27.308-27.308 27.308a26.894 26.894 0 0 1-12.802-3.215 28.52 28.52 0 0 0 11.923-15.192 7.414 7.414 0 0 1-1.126-.192 27.366 27.366 0 0 1-11.923 14.753c-5.55-3.325-9.835-8.544-11.923-14.753a7.414 7.414 0 0 1-1.127.192A28.42 28.42 0 0 0 50.082 95.55a27.215 27.215 0 0 1-12.802 3.215c-15.055 0-27.307-12.253-27.307-27.308 0-1.62.137-3.214.412-4.753 4.917 4.121 11.236 6.649 18.159 6.649a7.78 7.78 0 0 1-.165-1.154c-6.786-.083-12.967-2.638-17.72-6.813 1.456-6.456 5.22-12.06 10.357-15.88-.192-.33-.384-.659-.521-1.016-5.275 3.874-9.149 9.478-10.797 16.016C4.56 59.533 1.374 52.582 1.374 44.89c0-13.764 10.247-25.165 23.489-27.033a28.135 28.135 0 0 0-2.088 10.66c0 3.021.467 5.934 1.346 8.68.33-.192.66-.384 1.016-.521-.796-2.583-1.263-5.302-1.263-8.16 0-3.846.796-7.5 2.225-10.796.824-.083 1.676-.11 2.5-.11 5.879 0 11.346 1.895 15.824 5.082.247-.302.522-.55.797-.824a28.266 28.266 0 0 0-16.621-5.384c-.66 0-1.319.027-1.978.082C31.07 7.5 40.385 1.264 51.154 1.264c10.742 0 20.082 6.263 24.533 15.302a23.808 23.808 0 0 0-1.978-.082 28.266 28.266 0 0 0-16.621 5.384c.275.247.55.522.797.824 4.478-3.187 9.917-5.082 15.824-5.082.851 0 1.676.055 2.5.11a27.3 27.3 0 0 1 2.225 10.796c0 2.83-.44 5.577-1.264 8.16.357.165.687.33 1.017.522a28.411 28.411 0 0 0 1.346-8.682c0-3.763-.742-7.362-2.088-10.659 13.27 1.868 23.49 13.27 23.49 27.033.109 7.692-3.078 14.643-8.215 19.615z" opacity=".4"/>
        <g>
            <path d="M182.253 18.791c-.99-.961-2.198-1.456-3.627-1.538-1.703 0-3.159.769-4.285 2.335l-21.154 31.648L132.28 19.56c-.494-.714-1.154-1.263-1.95-1.703a5.443 5.443 0 0 0-2.5-.632c-1.484 0-2.748.522-3.737 1.566-.989 1.017-1.483 2.225-1.483 3.6v55c0 1.483.44 2.691 1.346 3.68.907.99 2.088 1.484 3.517 1.484 1.483 0 2.72-.495 3.626-1.484.879-.961 1.346-2.197 1.346-3.68V37.142L148.764 62.5a6.23 6.23 0 0 0 1.813 1.566c.742.44 1.51.604 2.253.55.796.054 1.593-.138 2.335-.55a6.175 6.175 0 0 0 1.868-1.62l16.209-24.534V77.39c0 1.484.522 2.72 1.51 3.709.99.961 2.281 1.456 3.82 1.456 1.538 0 2.83-.522 3.79-1.511.962-.99 1.457-2.225 1.457-3.626V22.39c-.055-1.428-.577-2.637-1.566-3.599zM240.88 27.28c1.483 0 2.691-.44 3.68-1.346.99-.907 1.484-2.088 1.484-3.516 0-1.484-.495-2.72-1.456-3.654-.962-.934-2.198-1.401-3.681-1.401h-31.649c-1.428 0-2.637.494-3.654 1.51-.989.99-1.51 2.226-1.51 3.654v54.89c0 1.43.494 2.638 1.51 3.654.99.99 2.226 1.511 3.654 1.511h31.621c1.484 0 2.692-.44 3.681-1.346.99-.906 1.484-2.088 1.484-3.516 0-1.346-.495-2.555-1.456-3.544-.962-1.017-2.225-1.511-3.709-1.511H214.67V54.148h22.116c1.456 0 2.692-.44 3.654-1.29.989-.88 1.483-2.089 1.483-3.572 0-1.429-.494-2.638-1.456-3.572-.962-.934-2.198-1.4-3.681-1.4H214.67V27.334h26.21v-.055zM295.88 48.407c-3.05-1.402-6.979-2.665-11.732-3.682-4.615-1.071-8.132-2.362-10.412-3.9-2.17-1.43-3.241-3.462-3.241-6.155 0-2.472 1.07-4.423 3.241-5.934 2.253-1.566 5.357-2.362 9.231-2.362 2.445 0 5.028.522 7.72 1.593 2.665 1.044 4.78 2.335 6.318 3.846.687.605 1.566.934 2.61.934 1.374 0 2.555-.522 3.517-1.51.961-.99 1.456-2.144 1.456-3.462 0-1.621-.797-3.132-2.335-4.478-2.143-2.06-4.945-3.737-8.38-5-3.406-1.237-7.06-1.868-10.906-1.868-4.258 0-8.16.769-11.593 2.252-3.462 1.511-6.182 3.682-8.16 6.484-1.95 2.83-2.967 6.126-2.967 9.862 0 5.358 1.786 9.643 5.302 12.693 3.462 2.994 8.407 5.165 14.753 6.456 5.138 1.126 9.011 2.527 11.511 4.203 2.363 1.594 3.544 3.764 3.6 6.676 0 2.418-1.182 4.368-3.6 5.989-2.5 1.648-5.604 2.5-9.258 2.5-3.16 0-6.017-.522-8.462-1.539-2.472-1.016-4.917-2.637-7.28-4.807-.879-.797-1.95-1.209-3.16-1.209-1.373 0-2.554.522-3.57 1.566-.99 1.016-1.484 2.198-1.484 3.489 0 1.62.742 3.077 2.17 4.313 3.16 2.83 6.511 4.918 9.973 6.209 3.461 1.264 7.5 1.923 12.005 1.923 4.149 0 8.022-.797 11.511-2.335 3.517-1.566 6.319-3.791 8.352-6.621 2.06-2.857 3.104-6.154 3.104-9.808 0-4.148-.879-7.555-2.582-10.165-1.676-2.637-4.121-4.697-7.253-6.153zM373.571 49.038c-.961-1.016-2.17-1.51-3.598-1.51h-15.99c-1.428 0-2.637.494-3.626 1.456-1.016.961-1.51 2.225-1.51 3.708 0 1.429.521 2.638 1.51 3.6.99.96 2.225 1.455 3.627 1.455h10.22v13.16c-1.484.659-3.242 1.208-5.248 1.648-2.198.467-4.34.714-6.346.714-4.203 0-8.077-1.044-11.539-3.104a22.971 22.971 0 0 1-8.269-8.434c-2.005-3.517-3.022-7.473-3.022-11.758 0-4.286 1.017-8.242 3.022-11.786 2.006-3.572 4.78-6.401 8.27-8.434 3.461-2.033 7.362-3.077 11.565-3.077 3.901 0 7.83.879 11.621 2.637.77.495 1.704.742 2.747.742 1.374 0 2.555-.522 3.517-1.566.962-1.016 1.429-2.253 1.429-3.681 0-.88-.22-1.676-.66-2.39-.44-.715-1.071-1.32-1.895-1.814-2.308-1.373-4.918-2.417-7.803-3.077-2.857-.686-5.879-1.016-8.956-1.016-6.181 0-11.923 1.511-17.06 4.478-5.165 2.967-9.286 7.06-12.253 12.143-2.967 5.11-4.478 10.77-4.478 16.895 0 6.127 1.511 11.786 4.478 16.896 2.967 5.082 7.088 9.176 12.253 12.143 5.165 2.967 10.907 4.478 17.06 4.478 3.572 0 7.116-.522 10.495-1.539 3.379-1.016 6.538-2.472 9.368-4.313 1.703-1.044 2.555-2.555 2.555-4.478v-20.44c-.055-1.51-.55-2.747-1.484-3.736z"/>
        </g>
    </g>
</svg>
