<?xml version="1.0" encoding="utf-8"?>
<!-- Generator: Adobe Illustrator 21.0.0, SVG Export Plug-In . SVG Version: 6.00 Build 0)  -->
<svg version="1.1" id="Layer_1" xmlns="http://www.w3.org/2000/svg" xmlns:xlink="http://www.w3.org/1999/xlink" x="0px" y="0px"
	 viewBox="0 0 841.9 666.7" style="enable-background:new 0 0 841.9 666.7;" xml:space="preserve">
<style type="text/css">
	.st0{opacity:5.000000e-02;}
	.st1{fill:#AE3FE8;}
	.st2{fill:#4563FF;}
	.st3{fill:#CAC5E4;}
	.st4{fill:#EACAB3;}
	.st5{fill:#4D2F15;}
	.st6{fill:#513FE8;}
	.st7{fill:#F1F0F8;}
	.st8{fill:#221101;}
	.st9{fill:#CD9476;}
	.st10{fill:#343434;}
	.st11{fill:#8B8B8B;}
	.st12{fill:#3C3C3B;}
	.st13{fill:#151515;}
	.st14{fill:#393939;}
	.st15{fill:#252F3E;}
	.st16{fill:#FF9900;}
	.st17{fill:#694C47;}
	.st18{fill:#F4DBB9;}
	.st19{fill:#0B87BE;}
	.st20{fill:#46B7E3;}
	.st21{fill:#FFD14F;}
	.st22{fill:#121F2F;}
	.st23{fill:#FFFFFF;}
	.st24{fill:#E9BD8C;}
	.st25{fill:#9B7457;}
	.st26{fill:url(#coin_1_);}
	.st27{fill:#251440;}
	.st28{fill:#9452FF;}
	.st29{opacity:0.2;clip-path:url(#SVGID_2_);fill:#9452FF;}
	.st30{fill:#9452FF;stroke:#9452FF;stroke-width:1.1518;stroke-linecap:round;stroke-linejoin:round;stroke-miterlimit:10;}
	.st31{fill:none;stroke:#9452FF;stroke-width:2.3613;stroke-linecap:round;stroke-linejoin:round;}
	.st32{fill:#1AB644;}
	.st33{fill:none;stroke:url(#SVGID_3_);stroke-width:2.3613;stroke-linecap:round;stroke-linejoin:round;}
	.st34{fill:url(#SVGID_4_);}
	.st35{fill:url(#SVGID_5_);}
	.st36{fill:none;stroke:url(#SVGID_6_);stroke-width:2.3613;stroke-linecap:round;stroke-linejoin:round;}
	.st37{fill:url(#SVGID_7_);}
	.st38{fill:url(#SVGID_8_);}
	.st39{fill:none;stroke:url(#SVGID_9_);stroke-width:2.3613;stroke-linecap:round;stroke-linejoin:round;}
	.st40{fill:url(#SVGID_10_);}
	.st41{fill:url(#SVGID_11_);}
	.st42{fill:none;stroke:url(#SVGID_12_);stroke-width:2.3613;stroke-linecap:round;stroke-linejoin:round;}
	.st43{fill:url(#SVGID_13_);}
	.st44{fill:url(#SVGID_14_);}
	.st45{fill:none;stroke:url(#SVGID_15_);stroke-width:2.3613;stroke-linecap:round;stroke-linejoin:round;}
	.st46{fill:url(#SVGID_16_);}
	.st47{fill:url(#SVGID_17_);}
	.st48{fill:none;stroke:url(#SVGID_18_);stroke-width:2.3613;stroke-linecap:round;stroke-linejoin:round;}
	.st49{fill:url(#SVGID_19_);}
	.st50{fill:url(#SVGID_20_);}
	.st51{fill:none;stroke:url(#SVGID_21_);stroke-width:2.3613;stroke-linecap:round;stroke-linejoin:round;}
	.st52{fill:url(#SVGID_22_);}
	.st53{fill:url(#SVGID_23_);}
	.st54{fill:none;stroke:url(#SVGID_24_);stroke-width:2.3613;stroke-linecap:round;stroke-linejoin:round;}
	.st55{fill:url(#SVGID_25_);}
	.st56{fill:url(#SVGID_26_);}
</style>
<g>
	<g id="Diagram-1_6_">
		<g id="Circle-MESG_416_" class="st0">
			<path class="st1" d="M626.6,263.6c0,16.9-92.1,137.1-205.7,137.1S215.3,280.5,215.3,263.6c0-113.6,92.1-205.7,205.7-205.7
				S626.6,150,626.6,263.6z"/>
		</g>
		<g id="Circle-MESG_414_" class="st0">
			<path class="st1" d="M574.5,263.6c0,16.9-68.8,137.1-153.6,137.1S267.3,280.5,267.3,263.6c0-84.8,68.8-153.6,153.6-153.6
				S574.5,178.8,574.5,263.6z"/>
		</g>
		<g id="Circle-MESG_412_" class="st0">
			<path class="st1" d="M535.6,263.6c0,16.9-51.4,137.1-114.7,137.1S306.2,280.5,306.2,263.6c0-63.3,51.4-114.7,114.7-114.7
				S535.6,200.3,535.6,263.6z"/>
		</g>
		<g id="Circle-MESG_410_" class="st0">
			<path class="st1" d="M506.6,263.6c0,16.9-38.3,137.1-85.7,137.1s-85.7-120.2-85.7-137.1c0-47.3,38.3-85.7,85.7-85.7
				S506.6,216.3,506.6,263.6z"/>
		</g>
		<g id="Circle-MESG_408_" class="st0">
			<path class="st2" d="M626.6,403.1c0,0-92.1-2.4-205.7-2.4s-205.7,2.4-205.7,2.4c0,113.6,92.1,205.7,205.7,205.7
				S626.6,516.7,626.6,403.1z"/>
		</g>
		<g id="Circle-MESG_406_" class="st0">
			<path class="st2" d="M574.6,403.1c0,0-68.8-2.4-153.6-2.4s-153.6,2.4-153.6,2.4c0,84.8,68.8,153.6,153.6,153.6
				S574.6,487.9,574.6,403.1z"/>
		</g>
		<g id="Circle-MESG_404_" class="st0">
			<path class="st2" d="M535.7,403.1c0,0-51.4-2.4-114.7-2.4s-114.7,2.4-114.7,2.4c0,63.3,51.4,114.7,114.7,114.7
				S535.7,466.5,535.7,403.1z"/>
		</g>
		<g id="Circle-MESG_402_" class="st0">
			<path class="st2" d="M506.6,403.1c0,0-38.4-2.4-85.7-2.4s-85.6,2.4-85.6,2.4c0,47.3,38.3,85.7,85.7,85.7S506.6,450.4,506.6,403.1
				z"/>
		</g>
		<g>
			<g>
				<circle class="st3" cx="226.1" cy="525.8" r="35.4"/>
				<g>
					<path class="st4" d="M242,519.7c0,10-10,20.3-15.9,20.3c-6.3,0-15.9-10.3-15.9-20.3s5.9-18.1,15.9-18.1
						C236.1,501.5,242,509.7,242,519.7z"/>
					<path class="st4" d="M226.1,560.8c-7.5,0-26-9.5-25.2-11.2c4.3-8.6,14.2-11.9,25.2-11.9c10.9,0,19.7,3.8,25.1,11.7
						C252.4,551.3,236.2,560.8,226.1,560.8z"/>
					<polygon class="st4" points="234.9,543.5 217.2,543.5 217.8,530 234.3,530 					"/>
					<path class="st4" d="M212.2,520.1c0.5,2.2,0,4.3-1,4.7c-1,0.3-2.2-1.2-2.7-3.4c-0.5-2.2,0-4.3,1-4.7
						C210.6,516.4,211.8,517.9,212.2,520.1z"/>
					<path class="st4" d="M243.6,521.4c-0.5,2.2-1.7,3.8-2.6,3.5c-1-0.3-1.4-2.4-0.9-4.6c0.5-2.2,1.7-3.8,2.6-3.5
						C243.6,517,244.1,519.1,243.6,521.4z"/>
					<path class="st5" d="M210.3,516.9c0,0-0.2-16.6,14.1-16.6c2.4-0.9,9.2-1.4,14.5,4.3c4.8,5.1,2.9,12.3,2.9,12.3
						s-9.7-1.1-16.6-10C225.3,506.8,215.4,508,210.3,516.9z"/>
					<path class="st6" d="M217.2,538.4c0,0,4,8.1,8.9,8.1c4.9,0,9-8.2,9-8.2s9.3-0.1,16.5,10.2c0,0-11.3,11.8-24.9,11.8
						s-25.8-11.9-25.8-11.9S206.2,539.2,217.2,538.4z"/>
				</g>
				<g>
					<path class="st7" d="M226.1,492.7c18.2,0,33.1,14.8,33.1,33.1c0,8.8-3.4,17.1-9.7,23.4c-6.2,6.2-14.5,9.7-23.4,9.7
						c-18.2,0-33.1-14.8-33.1-33.1c0-8.8,3.4-17.1,9.7-23.4C208.9,496.1,217.2,492.7,226.1,492.7 M226.1,490.3
						c-19.6,0-35.4,15.9-35.4,35.4c0,19.6,15.9,35.4,35.4,35.4c19.6,0,35.4-15.9,35.4-35.4C261.5,506.2,245.6,490.3,226.1,490.3
						L226.1,490.3z"/>
				</g>
			</g>
			<g>
				<circle class="st3" cx="355.1" cy="597.9" r="35.4"/>
				<g>
					<path class="st8" d="M339.8,595.5c0,0,1.9,17.5-0.1,19.6h30.5c0,0-1.1-14.8,0.4-20.8L339.8,595.5z"/>
					<path class="st5" d="M370,591.8c0,10-8.9,20.3-14.9,20.3c-6.3,0-14.9-10.3-14.9-20.3c0-10,4.8-18.1,14.9-18.1
						S370,581.8,370,591.8z"/>
					<path class="st5" d="M355.1,633c-7.5,0-26-9.5-25.2-11.2c4.3-8.6,14.2-11.9,25.2-11.9c10.9,0,19.7,3.8,25.1,11.7
						C381.4,623.5,365.2,633,355.1,633z"/>
					<polygon class="st5" points="362.9,615.6 347.4,615.6 348,602.2 362.2,602.2 					"/>
					<path class="st8" d="M373.6,613.8c-0.8-3.7-0.5-24.8-0.5-24.8c0-4.6-3.1-17.8-18-16c-14.7-1.9-18,10.9-18,16
						c0,0.5,0.1,23.4-0.4,24.8c-1.3,3.5,6-0.9,6-2.2c0-3,0-21.7,0.4-21.9c0.3-0.2,1.6-0.4,3.1-0.6l0.7-4.4l0.8,4.3
						c2.5-0.3,5.3-0.5,7.2-0.5c1.5,0,4.4,0.3,6.9,0.7l0.3-2.1l0.4,2.3c0.5,0.1,0.9,0.1,1.3,0.2l0.3-1.7l0.3,1.8
						c1.2,0.2,2,0.5,2.2,0.6c0.7,0.8,0.7,22.8,1,23.6C368.2,614.9,374.3,617.1,373.6,613.8z"/>
					<path class="st6" d="M346.2,610.6c0,0,6.6,9.7,8.9,9.7c2.6,0,9-9.7,9-9.7s9.3-0.1,16.5,10.2c0,0-11.3,11.8-24.9,11.8
						c-13.6,0-25.8-11.9-25.8-11.9S335.2,611.4,346.2,610.6z"/>
				</g>
				<g>
					<path class="st7" d="M355.1,564.9L355.1,564.9c18.2,0,33.1,14.8,33.1,33.1c0,8.8-3.4,17.1-9.7,23.4c-6.2,6.2-14.5,9.7-23.4,9.7
						c-18.2,0-33.1-14.8-33.1-33.1c0-8.8,3.4-17.1,9.7-23.4C338,568.3,346.3,564.9,355.1,564.9 M355.1,562.5
						c-19.6,0-35.4,15.9-35.4,35.4s15.9,35.4,35.4,35.4c19.6,0,35.4-15.9,35.4-35.4S374.7,562.5,355.1,562.5L355.1,562.5z"/>
				</g>
			</g>
			<g>
				<circle class="st3" cx="486.7" cy="597.9" r="35.4"/>
				<g>
					<path class="st5" d="M502.6,591.8c0,10-10,20.3-15.9,20.3c-6.3,0-15.9-10.3-15.9-20.3c0-10,5.9-18.1,15.9-18.1
						S502.6,581.8,502.6,591.8z"/>
					<path class="st5" d="M486.7,633c-7.5,0-26-9.5-25.2-11.2c4.3-8.6,14.2-11.9,25.2-11.9c10.9,0,19.7,3.8,25.1,11.7
						C513,623.5,496.8,633,486.7,633z"/>
					<polygon class="st5" points="495.5,615.6 477.8,615.6 478.5,602.2 494.9,602.2 					"/>
					<path class="st5" d="M472.9,592.3c0.5,2.2,0,4.3-1,4.7c-1,0.3-2.2-1.2-2.7-3.4c-0.5-2.2,0-4.3,1-4.7
						C471.2,588.5,472.4,590.1,472.9,592.3z"/>
					<path class="st5" d="M504.2,593.5c-0.5,2.2-1.7,3.8-2.6,3.5c-1-0.3-1.4-2.4-0.9-4.6c0.5-2.2,1.7-3.8,2.6-3.5
						S504.7,591.3,504.2,593.5z"/>
					<path class="st8" d="M470.9,589c0,0-0.2-16.6,14.1-16.6c2.4-0.9,9.2-1.4,14.5,4.3c4.8,5.1,2.9,12.3,2.9,12.3s-9.7-1.1-16.6-10
						C485.9,579,476,580.2,470.9,589z"/>
					<path class="st6" d="M477.8,610.6c0,0,4,8.1,8.9,8.1c4.9,0,9-8.2,9-8.2s9.3-0.1,16.5,10.2c0,0-11.3,11.8-24.9,11.8
						s-25.8-11.9-25.8-11.9S466.8,611.4,477.8,610.6z"/>
				</g>
				<g>
					<path class="st7" d="M486.7,564.9L486.7,564.9c18.2,0,33.1,14.8,33.1,33.1c0,8.8-3.4,17.1-9.7,23.4c-6.2,6.2-14.5,9.7-23.4,9.7
						c-18.2,0-33.1-14.8-33.1-33.1c0-8.8,3.4-17.1,9.7-23.4C469.6,568.3,477.9,564.9,486.7,564.9 M486.7,562.5
						c-19.6,0-35.4,15.9-35.4,35.4s15.9,35.4,35.4,35.4c19.6,0,35.4-15.9,35.4-35.4S506.2,562.5,486.7,562.5L486.7,562.5z"/>
				</g>
			</g>
			<g>
				<circle class="st3" cx="615.8" cy="525.8" r="35.4"/>
				<g>
					<path class="st5" d="M600.5,523.3c0,0,1.9,17.5-0.1,19.6h30.5c0,0-1.1-14.8,0.4-20.8L600.5,523.3z"/>
					<path class="st9" d="M630.7,519.7c0,10-8.9,20.3-14.9,20.3c-6.3,0-14.9-10.3-14.9-20.3s4.8-18.1,14.9-18.1
						C625.8,501.5,630.7,509.7,630.7,519.7z"/>
					<path class="st9" d="M615.8,560.8c-7.5,0-26-9.5-25.2-11.2c4.3-8.6,14.2-11.9,25.2-11.9c10.9,0,19.7,3.8,25.1,11.7
						C642.2,551.3,626,560.8,615.8,560.8z"/>
					<polygon class="st9" points="623.6,543.5 608.1,543.5 608.7,530 623,530 					"/>
					<path class="st5" d="M634.3,541.6c-0.8-3.7-0.5-24.8-0.5-24.8c0-4.6-3.1-17.8-18-16c-14.7-1.9-18,10.9-18,16
						c0,0.5,0.1,23.4-0.4,24.8c-1.3,3.5,6-0.9,6-2.2c0-3,0-21.7,0.4-21.9c0.3-0.2,1.6-0.4,3.1-0.6l0.7-4.4l0.8,4.3
						c2.5-0.3,5.3-0.5,7.2-0.5c1.5,0,4.4,0.3,6.9,0.7l0.3-2.1l0.4,2.3c0.5,0.1,0.9,0.1,1.3,0.2l0.3-1.7l0.3,1.8
						c1.2,0.2,2,0.5,2.2,0.6c0.7,0.8,0.7,22.8,1,23.6C628.9,542.7,635,544.9,634.3,541.6z"/>
					<path class="st6" d="M606.9,538.4c0,0,6.6,9.7,8.9,9.7c2.6,0,9-9.7,9-9.7s9.3-0.1,16.5,10.2c0,0-11.3,11.8-24.9,11.8
						c-13.6,0-25.8-11.9-25.8-11.9S595.9,539.2,606.9,538.4z"/>
				</g>
				<g>
					<path class="st7" d="M615.8,492.7c18.2,0,33.1,14.8,33.1,33.1c0,8.8-3.4,17.1-9.7,23.4s-14.5,9.7-23.4,9.7
						c-18.2,0-33.1-14.8-33.1-33.1c0-8.8,3.4-17.1,9.7-23.4C598.7,496.1,607,492.7,615.8,492.7 M615.8,490.3
						c-19.6,0-35.4,15.9-35.4,35.4c0,19.6,15.9,35.4,35.4,35.4c19.6,0,35.4-15.9,35.4-35.4C651.3,506.2,635.4,490.3,615.8,490.3
						L615.8,490.3z"/>
				</g>
			</g>
			<g>
				<g id="Logo-Ethereum_20_">
					<g>
						<path class="st7" d="M355.1,103c-18.9,0-34.2-15.4-34.2-34.2s15.4-34.2,34.2-34.2s34.2,15.4,34.2,34.2S374,103,355.1,103z"/>
						<path class="st3" d="M355.1,35.7c18.2,0,33.1,14.8,33.1,33.1s-14.8,33.1-33.1,33.1S322,87,322,68.8S336.9,35.7,355.1,35.7
							 M355.1,33.4c-19.6,0-35.4,15.9-35.4,35.4s15.9,35.4,35.4,35.4c19.6,0,35.4-15.9,35.4-35.4S374.7,33.4,355.1,33.4L355.1,33.4z
							"/>
					</g>
					<g>
						<polygon class="st10" points="355.1,46.9 354.8,47.9 354.8,76.8 355.1,77.1 368.5,69.2 						"/>
						<polygon class="st11" points="355.1,46.9 341.7,69.2 355.1,77.1 355.1,63.1 						"/>
						<polygon class="st12" points="355.1,79.6 354.9,79.9 354.9,90.1 355.1,90.6 368.5,71.7 						"/>
						<polygon class="st11" points="355.1,90.6 355.1,79.6 341.7,71.7 						"/>
						<polygon class="st13" points="355.1,77.1 368.5,69.2 355.1,63.1 						"/>
						<polygon class="st14" points="341.7,69.2 355.1,77.1 355.1,63.1 						"/>
					</g>
				</g>
			</g>
			<g id="Logo-AWS_36_">
				<g>
					<path class="st7" d="M226.1,175.2c-18.9,0-34.2-15.4-34.2-34.2s15.4-34.2,34.2-34.2s34.2,15.4,34.2,34.2
						S244.9,175.2,226.1,175.2z"/>
					<path class="st3" d="M226.1,107.9c18.2,0,33.1,14.8,33.1,33.1S244.3,174,226.1,174S193,159.2,193,140.9
						S207.8,107.9,226.1,107.9 M226.1,105.5c-19.6,0-35.4,15.9-35.4,35.4s15.9,35.4,35.4,35.4s35.4-15.9,35.4-35.4
						S245.6,105.5,226.1,105.5L226.1,105.5z"/>
				</g>
				<g>
					<path class="st15" d="M216.5,137.4c0,0.5,0.1,1,0.2,1.3c0.1,0.3,0.3,0.7,0.5,1c0.1,0.1,0.1,0.2,0.1,0.3c0,0.1-0.1,0.3-0.3,0.4
						l-0.9,0.6c-0.1,0.1-0.3,0.1-0.4,0.1c-0.1,0-0.3-0.1-0.4-0.2c-0.2-0.2-0.4-0.5-0.5-0.7c-0.1-0.2-0.3-0.5-0.5-0.9
						c-1.1,1.3-2.6,2-4.3,2c-1.2,0-2.2-0.3-2.9-1c-0.7-0.7-1.1-1.6-1.1-2.8c0-1.2,0.4-2.2,1.3-3c0.9-0.8,2.1-1.1,3.6-1.1
						c0.5,0,1,0,1.5,0.1s1.1,0.2,1.7,0.3v-1.1c0-1.1-0.2-1.9-0.7-2.3c-0.5-0.5-1.2-0.7-2.4-0.7c-0.5,0-1,0.1-1.6,0.2
						c-0.5,0.1-1.1,0.3-1.6,0.5c-0.2,0.1-0.4,0.2-0.5,0.2c-0.1,0-0.2,0-0.2,0c-0.2,0-0.3-0.1-0.3-0.5v-0.7c0-0.2,0-0.4,0.1-0.5
						s0.2-0.2,0.4-0.3c0.5-0.3,1.1-0.5,1.8-0.7c0.7-0.2,1.5-0.3,2.3-0.3c1.7,0,3,0.4,3.8,1.2c0.8,0.8,1.2,2,1.2,3.6L216.5,137.4
						L216.5,137.4z M210.6,139.6c0.5,0,1-0.1,1.5-0.3s1-0.5,1.4-0.9c0.2-0.3,0.4-0.6,0.5-0.9c0.1-0.3,0.1-0.8,0.1-1.3v-0.6
						c-0.4-0.1-0.9-0.2-1.3-0.2c-0.5-0.1-0.9-0.1-1.4-0.1c-1,0-1.7,0.2-2.2,0.6c-0.5,0.4-0.7,0.9-0.7,1.7c0,0.7,0.2,1.2,0.5,1.5
						C209.4,139.4,210,139.6,210.6,139.6z M222.3,141.1c-0.3,0-0.4,0-0.6-0.1c-0.1-0.1-0.2-0.3-0.3-0.6l-3.4-11.2
						c-0.1-0.3-0.1-0.5-0.1-0.6c0-0.2,0.1-0.4,0.3-0.4h1.4c0.3,0,0.5,0,0.6,0.1c0.1,0.1,0.2,0.3,0.3,0.6l2.4,9.6l2.3-9.6
						c0.1-0.3,0.2-0.5,0.3-0.6c0.1-0.1,0.3-0.1,0.6-0.1h1.2c0.3,0,0.5,0,0.6,0.1c0.1,0.1,0.2,0.3,0.3,0.6l2.3,9.7l2.5-9.7
						c0.1-0.3,0.2-0.5,0.3-0.6c0.1-0.1,0.3-0.1,0.6-0.1h1.4c0.2,0,0.4,0.1,0.4,0.4c0,0.1,0,0.1,0,0.2s0,0.2-0.1,0.4l-3.5,11.2
						c-0.1,0.3-0.2,0.5-0.3,0.6s-0.3,0.1-0.6,0.1h-1.2c-0.3,0-0.5,0-0.6-0.1c-0.1-0.1-0.2-0.3-0.3-0.6l-2.3-9.4l-2.2,9.4
						c-0.1,0.3-0.2,0.5-0.3,0.6c-0.1,0.1-0.3,0.1-0.6,0.1H222.3z M241,141.5c-0.8,0-1.5-0.1-2.2-0.3c-0.7-0.2-1.3-0.4-1.7-0.6
						c-0.2-0.1-0.4-0.3-0.5-0.4c-0.1-0.1-0.1-0.3-0.1-0.4v-0.7c0-0.3,0.1-0.5,0.3-0.5c0.1,0,0.2,0,0.3,0s0.2,0.1,0.4,0.1
						c0.5,0.2,1,0.4,1.6,0.5c0.6,0.1,1.1,0.2,1.7,0.2c0.9,0,1.6-0.2,2.1-0.5c0.5-0.3,0.8-0.8,0.8-1.4c0-0.4-0.1-0.7-0.4-1
						c-0.3-0.3-0.8-0.5-1.5-0.8l-2.1-0.7c-1.1-0.3-1.8-0.8-2.3-1.5c-0.5-0.6-0.7-1.4-0.7-2.1c0-0.6,0.1-1.1,0.4-1.6
						c0.3-0.5,0.6-0.9,1-1.2c0.4-0.3,0.9-0.6,1.5-0.8c0.6-0.2,1.2-0.2,1.8-0.2c0.3,0,0.7,0,1,0.1c0.3,0,0.6,0.1,0.9,0.2
						c0.3,0.1,0.6,0.1,0.8,0.2c0.3,0.1,0.5,0.2,0.6,0.3c0.2,0.1,0.3,0.2,0.4,0.4c0.1,0.1,0.1,0.3,0.1,0.5v0.7c0,0.3-0.1,0.5-0.3,0.5
						c-0.1,0-0.3-0.1-0.6-0.2c-0.8-0.4-1.8-0.6-2.8-0.6c-0.8,0-1.5,0.1-1.9,0.4c-0.5,0.3-0.7,0.7-0.7,1.3c0,0.4,0.1,0.8,0.4,1
						c0.3,0.3,0.8,0.6,1.6,0.8l2.1,0.7c1,0.3,1.8,0.8,2.3,1.4c0.5,0.6,0.7,1.3,0.7,2c0,0.6-0.1,1.2-0.4,1.7
						c-0.3,0.5-0.6,0.9-1.1,1.3c-0.5,0.4-1,0.6-1.6,0.8C242.4,141.4,241.7,141.5,241,141.5z"/>
					<path class="st16" d="M243.7,148.6c-4.8,3.5-11.7,5.4-17.7,5.4c-8.4,0-15.9-3.1-21.6-8.2c-0.5-0.4,0-1,0.5-0.6
						c6.2,3.6,13.8,5.7,21.6,5.7c5.3,0,11.1-1.1,16.5-3.4C243.8,147.1,244.5,148,243.7,148.6z M245.7,146.3c-0.6-0.8-4-0.4-5.6-0.2
						c-0.5,0.1-0.5-0.3-0.1-0.7c2.7-1.9,7.2-1.4,7.7-0.7c0.5,0.7-0.1,5.1-2.7,7.3c-0.4,0.3-0.8,0.2-0.6-0.3
						C245,150.3,246.3,147.1,245.7,146.3z"/>
				</g>
			</g>
			<g id="Logo-Mailchimp_76_">
				<g>
					<path class="st7" d="M486.7,103c-18.9,0-34.2-15.4-34.2-34.2s15.4-34.2,34.2-34.2c18.9,0,34.2,15.4,34.2,34.2
						S505.6,103,486.7,103z"/>
					<path class="st3" d="M486.7,35.7c18.2,0,33.1,14.8,33.1,33.1s-14.8,33.1-33.1,33.1S453.6,87,453.6,68.8S468.5,35.7,486.7,35.7
						 M486.7,33.4c-19.6,0-35.4,15.9-35.4,35.4s15.9,35.4,35.4,35.4c19.6,0,35.4-15.9,35.4-35.4S506.2,33.4,486.7,33.4L486.7,33.4z"
						/>
				</g>
				<g>
					<path class="st17" d="M502.4,87.3V88h0.2v-0.5l0.1,0.5h0.2l0.1-0.5V88h0.2v-0.7h-0.3l-0.1,0.4l-0.1-0.4H502.4 M501.9,87.5V88
						h0.2v-0.5h0.2v-0.2h-0.6v0.2H501.9z M506.9,78.2c0,0.1-3.2,12.5-15.9,12.5c-10.9,0-16.1-9.5-16.1-9.5c-0.8,0-1.6-0.1-2.3-0.3
						c-3.2-1.2-4.7-4.8-3.6-7.9l-1.8-1.3c-6.8-5.2,12.5-29,19.3-23.6c0,0,1.6,1.3,1.6,1.3c2.5-1.5,4.9-2.3,6.9-2.3
						c1.4,0,2.6,0.4,3.4,1.3c1.8,1.9,1.1,5.6-1.3,9.3c0.5,0.5,1,1.2,1.3,1.8c0.8,0.6,1.3,1.5,1.5,2.7c0.3,1.4,0.3,3.4,0.5,4.2
						c0.7,0.3,0.4,0.2,1.1,0.5c0.7,0.4,1.6,0.8,2.6,1.7c1.7,0.4,2.4,2.3,1.4,3.5c0,0-0.1,0.2-0.3,0.3c0,0.1,0.4,0.6,0.6,1.7
						c0.7,0.2,1.3,0.6,1.6,1.3C507.9,76.6,506.9,78.2,506.9,78.2z"/>
					<path class="st18" d="M501.6,83.6c3.4-2.7,4-5.9,4.1-6c0.8-1,0.6-2-0.5-2c-0.4,0-0.6,0.1-0.6,0.1s0-1.5-0.7-2.6
						c-0.5,0.6-2,1.8-3.9,2.7c-1.8,0.9-4.2,1.6-7.2,1.7h0c-0.8,0-1.3-0.1-1.6,0.9c-0.1,0.3-0.1,0.9,0,1c0.2,0.8,0.8,1.2,1.7,1.3
						c0.6,0.1,1.3,0.2,1.3,0.2c6,0.2,10.9-4.5,10.9-4.6c0.1,0,0.1-0.1,0.1-0.1s-0.1,0.1-0.1,0.1c-0.9,2-5.9,5.5-10.9,5.4l0,0
						c-1.2,0-2.6-0.3-3.3-1.2c-1.2-1.4-0.6-3.8,1.3-3.9c0,0,0.4,0,0.6,0c4.6-0.1,8.7-1.8,11.7-5.3c0.4-0.5,0-1.2-0.9-1.2
						c0,0,0,0,0,0c-1-1.1-2-1.5-2.8-1.9c-1.7-0.9-1.5-0.1-1.9-4.3c-0.1-1.1-0.3-2.7-1.3-3.3c-0.3-0.2-0.5-0.2-0.8-0.2
						c-0.3,0-0.4,0.1-0.5,0.1c-0.5,0.1-0.9,0.4-1.2,0.8c-1.8,1.7-3.3,1.2-5.5,1.2c-2.1,0-3.9,1.4-4.2,3.6l0,0
						c-0.2,1.2-0.1,2.3,0.1,2.9c0,0-0.6-0.4-0.8-0.7c0.3,2,2.2,3.3,2.2,3.3c-0.3,0.1-0.7,0-0.7,0s1.1,0.8,2,1.1
						c-0.2,0.1-1.4,1.3-2.1,3c-0.6,1.5-0.3,3.4-0.3,3.4l0.5-0.8c0,0-0.3,1.7,0.3,3.3c0.2-0.5,0.7-1.3,0.7-1.3s-0.1,1.8,0.8,3.3
						c0-0.3,0.2-1.2,0.2-1.2s0.5,1.5,1.6,2.6C491.5,86.6,497.2,87,501.6,83.6 M477.5,73.5L477.5,73.5c0.3-0.7,0.4-1.3,0.4-1.3
						c0.3,1,0.5,2,0.4,3c0.3-0.3,0.5-1,0.5-1c0.5,2.9-1.6,5.5-4.4,5.5c-2.4,0-4.4-2.1-4.4-4.7c0-2.6,2-4.7,4.4-4.7
						c0.6,0,1.2,0.1,1.8,0.4C476.3,70.8,477.2,71.3,477.5,73.5z"/>
					<path class="st19" d="M469.7,71.6c0,0-1.7-1.2-1.9-1.6c-1.4-2.3,1-7.1,2.7-9.9c4.2-6.7,11.3-12.1,14.5-11.3l3.3,1.7
						c-1.3,0.8-2.5,1.7-3.3,2.3l-0.7,0.6c0,0-2,1.4-3.1,2.2c-4.1,3.5-8.1,8.9-9.6,14.1C471.7,69.6,470.5,70.3,469.7,71.6"/>
					<path class="st20" d="M485,48.8L485,48.8c-3.2-0.8-10.3,4.6-14.5,11.3c0,0,0,0,0,0l0,0l3.4,2.7c3.7-5.9,8.4-8.9,8.5-9l-0.5-3.6
						l1-0.5l2,0.7l-0.2-0.7L485,48.8"/>
					<path class="st21" d="M488.3,50.5l-3.3,2.3l-0.2,0.2l-2.9-2.4l-0.1-0.4l1-0.5c0.1,0,1.9,0.6,2,0.7l0-1.2l0.1-0.3l0.9-0.3
						C485.9,48.4,488.3,50.5,488.3,50.5"/>
					<path class="st22" d="M494.7,48.2c-2.2,0-4.6,1.1-6.4,2.2c-0.3,0.2-0.5,0.3-0.8,0.5l-1-0.8l0.4,1.2c-0.1,0.1-0.3,0.2-0.4,0.3
						l-2-0.6l1.3,1.1c-0.3,0.2-0.6,0.4-0.8,0.6l-3.2-2.6l0.2,1.2l2.3,2c0,0-2,1.4-3.1,2.2c-4.1,3.5-8.1,8.9-9.6,14.1l0.1,0
						c0,0,0,0,0,0c0,0,0.1,0,0.1-0.1c0,0,0.1,0,0.1,0c0,0,0.1,0,0.1-0.1c0,0,0.1,0,0.1,0c0,0,0.1,0,0.1-0.1c0,0,0,0,0.1,0
						c0.1,0,0.1,0,0.2-0.1c1-0.3,2.4-0.5,4,0.2c0.8-2,1.8-4.1,3.3-6.1c1.2-1.6,2.4-3.1,3.8-3.9c2.7-2.5,10-5.2,12.3-2.9
						c0.6-0.9,1-1.8,1.4-2.8C498.5,51.2,498.5,48.2,494.7,48.2"/>
					<polyline class="st22" points="485.5,50.5 485,48.8 484.7,49.6 484.9,50.3 485.5,50.5 					"/>
					<path class="st23" d="M490.4,49.4c1.2-0.5,2.4-1,3.6-1.1c-1.2,0.3-2.7,0.9-4.4,2c0,0-4.1,2.8-6.6,5.2c-1.4,1.3-6.8,7.8-6.8,7.8
						c1-1.9,1.6-2.8,3.2-4.8c0.9-1.1,1.8-2.2,2.8-3.2c0.3-0.3,0.7-0.7,1-1C483.4,54.2,486.2,51.3,490.4,49.4 M504.5,75.6
						c0,0,0-1.5-0.7-2.6c-0.5,0.6-2,1.8-3.9,2.7c-1.8,0.9-4.2,1.6-7.2,1.7h0c-0.8,0-1.3-0.1-1.6,0.9c0,0.1,0,0.2,0,0.3l0,0l0,0
						c0,0,0,0.1,0,0.1c0,0.1,0,0.2,0,0.2l0,0c0,0,0,0,0,0c0,0,0,0.1,0,0.1l0,0l0,0c0,0.2,0.1,0.2,0.1,0.2l0,0l0,0
						c0.2,0.8,0.8,1.1,1.6,1.3c0.6,0.1,1.3,0.2,1.3,0.2c4.9,0.1,9-3,10.4-4.1C504.5,76.3,504.5,76,504.5,75.6z"/>
					<path class="st24" d="M476.1,77L476.1,77c0.3-0.3,0.4-0.7,0.3-1c-0.1-0.5-0.7-0.6-1.1-1.1c0,0,0,0,0,0c0,0,0,0,0,0l0,0
						c-0.2-0.2-0.2-0.4-0.2-0.7c0-0.6,0.5-0.7,0.8-0.6c0,0,0.3,0.1,0.5,0.4l0,0c0-0.1,0-0.3-0.2-0.5c-0.3-0.4-1-0.9-2-0.7h0
						c-0.2,0-0.1,0-0.3,0.1c0,0-0.1,0-0.1,0c-0.1,0-0.1,0-0.2,0.1c0,0-0.2,0.1-0.3,0.2C472.2,74.6,474,77.2,476.1,77 M500,77.4
						C500,77.4,500,77.4,500,77.4c-0.5,0.1-5.7,2.1-9,1.1c0,0.2,0,0.6,0.1,0.7l0,0c0.5,0.1,1.1,0.2,1.8,0.2
						C497.3,79.4,500.4,77.5,500,77.4z M499.4,67.4c-0.5-0.3-0.5-1-0.8-3.8c-0.1-0.9-0.2-2-0.8-2.8c-0.1-0.1-0.3-0.2-0.5-0.2
						c-0.3,0-0.7,0.3-1,0.6c-0.6,0.9-1.2,1.5-2.3,2c-1.1,0.5-2.1,0.7-3.2,0.6c-0.8,0-1.5-0.2-2.1-0.2c-1.2,0-2.3,0.4-3.1,1.4
						c-0.5,0.7-0.8,1.4-0.8,2.2c0,0.1,0,0.2,0,0.3c0,0.1,0,0.3,0,0.4c0.1,0.4,0.1,0.7,0.1,0.7l0,0c0,0,0,0,0,0.1
						c0,0-0.6-0.4-0.8-0.7c0.3,1.7,1.6,2.9,2,3.2c0,0,0.1,0,0.1,0.1c0,0,0,0,0,0c0,0,0.1,0,0.1,0c-0.3,0.1-0.7,0-0.7,0
						c0,0,1.1,0.8,2,1.1c1.2-1,2.6-1.4,3.7-1.5c0.7-0.4,1.4-0.8,2.2-1.2c-0.2-1.5,1.1-3,2.7-3.1c1.3-0.1,1.9,0.5,2.3,1.1
						C498.9,67.6,499.2,67.5,499.4,67.4C499.5,67.5,499.4,67.4,499.4,67.4z M490.3,78c0.2-0.8,0.8-1.5,1.8-1.5c0,0,0.4,0,0.6,0
						c4.6-0.1,8.7-1.8,11.7-5.3c0.4-0.5,0-1.2-0.9-1.2c0,0,0,0,0,0c-0.1,0.2-0.2,0.4-0.4,0.9c-0.9,1.6-2.1,2.3-3.8,3.1
						c-5.1,2.5-7.7,1.3-8.8,2.9C490.1,77.3,490.1,77.8,490.3,78L490.3,78z M497.6,68c-0.7-0.5-1.9-0.1-2.1,0.7
						c0.4,0,0.8,0.3,0.8,0.7c0.3-0.3,0.7-0.4,1.1-0.4C497.2,68.7,497.3,68.1,497.6,68z M501.6,83.6c-0.6,0.5-1.2,0.9-1.8,1.2
						c-1.4-0.6-2.3-1.7-2.3-1.7s1.2-0.3,2.9-1.1c2-1,3.9-2.5,5.3-4.4C505.6,77.7,505,80.9,501.6,83.6z"/>
					<path class="st25" d="M484.9,58.8c4.8-3.1,9.5-3.4,11.1-2.2l0,0c0,0,0-0.1,0-0.1c-0.4-0.9-1.4-1.5-2.2-1.7
						c0.2,0.2,0.4,0.4,0.5,0.6c-0.6-0.4-1.5-0.8-2.4-1c0,0,0.1,0.1,0.1,0.1c0.2,0.2,0.4,0.4,0.5,0.7c-0.9-0.3-1.9-0.5-2.9-0.4
						c0,0-0.1,0-0.1,0s0.1,0,0.1,0c0.3,0.1,0.7,0.3,0.9,0.5c-1.5-0.3-3.2,0-4.2,0.5c0.1,0,0.1,0,0.2,0c0.3,0,1,0.1,1.3,0.2
						c-1,0.2-2.4,0.6-3.1,1.3c0.1,0,0.9-0.1,1.2-0.1c-4.2,2.4-6.1,6-6.1,6C481.2,61.7,482.8,60.2,484.9,58.8 M495.1,69
						c-0.1,0.3,0,0.6,0.4,0.8c0.3,0.2,0.7,0.1,0.9-0.1c0.1-0.3,0-0.6-0.4-0.8C495.6,68.7,495.2,68.7,495.1,69z M497.8,68
						c-0.3,0-0.5,0.2-0.6,0.6s0.1,0.7,0.4,0.7c0.3,0,0.5-0.2,0.6-0.6C498.2,68.3,498.1,68,497.8,68z M475.7,74.5
						c-0.1-0.1-0.1-0.1-0.2-0.2c0-0.2,0-0.3,0.1-0.4c0.1-0.1,0.2-0.1,0.2-0.2c0-0.1-0.4-0.2-0.7,0.1c-0.2,0.2-0.3,0.7,0.1,1.1
						c0.4,0.4,1,0.5,1.1,1.1c0,0.1,0,0.2,0,0.2c0,0.1,0,0.2,0,0.2c-0.1,0.5-0.6,1-1.5,0.9c-0.2,0-0.3,0-0.3,0
						c-0.1,0.1,0.3,0.5,0.9,0.5c0.6,0,1.3-0.5,1.5-1.2c0,0,0.1-0.2,0.1-0.4c0-0.1,0-0.3,0-0.4C476.9,75,476,74.8,475.7,74.5z
						 M475.8,73.2L475.8,73.2L475.8,73.2c0.1,0.1,0.2,0.2,0.3,0.3c0.2,0.3,0.2,0.5,0.3,0.6c0,0,0.1,0,0.1,0c0.1-0.1,0.2-0.3,0.2-0.4
						l0,0c0-0.4-0.2-0.7-0.4-1l0,0c-0.2-0.2-0.3-0.3-0.6-0.5c-0.2-0.1-0.5-0.2-0.8-0.3c-0.5-0.1-1,0-1.2,0.1l0,0
						c-0.1,0-0.2,0-0.2,0.1c-0.8,0.3-1.4,0.9-1.7,1.7l0,0l0,0c-0.1,0.3-0.1,0.6-0.1,0.9c0,0.2,0,0.5,0.1,0.7v0l0,0l0,0
						c0.1,0.3,0.2,0.7,0.4,0.9l0,0c0.3,0.3,0.6,0.3,0.5,0c0-0.1-0.2-0.4-0.2-1c0-0.4,0-0.8,0.2-1.2c0.1-0.2,0.2-0.4,0.3-0.6
						c0.3-0.4,0.6-0.5,0.7-0.5c0,0,0.1,0,0.2-0.1c0,0,0,0,0.1,0c0.2-0.1,0.1,0,0.3-0.1h0C474.8,72.7,475.4,72.9,475.8,73.2z
						 M492.1,69.3c-0.3-0.2-0.8-0.4-1.3-0.3c-0.1,0-0.2,0.1-0.3,0.1c0,0-0.1,0-0.1,0c-0.2,0.1-0.4,0.2-0.6,0.4
						c-0.2,0.2-0.3,0.4-0.2,0.4c0.1,0,0.2,0,0.4-0.1c0.8-0.3,1.3-0.3,1.8-0.3c0.2,0,0.4,0,0.4,0C492.2,69.5,492.2,69.4,492.1,69.3z
						 M492.3,68.3c0.1,0.1,0.1,0.2,0.1,0.3c-0.1,0.1-0.3,0-0.7-0.2c-1-0.4-1.8-0.4-3.1,0.1c-0.3,0.1-0.6,0.2-0.7,0.2
						c-0.2,0,0-0.4,0.4-0.7c0.8-0.6,1.9-0.8,2.9-0.5C491.6,67.6,492,67.9,492.3,68.3z"/>
					<path class="st17" d="M496.2,65.5c0-0.3,0-0.9,0.4-1l0,0c0.5-0.2,1.2,1.2,1.3,2.4c-0.4-0.2-0.9-0.3-1.4-0.3
						C496.2,66.3,496.2,65.9,496.2,65.5"/>
				</g>
			</g>
			<g id="Logo-Bitcoin_20_">
				<g>
					<path class="st7" d="M615.8,175.2c-18.9,0-34.2-15.4-34.2-34.2s15.4-34.2,34.2-34.2c18.9,0,34.2,15.4,34.2,34.2
						S634.7,175.2,615.8,175.2z"/>
					<path class="st3" d="M615.8,107.9c18.2,0,33.1,14.8,33.1,33.1S634.1,174,615.8,174s-33.1-14.8-33.1-33.1
						S597.6,107.9,615.8,107.9 M615.8,105.5c-19.6,0-35.4,15.9-35.4,35.4s15.9,35.4,35.4,35.4s35.4-15.9,35.4-35.4
						S635.4,105.5,615.8,105.5L615.8,105.5z"/>
				</g>
				<g id="g16_21_" transform="scale(0.015625)">
					
						<linearGradient id="coin_1_" gradientUnits="userSpaceOnUse" x1="7994.2866" y1="48274.4141" x2="7994.2866" y2="48274.3281" gradientTransform="matrix(511.9456 0 0 -512.0052 -4053226.25 24724374)">
						<stop  offset="0" style="stop-color:#F8A94B"/>
						<stop  offset="1" style="stop-color:#F6921E"/>
					</linearGradient>
					<path id="coin_21_" class="st26" d="M40769.2,9358.6c-186.7,748.9-945.2,1204.6-1694.1,1017.9
						c-748.6-186.7-1204.4-945.2-1017.6-1694.1c186.6-749,945.1-1204.8,1693.8-1018C40500.2,7851.1,40955.9,8609.7,40769.2,9358.6
						L40769.2,9358.6z"/>
					
						<path id="symbol_21_" inkscape:connector-curvature="0" sodipodi:nodetypes="ccccccccccccccccccccccccccccccccccccccc" class="st23" d="
						M40029.4,8821.3c27.8-186-113.8-286-307.4-352.7l62.8-252l-153.4-38.2l-61.2,245.3c-40.3-10-81.7-19.5-122.9-28.9l61.6-246.9
						l-153.3-38.2l-62.9,251.9c-33.4-7.6-66.1-15.1-97.9-23l0.2-0.8l-211.5-52.8l-40.8,163.8c0,0,113.8,26.1,111.4,27.7
						c62.1,15.5,73.3,56.6,71.5,89.2c-172.1,690.2,0,0-172.1,690.2c-7.6,18.9-26.9,47.2-70.3,36.4c1.5,2.2-111.5-27.8-111.5-27.8
						l-76.1,175.6l199.6,49.8c37.1,9.3,73.5,19,109.3,28.2l-63.5,254.9l153.2,38.2l62.9-252.1c41.8,11.4,82.5,21.8,122.2,31.7
						l-62.6,251l153.4,38.2l63.5-254.4c261.5,49.5,458.2,29.5,541-207c66.7-190.5-3.3-300.3-140.9-372
						C39933.8,9023.4,40009.3,8957.5,40029.4,8821.3L40029.4,8821.3z M39679,9312.7c-47.4,190.5-368.1,87.5-472,61.7l84.2-337.6
						C39395.2,9062.7,39728.5,9114.1,39679,9312.7z M39726.5,8818.5c-43.2,173.2-310.2,85.2-396.7,63.6l76.4-306.2
						C39492.7,8597.5,39771.5,8637.8,39726.5,8818.5z"/>
				</g>
			</g>
		</g>
		<g>
			<g>
				<g id="MESG-Core_54_">
					<g id="Circle-MESG_349_">
						<path class="st27" d="M420.9,301.8c-18.9,0-34.2-15.4-34.2-34.2s15.4-34.2,34.2-34.2s34.2,15.4,34.2,34.2
							S439.8,301.8,420.9,301.8z"/>
						<path class="st28" d="M420.9,234.5L420.9,234.5c18.2,0,33.1,14.8,33.1,33.1c0,8.8-3.4,17.1-9.7,23.4
							c-6.2,6.2-14.5,9.7-23.4,9.7c-18.2,0-33.1-14.8-33.1-33.1c0-8.8,3.4-17.1,9.7-23.4C403.8,237.9,412.1,234.5,420.9,234.5
							 M420.9,232.1c-19.6,0-35.4,15.9-35.4,35.4c0,19.6,15.9,35.4,35.4,35.4c19.6,0,35.4-15.9,35.4-35.4
							C456.4,248,440.5,232.1,420.9,232.1L420.9,232.1z"/>
					</g>
					<g>
						<path class="st28" d="M413.1,256.1c-0.1-0.1-0.3-0.2-0.4-0.2c-0.2,0-0.4,0.1-0.5,0.3l-2.5,3.7l-2.4-3.7
							c-0.1-0.1-0.1-0.1-0.2-0.2c-0.1,0-0.2-0.1-0.3-0.1c-0.2,0-0.3,0.1-0.4,0.2c-0.1,0.1-0.2,0.3-0.2,0.4v6.4
							c0,0.2,0.1,0.3,0.2,0.4c0.1,0.1,0.2,0.2,0.4,0.2c0.2,0,0.3-0.1,0.4-0.2c0.1-0.1,0.2-0.3,0.2-0.4v-4.7l1.9,3
							c0.1,0.1,0.1,0.1,0.2,0.2c0.1,0.1,0.2,0.1,0.3,0.1c0.1,0,0.2,0,0.3-0.1c0.1,0,0.2-0.1,0.2-0.2l1.9-2.9v4.6
							c0,0.2,0.1,0.3,0.2,0.4c0.1,0.1,0.3,0.2,0.4,0.2c0.2,0,0.3-0.1,0.4-0.2c0.1-0.1,0.2-0.3,0.2-0.4v-6.4
							C413.3,256.4,413.2,256.2,413.1,256.1L413.1,256.1z"/>
						<path class="st28" d="M419.9,257.1c0.2,0,0.3-0.1,0.4-0.2c0.1-0.1,0.2-0.2,0.2-0.4c0-0.2-0.1-0.3-0.2-0.4
							c-0.1-0.1-0.3-0.2-0.4-0.2l-3.7,0c-0.2,0-0.3,0.1-0.4,0.2c-0.1,0.1-0.2,0.3-0.2,0.4v6.4c0,0.2,0.1,0.3,0.2,0.4
							c0.1,0.1,0.3,0.2,0.4,0.2l3.7,0c0.2,0,0.3-0.1,0.4-0.2c0.1-0.1,0.2-0.2,0.2-0.4c0-0.2-0.1-0.3-0.2-0.4l0,0
							c-0.1-0.1-0.3-0.2-0.4-0.2l-3.1,0v-2.2l2.6,0c0.2,0,0.3-0.1,0.4-0.2c0.1-0.1,0.2-0.2,0.2-0.4c0-0.2-0.1-0.3-0.2-0.4
							c-0.1-0.1-0.3-0.2-0.4-0.2h-2.6v-2H419.9z"/>
						<path class="st28" d="M426.4,259.6c-0.4-0.2-0.8-0.3-1.4-0.4c-0.5-0.1-0.9-0.3-1.2-0.5c-0.3-0.2-0.4-0.4-0.4-0.7
							c0-0.3,0.1-0.5,0.4-0.7c0.3-0.2,0.6-0.3,1.1-0.3c0.3,0,0.6,0.1,0.9,0.2c0.3,0.1,0.6,0.3,0.7,0.4c0.1,0.1,0.2,0.1,0.3,0.1
							c0.2,0,0.3-0.1,0.4-0.2c0.1-0.1,0.2-0.3,0.2-0.4c0-0.2-0.1-0.4-0.3-0.5c-0.2-0.2-0.6-0.4-1-0.6c-0.4-0.1-0.8-0.2-1.3-0.2
							c-0.5,0-1,0.1-1.3,0.3c-0.4,0.2-0.7,0.4-0.9,0.8c-0.2,0.3-0.3,0.7-0.3,1.1c0,0.6,0.2,1.1,0.6,1.5c0.4,0.3,1,0.6,1.7,0.8
							c0.6,0.1,1.1,0.3,1.3,0.5c0.3,0.2,0.4,0.4,0.4,0.8c0,0.3-0.1,0.5-0.4,0.7c-0.3,0.2-0.7,0.3-1.1,0.3c-0.4,0-0.7-0.1-1-0.2
							c-0.3-0.1-0.6-0.3-0.8-0.6c-0.1-0.1-0.2-0.1-0.4-0.1c-0.2,0-0.3,0.1-0.4,0.2c-0.1,0.1-0.2,0.3-0.2,0.4c0,0.2,0.1,0.4,0.3,0.5
							c0.4,0.3,0.8,0.6,1.2,0.7h0c0.4,0.1,0.9,0.2,1.4,0.2c0.5,0,0.9-0.1,1.3-0.3c0.4-0.2,0.7-0.4,1-0.8c0.2-0.3,0.4-0.7,0.4-1.1
							c0-0.5-0.1-0.9-0.3-1.2C427,260,426.7,259.7,426.4,259.6z"/>
						<path class="st28" d="M435.4,259.6L435.4,259.6c-0.1-0.1-0.3-0.2-0.4-0.2h-1.9c-0.2,0-0.3,0.1-0.4,0.2
							c-0.1,0.1-0.2,0.3-0.2,0.4c0,0.2,0.1,0.3,0.2,0.4c0.1,0.1,0.3,0.2,0.4,0.2l1.2,0v1.5c-0.2,0.1-0.4,0.1-0.6,0.2
							c-0.3,0.1-0.5,0.1-0.7,0.1c-0.5,0-0.9-0.1-1.3-0.4c-0.4-0.2-0.7-0.6-1-1c-0.2-0.4-0.4-0.9-0.4-1.4c0-0.5,0.1-1,0.4-1.4
							c0.2-0.4,0.6-0.7,1-1c0.4-0.2,0.9-0.4,1.3-0.4c0.5,0,0.9,0.1,1.4,0.3c0.1,0.1,0.2,0.1,0.3,0.1c0.2,0,0.3-0.1,0.4-0.2
							c0.1-0.1,0.2-0.3,0.2-0.4c0-0.1,0-0.2-0.1-0.3c-0.1-0.1-0.1-0.2-0.2-0.2c-0.3-0.2-0.6-0.3-0.9-0.4c-0.3-0.1-0.7-0.1-1-0.1
							c-0.7,0-1.4,0.2-2,0.5c-0.6,0.3-1.1,0.8-1.4,1.4c-0.3,0.6-0.5,1.3-0.5,2c0,0.7,0.2,1.4,0.5,2c0.3,0.6,0.8,1.1,1.4,1.4
							c0.6,0.3,1.3,0.5,2,0.5c0.4,0,0.8-0.1,1.2-0.2c0.4-0.1,0.8-0.3,1.1-0.5c0.2-0.1,0.3-0.3,0.3-0.5v-2.4
							C435.6,259.9,435.5,259.8,435.4,259.6z"/>
					</g>
					<g>
						<path class="st23" d="M410.1,269.7c0,0.2-0.1,0.3-0.2,0.5c-0.1,0.2-0.3,0.2-0.5,0.2c-0.1,0-0.3,0-0.4-0.1
							c-0.6-0.4-1.3-0.5-2-0.5c-0.7,0-1.4,0.2-2,0.5c-0.6,0.3-1,0.8-1.3,1.4c-0.3,0.6-0.5,1.3-0.5,2c0,0.8,0.2,1.5,0.5,2.1
							c0.3,0.6,0.8,1.1,1.4,1.4c0.6,0.3,1.2,0.5,1.9,0.5c0.7,0,1.4-0.2,2-0.5c0.1-0.1,0.2-0.1,0.4-0.1c0.2,0,0.4,0.1,0.5,0.3
							c0.1,0.2,0.2,0.3,0.2,0.5c0,0.1,0,0.2-0.1,0.3c-0.1,0.1-0.2,0.2-0.3,0.2c-0.4,0.2-0.8,0.4-1.3,0.5c-0.5,0.1-1,0.2-1.4,0.2
							c-1,0-1.9-0.2-2.7-0.6c-0.8-0.4-1.5-1.1-1.9-1.9c-0.5-0.8-0.7-1.8-0.7-2.9c0-1,0.2-1.9,0.7-2.7c0.5-0.8,1.1-1.5,1.9-1.9
							c0.8-0.5,1.7-0.7,2.7-0.7c1,0,1.9,0.2,2.7,0.7C410,269.3,410.1,269.5,410.1,269.7z"/>
						<path class="st23" d="M420.7,276.5c-0.4,0.8-1,1.5-1.8,1.9c-0.8,0.5-1.6,0.7-2.6,0.7c-1,0-1.8-0.2-2.6-0.7
							c-0.8-0.5-1.4-1.1-1.8-1.9c-0.4-0.8-0.7-1.7-0.7-2.7c0-1,0.2-1.9,0.7-2.7c0.4-0.8,1-1.5,1.8-1.9c0.8-0.5,1.6-0.7,2.6-0.7
							c1,0,1.8,0.2,2.6,0.7c0.8,0.5,1.4,1.1,1.8,1.9c0.4,0.8,0.7,1.7,0.7,2.7C421.4,274.8,421.2,275.7,420.7,276.5z M419.4,271.7
							c-0.3-0.6-0.7-1.1-1.3-1.4c-0.5-0.3-1.1-0.5-1.8-0.5c-0.7,0-1.3,0.2-1.8,0.5c-0.5,0.3-1,0.8-1.3,1.4c-0.3,0.6-0.4,1.3-0.4,2
							c0,0.7,0.2,1.4,0.4,2c0.3,0.6,0.7,1.1,1.3,1.4c0.5,0.3,1.1,0.5,1.8,0.5c0.7,0,1.3-0.2,1.8-0.5c0.5-0.3,1-0.8,1.3-1.4
							c0.3-0.6,0.4-1.3,0.4-2C419.9,273,419.7,272.3,419.4,271.7z"/>
						<path class="st23" d="M431.5,278.1c0.1,0.1,0.1,0.2,0.1,0.3c0,0.2-0.1,0.4-0.2,0.5c-0.1,0.1-0.3,0.2-0.5,0.2s-0.4,0-0.5-0.1
							c-0.3-0.2-0.5-0.4-0.7-0.8c-0.2-0.4-0.3-0.9-0.3-1.7c0-0.5-0.1-0.9-0.4-1.1c-0.3-0.2-0.7-0.4-1.2-0.4h-3v3.4
							c0,0.2-0.1,0.4-0.2,0.5c-0.1,0.1-0.3,0.2-0.5,0.2c-0.2,0-0.4-0.1-0.6-0.2c-0.2-0.1-0.2-0.3-0.2-0.5v-9.1
							c0-0.2,0.1-0.4,0.2-0.5c0.1-0.1,0.3-0.2,0.5-0.2l4.2,0c0.5,0,1,0.1,1.5,0.4c0.5,0.3,0.8,0.6,1.1,1.1c0.3,0.5,0.4,1,0.4,1.6
							c0,0.6-0.1,1.1-0.4,1.6c-0.3,0.5-0.7,0.8-1.2,1.1c0.4,0.2,0.7,0.5,0.9,0.8c0.2,0.3,0.3,0.7,0.4,1.2c0,0.6,0.1,1,0.1,1.2
							s0.2,0.4,0.3,0.4C431.4,277.9,431.5,278,431.5,278.1z M428.9,273.4c0.2-0.2,0.4-0.4,0.5-0.7c0.1-0.3,0.2-0.6,0.2-1
							c0-0.5-0.1-0.9-0.4-1.2c-0.3-0.3-0.7-0.5-1.1-0.5h-3.4v3.8h3.4C428.4,273.6,428.7,273.5,428.9,273.4z"/>
						<path class="st23" d="M439.9,277.8c0.1,0.1,0.2,0.3,0.2,0.5c0,0.2-0.1,0.4-0.2,0.5c-0.1,0.1-0.3,0.2-0.5,0.2h-5.2
							c-0.2,0-0.4-0.1-0.5-0.2c-0.1-0.1-0.2-0.3-0.2-0.5v-9.1c0-0.2,0.1-0.4,0.2-0.5c0.1-0.1,0.3-0.2,0.5-0.2h5.2
							c0.2,0,0.4,0.1,0.5,0.2c0.1,0.1,0.2,0.3,0.2,0.5c0,0.2-0.1,0.4-0.2,0.5c-0.1,0.1-0.3,0.2-0.5,0.2H435v3.1l3.8,0
							c0.2,0,0.4,0.1,0.5,0.2c0.1,0.1,0.2,0.3,0.2,0.5c0,0.2-0.1,0.4-0.2,0.5c-0.1,0.1-0.3,0.2-0.5,0.2l-3.8,0v3.3h4.5
							C439.6,277.6,439.8,277.7,439.9,277.8z"/>
					</g>
				</g>
			</g>
			<g>
				<g>
					<g>
						<g id="Terminal_10_">
							<g>
								<path class="st27" d="M391.3,431c-1,0-1.8-0.8-1.8-1.8v-59.3c0-1,0.8-1.8,1.8-1.8h59.3c1,0,1.8,0.8,1.8,1.8v59.3
									c0,1-0.8,1.8-1.8,1.8H391.3z"/>
								<path class="st28" d="M450.6,369c0.5,0,0.8,0.4,0.8,0.8v59.3c0,0.5-0.4,0.8-0.8,0.8h-59.3c-0.5,0-0.8-0.4-0.8-0.8v-59.3
									c0-0.5,0.4-0.8,0.8-0.8H450.6 M450.6,367h-59.3c-1.6,0-2.8,1.3-2.8,2.8v59.3c0,1.6,1.3,2.8,2.8,2.8h59.3
									c1.6,0,2.8-1.3,2.8-2.8v-59.3C453.4,368.3,452.2,367,450.6,367L450.6,367z"/>
							</g>
							<g>
								<defs>
									<path id="SVGID_1_" d="M450.6,432h-59.3c-1.6,0-2.8-1.3-2.8-2.8v-59.3c0-1.6,1.3-2.8,2.8-2.8h59.3c1.6,0,2.8,1.3,2.8,2.8
										v59.3C453.4,430.7,452.2,432,450.6,432z"/>
								</defs>
								<clipPath id="SVGID_2_">
									<use xlink:href="#SVGID_1_"  style="overflow:visible;"/>
								</clipPath>
								<polygon class="st29" points="453.4,367 388.5,432 453.4,432 								"/>
							</g>
							<g>
								<path class="st30" d="M397,416.5l9.8-5v1.5l-8.3,4.1v0l8.3,4.1v1.5l-9.8-5V416.5z"/>
								<path class="st30" d="M411.9,423.6l5.9-15.3h1.4l-5.9,15.3H411.9z"/>
								<path class="st30" d="M434.2,417.7l-9.8,5v-1.5l8.3-4.1v0l-8.3-4.1v-1.5l9.8,5V417.7z"/>
							</g>
							<path class="st28" d="M453.4,376.2h-64.9v-6.3c0-1.6,1.3-2.8,2.8-2.8h59.3c1.6,0,2.8,1.3,2.8,2.8V376.2z"/>
							<circle class="st23" cx="397.3" cy="371.6" r="1.1"/>
							<circle class="st23" cx="401.9" cy="371.6" r="1.1"/>
							<circle class="st23" cx="406.5" cy="371.6" r="1.1"/>
						</g>
					</g>
				</g>
			</g>
			<g>
				<g id="Task-Event_8_">
					<g>
						<g>
							<line class="st31" x1="421" y1="367" x2="421" y2="303"/>
							<g>
								<g>
									<circle class="st23" cx="421" cy="367" r="5.3"/>
									<path class="st28" d="M427,367c0-3.3-2.7-6-6-6c-3.3,0-6,2.7-6,6c0,3.3,2.7,6,6,6C424.3,373.1,427,370.4,427,367
										C427,363.7,427,370.4,427,367z M416.3,367c0-2.5,2.1-4.6,4.6-4.6c2.5,0,4.6,2.1,4.6,4.6c0,2.5-2.1,4.6-4.6,4.6
										C418.4,371.7,416.3,369.6,416.3,367C416.3,364.5,416.3,369.6,416.3,367z"/>
								</g>
							</g>
							<g>
								<g>
									<circle class="st23" cx="421" cy="303" r="5.3"/>
									<path class="st28" d="M427,303c0,3.3-2.7,6-6,6c-3.3,0-6-2.7-6-6c0-3.3,2.7-6,6-6C424.3,296.9,427,299.7,427,303
										C427,306.3,427,299.7,427,303z M416.3,303c0,2.5,2.1,4.6,4.6,4.6c2.5,0,4.6-2.1,4.6-4.6c0-2.5-2.1-4.6-4.6-4.6
										C418.4,298.4,416.3,300.4,416.3,303C416.3,305.5,416.3,300.4,416.3,303z"/>
								</g>
							</g>
						</g>
					</g>
				</g>
				<g>
					<g>
						<g>
							<circle class="st32" cx="420.9" cy="334.1" r="10.6"/>
							<g>
								<path class="st23" d="M424,338.3c-0.6,0.5-1.3,0.9-2.1,1v1.3c0,0.2-0.1,0.4-0.2,0.5c-0.1,0.1-0.3,0.2-0.5,0.2
									c-0.2,0-0.4-0.1-0.5-0.2c-0.1-0.1-0.2-0.3-0.2-0.5v-1.2c-0.6-0.1-1.1-0.2-1.6-0.4c-0.5-0.2-0.9-0.5-1.4-0.9
									c-0.2-0.2-0.3-0.4-0.3-0.6c0-0.2,0.1-0.4,0.2-0.5c0.1-0.1,0.3-0.2,0.5-0.2c0.2,0,0.3,0.1,0.4,0.2c0.3,0.3,0.7,0.6,1,0.7
									c0.3,0.2,0.7,0.3,1.1,0.4v-3.6c-1-0.2-1.7-0.6-2.3-1.1c-0.5-0.5-0.8-1.2-0.8-2c0-0.8,0.3-1.5,0.8-2c0.6-0.5,1.3-0.9,2.2-1
									v-0.8c0-0.2,0.1-0.4,0.2-0.5c0.1-0.1,0.3-0.2,0.5-0.2c0.2,0,0.4,0.1,0.5,0.2c0.1,0.1,0.2,0.3,0.2,0.5v0.8
									c0.5,0.1,0.9,0.2,1.3,0.4c0.4,0.2,0.8,0.4,1,0.7c0.2,0.2,0.4,0.4,0.4,0.7c0,0.2-0.1,0.4-0.2,0.5c-0.1,0.1-0.3,0.2-0.5,0.2
									c-0.1,0-0.3,0-0.4-0.1c-0.2-0.2-0.4-0.4-0.7-0.5c-0.3-0.2-0.6-0.3-0.9-0.3v3.4c1,0.3,1.7,0.6,2.2,1.1c0.5,0.5,0.7,1.1,0.7,2
									C424.8,337.2,424.5,337.8,424,338.3z M419.2,332.3c0.3,0.3,0.7,0.5,1.2,0.6v-3.1c-0.5,0.1-0.9,0.3-1.2,0.5
									c-0.3,0.3-0.4,0.6-0.4,1C418.8,331.7,419,332,419.2,332.3z M422.9,337.4c0.3-0.3,0.4-0.6,0.4-0.9c0-0.4-0.1-0.7-0.4-1
									c-0.2-0.3-0.6-0.5-1.1-0.7v3.1C422.3,337.8,422.7,337.6,422.9,337.4z"/>
							</g>
						</g>
					</g>
				</g>
			</g>
		</g>
	</g>
	<g>
		<g>
			<g>
				<linearGradient id="SVGID_3_" gradientUnits="userSpaceOnUse" x1="452.0812" y1="449.0288" x2="617.0076" y2="449.0288">
					<stop  offset="0" style="stop-color:#9452FF"/>
					<stop  offset="1" style="stop-color:#F1F0F8"/>
				</linearGradient>
				<polyline class="st33" points="615.8,492.6 615.8,445.2 524.9,445.2 524.9,405.4 453.3,405.4 				"/>
				<g>
					<g>
						<circle class="st23" cx="615.8" cy="492.6" r="5.3"/>
						<linearGradient id="SVGID_4_" gradientUnits="userSpaceOnUse" x1="452.0812" y1="492.6226" x2="617.0076" y2="492.6226">
							<stop  offset="0" style="stop-color:#9452FF"/>
							<stop  offset="1" style="stop-color:#F1F0F8"/>
						</linearGradient>
						<path class="st34" d="M621.9,492.6c0-3.3-2.7-6-6-6c-3.3,0-6,2.7-6,6c0,3.3,2.7,6,6,6C619.2,498.7,621.9,496,621.9,492.6
							C621.9,489.3,621.9,496,621.9,492.6z M611.2,492.6c0-2.5,2.1-4.6,4.6-4.6c2.5,0,4.6,2.1,4.6,4.6c0,2.5-2.1,4.6-4.6,4.6
							C613.3,497.2,611.2,495.2,611.2,492.6C611.2,490.1,611.2,495.2,611.2,492.6z"/>
					</g>
				</g>
				<g>
					<g>
						<circle class="st23" cx="453.3" cy="405.4" r="5.3"/>
						<linearGradient id="SVGID_5_" gradientUnits="userSpaceOnUse" x1="452.0812" y1="405.435" x2="617.0076" y2="405.435">
							<stop  offset="0" style="stop-color:#9452FF"/>
							<stop  offset="1" style="stop-color:#F1F0F8"/>
						</linearGradient>
						<path class="st35" d="M453.3,399.4c3.3,0,6,2.7,6,6c0,3.3-2.7,6-6,6c-3.3,0-6-2.7-6-6C447.2,402.1,449.9,399.4,453.3,399.4
							C456.6,399.4,449.9,399.4,453.3,399.4z M453.3,410.1c2.5,0,4.6-2.1,4.6-4.6c0-2.5-2.1-4.6-4.6-4.6c-2.5,0-4.6,2.1-4.6,4.6
							C448.6,408,450.7,410.1,453.3,410.1C455.8,410.1,450.7,410.1,453.3,410.1z"/>
					</g>
				</g>
			</g>
		</g>
		<g>
			<g>
				<linearGradient id="SVGID_6_" gradientUnits="userSpaceOnUse" x1="429.7939" y1="498.1679" x2="487.8651" y2="498.1679">
					<stop  offset="0" style="stop-color:#9452FF"/>
					<stop  offset="1" style="stop-color:#F1F0F8"/>
				</linearGradient>
				<polyline class="st36" points="486.7,564.6 486.7,509.2 449.1,509.2 449.1,459 431,459 431,431.8 				"/>
				<g>
					<g>
						<circle class="st23" cx="486.7" cy="564.6" r="5.3"/>
						<linearGradient id="SVGID_7_" gradientUnits="userSpaceOnUse" x1="429.794" y1="564.5808" x2="487.8651" y2="564.5808">
							<stop  offset="0" style="stop-color:#9452FF"/>
							<stop  offset="1" style="stop-color:#F1F0F8"/>
						</linearGradient>
						<path class="st37" d="M492.7,564.6c0-3.3-2.7-6-6-6c-3.3,0-6,2.7-6,6c0,3.3,2.7,6,6,6C490,570.6,492.7,567.9,492.7,564.6
							C492.7,561.3,492.7,567.9,492.7,564.6z M482.1,564.6c0-2.5,2.1-4.6,4.6-4.6c2.5,0,4.6,2.1,4.6,4.6c0,2.5-2.1,4.6-4.6,4.6
							C484.1,569.2,482.1,567.1,482.1,564.6C482.1,562,482.1,567.1,482.1,564.6z"/>
					</g>
				</g>
				<g>
					<g>
						<circle class="st23" cx="431" cy="431.8" r="5.3"/>
						<linearGradient id="SVGID_8_" gradientUnits="userSpaceOnUse" x1="429.794" y1="431.7549" x2="487.8651" y2="431.7549">
							<stop  offset="0" style="stop-color:#9452FF"/>
							<stop  offset="1" style="stop-color:#F1F0F8"/>
						</linearGradient>
						<path class="st38" d="M437,431.8c0,3.3-2.7,6-6,6c-3.3,0-6-2.7-6-6c0-3.3,2.7-6,6-6C434.3,425.7,437,428.4,437,431.8
							C437,435.1,437,428.4,437,431.8z M426.4,431.8c0,2.5,2.1,4.6,4.6,4.6c2.5,0,4.6-2.1,4.6-4.6c0-2.5-2.1-4.6-4.6-4.6
							C428.4,427.1,426.4,429.2,426.4,431.8C426.4,434.3,426.4,429.2,426.4,431.8z"/>
					</g>
				</g>
			</g>
		</g>
		<g>
			<g>
				<g>
					<linearGradient id="SVGID_9_" gradientUnits="userSpaceOnUse" x1="224.878" y1="449.0288" x2="389.8044" y2="449.0288">
						<stop  offset="0" style="stop-color:#F1F0F8"/>
						<stop  offset="1" style="stop-color:#9452FF"/>
					</linearGradient>
					<polyline class="st39" points="226.1,492.6 226.1,445.2 317,445.2 317,405.4 388.6,405.4 					"/>
					<g>
						<g>
							<circle class="st23" cx="226.1" cy="492.6" r="5.3"/>
							<linearGradient id="SVGID_10_" gradientUnits="userSpaceOnUse" x1="224.878" y1="492.6226" x2="389.8044" y2="492.6226">
								<stop  offset="0" style="stop-color:#F1F0F8"/>
								<stop  offset="1" style="stop-color:#9452FF"/>
							</linearGradient>
							<path class="st40" d="M232.1,492.6c0-3.3-2.7-6-6-6s-6,2.7-6,6c0,3.3,2.7,6,6,6S232.1,496,232.1,492.6
								C232.1,489.3,232.1,496,232.1,492.6z M221.4,492.6c0-2.5,2.1-4.6,4.6-4.6s4.6,2.1,4.6,4.6c0,2.5-2.1,4.6-4.6,4.6
								S221.4,495.2,221.4,492.6C221.4,490.1,221.4,495.2,221.4,492.6z"/>
						</g>
					</g>
					<g>
						<g>
							<circle class="st23" cx="388.6" cy="405.4" r="5.3"/>
							<linearGradient id="SVGID_11_" gradientUnits="userSpaceOnUse" x1="224.878" y1="405.435" x2="389.8044" y2="405.435">
								<stop  offset="0" style="stop-color:#F1F0F8"/>
								<stop  offset="1" style="stop-color:#9452FF"/>
							</linearGradient>
							<path class="st41" d="M388.6,411.5c-3.3,0-6-2.7-6-6c0-3.3,2.7-6,6-6c3.3,0,6,2.7,6,6C394.7,408.8,392,411.5,388.6,411.5
								C385.3,411.5,392,411.5,388.6,411.5z M388.6,400.8c-2.5,0-4.6,2.1-4.6,4.6c0,2.5,2.1,4.6,4.6,4.6c2.5,0,4.6-2.1,4.6-4.6
								C393.2,402.9,391.2,400.8,388.6,400.8C386.1,400.8,391.2,400.8,388.6,400.8z"/>
						</g>
					</g>
				</g>
			</g>
			<g>
				<g>
					<linearGradient id="SVGID_12_" gradientUnits="userSpaceOnUse" x1="353.9251" y1="498.1679" x2="411.9962" y2="498.1679">
						<stop  offset="0" style="stop-color:#F1F0F8"/>
						<stop  offset="1" style="stop-color:#9452FF"/>
					</linearGradient>
					<polyline class="st42" points="355.1,564.6 355.1,509.2 392.7,509.2 392.7,459 410.8,459 410.8,431.8 					"/>
					<g>
						<g>
							<circle class="st23" cx="355.1" cy="564.6" r="5.3"/>
							<linearGradient id="SVGID_13_" gradientUnits="userSpaceOnUse" x1="353.9251" y1="564.5808" x2="411.9962" y2="564.5808">
								<stop  offset="0" style="stop-color:#F1F0F8"/>
								<stop  offset="1" style="stop-color:#9452FF"/>
							</linearGradient>
							<path class="st43" d="M361.1,564.6c0-3.3-2.7-6-6-6c-3.3,0-6,2.7-6,6c0,3.3,2.7,6,6,6C358.4,570.6,361.1,567.9,361.1,564.6
								C361.1,561.3,361.1,567.9,361.1,564.6z M350.5,564.6c0-2.5,2.1-4.6,4.6-4.6c2.5,0,4.6,2.1,4.6,4.6c0,2.5-2.1,4.6-4.6,4.6
								C352.6,569.2,350.5,567.1,350.5,564.6C350.5,562,350.5,567.1,350.5,564.6z"/>
						</g>
					</g>
					<g>
						<g>
							<circle class="st23" cx="410.8" cy="431.8" r="5.3"/>
							<linearGradient id="SVGID_14_" gradientUnits="userSpaceOnUse" x1="353.9251" y1="431.7549" x2="411.9962" y2="431.7549">
								<stop  offset="0" style="stop-color:#F1F0F8"/>
								<stop  offset="1" style="stop-color:#9452FF"/>
							</linearGradient>
							<path class="st44" d="M416.9,431.8c0,3.3-2.7,6-6,6c-3.3,0-6-2.7-6-6c0-3.3,2.7-6,6-6C414.1,425.7,416.9,428.4,416.9,431.8
								C416.9,435.1,416.9,428.4,416.9,431.8z M406.2,431.8c0,2.5,2.1,4.6,4.6,4.6c2.5,0,4.6-2.1,4.6-4.6c0-2.5-2.1-4.6-4.6-4.6
								C408.3,427.1,406.2,429.2,406.2,431.8C406.2,434.3,406.2,429.2,406.2,431.8z"/>
						</g>
					</g>
				</g>
			</g>
		</g>
	</g>
	<g>
		<g>
			<g>
				<linearGradient id="SVGID_15_" gradientUnits="userSpaceOnUse" x1="454.6926" y1="218.7848" x2="617.0076" y2="218.7848">
					<stop  offset="0" style="stop-color:#9452FF"/>
					<stop  offset="1" style="stop-color:#CAC5E4"/>
				</linearGradient>
				<polyline class="st45" points="615.8,175.2 615.8,222.6 524.9,222.6 524.9,262.4 455.9,262.4 				"/>
				<g>
					<g>
						<circle class="st23" cx="615.8" cy="175.2" r="5.3"/>
						<linearGradient id="SVGID_16_" gradientUnits="userSpaceOnUse" x1="454.6926" y1="175.191" x2="617.0076" y2="175.191">
							<stop  offset="0" style="stop-color:#9452FF"/>
							<stop  offset="1" style="stop-color:#CAC5E4"/>
						</linearGradient>
						<path class="st46" d="M609.8,175.2c0,3.3,2.7,6,6,6c3.3,0,6-2.7,6-6c0-3.3-2.7-6-6-6C612.5,169.2,609.8,171.9,609.8,175.2
							C609.8,178.5,609.8,171.9,609.8,175.2z M620.4,175.2c0,2.5-2.1,4.6-4.6,4.6c-2.5,0-4.6-2.1-4.6-4.6c0-2.5,2.1-4.6,4.6-4.6
							C618.4,170.6,620.4,172.6,620.4,175.2C620.4,177.7,620.4,172.6,620.4,175.2z"/>
					</g>
				</g>
				<g>
					<g>
						<circle class="st23" cx="455.9" cy="262.4" r="5.3"/>
						<linearGradient id="SVGID_17_" gradientUnits="userSpaceOnUse" x1="454.6926" y1="262.3786" x2="617.0076" y2="262.3786">
							<stop  offset="0" style="stop-color:#9452FF"/>
							<stop  offset="1" style="stop-color:#CAC5E4"/>
						</linearGradient>
						<path class="st47" d="M455.9,256.3c3.3,0,6,2.7,6,6c0,3.3-2.7,6-6,6c-3.3,0-6-2.7-6-6C449.8,259.1,452.5,256.3,455.9,256.3
							C459.2,256.3,452.5,256.3,455.9,256.3z M455.9,267c2.5,0,4.6-2.1,4.6-4.6c0-2.5-2.1-4.6-4.6-4.6c-2.5,0-4.6,2.1-4.6,4.6
							C451.3,264.9,453.3,267,455.9,267C458.4,267,453.3,267,455.9,267z"/>
					</g>
				</g>
			</g>
		</g>
		<g>
			<g>
				<linearGradient id="SVGID_18_" gradientUnits="userSpaceOnUse" x1="429.7939" y1="168.4131" x2="487.8651" y2="168.4131">
					<stop  offset="0" style="stop-color:#9452FF"/>
					<stop  offset="1" style="stop-color:#CAC5E4"/>
				</linearGradient>
				<polyline class="st48" points="486.7,103.2 486.7,158.6 449.1,158.6 449.1,208.8 431,208.8 431,233.6 				"/>
				<g>
					<g>
						<circle class="st23" cx="486.7" cy="103.2" r="5.3"/>
						<linearGradient id="SVGID_19_" gradientUnits="userSpaceOnUse" x1="429.794" y1="103.2328" x2="487.8651" y2="103.2328">
							<stop  offset="0" style="stop-color:#9452FF"/>
							<stop  offset="1" style="stop-color:#CAC5E4"/>
						</linearGradient>
						<path class="st49" d="M480.6,103.2c0,3.3,2.7,6,6,6c3.3,0,6-2.7,6-6c0-3.3-2.7-6-6-6C483.4,97.2,480.6,99.9,480.6,103.2
							C480.6,106.6,480.6,99.9,480.6,103.2z M491.3,103.2c0,2.5-2.1,4.6-4.6,4.6c-2.5,0-4.6-2.1-4.6-4.6c0-2.5,2.1-4.6,4.6-4.6
							C489.2,98.6,491.3,100.7,491.3,103.2C491.3,105.8,491.3,100.7,491.3,103.2z"/>
					</g>
				</g>
				<g>
					<g>
						<circle class="st23" cx="431" cy="233.6" r="5.3"/>
						<linearGradient id="SVGID_20_" gradientUnits="userSpaceOnUse" x1="429.794" y1="233.5934" x2="487.8651" y2="233.5934">
							<stop  offset="0" style="stop-color:#9452FF"/>
							<stop  offset="1" style="stop-color:#CAC5E4"/>
						</linearGradient>
						<path class="st50" d="M424.9,233.6c0-3.3,2.7-6,6-6c3.3,0,6,2.7,6,6c0,3.3-2.7,6-6,6C427.6,239.6,424.9,236.9,424.9,233.6
							C424.9,230.3,424.9,236.9,424.9,233.6z M435.6,233.6c0-2.5-2.1-4.6-4.6-4.6c-2.5,0-4.6,2.1-4.6,4.6c0,2.5,2.1,4.6,4.6,4.6
							C433.5,238.2,435.6,236.1,435.6,233.6C435.6,231,435.6,236.1,435.6,233.6z"/>
					</g>
				</g>
			</g>
		</g>
		<g>
			<g>
				<g>
					<linearGradient id="SVGID_21_" gradientUnits="userSpaceOnUse" x1="224.878" y1="218.7848" x2="387.0971" y2="218.7848">
						<stop  offset="0" style="stop-color:#CAC5E4"/>
						<stop  offset="1" style="stop-color:#9452FF"/>
					</linearGradient>
					<polyline class="st51" points="226.1,175.2 226.1,222.6 317,222.6 317,262.4 385.9,262.4 					"/>
					<g>
						<g>
							<circle class="st23" cx="226.1" cy="175.2" r="5.3"/>
							<linearGradient id="SVGID_22_" gradientUnits="userSpaceOnUse" x1="224.878" y1="175.191" x2="387.097" y2="175.191">
								<stop  offset="0" style="stop-color:#CAC5E4"/>
								<stop  offset="1" style="stop-color:#9452FF"/>
							</linearGradient>
							<path class="st52" d="M220,175.2c0,3.3,2.7,6,6,6s6-2.7,6-6c0-3.3-2.7-6-6-6S220,171.9,220,175.2
								C220,178.5,220,171.9,220,175.2z M230.7,175.2c0,2.5-2.1,4.6-4.6,4.6s-4.6-2.1-4.6-4.6c0-2.5,2.1-4.6,4.6-4.6
								S230.7,172.6,230.7,175.2C230.7,177.7,230.7,172.6,230.7,175.2z"/>
						</g>
					</g>
					<g>
						<g>
							<circle class="st23" cx="385.9" cy="262.4" r="5.3"/>
							<linearGradient id="SVGID_23_" gradientUnits="userSpaceOnUse" x1="224.878" y1="262.3786" x2="387.097" y2="262.3786">
								<stop  offset="0" style="stop-color:#CAC5E4"/>
								<stop  offset="1" style="stop-color:#9452FF"/>
							</linearGradient>
							<path class="st53" d="M385.9,268.4c-3.3,0-6-2.7-6-6c0-3.3,2.7-6,6-6c3.3,0,6,2.7,6,6C392,265.7,389.2,268.4,385.9,268.4
								C382.6,268.4,389.2,268.4,385.9,268.4z M385.9,257.8c-2.5,0-4.6,2.1-4.6,4.6c0,2.5,2.1,4.6,4.6,4.6c2.5,0,4.6-2.1,4.6-4.6
								C390.5,259.8,388.5,257.8,385.9,257.8C383.4,257.8,388.5,257.8,385.9,257.8z"/>
						</g>
					</g>
				</g>
			</g>
			<g>
				<g>
					<linearGradient id="SVGID_24_" gradientUnits="userSpaceOnUse" x1="353.9251" y1="168.4131" x2="411.9962" y2="168.4131">
						<stop  offset="0" style="stop-color:#CAC5E4"/>
						<stop  offset="1" style="stop-color:#9452FF"/>
					</linearGradient>
					<polyline class="st54" points="355.1,103.2 355.1,158.6 392.7,158.6 392.7,208.8 410.8,208.8 410.8,233.6 					"/>
					<g>
						<g>
							<circle class="st23" cx="355.1" cy="103.2" r="5.3"/>
							<linearGradient id="SVGID_25_" gradientUnits="userSpaceOnUse" x1="353.9251" y1="103.2328" x2="411.9962" y2="103.2328">
								<stop  offset="0" style="stop-color:#CAC5E4"/>
								<stop  offset="1" style="stop-color:#9452FF"/>
							</linearGradient>
							<path class="st55" d="M349.1,103.2c0,3.3,2.7,6,6,6c3.3,0,6-2.7,6-6c0-3.3-2.7-6-6-6C351.8,97.2,349.1,99.9,349.1,103.2
								C349.1,106.6,349.1,99.9,349.1,103.2z M359.7,103.2c0,2.5-2.1,4.6-4.6,4.6c-2.5,0-4.6-2.1-4.6-4.6c0-2.5,2.1-4.6,4.6-4.6
								C357.7,98.6,359.7,100.7,359.7,103.2C359.7,105.8,359.7,100.7,359.7,103.2z"/>
						</g>
					</g>
					<g>
						<g>
							<circle class="st23" cx="410.8" cy="233.6" r="5.3"/>
							<linearGradient id="SVGID_26_" gradientUnits="userSpaceOnUse" x1="353.9251" y1="233.5934" x2="411.9962" y2="233.5934">
								<stop  offset="0" style="stop-color:#CAC5E4"/>
								<stop  offset="1" style="stop-color:#9452FF"/>
							</linearGradient>
							<path class="st56" d="M404.8,233.6c0-3.3,2.7-6,6-6c3.3,0,6,2.7,6,6c0,3.3-2.7,6-6,6C407.5,239.6,404.8,236.9,404.8,233.6
								C404.8,230.3,404.8,236.9,404.8,233.6z M415.4,233.6c0-2.5-2.1-4.6-4.6-4.6c-2.5,0-4.6,2.1-4.6,4.6c0,2.5,2.1,4.6,4.6,4.6
								C413.4,238.2,415.4,236.1,415.4,233.6C415.4,231,415.4,236.1,415.4,233.6z"/>
						</g>
					</g>
				</g>
			</g>
		</g>
	</g>
	<g>
		<g>
			<g>
				<circle class="st32" cx="353.8" cy="262" r="10.6"/>
				<g>
					<path class="st23" d="M356.9,266.2c-0.6,0.5-1.3,0.9-2.1,1v1.3c0,0.2-0.1,0.4-0.2,0.5c-0.1,0.1-0.3,0.2-0.5,0.2
						c-0.2,0-0.4-0.1-0.5-0.2c-0.1-0.1-0.2-0.3-0.2-0.5v-1.2c-0.6-0.1-1.1-0.2-1.6-0.4c-0.5-0.2-0.9-0.5-1.4-0.9
						c-0.2-0.2-0.3-0.4-0.3-0.6c0-0.2,0.1-0.4,0.2-0.5c0.1-0.1,0.3-0.2,0.5-0.2c0.2,0,0.3,0.1,0.4,0.2c0.3,0.3,0.7,0.6,1,0.7
						c0.4,0.2,0.7,0.3,1.1,0.4v-3.6c-1-0.2-1.7-0.6-2.3-1.1c-0.5-0.5-0.8-1.2-0.8-2c0-0.8,0.3-1.5,0.8-2c0.6-0.5,1.3-0.9,2.2-1v-0.8
						c0-0.2,0.1-0.4,0.2-0.5c0.1-0.1,0.3-0.2,0.5-0.2c0.2,0,0.4,0.1,0.5,0.2c0.1,0.1,0.2,0.3,0.2,0.5v0.8c0.5,0.1,0.9,0.2,1.3,0.4
						c0.4,0.2,0.8,0.4,1,0.7c0.2,0.2,0.4,0.4,0.4,0.7c0,0.2-0.1,0.4-0.2,0.5c-0.1,0.1-0.3,0.2-0.5,0.2c-0.1,0-0.3,0-0.4-0.1
						c-0.2-0.2-0.4-0.4-0.7-0.5c-0.3-0.2-0.6-0.3-0.9-0.3v3.4c1,0.3,1.7,0.6,2.2,1.1c0.5,0.5,0.7,1.1,0.7,2
						C357.7,265,357.4,265.7,356.9,266.2z M352.1,260.2c0.3,0.3,0.7,0.5,1.2,0.6v-3.1c-0.5,0.1-0.9,0.3-1.2,0.5
						c-0.3,0.3-0.4,0.6-0.4,1C351.7,259.6,351.8,259.9,352.1,260.2z M355.8,265.2c0.3-0.3,0.4-0.6,0.4-0.9c0-0.4-0.1-0.7-0.4-1
						c-0.2-0.3-0.6-0.5-1.1-0.7v3.1C355.2,265.7,355.6,265.5,355.8,265.2z"/>
				</g>
			</g>
		</g>
	</g>
	<g>
		<g>
			<g>
				<circle class="st32" cx="488" cy="262" r="10.6"/>
				<g>
					<path class="st23" d="M491,266.2c-0.6,0.5-1.3,0.9-2.1,1v1.3c0,0.2-0.1,0.4-0.2,0.5c-0.1,0.1-0.3,0.2-0.5,0.2
						c-0.2,0-0.4-0.1-0.5-0.2c-0.1-0.1-0.2-0.3-0.2-0.5v-1.2c-0.6-0.1-1.1-0.2-1.6-0.4s-0.9-0.5-1.4-0.9c-0.2-0.2-0.3-0.4-0.3-0.6
						c0-0.2,0.1-0.4,0.2-0.5c0.1-0.1,0.3-0.2,0.5-0.2c0.2,0,0.3,0.1,0.4,0.2c0.3,0.3,0.7,0.6,1,0.7c0.3,0.2,0.7,0.3,1.1,0.4v-3.6
						c-1-0.2-1.7-0.6-2.3-1.1c-0.5-0.5-0.8-1.2-0.8-2c0-0.8,0.3-1.5,0.8-2c0.6-0.5,1.3-0.9,2.2-1v-0.8c0-0.2,0.1-0.4,0.2-0.5
						c0.1-0.1,0.3-0.2,0.5-0.2c0.2,0,0.4,0.1,0.5,0.2c0.1,0.1,0.2,0.3,0.2,0.5v0.8c0.5,0.1,0.9,0.2,1.3,0.4c0.4,0.2,0.8,0.4,1,0.7
						c0.2,0.2,0.4,0.4,0.4,0.7c0,0.2-0.1,0.4-0.2,0.5c-0.1,0.1-0.3,0.2-0.5,0.2c-0.1,0-0.3,0-0.4-0.1c-0.2-0.2-0.4-0.4-0.7-0.5
						c-0.3-0.2-0.6-0.3-0.9-0.3v3.4c1,0.3,1.7,0.6,2.2,1.1c0.5,0.5,0.7,1.1,0.7,2C491.8,265,491.6,265.7,491,266.2z M486.2,260.2
						c0.3,0.3,0.7,0.5,1.2,0.6v-3.1c-0.5,0.1-0.9,0.3-1.2,0.5c-0.3,0.3-0.4,0.6-0.4,1C485.8,259.6,486,259.9,486.2,260.2z
						 M489.9,265.2c0.3-0.3,0.4-0.6,0.4-0.9c0-0.4-0.1-0.7-0.4-1c-0.2-0.3-0.6-0.5-1.1-0.7v3.1C489.3,265.7,489.7,265.5,489.9,265.2
						z"/>
				</g>
			</g>
		</g>
	</g>
	<g>
		<g>
			<g>
				<circle class="st32" cx="449.1" cy="183.2" r="10.6"/>
				<g>
					<path class="st23" d="M452.1,187.5c-0.6,0.5-1.3,0.9-2.1,1v1.3c0,0.2-0.1,0.4-0.2,0.5c-0.1,0.1-0.3,0.2-0.5,0.2
						c-0.2,0-0.4-0.1-0.5-0.2c-0.1-0.1-0.2-0.3-0.2-0.5v-1.2c-0.6-0.1-1.1-0.2-1.6-0.4c-0.5-0.2-0.9-0.5-1.4-0.9
						c-0.2-0.2-0.3-0.4-0.3-0.6c0-0.2,0.1-0.4,0.2-0.5c0.1-0.1,0.3-0.2,0.5-0.2c0.2,0,0.3,0.1,0.4,0.2c0.3,0.3,0.7,0.6,1,0.7
						c0.3,0.2,0.7,0.3,1.1,0.4v-3.6c-1-0.2-1.7-0.6-2.3-1.1c-0.5-0.5-0.8-1.2-0.8-2c0-0.8,0.3-1.5,0.8-2c0.6-0.5,1.3-0.9,2.2-1v-0.8
						c0-0.2,0.1-0.4,0.2-0.5c0.1-0.1,0.3-0.2,0.5-0.2c0.2,0,0.4,0.1,0.5,0.2c0.1,0.1,0.2,0.3,0.2,0.5v0.8c0.5,0.1,0.9,0.2,1.3,0.4
						c0.4,0.2,0.8,0.4,1,0.7c0.2,0.2,0.4,0.4,0.4,0.7c0,0.2-0.1,0.4-0.2,0.5c-0.1,0.1-0.3,0.2-0.5,0.2c-0.1,0-0.3,0-0.4-0.1
						c-0.2-0.2-0.4-0.4-0.7-0.5c-0.3-0.2-0.6-0.3-0.9-0.3v3.4c1,0.3,1.7,0.6,2.2,1.1c0.5,0.5,0.7,1.1,0.7,2
						C453,186.3,452.7,187,452.1,187.5z M447.4,181.4c0.3,0.3,0.7,0.5,1.2,0.6v-3.1c-0.5,0.1-0.9,0.3-1.2,0.5
						c-0.3,0.3-0.4,0.6-0.4,1C447,180.8,447.1,181.2,447.4,181.4z M451.1,186.5c0.3-0.3,0.4-0.6,0.4-0.9c0-0.4-0.1-0.7-0.4-1
						c-0.2-0.3-0.6-0.5-1.1-0.7v3.1C450.5,187,450.8,186.8,451.1,186.5z"/>
				</g>
			</g>
		</g>
	</g>
	<g>
		<g>
			<g>
				<circle class="st32" cx="392.7" cy="183.2" r="10.6"/>
				<g>
					<path class="st23" d="M395.7,187.5c-0.6,0.5-1.3,0.9-2.1,1v1.3c0,0.2-0.1,0.4-0.2,0.5c-0.1,0.1-0.3,0.2-0.5,0.2
						c-0.2,0-0.4-0.1-0.5-0.2c-0.1-0.1-0.2-0.3-0.2-0.5v-1.2c-0.6-0.1-1.1-0.2-1.6-0.4c-0.5-0.2-0.9-0.5-1.4-0.9
						c-0.2-0.2-0.3-0.4-0.3-0.6c0-0.2,0.1-0.4,0.2-0.5c0.1-0.1,0.3-0.2,0.5-0.2c0.2,0,0.3,0.1,0.4,0.2c0.3,0.3,0.7,0.6,1,0.7
						c0.3,0.2,0.7,0.3,1.1,0.4v-3.6c-1-0.2-1.7-0.6-2.3-1.1c-0.5-0.5-0.8-1.2-0.8-2c0-0.8,0.3-1.5,0.8-2c0.6-0.5,1.3-0.9,2.2-1v-0.8
						c0-0.2,0.1-0.4,0.2-0.5c0.1-0.1,0.3-0.2,0.5-0.2c0.2,0,0.4,0.1,0.5,0.2c0.1,0.1,0.2,0.3,0.2,0.5v0.8c0.5,0.1,0.9,0.2,1.3,0.4
						c0.4,0.2,0.8,0.4,1,0.7c0.2,0.2,0.4,0.4,0.4,0.7c0,0.2-0.1,0.4-0.2,0.5c-0.1,0.1-0.3,0.2-0.5,0.2c-0.1,0-0.3,0-0.4-0.1
						c-0.2-0.2-0.4-0.4-0.7-0.5c-0.3-0.2-0.6-0.3-0.9-0.3v3.4c1,0.3,1.7,0.6,2.2,1.1c0.5,0.5,0.7,1.1,0.7,2
						C396.6,186.3,396.3,187,395.7,187.5z M391,181.4c0.3,0.3,0.7,0.5,1.2,0.6v-3.1c-0.5,0.1-0.9,0.3-1.2,0.5
						c-0.3,0.3-0.4,0.6-0.4,1C390.6,180.8,390.7,181.2,391,181.4z M394.7,186.5c0.3-0.3,0.4-0.6,0.4-0.9c0-0.4-0.1-0.7-0.4-1
						c-0.2-0.3-0.6-0.5-1.1-0.7v3.1C394.1,187,394.4,186.8,394.7,186.5z"/>
				</g>
			</g>
		</g>
	</g>
	<g>
		<g>
			<g>
				<circle class="st32" cx="486.7" cy="135.1" r="10.6"/>
				<g>
					<path class="st23" d="M489.7,139.3c-0.6,0.5-1.3,0.9-2.1,1v1.3c0,0.2-0.1,0.4-0.2,0.5c-0.1,0.1-0.3,0.2-0.5,0.2
						c-0.2,0-0.4-0.1-0.5-0.2c-0.1-0.1-0.2-0.3-0.2-0.5v-1.2c-0.6-0.1-1.1-0.2-1.6-0.4c-0.5-0.2-0.9-0.5-1.4-0.9
						c-0.2-0.2-0.3-0.4-0.3-0.6c0-0.2,0.1-0.4,0.2-0.5c0.1-0.1,0.3-0.2,0.5-0.2c0.2,0,0.3,0.1,0.4,0.2c0.3,0.3,0.7,0.6,1,0.7
						c0.4,0.2,0.7,0.3,1.1,0.4v-3.6c-1-0.2-1.7-0.6-2.3-1.1c-0.5-0.5-0.8-1.2-0.8-2c0-0.8,0.3-1.5,0.8-2c0.6-0.5,1.3-0.9,2.2-1v-0.8
						c0-0.2,0.1-0.4,0.2-0.5c0.1-0.1,0.3-0.2,0.5-0.2c0.2,0,0.4,0.1,0.5,0.2c0.1,0.1,0.2,0.3,0.2,0.5v0.8c0.5,0.1,0.9,0.2,1.3,0.4
						c0.4,0.2,0.8,0.4,1,0.7c0.2,0.2,0.4,0.4,0.4,0.7c0,0.2-0.1,0.4-0.2,0.5c-0.1,0.1-0.3,0.2-0.5,0.2c-0.1,0-0.3,0-0.4-0.1
						c-0.2-0.2-0.4-0.4-0.7-0.5c-0.3-0.2-0.6-0.3-0.9-0.3v3.4c1,0.3,1.7,0.6,2.2,1.1c0.5,0.5,0.7,1.1,0.7,2
						C490.6,138.2,490.3,138.8,489.7,139.3z M485,133.3c0.3,0.3,0.7,0.5,1.2,0.6v-3.1c-0.5,0.1-0.9,0.3-1.2,0.5
						c-0.3,0.3-0.4,0.6-0.4,1C484.6,132.7,484.7,133,485,133.3z M488.7,138.4c0.3-0.3,0.4-0.6,0.4-0.9c0-0.4-0.1-0.7-0.4-1
						c-0.2-0.3-0.6-0.5-1.1-0.7v3.1C488.1,138.8,488.4,138.6,488.7,138.4z"/>
				</g>
			</g>
		</g>
	</g>
	<g>
		<g>
			<g>
				<circle class="st32" cx="355.1" cy="135.1" r="10.6"/>
				<g>
					<path class="st23" d="M358.1,139.3c-0.6,0.5-1.3,0.9-2.1,1v1.3c0,0.2-0.1,0.4-0.2,0.5c-0.1,0.1-0.3,0.2-0.5,0.2
						c-0.2,0-0.4-0.1-0.5-0.2c-0.1-0.1-0.2-0.3-0.2-0.5v-1.2c-0.6-0.1-1.1-0.2-1.6-0.4c-0.5-0.2-0.9-0.5-1.4-0.9
						c-0.2-0.2-0.3-0.4-0.3-0.6c0-0.2,0.1-0.4,0.2-0.5c0.1-0.1,0.3-0.2,0.5-0.2c0.2,0,0.3,0.1,0.4,0.2c0.3,0.3,0.7,0.6,1,0.7
						c0.3,0.2,0.7,0.3,1.1,0.4v-3.6c-1-0.2-1.7-0.6-2.3-1.1c-0.5-0.5-0.8-1.2-0.8-2c0-0.8,0.3-1.5,0.8-2c0.6-0.5,1.3-0.9,2.2-1v-0.8
						c0-0.2,0.1-0.4,0.2-0.5c0.1-0.1,0.3-0.2,0.5-0.2c0.2,0,0.4,0.1,0.5,0.2c0.1,0.1,0.2,0.3,0.2,0.5v0.8c0.5,0.1,0.9,0.2,1.3,0.4
						c0.4,0.2,0.8,0.4,1,0.7c0.2,0.2,0.4,0.4,0.4,0.7c0,0.2-0.1,0.4-0.2,0.5c-0.1,0.1-0.3,0.2-0.5,0.2c-0.1,0-0.3,0-0.4-0.1
						c-0.2-0.2-0.4-0.4-0.7-0.5c-0.3-0.2-0.6-0.3-0.9-0.3v3.4c1,0.3,1.7,0.6,2.2,1.1c0.5,0.5,0.7,1.1,0.7,2
						C359,138.2,358.7,138.8,358.1,139.3z M353.4,133.3c0.3,0.3,0.7,0.5,1.2,0.6v-3.1c-0.5,0.1-0.9,0.3-1.2,0.5
						c-0.3,0.3-0.4,0.6-0.4,1C353,132.7,353.1,133,353.4,133.3z M357.1,138.4c0.3-0.3,0.4-0.6,0.4-0.9c0-0.4-0.1-0.7-0.4-1
						c-0.2-0.3-0.6-0.5-1.1-0.7v3.1C356.5,138.8,356.8,138.6,357.1,138.4z"/>
				</g>
			</g>
		</g>
	</g>
	<g>
		<g>
			<g>
				<circle class="st32" cx="271.1" cy="222.6" r="10.6"/>
				<g>
					<path class="st23" d="M274.2,226.9c-0.6,0.5-1.3,0.9-2.1,1v1.3c0,0.2-0.1,0.4-0.2,0.5c-0.1,0.1-0.3,0.2-0.5,0.2
						c-0.2,0-0.4-0.1-0.5-0.2c-0.1-0.1-0.2-0.3-0.2-0.5v-1.2c-0.6-0.1-1.1-0.2-1.6-0.4c-0.5-0.2-0.9-0.5-1.4-0.9
						c-0.2-0.2-0.3-0.4-0.3-0.6c0-0.2,0.1-0.4,0.2-0.5c0.1-0.1,0.3-0.2,0.5-0.2c0.2,0,0.3,0.1,0.4,0.2c0.3,0.3,0.7,0.6,1,0.7
						c0.3,0.2,0.7,0.3,1.1,0.4v-3.6c-1-0.2-1.7-0.6-2.3-1.1c-0.5-0.5-0.8-1.2-0.8-2c0-0.8,0.3-1.5,0.8-2c0.6-0.5,1.3-0.9,2.2-1v-0.8
						c0-0.2,0.1-0.4,0.2-0.5c0.1-0.1,0.3-0.2,0.5-0.2c0.2,0,0.4,0.1,0.5,0.2c0.1,0.1,0.2,0.3,0.2,0.5v0.8c0.5,0.1,0.9,0.2,1.3,0.4
						c0.4,0.2,0.8,0.4,1,0.7c0.2,0.2,0.4,0.4,0.4,0.7c0,0.2-0.1,0.4-0.2,0.5c-0.1,0.1-0.3,0.2-0.5,0.2c-0.1,0-0.3,0-0.4-0.1
						c-0.2-0.2-0.4-0.4-0.7-0.5c-0.3-0.2-0.6-0.3-0.9-0.3v3.4c1,0.3,1.7,0.6,2.2,1.1c0.5,0.5,0.7,1.1,0.7,2
						C275,225.7,274.7,226.3,274.2,226.9z M269.4,220.8c0.3,0.3,0.7,0.5,1.2,0.6v-3.1c-0.5,0.1-0.9,0.3-1.2,0.5
						c-0.3,0.3-0.4,0.6-0.4,1C269,220.2,269.2,220.5,269.4,220.8z M273.1,225.9c0.3-0.3,0.4-0.6,0.4-0.9c0-0.4-0.1-0.7-0.4-1
						c-0.2-0.3-0.6-0.5-1.1-0.7v3.1C272.5,226.3,272.9,226.1,273.1,225.9z"/>
				</g>
			</g>
		</g>
	</g>
	<g>
		<g>
			<g>
				<circle class="st32" cx="570.7" cy="222.6" r="10.6"/>
				<g>
					<path class="st23" d="M573.7,226.9c-0.6,0.5-1.3,0.9-2.1,1v1.3c0,0.2-0.1,0.4-0.2,0.5c-0.1,0.1-0.3,0.2-0.5,0.2
						c-0.2,0-0.4-0.1-0.5-0.2c-0.1-0.1-0.2-0.3-0.2-0.5v-1.2c-0.6-0.1-1.1-0.2-1.6-0.4c-0.5-0.2-0.9-0.5-1.4-0.9
						c-0.2-0.2-0.3-0.4-0.3-0.6c0-0.2,0.1-0.4,0.2-0.5s0.3-0.2,0.5-0.2c0.2,0,0.3,0.1,0.4,0.2c0.3,0.3,0.7,0.6,1,0.7
						c0.3,0.2,0.7,0.3,1.1,0.4v-3.6c-1-0.2-1.7-0.6-2.3-1.1c-0.5-0.5-0.8-1.2-0.8-2c0-0.8,0.3-1.5,0.8-2c0.6-0.5,1.3-0.9,2.2-1v-0.8
						c0-0.2,0.1-0.4,0.2-0.5c0.1-0.1,0.3-0.2,0.5-0.2c0.2,0,0.4,0.1,0.5,0.2c0.1,0.1,0.2,0.3,0.2,0.5v0.8c0.5,0.1,0.9,0.2,1.3,0.4
						c0.4,0.2,0.8,0.4,1,0.7c0.2,0.2,0.4,0.4,0.4,0.7c0,0.2-0.1,0.4-0.2,0.5c-0.1,0.1-0.3,0.2-0.5,0.2c-0.1,0-0.3,0-0.4-0.1
						c-0.2-0.2-0.4-0.4-0.7-0.5c-0.3-0.2-0.6-0.3-0.9-0.3v3.4c1,0.3,1.7,0.6,2.2,1.1c0.5,0.5,0.7,1.1,0.7,2
						C574.5,225.7,574.3,226.3,573.7,226.9z M568.9,220.8c0.3,0.3,0.7,0.5,1.2,0.6v-3.1c-0.5,0.1-0.9,0.3-1.2,0.5
						c-0.3,0.3-0.4,0.6-0.4,1C568.5,220.2,568.7,220.5,568.9,220.8z M572.6,225.9c0.3-0.3,0.4-0.6,0.4-0.9c0-0.4-0.1-0.7-0.4-1
						c-0.2-0.3-0.6-0.5-1.1-0.7v3.1C572,226.3,572.4,226.1,572.6,225.9z"/>
				</g>
			</g>
		</g>
	</g>
</g>
</svg>
