<?xml version="1.0" encoding="utf-8"?>
<!-- Generator: Adobe Illustrator 21.0.0, SVG Export Plug-In . SVG Version: 6.00 Build 0)  -->
<svg version="1.1" id="Layer_1" xmlns="http://www.w3.org/2000/svg" xmlns:xlink="http://www.w3.org/1999/xlink" x="0px" y="0px"
	 viewBox="0 0 841.9 595.3" style="enable-background:new 0 0 841.9 595.3;" xml:space="preserve">
<style type="text/css">
	.st0{opacity:5.000000e-02;}
	.st1{fill:#4563FF;}
	.st2{fill:#F1F0F8;}
	.st3{fill:#9452FF;}
	.st4{fill:#343434;}
	.st5{fill:#8B8B8B;}
	.st6{fill:#3C3C3B;}
	.st7{fill:#151515;}
	.st8{fill:#393939;}
	.st9{fill:#252F3E;}
	.st10{fill:#FF9900;}
	.st11{fill:#694C47;}
	.st12{fill:#F4DBB9;}
	.st13{fill:#0B87BE;}
	.st14{fill:#46B7E3;}
	.st15{fill:#FFD14F;}
	.st16{fill:#121F2F;}
	.st17{fill:#FFFFFF;}
	.st18{fill:#E9BD8C;}
	.st19{fill:#9B7457;}
	.st20{fill:url(#coin_1_);}
	.st21{fill:#CAC5E4;}
	.st22{fill:#EACAB3;}
	.st23{fill:#4D2F15;}
	.st24{fill:#513FE8;}
	.st25{fill:none;stroke:url(#SVGID_1_);stroke-width:2.3613;stroke-linecap:round;stroke-linejoin:round;}
	.st26{fill:url(#SVGID_2_);}
	.st27{fill:url(#SVGID_3_);}
	.st28{fill:none;stroke:url(#SVGID_4_);stroke-width:2.3613;stroke-linecap:round;stroke-linejoin:round;}
	.st29{fill:url(#SVGID_5_);}
	.st30{fill:url(#SVGID_6_);}
	.st31{fill:none;stroke:url(#SVGID_7_);stroke-width:2.3613;stroke-linecap:round;stroke-linejoin:round;}
	.st32{fill:url(#SVGID_8_);}
	.st33{fill:url(#SVGID_9_);}
	.st34{fill:none;stroke:url(#SVGID_10_);stroke-width:2.3613;stroke-linecap:round;stroke-linejoin:round;}
	.st35{fill:url(#SVGID_11_);}
	.st36{fill:url(#SVGID_12_);}
	.st37{fill:#1AB644;}
</style>
<g>
	<g id="Diagram-1_7_">
		<g id="Circle-MESG_436_" class="st0">
			<path class="st1" d="M626.6,393.1c0,0-92.1,3.8-205.7,3.8s-205.7-3.8-205.7-3.8c0-113.6,92.1-205.7,205.7-205.7
				S626.6,279.5,626.6,393.1z"/>
		</g>
		<g id="Circle-MESG_434_" class="st0">
			<path class="st1" d="M574.5,393.1c0,0-68.8,3.8-153.6,3.8s-153.6-3.8-153.6-3.8c0-84.8,68.8-153.6,153.6-153.6
				S574.5,308.3,574.5,393.1z"/>
		</g>
		<g id="Circle-MESG_432_" class="st0">
			<path class="st1" d="M535.6,393.1c0,0-51.4,3.8-114.7,3.8s-114.7-3.8-114.7-3.8c0-63.3,51.4-114.7,114.7-114.7
				S535.6,329.7,535.6,393.1z"/>
		</g>
		<g id="Circle-MESG_430_" class="st0">
			<path class="st1" d="M506.6,393.1c0,0-38.3,3.8-85.7,3.8s-85.7-3.8-85.7-3.8c0-47.3,38.3-85.7,85.7-85.7S506.6,345.8,506.6,393.1
				z"/>
		</g>
		<g>
			<g>
				<g id="Logo-Ethereum_21_">
					<g>
						<path class="st2" d="M355.1,232.5c-18.9,0-34.2-15.4-34.2-34.2s15.4-34.2,34.2-34.2s34.2,15.4,34.2,34.2
							S374,232.5,355.1,232.5z"/>
						<path class="st3" d="M355.1,165.2c18.2,0,33.1,14.8,33.1,33.1s-14.8,33.1-33.1,33.1S322,216.5,322,198.2
							S336.9,165.2,355.1,165.2 M355.1,162.8c-19.6,0-35.4,15.9-35.4,35.4s15.9,35.4,35.4,35.4s35.4-15.9,35.4-35.4
							S374.7,162.8,355.1,162.8L355.1,162.8z"/>
					</g>
					<g>
						<polygon class="st4" points="355.1,176.4 354.8,177.4 354.8,206.3 355.1,206.6 368.5,198.7 						"/>
						<polygon class="st5" points="355.1,176.4 341.7,198.7 355.1,206.6 355.1,192.6 						"/>
						<polygon class="st6" points="355.1,209.1 354.9,209.3 354.9,219.6 355.1,220.1 368.5,201.2 						"/>
						<polygon class="st5" points="355.1,220.1 355.1,209.1 341.7,201.2 						"/>
						<polygon class="st7" points="355.1,206.6 368.5,198.7 355.1,192.6 						"/>
						<polygon class="st8" points="341.7,198.7 355.1,206.6 355.1,192.6 						"/>
					</g>
				</g>
			</g>
			<g id="Logo-AWS_37_">
				<g>
					<path class="st2" d="M226.1,304.6c-18.9,0-34.2-15.4-34.2-34.2s15.4-34.2,34.2-34.2s34.2,15.4,34.2,34.2
						S244.9,304.6,226.1,304.6z"/>
					<path class="st3" d="M226.1,237.4c18.2,0,33.1,14.8,33.1,33.1s-14.8,33.1-33.1,33.1S193,288.6,193,270.4
						S207.8,237.4,226.1,237.4 M226.1,235c-19.6,0-35.4,15.9-35.4,35.4s15.9,35.4,35.4,35.4s35.4-15.9,35.4-35.4
						S245.6,235,226.1,235L226.1,235z"/>
				</g>
				<g>
					<path class="st9" d="M216.5,266.8c0,0.5,0.1,1,0.2,1.3c0.1,0.3,0.3,0.7,0.5,1c0.1,0.1,0.1,0.2,0.1,0.3c0,0.1-0.1,0.3-0.3,0.4
						l-0.9,0.6c-0.1,0.1-0.3,0.1-0.4,0.1c-0.1,0-0.3-0.1-0.4-0.2c-0.2-0.2-0.4-0.5-0.5-0.7c-0.1-0.2-0.3-0.5-0.5-0.9
						c-1.1,1.3-2.6,2-4.3,2c-1.2,0-2.2-0.3-2.9-1s-1.1-1.6-1.1-2.8c0-1.2,0.4-2.2,1.3-3c0.9-0.8,2.1-1.1,3.6-1.1c0.5,0,1,0,1.5,0.1
						c0.5,0.1,1.1,0.2,1.7,0.3v-1.1c0-1.1-0.2-1.9-0.7-2.3c-0.5-0.5-1.2-0.7-2.4-0.7c-0.5,0-1,0.1-1.6,0.2s-1.1,0.3-1.6,0.5
						c-0.2,0.1-0.4,0.2-0.5,0.2c-0.1,0-0.2,0-0.2,0c-0.2,0-0.3-0.1-0.3-0.5v-0.7c0-0.2,0-0.4,0.1-0.5c0.1-0.1,0.2-0.2,0.4-0.3
						c0.5-0.3,1.1-0.5,1.8-0.7c0.7-0.2,1.5-0.3,2.3-0.3c1.7,0,3,0.4,3.8,1.2c0.8,0.8,1.2,2,1.2,3.6L216.5,266.8L216.5,266.8z
						 M210.6,269c0.5,0,1-0.1,1.5-0.3s1-0.5,1.4-0.9c0.2-0.3,0.4-0.6,0.5-0.9s0.1-0.8,0.1-1.3V265c-0.4-0.1-0.9-0.2-1.3-0.2
						c-0.5-0.1-0.9-0.1-1.4-0.1c-1,0-1.7,0.2-2.2,0.6c-0.5,0.4-0.7,0.9-0.7,1.7c0,0.7,0.2,1.2,0.5,1.5
						C209.4,268.9,210,269,210.6,269z M222.3,270.6c-0.3,0-0.4,0-0.6-0.1c-0.1-0.1-0.2-0.3-0.3-0.6l-3.4-11.2
						c-0.1-0.3-0.1-0.5-0.1-0.6c0-0.2,0.1-0.4,0.3-0.4h1.4c0.3,0,0.5,0,0.6,0.1c0.1,0.1,0.2,0.3,0.3,0.6l2.4,9.6l2.3-9.6
						c0.1-0.3,0.2-0.5,0.3-0.6c0.1-0.1,0.3-0.1,0.6-0.1h1.2c0.3,0,0.5,0,0.6,0.1c0.1,0.1,0.2,0.3,0.3,0.6l2.3,9.7l2.5-9.7
						c0.1-0.3,0.2-0.5,0.3-0.6c0.1-0.1,0.3-0.1,0.6-0.1h1.4c0.2,0,0.4,0.1,0.4,0.4c0,0.1,0,0.1,0,0.2c0,0.1,0,0.2-0.1,0.4l-3.5,11.2
						c-0.1,0.3-0.2,0.5-0.3,0.6c-0.1,0.1-0.3,0.1-0.6,0.1h-1.2c-0.3,0-0.5,0-0.6-0.1c-0.1-0.1-0.2-0.3-0.3-0.6l-2.3-9.4l-2.2,9.4
						c-0.1,0.3-0.2,0.5-0.3,0.6c-0.1,0.1-0.3,0.1-0.6,0.1H222.3z M241,271c-0.8,0-1.5-0.1-2.2-0.3s-1.3-0.4-1.7-0.6
						c-0.2-0.1-0.4-0.3-0.5-0.4s-0.1-0.3-0.1-0.4v-0.7c0-0.3,0.1-0.5,0.3-0.5c0.1,0,0.2,0,0.3,0s0.2,0.1,0.4,0.1
						c0.5,0.2,1,0.4,1.6,0.5c0.6,0.1,1.1,0.2,1.7,0.2c0.9,0,1.6-0.2,2.1-0.5s0.8-0.8,0.8-1.4c0-0.4-0.1-0.7-0.4-1
						c-0.3-0.3-0.8-0.5-1.5-0.8l-2.1-0.7c-1.1-0.3-1.8-0.8-2.3-1.5c-0.5-0.6-0.7-1.4-0.7-2.1c0-0.6,0.1-1.1,0.4-1.6s0.6-0.9,1-1.2
						c0.4-0.3,0.9-0.6,1.5-0.8c0.6-0.2,1.2-0.2,1.8-0.2c0.3,0,0.7,0,1,0.1c0.3,0,0.6,0.1,0.9,0.2c0.3,0.1,0.6,0.1,0.8,0.2
						c0.3,0.1,0.5,0.2,0.6,0.3c0.2,0.1,0.3,0.2,0.4,0.4c0.1,0.1,0.1,0.3,0.1,0.5v0.7c0,0.3-0.1,0.5-0.3,0.5c-0.1,0-0.3-0.1-0.6-0.2
						c-0.8-0.4-1.8-0.6-2.8-0.6c-0.8,0-1.5,0.1-1.9,0.4s-0.7,0.7-0.7,1.3c0,0.4,0.1,0.8,0.4,1c0.3,0.3,0.8,0.6,1.6,0.8l2.1,0.7
						c1,0.3,1.8,0.8,2.3,1.4c0.5,0.6,0.7,1.3,0.7,2c0,0.6-0.1,1.2-0.4,1.7c-0.3,0.5-0.6,0.9-1.1,1.3c-0.5,0.4-1,0.6-1.6,0.8
						C242.4,270.9,241.7,271,241,271z"/>
					<path class="st10" d="M243.7,278.1c-4.8,3.5-11.7,5.4-17.7,5.4c-8.4,0-15.9-3.1-21.6-8.2c-0.5-0.4,0-1,0.5-0.6
						c6.2,3.6,13.8,5.7,21.6,5.7c5.3,0,11.1-1.1,16.5-3.4C243.8,276.6,244.5,277.5,243.7,278.1z M245.7,275.8
						c-0.6-0.8-4-0.4-5.6-0.2c-0.5,0.1-0.5-0.3-0.1-0.7c2.7-1.9,7.2-1.4,7.7-0.7c0.5,0.7-0.1,5.1-2.7,7.3c-0.4,0.3-0.8,0.2-0.6-0.3
						C245,279.8,246.3,276.6,245.7,275.8z"/>
				</g>
			</g>
			<g id="Logo-Mailchimp_77_">
				<g>
					<path class="st2" d="M486.7,232.5c-18.9,0-34.2-15.4-34.2-34.2s15.4-34.2,34.2-34.2s34.2,15.4,34.2,34.2
						S505.6,232.5,486.7,232.5z"/>
					<path class="st3" d="M486.7,165.2c18.2,0,33.1,14.8,33.1,33.1s-14.8,33.1-33.1,33.1s-33.1-14.8-33.1-33.1
						S468.5,165.2,486.7,165.2 M486.7,162.8c-19.6,0-35.4,15.9-35.4,35.4s15.9,35.4,35.4,35.4s35.4-15.9,35.4-35.4
						S506.2,162.8,486.7,162.8L486.7,162.8z"/>
				</g>
				<g>
					<path class="st11" d="M502.4,216.8v0.7h0.2V217l0.1,0.5h0.2l0.1-0.5v0.5h0.2v-0.7h-0.3l-0.1,0.4l-0.1-0.4H502.4 M501.9,217v0.5
						h0.2V217h0.2v-0.2h-0.6v0.2H501.9z M506.9,207.6c0,0.1-3.2,12.5-15.9,12.5c-10.9,0-16.1-9.5-16.1-9.5c-0.8,0-1.6-0.1-2.3-0.3
						c-3.2-1.2-4.7-4.8-3.6-7.9l-1.8-1.3c-6.8-5.2,12.5-29,19.3-23.6c0,0,1.6,1.3,1.6,1.3c2.5-1.5,4.9-2.3,6.9-2.3
						c1.4,0,2.6,0.4,3.4,1.3c1.8,1.9,1.1,5.6-1.3,9.3c0.5,0.5,1,1.2,1.3,1.8c0.8,0.6,1.3,1.5,1.5,2.7c0.3,1.4,0.3,3.4,0.5,4.2
						c0.7,0.3,0.4,0.2,1.1,0.5c0.7,0.4,1.6,0.8,2.6,1.7c1.7,0.4,2.4,2.3,1.4,3.5c0,0-0.2,0.2-0.3,0.3c0,0.1,0.4,0.6,0.6,1.7
						c0.7,0.2,1.3,0.6,1.6,1.3C507.9,206.1,506.9,207.6,506.9,207.6z"/>
					<path class="st12" d="M501.6,213.1c3.4-2.7,4-5.9,4.1-6c0.8-1,0.6-2-0.5-2c-0.4,0-0.6,0.1-0.6,0.1s0-1.5-0.7-2.6
						c-0.5,0.6-2,1.8-3.9,2.7c-1.8,0.9-4.2,1.6-7.2,1.7h0c-0.8,0-1.3-0.1-1.6,0.9c-0.1,0.3-0.1,0.9,0,1c0.2,0.8,0.8,1.2,1.7,1.3
						c0.6,0.1,1.3,0.2,1.3,0.2c6,0.2,10.9-4.5,10.9-4.6c0.1,0,0.1-0.1,0.1-0.1s-0.1,0.1-0.1,0.1c-0.9,2-5.9,5.5-10.9,5.4l0,0
						c-1.2,0-2.6-0.3-3.3-1.2c-1.2-1.4-0.6-3.8,1.3-3.9c0,0,0.4,0,0.6,0c4.6-0.1,8.7-1.8,11.7-5.3c0.4-0.5,0-1.2-0.9-1.2
						c0,0,0,0,0,0c-1-1.1-2-1.5-2.8-1.9c-1.7-0.9-1.5-0.1-1.9-4.3c-0.1-1.1-0.3-2.7-1.3-3.3c-0.3-0.2-0.5-0.2-0.8-0.2
						c-0.3,0-0.4,0.1-0.5,0.1c-0.5,0.1-0.9,0.4-1.2,0.8c-1.8,1.7-3.3,1.2-5.5,1.2c-2.1,0-3.9,1.4-4.2,3.6l0,0
						c-0.2,1.2-0.1,2.3,0.1,2.9c0,0-0.6-0.4-0.8-0.7c0.3,2,2.2,3.3,2.2,3.3c-0.3,0.1-0.7,0-0.7,0s1.1,0.8,2,1.1
						c-0.2,0.1-1.4,1.3-2.1,3c-0.6,1.5-0.3,3.4-0.3,3.4l0.5-0.8c0,0-0.3,1.7,0.3,3.3c0.2-0.5,0.7-1.3,0.7-1.3s-0.1,1.8,0.8,3.3
						c0-0.3,0.2-1.2,0.2-1.2s0.5,1.5,1.6,2.6C491.5,216.1,497.2,216.5,501.6,213.1 M477.5,203L477.5,203c0.3-0.7,0.4-1.3,0.4-1.3
						c0.3,1,0.5,2,0.4,3c0.3-0.3,0.5-1,0.5-1c0.5,2.9-1.6,5.5-4.4,5.5c-2.4,0-4.4-2.1-4.4-4.7c0-2.6,2-4.7,4.4-4.7
						c0.6,0,1.2,0.1,1.8,0.4C476.3,200.3,477.2,200.7,477.5,203z"/>
					<path class="st13" d="M469.7,201c0,0-1.7-1.2-1.9-1.6c-1.4-2.3,1-7.1,2.7-9.9c4.2-6.7,11.3-12.1,14.5-11.3l3.3,1.7
						c-1.3,0.8-2.5,1.7-3.3,2.3l-0.7,0.6c0,0-2,1.4-3.1,2.2c-4.1,3.5-8.1,8.9-9.6,14.1C471.7,199.1,470.5,199.7,469.7,201"/>
					<path class="st14" d="M485,178.2L485,178.2c-3.2-0.8-10.3,4.6-14.5,11.3c0,0,0,0,0,0l0,0l3.4,2.7c3.7-5.9,8.4-8.9,8.5-9
						l-0.5-3.6l1-0.5l2,0.7l-0.2-0.7L485,178.2"/>
					<path class="st15" d="M488.3,179.9l-3.3,2.3l-0.2,0.2l-2.9-2.4l-0.1-0.4l1-0.5c0.1,0,1.9,0.6,2,0.7l0-1.2l0.1-0.3l0.9-0.3
						C485.9,177.9,488.3,179.9,488.3,179.9"/>
					<path class="st16" d="M494.7,177.7c-2.2,0-4.6,1.1-6.4,2.2c-0.3,0.2-0.5,0.3-0.8,0.5l-1-0.8l0.4,1.2c-0.1,0.1-0.3,0.2-0.4,0.3
						l-2-0.6l1.3,1.1c-0.3,0.2-0.6,0.4-0.8,0.6l-3.2-2.6l0.2,1.2l2.3,2c0,0-2,1.4-3.1,2.2c-4.1,3.5-8.1,8.9-9.6,14.1l0.1,0
						c0,0,0,0,0,0c0,0,0.1,0,0.1-0.1c0,0,0.1,0,0.1,0c0,0,0.1,0,0.1-0.1c0,0,0.1,0,0.1,0c0,0,0.1,0,0.1-0.1c0,0,0,0,0.1,0
						c0.1,0,0.1,0,0.2-0.1c1-0.3,2.4-0.5,4,0.2c0.8-2,1.8-4.1,3.3-6.1c1.2-1.6,2.4-3.1,3.8-3.9c2.7-2.5,10-5.2,12.3-2.9
						c0.6-0.9,1-1.8,1.4-2.8C498.5,180.6,498.5,177.7,494.7,177.7"/>
					<polyline class="st16" points="485.5,180 485,178.2 484.7,179.1 484.9,179.8 485.5,180 					"/>
					<path class="st17" d="M490.4,178.8c1.2-0.5,2.4-1,3.6-1.1c-1.2,0.3-2.7,0.9-4.4,2c0,0-4.1,2.8-6.6,5.2
						c-1.4,1.3-6.8,7.8-6.8,7.8c1-1.9,1.6-2.8,3.2-4.8c0.9-1.1,1.8-2.2,2.8-3.2c0.3-0.3,0.7-0.7,1-1
						C483.4,183.7,486.2,180.8,490.4,178.8 M504.5,205.1c0,0,0-1.5-0.7-2.6c-0.5,0.6-2,1.8-3.9,2.7c-1.8,0.9-4.2,1.6-7.2,1.7h0
						c-0.8,0-1.3-0.1-1.6,0.9c0,0.1,0,0.2,0,0.3l0,0l0,0c0,0,0,0.1,0,0.1c0,0.1,0,0.2,0,0.2l0,0c0,0,0,0,0,0c0,0,0,0.1,0,0.1l0,0
						l0,0c0,0.2,0.1,0.2,0.1,0.2l0,0l0,0c0.2,0.8,0.8,1.1,1.6,1.3c0.6,0.1,1.3,0.2,1.3,0.2c4.9,0.1,9-3,10.4-4.1
						C504.5,205.7,504.5,205.5,504.5,205.1z"/>
					<path class="st18" d="M476.1,206.5L476.1,206.5c0.3-0.3,0.4-0.7,0.3-1c-0.1-0.5-0.7-0.6-1.1-1.1c0,0,0,0,0,0c0,0,0,0,0,0l0,0
						c-0.2-0.2-0.2-0.4-0.2-0.7c0-0.6,0.5-0.7,0.8-0.6c0,0,0.3,0.1,0.5,0.4l0,0c0-0.1,0-0.3-0.2-0.5c-0.3-0.4-1-0.9-2-0.7h0
						c-0.2,0-0.1,0-0.3,0.1c0,0-0.1,0-0.1,0c-0.1,0-0.1,0-0.2,0.1c0,0-0.2,0.1-0.3,0.2C472.2,204.1,474,206.6,476.1,206.5
						 M500,206.9C500,206.9,500,206.9,500,206.9c-0.5,0.1-5.7,2.1-9,1.1c0,0.2,0,0.6,0.1,0.7l0,0c0.5,0.1,1.1,0.2,1.8,0.2
						C497.3,208.9,500.4,206.9,500,206.9z M499.4,196.9c-0.5-0.3-0.5-1-0.8-3.8c-0.1-0.9-0.2-2-0.8-2.8c-0.1-0.1-0.3-0.2-0.5-0.2
						c-0.3,0-0.7,0.3-1,0.6c-0.6,0.9-1.2,1.5-2.3,2c-1.1,0.5-2.1,0.7-3.2,0.6c-0.8,0-1.5-0.2-2.1-0.2c-1.2,0-2.3,0.4-3.1,1.4
						c-0.5,0.7-0.8,1.4-0.8,2.2c0,0.1,0,0.2,0,0.3c0,0.1,0,0.3,0,0.4c0.1,0.4,0.1,0.7,0.1,0.7l0,0c0,0,0,0,0,0.1
						c0,0-0.6-0.4-0.8-0.7c0.3,1.7,1.6,2.9,2,3.2c0,0,0.1,0,0.1,0.1c0,0,0,0,0,0c0,0,0.1,0,0.1,0c-0.3,0.1-0.7,0-0.7,0
						c0,0,1.1,0.8,2,1.1c1.2-1,2.6-1.4,3.7-1.5c0.7-0.4,1.4-0.8,2.2-1.2c-0.2-1.5,1.1-3,2.7-3.1c1.3-0.1,1.9,0.5,2.3,1.1
						C498.9,197.1,499.2,197,499.4,196.9C499.5,196.9,499.4,196.9,499.4,196.9z M490.3,207.5c0.2-0.8,0.8-1.5,1.8-1.5
						c0,0,0.4,0,0.6,0c4.6-0.1,8.7-1.8,11.7-5.3c0.4-0.5,0-1.2-0.9-1.2c0,0,0,0,0,0c-0.1,0.2-0.2,0.4-0.4,0.9
						c-0.9,1.6-2.1,2.3-3.8,3.1c-5.1,2.5-7.7,1.3-8.8,2.9C490.1,206.7,490.1,207.2,490.3,207.5L490.3,207.5z M497.6,197.4
						c-0.7-0.5-1.9-0.1-2.1,0.7c0.4,0,0.8,0.3,0.8,0.7c0.3-0.3,0.7-0.4,1.1-0.4C497.2,198.1,497.3,197.6,497.6,197.4z M501.6,213.1
						c-0.6,0.5-1.2,0.9-1.8,1.2c-1.4-0.6-2.3-1.7-2.3-1.7s1.2-0.3,2.9-1.1c2-1,3.9-2.5,5.3-4.4C505.6,207.1,505,210.4,501.6,213.1z"
						/>
					<path class="st19" d="M484.9,188.2c4.8-3.1,9.5-3.4,11.1-2.2l0,0c0,0,0-0.1,0-0.1c-0.4-0.9-1.4-1.5-2.2-1.7
						c0.2,0.2,0.4,0.4,0.5,0.6c-0.6-0.4-1.5-0.8-2.4-1c0,0,0.1,0.1,0.1,0.1c0.2,0.2,0.4,0.4,0.5,0.7c-0.9-0.3-1.9-0.5-2.9-0.4
						c0,0-0.1,0-0.1,0s0.1,0,0.1,0c0.3,0.1,0.7,0.3,0.9,0.5c-1.5-0.3-3.2,0-4.2,0.5c0.1,0,0.1,0,0.2,0c0.3,0,1,0.1,1.3,0.2
						c-1,0.2-2.4,0.6-3.1,1.3c0.1,0,0.9-0.1,1.2-0.1c-4.2,2.4-6.1,6-6.1,6C481.2,191.2,482.8,189.6,484.9,188.2 M495.1,198.4
						c-0.1,0.3,0,0.6,0.4,0.8c0.3,0.2,0.7,0.1,0.9-0.1c0.1-0.3,0-0.6-0.4-0.8C495.6,198.1,495.2,198.2,495.1,198.4z M497.8,197.4
						c-0.3,0-0.5,0.2-0.6,0.6c-0.1,0.3,0.1,0.7,0.4,0.7c0.3,0,0.5-0.2,0.6-0.6C498.2,197.8,498.1,197.5,497.8,197.4z M475.7,204
						c-0.1-0.1-0.1-0.1-0.2-0.2c0-0.2,0-0.3,0.1-0.4c0.1-0.1,0.2-0.1,0.2-0.2c0-0.1-0.4-0.2-0.7,0.1c-0.2,0.2-0.3,0.7,0.1,1.1
						c0.4,0.4,1,0.5,1.1,1.1c0,0.1,0,0.2,0,0.2c0,0.1,0,0.2,0,0.2c-0.1,0.5-0.6,1-1.5,0.9c-0.2,0-0.3,0-0.3,0
						c-0.1,0.1,0.3,0.5,0.9,0.5c0.6,0,1.3-0.5,1.5-1.2c0,0,0.1-0.2,0.1-0.4c0-0.1,0-0.3,0-0.4C476.9,204.4,476,204.3,475.7,204z
						 M475.8,202.7L475.8,202.7L475.8,202.7c0.1,0.1,0.2,0.2,0.3,0.3c0.2,0.3,0.2,0.5,0.3,0.6c0,0,0.1,0,0.1,0
						c0.1-0.1,0.2-0.3,0.2-0.4l0,0c0-0.4-0.2-0.7-0.4-1l0,0c-0.2-0.2-0.3-0.3-0.6-0.5c-0.2-0.1-0.5-0.2-0.8-0.3
						c-0.5-0.1-1,0-1.2,0.1l0,0c-0.1,0-0.2,0-0.2,0.1c-0.8,0.3-1.4,0.9-1.7,1.7l0,0l0,0c-0.1,0.3-0.1,0.6-0.1,0.9
						c0,0.2,0,0.5,0.1,0.7v0l0,0l0,0c0.1,0.3,0.2,0.7,0.4,0.9l0,0c0.3,0.3,0.6,0.3,0.5,0c0-0.1-0.2-0.4-0.2-1c0-0.4,0-0.8,0.2-1.2
						c0.1-0.2,0.2-0.4,0.3-0.6c0.3-0.4,0.6-0.5,0.7-0.5c0,0,0.1,0,0.2-0.1c0,0,0,0,0.1,0c0.2-0.1,0.1,0,0.3-0.1h0
						C474.8,202.2,475.4,202.3,475.8,202.7z M492.1,198.8c-0.3-0.2-0.8-0.4-1.3-0.3c-0.1,0-0.2,0.1-0.3,0.1c0,0-0.1,0-0.1,0
						c-0.2,0.1-0.4,0.2-0.6,0.4c-0.2,0.2-0.3,0.4-0.2,0.4c0.1,0,0.2,0,0.4-0.1c0.8-0.3,1.3-0.3,1.8-0.3c0.2,0,0.4,0,0.4,0
						C492.2,199,492.2,198.9,492.1,198.8z M492.3,197.8c0.1,0.1,0.1,0.2,0.1,0.3c-0.1,0.1-0.3,0-0.7-0.2c-1-0.4-1.8-0.4-3.1,0.1
						c-0.3,0.1-0.6,0.2-0.7,0.2c-0.2,0,0-0.4,0.4-0.7c0.8-0.6,1.9-0.8,2.9-0.5C491.6,197.1,492,197.4,492.3,197.8z"/>
					<path class="st11" d="M496.2,195c0-0.3,0-0.9,0.4-1l0,0c0.5-0.2,1.2,1.2,1.3,2.4c-0.4-0.2-0.9-0.3-1.4-0.3
						C496.2,195.7,496.2,195.4,496.2,195"/>
				</g>
			</g>
			<g id="Logo-Bitcoin_21_">
				<g>
					<path class="st2" d="M615.8,304.6c-18.9,0-34.2-15.4-34.2-34.2s15.4-34.2,34.2-34.2c18.9,0,34.2,15.4,34.2,34.2
						S634.7,304.6,615.8,304.6z"/>
					<path class="st3" d="M615.8,237.4c18.2,0,33.1,14.8,33.1,33.1s-14.8,33.1-33.1,33.1s-33.1-14.8-33.1-33.1
						S597.6,237.4,615.8,237.4 M615.8,235c-19.6,0-35.4,15.9-35.4,35.4s15.9,35.4,35.4,35.4c19.6,0,35.4-15.9,35.4-35.4
						S635.4,235,615.8,235L615.8,235z"/>
				</g>
				<g id="g16_22_" transform="scale(0.015625)">
					
						<linearGradient id="coin_1_" gradientUnits="userSpaceOnUse" x1="7994.2866" y1="45967.6875" x2="7994.2866" y2="45967.6016" gradientTransform="matrix(511.9456 0 0 -512.0052 -4053226.25 23551602)">
						<stop  offset="0" style="stop-color:#F8A94B"/>
						<stop  offset="1" style="stop-color:#F6921E"/>
					</linearGradient>
					<path id="coin_22_" class="st20" d="M40769.2,17644.4c-186.7,748.9-945.2,1204.6-1694.1,1017.9
						c-748.7-186.7-1204.4-945.2-1017.6-1694.1c186.6-749,945.1-1204.8,1693.8-1018
						C40500.2,16136.9,40955.9,16895.5,40769.2,17644.4L40769.2,17644.4z"/>
					
						<path id="symbol_22_" inkscape:connector-curvature="0" sodipodi:nodetypes="ccccccccccccccccccccccccccccccccccccccc" class="st17" d="
						M40029.4,17107.1c27.8-186-113.8-286-307.4-352.7l62.8-252l-153.4-38.2l-61.2,245.3c-40.3-10-81.7-19.5-122.9-28.9l61.6-246.9
						l-153.3-38.2l-62.9,251.9c-33.4-7.6-66.1-15.1-97.9-23l0.2-0.8l-211.5-52.8l-40.8,163.8c0,0,113.8,26.1,111.4,27.7
						c62.1,15.5,73.3,56.6,71.5,89.2c-172.1,690.2,0,0-172.1,690.2c-7.6,18.9-26.9,47.2-70.3,36.4c1.5,2.2-111.5-27.8-111.5-27.8
						l-76.1,175.6l199.6,49.8c37.1,9.3,73.5,19,109.3,28.2l-63.5,254.9l153.2,38.2l62.9-252.1c41.8,11.4,82.5,21.8,122.2,31.7
						l-62.6,251l153.4,38.2l63.5-254.4c261.5,49.5,458.2,29.5,541-207c66.7-190.5-3.3-300.3-140.9-372
						C39933.8,17309.2,40009.3,17243.3,40029.4,17107.1L40029.4,17107.1z M39679,17598.5c-47.4,190.5-368.1,87.5-472,61.7
						l84.2-337.6C39395.2,17348.5,39728.6,17399.9,39679,17598.5z M39726.5,17104.4c-43.2,173.2-310.2,85.2-396.7,63.6l76.4-306.2
						C39492.7,16883.4,39771.5,16923.7,39726.5,17104.4z"/>
				</g>
			</g>
		</g>
		<g>
			<g>
				<circle class="st21" cx="420.9" cy="397" r="35.4"/>
				<g>
					<path class="st22" d="M436.9,390.9c0,10-10,20.3-15.9,20.3c-6.3,0-15.9-10.3-15.9-20.3c0-10,5.9-18.1,15.9-18.1
						C431,372.8,436.9,380.9,436.9,390.9z"/>
					<path class="st22" d="M420.9,432.1c-7.5,0-26-9.5-25.2-11.2c4.3-8.6,14.2-11.9,25.2-11.9c10.9,0,19.7,3.8,25.1,11.7
						C447.3,422.6,431.1,432.1,420.9,432.1z"/>
					<polygon class="st22" points="429.8,414.7 412.1,414.7 412.7,401.3 429.2,401.3 					"/>
					<path class="st22" d="M407.1,391.4c0.5,2.2,0,4.3-1,4.7c-1,0.3-2.2-1.2-2.7-3.4c-0.5-2.2,0-4.3,1-4.7
						C405.4,387.6,406.6,389.2,407.1,391.4z"/>
					<path class="st22" d="M438.5,392.6c-0.5,2.2-1.7,3.8-2.6,3.5s-1.4-2.4-0.9-4.6c0.5-2.2,1.7-3.8,2.6-3.5
						C438.5,388.3,438.9,390.4,438.5,392.6z"/>
					<path class="st23" d="M405.2,388.1c0,0-0.2-16.6,14.1-16.6c2.4-0.9,9.2-1.4,14.5,4.3c4.8,5.1,2.9,12.3,2.9,12.3
						s-9.7-1.1-16.6-10C420.2,378.1,410.3,379.2,405.2,388.1z"/>
					<path class="st24" d="M412.1,409.7c0,0,4,8.1,8.9,8.1c4.9,0,9-8.2,9-8.2s9.3-0.1,16.5,10.2c0,0-11.3,11.8-24.9,11.8
						s-25.8-11.9-25.8-11.9S401.1,410.5,412.1,409.7z"/>
				</g>
				<g>
					<path class="st2" d="M420.9,364c18.2,0,33.1,14.8,33.1,33.1c0,8.8-3.4,17.1-9.7,23.4s-14.5,9.7-23.4,9.7
						c-18.2,0-33.1-14.8-33.1-33.1c0-8.8,3.4-17.1,9.7-23.4C403.8,367.4,412.1,364,420.9,364 M420.9,361.6
						c-19.6,0-35.4,15.9-35.4,35.4s15.9,35.4,35.4,35.4c19.6,0,35.4-15.9,35.4-35.4C456.4,377.5,440.5,361.6,420.9,361.6
						L420.9,361.6z"/>
				</g>
			</g>
		</g>
	</g>
	<g>
		<g>
			<g>
				<linearGradient id="SVGID_1_" gradientUnits="userSpaceOnUse" x1="454.6926" y1="348.2513" x2="617.0076" y2="348.2513">
					<stop  offset="0" style="stop-color:#F1F0F8"/>
					<stop  offset="1" style="stop-color:#9452FF"/>
				</linearGradient>
				<polyline class="st25" points="615.8,304.7 615.8,352.1 524.9,352.1 524.9,391.8 455.9,391.8 				"/>
				<g>
					<g>
						<circle class="st17" cx="615.8" cy="304.7" r="5.3"/>
						<linearGradient id="SVGID_2_" gradientUnits="userSpaceOnUse" x1="454.6926" y1="304.6574" x2="617.0076" y2="304.6574">
							<stop  offset="0" style="stop-color:#F1F0F8"/>
							<stop  offset="1" style="stop-color:#9452FF"/>
						</linearGradient>
						<path class="st26" d="M609.8,304.7c0,3.3,2.7,6,6,6s6-2.7,6-6c0-3.3-2.7-6-6-6S609.8,301.3,609.8,304.7
							C609.8,308,609.8,301.3,609.8,304.7z M620.4,304.7c0,2.5-2.1,4.6-4.6,4.6s-4.6-2.1-4.6-4.6c0-2.5,2.1-4.6,4.6-4.6
							S620.4,302.1,620.4,304.7C620.4,307.2,620.4,302.1,620.4,304.7z"/>
					</g>
				</g>
				<g>
					<g>
						<circle class="st17" cx="455.9" cy="391.8" r="5.3"/>
						<linearGradient id="SVGID_3_" gradientUnits="userSpaceOnUse" x1="454.6926" y1="391.8451" x2="617.0076" y2="391.8451">
							<stop  offset="0" style="stop-color:#F1F0F8"/>
							<stop  offset="1" style="stop-color:#9452FF"/>
						</linearGradient>
						<path class="st27" d="M455.9,385.8c3.3,0,6,2.7,6,6c0,3.3-2.7,6-6,6c-3.3,0-6-2.7-6-6C449.8,388.5,452.5,385.8,455.9,385.8
							C459.2,385.8,452.5,385.8,455.9,385.8z M455.9,396.5c2.5,0,4.6-2.1,4.6-4.6c0-2.5-2.1-4.6-4.6-4.6c-2.5,0-4.6,2.1-4.6,4.6
							C451.3,394.4,453.3,396.5,455.9,396.5C458.4,396.5,453.3,396.5,455.9,396.5z"/>
					</g>
				</g>
			</g>
		</g>
		<g>
			<g>
				<linearGradient id="SVGID_4_" gradientUnits="userSpaceOnUse" x1="429.7939" y1="297.8795" x2="487.8651" y2="297.8795">
					<stop  offset="0" style="stop-color:#F1F0F8"/>
					<stop  offset="1" style="stop-color:#9452FF"/>
				</linearGradient>
				<polyline class="st28" points="486.7,232.7 486.7,288.1 449.1,288.1 449.1,338.3 431,338.3 431,363.1 				"/>
				<g>
					<g>
						<circle class="st17" cx="486.7" cy="232.7" r="5.3"/>
						<linearGradient id="SVGID_5_" gradientUnits="userSpaceOnUse" x1="429.794" y1="232.6991" x2="487.8651" y2="232.6991">
							<stop  offset="0" style="stop-color:#F1F0F8"/>
							<stop  offset="1" style="stop-color:#9452FF"/>
						</linearGradient>
						<path class="st29" d="M480.6,232.7c0,3.3,2.7,6,6,6c3.3,0,6-2.7,6-6c0-3.3-2.7-6-6-6C483.4,226.7,480.6,229.4,480.6,232.7
							C480.6,236,480.6,229.4,480.6,232.7z M491.3,232.7c0,2.5-2.1,4.6-4.6,4.6c-2.5,0-4.6-2.1-4.6-4.6c0-2.5,2.1-4.6,4.6-4.6
							C489.2,228.1,491.3,230.2,491.3,232.7C491.3,235.2,491.3,230.2,491.3,232.7z"/>
					</g>
				</g>
				<g>
					<g>
						<circle class="st17" cx="431" cy="363.1" r="5.3"/>
						<linearGradient id="SVGID_6_" gradientUnits="userSpaceOnUse" x1="429.794" y1="363.0598" x2="487.8651" y2="363.0598">
							<stop  offset="0" style="stop-color:#F1F0F8"/>
							<stop  offset="1" style="stop-color:#9452FF"/>
						</linearGradient>
						<path class="st30" d="M424.9,363.1c0-3.3,2.7-6,6-6c3.3,0,6,2.7,6,6c0,3.3-2.7,6-6,6C427.6,369.1,424.9,366.4,424.9,363.1
							C424.9,359.7,424.9,366.4,424.9,363.1z M435.6,363.1c0-2.5-2.1-4.6-4.6-4.6c-2.5,0-4.6,2.1-4.6,4.6c0,2.5,2.1,4.6,4.6,4.6
							C433.5,367.7,435.6,365.6,435.6,363.1C435.6,360.5,435.6,365.6,435.6,363.1z"/>
					</g>
				</g>
			</g>
		</g>
		<g>
			<g>
				<g>
					<linearGradient id="SVGID_7_" gradientUnits="userSpaceOnUse" x1="224.8779" y1="348.2513" x2="387.097" y2="348.2513">
						<stop  offset="0" style="stop-color:#9452FF"/>
						<stop  offset="1" style="stop-color:#F1F0F8"/>
					</linearGradient>
					<polyline class="st31" points="226.1,304.7 226.1,352.1 317,352.1 317,391.8 385.9,391.8 					"/>
					<g>
						<g>
							<circle class="st17" cx="226.1" cy="304.7" r="5.3"/>
							<linearGradient id="SVGID_8_" gradientUnits="userSpaceOnUse" x1="224.8779" y1="304.6574" x2="387.097" y2="304.6574">
								<stop  offset="0" style="stop-color:#9452FF"/>
								<stop  offset="1" style="stop-color:#F1F0F8"/>
							</linearGradient>
							<path class="st32" d="M220,304.7c0,3.3,2.7,6,6,6c3.3,0,6-2.7,6-6c0-3.3-2.7-6-6-6C222.7,298.6,220,301.3,220,304.7
								C220,308,220,301.3,220,304.7z M230.7,304.7c0,2.5-2.1,4.6-4.6,4.6c-2.5,0-4.6-2.1-4.6-4.6c0-2.5,2.1-4.6,4.6-4.6
								C228.6,300,230.7,302.1,230.7,304.7C230.7,307.2,230.7,302.1,230.7,304.7z"/>
						</g>
					</g>
					<g>
						<g>
							<circle class="st17" cx="385.9" cy="391.8" r="5.3"/>
							<linearGradient id="SVGID_9_" gradientUnits="userSpaceOnUse" x1="224.8779" y1="391.8451" x2="387.097" y2="391.8451">
								<stop  offset="0" style="stop-color:#9452FF"/>
								<stop  offset="1" style="stop-color:#F1F0F8"/>
							</linearGradient>
							<path class="st33" d="M385.9,397.9c-3.3,0-6-2.7-6-6c0-3.3,2.7-6,6-6c3.3,0,6,2.7,6,6C392,395.2,389.2,397.9,385.9,397.9
								C382.6,397.9,389.2,397.9,385.9,397.9z M385.9,387.2c-2.5,0-4.6,2.1-4.6,4.6c0,2.5,2.1,4.6,4.6,4.6c2.5,0,4.6-2.1,4.6-4.6
								C390.5,389.3,388.5,387.2,385.9,387.2C383.4,387.2,388.5,387.2,385.9,387.2z"/>
						</g>
					</g>
				</g>
			</g>
			<g>
				<g>
					<linearGradient id="SVGID_10_" gradientUnits="userSpaceOnUse" x1="353.925" y1="297.8795" x2="411.9962" y2="297.8795">
						<stop  offset="0" style="stop-color:#9452FF"/>
						<stop  offset="1" style="stop-color:#F1F0F8"/>
					</linearGradient>
					<polyline class="st34" points="355.1,232.7 355.1,288.1 392.7,288.1 392.7,338.3 410.8,338.3 410.8,363.1 					"/>
					<g>
						<g>
							<circle class="st17" cx="355.1" cy="232.7" r="5.3"/>
							<linearGradient id="SVGID_11_" gradientUnits="userSpaceOnUse" x1="353.925" y1="232.6991" x2="411.9962" y2="232.6991">
								<stop  offset="0" style="stop-color:#9452FF"/>
								<stop  offset="1" style="stop-color:#F1F0F8"/>
							</linearGradient>
							<path class="st35" d="M349.1,232.7c0,3.3,2.7,6,6,6c3.3,0,6-2.7,6-6c0-3.3-2.7-6-6-6C351.8,226.7,349.1,229.4,349.1,232.7
								C349.1,236,349.1,229.4,349.1,232.7z M359.7,232.7c0,2.5-2.1,4.6-4.6,4.6c-2.5,0-4.6-2.1-4.6-4.6c0-2.5,2.1-4.6,4.6-4.6
								C357.7,228.1,359.7,230.2,359.7,232.7C359.7,235.2,359.7,230.2,359.7,232.7z"/>
						</g>
					</g>
					<g>
						<g>
							<circle class="st17" cx="410.8" cy="363.1" r="5.3"/>
							<linearGradient id="SVGID_12_" gradientUnits="userSpaceOnUse" x1="353.925" y1="363.0598" x2="411.9962" y2="363.0598">
								<stop  offset="0" style="stop-color:#9452FF"/>
								<stop  offset="1" style="stop-color:#F1F0F8"/>
							</linearGradient>
							<path class="st36" d="M404.8,363.1c0-3.3,2.7-6,6-6c3.3,0,6,2.7,6,6c0,3.3-2.7,6-6,6C407.5,369.1,404.8,366.4,404.8,363.1
								C404.8,359.7,404.8,366.4,404.8,363.1z M415.4,363.1c0-2.5-2.1-4.6-4.6-4.6c-2.5,0-4.6,2.1-4.6,4.6c0,2.5,2.1,4.6,4.6,4.6
								C413.4,367.7,415.4,365.6,415.4,363.1C415.4,360.5,415.4,365.6,415.4,363.1z"/>
						</g>
					</g>
				</g>
			</g>
		</g>
	</g>
	<g>
		<g>
			<g>
				<circle class="st37" cx="353.8" cy="391.4" r="10.6"/>
				<g>
					<path class="st17" d="M356.9,395.7c-0.6,0.5-1.3,0.9-2.1,1v1.3c0,0.2-0.1,0.4-0.2,0.5c-0.1,0.1-0.3,0.2-0.5,0.2
						c-0.2,0-0.4-0.1-0.5-0.2c-0.1-0.1-0.2-0.3-0.2-0.5v-1.2c-0.6-0.1-1.1-0.2-1.6-0.4c-0.5-0.2-0.9-0.5-1.4-0.9
						c-0.2-0.2-0.3-0.4-0.3-0.6c0-0.2,0.1-0.4,0.2-0.5c0.1-0.1,0.3-0.2,0.5-0.2c0.2,0,0.3,0.1,0.4,0.2c0.3,0.3,0.7,0.6,1,0.7
						c0.4,0.2,0.7,0.3,1.1,0.4v-3.6c-1-0.2-1.7-0.6-2.3-1.1c-0.5-0.5-0.8-1.2-0.8-2c0-0.8,0.3-1.5,0.8-2c0.6-0.5,1.3-0.9,2.2-1v-0.8
						c0-0.2,0.1-0.4,0.2-0.5c0.1-0.1,0.3-0.2,0.5-0.2c0.2,0,0.4,0.1,0.5,0.2c0.1,0.1,0.2,0.3,0.2,0.5v0.8c0.5,0.1,0.9,0.2,1.3,0.4
						c0.4,0.2,0.8,0.4,1,0.7c0.2,0.2,0.4,0.4,0.4,0.7c0,0.2-0.1,0.4-0.2,0.5c-0.1,0.1-0.3,0.2-0.5,0.2c-0.1,0-0.3,0-0.4-0.1
						c-0.2-0.2-0.4-0.4-0.7-0.5c-0.3-0.2-0.6-0.3-0.9-0.3v3.4c1,0.3,1.7,0.6,2.2,1.1c0.5,0.5,0.7,1.1,0.7,2
						C357.7,394.5,357.4,395.2,356.9,395.7z M352.1,389.6c0.3,0.3,0.7,0.5,1.2,0.6v-3.1c-0.5,0.1-0.9,0.3-1.2,0.5
						c-0.3,0.3-0.4,0.6-0.4,1C351.7,389,351.8,389.4,352.1,389.6z M355.8,394.7c0.3-0.3,0.4-0.6,0.4-0.9c0-0.4-0.1-0.7-0.4-1
						c-0.2-0.3-0.6-0.5-1.1-0.7v3.1C355.2,395.2,355.6,395,355.8,394.7z"/>
				</g>
			</g>
		</g>
	</g>
	<g>
		<g>
			<g>
				<circle class="st37" cx="488" cy="391.4" r="10.6"/>
				<g>
					<path class="st17" d="M491,395.7c-0.6,0.5-1.3,0.9-2.1,1v1.3c0,0.2-0.1,0.4-0.2,0.5c-0.1,0.1-0.3,0.2-0.5,0.2
						c-0.2,0-0.4-0.1-0.5-0.2c-0.1-0.1-0.2-0.3-0.2-0.5v-1.2c-0.6-0.1-1.1-0.2-1.6-0.4c-0.5-0.2-0.9-0.5-1.4-0.9
						c-0.2-0.2-0.3-0.4-0.3-0.6c0-0.2,0.1-0.4,0.2-0.5c0.1-0.1,0.3-0.2,0.5-0.2c0.2,0,0.3,0.1,0.4,0.2c0.3,0.3,0.7,0.6,1,0.7
						c0.3,0.2,0.7,0.3,1.1,0.4v-3.6c-1-0.2-1.7-0.6-2.3-1.1c-0.5-0.5-0.8-1.2-0.8-2c0-0.8,0.3-1.5,0.8-2c0.6-0.5,1.3-0.9,2.2-1v-0.8
						c0-0.2,0.1-0.4,0.2-0.5c0.1-0.1,0.3-0.2,0.5-0.2c0.2,0,0.4,0.1,0.5,0.2c0.1,0.1,0.2,0.3,0.2,0.5v0.8c0.5,0.1,0.9,0.2,1.3,0.4
						c0.4,0.2,0.8,0.4,1,0.7c0.2,0.2,0.4,0.4,0.4,0.7c0,0.2-0.1,0.4-0.2,0.5c-0.1,0.1-0.3,0.2-0.5,0.2c-0.1,0-0.3,0-0.4-0.1
						c-0.2-0.2-0.4-0.4-0.7-0.5c-0.3-0.2-0.6-0.3-0.9-0.3v3.4c1,0.3,1.7,0.6,2.2,1.1c0.5,0.5,0.7,1.1,0.7,2
						C491.8,394.5,491.6,395.2,491,395.7z M486.2,389.6c0.3,0.3,0.7,0.5,1.2,0.6v-3.1c-0.5,0.1-0.9,0.3-1.2,0.5
						c-0.3,0.3-0.4,0.6-0.4,1C485.8,389,486,389.4,486.2,389.6z M489.9,394.7c0.3-0.3,0.4-0.6,0.4-0.9c0-0.4-0.1-0.7-0.4-1
						c-0.2-0.3-0.6-0.5-1.1-0.7v3.1C489.3,395.2,489.7,395,489.9,394.7z"/>
				</g>
			</g>
		</g>
	</g>
	<g>
		<g>
			<g>
				<circle class="st37" cx="449.1" cy="312.7" r="10.6"/>
				<g>
					<path class="st17" d="M452.1,317c-0.6,0.5-1.3,0.9-2.1,1v1.3c0,0.2-0.1,0.4-0.2,0.5c-0.1,0.1-0.3,0.2-0.5,0.2
						c-0.2,0-0.4-0.1-0.5-0.2c-0.1-0.1-0.2-0.3-0.2-0.5V318c-0.6-0.1-1.1-0.2-1.6-0.4c-0.5-0.2-0.9-0.5-1.4-0.9
						c-0.2-0.2-0.3-0.4-0.3-0.6c0-0.2,0.1-0.4,0.2-0.5c0.1-0.1,0.3-0.2,0.5-0.2c0.2,0,0.3,0.1,0.4,0.2c0.3,0.3,0.7,0.6,1,0.7
						c0.3,0.2,0.7,0.3,1.1,0.4V313c-1-0.2-1.7-0.6-2.3-1.1c-0.5-0.5-0.8-1.2-0.8-2c0-0.8,0.3-1.5,0.8-2c0.6-0.5,1.3-0.9,2.2-1v-0.8
						c0-0.2,0.1-0.4,0.2-0.5c0.1-0.1,0.3-0.2,0.5-0.2c0.2,0,0.4,0.1,0.5,0.2c0.1,0.1,0.2,0.3,0.2,0.5v0.8c0.5,0.1,0.9,0.2,1.3,0.4
						c0.4,0.2,0.8,0.4,1,0.7c0.2,0.2,0.4,0.4,0.4,0.7c0,0.2-0.1,0.4-0.2,0.5c-0.1,0.1-0.3,0.2-0.5,0.2c-0.1,0-0.3,0-0.4-0.1
						c-0.2-0.2-0.4-0.4-0.7-0.5c-0.3-0.2-0.6-0.3-0.9-0.3v3.4c1,0.3,1.7,0.6,2.2,1.1c0.5,0.5,0.7,1.1,0.7,2
						C453,315.8,452.7,316.4,452.1,317z M447.4,310.9c0.3,0.3,0.7,0.5,1.2,0.6v-3.1c-0.5,0.1-0.9,0.3-1.2,0.5
						c-0.3,0.3-0.4,0.6-0.4,1C447,310.3,447.1,310.6,447.4,310.9z M451.1,316c0.3-0.3,0.4-0.6,0.4-0.9c0-0.4-0.1-0.7-0.4-1
						c-0.2-0.3-0.6-0.5-1.1-0.7v3.1C450.5,316.4,450.8,316.2,451.1,316z"/>
				</g>
			</g>
		</g>
	</g>
	<g>
		<g>
			<g>
				<circle class="st37" cx="392.7" cy="312.7" r="10.6"/>
				<g>
					<path class="st17" d="M395.7,317c-0.6,0.5-1.3,0.9-2.1,1v1.3c0,0.2-0.1,0.4-0.2,0.5c-0.1,0.1-0.3,0.2-0.5,0.2
						c-0.2,0-0.4-0.1-0.5-0.2c-0.1-0.1-0.2-0.3-0.2-0.5V318c-0.6-0.1-1.1-0.2-1.6-0.4c-0.5-0.2-0.9-0.5-1.4-0.9
						c-0.2-0.2-0.3-0.4-0.3-0.6c0-0.2,0.1-0.4,0.2-0.5c0.1-0.1,0.3-0.2,0.5-0.2c0.2,0,0.3,0.1,0.4,0.2c0.3,0.3,0.7,0.6,1,0.7
						c0.4,0.2,0.7,0.3,1.1,0.4V313c-1-0.2-1.7-0.6-2.3-1.1c-0.5-0.5-0.8-1.2-0.8-2c0-0.8,0.3-1.5,0.8-2c0.6-0.5,1.3-0.9,2.2-1v-0.8
						c0-0.2,0.1-0.4,0.2-0.5c0.1-0.1,0.3-0.2,0.5-0.2c0.2,0,0.4,0.1,0.5,0.2c0.1,0.1,0.2,0.3,0.2,0.5v0.8c0.5,0.1,0.9,0.2,1.3,0.4
						c0.4,0.2,0.8,0.4,1,0.7c0.2,0.2,0.4,0.4,0.4,0.7c0,0.2-0.1,0.4-0.2,0.5c-0.1,0.1-0.3,0.2-0.5,0.2c-0.1,0-0.3,0-0.4-0.1
						c-0.2-0.2-0.4-0.4-0.7-0.5c-0.3-0.2-0.6-0.3-0.9-0.3v3.4c1,0.3,1.7,0.6,2.2,1.1c0.5,0.5,0.7,1.1,0.7,2
						C396.6,315.8,396.3,316.4,395.7,317z M391,310.9c0.3,0.3,0.7,0.5,1.2,0.6v-3.1c-0.5,0.1-0.9,0.3-1.2,0.5
						c-0.3,0.3-0.4,0.6-0.4,1C390.6,310.3,390.7,310.6,391,310.9z M394.7,316c0.3-0.3,0.4-0.6,0.4-0.9c0-0.4-0.1-0.7-0.4-1
						c-0.2-0.3-0.6-0.5-1.1-0.7v3.1C394.1,316.4,394.4,316.2,394.7,316z"/>
				</g>
			</g>
		</g>
	</g>
	<g>
		<g>
			<g>
				<circle class="st37" cx="486.7" cy="264.6" r="10.6"/>
				<g>
					<path class="st17" d="M489.7,268.8c-0.6,0.5-1.3,0.9-2.1,1v1.3c0,0.2-0.1,0.4-0.2,0.5c-0.1,0.1-0.3,0.2-0.5,0.2
						c-0.2,0-0.4-0.1-0.5-0.2c-0.1-0.1-0.2-0.3-0.2-0.5v-1.2c-0.6-0.1-1.1-0.2-1.6-0.4c-0.5-0.2-0.9-0.5-1.4-0.9
						c-0.2-0.2-0.3-0.4-0.3-0.6c0-0.2,0.1-0.4,0.2-0.5c0.1-0.1,0.3-0.2,0.5-0.2c0.2,0,0.3,0.1,0.4,0.2c0.3,0.3,0.7,0.6,1,0.7
						c0.3,0.2,0.7,0.3,1.1,0.4v-3.6c-1-0.2-1.7-0.6-2.3-1.1c-0.5-0.5-0.8-1.2-0.8-2c0-0.8,0.3-1.5,0.8-2c0.6-0.5,1.3-0.9,2.2-1V258
						c0-0.2,0.1-0.4,0.2-0.5c0.1-0.1,0.3-0.2,0.5-0.2c0.2,0,0.4,0.1,0.5,0.2c0.1,0.1,0.2,0.3,0.2,0.5v0.8c0.5,0.1,0.9,0.2,1.3,0.4
						c0.4,0.2,0.8,0.4,1,0.7c0.2,0.2,0.4,0.4,0.4,0.7c0,0.2-0.1,0.4-0.2,0.5c-0.1,0.1-0.3,0.2-0.5,0.2c-0.1,0-0.3,0-0.4-0.1
						c-0.2-0.2-0.4-0.4-0.7-0.5c-0.3-0.2-0.6-0.3-0.9-0.3v3.4c1,0.3,1.7,0.6,2.2,1.1c0.5,0.5,0.7,1.1,0.7,2
						C490.6,267.6,490.3,268.3,489.7,268.8z M485,262.7c0.3,0.3,0.7,0.5,1.2,0.6v-3.1c-0.5,0.1-0.9,0.3-1.2,0.5
						c-0.3,0.3-0.4,0.6-0.4,1C484.6,262.2,484.7,262.5,485,262.7z M488.7,267.8c0.3-0.3,0.4-0.6,0.4-0.9c0-0.4-0.1-0.7-0.4-1
						c-0.2-0.3-0.6-0.5-1.1-0.7v3.1C488.1,268.3,488.4,268.1,488.7,267.8z"/>
				</g>
			</g>
		</g>
	</g>
	<g>
		<g>
			<g>
				<circle class="st37" cx="355.1" cy="264.6" r="10.6"/>
				<g>
					<path class="st17" d="M358.1,268.8c-0.6,0.5-1.3,0.9-2.1,1v1.3c0,0.2-0.1,0.4-0.2,0.5c-0.1,0.1-0.3,0.2-0.5,0.2
						c-0.2,0-0.4-0.1-0.5-0.2c-0.1-0.1-0.2-0.3-0.2-0.5v-1.2c-0.6-0.1-1.1-0.2-1.6-0.4c-0.5-0.2-0.9-0.5-1.4-0.9
						c-0.2-0.2-0.3-0.4-0.3-0.6c0-0.2,0.1-0.4,0.2-0.5c0.1-0.1,0.3-0.2,0.5-0.2c0.2,0,0.3,0.1,0.4,0.2c0.3,0.3,0.7,0.6,1,0.7
						c0.3,0.2,0.7,0.3,1.1,0.4v-3.6c-1-0.2-1.7-0.6-2.3-1.1c-0.5-0.5-0.8-1.2-0.8-2c0-0.8,0.3-1.5,0.8-2c0.6-0.5,1.3-0.9,2.2-1V258
						c0-0.2,0.1-0.4,0.2-0.5c0.1-0.1,0.3-0.2,0.5-0.2c0.2,0,0.4,0.1,0.5,0.2c0.1,0.1,0.2,0.3,0.2,0.5v0.8c0.5,0.1,0.9,0.2,1.3,0.4
						c0.4,0.2,0.8,0.4,1,0.7c0.2,0.2,0.4,0.4,0.4,0.7c0,0.2-0.1,0.4-0.2,0.5c-0.1,0.1-0.3,0.2-0.5,0.2c-0.1,0-0.3,0-0.4-0.1
						c-0.2-0.2-0.4-0.4-0.7-0.5c-0.3-0.2-0.6-0.3-0.9-0.3v3.4c1,0.3,1.7,0.6,2.2,1.1c0.5,0.5,0.7,1.1,0.7,2
						C359,267.6,358.7,268.3,358.1,268.8z M353.4,262.7c0.3,0.3,0.7,0.5,1.2,0.6v-3.1c-0.5,0.1-0.9,0.3-1.2,0.5
						c-0.3,0.3-0.4,0.6-0.4,1C353,262.2,353.1,262.5,353.4,262.7z M357.1,267.8c0.3-0.3,0.4-0.6,0.4-0.9c0-0.4-0.1-0.7-0.4-1
						c-0.2-0.3-0.6-0.5-1.1-0.7v3.1C356.5,268.3,356.8,268.1,357.1,267.8z"/>
				</g>
			</g>
		</g>
	</g>
	<g>
		<g>
			<g>
				<circle class="st37" cx="271.1" cy="352.1" r="10.6"/>
				<g>
					<path class="st17" d="M274.2,356.3c-0.6,0.5-1.3,0.9-2.1,1v1.3c0,0.2-0.1,0.4-0.2,0.5c-0.1,0.1-0.3,0.2-0.5,0.2
						c-0.2,0-0.4-0.1-0.5-0.2c-0.1-0.1-0.2-0.3-0.2-0.5v-1.2c-0.6-0.1-1.1-0.2-1.6-0.4c-0.5-0.2-0.9-0.5-1.4-0.9
						c-0.2-0.2-0.3-0.4-0.3-0.6c0-0.2,0.1-0.4,0.2-0.5c0.1-0.1,0.3-0.2,0.5-0.2c0.2,0,0.3,0.1,0.4,0.2c0.3,0.3,0.7,0.6,1,0.7
						c0.3,0.2,0.7,0.3,1.1,0.4v-3.6c-1-0.2-1.7-0.6-2.3-1.1c-0.5-0.5-0.8-1.2-0.8-2c0-0.8,0.3-1.5,0.8-2c0.6-0.5,1.3-0.9,2.2-1v-0.8
						c0-0.2,0.1-0.4,0.2-0.5c0.1-0.1,0.3-0.2,0.5-0.2c0.2,0,0.4,0.1,0.5,0.2c0.1,0.1,0.2,0.3,0.2,0.5v0.8c0.5,0.1,0.9,0.2,1.3,0.4
						c0.4,0.2,0.8,0.4,1,0.7c0.2,0.2,0.4,0.4,0.4,0.7c0,0.2-0.1,0.4-0.2,0.5c-0.1,0.1-0.3,0.2-0.5,0.2c-0.1,0-0.3,0-0.4-0.1
						c-0.2-0.2-0.4-0.4-0.7-0.5c-0.3-0.2-0.6-0.3-0.9-0.3v3.4c1,0.3,1.7,0.6,2.2,1.1c0.5,0.5,0.7,1.1,0.7,2
						C275,355.1,274.7,355.8,274.2,356.3z M269.4,350.3c0.3,0.3,0.7,0.5,1.2,0.6v-3.1c-0.5,0.1-0.9,0.3-1.2,0.5
						c-0.3,0.3-0.4,0.6-0.4,1C269,349.7,269.2,350,269.4,350.3z M273.1,355.3c0.3-0.3,0.4-0.6,0.4-0.9c0-0.4-0.1-0.7-0.4-1
						c-0.2-0.3-0.6-0.5-1.1-0.7v3.1C272.5,355.8,272.9,355.6,273.1,355.3z"/>
				</g>
			</g>
		</g>
	</g>
	<g>
		<g>
			<g>
				<circle class="st37" cx="570.7" cy="352.1" r="10.6"/>
				<g>
					<path class="st17" d="M573.7,356.3c-0.6,0.5-1.3,0.9-2.1,1v1.3c0,0.2-0.1,0.4-0.2,0.5c-0.1,0.1-0.3,0.2-0.5,0.2
						c-0.2,0-0.4-0.1-0.5-0.2c-0.1-0.1-0.2-0.3-0.2-0.5v-1.2c-0.6-0.1-1.1-0.2-1.6-0.4c-0.5-0.2-0.9-0.5-1.4-0.9
						c-0.2-0.2-0.3-0.4-0.3-0.6c0-0.2,0.1-0.4,0.2-0.5s0.3-0.2,0.5-0.2c0.2,0,0.3,0.1,0.4,0.2c0.3,0.3,0.7,0.6,1,0.7
						c0.3,0.2,0.7,0.3,1.1,0.4v-3.6c-1-0.2-1.7-0.6-2.3-1.1c-0.5-0.5-0.8-1.2-0.8-2c0-0.8,0.3-1.5,0.8-2c0.6-0.5,1.3-0.9,2.2-1v-0.8
						c0-0.2,0.1-0.4,0.2-0.5c0.1-0.1,0.3-0.2,0.5-0.2c0.2,0,0.4,0.1,0.5,0.2c0.1,0.1,0.2,0.3,0.2,0.5v0.8c0.5,0.1,0.9,0.2,1.3,0.4
						c0.4,0.2,0.8,0.4,1,0.7c0.2,0.2,0.4,0.4,0.4,0.7c0,0.2-0.1,0.4-0.2,0.5c-0.1,0.1-0.3,0.2-0.5,0.2c-0.1,0-0.3,0-0.4-0.1
						c-0.2-0.2-0.4-0.4-0.7-0.5c-0.3-0.2-0.6-0.3-0.9-0.3v3.4c1,0.3,1.7,0.6,2.2,1.1c0.5,0.5,0.7,1.1,0.7,2
						C574.5,355.1,574.3,355.8,573.7,356.3z M568.9,350.3c0.3,0.3,0.7,0.5,1.2,0.6v-3.1c-0.5,0.1-0.9,0.3-1.2,0.5
						c-0.3,0.3-0.4,0.6-0.4,1C568.5,349.7,568.7,350,568.9,350.3z M572.6,355.3c0.3-0.3,0.4-0.6,0.4-0.9c0-0.4-0.1-0.7-0.4-1
						c-0.2-0.3-0.6-0.5-1.1-0.7v3.1C572,355.8,572.4,355.6,572.6,355.3z"/>
				</g>
			</g>
		</g>
	</g>
</g>
</svg>
