<svg xmlns="http://www.w3.org/2000/svg" xmlns:xlink="http://www.w3.org/1999/xlink" id="Layer_1" x="0" y="0" enable-background="new 0 0 490 490" version="1.1" viewBox="0 0 490 490" xml:space="preserve"><style type="text/css">.st0{opacity:.68}.st1{opacity:0;fill:#fff}.st2{opacity:1.960800e-02;fill:#fcfcff}.st3{opacity:3.921600e-02;fill:#f8f9ff}.st4{opacity:5.882400e-02;fill:#f5f6ff}.st5{opacity:7.843100e-02;fill:#f2f4ff}.st6{opacity:9.803900e-02;fill:#eef1ff}.st7{opacity:.1176;fill:#ebeeff}.st8{opacity:.1373;fill:#e7ebff}.st9{opacity:.1569;fill:#e4e8ff}.st10{opacity:.1765;fill:#e1e5ff}.st11{opacity:.1961;fill:#dde2ff}.st12{opacity:.2157;fill:#dae0ff}.st13{opacity:.2353;fill:#d7ddff}.st14{opacity:.2549;fill:#d3daff}.st15{opacity:.2745;fill:#d0d7ff}.st16{opacity:.2941;fill:#ccd4ff}.st17{opacity:.3137;fill:#c9d1ff}.st18{opacity:.3333;fill:#c6ceff}.st19{opacity:.3529;fill:#c2cbff}.st20{opacity:.3725;fill:#bfc9ff}.st21{opacity:.3922;fill:#bcc6ff}.st22{opacity:.4118;fill:#b8c3ff}.st23{opacity:.4314;fill:#b5c0ff}.st24{opacity:.451;fill:#b1bdff}.st25{opacity:.4706;fill:#aebaff}.st26{opacity:.4902;fill:#abb7ff}.st27{opacity:.5098;fill:#a7b5fe}.st28{opacity:.5294;fill:#a4b2fe}.st29{opacity:.549;fill:#a1affe}.st30{opacity:.5686;fill:#9dacfe}.st31{opacity:.5882;fill:#9aa9fe}.st32{opacity:.6078;fill:#96a6fe}.st33{opacity:.6275;fill:#93a3fe}.st34{opacity:.6471;fill:#90a1fe}.st35{opacity:.6667;fill:#8c9efe}.st36{opacity:.6863;fill:#899bfe}.st37{opacity:.7059;fill:#8698fe}.st38{opacity:.7255;fill:#8295fe}.st39{opacity:.7451;fill:#7f92fe}.st40{opacity:.7647;fill:#7b8ffe}.st41{opacity:.7843;fill:#788cfe}.st42{opacity:.8039;fill:#758afe}.st43{opacity:.8235;fill:#7187fe}.st44{opacity:.8431;fill:#6e84fe}.st45{opacity:.8627;fill:#6b81fe}.st46{opacity:.8824;fill:#677efe}.st47{opacity:.902;fill:#647bfe}.st48{opacity:.9216;fill:#6078fe}.st49{opacity:.9412;fill:#5d76fe}.st50{opacity:.9608;fill:#5a73fe}.st51{opacity:.9804;fill:#5670fe}.st52{fill:#536dfe}.st53{fill:url(#XMLID_2_)}.st54{fill:url(#XMLID_3_)}.st55{fill:none;stroke:#78727f;stroke-width:3;stroke-linecap:round;stroke-miterlimit:10}.st56{fill:url(#XMLID_4_)}.st57{fill:url(#XMLID_5_)}.st58{fill:url(#XMLID_6_)}.st59{fill:url(#XMLID_7_)}.st60{fill:#1d073f}.st61{fill:url(#XMLID_8_)}.st62{fill:#48486a}.st63{fill:url(#XMLID_9_)}.st64{clip-path:url(#XMLID_10_);fill:url(#XMLID_11_)}.st65,.st66{fill:none;stroke:url(#XMLID_12_);stroke-miterlimit:10}.st66{opacity:.8;stroke:url(#XMLID_13_)}.st67{fill:url(#SVGID_1_)}.st68{fill:url(#SVGID_2_)}.st69{fill:#f0e7ff}.st70{fill:#7e44d8}.st71{fill:#fff}.st72{fill:url(#XMLID_14_)}.st73{fill:url(#XMLID_15_)}.st74{fill:url(#XMLID_16_)}.st75{fill:url(#XMLID_17_)}.st76{fill:url(#XMLID_18_)}.st77{fill:url(#XMLID_19_)}.st78{fill:url(#XMLID_20_)}.st79{fill:url(#XMLID_21_)}.st80{clip-path:url(#XMLID_22_);fill:url(#XMLID_23_)}.st81,.st82{fill:none;stroke:url(#XMLID_24_);stroke-miterlimit:10}.st82{opacity:.8;stroke:url(#XMLID_25_)}.st83{fill:url(#SVGID_3_)}.st84{fill:url(#SVGID_4_)}.st85{fill:#c8b6e3}.st86{fill:#c2a3ff}.st87{fill:#491e8c}.st88{stroke:url(#SVGID_5_)}.st88,.st89,.st90{fill:none;stroke-width:2;stroke-linecap:round;stroke-linejoin:round;stroke-miterlimit:10}.st89{stroke:url(#SVGID_6_)}.st90{stroke:url(#SVGID_7_)}.st91{opacity:.75;fill:#ffebd1}.st92{fill:url(#SVGID_8_)}.st93{fill:url(#SVGID_9_)}.st94{fill:url(#XMLID_26_)}.st95{fill:url(#XMLID_27_)}.st96{fill:url(#XMLID_28_)}.st97{fill:url(#XMLID_29_)}.st98{fill:url(#XMLID_30_)}.st99{fill:url(#XMLID_31_)}.st100{fill:url(#XMLID_32_)}.st101{fill:url(#XMLID_33_)}.st102{clip-path:url(#XMLID_34_);fill:url(#XMLID_35_)}.st103,.st104{fill:none;stroke:url(#XMLID_36_);stroke-miterlimit:10}.st104{opacity:.8;stroke:url(#XMLID_37_)}.st105{fill:url(#SVGID_10_)}.st106{fill:url(#SVGID_11_)}.st107{stroke:url(#SVGID_12_)}.st107,.st108,.st109,.st110{fill:none;stroke-width:2;stroke-linecap:round;stroke-linejoin:round;stroke-miterlimit:10}.st108{stroke:url(#SVGID_13_)}.st109{stroke:url(#SVGID_14_)}.st110{stroke:url(#SVGID_15_)}.st111{fill:url(#XMLID_38_)}.st112{fill:url(#XMLID_39_)}.st113{fill:url(#XMLID_40_)}.st114{fill:url(#XMLID_41_)}.st115{fill:url(#XMLID_42_)}.st116{fill:url(#XMLID_43_)}.st117{fill:url(#XMLID_44_)}.st118{fill:url(#XMLID_45_)}.st119{clip-path:url(#XMLID_46_);fill:url(#XMLID_47_)}.st120,.st121{fill:none;stroke:url(#XMLID_48_);stroke-miterlimit:10}.st121{opacity:.8;stroke:url(#XMLID_49_)}.st122{fill:url(#SVGID_16_)}.st123{fill:url(#SVGID_17_)}.st124{fill:none;stroke:#fff;stroke-width:.9161;stroke-linecap:round;stroke-linejoin:round}.st125{fill:url(#SVGID_18_)}</style><g><g><g><g id="XMLID_6503_"><g class="st0"><path id="XMLID_6507_" d="M402.7,103.1c-9.1-5.3-24-5.3-33.2,0l-80.3,46.4c-9.1,5.3-9.1,13.9,0,19.1l80.3,46.4 c9.1,5.3,24,5.3,33.2,0l80.3-46.4c9.1-5.3,9.1-13.9,0-19.1L402.7,103.1z" class="st1"/><path d="M402.7,103.3c-9.1-5.2-23.9-5.2-33,0l-80,46.2c-9.1,5.2-9.1,13.8,0,19.1l80,46.2c9.1,5.2,23.9,5.2,33,0 l80-46.2c9.1-5.2,9.1-13.8,0-19.1L402.7,103.3z" class="st2"/><path d="M402.6,103.6c-9-5.2-23.8-5.2-32.8,0l-79.6,45.9c-9,5.2-9,13.7,0,19l79.6,45.9c9,5.2,23.8,5.2,32.8,0 l79.6-45.9c9-5.2,9-13.7,0-19L402.6,103.6z" class="st3"/><path d="M402.5,103.9c-9-5.2-23.7-5.2-32.7,0l-79.2,45.7c-9,5.2-9,13.7,0,18.9l79.2,45.7c9,5.2,23.7,5.2,32.7,0 l79.2-45.7c9-5.2,9-13.7,0-18.9L402.5,103.9z" class="st4"/><path d="M402.4,104.1c-8.9-5.2-23.6-5.2-32.5,0l-78.8,45.5c-8.9,5.2-8.9,13.6,0,18.8l78.8,45.5 c8.9,5.2,23.6,5.2,32.5,0l78.8-45.5c8.9-5.2,8.9-13.6,0-18.8L402.4,104.1z" class="st5"/><path d="M402.3,104.4c-8.9-5.1-23.5-5.1-32.4,0l-78.4,45.3c-8.9,5.1-8.9,13.5,0,18.7l78.4,45.3 c8.9,5.1,23.5,5.1,32.4,0l78.4-45.3c8.9-5.1,8.9-13.5,0-18.7L402.3,104.4z" class="st6"/><path d="M402.3,104.7c-8.9-5.1-23.4-5.1-32.2,0l-78,45.1c-8.9,5.1-8.9,13.5,0,18.6l78,45.1 c8.9,5.1,23.4,5.1,32.2,0l78-45.1c8.9-5.1,8.9-13.5,0-18.6L402.3,104.7z" class="st7"/><path d="M402.2,104.9c-8.8-5.1-23.2-5.1-32.1,0l-77.6,44.8c-8.8,5.1-8.8,13.4,0,18.5l77.6,44.8 c8.8,5.1,23.2,5.1,32.1,0l77.6-44.8c8.8-5.1,8.8-13.4,0-18.5L402.2,104.9z" class="st8"/><path d="M402.1,105.2c-8.8-5.1-23.1-5.1-31.9,0l-77.3,44.6c-8.8,5.1-8.8,13.3,0,18.4l77.3,44.6 c8.8,5.1,23.1,5.1,31.9,0l77.3-44.6c8.8-5.1,8.8-13.3,0-18.4L402.1,105.2z" class="st9"/><path d="M402,105.5c-8.7-5-23-5-31.7,0l-76.9,44.4c-8.7,5-8.7,13.3,0,18.3l76.9,44.4c8.7,5,23,5,31.7,0l76.9-44.4 c8.7-5,8.7-13.3,0-18.3L402,105.5z" class="st10"/><path d="M401.9,105.8c-8.7-5-22.9-5-31.6,0l-76.5,44.2c-8.7,5-8.7,13.2,0,18.2l76.5,44.2c8.7,5,22.9,5,31.6,0 l76.5-44.2c8.7-5,8.7-13.2,0-18.2L401.9,105.8z" class="st11"/><path d="M401.9,106c-8.6-5-22.8-5-31.4,0L294.3,150c-8.6,5-8.6,13.1,0,18.1l76.1,43.9c8.6,5,22.8,5,31.4,0 l76.1-43.9c8.6-5,8.6-13.1,0-18.1L401.9,106z" class="st12"/><path d="M401.8,106.3c-8.6-5-22.7-5-31.3,0L294.8,150c-8.6,5-8.6,13.1,0,18l75.7,43.7c8.6,5,22.7,5,31.3,0 l75.7-43.7c8.6-5,8.6-13.1,0-18L401.8,106.3z" class="st13"/><path d="M401.7,106.6c-8.6-4.9-22.5-4.9-31.1,0l-75.3,43.5c-8.6,4.9-8.6,13,0,18l75.3,43.5 c8.6,4.9,22.5,4.9,31.1,0L477,168c8.6-4.9,8.6-13,0-18L401.7,106.6z" class="st14"/><path d="M401.6,106.8c-8.5-4.9-22.4-4.9-30.9,0l-74.9,43.3c-8.5,4.9-8.5,13,0,17.9l74.9,43.3 c8.5,4.9,22.4,4.9,30.9,0l74.9-43.3c8.5-4.9,8.5-12.9,0-17.9L401.6,106.8z" class="st15"/><path d="M401.5,107.1c-8.5-4.9-22.3-4.9-30.8,0l-74.6,43c-8.5,4.9-8.5,12.9,0,17.8l74.6,43 c8.5,4.9,22.3,4.9,30.8,0l74.6-43c8.5-4.9,8.5-12.9,0-17.8L401.5,107.1z" class="st16"/><path d="M401.5,107.4c-8.4-4.9-22.2-4.9-30.6,0l-74.2,42.8c-8.4,4.9-8.4,12.8,0,17.7l74.2,42.8 c8.4,4.9,22.2,4.9,30.6,0l74.2-42.8c8.4-4.9,8.4-12.8,0-17.7L401.5,107.4z" class="st17"/><path d="M401.4,107.6c-8.4-4.8-22.1-4.8-30.5,0l-73.8,42.6c-8.4,4.8-8.4,12.8,0,17.6l73.8,42.6 c8.4,4.8,22.1,4.8,30.5,0l73.8-42.6c8.4-4.8,8.4-12.7,0-17.6L401.4,107.6z" class="st18"/><path d="M401.3,107.9c-8.3-4.8-22-4.8-30.3,0l-73.4,42.4c-8.3,4.8-8.3,12.7,0,17.5l73.4,42.4 c8.3,4.8,22,4.8,30.3,0l73.4-42.4c8.3-4.8,8.3-12.7,0-17.5L401.3,107.9z" class="st19"/><path d="M401.2,108.2c-8.3-4.8-21.9-4.8-30.1,0l-73,42.2c-8.3,4.8-8.3,12.6,0,17.4l73,42.2 c8.3,4.8,21.9,4.8,30.1,0l73-42.2c8.3-4.8,8.3-12.6,0-17.4L401.2,108.2z" class="st20"/><path d="M401.1,108.4c-8.2-4.8-21.7-4.8-30,0l-72.6,41.9c-8.2,4.8-8.2,12.6,0,17.3l72.6,41.9 c8.2,4.8,21.7,4.8,30,0l72.6-41.9c8.2-4.8,8.2-12.5,0-17.3L401.1,108.4z" class="st21"/><path d="M401.1,108.7c-8.2-4.7-21.6-4.7-29.8,0L299,150.4c-8.2,4.7-8.2,12.5,0,17.2l72.3,41.7 c8.2,4.7,21.6,4.7,29.8,0l72.3-41.7c8.2-4.7,8.2-12.5,0-17.2L401.1,108.7z" class="st22"/><path d="M401,109c-8.2-4.7-21.5-4.7-29.7,0l-71.9,41.5c-8.2,4.7-8.2,12.4,0,17.1l71.9,41.5 c8.2,4.7,21.5,4.7,29.7,0l71.9-41.5c8.2-4.7,8.2-12.4,0-17.1L401,109z" class="st23"/><path d="M400.9,109.2c-8.1-4.7-21.4-4.7-29.5,0l-71.5,41.3c-8.1,4.7-8.1,12.4,0,17l71.5,41.3 c8.1,4.7,21.4,4.7,29.5,0l71.5-41.3c8.1-4.7,8.1-12.4,0-17L400.9,109.2z" class="st24"/><path d="M400.8,109.5c-8.1-4.7-21.3-4.7-29.3,0l-71.1,41c-8.1,4.7-8.1,12.3,0,16.9l71.1,41 c8.1,4.7,21.3,4.7,29.3,0l71.1-41c8.1-4.7,8.1-12.3,0-16.9L400.8,109.5z" class="st25"/><path d="M400.7,109.8c-8-4.6-21.2-4.6-29.2,0l-70.7,40.8c-8,4.6-8,12.2,0,16.9l70.7,40.8c8,4.6,21.2,4.6,29.2,0 l70.7-40.8c8-4.6,8-12.2,0-16.9L400.7,109.8z" class="st26"/><path d="M400.7,110c-8-4.6-21-4.6-29,0l-70.3,40.6c-8,4.6-8,12.2,0,16.8l70.3,40.6c8,4.6,21,4.6,29,0l70.3-40.6 c8-4.6,8-12.2,0-16.8L400.7,110z" class="st27"/><path d="M400.6,110.3c-7.9-4.6-20.9-4.6-28.9,0l-69.9,40.4c-7.9,4.6-7.9,12.1,0,16.7l69.9,40.4 c7.9,4.6,20.9,4.6,28.9,0l69.9-40.4c7.9-4.6,7.9-12.1,0-16.7L400.6,110.3z" class="st28"/><path d="M400.5,110.6c-7.9-4.6-20.8-4.6-28.7,0l-69.6,40.2c-7.9,4.6-7.9,12,0,16.6l69.6,40.2 c7.9,4.6,20.8,4.6,28.7,0l69.6-40.2c7.9-4.6,7.9-12,0-16.6L400.5,110.6z" class="st29"/><path d="M400.4,110.9c-7.9-4.5-20.7-4.5-28.6,0l-69.2,39.9c-7.9,4.5-7.9,12,0,16.5l69.2,39.9 c7.9,4.5,20.7,4.5,28.6,0l69.2-39.9c7.9-4.5,7.9-11.9,0-16.5L400.4,110.9z" class="st30"/><path d="M400.3,111.1c-7.8-4.5-20.6-4.5-28.4,0l-68.8,39.7c-7.8,4.5-7.8,11.9,0,16.4l68.8,39.7 c7.8,4.5,20.6,4.5,28.4,0l68.8-39.7c7.8-4.5,7.8-11.9,0-16.4L400.3,111.1z" class="st31"/><path d="M400.3,111.4c-7.8-4.5-20.5-4.5-28.2,0l-68.4,39.5c-7.8,4.5-7.8,11.8,0,16.3l68.4,39.5 c7.8,4.5,20.5,4.5,28.2,0l68.4-39.5c7.8-4.5,7.8-11.8,0-16.3L400.3,111.4z" class="st32"/><path d="M400.2,111.7c-7.7-4.5-20.4-4.5-28.1,0l-68,39.3c-7.7,4.5-7.7,11.8,0,16.2l68,39.3 c7.7,4.5,20.4,4.5,28.1,0l68-39.3c7.7-4.5,7.7-11.7,0-16.2L400.2,111.7z" class="st33"/><path d="M400.1,111.9c-7.7-4.4-20.2-4.4-27.9,0l-67.6,39c-7.7,4.4-7.7,11.7,0,16.1l67.6,39 c7.7,4.4,20.2,4.4,27.9,0l67.6-39c7.7-4.4,7.7-11.7,0-16.1L400.1,111.9z" class="st34"/><path d="M400,112.2c-7.6-4.4-20.1-4.4-27.8,0L305,151c-7.6,4.4-7.6,11.6,0,16l67.2,38.8c7.6,4.4,20.1,4.4,27.8,0 l67.2-38.8c7.6-4.4,7.6-11.6,0-16L400,112.2z" class="st35"/><path d="M400,112.5c-7.6-4.4-20-4.4-27.6,0l-66.9,38.6c-7.6,4.4-7.6,11.6,0,15.9l66.9,38.6c7.6,4.4,20,4.4,27.6,0 l66.9-38.6c7.6-4.4,7.6-11.6,0-15.9L400,112.5z" class="st36"/><path d="M399.9,112.7c-7.5-4.4-19.9-4.4-27.4,0L306,151.1c-7.5,4.4-7.5,11.5,0,15.8l66.5,38.4 c7.5,4.4,19.9,4.4,27.4,0l66.5-38.4c7.5-4.4,7.5-11.5,0-15.8L399.9,112.7z" class="st37"/><path d="M399.8,113c-7.5-4.3-19.8-4.3-27.3,0l-66.1,38.2c-7.5,4.3-7.5,11.4,0,15.7l66.1,38.2 c7.5,4.3,19.8,4.3,27.3,0l66.1-38.2c7.5-4.3,7.5-11.4,0-15.7L399.8,113z" class="st38"/><path d="M399.7,113.3c-7.5-4.3-19.7-4.3-27.1,0l-65.7,37.9c-7.5,4.3-7.5,11.4,0,15.7l65.7,37.9 c7.5,4.3,19.7,4.3,27.1,0l65.7-37.9c7.5-4.3,7.5-11.4,0-15.7L399.7,113.3z" class="st39"/><path d="M399.6,113.5c-7.4-4.3-19.5-4.3-27,0l-65.3,37.7c-7.4,4.3-7.4,11.3,0,15.6l65.3,37.7 c7.4,4.3,19.5,4.3,27,0l65.3-37.7c7.4-4.3,7.4-11.3,0-15.6L399.6,113.5z" class="st40"/><path d="M399.6,113.8c-7.4-4.3-19.4-4.3-26.8,0l-64.9,37.5c-7.4,4.3-7.4,11.2,0,15.5l64.9,37.5 c7.4,4.3,19.4,4.3,26.8,0l64.9-37.5c7.4-4.3,7.4-11.2,0-15.5L399.6,113.8z" class="st41"/><path d="M399.5,114.1c-7.3-4.2-19.3-4.2-26.6,0l-64.5,37.3c-7.3,4.2-7.3,11.2,0,15.4l64.5,37.3 c7.3,4.2,19.3,4.2,26.6,0l64.5-37.3c7.3-4.2,7.3-11.2,0-15.4L399.5,114.1z" class="st42"/><path d="M399.4,114.3c-7.3-4.2-19.2-4.2-26.5,0l-64.2,37c-7.3,4.2-7.3,11.1,0,15.3l64.2,37 c7.3,4.2,19.2,4.2,26.5,0l64.2-37c7.3-4.2,7.3-11.1,0-15.3L399.4,114.3z" class="st43"/><path d="M399.3,114.6c-7.2-4.2-19.1-4.2-26.3,0l-63.8,36.8c-7.2,4.2-7.2,11,0,15.2l63.8,36.8 c7.2,4.2,19.1,4.2,26.3,0l63.8-36.8c7.2-4.2,7.2-11,0-15.2L399.3,114.6z" class="st44"/><path d="M399.2,114.9c-7.2-4.2-19-4.2-26.2,0l-63.4,36.6c-7.2,4.2-7.2,11,0,15.1l63.4,36.6c7.2,4.2,19,4.2,26.2,0 l63.4-36.6c7.2-4.2,7.2-11,0-15.1L399.2,114.9z" class="st45"/><path d="M399.2,115.2c-7.2-4.1-18.9-4.1-26,0l-63,36.4c-7.2,4.1-7.2,10.9,0,15l63,36.4c7.2,4.1,18.9,4.1,26,0 l63-36.4c7.2-4.1,7.2-10.9,0-15L399.2,115.2z" class="st46"/><path d="M399.1,115.4c-7.1-4.1-18.7-4.1-25.8,0l-62.6,36.2c-7.1,4.1-7.1,10.8,0,14.9l62.6,36.2 c7.1,4.1,18.7,4.1,25.8,0l62.6-36.2c7.1-4.1,7.1-10.8,0-14.9L399.1,115.4z" class="st47"/><path d="M399,115.7c-7.1-4.1-18.6-4.1-25.7,0l-62.2,35.9c-7.1,4.1-7.1,10.8,0,14.8l62.2,35.9 c7.1,4.1,18.6,4.1,25.7,0l62.2-35.9c7.1-4.1,7.1-10.8,0-14.8L399,115.7z" class="st48"/><path d="M398.9,116c-7-4.1-18.5-4.1-25.5,0l-61.8,35.7c-7,4.1-7,10.7,0,14.7l61.8,35.7c7,4.1,18.5,4.1,25.5,0 l61.8-35.7c7-4.1,7-10.7,0-14.7L398.9,116z" class="st49"/><path d="M398.8,116.2c-7-4-18.4-4-25.4,0L312,151.7c-7,4-7,10.6,0,14.6l61.5,35.5c7,4,18.4,4,25.4,0l61.5-35.5 c7-4,7-10.6,0-14.6L398.8,116.2z" class="st50"/><path d="M398.8,116.5c-6.9-4-18.3-4-25.2,0l-61.1,35.3c-6.9,4-6.9,10.6,0,14.6l61.1,35.3c6.9,4,18.3,4,25.2,0 l61.1-35.3c6.9-4,6.9-10.6,0-14.6L398.8,116.5z" class="st51"/><path id="XMLID_6506_" d="M398.7,116.8c-6.9-4-18.2-4-25,0l-60.7,35c-6.9,4-6.9,10.5,0,14.5l60.7,35 c6.9,4,18.2,4,25,0l60.7-35c6.9-4,6.9-10.5,0-14.5L398.7,116.8z" class="st52"/></g><linearGradient id="XMLID_2_" x1="292.63" x2="480.686" y1="158.074" y2="158.074" gradientUnits="userSpaceOnUse"><stop offset="0" stop-color="#B4ACBF"/><stop offset=".515" stop-color="#D1C8DE"/><stop offset="1" stop-color="#F0E5FF"/></linearGradient><path id="XMLID_6505_" d="M382.9,103.8l-90.3,42.9V159c0,0.7,0.4,1.4,1,1.7l89.2,51.6c2.3,1.3,5.2,1.3,7.6,0 l89.1-51.5c0.7-0.4,1.1-1.2,1.1-2v-12.1l-90.3-42.9C388.1,102.5,385.2,102.5,382.9,103.8z" class="st53"/><linearGradient id="XMLID_3_" x1="292.63" x2="480.686" y1="146.694" y2="146.694" gradientUnits="userSpaceOnUse"><stop offset="0" stop-color="#F0E5FF"/><stop offset="1" stop-color="#FFF"/></linearGradient><path id="XMLID_6504_" d="M382.9,92.4l-88.4,51c-2.5,1.4-2.5,5,0,6.5l88.4,51c2.3,1.3,5.2,1.3,7.6,0l88.4-51 c2.5-1.4,2.5-5,0-6.5l-88.4-51C388.1,91.1,385.2,91.1,382.9,92.4z" class="st54"/><line x1="335.4" x2="340.4" y1="180.2" y2="183.1" class="st55"/></g><g><linearGradient id="XMLID_4_" x1="319.085" x2="453.218" y1="144.955" y2="144.955" gradientUnits="userSpaceOnUse"><stop offset="0" stop-color="#F0E5FF"/><stop offset="1" stop-color="#FFF"/></linearGradient><path id="XMLID_6502_" d="M383.5,106.3l-63,36.4c-1.8,1-1.8,3.6,0,4.6l63,36.4c1.7,1,3.7,1,5.4,0l63-36.4 c1.8-1,1.8-3.6,0-4.6l-63-36.4C387.2,105.3,385.1,105.3,383.5,106.3z" class="st56"/><linearGradient id="XMLID_5_" x1="319.098" x2="453.206" y1="163.926" y2="163.926" gradientUnits="userSpaceOnUse"><stop offset=".15" stop-color="#FF9800"/><stop offset="1" stop-color="#FFC107"/></linearGradient><path id="XMLID_6501_" d="M451.9,144.3l-63,36.4c-1.7,1-3.7,1-5.4,0l-63-36.4c-0.4-0.2-0.6-0.5-0.9-0.8 c-0.8,1.2-0.5,3,0.9,3.8l63,36.4c1.7,1,3.7,1,5.4,0l63-36.4c1.4-0.8,1.7-2.6,0.9-3.8C452.5,143.8,452.3,144.1,451.9,144.3z" class="st57"/><linearGradient id="XMLID_6_" x1="319.098" x2="453.206" y1="163.926" y2="163.926" gradientUnits="userSpaceOnUse"><stop offset="0" stop-color="#B4ACBF"/><stop offset=".515" stop-color="#D1C8DE"/><stop offset="1" stop-color="#F0E5FF"/></linearGradient><path id="XMLID_6500_" d="M451.9,144.3l-63,36.4c-1.7,1-3.7,1-5.4,0l-63-36.4c-0.4-0.2-0.6-0.5-0.9-0.8 c-0.8,1.2-0.5,3,0.9,3.8l63,36.4c1.7,1,3.7,1,5.4,0l63-36.4c1.4-0.8,1.7-2.6,0.9-3.8C452.5,143.8,452.3,144.1,451.9,144.3z" class="st58"/></g><g><linearGradient id="XMLID_7_" x1="338.455" x2="433.849" y1="143.286" y2="143.286" gradientUnits="userSpaceOnUse"><stop offset="0" stop-color="#2F1359"/><stop offset="1" stop-color="#491E8C"/></linearGradient><path id="XMLID_6457_" d="M384.2,115.8l-44.8,25.9c-1.3,0.7-1.3,2.6,0,3.3l44.8,25.9c1.2,0.7,2.6,0.7,3.8,0 l44.8-25.9c1.3-0.7,1.3-2.6,0-3.3l-44.8-25.9C386.9,115.1,385.4,115.1,384.2,115.8z" class="st59"/><path id="XMLID_6456_" d="M432.9,143.8l-44.8,25.9c-1.2,0.7-2.6,0.7-3.8,0l-44.8-25.9c-0.4-0.3-0.7-0.6-0.9-1.1 c-0.2,0.8,0,1.7,0.9,2.2l44.8,25.9c1.2,0.7,2.6,0.7,3.8,0l44.8-25.9c0.8-0.5,1.1-1.4,0.9-2.2 C433.6,143.2,433.3,143.5,432.9,143.8z" class="st60"/><linearGradient id="XMLID_8_" x1="349.527" x2="422.776" y1="142.822" y2="142.822" gradientUnits="userSpaceOnUse"><stop offset=".15" stop-color="#FF9800"/><stop offset="1" stop-color="#FFC107"/></linearGradient><path id="XMLID_6455_" d="M384.7,121.7l-34.4,19.9c-1,0.6-1,2,0,2.5l34.4,19.9c0.9,0.5,2,0.5,2.9,0l34.4-19.9 c1-0.6,1-2,0-2.5l-34.4-19.9C386.7,121.2,385.6,121.2,384.7,121.7z" class="st61"/><path id="XMLID_6454_" d="M350.3,142.9l34.4-19.9c0.9-0.5,2-0.5,2.9,0l34.4,19.9c0.3,0.1,0.4,0.4,0.6,0.6 c0.3-0.7,0.2-1.5-0.6-1.9l-34.4-19.9c-0.9-0.5-2-0.5-2.9,0l-34.4,19.9c-0.7,0.4-0.9,1.3-0.6,1.9 C349.8,143.3,350,143,350.3,142.9z" class="st62"/><g id="XMLID_6445_"><path id="XMLID_6453_" d="M384.7,121.7l-34.4,19.9c-1,0.6-1,2,0,2.5l34.4,19.9c0.9,0.5,2,0.5,2.9,0l34.4-19.9 c1-0.6,1-2,0-2.5l-34.4-19.9C386.7,121.2,385.6,121.2,384.7,121.7z" class="st60"/><g id="XMLID_6451_"><linearGradient id="XMLID_9_" x1="386.157" x2="386.157" y1="164.351" y2="6.061" gradientUnits="userSpaceOnUse"><stop offset="0" stop-color="#FFA744" stop-opacity=".7"/><stop offset=".047" stop-color="#FDAE59" stop-opacity=".667"/><stop offset=".161" stop-color="#FABC85" stop-opacity=".587"/><stop offset=".28" stop-color="#F7C9AA" stop-opacity=".504"/><stop offset=".403" stop-color="#F4D3C9" stop-opacity=".418"/><stop offset=".531" stop-color="#F2DBE1" stop-opacity=".328"/><stop offset=".667" stop-color="#F1E1F2" stop-opacity=".233"/><stop offset=".815" stop-color="#F0E4FC" stop-opacity=".129"/><stop offset="1" stop-color="#F0E5FF" stop-opacity="0"/></linearGradient><path id="XMLID_6452_" d="M349.5,6.1c0,0,0,136.3,0,136.8c0,0.5,0.2,1,0.7,1.3l34.4,19.9c0.9,0.5,2,0.5,2.9,0 l34.4-19.9c0.5-0.3,0.7-0.7,0.7-1.2c0-0.5,0-136.8,0-136.8H349.5z" class="st63"/></g><g><defs><path id="XMLID_6446_" d="M384.7,121.7l-34.4,19.9c-1,0.6-1,2,0,2.5l34.4,19.9c0.9,0.5,2,0.5,2.9,0l34.4-19.9 c1-0.6,1-2,0-2.5l-34.4-19.9C386.7,121.2,385.6,121.2,384.7,121.7z"/></defs><clipPath id="XMLID_10_"><use overflow="visible" xlink:href="#XMLID_6446_"/></clipPath><radialGradient id="XMLID_11_" cx="386.152" cy="144.723" r="30.041" gradientUnits="userSpaceOnUse"><stop offset="0" stop-color="#FFF"/><stop offset="1" stop-color="#FFA744"/></radialGradient><path id="XMLID_6450_" d="M384.7,123.6l-34.4,19.9c-1,0.6-1,2,0,2.5l34.4,19.9c0.9,0.5,2,0.5,2.9,0L422,146 c1-0.6,1-2,0-2.5l-34.4-19.9C386.7,123.1,385.6,123.1,384.7,123.6z" class="st64"/></g></g><g><linearGradient id="XMLID_12_" x1="386.152" x2="386.152" y1="145.498" y2="121.776" gradientUnits="userSpaceOnUse"><stop offset="0" stop-color="#FFF" stop-opacity=".7"/><stop offset="1" stop-color="#F0E5FF" stop-opacity="0"/></linearGradient><path id="XMLID_6444_" d="M350.3,122.2c-1,0.6-1,2,0,2.5l34.4,19.9c0.9,0.5,2,0.5,2.9,0l34.4-19.9 c1-0.6,1-2,0-2.5" class="st65"/><linearGradient id="XMLID_13_" x1="386.152" x2="386.152" y1="126.144" y2="102.422" gradientUnits="userSpaceOnUse"><stop offset="0" stop-color="#FFF" stop-opacity=".7"/><stop offset="1" stop-color="#F0E5FF" stop-opacity="0"/></linearGradient><path id="XMLID_4890_" d="M350.3,102.9c-1,0.6-1,2,0,2.5l34.4,19.9c0.9,0.5,2,0.5,2.9,0l34.4-19.9 c1-0.6,1-2,0-2.5" class="st66"/></g></g></g><g><g><linearGradient id="SVGID_1_" x1="339.926" x2="434.458" y1="80.987" y2="80.987" gradientUnits="userSpaceOnUse"><stop offset="0" stop-color="#9B82CC" stop-opacity=".7"/><stop offset=".197" stop-color="#AB90E1" stop-opacity=".7"/><stop offset=".429" stop-color="#B89AF2" stop-opacity=".7"/><stop offset=".683" stop-color="#C0A1FC" stop-opacity=".7"/><stop offset="1" stop-color="#C2A3FF" stop-opacity=".7"/></linearGradient><path d="M432.4,161.7L342,109.5c-1.1-0.7-2.1-2.1-2.1-3.3V1.2c0-1.1,0.9-1.5,2.1-0.9l90.4,52.2 c1.1,0.7,2.1,2.1,2.1,3.3v105C434.5,161.9,433.5,162.3,432.4,161.7z" class="st67"/><linearGradient id="SVGID_2_" x1="337.9" x2="432.432" y1="82" y2="82" gradientUnits="userSpaceOnUse"><stop offset="0" stop-color="#9B82CC" stop-opacity=".7"/><stop offset=".197" stop-color="#AB90E1" stop-opacity=".7"/><stop offset=".429" stop-color="#B89AF2" stop-opacity=".7"/><stop offset=".683" stop-color="#C0A1FC" stop-opacity=".7"/><stop offset="1" stop-color="#C2A3FF" stop-opacity=".7"/></linearGradient><path d="M430.4,162.7L340,110.5c-1.1-0.7-2.1-2.1-2.1-3.3V2.2c0-1.1,0.9-1.5,2.1-0.9l90.4,52.2 c1.1,0.7,2.1,2.1,2.1,3.3v105C432.4,162.9,431.5,163.3,430.4,162.7z" class="st68"/><g><path d="M342.5,7.2c0,0.5-0.4,0.7-0.8,0.5c-0.4-0.3-0.8-0.9-0.8-1.4s0.4-0.7,0.8-0.5 C342.2,6.1,342.5,6.7,342.5,7.2z" class="st69"/><path d="M345.6,9c0,0.5-0.4,0.7-0.8,0.5c-0.4-0.3-0.8-0.9-0.8-1.4s0.4-0.7,0.8-0.5C345.2,7.9,345.6,8.5,345.6,9z" class="st69"/><path d="M348.6,10.7c0,0.5-0.4,0.7-0.8,0.5s-0.8-0.9-0.8-1.4s0.4-0.7,0.8-0.5C348.2,9.6,348.6,10.2,348.6,10.7z" class="st69"/></g><path d="M392,37.1l-13.6-7.9c-0.3-0.2-0.5-0.5-0.5-0.8v-1.7c0-0.3,0.2-0.4,0.5-0.2l13.6,7.9 c0.3,0.2,0.5,0.5,0.5,0.8v1.7C392.5,37.2,392.3,37.3,392,37.1z" class="st69"/></g><g><path d="M385.9,68.9l-37.1-21.4c-0.7-0.4-1.3-1.4-1.3-2.1v-4.5c0-0.7,0.6-1,1.3-0.6l37.1,21.4 c0.7,0.4,1.3,1.4,1.3,2.1v4.5C387.2,69.1,386.6,69.4,385.9,68.9z" class="st70"/><path d="M391.5,91.2L349,66.6c-0.8-0.5-1.5-1.6-1.5-2.4V59c0-0.8,0.7-1.1,1.5-0.6l42.5,24.6 c0.8,0.5,1.5,1.6,1.5,2.4v5.2C393,91.4,392.4,91.7,391.5,91.2z" class="st70"/></g></g><g><g><path d="M404.6,57.5l1.1,0.7v8l-1.1-0.7c-0.6-0.4-1.1-1.3-1.1-2v-5.3C403.5,57.4,404,57.1,404.6,57.5z M423,66.1 v11.3c0,1.5-1,2.1-2.3,1.3L409.2,72c-1.3-0.7-2.3-2.5-2.3-4V56.8c0-1.8,1.3-2.6,2.9-1.7l4,2.3v-2.7c0-0.7,0.5-1,1.1-0.7 c0.6,0.4,1.1,1.3,1.1,2v2.7l4,2.3C421.7,62,423,64.2,423,66.1z M412.9,63.6c0-0.9-0.6-2-1.4-2.5c-0.8-0.5-1.4-0.1-1.4,0.8 c0,0.9,0.6,2,1.4,2.5C412.3,64.9,412.9,64.5,412.9,63.6z M412.6,68.7l-2.3-1.3v1.3l2.3,1.3V68.7z M416.1,70.7l-2.3-1.3v1.3 l2.3,1.3V70.7z M419.8,67.6c0-0.9-0.6-2-1.4-2.5c-0.8-0.5-1.4-0.1-1.4,0.8c0,0.9,0.6,2,1.4,2.5 C419.2,68.9,419.8,68.5,419.8,67.6z M419.5,72.7l-2.3-1.3v1.3l2.3,1.3V72.7z M426.4,71.4v5.3c0,0.7-0.5,1-1.1,0.7l-1.1-0.7v-8 l1.1,0.7C425.9,69.8,426.4,70.6,426.4,71.4z" class="st71"/></g></g></g><g><g><g id="XMLID_5580_"><g class="st0"><path id="XMLID_5624_" d="M402.7,320c-9.1-5.3-24-5.3-33.2,0l-80.3,46.4c-9.1,5.3-9.1,13.9,0,19.1l80.3,46.4 c9.1,5.3,24,5.3,33.2,0l80.3-46.4c9.1-5.3,9.1-13.9,0-19.1L402.7,320z" class="st1"/><path d="M402.7,320.3c-9.1-5.2-23.9-5.2-33,0l-80,46.2c-9.1,5.2-9.1,13.8,0,19.1l80,46.2c9.1,5.2,23.9,5.2,33,0 l80-46.2c9.1-5.2,9.1-13.8,0-19.1L402.7,320.3z" class="st2"/><path d="M402.6,320.5c-9-5.2-23.8-5.2-32.8,0l-79.6,45.9c-9,5.2-9,13.7,0,19l79.6,45.9c9,5.2,23.8,5.2,32.8,0 l79.6-45.9c9-5.2,9-13.7,0-19L402.6,320.5z" class="st3"/><path d="M402.5,320.8c-9-5.2-23.7-5.2-32.7,0l-79.2,45.7c-9,5.2-9,13.7,0,18.9l79.2,45.7c9,5.2,23.7,5.2,32.7,0 l79.2-45.7c9-5.2,9-13.7,0-18.9L402.5,320.8z" class="st4"/><path d="M402.4,321.1c-8.9-5.2-23.6-5.2-32.5,0l-78.8,45.5c-8.9,5.2-8.9,13.6,0,18.8l78.8,45.5 c8.9,5.2,23.6,5.2,32.5,0l78.8-45.5c8.9-5.2,8.9-13.6,0-18.8L402.4,321.1z" class="st5"/><path d="M402.3,321.3c-8.9-5.1-23.5-5.1-32.4,0l-78.4,45.3c-8.9,5.1-8.9,13.5,0,18.7l78.4,45.3 c8.9,5.1,23.5,5.1,32.4,0l78.4-45.3c8.9-5.1,8.9-13.5,0-18.7L402.3,321.3z" class="st6"/><path d="M402.3,321.6c-8.9-5.1-23.4-5.1-32.2,0l-78,45.1c-8.9,5.1-8.9,13.5,0,18.6l78,45.1 c8.9,5.1,23.4,5.1,32.2,0l78-45.1c8.9-5.1,8.9-13.5,0-18.6L402.3,321.6z" class="st7"/><path d="M402.2,321.9c-8.8-5.1-23.2-5.1-32.1,0l-77.6,44.8c-8.8,5.1-8.8,13.4,0,18.5l77.6,44.8 c8.8,5.1,23.2,5.1,32.1,0l77.6-44.8c8.8-5.1,8.8-13.4,0-18.5L402.2,321.9z" class="st8"/><path d="M402.1,322.1c-8.8-5.1-23.1-5.1-31.9,0l-77.3,44.6c-8.8,5.1-8.8,13.3,0,18.4l77.3,44.6 c8.8,5.1,23.1,5.1,31.9,0l77.3-44.6c8.8-5.1,8.8-13.3,0-18.4L402.1,322.1z" class="st9"/><path d="M402,322.4c-8.7-5-23-5-31.7,0l-76.9,44.4c-8.7,5-8.7,13.3,0,18.3l76.9,44.4c8.7,5,23,5,31.7,0l76.9-44.4 c8.7-5,8.7-13.3,0-18.3L402,322.4z" class="st10"/><path d="M401.9,322.7c-8.7-5-22.9-5-31.6,0l-76.5,44.2c-8.7,5-8.7,13.2,0,18.2l76.5,44.2c8.7,5,22.9,5,31.6,0 l76.5-44.2c8.7-5,8.7-13.2,0-18.2L401.9,322.7z" class="st11"/><path d="M401.9,322.9c-8.6-5-22.8-5-31.4,0l-76.1,43.9c-8.6,5-8.6,13.1,0,18.1l76.1,43.9c8.6,5,22.8,5,31.4,0 L478,385c8.6-5,8.6-13.1,0-18.1L401.9,322.9z" class="st12"/><path d="M401.8,323.2c-8.6-5-22.7-5-31.3,0l-75.7,43.7c-8.6,5-8.6,13.1,0,18l75.7,43.7c8.6,5,22.7,5,31.3,0 l75.7-43.7c8.6-5,8.6-13.1,0-18L401.8,323.2z" class="st13"/><path d="M401.7,323.5c-8.6-4.9-22.5-4.9-31.1,0L295.3,367c-8.6,4.9-8.6,13,0,18l75.3,43.5 c8.6,4.9,22.5,4.9,31.1,0l75.3-43.5c8.6-4.9,8.6-13,0-18L401.7,323.5z" class="st14"/><path d="M401.6,323.7c-8.5-4.9-22.4-4.9-30.9,0L295.7,367c-8.5,4.9-8.5,13,0,17.9l74.9,43.3 c8.5,4.9,22.4,4.9,30.9,0l74.9-43.3c8.5-4.9,8.5-12.9,0-17.9L401.6,323.7z" class="st15"/><path d="M401.5,324c-8.5-4.9-22.3-4.9-30.8,0l-74.6,43c-8.5,4.9-8.5,12.9,0,17.8l74.6,43c8.5,4.9,22.3,4.9,30.8,0 l74.6-43c8.5-4.9,8.5-12.9,0-17.8L401.5,324z" class="st16"/><path d="M401.5,324.3c-8.4-4.9-22.2-4.9-30.6,0l-74.2,42.8c-8.4,4.9-8.4,12.8,0,17.7l74.2,42.8 c8.4,4.9,22.2,4.9,30.6,0l74.2-42.8c8.4-4.9,8.4-12.8,0-17.7L401.5,324.3z" class="st17"/><path d="M401.4,324.5c-8.4-4.8-22.1-4.8-30.5,0l-73.8,42.6c-8.4,4.8-8.4,12.8,0,17.6l73.8,42.6 c8.4,4.8,22.1,4.8,30.5,0l73.8-42.6c8.4-4.8,8.4-12.7,0-17.6L401.4,324.5z" class="st18"/><path d="M401.3,324.8c-8.3-4.8-22-4.8-30.3,0l-73.4,42.4c-8.3,4.8-8.3,12.7,0,17.5l73.4,42.4 c8.3,4.8,22,4.8,30.3,0l73.4-42.4c8.3-4.8,8.3-12.7,0-17.5L401.3,324.8z" class="st19"/><path d="M401.2,325.1c-8.3-4.8-21.9-4.8-30.1,0l-73,42.2c-8.3,4.8-8.3,12.6,0,17.4l73,42.2 c8.3,4.8,21.9,4.8,30.1,0l73-42.2c8.3-4.8,8.3-12.6,0-17.4L401.2,325.1z" class="st20"/><path d="M401.1,325.4c-8.2-4.8-21.7-4.8-30,0l-72.6,41.9c-8.2,4.8-8.2,12.6,0,17.3l72.6,41.9 c8.2,4.8,21.7,4.8,30,0l72.6-41.9c8.2-4.8,8.2-12.5,0-17.3L401.1,325.4z" class="st21"/><path d="M401.1,325.6c-8.2-4.7-21.6-4.7-29.8,0L299,367.3c-8.2,4.7-8.2,12.5,0,17.2l72.3,41.7 c8.2,4.7,21.6,4.7,29.8,0l72.3-41.7c8.2-4.7,8.2-12.5,0-17.2L401.1,325.6z" class="st22"/><path d="M401,325.9c-8.2-4.7-21.5-4.7-29.7,0l-71.9,41.5c-8.2,4.7-8.2,12.4,0,17.1l71.9,41.5 c8.2,4.7,21.5,4.7,29.7,0l71.9-41.5c8.2-4.7,8.2-12.4,0-17.1L401,325.9z" class="st23"/><path d="M400.9,326.2c-8.1-4.7-21.4-4.7-29.5,0l-71.5,41.3c-8.1,4.7-8.1,12.4,0,17l71.5,41.3 c8.1,4.7,21.4,4.7,29.5,0l71.5-41.3c8.1-4.7,8.1-12.4,0-17L400.9,326.2z" class="st24"/><path d="M400.8,326.4c-8.1-4.7-21.3-4.7-29.3,0l-71.1,41c-8.1,4.7-8.1,12.3,0,16.9l71.1,41 c8.1,4.7,21.3,4.7,29.3,0l71.1-41c8.1-4.7,8.1-12.3,0-16.9L400.8,326.4z" class="st25"/><path d="M400.7,326.7c-8-4.6-21.2-4.6-29.2,0l-70.7,40.8c-8,4.6-8,12.2,0,16.9l70.7,40.8c8,4.6,21.2,4.6,29.2,0 l70.7-40.8c8-4.6,8-12.2,0-16.9L400.7,326.7z" class="st26"/><path d="M400.7,327c-8-4.6-21-4.6-29,0l-70.3,40.6c-8,4.6-8,12.2,0,16.8l70.3,40.6c8,4.6,21,4.6,29,0l70.3-40.6 c8-4.6,8-12.2,0-16.8L400.7,327z" class="st27"/><path d="M400.6,327.2c-7.9-4.6-20.9-4.6-28.9,0l-69.9,40.4c-7.9,4.6-7.9,12.1,0,16.7l69.9,40.4 c7.9,4.6,20.9,4.6,28.9,0l69.9-40.4c7.9-4.6,7.9-12.1,0-16.7L400.6,327.2z" class="st28"/><path d="M400.5,327.5c-7.9-4.6-20.8-4.6-28.7,0l-69.6,40.2c-7.9,4.6-7.9,12,0,16.6l69.6,40.2 c7.9,4.6,20.8,4.6,28.7,0l69.6-40.2c7.9-4.6,7.9-12,0-16.6L400.5,327.5z" class="st29"/><path d="M400.4,327.8c-7.9-4.5-20.7-4.5-28.6,0l-69.2,39.9c-7.9,4.5-7.9,12,0,16.5l69.2,39.9 c7.9,4.5,20.7,4.5,28.6,0l69.2-39.9c7.9-4.5,7.9-11.9,0-16.5L400.4,327.8z" class="st30"/><path d="M400.3,328c-7.8-4.5-20.6-4.5-28.4,0l-68.8,39.7c-7.8,4.5-7.8,11.9,0,16.4l68.8,39.7 c7.8,4.5,20.6,4.5,28.4,0l68.8-39.7c7.8-4.5,7.8-11.9,0-16.4L400.3,328z" class="st31"/><path d="M400.3,328.3c-7.8-4.5-20.5-4.5-28.2,0l-68.4,39.5c-7.8,4.5-7.8,11.8,0,16.3l68.4,39.5 c7.8,4.5,20.5,4.5,28.2,0l68.4-39.5c7.8-4.5,7.8-11.8,0-16.3L400.3,328.3z" class="st32"/><path d="M400.2,328.6c-7.7-4.5-20.4-4.5-28.1,0l-68,39.3c-7.7,4.5-7.7,11.8,0,16.2l68,39.3 c7.7,4.5,20.4,4.5,28.1,0l68-39.3c7.7-4.5,7.7-11.7,0-16.2L400.2,328.6z" class="st33"/><path d="M400.1,328.8c-7.7-4.4-20.2-4.4-27.9,0l-67.6,39c-7.7,4.4-7.7,11.7,0,16.1l67.6,39 c7.7,4.4,20.2,4.4,27.9,0l67.6-39c7.7-4.4,7.7-11.7,0-16.1L400.1,328.8z" class="st34"/><path d="M400,329.1c-7.6-4.4-20.1-4.4-27.8,0L305,367.9c-7.6,4.4-7.6,11.6,0,16l67.2,38.8 c7.6,4.4,20.1,4.4,27.8,0l67.2-38.8c7.6-4.4,7.6-11.6,0-16L400,329.1z" class="st35"/><path d="M400,329.4c-7.6-4.4-20-4.4-27.6,0L305.5,368c-7.6,4.4-7.6,11.6,0,15.9l66.9,38.6c7.6,4.4,20,4.4,27.6,0 l66.9-38.6c7.6-4.4,7.6-11.6,0-15.9L400,329.4z" class="st36"/><path d="M399.9,329.6c-7.5-4.4-19.9-4.4-27.4,0L306,368c-7.5,4.4-7.5,11.5,0,15.8l66.5,38.4 c7.5,4.4,19.9,4.4,27.4,0l66.5-38.4c7.5-4.4,7.5-11.5,0-15.8L399.9,329.6z" class="st37"/><path d="M399.8,329.9c-7.5-4.3-19.8-4.3-27.3,0l-66.1,38.2c-7.5,4.3-7.5,11.4,0,15.7l66.1,38.2 c7.5,4.3,19.8,4.3,27.3,0l66.1-38.2c7.5-4.3,7.5-11.4,0-15.7L399.8,329.9z" class="st38"/><path d="M399.7,330.2c-7.5-4.3-19.7-4.3-27.1,0l-65.7,37.9c-7.5,4.3-7.5,11.4,0,15.7l65.7,37.9 c7.5,4.3,19.7,4.3,27.1,0l65.7-37.9c7.5-4.3,7.5-11.4,0-15.7L399.7,330.2z" class="st39"/><path d="M399.6,330.5c-7.4-4.3-19.5-4.3-27,0l-65.3,37.7c-7.4,4.3-7.4,11.3,0,15.6l65.3,37.7 c7.4,4.3,19.5,4.3,27,0l65.3-37.7c7.4-4.3,7.4-11.3,0-15.6L399.6,330.5z" class="st40"/><path d="M399.6,330.7c-7.4-4.3-19.4-4.3-26.8,0l-64.9,37.5c-7.4,4.3-7.4,11.2,0,15.5l64.9,37.5 c7.4,4.3,19.4,4.3,26.8,0l64.9-37.5c7.4-4.3,7.4-11.2,0-15.5L399.6,330.7z" class="st41"/><path d="M399.5,331c-7.3-4.2-19.3-4.2-26.6,0l-64.5,37.3c-7.3,4.2-7.3,11.2,0,15.4l64.5,37.3 c7.3,4.2,19.3,4.2,26.6,0l64.5-37.3c7.3-4.2,7.3-11.2,0-15.4L399.5,331z" class="st42"/><path d="M399.4,331.3c-7.3-4.2-19.2-4.2-26.5,0l-64.2,37c-7.3,4.2-7.3,11.1,0,15.3l64.2,37 c7.3,4.2,19.2,4.2,26.5,0l64.2-37c7.3-4.2,7.3-11.1,0-15.3L399.4,331.3z" class="st43"/><path d="M399.3,331.5c-7.2-4.2-19.1-4.2-26.3,0l-63.8,36.8c-7.2,4.2-7.2,11,0,15.2l63.8,36.8 c7.2,4.2,19.1,4.2,26.3,0l63.8-36.8c7.2-4.2,7.2-11,0-15.2L399.3,331.5z" class="st44"/><path d="M399.2,331.8c-7.2-4.2-19-4.2-26.2,0l-63.4,36.6c-7.2,4.2-7.2,11,0,15.1l63.4,36.6c7.2,4.2,19,4.2,26.2,0 l63.4-36.6c7.2-4.2,7.2-11,0-15.1L399.2,331.8z" class="st45"/><path d="M399.2,332.1c-7.2-4.1-18.9-4.1-26,0l-63,36.4c-7.2,4.1-7.2,10.9,0,15l63,36.4c7.2,4.1,18.9,4.1,26,0 l63-36.4c7.2-4.1,7.2-10.9,0-15L399.2,332.1z" class="st46"/><path d="M399.1,332.3c-7.1-4.1-18.7-4.1-25.8,0l-62.6,36.2c-7.1,4.1-7.1,10.8,0,14.9l62.6,36.2 c7.1,4.1,18.7,4.1,25.8,0l62.6-36.2c7.1-4.1,7.1-10.8,0-14.9L399.1,332.3z" class="st47"/><path d="M399,332.6c-7.1-4.1-18.6-4.1-25.7,0l-62.2,35.9c-7.1,4.1-7.1,10.8,0,14.8l62.2,35.9 c7.1,4.1,18.6,4.1,25.7,0l62.2-35.9c7.1-4.1,7.1-10.8,0-14.8L399,332.6z" class="st48"/><path d="M398.9,332.9c-7-4.1-18.5-4.1-25.5,0l-61.8,35.7c-7,4.1-7,10.7,0,14.7l61.8,35.7c7,4.1,18.5,4.1,25.5,0 l61.8-35.7c7-4.1,7-10.7,0-14.7L398.9,332.9z" class="st49"/><path d="M398.8,333.1c-7-4-18.4-4-25.4,0L312,368.6c-7,4-7,10.6,0,14.6l61.5,35.5c7,4,18.4,4,25.4,0l61.5-35.5 c7-4,7-10.6,0-14.6L398.8,333.1z" class="st50"/><path d="M398.8,333.4c-6.9-4-18.3-4-25.2,0l-61.1,35.3c-6.9,4-6.9,10.6,0,14.6l61.1,35.3c6.9,4,18.3,4,25.2,0 l61.1-35.3c6.9-4,6.9-10.6,0-14.6L398.8,333.4z" class="st51"/><path id="XMLID_5622_" d="M398.7,333.7c-6.9-4-18.2-4-25,0l-60.7,35c-6.9,4-6.9,10.5,0,14.5l60.7,35 c6.9,4,18.2,4,25,0l60.7-35c6.9-4,6.9-10.5,0-14.5L398.7,333.7z" class="st52"/></g><linearGradient id="XMLID_14_" x1="292.63" x2="480.686" y1="374.989" y2="374.989" gradientUnits="userSpaceOnUse"><stop offset="0" stop-color="#B4ACBF"/><stop offset=".515" stop-color="#D1C8DE"/><stop offset="1" stop-color="#F0E5FF"/></linearGradient><path id="XMLID_5621_" d="M382.9,320.7l-90.3,42.9v12.3c0,0.7,0.4,1.4,1,1.7l89.2,51.6c2.3,1.3,5.2,1.3,7.6,0 l89.1-51.5c0.7-0.4,1.1-1.2,1.1-2v-12.1l-90.3-42.9C388.1,319.4,385.2,319.4,382.9,320.7z" class="st72"/><linearGradient id="XMLID_15_" x1="292.63" x2="480.686" y1="363.608" y2="363.608" gradientUnits="userSpaceOnUse"><stop offset="0" stop-color="#F0E5FF"/><stop offset="1" stop-color="#FFF"/></linearGradient><path id="XMLID_5581_" d="M382.9,309.3l-88.4,51c-2.5,1.4-2.5,5,0,6.5l88.4,51c2.3,1.3,5.2,1.3,7.6,0l88.4-51 c2.5-1.4,2.5-5,0-6.5l-88.4-51C388.1,308,385.2,308,382.9,309.3z" class="st73"/><line x1="335.2" x2="340.2" y1="396.6" y2="399.5" class="st55"/></g><g><linearGradient id="XMLID_16_" x1="319.085" x2="453.218" y1="361.87" y2="361.87" gradientUnits="userSpaceOnUse"><stop offset="0" stop-color="#F0E5FF"/><stop offset="1" stop-color="#FFF"/></linearGradient><path id="XMLID_5579_" d="M383.5,323.2l-63,36.4c-1.8,1-1.8,3.6,0,4.6l63,36.4c1.7,1,3.7,1,5.4,0l63-36.4 c1.8-1,1.8-3.6,0-4.6l-63-36.4C387.2,322.2,385.1,322.2,383.5,323.2z" class="st74"/><linearGradient id="XMLID_17_" x1="319.098" x2="453.206" y1="380.841" y2="380.841" gradientUnits="userSpaceOnUse"><stop offset=".15" stop-color="#FF9800"/><stop offset="1" stop-color="#FFC107"/></linearGradient><path id="XMLID_5578_" d="M451.9,361.2l-63,36.4c-1.7,1-3.7,1-5.4,0l-63-36.4c-0.4-0.2-0.6-0.5-0.9-0.8 c-0.8,1.2-0.5,3,0.9,3.8l63,36.4c1.7,1,3.7,1,5.4,0l63-36.4c1.4-0.8,1.7-2.6,0.9-3.8C452.5,360.7,452.3,361,451.9,361.2z" class="st75"/><linearGradient id="XMLID_18_" x1="319.098" x2="453.206" y1="380.841" y2="380.841" gradientUnits="userSpaceOnUse"><stop offset="0" stop-color="#B4ACBF"/><stop offset=".515" stop-color="#D1C8DE"/><stop offset="1" stop-color="#F0E5FF"/></linearGradient><path id="XMLID_5577_" d="M451.9,361.2l-63,36.4c-1.7,1-3.7,1-5.4,0l-63-36.4c-0.4-0.2-0.6-0.5-0.9-0.8 c-0.8,1.2-0.5,3,0.9,3.8l63,36.4c1.7,1,3.7,1,5.4,0l63-36.4c1.4-0.8,1.7-2.6,0.9-3.8C452.5,360.7,452.3,361,451.9,361.2z" class="st76"/></g><g><linearGradient id="XMLID_19_" x1="338.455" x2="433.849" y1="360.183" y2="360.183" gradientUnits="userSpaceOnUse"><stop offset="0" stop-color="#2F1359"/><stop offset="1" stop-color="#491E8C"/></linearGradient><path id="XMLID_6432_" d="M384.2,332.7l-44.8,25.9c-1.3,0.7-1.3,2.6,0,3.3l44.8,25.9c1.2,0.7,2.6,0.7,3.8,0 l44.8-25.9c1.3-0.7,1.3-2.6,0-3.3l-44.8-25.9C386.9,332,385.4,332,384.2,332.7z" class="st77"/><path id="XMLID_6431_" d="M432.9,360.7l-44.8,25.9c-1.2,0.7-2.6,0.7-3.8,0l-44.8-25.9c-0.4-0.3-0.7-0.6-0.9-1.1 c-0.2,0.8,0,1.7,0.9,2.2l44.8,25.9c1.2,0.7,2.6,0.7,3.8,0l44.8-25.9c0.8-0.5,1.1-1.4,0.9-2.2 C433.6,360.1,433.3,360.4,432.9,360.7z" class="st60"/><linearGradient id="XMLID_20_" x1="349.527" x2="422.776" y1="359.719" y2="359.719" gradientUnits="userSpaceOnUse"><stop offset=".15" stop-color="#FF9800"/><stop offset="1" stop-color="#FFC107"/></linearGradient><path id="XMLID_6430_" d="M384.7,338.6l-34.4,19.9c-1,0.6-1,2,0,2.5l34.4,19.9c0.9,0.5,2,0.5,2.9,0L422,361 c1-0.6,1-2,0-2.5l-34.4-19.9C386.7,338.1,385.6,338.1,384.7,338.6z" class="st78"/><path id="XMLID_6429_" d="M350.3,359.8l34.4-19.9c0.9-0.5,2-0.5,2.9,0l34.4,19.9c0.3,0.1,0.4,0.4,0.6,0.6 c0.3-0.7,0.2-1.5-0.6-1.9l-34.4-19.9c-0.9-0.5-2-0.5-2.9,0l-34.4,19.9c-0.7,0.4-0.9,1.3-0.6,1.9 C349.8,360.2,350,359.9,350.3,359.8z" class="st62"/><g id="XMLID_5625_"><path id="XMLID_6428_" d="M384.7,338.6l-34.4,19.9c-1,0.6-1,2,0,2.5l34.4,19.9c0.9,0.5,2,0.5,2.9,0L422,361 c1-0.6,1-2,0-2.5l-34.4-19.9C386.7,338.1,385.6,338.1,384.7,338.6z" class="st60"/><g id="XMLID_5649_"><linearGradient id="XMLID_21_" x1="386.157" x2="386.157" y1="381.249" y2="222.958" gradientUnits="userSpaceOnUse"><stop offset="0" stop-color="#FFA744" stop-opacity=".7"/><stop offset=".047" stop-color="#FDAE59" stop-opacity=".667"/><stop offset=".161" stop-color="#FABC85" stop-opacity=".587"/><stop offset=".28" stop-color="#F7C9AA" stop-opacity=".504"/><stop offset=".403" stop-color="#F4D3C9" stop-opacity=".418"/><stop offset=".531" stop-color="#F2DBE1" stop-opacity=".328"/><stop offset=".667" stop-color="#F1E1F2" stop-opacity=".233"/><stop offset=".815" stop-color="#F0E4FC" stop-opacity=".129"/><stop offset="1" stop-color="#F0E5FF" stop-opacity="0"/></linearGradient><path id="XMLID_6427_" d="M349.5,223c0,0,0,136.3,0,136.8c0,0.5,0.2,1,0.7,1.3l34.4,19.9c0.9,0.5,2,0.5,2.9,0 L422,361c0.5-0.3,0.7-0.7,0.7-1.2c0-0.5,0-136.8,0-136.8H349.5z" class="st79"/></g><g><defs><path id="XMLID_5626_" d="M384.7,338.6l-34.4,19.9c-1,0.6-1,2,0,2.5l34.4,19.9c0.9,0.5,2,0.5,2.9,0L422,361c1-0.6,1-2,0-2.5 l-34.4-19.9C386.7,338.1,385.6,338.1,384.7,338.6z"/></defs><clipPath id="XMLID_22_"><use overflow="visible" xlink:href="#XMLID_5626_"/></clipPath><radialGradient id="XMLID_23_" cx="386.152" cy="361.621" r="30.041" gradientUnits="userSpaceOnUse"><stop offset="0" stop-color="#FFF"/><stop offset="1" stop-color="#FFA744"/></radialGradient><path id="XMLID_5648_" d="M384.7,340.5l-34.4,19.9c-1,0.6-1,2,0,2.5l34.4,19.9c0.9,0.5,2,0.5,2.9,0l34.4-19.9 c1-0.6,1-2,0-2.5l-34.4-19.9C386.7,340,385.6,340,384.7,340.5z" class="st80"/></g></g><g><linearGradient id="XMLID_24_" x1="386.152" x2="386.152" y1="362.395" y2="338.673" gradientUnits="userSpaceOnUse"><stop offset="0" stop-color="#FFF" stop-opacity=".7"/><stop offset="1" stop-color="#F0E5FF" stop-opacity="0"/></linearGradient><path id="XMLID_4889_" d="M350.3,339.1c-1,0.6-1,2,0,2.5l34.4,19.9c0.9,0.5,2,0.5,2.9,0l34.4-19.9 c1-0.6,1-2,0-2.5" class="st81"/><linearGradient id="XMLID_25_" x1="386.152" x2="386.152" y1="343.042" y2="319.32" gradientUnits="userSpaceOnUse"><stop offset="0" stop-color="#FFF" stop-opacity=".7"/><stop offset="1" stop-color="#F0E5FF" stop-opacity="0"/></linearGradient><path id="XMLID_4888_" d="M350.3,319.8c-1,0.6-1,2,0,2.5l34.4,19.9c0.9,0.5,2,0.5,2.9,0l34.4-19.9 c1-0.6,1-2,0-2.5" class="st82"/></g></g></g><g><g><linearGradient id="SVGID_3_" x1="339.693" x2="434.225" y1="297.359" y2="297.359" gradientUnits="userSpaceOnUse"><stop offset="0" stop-color="#6134A6" stop-opacity=".7"/><stop offset=".319" stop-color="#6335A9" stop-opacity=".7"/><stop offset=".576" stop-color="#6938B3" stop-opacity=".7"/><stop offset=".809" stop-color="#723EC4" stop-opacity=".7"/><stop offset="1" stop-color="#7E44D8" stop-opacity=".7"/></linearGradient><path d="M432.1,378l-90.4-52.2c-1.1-0.7-2.1-2.1-2.1-3.3v-105c0-1.1,0.9-1.5,2.1-0.9l90.4,52.2 c1.1,0.7,2.1,2.1,2.1,3.3v105C434.2,378.3,433.3,378.7,432.1,378z" class="st83"/><linearGradient id="SVGID_4_" x1="337.667" x2="432.199" y1="298.372" y2="298.372" gradientUnits="userSpaceOnUse"><stop offset="0" stop-color="#6134A6" stop-opacity=".7"/><stop offset=".319" stop-color="#6335A9" stop-opacity=".7"/><stop offset=".576" stop-color="#6938B3" stop-opacity=".7"/><stop offset=".809" stop-color="#723EC4" stop-opacity=".7"/><stop offset="1" stop-color="#7E44D8" stop-opacity=".7"/></linearGradient><path d="M430.1,379l-90.4-52.2c-1.1-0.7-2.1-2.1-2.1-3.3v-105c0-1.1,0.9-1.5,2.1-0.9l90.4,52.2 c1.1,0.7,2.1,2.1,2.1,3.3v105C432.2,379.3,431.3,379.7,430.1,379z" class="st84"/><g><path d="M342.3,223.6c0,0.5-0.4,0.7-0.8,0.5s-0.8-0.9-0.8-1.4c0-0.5,0.4-0.7,0.8-0.5 C341.9,222.5,342.3,223.1,342.3,223.6z" class="st85"/><path d="M345.3,225.4c0,0.5-0.4,0.7-0.8,0.5c-0.4-0.3-0.8-0.9-0.8-1.4c0-0.5,0.4-0.7,0.8-0.5 C345,224.2,345.3,224.8,345.3,225.4z" class="st85"/><path d="M348.4,227.1c0,0.5-0.4,0.7-0.8,0.5c-0.4-0.3-0.8-0.9-0.8-1.4c0-0.5,0.4-0.7,0.8-0.5 C348,226,348.4,226.6,348.4,227.1z" class="st85"/></g><path d="M391.8,253.5l-13.6-7.9c-0.3-0.2-0.5-0.5-0.5-0.8v-1.7c0-0.3,0.2-0.4,0.5-0.2l13.6,7.9 c0.3,0.2,0.5,0.5,0.5,0.8v1.7C392.2,253.5,392,253.6,391.8,253.5z" class="st85"/></g><path d="M350.7,241l-1.7-1c-0.3-0.2-0.5-0.5-0.5-0.8v-1.7c0-0.3,0.2-0.4,0.5-0.2l1.7,1c0.3,0.2,0.5,0.5,0.5,0.8v1.7 C351.1,241.1,350.9,241.2,350.7,241z" class="st86"/><path d="M359.7,246.2l-4.5-2.6c-0.3-0.2-0.5-0.5-0.5-0.8v-1.7c0-0.3,0.2-0.4,0.5-0.2l4.5,2.6 c0.3,0.2,0.5,0.5,0.5,0.8v1.7C360.2,246.3,360,246.4,359.7,246.2z" class="st87"/><path d="M352.5,242.1l-0.3-0.2c-0.1,0-0.1-0.1-0.1-0.2v-2.4c0-0.1,0.1-0.1,0.1-0.1l0.3,0.2c0.1,0,0.1,0.1,0.1,0.2 v2.4C352.6,242.1,352.6,242.1,352.5,242.1z" class="st86"/><g><path d="M353.7,248.5l-4.7-2.7c-0.3-0.2-0.5-0.5-0.5-0.8v-1.7c0-0.3,0.2-0.4,0.5-0.2l4.7,2.7 c0.3,0.2,0.5,0.5,0.5,0.8v1.7C354.2,248.6,353.9,248.7,353.7,248.5z" class="st86"/><path d="M355.5,249.6l-0.3-0.2c-0.1,0-0.1-0.1-0.1-0.2v-2.4c0-0.1,0.1-0.1,0.1-0.1l0.3,0.2c0.1,0,0.1,0.1,0.1,0.2 v2.4C355.7,249.6,355.6,249.6,355.5,249.6z" class="st86"/></g><g><path d="M356.7,256l-4.7-2.7c-0.3-0.2-0.5-0.5-0.5-0.8v-1.7c0-0.3,0.2-0.4,0.5-0.2l4.7,2.7 c0.3,0.2,0.5,0.5,0.5,0.8v1.7C357.2,256.1,356.9,256.2,356.7,256z" class="st86"/><path d="M358.6,257.1l-0.3-0.2c-0.1,0-0.1-0.1-0.1-0.2v-2.4c0-0.1,0.1-0.1,0.1-0.1l0.3,0.2c0.1,0,0.1,0.1,0.1,0.2 v2.4C358.7,257.1,358.6,257.1,358.6,257.1z" class="st86"/></g><g><path d="M362.7,265.2l-7.8-4.5c-0.3-0.2-0.5-0.5-0.5-0.8v-1.7c0-0.3,0.2-0.4,0.5-0.2l7.8,4.5 c0.3,0.2,0.5,0.5,0.5,0.8v1.7C363.2,265.3,363,265.4,362.7,265.2z" class="st86"/><path d="M364.6,266.3l-0.3-0.2c-0.1,0-0.1-0.1-0.1-0.2v-2.4c0-0.1,0.1-0.1,0.1-0.1l0.3,0.2c0.1,0,0.1,0.1,0.1,0.2 v2.4C364.7,266.3,364.6,266.4,364.6,266.3z" class="st86"/></g><g><path d="M362.7,271l-4.7-2.7c-0.3-0.2-0.5-0.5-0.5-0.8v-1.7c0-0.3,0.2-0.4,0.5-0.2l4.7,2.7 c0.3,0.2,0.5,0.5,0.5,0.8v1.7C363.2,271.1,363,271.2,362.7,271z" class="st86"/><path d="M380.8,281.5l-13.6-7.8c-0.3-0.2-0.5-0.5-0.5-0.8v-1.7c0-0.3,0.2-0.4,0.5-0.2l13.6,7.8 c0.3,0.2,0.5,0.5,0.5,0.8v1.7C381.3,281.5,381.1,281.6,380.8,281.5z" class="st87"/><path d="M393.4,288.7l-10.6-6.1c-0.3-0.2-0.5-0.5-0.5-0.8v-1.7c0-0.3,0.2-0.4,0.5-0.2l10.6,6.1 c0.3,0.2,0.5,0.5,0.5,0.8v1.7C393.8,288.8,393.6,288.9,393.4,288.7z" class="st87"/><path d="M364.6,272.1l-0.3-0.2c-0.1,0-0.1-0.1-0.1-0.2v-2.4c0-0.1,0.1-0.1,0.1-0.1l0.3,0.2c0.1,0,0.1,0.1,0.1,0.2 v2.4C364.7,272.1,364.6,272.1,364.6,272.1z" class="st86"/></g><g><path d="M356.7,273.3l-4.7-2.7c-0.3-0.2-0.5-0.5-0.5-0.8v-1.7c0-0.3,0.2-0.4,0.5-0.2l4.7,2.7 c0.3,0.2,0.5,0.5,0.5,0.8v1.7C357.2,273.3,356.9,273.4,356.7,273.3z" class="st86"/><path d="M368.8,280.3l-7.5-4.4c-0.3-0.2-0.5-0.5-0.5-0.8v-1.7c0-0.3,0.2-0.4,0.5-0.2l7.5,4.4 c0.3,0.2,0.5,0.5,0.5,0.8v1.7C369.3,280.3,369,280.4,368.8,280.3z" class="st87"/><path d="M384.3,289.2l-13.6-7.8c-0.3-0.2-0.5-0.5-0.5-0.8V279c0-0.3,0.2-0.4,0.5-0.2l13.6,7.8 c0.3,0.2,0.5,0.5,0.5,0.8v1.7C384.8,289.3,384.5,289.4,384.3,289.2z" class="st87"/><path d="M358.6,274.4l-0.3-0.2c-0.1,0-0.1-0.1-0.1-0.2v-2.4c0-0.1,0.1-0.1,0.1-0.1l0.3,0.2c0.1,0,0.1,0.1,0.1,0.2 v2.4C358.7,274.4,358.6,274.4,358.6,274.4z" class="st86"/></g><g><path d="M353.7,277.3l-1.7-1c-0.3-0.2-0.5-0.5-0.5-0.8v-1.7c0-0.3,0.2-0.4,0.5-0.2l1.7,1c0.3,0.2,0.5,0.5,0.5,0.8 v1.7C354.2,277.4,353.9,277.5,353.7,277.3z" class="st86"/><path d="M355.5,278.4l-0.3-0.2c-0.1,0-0.1-0.1-0.1-0.2v-2.4c0-0.1,0.1-0.1,0.1-0.1l0.3,0.2c0.1,0,0.1,0.1,0.1,0.2 v2.4C355.7,278.4,355.6,278.4,355.5,278.4z" class="st86"/></g><g><path d="M359.7,286.5l-4.7-2.7c-0.3-0.2-0.5-0.5-0.5-0.8v-1.7c0-0.3,0.2-0.4,0.5-0.2l4.7,2.7 c0.3,0.2,0.5,0.5,0.5,0.8v1.7C360.2,286.6,360,286.7,359.7,286.5z" class="st86"/><path d="M368.8,291.8l-4.5-2.6c-0.3-0.2-0.5-0.5-0.5-0.8v-1.7c0-0.3,0.2-0.4,0.5-0.2l4.5,2.6 c0.3,0.2,0.5,0.5,0.5,0.8v1.7C369.3,291.8,369,291.9,368.8,291.8z" class="st87"/><path d="M378.2,297.3l-7.5-4.4c-0.3-0.2-0.5-0.5-0.5-0.8v-1.7c0-0.3,0.2-0.4,0.5-0.2l7.5,4.4 c0.3,0.2,0.5,0.5,0.5,0.8v1.7C378.7,297.3,378.5,297.4,378.2,297.3z" class="st87"/><path d="M361.6,287.6l-0.3-0.2c-0.1,0-0.1-0.1-0.1-0.2v-2.4c0-0.1,0.1-0.1,0.1-0.1l0.3,0.2c0.1,0,0.1,0.1,0.1,0.2 v2.4C361.7,287.6,361.6,287.7,361.6,287.6z" class="st86"/></g><g><path d="M359.7,292.3l-4.7-2.7c-0.3-0.2-0.5-0.5-0.5-0.8v-1.7c0-0.3,0.2-0.4,0.5-0.2l4.7,2.7 c0.3,0.2,0.5,0.5,0.5,0.8v1.7C360.2,292.4,360,292.5,359.7,292.3z" class="st86"/><path d="M368.8,297.5l-4.5-2.6c-0.3-0.2-0.5-0.5-0.5-0.8v-1.7c0-0.3,0.2-0.4,0.5-0.2l4.5,2.6 c0.3,0.2,0.5,0.5,0.5,0.8v1.7C369.3,297.6,369,297.7,368.8,297.5z" class="st87"/><path d="M378.2,303l-7.5-4.4c-0.3-0.2-0.5-0.5-0.5-0.8v-1.7c0-0.3,0.2-0.4,0.5-0.2l7.5,4.4 c0.3,0.2,0.5,0.5,0.5,0.8v1.7C378.7,303.1,378.5,303.2,378.2,303z" class="st87"/><path d="M361.6,293.4l-0.3-0.2c-0.1,0-0.1-0.1-0.1-0.2v-2.4c0-0.1,0.1-0.1,0.1-0.1l0.3,0.2c0.1,0,0.1,0.1,0.1,0.2 v2.4C361.7,293.4,361.6,293.4,361.6,293.4z" class="st86"/></g><g><path d="M353.7,294.6l-1.7-1c-0.3-0.2-0.5-0.5-0.5-0.8v-1.7c0-0.3,0.2-0.4,0.5-0.2l1.7,1c0.3,0.2,0.5,0.5,0.5,0.8 v1.7C354.2,294.6,353.9,294.7,353.7,294.6z" class="st86"/><path d="M355.5,295.7l-0.3-0.2c-0.1,0-0.1-0.1-0.1-0.2v-2.4c0-0.1,0.1-0.1,0.1-0.1l0.3,0.2c0.1,0,0.1,0.1,0.1,0.2 v2.4C355.7,295.7,355.6,295.7,355.5,295.7z" class="st86"/></g><g><path d="M362.7,305.6l-7.8-4.5c-0.3-0.2-0.5-0.5-0.5-0.8v-1.7c0-0.3,0.2-0.4,0.5-0.2l7.8,4.5 c0.3,0.2,0.5,0.5,0.5,0.8v1.7C363.2,305.6,363,305.7,362.7,305.6z" class="st86"/><path d="M368.8,309.1l-1.5-0.9c-0.3-0.2-0.5-0.5-0.5-0.8v-1.7c0-0.3,0.2-0.4,0.5-0.2l1.5,0.9 c0.3,0.2,0.5,0.5,0.5,0.8v1.7C369.3,309.1,369,309.2,368.8,309.1z" class="st87"/><path d="M364.6,306.6l-0.3-0.2c-0.1,0-0.1-0.1-0.1-0.2v-2.4c0-0.1,0.1-0.1,0.1-0.1l0.3,0.2c0.1,0,0.1,0.1,0.1,0.2 v2.4C364.7,306.7,364.6,306.7,364.6,306.6z" class="st86"/></g><g><path d="M353.7,306.1l-1.7-1c-0.3-0.2-0.5-0.5-0.5-0.8v-1.7c0-0.3,0.2-0.4,0.5-0.2l1.7,1c0.3,0.2,0.5,0.5,0.5,0.8 v1.7C354.2,306.2,353.9,306.3,353.7,306.1z" class="st86"/><path d="M365.8,313.1l-7.5-4.4c-0.3-0.2-0.5-0.5-0.5-0.8l0-1.7c0-0.3,0.2-0.4,0.5-0.2l7.5,4.4 c0.3,0.2,0.5,0.5,0.5,0.8v1.7C366.2,313.1,366,313.2,365.8,313.1z" class="st87"/><path d="M381.5,322.2l-7.5-4.4c-0.3-0.2-0.5-0.5-0.5-0.8v-1.7c0-0.3,0.2-0.4,0.5-0.2l7.5,4.4 c0.3,0.2,0.5,0.5,0.5,0.8v1.7C382,322.3,381.8,322.3,381.5,322.2z" class="st87"/><path d="M372.1,316.8l-4.5-2.6c-0.3-0.2-0.5-0.5-0.5-0.8v-1.7c0-0.3,0.2-0.4,0.5-0.2l4.5,2.6 c0.3,0.2,0.5,0.5,0.5,0.8v1.7C372.6,316.8,372.4,316.9,372.1,316.8z" class="st87"/><path d="M355.5,307.2l-0.3-0.2c-0.1,0-0.1-0.1-0.1-0.2v-2.4c0-0.1,0.1-0.1,0.1-0.1l0.3,0.2c0.1,0,0.1,0.1,0.1,0.2 v2.4C355.7,307.2,355.6,307.2,355.5,307.2z" class="st86"/></g><g><path d="M353.7,311.9l-1.7-1c-0.3-0.2-0.5-0.5-0.5-0.8v-1.7c0-0.3,0.2-0.4,0.5-0.2l1.7,1c0.3,0.2,0.5,0.5,0.5,0.8 v1.7C354.2,311.9,353.9,312,353.7,311.9z" class="st86"/><path d="M355.5,312.9l-0.3-0.2c-0.1,0-0.1-0.1-0.1-0.2v-2.4c0-0.1,0.1-0.1,0.1-0.1l0.3,0.2c0.1,0,0.1,0.1,0.1,0.2 v2.4C355.7,313,355.6,313,355.5,312.9z" class="st86"/></g><g><path d="M359.7,321.1l-4.7-2.7c-0.3-0.2-0.5-0.5-0.5-0.8v-1.7c0-0.3,0.2-0.4,0.5-0.2l4.7,2.7 c0.3,0.2,0.5,0.5,0.5,0.8v1.7C360.2,321.2,360,321.3,359.7,321.1z" class="st86"/><path d="M365.8,324.6l-1.5-0.9c-0.3-0.2-0.5-0.5-0.5-0.8v-1.7c0-0.3,0.2-0.4,0.5-0.2l1.5,0.9 c0.3,0.2,0.5,0.5,0.5,0.8v1.7C366.2,324.7,366,324.8,365.8,324.6z" class="st87"/><path d="M372.1,328.3l-4.5-2.6c-0.3-0.2-0.5-0.5-0.5-0.8v-1.7c0-0.3,0.2-0.4,0.5-0.2l4.5,2.6 c0.3,0.2,0.5,0.5,0.5,0.8v1.7C372.6,328.4,372.4,328.4,372.1,328.3z" class="st87"/><path d="M384.5,335.4l-10.6-6.1c-0.3-0.2-0.5-0.5-0.5-0.8v-1.7c0-0.3,0.2-0.4,0.5-0.2l10.6,6.1 c0.3,0.2,0.5,0.5,0.5,0.8v1.7C385,335.5,384.8,335.6,384.5,335.4z" class="st87"/><path d="M361.6,322.2l-0.3-0.2c-0.1,0-0.1-0.1-0.1-0.2v-2.4c0-0.1,0.1-0.1,0.1-0.1l0.3,0.2c0.1,0,0.1,0.1,0.1,0.2 v2.4C361.7,322.2,361.6,322.2,361.6,322.2z" class="st86"/></g><g><path d="M359.7,326.9l-4.7-2.7c-0.3-0.2-0.5-0.5-0.5-0.8v-1.7c0-0.3,0.2-0.4,0.5-0.2l4.7,2.7 c0.3,0.2,0.5,0.5,0.5,0.8v1.7C360.2,326.9,360,327,359.7,326.9z" class="st86"/><path d="M368.8,332.1l-4.5-2.6c-0.3-0.2-0.5-0.5-0.5-0.8v-1.7c0-0.3,0.2-0.4,0.5-0.2l4.5,2.6 c0.3,0.2,0.5,0.5,0.5,0.8v1.7C369.3,332.2,369,332.3,368.8,332.1z" class="st87"/><path d="M378.2,337.6l-7.5-4.4c-0.3-0.2-0.5-0.5-0.5-0.8v-1.7c0-0.3,0.2-0.4,0.5-0.2l7.5,4.4 c0.3,0.2,0.5,0.5,0.5,0.8v1.7C378.7,337.6,378.5,337.7,378.2,337.6z" class="st87"/><path d="M361.6,327.9l-0.3-0.2c-0.1,0-0.1-0.1-0.1-0.2v-2.4c0-0.1,0.1-0.1,0.1-0.1l0.3,0.2c0.1,0,0.1,0.1,0.1,0.2 v2.4C361.7,328,361.6,328,361.6,327.9z" class="st86"/></g></g><g><g><path d="M407,284l-5.6-9.3c-0.2-0.3-0.2-0.7,0-0.8l5.6-2.8c0.2-0.1,0.5,0.1,0.7,0.4l1.7,3.1c0.2,0.3,0.2,0.7,0,0.8 l-3.5,1.6l3.5,5.6c0.2,0.3,0.2,0.7,0,0.8l-1.7,1.1C407.5,284.5,407.2,284.3,407,284z M409.7,289.8c-0.3-0.2-0.4-0.6-0.3-0.9 l5.3-18.1c0.1-0.2,0.3-0.3,0.6,0l2.4,2.2c0.3,0.2,0.4,0.6,0.3,0.9l-5.3,18.1c-0.1,0.2-0.3,0.3-0.6,0L409.7,289.8z M419.8,291.4 l-1.7-3.1c-0.2-0.3-0.2-0.7,0-0.8l3.5-1.6l-3.5-5.6c-0.2-0.3-0.2-0.7,0-0.8l1.7-1.1c0.2-0.1,0.5,0,0.7,0.4l5.6,9.3 c0.2,0.3,0.2,0.7,0,0.8l-5.6,2.8C420.2,291.9,419.9,291.7,419.8,291.4z" class="st71"/></g></g></g><linearGradient id="SVGID_5_" x1="-9944.253" x2="-9850.959" y1="211.261" y2="211.261" gradientTransform="matrix(-1 0 0 1 -9605.3535 0)" gradientUnits="userSpaceOnUse"><stop offset="0" stop-color="#CC8636"/><stop offset="1" stop-color="#FFA744"/></linearGradient><path d="M246.6,240.9l83.9-48.5c4.9-2.8,1.2-7.3,7.4-10.8" class="st88"/><linearGradient id="SVGID_6_" x1="-9944.021" x2="-9896.558" y1="414.603" y2="414.603" gradientTransform="matrix(-1 0 0 1 -9605.3535 0)" gradientUnits="userSpaceOnUse"><stop offset="0" stop-color="#CC8636"/><stop offset="1" stop-color="#FFA744"/></linearGradient><path d="M292.2,431.1l38-21.9c3.7-2.3,0.5-6.7,7.5-11.1" class="st89"/><linearGradient id="SVGID_7_" x1="-870.897" x2="-779.302" y1="405.26" y2="405.26" gradientTransform="matrix(1 0 0 1 1072.6425 0)" gradientUnits="userSpaceOnUse"><stop offset="0" stop-color="#FFA744"/><stop offset="1" stop-color="#CC8636"/></linearGradient><line x1="292.3" x2="202.7" y1="431.1" y2="379.4" class="st90"/><g><circle cx="276.8" cy="422.3" r="10" class="st91"/><radialGradient id="SVGID_8_" cx="276.76" cy="422.346" r="5.211" gradientUnits="userSpaceOnUse"><stop offset="0" stop-color="#FFF"/><stop offset="1" stop-color="#FFA744"/></radialGradient><circle cx="276.8" cy="422.3" r="5.2" class="st92"/></g><g><circle cx="281.7" cy="220.8" r="10" class="st91"/><radialGradient id="SVGID_9_" cx="281.738" cy="220.791" r="5.211" gradientUnits="userSpaceOnUse"><stop offset="0" stop-color="#FFF"/><stop offset="1" stop-color="#FFA744"/></radialGradient><circle cx="281.7" cy="220.8" r="5.2" class="st93"/></g><g><g><g id="XMLID_5637_"><g class="st0"><path id="XMLID_5641_" d="M215,211.5c-9.1-5.3-24-5.3-33.2,0l-80.3,46.4c-9.1,5.3-9.1,13.9,0,19.1l80.3,46.4 c9.1,5.3,24,5.3,33.2,0l80.3-46.4c9.1-5.3,9.1-13.9,0-19.1L215,211.5z" class="st1"/><path d="M214.9,211.8c-9.1-5.2-23.9-5.2-33,0l-80,46.2c-9.1,5.2-9.1,13.8,0,19.1l80,46.2c9.1,5.2,23.9,5.2,33,0 l80-46.2c9.1-5.2,9.1-13.8,0-19.1L214.9,211.8z" class="st2"/><path d="M214.8,212.1c-9-5.2-23.8-5.2-32.8,0L102.4,258c-9,5.2-9,13.7,0,19l79.6,45.9c9,5.2,23.8,5.2,32.8,0 l79.6-45.9c9-5.2,9-13.7,0-19L214.8,212.1z" class="st3"/><path d="M214.7,212.3c-9-5.2-23.7-5.2-32.7,0L102.8,258c-9,5.2-9,13.7,0,18.9l79.2,45.7c9,5.2,23.7,5.2,32.7,0 l79.2-45.7c9-5.2,9-13.7,0-18.9L214.7,212.3z" class="st4"/><path d="M214.6,212.6c-8.9-5.2-23.6-5.2-32.5,0l-78.8,45.5c-8.9,5.2-8.9,13.6,0,18.8l78.8,45.5 c8.9,5.2,23.6,5.2,32.5,0l78.8-45.5c8.9-5.2,8.9-13.6,0-18.8L214.6,212.6z" class="st5"/><path d="M214.6,212.9c-8.9-5.1-23.5-5.1-32.4,0l-78.4,45.3c-8.9,5.1-8.9,13.5,0,18.7l78.4,45.3 c8.9,5.1,23.5,5.1,32.4,0l78.4-45.3c8.9-5.1,8.9-13.5,0-18.7L214.6,212.9z" class="st6"/><path d="M214.5,213.1c-8.9-5.1-23.4-5.1-32.2,0l-78,45.1c-8.9,5.1-8.9,13.5,0,18.6l78,45.1 c8.9,5.1,23.4,5.1,32.2,0l78-45.1c8.9-5.1,8.9-13.5,0-18.6L214.5,213.1z" class="st7"/><path d="M214.4,213.4c-8.8-5.1-23.2-5.1-32.1,0l-77.6,44.8c-8.8,5.1-8.8,13.4,0,18.5l77.6,44.8 c8.8,5.1,23.2,5.1,32.1,0l77.6-44.8c8.8-5.1,8.8-13.4,0-18.5L214.4,213.4z" class="st8"/><path d="M214.3,213.7c-8.8-5.1-23.1-5.1-31.9,0l-77.3,44.6c-8.8,5.1-8.8,13.3,0,18.4l77.3,44.6 c8.8,5.1,23.1,5.1,31.9,0l77.3-44.6c8.8-5.1,8.8-13.3,0-18.4L214.3,213.7z" class="st9"/><path d="M214.2,213.9c-8.7-5-23-5-31.7,0l-76.9,44.4c-8.7,5-8.7,13.3,0,18.3l76.9,44.4c8.7,5,23,5,31.7,0 l76.9-44.4c8.7-5,8.7-13.3,0-18.3L214.2,213.9z" class="st10"/><path d="M214.2,214.2c-8.7-5-22.9-5-31.6,0l-76.5,44.2c-8.7,5-8.7,13.2,0,18.2l76.5,44.2c8.7,5,22.9,5,31.6,0 l76.5-44.2c8.7-5,8.7-13.2,0-18.2L214.2,214.2z" class="st11"/><path d="M214.1,214.5c-8.6-5-22.8-5-31.4,0l-76.1,43.9c-8.6,5-8.6,13.1,0,18.1l76.1,43.9c8.6,5,22.8,5,31.4,0 l76.1-43.9c8.6-5,8.6-13.1,0-18.1L214.1,214.5z" class="st12"/><path d="M214,214.7c-8.6-5-22.7-5-31.3,0L107,258.5c-8.6,5-8.6,13.1,0,18l75.7,43.7c8.6,5,22.7,5,31.3,0 l75.7-43.7c8.6-5,8.6-13.1,0-18L214,214.7z" class="st13"/><path d="M213.9,215c-8.6-4.9-22.5-4.9-31.1,0l-75.3,43.5c-8.6,4.9-8.6,13,0,18l75.3,43.5c8.6,4.9,22.5,4.9,31.1,0 l75.3-43.5c8.6-4.9,8.6-13,0-18L213.9,215z" class="st14"/><path d="M213.9,215.3c-8.5-4.9-22.4-4.9-30.9,0L108,258.5c-8.5,4.9-8.5,13,0,17.9l74.9,43.3 c8.5,4.9,22.4,4.9,30.9,0l74.9-43.3c8.5-4.9,8.5-12.9,0-17.9L213.9,215.3z" class="st15"/><path d="M213.8,215.5c-8.5-4.9-22.3-4.9-30.8,0l-74.6,43c-8.5,4.9-8.5,12.9,0,17.8l74.6,43 c8.5,4.9,22.3,4.9,30.8,0l74.6-43c8.5-4.9,8.5-12.9,0-17.8L213.8,215.5z" class="st16"/><path d="M213.7,215.8c-8.4-4.9-22.2-4.9-30.6,0l-74.2,42.8c-8.4,4.9-8.4,12.8,0,17.7l74.2,42.8 c8.4,4.9,22.2,4.9,30.6,0l74.2-42.8c8.4-4.9,8.4-12.8,0-17.7L213.7,215.8z" class="st17"/><path d="M213.6,216.1c-8.4-4.8-22.1-4.8-30.5,0l-73.8,42.6c-8.4,4.8-8.4,12.8,0,17.6l73.8,42.6 c8.4,4.8,22.1,4.8,30.5,0l73.8-42.6c8.4-4.8,8.4-12.7,0-17.6L213.6,216.1z" class="st18"/><path d="M213.5,216.3c-8.3-4.8-22-4.8-30.3,0l-73.4,42.4c-8.3,4.8-8.3,12.7,0,17.5l73.4,42.4 c8.3,4.8,22,4.8,30.3,0l73.4-42.4c8.3-4.8,8.3-12.7,0-17.5L213.5,216.3z" class="st19"/><path d="M213.5,216.6c-8.3-4.8-21.9-4.8-30.1,0l-73,42.2c-8.3,4.8-8.3,12.6,0,17.4l73,42.2 c8.3,4.8,21.9,4.8,30.1,0l73-42.2c8.3-4.8,8.3-12.6,0-17.4L213.5,216.6z" class="st20"/><path d="M213.4,216.9c-8.2-4.8-21.7-4.8-30,0l-72.6,41.9c-8.2,4.8-8.2,12.6,0,17.3l72.6,41.9 c8.2,4.8,21.7,4.8,30,0l72.6-41.9c8.2-4.8,8.2-12.5,0-17.3L213.4,216.9z" class="st21"/><path d="M213.3,217.2c-8.2-4.7-21.6-4.7-29.8,0l-72.3,41.7c-8.2,4.7-8.2,12.5,0,17.2l72.3,41.7 c8.2,4.7,21.6,4.7,29.8,0l72.3-41.7c8.2-4.7,8.2-12.5,0-17.2L213.3,217.2z" class="st22"/><path d="M213.2,217.4c-8.2-4.7-21.5-4.7-29.7,0l-71.9,41.5c-8.2,4.7-8.2,12.4,0,17.1l71.9,41.5 c8.2,4.7,21.5,4.7,29.7,0l71.9-41.5c8.2-4.7,8.2-12.4,0-17.1L213.2,217.4z" class="st23"/><path d="M213.1,217.7c-8.1-4.7-21.4-4.7-29.5,0L112.1,259c-8.1,4.7-8.1,12.4,0,17l71.5,41.3 c8.1,4.7,21.4,4.7,29.5,0l71.5-41.3c8.1-4.7,8.1-12.4,0-17L213.1,217.7z" class="st24"/><path d="M213.1,218c-8.1-4.7-21.3-4.7-29.3,0l-71.1,41c-8.1,4.7-8.1,12.3,0,16.9l71.1,41c8.1,4.7,21.3,4.7,29.3,0 l71.1-41c8.1-4.7,8.1-12.3,0-16.9L213.1,218z" class="st25"/><path d="M213,218.2c-8-4.6-21.2-4.6-29.2,0l-70.7,40.8c-8,4.6-8,12.2,0,16.9l70.7,40.8c8,4.6,21.2,4.6,29.2,0 l70.7-40.8c8-4.6,8-12.2,0-16.9L213,218.2z" class="st26"/><path d="M212.9,218.5c-8-4.6-21-4.6-29,0l-70.3,40.6c-8,4.6-8,12.2,0,16.8l70.3,40.6c8,4.6,21,4.6,29,0l70.3-40.6 c8-4.6,8-12.2,0-16.8L212.9,218.5z" class="st27"/><path d="M212.8,218.8c-7.9-4.6-20.9-4.6-28.9,0L114,259.1c-7.9,4.6-7.9,12.1,0,16.7l69.9,40.4 c7.9,4.6,20.9,4.6,28.9,0l69.9-40.4c7.9-4.6,7.9-12.1,0-16.7L212.8,218.8z" class="st28"/><path d="M212.7,219c-7.9-4.6-20.8-4.6-28.7,0l-69.6,40.2c-7.9,4.6-7.9,12,0,16.6l69.6,40.2 c7.9,4.6,20.8,4.6,28.7,0l69.6-40.2c7.9-4.6,7.9-12,0-16.6L212.7,219z" class="st29"/><path d="M212.7,219.3c-7.9-4.5-20.7-4.5-28.6,0l-69.2,39.9c-7.9,4.5-7.9,12,0,16.5l69.2,39.9 c7.9,4.5,20.7,4.5,28.6,0l69.2-39.9c7.9-4.5,7.9-11.9,0-16.5L212.7,219.3z" class="st30"/><path d="M212.6,219.6c-7.8-4.5-20.6-4.5-28.4,0l-68.8,39.7c-7.8,4.5-7.8,11.9,0,16.4l68.8,39.7 c7.8,4.5,20.6,4.5,28.4,0l68.8-39.7c7.8-4.5,7.8-11.9,0-16.4L212.6,219.6z" class="st31"/><path d="M212.5,219.8c-7.8-4.5-20.5-4.5-28.2,0l-68.4,39.5c-7.8,4.5-7.8,11.8,0,16.3l68.4,39.5 c7.8,4.5,20.5,4.5,28.2,0l68.4-39.5c7.8-4.5,7.8-11.8,0-16.3L212.5,219.8z" class="st32"/><path d="M212.4,220.1c-7.7-4.5-20.4-4.5-28.1,0l-68,39.3c-7.7,4.5-7.7,11.8,0,16.2l68,39.3 c7.7,4.5,20.4,4.5,28.1,0l68-39.3c7.7-4.5,7.7-11.7,0-16.2L212.4,220.1z" class="st33"/><path d="M212.3,220.4c-7.7-4.4-20.2-4.4-27.9,0l-67.6,39c-7.7,4.4-7.7,11.7,0,16.1l67.6,39 c7.7,4.4,20.2,4.4,27.9,0l67.6-39c7.7-4.4,7.7-11.7,0-16.1L212.3,220.4z" class="st34"/><path d="M212.3,220.6c-7.6-4.4-20.1-4.4-27.8,0l-67.2,38.8c-7.6,4.4-7.6,11.6,0,16l67.2,38.8 c7.6,4.4,20.1,4.4,27.8,0l67.2-38.8c7.6-4.4,7.6-11.6,0-16L212.3,220.6z" class="st35"/><path d="M212.2,220.9c-7.6-4.4-20-4.4-27.6,0l-66.9,38.6c-7.6,4.4-7.6,11.6,0,15.9l66.9,38.6 c7.6,4.4,20,4.4,27.6,0l66.9-38.6c7.6-4.4,7.6-11.6,0-15.9L212.2,220.9z" class="st36"/><path d="M212.1,221.2c-7.5-4.4-19.9-4.4-27.4,0l-66.5,38.4c-7.5,4.4-7.5,11.5,0,15.8l66.5,38.4 c7.5,4.4,19.9,4.4,27.4,0l66.5-38.4c7.5-4.4,7.5-11.5,0-15.8L212.1,221.2z" class="st37"/><path d="M212,221.5c-7.5-4.3-19.8-4.3-27.3,0l-66.1,38.2c-7.5,4.3-7.5,11.4,0,15.7l66.1,38.2 c7.5,4.3,19.8,4.3,27.3,0l66.1-38.2c7.5-4.3,7.5-11.4,0-15.7L212,221.5z" class="st38"/><path d="M211.9,221.7c-7.5-4.3-19.7-4.3-27.1,0l-65.7,37.9c-7.5,4.3-7.5,11.4,0,15.7l65.7,37.9 c7.5,4.3,19.7,4.3,27.1,0l65.7-37.9c7.5-4.3,7.5-11.4,0-15.7L211.9,221.7z" class="st39"/><path d="M211.9,222c-7.4-4.3-19.5-4.3-27,0l-65.3,37.7c-7.4,4.3-7.4,11.3,0,15.6l65.3,37.7c7.4,4.3,19.5,4.3,27,0 l65.3-37.7c7.4-4.3,7.4-11.3,0-15.6L211.9,222z" class="st40"/><path d="M211.8,222.3c-7.4-4.3-19.4-4.3-26.8,0l-64.9,37.5c-7.4,4.3-7.4,11.2,0,15.5l64.9,37.5 c7.4,4.3,19.4,4.3,26.8,0l64.9-37.5c7.4-4.3,7.4-11.2,0-15.5L211.8,222.3z" class="st41"/><path d="M211.7,222.5c-7.3-4.2-19.3-4.2-26.6,0l-64.5,37.3c-7.3,4.2-7.3,11.2,0,15.4l64.5,37.3 c7.3,4.2,19.3,4.2,26.6,0l64.5-37.3c7.3-4.2,7.3-11.2,0-15.4L211.7,222.5z" class="st42"/><path d="M211.6,222.8c-7.3-4.2-19.2-4.2-26.5,0l-64.2,37c-7.3,4.2-7.3,11.1,0,15.3l64.2,37 c7.3,4.2,19.2,4.2,26.5,0l64.2-37c7.3-4.2,7.3-11.1,0-15.3L211.6,222.8z" class="st43"/><path d="M211.5,223.1c-7.2-4.2-19.1-4.2-26.3,0l-63.8,36.8c-7.2,4.2-7.2,11,0,15.2l63.8,36.8 c7.2,4.2,19.1,4.2,26.3,0l63.8-36.8c7.2-4.2,7.2-11,0-15.2L211.5,223.1z" class="st44"/><path d="M211.5,223.3c-7.2-4.2-19-4.2-26.2,0l-63.4,36.6c-7.2,4.2-7.2,11,0,15.1l63.4,36.6c7.2,4.2,19,4.2,26.2,0 l63.4-36.6c7.2-4.2,7.2-11,0-15.1L211.5,223.3z" class="st45"/><path d="M211.4,223.6c-7.2-4.1-18.9-4.1-26,0l-63,36.4c-7.2,4.1-7.2,10.9,0,15l63,36.4c7.2,4.1,18.9,4.1,26,0 l63-36.4c7.2-4.1,7.2-10.9,0-15L211.4,223.6z" class="st46"/><path d="M211.3,223.9c-7.1-4.1-18.7-4.1-25.8,0L122.8,260c-7.1,4.1-7.1,10.8,0,14.9l62.6,36.2 c7.1,4.1,18.7,4.1,25.8,0l62.6-36.2c7.1-4.1,7.1-10.8,0-14.9L211.3,223.9z" class="st47"/><path d="M211.2,224.1c-7.1-4.1-18.6-4.1-25.7,0l-62.2,35.9c-7.1,4.1-7.1,10.8,0,14.8l62.2,35.9 c7.1,4.1,18.6,4.1,25.7,0l62.2-35.9c7.1-4.1,7.1-10.8,0-14.8L211.2,224.1z" class="st48"/><path d="M211.1,224.4c-7-4.1-18.5-4.1-25.5,0l-61.8,35.7c-7,4.1-7,10.7,0,14.7l61.8,35.7c7,4.1,18.5,4.1,25.5,0 l61.8-35.7c7-4.1,7-10.7,0-14.7L211.1,224.4z" class="st49"/><path d="M211.1,224.7c-7-4-18.4-4-25.4,0l-61.5,35.5c-7,4-7,10.6,0,14.6l61.5,35.5c7,4,18.4,4,25.4,0l61.5-35.5 c7-4,7-10.6,0-14.6L211.1,224.7z" class="st50"/><path d="M211,224.9c-6.9-4-18.3-4-25.2,0l-61.1,35.3c-6.9,4-6.9,10.6,0,14.6l61.1,35.3c6.9,4,18.3,4,25.2,0 l61.1-35.3c6.9-4,6.9-10.6,0-14.6L211,224.9z" class="st51"/><path id="XMLID_5640_" d="M210.9,225.2c-6.9-4-18.2-4-25,0l-60.7,35c-6.9,4-6.9,10.5,0,14.5l60.7,35 c6.9,4,18.2,4,25,0l60.7-35c6.9-4,6.9-10.5,0-14.5L210.9,225.2z" class="st52"/></g><linearGradient id="XMLID_26_" x1="104.86" x2="292.916" y1="266.523" y2="266.523" gradientUnits="userSpaceOnUse"><stop offset="0" stop-color="#B4ACBF"/><stop offset=".515" stop-color="#D1C8DE"/><stop offset="1" stop-color="#F0E5FF"/></linearGradient><path id="XMLID_5639_" d="M195.1,212.3l-90.3,42.9v12.3c0,0.7,0.4,1.4,1,1.7l89.2,51.6c2.3,1.3,5.2,1.3,7.6,0 l89.1-51.5c0.7-0.4,1.1-1.2,1.1-2v-12.1l-90.3-42.9C200.3,210.9,197.4,210.9,195.1,212.3z" class="st94"/><linearGradient id="XMLID_27_" x1="104.86" x2="292.916" y1="255.142" y2="255.142" gradientUnits="userSpaceOnUse"><stop offset="0" stop-color="#F0E5FF"/><stop offset="1" stop-color="#FFF"/></linearGradient><path id="XMLID_5638_" d="M195.1,200.9l-88.4,51c-2.5,1.4-2.5,5,0,6.5l88.4,51c2.3,1.3,5.2,1.3,7.6,0l88.4-51 c2.5-1.4,2.5-5,0-6.5l-88.4-51C200.3,199.5,197.4,199.5,195.1,200.9z" class="st95"/><line x1="147.6" x2="152.6" y1="287.7" y2="290.6" class="st55"/></g><g><linearGradient id="XMLID_28_" x1="131.315" x2="265.448" y1="253.403" y2="253.403" gradientUnits="userSpaceOnUse"><stop offset="0" stop-color="#F0E5FF"/><stop offset="1" stop-color="#FFF"/></linearGradient><path id="XMLID_5636_" d="M195.7,214.7l-63,36.4c-1.8,1-1.8,3.6,0,4.6l63,36.4c1.7,1,3.7,1,5.4,0l63-36.4 c1.8-1,1.8-3.6,0-4.6l-63-36.4C199.4,213.7,197.4,213.7,195.7,214.7z" class="st96"/><linearGradient id="XMLID_29_" x1="131.328" x2="265.436" y1="272.375" y2="272.375" gradientUnits="userSpaceOnUse"><stop offset=".15" stop-color="#FF9800"/><stop offset="1" stop-color="#FFC107"/></linearGradient><path id="XMLID_5635_" d="M264.1,252.7l-63,36.4c-1.7,1-3.7,1-5.4,0l-63-36.4c-0.4-0.2-0.6-0.5-0.9-0.8 c-0.8,1.2-0.5,3,0.9,3.8l63,36.4c1.7,1,3.7,1,5.4,0l63-36.4c1.4-0.8,1.7-2.6,0.9-3.8C264.8,252.2,264.5,252.5,264.1,252.7z" class="st97"/><linearGradient id="XMLID_30_" x1="131.328" x2="265.436" y1="272.375" y2="272.375" gradientUnits="userSpaceOnUse"><stop offset="0" stop-color="#B4ACBF"/><stop offset=".515" stop-color="#D1C8DE"/><stop offset="1" stop-color="#F0E5FF"/></linearGradient><path id="XMLID_5634_" d="M264.1,252.7l-63,36.4c-1.7,1-3.7,1-5.4,0l-63-36.4c-0.4-0.2-0.6-0.5-0.9-0.8 c-0.8,1.2-0.5,3,0.9,3.8l63,36.4c1.7,1,3.7,1,5.4,0l63-36.4c1.4-0.8,1.7-2.6,0.9-3.8C264.8,252.2,264.5,252.5,264.1,252.7z" class="st98"/></g><g><linearGradient id="XMLID_31_" x1="150.685" x2="246.078" y1="251.737" y2="251.737" gradientUnits="userSpaceOnUse"><stop offset="0" stop-color="#2F1359"/><stop offset="1" stop-color="#491E8C"/></linearGradient><path id="XMLID_6443_" d="M196.5,224.2l-44.8,25.9c-1.3,0.7-1.3,2.6,0,3.3l44.8,25.9c1.2,0.7,2.6,0.7,3.8,0 l44.8-25.9c1.3-0.7,1.3-2.6,0-3.3l-44.8-25.9C199.1,223.5,197.7,223.5,196.5,224.2z" class="st99"/><path id="XMLID_6442_" d="M245.1,252.3l-44.8,25.9c-1.2,0.7-2.6,0.7-3.8,0l-44.8-25.9c-0.4-0.3-0.7-0.6-0.9-1.1 c-0.2,0.8,0,1.7,0.9,2.2l44.8,25.9c1.2,0.7,2.6,0.7,3.8,0l44.8-25.9c0.8-0.5,1.1-1.4,0.9-2.2C245.9,251.6,245.6,252,245.1,252.3 z" class="st60"/><linearGradient id="XMLID_32_" x1="161.757" x2="235.006" y1="251.273" y2="251.273" gradientUnits="userSpaceOnUse"><stop offset=".15" stop-color="#FF9800"/><stop offset="1" stop-color="#FFC107"/></linearGradient><path id="XMLID_6441_" d="M196.9,230.1L162.5,250c-1,0.6-1,2,0,2.5l34.4,19.9c0.9,0.5,2,0.5,2.9,0l34.4-19.9 c1-0.6,1-2,0-2.5l-34.4-19.9C198.9,229.6,197.8,229.6,196.9,230.1z" class="st100"/><path id="XMLID_6440_" d="M162.5,251.4l34.4-19.9c0.9-0.5,2-0.5,2.9,0l34.4,19.9c0.3,0.1,0.4,0.4,0.6,0.6 c0.3-0.7,0.2-1.5-0.6-1.9l-34.4-19.9c-0.9-0.5-2-0.5-2.9,0L162.5,250c-0.7,0.4-0.9,1.3-0.6,1.9 C162,251.7,162.2,251.5,162.5,251.4z" class="st62"/><g id="XMLID_6434_"><path id="XMLID_6439_" d="M196.9,230.1L162.5,250c-1,0.6-1,2,0,2.5l34.4,19.9c0.9,0.5,2,0.5,2.9,0l34.4-19.9 c1-0.6,1-2,0-2.5l-34.4-19.9C198.9,229.6,197.8,229.6,196.9,230.1z" class="st60"/><g id="XMLID_6437_"><linearGradient id="XMLID_33_" x1="198.387" x2="198.387" y1="272.803" y2="114.512" gradientUnits="userSpaceOnUse"><stop offset="0" stop-color="#FFA744" stop-opacity=".7"/><stop offset=".047" stop-color="#FDAE59" stop-opacity=".667"/><stop offset=".161" stop-color="#FABC85" stop-opacity=".587"/><stop offset=".28" stop-color="#F7C9AA" stop-opacity=".504"/><stop offset=".403" stop-color="#F4D3C9" stop-opacity=".418"/><stop offset=".531" stop-color="#F2DBE1" stop-opacity=".328"/><stop offset=".667" stop-color="#F1E1F2" stop-opacity=".233"/><stop offset=".815" stop-color="#F0E4FC" stop-opacity=".129"/><stop offset="1" stop-color="#F0E5FF" stop-opacity="0"/></linearGradient><path id="XMLID_6438_" d="M161.8,114.5c0,0,0,136.3,0,136.8c0,0.5,0.2,1,0.7,1.3l34.4,19.9c0.9,0.5,2,0.5,2.9,0 l34.4-19.9c0.5-0.3,0.7-0.7,0.7-1.2c0-0.5,0-136.8,0-136.8H161.8z" class="st101"/></g><g><defs><path id="XMLID_6435_" d="M196.9,230.1L162.5,250c-1,0.6-1,2,0,2.5l34.4,19.9c0.9,0.5,2,0.5,2.9,0l34.4-19.9c1-0.6,1-2,0-2.5 l-34.4-19.9C198.9,229.6,197.8,229.6,196.9,230.1z"/></defs><clipPath id="XMLID_34_"><use overflow="visible" xlink:href="#XMLID_6435_"/></clipPath><radialGradient id="XMLID_35_" cx="198.382" cy="253.175" r="30.041" gradientUnits="userSpaceOnUse"><stop offset="0" stop-color="#FFF"/><stop offset="1" stop-color="#FFA744"/></radialGradient><path id="XMLID_6436_" d="M196.9,232l-34.4,19.9c-1,0.6-1,2,0,2.5l34.4,19.9c0.9,0.5,2,0.5,2.9,0l34.4-19.9 c1-0.6,1-2,0-2.5L199.9,232C198.9,231.5,197.8,231.5,196.9,232z" class="st102"/></g></g><g><linearGradient id="XMLID_36_" x1="198.382" x2="198.382" y1="253.949" y2="230.227" gradientUnits="userSpaceOnUse"><stop offset="0" stop-color="#FFF" stop-opacity=".7"/><stop offset="1" stop-color="#F0E5FF" stop-opacity="0"/></linearGradient><path id="XMLID_6433_" d="M162.5,230.7c-1,0.6-1,2,0,2.5l34.4,19.9c0.9,0.5,2,0.5,2.9,0l34.4-19.9 c1-0.6,1-2,0-2.5" class="st103"/><linearGradient id="XMLID_37_" x1="198.382" x2="198.382" y1="234.596" y2="210.874" gradientUnits="userSpaceOnUse"><stop offset="0" stop-color="#FFF" stop-opacity=".7"/><stop offset="1" stop-color="#F0E5FF" stop-opacity="0"/></linearGradient><path id="XMLID_4891_" d="M162.5,211.3c-1,0.6-1,2,0,2.5l34.4,19.9c0.9,0.5,2,0.5,2.9,0l34.4-19.9 c1-0.6,1-2,0-2.5" class="st104"/></g></g></g><g><g><linearGradient id="SVGID_10_" x1="152.129" x2="246.661" y1="189.423" y2="189.423" gradientUnits="userSpaceOnUse"><stop offset="0" stop-color="#6134A6" stop-opacity=".7"/><stop offset=".319" stop-color="#6335A9" stop-opacity=".7"/><stop offset=".576" stop-color="#6938B3" stop-opacity=".7"/><stop offset=".809" stop-color="#723EC4" stop-opacity=".7"/><stop offset="1" stop-color="#7E44D8" stop-opacity=".7"/></linearGradient><path d="M244.6,270.1l-90.4-52.2c-1.1-0.7-2.1-2.1-2.1-3.3v-105c0-1.1,0.9-1.5,2.1-0.9l90.4,52.2 c1.1,0.7,2.1,2.1,2.1,3.3v105C246.7,270.4,245.7,270.8,244.6,270.1z" class="st105"/><linearGradient id="SVGID_11_" x1="150.103" x2="244.635" y1="190.436" y2="190.436" gradientUnits="userSpaceOnUse"><stop offset="0" stop-color="#6134A6" stop-opacity=".7"/><stop offset=".319" stop-color="#6335A9" stop-opacity=".7"/><stop offset=".576" stop-color="#6938B3" stop-opacity=".7"/><stop offset=".809" stop-color="#723EC4" stop-opacity=".7"/><stop offset="1" stop-color="#7E44D8" stop-opacity=".7"/></linearGradient><path d="M242.6,271.1l-90.4-52.2c-1.1-0.7-2.1-2.1-2.1-3.3v-105c0-1.1,0.9-1.5,2.1-0.9l90.4,52.2 c1.1,0.7,2.1,2.1,2.1,3.3v105C244.6,271.4,243.7,271.8,242.6,271.1z" class="st106"/><g><path d="M154.7,115.7c0,0.5-0.4,0.7-0.8,0.5c-0.4-0.3-0.8-0.9-0.8-1.4s0.4-0.7,0.8-0.5 C154.4,114.5,154.7,115.2,154.7,115.7z" class="st85"/><path d="M157.8,117.4c0,0.5-0.4,0.7-0.8,0.5c-0.4-0.3-0.8-0.9-0.8-1.4s0.4-0.7,0.8-0.5 C157.4,116.3,157.8,116.9,157.8,117.4z" class="st85"/><path d="M160.8,119.2c0,0.5-0.4,0.7-0.8,0.5c-0.4-0.3-0.8-0.9-0.8-1.4s0.4-0.7,0.8-0.5 C160.4,118,160.8,118.7,160.8,119.2z" class="st85"/></g><path d="M204.2,145.5l-13.6-7.9c-0.3-0.2-0.5-0.5-0.5-0.8v-1.7c0-0.3,0.2-0.4,0.5-0.2l13.6,7.9 c0.3,0.2,0.5,0.5,0.5,0.8v1.7C204.7,145.6,204.5,145.7,204.2,145.5z" class="st85"/></g><path d="M198,177.4L160.9,156c-0.7-0.4-1.3-1.4-1.3-2.1v-4.5c0-0.7,0.6-1,1.3-0.6l37.1,21.4 c0.7,0.4,1.3,1.4,1.3,2.1v4.5C199.3,177.5,198.7,177.8,198,177.4z" class="st86"/><path d="M203.6,199.6l-42.5-24.6c-0.8-0.5-1.5-1.6-1.5-2.4v-5.2c0-0.8,0.7-1.1,1.5-0.6l42.5,24.6 c0.8,0.5,1.5,1.6,1.5,2.4v5.2C205.2,199.8,204.5,200.1,203.6,199.6z" class="st86"/></g><g><g><path d="M223.6,164v1.9l-1.4-0.8c-0.1-0.1-0.2-0.2-0.2-0.4v-0.2l-0.6-0.4c-0.1-0.1-0.2-0.2-0.2-0.4v-0.5 c0-0.1,0.1-0.2,0.2-0.1l0.6,0.4v-0.2c0-0.1,0.1-0.2,0.2-0.1L223.6,164z M223.6,167.8v1.9l-1.4-0.8c-0.1-0.1-0.2-0.2-0.2-0.4 v-0.2l-0.6-0.4c-0.1-0.1-0.2-0.2-0.2-0.4V167c0-0.1,0.1-0.2,0.2-0.1l0.6,0.4V167c0-0.1,0.1-0.2,0.2-0.1L223.6,167.8z M223.6,171.5v1.9l-1.4-0.8c-0.1-0.1-0.2-0.2-0.2-0.4V172l-0.6-0.4c-0.1-0.1-0.2-0.2-0.2-0.4v-0.5c0-0.1,0.1-0.2,0.2-0.1 l0.6,0.4v-0.2c0-0.1,0.1-0.2,0.2-0.1L223.6,171.5z M223.6,175.3v1.9l-1.4-0.8c-0.1-0.1-0.2-0.2-0.2-0.4v-0.2l-0.6-0.4 c-0.1-0.1-0.2-0.2-0.2-0.4v-0.5c0-0.1,0.1-0.2,0.2-0.1l0.6,0.4v-0.2c0-0.1,0.1-0.2,0.2-0.1L223.6,175.3z M235.4,185.5 c0,1-0.7,1.5-1.6,0.9l-7.6-4.4c-0.9-0.5-1.6-1.8-1.6-2.8v-16.4c0-1,0.7-1.5,1.6-0.9l7.6,4.4c0.9,0.5,1.6,1.8,1.6,2.8V185.5z M238.6,173.8c0,0.1-0.1,0.2-0.2,0.1l-0.6-0.4v0.2c0,0.1-0.1,0.2-0.2,0.1l-1.4-0.8v-1.9l1.4,0.8c0.1,0.1,0.2,0.2,0.2,0.4v0.2 l0.6,0.4c0.1,0.1,0.2,0.2,0.2,0.4V173.8z M238.6,177.6c0,0.1-0.1,0.2-0.2,0.1l-0.6-0.4v0.2c0,0.1-0.1,0.2-0.2,0.1l-1.4-0.8V175 l1.4,0.8c0.1,0.1,0.2,0.2,0.2,0.4v0.2l0.6,0.4c0.1,0.1,0.2,0.2,0.2,0.4V177.6z M238.6,181.4c0,0.1-0.1,0.2-0.2,0.1l-0.6-0.4v0.2 c0,0.1-0.1,0.2-0.2,0.1l-1.4-0.8v-1.9l1.4,0.8c0.1,0.1,0.2,0.2,0.2,0.4v0.2l0.6,0.4c0.1,0.1,0.2,0.2,0.2,0.4V181.4z M238.6,185.1c0,0.1-0.1,0.2-0.2,0.1l-0.6-0.4v0.2c0,0.1-0.1,0.2-0.2,0.1l-1.4-0.8v-1.9l1.4,0.8c0.1,0.1,0.2,0.2,0.2,0.4v0.2 l0.6,0.4c0.1,0.1,0.2,0.2,0.2,0.4V185.1z" class="st71"/></g></g></g><linearGradient id="SVGID_12_" x1="-9797.641" x2="-9749.264" y1="386.191" y2="386.191" gradientTransform="matrix(-1 0 0 1 -9605.3535 0)" gradientUnits="userSpaceOnUse"><stop offset="0" stop-color="#FFA744"/><stop offset="1" stop-color="#CC8636"/></linearGradient><line x1="144.9" x2="191.3" y1="399.6" y2="372.8" class="st107"/><linearGradient id="SVGID_13_" x1="-9809.182" x2="-9760.429" y1="392.843" y2="392.843" gradientTransform="matrix(-1 0 0 1 -9605.3535 0)" gradientUnits="userSpaceOnUse"><stop offset="0" stop-color="#FFA744"/><stop offset="1" stop-color="#CC8636"/></linearGradient><line x1="156.1" x2="202.8" y1="406.3" y2="379.3" class="st108"/><linearGradient id="SVGID_14_" x1="-9756.454" x2="-9709.147" y1="305.947" y2="305.947" gradientTransform="matrix(-1 0 0 1 -9605.3535 0)" gradientUnits="userSpaceOnUse"><stop offset="0" stop-color="#CC8636"/><stop offset="1" stop-color="#FFA744"/></linearGradient><path d="M104.8,322.8l37.9-21.9c3.6-2.3,0.7-7.6,7.4-11.8" class="st109"/><linearGradient id="SVGID_15_" x1="-968.889" x2="-880.334" y1="347.802" y2="347.802" gradientTransform="matrix(1 0 0 1 1072.6425 0)" gradientUnits="userSpaceOnUse"><stop offset="0" stop-color="#CC8636"/><stop offset="1" stop-color="#FFA744"/></linearGradient><line x1="191.3" x2="104.8" y1="372.8" y2="322.8" class="st110"/><g><g><g id="XMLID_4883_"><g class="st0"><path id="XMLID_4887_" d="M120.4,374.1c-9.1-5.3-24-5.3-33.2,0L6.9,420.5c-9.1,5.3-9.1,13.9,0,19.1l80.3,46.4 c9.1,5.3,24,5.3,33.2,0l80.3-46.4c9.1-5.3,9.1-13.9,0-19.1L120.4,374.1z" class="st1"/><path d="M120.4,374.4c-9.1-5.2-23.9-5.2-33,0l-80,46.2c-9.1,5.2-9.1,13.8,0,19.1l80,46.2c9.1,5.2,23.9,5.2,33,0 l80-46.2c9.1-5.2,9.1-13.8,0-19.1L120.4,374.4z" class="st2"/><path d="M120.3,374.7c-9-5.2-23.8-5.2-32.8,0L7.8,420.6c-9,5.2-9,13.7,0,19l79.6,45.9c9,5.2,23.8,5.2,32.8,0 l79.6-45.9c9-5.2,9-13.7,0-19L120.3,374.7z" class="st3"/><path d="M120.2,374.9c-9-5.2-23.7-5.2-32.7,0L8.3,420.7c-9,5.2-9,13.7,0,18.9l79.2,45.7c9,5.2,23.7,5.2,32.7,0 l79.2-45.7c9-5.2,9-13.7,0-18.9L120.2,374.9z" class="st4"/><path d="M120.1,375.2c-8.9-5.2-23.6-5.2-32.5,0L8.8,420.7c-8.9,5.2-8.9,13.6,0,18.8L87.6,485 c8.9,5.2,23.6,5.2,32.5,0l78.8-45.5c8.9-5.2,8.9-13.6,0-18.8L120.1,375.2z" class="st5"/><path d="M120,375.5c-8.9-5.1-23.5-5.1-32.4,0L9.2,420.7c-8.9,5.1-8.9,13.5,0,18.7l78.4,45.3 c8.9,5.1,23.5,5.1,32.4,0l78.4-45.3c8.9-5.1,8.9-13.5,0-18.7L120,375.5z" class="st6"/><path d="M120,375.7c-8.9-5.1-23.4-5.1-32.2,0l-78,45.1c-8.9,5.1-8.9,13.5,0,18.6l78,45.1c8.9,5.1,23.4,5.1,32.2,0 l78-45.1c8.9-5.1,8.9-13.5,0-18.6L120,375.7z" class="st7"/><path d="M119.9,376c-8.8-5.1-23.2-5.1-32.1,0l-77.6,44.8c-8.8,5.1-8.8,13.4,0,18.5l77.6,44.8 c8.8,5.1,23.2,5.1,32.1,0l77.6-44.8c8.8-5.1,8.8-13.4,0-18.5L119.9,376z" class="st8"/><path d="M119.8,376.3c-8.8-5.1-23.1-5.1-31.9,0l-77.3,44.6c-8.8,5.1-8.8,13.3,0,18.4l77.3,44.6 c8.8,5.1,23.1,5.1,31.9,0l77.3-44.6c8.8-5.1,8.8-13.3,0-18.4L119.8,376.3z" class="st9"/><path d="M119.7,376.5c-8.7-5-23-5-31.7,0l-76.9,44.4c-8.7,5-8.7,13.3,0,18.3L88,483.6c8.7,5,23,5,31.7,0 l76.9-44.4c8.7-5,8.7-13.3,0-18.3L119.7,376.5z" class="st10"/><path d="M119.6,376.8c-8.7-5-22.9-5-31.6,0L11.6,421c-8.7,5-8.7,13.2,0,18.2l76.5,44.2c8.7,5,22.9,5,31.6,0 l76.5-44.2c8.7-5,8.7-13.2,0-18.2L119.6,376.8z" class="st11"/><path d="M119.6,377.1c-8.6-5-22.8-5-31.4,0L12,421c-8.6,5-8.6,13.1,0,18.1l76.1,43.9c8.6,5,22.8,5,31.4,0 l76.1-43.9c8.6-5,8.6-13.1,0-18.1L119.6,377.1z" class="st12"/><path d="M119.5,377.3c-8.6-5-22.7-5-31.3,0l-75.7,43.7c-8.6,5-8.6,13.1,0,18l75.7,43.7c8.6,5,22.7,5,31.3,0 l75.7-43.7c8.6-5,8.6-13.1,0-18L119.5,377.3z" class="st13"/><path d="M119.4,377.6c-8.6-4.9-22.5-4.9-31.1,0L13,421.1c-8.6,4.9-8.6,13,0,18l75.3,43.5c8.6,4.9,22.5,4.9,31.1,0 l75.3-43.5c8.6-4.9,8.6-13,0-18L119.4,377.6z" class="st14"/><path d="M119.3,377.9c-8.5-4.9-22.4-4.9-30.9,0l-74.9,43.3c-8.5,4.9-8.5,13,0,17.9l74.9,43.3 c8.5,4.9,22.4,4.9,30.9,0l74.9-43.3c8.5-4.9,8.5-12.9,0-17.9L119.3,377.9z" class="st15"/><path d="M119.2,378.2c-8.5-4.9-22.3-4.9-30.8,0l-74.6,43c-8.5,4.9-8.5,12.9,0,17.8l74.6,43 c8.5,4.9,22.3,4.9,30.8,0l74.6-43c8.5-4.9,8.5-12.9,0-17.8L119.2,378.2z" class="st16"/><path d="M119.2,378.4c-8.4-4.9-22.2-4.9-30.6,0l-74.2,42.8c-8.4,4.9-8.4,12.8,0,17.7l74.2,42.8 c8.4,4.9,22.2,4.9,30.6,0l74.2-42.8c8.4-4.9,8.4-12.8,0-17.7L119.2,378.4z" class="st17"/><path d="M119.1,378.7c-8.4-4.8-22.1-4.8-30.5,0l-73.8,42.6c-8.4,4.8-8.4,12.8,0,17.6l73.8,42.6 c8.4,4.8,22.1,4.8,30.5,0l73.8-42.6c8.4-4.8,8.4-12.7,0-17.6L119.1,378.7z" class="st18"/><path d="M119,379c-8.3-4.8-22-4.8-30.3,0l-73.4,42.4c-8.3,4.8-8.3,12.7,0,17.5l73.4,42.4c8.3,4.8,22,4.8,30.3,0 l73.4-42.4c8.3-4.8,8.3-12.7,0-17.5L119,379z" class="st19"/><path d="M118.9,379.2c-8.3-4.8-21.9-4.8-30.1,0l-73,42.2c-8.3,4.8-8.3,12.6,0,17.4l73,42.2 c8.3,4.8,21.9,4.8,30.1,0l73-42.2c8.3-4.8,8.3-12.6,0-17.4L118.9,379.2z" class="st20"/><path d="M118.8,379.5c-8.2-4.8-21.7-4.8-30,0l-72.6,41.9c-8.2,4.8-8.2,12.6,0,17.3l72.6,41.9 c8.2,4.8,21.7,4.8,30,0l72.6-41.9c8.2-4.8,8.2-12.5,0-17.3L118.8,379.5z" class="st21"/><path d="M118.8,379.8c-8.2-4.7-21.6-4.7-29.8,0l-72.3,41.7c-8.2,4.7-8.2,12.5,0,17.2l72.3,41.7 c8.2,4.7,21.6,4.7,29.8,0l72.3-41.7c8.2-4.7,8.2-12.5,0-17.2L118.8,379.8z" class="st22"/><path d="M118.7,380c-8.2-4.7-21.5-4.7-29.7,0l-71.9,41.5c-8.2,4.7-8.2,12.4,0,17.1L89,480.1 c8.2,4.7,21.5,4.7,29.7,0l71.9-41.5c8.2-4.7,8.2-12.4,0-17.1L118.7,380z" class="st23"/><path d="M118.6,380.3c-8.1-4.7-21.4-4.7-29.5,0l-71.5,41.3c-8.1,4.7-8.1,12.4,0,17l71.5,41.3 c8.1,4.7,21.4,4.7,29.5,0l71.5-41.3c8.1-4.7,8.1-12.4,0-17L118.6,380.3z" class="st24"/><path d="M118.5,380.6c-8.1-4.7-21.3-4.7-29.3,0l-71.1,41c-8.1,4.7-8.1,12.3,0,16.9l71.1,41 c8.1,4.7,21.3,4.7,29.3,0l71.1-41c8.1-4.7,8.1-12.3,0-16.9L118.5,380.6z" class="st25"/><path d="M118.4,380.8c-8-4.6-21.2-4.6-29.2,0l-70.7,40.8c-8,4.6-8,12.2,0,16.9l70.7,40.8c8,4.6,21.2,4.6,29.2,0 l70.7-40.8c8-4.6,8-12.2,0-16.9L118.4,380.8z" class="st26"/><path d="M118.4,381.1c-8-4.6-21-4.6-29,0L19,421.7c-8,4.6-8,12.2,0,16.8l70.3,40.6c8,4.6,21,4.6,29,0l70.3-40.6 c8-4.6,8-12.2,0-16.8L118.4,381.1z" class="st27"/><path d="M118.3,381.4c-7.9-4.6-20.9-4.6-28.9,0l-69.9,40.4c-7.9,4.6-7.9,12.1,0,16.7l69.9,40.4 c7.9,4.6,20.9,4.6,28.9,0l69.9-40.4c7.9-4.6,7.9-12.1,0-16.7L118.3,381.4z" class="st28"/><path d="M118.2,381.6c-7.9-4.6-20.8-4.6-28.7,0l-69.6,40.2c-7.9,4.6-7.9,12,0,16.6l69.6,40.2 c7.9,4.6,20.8,4.6,28.7,0l69.6-40.2c7.9-4.6,7.9-12,0-16.6L118.2,381.6z" class="st29"/><path d="M118.1,381.9c-7.9-4.5-20.7-4.5-28.6,0l-69.2,39.9c-7.9,4.5-7.9,12,0,16.5l69.2,39.9 c7.9,4.5,20.7,4.5,28.6,0l69.2-39.9c7.9-4.5,7.9-11.9,0-16.5L118.1,381.9z" class="st30"/><path d="M118,382.2c-7.8-4.5-20.6-4.5-28.4,0l-68.8,39.7c-7.8,4.5-7.8,11.9,0,16.4L89.7,478 c7.8,4.5,20.6,4.5,28.4,0l68.8-39.7c7.8-4.5,7.8-11.9,0-16.4L118,382.2z" class="st31"/><path d="M118,382.5c-7.8-4.5-20.5-4.5-28.2,0l-68.4,39.5c-7.8,4.5-7.8,11.8,0,16.3l68.4,39.5 c7.8,4.5,20.5,4.5,28.2,0l68.4-39.5c7.8-4.5,7.8-11.8,0-16.3L118,382.5z" class="st32"/><path d="M117.9,382.7c-7.7-4.5-20.4-4.5-28.1,0l-68,39.3c-7.7,4.5-7.7,11.8,0,16.2l68,39.3 c7.7,4.5,20.4,4.5,28.1,0l68-39.3c7.7-4.5,7.7-11.7,0-16.2L117.9,382.7z" class="st33"/><path d="M117.8,383c-7.7-4.4-20.2-4.4-27.9,0l-67.6,39c-7.7,4.4-7.7,11.7,0,16.1l67.6,39c7.7,4.4,20.2,4.4,27.9,0 l67.6-39c7.7-4.4,7.7-11.7,0-16.1L117.8,383z" class="st34"/><path d="M117.7,383.3c-7.6-4.4-20.1-4.4-27.8,0l-67.2,38.8c-7.6,4.4-7.6,11.6,0,16L90,476.9 c7.6,4.4,20.1,4.4,27.8,0l67.2-38.8c7.6-4.4,7.6-11.6,0-16L117.7,383.3z" class="st35"/><path d="M117.6,383.5c-7.6-4.4-20-4.4-27.6,0l-66.9,38.6c-7.6,4.4-7.6,11.6,0,15.9l66.9,38.6 c7.6,4.4,20,4.4,27.6,0l66.9-38.6c7.6-4.4,7.6-11.6,0-15.9L117.6,383.5z" class="st36"/><path d="M117.6,383.8c-7.5-4.4-19.9-4.4-27.4,0l-66.5,38.4c-7.5,4.4-7.5,11.5,0,15.8l66.5,38.4 c7.5,4.4,19.9,4.4,27.4,0L184,438c7.5-4.4,7.5-11.5,0-15.8L117.6,383.8z" class="st37"/><path d="M117.5,384.1c-7.5-4.3-19.8-4.3-27.3,0l-66.1,38.2c-7.5,4.3-7.5,11.4,0,15.7l66.1,38.2 c7.5,4.3,19.8,4.3,27.3,0l66.1-38.2c7.5-4.3,7.5-11.4,0-15.7L117.5,384.1z" class="st38"/><path d="M117.4,384.3c-7.5-4.3-19.7-4.3-27.1,0l-65.7,37.9c-7.5,4.3-7.5,11.4,0,15.7l65.7,37.9 c7.5,4.3,19.7,4.3,27.1,0l65.7-37.9c7.5-4.3,7.5-11.4,0-15.7L117.4,384.3z" class="st39"/><path d="M117.3,384.6c-7.4-4.3-19.5-4.3-27,0l-65.3,37.7c-7.4,4.3-7.4,11.3,0,15.6l65.3,37.7 c7.4,4.3,19.5,4.3,27,0l65.3-37.7c7.4-4.3,7.4-11.3,0-15.6L117.3,384.6z" class="st40"/><path d="M117.2,384.9c-7.4-4.3-19.4-4.3-26.8,0l-64.9,37.5c-7.4,4.3-7.4,11.2,0,15.5l64.9,37.5 c7.4,4.3,19.4,4.3,26.8,0l64.9-37.5c7.4-4.3,7.4-11.2,0-15.5L117.2,384.9z" class="st41"/><path d="M117.2,385.1c-7.3-4.2-19.3-4.2-26.6,0L26,422.4c-7.3,4.2-7.3,11.2,0,15.4L90.5,475 c7.3,4.2,19.3,4.2,26.6,0l64.5-37.3c7.3-4.2,7.3-11.2,0-15.4L117.2,385.1z" class="st42"/><path d="M117.1,385.4c-7.3-4.2-19.2-4.2-26.5,0l-64.2,37c-7.3,4.2-7.3,11.1,0,15.3l64.2,37 c7.3,4.2,19.2,4.2,26.5,0l64.2-37c7.3-4.2,7.3-11.1,0-15.3L117.1,385.4z" class="st43"/><path d="M117,385.7c-7.2-4.2-19.1-4.2-26.3,0l-63.8,36.8c-7.2,4.2-7.2,11,0,15.2l63.8,36.8 c7.2,4.2,19.1,4.2,26.3,0l63.8-36.8c7.2-4.2,7.2-11,0-15.2L117,385.7z" class="st44"/><path d="M116.9,385.9c-7.2-4.2-19-4.2-26.2,0l-63.4,36.6c-7.2,4.2-7.2,11,0,15.1l63.4,36.6c7.2,4.2,19,4.2,26.2,0 l63.4-36.6c7.2-4.2,7.2-11,0-15.1L116.9,385.9z" class="st45"/><path d="M116.9,386.2c-7.2-4.1-18.9-4.1-26,0l-63,36.4c-7.2,4.1-7.2,10.9,0,15l63,36.4c7.2,4.1,18.9,4.1,26,0 l63-36.4c7.2-4.1,7.2-10.9,0-15L116.9,386.2z" class="st46"/><path d="M116.8,386.5c-7.1-4.1-18.7-4.1-25.8,0l-62.6,36.2c-7.1,4.1-7.1,10.8,0,14.9l62.6,36.2 c7.1,4.1,18.7,4.1,25.8,0l62.6-36.2c7.1-4.1,7.1-10.8,0-14.9L116.8,386.5z" class="st47"/><path d="M116.7,386.7c-7.1-4.1-18.6-4.1-25.7,0l-62.2,35.9c-7.1,4.1-7.1,10.8,0,14.8L91,473.4 c7.1,4.1,18.6,4.1,25.7,0l62.2-35.9c7.1-4.1,7.1-10.8,0-14.8L116.7,386.7z" class="st48"/><path d="M116.6,387c-7-4.1-18.5-4.1-25.5,0l-61.8,35.7c-7,4.1-7,10.7,0,14.7l61.8,35.7c7,4.1,18.5,4.1,25.5,0 l61.8-35.7c7-4.1,7-10.7,0-14.7L116.6,387z" class="st49"/><path d="M116.5,387.3c-7-4-18.4-4-25.4,0l-61.5,35.5c-7,4-7,10.6,0,14.6l61.5,35.5c7,4,18.4,4,25.4,0l61.5-35.5 c7-4,7-10.6,0-14.6L116.5,387.3z" class="st50"/><path d="M116.5,387.6c-6.9-4-18.3-4-25.2,0l-61.1,35.3c-6.9,4-6.9,10.6,0,14.6l61.1,35.3c6.9,4,18.3,4,25.2,0 l61.1-35.3c6.9-4,6.9-10.6,0-14.6L116.5,387.6z" class="st51"/><path id="XMLID_4886_" d="M116.4,387.8c-6.9-4-18.2-4-25,0l-60.7,35c-6.9,4-6.9,10.5,0,14.5l60.7,35 c6.9,4,18.2,4,25,0l60.7-35c6.9-4,6.9-10.5,0-14.5L116.4,387.8z" class="st52"/></g><linearGradient id="XMLID_38_" x1="10.326" x2="198.382" y1="429.133" y2="429.133" gradientUnits="userSpaceOnUse"><stop offset="0" stop-color="#B4ACBF"/><stop offset=".515" stop-color="#D1C8DE"/><stop offset="1" stop-color="#F0E5FF"/></linearGradient><path id="XMLID_4885_" d="M100.6,374.9l-90.3,42.9V430c0,0.7,0.4,1.4,1,1.7l89.2,51.6c2.3,1.3,5.2,1.3,7.6,0 l89.1-51.5c0.7-0.4,1.1-1.2,1.1-2v-12.1l-90.3-42.9C105.8,373.5,102.9,373.5,100.6,374.9z" class="st111"/><linearGradient id="XMLID_39_" x1="10.326" x2="198.382" y1="417.752" y2="417.752" gradientUnits="userSpaceOnUse"><stop offset="0" stop-color="#F0E5FF"/><stop offset="1" stop-color="#FFF"/></linearGradient><path id="XMLID_4884_" d="M100.6,363.5l-88.4,51c-2.5,1.4-2.5,5,0,6.5l88.4,51c2.3,1.3,5.2,1.3,7.6,0l88.4-51 c2.5-1.4,2.5-5,0-6.5l-88.4-51C105.8,362.1,102.9,362.1,100.6,363.5z" class="st112"/></g><g><linearGradient id="XMLID_40_" x1="36.782" x2="170.915" y1="416.014" y2="416.014" gradientUnits="userSpaceOnUse"><stop offset="0" stop-color="#F0E5FF"/><stop offset="1" stop-color="#FFF"/></linearGradient><path id="XMLID_4748_" d="M101.2,377.3l-63,36.4c-1.8,1-1.8,3.6,0,4.6l63,36.4c1.7,1,3.7,1,5.4,0l63-36.4 c1.8-1,1.8-3.6,0-4.6l-63-36.4C104.9,376.3,102.8,376.3,101.2,377.3z" class="st113"/><linearGradient id="XMLID_41_" x1="36.794" x2="170.902" y1="434.985" y2="434.985" gradientUnits="userSpaceOnUse"><stop offset=".15" stop-color="#FF9800"/><stop offset="1" stop-color="#FFC107"/></linearGradient><path id="XMLID_4228_" d="M169.6,415.4l-63,36.4c-1.7,1-3.7,1-5.4,0l-63-36.4c-0.4-0.2-0.6-0.5-0.9-0.8 c-0.8,1.2-0.5,3,0.9,3.8l63,36.4c1.7,1,3.7,1,5.4,0l63-36.4c1.4-0.8,1.7-2.6,0.9-3.8C170.2,414.9,170,415.1,169.6,415.4z" class="st114"/><linearGradient id="XMLID_42_" x1="36.794" x2="170.902" y1="434.985" y2="434.985" gradientUnits="userSpaceOnUse"><stop offset="0" stop-color="#B4ACBF"/><stop offset=".515" stop-color="#D1C8DE"/><stop offset="1" stop-color="#F0E5FF"/></linearGradient><path id="XMLID_4224_" d="M169.6,415.4l-63,36.4c-1.7,1-3.7,1-5.4,0l-63-36.4c-0.4-0.2-0.6-0.5-0.9-0.8 c-0.8,1.2-0.5,3,0.9,3.8l63,36.4c1.7,1,3.7,1,5.4,0l63-36.4c1.4-0.8,1.7-2.6,0.9-3.8C170.2,414.9,170,415.1,169.6,415.4z" class="st115"/></g><g><linearGradient id="XMLID_43_" x1="56.152" x2="151.545" y1="414.351" y2="414.351" gradientUnits="userSpaceOnUse"><stop offset="0" stop-color="#2F1359"/><stop offset="1" stop-color="#491E8C"/></linearGradient><path id="XMLID_5647_" d="M101.9,386.8l-44.8,25.9c-1.3,0.7-1.3,2.6,0,3.3l44.8,25.9c1.2,0.7,2.6,0.7,3.8,0 l44.8-25.9c1.3-0.7,1.3-2.6,0-3.3l-44.8-25.9C104.6,386.1,103.1,386.1,101.9,386.8z" class="st116"/><path id="XMLID_5646_" d="M150.6,414.9l-44.8,25.9c-1.2,0.7-2.6,0.7-3.8,0l-44.8-25.9c-0.4-0.3-0.7-0.6-0.9-1.1 c-0.2,0.8,0,1.7,0.9,2.2l44.8,25.9c1.2,0.7,2.6,0.7,3.8,0l44.8-25.9c0.8-0.5,1.1-1.4,0.9-2.2C151.3,414.2,151,414.6,150.6,414.9 z" class="st60"/><linearGradient id="XMLID_44_" x1="67.224" x2="140.473" y1="413.887" y2="413.887" gradientUnits="userSpaceOnUse"><stop offset=".15" stop-color="#FF9800"/><stop offset="1" stop-color="#FFC107"/></linearGradient><path id="XMLID_5645_" d="M102.4,392.8L68,412.6c-1,0.6-1,2,0,2.5l34.4,19.9c0.9,0.5,2,0.5,2.9,0l34.4-19.9 c1-0.6,1-2,0-2.5l-34.4-19.9C104.4,392.2,103.3,392.2,102.4,392.8z" class="st117"/><path id="XMLID_5644_" d="M68,414l34.4-19.9c0.9-0.5,2-0.5,2.9,0l34.4,19.9c0.3,0.1,0.4,0.4,0.6,0.6 c0.3-0.7,0.2-1.5-0.6-1.9l-34.4-19.9c-0.9-0.5-2-0.5-2.9,0L68,412.6c-0.7,0.4-0.9,1.3-0.6,1.9C67.5,414.3,67.7,414.1,68,414z" class="st62"/><g id="XMLID_5630_"><path id="XMLID_5643_" d="M102.4,392.8L68,412.6c-1,0.6-1,2,0,2.5l34.4,19.9c0.9,0.5,2,0.5,2.9,0l34.4-19.9 c1-0.6,1-2,0-2.5l-34.4-19.9C104.4,392.2,103.3,392.2,102.4,392.8z" class="st60"/><g id="XMLID_5633_"><linearGradient id="XMLID_45_" x1="103.853" x2="103.853" y1="435.417" y2="277.126" gradientUnits="userSpaceOnUse"><stop offset="0" stop-color="#FFA744" stop-opacity=".7"/><stop offset=".047" stop-color="#FDAE59" stop-opacity=".667"/><stop offset=".161" stop-color="#FABC85" stop-opacity=".587"/><stop offset=".28" stop-color="#F7C9AA" stop-opacity=".504"/><stop offset=".403" stop-color="#F4D3C9" stop-opacity=".418"/><stop offset=".531" stop-color="#F2DBE1" stop-opacity=".328"/><stop offset=".667" stop-color="#F1E1F2" stop-opacity=".233"/><stop offset=".815" stop-color="#F0E4FC" stop-opacity=".129"/><stop offset="1" stop-color="#F0E5FF" stop-opacity="0"/></linearGradient><path id="XMLID_5642_" d="M67.2,277.1c0,0,0,136.3,0,136.8c0,0.5,0.2,1,0.7,1.3l34.4,19.9c0.9,0.5,2,0.5,2.9,0 l34.4-19.9c0.5-0.3,0.7-0.7,0.7-1.2c0-0.5,0-136.8,0-136.8H67.2z" class="st118"/></g><g><defs><path id="XMLID_5631_" d="M102.4,392.8L68,412.6c-1,0.6-1,2,0,2.5l34.4,19.9c0.9,0.5,2,0.5,2.9,0l34.4-19.9c1-0.6,1-2,0-2.5 l-34.4-19.9C104.4,392.2,103.3,392.2,102.4,392.8z"/></defs><clipPath id="XMLID_46_"><use overflow="visible" xlink:href="#XMLID_5631_"/></clipPath><radialGradient id="XMLID_47_" cx="103.848" cy="415.789" r="30.041" gradientUnits="userSpaceOnUse"><stop offset="0" stop-color="#FFF"/><stop offset="1" stop-color="#FFA744"/></radialGradient><path id="XMLID_5632_" d="M102.4,394.7L68,414.5c-1,0.6-1,2,0,2.5l34.4,19.9c0.9,0.5,2,0.5,2.9,0l34.4-19.9 c1-0.6,1-2,0-2.5l-34.4-19.9C104.4,394.1,103.3,394.1,102.4,394.7z" class="st119"/></g></g><g><linearGradient id="XMLID_48_" x1="103.848" x2="103.848" y1="416.563" y2="392.841" gradientUnits="userSpaceOnUse"><stop offset="0" stop-color="#FFF" stop-opacity=".7"/><stop offset="1" stop-color="#F0E5FF" stop-opacity="0"/></linearGradient><path id="XMLID_5629_" d="M68,393.3c-1,0.6-1,2,0,2.5l34.4,19.9c0.9,0.5,2,0.5,2.9,0l34.4-19.9c1-0.6,1-2,0-2.5" class="st120"/><linearGradient id="XMLID_49_" x1="103.848" x2="103.848" y1="397.21" y2="373.488" gradientUnits="userSpaceOnUse"><stop offset="0" stop-color="#FFF" stop-opacity=".7"/><stop offset="1" stop-color="#F0E5FF" stop-opacity="0"/></linearGradient><path id="XMLID_5627_" d="M68,373.9c-1,0.6-1,2,0,2.5l34.4,19.9c0.9,0.5,2,0.5,2.9,0l34.4-19.9c1-0.6,1-2,0-2.5" class="st121"/></g></g></g><g><g><linearGradient id="SVGID_16_" x1="57.595" x2="152.127" y1="352.046" y2="352.046" gradientUnits="userSpaceOnUse"><stop offset="0" stop-color="#9B82CC" stop-opacity=".7"/><stop offset=".197" stop-color="#AB90E1" stop-opacity=".7"/><stop offset=".429" stop-color="#B89AF2" stop-opacity=".7"/><stop offset=".683" stop-color="#C0A1FC" stop-opacity=".7"/><stop offset="1" stop-color="#C2A3FF" stop-opacity=".7"/></linearGradient><path d="M150,432.7l-90.4-52.2c-1.1-0.7-2.1-2.1-2.1-3.3v-105c0-1.1,0.9-1.5,2.1-0.9l90.4,52.2 c1.1,0.7,2.1,2.1,2.1,3.3v105C152.1,433,151.2,433.4,150,432.7z" class="st122"/><linearGradient id="SVGID_17_" x1="55.569" x2="150.101" y1="353.059" y2="353.059" gradientUnits="userSpaceOnUse"><stop offset="0" stop-color="#9B82CC" stop-opacity=".7"/><stop offset=".197" stop-color="#AB90E1" stop-opacity=".7"/><stop offset=".429" stop-color="#B89AF2" stop-opacity=".7"/><stop offset=".683" stop-color="#C0A1FC" stop-opacity=".7"/><stop offset="1" stop-color="#C2A3FF" stop-opacity=".7"/></linearGradient><path d="M148,433.7l-90.4-52.2c-1.1-0.7-2.1-2.1-2.1-3.3v-105c0-1.1,0.9-1.5,2.1-0.9l90.4,52.2 c1.1,0.7,2.1,2.1,2.1,3.3v105C150.1,434,149.2,434.4,148,433.7z" class="st123"/><g><path d="M60.2,278.3c0,0.5-0.4,0.7-0.8,0.5s-0.8-0.9-0.8-1.4c0-0.5,0.4-0.7,0.8-0.5S60.2,277.8,60.2,278.3z" class="st69"/><path d="M63.2,280c0,0.5-0.4,0.7-0.8,0.5c-0.4-0.3-0.8-0.9-0.8-1.4s0.4-0.7,0.8-0.5 C62.9,278.9,63.2,279.5,63.2,280z" class="st69"/><path d="M66.3,281.8c0,0.5-0.4,0.7-0.8,0.5s-0.8-0.9-0.8-1.4s0.4-0.7,0.8-0.5C65.9,280.7,66.3,281.3,66.3,281.8z" class="st69"/></g><path d="M109.7,308.2L96,300.3c-0.3-0.2-0.5-0.5-0.5-0.8v-1.7c0-0.3,0.2-0.4,0.5-0.2l13.6,7.9 c0.3,0.2,0.5,0.5,0.5,0.8v1.7C110.1,308.2,109.9,308.3,109.7,308.2z" class="st69"/></g><g><g><path d="M139.6,341.6c-0.3,0.8-0.7,1.4-1.4,1.7c-0.1,0.1-0.2,0-0.4-0.1l-1.1-1.2c-0.4,0.2-1,0.2-1.5,0.1v1.3 c0,0.1-0.1,0.2-0.2,0.2c-0.9-0.2-1.8-0.7-2.7-1.4c-0.1-0.1-0.2-0.3-0.2-0.4v-1.3c-0.6-0.5-1.1-1.1-1.5-1.7l-1.1,0.1 c-0.1,0-0.3-0.1-0.4-0.3c-0.6-1-1.1-2.1-1.4-3.1c0-0.2,0-0.3,0.1-0.3l1.1-0.1c-0.1-0.7-0.1-1.3,0-1.8l-1.1-1.2 c-0.1-0.1-0.2-0.3-0.1-0.4c0.3-0.8,0.7-1.4,1.4-1.7c0.1-0.1,0.2,0,0.4,0.1l1.1,1.2c0.4-0.2,1-0.2,1.5-0.1v-1.3 c0-0.1,0.1-0.2,0.2-0.2c0.9,0.2,1.8,0.7,2.7,1.4c0.1,0.1,0.2,0.3,0.2,0.4v1.3c0.6,0.5,1.1,1.1,1.5,1.7l1.1-0.1 c0.1,0,0.3,0.1,0.4,0.3c0.6,1,1.1,2.1,1.4,3.1c0,0.2,0,0.3-0.1,0.3l-1.1,0.1c0.1,0.7,0.1,1.3,0,1.8l1.1,1.2 C139.6,341.3,139.7,341.5,139.6,341.6z M135.7,337.7c0-1.1-0.9-2.5-2-3.1c-1.1-0.6-2-0.1-2,1c0,1.1,0.9,2.5,2,3.1 C134.8,339.3,135.7,338.8,135.7,337.7z" class="st71"/></g><g><g><g><path d="M144,340.2c-0.8-5.6-5.1-11.8-10.3-14.5c-5.4-2.8-9.8-0.8-10.3,4.4" class="st124"/><g><polygon points="146.2 337.7 145.6 337.3 143.9 340 141.4 338.1 141 338.6 144.1 340.9" class="st71"/></g></g></g><g><g><path d="M123.5,333c0.8,5.6,5.1,11.8,10.3,14.5c5.4,2.8,9.8,0.8,10.3-4.4" class="st124"/><g><polygon points="121.3 335.6 121.9 335.9 123.6 333.2 126.1 335.1 126.5 334.6 123.4 332.3" class="st71"/></g></g></g></g></g><path d="M103.5,339.7l-37.1-21.4c-0.7-0.4-1.3-1.4-1.3-2.1v-4.5c0-0.7,0.6-1,1.3-0.6l37.1,21.4 c0.7,0.4,1.3,1.4,1.3,2.1v4.5C104.8,339.9,104.2,340.1,103.5,339.7z" class="st70"/><path d="M109.1,362l-42.5-24.6c-0.8-0.5-1.5-1.6-1.5-2.4v-5.2c0-0.8,0.7-1.1,1.5-0.6l42.5,24.6 c0.8,0.5,1.5,1.6,1.5,2.4v5.2C110.6,362.2,110,362.4,109.1,362z" class="st70"/></g></g><g><circle cx="176.7" cy="380.8" r="10" class="st91"/><radialGradient id="SVGID_18_" cx="176.706" cy="380.814" r="5.211" gradientUnits="userSpaceOnUse"><stop offset="0" stop-color="#FFF"/><stop offset="1" stop-color="#FFA744"/></radialGradient><circle cx="176.7" cy="380.8" r="5.2" class="st125"/></g></g></svg>