<?xml version="1.0" encoding="utf-8"?>
<!-- Generator: Adobe Illustrator 21.0.0, SVG Export Plug-In . SVG Version: 6.00 Build 0)  -->
<svg version="1.1" id="Layer_1" xmlns="http://www.w3.org/2000/svg" xmlns:xlink="http://www.w3.org/1999/xlink" x="0px" y="0px"
	 viewBox="0 0 490 490" style="enable-background:new 0 0 490 490;" xml:space="preserve">
<style type="text/css">
	.st0{fill:#120426;}
	.st1{fill:url(#SVGID_1_);}
	.st2{fill:url(#SVGID_2_);}
	.st3{fill:#6134A6;}
	.st4{fill:url(#SVGID_3_);}
	.st5{fill:url(#SVGID_4_);}
	.st6{fill:url(#SVGID_5_);}
	.st7{fill:url(#SVGID_6_);}
	.st8{fill:url(#SVGID_7_);}
	.st9{fill:url(#SVGID_8_);}
	.st10{fill:url(#SVGID_9_);}
	.st11{fill:url(#SVGID_10_);}
	.st12{fill:url(#SVGID_11_);}
	.st13{fill:url(#SVGID_12_);}
	.st14{opacity:0.25;fill:#120426;}
	.st15{fill:#9777C7;}
	.st16{fill:#C8B6E3;}
	.st17{fill:#7E44D8;}
	.st18{fill:url(#SVGID_13_);}
	.st19{fill:url(#SVGID_14_);}
	.st20{fill:url(#SVGID_15_);}
	.st21{fill:url(#SVGID_16_);}
	.st22{fill:url(#SVGID_17_);}
	.st23{fill:url(#SVGID_18_);}
	.st24{fill:url(#SVGID_19_);}
	.st25{fill:#491E8C;}
	.st26{opacity:0.4;fill:#491E8C;enable-background:new    ;}
	.st27{fill:url(#SVGID_20_);}
	.st28{fill:#78727F;}
	.st29{fill:#3C3940;}
	.st30{fill:url(#SVGID_21_);}
	.st31{fill:#B4ACBF;}
	.st32{fill:#FFFFFF;}
	.st33{fill:url(#SVGID_22_);}
	.st34{fill:url(#SVGID_23_);}
	.st35{fill:url(#SVGID_24_);}
	.st36{fill:url(#SVGID_25_);}
	.st37{fill:url(#SVGID_26_);}
	.st38{fill:url(#SVGID_27_);}
	.st39{fill:url(#SVGID_28_);}
	.st40{fill:url(#SVGID_29_);}
	.st41{fill:url(#SVGID_30_);}
	.st42{fill:url(#SVGID_31_);}
	.st43{fill:#F0E5FF;}
	.st44{fill:#FFA744;}
	.st45{fill:#C2A3FF;}
	.st46{fill:url(#SVGID_32_);}
	.st47{fill:#1D073F;}
	.st48{fill:#0A591B;}
	.st49{fill:#04260C;}
	.st50{fill:#E1EAF4;}
	.st51{fill:#5FAD71;}
	.st52{fill:#A7D6B2;}
	.st53{fill:#24D84B;}
	.st54{fill:url(#SVGID_33_);}
	.st55{fill:#7558A1;}
	.st56{fill:url(#SVGID_34_);}
	.st57{fill:url(#SVGID_35_);}
	.st58{fill:url(#SVGID_36_);}
	.st59{fill:#2F1359;}
	.st60{fill:url(#SVGID_37_);}
	.st61{fill:url(#SVGID_38_);}
	.st62{fill:#231F20;}
	.st63{fill:url(#SVGID_39_);}
	.st64{fill:url(#SVGID_40_);}
	.st65{fill:url(#SVGID_41_);}
	.st66{fill:url(#SVGID_42_);}
	.st67{fill:url(#SVGID_43_);}
	.st68{fill:url(#SVGID_44_);}
	.st69{fill:url(#SVGID_45_);}
	.st70{fill:url(#SVGID_46_);}
	.st71{fill:url(#SVGID_47_);}
	.st72{fill:url(#SVGID_48_);}
	.st73{fill:url(#SVGID_49_);}
	.st74{fill:url(#SVGID_50_);}
	.st75{opacity:0.45;fill:#45446C;}
	.st76{fill:url(#SVGID_51_);}
	.st77{fill:url(#SVGID_52_);}
	.st78{fill:url(#SVGID_53_);}
	.st79{fill:url(#SVGID_54_);}
	.st80{fill:url(#SVGID_55_);}
	.st81{fill:url(#SVGID_56_);}
	.st82{fill:url(#SVGID_57_);}
	.st83{fill:url(#SVGID_58_);}
	.st84{fill:url(#SVGID_59_);}
	.st85{fill:url(#SVGID_60_);}
	.st86{fill:url(#SVGID_61_);}
	.st87{fill:url(#SVGID_62_);}
	.st88{fill:url(#SVGID_63_);}
	.st89{fill:url(#SVGID_64_);}
	.st90{opacity:0.3;}
	.st91{opacity:0;fill:#120426;}
	.st92{opacity:2.439000e-02;fill:#120426;}
	.st93{opacity:4.878000e-02;fill:#120426;}
	.st94{opacity:7.317100e-02;fill:#120426;}
	.st95{opacity:9.756100e-02;fill:#120426;}
	.st96{opacity:0.122;fill:#120426;}
	.st97{opacity:0.1463;fill:#120426;}
	.st98{opacity:0.1707;fill:#120426;}
	.st99{opacity:0.1951;fill:#120426;}
	.st100{opacity:0.2195;fill:#120426;}
	.st101{opacity:0.2439;fill:#120426;}
	.st102{opacity:0.2683;fill:#120426;}
	.st103{opacity:0.2927;fill:#120426;}
	.st104{opacity:0.3171;fill:#120426;}
	.st105{opacity:0.3415;fill:#120426;}
	.st106{opacity:0.3659;fill:#120426;}
	.st107{opacity:0.3902;fill:#120426;}
	.st108{opacity:0.4146;fill:#120426;}
	.st109{opacity:0.439;fill:#120426;}
	.st110{opacity:0.4634;fill:#120426;}
	.st111{opacity:0.4878;fill:#120426;}
	.st112{opacity:0.5122;fill:#120426;}
	.st113{opacity:0.5366;fill:#120426;}
	.st114{opacity:0.561;fill:#120426;}
	.st115{opacity:0.5854;fill:#120426;}
	.st116{opacity:0.6098;fill:#120426;}
	.st117{opacity:0.6341;fill:#120426;}
	.st118{opacity:0.6585;fill:#120426;}
	.st119{opacity:0.6829;fill:#120426;}
	.st120{opacity:0.7073;fill:#120426;}
	.st121{opacity:0.7317;fill:#120426;}
	.st122{opacity:0.7561;fill:#120426;}
	.st123{opacity:0.7805;fill:#120426;}
	.st124{opacity:0.8049;fill:#120426;}
	.st125{opacity:0.8293;fill:#120426;}
	.st126{opacity:0.8537;fill:#120426;}
	.st127{opacity:0.878;fill:#120426;}
	.st128{opacity:0.9024;fill:#120426;}
	.st129{opacity:0.9268;fill:#120426;}
	.st130{opacity:0.9512;fill:#120426;}
	.st131{opacity:0.9756;fill:#120426;}
	.st132{fill:url(#XMLID_2_);}
	.st133{fill:url(#XMLID_3_);}
	.st134{fill:url(#SVGID_65_);}
	.st135{fill:url(#SVGID_66_);}
	.st136{fill:url(#XMLID_4_);}
	.st137{fill:url(#XMLID_5_);}
	.st138{fill:url(#SVGID_67_);}
	.st139{fill:url(#XMLID_6_);}
	.st140{fill:url(#XMLID_7_);}
	.st141{fill:url(#XMLID_8_);}
	.st142{fill:url(#XMLID_9_);}
	.st143{fill:url(#XMLID_10_);}
	.st144{fill:url(#XMLID_11_);}
	.st145{fill:url(#SVGID_68_);}
	.st146{fill:url(#SVGID_69_);}
</style>
<g>
	<path class="st0" d="M39,145.9c1,12.2,2.7,24.1,5.5,36c1.4,5.9,10.4,3.4,9-2.5c-2.6-11.1-4.3-22.1-5.2-33.5
		C47.9,139.9,38.6,139.9,39,145.9L39,145.9z"/>
	<linearGradient id="SVGID_1_" gradientUnits="userSpaceOnUse" x1="42.3743" y1="170.3802" x2="80.6483" y2="170.3802">
		<stop  offset="0" style="stop-color:#B4ACBF"/>
		<stop  offset="0.3311" style="stop-color:#B7AEC2"/>
		<stop  offset="0.5493" style="stop-color:#BFB6CB"/>
		<stop  offset="0.7349" style="stop-color:#CDC4DA"/>
		<stop  offset="0.9014" style="stop-color:#E1D6EF"/>
		<stop  offset="1" style="stop-color:#F0E5FF"/>
	</linearGradient>
	<path class="st1" d="M59.4,189.6l-15.5-11.1c-1.7-1.2-2.1-3.6-0.9-5.2L58.4,152c1.2-1.7,3.6-2.1,5.2-0.9l15.5,11.1
		c1.7,1.2,2.1,3.6,0.9,5.2l-15.3,21.3C63.4,190.5,61.1,190.9,59.4,189.6z"/>
	<linearGradient id="SVGID_2_" gradientUnits="userSpaceOnUse" x1="42.2418" y1="169.6484" x2="80.5159" y2="169.6484">
		<stop  offset="0" style="stop-color:#F0E5FF"/>
		<stop  offset="0.4535" style="stop-color:#F2E8FF"/>
		<stop  offset="0.7521" style="stop-color:#F7F1FF"/>
		<stop  offset="1" style="stop-color:#FFFFFF"/>
	</linearGradient>
	<path class="st2" d="M59.3,188.9l-15.5-11.1c-1.7-1.2-2.1-3.6-0.9-5.2l15.3-21.3c1.2-1.7,3.6-2.1,5.2-0.9l15.5,11.1
		c1.7,1.2,2.1,3.6,0.9,5.2L64.5,188C63.3,189.7,61,190.1,59.3,188.9z"/>
	<path class="st3" d="M22.1,148.9c3.4-3.3,9.3-4.6,13.9-4.6c1.5,0,1.5-2.3,0-2.3c-5.2-0.1-11.8,1.5-15.6,5.3
		C19.4,148.3,21,150,22.1,148.9L22.1,148.9z"/>
	<path class="st0" d="M34.1,283.7l0.6-0.3c0.3-0.2,0.5-0.6,0.3-0.9l0,0c-0.2-0.3-0.6-0.5-0.9-0.3l-0.6,0.3c-0.3,0.2-0.5,0.6-0.3,0.9
		l0,0C33.3,283.8,33.7,283.9,34.1,283.7z"/>
	<path class="st0" d="M35,282.8l0-3.1c0-0.4-0.3-0.7-0.7-0.7l0,0c-0.4,0-0.7,0.3-0.7,0.7l0,3.1c0,0.4,0.3,0.7,0.7,0.7l0,0
		C34.7,283.5,35,283.2,35,282.8z"/>
	<linearGradient id="SVGID_3_" gradientUnits="userSpaceOnUse" x1="31.4735" y1="278.7849" x2="51.2431" y2="278.7849">
		<stop  offset="0" style="stop-color:#2F1359"/>
		<stop  offset="2.421618e-02" style="stop-color:#31145C"/>
		<stop  offset="0.2044" style="stop-color:#3B1871"/>
		<stop  offset="0.4054" style="stop-color:#431C80"/>
		<stop  offset="0.6416" style="stop-color:#481D89"/>
		<stop  offset="1" style="stop-color:#491E8C"/>
	</linearGradient>
	<path class="st4" d="M31.6,274.5c0.7,3.5,1.5,8.8,1.5,8.8l1.3,0.2l-0.2-3.7c0.2-0.5,1.1,0,1.5,0.6c2.4,3.4,0.8,5.6,3.2,7.2
		c0,0,5.4,2.4,10.8,1.4c0,0,2.5-0.9,1.4-2.5c-2.2-3-10.1-11.5-11.6-13.5l-0.4-0.1l-2.8-4.6c-1.1-0.3-3.1,1.3-3.8,2.8
		C31.6,271.8,31.3,273,31.6,274.5z"/>
	<linearGradient id="SVGID_4_" gradientUnits="userSpaceOnUse" x1="33.0418" y1="275.6775" x2="46.4497" y2="275.6775">
		<stop  offset="0" style="stop-color:#B57676"/>
		<stop  offset="3.945488e-02" style="stop-color:#BD7F7D"/>
		<stop  offset="0.1793" style="stop-color:#D59A93"/>
		<stop  offset="0.3315" style="stop-color:#E8AFA5"/>
		<stop  offset="0.5004" style="stop-color:#F5BEB1"/>
		<stop  offset="0.6989" style="stop-color:#FDC7B8"/>
		<stop  offset="1" style="stop-color:#FFCABA"/>
	</linearGradient>
	<path class="st5" d="M36.8,267.9l2.4,2c0,0,6,9.4,7.1,11.3c1.3,2.2-6.6,5.9-12-6.9C30.4,267.5,36.8,267.9,36.8,267.9z"/>
	<linearGradient id="SVGID_5_" gradientUnits="userSpaceOnUse" x1="33.3894" y1="232.9638" x2="48.1038" y2="232.9638">
		<stop  offset="0" style="stop-color:#B57676"/>
		<stop  offset="3.945488e-02" style="stop-color:#BD7F7D"/>
		<stop  offset="0.1793" style="stop-color:#D59A93"/>
		<stop  offset="0.3315" style="stop-color:#E8AFA5"/>
		<stop  offset="0.5004" style="stop-color:#F5BEB1"/>
		<stop  offset="0.6989" style="stop-color:#FDC7B8"/>
		<stop  offset="1" style="stop-color:#FFCABA"/>
	</linearGradient>
	<path class="st6" d="M38.7,194.6c0.4,25.5-1,50.5-5.2,75.6c-1,5.9,6.3,8.1,7.3,2.2c4.4-26,7.7-51.5,7.3-77.8
		C48,188.6,38.6,188.5,38.7,194.6L38.7,194.6z"/>
	<linearGradient id="SVGID_6_" gradientUnits="userSpaceOnUse" x1="22.7279" y1="240.0295" x2="35.8546" y2="240.0295">
		<stop  offset="0" style="stop-color:#B57676"/>
		<stop  offset="3.945488e-02" style="stop-color:#BD7F7D"/>
		<stop  offset="0.1793" style="stop-color:#D59A93"/>
		<stop  offset="0.3315" style="stop-color:#E8AFA5"/>
		<stop  offset="0.5004" style="stop-color:#F5BEB1"/>
		<stop  offset="0.6989" style="stop-color:#FDC7B8"/>
		<stop  offset="1" style="stop-color:#FFCABA"/>
	</linearGradient>
	<path class="st7" d="M26.5,201.8c-1.5,25.4-3.7,50.9-3.8,76.4c0,6,8.1,6,8.1,0c0-25.5,3.5-50.9,5-76.3
		C36.2,195.8,26.8,195.8,26.5,201.8L26.5,201.8z"/>
	<linearGradient id="SVGID_7_" gradientUnits="userSpaceOnUse" x1="17.2958" y1="212.2776" x2="51.2723" y2="212.2776">
		<stop  offset="0" style="stop-color:#120426"/>
		<stop  offset="0.2376" style="stop-color:#180633"/>
		<stop  offset="0.5402" style="stop-color:#1C073C"/>
		<stop  offset="1" style="stop-color:#1D073F"/>
	</linearGradient>
	<path class="st8" d="M48.4,188.5c0,0-4.7-14.5-13.2-9.6c-8.5,4.9-18.9,10.6-17.8,25.9c0.1,1.3,0.3,2.5,0.5,3.6l2.5,34.2
		c-0.1,2.1,0.8,2.4,3.3,2.9c21.2,5,25-6.5,27.1-9.9c0.3-0.5,0.5-1.1,0.5-1.8L48.4,188.5z"/>
	<path class="st0" d="M23.9,289.2l0.6-0.3c0.3-0.2,0.5-0.6,0.3-0.9l0,0c-0.2-0.3-0.6-0.5-0.9-0.3l-0.6,0.3c-0.3,0.2-0.5,0.6-0.3,0.9
		l0,0C23.2,289.2,23.6,289.4,23.9,289.2z"/>
	<path class="st0" d="M24.9,288.3v-3.1c0-0.4-0.3-0.7-0.7-0.7l0,0c-0.4,0-0.7,0.3-0.7,0.7v3.1c0,0.4,0.3,0.7,0.7,0.7l0,0
		C24.6,288.9,24.9,288.6,24.9,288.3z"/>
	<linearGradient id="SVGID_8_" gradientUnits="userSpaceOnUse" x1="21.341" y1="284.2408" x2="41.1106" y2="284.2408">
		<stop  offset="0" style="stop-color:#2F1359"/>
		<stop  offset="2.421618e-02" style="stop-color:#31145C"/>
		<stop  offset="0.2044" style="stop-color:#3B1871"/>
		<stop  offset="0.4054" style="stop-color:#431C80"/>
		<stop  offset="0.6416" style="stop-color:#481D89"/>
		<stop  offset="1" style="stop-color:#491E8C"/>
	</linearGradient>
	<path class="st9" d="M21.5,279.9c0.7,3.5,1.5,8.8,1.5,8.8l1.3,0.2l-0.2-3.7c0.2-0.5,1.1,0,1.5,0.6c2.4,3.4,0.8,5.6,3.2,7.2
		c0,0,5.4,2.4,10.8,1.4c0,0,2.5-0.9,1.4-2.5c-2.2-3-10.1-11.5-11.6-13.5l-0.4-0.1l-2.8-4.6c-1.1-0.3-3.1,1.3-3.8,2.8
		C21.5,277.2,21.2,278.4,21.5,279.9z"/>
	<linearGradient id="SVGID_9_" gradientUnits="userSpaceOnUse" x1="22.9093" y1="281.1335" x2="36.3172" y2="281.1335">
		<stop  offset="0" style="stop-color:#B57676"/>
		<stop  offset="3.945488e-02" style="stop-color:#BD7F7D"/>
		<stop  offset="0.1793" style="stop-color:#D59A93"/>
		<stop  offset="0.3315" style="stop-color:#E8AFA5"/>
		<stop  offset="0.5004" style="stop-color:#F5BEB1"/>
		<stop  offset="0.6989" style="stop-color:#FDC7B8"/>
		<stop  offset="1" style="stop-color:#FFCABA"/>
	</linearGradient>
	<path class="st10" d="M26.7,273.4l2.4,2c0,0,6,9.4,7.1,11.3c1.3,2.2-6.6,5.9-12-6.9C20.2,273,26.7,273.4,26.7,273.4z"/>
	<linearGradient id="SVGID_10_" gradientUnits="userSpaceOnUse" x1="2.1902" y1="182.3263" x2="24.0061" y2="182.3263">
		<stop  offset="0" style="stop-color:#B57676"/>
		<stop  offset="3.945488e-02" style="stop-color:#BD7F7D"/>
		<stop  offset="0.1793" style="stop-color:#D59A93"/>
		<stop  offset="0.3315" style="stop-color:#E8AFA5"/>
		<stop  offset="0.5004" style="stop-color:#F5BEB1"/>
		<stop  offset="0.6989" style="stop-color:#FDC7B8"/>
		<stop  offset="1" style="stop-color:#FFCABA"/>
	</linearGradient>
	<path class="st11" d="M21.1,198.3c-6.3-8-15.6-16.4-10-26.9c2.5-4.6,5.3-8.9,8-13.4c2.3-3.9-3.7-7.4-6.1-3.5
		c-3.3,5.6-7.9,11.4-9.9,17.6c-4,12.3,5,20.6,11.8,29.5c0,0.2-0.1,0.3-0.1,0.5l-0.5,4.7c-0.3,2.5,1.6,4.8,4.1,5l0,0
		c2.5,0.3,4.8-1.6,5-4.1L24,203C24.2,200.9,23,199.1,21.1,198.3z"/>
	<linearGradient id="SVGID_11_" gradientUnits="userSpaceOnUse" x1="0.7486" y1="167.1772" x2="51.3234" y2="167.1772">
		<stop  offset="0" style="stop-color:#2F1359"/>
		<stop  offset="2.241254e-03" style="stop-color:#2F1359"/>
		<stop  offset="0.2029" style="stop-color:#3B1870"/>
		<stop  offset="0.4202" style="stop-color:#431B80"/>
		<stop  offset="0.6664" style="stop-color:#471D89"/>
		<stop  offset="1" style="stop-color:#491E8C"/>
	</linearGradient>
	<path class="st12" d="M48.7,154.8c0-0.2,0-0.4,0-0.6c0,0-0.9-4.3-1.8-6.5c-1.6-3.7-5.5-5.9-9.5-5.2c-6.8,1.2-15.4,5.3-18.7,7.4
		c-1.2-0.1-2.4,0.3-3.4,1.6c-4.5,5.7-10.5,11.1-13.2,17.9c-2.8,6.9-0.5,13.6,2.7,19.9c2.7,5.4,10.8,0.6,8.1-4.7
		c-2.3-4.5-3.9-8.8-1.2-13.4c1.1-2,2.5-3.8,4-5.6c0.1,0.4,0.3,1.2,0.9,1.5l1,1.8l6.2,18.3c20.8,8,22.8-0.5,22.8-0.5
		c0.3-2.5-1.3-5.1,1.6-14c0.4-1.1,2.8-4.9,3.2-8.3C51.6,161.7,50.1,157.8,48.7,154.8z"/>
	<linearGradient id="SVGID_12_" gradientUnits="userSpaceOnUse" x1="21.0886" y1="144.2847" x2="40.2773" y2="144.2847">
		<stop  offset="0" style="stop-color:#B57676"/>
		<stop  offset="3.945488e-02" style="stop-color:#BD7F7D"/>
		<stop  offset="0.1793" style="stop-color:#D59A93"/>
		<stop  offset="0.3315" style="stop-color:#E8AFA5"/>
		<stop  offset="0.5004" style="stop-color:#F5BEB1"/>
		<stop  offset="0.6989" style="stop-color:#FDC7B8"/>
		<stop  offset="1" style="stop-color:#FFCABA"/>
	</linearGradient>
	<path class="st13" d="M36.8,142.5c-0.4,0-0.7,0.1-1.1,0.1l2.3-10.5l-8.7,2.4l-2.3,10c-0.1,0.3-0.1,0.5-0.1,0.8
		c-1.9,0.9-3.8,2-5.8,3.2c0,0,10.5,11.6,16.7,6.4S36.8,142.5,36.8,142.5z"/>
	<path class="st14" d="M18.7,164.9c0.7,1.6,1.7,3.2,2.9,4.8c3.1,4.2,8.4,6.1,13.4,4.9c7.4-1.8,14.9-5.5,14.9-5.5s-3.2,10.3-2.1,16.3
		c0.5,2.8,0.1,2.3,0.1,2.3c-0.2,2.7-4.5,1.9-4.5,1.9c-9.4,2.9-19.8-2.2-19.8-2.2l-6.1-17.8L18.7,164.9z"/>
	<path class="st15" d="M49,186.9L49,186.9c0.1,0.6-0.1,1.2-0.6,1.6c-1.8,1.4-6.5,4.3-13.9,3.5c-6.4-0.7-10.1-2.1-11.9-3
		c-0.8-0.4-1.1-1.3-0.8-2.1l0.2-0.5c0.3-0.9,1.3-1.3,2.2-1c3.4,1.4,11.4,4.3,17,2.6c2.6-0.8,4.3-1.6,5.3-2.3
		C47.5,185.2,48.8,185.7,49,186.9z"/>
	<path class="st16" d="M38.4,192.6l3.6-0.7c1.2-0.2,2.2-1.4,2.2-2.6l0,0c0-1.2-1-2-2.2-1.7l-3.6,0.7c-1.2,0.2-2.2,1.4-2.2,2.6v0
		C36.2,192.1,37.2,192.9,38.4,192.6z"/>
	<path class="st17" d="M37.1,143.5c0.2,3.1,3.2,8.2-0.2,10.2c-5,3-11.3-2.7-14.6-6c-1.1-1-2.7,0.6-1.7,1.7c4.2,4,10.3,9.3,16.5,6.8
		c6.3-2.6,2.7-7.7,2.3-12.7C39.3,142,37,142,37.1,143.5L37.1,143.5z"/>
	<linearGradient id="SVGID_13_" gradientUnits="userSpaceOnUse" x1="42.7542" y1="128.3032" x2="48.6381" y2="128.3032">
		<stop  offset="0" style="stop-color:#120426"/>
		<stop  offset="0.2371" style="stop-color:#180633"/>
		<stop  offset="0.5608" style="stop-color:#1C073C"/>
		<stop  offset="1" style="stop-color:#1D073F"/>
	</linearGradient>
	<path class="st18" d="M42.8,119.5c0.6,3.3,2.9,6.1,3.4,9.3c0.5,2.9-2.3,5.4-2.3,8.5c0,1.5,2.3,1.5,2.3,0c0-3.2,2.7-4.9,2.4-8.1
		c-0.4-3.7-2.9-6.8-3.6-10.4C44.8,117.4,42.5,118.1,42.8,119.5L42.8,119.5z"/>
	<linearGradient id="SVGID_14_" gradientUnits="userSpaceOnUse" x1="14.0265" y1="121.3672" x2="30.4459" y2="121.3672">
		<stop  offset="0" style="stop-color:#120426"/>
		<stop  offset="0.2371" style="stop-color:#180633"/>
		<stop  offset="0.5608" style="stop-color:#1C073C"/>
		<stop  offset="1" style="stop-color:#1D073F"/>
	</linearGradient>
	<circle class="st19" cx="22.2" cy="121.4" r="8.2"/>
	<linearGradient id="SVGID_15_" gradientUnits="userSpaceOnUse" x1="30.5586" y1="143.9774" x2="37.5909" y2="143.9774">
		<stop  offset="0.1505" style="stop-color:#C7755C"/>
		<stop  offset="1" style="stop-color:#FFC2B0"/>
	</linearGradient>
	<path class="st20" d="M37.1,143.5c-1.1,0-5.4-0.6-6.5-1.5c0,0,1.9,3,7,4L37.1,143.5z"/>
	<linearGradient id="SVGID_16_" gradientUnits="userSpaceOnUse" x1="27.1998" y1="128.7694" x2="46.0161" y2="128.7694">
		<stop  offset="0" style="stop-color:#B57676"/>
		<stop  offset="3.945488e-02" style="stop-color:#BD7F7D"/>
		<stop  offset="0.1793" style="stop-color:#D59A93"/>
		<stop  offset="0.3315" style="stop-color:#E8AFA5"/>
		<stop  offset="0.5004" style="stop-color:#F5BEB1"/>
		<stop  offset="0.6989" style="stop-color:#FDC7B8"/>
		<stop  offset="1" style="stop-color:#FFCABA"/>
	</linearGradient>
	<path class="st21" d="M34.7,143.6l2.8,0.1c4.3,0.1,7.9-3.2,8-7.5L46,122c0.1-4.3-3.2-7.9-7.5-8l-2.8-0.1c-4.3-0.1-7.9,3.2-8,7.5
		l-0.5,14.1C27.1,139.8,30.4,143.4,34.7,143.6z"/>
	<linearGradient id="SVGID_17_" gradientUnits="userSpaceOnUse" x1="20.4451" y1="125.8693" x2="47.3168" y2="125.8693">
		<stop  offset="0" style="stop-color:#120426"/>
		<stop  offset="0.2371" style="stop-color:#180633"/>
		<stop  offset="0.5608" style="stop-color:#1C073C"/>
		<stop  offset="1" style="stop-color:#1D073F"/>
	</linearGradient>
	<path class="st22" d="M32.7,125.5c3.2-4,9.2,0.8,12.4-0.5c3.5-1.3,2.3-4.9-0.1-7.8c-1.3-1.6-2.9-2.9-6.1-4.1
		c-9-3.4-18.1,0.4-18.5,10.6c0,0-0.8,14,7.3,16.1l0.5-2.1c0,0-2.9-4.2,2.1-7.2c1.2-0.7,0.2-1.2,0.1-2.9
		C30.4,126,31.6,126.9,32.7,125.5z"/>
	<linearGradient id="SVGID_18_" gradientUnits="userSpaceOnUse" x1="24.1244" y1="133.1543" x2="29.0063" y2="133.1543">
		<stop  offset="0" style="stop-color:#B57676"/>
		<stop  offset="3.945488e-02" style="stop-color:#BD7F7D"/>
		<stop  offset="0.1793" style="stop-color:#D59A93"/>
		<stop  offset="0.3315" style="stop-color:#E8AFA5"/>
		<stop  offset="0.5004" style="stop-color:#F5BEB1"/>
		<stop  offset="0.6989" style="stop-color:#FDC7B8"/>
		<stop  offset="1" style="stop-color:#FFCABA"/>
	</linearGradient>
	<path class="st23" d="M25.6,135.8c1.2,1,2.7,0.7,3.2-0.8c0.5-1.5-0.1-3.5-1.3-4.6c-1.2-1-2.7-0.7-3.2,0.8
		C23.8,132.8,24.4,134.8,25.6,135.8z"/>
	<linearGradient id="SVGID_19_" gradientUnits="userSpaceOnUse" x1="24.241" y1="134.8213" x2="32.3382" y2="134.8213">
		<stop  offset="0" style="stop-color:#120426"/>
		<stop  offset="0.2371" style="stop-color:#180633"/>
		<stop  offset="0.5608" style="stop-color:#1C073C"/>
		<stop  offset="1" style="stop-color:#1D073F"/>
	</linearGradient>
	<path class="st24" d="M30,123.7c-0.1,4.9-0.7,9.6-3.8,13.5c-2.7,3.4-2,4.8-1.4,8.9c0.2,1.5,2.5,0.9,2.3-0.6
		c-0.2-1.7-1.1-3.4-0.4-5.1c0.4-0.9,1.4-1.7,2-2.4c0.9-1.1,1.5-2.2,2-3.5c1.2-3.4,1.6-7.2,1.7-10.8C32.4,122.2,30,122.2,30,123.7
		L30,123.7z"/>
	<g id="Brandmark_10_">
		<path id="Core-1_10_" class="st25" d="M64.7,163.9c0.6,0.4,0.7,1.4,0.3,2.2c-0.4,0.8-1.2,1-1.8,0.6c-0.6-0.4-0.7-1.4-0.3-2.2
			C63.4,163.7,64.2,163.5,64.7,163.9z"/>
		<path id="Core-2_10_" class="st25" d="M60.1,164.5c0.6,0.4,0.7,1.4,0.3,2.2s-1.2,1-1.8,0.6s-0.7-1.4-0.3-2.2
			S59.6,164.1,60.1,164.5z"/>
		<path id="Core-3_10_" class="st25" d="M66.2,169.2c0.6,0.4,0.7,1.4,0.3,2.2c-0.4,0.8-1.2,1-1.8,0.6c-0.6-0.4-0.7-1.4-0.3-2.2
			C64.8,169,65.6,168.7,66.2,169.2z"/>
		<path id="Core-4_10_" class="st25" d="M58.8,170.1c0.6,0.4,0.7,1.4,0.3,2.2c-0.4,0.8-1.2,1-1.8,0.6s-0.7-1.4-0.3-2.2
			C57.4,169.9,58.2,169.7,58.8,170.1z"/>
		<path id="Core-5_10_" class="st25" d="M62.5,173c0.6,0.4,0.7,1.4,0.3,2.2c-0.4,0.8-1.2,1-1.8,0.6c-0.6-0.4-0.7-1.4-0.3-2.2
			C61.1,172.8,61.9,172.6,62.5,173z"/>
		<path id="Center_10_" class="st26" d="M60.5,173.4c0.2-0.5,0.6-0.8,1-0.9s0.9-0.1,1.2,0.2c0.3,0.3,0.6,0.6,0.6,1.1
			c0.5-0.3,0.9-0.8,1.3-1.4c-0.1,0-0.1,0-0.2-0.1c-0.4-0.3-0.6-0.7-0.7-1.2s0-1.1,0.3-1.5c0.2-0.5,0.6-0.8,1-0.9
			c0.1,0,0.3-0.1,0.4-0.1c-0.1-0.7-0.2-1.3-0.5-1.9c-0.2,0.3-0.5,0.5-0.8,0.6c-0.4,0.1-0.9,0.1-1.2-0.2c-0.4-0.3-0.6-0.7-0.7-1.2
			c-0.1-0.4,0-0.8,0.1-1.1c-0.5-0.1-1.1,0-1.6,0.2c0.1,0.1,0.1,0.3,0.1,0.5c0.1,0.5,0,1.1-0.3,1.5s-0.6,0.8-1,0.9
			c-0.4,0.2-0.9,0.1-1.2-0.2c-0.1,0-0.1-0.1-0.1-0.1c-0.3,0.7-0.5,1.3-0.5,2c0.4-0.1,0.8,0,1.1,0.2c0.4,0.3,0.6,0.7,0.7,1.2
			c0.1,0.5,0,1.1-0.3,1.5c-0.1,0.2-0.3,0.4-0.5,0.6c0.2,0.2,0.4,0.4,0.6,0.6c0.2,0.2,0.5,0.3,0.7,0.4
			C60.3,173.9,60.3,173.6,60.5,173.4z"/>
		<path id="Circles_10_" class="st26" d="M70.1,171.3c0.1-0.8,0.1-1.5,0-2.3c-0.1-0.7-0.3-1.5-0.6-2.1c-0.2-0.4-0.5-0.8-0.8-1.1
			c0.1-0.7,0.1-1.4,0-2c-0.1-0.7-0.3-1.5-0.6-2.1c-0.3-0.6-0.8-1.2-1.3-1.6c-0.5-0.4-1.1-0.7-1.7-0.8c-0.6-0.1-1.2,0-1.8,0.2
			c-0.5,0.2-1.1,0.4-1.5,0.8c-0.4-0.2-0.8-0.4-1.3-0.4c-0.6-0.1-1.2,0-1.8,0.2c-0.6,0.2-1.2,0.5-1.7,1c-0.5,0.5-1,1.1-1.4,1.8
			c-0.4,0.7-0.6,1.5-0.8,2.3c-0.1,0.8-0.1,1.5,0,2.3c0,0,0,0.1,0,0.2c-0.2,0.3-0.4,0.6-0.6,0.9c-0.4,0.7-0.6,1.5-0.8,2.3
			c-0.1,0.8-0.1,1.5,0,2.3c0.1,0.7,0.3,1.5,0.6,2.1c0.3,0.6,0.8,1.2,1.3,1.6c0.5,0.4,1.1,0.7,1.7,0.8c0.2,0,0.3,0,0.5,0
			c0.1,0.2,0.2,0.3,0.2,0.5c0.3,0.6,0.8,1.2,1.3,1.6c0.5,0.4,1.1,0.7,1.7,0.8c0.6,0.1,1.2,0,1.8-0.2c0.6-0.2,1.2-0.5,1.7-1
			c0.5-0.5,1-1.1,1.4-1.8c0.2-0.3,0.3-0.7,0.4-1c0.1,0,0.1,0,0.1,0c0.6-0.2,1.2-0.5,1.7-1c0.5-0.5,1-1.1,1.4-1.8
			C69.7,172.9,70,172.1,70.1,171.3z M67.8,175c-0.5,0.4-1,0.7-1.5,0.9c0.1-0.2,0.1-0.4,0.2-0.7c0.1-0.8,0.1-1.5,0-2.3
			c0-0.2-0.1-0.5-0.1-0.7c-0.1,0.1-0.2,0.2-0.4,0.3c0.1,0.2,0.1,0.4,0.1,0.6c0.1,0.7,0.1,1.4,0,2.1c0,0.3-0.1,0.6-0.2,0.9
			c-0.5,0.1-0.9,0.1-1.4,0.1c-0.5-0.1-1-0.3-1.4-0.6c-0.1,0.2-0.2,0.3-0.3,0.4c0.5,0.4,1.1,0.6,1.6,0.7c0.4,0.1,0.8,0.1,1.2,0
			c-0.1,0.2-0.2,0.4-0.3,0.7c-0.3,0.6-0.8,1.2-1.3,1.6c-0.5,0.4-1,0.7-1.6,0.9c-0.6,0.2-1.1,0.2-1.7,0.1c-0.6-0.1-1.1-0.3-1.6-0.7
			s-0.9-0.9-1.2-1.5c0-0.1-0.1-0.1-0.1-0.2c0.3,0,0.6-0.1,0.9-0.2c0.6-0.2,1.2-0.5,1.7-1c0.1-0.1,0.1-0.1,0.2-0.2
			c-0.1-0.1-0.2-0.2-0.3-0.3c-0.1,0.1-0.1,0.1-0.2,0.2c-0.5,0.4-1,0.7-1.6,0.9c-0.3,0.1-0.7,0.2-1,0.2c-0.1-0.4-0.2-0.8-0.3-1.2
			c-0.1-0.7-0.1-1.4,0-2.1c0-0.1,0-0.1,0.1-0.2c-0.1,0-0.3-0.1-0.4-0.2c0,0.1-0.1,0.2-0.1,0.4c-0.1,0.8-0.1,1.5,0,2.3
			c0.1,0.4,0.1,0.7,0.2,1.1c-0.1,0-0.1,0-0.2,0c-0.6-0.1-1.1-0.3-1.6-0.7c-0.5-0.4-0.9-0.9-1.2-1.5c-0.3-0.6-0.5-1.2-0.6-1.9
			c-0.1-0.7-0.1-1.4,0-2.1c0.1-0.7,0.4-1.4,0.7-2.1c0.1-0.2,0.2-0.4,0.4-0.6c0.1,0.5,0.3,1,0.5,1.4c0.3,0.6,0.7,1.1,1.2,1.5
			c0-0.2,0.1-0.3,0.2-0.5c-0.4-0.4-0.8-0.8-1-1.3c-0.2-0.5-0.4-0.9-0.5-1.5c0.2-0.2,0.4-0.4,0.6-0.6c0.5-0.4,1-0.7,1.6-0.9
			c0.2-0.1,0.3-0.1,0.5-0.1c0-0.2,0-0.3,0.1-0.5c-0.2,0-0.4,0.1-0.6,0.1c-0.6,0.2-1.2,0.5-1.7,1c-0.2,0.2-0.3,0.3-0.5,0.5
			c-0.1-0.7-0.1-1.3,0.1-2c0.1-0.7,0.4-1.4,0.7-2.1c0.3-0.6,0.8-1.2,1.3-1.6c0.5-0.4,1-0.7,1.6-0.9c0.6-0.2,1.1-0.2,1.7-0.1
			c0.3,0,0.6,0.2,0.9,0.3c-0.4,0.4-0.9,1-1.2,1.6c-0.3,0.5-0.5,1-0.6,1.6c0.1,0,0.3,0,0.4,0.1c0.1-0.5,0.3-0.9,0.5-1.3
			c0.3-0.6,0.7-1.2,1.3-1.6c0.1,0,0.2,0.1,0.3,0.2c0.5,0.4,0.9,0.9,1.2,1.5c0.1,0.3,0.3,0.6,0.4,0.9c0.1,0,0.2-0.1,0.2-0.1
			c0.1,0,0.1,0,0.2,0c-0.1-0.4-0.2-0.7-0.4-1c-0.3-0.6-0.8-1.2-1.3-1.6c0,0-0.1-0.1-0.1-0.1c0.4-0.3,0.8-0.5,1.2-0.6
			c0.6-0.2,1.1-0.2,1.7-0.1c0.6,0.1,1.1,0.3,1.6,0.7c0.5,0.4,0.9,0.9,1.2,1.5c0.3,0.6,0.5,1.2,0.6,1.9c0.1,0.5,0.1,1,0,1.6
			c-0.1,0-0.1-0.1-0.2-0.1c-0.5-0.4-1.1-0.7-1.7-0.8c-0.3-0.1-0.6-0.1-1,0c0,0.1,0,0.1,0,0.2c0,0.1,0,0.2,0,0.3c0.3,0,0.6,0,0.8,0
			c0.6,0.1,1.1,0.3,1.6,0.7c0.1,0.1,0.2,0.2,0.3,0.3c-0.1,0.7-0.4,1.4-0.7,2c-0.2,0.4-0.5,0.8-0.8,1.2c0.1,0.1,0.1,0.3,0.2,0.4
			c0.4-0.4,0.7-0.8,1-1.3c0.3-0.6,0.6-1.3,0.7-1.9c0.2,0.3,0.4,0.5,0.6,0.8c0.3,0.6,0.5,1.2,0.6,1.9c0.1,0.7,0.1,1.4,0,2.1
			c-0.1,0.7-0.4,1.4-0.7,2.1C68.7,174,68.3,174.5,67.8,175z"/>
	</g>
	<linearGradient id="SVGID_20_" gradientUnits="userSpaceOnUse" x1="64.0252" y1="183.011" x2="74.2014" y2="183.011">
		<stop  offset="0" style="stop-color:#B57676"/>
		<stop  offset="3.945488e-02" style="stop-color:#BD7F7D"/>
		<stop  offset="0.1793" style="stop-color:#D59A93"/>
		<stop  offset="0.3315" style="stop-color:#E8AFA5"/>
		<stop  offset="0.5004" style="stop-color:#F5BEB1"/>
		<stop  offset="0.6989" style="stop-color:#FDC7B8"/>
		<stop  offset="1" style="stop-color:#FFCABA"/>
	</linearGradient>
	<path class="st27" d="M66.7,188.7l-0.7-0.3c-1.8-0.9-2.5-3-1.6-4.8l2.4-4.7c0.9-1.8,3-2.5,4.8-1.6l0.7,0.3c1.8,0.9,2.5,3,1.6,4.8
		l-2.4,4.7C70.6,188.9,68.4,189.6,66.7,188.7z"/>
</g>
<g>
	<polygon class="st28" points="351.6,437.5 474.2,369.4 374.7,230.1 	"/>
	<polygon class="st29" points="474.2,369.4 184.5,202.1 134.9,27.6 424.6,194.8 	"/>
	<linearGradient id="SVGID_21_" gradientUnits="userSpaceOnUse" x1="61.9517" y1="232.0761" x2="423.8624" y2="232.0761">
		<stop  offset="0" style="stop-color:#B4ACBF"/>
		<stop  offset="1" style="stop-color:#F0E5FF"/>
	</linearGradient>
	<polygon class="st30" points="351.6,437.5 62,270.3 134.2,26.6 423.9,193.9 	"/>
	<polygon class="st28" points="402.5,201.5 155.9,57.2 152.1,69.8 152.1,69.8 95.7,256.7 342.2,401.1 346.1,388.4 346.1,388.4 	"/>
	<polygon class="st31" points="395.4,204.5 148.9,60.2 145,72.8 145,72.8 88.6,259.7 335.2,404.1 339,391.4 339,391.4 	"/>
	<polygon class="st32" points="387.7,203.1 141.1,58.7 137.3,71.4 137.3,71.3 80.9,258.2 327.4,402.6 331.2,390 331.3,390 	"/>
	<linearGradient id="SVGID_22_" gradientUnits="userSpaceOnUse" x1="166.4476" y1="91.065" x2="181.133" y2="91.065">
		<stop  offset="0.5" style="stop-color:#78727F"/>
		<stop  offset="0.5493" style="stop-color:#87818F"/>
		<stop  offset="0.6325" style="stop-color:#9B94A4"/>
		<stop  offset="0.7253" style="stop-color:#A9A2B3"/>
		<stop  offset="0.8345" style="stop-color:#B1AABC"/>
		<stop  offset="1" style="stop-color:#B4ACBF"/>
	</linearGradient>
	<path class="st33" d="M181.1,92.6c0,4.2-3.3,7-7.3,6.1c-4.1-0.8-7.3-5-7.3-9.2c0-4.2,3.3-7,7.3-6.1
		C177.8,84.3,181.1,88.4,181.1,92.6z"/>
	<linearGradient id="SVGID_23_" gradientUnits="userSpaceOnUse" x1="160.1305" y1="65.1362" x2="213.7246" y2="65.1362">
		<stop  offset="0" style="stop-color:#120426"/>
		<stop  offset="1.660460e-02" style="stop-color:#140627"/>
		<stop  offset="0.2144" style="stop-color:#261D32"/>
		<stop  offset="0.4287" style="stop-color:#322D3A"/>
		<stop  offset="0.6713" style="stop-color:#3A363F"/>
		<stop  offset="1" style="stop-color:#3C3940"/>
	</linearGradient>
	<path class="st34" d="M172.3,85.2c-3-1.9-4.7-5.3-4.8-9.8c-0.4-11.1,8.8-24.6,20.1-29.6c2.8-1.2,5.5-1.8,8-1.8c2.3,0,4.3,0.5,6,1.6
		c3,1.9,4.7,5.3,4.8,9.8v0c0.1,3.7-0.8,7.7-2.5,11.5l6.4,3.8c2.4-5,3.7-10.4,3.5-15.5v0c-0.2-6.9-3.2-12.5-8.2-15.7
		c-5.6-3.5-13.2-3.6-20.8-0.2c-14.2,6.3-25,22.3-24.5,36.5c0.2,6.9,3.2,12.5,8.2,15.7c1.5,0.9,3.2,1.6,4.9,2.1
		c2.4,0.6,4.5-1.7,3.7-4c0,0,0,0,0,0c-0.5-1.6-1.7-2.9-3.2-3.5C173.3,85.7,172.8,85.5,172.3,85.2z"/>
	<linearGradient id="SVGID_24_" gradientUnits="userSpaceOnUse" x1="211.0349" y1="116.8489" x2="225.7204" y2="116.8489">
		<stop  offset="0.5" style="stop-color:#78727F"/>
		<stop  offset="0.5493" style="stop-color:#87818F"/>
		<stop  offset="0.6325" style="stop-color:#9B94A4"/>
		<stop  offset="0.7253" style="stop-color:#A9A2B3"/>
		<stop  offset="0.8345" style="stop-color:#B1AABC"/>
		<stop  offset="1" style="stop-color:#B4ACBF"/>
	</linearGradient>
	<path class="st35" d="M225.7,118.4c0,4.2-3.3,7-7.3,6.1c-4.1-0.8-7.3-5-7.3-9.2s3.3-7,7.3-6.1C222.4,110,225.7,114.1,225.7,118.4z"
		/>
	<linearGradient id="SVGID_25_" gradientUnits="userSpaceOnUse" x1="204.7179" y1="90.9201" x2="258.312" y2="90.9201">
		<stop  offset="0" style="stop-color:#120426"/>
		<stop  offset="1.660460e-02" style="stop-color:#140627"/>
		<stop  offset="0.2144" style="stop-color:#261D32"/>
		<stop  offset="0.4287" style="stop-color:#322D3A"/>
		<stop  offset="0.6713" style="stop-color:#3A363F"/>
		<stop  offset="1" style="stop-color:#3C3940"/>
	</linearGradient>
	<path class="st36" d="M216.9,111c-3-1.9-4.7-5.3-4.8-9.8c-0.4-11.1,8.8-24.6,20.1-29.6c2.8-1.2,5.5-1.8,8-1.8c2.3,0,4.3,0.5,6,1.6
		c3,1.9,4.7,5.3,4.8,9.8v0c0.1,3.7-0.8,7.7-2.5,11.5l6.4,3.8c2.4-5,3.7-10.4,3.5-15.5v0c-0.2-6.9-3.2-12.5-8.2-15.7
		c-5.6-3.5-13.2-3.6-20.8-0.2c-14.2,6.3-25,22.3-24.5,36.5c0.2,6.9,3.2,12.5,8.2,15.7c1.5,0.9,3.2,1.6,4.9,2.1
		c2.4,0.6,4.5-1.7,3.7-4c0,0,0,0,0,0c-0.5-1.6-1.7-2.9-3.2-3.5C217.9,111.5,217.3,111.3,216.9,111z"/>
	<linearGradient id="SVGID_26_" gradientUnits="userSpaceOnUse" x1="255.6223" y1="142.6328" x2="270.3078" y2="142.6328">
		<stop  offset="0.5" style="stop-color:#78727F"/>
		<stop  offset="0.5493" style="stop-color:#87818F"/>
		<stop  offset="0.6325" style="stop-color:#9B94A4"/>
		<stop  offset="0.7253" style="stop-color:#A9A2B3"/>
		<stop  offset="0.8345" style="stop-color:#B1AABC"/>
		<stop  offset="1" style="stop-color:#B4ACBF"/>
	</linearGradient>
	<path class="st37" d="M270.3,144.2c0,4.2-3.3,7-7.3,6.1c-4.1-0.8-7.3-5-7.3-9.2c0-4.2,3.3-7,7.3-6.1
		C267,135.8,270.3,139.9,270.3,144.2z"/>
	<linearGradient id="SVGID_27_" gradientUnits="userSpaceOnUse" x1="249.3053" y1="116.704" x2="302.8994" y2="116.704">
		<stop  offset="0" style="stop-color:#120426"/>
		<stop  offset="1.660460e-02" style="stop-color:#140627"/>
		<stop  offset="0.2144" style="stop-color:#261D32"/>
		<stop  offset="0.4287" style="stop-color:#322D3A"/>
		<stop  offset="0.6713" style="stop-color:#3A363F"/>
		<stop  offset="1" style="stop-color:#3C3940"/>
	</linearGradient>
	<path class="st38" d="M261.5,136.7c-3-1.9-4.7-5.3-4.8-9.8c-0.4-11.1,8.8-24.6,20.1-29.6c2.8-1.2,5.5-1.8,8-1.8
		c2.3,0,4.3,0.5,6,1.6c3,1.9,4.7,5.3,4.8,9.8v0c0.1,3.7-0.8,7.7-2.5,11.5l6.4,3.8c2.4-5,3.7-10.4,3.5-15.5v0
		c-0.2-6.9-3.2-12.5-8.2-15.7c-5.6-3.5-13.2-3.6-20.8-0.2c-14.2,6.3-25,22.3-24.5,36.5c0.2,6.9,3.2,12.5,8.2,15.7
		c1.5,0.9,3.2,1.6,4.9,2.1c2.4,0.6,4.5-1.7,3.7-4c0,0,0,0,0,0c-0.5-1.6-1.7-2.9-3.2-3.5C262.4,137.3,261.9,137,261.5,136.7z"/>
	<linearGradient id="SVGID_28_" gradientUnits="userSpaceOnUse" x1="300.2097" y1="168.4168" x2="314.8952" y2="168.4168">
		<stop  offset="0.5" style="stop-color:#78727F"/>
		<stop  offset="0.5493" style="stop-color:#87818F"/>
		<stop  offset="0.6325" style="stop-color:#9B94A4"/>
		<stop  offset="0.7253" style="stop-color:#A9A2B3"/>
		<stop  offset="0.8345" style="stop-color:#B1AABC"/>
		<stop  offset="1" style="stop-color:#B4ACBF"/>
	</linearGradient>
	<path class="st39" d="M314.9,169.9c0,4.2-3.3,7-7.3,6.1c-4.1-0.8-7.3-5-7.3-9.2c0-4.2,3.3-7,7.3-6.1
		C311.6,161.6,314.9,165.7,314.9,169.9z"/>
	<linearGradient id="SVGID_29_" gradientUnits="userSpaceOnUse" x1="293.8926" y1="142.4879" x2="347.4868" y2="142.4879">
		<stop  offset="0" style="stop-color:#120426"/>
		<stop  offset="1.660460e-02" style="stop-color:#140627"/>
		<stop  offset="0.2144" style="stop-color:#261D32"/>
		<stop  offset="0.4287" style="stop-color:#322D3A"/>
		<stop  offset="0.6713" style="stop-color:#3A363F"/>
		<stop  offset="1" style="stop-color:#3C3940"/>
	</linearGradient>
	<path class="st40" d="M306,162.5c-3-1.9-4.7-5.3-4.8-9.8c-0.4-11.1,8.8-24.6,20.1-29.6c2.8-1.2,5.5-1.8,8-1.8c2.3,0,4.3,0.5,6,1.6
		c3,1.9,4.7,5.3,4.8,9.8v0c0.1,3.7-0.8,7.7-2.5,11.5l6.4,3.8c2.4-5,3.7-10.4,3.5-15.5v0c-0.2-6.9-3.2-12.5-8.2-15.7
		c-5.6-3.5-13.2-3.6-20.8-0.2c-14.2,6.3-25,22.3-24.5,36.5c0.2,6.9,3.2,12.5,8.2,15.7c1.5,0.9,3.2,1.6,4.9,2.1
		c2.4,0.6,4.5-1.7,3.7-4c0,0,0,0,0,0c-0.5-1.6-1.7-2.9-3.2-3.5C307,163.1,306.5,162.8,306,162.5z"/>
	<linearGradient id="SVGID_30_" gradientUnits="userSpaceOnUse" x1="344.7971" y1="194.2007" x2="359.4826" y2="194.2007">
		<stop  offset="0.5" style="stop-color:#78727F"/>
		<stop  offset="0.5493" style="stop-color:#87818F"/>
		<stop  offset="0.6325" style="stop-color:#9B94A4"/>
		<stop  offset="0.7253" style="stop-color:#A9A2B3"/>
		<stop  offset="0.8345" style="stop-color:#B1AABC"/>
		<stop  offset="1" style="stop-color:#B4ACBF"/>
	</linearGradient>
	<path class="st41" d="M359.5,195.7c0,4.2-3.3,7-7.3,6.1s-7.3-5-7.3-9.2c0-4.2,3.3-7,7.3-6.1C356.2,187.4,359.5,191.5,359.5,195.7z"
		/>
	<linearGradient id="SVGID_31_" gradientUnits="userSpaceOnUse" x1="338.48" y1="168.2719" x2="392.0742" y2="168.2719">
		<stop  offset="0" style="stop-color:#120426"/>
		<stop  offset="1.660460e-02" style="stop-color:#140627"/>
		<stop  offset="0.2144" style="stop-color:#261D32"/>
		<stop  offset="0.4287" style="stop-color:#322D3A"/>
		<stop  offset="0.6713" style="stop-color:#3A363F"/>
		<stop  offset="1" style="stop-color:#3C3940"/>
	</linearGradient>
	<path class="st42" d="M350.6,188.3c-3-1.9-4.7-5.3-4.8-9.8c-0.4-11.1,8.8-24.6,20.1-29.6c2.8-1.2,5.5-1.8,8-1.8
		c2.3,0,4.3,0.5,6,1.6c3,1.9,4.7,5.3,4.8,9.8v0c0.1,3.7-0.8,7.7-2.5,11.5l6.4,3.8c2.4-5,3.7-10.4,3.5-15.5v0
		c-0.2-6.9-3.2-12.5-8.2-15.7c-5.6-3.5-13.2-3.6-20.8-0.2c-14.2,6.3-25,22.3-24.5,36.5c0.2,6.9,3.2,12.5,8.2,15.7
		c1.5,0.9,3.2,1.6,4.9,2.1c2.4,0.6,4.5-1.7,3.7-4c0,0,0,0,0,0c-0.5-1.6-1.7-2.9-3.2-3.5C351.6,188.9,351.1,188.6,350.6,188.3z"/>
	<g>
		<g>
			<rect x="247.4" y="44.4" transform="matrix(0.5 -0.866 0.866 0.5 -27.7221 302.1895)" class="st43" width="0.9" height="261.3"/>
			<rect x="238.6" y="74.3" transform="matrix(0.5 -0.866 0.866 0.5 -57.9208 309.5537)" class="st43" width="0.9" height="261.3"/>
			
				<rect x="229.9" y="104.1" transform="matrix(0.5 -0.866 0.866 0.5 -88.1189 316.9189)" class="st43" width="0.9" height="261.3"/>
			
				<rect x="221.2" y="133.9" transform="matrix(0.5 -0.866 0.866 0.5 -118.3176 324.2831)" class="st43" width="0.9" height="261.3"/>
			
				<rect x="212.5" y="163.8" transform="matrix(0.5 -0.866 0.866 0.5 -148.5158 331.6483)" class="st43" width="0.9" height="261.3"/>
			<path class="st43" d="M163.4,161.8l-31.2-18l9-30.8l31.2,18L163.4,161.8z M133.3,143.3l29.5,17.1l8.4-28.9l-29.5-17.1
				L133.3,143.3z"/>
			<path class="st43" d="M193.8,179.3l-31.2-18l9-30.8l31.2,18L193.8,179.3z M163.7,160.9l29.5,17.1l8.5-28.9l-29.5-17.1
				L163.7,160.9z"/>
			<path class="st43" d="M224.2,196.9l-31.2-18l9-30.8l31.2,18L224.2,196.9z M194.1,178.4l29.5,17.1l8.5-28.9l-29.5-17.1
				L194.1,178.4z"/>
			<path class="st43" d="M254.6,214.4l-31.2-18l9-30.8l31.2,18L254.6,214.4z M224.5,195.9L254,213l8.4-28.9L232.9,167L224.5,195.9z"
				/>
			<path class="st43" d="M285,232l-31.2-18l9-30.8l31.2,18L285,232z M254.9,213.5l29.5,17.1l8.5-28.9l-29.5-17.1L254.9,213.5z"/>
			<path class="st43" d="M315.4,249.5l-31.2-18l9-30.8l31.2,18L315.4,249.5z M285.3,231l29.5,17.1l8.5-28.9l-29.5-17.1L285.3,231z"
				/>
			<path class="st43" d="M345.8,267.1l-31.2-18l9-30.8l31.2,18L345.8,267.1z M315.6,248.6l29.5,17.1l8.4-28.9l-29.5-17.1
				L315.6,248.6z"/>
			<path class="st43" d="M154.7,191.6l-31.2-18l9-30.8l31.2,18L154.7,191.6z M124.6,173.1l29.5,17.1l8.5-28.9L133,144.2L124.6,173.1
				z"/>
			<path class="st43" d="M185.1,209.2l-31.2-18l9-30.8l31.2,18L185.1,209.2z M155,190.7l29.5,17.1l8.4-28.9l-29.5-17.1L155,190.7z"
				/>
			<path class="st43" d="M215.5,226.7l-31.2-18l9-30.8l31.2,18L215.5,226.7z M185.4,208.2l29.5,17.1l8.4-28.9l-29.5-17.1
				L185.4,208.2z"/>
			<path class="st43" d="M245.9,244.3l-31.2-18l9-30.8l31.2,18L245.9,244.3z M215.8,225.8l29.5,17.1l8.5-28.9l-29.5-17.1
				L215.8,225.8z"/>
			<path class="st43" d="M276.3,261.8l-31.2-18l9-30.8l31.2,18L276.3,261.8z M246.1,243.3l29.5,17.1l8.4-28.9l-29.5-17.1
				L246.1,243.3z"/>
			<path class="st43" d="M306.7,279.3l-31.2-18l9-30.8l31.2,18L306.7,279.3z M276.5,260.9l29.5,17.1l8.4-28.9L285,232L276.5,260.9z"
				/>
			<path class="st43" d="M337,296.9l-31.2-18l9-30.8l31.2,18L337,296.9z M306.9,278.4l29.5,17.1l8.5-28.9l-29.5-17.1L306.9,278.4z"
				/>
			<path class="st43" d="M146,221.5l-31.2-18l9-30.8l31.2,18L146,221.5z M115.9,203l29.5,17.1l8.4-28.9l-29.5-17.1L115.9,203z"/>
			<path class="st43" d="M176.4,239l-31.2-18l9-30.8l31.2,18L176.4,239z M146.3,220.5l29.5,17.1l8.5-28.9l-29.5-17.1L146.3,220.5z"
				/>
			<path class="st43" d="M206.8,256.5l-31.2-18l9-30.8l31.2,18L206.8,256.5z M176.7,238.1l29.5,17.1l8.5-28.9l-29.5-17.1
				L176.7,238.1z"/>
			<path class="st43" d="M237.2,274.1l-31.2-18l9-30.8l31.2,18L237.2,274.1z M207,255.6l29.5,17.1l8.4-28.9l-29.5-17.1L207,255.6z"
				/>
			<path class="st43" d="M267.5,291.6l-31.2-18l9-30.8l31.2,18L267.5,291.6z M237.4,273.2l29.5,17.1l8.5-28.9l-29.5-17.1
				L237.4,273.2z"/>
			<path class="st43" d="M297.9,309.2l-31.2-18l9-30.8l31.2,18L297.9,309.2z M267.8,290.7l29.5,17.1l8.5-28.9l-29.5-17.1
				L267.8,290.7z"/>
			<path class="st43" d="M328.3,326.7l-31.2-18l9-30.8l31.2,18L328.3,326.7z M298.2,308.2l29.5,17.1l8.4-28.9l-29.5-17.1
				L298.2,308.2z"/>
			<path class="st43" d="M137.3,251.3l-31.2-18l9-30.8l31.2,18L137.3,251.3z M107.2,232.8l29.5,17.1l8.5-28.9l-29.5-17.1
				L107.2,232.8z"/>
			<path class="st43" d="M167.7,268.8l-31.2-18l9-30.8l31.2,18L167.7,268.8z M137.5,250.4l29.5,17.1l8.4-28.9L146,221.5L137.5,250.4
				z"/>
			<path class="st43" d="M198,286.4l-31.2-18l9-30.8l31.2,18L198,286.4z M167.9,267.9l29.5,17.1l8.4-28.9L176.4,239L167.9,267.9z"/>
			<path class="st43" d="M228.4,303.9l-31.2-18l9-30.8l31.2,18L228.4,303.9z M198.3,285.4l29.5,17.1l8.5-28.9l-29.5-17.1
				L198.3,285.4z"/>
			<path class="st43" d="M258.8,321.5l-31.2-18l9-30.8l31.2,18L258.8,321.5z M228.7,303l29.5,17.1l8.5-28.9l-29.5-17.1L228.7,303z"
				/>
			<path class="st43" d="M289.2,339L258,321l9-30.8l31.2,18L289.2,339z M259.1,320.5l29.5,17.1l8.4-28.9l-29.5-17.1L259.1,320.5z"/>
			<path class="st43" d="M319.6,356.6l-31.2-18l9-30.8l31.2,18L319.6,356.6z M289.5,338.1l29.5,17.1l8.5-28.9l-29.5-17.1
				L289.5,338.1z"/>
		</g>
		<g>
			<path class="st31" d="M165.8,121l-12.8-7.4c-0.9-0.5-1.3-1.8-1-2.7l0,0c0.4-1,1.4-1.4,2.3-0.8l12.8,7.4c0.9,0.5,1.3,1.8,1,2.7
				l0,0C167.8,121.1,166.7,121.5,165.8,121z"/>
			<path class="st0" d="M153.1,140.1l-12.8-7.4c-0.9-0.5-1.3-1.8-1-2.7l0,0c0.4-1,1.4-1.4,2.3-0.8l12.8,7.4c0.9,0.5,1.3,1.8,1,2.7
				l0,0C155,140.2,154,140.6,153.1,140.1z"/>
			<path class="st17" d="M164.5,134.1l-12.8-7.4c0,0-0.1,0-0.1,0l-8.1-4.7c-0.9-0.5-1.9-0.1-2.3,0.8c-0.4,1,0.1,2.2,1,2.7l12.8,7.4
				c0,0,0.1,0,0.1,0l8.1,4.7c0.9,0.5,1.9,0.1,2.3-0.8C165.8,135.8,165.4,134.6,164.5,134.1z"/>
			<path class="st17" d="M218.3,200l-12.8-7.4c0,0-0.1,0-0.1,0l-8.1-4.7c-0.9-0.5-1.9-0.1-2.3,0.8c-0.4,1,0.1,2.2,1,2.7l12.8,7.4
				c0,0,0.1,0,0.1,0l8.1,4.7c0.9,0.5,1.9,0.1,2.3-0.8C219.6,201.8,219.2,200.6,218.3,200z"/>
			<path class="st31" d="M196.4,138.7l-12.8-7.4c-0.9-0.5-1.3-1.8-1-2.7l0,0c0.4-1,1.4-1.4,2.3-0.8l12.8,7.4c0.9,0.5,1.3,1.8,1,2.7
				l0,0C198.3,138.8,197.3,139.2,196.4,138.7z"/>
			<path class="st31" d="M226.9,156.3l-12.8-7.4c-0.9-0.5-1.3-1.8-1-2.7l0,0c0.4-1,1.4-1.4,2.3-0.8l12.8,7.4c0.9,0.5,1.3,1.8,1,2.7
				l0,0C228.9,156.5,227.8,156.9,226.9,156.3z"/>
			<path class="st31" d="M257.4,174l-12.8-7.4c-0.9-0.5-1.3-1.8-1-2.7l0,0c0.4-1,1.4-1.4,2.3-0.8l12.8,7.4c0.9,0.5,1.3,1.8,1,2.7
				l0,0C259.4,174.1,258.4,174.5,257.4,174z"/>
			<path class="st31" d="M288,191.7l-12.8-7.4c-0.9-0.5-1.3-1.8-1-2.7l0,0c0.4-1,1.4-1.4,2.3-0.8l12.8,7.4c0.9,0.5,1.3,1.8,1,2.7
				l0,0C289.9,191.8,288.9,192.2,288,191.7z"/>
			<path class="st31" d="M318.5,209.3l-12.8-7.4c-0.9-0.5-1.3-1.8-1-2.7l0,0c0.4-1,1.4-1.4,2.3-0.8l12.8,7.4c0.9,0.5,1.3,1.8,1,2.7
				l0,0C320.5,209.5,319.4,209.8,318.5,209.3z"/>
			<path class="st31" d="M349.1,227l-12.8-7.4c-0.9-0.5-1.3-1.8-1-2.7l0,0c0.4-1,1.4-1.4,2.3-0.8l12.8,7.4c0.9,0.5,1.3,1.8,1,2.7
				l0,0C351,227.1,350,227.5,349.1,227z"/>
			<path class="st44" d="M157.3,252l-40.2-23.2c-2.8-1.6-4.2-5.5-3-8.6l0,0c1.2-3.1,4.4-4.3,7.3-2.7l40.2,23.2
				c2.8,1.6,4.2,5.5,3,8.6v0C163.4,252.4,160.2,253.6,157.3,252z"/>
			<path class="st45" d="M328.9,281.6l-40.2-23.2c-2.8-1.6-4.2-5.5-3-8.6l0,0c1.2-3.1,4.4-4.3,7.3-2.7l40.2,23.2
				c2.8,1.6,4.2,5.5,3,8.6v0C335,282.1,331.7,283.3,328.9,281.6z"/>
			<path class="st44" d="M177.1,175.9l0.8,4.3c0.1,0.7,0.5,1.3,1.1,1.7l3.6,2.7c1.4,1,1.5,3.1,0.2,3.5l-3.3,1.1
				c-0.5,0.2-0.8,0.6-0.9,1.2l-0.3,4.1c-0.1,1.5-1.8,1.8-3,0.4l-2.9-3.7c-0.4-0.6-1-0.9-1.6-0.9l-3.8-0.2c-1.4-0.1-2.6-2-2.1-3.3
				l1.5-3.3c0.2-0.5,0.2-1.2-0.1-1.8l-2.1-4.2c-0.8-1.6,0.2-3,1.7-2.4l3.9,1.6c0.6,0.2,1.2,0.2,1.5-0.2l2.5-2.4
				C175,173.2,176.8,174.2,177.1,175.9z"/>
			<path class="st44" d="M230.3,242.3l0.8,4.3c0.1,0.7,0.5,1.3,1.1,1.7l3.6,2.7c1.4,1,1.5,3.1,0.2,3.5l-3.3,1.1
				c-0.5,0.2-0.8,0.6-0.9,1.2l-0.3,4.1c-0.1,1.5-1.8,1.8-3,0.4l-2.9-3.7c-0.4-0.6-1-0.9-1.6-0.9l-3.8-0.2c-1.4-0.1-2.6-2-2.1-3.3
				l1.5-3.3c0.2-0.5,0.2-1.2-0.1-1.8l-2.1-4.2c-0.8-1.6,0.2-3,1.7-2.4l3.9,1.6c0.6,0.2,1.2,0.2,1.5-0.2l2.5-2.4
				C228.1,239.6,230,240.7,230.3,242.3z"/>
			<path class="st0" d="M145.8,140.6c0-0.7-0.4-1.3-0.9-1.6l-5.4-3.1c-0.9-0.5-1.9-0.1-2.3,0.8c-0.4,1,0.1,2.2,1,2.7l4.8,2.8
				C144.3,143,145.8,142.1,145.8,140.6L145.8,140.6z"/>
			<path class="st0" d="M137.6,196.3l-12.8-7.4c-0.9-0.5-1.3-1.8-1-2.7l0,0c0.4-1,1.4-1.4,2.3-0.8l12.8,7.4c0.9,0.5,1.3,1.8,1,2.7
				l0,0C139.6,196.4,138.5,196.8,137.6,196.3z"/>
			<path class="st17" d="M270.9,234.6l-12.8-7.4c-0.9-0.5-1.3-1.8-1-2.7l0,0c0.4-1,1.4-1.4,2.3-0.8l12.8,7.4c0.9,0.5,1.3,1.8,1,2.7
				l0,0C272.8,234.8,271.8,235.1,270.9,234.6z"/>
			<path class="st0" d="M267.5,241.8l-12.8-7.4c-0.9-0.5-1.3-1.8-1-2.7l0,0c0.4-1,1.4-1.4,2.3-0.8l12.8,7.4c0.9,0.5,1.3,1.8,1,2.7
				l0,0C269.4,241.9,268.4,242.3,267.5,241.8z"/>
			<path class="st0" d="M130.4,196.8c0-0.7-0.4-1.3-0.9-1.6l-5.4-3.1c-0.9-0.5-1.9-0.1-2.3,0.8c-0.4,1,0.1,2.2,1,2.7l4.8,2.8
				C128.8,199.2,130.4,198.3,130.4,196.8L130.4,196.8z"/>
			<path class="st0" d="M202.1,199.6c0-0.7-0.4-1.3-0.9-1.6l-5.4-3.1c-0.9-0.5-1.9-0.1-2.3,0.8c-0.4,1,0.1,2.2,1,2.7l4.8,2.8
				C200.6,202,202.1,201.1,202.1,199.6L202.1,199.6z"/>
			<path class="st45" d="M253.4,198.2c-0.9,7.4-6.5,9.7-12.4,5.2c-5.9-4.5-10-14.1-9-21.4c0.9-7.4,6.5-9.7,12.4-5.2
				C250.3,181.2,254.4,190.8,253.4,198.2z"/>
			<path class="st32" d="M235.7,183.7c1.3,4,2.6,8,3.9,12c0.5,1.6,2.3,1.9,3.5,0.9c1.7-1.3,3.3-2.6,5-4c2.1-1.7-0.9-4.7-3-3
				c-1.7,1.3-3.3,2.6-5,4c1.2,0.3,2.4,0.6,3.5,0.9c-1.3-4-2.6-8-3.9-12C239,180,234.9,181.1,235.7,183.7L235.7,183.7z"/>
		</g>
	</g>
	<g>
		<path class="st44" d="M129.2,115.9L81,88.1c-1.7-1-2.6-3.3-1.9-5.2l4.7-14.5c0.6-1.9,2.5-2.6,4.2-1.7l48.2,27.8
			c1.7,1,2.6,3.3,1.9,5.2l-4.7,14.5C132.7,116.2,130.8,116.9,129.2,115.9z"/>
		<path class="st32" d="M128.1,100.5L108,88.9c-1-0.6-1.5-1.9-1.1-3.1l0,0c0.4-1.1,1.5-1.6,2.4-1l20.1,11.6c1,0.6,1.5,1.9,1.1,3.1
			l0,0C130.2,100.6,129.1,101.1,128.1,100.5z"/>
		<path class="st32" d="M126.4,108.4l-12.3-7.1c-1-0.6-1.5-1.9-1.1-3.1l0,0c0.4-1.1,1.5-1.6,2.4-1l12.3,7.1c1,0.6,1.5,1.9,1.1,3.1
			l0,0C128.5,108.6,127.4,109,126.4,108.4z"/>
	</g>
</g>
<g>
	<linearGradient id="SVGID_32_" gradientUnits="userSpaceOnUse" x1="235.5567" y1="337.7523" x2="254.3264" y2="337.7523">
		<stop  offset="0" style="stop-color:#B57676"/>
		<stop  offset="3.945488e-02" style="stop-color:#BD7F7D"/>
		<stop  offset="0.1793" style="stop-color:#D59A93"/>
		<stop  offset="0.3315" style="stop-color:#E8AFA5"/>
		<stop  offset="0.5004" style="stop-color:#F5BEB1"/>
		<stop  offset="0.6989" style="stop-color:#FDC7B8"/>
		<stop  offset="1" style="stop-color:#FFCABA"/>
	</linearGradient>
	<path class="st46" d="M248,305c-6.6,9.8-9.4,22.5-12,33.9c-0.6,2.6-0.8,4.2,0.1,6.8c2.7,7.5,4.5,15.3,5.4,23.2
		c0.5,4.2,7.1,4.2,6.6,0c-0.8-7.7-2.3-15.3-4.8-22.6c-0.3-1-0.7-3.6-1.6-4.3c1.1,0.9-0.5,2.4,0.1,1c0.2-0.6,0.3-1.3,0.4-2
		c2.4-10.9,5.1-23.2,11.4-32.6C256.1,304.8,250.4,301.4,248,305L248,305z"/>
	<path class="st47" d="M246.2,307.6c-4.4,7.7-6.3,15.4-9.2,25.9c-1.1,2.9-0.4,5.5,1.4,5.4l6.1,0.8c1.5-0.1,4.4-3.4,5.1-5.8l6.5-21.5
		c1.3-4.3,0.3-8.1-2.2-8.6l-0.6-0.1C252.9,302.2,249.5,302.2,246.2,307.6z"/>
	<g>
		<g>
			<path class="st48" d="M230.1,345.4l2.1,24.2c0,0.3,0.4,0.5,0.6,0.3l27.3-19.1c0.1-0.1,0.2-0.2,0.2-0.4l-2.1-24.2
				c0-0.3-0.4-0.5-0.6-0.3l-27.3,19.1C230.2,345.1,230.1,345.3,230.1,345.4z"/>
			
				<rect x="232.5" y="369.2" transform="matrix(0.4222 -0.9065 0.9065 0.4222 -200.4998 424.7869)" class="st48" width="0.9" height="0.9"/>
			
				<rect x="257.8" y="326" transform="matrix(0.4222 -0.9065 0.9065 0.4222 -146.7223 422.6674)" class="st48" width="0.9" height="0.9"/>
		</g>
		<path class="st49" d="M230.8,345.7l2.1,24.2c0,0.3,0.4,0.5,0.6,0.3l27.3-19.1c0.1-0.1,0.2-0.2,0.2-0.4l-2.1-24.2
			c0-0.3-0.4-0.5-0.6-0.3l-27.3,19.1C230.8,345.4,230.8,345.6,230.8,345.7z"/>
		<polygon class="st50" points="230.7,346.8 232.6,368 238.4,370.8 236.5,349.6 		"/>
		<g>
			<path class="st48" d="M235.3,347.8l2.1,24.2c0,0.3,0.4,0.5,0.6,0.3l27.3-19.1c0.1-0.1,0.2-0.2,0.2-0.4l-2.1-24.2
				c0-0.3-0.4-0.5-0.6-0.3l-27.3,19.1C235.4,347.6,235.3,347.7,235.3,347.8z"/>
			
				<rect x="237.8" y="371.7" transform="matrix(0.4221 -0.9066 0.9066 0.4221 -199.6804 430.9755)" class="st48" width="0.9" height="0.9"/>
			
				<rect x="262.9" y="328.5" transform="matrix(0.4222 -0.9065 0.9065 0.4222 -145.9265 428.6678)" class="st48" width="0.9" height="0.6"/>
		</g>
		<path class="st51" d="M235.9,348.1l2.1,24.2c0,0.3,0.4,0.5,0.6,0.3l27.3-19.1c0.1-0.1,0.2-0.2,0.2-0.4l-2.1-24.2
			c0-0.3-0.4-0.5-0.6-0.3l-27.3,19.1C236,347.9,235.9,348,235.9,348.1z"/>
		<polygon class="st48" points="230.2,345.1 257.9,325.9 263.1,328.3 236.1,347.8 		"/>
		
			<rect x="233.7" y="348.5" transform="matrix(0.9965 -8.339547e-02 8.339547e-02 0.9965 -29.1023 20.7488)" class="st52" width="0.2" height="20.6"/>
		
			<rect x="235.4" y="349.3" transform="matrix(0.9965 -8.339547e-02 8.339547e-02 0.9965 -29.1625 20.8937)" class="st52" width="0.2" height="20.6"/>
		
			<rect x="232.6" y="347.9" transform="matrix(0.9965 -8.334829e-02 8.334829e-02 0.9965 -29.0461 20.6398)" class="st52" width="0.2" height="20.6"/>
		<path class="st53" d="M233.9,360.7c0,0-2.9,1.5-4.8,0.8l-0.1-2.1c0,0,3.7,0,4.8-0.7L233.9,360.7z"/>
	</g>
	<linearGradient id="SVGID_33_" gradientUnits="userSpaceOnUse" x1="298.8563" y1="331.0352" x2="309.401" y2="331.0352">
		<stop  offset="0" style="stop-color:#FFCABA"/>
		<stop  offset="0.3011" style="stop-color:#FDC7B8"/>
		<stop  offset="0.4996" style="stop-color:#F5BEB1"/>
		<stop  offset="0.6685" style="stop-color:#E8AFA5"/>
		<stop  offset="0.8207" style="stop-color:#D59A93"/>
		<stop  offset="0.9605" style="stop-color:#BD7F7D"/>
		<stop  offset="1" style="stop-color:#B57676"/>
	</linearGradient>
	<path class="st54" d="M299.7,332.2l2.2,2.8c1.4,1.8,4,2.1,5.8,0.7l0,0c1.8-1.4,2.1-4,0.7-5.8l-2.2-2.8c-1.4-1.8-4-2.1-5.8-0.7l0,0
		C298.6,327.8,298.3,330.4,299.7,332.2z"/>
	<g>
		<path class="st55" d="M290.2,373.4c0,0,0-0.1,0-0.1l0,0l5.1-14.6c1.4-4.1-0.5-8.8-4.3-10.5c-3.8-1.8-8.1,0.1-9.5,4.2l-5.1,14.6
			l0,0c0,0,0,0.1-0.1,0.1c-1.4,4.1,0.5,8.8,4.3,10.5C284.5,379.3,288.7,377.5,290.2,373.4z"/>
		<polygon class="st28" points="278.8,359.4 308.2,276 316.6,278.1 285.6,366.8 		"/>
		<path class="st31" d="M316.6,278.1c3.2,2.1,3.2-1.6,6.3,2.3l-29.1,83.1c-3.4,4.9-6,5.2-8.2,3.6L316.6,278.1z"/>
		<path class="st50" d="M293.2,364.8c0,0,0-0.1,0-0.1l0,0l1-2.8c-1.7,3.5-5.7,5-9.4,3.4c-3.9-1.8-5.9-6.5-4.5-10.6
			c0,0,0-0.1,0.1-0.1l0,0l-1.4,3.7l0,0c0,0,0,0.1-0.1,0.1C276.5,366,290.7,372.5,293.2,364.8z"/>
		<path class="st50" d="M284.8,365.2c3.9,1.8,7.7,1.5,9.2-2.5c0,0,0.5-1.7,0.6-1.7l0,0l1-2.8c-2,5.1-16.2,0.5-13.9-7.2
			c0,0,0-0.1,0.1-0.1l0,0l-1.4,3.7l0,0c0,0,0,0.1-0.1,0.1C278.9,358.7,280.9,363.4,284.8,365.2z"/>
		<linearGradient id="SVGID_34_" gradientUnits="userSpaceOnUse" x1="315.7072" y1="281.8487" x2="315.7072" y2="260.3282">
			<stop  offset="0" style="stop-color:#F0E5FF"/>
			<stop  offset="1" style="stop-color:#FFFFFF"/>
		</linearGradient>
		<path class="st56" d="M323.1,279.9l-2.9-19.6l-11.8,14.5C308.2,280.6,321.8,284.3,323.1,279.9z"/>
		<linearGradient id="SVGID_35_" gradientUnits="userSpaceOnUse" x1="317.6027" y1="269.9269" x2="317.6027" y2="259.313">
			<stop  offset="0" style="stop-color:#CC8636"/>
			<stop  offset="1" style="stop-color:#FFA744"/>
		</linearGradient>
		<path class="st57" d="M320.6,259.3l0.9,9.6c0,0-0.1,1.2-1.9,0.7s-1.4,0.9-3.5,0c-2-0.8-2.2-1.5-2.2-1.5L320.6,259.3z"/>
	</g>
	<linearGradient id="SVGID_36_" gradientUnits="userSpaceOnUse" x1="243.0305" y1="367.2755" x2="252.1046" y2="367.2755">
		<stop  offset="0" style="stop-color:#FFCABA"/>
		<stop  offset="0.3011" style="stop-color:#FDC7B8"/>
		<stop  offset="0.4996" style="stop-color:#F5BEB1"/>
		<stop  offset="0.6685" style="stop-color:#E8AFA5"/>
		<stop  offset="0.8207" style="stop-color:#D59A93"/>
		<stop  offset="0.9605" style="stop-color:#BD7F7D"/>
		<stop  offset="1" style="stop-color:#B57676"/>
	</linearGradient>
	<path class="st58" d="M250.1,369.9l-2.2,1c-1.7,0.8-3.8,0-4.5-1.7l0,0c-0.8-1.7,0-3.8,1.7-4.5l2.2-1c1.7-0.8,3.8,0,4.5,1.7l0,0
		C252.6,367.1,251.8,369.1,250.1,369.9z"/>
	<path class="st59" d="M264.5,445.6c-0.2,0.2-3.2,1.7-3.4,1.9c-0.3,0.3-1.2,1-1.7,1.3c-1.1,0.8-3.4,3.8-7.2,1.7
		c-5.6-3.1,7.7-12,7.7-12l5.9-3.1c0.7-0.4,1.6-0.4,2.3,0l0,0c1.4,0.7,1.9,2.4,1.2,3.7C268,441.4,267.9,442.7,264.5,445.6z"/>
	<linearGradient id="SVGID_37_" gradientUnits="userSpaceOnUse" x1="259.6047" y1="449.5916" x2="259.6047" y2="433.5498">
		<stop  offset="0" style="stop-color:#491E8C"/>
		<stop  offset="0.3584" style="stop-color:#481D89"/>
		<stop  offset="0.5946" style="stop-color:#431C80"/>
		<stop  offset="0.7956" style="stop-color:#3B1871"/>
		<stop  offset="0.9758" style="stop-color:#31145C"/>
		<stop  offset="1" style="stop-color:#2F1359"/>
	</linearGradient>
	<path class="st60" d="M263.9,444c-0.2,0.2-3.2,1.7-3.4,1.9c-0.3,0.3-1.2,1-1.7,1.3c-1.1,0.8-3.4,3.8-7.2,1.7
		c-5.6-3.1,7.7-12,7.7-12l5.9-3.1c0.7-0.4,1.6-0.4,2.3,0l0,0c1.4,0.7,1.9,2.4,1.2,3.7C267.4,439.7,267.3,441,263.9,444z"/>
	<path class="st59" d="M285.2,458.3c-0.2,0.1-3.5,1-3.7,1.1c-0.3,0.2-1.3,0.7-1.9,1c-1.2,0.6-4.1,3-7.4,0.2
		c-4.8-4.2,9.9-10.2,9.9-10.2l6.4-1.8c0.8-0.2,1.6,0,2.3,0.5l0,0c1.2,0.9,1.4,2.7,0.4,3.8C289.5,454.8,289.1,456.1,285.2,458.3z"/>
	<linearGradient id="SVGID_38_" gradientUnits="userSpaceOnUse" x1="281.2121" y1="460.1814" x2="281.2121" y2="446.7533">
		<stop  offset="0" style="stop-color:#491E8C"/>
		<stop  offset="0.3584" style="stop-color:#481D89"/>
		<stop  offset="0.5946" style="stop-color:#431C80"/>
		<stop  offset="0.7956" style="stop-color:#3B1871"/>
		<stop  offset="0.9758" style="stop-color:#31145C"/>
		<stop  offset="1" style="stop-color:#2F1359"/>
	</linearGradient>
	<path class="st61" d="M284.9,456.5c-0.2,0.1-3.5,1-3.7,1.1c-0.3,0.2-1.3,0.7-1.9,1c-1.2,0.6-4.1,3-7.4,0.2
		c-4.8-4.2,9.9-10.2,9.9-10.2l6.4-1.8c0.8-0.2,1.6,0,2.3,0.5l0,0c1.2,0.9,1.4,2.7,0.4,3.8C289.2,453.1,288.8,454.3,284.9,456.5z"/>
	<path class="st62" d="M258.9,438.8c-2.2,1.9-6.7,1.6-8.4-0.8c0,1.3,0,2.7,0,4c0.1,5.4,8.6,5.4,8.4,0
		C258.9,441,258.9,439.9,258.9,438.8z"/>
	<path class="st62" d="M280.3,449.9c-2.2,1.9-6.7,1.6-8.4-0.8c0,1.3,0,2.7,0,4c0.1,5.4,8.6,5.4,8.4,0
		C280.3,452.1,280.3,451,280.3,449.9z"/>
	<linearGradient id="SVGID_39_" gradientUnits="userSpaceOnUse" x1="268.189" y1="414.5286" x2="283.3276" y2="414.5286">
		<stop  offset="0" style="stop-color:#120426"/>
		<stop  offset="0.2376" style="stop-color:#180633"/>
		<stop  offset="0.5402" style="stop-color:#1C073C"/>
		<stop  offset="1" style="stop-color:#1D073F"/>
	</linearGradient>
	<path class="st63" d="M268.5,379.8c4.4,13.1,4.8,27,4.4,40.7c-0.3,10-1.8,20.1-1.6,30.1c0.1,6.6,10.5,6.7,10.3,0
		c-0.2-10.5,1.4-21,1.7-31.5c0.4-14.1-0.3-28.6-4.8-42C276.3,370.8,266.4,373.5,268.5,379.8L268.5,379.8z"/>
	<linearGradient id="SVGID_40_" gradientUnits="userSpaceOnUse" x1="247.5242" y1="403.4113" x2="263.0664" y2="403.4113">
		<stop  offset="0" style="stop-color:#120426"/>
		<stop  offset="0.2376" style="stop-color:#180633"/>
		<stop  offset="0.5402" style="stop-color:#1C073C"/>
		<stop  offset="1" style="stop-color:#1D073F"/>
	</linearGradient>
	<path class="st64" d="M247.7,368.1c2.4,8.7,3.4,17.6,4.3,26.6c0.5,4.9,1,9.5,0.5,14.4c-1.1,10.2-2.9,20.7-2.9,31
		c0,6.6,10.3,6.7,10.3,0c0-10.6,1.9-21.2,3-31.8c0.6-5.4-0.3-10.7-0.8-16.1c-0.9-9-2-18-4.4-26.8C255.9,359,246,361.7,247.7,368.1
		L247.7,368.1z"/>
	<g>
		<linearGradient id="SVGID_41_" gradientUnits="userSpaceOnUse" x1="264.469" y1="389.7251" x2="264.469" y2="355.8292">
			<stop  offset="0" style="stop-color:#120426"/>
			<stop  offset="0.2376" style="stop-color:#180633"/>
			<stop  offset="0.5402" style="stop-color:#1C073C"/>
			<stop  offset="1" style="stop-color:#1D073F"/>
		</linearGradient>
		<path class="st65" d="M256.2,381.8L256.2,381.8c1,1.1-3.1-4.1-1.9-3.4c2.6,1.5,16.9,11.3,19.9,11.3c3.6,0.1,1.5-3.4,4.2-5.8
			c2.5-2.3,3.1-6,3.4-9.4c0.1-0.9,0.1-1.9-0.3-2.8c-0.4-0.9-1.2-1.6-2.1-2.2c-6.4-4.8-18.9-16.7-27.8-12.9
			C241.3,361,251.6,376.7,256.2,381.8z"/>
	</g>
	<linearGradient id="SVGID_42_" gradientUnits="userSpaceOnUse" x1="245.7127" y1="340.4935" x2="284.7" y2="340.4935">
		<stop  offset="0" style="stop-color:#2F1359"/>
		<stop  offset="2.241254e-03" style="stop-color:#2F1359"/>
		<stop  offset="0.2029" style="stop-color:#3B1870"/>
		<stop  offset="0.4202" style="stop-color:#431B80"/>
		<stop  offset="0.6664" style="stop-color:#471D89"/>
		<stop  offset="1" style="stop-color:#491E8C"/>
	</linearGradient>
	<path class="st66" d="M284.5,328.7c0,0,1.8-12.3-4.5-16c-3.4-2-8.6-5.2-12.8-7.7c-6.1-3.7-14.1-5.1-18.5,0.5
		c-0.8,1-1.2,1.8-1.4,2.7l0,0c0,0,0,0,0,0.1c-0.2,0.8-0.2,1.5-0.2,2.5c-1.6,19.6-2,51.7-0.1,52.4l0,0c0.1,0.8,0.6,1.6,1.6,2.2
		c5,6.1,13.4,9.6,22.3,12.9c2.4,1.4,6.7,1.2,9.6-0.4c1.6-0.9,2.4-2.1,2.3-3.2l0.1,0c-1.8-18.8-0.1-31.3,0.2-46.4L284.5,328.7z"/>
	<linearGradient id="SVGID_43_" gradientUnits="userSpaceOnUse" x1="267.8217" y1="309.9702" x2="267.8217" y2="293.1098">
		<stop  offset="0" style="stop-color:#FFCABA"/>
		<stop  offset="0.3011" style="stop-color:#FDC7B8"/>
		<stop  offset="0.4996" style="stop-color:#F5BEB1"/>
		<stop  offset="0.6685" style="stop-color:#E8AFA5"/>
		<stop  offset="0.8207" style="stop-color:#D59A93"/>
		<stop  offset="0.9605" style="stop-color:#BD7F7D"/>
		<stop  offset="1" style="stop-color:#B57676"/>
	</linearGradient>
	<path class="st67" d="M262.4,305.6l3.6-12.5l7.3,4.9l-1.1,11.1C272,311,261.8,309.7,262.4,305.6z"/>
	<linearGradient id="SVGID_44_" gradientUnits="userSpaceOnUse" x1="271.8301" y1="303.1713" x2="271.8301" y2="274.5354">
		<stop  offset="0" style="stop-color:#FFCABA"/>
		<stop  offset="0.3011" style="stop-color:#FDC7B8"/>
		<stop  offset="0.4996" style="stop-color:#F5BEB1"/>
		<stop  offset="0.6685" style="stop-color:#E8AFA5"/>
		<stop  offset="0.8207" style="stop-color:#D59A93"/>
		<stop  offset="0.9605" style="stop-color:#BD7F7D"/>
		<stop  offset="1" style="stop-color:#B57676"/>
	</linearGradient>
	<path class="st68" d="M267.7,275.6c0,0-7.4-5.1-7.4,7.3c0,8.7,5.2,16.2,12.3,19.5c4.4,2.1,9.8-0.6,10.1-4.9
		c1.1-6.3,1.1-12.2-1-17.2c0.3-5.2-3.3-3.3-9.5-3.7L267.7,275.6z"/>
	<linearGradient id="SVGID_45_" gradientUnits="userSpaceOnUse" x1="255.7572" y1="286.2959" x2="282.4536" y2="286.2959">
		<stop  offset="0" style="stop-color:#120426"/>
		<stop  offset="0.2371" style="stop-color:#180633"/>
		<stop  offset="0.5608" style="stop-color:#1C073C"/>
		<stop  offset="1" style="stop-color:#1D073F"/>
	</linearGradient>
	<path class="st69" d="M263.5,299.7c0,0-8.5-3.2-7.7-15.1c0.9-12.9,12.8-11.8,19.4-12.5c2.9-0.3,2.2-1,5.2,1.6
		c2.7,2.4,2.9,8.2-1,8.6c-1.6,0.1-0.8,4.3-1.2,5.8c-0.6,2.6-2.1,3.8-2.7,6.3c-0.6,2.3-4,6-6.2,6.3
		C265.3,301.1,263.5,299.7,263.5,299.7z"/>
	<path class="st59" d="M275.8,310.2c-8.2-1.2-13.8,3.9-15.8-7.9h0c1.2-0.7,2.8-0.4,3.6,0.8c1.4,2,4.4,3.3,7.7,2.9
		c1-0.1,2,0.3,2.5,1.2L275.8,310.2z"/>
	<linearGradient id="SVGID_46_" gradientUnits="userSpaceOnUse" x1="293.2296" y1="356.2785" x2="293.2296" y2="317.7696">
		<stop  offset="0" style="stop-color:#FFCABA"/>
		<stop  offset="0.3011" style="stop-color:#FDC7B8"/>
		<stop  offset="0.4996" style="stop-color:#F5BEB1"/>
		<stop  offset="0.6685" style="stop-color:#E8AFA5"/>
		<stop  offset="0.8207" style="stop-color:#D59A93"/>
		<stop  offset="0.9605" style="stop-color:#BD7F7D"/>
		<stop  offset="1" style="stop-color:#B57676"/>
	</linearGradient>
	<path class="st70" d="M277.2,321c0.5,6.5,0.4,13.3,3.1,19.3c2.1,4.7,5,11.1,9.3,14.3c10.4,7.7,17.4-11.8,19.5-18.5
		c1.3-4.1-5.1-5.8-6.4-1.8c-1.4,4.4-2.9,10.2-6.4,13.5c-2.2,2.2-3.2,0.5-4.5-1.8c-4.6-7.9-7.2-15.9-8-25
		C283.5,316.7,276.9,316.7,277.2,321L277.2,321z"/>
	<linearGradient id="SVGID_47_" gradientUnits="userSpaceOnUse" x1="273.7316" y1="331.8844" x2="290.1123" y2="331.8844">
		<stop  offset="0" style="stop-color:#2F1359"/>
		<stop  offset="2.241254e-03" style="stop-color:#2F1359"/>
		<stop  offset="0.2029" style="stop-color:#3B1870"/>
		<stop  offset="0.4202" style="stop-color:#431B80"/>
		<stop  offset="0.6664" style="stop-color:#471D89"/>
		<stop  offset="1" style="stop-color:#491E8C"/>
	</linearGradient>
	<path class="st71" d="M273.9,320.9c2,17,4.2,21.4,9.9,27.7c3.9,2.2,7.5-4,6.1-7.7c-2.9-7-4.3-11.1-5.8-22.9c-1-2.4-3.7-3.7-6.3-3
		l0,0C274.9,315.7,273.2,318.3,273.9,320.9z"/>
	<linearGradient id="SVGID_48_" gradientUnits="userSpaceOnUse" x1="271.0692" y1="294.9076" x2="283.2357" y2="294.9076">
		<stop  offset="0" style="stop-color:#120426"/>
		<stop  offset="0.2371" style="stop-color:#180633"/>
		<stop  offset="0.5608" style="stop-color:#1C073C"/>
		<stop  offset="1" style="stop-color:#1D073F"/>
	</linearGradient>
	<path class="st72" d="M271.3,295.5c-0.4,0.3-1.3,9,6,7.6c7.3-1.4,5.8-8.7,5.8-8.7s-5.8,1.5-7.4-5.7
		C274.1,281.5,271.3,295.5,271.3,295.5z"/>
	<linearGradient id="SVGID_49_" gradientUnits="userSpaceOnUse" x1="274.8892" y1="295.8373" x2="274.8892" y2="288.4074">
		<stop  offset="0" style="stop-color:#FFCABA"/>
		<stop  offset="0.3011" style="stop-color:#FDC7B8"/>
		<stop  offset="0.4996" style="stop-color:#F5BEB1"/>
		<stop  offset="0.6685" style="stop-color:#E8AFA5"/>
		<stop  offset="0.8207" style="stop-color:#D59A93"/>
		<stop  offset="0.9605" style="stop-color:#BD7F7D"/>
		<stop  offset="1" style="stop-color:#B57676"/>
	</linearGradient>
	<path class="st73" d="M277.5,291.9c0.2,2-0.9,3.8-2.3,3.9c-0.2,0-0.3,0-0.5,0c-1.3-0.2-2.3-1.6-2.5-3.5c-0.2-2,0.9-3.8,2.3-3.9
		C276,288.3,277.4,289.8,277.5,291.9z"/>
</g>
<linearGradient id="SVGID_50_" gradientUnits="userSpaceOnUse" x1="295.4677" y1="369.3589" x2="388.6808" y2="369.3589">
	<stop  offset="0" style="stop-color:#120426"/>
	<stop  offset="0.2376" style="stop-color:#180633"/>
	<stop  offset="0.5402" style="stop-color:#1C073C"/>
	<stop  offset="1" style="stop-color:#1D073F"/>
</linearGradient>
<path class="st74" d="M387,295.9l-0.3-0.2c-0.7-0.4-1.5-0.5-2.3-0.1c-1,0.4-1.8,1.4-2.3,2.7l-5.8,18.1l-28.8-16.5l6-18.7
	c0.7-2.1,0.1-4.4-1.4-5.2l-0.3-0.2c-0.7-0.4-1.5-0.5-2.3-0.1c-1,0.4-1.8,1.4-2.3,2.7l-6.9,21.3l-0.6,1.9v0l0,0l-8.2,25.3l0,0
	l-0.2,0.6l-8.7,26.9l0,0l-0.7,2.1c0,0,0,0,0,0l-8.2,25.3c0,0,0,0,0,0l-0.7,2.1v0L305,409l0,0l-0.7,2.1v0l-8.6,26.5
	c-0.7,2.1-0.1,4.4,1.4,5.2l0.3,0.2l0,0c0.4,0.2,0.8,0.3,1.3,0.3c0.3,0,0.7-0.1,1-0.2c1-0.4,1.8-1.4,2.3-2.7l7.6-23.4l28.8,16.5
	l-7.8,24c-0.7,2.1-0.1,4.4,1.4,5.2l0.3,0.2c0.4,0.2,0.8,0.3,1.3,0.3c0.3,0,0.7-0.1,1-0.2c1-0.4,1.8-1.4,2.3-2.7l8.6-26.5v0l0,0
	l8.9-27.4l0,0l0.7-2.1c0,0,0,0,0,0l17.3-53.3l0.5-1.5c0,0,0,0,0,0l15.7-48.6C389.1,299,388.5,296.7,387,295.9z M320.9,382l6.4-19.7
	l28.8,16.5l-6.4,19.7L320.9,382z M329.8,354.6l6.4-19.7l28.8,16.5l-6.4,19.7L329.8,354.6z M338.7,327.2l6.4-19.7l28.8,16.5
	l-6.4,19.7L338.7,327.2z M318.4,389.6l28.8,16.5l-6.4,19.7L312,409.4L318.4,389.6z"/>
<path class="st75" d="M378,174.7l-11,8.6l2,1.1c-1,0.9-1.9,2-2.7,3.2c-3.3,4.8-4.2,9.8-4.8,15.5c-0.8,7.8-1.2,15.7-0.4,23.5
	c-0.4-0.1-0.9,0.2-0.9,0.7l-0.4,4c0,0.3,0.1,0.6,0.3,0.8c0.5,0.3,1.4,0.9,3,1.5c0.1,0.2,0.1,0.4,0.2,0.6c-4.4,1.3-8.8,3.6-8.8,3.6
	l-2.6,1.8l-2.4,1.7c-0.4,0.3-0.6,0.6-0.7,1c0,0.1,0,0.3,0,0.4c-0.3,0.4-0.5,0.9-0.4,1.4c0.2,1.4,1.8,2.6,3.4,2.5
	c2.8,0,4.2,0.5,8.6-0.9c0.3-0.1,3-1.8,3.2-1.9c0.4-0.1,4.1-1.5,4.7-1.7c0.8-0.3,2.3-0.5,3-1.7l-0.4,1.3c-0.1,0.3,0,0.6,0.2,0.8
	c0.3,0.3,0.7,0.7,1.3,1.2c0.2,0.5,0.4,1,0.8,1.4c0,0,0,0,0,0.1c-0.9,0.9-1.8,2-2.6,3.2c-0.7,1-2.4,3.1-3,3.8
	c-0.5,0.5-1.3,2.2-1.6,2.9l-1,2.6c-0.1,0.2-0.1,0.5,0,0.6l-0.2,0.5c-0.3,0.6,0.1,1.5,0.7,2l0.3,0.2c2.3,1,3.8,0.8,5,0
	c2.1-1.4,3-1.5,5.5-4.7c0.2-0.2,2.4-3,3.2-4.7c0.1-0.3,0.7-1.9,0.8-2.5c0.1-0.6,0.2-1,0.1-1.5c0-0.2,0.1-0.4,0.1-0.6
	c0.2-0.1,0.4-0.2,0.5-0.4c1.7-0.4,2.9-1.5,3.3-1.9c0.1-0.1,0.2-0.3,0.2-0.5l0.9-4.1c0.2-0.8-0.7-1.4-1.4-0.8c-0.1-0.1,0,0-0.1-0.1
	c1.6-6,3.5-12,5.5-17.9c0.6-1.9,1.1-3.9,1.7-5.8c0.3-1,0.6-2,0.9-3c0.2-0.5,0.3-1,0.5-1.4c0-0.1,0.1-0.2,0.1-0.2
	c0-0.1,0.1-0.1,0.1-0.2c1.5-3.2,3.4-5.1,6.3-7.1c2.8-2,5.7-3.8,8.6-5.6c3.3-2,3.1-6.8-0.4-8.5L378,174.7z M383.4,204.6
	c-2,4.1-2.9,8.4-4.3,12.7c-2.1,6.5-4.2,13-6,19.7c-0.4-0.2-1,0-1.1,0.6l-0.4,1.5c0-0.2,0-0.4,0-0.6c0.4-0.7,0.5-1.7,0.1-3.2
	c-0.2-0.5-0.5-1-0.9-1.3c1.5-0.7,2.4-1.8,2.7-2.3c0.1-0.1,0.2-0.3,0.2-0.5l0.1-4c0-0.6-0.6-1-1.2-0.7c-0.2,0.1-0.3,0.2-0.5,0.3
	c-1-7.4-0.4-15.3,0.3-22.7c0.3-2.7,0.3-3.7,0.9-6.4c0,0,0,0,0,0c0.1-0.2,0.2-0.3,0.2-0.5c0.2-0.4,0.4-0.9,0.7-1.3
	c0.5-1,1-1.9,1.6-2.8c0-0.1,0.1-0.1,0.1-0.2c0,0,0,0,0.1-0.1c0.3-0.3,0.6-0.6,0.9-0.9c0.1-0.1,0.5-0.5,0.7-0.6
	c0.2-0.1,0.4-0.2,0.5-0.3c0.4-0.3,0.9-0.5,1.4-0.7l2.3,1.3l8.4,4.9C387.4,198.8,385,201.4,383.4,204.6z"/>
<g>
	<path class="st59" d="M378.2,258.9c0.2-0.2,2.4-3,3.2-4.7c0.1-0.3,0.7-1.9,0.8-2.5c0.2-1.2,0.6-1.9-2-4.3
		c-4.3-3.8-12.4,10.4-12.4,10.4l-1.2,3.6c-0.3,0.6,0.1,1.5,0.7,2l0.3,0.2c2.3,1,3.8,0.8,5,0C374.8,262.2,375.6,262.2,378.2,258.9z"
		/>
	<linearGradient id="SVGID_51_" gradientUnits="userSpaceOnUse" x1="366.7032" y1="254.5754" x2="382.2987" y2="254.5754">
		<stop  offset="0" style="stop-color:#2F1359"/>
		<stop  offset="2.421618e-02" style="stop-color:#31145C"/>
		<stop  offset="0.2044" style="stop-color:#3B1871"/>
		<stop  offset="0.4054" style="stop-color:#431C80"/>
		<stop  offset="0.6416" style="stop-color:#481D89"/>
		<stop  offset="1" style="stop-color:#491E8C"/>
	</linearGradient>
	<path class="st76" d="M381,247c-3.5-2.2-6.3,0.8-8.7,4.2c-0.7,1-2.4,3.1-3,3.8c-0.5,0.5-1.3,2.2-1.6,2.9l-1,2.6
		c-0.4,1,0.7,1.6,1.4,1.9c1.5,0.7,3.1,1,4.4,0.1c0.7-0.4,2-1.2,2.6-1.6c0,0,0,0,0,0c0.9-0.6,1.9-1.4,3.2-3.1
		C378.4,257.5,385,249.5,381,247z"/>
	<path class="st62" d="M375.8,243c1.6,2.4,5.9,3,8,0.8c-0.3,1.4-0.6,2.8-0.9,4.2c-1.3,5.6-9.2,4-7.9-1.7
		C375.3,245.2,375.5,244.1,375.8,243z"/>
	<linearGradient id="SVGID_52_" gradientUnits="userSpaceOnUse" x1="381.2385" y1="161.0442" x2="400.2921" y2="161.0442">
		<stop  offset="0" style="stop-color:#B57676"/>
		<stop  offset="3.945488e-02" style="stop-color:#BD7F7D"/>
		<stop  offset="0.1793" style="stop-color:#D59A93"/>
		<stop  offset="0.3315" style="stop-color:#E8AFA5"/>
		<stop  offset="0.5004" style="stop-color:#F5BEB1"/>
		<stop  offset="0.6989" style="stop-color:#FDC7B8"/>
		<stop  offset="1" style="stop-color:#FFCABA"/>
	</linearGradient>
	<path class="st77" d="M393.2,135.9c-0.4,4.7-1.1,9.4-3,13.7c-1.7,3.8-4,7.2-5.3,11.1c-1.2,3.5-1.2,6.9-1,10.5
		c0.3,5.1-0.6,9.4-2.5,14.2c-1.6,4.2,5.2,6.1,6.8,1.9c1.8-4.7,3-9.5,2.8-14.6c-0.2-4.2-0.5-7.6,1.3-11.6c1.6-3.5,3.6-6.8,5.1-10.4
		c1.8-4.7,2.4-9.7,2.8-14.7C400.7,131.3,393.6,131.4,393.2,135.9L393.2,135.9z"/>
	<linearGradient id="SVGID_53_" gradientUnits="userSpaceOnUse" x1="387.9868" y1="142.137" x2="405.0776" y2="142.137">
		<stop  offset="0.5" style="stop-color:#2F1359"/>
		<stop  offset="0.5011" style="stop-color:#2F1359"/>
		<stop  offset="0.6015" style="stop-color:#3B1870"/>
		<stop  offset="0.7101" style="stop-color:#431B80"/>
		<stop  offset="0.8332" style="stop-color:#471D89"/>
		<stop  offset="1" style="stop-color:#491E8C"/>
	</linearGradient>
	<path class="st78" d="M394.1,132.5l-6.1,17.9c-0.6,5.5,11.7,7.1,12.6,2.7l4.4-17.7c0.5-2.8-1.2-5.6-3.9-6.5l0,0
		C398.1,128.1,395.1,129.6,394.1,132.5z"/>
	<path class="st59" d="M362.2,248.5c0.3-0.1,3-1.8,3.2-1.9c0.4-0.1,4.1-1.5,4.7-1.7c1.2-0.5,4.1-0.6,3.3-4.6
		c-1.2-5.8-16.9,1.4-16.9,1.4L351,245c-0.7,0.4-1,1.1-0.9,1.8l0,0c0.2,1.4,1.8,2.6,3.4,2.5C356.4,249.3,357.8,249.8,362.2,248.5z"/>
	<linearGradient id="SVGID_54_" gradientUnits="userSpaceOnUse" x1="350.5221" y1="242.1038" x2="373.8152" y2="242.1038">
		<stop  offset="0" style="stop-color:#2F1359"/>
		<stop  offset="2.421618e-02" style="stop-color:#31145C"/>
		<stop  offset="0.2044" style="stop-color:#3B1871"/>
		<stop  offset="0.4054" style="stop-color:#431C80"/>
		<stop  offset="0.6416" style="stop-color:#481D89"/>
		<stop  offset="1" style="stop-color:#491E8C"/>
	</linearGradient>
	<path class="st79" d="M373.5,238c-1.8-5.5-17.3,2.5-17.3,2.5l-5,3.4c-0.6,0.4-0.9,1.1-0.7,1.8c0.3,1.3,1.9,2.4,3.5,2.3
		c0,0,0.1,0,0.1,0c0,0,0,0,0,0c0.2,0,0.3,0,0.5,0c0,0,0,0,0,0c0.9,0,1.6,0,2.4-0.1c0,0,0,0,0,0c0,0,0,0,0,0c1.4-0.1,2.9-0.3,5.4-1.2
		c0.3-0.1,2.8-1.9,3-2c0.4-0.1,4.6-1.6,5.2-1.8C372,242.4,374.7,241.8,373.5,238z"/>
	<path class="st62" d="M365.2,231c1.9,2.3,6.3,2.5,8.3,0.2c-0.1,1.4-0.3,2.8-0.5,4.2c-0.8,5.7-9,4.8-8.2-1
		C364.9,233.3,365.1,232.1,365.2,231z"/>
	<linearGradient id="SVGID_55_" gradientUnits="userSpaceOnUse" x1="362.4894" y1="204.8069" x2="412.3509" y2="204.8069">
		<stop  offset="0" style="stop-color:#120426"/>
		<stop  offset="0.2376" style="stop-color:#180633"/>
		<stop  offset="0.5402" style="stop-color:#1C073C"/>
		<stop  offset="1" style="stop-color:#1D073F"/>
	</linearGradient>
	<path class="st80" d="M405.7,172.7c-8.5,3.2-17.2,5.7-25.6,9c-4.9,1.9-9,4.3-12,8.7c-3.2,4.7-4.1,9.4-4.7,15
		c-1,9.3-1.3,18.7,0,27.9c1,7,11.6,4,10.6-2.9c-1.1-7.6-0.5-15.7,0.2-23.4c0.5-4.8,0.7-7.3,3.4-11.1c0.5-0.7,1.5-1.6,2.3-2.1
		c1.6-1,3.1-1.5,4.9-2.2c7.9-2.8,15.9-5.3,23.8-8.3C415.2,180.8,412.4,170.2,405.7,172.7L405.7,172.7z"/>
	<linearGradient id="SVGID_56_" gradientUnits="userSpaceOnUse" x1="373.8817" y1="217.3466" x2="421.9193" y2="217.3466">
		<stop  offset="0" style="stop-color:#120426"/>
		<stop  offset="0.2376" style="stop-color:#180633"/>
		<stop  offset="0.5402" style="stop-color:#1C073C"/>
		<stop  offset="1" style="stop-color:#1D073F"/>
	</linearGradient>
	<path class="st81" d="M413.8,185.3c-9.6,5.7-23,11.4-28.4,21.9c-2,4-3,8.3-4.2,12.5c-2.4,7.9-5.1,15.7-7.1,23.7
		c-1.7,6.8,8.9,9.8,10.6,2.9c1.9-7.5,4.2-14.9,6.6-22.3c1.2-3.5,1.8-7.4,3.3-10.7c1.4-3.1,3.7-5.3,6.6-7.3
		c5.8-4.2,12.1-7.6,18.2-11.2C425.3,191.1,419.8,181.6,413.8,185.3L413.8,185.3z"/>
	<path class="st47" d="M404.9,195l-12.6-7.3c-3-1.7-4-5.6-2.3-8.6l0,0c1.7-3,5.6-4,8.6-2.3l12.6,7.3c3,1.7,4,5.6,2.3,8.6l0,0
		C411.8,195.7,407.9,196.7,404.9,195z"/>
	<linearGradient id="SVGID_57_" gradientUnits="userSpaceOnUse" x1="390.0092" y1="176.3452" x2="390.1962" y2="176.3452">
		<stop  offset="0" style="stop-color:#2F1359"/>
		<stop  offset="2.241254e-03" style="stop-color:#2F1359"/>
		<stop  offset="0.2029" style="stop-color:#3B1870"/>
		<stop  offset="0.4202" style="stop-color:#431B80"/>
		<stop  offset="0.6664" style="stop-color:#471D89"/>
		<stop  offset="1" style="stop-color:#491E8C"/>
	</linearGradient>
	<path class="st82" d="M390.2,176.4l-0.2-0.1C390.1,176.4,390.1,176.4,390.2,176.4z"/>
	<linearGradient id="SVGID_58_" gradientUnits="userSpaceOnUse" x1="390.1962" y1="159.0977" x2="433.5262" y2="159.0977">
		<stop  offset="0" style="stop-color:#2F1359"/>
		<stop  offset="2.241254e-03" style="stop-color:#2F1359"/>
		<stop  offset="0.2029" style="stop-color:#3B1870"/>
		<stop  offset="0.4202" style="stop-color:#431B80"/>
		<stop  offset="0.6664" style="stop-color:#471D89"/>
		<stop  offset="1" style="stop-color:#491E8C"/>
	</linearGradient>
	<path class="st83" d="M429.3,139.8c-3.4-2.4-8.8-6.1-13-9.1c-6.2-4.4-14.6-6.4-19.7-0.8c-1.8,2.1-2,3.5-2.1,6.1l0,0c0,0,0,0,0,0
		c0,0.5,0,0.9-0.1,1.5c0,0.8,0.1,1.5,0.2,2.2c1,22.3-3.5,36.3-4.6,36.6l31.5,15.3c5.7-19.6,4.4-23,6-36.5l5.2,1.9
		C432.9,157,435.7,144.2,429.3,139.8z"/>
	<path class="st0" d="M419.9,136.6l-15.5-3.2l3-8.1c5.1,0.3,8.5,2.1,12.6,5.3L419.9,136.6z"/>
	<path class="st0" d="M409.3,134.9c0,0,1.2,0.5,2.3,0.3l3.4,6.9l-0.2,0.2c-0.7,0.6-1.8,0.5-2.2-0.3L409.3,134.9z"/>
	<path class="st0" d="M413.2,136.4c0,0-1.2-0.2-1.9-0.8l-6.4,3.6l0,0.3c0.1,0.8,1.1,1.2,1.8,0.8L413.2,136.4z"/>
	<path class="st17" d="M410.5,141.4c0,0.5-0.4,0.6-0.8,0.4c-0.4-0.3-0.7-0.9-0.7-1.3c0-0.5,0.4-0.6,0.8-0.4
		C410.3,140.3,410.6,140.9,410.5,141.4z"/>
	<path class="st17" d="M410.3,144.8c0,0.5-0.4,0.6-0.8,0.4c-0.4-0.3-0.7-0.9-0.7-1.3c0-0.5,0.4-0.6,0.8-0.4
		C410,143.7,410.3,144.3,410.3,144.8z"/>
	<path class="st17" d="M410.1,148.2c0,0.5-0.4,0.6-0.8,0.4c-0.4-0.3-0.7-0.9-0.7-1.3c0-0.5,0.4-0.6,0.8-0.4
		C409.8,147.1,410.1,147.7,410.1,148.2z"/>
	<linearGradient id="SVGID_59_" gradientUnits="userSpaceOnUse" x1="407.5988" y1="128.0751" x2="419.4106" y2="128.0751">
		<stop  offset="0" style="stop-color:#B57676"/>
		<stop  offset="3.945488e-02" style="stop-color:#BD7F7D"/>
		<stop  offset="0.1793" style="stop-color:#D59A93"/>
		<stop  offset="0.3315" style="stop-color:#E8AFA5"/>
		<stop  offset="0.5004" style="stop-color:#F5BEB1"/>
		<stop  offset="0.6989" style="stop-color:#FDC7B8"/>
		<stop  offset="1" style="stop-color:#FFCABA"/>
	</linearGradient>
	<path class="st84" d="M409.3,134.9l-1.7-15.3l8.8,3.5l3,11.9C419.9,136.8,410.7,137.5,409.3,134.9z"/>
	<linearGradient id="SVGID_60_" gradientUnits="userSpaceOnUse" x1="408.6392" y1="131.1325" x2="415.0003" y2="131.1325">
		<stop  offset="0.1505" style="stop-color:#C7755C"/>
		<stop  offset="1" style="stop-color:#FFC2B0"/>
	</linearGradient>
	<path class="st85" d="M408.6,131.6c0.2,0.4,5.9-2.6,6.4-3c0,0-3.2,4.5-6.1,5.2L408.6,131.6z"/>
	<path class="st17" d="M412.5,135.4c0,0-4.1-0.3-4.4-7.6l-2.7-0.6c-0.4,0.3-1.2,0-1.7,2.4c-0.3,1.4-0.3,2.9-0.1,4.3l0.7,4.2
		c0.2,0.9,1.3,1.4,2.1,0.9L412.5,135.4z"/>
	<linearGradient id="SVGID_61_" gradientUnits="userSpaceOnUse" x1="397.2735" y1="116.9692" x2="417.4739" y2="116.9692">
		<stop  offset="0" style="stop-color:#B57676"/>
		<stop  offset="3.945488e-02" style="stop-color:#BD7F7D"/>
		<stop  offset="0.1793" style="stop-color:#D59A93"/>
		<stop  offset="0.3315" style="stop-color:#E8AFA5"/>
		<stop  offset="0.5004" style="stop-color:#F5BEB1"/>
		<stop  offset="0.6989" style="stop-color:#FDC7B8"/>
		<stop  offset="1" style="stop-color:#FFCABA"/>
	</linearGradient>
	<path class="st86" d="M407.9,132c-4.3,0.3-8.2-2.5-8.8-6.8l-1.8-14.1c-0.5-4.3,2.5-8.2,6.8-8.8l2.8-0.4c4.3-0.5,8.2,2.5,8.8,6.8
		l1.8,14.1C418,127.1,412.6,131.6,407.9,132z"/>
	<linearGradient id="SVGID_62_" gradientUnits="userSpaceOnUse" x1="394.0724" y1="113.3503" x2="423.3408" y2="113.3503">
		<stop  offset="0" style="stop-color:#664720"/>
		<stop  offset="2.241254e-03" style="stop-color:#664720"/>
		<stop  offset="0.2029" style="stop-color:#7D5727"/>
		<stop  offset="0.4202" style="stop-color:#8D612C"/>
		<stop  offset="0.6664" style="stop-color:#96682F"/>
		<stop  offset="1" style="stop-color:#996A30"/>
	</linearGradient>
	<path class="st87" d="M408.9,113c-2.8,1.6-6.6,2.2-10,1.2c-3.6-1-6.4-4.9-3.9-7.8c1.4-1.5,5.1-3.5,8.2-5.1
		c8.6-4.5,18.6-1.2,19.9,9.1c0,0,2.1,14-5.8,16.8l-0.7-2c0,0,3-3.4-0.9-5.7c-1.2-0.7-2.4-2.6-2.5-4.3
		C413.1,113.6,410.4,112.2,408.9,113z"/>
	<linearGradient id="SVGID_63_" gradientUnits="userSpaceOnUse" x1="414.796" y1="120.6366" x2="419.5047" y2="120.6366">
		<stop  offset="0" style="stop-color:#B57676"/>
		<stop  offset="3.945488e-02" style="stop-color:#BD7F7D"/>
		<stop  offset="0.1793" style="stop-color:#D59A93"/>
		<stop  offset="0.3315" style="stop-color:#E8AFA5"/>
		<stop  offset="0.5004" style="stop-color:#F5BEB1"/>
		<stop  offset="0.6989" style="stop-color:#FDC7B8"/>
		<stop  offset="1" style="stop-color:#FFCABA"/>
	</linearGradient>
	<path class="st88" d="M418.6,123.1c-1,1.3-2.5,1.2-3.3-0.2c-0.8-1.4-0.6-3.5,0.5-4.7c1-1.3,2.5-1.2,3.3,0.2
		C419.8,119.7,419.6,121.8,418.6,123.1z"/>
	<linearGradient id="SVGID_64_" gradientUnits="userSpaceOnUse" x1="410.3504" y1="136.5771" x2="423.0478" y2="136.5771">
		<stop  offset="0" style="stop-color:#7E44D8"/>
		<stop  offset="0.3362" style="stop-color:#7C43D5"/>
		<stop  offset="0.5842" style="stop-color:#7740CC"/>
		<stop  offset="0.8032" style="stop-color:#6E3BBC"/>
		<stop  offset="1" style="stop-color:#6134A6"/>
	</linearGradient>
	<path class="st89" d="M410.4,135c0,0,4.6,1.9,9.7-4.4l2.8,4c0.2,0.6,0.3,0.7-0.3,1.2l-6.7,6.3c-0.8,0.7-2.1,0.6-2.5-0.3L410.4,135z
		"/>
	<g id="XMLID_3179_">
		<g id="XMLID_5122_" class="st90">
			<path id="XMLID_5164_" class="st91" d="M383.3,173.5L363.1,185c-0.4,0.2-0.4,0.9,0,1.1l31.3,18.1c0.8,0.5,1.8,0.5,2.6,0
				l20.1-11.5c0.4-0.2,0.4-0.9,0-1.1l-31.3-18.1C385,173,384.1,173,383.3,173.5z"/>
			<path id="XMLID_5163_" class="st92" d="M383.3,173.5l-20.1,11.5c-0.4,0.2-0.4,0.9,0,1.1l31.2,18c0.8,0.5,1.8,0.5,2.6,0l20.1-11.5
				c0.4-0.2,0.4-0.9,0-1.1l-31.2-18C385.1,173,384.1,173,383.3,173.5z"/>
			<path id="XMLID_5162_" class="st93" d="M383.3,173.5l-20,11.4c-0.4,0.2-0.4,0.9,0,1.1l31.1,18c0.8,0.5,1.8,0.5,2.6,0l20-11.4
				c0.4-0.2,0.4-0.9,0-1.1l-31.1-18C385.1,173,384.1,173,383.3,173.5z"/>
			<path id="XMLID_5161_" class="st94" d="M383.3,173.5l-19.9,11.4c-0.4,0.2-0.4,0.9,0,1.1l31,17.9c0.8,0.5,1.8,0.5,2.6,0l19.9-11.4
				c0.4-0.2,0.4-0.9,0-1.1l-31-17.9C385.1,173.1,384.1,173.1,383.3,173.5z"/>
			<path id="XMLID_5160_" class="st95" d="M383.3,173.5l-19.9,11.4c-0.4,0.2-0.4,0.9,0,1.1l30.9,17.9c0.8,0.5,1.8,0.5,2.6,0
				l19.9-11.4c0.4-0.2,0.4-0.9,0-1.1l-30.9-17.9C385.1,173.1,384.1,173.1,383.3,173.5z"/>
			<path id="XMLID_5159_" class="st96" d="M383.4,173.5l-19.8,11.3c-0.4,0.2-0.4,0.9,0,1.1l30.8,17.8c0.8,0.5,1.8,0.5,2.5,0
				l19.8-11.3c0.4-0.2,0.4-0.9,0-1.1l-30.8-17.8C385.1,173.1,384.1,173.1,383.4,173.5z"/>
			<path id="XMLID_5158_" class="st97" d="M383.4,173.6l-19.8,11.3c-0.4,0.2-0.4,0.9,0,1.1l30.8,17.8c0.8,0.5,1.8,0.5,2.5,0
				l19.8-11.3c0.4-0.2,0.4-0.9,0-1.1l-30.8-17.8C385.1,173.1,384.2,173.1,383.4,173.6z"/>
			<path id="XMLID_5157_" class="st98" d="M383.4,173.6l-19.7,11.3c-0.4,0.2-0.4,0.9,0,1.1l30.7,17.7c0.8,0.5,1.7,0.5,2.5,0
				l19.7-11.3c0.4-0.2,0.4-0.9,0-1.1l-30.7-17.7C385.1,173.1,384.2,173.1,383.4,173.6z"/>
			<path id="XMLID_5156_" class="st99" d="M383.4,173.6l-19.6,11.2c-0.4,0.2-0.4,0.9,0,1.1l30.6,17.6c0.8,0.5,1.7,0.5,2.5,0
				l19.6-11.2c0.4-0.2,0.4-0.9,0-1.1l-30.6-17.6C385.2,173.2,384.2,173.2,383.4,173.6z"/>
			<path id="XMLID_5155_" class="st100" d="M383.4,173.6l-19.6,11.2c-0.4,0.2-0.4,0.9,0,1.1l30.5,17.6c0.8,0.4,1.7,0.5,2.5,0
				l19.6-11.2c0.4-0.2,0.4-0.9,0-1.1L386,173.6C385.2,173.2,384.2,173.2,383.4,173.6z"/>
			<path id="XMLID_5154_" class="st101" d="M383.5,173.6L364,184.8c-0.4,0.2-0.4,0.9,0,1.1l30.4,17.5c0.8,0.4,1.7,0.4,2.5,0
				l19.5-11.2c0.4-0.2,0.4-0.9,0-1.1L386,173.6C385.2,173.2,384.2,173.2,383.5,173.6z"/>
			<path id="XMLID_5153_" class="st102" d="M383.5,173.7L364,184.8c-0.4,0.2-0.4,0.9,0,1.1l30.3,17.5c0.8,0.4,1.7,0.4,2.5,0
				l19.4-11.1c0.4-0.2,0.4-0.9,0-1.1L386,173.7C385.2,173.2,384.3,173.2,383.5,173.7z"/>
			<path id="XMLID_5152_" class="st103" d="M383.5,173.7l-19.4,11.1c-0.4,0.2-0.4,0.8,0,1.1l30.2,17.4c0.8,0.4,1.7,0.4,2.5,0
				l19.4-11.1c0.4-0.2,0.4-0.8,0-1.1L386,173.7C385.2,173.2,384.3,173.2,383.5,173.7z"/>
			<path id="XMLID_5151_" class="st104" d="M383.5,173.7l-19.3,11c-0.4,0.2-0.4,0.8,0,1.1l30.1,17.4c0.8,0.4,1.7,0.4,2.5,0l19.3-11
				c0.4-0.2,0.4-0.8,0-1.1L386,173.7C385.2,173.3,384.3,173.3,383.5,173.7z"/>
			<path id="XMLID_5150_" class="st105" d="M383.5,173.7l-19.3,11c-0.4,0.2-0.4,0.8,0,1.1l30,17.3c0.8,0.4,1.7,0.4,2.5,0l19.3-11
				c0.4-0.2,0.4-0.8,0-1.1l-30-17.3C385.3,173.3,384.3,173.3,383.5,173.7z"/>
			<path id="XMLID_5149_" class="st106" d="M383.6,173.7l-19.2,11c-0.4,0.2-0.4,0.8,0,1.1l29.9,17.3c0.8,0.4,1.7,0.4,2.5,0l19.2-11
				c0.4-0.2,0.4-0.8,0-1.1L386,173.7C385.3,173.3,384.3,173.3,383.6,173.7z"/>
			<path id="XMLID_5148_" class="st107" d="M383.6,173.8l-19.1,10.9c-0.4,0.2-0.4,0.8,0,1.1l29.8,17.2c0.8,0.4,1.7,0.4,2.5,0
				l19.1-10.9c0.4-0.2,0.4-0.8,0-1.1l-29.8-17.2C385.3,173.3,384.4,173.3,383.6,173.8z"/>
			<path id="XMLID_5147_" class="st108" d="M383.6,173.8l-19.1,10.9c-0.4,0.2-0.4,0.8,0,1.1l29.7,17.2c0.8,0.4,1.7,0.4,2.5,0
				l19.1-10.9c0.4-0.2,0.4-0.8,0-1.1l-29.7-17.2C385.3,173.3,384.4,173.3,383.6,173.8z"/>
			<path id="XMLID_5146_" class="st109" d="M383.6,173.8l-19,10.9c-0.4,0.2-0.4,0.8,0,1.1l29.6,17.1c0.8,0.4,1.7,0.4,2.4,0l19-10.9
				c0.4-0.2,0.4-0.8,0-1.1l-29.6-17.1C385.3,173.4,384.4,173.4,383.6,173.8z"/>
			<path id="XMLID_5145_" class="st110" d="M383.7,173.8l-19,10.8c-0.4,0.2-0.4,0.8,0,1.1l29.5,17c0.8,0.4,1.7,0.4,2.4,0l19-10.8
				c0.4-0.2,0.4-0.8,0-1.1l-29.5-17C385.3,173.4,384.4,173.4,383.7,173.8z"/>
			<path id="XMLID_5144_" class="st111" d="M383.7,173.8l-18.9,10.8c-0.4,0.2-0.4,0.8,0,1.1l29.4,17c0.8,0.4,1.7,0.4,2.4,0
				l18.9-10.8c0.4-0.2,0.4-0.8,0-1.1l-29.4-17C385.4,173.4,384.4,173.4,383.7,173.8z"/>
			<path id="XMLID_5143_" class="st112" d="M383.7,173.8l-18.8,10.8c-0.4,0.2-0.4,0.8,0,1.1l29.3,16.9c0.7,0.4,1.7,0.4,2.4,0
				l18.8-10.8c0.4-0.2,0.4-0.8,0-1.1l-29.3-16.9C385.4,173.4,384.4,173.4,383.7,173.8z"/>
			<path id="XMLID_5142_" class="st113" d="M383.7,173.9l-18.8,10.7c-0.4,0.2-0.4,0.8,0,1.1l29.2,16.9c0.7,0.4,1.7,0.4,2.4,0
				l18.8-10.7c0.4-0.2,0.4-0.8,0-1.1l-29.2-16.9C385.4,173.4,384.5,173.4,383.7,173.9z"/>
			<path id="XMLID_5141_" class="st114" d="M383.7,173.9L365,184.6c-0.4,0.2-0.4,0.8,0,1.1l29.1,16.8c0.7,0.4,1.7,0.4,2.4,0
				l18.7-10.7c0.4-0.2,0.4-0.8,0-1.1l-29.1-16.8C385.4,173.5,384.5,173.5,383.7,173.9z"/>
			<path id="XMLID_5140_" class="st115" d="M383.8,173.9l-18.6,10.7c-0.4,0.2-0.4,0.8,0,1l29,16.8c0.7,0.4,1.7,0.4,2.4,0l18.7-10.7
				c0.4-0.2,0.4-0.8,0-1l-29-16.8C385.4,173.5,384.5,173.5,383.8,173.9z"/>
			<path id="XMLID_5139_" class="st116" d="M383.8,173.9l-18.6,10.6c-0.4,0.2-0.4,0.8,0,1l28.9,16.7c0.7,0.4,1.6,0.4,2.4,0
				l18.6-10.6c0.4-0.2,0.4-0.8,0-1l-28.9-16.7C385.4,173.5,384.5,173.5,383.8,173.9z"/>
			<path id="XMLID_5138_" class="st117" d="M383.8,173.9l-18.5,10.6c-0.4,0.2-0.4,0.8,0,1l28.8,16.7c0.7,0.4,1.6,0.4,2.4,0
				l18.5-10.6c0.4-0.2,0.4-0.8,0-1l-28.8-16.7C385.4,173.5,384.5,173.5,383.8,173.9z"/>
			<path id="XMLID_5137_" class="st118" d="M383.8,174l-18.5,10.6c-0.4,0.2-0.4,0.8,0,1l28.8,16.6c0.7,0.4,1.6,0.4,2.4,0l18.5-10.6
				c0.4-0.2,0.4-0.8,0-1L386.2,174C385.5,173.5,384.6,173.5,383.8,174z"/>
			<path id="XMLID_5136_" class="st119" d="M383.8,174l-18.4,10.5c-0.4,0.2-0.4,0.8,0,1l28.7,16.5c0.7,0.4,1.6,0.4,2.4,0l18.4-10.5
				c0.4-0.2,0.4-0.8,0-1L386.2,174C385.5,173.6,384.6,173.6,383.8,174z"/>
			<path id="XMLID_5135_" class="st120" d="M383.9,174l-18.3,10.5c-0.4,0.2-0.4,0.8,0,1l28.6,16.5c0.7,0.4,1.6,0.4,2.4,0l18.3-10.5
				c0.4-0.2,0.4-0.8,0-1L386.2,174C385.5,173.6,384.6,173.6,383.9,174z"/>
			<path id="XMLID_5134_" class="st121" d="M383.9,174l-18.3,10.5c-0.4,0.2-0.4,0.8,0,1l28.5,16.4c0.7,0.4,1.6,0.4,2.4,0l18.3-10.5
				c0.4-0.2,0.4-0.8,0-1L386.2,174C385.5,173.6,384.6,173.6,383.9,174z"/>
			<path id="XMLID_5133_" class="st122" d="M383.9,174l-18.2,10.4c-0.4,0.2-0.4,0.8,0,1l28.4,16.4c0.7,0.4,1.6,0.4,2.3,0l18.2-10.4
				c0.4-0.2,0.4-0.8,0-1L386.2,174C385.5,173.6,384.6,173.6,383.9,174z"/>
			<path id="XMLID_5132_" class="st123" d="M383.9,174l-18.2,10.4c-0.4,0.2-0.4,0.8,0,1l28.3,16.3c0.7,0.4,1.6,0.4,2.3,0l18.2-10.4
				c0.4-0.2,0.4-0.8,0-1l-28.3-16.3C385.5,173.6,384.6,173.6,383.9,174z"/>
			<path id="XMLID_5131_" class="st124" d="M383.9,174.1l-18.1,10.3c-0.4,0.2-0.4,0.8,0,1l28.2,16.3c0.7,0.4,1.6,0.4,2.3,0
				l18.1-10.3c0.4-0.2,0.4-0.8,0-1l-28.2-16.3C385.6,173.7,384.7,173.7,383.9,174.1z"/>
			<path id="XMLID_5130_" class="st125" d="M384,174.1l-18,10.3c-0.4,0.2-0.4,0.8,0,1l28.1,16.2c0.7,0.4,1.6,0.4,2.3,0l18-10.3
				c0.4-0.2,0.4-0.8,0-1l-28.1-16.2C385.6,173.7,384.7,173.7,384,174.1z"/>
			<path id="XMLID_5129_" class="st126" d="M384,174.1l-18,10.3c-0.4,0.2-0.4,0.8,0,1l28,16.2c0.7,0.4,1.6,0.4,2.3,0l18-10.3
				c0.4-0.2,0.4-0.8,0-1l-28-16.2C385.6,173.7,384.7,173.7,384,174.1z"/>
			<path id="XMLID_5128_" class="st127" d="M384,174.1l-17.9,10.2c-0.4,0.2-0.4,0.8,0,1l27.9,16.1c0.7,0.4,1.6,0.4,2.3,0l17.9-10.2
				c0.4-0.2,0.4-0.8,0-1l-27.9-16.1C385.6,173.7,384.7,173.7,384,174.1z"/>
			<path id="XMLID_5127_" class="st128" d="M384,174.1l-17.9,10.2c-0.4,0.2-0.4,0.8,0,1l27.8,16c0.7,0.4,1.6,0.4,2.3,0l17.9-10.2
				c0.4-0.2,0.4-0.8,0-1l-27.8-16C385.6,173.7,384.7,173.7,384,174.1z"/>
			<path id="XMLID_5126_" class="st129" d="M384.1,174.2l-17.8,10.2c-0.4,0.2-0.4,0.8,0,1l27.7,16c0.7,0.4,1.6,0.4,2.3,0l17.8-10.2
				c0.4-0.2,0.4-0.8,0-1l-27.7-16C385.6,173.8,384.8,173.8,384.1,174.2z"/>
			<path id="XMLID_5125_" class="st130" d="M384.1,174.2l-17.7,10.1c-0.4,0.2-0.4,0.8,0,1l27.6,15.9c0.7,0.4,1.6,0.4,2.3,0
				l17.7-10.1c0.4-0.2,0.4-0.8,0-1l-27.6-15.9C385.6,173.8,384.8,173.8,384.1,174.2z"/>
			<path id="XMLID_5124_" class="st131" d="M384.1,174.2l-17.7,10.1c-0.4,0.2-0.4,0.8,0,1l27.5,15.9c0.7,0.4,1.6,0.4,2.3,0
				l17.7-10.1c0.4-0.2,0.4-0.8,0-1l-27.5-15.9C385.7,173.8,384.8,173.8,384.1,174.2z"/>
			<path id="XMLID_5123_" class="st0" d="M384.1,174.2l-17.6,10.1c-0.4,0.2-0.4,0.8,0,1l27.4,15.8c0.7,0.4,1.6,0.4,2.3,0l17.6-10.1
				c0.4-0.2,0.4-0.8,0-1l-27.4-15.8C385.7,173.8,384.8,173.8,384.1,174.2z"/>
		</g>
		
			<linearGradient id="XMLID_2_" gradientUnits="userSpaceOnUse" x1="2587.9475" y1="187.6661" x2="2640.147" y2="187.6661" gradientTransform="matrix(1 0 0 1 -2223.9712 0)">
			<stop  offset="0" style="stop-color:#78727F"/>
			<stop  offset="1" style="stop-color:#3C3940"/>
		</linearGradient>
		<path id="XMLID_5121_" class="st132" d="M383.4,173L364,183.3c0,0-0.1,1.5,0.3,1.8l29.8,17.2c0.8,0.4,1.7,0.4,2.5,0l19.1-10.9
			c0.8-0.5,0.3-1.8,0.3-1.8l-30.1-16.5C385.1,172.6,384.2,172.6,383.4,173z"/>
		
			<linearGradient id="XMLID_3_" gradientUnits="userSpaceOnUse" x1="-1812.2096" y1="186.4881" x2="-1760.1635" y2="186.4881" gradientTransform="matrix(-1 0 0 1 -1396.1774 0)">
			<stop  offset="0" style="stop-color:#78727F"/>
			<stop  offset="1" style="stop-color:#3C3940"/>
		</linearGradient>
		<path id="XMLID_5120_" class="st133" d="M383.4,171.9l-19.1,10.9c-0.4,0.2-0.4,0.8,0,1.1l29.8,17.2c0.8,0.4,1.7,0.4,2.5,0
			l19.1-10.9c0.4-0.2,0.4-0.8,0-1.1l-29.8-17.2C385.1,171.4,384.2,171.4,383.4,171.9z"/>
		<path id="XMLID_5119_" class="st29" d="M397.1,186l4.8-2.8c0.1-0.1,0.1-0.2,0-0.3l-7.5-4.4c-0.2-0.1-0.4-0.1-0.6,0l-4.8,2.8
			c-0.1,0.1-0.1,0.2,0,0.3l7.5,4.4C396.7,186.1,396.9,186.1,397.1,186z"/>
		<g>
			<path id="XMLID_5118_" class="st0" d="M393.4,198l-1.6-0.9c-0.1,0-0.1-0.1,0-0.2l0.8-0.5c0.1,0,0.1,0,0.2,0l1.6,0.9
				c0.1,0,0.1,0.1,0,0.2l-0.8,0.5C393.6,198,393.5,198,393.4,198z"/>
			<path id="XMLID_5117_" class="st0" d="M391.1,196.6l-1.6-0.9c-0.1,0-0.1-0.1,0-0.2l0.8-0.5c0.1,0,0.1,0,0.2,0l1.6,0.9
				c0.1,0,0.1,0.1,0,0.2l-0.8,0.5C391.3,196.6,391.2,196.6,391.1,196.6z"/>
			<path id="XMLID_5116_" class="st0" d="M388.8,195.3l-1.6-0.9c-0.1,0-0.1-0.1,0-0.2l0.8-0.5c0.1,0,0.1,0,0.2,0l1.6,0.9
				c0.1,0,0.1,0.1,0,0.2l-0.8,0.5C388.9,195.3,388.8,195.3,388.8,195.3z"/>
			<path id="XMLID_5115_" class="st0" d="M386.4,193.9l-1.6-0.9c-0.1,0-0.1-0.1,0-0.2l0.8-0.5c0.1,0,0.1,0,0.2,0l1.6,0.9
				c0.1,0,0.1,0.1,0,0.2l-0.8,0.5C386.5,194,386.4,194,386.4,193.9z"/>
			<path id="XMLID_5114_" class="st0" d="M384.1,192.6l-1.6-0.9c-0.1,0-0.1-0.1,0-0.2l0.8-0.5c0.1,0,0.1,0,0.2,0l1.6,0.9
				c0.1,0,0.1,0.1,0,0.2l-0.8,0.5C384.2,192.7,384.1,192.7,384.1,192.6z"/>
			<path id="XMLID_5113_" class="st0" d="M381.8,191.2l-1.6-0.9c-0.1,0-0.1-0.1,0-0.2l0.8-0.5c0.1,0,0.1,0,0.2,0l1.6,0.9
				c0.1,0,0.1,0.1,0,0.2l-0.8,0.5C382,191.3,381.9,191.3,381.8,191.2z"/>
			<path id="XMLID_5112_" class="st0" d="M379.5,190l-1.6-0.9c-0.1,0-0.1-0.1,0-0.2l0.8-0.5c0.1,0,0.1,0,0.2,0l1.6,0.9
				c0.1,0,0.1,0.1,0,0.2l-0.8,0.5C379.6,190,379.6,190,379.5,190z"/>
			<path id="XMLID_5111_" class="st0" d="M377.2,188.6l-1.6-0.9c-0.1,0-0.1-0.1,0-0.2l0.8-0.5c0.1,0,0.1,0,0.2,0l1.6,0.9
				c0.1,0,0.1,0.1,0,0.2l-0.8,0.5C377.3,188.6,377.2,188.6,377.2,188.6z"/>
			<path id="XMLID_5110_" class="st0" d="M374.9,187.2l-1.6-0.9c-0.1,0-0.1-0.1,0-0.2l0.8-0.5c0.1,0,0.1,0,0.2,0l1.6,0.9
				c0.1,0,0.1,0.1,0,0.2l-0.8,0.5C375,187.3,375,187.3,374.9,187.2z"/>
			<path id="XMLID_5109_" class="st0" d="M372.5,185.9l-1.6-0.9c-0.1,0-0.1-0.1,0-0.2l0.8-0.5c0.1,0,0.1,0,0.2,0l1.6,0.9
				c0.1,0,0.1,0.1,0,0.2l-0.8,0.5C372.7,185.9,372.6,185.9,372.5,185.9z"/>
			<path id="XMLID_5108_" class="st0" d="M370.2,184.6l-1.6-0.9c-0.1,0-0.1-0.1,0-0.2l0.8-0.5c0.1,0,0.1,0,0.2,0l1.6,0.9
				c0.1,0,0.1,0.1,0,0.2l-0.8,0.5C370.3,184.6,370.2,184.6,370.2,184.6z"/>
			<g id="XMLID_3214_">
				<path id="XMLID_5107_" class="st0" d="M396.7,196.2l-1.1,0.6c-0.1,0.1-0.3,0.1-0.5,0l-1-0.6c-0.1-0.1-0.1-0.3,0-0.4l1-0.6
					c0.1-0.1,0.3-0.1,0.5,0l1.1,0.6C396.8,195.9,396.8,196.1,396.7,196.2z"/>
				<path id="XMLID_5106_" class="st0" d="M394.3,194.9l-1.1,0.6c-0.1,0.1-0.3,0.1-0.5,0l-1-0.6c-0.1-0.1-0.1-0.3,0-0.4l1-0.6
					c0.1-0.1,0.3-0.1,0.5,0l1.1,0.6C394.4,194.6,394.4,194.8,394.3,194.9z"/>
				<path id="XMLID_5105_" class="st0" d="M391.9,193.5l-1.1,0.6c-0.1,0.1-0.3,0.1-0.5,0l-1-0.6c-0.1-0.1-0.1-0.3,0-0.4l1-0.6
					c0.1-0.1,0.3-0.1,0.5,0l1.1,0.6C392.1,193.2,392.1,193.5,391.9,193.5z"/>
				<path id="XMLID_5104_" class="st0" d="M389.4,192.2l-1.1,0.6c-0.1,0.1-0.3,0.1-0.5,0l-1-0.6c-0.1-0.1-0.1-0.3,0-0.4l1-0.6
					c0.1-0.1,0.3-0.1,0.5,0l1.1,0.6C389.6,191.9,389.6,192.1,389.4,192.2z"/>
				<path id="XMLID_5103_" class="st0" d="M387.3,190.9l-1.1,0.6c-0.1,0.1-0.3,0.1-0.5,0l-1-0.6c-0.1-0.1-0.1-0.3,0-0.4l1-0.6
					c0.1-0.1,0.3-0.1,0.5,0l1.1,0.6C387.4,190.6,387.4,190.8,387.3,190.9z"/>
				<path id="XMLID_5102_" class="st0" d="M385,189.5l-1.1,0.6c-0.1,0.1-0.3,0.1-0.5,0l-1-0.6c-0.1-0.1-0.1-0.3,0-0.4l1-0.6
					c0.1-0.1,0.3-0.1,0.5,0l1.1,0.6C385.2,189.2,385.2,189.4,385,189.5z"/>
				<path id="XMLID_5101_" class="st0" d="M382.7,188.2l-1.1,0.6c-0.1,0.1-0.3,0.1-0.5,0l-1-0.6c-0.1-0.1-0.1-0.3,0-0.4l1-0.6
					c0.1-0.1,0.3-0.1,0.5,0l1.1,0.6C382.8,187.9,382.8,188.1,382.7,188.2z"/>
				<path id="XMLID_5100_" class="st0" d="M380.3,186.9l-1.1,0.6c-0.1,0.1-0.3,0.1-0.5,0l-1-0.6c-0.1-0.1-0.1-0.3,0-0.4l1-0.6
					c0.1-0.1,0.3-0.1,0.5,0l1.1,0.6C380.5,186.6,380.5,186.8,380.3,186.9z"/>
				<path id="XMLID_3217_" class="st0" d="M378.1,185.5l-1.1,0.6c-0.1,0.1-0.3,0.1-0.5,0l-1-0.6c-0.1-0.1-0.1-0.3,0-0.4l1-0.6
					c0.1-0.1,0.3-0.1,0.5,0l1.1,0.6C378.2,185.2,378.2,185.4,378.1,185.5z"/>
				<path id="XMLID_3216_" class="st0" d="M375.6,184l-1.1,0.6c-0.1,0.1-0.3,0.1-0.5,0l-1-0.6c-0.1-0.1-0.1-0.3,0-0.4l1-0.6
					c0.1-0.1,0.3-0.1,0.5,0l1.1,0.6C375.7,183.7,375.7,184,375.6,184z"/>
				<path id="XMLID_3215_" class="st0" d="M373.3,182.8l-1.1,0.6c-0.1,0.1-0.3,0.1-0.5,0l-1-0.6c-0.1-0.1-0.1-0.3,0-0.4l1-0.6
					c0.1-0.1,0.3-0.1,0.5,0l1.1,0.6C373.5,182.5,373.5,182.7,373.3,182.8z"/>
			</g>
			<g id="XMLID_3202_">
				<path id="XMLID_3213_" class="st0" d="M399,194.9l-1.1,0.6c-0.1,0.1-0.3,0.1-0.5,0l-1-0.6c-0.1-0.1-0.1-0.3,0-0.4l1-0.6
					c0.1-0.1,0.3-0.1,0.5,0l1.1,0.6C399.2,194.6,399.2,194.8,399,194.9z"/>
				<path id="XMLID_3212_" class="st0" d="M396.6,193.6l-1.1,0.6c-0.1,0.1-0.3,0.1-0.5,0l-1-0.6c-0.1-0.1-0.1-0.3,0-0.4l1-0.6
					c0.1-0.1,0.3-0.1,0.5,0l1.1,0.6C396.8,193.3,396.8,193.5,396.6,193.6z"/>
				<path id="XMLID_3211_" class="st0" d="M394.3,192.2l-1.1,0.6c-0.1,0.1-0.3,0.1-0.5,0l-1-0.6c-0.1-0.1-0.1-0.3,0-0.4l1-0.6
					c0.1-0.1,0.3-0.1,0.5,0l1.1,0.6C394.5,191.9,394.5,192.2,394.3,192.2z"/>
				<path id="XMLID_3210_" class="st0" d="M391.8,190.9l-1.1,0.6c-0.1,0.1-0.3,0.1-0.5,0l-1-0.6c-0.1-0.1-0.1-0.3,0-0.4l1-0.6
					c0.1-0.1,0.3-0.1,0.5,0l1.1,0.6C392,190.6,392,190.8,391.8,190.9z"/>
				<path id="XMLID_3209_" class="st0" d="M389.6,189.6l-1.1,0.6c-0.1,0.1-0.3,0.1-0.5,0l-1-0.6c-0.1-0.1-0.1-0.3,0-0.4l1-0.6
					c0.1-0.1,0.3-0.1,0.5,0l1.1,0.6C389.8,189.3,389.8,189.5,389.6,189.6z"/>
				<path id="XMLID_3208_" class="st0" d="M387.4,188.2l-1.1,0.6c-0.1,0.1-0.3,0.1-0.5,0l-1-0.6c-0.1-0.1-0.1-0.3,0-0.4l1-0.6
					c0.1-0.1,0.3-0.1,0.5,0l1.1,0.6C387.6,187.9,387.6,188.1,387.4,188.2z"/>
				<path id="XMLID_3207_" class="st0" d="M385,186.9l-1.1,0.6c-0.1,0.1-0.3,0.1-0.5,0l-1-0.6c-0.1-0.1-0.1-0.3,0-0.4l1-0.6
					c0.1-0.1,0.3-0.1,0.5,0l1.1,0.6C385.2,186.6,385.2,186.8,385,186.9z"/>
				<path id="XMLID_3206_" class="st0" d="M382.7,185.6l-1.1,0.6c-0.1,0.1-0.3,0.1-0.5,0l-1-0.6c-0.1-0.1-0.1-0.3,0-0.4l1-0.6
					c0.1-0.1,0.3-0.1,0.5,0l1.1,0.6C382.9,185.3,382.9,185.5,382.7,185.6z"/>
				<path id="XMLID_3205_" class="st0" d="M380.4,184.2l-1.1,0.6c-0.1,0.1-0.3,0.1-0.5,0l-1-0.6c-0.1-0.1-0.1-0.3,0-0.4l1-0.6
					c0.1-0.1,0.3-0.1,0.5,0l1.1,0.6C380.6,183.9,380.6,184.1,380.4,184.2z"/>
				<path id="XMLID_3204_" class="st0" d="M378,182.7l-1.1,0.6c-0.1,0.1-0.3,0.1-0.5,0l-1-0.6c-0.1-0.1-0.1-0.3,0-0.4l1-0.6
					c0.1-0.1,0.3-0.1,0.5,0l1.1,0.6C378.1,182.4,378.1,182.7,378,182.7z"/>
				<path id="XMLID_3203_" class="st0" d="M375.7,181.5l-1.1,0.6c-0.1,0.1-0.3,0.1-0.5,0l-1-0.6c-0.1-0.1-0.1-0.3,0-0.4l1-0.6
					c0.1-0.1,0.3-0.1,0.5,0l1.1,0.6C375.9,181.2,375.9,181.4,375.7,181.5z"/>
			</g>
			<g id="XMLID_3190_">
				<path id="XMLID_3201_" class="st0" d="M401.4,193.6l-1.1,0.6c-0.1,0.1-0.3,0.1-0.5,0l-1-0.6c-0.1-0.1-0.1-0.3,0-0.4l1-0.6
					c0.1-0.1,0.3-0.1,0.5,0l1.1,0.6C401.6,193.3,401.6,193.5,401.4,193.6z"/>
				<path id="XMLID_3200_" class="st0" d="M399,192.3l-1.1,0.6c-0.1,0.1-0.3,0.1-0.5,0l-1-0.6c-0.1-0.1-0.1-0.3,0-0.4l1-0.6
					c0.1-0.1,0.3-0.1,0.5,0l1.1,0.6C399.2,192,399.2,192.2,399,192.3z"/>
				<path id="XMLID_3199_" class="st0" d="M396.7,190.9l-1.1,0.6c-0.1,0.1-0.3,0.1-0.5,0l-1-0.6c-0.1-0.1-0.1-0.3,0-0.4l1-0.6
					c0.1-0.1,0.3-0.1,0.5,0l1.1,0.6C396.8,190.6,396.8,190.9,396.7,190.9z"/>
				<path id="XMLID_3198_" class="st0" d="M394.2,189.6l-1.1,0.6c-0.1,0.1-0.3,0.1-0.5,0l-1-0.6c-0.1-0.1-0.1-0.3,0-0.4l1-0.6
					c0.1-0.1,0.3-0.1,0.5,0l1.1,0.6C394.4,189.3,394.4,189.5,394.2,189.6z"/>
				<path id="XMLID_3197_" class="st0" d="M392,188.3l-1.1,0.6c-0.1,0.1-0.3,0.1-0.5,0l-1-0.6c-0.1-0.1-0.1-0.3,0-0.4l1-0.6
					c0.1-0.1,0.3-0.1,0.5,0l1.1,0.6C392.2,188,392.2,188.2,392,188.3z"/>
				<path id="XMLID_3196_" class="st0" d="M389.8,186.9l-1.1,0.6c-0.1,0.1-0.3,0.1-0.5,0l-1-0.6c-0.1-0.1-0.1-0.3,0-0.4l1-0.6
					c0.1-0.1,0.3-0.1,0.5,0l1.1,0.6C390,186.6,390,186.8,389.8,186.9z"/>
				<path id="XMLID_3195_" class="st0" d="M387.4,185.6l-1.1,0.6c-0.1,0.1-0.3,0.1-0.5,0l-1-0.6c-0.1-0.1-0.1-0.3,0-0.4l1-0.6
					c0.1-0.1,0.3-0.1,0.5,0l1.1,0.6C387.6,185.3,387.6,185.5,387.4,185.6z"/>
				<path id="XMLID_3194_" class="st0" d="M385.1,184.3l-1.1,0.6c-0.1,0.1-0.3,0.1-0.5,0l-1-0.6c-0.1-0.1-0.1-0.3,0-0.4l1-0.6
					c0.1-0.1,0.3-0.1,0.5,0l1.1,0.6C385.3,184,385.3,184.2,385.1,184.3z"/>
				<path id="XMLID_3193_" class="st0" d="M382.8,182.9l-1.1,0.6c-0.1,0.1-0.3,0.1-0.5,0l-1-0.6c-0.1-0.1-0.1-0.3,0-0.4l1-0.6
					c0.1-0.1,0.3-0.1,0.5,0l1.1,0.6C383,182.6,383,182.8,382.8,182.9z"/>
				<path id="XMLID_3192_" class="st0" d="M380.3,181.4l-1.1,0.6c-0.1,0.1-0.3,0.1-0.5,0l-1-0.6c-0.1-0.1-0.1-0.3,0-0.4l1-0.6
					c0.1-0.1,0.3-0.1,0.5,0l1.1,0.6C380.5,181.1,380.5,181.4,380.3,181.4z"/>
				<path id="XMLID_3191_" class="st0" d="M378.1,180.2l-1.1,0.6c-0.1,0.1-0.3,0.1-0.5,0l-1-0.6c-0.1-0.1-0.1-0.3,0-0.4l1-0.6
					c0.1-0.1,0.3-0.1,0.5,0l1.1,0.6C378.2,179.9,378.2,180.1,378.1,180.2z"/>
			</g>
			<g id="XMLID_3180_">
				<path id="XMLID_3189_" class="st0" d="M403.8,192.3l-1.1,0.6c-0.1,0.1-0.3,0.1-0.5,0l-1-0.6c-0.1-0.1-0.1-0.3,0-0.4l1-0.6
					c0.1-0.1,0.3-0.1,0.5,0l1.1,0.6C404,192,404,192.2,403.8,192.3z"/>
				<path id="XMLID_3188_" class="st0" d="M401.4,191l-1.1,0.6c-0.1,0.1-0.3,0.1-0.5,0l-1-0.6c-0.1-0.1-0.1-0.3,0-0.4l1-0.6
					c0.1-0.1,0.3-0.1,0.5,0l1.1,0.6C401.6,190.7,401.6,190.9,401.4,191z"/>
				<path id="XMLID_3187_" class="st0" d="M399.1,189.6l-1.1,0.6c-0.1,0.1-0.3,0.1-0.5,0l-1-0.6c-0.1-0.1-0.1-0.3,0-0.4l1-0.6
					c0.1-0.1,0.3-0.1,0.5,0l1.1,0.6C399.2,189.3,399.2,189.6,399.1,189.6z"/>
				<path id="XMLID_3186_" class="st0" d="M396.6,188.3l-1.1,0.6c-0.1,0.1-0.3,0.1-0.5,0l-1-0.6c-0.1-0.1-0.1-0.3,0-0.4l1-0.6
					c0.1-0.1,0.3-0.1,0.5,0l1.1,0.6C396.8,188,396.8,188.2,396.6,188.3z"/>
				<path id="XMLID_3185_" class="st0" d="M394.2,186.9l-1.1,0.6c-0.1,0.1-0.3,0.1-0.5,0l-5.5-3.2c-0.1-0.1-0.1-0.3,0-0.4l1-0.6
					c0.1-0.1,0.3-0.1,0.5,0l5.5,3.2C394.4,186.6,394.4,186.8,394.2,186.9z"/>
				<path id="XMLID_3184_" class="st0" d="M387.5,183l-1.1,0.6c-0.1,0.1-0.3,0.1-0.5,0l-1-0.6c-0.1-0.1-0.1-0.3,0-0.4l1-0.6
					c0.1-0.1,0.3-0.1,0.5,0l1.1,0.6C387.7,182.7,387.7,182.9,387.5,183z"/>
				<path id="XMLID_3183_" class="st0" d="M385.2,181.6l-1.1,0.6c-0.1,0.1-0.3,0.1-0.5,0l-1-0.6c-0.1-0.1-0.1-0.3,0-0.4l1-0.6
					c0.1-0.1,0.3-0.1,0.5,0l1.1,0.6C385.4,181.3,385.4,181.5,385.2,181.6z"/>
				<path id="XMLID_3182_" class="st0" d="M382.7,180.1l-1.1,0.6c-0.1,0.1-0.3,0.1-0.5,0l-1-0.6c-0.1-0.1-0.1-0.3,0-0.4l1-0.6
					c0.1-0.1,0.3-0.1,0.5,0l1.1,0.6C382.9,179.8,382.9,180.1,382.7,180.1z"/>
				<path id="XMLID_3181_" class="st0" d="M380.5,178.9l-1.1,0.6c-0.1,0.1-0.3,0.1-0.5,0l-1-0.6c-0.1-0.1-0.1-0.3,0-0.4l1-0.6
					c0.1-0.1,0.3-0.1,0.5,0l1.1,0.6C380.6,178.6,380.6,178.8,380.5,178.9z"/>
			</g>
		</g>
	</g>
	<linearGradient id="SVGID_65_" gradientUnits="userSpaceOnUse" x1="401.7741" y1="167.5473" x2="435.7014" y2="167.5473">
		<stop  offset="0" style="stop-color:#B57676"/>
		<stop  offset="3.945488e-02" style="stop-color:#BD7F7D"/>
		<stop  offset="0.1793" style="stop-color:#D59A93"/>
		<stop  offset="0.3315" style="stop-color:#E8AFA5"/>
		<stop  offset="0.5004" style="stop-color:#F5BEB1"/>
		<stop  offset="0.6989" style="stop-color:#FDC7B8"/>
		<stop  offset="1" style="stop-color:#FFCABA"/>
	</linearGradient>
	<path class="st134" d="M425.3,146.9c0.5,5.2,1.3,10.3,1.9,15.5c0.5,4.9,1.9,12,0.2,16.7c-1.4,3.7-5.7,3.3-9.1,3.4
		c-4.8,0.2-9.4,0.5-14,1.9c-4.4,1.3-2.5,8.2,1.9,6.9c8.1-2.5,22.1,1.2,27-7.7c2.8-5.1,2.7-11.3,2.3-16.9c-0.5-6.4-2.5-13.5-3.1-19.9
		C431.9,142.4,424.8,142.4,425.3,146.9L425.3,146.9z"/>
	<linearGradient id="SVGID_66_" gradientUnits="userSpaceOnUse" x1="422.7162" y1="153.8733" x2="436.5459" y2="153.8733">
		<stop  offset="0" style="stop-color:#2F1359"/>
		<stop  offset="2.241254e-03" style="stop-color:#2F1359"/>
		<stop  offset="0.2029" style="stop-color:#3B1870"/>
		<stop  offset="0.4202" style="stop-color:#431B80"/>
		<stop  offset="0.6664" style="stop-color:#471D89"/>
		<stop  offset="1" style="stop-color:#491E8C"/>
	</linearGradient>
	<path class="st135" d="M422.7,145.9l1,19c1.5,5.3,13.6,2.3,12.8-2.2l-2.5-18.2c-0.6-2.9-3.2-4.8-6.1-4.6l0,0
		C424.8,140.3,422.6,142.9,422.7,145.9z"/>
	<g id="XMLID_3175_">
		
			<linearGradient id="XMLID_4_" gradientUnits="userSpaceOnUse" x1="2588.0022" y1="181.3026" x2="2619.9812" y2="181.3026" gradientTransform="matrix(1 0 0 1 -2223.9712 0)">
			<stop  offset="0" style="stop-color:#120426"/>
			<stop  offset="1" style="stop-color:#3C3940"/>
		</linearGradient>
		<path id="XMLID_3178_" class="st136" d="M395.3,177.8L365,160.2c-0.4-0.2-0.9,0.1-0.9,0.5v22.9c0,0.5,0.3,0.9,0.7,1.2l30.4,17.5
			c0.4,0.2,0.9-0.1,0.9-0.5v-22.9C396,178.5,395.8,178,395.3,177.8z"/>
		
			<linearGradient id="XMLID_5_" gradientUnits="userSpaceOnUse" x1="-1791.7949" y1="181.5645" x2="-1759.8159" y2="181.5645" gradientTransform="matrix(-1 0 0 1 -1396.1774 0)">
			<stop  offset="0" style="stop-color:#78727F"/>
			<stop  offset="1" style="stop-color:#3C3940"/>
		</linearGradient>
		<path id="XMLID_3177_" class="st137" d="M394.9,178l-30.4-17.5c-0.4-0.2-0.9,0.1-0.9,0.5v22.9c0,0.5,0.3,0.9,0.7,1.2l30.4,17.5
			c0.4,0.2,0.9-0.1,0.9-0.5v-22.9C395.6,178.7,395.4,178.3,394.9,178z"/>
		<path id="XMLID_3176_" class="st29" d="M379.6,179.4c-1-0.6-1.9-0.1-1.9,1.1c0,1.2,0.8,2.7,1.9,3.3c1,0.6,1.9,0.1,1.9-1.1
			C381.5,181.5,380.7,180,379.6,179.4z"/>
	</g>
</g>
<g>
	<linearGradient id="SVGID_67_" gradientUnits="userSpaceOnUse" x1="420.3008" y1="360.1237" x2="436.4879" y2="360.1237">
		<stop  offset="0" style="stop-color:#04260C"/>
		<stop  offset="1" style="stop-color:#1CA63A"/>
	</linearGradient>
	<path class="st138" d="M432.1,321.5c0,0-16.8,35.4-10.3,77.2C421.8,398.7,446.2,327.7,432.1,321.5z"/>
	
		<radialGradient id="XMLID_6_" cx="429.6096" cy="6527.8931" r="28.104" gradientTransform="matrix(1 0 0 0.5791 0 -3344.4714)" gradientUnits="userSpaceOnUse">
		<stop  offset="0.2662" style="stop-color:#120426"/>
		<stop  offset="1" style="stop-color:#F0E5FF;stop-opacity:0"/>
	</radialGradient>
	<path id="XMLID_3947_" class="st139" d="M450.4,447.8c11.5-6.6,11.5-17.3,0-23.9c-11.5-6.6-30.1-6.6-41.5,0
		c-11.4,6.6-11.4,17.3,0,23.9C420.2,454.4,438.9,454.4,450.4,447.8z"/>
	<linearGradient id="XMLID_7_" gradientUnits="userSpaceOnUse" x1="407.9506" y1="422.7125" x2="451.2689" y2="422.7125">
		<stop  offset="0" style="stop-color:#78727F"/>
		<stop  offset="0.2743" style="stop-color:#958E9E"/>
		<stop  offset="0.8716" style="stop-color:#DFD5ED"/>
		<stop  offset="1" style="stop-color:#F0E5FF"/>
	</linearGradient>
	<path id="XMLID_3946_" class="st140" d="M444.9,438.3c8.5-4.9,8.5-27.4,0-32.3c-8.5-4.9-22.3-4.9-30.7,0c-8.4,4.9-8.4,27.4,0,32.3
		c4.2,2.4,9.6,4.7,15.1,4.7C435,443.1,440.6,440.8,444.9,438.3z"/>
	<linearGradient id="XMLID_8_" gradientUnits="userSpaceOnUse" x1="407.1516" y1="411.029" x2="452.064" y2="411.029">
		<stop  offset="0" style="stop-color:#B4ACBF"/>
		<stop  offset="0.5146" style="stop-color:#D1C8DE"/>
		<stop  offset="1" style="stop-color:#F0E5FF"/>
	</linearGradient>
	<path id="XMLID_3945_" class="st141" d="M452.1,411.2c0-0.1,0-0.3,0-0.4v-3.4h-0.9c-1-2-2.9-4-5.7-5.6c-8.8-5-23.1-5-31.8,0
		c-2.8,1.6-4.7,3.5-5.7,5.6h-0.8v2.5c-0.1,0.7-0.1,1.5,0,2.2v0.1h0c0.4,2.9,2.6,5.8,6.4,8c8.7,5,23,5,31.8,0c3.9-2.2,6-5.1,6.5-8
		h0.1V411.2z"/>
	<linearGradient id="XMLID_9_" gradientUnits="userSpaceOnUse" x1="407.1404" y1="407.809" x2="452.0789" y2="407.809">
		<stop  offset="0" style="stop-color:#F0E5FF"/>
		<stop  offset="1" style="stop-color:#FFFFFF"/>
	</linearGradient>
	<path id="XMLID_3944_" class="st142" d="M445.5,417c8.8-5,8.8-13.3,0-18.3c-8.8-5-23.1-5-31.8,0c-8.7,5-8.7,13.3,0,18.3
		C422.4,422,436.7,422,445.5,417z"/>
	<linearGradient id="XMLID_10_" gradientUnits="userSpaceOnUse" x1="408.9676" y1="407.8091" x2="450.2521" y2="407.8091">
		<stop  offset="0" style="stop-color:#B4ACBF"/>
		<stop  offset="0.5146" style="stop-color:#D1C8DE"/>
		<stop  offset="1" style="stop-color:#F0E5FF"/>
	</linearGradient>
	<path id="XMLID_3939_" class="st143" d="M444.2,416.2c8.1-4.6,8.1-12.2,0-16.8c-8.1-4.6-21.2-4.6-29.2,0c-8,4.6-8,12.2,0,16.8
		C423,420.9,436.1,420.9,444.2,416.2z"/>
	<linearGradient id="XMLID_11_" gradientUnits="userSpaceOnUse" x1="412.7143" y1="409.9661" x2="446.5053" y2="409.9661">
		<stop  offset="0" style="stop-color:#120426"/>
		<stop  offset="0.2376" style="stop-color:#180633"/>
		<stop  offset="0.5402" style="stop-color:#1C073C"/>
		<stop  offset="1" style="stop-color:#1D073F"/>
	</linearGradient>
	<path id="XMLID_3938_" class="st144" d="M441.6,416.9c6.6-3.8,6.6-10,0-13.8c-6.6-3.8-17.4-3.8-23.9,0c-6.6,3.8-6.6,10,0,13.8
		C424.2,420.6,435,420.6,441.6,416.9z"/>
	<linearGradient id="SVGID_68_" gradientUnits="userSpaceOnUse" x1="395.2172" y1="364.7478" x2="433.0998" y2="364.7478">
		<stop  offset="0" style="stop-color:#1CA63A"/>
		<stop  offset="1" style="stop-color:#04260C"/>
	</linearGradient>
	<path class="st145" d="M431.2,413.4c0,0-34.7-27-35.9-67.2c0-0.4,3.2-0.8,3.2-1.2c0-0.4-3.2-0.8-3.2-1.2c0-5.1,0.6-10.3,1.8-15.8
		c5.4-23.8,15.7-8.7,23.9,15.2c0.2,0.5-2.8,1.1-2.7,1.6c0.3,0.9,3.8,1.7,4.1,2.6C430.6,373.3,436.2,406.8,431.2,413.4z"/>
	<linearGradient id="SVGID_69_" gradientUnits="userSpaceOnUse" x1="428.0255" y1="371.6653" x2="489.2514" y2="371.6653">
		<stop  offset="0" style="stop-color:#04260C"/>
		<stop  offset="1" style="stop-color:#1CA63A"/>
	</linearGradient>
	<path class="st146" d="M431.5,413.4c0,0-14.2-56,15.1-78.2c0.7-0.6-0.6,5.8,0.2,5.2c0.8-0.5,1.6-5.9,2.5-6.3
		c5.2-2.8,11.5-4.4,19.4-4.2c30.1,0.4,22.6,3.9,6.3,18.2c-0.6,0.5-7.6,1-8.2,1.6c-0.5,0.5,5.4,0.9,4.8,1.4
		C457.9,363.6,439.8,383.1,431.5,413.4z"/>
</g>
</svg>
