<?xml version="1.0" standalone="no"?>
<!DOCTYPE svg PUBLIC "-//W3C//DTD SVG 20010904//EN"
 "http://www.w3.org/TR/2001/REC-SVG-20010904/DTD/svg10.dtd">
<svg version="1.0" xmlns="http://www.w3.org/2000/svg"
 width="256.000000pt" height="256.000000pt" viewBox="0 0 256.000000 256.000000"
 preserveAspectRatio="xMidYMid meet">
<metadata>
Created by potrace 1.11, written by Peter Selinger 2001-2013
</metadata>
<g transform="translate(0.000000,256.000000) scale(0.100000,-0.100000)"
fill="#000000" stroke="none">
<path d="M0 1280 l0 -1280 1280 0 1280 0 0 1280 0 1280 -1280 0 -1280 0 0
-1280z m1889 503 l-386 -3 -43 -60 c-24 -33 -48 -60 -53 -60 -5 0 2 15 15 33
13 17 35 47 48 65 l24 32 390 -2 391 -3 -386 -2z m376 -63 c4 -7 -118 -10
-360 -10 -242 0 -364 3 -360 10 4 6 135 10 360 10 225 0 356 -4 360 -10z
m-1835 -339 c41 -62 79 -113 83 -113 5 0 43 52 85 114 55 81 83 113 97 113 19
0 20 -7 20 -220 0 -213 -1 -220 -20 -220 -19 0 -20 8 -25 164 l-5 164 -65 -94
c-42 -60 -73 -95 -86 -97 -16 -2 -34 17 -85 94 l-64 98 -5 -165 c-5 -156 -6
-164 -25 -164 -19 0 -20 8 -23 210 -1 115 0 216 3 223 11 30 43 1 115 -107z
m786 104 c14 -35 -14 -45 -127 -45 l-109 0 0 -65 0 -65 69 0 c72 0 99 -14 87
-45 -4 -12 -23 -15 -81 -15 l-75 0 0 -70 0 -70 109 0 c84 0 111 -3 121 -15 10
-12 10 -18 0 -30 -10 -12 -39 -15 -141 -15 -117 0 -129 2 -139 19 -15 29 -13
404 2 419 8 8 55 12 145 12 110 0 135 -3 139 -15z m451 -5 c33 -20 50 -57 39
-85 -9 -24 -34 -17 -48 13 -13 26 -17 27 -97 30 -98 3 -111 -4 -111 -64 0 -55
16 -64 108 -64 38 0 83 -5 101 -11 84 -29 88 -194 6 -233 -43 -21 -183 -21
-231 -1 -35 14 -72 74 -59 95 12 20 44 10 57 -17 13 -27 15 -28 110 -31 111
-3 128 6 128 68 0 57 -19 70 -103 71 -40 0 -88 5 -107 12 -89 30 -92 192 -5
228 11 4 56 8 100 8 63 1 87 -3 112 -19z m533 2 c42 -21 71 -82 50 -107 -15
-19 -50 -3 -50 23 0 34 -21 42 -116 42 -130 0 -139 -13 -132 -193 4 -130 11
-137 133 -137 57 0 95 4 103 12 7 7 12 31 12 55 0 42 -1 43 -34 43 -35 0 -50
17 -37 39 5 8 28 11 67 9 l59 -3 3 -57 c7 -124 -40 -162 -189 -156 -70 2 -93
7 -116 24 -46 35 -53 58 -53 197 0 147 11 185 63 211 46 22 191 22 237 -2z
m-1391 -631 l-44 -60 -235 2 -235 2 230 3 230 3 44 60 c24 33 46 58 48 55 3
-3 -14 -32 -38 -65z m144 22 c3 -5 -8 -8 -23 -8 -15 0 -26 3 -23 8 2 4 13 7
23 7 10 0 21 -3 23 -7z m802 -13 c8 0 16 -4 19 -9 4 -5 -3 -7 -13 -4 -14 4
-21 -1 -24 -19 -2 -13 -5 -6 -5 17 0 22 2 34 5 28 2 -7 11 -13 18 -13z m-1045
0 c0 -6 -75 -10 -205 -10 -130 0 -205 4 -205 10 0 6 75 10 205 10 130 0 205
-4 205 -10z m624 -29 c1 -16 -2 -27 -5 -25 -9 5 -17 52 -11 59 9 9 15 -4 16
-34z m240 0 c1 -16 -2 -27 -6 -24 -5 2 -8 18 -8 35 0 39 13 29 14 -11z m378 5
c2 -19 0 -32 -4 -30 -8 5 -12 64 -4 64 2 0 6 -15 8 -34z m-938 15 c4 -5 -3 -7
-14 -4 -16 4 -20 0 -20 -17 0 -17 4 -21 20 -17 11 3 18 1 14 -4 -8 -14 -34
-11 -40 6 -13 32 23 63 40 36z m71 -1 c3 -6 -1 -7 -9 -4 -18 7 -21 14 -7 14 6
0 13 -4 16 -10z m70 0 c3 -6 -1 -7 -9 -4 -18 7 -21 14 -7 14 6 0 13 -4 16 -10z
m71 -8 c1 -7 0 -8 -3 -2 -8 18 -33 11 -33 -9 0 -12 8 -21 23 -24 l22 -4 -23
-2 c-25 -1 -38 20 -28 45 7 18 38 15 42 -4z m52 11 c-10 -2 -18 -13 -18 -23 0
-10 8 -21 18 -23 16 -4 16 -5 -1 -6 -20 -1 -32 21 -23 44 3 8 13 14 23 14 17
-1 17 -2 1 -6z m159 -24 c1 -19 1 -20 -4 -4 -3 11 -10 24 -17 28 -7 6 -6 7 4
4 8 -2 16 -14 17 -28z m71 -12 c2 -22 -1 -37 -8 -37 -6 0 -8 5 -5 10 3 6 -1
10 -9 10 -8 0 -17 4 -20 9 -4 5 3 7 14 4 16 -4 20 0 20 17 0 17 -4 21 -20 17
-11 -3 -17 -1 -14 4 14 23 39 3 42 -34z m138 25 c1 -7 0 -8 -3 -2 -2 5 -11 10
-19 10 -20 0 -17 -38 4 -43 16 -4 16 -5 -1 -6 -20 -1 -32 22 -23 45 7 18 38
15 42 -4z m64 14 c0 -2 -9 -6 -20 -9 -11 -3 -18 -1 -14 4 5 9 34 13 34 5z
m135 -6 c3 -6 -1 -7 -9 -4 -18 7 -21 14 -7 14 6 0 13 -4 16 -10z m73 -2 c7 -7
12 -17 12 -22 0 -6 -5 -3 -11 7 -13 23 -39 22 -39 -2 0 -12 8 -21 23 -24 l22
-4 -23 -2 c-24 -1 -38 20 -28 44 7 18 28 19 44 3z m99 6 c-3 -3 -12 -4 -19 -1
-8 3 -5 6 6 6 11 1 17 -2 13 -5z m79 -32 c1 -18 -4 -35 -9 -39 -6 -3 -7 -1 -3
5 4 6 -3 12 -16 14 -14 2 -24 11 -25 23 -1 16 -1 16 3 3 3 -10 14 -18 25 -18
28 0 25 37 -3 43 -20 5 -20 5 2 4 21 -2 25 -7 26 -35z m90 20 c1 -7 0 -8 -3
-2 -8 18 -33 11 -33 -9 0 -12 8 -21 23 -24 l22 -4 -23 -2 c-25 -1 -38 20 -28
45 7 18 38 15 42 -4z m52 11 c-10 -2 -18 -9 -18 -15 0 -6 -3 -9 -6 -5 -10 10
6 27 24 26 15 -1 15 -2 0 -6z m-1191 -35 c-3 -7 -5 -2 -5 12 0 14 2 19 5 13 2
-7 2 -19 0 -25z m70 0 c-3 -7 -5 -2 -5 12 0 14 2 19 5 13 2 -7 2 -19 0 -25z
m250 0 c-3 -7 -5 -2 -5 12 0 14 2 19 5 13 2 -7 2 -19 0 -25z m30 0 c-3 -7 -5
-2 -5 12 0 14 2 19 5 13 2 -7 2 -19 0 -25z m410 0 c-3 -7 -5 -2 -5 12 0 14 2
19 5 13 2 -7 2 -19 0 -25z m220 -3 c-4 -8 -17 -14 -29 -14 l-23 2 23 4 c12 2
22 12 22 20 0 9 3 14 6 10 4 -3 4 -13 1 -22z m228 -4 c-3 -6 -14 -10 -23 -10
-15 1 -15 2 1 6 9 2 17 9 17 15 0 6 3 9 6 5 3 -3 3 -10 -1 -16z m-1302 -3 c-2
-5 -13 -8 -23 -8 -10 0 -21 3 -23 8 -3 4 8 7 23 7 15 0 26 -3 23 -7z m757 -4
c0 -2 -9 -4 -20 -4 -11 0 -20 4 -20 9 0 5 9 7 20 4 11 -3 20 -7 20 -9z"/>
</g>
</svg>
