<?xml version="1.0" encoding="utf-8"?>
<!-- Generator: Adobe Illustrator 21.0.0, SVG Export Plug-In . SVG Version: 6.00 Build 0)  -->
<svg version="1.1" id="Capa_1" xmlns="http://www.w3.org/2000/svg" xmlns:xlink="http://www.w3.org/1999/xlink" x="0px" y="0px"
	 viewBox="0 0 372 120" style="enable-background:new 0 0 372 120;" xml:space="preserve">
<style type="text/css">
	.st0{fill:url(#SVGID_1_);}
	.st1{fill:url(#SVGID_2_);}
	.st2{fill:url(#SVGID_3_);}
	.st3{fill:url(#SVGID_4_);}
	.st4{fill:#282828;}
	.st5{fill:url(#SVGID_5_);stroke:url(#SVGID_6_);stroke-width:1.292;stroke-miterlimit:10;}
	.st6{fill:url(#SVGID_8_);}
	.st7{fill:url(#SVGID_9_);}
	.st8{fill:url(#SVGID_10_);}
	.st9{fill:url(#SVGID_11_);}
	.st10{fill:url(#SVGID_12_);}
	.st11{fill:url(#SVGID_13_);}
</style>
<g>
	
		<linearGradient id="SVGID_1_" gradientUnits="userSpaceOnUse" x1="2021.7061" y1="-2293.3069" x2="2051.1318" y2="-2293.3069" gradientTransform="matrix(-0.7513 2.4211 2.4211 0.7513 7155.0278 -3171.3838)">
		<stop  offset="3.900000e-02" style="stop-color:#2CF4E1"/>
		<stop  offset="1" style="stop-color:#2CB2E1"/>
	</linearGradient>
	<ellipse class="st0" cx="69.1" cy="47.4" rx="36.9" ry="37.3"/>
	
		<linearGradient id="SVGID_2_" gradientUnits="userSpaceOnUse" x1="-0.8417" y1="217.5574" x2="12.0831" y2="199.8909" gradientTransform="matrix(2.535 0 0 -2.535 90.564 588.2499)">
		<stop  offset="3.900000e-02" style="stop-color:#2CF4E1"/>
		<stop  offset="1" style="stop-color:#2CB2E1"/>
	</linearGradient>
	<path class="st1" d="M95.1,36.2c2.6,3.6,4,7.9,4,12.3c0,5.4-2.2,10.4-5.9,14.4l2.3,8.6h6.9l7.3-8.4l2-12.2l0.4-7.3l-7.2-8.2
		L95.1,36.2L95.1,36.2z"/>
	
		<linearGradient id="SVGID_3_" gradientUnits="userSpaceOnUse" x1="-22.2969" y1="215.297" x2="-4.0765" y2="190.3921" gradientTransform="matrix(2.535 0 0 -2.535 90.564 588.2499)">
		<stop  offset="0" style="stop-color:#2CE5E1"/>
		<stop  offset="1" style="stop-color:#2CB2E1"/>
	</linearGradient>
	<path class="st2" d="M14.8,72.6l1.3,5.1c0,0,14.9,30.9,48.5,42.4c0,0,31.4-13.2,45-35.5L89.9,68c0,0-9,7.2-22.3,7.2
		s-31.4-8-31.4-24.6S55,28,55,28l-8-2H26.6l-13,31.5L14.8,72.6L14.8,72.6z"/>
	
		<linearGradient id="SVGID_4_" gradientUnits="userSpaceOnUse" x1="-10.1486" y1="197.9748" x2="-10.1486" y2="230.0005" gradientTransform="matrix(2.535 0 0 -2.535 90.564 588.2499)">
		<stop  offset="0" style="stop-color:#000000"/>
		<stop  offset="1" style="stop-color:#0D0D0D"/>
	</linearGradient>
	<path class="st3" d="M127.6,39.4c-0.6-0.6-17.1-18.3-62.4-34l-0.3-0.1C21,20.4,2.1,39.4,2.1,39.4c1.7,10.1,6,21.3,9.9,30
		c0.3,0.7,5.5,10,9.4,15.1c-2.3-5.1-4.8-9.5-4.8-17C16.6,46.1,33,28.7,53.5,28c0.5,0,1,0,1.5,0l-4.9-4.9c0,0,19.7-3.3,44.9,12.1
		c0,0,0.4,0.8,0,3.1c0,0,11.9,5.2,12.9,15.3c1,10.1-5.3,15.8-10.4,16.7c0,0,2.6-4.2-1.4-6.4c-0.9-0.5-1.9-0.7-2.9-0.7
		c-7.8,0-8.7,9-8.7,9c-0.1,0.5-0.1,0.9-0.1,1.4c0,0-1.3,13.1,21.8,12.9c0,0,11.7-13.4,14.8-25.5c1.1-4.4,2-7.8,2.5-10.2
		c1.3-3.5,2.6-7.1,3.8-10.9L127.6,39.4z"/>
	<path class="st4" d="M85,39.2c0.3-0.2,1.4-0.7,2.6-2c2.4,0.3,4.8,1.1,4.8,1.1C88,35.6,81.9,34,75.2,34C75.2,34,77.8,37.7,85,39.2
		L85,39.2L85,39.2z"/>
	<path class="st4" d="M64.7,7.2C69,8.5,100.4,19.1,125.5,40l2.8-0.8l-0.2-0.2c-24.5-21-55.5-31.9-62-34l-0.6-0.2l-0.8-0.2L63.2,5
		c-6.4,2.1-37.4,13-62,34L1,39.3l2.7,0.9C28.8,19.1,60.4,8.5,64.7,7.2L64.7,7.2z"/>
	
		<linearGradient id="SVGID_5_" gradientUnits="userSpaceOnUse" x1="-10.2049" y1="195.5421" x2="-10.2049" y2="238.6799" gradientTransform="matrix(2.535 0 0 -2.535 90.564 588.2499)">
		<stop  offset="3.900000e-02" style="stop-color:#2CF4E1"/>
		<stop  offset="1" style="stop-color:#2CB2E1"/>
	</linearGradient>
	
		<linearGradient id="SVGID_6_" gradientUnits="userSpaceOnUse" x1="-36.1252" y1="208.5117" x2="15.7216" y2="208.5117" gradientTransform="matrix(2.535 0 0 -2.535 90.564 588.2499)">
		<stop  offset="3.900000e-02" style="stop-color:#2CF4E1"/>
		<stop  offset="1" style="stop-color:#2CB2E1"/>
	</linearGradient>
	<path class="st5" d="M128.1,35.1c-24.5-21-55.5-31.9-62-34l-0.6-0.2l-0.8-0.2l-1.4,0.5c-6.4,2.1-37.4,13-62,34l-0.5,0.5l0.1,0.7
		c0,0.2,2.7,16.1,11.7,34.1C18,80.9,24.4,90.1,31.8,97.7c9.1,9.3,19.7,16.2,31.4,20.4l0.7,0.2l0.7,0.2l0.7-0.3l0.7-0.2
		c11.8-4.3,22.3-11.2,31.4-20.4c7.4-7.6,13.9-16.8,19.2-27.4c9-17.9,11.7-33.9,11.7-34.1l0.1-0.7L128.1,35.1L128.1,35.1z
		 M114.5,69.2c-5.2,10.3-11.5,19.3-18.8,26.7c-9,9.2-19.4,15.9-31.1,20.1c-11.7-4.2-22.1-10.9-31.1-20C26.3,88.6,20,79.6,14.8,69.3
		C7,53.7,4,39.8,3.4,36.6C28.5,15.3,60.3,4.7,64.7,3.3c4.3,1.4,36.1,12,61.3,33.3C125.3,39.7,122.4,53.7,114.5,69.2z"/>
	<g>
		<g>
			
				<linearGradient id="SVGID_8_" gradientUnits="userSpaceOnUse" x1="67.9796" y1="208.5996" x2="79.3699" y2="208.5996" gradientTransform="matrix(2.535 0 0 -2.535 90.564 588.2499)">
				<stop  offset="0" style="stop-color:#000000"/>
				<stop  offset="1" style="stop-color:#0D0D0D"/>
			</linearGradient>
			<path id="SVGID_7_" class="st6" d="M262.9,59.5L262.9,59.5c0-8.8,6.6-16.2,15.9-16.2c5.4,0,8.7,1.5,11.9,4.2l-3.4,4.2
				c-2.4-2.1-4.7-3.3-8.6-3.3c-5.7,0-10,5-10,11v0.1c0,6.4,4.2,11.1,10.5,11.1c2.9,0,5.5-0.9,7.5-2.3v-7.1l5.3-3.5v13.1
				c-3.1,2.6-7.4,4.9-12.9,4.9C269.2,75.5,262.9,68.6,262.9,59.5"/>
			
				<linearGradient id="SVGID_9_" gradientUnits="userSpaceOnUse" x1="22.761" y1="208.3642" x2="35.4556" y2="208.3642" gradientTransform="matrix(2.535 0 0 -2.535 90.564 588.2499)">
				<stop  offset="0" style="stop-color:#000000"/>
				<stop  offset="1" style="stop-color:#0D0D0D"/>
			</linearGradient>
			<path id="SVGID_14_" class="st7" d="M161.8,44.4l-13.6,31.4h5.5l3.2-7.5l2-4.8l5.3-12.5l5.3,12.5l2,4.8l3.1,7.5h5.7l-13.6-31.4
				H161.8z"/>
			
				<linearGradient id="SVGID_10_" gradientUnits="userSpaceOnUse" x1="52.746" y1="208.6239" x2="65.4406" y2="208.6239" gradientTransform="matrix(2.535 0 0 -2.535 90.564 588.2499)">
				<stop  offset="0" style="stop-color:#000000"/>
				<stop  offset="1" style="stop-color:#0D0D0D"/>
			</linearGradient>
			<path id="SVGID_21_" class="st8" d="M237.8,43.7l-13.6,31.4h5.5l3.2-7.5l2-4.9l5.3-12.5l5.3,12.5l2,4.9l3.1,7.5h5.7l-13.6-31.4
				H237.8z"/>
			
				<linearGradient id="SVGID_11_" gradientUnits="userSpaceOnUse" x1="83.3417" y1="208.5752" x2="96.0684" y2="208.5752" gradientTransform="matrix(2.535 0 0 -2.535 90.564 588.2499)">
				<stop  offset="0" style="stop-color:#000000"/>
				<stop  offset="1" style="stop-color:#0D0D0D"/>
			</linearGradient>
			<path id="SVGID_28_" class="st9" d="M318,43.4c-9.5,0-16.2,7.3-16.2,16.1v0.1c0,8.8,6.6,16,16.1,16s16.2-7.3,16.2-16.1v-0.1
				C334.1,50.7,327.5,43.4,318,43.4z M328.4,59.6c0,6-4.3,11-10.4,11s-10.5-5-10.5-11.1v-0.1c0-6,4.3-11,10.4-11
				S328.4,53.5,328.4,59.6L328.4,59.6z"/>
			
				<linearGradient id="SVGID_12_" gradientUnits="userSpaceOnUse" x1="100.391" y1="208.5752" x2="110.9967" y2="208.5752" gradientTransform="matrix(2.535 0 0 -2.535 90.564 588.2499)">
				<stop  offset="0" style="stop-color:#000000"/>
				<stop  offset="1" style="stop-color:#0D0D0D"/>
			</linearGradient>
			<path id="SVGID_35_" class="st10" d="M366.6,44v21.5L350.1,44h-5.1v31.1h5.3V52.9l17,22.1h4.5V44L366.6,44z"/>
			
				<linearGradient id="SVGID_13_" gradientUnits="userSpaceOnUse" x1="39.4729" y1="208.5671" x2="49.8053" y2="208.5671" gradientTransform="matrix(2.535 0 0 -2.535 90.564 588.2499)">
				<stop  offset="0" style="stop-color:#000000"/>
				<stop  offset="1" style="stop-color:#0D0D0D"/>
			</linearGradient>
			<path id="SVGID_42_" class="st11" d="M208.5,63.3c4.3-1.2,7.4-4.3,7.4-9.4v-0.1c0-2.7-0.9-5-2.6-6.7c-2-2-5-3.1-8.9-3.1h-13.8
				v31.1h5.4V49h7.9c0.7,0,1.3,0.1,1.9,0.2c2.9,0.5,4.5,2.2,4.5,5v0.1c0,3.2-2.5,5.2-6.4,5.2h-3l-2.1,4.9h4l7.6,10.9h6.4L208.5,63.3
				L208.5,63.3z"/>
		</g>
	</g>
</g>
</svg>
