<?xml version="1.0" encoding="utf-8"?>
<!-- Generator: Adobe Illustrator 21.0.0, SVG Export Plug-In . SVG Version: 6.00 Build 0)  -->
<svg version="1.1" id="Layer_2" xmlns="http://www.w3.org/2000/svg" xmlns:xlink="http://www.w3.org/1999/xlink" x="0px" y="0px"
	 viewBox="0 0 326 120" style="enable-background:new 0 0 326 120;" xml:space="preserve">
<style type="text/css">
	.st0{fill:#D32B28;}
	.st1{fill:#FFFFFF;}
</style>
<g>
	<g>
		<polygon class="st0" points="161.2,0 161.2,25.7 154.5,25.7 154.5,0 140.2,0 140.2,63.7 154.5,63.7 154.5,38.1 161.2,38.1 
			161.2,63.7 175.4,63.7 175.4,0 		"/>
		<polygon class="st0" points="206.8,0 206.8,25.7 200.1,25.7 200.1,0 185.9,0 185.9,63.7 200.1,63.7 200.1,38.1 206.8,38.1 
			206.8,63.7 221.1,63.7 221.1,0 		"/>
		<polygon class="st0" points="127.7,0 111.5,0 102,9.5 102,54.3 111.5,63.7 127.7,63.7 137.2,54.3 137.2,36.2 123,36.2 123,51.3 
			116.2,51.3 116.2,12.4 123,12.4 123,24.7 137.2,24.7 137.2,9.5 137.2,9.5 		"/>
		<polygon class="st0" points="51.5,51.3 51.5,36.2 62.1,36.2 62.1,23.8 51.5,23.8 51.5,12.4 64,12.4 64,0 37.3,0 37.3,63.7 
			71.5,63.7 71.5,51.3 		"/>
		<polygon class="st0" points="239,51.3 239,36.2 249.5,36.2 249.5,23.8 239,23.8 239,12.4 251.4,12.4 251.4,0 224.8,0 224.8,63.7 
			259,63.7 259,51.3 		"/>
		<path class="st0" d="M103,63.7L93.5,0H72.6L63,63.7h15.2V51.3h9.5v12.4H103z M79.3,39.9l2.7-26.6h1.9l2.9,26.6H79.3z"/>
		<path class="st0" d="M290.1,63.7L280.6,0h-20.9l-9.6,63.7h15.2V51.3h9.5v12.4H290.1z M266.3,39.9l2.7-26.6h1.9l2.9,26.6H266.3z"/>
		<path class="st0" d="M27.3,30.5l7.1-7.1l0-14.5l0,0L25.5,0H0.2v63.7h25.3l9.7-9.7V38.3L27.3,30.5z M21.1,51.3h-6.7V37.1h6.7V51.3z
			 M21.1,25.8h-6.7V12.4h6.7V25.8z"/>
		<path class="st0" d="M316.4,0h-25.8v63.7l25.8,0l9.5-9.5V9.5L316.4,0z M311.5,51.3h-6.7V12.4h6.7V51.3z"/>
	</g>
	<g>
		<g>
			<path class="st0" d="M227.4,62.8H189c-5.9-7.5-15.2-12.4-25.5-12.4c-10.3,0-19.6,4.9-25.5,12.4H99.6l7.6,13.5h24.5
				c-0.4,2.1-0.7,4.3-0.7,6.6c0,0.6,0,1.3,0.1,1.9H112l7.6,13.5h15.3c5.5,10.2,16.2,17.1,28.6,17.1s23.1-6.9,28.6-17.1h15.3
				l7.6-13.5h-19.1c0-0.6,0.1-1.3,0.1-1.9c0-2.3-0.2-4.5-0.7-6.6h24.5L227.4,62.8z"/>
			<path class="st1" d="M163.5,50.4c10.3,0,19.6,4.9,25.5,12.4h38.4l-7.6,13.5h-24.5c0.4,2.1,0.7,4.3,0.7,6.6c0,0.6,0,1.3-0.1,1.9
				H215l-7.6,13.5h-15.3c-5.5,10.2-16.2,17.1-28.6,17.1s-23.1-6.9-28.6-17.1h-15.3L112,84.7h19.1c0-0.6-0.1-1.3-0.1-1.9
				c0-2.3,0.2-4.5,0.7-6.6h-24.5l-7.6-13.5H138C143.9,55.2,153.1,50.4,163.5,50.4 M163.5,45.6c-10.7,0-20.7,4.5-27.7,12.4H99.6h-8.2
				l4,7.1l7.6,13.5l0.8,1.4h0l4,7.1l7.6,13.5l1.4,2.4h2.8h12.6c6.8,10.6,18.6,17.1,31.3,17.1c12.7,0,24.5-6.5,31.3-17.1h12.6h2.8
				l1.4-2.4l7.6-13.5l3.4-6.1h0l1.4-2.4l7.6-13.5l4-7.1h-8.2h-36.2C184.1,50.1,174.2,45.6,163.5,45.6L163.5,45.6z"/>
		</g>
		<g>
			<circle class="st1" cx="163.5" cy="82.8" r="20.9"/>
			<polygon class="st0" points="163.5,66.2 167.2,77.7 179.3,77.7 169.5,84.8 173.3,96.3 163.5,89.2 153.7,96.3 157.4,84.8 
				147.7,77.7 159.7,77.7 			"/>
		</g>
	</g>
</g>
</svg>
