<?xml version="1.0" encoding="utf-8"?>
<!-- Generator: Adobe Illustrator 21.0.0, SVG Export Plug-In . SVG Version: 6.00 Build 0)  -->
<svg version="1.1" id="Layer_1" xmlns="http://www.w3.org/2000/svg" xmlns:xlink="http://www.w3.org/1999/xlink" x="0px" y="0px"
	 viewBox="0 0 339 120" style="enable-background:new 0 0 339 120;" xml:space="preserve">
<style type="text/css">
	.st0{fill:#2E374D;}
	.st1{fill:#1A53F0;}
</style>
<title>OmiseGO_Color</title>
<desc>Created with Sketch.</desc>
<g id="Assets">
	<g id="OmiseGO_Color">
		<g id="OmiseGO">
			<g id="Group">
				<path id="Shape" class="st0" d="M23.9,68.8c-13.4,0-23.6-8.5-23.6-23.7S11.1,21,24.5,21s23.6,8.8,23.6,23.7S37.2,68.8,23.9,68.8
					z M24,32.3c-6.1,0-9.2,4.9-9.2,12.7s3.1,12.5,9.4,12.5s9.2-4.8,9.2-12.6C33.4,37.2,30.3,32.3,24,32.3L24,32.3z"/>
				<path id="Shape_1_" class="st0" d="M109.4,40.8c0-5.4-2.3-7.2-6-7.2c-3,0-5.4,1.3-7.2,2.9v30.8H81.3V40.8c0-5.4-2.4-7.2-6.1-7.2
					c-2.6,0-5.2,1-7.2,2.6v31.1H53.3V21.7H68v5.9c4-4.2,8.4-6.7,14.1-6.7c5.6,0,10.3,2.8,12.6,8c4.1-4.9,9.4-8,15.5-8
					c8.8,0,13.9,5.9,13.9,15.6v30.8h-14.7V40.8z"/>
				<path id="Shape_2_" class="st0" d="M139,15.9c-5.4,0-8.8-2.8-8.8-7.9c0-5.3,3.4-8,8.8-8c5.5,0,8.8,2.8,8.8,8
					C147.6,13.2,144.4,15.9,139,15.9z M131.6,21.8h14.7v45.6h-14.7V21.8z"/>
				<path id="Shape_3_" class="st0" d="M170.2,68.8c-6.1,0-14.1-1.3-18.8-4l2.9-10.8c5.3,2.8,11,4.2,16.3,4.2c4.1,0,6-1.2,6-3.7
					c0-2.6-2.5-3.5-7.6-4.7c-10.3-2.2-16.9-5.9-16.9-14.7c0-8.4,7.3-14.4,19.7-14.4c6,0,13.7,1.8,18.1,3.8l-3,10.7
					c-5-2.6-11.1-4.1-15.3-4.1c-3.6,0-5.5,1.2-5.5,3.4c0,2.4,2.8,3.4,7.7,4.4c10.4,2.3,16.8,5.8,16.8,14.7
					C190.4,62.1,183.2,68.8,170.2,68.8z"/>
				<path id="Shape_4_" class="st0" d="M219.3,57.8c4.9,0,10.1-1.8,14.5-4.3l1.4,11.5c-4.6,2.3-10.8,3.7-17.4,3.7
					c-15,0-24.9-8.4-24.9-23.5c0-14.7,10-24.2,24.1-24.2c12.7,0,19.5,7.7,19.5,18.8c0,2.4-0.2,6-1,7.9l-28.3,0.5v0.2
					C208.1,54.4,212,57.8,219.3,57.8z M223,39.8c0-5.4-2.2-8.6-6.8-8.6c-5,0-8.2,4.4-8.6,9.6l15.5-0.1V39.8z"/>
			</g>
			<g id="Group_1_" transform="translate(77.987179, 6.689781)">
				<path id="Shape_5_" class="st1" d="M186.3,65.4c-13.1,0-23.7,10.7-23.7,24s10.7,24,23.7,24s23.7-10.7,23.7-24
					S199.3,65.4,186.3,65.4z M186.3,106c-9.1,0-16.5-7.4-16.5-16.7s7.4-16.7,16.5-16.7c9.1,0,16.5,7.4,16.5,16.7
					C202.8,98.4,195.4,106,186.3,106L186.3,106z"/>
				<path id="Shape_6_" class="st1" d="M237,14.2c-9.6,0-18.2,5.9-21.9,14.7s-1.7,19.3,5.2,26.1s17,8.9,25.9,5.2
					c8.9-3.7,14.6-12.5,14.6-22.2C260.7,24.9,250.1,14.2,237,14.2L237,14.2z M237,54.8c-9.1,0-16.5-7.4-16.5-16.7
					s7.4-16.7,16.5-16.7s16.5,7.4,16.5,16.7S246.1,54.8,237,54.8L237,54.8z"/>
				<path id="Shape_7_" class="st1" d="M186.3,14.2L186.3,14.2c-11.3,0-21,8-23.3,19.2s3.6,22.4,14,26.9c10.4,4.4,22.4,0.8,28.9-8.5
					c6.4-9.5,5.3-22.1-2.6-30.2h6.7v-7.2h-23.7V14.2z M202.8,38.1c0,9.2-7.4,16.7-16.5,16.7c-9.1,0-16.5-7.4-16.5-16.7
					s7.4-16.7,16.5-16.7C195.4,21.5,202.8,28.9,202.8,38.1L202.8,38.1z"/>
			</g>
		</g>
	</g>
</g>
</svg>
