<svg xmlns="http://www.w3.org/2000/svg" xmlns:xlink="http://www.w3.org/1999/xlink" id="MESG-Brandmark" x="0" y="0" enable-background="new 0 0 453 453" version="1.1" viewBox="0 0 453 453" xml:space="preserve"><style type="text/css">.st0{fill:#491e8c}.st1,.st2{fill:#fff}.st2{opacity:.4;enable-background:new}</style><circle id="Circle-background" cx="226.5" cy="226.5" r="226.5" class="st0"/><g id="Brandmark"><circle id="Core-1_1_" cx="226.5" cy="151.3" r="27" class="st1"/><circle id="Core-2_1_" cx="147.4" cy="208.7" r="27" class="st1"/><circle id="Core-3_1_" cx="305.6" cy="208.7" r="27" class="st1"/><circle id="Core-4_1_" cx="177.6" cy="301.8" r="27" class="st1"/><circle id="Core-5_1_" cx="275.4" cy="301.8" r="27" class="st1"/><path id="Center" d="M241.1,301.8c0-9.2,3.6-17.8,10-24.2c6.5-6.5,15.1-10,24.2-10c8.6,0,16.7,3.1,23,8.9 c5.8-10,9.7-21.4,10.9-33.5c-1.2,0.1-2.4,0.2-3.6,0.2c-9.2,0-17.8-3.6-24.2-10c-6.5-6.5-10-15.1-10-24.2s3.6-17.8,10-24.2 c2.2-2.2,4.6-4,7.1-5.5c-7.8-8.8-17.5-15.9-28.4-20.7c-1.3,6.5-4.6,12.4-9.3,17.2c-6.5,6.5-15.1,10-24.2,10s-17.8-3.6-24.2-10 c-4.8-4.8-8-10.7-9.3-17.2c-10.9,4.8-20.6,11.9-28.4,20.7c2.6,1.5,5,3.3,7.1,5.5c6.5,6.5,10,15.1,10,24.2s-3.6,17.8-10,24.2 c-6.5,6.5-15.1,10-24.2,10c-1.2,0-2.4-0.1-3.6-0.2c1.2,12.1,5,23.4,10.9,33.5c6.3-5.7,14.4-8.9,23-8.9c9.2,0,17.8,3.6,24.2,10 c6.5,6.5,10,15.1,10,24.2c0,4.9-1,9.7-3,14c5.7,1.2,11.5,1.9,17.6,1.9c6,0,11.9-0.7,17.6-1.9C242.1,311.4,241.1,306.7,241.1,301.8z" class="st2"/><path id="Circles" d="M399.6,169c-5.1-12.1-12.5-23.1-21.9-32.4c-9.4-9.4-20.3-16.7-32.4-21.9 c-8.3-3.5-17-5.9-25.9-7.1c-5-10.6-11.8-20.2-20.1-28.5c-9.4-9.4-20.3-16.7-32.4-21.9c-12.6-5.3-25.9-8-39.7-8 c-13.8,0-27.1,2.7-39.7,8c-12.1,5.1-23.1,12.5-32.4,21.9c-8.3,8.3-15,17.8-20,28.3c-9.4,1.1-18.7,3.6-27.4,7.3 c-12.1,5.1-23,12.5-32.4,21.9c-9.4,9.4-16.7,20.3-21.9,32.4c-5.3,12.5-8,25.9-8,39.7c0,13.8,2.7,27.1,8,39.7 c5.1,12.1,12.5,23.1,21.9,32.4c0.6,0.6,1.3,1.3,2.1,2c-1.2,6.2-1.7,12.5-1.7,18.9c0,13.8,2.7,27.1,8,39.7 c5.1,12.1,12.5,23.1,21.9,32.4s20.3,16.7,32.4,21.9c12.6,5.3,25.9,8,39.7,8s27.1-2.7,39.7-8c3.1-1.3,6.2-2.8,9.2-4.5 c3,1.6,6.1,3.1,9.2,4.5c12.6,5.3,25.9,8,39.7,8c13.8,0,27.1-2.7,39.7-8c12.1-5.1,23.1-12.5,32.4-21.9c9.4-9.4,16.7-20.3,21.9-32.4 c5.3-12.6,8-25.9,8-39.7c0-6.4-0.6-12.7-1.7-18.9c0.8-0.7,1.5-1.4,2.1-2c9.4-9.4,16.7-20.3,21.9-32.4c5.3-12.6,8-25.9,8-39.7 C407.6,195,404.9,181.6,399.6,169z M391.8,245.1c-4.4,10.5-10.6,19.9-18.5,28.1c-1.1-3.8-2.4-7.6-4-11.2 c-5.1-12.1-12.5-23.1-21.9-32.4c-3.1-3.1-6.4-6-9.8-8.6c-1,2.6-2.4,5.2-4,7.5c2.8,2.2,5.4,4.6,7.9,7.1c8.6,8.6,15.3,18.6,20,29.8 c2,4.7,3.6,9.6,4.8,14.6c-7.3,6.3-15.5,11.3-24.4,15.1c-10.3,4.4-21.2,6.8-32.4,7.3c0,2.9-0.4,5.7-1.2,8.5c12.8-0.4,25.1-3,36.8-8 c8.2-3.4,15.8-8,22.8-13.4c0.5,4.1,0.8,8.3,0.8,12.4c0,12.7-2.5,24.9-7.3,36.4c-4.7,11.1-11.4,21.2-20,29.8 c-8.6,8.6-18.6,15.3-29.8,20c-11.5,4.9-23.8,7.3-36.4,7.3c-12.6,0-24.9-2.5-36.4-7.3c-1.4-0.6-2.7-1.2-4.1-1.8 c5.3-3.6,10.3-7.7,14.8-12.3c9.4-9.4,16.7-20.3,21.9-32.4c0.8-1.8,1.5-3.6,2.1-5.4c-2.9-0.1-5.7-0.6-8.4-1.5 c-0.5,1.3-1,2.5-1.4,3.6c-4.7,11.1-11.5,21.2-20,29.8c-5.2,5.2-11,9.8-17.3,13.7c-6.2-3.8-12-8.4-17.3-13.7 c-8.6-8.6-15.3-18.6-20-29.8c-0.5-1.2-1-2.4-1.4-3.6c-2.7,0.8-5.5,1.3-8.4,1.5c0.7,1.8,1.4,3.6,2.1,5.4 c5.1,12.1,12.5,23.1,21.9,32.4c4.6,4.6,9.5,8.7,14.8,12.3c-1.4,0.7-2.7,1.3-4.1,1.8c-11.5,4.9-23.8,7.3-36.4,7.3 c-12.6,0-24.9-2.5-36.4-7.4c-11.1-4.7-21.2-11.5-29.8-20c-8.6-8.6-15.3-18.6-20-29.8c-4.9-11.5-7.3-23.8-7.3-36.4 c0-4.2,0.3-8.3,0.8-12.4c7,5.4,14.7,9.9,22.8,13.4c11.7,5,24.1,7.6,36.8,8c-0.7-2.7-1.1-5.6-1.2-8.5c-11.2-0.5-22.1-2.9-32.4-7.3 c-8.9-3.7-17.1-8.8-24.4-15.1c1.2-5,2.8-9.8,4.8-14.6c4.7-11.1,11.4-21.2,20-29.8c2.5-2.5,5.2-4.9,7.9-7.1c-1.7-2.3-3-4.9-4-7.5 c-3.4,2.7-6.8,5.6-9.8,8.6c-9.4,9.4-16.7,20.3-21.9,32.4c-1.5,3.7-2.9,7.4-4,11.2c-7.9-8.2-14.1-17.7-18.5-28.1 c-4.9-11.5-7.3-23.8-7.3-36.4c0-12.6,2.5-24.9,7.3-36.4c4.7-11.1,11.4-21.2,20-29.8c8.6-8.6,18.6-15.3,29.8-20 c6.6-2.8,13.4-4.8,20.4-6c-4,11.1-6.1,22.8-6.1,34.8c0,9.7,1.3,19.2,4,28.3c2.4-1.5,5-2.7,7.7-3.6c-2.2-8-3.3-16.3-3.3-24.8 c0-12.4,2.4-24.5,7.1-35.9c2.2-0.2,4.4-0.2,6.6-0.2c12.7,0,24.9,2.5,36.4,7.3c5.3,2.2,10.4,5,15.2,8.2c1-1.3,2-2.5,3.2-3.7 c0.9-0.9,1.8-1.7,2.7-2.4c-5.6-3.8-11.6-7.1-17.9-9.8c-12.6-5.3-25.9-8-39.7-8c-0.8,0-1.7,0-2.5,0c4.3-7.9,9.7-15.2,16.2-21.7 c8.6-8.6,18.6-15.3,29.8-20c11.5-4.9,23.7-7.3,36.4-7.3c12.6,0,24.9,2.5,36.4,7.3c11.1,4.7,21.2,11.4,29.8,20 c6.5,6.5,11.9,13.8,16.2,21.7c-1.3-0.1-2.7-0.1-4-0.1c-13.8,0-27.1,2.7-39.7,8c-6.3,2.6-12.3,6-17.9,9.8c0.9,0.8,1.9,1.6,2.7,2.4 c1.2,1.2,2.2,2.4,3.2,3.7c4.8-3.2,9.9-6,15.2-8.2c11.5-4.9,23.8-7.3,36.4-7.3c2.7,0,5.4,0.1,8.1,0.4c4.7,11.3,7.1,23.4,7.1,35.8 c0,8.6-1.2,17.1-3.4,25.2c2.7,1,5.2,2.3,7.6,3.9c2.8-9.4,4.2-19.2,4.2-29.1c0-11.8-2-23.4-6-34.5c6.4,1.2,12.8,3.1,18.8,5.7 c11.1,4.7,21.2,11.4,29.8,20c8.6,8.6,15.3,18.6,20,29.8c4.9,11.5,7.3,23.8,7.3,36.4C399.2,221.4,396.7,233.6,391.8,245.1z" class="st2"/></g></svg>