<?xml version="1.0" standalone="no"?>
<!DOCTYPE svg PUBLIC "-//W3C//DTD SVG 20010904//EN"
 "http://www.w3.org/TR/2001/REC-SVG-20010904/DTD/svg10.dtd">
<svg version="1.0" xmlns="http://www.w3.org/2000/svg"
 width="2268.000000pt" height="2268.000000pt" viewBox="0 0 2268.000000 2268.000000"
 preserveAspectRatio="xMidYMid meet">
<metadata>
Created by potrace 1.11, written by Peter Selinger 2001-2013
</metadata>
<g transform="translate(0.000000,2268.000000) scale(0.100000,-0.100000)"
fill="#000000" stroke="none">
<path d="M0 11340 l0 -11340 11340 0 11340 0 0 11340 0 11340 -11340 0 -11340
0 0 -11340z m11394 10178 c22 -32 20 -55 -9 -83 l-24 -25 -5046 0 -5045 0 0
-5045 0 -5046 -26 -25 c-19 -20 -31 -24 -52 -19 -15 3 -33 13 -40 22 -9 14
-12 1052 -12 5114 0 4621 1 5099 16 5113 14 15 493 16 5119 16 l5104 0 15 -22z
m-4 -668 c26 -26 25 -51 -1 -84 l-20 -26 -4760 0 c-4746 0 -4759 0 -4779 20
-24 24 -26 67 -3 92 16 17 177 18 4780 18 4750 0 4763 0 4783 -20z m-5035
-3221 c78 -14 135 -42 193 -94 34 -31 297 -418 957 -1409 501 -751 913 -1366
916 -1366 3 0 413 610 910 1356 724 1087 915 1367 961 1409 64 60 130 89 237
106 184 28 301 -54 331 -231 7 -46 10 -775 8 -2445 l-3 -2380 -23 -51 c-49
-109 -142 -165 -283 -172 -125 -6 -189 14 -255 82 -98 101 -88 -103 -94 1991
l-5 1841 -730 -1069 c-785 -1149 -788 -1154 -902 -1197 -192 -73 -348 -39
-465 104 -29 35 -377 540 -773 1121 l-720 1057 -5 -1864 -5 -1864 -26 -49
c-30 -60 -99 -115 -173 -138 -66 -21 -176 -22 -245 -1 -68 20 -140 86 -172
157 l-24 52 0 2420 0 2420 23 50 c13 27 33 60 45 73 35 38 107 75 167 88 71
16 85 16 155 3z m10120 0 c108 -20 175 -72 218 -168 29 -64 35 -199 13 -276
-23 -76 -87 -146 -165 -177 l-56 -23 -1277 -3 -1278 -2 0 -815 0 -814 823 -3
c903 -3 861 0 944 -64 105 -80 143 -293 77 -431 -29 -61 -68 -96 -144 -132
l-55 -26 -822 -3 -823 -3 0 -839 0 -840 1278 -2 1277 -3 56 -26 c68 -32 124
-86 152 -148 18 -38 22 -65 22 -161 0 -109 -2 -118 -29 -168 -36 -65 -87 -107
-161 -133 -53 -18 -98 -19 -1528 -19 -1585 0 -1524 -2 -1600 50 -48 33 -93 98
-111 160 -15 50 -16 281 -14 2455 l3 2400 23 50 c13 27 33 60 45 73 35 38 107
75 167 88 75 17 2878 19 2965 3z m5046 -6238 l24 -19 0 -5100 c0 -4307 -2
-5101 -14 -5115 -12 -16 -382 -17 -5121 -17 -4606 0 -5109 2 -5120 16 -21 25
-16 75 9 96 23 17 180 18 5067 18 l5044 0 0 5045 0 5046 25 24 c29 30 55 32
86 6z m-12686 -1076 c607 -76 964 -369 1100 -904 35 -137 34 -241 -3 -312 -31
-60 -95 -110 -165 -131 -23 -6 -80 -12 -127 -12 -191 -1 -285 79 -326 275 -20
98 -70 202 -128 266 -60 67 -158 116 -286 145 -91 20 -124 22 -750 25 -668 5
-777 0 -920 -34 -287 -70 -390 -266 -390 -748 0 -462 90 -650 353 -739 136
-46 185 -49 962 -56 689 -7 748 -9 850 -28 221 -42 401 -106 543 -194 99 -62
250 -205 310 -294 130 -194 212 -446 243 -742 15 -148 6 -545 -15 -667 -56
-324 -152 -536 -325 -717 -180 -188 -394 -297 -701 -357 -201 -38 -328 -43
-1135 -39 -734 4 -776 5 -890 26 -578 103 -907 387 -1040 898 -54 205 -43 333
36 419 61 66 124 90 239 90 52 0 116 -6 142 -14 103 -30 163 -117 211 -308 72
-286 214 -401 547 -443 41 -5 421 -9 845 -10 635 0 788 3 870 15 319 48 468
183 529 478 39 190 41 510 5 690 -53 263 -172 408 -394 481 -146 47 -162 48
-925 56 -592 6 -744 10 -828 23 -340 54 -593 173 -769 360 -234 251 -346 639
-330 1152 9 306 53 514 147 714 62 130 117 206 216 302 165 158 360 255 625
308 175 36 233 38 904 40 523 1 674 -2 770 -14z m6710 -9 c209 -35 367 -82
500 -149 115 -57 179 -102 269 -187 194 -185 312 -431 366 -765 35 -215 25
-301 -46 -371 -58 -58 -136 -86 -244 -87 -209 -1 -312 98 -347 332 -47 319
-155 466 -395 540 -173 52 -238 56 -1013 56 -755 0 -791 -2 -970 -46 -269 -67
-429 -232 -501 -514 -54 -214 -55 -261 -51 -1490 3 -1222 2 -1200 58 -1381 63
-203 182 -349 350 -428 210 -98 287 -106 1134 -106 830 0 903 6 1082 91 111
53 177 118 231 229 75 152 102 347 102 745 l0 222 -342 7 c-374 8 -413 13
-486 66 -78 57 -121 194 -102 328 16 115 70 190 169 236 45 20 62 21 571 24
544 3 618 -1 689 -38 50 -25 96 -76 123 -135 23 -50 23 -54 26 -525 4 -624
-11 -785 -98 -1050 -67 -206 -157 -355 -292 -486 -198 -193 -459 -305 -838
-360 -151 -21 -1191 -32 -1475 -15 -886 54 -1355 413 -1513 1161 -47 219 -47
229 -47 1485 0 1325 -2 1280 70 1560 111 431 327 713 683 890 164 83 414 150
637 174 50 5 430 8 845 7 660 -2 768 -5 855 -20z m5303 -8382 c26 -18 30 -74
6 -98 -14 -15 -462 -16 -4777 -16 -2619 0 -4767 4 -4773 8 -35 23 -37 68 -6
105 14 16 254 17 4771 17 4289 0 4759 -2 4779 -16z"/>
</g>
</svg>
