<?xml version="1.0" encoding="utf-8"?>
<svg version="1.1" id="MESG-Brandmark" xmlns="http://www.w3.org/2000/svg" xmlns:xlink="http://www.w3.org/1999/xlink" x="0px"
	 y="0px" viewBox="0 0 453 453" style="enable-background:new 0 0 453 453;" xml:space="preserve">
<style type="text/css">
	.st0{fill:#491E8C;}
	.st1{opacity:0.4;fill:#491E8C;enable-background:new    ;}
</style>
<g id="Brandmark">
	<circle id="Core-1_1_" class="st0" cx="226.5" cy="132.4" r="33.8"/>
	<circle id="Core-2_1_" class="st0" cx="127.5" cy="204.3" r="33.8"/>
	<circle id="Core-3_1_" class="st0" cx="325.5" cy="204.3" r="33.8"/>
	<circle id="Core-4_1_" class="st0" cx="165.3" cy="320.6" r="33.8"/>
	<circle id="Core-5_1_" class="st0" cx="287.6" cy="320.6" r="33.8"/>
	<path id="Center" class="st1" d="M244.7,320.6c0-11.4,4.5-22.2,12.6-30.3s18.9-12.6,30.3-12.6c10.7,0,20.9,3.9,28.7,11.1
		c7.3-12.5,12.1-26.7,13.6-41.9c-1.5,0.2-3,0.2-4.5,0.2c-11.4,0-22.2-4.5-30.3-12.6s-12.6-18.9-12.6-30.3s4.5-22.2,12.6-30.3
		c2.7-2.7,5.7-5,8.9-6.9c-9.8-11-21.9-19.8-35.5-25.9c-1.7,8.1-5.7,15.5-11.7,21.5c-8.1,8.1-18.9,12.6-30.3,12.6
		s-22.2-4.5-30.3-12.6c-6-6-10-13.4-11.7-21.5c-13.6,6-25.7,14.9-35.5,25.9c3.2,1.9,6.2,4.2,8.9,6.9c8.1,8.1,12.6,18.9,12.6,30.3
		s-4.5,22.2-12.6,30.3s-18.9,12.6-30.3,12.6c-1.5,0-3.1-0.1-4.5-0.2c1.5,15.1,6.3,29.3,13.6,41.9c7.9-7.1,18-11.1,28.7-11.1
		c11.4,0,22.2,4.5,30.3,12.6c8.1,8.1,12.6,18.9,12.6,30.3c0,6.1-1.3,12.1-3.7,17.5c7.1,1.5,14.4,2.3,22,2.3c7.5,0,14.9-0.8,22-2.3
		C246,332.7,244.7,326.8,244.7,320.6z"/>
	<path id="Circles" class="st1" d="M443,154.6c-6.4-15.2-15.6-28.8-27.3-40.5c-11.7-11.7-25.4-20.9-40.5-27.3
		c-10.3-4.4-21.2-7.4-32.4-8.9c-6.3-13.2-14.7-25.3-25.1-35.7c-11.7-11.7-25.4-20.9-40.5-27.3c-15.7-6.6-32.4-10-49.6-10
		s-33.9,3.4-49.6,10.1c-15.2,6.4-28.8,15.6-40.5,27.3c-10.3,10.3-18.8,22.3-25,35.4c-11.8,1.4-23.3,4.5-34.3,9.1
		c-15.2,6.4-28.8,15.6-40.5,27.3c-11.7,11.7-20.9,25.4-27.3,40.5c-6.7,15.7-10,32.4-10,49.6s3.4,33.9,10,49.6
		c6.4,15.2,15.6,28.8,27.3,40.5c0.8,0.8,1.7,1.6,2.6,2.5c-1.4,7.7-2.2,15.6-2.2,23.6c0,17.2,3.4,33.9,10,49.6
		c6.4,15.2,15.6,28.8,27.3,40.5c11.7,11.7,25.4,20.9,40.5,27.3c15.7,6.6,32.4,10,49.6,10s33.9-3.4,49.6-10c3.9-1.6,7.7-3.5,11.5-5.6
		c3.7,2,7.6,3.9,11.5,5.6c15.7,6.6,32.4,10,49.6,10s33.9-3.4,49.6-10c15.2-6.4,28.8-15.6,40.5-27.3c11.7-11.7,20.9-25.4,27.3-40.5
		c6.6-15.7,10-32.4,10-49.6c0-8-0.7-15.9-2.2-23.6c1-0.9,1.8-1.7,2.6-2.5c11.7-11.7,20.9-25.4,27.3-40.5c6.6-15.7,10-32.4,10-49.6
		C453,187.1,449.6,170.4,443,154.6z M433.3,249.8c-5.5,13.1-13.3,24.9-23.1,35.2c-1.4-4.7-3.1-9.5-5-14.1
		c-6.4-15.2-15.6-28.8-27.3-40.5c-3.8-3.8-8-7.5-12.3-10.8c-1.3,3.3-3,6.5-5,9.4c3.5,2.8,6.8,5.7,9.9,8.8
		c10.8,10.8,19.2,23.2,25.1,37.2c2.5,5.9,4.5,12,6,18.2c-9.1,7.8-19.4,14.2-30.5,18.8c-12.9,5.4-26.5,8.5-40.5,9.1
		c0,3.6-0.5,7.1-1.4,10.6c15.9-0.4,31.4-3.8,46-10c10.2-4.3,19.8-10,28.6-16.8c0.7,5.1,1,10.3,1,15.6c0,15.8-3.1,31.1-9.2,45.5
		c-5.9,13.9-14.3,26.5-25.1,37.2c-10.8,10.8-23.2,19.2-37.2,25.1c-14.4,6.1-29.8,9.2-45.5,9.2c-15.8,0-31.1-3.1-45.5-9.2
		c-1.7-0.7-3.4-1.5-5.1-2.3c6.6-4.5,12.9-9.7,18.5-15.3c11.7-11.7,20.9-25.4,27.3-40.5c0.9-2.2,1.8-4.5,2.6-6.8
		c-3.6-0.2-7.1-0.8-10.5-1.8c-0.6,1.6-1.2,3.1-1.8,4.6c-5.9,13.9-14.3,26.5-25.1,37.2c-6.5,6.5-13.8,12.3-21.6,17.1
		c-7.8-4.8-15.1-10.5-21.6-17.1c-10.8-10.8-19.2-23.2-25.1-37.2c-0.6-1.4-1.2-3-1.8-4.6c-3.4,1-6.9,1.7-10.5,1.8
		c0.8,2.3,1.7,4.6,2.6,6.8c6.4,15.2,15.6,28.8,27.3,40.5c5.7,5.7,11.9,10.9,18.5,15.3c-1.7,0.8-3.4,1.6-5.1,2.3
		c-14.4,6.1-29.8,9.2-45.5,9.2s-31.2-3.1-45.6-9.2c-13.9-5.9-26.5-14.3-37.2-25.1c-10.8-10.8-19.2-23.2-25.1-37.2
		c-6.1-14.4-9.2-29.8-9.2-45.5c0-5.2,0.3-10.4,1-15.6c8.7,6.8,18.3,12.4,28.6,16.8c14.6,6.2,30.1,9.5,46,10c-0.9-3.4-1.4-7-1.4-10.6
		c-14-0.6-27.6-3.6-40.5-9.1c-11.1-4.7-21.3-11-30.5-18.8c1.5-6.2,3.5-12.3,6-18.2c5.9-13.9,14.3-26.5,25.1-37.2
		c3.1-3.1,6.4-6.1,9.9-8.8c-2.1-2.9-3.7-6.1-5-9.4c-4.3,3.3-8.5,7-12.3,10.8c-11.7,11.7-20.9,25.4-27.3,40.5
		c-1.9,4.6-3.6,9.3-5,14.1c-9.8-10.3-17.6-22.1-23.1-35.2c-6.1-14.4-9.2-29.8-9.2-45.5s3.1-31.1,9.2-45.5
		c5.9-13.9,14.3-26.5,25.1-37.2s23.2-19.2,37.2-25.1c8.2-3.5,16.8-6,25.5-7.5c-5.1,13.9-7.6,28.5-7.6,43.5c0,12.1,1.7,24,5,35.4
		c3-1.9,6.3-3.4,9.7-4.5c-2.7-10-4.1-20.4-4.1-31c0-15.6,3-30.7,8.9-44.9c2.7-0.2,5.5-0.3,8.2-0.3c15.8,0,31.1,3.1,45.5,9.2
		c6.6,2.8,13.1,6.3,19.1,10.3c1.2-1.6,2.5-3.1,4-4.6c1.1-1.1,2.2-2.1,3.4-3.1c-7-4.8-14.6-8.9-22.4-12.2c-15.7-6.6-32.4-10-49.6-10
		c-1,0-2.1,0-3.1,0c5.4-9.9,12.2-19.1,20.2-27.1c10.8-10.8,23.2-19.2,37.2-25.1c14.4-6.1,29.7-9.2,45.5-9.2
		c15.8,0,31.1,3.1,45.5,9.2c13.9,5.9,26.5,14.3,37.2,25.1c8.1,8.1,14.9,17.2,20.3,27.2c-1.7-0.1-3.3-0.1-5-0.1
		c-17.2,0-33.9,3.4-49.6,10c-7.8,3.3-15.4,7.5-22.4,12.2c1.2,1,2.3,2,3.4,3.1c1.4,1.4,2.8,3,4,4.6c6-4,12.4-7.5,19.1-10.3
		c14.4-6.1,29.8-9.2,45.5-9.2c3.4,0,6.8,0.2,10.2,0.4c5.9,14.2,8.8,29.2,8.8,44.7c0,10.7-1.4,21.4-4.3,31.5c3.4,1.2,6.5,2.9,9.5,4.9
		c3.5-11.7,5.3-24,5.3-36.5c0-14.8-2.5-29.3-7.5-43.1c8.1,1.5,15.9,3.9,23.5,7.1c13.9,5.9,26.5,14.3,37.2,25.1
		c10.8,10.8,19.2,23.2,25.1,37.2c6.1,14.4,9.2,29.8,9.2,45.5C442.5,220.1,439.4,235.4,433.3,249.8z"/>
</g>
</svg>
