<?xml version="1.0" encoding="utf-8"?>
<svg version="1.1" id="MESG-Brandmark" xmlns="http://www.w3.org/2000/svg" xmlns:xlink="http://www.w3.org/1999/xlink" x="0px"
	 y="0px" viewBox="0 0 150 150" style="enable-background:new 0 0 150 150;" xml:space="preserve">
<style type="text/css">
	.st0{fill:#FFFFFF;}
	.st1{fill:#491E8C;}
	.st2{opacity:0.4;fill:#491E8C;enable-background:new    ;}
</style>
<circle id="Circle-background" class="st0" cx="75" cy="75" r="75"/>
<g id="Brandmark">
	<circle id="Core-1_1_" class="st1" cx="75" cy="52.2" r="8.2"/>
	<circle id="Core-2_1_" class="st1" cx="51" cy="69.6" r="8.2"/>
	<circle id="Core-3_1_" class="st1" cx="99" cy="69.6" r="8.2"/>
	<circle id="Core-4_1_" class="st1" cx="60.1" cy="97.9" r="8.2"/>
	<circle id="Core-5_1_" class="st1" cx="89.8" cy="97.9" r="8.2"/>
	<path id="Center" class="st2" d="M79.4,97.9c0-2.8,1.1-5.4,3-7.4c2-2,4.6-3,7.4-3c2.6,0,5.1,1,7,2.7c1.8-3,2.9-6.5,3.3-10.2
		C99.8,80,99.4,80,99,80c-2.8,0-5.4-1.1-7.4-3s-3-4.6-3-7.4c0-2.8,1.1-5.4,3-7.4c0.7-0.7,1.4-1.2,2.2-1.7c-2.4-2.7-5.3-4.8-8.6-6.3
		c-0.4,2-1.4,3.8-2.8,5.2c-2,2-4.6,3-7.4,3s-5.4-1.1-7.4-3c-1.5-1.5-2.4-3.3-2.8-5.2c-3.3,1.5-6.2,3.6-8.6,6.3
		c0.8,0.5,1.5,1,2.2,1.7c2,2,3,4.6,3,7.4c0,2.8-1.1,5.4-3,7.4s-4.6,3-7.4,3c-0.4,0-0.7,0-1.1-0.1c0.4,3.7,1.5,7.1,3.3,10.2
		c1.9-1.7,4.4-2.7,7-2.7c2.8,0,5.4,1.1,7.4,3c2,2,3,4.6,3,7.4c0,1.5-0.3,2.9-0.9,4.3c1.7,0.4,3.5,0.6,5.3,0.6c1.8,0,3.6-0.2,5.3-0.6
		C79.7,100.8,79.4,99.3,79.4,97.9z"/>
	<path id="Circles" class="st2" d="M127.6,57.6c-1.6-3.7-3.8-7-6.6-9.8c-2.8-2.8-6.2-5.1-9.8-6.6c-2.5-1.1-5.2-1.8-7.9-2.2
		c-1.5-3.2-3.6-6.1-6.1-8.7c-2.8-2.8-6.2-5.1-9.8-6.6c-3.8-1.6-7.9-2.4-12.1-2.4S67,22,63.2,23.6c-3.7,1.6-7,3.8-9.8,6.6
		c-2.5,2.5-4.6,5.4-6.1,8.6c-2.9,0.3-5.7,1.1-8.3,2.2c-3.7,1.6-7,3.8-9.8,6.6c-2.8,2.8-5.1,6.2-6.6,9.8c-1.6,3.8-2.4,7.9-2.4,12
		c0,4.2,0.8,8.2,2.4,12.1c1.6,3.7,3.8,7,6.6,9.8c0.2,0.2,0.4,0.4,0.6,0.6c-0.4,1.9-0.5,3.8-0.5,5.7c0,4.2,0.8,8.2,2.4,12.1
		c1.6,3.7,3.8,7,6.6,9.8c2.8,2.8,6.2,5.1,9.8,6.6c3.8,1.6,7.9,2.4,12.1,2.4s8.2-0.8,12.1-2.4c0.9-0.4,1.9-0.8,2.8-1.4
		c0.9,0.5,1.9,1,2.8,1.4c3.8,1.6,7.9,2.4,12.1,2.4s8.2-0.8,12.1-2.4c3.7-1.6,7-3.8,9.8-6.6c2.8-2.8,5.1-6.2,6.6-9.8
		c1.6-3.8,2.4-7.9,2.4-12.1c0-1.9-0.2-3.9-0.5-5.7c0.2-0.2,0.4-0.4,0.6-0.6c2.8-2.8,5.1-6.2,6.6-9.8c1.6-3.8,2.4-7.9,2.4-12.1
		C130,65.4,129.2,61.4,127.6,57.6z M125.2,80.7c-1.3,3.2-3.2,6-5.6,8.5c-0.3-1.2-0.7-2.3-1.2-3.4c-1.6-3.7-3.8-7-6.6-9.8
		c-0.9-0.9-1.9-1.8-3-2.6c-0.3,0.8-0.7,1.6-1.2,2.3c0.8,0.7,1.6,1.4,2.4,2.1c2.6,2.6,4.7,5.6,6.1,9c0.6,1.4,1.1,2.9,1.5,4.4
		c-2.2,1.9-4.7,3.4-7.4,4.6c-3.1,1.3-6.4,2.1-9.8,2.2c0,0.9-0.1,1.7-0.4,2.6c3.9-0.1,7.6-0.9,11.2-2.4c2.5-1,4.8-2.4,6.9-4.1
		c0.2,1.2,0.3,2.5,0.3,3.8c0,3.8-0.8,7.6-2.2,11.1c-1.4,3.4-3.5,6.4-6.1,9c-2.6,2.6-5.6,4.7-9,6.1c-3.5,1.5-7.2,2.2-11.1,2.2
		s-7.6-0.8-11.1-2.2c-0.4-0.2-0.8-0.4-1.2-0.6c1.6-1.1,3.1-2.3,4.5-3.7c2.8-2.8,5.1-6.2,6.6-9.8c0.2-0.5,0.4-1.1,0.6-1.6
		c-0.9,0-1.7-0.2-2.6-0.4c-0.1,0.4-0.3,0.8-0.4,1.1c-1.4,3.4-3.5,6.4-6.1,9c-1.6,1.6-3.4,3-5.2,4.1c-1.9-1.2-3.7-2.6-5.2-4.1
		c-2.6-2.6-4.7-5.6-6.1-9c-0.1-0.4-0.3-0.7-0.4-1.1c-0.8,0.3-1.7,0.4-2.6,0.4c0.2,0.6,0.4,1.1,0.6,1.6c1.6,3.7,3.8,7,6.6,9.8
		c1.4,1.4,2.9,2.6,4.5,3.7c-0.4,0.2-0.8,0.4-1.2,0.6c-3.5,1.5-7.2,2.2-11.1,2.2s-7.6-0.8-11.1-2.2c-3.4-1.4-6.4-3.5-9-6.1
		c-2.6-2.6-4.7-5.6-6.1-9c-1.5-3.5-2.2-7.2-2.2-11.1c0-1.3,0.1-2.5,0.3-3.8c2.1,1.6,4.5,3,6.9,4.1c3.6,1.5,7.3,2.3,11.2,2.4
		c-0.2-0.8-0.3-1.7-0.4-2.6c-3.4-0.1-6.7-0.9-9.8-2.2c-2.7-1.1-5.2-2.7-7.4-4.6c0.4-1.5,0.8-3,1.5-4.4c1.4-3.4,3.5-6.4,6.1-9
		c0.8-0.8,1.6-1.5,2.4-2.1c-0.5-0.7-0.9-1.5-1.2-2.3c-1,0.8-2.1,1.7-3,2.6c-2.8,2.8-5.1,6.2-6.6,9.8c-0.5,1.1-0.9,2.3-1.2,3.4
		c-2.4-2.5-4.3-5.4-5.6-8.5c-1.5-3.5-2.2-7.2-2.2-11.1s0.8-7.6,2.2-11.1c1.4-3.4,3.5-6.4,6.1-9s5.6-4.7,9-6.1c2-0.8,4.1-1.5,6.2-1.8
		c-1.2,3.4-1.8,6.9-1.8,10.6c0,2.9,0.4,5.8,1.2,8.6c0.7-0.5,1.5-0.8,2.3-1.1c-0.7-2.4-1-5-1-7.5c0-3.8,0.7-7.4,2.2-10.9
		c0.7,0,1.3-0.1,2-0.1c3.8,0,7.6,0.8,11.1,2.2c1.6,0.7,3.2,1.5,4.6,2.5c0.3-0.4,0.6-0.8,1-1.1c0.3-0.3,0.5-0.5,0.8-0.7
		c-1.7-1.2-3.5-2.2-5.4-3c-3.8-1.6-7.9-2.4-12.1-2.4c-0.3,0-0.5,0-0.8,0c1.3-2.4,3-4.6,4.9-6.6c2.6-2.6,5.6-4.7,9-6.1
		c3.5-1.5,7.2-2.2,11.1-2.2c3.8,0,7.6,0.8,11.1,2.2c3.4,1.4,6.4,3.5,9,6.1c2,2,3.6,4.2,4.9,6.6c-0.4,0-0.8,0-1.2,0
		c-4.2,0-8.2,0.8-12.1,2.4c-1.9,0.8-3.7,1.8-5.4,3c0.3,0.2,0.6,0.5,0.8,0.7c0.4,0.4,0.7,0.7,1,1.1c1.5-1,3-1.8,4.6-2.5
		c3.5-1.5,7.2-2.2,11.1-2.2c0.8,0,1.6,0,2.5,0.1c1.4,3.4,2.1,7.1,2.1,10.9c0,2.6-0.4,5.2-1,7.7c0.8,0.3,1.6,0.7,2.3,1.2
		c0.8-2.8,1.3-5.8,1.3-8.9c0-3.6-0.6-7.1-1.8-10.5c2,0.4,3.9,1,5.7,1.7c3.4,1.4,6.4,3.5,9,6.1c2.6,2.6,4.7,5.6,6.1,9
		c1.5,3.5,2.2,7.2,2.2,11.1C127.4,73.4,126.7,77.2,125.2,80.7z"/>
</g>
</svg>
