<svg version="1.1" id="Layer_1" xmlns="http://www.w3.org/2000/svg" xmlns:xlink="http://www.w3.org/1999/xlink" x="0px" y="0px"
	 viewBox="0 0 900 450" style="enable-background:new 0 0 900 450;" xml:space="preserve">
<style type="text/css">
	.st0{fill:none;stroke:#D6D0E7;stroke-linecap:round;stroke-linejoin:round;stroke-miterlimit:10;stroke-dasharray:0.9989,3.9956;}
	.st1{fill:none;stroke:#FFA744;stroke-linecap:round;stroke-linejoin:round;stroke-miterlimit:10;stroke-dasharray:1,4;}
	.st2{fill:#FFFFFF;}
	.st3{fill:#D6D0E7;}
	.st4{fill:none;stroke:#FFA744;stroke-linecap:round;stroke-linejoin:round;stroke-miterlimit:10;}
	.st5{fill:none;stroke:#D6D0E7;stroke-linecap:round;stroke-linejoin:round;stroke-dasharray:1,4;}
	.st6{opacity:0.15;fill:url(#SVGID_1_);}
	.st7{fill:url(#SVGID_2_);}
	.st8{fill:url(#SVGID_3_);}
	.st9{opacity:0.45;fill:url(#SVGID_4_);}
	.st10{opacity:0.45;fill:url(#SVGID_5_);}
	.st11{opacity:0.45;fill:url(#SVGID_6_);}
	.st12{fill:url(#SVGID_7_);}
	.st13{opacity:0.15;fill:url(#SVGID_8_);}
	.st14{fill:url(#SVGID_9_);}
	.st15{fill:url(#SVGID_10_);}
	.st16{opacity:0.45;fill:url(#SVGID_11_);}
	.st17{opacity:0.45;fill:url(#SVGID_12_);}
	.st18{fill:url(#SVGID_13_);}
	.st19{opacity:0.15;fill:url(#SVGID_14_);}
	.st20{fill:url(#SVGID_15_);}
	.st21{fill:url(#SVGID_16_);}
	.st22{opacity:0.45;fill:url(#SVGID_17_);}
	.st23{opacity:0.45;fill:url(#SVGID_18_);}
	.st24{opacity:0.45;fill:url(#SVGID_19_);}
	.st25{opacity:0.45;fill:url(#SVGID_20_);}
	.st26{fill:url(#SVGID_21_);}
	.st27{opacity:0.15;fill:url(#SVGID_22_);}
	.st28{fill:url(#SVGID_23_);}
	.st29{fill:url(#SVGID_24_);}
	.st30{opacity:0.45;fill:url(#SVGID_25_);}
	.st31{fill:url(#SVGID_26_);}
</style>
<g>
	<g>
		<polygon class="st0" points="150.3,268.3 0.5,181.7 150.3,95.2 300.2,181.7 		"/>
		<polygon class="st0" points="749.7,268.3 599.8,181.7 749.7,95.2 899.5,181.7 		"/>
		<polygon class="st0" points="300.2,181.7 150.3,95.2 300.2,8.7 450,95.2 		"/>
		<polygon class="st0" points="599.8,181.7 450,95.2 599.8,8.7 749.7,95.2 		"/>
		<polygon class="st0" points="749.7,441.3 599.8,354.8 749.7,268.3 899.5,354.8 		"/>
		<polygon class="st0" points="150.3,441.3 0.5,354.8 150.3,268.3 300.2,354.8 		"/>
	</g>
	<g>
		<line class="st1" x1="450" y1="95.2" x2="450" y2="441.3"/>
		<line class="st1" x1="748.8" y1="268.3" x2="151.2" y2="268.3"/>
		<g>
			<g>
				<polygon class="st2" points="383.2,267.1 449.9,228.6 516.6,267.1 449.9,305.6 				"/>
				<path class="st3" d="M449.9,229.2l65.7,37.9L449.9,305l-65.7-37.9L449.9,229.2 M449.9,228l-67.7,39.1l67.7,39.1l67.7-39.1
					L449.9,228L449.9,228z"/>
			</g>
			<g id="App_9_">
				<g id="border_8_">
					<path class="st3" d="M499.2,265.9l-46.7-27.1c-0.6-0.4-1.4-0.5-2.4-0.6c-0.6,0-1.7,0.2-2.4,0.6l-47,27
						c-1.2,0.7-1.2,1.8,0.1,2.5l46.7,27.1c1.2,0.7,3.1,0.7,4.3,0l41.9-24.1l5.1-2.9C500.3,267.8,500.2,266.7,499.2,265.9z
						 M461.6,247.3c0.5,0.3,0.6,0.7,0,1.1c-0.5,0.3-1.2,0.4-1.8,0c-0.5-0.3-0.6-0.7,0-1.1C460.3,247.1,461.2,247,461.6,247.3z
						 M458,245.1c0.5,0.3,0.6,0.7,0,1.1c-0.5,0.3-1.2,0.4-1.8,0c-0.5-0.3-0.6-0.7,0-1.1C456.7,244.9,457.6,244.9,458,245.1z
						 M454.5,243c0.5,0.3,0.6,0.7,0,1.1c-0.5,0.3-1.2,0.4-1.8,0c-0.5-0.3-0.6-0.7,0-1.1C453,242.9,453.9,242.8,454.5,243z
						 M450.2,292.3c-0.3,0.1-0.8,0.2-1.2,0l-42.7-24.8c-0.2-0.2-0.3-0.5,0-0.7l40.6-23.4l43.9,25.5L450.2,292.3z M447.2,246.4
						l8.8,5.1l-1.6,0.9l-8.8-5.1L447.2,246.4z M440.8,250l5.2,3l-1.6,0.9l-5.2-3L440.8,250z M447.3,253.9l2.1,1.2l-1.6,0.9l-2.1-1.2
						L447.3,253.9z M450.4,255.7l2.1,1.2l-1.6,0.9l-2.1-1.2L450.4,255.7z M449.8,251.7l2.1,1.2l-1.6,0.9l-2.1-1.2L449.8,251.7z
						 M456.4,255.4l6.2,3.6l-1.6,0.9l-6.2-3.6L456.4,255.4z M442.5,265.4l3.8,2.2l-1.6,0.9l-3.8-2.2L442.5,265.4z M447.6,268.4
						l5.7,3.2l-1.6,0.9l-5.7-3.2L447.6,268.4z M431.4,255.4l4.5,2.5l-1.6,0.9l-4.5-2.5L431.4,255.4z M444.1,259.2l2.1,1.2l-1.6,0.9
						l-2.1-1.2L444.1,259.2z M454.3,265l3.9,2.3l-1.6,0.9l-3.9-2.3L454.3,265z M459.3,268l7.8,4.5l-1.6,0.9l-7.8-4.5L459.3,268z
						 M437.4,258.9l2.1,1.2l-1.6,0.9l-2.1-1.2L437.4,258.9z M440.6,260.7l2.1,1.2l-1.6,0.9l-2.1-1.2L440.6,260.7z M457.3,252.1
						l2.9,1.7l-1.6,0.9l-2.9-1.7L457.3,252.1z M461.5,254.5l3.8,2.2l-1.6,0.9l-3.8-2.2L461.5,254.5z M466.7,257.5l5.7,3.2l-1.6,0.9
						l-5.7-3.2L466.7,257.5z M444.1,248.2l4.5,2.5l-1.6,0.9l-4.5-2.5L444.1,248.2z M464.1,259.9l2.3,1.4l-1.6,0.9l-2.3-1.4
						L464.1,259.9z M460.4,261.5l3.9,2.3l-1.6,0.9l-3.9-2.3L460.4,261.5z M465.5,264.4l7.8,4.5l-1.6,0.9l-7.8-4.5L465.5,264.4z
						 M453.6,257.5l5.7,3.2l-1.6,0.9l-5.7-3.2L453.6,257.5z M437.6,251.9l2.1,1.2L438,254l-2.1-1.2L437.6,251.9z M440.6,253.7
						l1.2,0.6l-1.6,0.9l-1.2-0.6L440.6,253.7z M453.1,253.5l2.1,1.2l-1.6,0.9l-2.1-1.2L453.1,253.5z M428.3,257.3l8.8,5.1l-1.6,0.9
						l-8.8-5.1L428.3,257.3z M438.4,263l2.9,1.7l-1.6,0.9l-2.9-1.7L438.4,263z M451.6,267.1l2.3,1.4l-1.6,0.9L450,268L451.6,267.1z
						 M434.6,253.7l5.2,3l-1.6,0.9l-5.2-3L434.6,253.7z M441.1,257.4l2.1,1.2l-1.6,0.9l-2.1-1.2L441.1,257.4z M447.5,261.1l5.7,3.2
						l-1.6,0.9l-5.7-3.2L447.5,261.1z M443.9,262.5l6.2,3.6l-1.6,0.9l-6.2-3.6L443.9,262.5z"/>
				</g>
				<g id="terminal_8_">
					<path class="st3" d="M426.4,266.2c0,0.1-0.1,0.3-0.1,0.4l-1,0.5c-0.1,0.1-0.4,0-0.5,0.1l-7-1.4l2.4,4.1c0,0.1-0.1,0.3-0.1,0.4
						l-1,0.5c-0.1,0.1-0.4,0-0.5,0.1c-0.2,0-0.2,0-0.3-0.1c-0.1-0.1-0.1-0.1-0.1-0.2l-3-5.5c0-0.1,0.1-0.3,0.1-0.4l0.9-0.5
						c0.1-0.1,0.4,0,0.5-0.1l9.5,1.7C426.3,266,426.3,266.1,426.4,266.2z M436.3,269.5l-0.8-0.5c-0.1-0.1-0.3-0.1-0.7-0.1l-13.5,3.4
						c-0.2,0-0.3,0.1-0.2,0.3c0,0.1,0.1,0.2,0.3,0.2l0.8,0.5c0.1,0.1,0.3,0.1,0.7,0.1l13.6-3.4c0.2,0,0.3-0.1,0.2-0.3
						C436.4,269.7,436.4,269.6,436.3,269.5z M440.7,278.2l-3-5.5c0-0.1-0.1-0.2-0.4-0.2c-0.2,0-0.5-0.1-0.5,0.1l-1,0.5
						c-0.1,0.1-0.2,0.2-0.1,0.4l2.4,4.1l-7-1.4c-0.2,0-0.5-0.1-0.5,0.1l-1,0.5c-0.1,0.1-0.2,0.2-0.1,0.4c0,0.1,0,0.1,0.1,0.2
						s0.1,0.1,0.3,0.1l9.5,1.7c0.2,0,0.5,0.1,0.5-0.1l0.9-0.5C440.7,278.4,440.8,278.3,440.7,278.2z"/>
				</g>
			</g>
			<g>
				<polygon class="st3" points="382.2,267.1 382.2,270 449.9,309.1 517.6,270 517.6,267.1 449.9,306.2 				"/>
			</g>
		</g>
		<g>
			<polyline class="st4" points="300.2,181.7 150.3,268.3 300.2,354.8 300.2,354.8 450,441.3 599.8,354.8 			"/>
			<polyline class="st4" points="599.8,354.8 749.7,268.3 599.8,181.7 599.8,181.7 450,95.2 300.2,181.7 			"/>
		</g>
		<g>
			<g>
				<g>
					<path class="st5" d="M626.8,288.1c-6.6,19.6-23.1,38.3-49.4,53.5c-24.3,14-53.7,23.2-84.8,27.5"/>
					<g>

							<ellipse transform="matrix(0.3205 -0.9472 0.9472 0.3205 152.9966 789.4509)" class="st3" cx="626.8" cy="288.1" rx="3.8" ry="3.8"/>
					</g>
					<g>

							<ellipse transform="matrix(0.9904 -0.1385 0.1385 0.9904 -46.3867 71.794)" class="st3" cx="492.6" cy="369.1" rx="3.8" ry="3.8"/>
					</g>
				</g>
			</g>
			<g>
				<g>
					<path class="st5" d="M485,166c33.9,3.9,66.2,13.4,92.4,28.5c26.4,15.2,42.9,34,49.5,53.7"/>
					<g>

							<ellipse transform="matrix(0.1131 -0.9936 0.9936 0.1131 265.2184 629.0728)" class="st3" cx="485" cy="166" rx="3.8" ry="3.8"/>
					</g>
					<g>

							<ellipse transform="matrix(0.9481 -0.318 0.318 0.9481 -46.3754 212.1844)" class="st3" cx="626.8" cy="248.2" rx="3.8" ry="3.8"/>
					</g>
				</g>
			</g>
			<g>
				<g>
					<path class="st5" d="M273.1,248.2c6.6-19.7,23.1-38.5,49.5-53.7c26.2-15.2,58.6-24.7,92.5-28.5"/>
					<g>

							<ellipse transform="matrix(0.3172 -0.9484 0.9484 0.3172 -48.9482 428.4521)" class="st3" cx="273.1" cy="248.2" rx="3.8" ry="3.8"/>
					</g>
					<g>

							<ellipse transform="matrix(0.9936 -0.1129 0.1129 0.9936 -16.0813 47.904)" class="st3" cx="415" cy="166" rx="3.8" ry="3.8"/>
					</g>
				</g>
			</g>
			<g>
				<g>
					<path class="st5" d="M408.2,369.2c-31.4-4.3-61.2-13.5-85.7-27.7c-26.2-15.1-42.7-33.8-49.4-53.4"/>
					<g>

							<ellipse transform="matrix(0.1356 -0.9908 0.9908 0.1356 -12.9973 723.5994)" class="st3" cx="408.2" cy="369.2" rx="3.8" ry="3.8"/>
					</g>
					<g>

							<ellipse transform="matrix(0.9464 -0.323 0.323 0.9464 -78.4679 103.7059)" class="st3" cx="273.2" cy="288.2" rx="3.8" ry="3.8"/>
					</g>
				</g>
			</g>
			<g>
				<g>

						<linearGradient id="SVGID_1_" gradientUnits="userSpaceOnUse" x1="-1471.8406" y1="1223.2864" x2="-1394.7362" y2="1156.5121" gradientTransform="matrix(0.866 0.5 -1 0.5774 2672.179 297.9263)">
						<stop  offset="0" style="stop-color:#251440"/>
						<stop  offset="0.75" style="stop-color:#D6D0E7"/>
					</linearGradient>
					<polygon class="st6" points="241,306.8 174.2,268.3 241,229.7 307.8,268.3 					"/>
					<g>

							<linearGradient id="SVGID_2_" gradientUnits="userSpaceOnUse" x1="-1488.8611" y1="1175.1592" x2="-1411.7565" y2="1175.1592" gradientTransform="matrix(0.866 0.5 -1 0.5774 2672.179 297.9263)">
							<stop  offset="0" style="stop-color:#E5E5E5"/>
							<stop  offset="1" style="stop-color:#FFFFFF"/>
						</linearGradient>
						<polygon class="st7" points="241,289.8 174.2,251.3 241,212.7 307.8,251.3 						"/>
					</g>
					<g id="App_3_">
						<path id="border_3_" class="st3" d="M289.7,250.1l-46.1-26.7c-0.6-0.3-1.4-0.5-2.4-0.6c-0.6,0-1.6,0.2-2.4,0.6l-46.3,26.6
							c-1.2,0.7-1.2,1.8,0.1,2.5l46.1,26.7c1.2,0.7,3.1,0.7,4.3,0l41.3-23.8l5-2.8C290.7,252,290.6,250.9,289.7,250.1z M252.5,231.7
							c0.5,0.3,0.6,0.7,0,1.1c-0.5,0.3-1.2,0.4-1.8,0c-0.5-0.3-0.6-0.7,0-1.1C251.3,231.5,252.1,231.4,252.5,231.7z M249,229.6
							c0.5,0.3,0.6,0.7,0,1.1c-0.5,0.3-1.2,0.4-1.8,0c-0.5-0.3-0.6-0.7,0-1.1C247.7,229.4,248.5,229.4,249,229.6z M245.5,227.5
							c0.5,0.3,0.6,0.7,0,1.1c-0.5,0.3-1.2,0.4-1.8,0c-0.5-0.3-0.6-0.7,0-1.1C244.1,227.4,245,227.2,245.5,227.5z M241.3,276.2
							c-0.3,0.1-0.8,0.2-1.2,0L198,251.7c-0.2-0.2-0.3-0.5,0-0.7l40.1-23.1l43.3,25.1L241.3,276.2z M238.4,230.8l8.7,5.1l-1.6,0.9
							l-8.7-5.1L238.4,230.8z M232,234.4l5.1,2.9l-1.6,0.9l-5.1-2.9L232,234.4z M238.4,238.2l2,1.2l-1.6,0.9l-2-1.2L238.4,238.2z
							 M241.5,240l2,1.2l-1.6,0.9l-2-1.2L241.5,240z M240.9,236.1l2,1.2l-1.6,0.9l-2-1.2L240.9,236.1z M247.4,239.8l6.1,3.6
							l-1.6,0.9l-6.1-3.6L247.4,239.8z M233.7,249.6l3.8,2.2l-1.6,0.9l-3.8-2.2L233.7,249.6z M238.8,252.5l5.6,3.2l-1.6,0.9
							l-5.6-3.2L238.8,252.5z M222.8,239.7l4.4,2.5l-1.6,0.9l-4.4-2.5L222.8,239.7z M235.2,243.5l2,1.2l-1.6,0.9l-2-1.2L235.2,243.5
							z M245.3,249.2l3.9,2.2l-1.6,0.9l-3.9-2.2L245.3,249.2z M250.3,252.2l7.7,4.4l-1.6,0.9l-7.7-4.4L250.3,252.2z M228.7,243.1
							l2,1.2l-1.6,0.9l-2-1.2L228.7,243.1z M231.9,244.9l2,1.2l-1.6,0.9l-2-1.2L231.9,244.9z M248.3,236.4l2.8,1.7l-1.6,0.9
							l-2.8-1.7L248.3,236.4z M252.4,238.8l3.8,2.2l-1.6,0.9l-3.8-2.2L252.4,238.8z M257.5,241.8l5.6,3.2l-1.6,0.9l-5.6-3.2
							L257.5,241.8z M235.2,232.6l4.4,2.5L238,236l-4.4-2.5L235.2,232.6z M255,244.2l2.2,1.4l-1.6,0.9l-2.2-1.4L255,244.2z
							 M251.4,245.7l3.9,2.2l-1.6,0.9l-3.9-2.2L251.4,245.7z M256.4,248.6l7.7,4.4l-1.6,0.9l-7.7-4.4L256.4,248.6z M244.7,241.8
							l5.6,3.2l-1.6,0.9l-5.6-3.2L244.7,241.8z M228.9,236.2l2,1.2l-1.6,0.9l-2-1.2L228.9,236.2z M231.8,238l1.1,0.6l-1.6,0.9
							l-1.1-0.6L231.8,238z M244.1,237.9l2,1.2l-1.6,0.9l-2-1.2L244.1,237.9z M219.7,241.6l8.7,5.1l-1.6,0.9l-8.7-5.1L219.7,241.6z
							 M229.7,247.2l2.8,1.7l-1.6,0.9l-2.8-1.7L229.7,247.2z M242.7,251.3l2.2,1.4l-1.6,0.9l-2.2-1.4L242.7,251.3z M225.9,238
							l5.1,2.9l-1.6,0.9l-5.1-2.9L225.9,238z M232.3,241.7l2,1.2l-1.6,0.9l-2-1.2L232.3,241.7z M238.7,245.3l5.6,3.2l-1.6,0.9
							l-5.6-3.2L238.7,245.3z M235,246.8l6.1,3.6l-1.6,0.9l-6.1-3.6L235,246.8z"/>
						<path id="terminal_3_" class="st3" d="M217.9,250.4c0,0.1-0.1,0.3-0.1,0.4l-1,0.5c-0.1,0.1-0.4,0-0.5,0.1l-7-1.4l2.3,4
							c0,0.1-0.1,0.3-0.1,0.4l-1,0.5c-0.1,0.1-0.4,0-0.5,0.1c-0.2,0-0.2,0-0.3-0.1c-0.1-0.1-0.1-0.1-0.1-0.2l-3-5.4
							c0-0.1,0.1-0.3,0.1-0.4l0.9-0.5c0.1-0.1,0.4,0,0.5-0.1l9.4,1.7C217.7,250.2,217.8,250.3,217.9,250.4z M227.6,253.6l-0.8-0.5
							c-0.1-0.1-0.3-0.1-0.7-0.1l-13.3,3.4c-0.2,0-0.3,0.1-0.2,0.3c0,0.1,0.1,0.2,0.3,0.2l0.8,0.5c0.1,0.1,0.3,0.1,0.7,0.1l13.4-3.3
							c0.2,0,0.3-0.1,0.2-0.3C227.7,253.8,227.7,253.7,227.6,253.6z M231.9,262.2l-3-5.4c0-0.1-0.1-0.2-0.4-0.2
							c-0.2,0-0.5-0.1-0.5,0.1l-1,0.5c-0.1,0.1-0.2,0.2-0.1,0.4l2.3,4l-7-1.4c-0.2,0-0.5-0.1-0.5,0.1l-1,0.5
							c-0.1,0.1-0.2,0.2-0.1,0.4c0,0.1,0,0.1,0.1,0.2c0.1,0.1,0.1,0.1,0.3,0.1l9.4,1.7c0.2,0,0.5,0.1,0.5-0.1l0.9-0.5
							C231.9,262.4,232.1,262.3,231.9,262.2z"/>
					</g>
					<linearGradient id="SVGID_3_" gradientUnits="userSpaceOnUse" x1="174.2411" y1="271.9448" x2="307.7898" y2="271.9448">
						<stop  offset="0" style="stop-color:#4D495A"/>
						<stop  offset="1" style="stop-color:#847C9A"/>
					</linearGradient>
					<polygon class="st8" points="174.2,251.3 174.2,254.1 241,292.6 307.8,254.1 307.8,251.3 241,289.8 					"/>
					<g>

							<linearGradient id="SVGID_4_" gradientUnits="userSpaceOnUse" x1="-1503.0447" y1="1196.2629" x2="-1425.9403" y2="1129.4885" gradientTransform="matrix(0.866 0.5 -1 0.5774 2672.179 297.9263)">
							<stop  offset="0" style="stop-color:#491E8C"/>
							<stop  offset="1" style="stop-color:#9452FF"/>
						</linearGradient>
						<polygon class="st9" points="241,275.6 174.2,237.1 241,198.5 307.8,237.1 						"/>
					</g>
					<g>

							<linearGradient id="SVGID_5_" gradientUnits="userSpaceOnUse" x1="-1517.2283" y1="1183.9795" x2="-1440.1239" y2="1117.2051" gradientTransform="matrix(0.866 0.5 -1 0.5774 2672.179 297.9263)">
							<stop  offset="0" style="stop-color:#491E8C"/>
							<stop  offset="1" style="stop-color:#9452FF"/>
						</linearGradient>
						<polygon class="st10" points="241,261.4 174.2,222.9 241,184.3 307.8,222.9 						"/>
					</g>
					<g>

							<linearGradient id="SVGID_6_" gradientUnits="userSpaceOnUse" x1="-1531.412" y1="1171.696" x2="-1454.3076" y2="1104.9218" gradientTransform="matrix(0.866 0.5 -1 0.5774 2672.179 297.9263)">
							<stop  offset="0" style="stop-color:#491E8C"/>
							<stop  offset="1" style="stop-color:#9452FF"/>
						</linearGradient>
						<polygon class="st11" points="241,247.3 174.2,208.7 241,170.1 307.8,208.7 						"/>
					</g>
					<g>

							<linearGradient id="SVGID_7_" gradientUnits="userSpaceOnUse" x1="-1545.5957" y1="1159.4127" x2="-1468.4912" y2="1092.6383" gradientTransform="matrix(0.866 0.5 -1 0.5774 2672.179 297.9263)">
							<stop  offset="0" style="stop-color:#491E8C"/>
							<stop  offset="1" style="stop-color:#9452FF"/>
						</linearGradient>
						<polygon class="st12" points="241,233.1 174.2,194.5 241,156 307.8,194.5 						"/>
					</g>
				</g>
				<g>

						<linearGradient id="SVGID_8_" gradientUnits="userSpaceOnUse" x1="-1158.6708" y1="1218.2472" x2="-1235.7751" y2="1151.4728" gradientTransform="matrix(0.866 0.5 -1 0.5774 2672.179 297.9263)">
						<stop  offset="0" style="stop-color:#251440"/>
						<stop  offset="0.75" style="stop-color:#D6D0E7"/>
					</linearGradient>
					<polygon class="st13" points="450.5,421.9 383.7,383.4 450.5,344.8 517.3,383.4 					"/>
					<g>
						<g>

								<linearGradient id="SVGID_9_" gradientUnits="userSpaceOnUse" x1="-1175.6912" y1="1203.5071" x2="-1252.7955" y2="1136.7327" gradientTransform="matrix(0.866 0.5 -1 0.5774 2672.179 297.9263)">
								<stop  offset="0" style="stop-color:#E5E5E5"/>
								<stop  offset="1" style="stop-color:#FFFFFF"/>
							</linearGradient>
							<polygon class="st14" points="450.5,404.9 383.7,366.4 450.5,327.8 517.3,366.4 							"/>
						</g>
						<g id="App_7_">
							<path id="border_6_" class="st3" d="M499.1,365.2l-46.1-26.7c-0.6-0.3-1.4-0.5-2.4-0.6c-0.6,0-1.6,0.2-2.4,0.6L402,365
								c-1.2,0.7-1.2,1.8,0.1,2.5l46.1,26.7c1.2,0.7,3.1,0.7,4.3,0l41.3-23.8l5-2.8C500.2,367.1,500.1,366,499.1,365.2z M462,346.8
								c0.5,0.3,0.6,0.7,0,1.1c-0.5,0.3-1.2,0.4-1.8,0c-0.5-0.3-0.6-0.7,0-1.1C460.7,346.6,461.6,346.5,462,346.8z M458.4,344.7
								c0.5,0.3,0.6,0.7,0,1.1c-0.5,0.3-1.2,0.4-1.8,0c-0.5-0.3-0.6-0.7,0-1.1C457.2,344.5,458,344.5,458.4,344.7z M455,342.6
								c0.5,0.3,0.6,0.7,0,1.1c-0.5,0.3-1.2,0.4-1.8,0c-0.5-0.3-0.6-0.7,0-1.1C453.6,342.5,454.5,342.4,455,342.6z M450.8,391.3
								c-0.3,0.1-0.8,0.2-1.2,0l-42.1-24.4c-0.2-0.2-0.3-0.5,0-0.7l40.1-23.1l43.3,25.1L450.8,391.3z M447.9,345.9l8.7,5.1l-1.6,0.9
								l-8.7-5.1L447.9,345.9z M441.5,349.5l5.1,2.9l-1.6,0.9l-5.1-2.9L441.5,349.5z M447.9,353.4l2,1.2l-1.6,0.9l-2-1.2
								L447.9,353.4z M451,355.1l2,1.2l-1.6,0.9l-2-1.2L451,355.1z M450.4,351.2l2,1.2l-1.6,0.9l-2-1.2L450.4,351.2z M456.9,354.9
								l6.1,3.6l-1.6,0.9l-6.1-3.6L456.9,354.9z M443.1,364.7l3.8,2.2l-1.6,0.9l-3.8-2.2L443.1,364.7z M448.2,367.6l5.6,3.2
								l-1.6,0.9l-5.6-3.2L448.2,367.6z M432.2,354.8l4.4,2.5l-1.6,0.9l-4.4-2.5L432.2,354.8z M444.7,358.6l2,1.2l-1.6,0.9l-2-1.2
								L444.7,358.6z M454.8,364.3l3.9,2.2l-1.6,0.9l-3.9-2.2L454.8,364.3z M459.7,367.3l7.7,4.4l-1.6,0.9l-7.7-4.4L459.7,367.3z
								 M438.2,358.3l2,1.2l-1.6,0.9l-2-1.2L438.2,358.3z M441.3,360.1l2,1.2l-1.6,0.9l-2-1.2L441.3,360.1z M457.8,351.6l2.8,1.7
								l-1.6,0.9l-2.8-1.7L457.8,351.6z M461.9,354l3.8,2.2l-1.6,0.9l-3.8-2.2L461.9,354z M467,356.9l5.6,3.2L471,361l-5.6-3.2
								L467,356.9z M444.7,347.8l4.4,2.5l-1.6,0.9l-4.4-2.5L444.7,347.8z M464.5,359.3l2.2,1.4l-1.6,0.9l-2.2-1.4L464.5,359.3z
								 M460.9,360.8l3.9,2.2l-1.6,0.9l-3.9-2.2L460.9,360.8z M465.9,363.7l7.7,4.4l-1.6,0.9l-7.7-4.4L465.9,363.7z M454.1,356.9
								l5.6,3.2l-1.6,0.9l-5.6-3.2L454.1,356.9z M438.3,351.3l2,1.2l-1.6,0.9l-2-1.2L438.3,351.3z M441.3,353.1l1.1,0.6l-1.6,0.9
								l-1.1-0.6L441.3,353.1z M453.6,353l2,1.2l-1.6,0.9l-2-1.2L453.6,353z M429.2,356.7l8.7,5.1l-1.6,0.9l-8.7-5.1L429.2,356.7z
								 M439.1,362.4l2.8,1.7l-1.6,0.9l-2.8-1.7L439.1,362.4z M452.2,366.4l2.2,1.4l-1.6,0.9l-2.2-1.4L452.2,366.4z M435.3,353.1
								l5.1,2.9l-1.6,0.9l-5.1-2.9L435.3,353.1z M441.8,356.8l2,1.2l-1.6,0.9l-2-1.2L441.8,356.8z M448.1,360.5l5.6,3.2l-1.6,0.9
								l-5.6-3.2L448.1,360.5z M444.5,361.9l6.1,3.6l-1.6,0.9l-6.1-3.6L444.5,361.9z"/>
							<path id="terminal_6_" class="st3" d="M427.3,365.5c0,0.1-0.1,0.3-0.1,0.4l-1,0.5c-0.1,0.1-0.4,0-0.5,0.1l-7-1.4l2.3,4
								c0,0.1-0.1,0.3-0.1,0.4l-1,0.5c-0.1,0.1-0.4,0-0.5,0.1c-0.2,0-0.2,0-0.3-0.1c-0.1-0.1-0.1-0.1-0.1-0.2l-3-5.4
								c0-0.1,0.1-0.3,0.1-0.4l0.9-0.5c0.1-0.1,0.4,0,0.5-0.1l9.4,1.7C427.1,365.3,427.2,365.4,427.3,365.5z M437.1,368.7l-0.8-0.5
								c-0.1-0.1-0.3-0.1-0.7-0.1l-13.3,3.4c-0.2,0-0.3,0.1-0.2,0.3c0,0.1,0.1,0.2,0.3,0.2l0.8,0.5c0.1,0.1,0.3,0.1,0.7,0.1
								l13.4-3.3c0.2,0,0.3-0.1,0.2-0.3C437.1,368.9,437.2,368.8,437.1,368.7z M441.4,377.3l-3-5.4c0-0.1-0.1-0.2-0.4-0.2
								c-0.2,0-0.5-0.1-0.5,0.1l-1,0.5c-0.1,0.1-0.2,0.2-0.1,0.4l2.3,4l-7-1.4c-0.2,0-0.5-0.1-0.5,0.1l-1,0.5
								c-0.1,0.1-0.2,0.2-0.1,0.4c0,0.1,0,0.1,0.1,0.2c0.1,0.1,0.1,0.1,0.3,0.1l9.4,1.7c0.2,0,0.5,0.1,0.5-0.1l0.9-0.5
								C441.4,377.5,441.5,377.5,441.4,377.3z"/>
						</g>
						<linearGradient id="SVGID_10_" gradientUnits="userSpaceOnUse" x1="450.4934" y1="407.7626" x2="450.4934" y2="366.3736">
							<stop  offset="0" style="stop-color:#4D495A"/>
							<stop  offset="1" style="stop-color:#847C9A"/>
						</linearGradient>
						<polygon class="st15" points="383.7,366.4 383.7,369.2 450.5,407.8 517.3,369.2 517.3,366.4 450.5,404.9 						"/>
					</g>
					<g>

							<linearGradient id="SVGID_11_" gradientUnits="userSpaceOnUse" x1="-1189.8748" y1="1191.2236" x2="-1266.9792" y2="1124.4493" gradientTransform="matrix(0.866 0.5 -1 0.5774 2672.179 297.9263)">
							<stop  offset="0" style="stop-color:#491E8C"/>
							<stop  offset="1" style="stop-color:#9452FF"/>
						</linearGradient>
						<polygon class="st16" points="450.5,390.7 383.7,352.2 450.5,313.6 517.3,352.2 						"/>
					</g>
					<g>

							<linearGradient id="SVGID_12_" gradientUnits="userSpaceOnUse" x1="-1204.0585" y1="1178.9402" x2="-1281.1628" y2="1112.1659" gradientTransform="matrix(0.866 0.5 -1 0.5774 2672.179 297.9263)">
							<stop  offset="0" style="stop-color:#491E8C"/>
							<stop  offset="1" style="stop-color:#9452FF"/>
						</linearGradient>
						<polygon class="st17" points="450.5,376.6 383.7,338 450.5,299.5 517.3,338 						"/>
					</g>
					<g>

							<linearGradient id="SVGID_13_" gradientUnits="userSpaceOnUse" x1="-1218.2421" y1="1166.6569" x2="-1295.3466" y2="1099.8824" gradientTransform="matrix(0.866 0.5 -1 0.5774 2672.179 297.9263)">
							<stop  offset="0" style="stop-color:#491E8C"/>
							<stop  offset="1" style="stop-color:#9452FF"/>
						</linearGradient>
						<polygon class="st18" points="450.5,362.4 383.7,323.8 450.5,285.3 517.3,323.8 						"/>
					</g>
				</g>
				<g>

						<linearGradient id="SVGID_14_" gradientUnits="userSpaceOnUse" x1="-1394.7303" y1="1014.3068" x2="-1471.8347" y2="947.5324" gradientTransform="matrix(0.866 0.5 -1 0.5774 2672.179 297.9263)">
						<stop  offset="0.25" style="stop-color:#D6D0E7"/>
						<stop  offset="1" style="stop-color:#251440"/>
					</linearGradient>
					<polygon class="st19" points="450,186.2 383.2,147.6 450,109.1 516.8,147.6 					"/>
					<g>

							<linearGradient id="SVGID_15_" gradientUnits="userSpaceOnUse" x1="-1411.7507" y1="999.5667" x2="-1488.8551" y2="932.7923" gradientTransform="matrix(0.866 0.5 -1 0.5774 2672.179 297.9263)">
							<stop  offset="0" style="stop-color:#FFFFFF"/>
							<stop  offset="1" style="stop-color:#E5E5E5"/>
						</linearGradient>
						<polygon class="st20" points="450,169.2 383.2,130.6 450,92 516.8,130.6 						"/>
					</g>
					<g id="App_8_">
						<path id="border_7_" class="st3" d="M498.6,129.4l-46.1-26.7c-0.6-0.3-1.4-0.5-2.4-0.6c-0.6,0-1.6,0.2-2.4,0.6l-46.3,26.6
							c-1.2,0.7-1.2,1.8,0.1,2.5l46.1,26.7c1.2,0.7,3.1,0.7,4.3,0l41.3-23.8l5-2.8C499.7,131.3,499.6,130.2,498.6,129.4z M461.5,111
							c0.5,0.3,0.6,0.7,0,1.1c-0.5,0.3-1.2,0.4-1.8,0c-0.5-0.3-0.6-0.7,0-1.1C460.2,110.8,461.1,110.7,461.5,111z M458,108.9
							c0.5,0.3,0.6,0.7,0,1.1c-0.5,0.3-1.2,0.4-1.8,0c-0.5-0.3-0.6-0.7,0-1.1C456.7,108.7,457.5,108.7,458,108.9z M454.5,106.9
							c0.5,0.3,0.6,0.7,0,1.1c-0.5,0.3-1.2,0.4-1.8,0c-0.5-0.3-0.6-0.7,0-1.1C453.1,106.7,454,106.6,454.5,106.9z M450.3,155.5
							c-0.3,0.1-0.8,0.2-1.2,0L407,131.1c-0.2-0.2-0.3-0.5,0-0.7l40.1-23.1l43.3,25.1L450.3,155.5z M447.4,110.2l8.7,5.1l-1.6,0.9
							l-8.7-5.1L447.4,110.2z M441,113.7l5.1,2.9l-1.6,0.9l-5.1-2.9L441,113.7z M447.4,117.6l2,1.2l-1.6,0.9l-2-1.2L447.4,117.6z
							 M450.5,119.3l2,1.2l-1.6,0.9l-2-1.2L450.5,119.3z M449.9,115.4l2,1.2l-1.6,0.9l-2-1.2L449.9,115.4z M456.4,119.1l6.1,3.6
							l-1.6,0.9l-6.1-3.6L456.4,119.1z M442.6,128.9l3.8,2.2l-1.6,0.9l-3.8-2.2L442.6,128.9z M447.8,131.8l5.6,3.2l-1.6,0.9
							l-5.6-3.2L447.8,131.8z M431.8,119l4.4,2.5l-1.6,0.9l-4.4-2.5L431.8,119z M444.2,122.8l2,1.2l-1.6,0.9l-2-1.2L444.2,122.8z
							 M454.3,128.5l3.9,2.2l-1.6,0.9l-3.9-2.2L454.3,128.5z M459.3,131.5l7.7,4.4l-1.6,0.9l-7.7-4.4L459.3,131.5z M437.7,122.5
							l2,1.2l-1.6,0.9l-2-1.2L437.7,122.5z M440.9,124.3l2,1.2l-1.6,0.9l-2-1.2L440.9,124.3z M457.3,115.8l2.8,1.7l-1.6,0.9
							l-2.8-1.7L457.3,115.8z M461.4,118.2l3.8,2.2l-1.6,0.9l-3.8-2.2L461.4,118.2z M466.5,121.1l5.6,3.2l-1.6,0.9l-5.6-3.2
							L466.5,121.1z M444.2,112l4.4,2.5l-1.6,0.9l-4.4-2.5L444.2,112z M464,123.5l2.2,1.4l-1.6,0.9l-2.2-1.4L464,123.5z
							 M460.4,125.1l3.9,2.2l-1.6,0.9l-3.9-2.2L460.4,125.1z M465.4,127.9l7.7,4.4l-1.6,0.9l-7.7-4.4L465.4,127.9z M453.6,121.1
							l5.6,3.2l-1.6,0.9L452,122L453.6,121.1z M437.8,115.6l2,1.2l-1.6,0.9l-2-1.2L437.8,115.6z M440.8,117.4l1.1,0.6l-1.6,0.9
							l-1.1-0.6L440.8,117.4z M453.1,117.2l2,1.2l-1.6,0.9l-2-1.2L453.1,117.2z M428.7,121l8.7,5.1l-1.6,0.9l-8.7-5.1L428.7,121z
							 M438.7,126.6l2.8,1.7l-1.6,0.9l-2.8-1.7L438.7,126.6z M451.7,130.6l2.2,1.4l-1.6,0.9l-2.2-1.4L451.7,130.6z M434.8,117.3
							l5.1,2.9l-1.6,0.9l-5.1-2.9L434.8,117.3z M441.3,121.1l2,1.2l-1.6,0.9l-2-1.2L441.3,121.1z M447.6,124.7l5.6,3.2l-1.6,0.9
							l-5.6-3.2L447.6,124.7z M444,126.1l6.1,3.6l-1.6,0.9l-6.1-3.6L444,126.1z"/>
						<path id="terminal_7_" class="st3" d="M426.8,129.7c0,0.1-0.1,0.3-0.1,0.4l-1,0.5c-0.1,0.1-0.4,0-0.5,0.1l-7-1.4l2.3,4
							c0,0.1-0.1,0.3-0.1,0.4l-1,0.5c-0.1,0.1-0.4,0-0.5,0.1c-0.2,0-0.2,0-0.3-0.1c-0.1-0.1-0.1-0.1-0.1-0.2l-3-5.4
							c0-0.1,0.1-0.3,0.1-0.4l0.9-0.5c0.1-0.1,0.4,0,0.5-0.1l9.4,1.7C426.7,129.6,426.7,129.6,426.8,129.7z M436.6,132.9l-0.8-0.5
							c-0.1-0.1-0.3-0.1-0.7-0.1l-13.3,3.4c-0.2,0-0.3,0.1-0.2,0.3c0,0.1,0.1,0.2,0.3,0.2l0.8,0.5c0.1,0.1,0.3,0.1,0.7,0.1l13.4-3.3
							c0.2,0,0.3-0.1,0.2-0.3C436.7,133.2,436.7,133,436.6,132.9z M440.9,141.5l-3-5.4c0-0.1-0.1-0.2-0.4-0.2
							c-0.2,0-0.5-0.1-0.5,0.1l-1,0.5c-0.1,0.1-0.2,0.2-0.1,0.4l2.3,4l-7-1.4c-0.2,0-0.5-0.1-0.5,0.1l-1,0.5
							c-0.1,0.1-0.2,0.2-0.1,0.4c0,0.1,0,0.1,0.1,0.2c0.1,0.1,0.1,0.1,0.3,0.1l9.4,1.7c0.2,0,0.5,0.1,0.5-0.1l0.9-0.5
							C440.9,141.7,441.1,141.7,440.9,141.5z"/>
					</g>
					<linearGradient id="SVGID_16_" gradientUnits="userSpaceOnUse" x1="450.0002" y1="171.9878" x2="450.0002" y2="130.5987">
						<stop  offset="0" style="stop-color:#847C9A"/>
						<stop  offset="1" style="stop-color:#4D495A"/>
					</linearGradient>
					<polygon class="st21" points="383.2,130.6 383.2,133.4 450,172 516.8,133.4 516.8,130.6 450,169.2 					"/>
					<g>

							<linearGradient id="SVGID_17_" gradientUnits="userSpaceOnUse" x1="-1425.9343" y1="987.2833" x2="-1503.0388" y2="920.5089" gradientTransform="matrix(0.866 0.5 -1 0.5774 2672.179 297.9263)">
							<stop  offset="0" style="stop-color:#9452FF"/>
							<stop  offset="1" style="stop-color:#491E8C"/>
						</linearGradient>
						<polygon class="st22" points="450,155 383.2,116.4 450,77.9 516.8,116.4 						"/>
					</g>
					<g>

							<linearGradient id="SVGID_18_" gradientUnits="userSpaceOnUse" x1="-1440.118" y1="974.9999" x2="-1517.2224" y2="908.2255" gradientTransform="matrix(0.866 0.5 -1 0.5774 2672.179 297.9263)">
							<stop  offset="0" style="stop-color:#9452FF"/>
							<stop  offset="1" style="stop-color:#491E8C"/>
						</linearGradient>
						<polygon class="st23" points="450,140.8 383.2,102.2 450,63.7 516.8,102.2 						"/>
					</g>
					<g>

							<linearGradient id="SVGID_19_" gradientUnits="userSpaceOnUse" x1="-1454.3016" y1="962.7164" x2="-1531.4061" y2="895.9421" gradientTransform="matrix(0.866 0.5 -1 0.5774 2672.179 297.9263)">
							<stop  offset="0" style="stop-color:#9452FF"/>
							<stop  offset="1" style="stop-color:#491E8C"/>
						</linearGradient>
						<polygon class="st24" points="450,126.6 383.2,88 450,49.5 516.8,88 						"/>
					</g>
					<g>

							<linearGradient id="SVGID_20_" gradientUnits="userSpaceOnUse" x1="-1468.4854" y1="950.433" x2="-1545.5897" y2="883.6586" gradientTransform="matrix(0.866 0.5 -1 0.5774 2672.179 297.9263)">
							<stop  offset="0" style="stop-color:#9452FF"/>
							<stop  offset="1" style="stop-color:#491E8C"/>
						</linearGradient>
						<polygon class="st25" points="450,112.4 383.2,73.9 450,35.3 516.8,73.9 						"/>
					</g>
					<g>

							<linearGradient id="SVGID_21_" gradientUnits="userSpaceOnUse" x1="-1482.6691" y1="938.1496" x2="-1559.7734" y2="871.3752" gradientTransform="matrix(0.866 0.5 -1 0.5774 2672.179 297.9263)">
							<stop  offset="0" style="stop-color:#9452FF"/>
							<stop  offset="1" style="stop-color:#491E8C"/>
						</linearGradient>
						<polygon class="st26" points="450,98.2 383.2,59.7 450,21.1 516.8,59.7 						"/>
					</g>
				</g>
				<g>

						<linearGradient id="SVGID_22_" gradientUnits="userSpaceOnUse" x1="-1230.5266" y1="1014.3024" x2="-1153.4222" y2="947.528" gradientTransform="matrix(0.866 0.5 -1 0.5774 2672.179 297.9263)">
						<stop  offset="0.25" style="stop-color:#D6D0E7"/>
						<stop  offset="1" style="stop-color:#251440"/>
					</linearGradient>
					<polygon class="st27" points="659,306.8 592.2,268.3 659,229.7 725.8,268.3 					"/>
					<g>

							<linearGradient id="SVGID_23_" gradientUnits="userSpaceOnUse" x1="-1247.5471" y1="966.1751" x2="-1170.4425" y2="966.1751" gradientTransform="matrix(0.866 0.5 -1 0.5774 2672.179 297.9263)">
							<stop  offset="0" style="stop-color:#FFFFFF"/>
							<stop  offset="1" style="stop-color:#E5E5E5"/>
						</linearGradient>
						<polygon class="st28" points="659,289.8 592.2,251.3 659,212.7 725.8,251.3 						"/>
					</g>
					<g id="App_6_">
						<path id="border_5_" class="st3" d="M707.6,250.1l-46.1-26.7c-0.6-0.3-1.4-0.5-2.4-0.6c-0.6,0-1.6,0.2-2.4,0.6l-46.3,26.6
							c-1.2,0.7-1.2,1.8,0.1,2.5l46.1,26.7c1.2,0.7,3.1,0.7,4.3,0l41.3-23.8l5-2.8C708.7,252,708.6,250.9,707.6,250.1z M670.5,231.7
							c0.5,0.3,0.6,0.7,0,1.1c-0.5,0.3-1.2,0.4-1.8,0c-0.5-0.3-0.6-0.7,0-1.1C669.2,231.5,670.1,231.4,670.5,231.7z M666.9,229.6
							c0.5,0.3,0.6,0.7,0,1.1c-0.5,0.3-1.2,0.4-1.8,0c-0.5-0.3-0.6-0.7,0-1.1C665.7,229.4,666.5,229.4,666.9,229.6z M663.5,227.5
							c0.5,0.3,0.6,0.7,0,1.1c-0.5,0.3-1.2,0.4-1.8,0c-0.5-0.3-0.6-0.7,0-1.1C662.1,227.4,663,227.2,663.5,227.5z M659.3,276.2
							c-0.3,0.1-0.8,0.2-1.2,0L616,251.7c-0.2-0.2-0.3-0.5,0-0.7L656,228l43.3,25.1L659.3,276.2z M656.3,230.8l8.7,5.1l-1.6,0.9
							l-8.7-5.1L656.3,230.8z M650,234.4l5.1,2.9l-1.6,0.9l-5.1-2.9L650,234.4z M656.4,238.2l2,1.2l-1.6,0.9l-2-1.2L656.4,238.2z
							 M659.5,240l2,1.2l-1.6,0.9l-2-1.2L659.5,240z M658.9,236.1l2,1.2l-1.6,0.9l-2-1.2L658.9,236.1z M665.3,239.8l6.1,3.6
							l-1.6,0.9l-6.1-3.6L665.3,239.8z M651.6,249.6l3.8,2.2l-1.6,0.9l-3.8-2.2L651.6,249.6z M656.7,252.5l5.6,3.2l-1.6,0.9
							l-5.6-3.2L656.7,252.5z M640.7,239.7l4.4,2.5l-1.6,0.9l-4.4-2.5L640.7,239.7z M653.2,243.5l2,1.2l-1.6,0.9l-2-1.2L653.2,243.5
							z M663.3,249.2l3.9,2.2l-1.6,0.9l-3.9-2.2L663.3,249.2z M668.2,252.2l7.7,4.4l-1.6,0.9l-7.7-4.4L668.2,252.2z M646.7,243.1
							l2,1.2l-1.6,0.9l-2-1.2L646.7,243.1z M649.8,244.9l2,1.2l-1.6,0.9l-2-1.2L649.8,244.9z M666.3,236.4l2.8,1.7l-1.6,0.9
							l-2.8-1.7L666.3,236.4z M670.4,238.8l3.8,2.2l-1.6,0.9l-3.8-2.2L670.4,238.8z M675.5,241.8l5.6,3.2l-1.6,0.9l-5.6-3.2
							L675.5,241.8z M653.2,232.6l4.4,2.5L656,236l-4.4-2.5L653.2,232.6z M673,244.2l2.2,1.4l-1.6,0.9l-2.2-1.4L673,244.2z
							 M669.4,245.7l3.9,2.2l-1.6,0.9l-3.9-2.2L669.4,245.7z M674.4,248.6l7.7,4.4l-1.6,0.9l-7.7-4.4L674.4,248.6z M662.6,241.8
							l5.6,3.2l-1.6,0.9l-5.6-3.2L662.6,241.8z M646.8,236.2l2,1.2l-1.6,0.9l-2-1.2L646.8,236.2z M649.8,238l1.1,0.6l-1.6,0.9
							l-1.1-0.6L649.8,238z M662.1,237.9l2,1.2l-1.6,0.9l-2-1.2L662.1,237.9z M637.7,241.6l8.7,5.1l-1.6,0.9l-8.7-5.1L637.7,241.6z
							 M647.6,247.2l2.8,1.7l-1.6,0.9l-2.8-1.7L647.6,247.2z M660.6,251.3l2.2,1.4l-1.6,0.9l-2.2-1.4L660.6,251.3z M643.8,238
							l5.1,2.9l-1.6,0.9l-5.1-2.9L643.8,238z M650.3,241.7l2,1.2l-1.6,0.9l-2-1.2L650.3,241.7z M656.6,245.3l5.6,3.2l-1.6,0.9
							l-5.6-3.2L656.6,245.3z M653,246.8l6.1,3.6l-1.6,0.9l-6.1-3.6L653,246.8z"/>
						<path id="terminal_5_" class="st3" d="M635.8,250.4c0,0.1-0.1,0.3-0.1,0.4l-1,0.5c-0.1,0.1-0.4,0-0.5,0.1l-7-1.4l2.3,4
							c0,0.1-0.1,0.3-0.1,0.4l-1,0.5c-0.1,0.1-0.4,0-0.5,0.1c-0.2,0-0.2,0-0.3-0.1c-0.1-0.1-0.1-0.1-0.1-0.2l-3-5.4
							c0-0.1,0.1-0.3,0.1-0.4l0.9-0.5c0.1-0.1,0.4,0,0.5-0.1l9.4,1.7C635.6,250.2,635.7,250.3,635.8,250.4z M645.6,253.6l-0.8-0.5
							c-0.1-0.1-0.3-0.1-0.7-0.1l-13.3,3.4c-0.2,0-0.3,0.1-0.2,0.3c0,0.1,0.1,0.2,0.3,0.2l0.8,0.5c0.1,0.1,0.3,0.1,0.7,0.1l13.4-3.3
							c0.2,0,0.3-0.1,0.2-0.3C645.6,253.8,645.7,253.7,645.6,253.6z M649.8,262.2l-3-5.4c0-0.1-0.1-0.2-0.4-0.2
							c-0.2,0-0.5-0.1-0.5,0.1l-1,0.5c-0.1,0.1-0.2,0.2-0.1,0.4l2.3,4l-7-1.4c-0.2,0-0.5-0.1-0.5,0.1l-1,0.5
							c-0.1,0.1-0.2,0.2-0.1,0.4c0,0.1,0,0.1,0.1,0.2c0.1,0.1,0.1,0.1,0.3,0.1l9.4,1.7c0.2,0,0.5,0.1,0.5-0.1l0.9-0.5
							C649.9,262.4,650,262.3,649.8,262.2z"/>
					</g>
					<linearGradient id="SVGID_24_" gradientUnits="userSpaceOnUse" x1="592.2092" y1="271.9448" x2="725.7579" y2="271.9448">
						<stop  offset="0" style="stop-color:#847C9A"/>
						<stop  offset="1" style="stop-color:#4D495A"/>
					</linearGradient>
					<polygon class="st29" points="592.2,251.3 592.2,254.1 659,292.6 725.8,254.1 725.8,251.3 659,289.8 					"/>
					<g>

							<linearGradient id="SVGID_25_" gradientUnits="userSpaceOnUse" x1="-1261.7307" y1="987.2789" x2="-1184.6262" y2="920.5045" gradientTransform="matrix(0.866 0.5 -1 0.5774 2672.179 297.9263)">
							<stop  offset="0" style="stop-color:#9452FF"/>
							<stop  offset="1" style="stop-color:#491E8C"/>
						</linearGradient>
						<polygon class="st30" points="659,275.6 592.2,237.1 659,198.5 725.8,237.1 						"/>
					</g>
					<g>

							<linearGradient id="SVGID_26_" gradientUnits="userSpaceOnUse" x1="-1275.9143" y1="974.9955" x2="-1198.8099" y2="908.2211" gradientTransform="matrix(0.866 0.5 -1 0.5774 2672.179 297.9263)">
							<stop  offset="0" style="stop-color:#9452FF"/>
							<stop  offset="1" style="stop-color:#491E8C"/>
						</linearGradient>
						<polygon class="st31" points="659,261.4 592.2,222.9 659,184.3 725.8,222.9 						"/>
					</g>
				</g>
			</g>
		</g>
	</g>
</g>
</svg>
