<svg version="1.1" id="Layer_1" xmlns="http://www.w3.org/2000/svg" xmlns:xlink="http://www.w3.org/1999/xlink" x="0px" y="0px"
	 viewBox="0 0 900 450" style="enable-background:new 0 0 900 450;" xml:space="preserve">
<style type="text/css">
	.st0{fill:none;stroke:#D6D0E7;stroke-linecap:round;stroke-linejoin:round;stroke-miterlimit:10;stroke-dasharray:0.9989,3.9956;}
	.st1{fill:url(#SVGID_1_);}
	.st2{fill:#FFA744;}
	.st3{fill:url(#SVGID_2_);}
	.st4{fill:url(#SVGID_3_);}
	.st5{opacity:0.15;fill:url(#SVGID_4_);}
	.st6{opacity:0.15;fill:url(#SVGID_5_);}
	.st7{opacity:0.15;fill:url(#SVGID_6_);}
	.st8{opacity:0.15;}
	.st9{fill:url(#SVGID_7_);}
	.st10{fill:url(#SVGID_8_);}
	.st11{fill:url(#SVGID_9_);}
	.st12{fill:url(#SVGID_10_);}
	.st13{opacity:0.8;fill:#9452FF;enable-background:new    ;}
	.st14{fill:#5D28B2;}
	.st15{fill:#9452FF;}
	.st16{fill:url(#SVGID_11_);}
	.st17{opacity:0.7;enable-background:new    ;}
	.st18{clip-path:url(#SVGID_13_);fill:url(#SVGID_14_);}
	.st19{fill:url(#SVGID_15_);}
	.st20{fill:url(#SVGID_16_);}
	.st21{fill:url(#SVGID_17_);}
	.st22{clip-path:url(#SVGID_19_);fill:url(#SVGID_20_);}
	.st23{display:none;fill:url(#SVGID_21_);}
	.st24{fill:none;stroke:url(#SVGID_22_);stroke-width:10.596;stroke-linecap:round;stroke-linejoin:round;stroke-miterlimit:10;}
	.st25{fill:url(#SVGID_23_);}
	.st26{fill:url(#SVGID_24_);}
	.st27{fill:url(#SVGID_25_);}
	.st28{fill:url(#SVGID_26_);}
	.st29{fill:url(#SVGID_27_);}
	.st30{fill:url(#SVGID_28_);}
	.st31{fill:url(#SVGID_29_);}
	.st32{fill:url(#SVGID_30_);}
	.st33{fill:url(#SVGID_31_);}
	.st34{fill:url(#SVGID_32_);}
	.st35{fill:url(#SVGID_33_);}
	.st36{fill:url(#SVGID_34_);}
	.st37{fill:url(#SVGID_35_);}
	.st38{fill:#BF7D33;}
	.st39{fill:none;stroke:url(#SVGID_36_);stroke-width:10.596;stroke-linecap:round;stroke-linejoin:round;stroke-miterlimit:10;}
	.st40{opacity:0.45;}
	.st41{fill:#FFFFFF;}
	.st42{fill:url(#SVGID_37_);}
	.st43{fill:url(#SVGID_38_);}
	.st44{fill:url(#SVGID_39_);}
	.st45{clip-path:url(#SVGID_41_);fill:url(#SVGID_42_);}
</style>
<g>
	<g>
		<polygon class="st0" points="300.2,353.2 150.3,266.7 300.2,180.2 450,266.7 		"/>
		<polygon class="st0" points="450,266.7 300.2,180.2 450,93.7 599.8,180.2 		"/>
		<polygon class="st0" points="300.2,180.2 150.3,93.7 300.2,7.2 450,93.7 		"/>
		<polygon class="st0" points="599.8,180.2 450,93.7 599.8,7.2 749.7,93.7 		"/>
		<polygon class="st0" points="599.8,353.2 450,266.7 599.8,180.2 749.7,266.7 		"/>
		<polygon class="st0" points="749.7,439.8 599.8,353.2 749.7,266.7 899.5,353.2 		"/>
		<polygon class="st0" points="150.3,439.8 0.5,353.2 150.3,266.7 300.2,353.2 		"/>
	</g>
	<g>
		<g>
			<g>
				<g>
					<g>

							<linearGradient id="SVGID_1_" gradientUnits="userSpaceOnUse" x1="-841.9747" y1="688.0945" x2="-669.9243" y2="539.0945" gradientTransform="matrix(0.866 0.5 -1 0.5774 1418.4319 203.9502)">
							<stop  offset="0" style="stop-color:#E5E5E5"/>
							<stop  offset="1" style="stop-color:#FFFFFF"/>
						</linearGradient>
						<polygon class="st1" points="1.2,180.2 150.2,94.2 299.2,180.2 150.2,266.3 						"/>
						<path class="st2" d="M150.2,94.8l148,85.4l-148,85.4l-148-85.4L150.2,94.8 M150.2,93.6l-150,86.6l150,86.6l150-86.6
							L150.2,93.6L150.2,93.6z"/>
					</g>
				</g>
			</g>
		</g>
		<g>
			<g>
				<g>
					<g>

							<linearGradient id="SVGID_2_" gradientUnits="userSpaceOnUse" x1="-495.7568" y1="388.261" x2="-323.7064" y2="239.261" gradientTransform="matrix(0.866 0.5 -1 0.5774 1418.4319 203.9502)">
							<stop  offset="0" style="stop-color:#FFFFFF"/>
							<stop  offset="1" style="stop-color:#E5E5E5"/>
						</linearGradient>
						<polygon class="st3" points="600.8,180.2 749.8,94.2 898.8,180.2 749.8,266.3 						"/>
						<path class="st2" d="M749.8,94.8l148,85.4l-148,85.4l-148-85.4L749.8,94.8 M749.8,93.6l-150,86.6l150,86.6l150-86.6
							L749.8,93.6L749.8,93.6z"/>
					</g>
				</g>
			</g>
		</g>
		<g>
			<g>
				<g>
					<g>

							<linearGradient id="SVGID_3_" gradientUnits="userSpaceOnUse" x1="-323.7068" y1="687.9268" x2="-495.7577" y2="538.9264" gradientTransform="matrix(0.866 0.5 -1 0.5774 1418.4319 203.9502)">
							<stop  offset="0" style="stop-color:#E5E5E5"/>
							<stop  offset="1" style="stop-color:#FFFFFF"/>
						</linearGradient>
						<polygon class="st4" points="301.2,353.2 450.2,267.2 599.2,353.2 450.2,439.3 						"/>
						<path class="st2" d="M450.2,267.8l148,85.4l-148,85.4l-148-85.4L450.2,267.8 M450.2,266.6l-150,86.6l150,86.6l150-86.6
							L450.2,266.6L450.2,266.6z"/>
					</g>
				</g>
			</g>
		</g>
		<linearGradient id="SVGID_4_" gradientUnits="userSpaceOnUse" x1="67.1128" y1="180.2779" x2="231.6438" y2="180.2779">
			<stop  offset="0" style="stop-color:#251440"/>
			<stop  offset="0.75" style="stop-color:#D6D0E7"/>
		</linearGradient>
		<path class="st5" d="M143.1,226.4l-73.6-42.5c-3.5-2-3-5.5,1-7.8l71.7-41.4c4-2.3,10.1-2.6,13.6-0.6l73.6,42.5c3.5,2,3,5.5-1,7.8
			l-71.7,41.4C152.7,228.2,146.5,228.4,143.1,226.4z"/>
		<linearGradient id="SVGID_5_" gradientUnits="userSpaceOnUse" x1="450" y1="400.4919" x2="450" y2="305.4999">
			<stop  offset="0" style="stop-color:#251440"/>
			<stop  offset="0.75" style="stop-color:#D6D0E7"/>
		</linearGradient>
		<path class="st6" d="M443.7,399.1l-73.6-42.5c-3.5-2-3-5.5,1-7.8l71.7-41.4c4-2.3,10.1-2.6,13.6-0.6l73.6,42.5c3.5,2,3,5.5-1,7.8
			l-71.7,41.4C453.3,400.9,447.2,401.1,443.7,399.1z"/>
		<linearGradient id="SVGID_6_" gradientUnits="userSpaceOnUse" x1="667.5673" y1="180.2779" x2="832.0983" y2="180.2779">
			<stop  offset="0.25" style="stop-color:#D6D0E7"/>
			<stop  offset="1" style="stop-color:#251440"/>
		</linearGradient>
		<path class="st7" d="M743.5,226.4l-73.6-42.5c-3.5-2-3-5.5,1-7.8l71.7-41.4c4-2.3,10.1-2.6,13.6-0.6l73.6,42.5c3.5,2,3,5.5-1,7.8
			l-71.7,41.4C753.1,228.2,747,228.4,743.5,226.4z"/>
		<g>
			<g class="st8">
				<g>

						<linearGradient id="SVGID_7_" gradientUnits="userSpaceOnUse" x1="340.9477" y1="200.2908" x2="300.3017" y2="151.8513" gradientTransform="matrix(1 0 0 -1 0 452)">
						<stop  offset="0" style="stop-color:#251440"/>
						<stop  offset="0.75" style="stop-color:#D6D0E7"/>
					</linearGradient>
					<path class="st9" d="M450.1,355.5c-0.9,0-1.8-0.2-2.6-0.7l-259-148.6c-2.5-1.5-3.4-4.7-2-7.2c1.5-2.5,4.7-3.4,7.2-2l259,148.6
						c2.5,1.5,3.4,4.7,2,7.2C453.7,354.6,452,355.5,450.1,355.5z"/>

						<linearGradient id="SVGID_8_" gradientUnits="userSpaceOnUse" x1="71.2671" y1="200.1724" x2="30.6635" y2="151.7833" gradientTransform="matrix(-1 0 0 -1 630.1779 452)">
						<stop  offset="0" style="stop-color:#251440"/>
						<stop  offset="0.75" style="stop-color:#D6D0E7"/>
					</linearGradient>
					<path class="st10" d="M449.9,355.5c-1.8,0-3.6-1-4.6-2.7c-1.5-2.5-0.6-5.8,2-7.2l258.7-148.4c2.5-1.5,5.8-0.6,7.2,2
						c1.5,2.5,0.6,5.8-2,7.2L452.5,354.8C451.7,355.3,450.8,355.5,449.9,355.5z"/>
				</g>
			</g>
			<g>
				<g>
					<linearGradient id="SVGID_9_" gradientUnits="userSpaceOnUse" x1="67.1128" y1="170.2271" x2="231.6439" y2="170.2271">
						<stop  offset="0" style="stop-color:#28104C"/>
						<stop  offset="1" style="stop-color:#9452FF"/>
					</linearGradient>
					<path class="st11" d="M231.6,155.3h-22l-54-31.2c-3.5-2-9.6-1.7-13.6,0.6l-53,30.6h-22v15h0c-0.1,1.4,0.7,2.7,2.3,3.6
						l73.6,42.5c3.5,2,9.6,1.7,13.6-0.6l71.7-41.4c2.1-1.2,3.2-2.7,3.3-4.2h0V155.3z"/>
					<linearGradient id="SVGID_10_" gradientUnits="userSpaceOnUse" x1="67.1128" y1="155.2622" x2="231.6438" y2="155.2622">
						<stop  offset="0" style="stop-color:#491E8C"/>
						<stop  offset="1" style="stop-color:#9452FF"/>
					</linearGradient>
					<path class="st12" d="M143.1,201.4l-73.6-42.5c-3.5-2-3-5.5,1-7.8l71.7-41.4c4-2.3,10.1-2.6,13.6-0.6l73.6,42.5
						c3.5,2,3,5.5-1,7.8l-71.7,41.4C152.7,203.2,146.5,203.4,143.1,201.4z"/>
				</g>
				<g>
					<path class="st13" d="M134.7,134c20.8-5,44.7,0.7,53.3,12.7s-1.3,25.8-22.1,30.8s-44.7-0.7-53.3-12.7S113.9,138.9,134.7,134z"
						/>
					<path class="st14" d="M143.4,146.1c9.2-2.2,19.8,0.3,23.6,5.6s-0.6,11.4-9.8,13.6c-9.2,2.2-19.8-0.3-23.6-5.6
						C129.8,154.4,134.2,148.3,143.4,146.1z"/>
					<path class="st15" d="M143.4,140.2c9.2-2.2,19.8,0.3,23.6,5.6c3.8,5.3-0.6,11.4-9.8,13.6c-9.2,2.2-19.8-0.3-23.6-5.6
						C129.8,148.5,134.2,142.4,143.4,140.2z"/>
				</g>
				<g>

						<linearGradient id="SVGID_11_" gradientUnits="userSpaceOnUse" x1="150.3333" y1="91.3781" x2="150.3333" y2="-63" gradientTransform="matrix(1 0 0 1 0 63)">
						<stop  offset="0" style="stop-color:#FFA744"/>
						<stop  offset="0.1" style="stop-color:#FFFFFF;stop-opacity:0.9"/>
						<stop  offset="1" style="stop-color:#FFFFFF;stop-opacity:0"/>
					</linearGradient>
					<path class="st16" d="M161.9,148.3c0,0,1.5,6.1-11.6,6.1c-13.1,0-11.6-6.1-11.6-6.1V0h23.2V148.3z"/>
					<g class="st17">
						<g>
							<g>
								<defs>
									<path id="SVGID_12_" d="M161.9,148.3c0,0,1.5,6.1-11.6,6.1c-13.1,0-11.6-6.1-11.6-6.1V0h23.2V148.3z"/>
								</defs>
								<clipPath id="SVGID_13_">
									<use xlink:href="#SVGID_12_"  style="overflow:visible;"/>
								</clipPath>

									<linearGradient id="SVGID_14_" gradientUnits="userSpaceOnUse" x1="150.3333" y1="98.5364" x2="150.3333" y2="-88.6301" gradientTransform="matrix(1 0 0 1 0 63)">
									<stop  offset="0.25" style="stop-color:#FFA744"/>
									<stop  offset="1" style="stop-color:#FFFFFF;stop-opacity:0"/>
								</linearGradient>
								<path class="st18" d="M150.3,150.2c-3.2,0-5.7,2.5-5.7,5.7c0,3.2,2.5,5.7,5.7,5.7c3.2,0,5.7-2.5,5.7-5.7
									C156,152.7,153.5,150.2,150.3,150.2z M150.3,150.2c-3.2,0-5.7,2.5-5.7,5.7c0,3.2,2.5,5.7,5.7,5.7c3.2,0,5.7-2.5,5.7-5.7
									C156,152.7,153.5,150.2,150.3,150.2z M150.3,134.2c-3.2,0-5.7,2.5-5.7,5.7s2.5,5.7,5.7,5.7c3.2,0,5.7-2.5,5.7-5.7
									S153.5,134.2,150.3,134.2z M150.3,118.2c-3.2,0-5.7,2.5-5.7,5.7s2.5,5.7,5.7,5.7c3.2,0,5.7-2.5,5.7-5.7
									S153.5,118.2,150.3,118.2z M150.3,102.2c-3.2,0-5.7,2.5-5.7,5.7c0,3.2,2.5,5.7,5.7,5.7c3.2,0,5.7-2.5,5.7-5.7
									C156,104.7,153.5,102.2,150.3,102.2z M150.3,86.2c-3.2,0-5.7,2.5-5.7,5.7s2.5,5.7,5.7,5.7c3.2,0,5.7-2.5,5.7-5.7
									S153.5,86.2,150.3,86.2z M150.3,70.4c-3.2,0-5.7,2.5-5.7,5.7c0,3.2,2.5,5.7,5.7,5.7c3.2,0,5.7-2.5,5.7-5.7
									C156,72.9,153.5,70.4,150.3,70.4z M150.3,54.4c-3.2,0-5.7,2.5-5.7,5.7s2.5,5.7,5.7,5.7c3.2,0,5.7-2.5,5.7-5.7
									S153.5,54.4,150.3,54.4z M150.3,38.4c-3.2,0-5.7,2.5-5.7,5.7c0,3.2,2.5,5.7,5.7,5.7c3.2,0,5.7-2.5,5.7-5.7
									C156,40.9,153.5,38.4,150.3,38.4z M150.3,22.4c-3.2,0-5.7,2.5-5.7,5.7s2.5,5.7,5.7,5.7c3.2,0,5.7-2.5,5.7-5.7
									S153.5,22.4,150.3,22.4z M150.3,6.4c-3.2,0-5.7,2.5-5.7,5.7s2.5,5.7,5.7,5.7c3.2,0,5.7-2.5,5.7-5.7S153.5,6.4,150.3,6.4z
									 M150.3-9.6c-3.2,0-5.7,2.5-5.7,5.7s2.5,5.7,5.7,5.7c3.2,0,5.7-2.5,5.7-5.7S153.5-9.6,150.3-9.6z M150.3-25.6
									c-3.2,0-5.7,2.5-5.7,5.7s2.5,5.7,5.7,5.7c3.2,0,5.7-2.5,5.7-5.7C156-22.9,153.5-25.6,150.3-25.6z"/>
							</g>
						</g>
					</g>
				</g>
			</g>
			<g>
				<g>
					<linearGradient id="SVGID_15_" gradientUnits="userSpaceOnUse" x1="667.5673" y1="170.2271" x2="832.0984" y2="170.2271">
						<stop  offset="0" style="stop-color:#9452FF"/>
						<stop  offset="1" style="stop-color:#28104C"/>
					</linearGradient>
					<path class="st19" d="M832.1,155.3h-22l-54-31.2c-3.5-2-9.6-1.7-13.6,0.6l-53,30.6h-22v15h0c-0.1,1.4,0.7,2.7,2.3,3.6
						l73.6,42.5c3.5,2,9.6,1.7,13.6-0.6l71.7-41.4c2.1-1.2,3.2-2.7,3.3-4.2h0V155.3z"/>
					<linearGradient id="SVGID_16_" gradientUnits="userSpaceOnUse" x1="667.5673" y1="155.2622" x2="832.0983" y2="155.2622">
						<stop  offset="0" style="stop-color:#9452FF"/>
						<stop  offset="1" style="stop-color:#491E8C"/>
					</linearGradient>
					<path class="st20" d="M743.5,201.4l-73.6-42.5c-3.5-2-3-5.5,1-7.8l71.7-41.4c4-2.3,10.1-2.6,13.6-0.6l73.6,42.5
						c3.5,2,3,5.5-1,7.8l-71.7,41.4C753.1,203.2,747,203.4,743.5,201.4z"/>
				</g>
				<g>
					<path class="st13" d="M735.2,134c20.8-5,44.7,0.7,53.3,12.7c8.6,12-1.3,25.8-22.1,30.8c-20.8,5-44.7-0.7-53.3-12.7
						C704.5,152.7,714.4,138.9,735.2,134z"/>
					<path class="st14" d="M743.9,146.1c9.2-2.2,19.8,0.3,23.6,5.6c3.8,5.3-0.6,11.4-9.8,13.6c-9.2,2.2-19.8-0.3-23.6-5.6
						C730.3,154.4,734.6,148.3,743.9,146.1z"/>
					<path class="st15" d="M743.9,140.2c9.2-2.2,19.8,0.3,23.6,5.6c3.8,5.3-0.6,11.4-9.8,13.6c-9.2,2.2-19.8-0.3-23.6-5.6
						C730.3,148.5,734.6,142.4,743.9,140.2z"/>
				</g>
				<g>

						<linearGradient id="SVGID_17_" gradientUnits="userSpaceOnUse" x1="750.7878" y1="91.3781" x2="750.7878" y2="-63" gradientTransform="matrix(1 0 0 1 0 63)">
						<stop  offset="0" style="stop-color:#FFA744"/>
						<stop  offset="0.1" style="stop-color:#FFFFFF;stop-opacity:0.9"/>
						<stop  offset="1" style="stop-color:#FFFFFF;stop-opacity:0"/>
					</linearGradient>
					<path class="st21" d="M762.4,148.3c0,0,1.5,6.1-11.6,6.1s-11.6-6.1-11.6-6.1V0h23.2V148.3z"/>
					<g class="st17">
						<g>
							<g>
								<defs>
									<path id="SVGID_18_" d="M762.4,148.3c0,0,1.5,6.1-11.6,6.1s-11.6-6.1-11.6-6.1V0h23.2V148.3z"/>
								</defs>
								<clipPath id="SVGID_19_">
									<use xlink:href="#SVGID_18_"  style="overflow:visible;"/>
								</clipPath>

									<linearGradient id="SVGID_20_" gradientUnits="userSpaceOnUse" x1="750.7878" y1="98.5364" x2="750.7878" y2="-88.6301" gradientTransform="matrix(1 0 0 1 0 63)">
									<stop  offset="0.25" style="stop-color:#FFA744"/>
									<stop  offset="1" style="stop-color:#FFFFFF;stop-opacity:0"/>
								</linearGradient>
								<path class="st22" d="M750.8,150.2c-3.2,0-5.7,2.5-5.7,5.7c0,3.2,2.5,5.7,5.7,5.7c3.2,0,5.7-2.5,5.7-5.7
									C756.5,152.7,753.9,150.2,750.8,150.2z M750.8,150.2c-3.2,0-5.7,2.5-5.7,5.7c0,3.2,2.5,5.7,5.7,5.7c3.2,0,5.7-2.5,5.7-5.7
									C756.5,152.7,753.9,150.2,750.8,150.2z M750.8,134.2c-3.2,0-5.7,2.5-5.7,5.7s2.5,5.7,5.7,5.7c3.2,0,5.7-2.5,5.7-5.7
									S753.9,134.2,750.8,134.2z M750.8,118.2c-3.2,0-5.7,2.5-5.7,5.7s2.5,5.7,5.7,5.7c3.2,0,5.7-2.5,5.7-5.7
									S753.9,118.2,750.8,118.2z M750.8,102.2c-3.2,0-5.7,2.5-5.7,5.7c0,3.2,2.5,5.7,5.7,5.7c3.2,0,5.7-2.5,5.7-5.7
									C756.5,104.7,753.9,102.2,750.8,102.2z M750.8,86.2c-3.2,0-5.7,2.5-5.7,5.7s2.5,5.7,5.7,5.7c3.2,0,5.7-2.5,5.7-5.7
									S753.9,86.2,750.8,86.2z M750.8,70.4c-3.2,0-5.7,2.5-5.7,5.7c0,3.2,2.5,5.7,5.7,5.7c3.2,0,5.7-2.5,5.7-5.7
									C756.5,72.9,753.9,70.4,750.8,70.4z M750.8,54.4c-3.2,0-5.7,2.5-5.7,5.7s2.5,5.7,5.7,5.7c3.2,0,5.7-2.5,5.7-5.7
									S753.9,54.4,750.8,54.4z M750.8,38.4c-3.2,0-5.7,2.5-5.7,5.7c0,3.2,2.5,5.7,5.7,5.7c3.2,0,5.7-2.5,5.7-5.7
									C756.5,40.9,753.9,38.4,750.8,38.4z M750.8,22.4c-3.2,0-5.7,2.5-5.7,5.7s2.5,5.7,5.7,5.7c3.2,0,5.7-2.5,5.7-5.7
									S753.9,22.4,750.8,22.4z M750.8,6.4c-3.2,0-5.7,2.5-5.7,5.7s2.5,5.7,5.7,5.7c3.2,0,5.7-2.5,5.7-5.7S753.9,6.4,750.8,6.4z
									 M750.8-9.6c-3.2,0-5.7,2.5-5.7,5.7s2.5,5.7,5.7,5.7c3.2,0,5.7-2.5,5.7-5.7S753.9-9.6,750.8-9.6z M750.8-25.6
									c-3.2,0-5.7,2.5-5.7,5.7s2.5,5.7,5.7,5.7c3.2,0,5.7-2.5,5.7-5.7C756.5-22.9,753.9-25.6,750.8-25.6z"/>
							</g>
						</g>
					</g>
				</g>
			</g>
			<g>
				<g>
					<linearGradient id="SVGID_21_" gradientUnits="userSpaceOnUse" x1="188.4283" y1="263.2896" x2="455.432" y2="263.2896">
						<stop  offset="0" style="stop-color:#FFA744"/>
						<stop  offset="1" style="stop-color:#BF7D33"/>
					</linearGradient>
					<path class="st23" d="M452.8,335.6L193.8,187c-1.7-1-3.7-0.9-5.3,0l267,153.2C455.4,338.4,454.5,336.6,452.8,335.6z"/>
					<g>

							<linearGradient id="SVGID_22_" gradientUnits="userSpaceOnUse" x1="317.7785" y1="181.1468" x2="323.4716" y2="191.0074" gradientTransform="matrix(1 0 0 -1 0 452)">
							<stop  offset="0.25" style="stop-color:#FFA744"/>
							<stop  offset="0.85" style="stop-color:#BF7D33"/>
						</linearGradient>
						<line class="st24" x1="191.1" y1="191.6" x2="450.1" y2="340.2"/>
						<g>
							<radialGradient id="SVGID_23_" cx="200.4285" cy="196.9339" r="4.0025" gradientUnits="userSpaceOnUse">
								<stop  offset="0.45" style="stop-color:#FFFFFF"/>
								<stop  offset="1" style="stop-color:#D6D0E7"/>
							</radialGradient>
							<circle class="st25" cx="200.4" cy="196.9" r="4"/>
							<radialGradient id="SVGID_24_" cx="216.1609" cy="206.0022" r="4.0025" gradientUnits="userSpaceOnUse">
								<stop  offset="0.45" style="stop-color:#FFFFFF"/>
								<stop  offset="1" style="stop-color:#D6D0E7"/>
							</radialGradient>
							<circle class="st26" cx="216.2" cy="206" r="4"/>
							<radialGradient id="SVGID_25_" cx="232.2562" cy="215.2414" r="4.0025" gradientUnits="userSpaceOnUse">
								<stop  offset="0.45" style="stop-color:#FFFFFF"/>
								<stop  offset="1" style="stop-color:#D6D0E7"/>
							</radialGradient>
							<circle class="st27" cx="232.3" cy="215.2" r="4"/>
							<radialGradient id="SVGID_26_" cx="249.0148" cy="225" r="4.0025" gradientUnits="userSpaceOnUse">
								<stop  offset="0.45" style="stop-color:#FFFFFF"/>
								<stop  offset="1" style="stop-color:#D6D0E7"/>
							</radialGradient>
							<circle class="st28" cx="249" cy="225" r="4"/>
							<radialGradient id="SVGID_27_" cx="257.8826" cy="230.1616" r="4.0025" gradientUnits="userSpaceOnUse">
								<stop  offset="0.45" style="stop-color:#FFFFFF"/>
								<stop  offset="1" style="stop-color:#D6D0E7"/>
							</radialGradient>
							<circle class="st29" cx="257.9" cy="230.2" r="4"/>
							<radialGradient id="SVGID_28_" cx="280.2401" cy="242.8929" r="4.0025" gradientUnits="userSpaceOnUse">
								<stop  offset="0.45" style="stop-color:#FFFFFF"/>
								<stop  offset="1" style="stop-color:#D6D0E7"/>
							</radialGradient>
							<circle class="st30" cx="280.2" cy="242.9" r="4"/>
							<radialGradient id="SVGID_29_" cx="294.4237" cy="250.8978" r="4.0025" gradientUnits="userSpaceOnUse">
								<stop  offset="0.45" style="stop-color:#FFFFFF"/>
								<stop  offset="1" style="stop-color:#D6D0E7"/>
							</radialGradient>
							<circle class="st31" cx="294.4" cy="250.9" r="4"/>
							<radialGradient id="SVGID_30_" cx="302.4286" cy="255.4907" r="4.0025" gradientUnits="userSpaceOnUse">
								<stop  offset="0.45" style="stop-color:#FFFFFF"/>
								<stop  offset="1" style="stop-color:#D6D0E7"/>
							</radialGradient>
							<circle class="st32" cx="302.4" cy="255.5" r="4"/>
							<radialGradient id="SVGID_31_" cx="312.2841" cy="261.2664" r="4.0025" gradientUnits="userSpaceOnUse">
								<stop  offset="0.45" style="stop-color:#FFFFFF"/>
								<stop  offset="1" style="stop-color:#D6D0E7"/>
							</radialGradient>
							<circle class="st33" cx="312.3" cy="261.3" r="4"/>
							<radialGradient id="SVGID_32_" cx="333.0277" cy="273.0294" r="4.0025" gradientUnits="userSpaceOnUse">
								<stop  offset="0.45" style="stop-color:#FFFFFF"/>
								<stop  offset="1" style="stop-color:#D6D0E7"/>
							</radialGradient>
							<circle class="st34" cx="333" cy="273" r="4"/>
							<radialGradient id="SVGID_33_" cx="353.9147" cy="285.1082" r="4.0025" gradientUnits="userSpaceOnUse">
								<stop  offset="0.45" style="stop-color:#FFFFFF"/>
								<stop  offset="1" style="stop-color:#D6D0E7"/>
							</radialGradient>
							<circle class="st35" cx="353.9" cy="285.1" r="4"/>
							<radialGradient id="SVGID_34_" cx="362.3195" cy="289.7655" r="4.0025" gradientUnits="userSpaceOnUse">
								<stop  offset="0.45" style="stop-color:#FFFFFF"/>
								<stop  offset="1" style="stop-color:#D6D0E7"/>
							</radialGradient>
							<circle class="st36" cx="362.3" cy="289.8" r="4"/>
							<radialGradient id="SVGID_35_" cx="382.3942" cy="301.4974" r="4.0025" gradientUnits="userSpaceOnUse">
								<stop  offset="0.45" style="stop-color:#FFFFFF"/>
								<stop  offset="1" style="stop-color:#D6D0E7"/>
							</radialGradient>
							<circle class="st37" cx="382.4" cy="301.5" r="4"/>
						</g>
						<path class="st38" d="M188.5,196.2l259,148.6c1.7,1,3.7,0.9,5.3,0l-267-153.2C185.8,193.4,186.8,195.2,188.5,196.2z"/>
					</g>
					<g>

							<linearGradient id="SVGID_36_" gradientUnits="userSpaceOnUse" x1="2259.7659" y1="108.7651" x2="1991.9683" y2="263.3782" gradientTransform="matrix(-1 0 0 -1 2705.2341 452)">
							<stop  offset="0.15" style="stop-color:#BF7D33"/>
							<stop  offset="0.75" style="stop-color:#FFA744"/>
						</linearGradient>
						<line class="st39" x1="708.9" y1="191.6" x2="449.9" y2="340.2"/>
						<g class="st40">
							<circle class="st41" cx="692.7" cy="201" r="4"/>
							<circle class="st41" cx="667.7" cy="215.2" r="4"/>
							<circle class="st41" cx="651" cy="225" r="4"/>
							<circle class="st41" cx="659.7" cy="220" r="4"/>
							<circle class="st41" cx="625.5" cy="239.6" r="4"/>
							<circle class="st41" cx="605.6" cy="250.9" r="4"/>
							<circle class="st41" cx="576.2" cy="267.8" r="4"/>
							<circle class="st41" cx="567" cy="273" r="4"/>
							<circle class="st41" cx="546.1" cy="285.1" r="4"/>
							<circle class="st41" cx="524.8" cy="297.2" r="4"/>
						</g>
					</g>
				</g>
			</g>
			<g>
				<g>
					<linearGradient id="SVGID_37_" gradientUnits="userSpaceOnUse" x1="450" y1="390.4412" x2="450" y2="295.4491">
						<stop  offset="0" style="stop-color:#28104C"/>
						<stop  offset="1" style="stop-color:#9452FF"/>
					</linearGradient>
					<path class="st42" d="M532.3,328h-22l-54-31.2c-3.5-2-9.6-1.7-13.6,0.6l-53,30.6h-22v15h0c-0.1,1.4,0.7,2.7,2.3,3.6l73.6,42.5
						c3.5,2,9.6,1.7,13.6-0.6l71.7-41.4c2.1-1.2,3.2-2.7,3.3-4.2h0V328z"/>
					<linearGradient id="SVGID_38_" gradientUnits="userSpaceOnUse" x1="450" y1="375.4762" x2="450" y2="280.4842">
						<stop  offset="0" style="stop-color:#491E8C"/>
						<stop  offset="1" style="stop-color:#9452FF"/>
					</linearGradient>
					<path class="st43" d="M443.7,374.1l-73.6-42.5c-3.5-2-3-5.5,1-7.8l71.7-41.4c4-2.3,10.1-2.6,13.6-0.6l73.6,42.5
						c3.5,2,3,5.5-1,7.8l-71.7,41.4C453.3,375.9,447.2,376.1,443.7,374.1z"/>
				</g>
				<g>
					<path class="st13" d="M435.4,306.7c20.8-5,44.7,0.7,53.3,12.7c8.6,12-1.3,25.8-22.1,30.8c-20.8,5-44.7-0.7-53.3-12.7
						C404.7,325.4,414.5,311.6,435.4,306.7z"/>
					<path class="st14" d="M444,318.8c9.2-2.2,19.8,0.3,23.6,5.6c3.8,5.3-0.6,11.4-9.8,13.6s-19.8-0.3-23.6-5.6
						C430.4,327.1,434.8,321,444,318.8z"/>
					<path class="st15" d="M444,312.9c9.2-2.2,19.8,0.3,23.6,5.6c3.8,5.3-0.6,11.4-9.8,13.6c-9.2,2.2-19.8-0.3-23.6-5.6
						C430.4,321.2,434.8,315.1,444,312.9z"/>
				</g>
				<g>

						<linearGradient id="SVGID_39_" gradientUnits="userSpaceOnUse" x1="450.955" y1="264.0961" x2="450.955" y2="99.7117" gradientTransform="matrix(1 0 0 1 0 63)">
						<stop  offset="0" style="stop-color:#FFA744"/>
						<stop  offset="0.1" style="stop-color:#FFFFFF;stop-opacity:0.9"/>
						<stop  offset="1" style="stop-color:#FFFFFF;stop-opacity:0"/>
					</linearGradient>
					<path class="st44" d="M462.5,321c0,0,1.5,6.1-11.6,6.1s-11.6-6.1-11.6-6.1V162.7h23.2V321z"/>
					<g class="st17">
						<g>
							<g>
								<defs>
									<path id="SVGID_40_" d="M462.5,321c0,0,1.5,6.1-11.6,6.1s-11.6-6.1-11.6-6.1V162.7h23.2V321z"/>
								</defs>
								<clipPath id="SVGID_41_">
									<use xlink:href="#SVGID_40_"  style="overflow:visible;"/>
								</clipPath>

									<linearGradient id="SVGID_42_" gradientUnits="userSpaceOnUse" x1="450.955" y1="271.2544" x2="450.955" y2="84.088" gradientTransform="matrix(1 0 0 1 0 63)">
									<stop  offset="0.25" style="stop-color:#FFA744"/>
									<stop  offset="1" style="stop-color:#FFFFFF;stop-opacity:0"/>
								</linearGradient>
								<path class="st45" d="M451,322.9c-3.2,0-5.7,2.5-5.7,5.7c0,3.2,2.5,5.7,5.7,5.7c3.2,0,5.7-2.5,5.7-5.7
									C456.6,325.4,454.1,322.9,451,322.9z M451,322.9c-3.2,0-5.7,2.5-5.7,5.7c0,3.2,2.5,5.7,5.7,5.7c3.2,0,5.7-2.5,5.7-5.7
									C456.6,325.4,454.1,322.9,451,322.9z M451,306.9c-3.2,0-5.7,2.5-5.7,5.7c0,3.2,2.5,5.7,5.7,5.7c3.2,0,5.7-2.5,5.7-5.7
									C456.6,309.4,454.1,306.9,451,306.9z M451,290.9c-3.2,0-5.7,2.5-5.7,5.7s2.5,5.7,5.7,5.7c3.2,0,5.7-2.5,5.7-5.7
									S454.1,290.9,451,290.9z M451,274.9c-3.2,0-5.7,2.5-5.7,5.7s2.5,5.7,5.7,5.7c3.2,0,5.7-2.5,5.7-5.7
									C456.6,277.4,454.1,274.9,451,274.9z M451,258.9c-3.2,0-5.7,2.5-5.7,5.7c0,3.2,2.5,5.7,5.7,5.7c3.2,0,5.7-2.5,5.7-5.7
									C456.6,261.4,454.1,258.9,451,258.9z M451,243.1c-3.2,0-5.7,2.5-5.7,5.7s2.5,5.7,5.7,5.7c3.2,0,5.7-2.5,5.7-5.7
									C456.6,245.6,454.1,243.1,451,243.1z M451,227.1c-3.2,0-5.7,2.5-5.7,5.7c0,3.2,2.5,5.7,5.7,5.7c3.2,0,5.7-2.5,5.7-5.7
									C456.6,229.6,454.1,227.1,451,227.1z M451,211.1c-3.2,0-5.7,2.5-5.7,5.7s2.5,5.7,5.7,5.7c3.2,0,5.7-2.5,5.7-5.7
									S454.1,211.1,451,211.1z M451,195.1c-3.2,0-5.7,2.5-5.7,5.7s2.5,5.7,5.7,5.7c3.2,0,5.7-2.5,5.7-5.7S454.1,195.1,451,195.1z
									 M451,179.1c-3.2,0-5.7,2.5-5.7,5.7c0,3.2,2.5,5.7,5.7,5.7c3.2,0,5.7-2.5,5.7-5.7C456.6,181.6,454.1,179.1,451,179.1z
									 M451,163.1c-3.2,0-5.7,2.5-5.7,5.7s2.5,5.7,5.7,5.7c3.2,0,5.7-2.5,5.7-5.7S454.1,163.1,451,163.1z M451,147.1
									c-3.2,0-5.7,2.5-5.7,5.7s2.5,5.7,5.7,5.7c3.2,0,5.7-2.5,5.7-5.7C456.6,149.8,454.1,147.1,451,147.1z"/>
							</g>
						</g>
					</g>
				</g>
			</g>
		</g>
	</g>
</g>
</svg>
