<svg version="1.1" id="Layer_1" xmlns="http://www.w3.org/2000/svg" xmlns:xlink="http://www.w3.org/1999/xlink" x="0px" y="0px"
	 viewBox="0 0 900 450" style="enable-background:new 0 0 900 450;" xml:space="preserve">
<style type="text/css">
	.st0{fill:none;stroke:#D6D0E7;stroke-linecap:round;stroke-linejoin:round;stroke-miterlimit:10;stroke-dasharray:0.9989,3.9956;}
	.st1{opacity:0.15;fill:url(#SVGID_1_);enable-background:new    ;}
	.st2{fill:url(#SVGID_2_);}
	.st3{fill:url(#SVGID_3_);}
	.st4{fill:#D6D0E7;}
	.st5{display:none;fill:#1D073F;}
	.st6{opacity:0.45;fill:url(#SVGID_4_);enable-background:new    ;}
	.st7{opacity:0.45;fill:url(#SVGID_5_);enable-background:new    ;}
	.st8{fill:url(#SVGID_6_);}
	.st9{fill:none;stroke:#FFA744;stroke-width:2;stroke-linecap:round;stroke-linejoin:round;stroke-dasharray:1,4;}
	.st10{fill:#FFA744;}
	.st11{fill:#FFFFFF;}
	.st12{fill:#343434;}
	.st13{fill:#8C8C8C;}
	.st14{fill:#3C3C3B;}
	.st15{fill:#141414;}
	.st16{fill:#393939;}
	.st17{fill:#2CA01C;}
	.st18{fill:#9DE1F3;}
	.st19{fill:#27B4E1;}
	.st20{fill:#1A82E2;}
	.st21{fill:#239FD7;}
</style>
<g>
	<g>
		<polygon class="st0" points="150.3,268.3 0.5,181.7 150.3,95.2 300.2,181.7 		"/>
		<polygon class="st0" points="749.7,268.3 599.8,181.7 749.7,95.2 899.5,181.7 		"/>
		<polygon class="st0" points="300.2,181.7 150.3,95.2 300.2,8.7 450,95.2 		"/>
		<polygon class="st0" points="599.8,181.7 450,95.2 599.8,8.7 749.7,95.2 		"/>
		<polygon class="st0" points="749.7,441.3 599.8,354.8 749.7,268.3 899.5,354.8 		"/>
		<polygon class="st0" points="150.3,441.3 0.5,354.8 150.3,268.3 300.2,354.8 		"/>
		<g>
			<polyline class="st0" points="300.2,354.8 300.2,354.8 450,441.3 599.8,354.8 			"/>
		</g>
	</g>
	<g>
		<g>
			<g>

					<linearGradient id="SVGID_1_" gradientUnits="userSpaceOnUse" x1="450" y1="78" x2="450" y2="285.5" gradientTransform="matrix(1 0 0 -1 0 450)">
					<stop  offset="0" style="stop-color:#251440"/>
					<stop  offset="0.75" style="stop-color:#D6D0E7"/>
				</linearGradient>
				<polygon class="st1" points="450,372 270.2,268.2 450,164.5 629.8,268.2 				"/>

					<linearGradient id="SVGID_2_" gradientUnits="userSpaceOnUse" x1="450" y1="88" x2="450" y2="195.7" gradientTransform="matrix(1 0 0 -1 0 450)">
					<stop  offset="0" style="stop-color:#4D495A"/>
					<stop  offset="1" style="stop-color:#847C9A"/>
				</linearGradient>
				<polygon class="st2" points="270.2,254.3 270.2,258.3 450,362 629.8,258.3 629.8,254.3 450,358.1 				"/>
				<g>

						<linearGradient id="SVGID_3_" gradientUnits="userSpaceOnUse" x1="450" y1="91.9" x2="450" y2="299.5" gradientTransform="matrix(1 0 0 -1 0 450)">
						<stop  offset="0" style="stop-color:#E5E5E5"/>
						<stop  offset="1" style="stop-color:#FFFFFF"/>
					</linearGradient>
					<polygon class="st3" points="450,358.1 270.2,254.3 450,150.5 629.8,254.3 					"/>
				</g>
				<g id="App_2_">
					<path id="border_1_" class="st4" d="M582.7,251.3l-125.7-73c-1.7-0.9-3.9-1.4-6.4-1.6c-1.7,0-4.5,0.5-6.5,1.6l-126.3,72.5
						c-3.3,1.9-3.2,4.8,0.2,6.7l125.6,72.9c3.4,1.9,8.3,1.9,11.6-0.1l112.6-64.8l13.7-7.7C585.6,256.5,585.3,253.5,582.7,251.3z
						 M481.4,201.2c1.4,0.7,1.7,1.9,0.1,2.9c-1.3,0.8-3.3,1-5,0c-1.4-0.7-1.7-1.9-0.1-2.9C477.9,200.6,480.4,200.3,481.4,201.2z
						 M471.7,195.4c1.4,0.7,1.7,1.9,0.1,2.9c-1.3,0.8-3.3,1-5,0c-1.4-0.7-1.7-1.9-0.1-2.9C468.2,194.8,470.5,194.9,471.7,195.4z
						 M462.3,189.8c1.4,0.7,1.7,1.9,0.1,2.9c-1.3,0.8-3.3,1-5,0c-1.4-0.7-1.7-1.9-0.1-2.9C458.4,189.4,460.8,189.1,462.3,189.8z
						 M450.8,322.4c-0.8,0.3-2.2,0.5-3.3,0l-114.8-66.6c-0.5-0.4-0.9-1.2,0-1.9L442,191l118.1,68.5L450.8,322.4z M442.8,198.8
						l23.7,13.8l-4.4,2.4l-23.7-13.8L442.8,198.8z M425.4,208.5l14,8l-4.4,2.4l-14-8L425.4,208.5z M442.9,219l5.6,3.3l-4.4,2.4
						l-5.6-3.3L442.9,219z M451.3,223.7l5.6,3.3l-4.4,2.4l-5.6-3.3L451.3,223.7z M449.8,213.1l5.6,3.3l-4.4,2.4l-5.6-3.3
						L449.8,213.1z M467.3,223.2L484,233l-4.4,2.4l-16.7-9.8L467.3,223.2z M429.9,249.9l10.3,5.9l-4.4,2.4l-10.3-5.9L429.9,249.9z
						 M443.9,257.9l15.4,8.7l-4.4,2.4l-15.4-8.7L443.9,257.9z M400.2,223l12,6.8l-4.4,2.4l-12-6.8L400.2,223z M434.3,233.4l5.6,3.3
						l-4.4,2.4l-5.6-3.3L434.3,233.4z M461.7,248.9l10.6,6.1l-4.4,2.4l-10.6-6.1L461.7,248.9z M475.2,257.1l20.9,12l-4.4,2.4
						l-20.9-12L475.2,257.1z M416.4,232.4l5.6,3.3l-4.4,2.4l-5.6-3.3L416.4,232.4z M425.1,237.3l5.6,3.3l-4.4,2.4l-5.6-3.3
						L425.1,237.3z M469.9,214.1l7.8,4.7l-4.4,2.4l-7.8-4.7L469.9,214.1z M481.1,220.7l10.3,5.9L487,229l-10.3-5.9L481.1,220.7z
						 M495,228.6l15.4,8.7l-4.4,2.4l-15.4-8.7L495,228.6z M434.3,203.8l12,6.8l-4.4,2.4l-12-6.8L434.3,203.8z M488.3,235.2l6.1,3.7
						l-4.4,2.4l-6.1-3.7L488.3,235.2z M478.3,239.5l10.6,6.1l-4.4,2.4l-10.6-6.1L478.3,239.5z M492,247.2l20.9,12l-4.4,2.4l-20.9-12
						L492,247.2z M459.9,228.7l15.4,8.7l-4.4,2.4l-15.4-8.7L459.9,228.7z M416.9,213.5l5.6,3.3l-4.4,2.4l-5.6-3.3L416.9,213.5z
						 M424.9,218.4l3.1,1.7l-4.4,2.4l-3.1-1.7L424.9,218.4z M458.4,218l5.6,3.3l-4.4,2.4l-5.6-3.3L458.4,218z M391.9,228.2
						l23.7,13.8l-4.4,2.4l-23.7-13.8L391.9,228.2z M419.1,243.6l7.8,4.7l-4.4,2.4l-7.8-4.7L419.1,243.6z M454.5,254.7l6.1,3.7
						l-4.4,2.4l-6.1-3.7L454.5,254.7z M408.7,218.4l14,8l-4.4,2.4l-14-8L408.7,218.4z M426.3,228.5l5.6,3.3l-4.4,2.4l-5.6-3.3
						L426.3,228.5z M443.6,238.4l15.4,8.7l-4.4,2.4l-15.4-8.7L443.6,238.4z M433.7,242.3l16.7,9.8l-4.4,2.4l-16.7-9.8L433.7,242.3z"
						/>
					<path id="terminal_2_" class="st4" d="M386.9,252.1c-0.1,0.4-0.2,0.7-0.4,1.1l-2.8,1.4c-0.4,0.2-1,0.1-1.4,0.2l-19-3.8l6.4,11
						c-0.1,0.4-0.2,0.7-0.4,1.1l-2.8,1.4c-0.4,0.2-1,0.1-1.4,0.2c-0.6-0.1-0.6-0.1-0.9-0.3c-0.3-0.2-0.3-0.2-0.1-0.6L356,249
						c0.1-0.4,0.2-0.7,0.4-1.1l2.4-1.3c0.4-0.2,1-0.1,1.4-0.2l25.6,4.7C386.3,251.7,386.6,251.9,386.9,252.1z M413.5,260.9l-2.2-1.4
						c-0.3-0.2-0.9-0.3-1.9-0.2l-36.4,9.3c-0.6-0.1-0.8,0.3-0.6,0.9c-0.1,0.4,0.1,0.6,0.8,0.7l2.2,1.4c0.3,0.2,0.9,0.3,1.9,0.2
						l36.7-9c0.6,0.1,0.8-0.3,0.6-0.9C413.6,261.5,413.7,261.1,413.5,260.9z M425.1,284.3l-8.1-14.8c0.1-0.4-0.1-0.6-1.2-0.5
						c-0.6-0.1-1.3-0.1-1.4,0.2l-2.8,1.4c-0.4,0.2-0.5,0.5-0.4,1.1l6.4,11l-19-3.8c-0.6-0.1-1.3-0.1-1.4,0.2l-2.8,1.4
						c-0.4,0.2-0.5,0.5-0.4,1.1c-0.1,0.4-0.1,0.4,0.1,0.6c0.3,0.2,0.3,0.2,0.9,0.3l25.6,4.7c0.6,0.1,1.3,0.1,1.4-0.2l2.4-1.3
						C425.2,284.9,425.6,284.8,425.1,284.3z"/>
				</g>
			</g>
			<g>
				<polygon class="st5" points="450,316.8 270.2,213 450,109.2 629.8,213 				"/>

					<linearGradient id="SVGID_4_" gradientUnits="userSpaceOnUse" x1="450" y1="137.2" x2="450" y2="344.8" gradientTransform="matrix(1 0 0 -1 0 450)">
					<stop  offset="0" style="stop-color:#491E8C"/>
					<stop  offset="1" style="stop-color:#9452FF"/>
				</linearGradient>
				<polygon class="st6" points="450,312.8 270.2,209 450,105.2 629.8,209 				"/>
			</g>
			<g>
				<polygon class="st5" points="450,271.5 270.2,167.7 450,64 629.8,167.7 				"/>

					<linearGradient id="SVGID_5_" gradientUnits="userSpaceOnUse" x1="450" y1="182.5" x2="450" y2="390" gradientTransform="matrix(1 0 0 -1 0 450)">
					<stop  offset="0" style="stop-color:#491E8C"/>
					<stop  offset="1" style="stop-color:#9452FF"/>
				</linearGradient>
				<polygon class="st7" points="450,267.5 270.2,163.8 450,60 629.8,163.8 				"/>
			</g>
			<g>
				<polygon class="st5" points="450,226.3 270.2,122.5 450,18.7 629.8,122.5 				"/>

					<linearGradient id="SVGID_6_" gradientUnits="userSpaceOnUse" x1="450" y1="227.7" x2="450" y2="435.3" gradientTransform="matrix(1 0 0 -1 0 450)">
					<stop  offset="0" style="stop-color:#491E8C"/>
					<stop  offset="1" style="stop-color:#9452FF"/>
				</linearGradient>
				<polygon class="st8" points="450,222.3 270.2,118.5 450,14.7 629.8,118.5 				"/>
			</g>
		</g>
		<g>
			<g>
				<g>
					<line class="st9" x1="270.2" y1="117.5" x2="94.4" y2="117.5"/>
					<g>
						<circle class="st10" cx="270.2" cy="117.5" r="7.5"/>
					</g>
				</g>
			</g>
			<g>
				<path class="st11" d="M97.3,156.5c-21.5,0-39-17.5-39-39s17.5-39,39-39s39,17.5,39,39S118.8,156.5,97.3,156.5z"/>
				<path class="st10" d="M97.3,79.5c21,0,38,17,38,38s-17,38-38,38s-38-17-38-38S76.3,79.5,97.3,79.5 M97.3,77.5
					c-22.1,0-40,17.9-40,40s17.9,40,40,40s40-17.9,40-40S119.4,77.5,97.3,77.5L97.3,77.5z"/>
			</g>
			<g>
				<g>
					<line class="st9" x1="270.2" y1="209" x2="154.4" y2="209"/>
					<g>
						<circle class="st10" cx="270.2" cy="209" r="7.5"/>
					</g>
				</g>
			</g>
			<g>
				<path class="st11" d="M157.3,248c-21.5,0-39-17.5-39-39s17.5-39,39-39s39,17.5,39,39S178.8,248,157.3,248z"/>
				<path class="st10" d="M157.3,171c21,0,38,17,38,38s-17,38-38,38s-38-17-38-38S136.3,171,157.3,171 M157.3,169
					c-22.1,0-40,17.9-40,40s17.9,40,40,40s40-17.9,40-40S179.4,169,157.3,169L157.3,169z"/>
			</g>
			<g>
				<g>
					<line class="st9" x1="629.8" y1="163.8" x2="805.6" y2="163.8"/>
					<g>
						<circle class="st10" cx="629.8" cy="163.8" r="7.5"/>
					</g>
				</g>
			</g>
			<g>
				<path class="st11" d="M802.7,202.8c-21.5,0-39-17.5-39-39s17.5-39,39-39s39,17.5,39,39S824.2,202.8,802.7,202.8z"/>
				<path class="st10" d="M802.7,125.8c21,0,38,17,38,38s-17,38-38,38s-38-17-38-38S781.8,125.8,802.7,125.8 M802.7,123.8
					c-22.1,0-40,17.9-40,40s17.9,40,40,40s40-17.9,40-40S824.8,123.8,802.7,123.8L802.7,123.8z"/>
			</g>
			<g>
				<polygon class="st12" points="97.3,92.5 96.9,93.6 96.9,126.7 97.3,127 112.6,118 				"/>
				<polygon class="st13" points="97.3,92.5 81.9,118 97.3,127 97.3,111 				"/>
				<polygon class="st14" points="97.3,129.9 97.1,130.2 97.1,141.9 97.3,142.5 112.6,120.9 				"/>
				<polygon class="st13" points="97.3,142.5 97.3,129.9 81.9,120.9 				"/>
				<polygon class="st15" points="97.3,127 112.6,118 97.3,111 				"/>
				<polygon class="st16" points="81.9,118 97.3,127 97.3,111 				"/>
			</g>
			<g id="Icon_3_">
				<circle id="Circle_3_" class="st17" cx="157.3" cy="209" r="25"/>
				<path id="qb_2_" class="st11" d="M139.2,209c0,5.4,4.4,9.7,9.7,9.7h1.4v-3.6H149c-3.4,0-6.1-2.7-6.1-6.1c0-3.4,2.7-6.1,6.1-6.1
					h3.3c0,0,0,18.5,0,18.9c0,2,1.6,3.6,3.6,3.6v-26.1c0,0-3.7,0-6.9,0C143.6,199.3,139.2,203.6,139.2,209z M165.6,199.3h-1.4v3.6
					h1.4c3.4,0,6.1,2.7,6.1,6.1c0,3.4-2.7,6.1-6.1,6.1h-3.3c0,0,0-18.5,0-18.9c0-2-1.6-3.6-3.6-3.6v26.1c0,0,3.7,0,6.9,0
					c5.4,0,9.7-4.4,9.7-9.7C175.4,203.6,171,199.3,165.6,199.3z"/>
			</g>
			<g>
				<polygon class="st18" points="794.4,155.5 777.7,155.5 777.7,172.1 777.7,188.8 794.4,188.8 811,188.8 811,172.1 811,155.5
					"/>
				<polygon class="st19" points="794.4,138.8 794.4,155.5 794.4,172.1 811,172.1 827.7,172.1 827.7,138.8 				"/>
				<polygon class="st20" points="777.7,188.8 794.4,188.8 794.4,172.1 777.7,172.1 				"/>
				<polygon class="st20" points="811,155.5 827.7,155.5 827.7,138.8 811,138.8 				"/>
				<polygon class="st21" points="794.4,172.1 811,172.1 811,155.5 794.4,155.5 				"/>
			</g>
		</g>
	</g>
</g>
</svg>
