<svg version="1.1" id="Layer_1" xmlns="http://www.w3.org/2000/svg" xmlns:xlink="http://www.w3.org/1999/xlink" x="0px" y="0px"
	 viewBox="0 0 900 450" style="enable-background:new 0 0 900 450;" xml:space="preserve">
<style type="text/css">
	.st0{fill:none;stroke:#D6D0E7;stroke-linecap:round;stroke-linejoin:round;stroke-miterlimit:10;stroke-dasharray:0.9989,3.9956;}
	.st1{opacity:0.15;fill:url(#SVGID_1_);}
	.st2{fill:url(#SVGID_2_);}
	.st3{fill:url(#SVGID_3_);}
	.st4{fill:#D6D0E7;}
	.st5{display:none;fill:#1D073F;}
	.st6{opacity:0.45;fill:url(#SVGID_4_);}
	.st7{opacity:0.45;fill:url(#SVGID_5_);}
	.st8{fill:url(#SVGID_6_);}
	.st9{fill:none;stroke:#FFA744;stroke-width:2;stroke-linecap:round;stroke-linejoin:round;stroke-dasharray:1,4;}
	.st10{fill:#FFA744;}
	.st11{fill:#FFFFFF;}
	.st12{fill:#343434;}
	.st13{fill:#8C8C8C;}
	.st14{fill:#3C3C3B;}
	.st15{fill:#141414;}
	.st16{fill:#393939;}
	.st17{fill:#684C46;}
	.st18{fill:#F5DCBA;}
	.st19{fill:#0788BF;}
	.st20{fill:#46B8E3;}
	.st21{fill:#FFD14F;}
	.st22{fill:#122030;}
	.st23{fill:#EABE8D;}
	.st24{fill:#9C7356;}
	.st25{fill:#2CA01C;}
</style>
<g>
	<g>
		<polygon class="st0" points="150.3,268.3 0.5,181.7 150.3,95.2 300.2,181.7 		"/>
		<polygon class="st0" points="749.7,268.3 599.8,181.7 749.7,95.2 899.5,181.7 		"/>
		<polygon class="st0" points="300.2,181.7 150.3,95.2 300.2,8.7 450,95.2 		"/>
		<polygon class="st0" points="599.8,181.7 450,95.2 599.8,8.7 749.7,95.2 		"/>
		<polygon class="st0" points="749.7,441.3 599.8,354.8 749.7,268.3 899.5,354.8 		"/>
		<polygon class="st0" points="150.3,441.3 0.5,354.8 150.3,268.3 300.2,354.8 		"/>
		<g>
			<polyline class="st0" points="300.2,354.8 300.2,354.8 450,441.3 599.8,354.8 			"/>
		</g>
	</g>
	<g>
		<g>
			<g>
				<linearGradient id="SVGID_1_" gradientUnits="userSpaceOnUse" x1="450.0002" y1="372.036" x2="450.0002" y2="164.4547">
					<stop  offset="0" style="stop-color:#251440"/>
					<stop  offset="0.75" style="stop-color:#D6D0E7"/>
				</linearGradient>
				<polygon class="st1" points="450,372 270.2,268.2 450,164.5 629.8,268.2 				"/>
				<linearGradient id="SVGID_2_" gradientUnits="userSpaceOnUse" x1="450.0002" y1="362.0489" x2="450.0002" y2="254.2646">
					<stop  offset="0" style="stop-color:#4D495A"/>
					<stop  offset="1" style="stop-color:#847C9A"/>
				</linearGradient>
				<polygon class="st2" points="270.2,254.3 270.2,258.3 450,362 629.8,258.3 629.8,254.3 450,358.1 				"/>
				<g>
					<linearGradient id="SVGID_3_" gradientUnits="userSpaceOnUse" x1="450.0002" y1="358.0556" x2="450.0002" y2="150.4742">
						<stop  offset="0" style="stop-color:#E5E5E5"/>
						<stop  offset="1" style="stop-color:#FFFFFF"/>
					</linearGradient>
					<polygon class="st3" points="450,358.1 270.2,254.3 450,150.5 629.8,254.3 					"/>
				</g>
				<g id="App_2_">
					<path id="border_1_" class="st4" d="M582.7,251.3L457,178.3c-1.7-0.9-3.9-1.4-6.4-1.6c-1.7,0-4.5,0.5-6.5,1.6l-126.3,72.5
						c-3.3,1.9-3.2,4.8,0.2,6.7l125.6,72.9c3.4,1.9,8.3,1.9,11.6-0.1l112.6-64.8l13.7-7.7C585.6,256.5,585.3,253.5,582.7,251.3z
						 M481.4,201.2c1.4,0.7,1.7,1.9,0.1,2.9c-1.3,0.8-3.3,1-5,0c-1.4-0.7-1.7-1.9-0.1-2.9C477.9,200.6,480.4,200.3,481.4,201.2z
						 M471.7,195.4c1.4,0.7,1.7,1.9,0.1,2.9c-1.3,0.8-3.3,1-5,0c-1.4-0.7-1.7-1.9-0.1-2.9C468.2,194.8,470.5,194.9,471.7,195.4z
						 M462.3,189.8c1.4,0.7,1.7,1.9,0.1,2.9c-1.3,0.8-3.3,1-5,0c-1.4-0.7-1.7-1.9-0.1-2.9C458.4,189.4,460.8,189.1,462.3,189.8z
						 M450.8,322.4c-0.8,0.3-2.2,0.5-3.3,0l-114.8-66.6c-0.5-0.4-0.9-1.2,0-1.9L442,191l118.1,68.5L450.8,322.4z M442.8,198.8
						l23.7,13.8l-4.4,2.4l-23.7-13.8L442.8,198.8z M425.4,208.5l14,8l-4.4,2.4l-14-8L425.4,208.5z M442.9,219l5.6,3.3l-4.4,2.4
						l-5.6-3.3L442.9,219z M451.3,223.7l5.6,3.3l-4.4,2.4l-5.6-3.3L451.3,223.7z M449.8,213.1l5.6,3.3l-4.4,2.4l-5.6-3.3
						L449.8,213.1z M467.3,223.2L484,233l-4.4,2.4l-16.7-9.8L467.3,223.2z M429.9,249.9l10.3,5.9l-4.4,2.4l-10.3-5.9L429.9,249.9z
						 M443.9,257.9l15.4,8.7l-4.4,2.4l-15.4-8.7L443.9,257.9z M400.2,223l12,6.8l-4.4,2.4l-12-6.8L400.2,223z M434.3,233.4l5.6,3.3
						l-4.4,2.4l-5.6-3.3L434.3,233.4z M461.7,248.9l10.6,6.1l-4.4,2.4l-10.6-6.1L461.7,248.9z M475.2,257.1l20.9,12l-4.4,2.4
						l-20.9-12L475.2,257.1z M416.4,232.4l5.6,3.3l-4.4,2.4l-5.6-3.3L416.4,232.4z M425.1,237.3l5.6,3.3l-4.4,2.4l-5.6-3.3
						L425.1,237.3z M469.9,214.1l7.8,4.7l-4.4,2.4l-7.8-4.7L469.9,214.1z M481.1,220.7l10.3,5.9l-4.4,2.4l-10.3-5.9L481.1,220.7z
						 M495,228.6l15.4,8.7l-4.4,2.4l-15.4-8.7L495,228.6z M434.3,203.8l12,6.8l-4.4,2.4l-12-6.8L434.3,203.8z M488.3,235.2l6.1,3.7
						l-4.4,2.4l-6.1-3.7L488.3,235.2z M478.3,239.5l10.6,6.1l-4.4,2.4l-10.6-6.1L478.3,239.5z M492,247.2l20.9,12l-4.4,2.4l-20.9-12
						L492,247.2z M459.9,228.7l15.4,8.7l-4.4,2.4l-15.4-8.7L459.9,228.7z M416.9,213.5l5.6,3.3l-4.4,2.4l-5.6-3.3L416.9,213.5z
						 M424.9,218.4l3.1,1.7l-4.4,2.4l-3.1-1.7L424.9,218.4z M458.4,218l5.6,3.3l-4.4,2.4l-5.6-3.3L458.4,218z M391.9,228.2
						l23.7,13.8l-4.4,2.4l-23.7-13.8L391.9,228.2z M419.1,243.6l7.8,4.7l-4.4,2.4l-7.8-4.7L419.1,243.6z M454.5,254.7l6.1,3.7
						l-4.4,2.4l-6.1-3.7L454.5,254.7z M408.7,218.4l14,8l-4.4,2.4l-14-8L408.7,218.4z M426.3,228.5l5.6,3.3l-4.4,2.4l-5.6-3.3
						L426.3,228.5z M443.6,238.4l15.4,8.7l-4.4,2.4l-15.4-8.7L443.6,238.4z M433.7,242.3l16.7,9.8l-4.4,2.4l-16.7-9.8L433.7,242.3z"
						/>
					<path id="terminal_2_" class="st4" d="M386.9,252.1c-0.1,0.4-0.2,0.7-0.4,1.1l-2.8,1.4c-0.4,0.2-1,0.1-1.4,0.2l-19-3.8l6.4,11
						c-0.1,0.4-0.2,0.7-0.4,1.1l-2.8,1.4c-0.4,0.2-1,0.1-1.4,0.2c-0.6-0.1-0.6-0.1-0.9-0.3c-0.3-0.2-0.3-0.2-0.1-0.6l-8.1-14.8
						c0.1-0.4,0.2-0.7,0.4-1.1l2.4-1.3c0.4-0.2,1-0.1,1.4-0.2l25.6,4.7C386.3,251.7,386.6,251.9,386.9,252.1z M413.5,260.9l-2.2-1.4
						c-0.3-0.2-0.9-0.3-1.9-0.2l-36.4,9.3c-0.6-0.1-0.8,0.3-0.6,0.9c-0.1,0.4,0.1,0.6,0.8,0.7l2.2,1.4c0.3,0.2,0.9,0.3,1.9,0.2
						l36.7-9c0.6,0.1,0.8-0.3,0.6-0.9C413.6,261.5,413.7,261.1,413.5,260.9z M425.1,284.3l-8.1-14.8c0.1-0.4-0.1-0.6-1.2-0.5
						c-0.6-0.1-1.3-0.1-1.4,0.2l-2.8,1.4c-0.4,0.2-0.5,0.5-0.4,1.1l6.4,11l-19-3.8c-0.6-0.1-1.3-0.1-1.4,0.2l-2.8,1.4
						c-0.4,0.2-0.5,0.5-0.4,1.1c-0.1,0.4-0.1,0.4,0.1,0.6c0.3,0.2,0.3,0.2,0.9,0.3l25.6,4.7c0.6,0.1,1.3,0.1,1.4-0.2l2.4-1.3
						C425.2,284.9,425.6,284.8,425.1,284.3z"/>
				</g>
			</g>
			<g>
				<polygon class="st5" points="450,316.8 270.2,213 450,109.2 629.8,213 				"/>
				<linearGradient id="SVGID_4_" gradientUnits="userSpaceOnUse" x1="450.0002" y1="312.7996" x2="450.0002" y2="105.2182">
					<stop  offset="0" style="stop-color:#491E8C"/>
					<stop  offset="1" style="stop-color:#9452FF"/>
				</linearGradient>
				<polygon class="st6" points="450,312.8 270.2,209 450,105.2 629.8,209 				"/>
			</g>
			<g>
				<polygon class="st5" points="450,271.5 270.2,167.7 450,64 629.8,167.7 				"/>
				<linearGradient id="SVGID_5_" gradientUnits="userSpaceOnUse" x1="450.0002" y1="267.5436" x2="450.0002" y2="59.9623">
					<stop  offset="0" style="stop-color:#491E8C"/>
					<stop  offset="1" style="stop-color:#9452FF"/>
				</linearGradient>
				<polygon class="st7" points="450,267.5 270.2,163.8 450,60 629.8,163.8 				"/>
			</g>
			<g>
				<polygon class="st5" points="450,226.3 270.2,122.5 450,18.7 629.8,122.5 				"/>
				<linearGradient id="SVGID_6_" gradientUnits="userSpaceOnUse" x1="450.0002" y1="222.2876" x2="450.0002" y2="14.7063">
					<stop  offset="0" style="stop-color:#491E8C"/>
					<stop  offset="1" style="stop-color:#9452FF"/>
				</linearGradient>
				<polygon class="st8" points="450,222.3 270.2,118.5 450,14.7 629.8,118.5 				"/>
			</g>
		</g>
		<g>
			<g>
				<g>
					<line class="st9" x1="270.2" y1="117.5" x2="94.4" y2="117.5"/>
					<g>
						<circle class="st10" cx="270.2" cy="117.5" r="7.5"/>
					</g>
				</g>
			</g>
			<g>
				<path class="st11" d="M97.3,156.5c-21.5,0-39-17.5-39-39s17.5-39,39-39s39,17.5,39,39S118.8,156.5,97.3,156.5z"/>
				<path class="st10" d="M97.3,79.5c21,0,38,17,38,38s-17,38-38,38s-38-17-38-38S76.3,79.5,97.3,79.5 M97.3,77.5
					c-22.1,0-40,17.9-40,40s17.9,40,40,40s40-17.9,40-40S119.4,77.5,97.3,77.5L97.3,77.5z"/>
			</g>
			<g>
				<g>
					<line class="st9" x1="270.2" y1="209" x2="154.4" y2="209"/>
					<g>
						<circle class="st10" cx="270.2" cy="209" r="7.5"/>
					</g>
				</g>
			</g>
			<g>
				<path class="st11" d="M157.3,248c-21.5,0-39-17.5-39-39s17.5-39,39-39s39,17.5,39,39S178.8,248,157.3,248z"/>
				<path class="st10" d="M157.3,171c21,0,38,17,38,38s-17,38-38,38s-38-17-38-38S136.3,171,157.3,171 M157.3,169
					c-22.1,0-40,17.9-40,40s17.9,40,40,40s40-17.9,40-40S179.4,169,157.3,169L157.3,169z"/>
			</g>
			<g>
				<g>
					<line class="st9" x1="629.8" y1="163.8" x2="805.6" y2="163.8"/>
					<g>
						<circle class="st10" cx="629.8" cy="163.8" r="7.5"/>
					</g>
				</g>
			</g>
			<g>
				<path class="st11" d="M802.7,202.8c-21.5,0-39-17.5-39-39s17.5-39,39-39s39,17.5,39,39S824.2,202.8,802.7,202.8z"/>
				<path class="st10" d="M802.7,125.8c21,0,38,17,38,38s-17,38-38,38s-38-17-38-38S781.8,125.8,802.7,125.8 M802.7,123.8
					c-22.1,0-40,17.9-40,40s17.9,40,40,40c22.1,0,40-17.9,40-40S824.8,123.8,802.7,123.8L802.7,123.8z"/>
			</g>
			<g>
				<polygon class="st12" points="97.3,92.5 96.9,93.6 96.9,126.7 97.3,127 112.6,118 				"/>
				<polygon class="st13" points="97.3,92.5 81.9,118 97.3,127 97.3,111 				"/>
				<polygon class="st14" points="97.3,129.9 97.1,130.2 97.1,141.9 97.3,142.5 112.6,120.9 				"/>
				<polygon class="st13" points="97.3,142.5 97.3,129.9 81.9,120.9 				"/>
				<polygon class="st15" points="97.3,127 112.6,118 97.3,111 				"/>
				<polygon class="st16" points="81.9,118 97.3,127 97.3,111 				"/>
			</g>
			<g id="XMLID_75_">
				<path id="XMLID_104_" class="st17" d="M825.9,174.5c0,0.1-3.7,14.3-18.2,14.3c-12.5,0-18.4-10.9-18.4-10.9
					c-0.9,0.1-1.8-0.1-2.6-0.4c-3.7-1.3-5.4-5.5-4.2-9.1l-2-1.5c-7.8-5.9,14.3-33.2,22.1-27c0,0,1.9,1.5,1.9,1.5
					c2.8-1.7,5.6-2.6,7.9-2.6c1.6,0,2.9,0.5,3.9,1.4c2,2.2,1.3,6.4-1.5,10.6c0.6,0.6,1.1,1.3,1.4,2.1c0.9,0.7,1.5,1.7,1.7,3.1
					c0.3,1.6,0.4,3.8,0.6,4.8c0.7,0.3,0.4,0.2,1.2,0.6c0.8,0.4,1.8,0.9,3,2c2,0.5,2.7,2.6,1.6,4.1c0,0-0.2,0.2-0.3,0.4
					c0,0.1,0.4,0.7,0.7,2c0.8,0.2,1.5,0.7,1.8,1.4C827.1,172.8,825.9,174.5,825.9,174.5z M820.1,185.2v0.6h0.2v-0.6h0.2V185h-0.7
					v0.2H820.1z M820.7,185v0.8h0.2v-0.6l0.2,0.6h0.2l0.2-0.6v0.6h0.2V185h-0.3l-0.1,0.4L821,185H820.7z"/>
				<path id="XMLID_101_" class="st18" d="M792.2,169.2L792.2,169.2L792.2,169.2c0.3-0.8,0.5-1.5,0.5-1.5c0.4,1.1,0.5,2.3,0.5,3.4
					l0,0l0,0c0.3-0.4,0.6-1.1,0.6-1.1c0.6,3.3-1.8,6.3-5,6.3c-2.8,0-5.1-2.4-5.1-5.3s2.3-5.3,5.1-5.3c0.7,0,1.4,0.2,2,0.4
					C790.8,166.1,791.9,166.6,792.2,169.2z M819.8,180.7c3.9-3.1,4.6-6.8,4.7-6.9c1-1.2,0.7-2.3-0.6-2.3c-0.4,0-0.7,0.1-0.7,0.1
					s0-1.7-0.8-3c-0.6,0.7-2.3,2-4.5,3.1c-2.1,1-4.8,1.8-8.2,1.9h0c-1,0-1.5-0.1-1.9,1c-0.1,0.4-0.1,1,0,1.1c0.3,0.9,1,1.3,1.9,1.5
					c0.7,0.2,1.4,0.2,1.4,0.2c6.9,0.2,12.4-5.2,12.5-5.2c0.1-0.1,0.1-0.1,0.1-0.1s-0.1,0.1-0.1,0.2c-1,2.2-6.8,6.3-12.5,6.2l0,0
					c-1.3,0-2.9-0.3-3.8-1.4c-1.3-1.7-0.6-4.4,1.5-4.5c0,0,0.5,0,0.7,0c5.3-0.2,10-2.1,13.3-6.1c0.5-0.6-0.1-1.4-1.1-1.4
					c0,0,0,0,0,0c-1.2-1.3-2.2-1.7-3.2-2.2c-2-1-1.8-0.1-2.2-5c-0.1-1.3-0.4-3.1-1.5-3.8c-0.3-0.2-0.6-0.3-1-0.3
					c-0.3,0-0.5,0.1-0.6,0.1c-0.6,0.1-1,0.5-1.4,0.9c-2.1,1.9-3.8,1.4-6.3,1.4c-2.4,0-4.4,1.6-4.8,4.2l0,0c-0.2,1.3-0.1,2.7,0.1,3.3
					c0,0-0.6-0.4-0.9-0.8c0.4,2.3,2.5,3.8,2.5,3.8c-0.3,0.1-0.8,0-0.8,0c0,0,1.2,1,2.2,1.3c-0.3,0.2-1.6,1.5-2.4,3.4
					c-0.7,1.7-0.4,3.8-0.4,3.8l0.6-0.9c0,0-0.4,1.9,0.4,3.8c0.2-0.6,0.8-1.5,0.8-1.5s-0.1,2.1,0.9,3.7c0-0.4,0.2-1.4,0.2-1.4
					s0.6,1.8,1.9,3C808.3,184.2,814.8,184.6,819.8,180.7z"/>
				<path id="XMLID_100_" class="st19" d="M783.3,166.9c0,0-1.9-1.4-2.2-1.8c-1.6-2.7,1.2-8.2,3.1-11.3c4.8-7.7,12.9-13.8,16.6-12.9
					l3.8,1.9c-1.5,0.9-2.9,1.9-3.7,2.6l-0.8,0.7c0,0-2.3,1.6-3.5,2.6c-4.7,4-9.3,10.1-11,16.1C785.6,164.7,784.2,165.4,783.3,166.9z
					"/>
				<path id="XMLID_99_" class="st20" d="M800.8,140.9L800.8,140.9c-3.7-0.9-11.7,5.2-16.6,12.9c0,0,0,0,0,0l0,0l3.9,3
					c4.2-6.7,9.6-10.2,9.7-10.3l-0.6-4.1l1.1-0.5l2.3,0.7l-0.2-0.8L800.8,140.9L800.8,140.9z"/>
				<path id="XMLID_98_" class="st21" d="M804.6,142.8l-3.7,2.6l-0.3,0.2l-3.3-2.7l-0.1-0.5l1.1-0.5c0.1,0,2.2,0.7,2.3,0.7l0-1.4
					l0.1-0.3l1-0.4C801.8,140.5,804.6,142.8,804.6,142.8z"/>
				<g id="XMLID_95_">
					<path id="XMLID_97_" class="st22" d="M811.9,140.2c-2.5,0-5.2,1.3-7.3,2.6c-0.3,0.2-0.6,0.4-0.9,0.5l-1.1-0.9l0.4,1.4
						c-0.2,0.1-0.3,0.2-0.4,0.3l-2.3-0.7l1.5,1.3c-0.3,0.3-0.7,0.5-0.9,0.7l-3.6-3l0.2,1.3l2.6,2.3c0,0-2.3,1.6-3.5,2.6
						c-4.7,4-9.3,10.1-11,16.1l0.1-0.1c0,0,0,0,0,0c0,0,0.1,0,0.1-0.1c0,0,0.1,0,0.1,0c0,0,0.1,0,0.1-0.1c0,0,0.1,0,0.1,0
						c0.1,0,0.1,0,0.2-0.1c0,0,0,0,0.1,0c0.1,0,0.2-0.1,0.2-0.1c1.2-0.3,2.7-0.6,4.6,0.2c0.9-2.3,2-4.7,3.8-7
						c1.4-1.9,2.8-3.5,4.4-4.4c3.1-2.9,11.4-6,14.1-3.3c0.6-1,1.2-2,1.6-3.2C816.2,143.6,816.3,140.2,811.9,140.2z"/>
					<polygon id="XMLID_96_" class="st22" points="801.4,142.8 800.8,140.9 800.5,141.8 800.7,142.6 					"/>
				</g>
				<path id="XMLID_92_" class="st11" d="M823.1,171.6c0,0,0-1.7-0.8-3c-0.6,0.7-2.3,2-4.5,3.1c-2.1,1-4.8,1.8-8.2,1.9h0
					c-1,0-1.5-0.1-1.9,1c0,0.1,0,0.2-0.1,0.3l0,0c0,0,0,0,0,0c0,0,0,0.1,0,0.1c0,0.1,0,0.2,0,0.3c0,0,0,0,0,0c0,0,0,0,0,0
					c0,0,0,0.1,0,0.1c0,0,0,0,0,0c0,0,0,0,0,0c0,0.2,0.1,0.3,0.1,0.3l0,0l0,0c0.3,0.9,1,1.3,1.9,1.5c0.7,0.2,1.4,0.2,1.4,0.2
					c5.6,0.2,10.4-3.4,11.9-4.7C823.1,172.3,823.2,172.1,823.1,171.6z M807,141.5c1.3-0.6,2.8-1.1,4.2-1.3c-1.4,0.3-3,1-5,2.2
					c0,0-4.7,3.2-7.5,6c-1.5,1.5-7.8,9-7.7,9c1.1-2.1,1.9-3.2,3.7-5.5c1-1.3,2.1-2.5,3.2-3.7c0.4-0.4,0.7-0.8,1.1-1.1l0,0l0,0
					C799,147.1,802.2,143.7,807,141.5z"/>
				<path id="XMLID_85_" class="st23" d="M819.8,180.7c-0.7,0.5-1.4,1-2.1,1.4c-1.7-0.6-2.7-2-2.7-2s1.4-0.3,3.3-1.3
					c2.3-1.2,4.5-2.9,6.1-5C824.4,173.9,823.7,177.6,819.8,180.7z M815.2,162.8c-0.8-0.6-2.1-0.1-2.4,0.8c0.5,0,1,0.4,0.9,0.8
					c0.3-0.3,0.8-0.5,1.2-0.5C814.8,163.6,814.9,163,815.2,162.8z M806.8,174.3c0.3-0.9,1-1.7,2.1-1.7c0,0,0.5,0,0.7,0
					c5.3-0.2,10-2.1,13.3-6.1c0.5-0.6-0.1-1.4-1.1-1.4c0,0,0,0,0,0c-0.2,0.2-0.2,0.5-0.5,1c-1,1.8-2.4,2.6-4.3,3.5
					c-5.8,2.9-8.8,1.5-10,3.3C806.7,173.5,806.7,174,806.8,174.3L806.8,174.3z M817.3,162.2c-0.6-0.4-0.6-1.1-0.9-4.3
					c-0.1-1-0.3-2.3-0.9-3.2c-0.1-0.1-0.3-0.2-0.6-0.2c-0.4,0-0.8,0.4-1.1,0.7c-0.7,1-1.4,1.7-2.6,2.3c-1.2,0.6-2.4,0.8-3.6,0.7
					c-0.9,0-1.7-0.2-2.4-0.2c-1.4,0-2.6,0.4-3.5,1.6c-0.6,0.8-0.9,1.6-0.9,2.6c0,0.1,0,0.2,0,0.3c0,0.2,0,0.3,0,0.4
					c0.1,0.5,0.2,0.8,0.2,0.8c0,0,0,0,0,0c0,0,0,0,0,0.1c0,0-0.6-0.4-0.9-0.8c0.3,1.9,1.8,3.3,2.3,3.7c0,0,0.1,0,0.1,0.1
					c0,0,0,0,0,0c0,0,0.1,0,0.1,0c-0.3,0.1-0.8,0-0.8,0c0,0,1.2,1,2.2,1.3c1.4-1.2,3-1.6,4.2-1.8c0.8-0.5,1.6-1,2.5-1.4
					c-0.3-1.7,1.2-3.4,3.1-3.6c1.4-0.1,2.1,0.5,2.6,1.2C816.7,162.4,817,162.3,817.3,162.2C817.4,162.2,817.3,162.2,817.3,162.2z
					 M818,173.7C818,173.7,818,173.7,818,173.7c-0.6,0.1-6.5,2.4-10.3,1.3c0,0.2,0,0.6,0.1,0.8l0,0c0.6,0.1,1.3,0.2,2.1,0.2
					C814.9,175.9,818.4,173.7,818,173.7z M790.6,173.2C790.6,173.2,790.6,173.2,790.6,173.2c0.3-0.3,0.4-0.8,0.4-1.2
					c-0.1-0.6-0.8-0.7-1.3-1.2c0,0,0,0,0,0c0,0,0,0,0,0c0,0,0,0,0,0c-0.2-0.2-0.3-0.5-0.3-0.8c0-0.6,0.6-0.8,0.9-0.7
					c0,0,0.3,0.1,0.6,0.5l0,0c0-0.1,0-0.3-0.2-0.6c-0.3-0.5-1.1-1-2.3-0.7h0c-0.2,0-0.1,0-0.3,0.1c0,0-0.1,0-0.1,0
					c-0.1,0-0.1,0.1-0.2,0.1l0,0c0,0-0.2,0.1-0.4,0.2C786.1,170.4,788.3,173.4,790.6,173.2z"/>
				<path id="XMLID_77_" class="st24" d="M809.1,163.2c0.1,0.2,0.1,0.3,0.1,0.3c-0.1,0.1-0.4,0-0.8-0.2c-1.2-0.4-2-0.5-3.5,0.1
					c-0.4,0.1-0.7,0.3-0.8,0.2c-0.2,0,0-0.4,0.5-0.8c0.9-0.7,2.2-1,3.3-0.6C808.3,162.4,808.8,162.8,809.1,163.2z M808.9,164.4
					c-0.3-0.2-0.9-0.4-1.5-0.3c-0.1,0-0.2,0.1-0.4,0.1c0,0-0.1,0-0.1,0c-0.3,0.1-0.5,0.2-0.7,0.4c-0.2,0.2-0.3,0.4-0.2,0.5
					c0.1,0.1,0.2,0,0.5-0.1c0.9-0.4,1.5-0.4,2.1-0.3c0.3,0,0.5,0,0.5,0C809.1,164.6,809,164.5,808.9,164.4z M790.3,168.8
					L790.3,168.8L790.3,168.8c0.1,0.1,0.3,0.2,0.3,0.3c0.3,0.4,0.2,0.6,0.3,0.7c0,0,0.1,0.1,0.2,0c0.2-0.1,0.2-0.3,0.2-0.5l0,0l0,0
					l0,0c0-0.4-0.2-0.9-0.5-1.2l0,0l0,0l0,0c-0.2-0.2-0.4-0.4-0.7-0.5c-0.3-0.2-0.6-0.3-0.9-0.3c-0.6-0.1-1.2,0-1.3,0.1l0,0
					c-0.1,0-0.2,0-0.3,0.1c-1,0.4-1.6,1.1-1.9,2l0,0l0,0c-0.1,0.4-0.1,0.7-0.1,1c0,0.3,0,0.5,0.1,0.7v0l0,0l0,0
					c0.1,0.4,0.3,0.8,0.5,1.1l0,0l0,0l0,0c0.3,0.4,0.7,0.3,0.5,0c0-0.1-0.2-0.5-0.3-1.1c0-0.4,0-0.9,0.2-1.3
					c0.1-0.2,0.2-0.4,0.4-0.6c0.3-0.4,0.7-0.6,0.8-0.6l0,0c0.1,0,0.1-0.1,0.2-0.1c0,0,0.1,0,0.1,0c0.2-0.1,0.1,0,0.3-0.1h0
					C789.1,168.3,789.8,168.4,790.3,168.8z M790.1,170.3c-0.1-0.1-0.2-0.2-0.2-0.3c0-0.2,0-0.3,0.2-0.4c0.1-0.1,0.2-0.1,0.2-0.2
					c0-0.1-0.4-0.2-0.8,0.1c-0.3,0.3-0.3,0.9,0.1,1.3c0.5,0.5,1.2,0.6,1.3,1.2c0,0.1,0,0.2,0,0.3c0,0.1,0,0.3,0,0.3
					c-0.1,0.6-0.7,1.2-1.7,1c-0.2,0-0.3,0-0.3,0c-0.1,0.1,0.3,0.6,1.1,0.6c0.7,0,1.5-0.6,1.7-1.4c0,0,0.1-0.2,0.1-0.5
					c0-0.2,0-0.3,0-0.5C791.5,170.8,790.5,170.6,790.1,170.3z M815.5,162.8c-0.3,0-0.6,0.2-0.6,0.6c-0.1,0.4,0.1,0.8,0.4,0.8
					c0.3,0,0.6-0.2,0.6-0.6C816,163.2,815.8,162.9,815.5,162.8z M812.3,164c-0.2,0.3,0,0.7,0.4,0.9c0.4,0.2,0.8,0.2,1-0.1
					c0.2-0.3,0-0.7-0.4-0.9C812.9,163.6,812.5,163.7,812.3,164z M800.7,152.3c5.4-3.5,10.9-3.9,12.7-2.5l0,0c0,0,0-0.1,0-0.1l0,0
					c-0.5-1-1.6-1.7-2.6-2c0.2,0.2,0.4,0.5,0.5,0.7c-0.7-0.5-1.7-1-2.8-1.2c0,0,0.1,0.1,0.1,0.1c0.2,0.2,0.5,0.5,0.6,0.8
					c-1-0.4-2.2-0.6-3.3-0.4c0,0-0.1,0-0.1,0s0.1,0,0.2,0c0.4,0.1,0.9,0.3,1.1,0.6c-1.8-0.3-3.7,0-4.8,0.6c0.1,0,0.1,0,0.2,0
					c0.4,0,1.2,0.1,1.5,0.3c-1.1,0.2-2.7,0.7-3.6,1.5c0.2,0,1-0.1,1.4-0.1c-4.8,2.7-7,6.9-7,6.9l0,0
					C796.4,155.7,798.3,153.9,800.7,152.3z"/>
				<path id="XMLID_76_" class="st17" d="M813.6,160c0-0.4,0.1-1,0.4-1.1l0,0l0,0l0,0c0.6-0.2,1.4,1.3,1.4,2.7
					c-0.5-0.2-1-0.3-1.6-0.3C813.7,160.9,813.6,160.4,813.6,160z"/>
			</g>
			<g id="Icon_3_">
				<circle id="Circle_3_" class="st25" cx="157.3" cy="209" r="25"/>
				<path id="qb_2_" class="st11" d="M139.2,209c0,5.4,4.4,9.7,9.7,9.7h1.4v-3.6H149c-3.4,0-6.1-2.7-6.1-6.1c0-3.4,2.7-6.1,6.1-6.1
					h3.3c0,0,0,18.5,0,18.9c0,2,1.6,3.6,3.6,3.6v-26.1c0,0-3.7,0-6.9,0C143.6,199.3,139.2,203.6,139.2,209z M165.6,199.3h-1.4v3.6
					h1.4c3.4,0,6.1,2.7,6.1,6.1c0,3.4-2.7,6.1-6.1,6.1h-3.3c0,0,0-18.5,0-18.9c0-2-1.6-3.6-3.6-3.6v26.1c0,0,3.7,0,6.9,0
					c5.4,0,9.7-4.4,9.7-9.7C175.4,203.6,171,199.3,165.6,199.3z"/>
			</g>
		</g>
	</g>
</g>
</svg>
