<svg xmlns="http://www.w3.org/2000/svg" xmlns:xlink="http://www.w3.org/1999/xlink" id="Layer_1" x="0" y="0" enable-background="new 0 0 943.7 150" version="1.1" viewBox="0 0 943.7 150" xml:space="preserve"><style type="text/css">.st0{fill:#efbc4e}</style><g><path d="M405,56.7h18.8v80.4H405V56.7z" class="st0"/><circle cx="414.5" cy="32.2" r="12.4" class="st0"/><path d="M519.5,11.6v125.5h18.2V86h56.9V67.6h-56.5V28.7h64.5V11.6H519.5z" class="st0"/><path d="M656.5,43.4h-11.2c-16.8,0-30.4,13.7-30.4,30.4l0,0v34.1c0,16.8,13.7,30.4,30.4,30.4h11.2 c16.8,0,30.4-13.7,30.4-30.4V73.8C686.9,57,673.3,43.4,656.5,43.4L656.5,43.4z M668.5,104.4c0,9.3-7.6,17-17,17h-1.2 c-9.3,0-17-7.6-17-17V77.9c0-9.3,7.6-17,17-17h1.2c9.3,0,17,7.6,17,17V104.4z" class="st0"/><path d="M860.9,44.9h21.5l20.4,31l20.5-31h20.5l-30.8,45.8l30.8,45.8h-20.4l-21.1-30.4L882,136.5h-21.2l31.1-45.8 L860.9,44.9z" class="st0"/><path d="M711.7,136.5h19V74.7c0,0,0-12.6,13.6-14.1h12.8V42.9h-12.5c-18.2,0-32.9,14.7-32.9,32.9l0,0L711.7,136.5 L711.7,136.5z" class="st0"/><path d="M452,22.3h18.2v22.3h20.7v16.6h-20.8v46.2c0,6.7,5.4,12.1,12.1,12.2c0,0,0,0,0.1,0h8.8v18.3h-12.2 c-14.7,0-26.6-11.9-26.6-26.6l0,0L452,22.3L452,22.3z" class="st0"/><path d="M360,69.7c0,0,12-9.2,12.5-25.2c0,0-0.2-18.1-14.6-28.4c-5.4-3.8-11.9-5.9-18.5-5.8h-52.8V137h57.1 c9.6,0.1,18.8-3.9,25.2-11c5.1-5.7,9.3-14.3,9.6-27.3C378.6,98.8,379.8,78.6,360,69.7z M304.8,28.8h33.8c4.4-0.1,8.6,1.9,11.3,5.4 c0.9,1.2,1.7,2.6,2.2,4c1.6,4,1.8,8.3,0.5,12.3c-1.1,3.5-3.3,6.5-6.3,8.5c-2.2,1.5-4.9,2.2-7.6,2.2h-33.9V28.8z M359.1,105.7 c-1.2,4.1-3.7,7.7-7.2,10.1c-2.6,1.7-5.5,2.6-8.6,2.6h-38.5V79.8h38.3c5,0,9.8,2.3,12.8,6.4c1.1,1.5,1.9,3.1,2.6,4.7 C360.3,95.6,360.5,100.9,359.1,105.7L359.1,105.7z" class="st0"/><path d="M216.5,0C213.8,30,184,26.3,184,26.3V0h-29.9v26.3H89.7V0H60.4v26.2C31.1,28,29.2,0.6,29.2,0.6H-0.2v1.2 c0,28.9,23,52.5,52,53.4l8.4,0.2v37.4c0,31.6,25.6,57.3,57.3,57.3h9.3c31.6-0.1,57.2-25.7,57.3-57.3V55.2h8.9 c29.2,0,52.9-23.7,52.9-52.9l0,0V0H216.5z M154.3,89.6c0,17.8-14.4,32.2-32.2,32.2c-17.8,0-32.2-14.4-32.2-32.2l0,0V54.5h64.4 L154.3,89.6L154.3,89.6z" class="st0"/><path d="M846.6,99.1V74.6c0-18.1-14.7-32.8-32.8-32.8h-3.4c-20,0-36.2,16.2-36.2,36.2v28.5c0,18,14.6,32.4,32.5,32.4 h7.9c12.7,0,24.1-7.4,29.4-18.8l-14.6-7.4c-4.5,6.3-11.8,9.8-19.4,9.3c0,0-18.9,0.9-17-23L846.6,99.1z M793,75.7 c0-8.6,7-15.6,15.6-15.6h5.1c8.6,0,15.6,7,15.6,15.6v8.1h-36.5L793,75.7z" class="st0"/></g></svg>