<svg xmlns="http://www.w3.org/2000/svg" xmlns:xlink="http://www.w3.org/1999/xlink" id="Layer_1" x="0" y="0" enable-background="new 0 0 767.9 150" version="1.1" viewBox="0 0 767.9 150" xml:space="preserve"><style type="text/css">.st0{fill:#1141f3}</style><g><path d="M0,26.1h25.7V0H0V26.1z" class="st0"/><path d="M76,0H43.8v44.6h30.9c16.8,0,30.4,13.6,30.4,30.4s-13.6,30.4-30.4,30.4H43.8V44.6H0V150h76 c40.2-1.5,72-34.8,71.7-75C147.9,34.8,116.1,1.5,76,0" class="st0"/><path d="M199.6,40.9v53.4h18.5c8.5,0.6,16.4-4.1,19.9-11.9c2.2-4.9,3.2-10.2,3-15.6c0.4-6.7-1.3-13.4-4.7-19.2 C233.2,43,227,41,218,41L199.6,40.9z M236.4,28.5c6.4,1.7,12.2,5.3,16.4,10.4c3.2,3.9,5.6,8.4,6.8,13.2c1.2,4.4,1.8,9,1.9,13.5 c0.3,9.8-2.4,19.4-7.7,27.6c-6.9,10.1-17.7,15.3-32.1,15.3h-41.6V26.6h41.4C226.5,26.6,231.5,27.2,236.4,28.5z"/><path d="M275.2,108.6H294V48h-18.8V108.6z M275.2,40.8H294V26.2h-18.8V40.8z"/><path d="M353.4,91.3c3.4-3.6,5.1-8.5,4.7-13.4c0.3-4.7-1.2-9.5-4.2-13.1c-3-3.1-7.1-4.8-11.4-4.7c-5.7-0.5-11.1,2.6-13.4,7.9 c-1.4,3.2-2.1,6.8-1.9,10.2c-0.1,3.2,0.7,6.4,2.1,9.4c2.5,5.1,7.8,8.2,13.4,7.7c4.1,0.1,8-1.4,11-4.2 M347.3,47.7 c4.5,1.7,8.3,4.8,10.8,9V48h18.1v57.5c0.4,6.3-1.2,12.4-4.7,17.6c-5.3,6.8-15.5,10.2-30.4,10.2c-7.7,0.3-15.3-1.4-22.2-4.7 c-5.3-2.5-8.9-7.8-9.4-13.6h20.2c0.3,1.6,1.3,3,2.5,4c3.1,1.7,6.6,2.5,10.1,2.2c5.2,0.8,10.3-1.4,13.4-5.7c1.7-3.9,2.4-8,2-12.3 v-3.7c-1.5,2.3-3.5,4.3-5.7,5.8c-4.3,2.5-9.3,3.8-14.4,3.6c-8.1,0.4-16.1-2.6-21.9-8.2c-5.7-6-8.5-14-8.1-22.2 c-0.3-8.3,2.5-16.4,7.9-22.7c5.6-6.3,13.9-9.8,22.3-9.4c3.2-0.1,6.3,0.4,9.4,1.4"/><path d="M393.6,108.6h18.8V48h-18.8V108.6z M393.6,40.8h18.8V26.2h-18.8V40.8z"/><path d="M432,26.8h68.4v14.4h-48.5v18.8h42.5v14.3h-42.5v34.3H432V26.8z"/><path d="M512.3,108.6H531V48h-18.8V108.6z M512.3,40.8H531V26.2h-18.8V40.8z"/><path d="M606.3,51.6c4.9,3.9,7.5,10.1,7,16.3v40.8h-19v-37c0.2-2.5-0.3-5.1-1.5-7.3c-2.3-3.4-6.3-5.2-10.3-4.7 c-5.2-0.5-10.4,2.2-12.9,6.8c-1.4,3-1.9,6.2-1.8,9.4v32.8h-18.8V48.1h18.1v8.8c1.9-2.6,4.1-4.8,6.8-6.7c4.4-2.6,9.4-3.9,14.5-3.6 c6.3-0.3,12.5,1.4,17.8,4.7"/><path d="M649,62.9c-2.7,2.5-4.4,5.7-4.9,9.4h32c-0.2-3.7-1.9-7.1-4.9-9.4c-3.2-2.3-7.1-3.4-11-3.3c-4-0.3-7.9,1-11.1,3.5 M676.8,49.5c4.8,1.8,9,4.8,12.2,8.8c3,3.6,4.9,7.9,5.7,12.5c0.6,4,0.8,7.9,0.6,12h-51.6c-0.2,5.3,2.7,10.3,7.4,12.9 c3.1,1.6,6.7,2.4,10.2,2.3c3.6,0.2,7.3-0.8,10.3-2.8c1.5-1.1,2.9-2.5,3.8-4.1h19c-0.9,4.3-3.4,8.2-6.9,10.9 c-7.4,6.3-17,9.5-26.6,8.9c-8.9,0.2-17.7-2.5-25-7.4c-7.2-5-10.8-13-10.8-24.3c-0.6-9.1,3-18,9.7-24.1c7.2-5.8,16.2-8.8,25.4-8.4 C665.8,46.5,671.5,47.4,676.8,49.5"/><path d="M697.6,108.6L721.9,78l-23.2-29.8h22.7l11.8,17.5l11.6-17.6H767l-23.3,29.5l24.3,30.9h-23.2l-12.2-18.2l-12.3,18.2H697.6z"/></g></svg>