<?xml version="1.0" encoding="utf-8"?>
<!-- Generator: Adobe Illustrator 21.0.0, SVG Export Plug-In . SVG Version: 6.00 Build 0)  -->
<svg version="1.1" id="Layer_1" xmlns="http://www.w3.org/2000/svg" xmlns:xlink="http://www.w3.org/1999/xlink" x="0px" y="0px"
	 viewBox="0 0 563 150" style="enable-background:new 0 0 563 150;" xml:space="preserve">
<style type="text/css">
	.st0{fill:#333333;}
	.st1{fill:#004B6A;}
</style>
<title>IDEX_sf-color</title>
<g id="_Group_">
	<g id="_Group_2">
		<g id="_Group_3">
			<path id="_Compound_Path_" class="st0" d="M75.3,0c41.4,0,75,33.6,75,75c0,41.4-33.6,75-75,75s-75-33.6-75-75c0-0.3,0-0.5,0-0.8
				C0.7,33.3,34.1-0.1,75.3,0z M76.8,5.4C37,5.5,5.9,36.5,5.7,74.6c-0.2,38.4,31,70,69.5,69.9c19-0.1,35.5-6.8,49-20.2
				c15.3-15.3,22-34,20.3-55.5c-1.2-16.2-8.3-31.4-20-42.7C110.9,12.5,94.4,5.7,76.8,5.4L76.8,5.4z"/>
			<path id="_Compound_Path_2" class="st1" d="M142.6,67.6c-1.4-15.3-8.3-29.6-19.2-40.3C110.1,14,93.9,7.2,75.1,7.2
				C37.6,7.9,7.9,38.9,8.7,76.3c0.7,36.2,29.8,65.4,66,66.4c18.8,0.1,35.1-6.4,48.4-19.7C138.2,107.8,144.8,89.1,142.6,67.6z
				 M104.5,22.2c1.1,0,2,1,2,2.1c0,1.1-1,2-2.1,2s-2-1-2-2.1c0,0,0,0,0,0C102.5,23.1,103.4,22.2,104.5,22.2z M95.3,17.9
				c1.2,0,2.1,1,2.1,2.1c0,1.1-1,2-2.1,2c-1.1,0-2-0.9-2-2c0,0,0-0.1,0-0.1C93.2,18.9,94.1,17.9,95.3,17.9z M85.5,15.3
				c1.1,0.1,2,1,2.1,2c-0.1,1.2-1.1,2.1-2.3,2.1c-1.1,0-2-1-2-2.1C83.4,16.2,84.3,15.3,85.5,15.3z M75.3,14.4c1.1,0,2.1,0.9,2.1,2
				c0,1.1-0.9,2.1-2,2.1c-1.1,0-2.1-0.9-2.1-2C73.2,15.4,74.1,14.4,75.3,14.4z M65.1,15.3c1.1,0.1,2,0.9,2,2c0,1.1-0.9,2.1-2.1,2.1
				c0,0,0,0-0.1,0c-1.1,0-2-0.9-2-2.1c0,0,0,0,0,0C63.1,16.2,64,15.3,65.1,15.3L65.1,15.3z M55.3,17.9c1.1,0,2,0.9,2,2.1
				c0,1.1-0.8,2-2,2c0,0-0.1,0-0.1,0c-1.1,0-2.1-0.9-2.1-2c0,0,0-0.1,0-0.1C53.2,18.8,54.1,17.9,55.3,17.9z M46,22.2
				c1.1-0.1,2.1,0.8,2.2,1.9c0.1,1.1-0.8,2.1-1.9,2.2c-0.1,0-0.2,0-0.3,0c-1.1-0.1-2-1.1-1.9-2.2C44.1,23.1,44.9,22.3,46,22.2z
				 M37.7,28.1c1.1,0,2,0.9,2.1,2.1c0,1.1-0.9,2.1-2.1,2.1c-1.1,0-2-0.8-2.1-1.9c0,0,0-0.1,0-0.1c0-1.1,0.8-2.1,2-2.1
				C37.6,28.1,37.6,28.1,37.7,28.1z M30.5,35.3c1.1,0,2,1,2,2.1c0,1.1-1,2-2.1,2c-1.1,0-2-0.9-2.1-2.1
				C28.4,36.2,29.3,35.3,30.5,35.3L30.5,35.3z M24.6,43.7c1.1,0,2,0.9,2,2c0,0,0,0.1,0,0.1c0,1.1-0.9,2.1-2,2.1
				c-1.2,0-2.1-1-2.1-2.1C22.5,44.6,23.5,43.7,24.6,43.7L24.6,43.7z M20.3,52.9c1.2,0,2.1,1,2.1,2.1c0,0,0,0,0,0
				c-0.1,1.1-1.1,2-2.3,1.9c-1-0.1-1.9-1-1.9-2C18.2,53.8,19.2,52.9,20.3,52.9z M17.6,62.7c1.2,0,2.1,0.9,2.1,2.1c0,1.1-1,2-2.1,2
				c-1.1,0-2-0.9-2-2c0,0,0,0,0,0C15.6,63.7,16.5,62.8,17.6,62.7L17.6,62.7z M14.7,75c0-1.1,0.9-2.1,2.1-2.1c1.1,0,2.1,0.9,2.1,2
				c0,0,0,0,0,0c0,1.1-0.8,2.1-1.9,2.1c-0.1,0-0.1,0-0.2,0C15.6,77,14.7,76.1,14.7,75z M15.6,85.1c0-1.1,0.9-2.1,2-2.1
				c1.2,0,2.1,1,2.1,2.1c0,1.1-1,2-2.1,2c-1.1,0-2-0.8-2-1.9C15.6,85.2,15.6,85.2,15.6,85.1L15.6,85.1z M20.3,97
				c-1.1,0-2.1-0.9-2.1-2c0-1.2,0.9-2.1,2.1-2.1c1.1,0.1,2,1,2,2.1C22.4,96.1,21.4,97,20.3,97L20.3,97z M24.6,106.3
				c-1.1,0-2.1-0.9-2.1-2c0-1.1,0.9-2.1,2.1-2.1c0,0,0,0,0,0c1.1,0,2,0.9,2,2c0,0,0,0.1,0,0.1C26.7,105.4,25.8,106.3,24.6,106.3
				C24.6,106.3,24.6,106.3,24.6,106.3L24.6,106.3z M24.6,90.2l0.1-0.4h21.9c5.7,0,5.7,0,5.7-5.8c0-4.8,0-9.6,0-14.4
				c0-1.6,0.2-2.3,2.1-2.2c4.1,0.2,8.3,0.1,12.4,0c1.4,0,1.9,0.4,1.9,1.9c0,8.1,0,16.1,0,24.2c0,1.5-0.5,2.3-2.1,2.2
				c-0.5,0-1,0-1.4,0c-1.9,0.2-2.5-0.5-2.5-2.3c0.1-5.8,0-11.7,0-17.5c0-1.6-0.5-2.3-2.2-2.3c-1.7,0-2.3,0.5-2.3,2.2
				c0.1,5.8,0,11.7,0.1,17.5c0,1.9-0.6,2.5-2.4,2.4c-5.9-0.1-11.8,0.3-17.7-0.2c-2.8-0.2-5.5-1.8-8.1-2.8
				C28.3,91.9,26.4,91,24.6,90.2L24.6,90.2z M30.7,114.7c-1.2,0.1-2.2-0.7-2.4-1.9c0-0.1,0-0.2,0-0.3c0.1-1.2,1-2.1,2.2-2.1
				c1.2,0.2,2,1.1,2.1,2.3C32.5,113.7,31.7,114.5,30.7,114.7L30.7,114.7z M37.6,121.8c-1.1,0-2-0.9-2-2c0,0,0-0.1,0-0.1
				c0-1.1,0.9-2,2.1-2c1.1,0,2,1,2.1,2.1C39.8,120.9,38.8,121.8,37.6,121.8C37.7,121.8,37.6,121.8,37.6,121.8L37.6,121.8z
				 M46.1,127.7c-1.1,0-2-0.8-2.1-1.9c0,0,0-0.1,0-0.1c0-1.1,0.9-2.1,2-2.1c0,0,0,0,0.1,0c1.1,0,2,0.9,2.1,2.1
				C48.1,126.7,47.2,127.7,46.1,127.7C46.1,127.7,46.1,127.7,46.1,127.7L46.1,127.7z M55.3,132c-1.1,0.1-2.1-0.8-2.2-2
				c0,0,0-0.1,0-0.1c0.1-1.1,1-2,2.1-2c1.1,0,2.1,0.9,2.1,2.1C57.3,131,56.4,132,55.3,132C55.3,132,55.3,132,55.3,132L55.3,132z
				 M47.5,100.8c-1.8-0.7-3.6-1.7-5.4-2.5l0.2-0.6c9.4,0,18.7,0,28.1,0c4.3,0,3.8,0.4,3.8-3.8c0-12.5,0-25.1,0-37.7
				c0-2.1,0.6-2.7,2.6-2.6c4,0.2,8,0.1,12,0c1.4,0,2.1,0.4,2.1,1.9c0,15.5,0,31.1,0,46.6c0,1.7-0.7,2.2-2.2,1.9
				c-0.5-0.1-1.1-0.2-1.6-0.2c-2.5,0.1-2.6,0.1-2.6-2.6c0-12.8,0-25.6,0-38.5c0-1.1,0.4-2.4-1.4-2.7c-2.1-0.3-2.7,0.2-2.7,2.3
				c0,13,0,26.1,0,39.1c0,2.7,0,2.7-2.7,2.7c-6.8,0-13.6-0.1-20.4,0C53.6,104.2,50.7,102,47.5,100.8L47.5,100.8z M65.1,134.6
				c-1.1,0-2.1-0.8-2.1-2c0,0,0-0.1,0-0.1c0-1.2,0.9-2.1,2.1-2.1c1.2,0,2.1,0.9,2.1,2.1C67.2,133.7,66.3,134.6,65.1,134.6z
				 M75.3,135.6c-1.2,0-2.1-1-2.1-2.1c0-1.2,1-2.1,2.1-2c1.2,0,2.1,1,2,2.1C77.3,134.7,76.4,135.6,75.3,135.6z M85.3,134.6
				c-1.1-0.1-1.9-1-1.9-2.1c0-1.2,1-2.1,2.2-2c1.2,0,2.1,1,2,2.2C87.4,133.8,86.5,134.7,85.3,134.6
				C85.3,134.6,85.3,134.6,85.3,134.6z M95.2,132c-1.1,0-2-0.9-2-2c0,0,0-0.1,0-0.1c0-1.1,0.9-2,2-2c1.2,0,2.1,1,2.1,2.1
				C97.3,131.1,96.4,132,95.2,132z M104.5,127.7c-1.1,0-2.1-0.9-2.1-2c0,0,0,0,0,0c0-1.2,0.9-2.1,2.1-2.1c1.1,0,2,1,2,2.1
				C106.6,126.7,105.7,127.7,104.5,127.7C104.6,127.7,104.5,127.7,104.5,127.7L104.5,127.7z M106.3,107.8c0.3-3.1-0.1-46-0.1-59.1
				c0-1.3,0.1-2.4-1.8-2.4c-1.6,0-1.9,0.6-1.9,2c0.1,6.8-0.1,57.4-0.1,57.4s0,4.2,0,6.4c-0.7,0.1-1.3,0.2-1.9,0.2
				c-8.8,0-17.6,0.2-26.4-0.1c-2.2-0.1-4.4-1.5-6.6-2.4c-2.5-1-4.9-2.2-7.2-3.7c0.6,0,1.2-0.1,1.7-0.1l29.5,0.1c4.5,0,4.5,0,4.5-4.3
				c0-19.8,0-39.6,0-59.4c0-1.7,0.4-2.4,2.3-2.4c4.3,0.1,8.5,0.1,12.8,0c1.4,0,1.9,0.5,1.9,1.9c0,14.9,0,29.7,0,44.6
				c0,7.7,0,15.4,0,23.1c0,2.7,0,2.7-2.8,2.7C105.7,112.4,105.8,112.3,106.3,107.8L106.3,107.8z M112.8,121.8c-1.1,0-2.1-0.9-2.1-2
				c0-1.2,1-2.1,2.1-2.1c1.1,0,2,1,2,2.1c0,1.1-0.8,2-1.9,2C112.9,121.8,112.9,121.8,112.8,121.8L112.8,121.8z M112.9,32.2
				c-1.1,0-2.1-0.8-2.1-2c0,0,0,0,0-0.1c0-1.1,0.9-2,2.1-2.1c1.1,0,2.1,0.9,2.1,2c0.1,1.1-0.8,2-1.9,2.1
				C113,32.2,112.9,32.2,112.9,32.2L112.9,32.2z M120,114.6c-1.1,0-2.1-0.9-2.1-2.1c0-1.1,0.9-2.1,2.1-2.1l0,0
				c1.1,0,2.1,0.9,2.1,2.1C122.1,113.7,121.2,114.6,120,114.6z M120,39.5c-1.2,0-2.1-0.9-2.1-2.1c0-1.2,0.9-2.1,2.1-2.1
				c1.2,0,2.1,0.9,2.1,2.1C122.1,38.5,121.2,39.5,120,39.5C120,39.5,120,39.5,120,39.5z M134.9,64.8c0,1.1-0.9,2-2,2
				c0,0-0.1,0-0.1,0c-1.1,0-2.1-0.9-2.1-2c0-1.2,1-2.1,2.2-2.1c0,0,0,0,0,0C134,62.8,134.9,63.7,134.9,64.8z M125.9,43.7
				c1.1,0,2.1,0.9,2.1,2c0,1.2-1,2.1-2.1,2.1c-1.1,0-2-1-2-2.1c0-1.1,0.8-2,1.9-2C125.8,43.7,125.9,43.7,125.9,43.7L125.9,43.7z
				 M125.9,106.3c-1.1,0-2-0.9-2-2c0,0,0,0,0,0c0-1.1,0.8-2,1.9-2.1c0,0,0.1,0,0.1,0c1.1,0,2.1,0.9,2.1,2c0,0,0,0,0,0
				C127.9,105.4,127,106.3,125.9,106.3L125.9,106.3z M130.2,52.9c1.1,0,2.1,0.9,2.1,2c0,1.2-0.9,2.1-2.1,2.1c-1.2,0-2.1-0.9-2.1-2.1
				C128.2,53.8,129.1,52.9,130.2,52.9z M130.3,97c-1.1,0-2.1-0.9-2.1-2c-0.1-1.1,0.8-2.2,1.9-2.3c1.1-0.1,2.2,0.8,2.3,1.9
				c0,0.1,0,0.2,0,0.3C132.3,96.1,131.4,97,130.3,97z M132.8,87.2c-1.1,0-2-0.9-2-2.1c0-1.2,1-2.1,2.2-2.1c1.1,0.1,2,1,1.9,2.1
				C134.9,86.3,134,87.2,132.8,87.2C132.9,87.2,132.8,87.2,132.8,87.2z M133.8,77c-1.1,0-2-0.8-2.1-1.9c0,0,0-0.1,0-0.1
				c-0.1-1.1,0.7-2,1.7-2.1c0,0,0.1,0,0.1,0c1.2-0.1,2.3,0.8,2.4,2c0,0,0,0,0,0.1c0,1.1-0.9,2-2,2C133.9,77,133.8,77,133.8,77
				L133.8,77z"/>
		</g>
	</g>
	<g id="_Group_4">
		<path id="_Compound_Path_3" class="st1" d="M188.3,134.6h-19.5V26.9h19.5V134.6z"/>
		<path id="_Compound_Path_4" class="st1" d="M318.6,89.6c0.1,6.2-1.1,12.4-3.4,18.1c-4.3,10.8-12.9,19.3-23.7,23.6
			c-5.7,2.3-11.8,3.4-18,3.3h-52.7c-1.3,0-2.7-0.2-3.9-0.8c-2.4-1-4.2-2.8-5.2-5.2c-0.5-1.2-0.8-2.6-0.8-3.9v-88
			c0-1.3,0.2-2.6,0.8-3.8c0.5-1.2,1.2-2.2,2.1-3.2c0.9-0.9,1.9-1.6,3.1-2.1c1.2-0.5,2.6-0.8,3.9-0.7h52.7c6.1-0.1,12.2,1.1,18,3.4
			c10.8,4.3,19.4,12.8,23.7,23.6c2.3,5.7,3.5,11.9,3.4,18.1L318.6,89.6z M299.1,72c0-3.6-0.6-7.1-1.8-10.4c-1.1-3-2.9-5.8-5.2-8.1
			c-2.3-2.3-5.1-4-8.1-5.2c-3.3-1.3-6.9-1.9-10.4-1.8h-43v68.7h43c3.5,0,7.1-0.6,10.4-1.8c3-1.2,5.8-2.9,8.1-5.2
			c2.3-2.3,4.1-5,5.2-8c1.3-3.3,1.9-6.9,1.8-10.5L299.1,72z"/>
		<path id="_Compound_Path_5" class="st0" d="M435.1,134.6h-70.5c-3,0-6-0.5-8.9-1.4c-6.8-2-12.5-6.8-15.7-13.2
			c-1.9-4-2.9-8.4-2.7-12.8V36.7c0-1.3,0.2-2.6,0.8-3.8c0.5-1.2,1.2-2.2,2.1-3.2c0.9-0.9,1.9-1.6,3.1-2.1c1.2-0.5,2.6-0.8,3.9-0.7
			h88v19.5h-78.3v60.8c-0.1,2.1,0.6,4.3,2,5.9c1.4,1.4,3.3,2,5.9,2h70.3V134.6z M426.3,90.6h-61.7V70.9h61.7L426.3,90.6z"/>
		<path id="_Compound_Path_6" class="st0" d="M503.1,65.4L536,26.9h26.7l-46.3,54l46,53.7h-26.5l-32.8-38.2l-32.6,38.2H444l46-53.7
			l-46.1-54h26.4L503.1,65.4z"/>
	</g>
</g>
</svg>
