<svg xmlns="http://www.w3.org/2000/svg" id="Layer_1" data-name="Layer 1" viewBox="0 0 400 400"><defs><style>.cls-1{fill:#dfcdf7}.cls-2,.cls-3{fill:none;stroke:#ffa744;stroke-linecap:round;stroke-linejoin:round;stroke-width:10px}.cls-3{stroke-dasharray:1 19}.cls-4{fill:#491e8c}</style></defs><title>Artboard 1 copy 9</title><rect width="150" height="150" class="cls-1" rx="15" ry="15"/><path d="M325,250h0a75,75,0,1,0,75,75A75.08,75.08,0,0,0,325,250Z" class="cls-1"/><line x1="324.95" x2="324.95" y1="193.95" y2="75" class="cls-2"/><line x1="324.95" x2="324.95" y1="325" y2="193.95" class="cls-3"/><line x1="206.05" x2="325" y1="75" y2="75" class="cls-2"/><line x1="75" x2="206.05" y1="75" y2="75" class="cls-3"/><line x1="75.05" x2="75.05" y1="75" y2="325" class="cls-3"/><line x1="75.05" x2="75.05" y1="75" y2="206.05" class="cls-2"/><line x1="325" x2="75" y1="325" y2="325" class="cls-3"/><line x1="325" x2="193.95" y1="325" y2="325" class="cls-2"/><rect width="75" height="75" x="37.5" y="37.5" class="cls-4" rx="7.5" ry="7.5"/><path d="M325,287.5h0A37.5,37.5,0,1,0,362.5,325,37.54,37.54,0,0,0,325,287.5Z" class="cls-4"/></svg>