<svg xmlns="http://www.w3.org/2000/svg" xmlns:xlink="http://www.w3.org/1999/xlink" id="Layer_1" x="0" y="0" enable-background="new 0 0 490 490" version="1.1" viewBox="0 0 490 490" xml:space="preserve"><style type="text/css">.st0{opacity:.68}.st1{opacity:0;fill:#fff}.st2{opacity:1.960800e-02;fill:#fcfcff}.st3{opacity:3.921600e-02;fill:#f8f9ff}.st4{opacity:5.882400e-02;fill:#f5f6ff}.st5{opacity:7.843100e-02;fill:#f2f4ff}.st6{opacity:9.803900e-02;fill:#eef1ff}.st7{opacity:.1176;fill:#ebeeff}.st8{opacity:.1373;fill:#e7ebff}.st9{opacity:.1569;fill:#e4e8ff}.st10{opacity:.1765;fill:#e1e5ff}.st11{opacity:.1961;fill:#dde2ff}.st12{opacity:.2157;fill:#dae0ff}.st13{opacity:.2353;fill:#d7ddff}.st14{opacity:.2549;fill:#d3daff}.st15{opacity:.2745;fill:#d0d7ff}.st16{opacity:.2941;fill:#ccd4ff}.st17{opacity:.3137;fill:#c9d1ff}.st18{opacity:.3333;fill:#c6ceff}.st19{opacity:.3529;fill:#c2cbff}.st20{opacity:.3725;fill:#bfc9ff}.st21{opacity:.3922;fill:#bcc6ff}.st22{opacity:.4118;fill:#b8c3ff}.st23{opacity:.4314;fill:#b5c0ff}.st24{opacity:.451;fill:#b1bdff}.st25{opacity:.4706;fill:#aebaff}.st26{opacity:.4902;fill:#abb7ff}.st27{opacity:.5098;fill:#a7b5fe}.st28{opacity:.5294;fill:#a4b2fe}.st29{opacity:.549;fill:#a1affe}.st30{opacity:.5686;fill:#9dacfe}.st31{opacity:.5882;fill:#9aa9fe}.st32{opacity:.6078;fill:#96a6fe}.st33{opacity:.6275;fill:#93a3fe}.st34{opacity:.6471;fill:#90a1fe}.st35{opacity:.6667;fill:#8c9efe}.st36{opacity:.6863;fill:#899bfe}.st37{opacity:.7059;fill:#8698fe}.st38{opacity:.7255;fill:#8295fe}.st39{opacity:.7451;fill:#7f92fe}.st40{opacity:.7647;fill:#7b8ffe}.st41{opacity:.7843;fill:#788cfe}.st42{opacity:.8039;fill:#758afe}.st43{opacity:.8235;fill:#7187fe}.st44{opacity:.8431;fill:#6e84fe}.st45{opacity:.8627;fill:#6b81fe}.st46{opacity:.8824;fill:#677efe}.st47{opacity:.902;fill:#647bfe}.st48{opacity:.9216;fill:#6078fe}.st49{opacity:.9412;fill:#5d76fe}.st50{opacity:.9608;fill:#5a73fe}.st51{opacity:.9804;fill:#5670fe}.st52{fill:#536dfe}.st53{fill:url(#XMLID_2_)}.st54{fill:url(#XMLID_3_)}.st55{fill:url(#XMLID_4_)}.st56{fill:url(#XMLID_5_)}.st57{fill:url(#XMLID_6_)}.st58{fill:#3c3940}.st59{fill:#120426}.st60{fill:url(#SVGID_1_)}.st61{fill:#7e44d8}.st62{fill:url(#SVGID_2_)}.st63{fill:url(#SVGID_3_)}.st64{fill:url(#SVGID_4_)}.st65{fill:url(#SVGID_5_)}.st66{fill:url(#SVGID_6_)}.st67{fill:url(#SVGID_7_)}.st68{fill:url(#SVGID_8_)}.st69{fill:url(#SVGID_9_)}.st70{fill:url(#SVGID_10_)}.st71{fill:url(#SVGID_11_)}.st72{fill:#f0e5ff}.st73{fill:url(#SVGID_12_)}.st74{fill:url(#SVGID_13_)}.st75{fill:url(#SVGID_14_)}.st76{fill:url(#SVGID_15_)}.st77{fill:url(#SVGID_16_)}.st78{fill:url(#SVGID_17_)}.st79{fill:url(#SVGID_18_)}.st80{fill:url(#SVGID_19_)}.st81{fill:url(#SVGID_20_)}.st82{fill:url(#SVGID_21_)}.st83{fill:url(#SVGID_22_)}.st84{stroke:url(#SVGID_23_)}.st84,.st85,.st86{fill:none;stroke-width:2;stroke-linecap:round;stroke-linejoin:round}.st85{stroke:url(#SVGID_24_);stroke-dasharray:.1036,4.1436}.st86{stroke:url(#SVGID_25_)}.st87{stroke:url(#SVGID_26_)}.st87,.st88,.st89{fill:none;stroke-width:2;stroke-linecap:round;stroke-linejoin:round}.st88{stroke:url(#SVGID_27_);stroke-dasharray:.1029,4.1149}.st89{stroke:url(#SVGID_28_)}.st90{stroke:url(#SVGID_29_)}.st90,.st91,.st92{fill:none;stroke-width:2;stroke-linecap:round;stroke-linejoin:round}.st91{stroke:url(#SVGID_30_);stroke-dasharray:.102,4.0793}.st92{stroke:url(#SVGID_31_)}.st93{stroke:url(#SVGID_32_)}.st93,.st94,.st95{fill:none;stroke-width:2;stroke-linecap:round;stroke-linejoin:round}.st94{stroke:url(#SVGID_33_);stroke-dasharray:.1017,4.0678}.st95{stroke:url(#SVGID_34_)}.st96{stroke:url(#SVGID_35_)}.st96,.st97,.st98{fill:none;stroke-width:2;stroke-linecap:round;stroke-linejoin:round}.st97{stroke:url(#SVGID_36_);stroke-dasharray:.1074,4.2945}.st98{stroke:url(#SVGID_37_)}.st99{stroke:url(#SVGID_38_)}.st100,.st101,.st99{fill:none;stroke-width:2;stroke-linecap:round;stroke-linejoin:round}.st100{stroke:url(#SVGID_39_);stroke-dasharray:.1003,4.0107}.st101{stroke:url(#SVGID_40_)}.st102{stroke:url(#SVGID_41_)}.st102,.st103,.st104{fill:none;stroke-width:2;stroke-linecap:round;stroke-linejoin:round}.st103{stroke:url(#SVGID_42_);stroke-dasharray:.1,4.0003}.st104{stroke:url(#SVGID_43_)}.st105{stroke:url(#SVGID_44_)}.st105,.st106,.st107{fill:none;stroke-width:2;stroke-linecap:round;stroke-linejoin:round}.st106{stroke:url(#SVGID_45_);stroke-dasharray:.104,4.158}.st107{stroke:url(#SVGID_46_)}.st108{opacity:.43;fill:url(#XMLID_7_)}.st109{fill:url(#SVGID_47_)}.st110{fill:url(#XMLID_8_)}.st111{fill:url(#XMLID_9_)}.st112{display:none;fill:url(#XMLID_10_)}.st113{fill:url(#XMLID_11_)}.st114{fill:url(#XMLID_12_)}.st115{fill:#1d073f}.st116{fill:url(#XMLID_13_)}.st117{fill:url(#XMLID_14_)}.st118{clip-path:url(#XMLID_15_);fill:url(#XMLID_16_)}.st119{stroke:url(#XMLID_17_)}.st119,.st120,.st121,.st122,.st123{fill:none;stroke-width:.3437;stroke-miterlimit:10}.st120{opacity:.8;stroke:url(#XMLID_18_)}.st121{opacity:.6;stroke:url(#XMLID_19_)}.st122{opacity:.4;stroke:url(#XMLID_20_)}.st123{opacity:.2;stroke:url(#XMLID_21_)}.st124{fill:url(#SVGID_48_)}.st125{fill:#b4acbf}.st126{fill:url(#SVGID_49_)}.st127{fill:url(#SVGID_50_)}.st128{fill:url(#SVGID_51_)}</style><g><g><g><g><g><g><g class="st0"><path id="XMLID_4882_" d="M310.7,216.9c-10.4-6-27.4-6-37.8,0l-91.5,52.8c-10.4,6-10.4,15.8,0,21.8l158.8,92.4 c10.4,6,27.4,6,37.8,0l91.5-52.8c10.4-6,10.4-15.8,0-21.8L310.7,216.9z" class="st1"/><path d="M310.6,217.2c-10.3-6-27.2-6-37.6,0l-91,52.6c-10.3,6-10.3,15.7,0,21.7l158.4,92.1c10.3,6,27.2,6,37.6,0 l91-52.6c10.3-6,10.3-15.7,0-21.7L310.6,217.2z" class="st2"/><path d="M310.5,217.5c-10.3-5.9-27.1-5.9-37.4,0l-90.6,52.3c-10.3,5.9-10.3,15.7,0,21.6l157.9,91.9 c10.3,5.9,27.1,5.9,37.4,0l90.6-52.3c10.3-5.9,10.3-15.7,0-21.6L310.5,217.5z" class="st3"/><path d="M310.4,217.8c-10.2-5.9-27-5.9-37.2,0l-90.1,52c-10.2,5.9-10.2,15.6,0,21.5l157.5,91.6 c10.2,5.9,27,5.9,37.2,0l90.1-52c10.2-5.9,10.2-15.6,0-21.5L310.4,217.8z" class="st4"/><path d="M310.3,218.1c-10.2-5.9-26.8-5.9-37,0l-89.7,51.8c-10.2,5.9-10.2,15.5,0,21.4l157.1,91.3 c10.2,5.9,26.8,5.9,37,0l89.7-51.8c10.2-5.9,10.2-15.5,0-21.4L310.3,218.1z" class="st5"/><path d="M310.2,218.4c-10.1-5.8-26.7-5.8-36.8,0l-89.3,51.5c-10.1,5.9-10.1,15.4,0,21.3l156.6,91.1 c10.1,5.9,26.7,5.9,36.8,0l89.3-51.5c10.1-5.8,10.1-15.4,0-21.3L310.2,218.4z" class="st6"/><path d="M310.1,218.7c-10.1-5.8-26.6-5.8-36.7,0L184.6,270c-10.1,5.8-10.1,15.3,0,21.2L340.8,382 c10.1,5.8,26.6,5.8,36.7,0l88.8-51.3c10.1-5.8,10.1-15.3,0-21.2L310.1,218.7z" class="st7"/><path d="M310.1,219c-10-5.8-26.5-5.8-36.5,0l-88.4,51c-10,5.8-10,15.3,0,21.1l155.8,90.6c10,5.8,26.5,5.8,36.5,0 l88.4-51c10-5.8,10-15.3,0-21.1L310.1,219z" class="st8"/><path d="M310,219.3c-10-5.8-26.3-5.8-36.3,0l-88,50.8c-10,5.8-10,15.2,0,21L341,381.4c10,5.8,26.3,5.8,36.3,0 l87.9-50.8c10-5.8,10-15.2,0-21L310,219.3z" class="st9"/><path d="M309.9,219.6c-9.9-5.7-26.2-5.7-36.1,0l-87.5,50.5c-9.9,5.7-9.9,15.1,0,20.9l154.9,90.1 c9.9,5.7,26.2,5.7,36.1,0l87.5-50.5c9.9-5.7,9.9-15.1,0-20.9L309.9,219.6z" class="st10"/><path d="M309.8,219.9c-9.9-5.7-26.1-5.7-35.9,0l-87.1,50.3c-9.9,5.7-9.9,15,0,20.8l154.4,89.8 c9.9,5.7,26.1,5.7,35.9,0l87.1-50.3c9.9-5.7,9.9-15,0-20.8L309.8,219.9z" class="st11"/><path d="M309.7,220.2c-9.8-5.7-25.9-5.7-35.8,0l-86.6,50c-9.8,5.7-9.8,15,0,20.6l154,89.6 c9.8,5.7,25.9,5.7,35.8,0l86.6-50c9.8-5.7,9.8-15,0-20.6L309.7,220.2z" class="st12"/><path d="M309.6,220.5c-9.8-5.6-25.8-5.6-35.6,0l-86.2,49.8c-9.8,5.6-9.8,14.9,0,20.5l153.6,89.3 c9.8,5.6,25.8,5.6,35.6,0l86.2-49.8c9.8-5.6,9.8-14.9,0-20.5L309.6,220.5z" class="st13"/><path d="M309.5,220.8c-9.7-5.6-25.7-5.6-35.4,0l-85.8,49.5c-9.7,5.6-9.7,14.8,0,20.4l153.1,89.1 c9.7,5.6,25.7,5.6,35.4,0l85.8-49.5c9.7-5.6,9.7-14.8,0-20.4L309.5,220.8z" class="st14"/><path d="M309.4,221.1c-9.7-5.6-25.5-5.6-35.2,0l-85.3,49.3c-9.7,5.6-9.7,14.7,0,20.3l152.7,88.8 c9.7,5.6,25.5,5.6,35.2,0l85.3-49.3c9.7-5.6,9.7-14.7,0-20.3L309.4,221.1z" class="st15"/><path d="M309.3,221.4c-9.6-5.6-25.4-5.6-35,0l-84.9,49c-9.6,5.6-9.6,14.7,0,20.2l152.2,88.6 c9.6,5.6,25.4,5.6,35,0l84.9-49c9.6-5.6,9.6-14.7,0-20.2L309.3,221.4z" class="st16"/><path d="M309.2,221.8c-9.6-5.5-25.3-5.5-34.9,0l-84.4,48.8c-9.6,5.5-9.6,14.6,0,20.1l151.8,88.3 c9.6,5.5,25.3,5.5,34.9,0l84.4-48.8c9.6-5.5,9.6-14.6,0-20.1L309.2,221.8z" class="st17"/><path d="M309.1,222.1c-9.5-5.5-25.1-5.5-34.7,0l-84,48.5c-9.5,5.5-9.5,14.5,0,20l151.4,88.1 c9.5,5.5,25.1,5.5,34.7,0l84-48.5c9.5-5.5,9.5-14.5,0-20L309.1,222.1z" class="st18"/><path d="M309.1,222.4c-9.5-5.5-25-5.5-34.5,0L191,270.6c-9.5,5.5-9.5,14.4,0,19.9l150.9,87.8 c9.5,5.5,25,5.5,34.5,0l83.6-48.2c9.5-5.5,9.5-14.4,0-19.9L309.1,222.4z" class="st19"/><path d="M309,222.7c-9.4-5.4-24.9-5.4-34.3,0l-83.1,48c-9.4,5.4-9.4,14.4,0,19.8L342,378 c9.4,5.4,24.9,5.4,34.3,0l83.1-48c9.4-5.4,9.4-14.4,0-19.8L309,222.7z" class="st20"/><path d="M308.9,223c-9.4-5.4-24.7-5.4-34.1,0l-82.7,47.7c-9.4,5.4-9.4,14.3,0,19.7l150.1,87.3 c9.4,5.4,24.7,5.4,34.1,0l82.7-47.7c9.4-5.4,9.4-14.3,0-19.7L308.9,223z" class="st21"/><path d="M308.8,223.3c-9.3-5.4-24.6-5.4-33.9,0l-82.2,47.5c-9.3,5.4-9.3,14.2,0,19.6l149.6,87 c9.3,5.4,24.6,5.4,33.9,0l82.2-47.5c9.3-5.4,9.3-14.2,0-19.6L308.8,223.3z" class="st22"/><path d="M308.7,223.6c-9.3-5.4-24.5-5.4-33.8,0l-81.8,47.2c-9.3,5.4-9.3,14.1,0,19.5l149.2,86.8 c9.3,5.4,24.5,5.4,33.8,0l81.8-47.2c9.3-5.4,9.3-14.1,0-19.5L308.7,223.6z" class="st23"/><path d="M308.6,223.9c-9.2-5.3-24.4-5.3-33.6,0l-81.4,47c-9.2,5.3-9.2,14.1,0,19.4l148.7,86.5 c9.2,5.3,24.4,5.3,33.6,0l81.4-47c9.2-5.3,9.2-14.1,0-19.4L308.6,223.9z" class="st24"/><path d="M308.5,224.2c-9.2-5.3-24.2-5.3-33.4,0l-80.9,46.7c-9.2,5.3-9.2,14,0,19.3l148.3,86.3 c9.2,5.3,24.2,5.3,33.4,0l80.9-46.7c9.2-5.3,9.2-14,0-19.3L308.5,224.2z" class="st25"/><path d="M308.4,224.5c-9.1-5.3-24.1-5.3-33.2,0L194.7,271c-9.1,5.3-9.1,13.9,0,19.2l147.9,86 c9.1,5.3,24.1,5.3,33.2,0l80.5-46.5c9.1-5.3,9.1-13.9,0-19.2L308.4,224.5z" class="st26"/><path d="M308.3,224.8c-9.1-5.2-24-5.2-33,0L195.2,271c-9.1,5.2-9.1,13.8,0,19.1l147.4,85.8c9.1,5.2,24,5.2,33,0 l80.1-46.2c9.1-5.2,9.1-13.8,0-19.1L308.3,224.8z" class="st27"/><path d="M308.2,225.1c-9-5.2-23.8-5.2-32.9,0l-79.6,46c-9,5.2-9,13.8,0,19l147,85.5c9,5.2,23.8,5.2,32.9,0 l79.6-46c9-5.2,9-13.8,0-19L308.2,225.1z" class="st28"/><path d="M308.2,225.4c-9-5.2-23.7-5.2-32.7,0l-79.2,45.7c-9,5.2-9,13.7,0,18.9l146.5,85.3 c9,5.2,23.7,5.2,32.7,0l79.2-45.7c9-5.2,9-13.7,0-18.9L308.2,225.4z" class="st29"/><path d="M308.1,225.7c-8.9-5.2-23.6-5.2-32.5,0l-78.7,45.5c-8.9,5.2-8.9,13.6,0,18.8l146.1,85 c8.9,5.2,23.6,5.2,32.5,0l78.7-45.5c8.9-5.2,8.9-13.6,0-18.8L308.1,225.7z" class="st30"/><path d="M308,226c-8.9-5.1-23.4-5.1-32.3,0l-78.3,45.2c-8.9,5.1-8.9,13.5,0,18.7L343,374.7 c8.9,5.1,23.4,5.1,32.3,0l78.3-45.2c8.9-5.1,8.9-13.5,0-18.7L308,226z" class="st31"/><path d="M307.9,226.3c-8.8-5.1-23.3-5.1-32.1,0l-77.9,45c-8.8,5.1-8.8,13.5,0,18.6l145.2,84.5 c8.8,5.1,23.3,5.1,32.1,0l77.9-45c8.8-5.1,8.8-13.5,0-18.6L307.9,226.3z" class="st32"/><path d="M307.8,226.6c-8.8-5.1-23.2-5.1-32,0l-77.4,44.7c-8.8,5.1-8.8,13.4,0,18.5L343.2,374 c8.8,5.1,23.2,5.1,32,0l77.4-44.7c8.8-5.1,8.8-13.4,0-18.5L307.8,226.6z" class="st33"/><path d="M307.7,227c-8.7-5-23-5-31.8,0l-77,44.4c-8.7,5-8.7,13.3,0,18.3l144.3,84c8.7,5,23,5,31.8,0l77-44.4 c8.7-5,8.7-13.3,0-18.3L307.7,227z" class="st34"/><path d="M307.6,227.3c-8.7-5-22.9-5-31.6,0l-76.5,44.2c-8.7,5-8.7,13.2,0,18.2l143.9,83.7c8.7,5,22.9,5,31.6,0 l76.5-44.2c8.7-5,8.7-13.2,0-18.2L307.6,227.3z" class="st35"/><path d="M307.5,227.6c-8.6-5-22.8-5-31.4,0L200,271.5c-8.6,5-8.6,13.1,0,18.1l143.5,83.5c8.6,5,22.8,5,31.4,0 l76.1-43.9c8.6-5,8.6-13.1,0-18.1L307.5,227.6z" class="st36"/><path d="M307.4,227.9c-8.6-5-22.6-5-31.2,0l-75.7,43.7c-8.6,5-8.6,13.1,0,18l143,83.2c8.6,5,22.6,5,31.2,0 l75.7-43.7c8.6-5,8.6-13.1,0-18L307.4,227.9z" class="st37"/><path d="M307.3,228.2c-8.5-4.9-22.5-4.9-31.1,0l-75.2,43.4c-8.5,4.9-8.5,13,0,17.9l142.6,83 c8.5,4.9,22.5,4.9,31.1,0l75.2-43.4c8.5-4.9,8.5-13,0-17.9L307.3,228.2z" class="st38"/><path d="M307.2,228.5c-8.5-4.9-22.4-4.9-30.9,0l-74.8,43.2c-8.5,4.9-8.5,12.9,0,17.8l142.2,82.7 c8.5,4.9,22.4,4.9,30.9,0l74.8-43.2c8.5-4.9,8.5-12.9,0-17.8L307.2,228.5z" class="st39"/><path d="M307.2,228.8c-8.4-4.9-22.2-4.9-30.7,0l-74.3,42.9c-8.4,4.9-8.4,12.8,0,17.7l141.7,82.5 c8.4,4.9,22.2,4.9,30.7,0l74.3-42.9c8.4-4.9,8.4-12.8,0-17.7L307.2,228.8z" class="st40"/><path d="M307.1,229.1c-8.4-4.8-22.1-4.8-30.5,0l-73.9,42.7c-8.4,4.8-8.4,12.8,0,17.6l141.3,82.2 c8.4,4.8,22.1,4.8,30.5,0l73.9-42.7c8.4-4.8,8.4-12.8,0-17.6L307.1,229.1z" class="st41"/><path d="M307,229.4c-8.3-4.8-22-4.8-30.3,0l-73.5,42.4c-8.3,4.8-8.3,12.7,0,17.5l140.8,82 c8.3,4.8,22,4.8,30.3,0l73.5-42.4c8.3-4.8,8.3-12.7,0-17.5L307,229.4z" class="st42"/><path d="M306.9,229.7c-8.3-4.8-21.9-4.8-30.1,0l-73,42.2c-8.3,4.8-8.3,12.6,0,17.4L344.1,371 c8.3,4.8,21.9,4.8,30.1,0l73-42.2c8.3-4.8,8.3-12.6,0-17.4L306.9,229.7z" class="st43"/><path d="M306.8,230c-8.2-4.8-21.7-4.8-30,0l-72.6,41.9c-8.2,4.8-8.2,12.5,0,17.3l140,81.5 c8.2,4.8,21.7,4.8,30,0l72.6-41.9c8.2-4.8,8.2-12.5,0-17.3L306.8,230z" class="st44"/><path d="M306.7,230.3c-8.2-4.7-21.6-4.7-29.8,0L204.8,272c-8.2,4.7-8.2,12.5,0,17.2l139.5,81.2 c8.2,4.7,21.6,4.7,29.8,0l72.2-41.7c8.2-4.7,8.2-12.5,0-17.2L306.7,230.3z" class="st45"/><path d="M306.6,230.6c-8.1-4.7-21.5-4.7-29.6,0L205.3,272c-8.1,4.7-8.1,12.4,0,17.1l139.1,81 c8.1,4.7,21.5,4.7,29.6,0l71.7-41.4c8.1-4.7,8.1-12.4,0-17.1L306.6,230.6z" class="st46"/><path d="M306.5,230.9c-8.1-4.7-21.3-4.7-29.4,0l-71.3,41.2c-8.1,4.7-8.1,12.3,0,17l138.6,80.7 c8.1,4.7,21.3,4.7,29.4,0l71.3-41.2c8.1-4.7,8.1-12.3,0-17L306.5,230.9z" class="st47"/><path d="M306.4,231.2c-8-4.6-21.2-4.6-29.2,0l-70.8,40.9c-8,4.6-8,12.2,0,16.9l138.2,80.5 c8,4.6,21.2,4.6,29.2,0l70.8-40.9c8-4.6,8-12.2,0-16.9L306.4,231.2z" class="st48"/><path d="M306.3,231.5c-8-4.6-21.1-4.6-29.1,0l-70.4,40.6c-8,4.6-8,12.2,0,16.8l137.8,80.2 c8,4.6,21.1,4.6,29.1,0l70.4-40.6c8-4.6,8-12.2,0-16.8L306.3,231.5z" class="st49"/><path d="M306.2,231.8c-7.9-4.6-20.9-4.6-28.9,0l-70,40.4c-7.9,4.6-7.9,12.1,0,16.7l137.3,79.9 c7.9,4.6,20.9,4.6,28.9,0l70-40.4c7.9-4.6,7.9-12.1,0-16.7L306.2,231.8z" class="st50"/><path d="M306.2,232.1c-7.9-4.6-20.8-4.6-28.7,0l-69.5,40.1c-7.9,4.6-7.9,12,0,16.6l136.9,79.7 c7.9,4.6,20.8,4.6,28.7,0l69.5-40.1c7.9-4.6,7.9-12,0-16.6L306.2,232.1z" class="st51"/><path id="XMLID_4881_" d="M306.1,232.5c-7.8-4.5-20.7-4.5-28.5,0l-69.1,39.9c-7.8,4.5-7.8,11.9,0,16.5 l136.4,79.4c7.8,4.5,20.7,4.5,28.5,0l69.1-39.9c7.8-4.5,7.8-11.9,0-16.5L306.1,232.5z" class="st52"/></g><g><linearGradient id="XMLID_2_" x1="1786.773" x2="1977.33" y1="175.775" y2="175.775" gradientTransform="matrix(1 0 0 1 -1487.3296 0)" gradientUnits="userSpaceOnUse"><stop offset="0" stop-color="#120426"/><stop offset="1" stop-color="#3C3940"/></linearGradient><path id="XMLID_4880_" d="M486,154.8L304.9,50.2c-2.4-1.4-5.5,0.4-5.5,3.2v136.5c0,2.8,1.5,5.5,4,6.9 l181.1,104.5c2.4,1.4,5.5-0.4,5.5-3.2V161.7C490,158.8,488.5,156.2,486,154.8z" class="st53"/><linearGradient id="XMLID_3_" x1="-1295.883" x2="-1105.324" y1="177.335" y2="177.335" gradientTransform="matrix(-1 0 0 1 -808.2224 0)" gradientUnits="userSpaceOnUse"><stop offset="0" stop-color="#78727F"/><stop offset="1" stop-color="#3C3940"/></linearGradient><path id="XMLID_4863_" d="M483.7,156.3L302.6,51.8c-2.4-1.4-5.5,0.4-5.5,3.2v136.5c0,2.8,1.5,5.5,4,6.9 l181.1,104.5c2.4,1.4,5.5-0.4,5.5-3.2V163.2C487.7,160.4,486.1,157.8,483.7,156.3z" class="st54"/><linearGradient id="XMLID_4_" x1="-1285.155" x2="-1114.768" y1="177.897" y2="177.897" gradientTransform="matrix(-1 0 0 1 -808.2224 0)" gradientUnits="userSpaceOnUse"><stop offset="0" stop-color="#3C3940"/><stop offset=".347" stop-color="#302A39"/><stop offset="1" stop-color="#120426"/></linearGradient><polygon id="XMLID_4862_" points="476.9 165 306.5 66 306.5 190.8 476.9 289.8" class="st55"/><linearGradient id="XMLID_5_" x1="1661.064" x2="1972.114" y1="292.04" y2="292.04" gradientTransform="matrix(1 0 0 1 -1487.3296 0)" gradientUnits="userSpaceOnUse"><stop offset="0" stop-color="#120426"/><stop offset="1" stop-color="#3C3940"/></linearGradient><path id="XMLID_4859_" d="M289.8,204.9l-116,61.2c0,0-0.6,9.1,1.8,10.5l177.7,102.6c4.5,2.6,10.1,2.6,14.7,0 l114.1-65.2c4.7-2.9,1.9-10.5,1.9-10.5l-179.5-98.5C299.9,202.3,294.3,202.3,289.8,204.9z" class="st56"/><linearGradient id="XMLID_6_" x1="-1292.151" x2="-982.016" y1="285.019" y2="285.019" gradientTransform="matrix(-1 0 0 1 -808.2224 0)" gradientUnits="userSpaceOnUse"><stop offset="0" stop-color="#78727F"/><stop offset="1" stop-color="#3C3940"/></linearGradient><path id="XMLID_4795_" d="M289.8,197.9l-114.1,65.2c-2.5,1.4-2.5,5,0,6.4l177.7,102.6c4.5,2.6,10.1,2.6,14.7,0 l114.1-65.2c2.5-1.4,2.5-5,0-6.4L304.4,197.9C299.9,195.3,294.3,195.3,289.8,197.9z" class="st57"/><path id="XMLID_4794_" d="M279.6,282.4l-30.1,17.2c-0.7,0.4-0.7,1.3,0,1.7l46.8,27c1.2,0.7,2.7,0.7,3.9,0 l30.1-17.2c0.7-0.4,0.7-1.3,0-1.7l-46.8-27C282.3,281.7,280.8,281.7,279.6,282.4z" class="st58"/><g><path id="XMLID_4793_" d="M302.3,207.9l9.8,5.7c0.4,0.2,0.4,0.8,0,1l-4.9,2.8c-0.4,0.2-0.9,0.2-1.3,0l-9.8-5.7 c-0.4-0.2-0.4-0.8,0-1l4.9-2.8C301.5,207.6,302,207.6,302.3,207.9z" class="st59"/><path id="XMLID_4789_" d="M316.7,216.4l9.8,5.7c0.4,0.2,0.4,0.8,0,1l-4.9,2.8c-0.4,0.2-0.9,0.2-1.3,0l-9.8-5.7 c-0.4-0.2-0.4-0.8,0-1l4.9-2.8C315.9,216.2,316.4,216.2,316.7,216.4z" class="st59"/><path id="XMLID_4788_" d="M331.2,224.6l9.8,5.7c0.4,0.2,0.4,0.8,0,1l-4.9,2.8c-0.4,0.2-0.9,0.2-1.3,0l-9.8-5.7 c-0.4-0.2-0.4-0.8,0-1l4.9-2.8C330.3,224.3,330.8,224.3,331.2,224.6z" class="st59"/><path id="XMLID_4787_" d="M346.1,233l9.8,5.7c0.4,0.2,0.4,0.8,0,1l-4.9,2.8c-0.4,0.2-0.9,0.2-1.3,0l-9.8-5.7 c-0.4-0.2-0.4-0.8,0-1l4.9-2.8C345.2,232.7,345.7,232.7,346.1,233z" class="st59"/><path id="XMLID_4786_" d="M360.4,240.9l9.8,5.7c0.4,0.2,0.4,0.8,0,1l-4.9,2.8c-0.4,0.2-0.9,0.2-1.3,0l-9.8-5.7 c-0.4-0.2-0.4-0.8,0-1l4.9-2.8C359.5,240.7,360,240.7,360.4,240.9z" class="st59"/><path id="XMLID_4785_" d="M374.3,249.5l9.8,5.7c0.4,0.2,0.4,0.8,0,1l-4.9,2.8c-0.4,0.2-0.9,0.2-1.3,0l-9.8-5.7 c-0.4-0.2-0.4-0.8,0-1l4.9-2.8C373.4,249.3,373.9,249.3,374.3,249.5z" class="st59"/><path id="XMLID_4784_" d="M388.9,257.5l9.8,5.7c0.4,0.2,0.4,0.8,0,1l-4.9,2.8c-0.4,0.2-0.9,0.2-1.3,0l-9.8-5.7 c-0.4-0.2-0.4-0.8,0-1l4.9-2.8C388,257.3,388.5,257.3,388.9,257.5z" class="st59"/><path id="XMLID_4783_" d="M403.2,266.1l9.8,5.7c0.4,0.2,0.4,0.8,0,1l-4.9,2.8c-0.4,0.2-0.9,0.2-1.3,0l-9.8-5.7 c-0.4-0.2-0.4-0.8,0-1l4.9-2.8C402.4,265.9,402.8,265.9,403.2,266.1z" class="st59"/><path id="XMLID_4782_" d="M417.3,274.4l9.8,5.7c0.4,0.2,0.4,0.8,0,1l-4.9,2.8c-0.4,0.2-0.9,0.2-1.3,0l-9.8-5.7 c-0.4-0.2-0.4-0.8,0-1l4.9-2.8C416.5,274.2,416.9,274.2,417.3,274.4z" class="st59"/><path id="XMLID_4750_" d="M432.2,283l9.8,5.7c0.4,0.2,0.4,0.8,0,1l-4.9,2.8c-0.4,0.2-0.9,0.2-1.3,0l-9.8-5.7 c-0.4-0.2-0.4-0.8,0-1l4.9-2.8C431.3,282.8,431.8,282.8,432.2,283z" class="st59"/><path id="XMLID_4749_" d="M446.6,291.1l9.8,5.7c0.4,0.2,0.4,0.8,0,1l-4.9,2.8c-0.4,0.2-0.9,0.2-1.3,0l-9.8-5.7 c-0.4-0.2-0.4-0.8,0-1l4.9-2.8C445.8,290.9,446.3,290.9,446.6,291.1z" class="st59"/><g id="XMLID_4718_"><path id="XMLID_4747_" d="M282.3,218.6l6.7-3.9c0.9-0.5,1.9-0.5,2.8,0l6.5,3.8c0.9,0.5,0.9,1.8,0,2.4l-6.5,4 c-0.9,0.5-2,0.5-2.8,0l-6.7-3.8C281.4,220.4,281.4,219.1,282.3,218.6z" class="st59"/><path id="XMLID_4746_" d="M297.3,227.1l6.7-3.9c0.9-0.5,1.9-0.5,2.8,0l6.5,3.8c0.9,0.5,0.9,1.8,0,2.4l-6.5,4 c-0.9,0.5-2,0.5-2.8,0l-6.7-3.8C296.3,229,296.3,227.7,297.3,227.1z" class="st59"/><path id="XMLID_4745_" d="M311.7,235.3l6.7-3.9c0.9-0.5,1.9-0.5,2.8,0l6.5,3.8c0.9,0.5,0.9,1.8,0,2.4l-6.5,4 c-0.9,0.5-2,0.5-2.8,0l-6.7-3.8C310.8,237.1,310.8,235.8,311.7,235.3z" class="st59"/><path id="XMLID_4744_" d="M327.1,243.6l6.7-3.9c0.9-0.5,1.9-0.5,2.8,0l6.5,3.8c0.9,0.5,0.9,1.8,0,2.4l-6.5,4 c-0.9,0.5-2,0.5-2.8,0l-6.7-3.8C326.2,245.5,326.2,244.2,327.1,243.6z" class="st59"/><path id="XMLID_4743_" d="M340.7,251.6l6.7-3.9c0.9-0.5,1.9-0.5,2.8,0l6.5,3.8c0.9,0.5,0.9,1.8,0,2.4l-6.5,4 c-0.9,0.5-2,0.5-2.8,0l-6.7-3.8C339.8,253.5,339.8,252.2,340.7,251.6z" class="st59"/><path id="XMLID_4742_" d="M354.5,260.2l6.7-3.9c0.9-0.5,1.9-0.5,2.8,0l6.5,3.8c0.9,0.5,0.9,1.8,0,2.4l-6.5,4 c-0.9,0.5-2,0.5-2.8,0l-6.7-3.8C353.6,262,353.6,260.7,354.5,260.2z" class="st59"/><path id="XMLID_4741_" d="M369.2,268.2l6.7-3.9c0.9-0.5,1.9-0.5,2.8,0l6.5,3.8c0.9,0.5,0.9,1.8,0,2.4l-6.5,4 c-0.9,0.5-2,0.5-2.8,0l-6.7-3.8C368.3,270.1,368.3,268.8,369.2,268.2z" class="st59"/><path id="XMLID_4740_" d="M383.6,276.4l6.7-3.9c0.9-0.5,1.9-0.5,2.8,0l6.5,3.8c0.9,0.5,0.9,1.8,0,2.4l-6.5,4 c-0.9,0.5-2,0.6-2.8,0l-6.7-3.8C382.7,278.3,382.7,276.9,383.6,276.4z" class="st59"/><path id="XMLID_4739_" d="M397.8,285.1l6.7-3.9c0.9-0.5,1.9-0.5,2.8,0l6.5,3.8c0.9,0.5,0.9,1.8,0,2.4l-6.5,4 c-0.9,0.5-2,0.5-2.8,0l-6.7-3.8C396.9,287,396.9,285.6,397.8,285.1z" class="st59"/><path id="XMLID_4738_" d="M413.3,294.2l6.7-3.9c0.9-0.5,1.9-0.5,2.8,0l6.5,3.8c0.9,0.5,0.9,1.8,0,2.4l-6.5,4 c-0.9,0.5-2,0.5-2.8,0l-6.7-3.8C412.4,296.1,412.3,294.7,413.3,294.2z" class="st59"/><path id="XMLID_4719_" d="M427.2,301.8l6.7-3.9c0.9-0.5,1.9-0.5,2.8,0l6.5,3.8c0.9,0.5,0.9,1.8,0,2.4l-6.5,4 c-0.9,0.5-2,0.5-2.8,0l-6.7-3.8C426.3,303.6,426.3,302.3,427.2,301.8z" class="st59"/></g><g id="XMLID_4257_"><path id="XMLID_4708_" d="M267.5,226.6l6.7-3.9c0.9-0.5,1.9-0.5,2.8,0l6.5,3.8c0.9,0.5,0.9,1.8,0,2.4l-6.5,4 c-0.9,0.5-2,0.5-2.8,0l-6.7-3.8C266.6,228.5,266.6,227.2,267.5,226.6z" class="st59"/><path id="XMLID_4357_" d="M282.4,235.2l6.7-3.9c0.9-0.5,1.9-0.5,2.8,0l6.5,3.8c0.9,0.5,0.9,1.8,0,2.4l-6.5,4 c-0.9,0.5-2,0.6-2.8,0l-6.7-3.8C281.5,237.1,281.5,235.7,282.4,235.2z" class="st59"/><path id="XMLID_4349_" d="M296.9,243.3l6.7-3.9c0.9-0.5,1.9-0.5,2.8,0l6.5,3.8c0.9,0.5,0.9,1.8,0,2.4l-6.5,4 c-0.9,0.5-2,0.5-2.8,0l-6.7-3.8C296,245.2,296,243.9,296.9,243.3z" class="st59"/><path id="XMLID_4347_" d="M312.3,251.7l6.7-3.9c0.9-0.5,1.9-0.5,2.8,0l6.5,3.8c0.9,0.5,0.9,1.8,0,2.4l-6.5,4 c-0.9,0.5-2,0.5-2.8,0l-6.7-3.8C311.4,253.6,311.4,252.3,312.3,251.7z" class="st59"/><path id="XMLID_4346_" d="M325.9,259.7l6.7-3.9c0.9-0.5,1.9-0.5,2.8,0l6.5,3.8c0.9,0.5,0.9,1.8,0,2.4l-6.5,4 c-0.9,0.5-2,0.5-2.8,0l-6.7-3.8C325,261.6,325,260.2,325.9,259.7z" class="st59"/><path id="XMLID_4301_" d="M339.7,268.2l6.7-3.9c0.9-0.5,1.9-0.5,2.8,0l6.5,3.8c0.9,0.5,0.9,1.8,0,2.4l-6.5,4 c-0.9,0.5-2,0.5-2.8,0l-6.7-3.8C338.7,270.1,338.7,268.8,339.7,268.2z" class="st59"/><path id="XMLID_4265_" d="M354.4,276.3l6.7-3.9c0.9-0.5,1.9-0.5,2.8,0l6.5,3.8c0.9,0.5,0.9,1.8,0,2.4l-6.5,4 c-0.9,0.5-2,0.5-2.8,0l-6.7-3.8C353.5,278.2,353.5,276.8,354.4,276.3z" class="st59"/><path id="XMLID_4264_" d="M368.8,284.5l6.7-3.9c0.9-0.5,1.9-0.5,2.8,0l6.5,3.8c0.9,0.5,0.9,1.8,0,2.4l-6.5,4 c-0.9,0.5-2,0.5-2.8,0l-6.7-3.8C367.9,286.3,367.9,285,368.8,284.5z" class="st59"/><path id="XMLID_4263_" d="M383,293.2l6.7-3.9c0.9-0.5,1.9-0.5,2.8,0l6.5,3.8c0.9,0.5,0.9,1.8,0,2.4l-6.5,4 c-0.9,0.5-2,0.5-2.8,0l-6.7-3.8C382.1,295,382.1,293.7,383,293.2z" class="st59"/><path id="XMLID_4259_" d="M398.4,302.3l6.7-3.9c0.9-0.5,1.9-0.5,2.8,0l6.5,3.8c0.9,0.5,0.9,1.8,0,2.4l-6.5,4 c-0.9,0.5-2,0.6-2.8,0l-6.7-3.8C397.5,304.1,397.5,302.8,398.4,302.3z" class="st59"/><path id="XMLID_4258_" d="M412.4,309.8l6.7-3.9c0.9-0.5,1.9-0.5,2.8,0l6.5,3.8c0.9,0.5,0.9,1.8,0,2.4l-6.5,4 c-0.9,0.5-2,0.6-2.8,0l-6.7-3.8C411.5,311.7,411.5,310.4,412.4,309.8z" class="st59"/></g><g id="XMLID_4245_"><path id="XMLID_4256_" d="M252.7,234.7l6.7-3.9c0.9-0.5,1.9-0.5,2.8,0l6.5,3.8c0.9,0.5,0.9,1.8,0,2.4l-6.5,4 c-0.9,0.5-2,0.5-2.8,0l-6.7-3.8C251.8,236.6,251.7,235.2,252.7,234.7z" class="st59"/><path id="XMLID_4255_" d="M267.6,243.3l6.7-3.9c0.9-0.5,1.9-0.5,2.8,0l6.5,3.8c0.9,0.5,0.9,1.8,0,2.4l-6.5,4 c-0.9,0.5-2,0.5-2.8,0l-6.7-3.8C266.7,245.1,266.7,243.8,267.6,243.3z" class="st59"/><path id="XMLID_4254_" d="M282.1,251.4l6.7-3.9c0.9-0.5,1.9-0.5,2.8,0l6.5,3.8c0.9,0.5,0.9,1.8,0,2.4l-6.5,4 c-0.9,0.5-2,0.5-2.8,0l-6.7-3.8C281.1,253.3,281.1,251.9,282.1,251.4z" class="st59"/><path id="XMLID_4253_" d="M297.5,259.8l6.7-3.9c0.9-0.5,1.9-0.5,2.8,0l6.5,3.8c0.9,0.5,0.9,1.8,0,2.4l-6.5,4 c-0.9,0.5-2,0.5-2.8,0l-6.7-3.8C296.5,261.7,296.5,260.3,297.5,259.8z" class="st59"/><path id="XMLID_4252_" d="M311,267.8l6.7-3.9c0.9-0.5,1.9-0.5,2.8,0l6.5,3.8c0.9,0.5,0.9,1.8,0,2.4l-6.5,4 c-0.9,0.5-2,0.5-2.8,0l-6.7-3.8C310.1,269.6,310.1,268.3,311,267.8z" class="st59"/><path id="XMLID_4251_" d="M324.8,276.3l6.7-3.9c0.9-0.5,1.9-0.5,2.8,0l6.5,3.8c0.9,0.5,0.9,1.8,0,2.4l-6.5,4 c-0.9,0.5-2,0.5-2.8,0l-6.7-3.8C323.9,278.2,323.9,276.8,324.8,276.3z" class="st59"/><path id="XMLID_4250_" d="M339.5,284.4l6.7-3.9c0.9-0.5,1.9-0.5,2.8,0l6.5,3.8c0.9,0.5,0.9,1.8,0,2.4l-6.5,4 c-0.9,0.5-2,0.5-2.8,0l-6.7-3.8C338.6,286.2,338.6,284.9,339.5,284.4z" class="st59"/><path id="XMLID_4249_" d="M354,292.6l6.7-3.9c0.9-0.5,1.9-0.5,2.8,0l6.5,3.8c0.9,0.5,0.9,1.8,0,2.4l-6.5,4 c-0.9,0.5-2,0.5-2.8,0l-6.7-3.8C353.1,294.4,353,293.1,354,292.6z" class="st59"/><path id="XMLID_4248_" d="M368.1,301.2l6.7-3.9c0.9-0.5,1.9-0.5,2.8,0l6.5,3.8c0.9,0.5,0.9,1.8,0,2.4l-6.5,4 c-0.9,0.5-2,0.5-2.8,0l-6.7-3.8C367.2,303.1,367.2,301.8,368.1,301.2z" class="st59"/><path id="XMLID_4247_" d="M383.6,310.3l6.7-3.9c0.9-0.5,1.9-0.5,2.8,0l6.5,3.8c0.9,0.5,0.9,1.8,0,2.4l-6.5,4 c-0.9,0.5-2,0.5-2.8,0l-6.7-3.8C382.7,312.2,382.7,310.9,383.6,310.3z" class="st59"/><path id="XMLID_4246_" d="M397.6,317.9l6.7-3.9c0.9-0.5,1.9-0.5,2.8,0l6.5,3.8c0.9,0.5,0.9,1.8,0,2.4l-6.5,4 c-0.9,0.5-2,0.5-2.8,0l-6.7-3.8C396.6,319.8,396.6,318.5,397.6,317.9z" class="st59"/></g><g id="XMLID_4229_"><path id="XMLID_4244_" d="M237.8,242.8l6.7-3.9c0.9-0.5,1.9-0.5,2.8,0l6.5,3.8c0.9,0.5,0.9,1.8,0,2.4l-6.5,4 c-0.9,0.5-2,0.6-2.8,0l-6.7-3.8C236.9,244.6,236.9,243.3,237.8,242.8z" class="st59"/><path id="XMLID_4243_" d="M252.7,251.3l6.7-3.9c0.9-0.5,1.9-0.5,2.8,0l6.5,3.8c0.9,0.5,0.9,1.8,0,2.4l-6.5,4 c-0.9,0.5-2,0.5-2.8,0l-6.7-3.8C251.8,253.2,251.8,251.9,252.7,251.3z" class="st59"/><path id="XMLID_4242_" d="M267.2,259.5l6.7-3.9c0.9-0.5,1.9-0.5,2.8,0l6.5,3.8c0.9,0.5,0.9,1.8,0,2.4l-6.5,4 c-0.9,0.5-2,0.5-2.8,0l-6.7-3.8C266.3,261.3,266.3,260,267.2,259.5z" class="st59"/><path id="XMLID_4241_" d="M282.6,267.9l6.7-3.9c0.9-0.5,1.9-0.5,2.8,0l6.5,3.8c0.9,0.5,0.9,1.8,0,2.4l-6.5,4 c-0.9,0.5-2,0.5-2.8,0l-6.7-3.8C281.7,269.7,281.7,268.4,282.6,267.9z" class="st59"/><path id="XMLID_4240_" d="M297.5,276.7l6.7-3.9c0.9-0.5,1.9-0.5,2.8,0l33.9,19.6c0.9,0.5,0.9,1.8,0,2.4 l-6.5,4c-0.9,0.5-2,0.5-2.8,0l-34-19.6C296.5,278.6,296.5,277.3,297.5,276.7z" class="st59"/><path id="XMLID_4239_" d="M339.1,300.6l6.7-3.9c0.9-0.5,1.9-0.5,2.8,0l6.5,3.8c0.9,0.5,0.9,1.8,0,2.4l-6.5,4 c-0.9,0.5-2,0.5-2.8,0l-6.7-3.8C338.2,302.5,338.2,301.2,339.1,300.6z" class="st59"/><path id="XMLID_4238_" d="M353.3,309.3l6.7-3.9c0.9-0.5,1.9-0.5,2.8,0l6.5,3.8c0.9,0.5,0.9,1.8,0,2.4l-6.5,4 c-0.9,0.5-2,0.5-2.8,0l-6.7-3.8C352.4,311.2,352.4,309.9,353.3,309.3z" class="st59"/><path id="XMLID_4237_" d="M368.7,318.4l6.7-3.9c0.9-0.5,1.9-0.5,2.8,0l6.5,3.8c0.9,0.5,0.9,1.8,0,2.4l-6.5,4 c-0.9,0.5-2,0.5-2.8,0l-6.7-3.8C367.8,320.3,367.8,318.9,368.7,318.4z" class="st59"/><path id="XMLID_4236_" d="M382.7,326l6.7-3.9c0.9-0.5,1.9-0.5,2.8,0l6.5,3.8c0.9,0.5,0.9,1.8,0,2.4l-6.5,4 c-0.9,0.5-2,0.5-2.8,0l-6.7-3.8C381.8,327.9,381.8,326.5,382.7,326z" class="st59"/></g></g><g><g><g><linearGradient id="SVGID_1_" x1="324.015" x2="377.27" y1="156.143" y2="156.143" gradientUnits="userSpaceOnUse"><stop offset="0" stop-color="#1CA63A"/><stop offset="1" stop-color="#24D84B"/></linearGradient><path d="M374.8,214c-0.4,0-0.8-0.1-1.2-0.3l-47.5-27.5c-1.3-0.7-2.1-2.1-2.1-3.6v-82.1 c0-0.8,0.4-1.5,1.1-1.9c0.7-0.4,1.5-0.4,2.2,0l34.2,19.8c2.7,1.6,5,3.9,6.5,6.7l7.9,15c0.9,1.7,1.3,3.5,1.3,5.4v66.1 c0,0.9-0.5,1.7-1.2,2.1C375.7,213.9,375.2,214,374.8,214z M326.3,99c-0.3,0-0.5,0.1-0.7,0.2c-0.5,0.3-0.7,0.8-0.7,1.3 v82.1c0,1.2,0.6,2.3,1.7,2.9L374,213c0.5,0.3,1.2,0.3,1.7,0c0.5-0.3,0.9-0.9,0.9-1.5v-66.1c0-1.8-0.4-3.5-1.3-5.1l-7.9-15 c-1.4-2.7-3.6-4.9-6.2-6.4L327,99.2C326.8,99.1,326.5,99,326.3,99z" class="st60"/></g><g><g><g><path d="M339.9,116.5c-0.2-0.1-0.3-0.3-0.3-0.5c0-0.2,0.1-0.2,0.3-0.2c0.2,0.1,0.3,0.3,0.3,0.5 C340.2,116.6,340.1,116.6,339.9,116.5z" class="st61"/><path d="M339.9,118.2c-0.2-0.1-0.3-0.3-0.3-0.5c0-0.2,0.1-0.2,0.3-0.2c0.2,0.1,0.3,0.3,0.3,0.5 C340.2,118.2,340.1,118.3,339.9,118.2z" class="st61"/><path d="M339.9,119.8c-0.2-0.1-0.3-0.3-0.3-0.5c0-0.2,0.1-0.2,0.3-0.2c0.2,0.1,0.3,0.3,0.3,0.5 C340.2,119.9,340,119.9,339.9,119.8z" class="st61"/><path d="M339.9,121.5c-0.2-0.1-0.3-0.3-0.3-0.5c0-0.2,0.1-0.2,0.3-0.2c0.2,0.1,0.3,0.3,0.3,0.5 C340.2,121.5,340,121.6,339.9,121.5z" class="st61"/><path d="M339.9,123.1c-0.2-0.1-0.3-0.3-0.3-0.5c0-0.2,0.1-0.2,0.3-0.2c0.2,0.1,0.3,0.3,0.3,0.5 C340.1,123.1,340,123.2,339.9,123.1z" class="st61"/><path d="M339.8,124.8c-0.2-0.1-0.3-0.3-0.3-0.5c0-0.2,0.1-0.2,0.3-0.2c0.2,0.1,0.3,0.3,0.3,0.5 C340.1,124.8,340,124.9,339.8,124.8z" class="st61"/><path d="M339.8,126.4c-0.2-0.1-0.3-0.3-0.3-0.5c0-0.2,0.1-0.2,0.3-0.2c0.2,0.1,0.3,0.3,0.3,0.5 C340.1,126.4,340,126.5,339.8,126.4z" class="st61"/><path d="M339.8,128.1c-0.2-0.1-0.3-0.3-0.3-0.5c0-0.2,0.1-0.2,0.3-0.2c0.2,0.1,0.3,0.3,0.3,0.5 C340.1,128.1,340,128.2,339.8,128.1z" class="st61"/><path d="M339.8,129.7c-0.2-0.1-0.3-0.3-0.3-0.5c0-0.2,0.1-0.2,0.3-0.2c0.2,0.1,0.3,0.3,0.3,0.5 C340.1,129.7,340,129.8,339.8,129.7z" class="st61"/><path d="M339.8,131.4c-0.2-0.1-0.3-0.3-0.3-0.5c0-0.2,0.1-0.2,0.3-0.2c0.2,0.1,0.3,0.3,0.3,0.5 C340.1,131.4,339.9,131.4,339.8,131.4z" class="st61"/></g><g><path d="M339.8,133.1c-0.2-0.1-0.3-0.3-0.3-0.5c0-0.2,0.1-0.2,0.3-0.2c0.2,0.1,0.3,0.3,0.3,0.5 C340.1,133.1,339.9,133.2,339.8,133.1z" class="st61"/><path d="M339.8,134.7c-0.2-0.1-0.3-0.3-0.3-0.5c0-0.2,0.1-0.2,0.3-0.2c0.2,0.1,0.3,0.3,0.3,0.5 C340,134.7,339.9,134.8,339.8,134.7z" class="st61"/><path d="M339.8,136.4c-0.2-0.1-0.3-0.3-0.3-0.5c0-0.2,0.1-0.2,0.3-0.2c0.2,0.1,0.3,0.3,0.3,0.5 C340,136.4,339.9,136.5,339.8,136.4z" class="st61"/><path d="M339.7,138c-0.2-0.1-0.3-0.3-0.3-0.5c0-0.2,0.1-0.2,0.3-0.2c0.2,0.1,0.3,0.3,0.3,0.5 S339.9,138.1,339.7,138z" class="st61"/><path d="M339.7,139.7c-0.2-0.1-0.3-0.3-0.3-0.5c0-0.2,0.1-0.2,0.3-0.2c0.2,0.1,0.3,0.3,0.3,0.5 C340,139.7,339.9,139.7,339.7,139.7z" class="st61"/><path d="M339.7,141.3c-0.2-0.1-0.3-0.3-0.3-0.5c0-0.2,0.1-0.2,0.3-0.2c0.2,0.1,0.3,0.3,0.3,0.5 S339.9,141.4,339.7,141.3z" class="st61"/><path d="M339.7,142.9c-0.2-0.1-0.3-0.3-0.3-0.5c0-0.2,0.1-0.2,0.3-0.2c0.2,0.1,0.3,0.3,0.3,0.5 C340,143,339.9,143,339.7,142.9z" class="st61"/><path d="M339.7,144.6c-0.2-0.1-0.3-0.3-0.3-0.5c0-0.2,0.1-0.2,0.3-0.2c0.2,0.1,0.3,0.3,0.3,0.5 C340,144.6,339.8,144.7,339.7,144.6z" class="st61"/><path d="M339.7,146.2c-0.2-0.1-0.3-0.3-0.3-0.5c0-0.2,0.1-0.2,0.3-0.2c0.2,0.1,0.3,0.3,0.3,0.5 C340,146.3,339.8,146.3,339.7,146.2z" class="st61"/><path d="M339.7,147.9c-0.2-0.1-0.3-0.3-0.3-0.5c0-0.2,0.1-0.2,0.3-0.2c0.2,0.1,0.3,0.3,0.3,0.5 C339.9,147.9,339.8,148,339.7,147.9z" class="st61"/></g></g><polygon points="347.9 121.5 342.5 118.4 342.5 117.6 347.9 120.8" class="st61"/><polygon points="347.9 123.1 342.5 119.9 342.5 119.1 347.9 122.3" class="st61"/><polygon points="347.9 124.6 342.5 121.5 342.5 120.7 347.9 123.9" class="st61"/><polygon points="352.2 128.8 342.4 123 342.5 122.2 352.2 128" class="st61"/><polygon points="350.3 130.5 344.9 127.3 344.9 126.5 350.3 129.7" class="st61"/><polygon points="350.2 132 344.9 128.9 344.9 128.1 350.3 131.2" class="st61"/><polygon points="366.1 141.4 360.7 138.2 360.7 137.4 366.1 140.6" class="st61"/><polygon points="350.2 133.6 344.8 130.4 344.8 129.6 350.2 132.8" class="st61"/><polygon points="362.2 130 348.6 122 348.6 121.2 362.2 129.2" class="st61"/><polygon points="358.8 129.5 348.6 123.5 348.6 122.7 358.8 128.7" class="st61"/><polygon points="366.4 134 359.5 129.9 359.5 129.1 366.4 133.2" class="st61"/><polygon points="368.6 136.8 348.5 125.1 348.5 124.3 368.6 136" class="st61"/><polygon points="367 137.5 354 129.8 354 129.1 367 136.7" class="st61"/><polygon points="368.5 141.2 351 130.9 351 130.1 368.5 140.4" class="st61"/><polygon points="360.1 137.8 350.9 132.4 350.9 131.6 360.1 137" class="st61"/><polygon points="365.1 142.3 350.9 134 350.9 133.2 365.1 141.5" class="st61"/><polygon points="353.2 137.2 347.8 134 347.8 133.2 353.2 136.4" class="st61"/><polygon points="368.4 146.2 353.9 137.6 353.9 136.8 368.4 145.4" class="st61"/><polygon points="370 148.6 347.8 135.6 347.8 134.8 370 147.9" class="st61"/><polygon points="360.5 144.6 347.8 137.1 347.8 136.3 360.5 143.8" class="st61"/><polygon points="369.9 150.2 361.2 145.1 361.2 144.3 369.9 149.4" class="st61"/><polygon points="350.2 140.1 344.8 137 344.8 136.2 350.2 139.3" class="st61"/><polygon points="358.6 146.6 344.8 138.5 344.8 137.7 358.6 145.8" class="st61"/><polygon points="369.9 153.3 359.4 147.1 359.4 146.3 369.9 152.5" class="st61"/><polygon points="354.9 146 344.8 140.1 344.8 139.3 354.9 145.2" class="st61"/><polygon points="356.9 148.8 344.8 141.6 344.8 140.8 356.9 148" class="st61"/><polygon points="361.4 153.1 348 145.2 348 144.4 361.5 152.3" class="st61"/><polygon points="364.9 156.7 348 146.7 348 145.9 364.9 155.9" class="st61"/><polygon points="353.4 151.4 348 148.3 348 147.5 353.4 150.6" class="st61"/><polygon points="369.3 162.4 367.2 161.1 367.2 160.3 369.3 161.6" class="st61"/><polygon points="366.3 160.6 348 149.8 348 149 366.3 159.8" class="st61"/><polygon points="354.2 155.1 348.9 151.9 348.9 151.1 354.2 154.3" class="st61"/><polygon points="368.1 163.2 355 155.5 355 154.7 368.1 162.4" class="st61"/><polygon points="358.2 159 347.9 152.9 348 152.1 358.2 158.2" class="st61"/><polygon points="351.6 156.7 346.3 153.5 346.3 152.7 351.7 155.9" class="st61"/><polygon points="337.6 114.7 333.2 112.1 333.2 112.9 337.6 115.5" class="st61"/><polygon points="337.6 116.3 333.2 113.7 333.2 114.5 337.6 117.1" class="st61"/><polygon points="337.6 119.4 330.9 115.4 330.9 116.2 337.5 120.2" class="st61"/><polygon points="330.9 118.3 330.9 119.1 336.1 122.2 336.1 121.4" class="st61"/><polygon points="330.9 110.8 330.9 111.6 332.5 112.5 332.5 111.7" class="st61"/><polygon points="330.9 112.3 330.9 113.1 332.5 114.1 332.5 113.3" class="st61"/><polygon points="330.8 123.3 330.8 124.1 333.1 125.4 333.1 124.6" class="st61"/><polygon points="330.8 124.8 330.8 125.6 333.1 126.9 333.1 126.1" class="st61"/><polygon points="330.8 129.5 330.8 130.3 336 133.3 336 132.5" class="st61"/><polygon points="330.8 132.6 330.8 133.4 335.9 136.4 335.9 135.6" class="st61"/><polygon points="330.7 134.2 330.7 135 332.7 136.2 332.7 135.4" class="st61"/><polygon points="330.7 138.9 330.7 139.7 332.6 140.8 332.7 140" class="st61"/><polygon points="330.7 142 330.7 142.8 332.6 143.9 332.6 143.1" class="st61"/></g><g><g><g><path d="M339.6,151.8c-0.2-0.1-0.3-0.3-0.3-0.5s0.1-0.2,0.3-0.2c0.2,0.1,0.3,0.3,0.3,0.5 C339.9,151.8,339.7,151.9,339.6,151.8z" class="st61"/><path d="M339.6,153.4c-0.2-0.1-0.3-0.3-0.3-0.5c0-0.2,0.1-0.2,0.3-0.2c0.2,0.1,0.3,0.3,0.3,0.5 C339.8,153.4,339.7,153.5,339.6,153.4z" class="st61"/><path d="M339.6,155.1c-0.2-0.1-0.3-0.3-0.3-0.5c0-0.2,0.1-0.2,0.3-0.2c0.2,0.1,0.3,0.3,0.3,0.5 C339.8,155.1,339.7,155.2,339.6,155.1z" class="st61"/><path d="M339.5,156.7c-0.2-0.1-0.3-0.3-0.3-0.5c0-0.2,0.1-0.2,0.3-0.2c0.2,0.1,0.3,0.3,0.3,0.5 C339.8,156.7,339.7,156.8,339.5,156.7z" class="st61"/><path d="M339.5,158.4c-0.2-0.1-0.3-0.3-0.3-0.5c0-0.2,0.1-0.2,0.3-0.2c0.2,0.1,0.3,0.3,0.3,0.5 C339.8,158.4,339.7,158.4,339.5,158.4z" class="st61"/><path d="M339.5,160c-0.2-0.1-0.3-0.3-0.3-0.5c0-0.2,0.1-0.2,0.3-0.2c0.2,0.1,0.3,0.3,0.3,0.5 C339.8,160,339.7,160.1,339.5,160z" class="st61"/><path d="M339.5,161.6c-0.2-0.1-0.3-0.3-0.3-0.5c0-0.2,0.1-0.2,0.3-0.2c0.2,0.1,0.3,0.3,0.3,0.5 C339.8,161.7,339.7,161.7,339.5,161.6z" class="st61"/><path d="M339.5,163.3c-0.2-0.1-0.3-0.3-0.3-0.5c0-0.2,0.1-0.2,0.3-0.2c0.2,0.1,0.3,0.3,0.3,0.5 C339.8,163.3,339.6,163.4,339.5,163.3z" class="st61"/><path d="M339.5,164.9c-0.2-0.1-0.3-0.3-0.3-0.5c0-0.2,0.1-0.2,0.3-0.2c0.2,0.1,0.3,0.3,0.3,0.5 S339.6,165,339.5,164.9z" class="st61"/><path d="M339.5,166.6c-0.2-0.1-0.3-0.3-0.3-0.5c0-0.2,0.1-0.2,0.3-0.2c0.2,0.1,0.3,0.3,0.3,0.5 C339.7,166.6,339.6,166.7,339.5,166.6z" class="st61"/></g><g><path d="M339.5,168.3c-0.2-0.1-0.3-0.3-0.3-0.5c0-0.2,0.1-0.2,0.3-0.2c0.2,0.1,0.3,0.3,0.3,0.5 C339.7,168.3,339.6,168.4,339.5,168.3z" class="st61"/><path d="M339.4,170c-0.2-0.1-0.3-0.3-0.3-0.5c0-0.2,0.1-0.2,0.3-0.2c0.2,0.1,0.3,0.3,0.3,0.5 C339.7,170,339.6,170,339.4,170z" class="st61"/><path d="M339.4,171.6c-0.2-0.1-0.3-0.3-0.3-0.5c0-0.2,0.1-0.2,0.3-0.2c0.2,0.1,0.3,0.3,0.3,0.5 C339.7,171.6,339.6,171.7,339.4,171.6z" class="st61"/><path d="M339.4,173.2c-0.2-0.1-0.3-0.3-0.3-0.5c0-0.2,0.1-0.2,0.3-0.2c0.2,0.1,0.3,0.3,0.3,0.5 C339.7,173.3,339.6,173.3,339.4,173.2z" class="st61"/><path d="M339.4,174.9c-0.2-0.1-0.3-0.3-0.3-0.5c0-0.2,0.1-0.2,0.3-0.2c0.2,0.1,0.3,0.3,0.3,0.5 C339.7,174.9,339.6,175,339.4,174.9z" class="st61"/><path d="M339.4,176.5c-0.2-0.1-0.3-0.3-0.3-0.5c0-0.2,0.1-0.2,0.3-0.2c0.2,0.1,0.3,0.3,0.3,0.5 C339.7,176.6,339.5,176.6,339.4,176.5z" class="st61"/><path d="M339.4,178.2c-0.2-0.1-0.3-0.3-0.3-0.5c0-0.2,0.1-0.2,0.3-0.2c0.2,0.1,0.3,0.3,0.3,0.5 C339.7,178.2,339.5,178.3,339.4,178.2z" class="st61"/><path d="M339.4,179.8c-0.2-0.1-0.3-0.3-0.3-0.5c0-0.2,0.1-0.2,0.3-0.2c0.2,0.1,0.3,0.3,0.3,0.5 C339.6,179.8,339.5,179.9,339.4,179.8z" class="st61"/><path d="M339.4,181.5c-0.2-0.1-0.3-0.3-0.3-0.5c0-0.2,0.1-0.2,0.3-0.2c0.2,0.1,0.3,0.3,0.3,0.5 C339.6,181.5,339.5,181.6,339.4,181.5z" class="st61"/><path d="M339.3,183.1c-0.2-0.1-0.3-0.3-0.3-0.5c0-0.2,0.1-0.2,0.3-0.2c0.2,0.1,0.3,0.3,0.3,0.5 C339.6,183.1,339.5,183.2,339.3,183.1z" class="st61"/></g></g><polygon points="347.5 156.8 342.2 153.6 342.2 152.8 347.6 156" class="st61"/><polygon points="347.5 158.3 342.1 155.1 342.1 154.4 347.5 157.5" class="st61"/><polygon points="347.5 159.9 342.1 156.7 342.1 155.9 347.5 159.1" class="st61"/><polygon points="351.9 164 342.1 158.2 342.1 157.5 351.9 163.2" class="st61"/><polygon points="349.9 165.7 344.5 162.5 344.5 161.7 349.9 164.9" class="st61"/><polygon points="349.9 167.3 344.5 164.1 344.5 163.3 349.9 166.5" class="st61"/><polygon points="365.8 176.6 360.4 173.4 360.4 172.6 365.8 175.8" class="st61"/><polygon points="349.9 168.8 344.5 165.6 344.5 164.8 349.9 168" class="st61"/><polygon points="361.9 165.2 348.2 157.2 348.2 156.4 361.9 164.4" class="st61"/><polygon points="358.4 164.7 348.2 158.7 348.2 157.9 358.4 164" class="st61"/><polygon points="366 169.2 359.2 165.2 359.2 164.4 366 168.4" class="st61"/><polygon points="368.2 172.1 348.2 160.3 348.2 159.5 368.2 171.3" class="st61"/><polygon points="366.7 172.7 353.7 165.1 353.7 164.3 366.7 171.9" class="st61"/><polygon points="368.1 176.4 350.6 166.1 350.6 165.3 368.2 175.6" class="st61"/><polygon points="359.7 173 350.6 167.7 350.6 166.9 359.7 172.2" class="st61"/><polygon points="364.7 177.5 350.6 169.2 350.6 168.4 364.7 176.8" class="st61"/><polygon points="352.9 172.4 347.5 169.3 347.5 168.5 352.9 171.7" class="st61"/><polygon points="368.1 181.4 353.6 172.9 353.6 172.1 368.1 180.6" class="st61"/><polygon points="369.6 183.9 347.5 170.8 347.5 170 369.6 183.1" class="st61"/><polygon points="360.1 179.8 347.4 172.4 347.4 171.6 360.1 179" class="st61"/><polygon points="369.6 185.4 360.9 180.3 360.9 179.5 369.6 184.6" class="st61"/><polygon points="349.9 175.4 344.5 172.2 344.5 171.4 349.9 174.6" class="st61"/><polygon points="358.3 181.9 344.5 173.7 344.5 172.9 358.3 181.1" class="st61"/><polygon points="369.6 188.5 359.1 182.3 359.1 181.5 369.6 187.7" class="st61"/><polygon points="354.6 181.3 344.5 175.3 344.5 174.5 354.6 180.5" class="st61"/><polygon points="356.6 184 344.5 176.8 344.5 176 356.6 183.2" class="st61"/><polygon points="361.1 188.3 347.7 180.4 347.7 179.6 361.1 187.5" class="st61"/><polygon points="364.5 191.9 347.7 181.9 347.7 181.2 364.5 191.1" class="st61"/><polygon points="353 186.7 347.7 183.5 347.7 182.7 353.1 185.9" class="st61"/><polygon points="369 197.6 366.8 196.3 366.8 195.5 369 196.8" class="st61"/><polygon points="366 195.8 347.6 185 347.6 184.3 366 195.1" class="st61"/><polygon points="353.9 190.3 348.5 187.1 348.5 186.3 353.9 189.5" class="st61"/><polygon points="367.7 198.4 354.7 190.7 354.7 189.9 367.7 197.6" class="st61"/><polygon points="357.9 194.2 347.6 188.1 347.6 187.4 357.9 193.4" class="st61"/><polygon points="351.3 191.9 345.9 188.7 345.9 187.9 351.3 191.1" class="st61"/><polygon points="337.3 149.9 332.9 147.3 332.8 148.1 337.3 150.7" class="st61"/><polygon points="337.2 151.5 332.8 148.9 332.8 149.7 337.2 152.3" class="st61"/><polygon points="337.2 154.6 330.6 150.7 330.6 151.5 337.2 155.4" class="st61"/><polygon points="330.5 153.5 330.5 154.3 335.7 157.4 335.7 156.6" class="st61"/><polygon points="330.6 146 330.6 146.8 332.2 147.7 332.2 146.9" class="st61"/><polygon points="330.6 147.6 330.6 148.4 332.1 149.3 332.2 148.5" class="st61"/><polygon points="330.5 158.5 330.5 159.3 332.7 160.6 332.7 159.8" class="st61"/><polygon points="330.5 160.1 330.5 160.8 332.7 162.2 332.7 161.4" class="st61"/><polygon points="330.5 164.7 330.4 165.5 335.6 168.5 335.6 167.8" class="st61"/><polygon points="330.4 167.8 330.4 168.6 335.6 171.6 335.6 170.9" class="st61"/><polygon points="330.4 169.5 330.4 170.2 332.4 171.4 332.4 170.6" class="st61"/><polygon points="330.4 174.1 330.4 174.9 332.3 176 332.3 175.3" class="st61"/><polygon points="330.4 177.2 330.3 178 332.3 179.1 332.3 178.4" class="st61"/></g></g><g><linearGradient id="SVGID_2_" x1="415.017" x2="419.465" y1="214.817" y2="214.817" gradientUnits="userSpaceOnUse"><stop offset="0" stop-color="#1CA63A"/><stop offset="1" stop-color="#24D84B"/></linearGradient><path d="M417.2,212.3c1.2,0.7,2.2,2.4,2.2,3.8c0,1.4-1,2-2.2,1.3c-1.2-0.7-2.2-2.4-2.2-3.8 C415,212.1,416,211.6,417.2,212.3z" class="st62"/><linearGradient id="SVGID_3_" x1="421.49" x2="425.934" y1="218.538" y2="218.538" gradientUnits="userSpaceOnUse"><stop offset="0" stop-color="#1CA63A"/><stop offset="1" stop-color="#24D84B"/></linearGradient><path d="M423.7,216c1.2,0.7,2.2,2.4,2.2,3.8c0,1.4-1,2-2.2,1.3c-1.2-0.7-2.2-2.4-2.2-3.8 C421.5,215.9,422.5,215.3,423.7,216z" class="st63"/><linearGradient id="SVGID_4_" x1="427.968" x2="432.402" y1="222.263" y2="222.263" gradientUnits="userSpaceOnUse"><stop offset="0" stop-color="#1CA63A"/><stop offset="1" stop-color="#24D84B"/></linearGradient><path d="M430.2,219.7c1.2,0.7,2.2,2.4,2.2,3.8c0,1.4-1,2-2.2,1.3c-1.2-0.7-2.2-2.4-2.2-3.8 C428,219.6,429,219,430.2,219.7z" class="st64"/><linearGradient id="SVGID_5_" x1="434.434" x2="438.875" y1="225.988" y2="225.988" gradientUnits="userSpaceOnUse"><stop offset="0" stop-color="#1CA63A"/><stop offset="1" stop-color="#24D84B"/></linearGradient><path d="M436.7,223.4c1.2,0.7,2.2,2.4,2.2,3.8c0,1.4-1,2-2.2,1.3c-1.2-0.7-2.2-2.4-2.2-3.8 C434.4,223.3,435.4,222.7,436.7,223.4z" class="st65"/><linearGradient id="SVGID_6_" x1="440.905" x2="445.349" y1="229.712" y2="229.712" gradientUnits="userSpaceOnUse"><stop offset="0" stop-color="#1CA63A"/><stop offset="1" stop-color="#24D84B"/></linearGradient><path d="M443.1,227.2c1.2,0.7,2.2,2.4,2.2,3.8c0,1.4-1,2-2.2,1.3c-1.2-0.7-2.2-2.4-2.2-3.8 C440.9,227,441.9,226.5,443.1,227.2z" class="st66"/></g><g><linearGradient id="SVGID_7_" x1="415.222" x2="419.671" y1="222.305" y2="222.305" gradientUnits="userSpaceOnUse"><stop offset="0" stop-color="#1CA63A"/><stop offset="1" stop-color="#24D84B"/></linearGradient><path d="M417.4,219.8c1.2,0.7,2.2,2.4,2.2,3.8c0,1.4-1,2-2.2,1.3c-1.2-0.7-2.2-2.4-2.2-3.8 C415.2,219.6,416.2,219.1,417.4,219.8z" class="st67"/><linearGradient id="SVGID_8_" x1="421.695" x2="426.139" y1="226.026" y2="226.026" gradientUnits="userSpaceOnUse"><stop offset="0" stop-color="#1CA63A"/><stop offset="1" stop-color="#24D84B"/></linearGradient><path d="M423.9,223.5c1.2,0.7,2.2,2.4,2.2,3.8c0,1.4-1,2-2.2,1.3c-1.2-0.7-2.2-2.4-2.2-3.8 C421.7,223.4,422.7,222.8,423.9,223.5z" class="st68"/><linearGradient id="SVGID_9_" x1="428.174" x2="432.608" y1="229.751" y2="229.751" gradientUnits="userSpaceOnUse"><stop offset="0" stop-color="#1CA63A"/><stop offset="1" stop-color="#24D84B"/></linearGradient><path d="M430.4,227.2c1.2,0.7,2.2,2.4,2.2,3.8c0,1.4-1,2-2.2,1.3c-1.2-0.7-2.2-2.4-2.2-3.8 C428.2,227.1,429.2,226.5,430.4,227.2z" class="st69"/><linearGradient id="SVGID_10_" x1="434.64" x2="439.081" y1="233.476" y2="233.476" gradientUnits="userSpaceOnUse"><stop offset="0" stop-color="#1CA63A"/><stop offset="1" stop-color="#24D84B"/></linearGradient><path d="M436.9,230.9c1.2,0.7,2.2,2.4,2.2,3.8c0,1.4-1,2-2.2,1.3c-1.2-0.7-2.2-2.4-2.2-3.8 C434.6,230.8,435.6,230.2,436.9,230.9z" class="st70"/><linearGradient id="SVGID_11_" x1="441.111" x2="445.554" y1="237.2" y2="237.2" gradientUnits="userSpaceOnUse"><stop offset="0" stop-color="#1CA63A"/><stop offset="1" stop-color="#24D84B"/></linearGradient><path d="M443.3,234.7c1.2,0.7,2.2,2.4,2.2,3.8c0,1.4-1,2-2.2,1.3c-1.2-0.7-2.2-2.4-2.2-3.8 C441.1,234.5,442.1,234,443.3,234.7z" class="st71"/></g><g><path d="M386.5,229.5c-0.8,0-1.7-0.2-2.4-0.7l-64.4-37.5c-3.4-2-5.4-5.6-5.4-9.5V84.1c0-1.3,0.7-2.4,1.8-3.1 c1.1-0.6,2.4-0.6,3.5,0l67.2,39.1c2.9,1.7,4.7,4.8,4.7,8.2l-0.1,96.3c0,1.8-1,3.3-2.5,4.2 C388.1,229.3,387.3,229.5,386.5,229.5z M317.7,81.2c-0.5,0-1,0.1-1.4,0.4c-0.9,0.5-1.4,1.4-1.4,2.5v97.8c0,3.6,2,7,5.1,8.9 l64.4,37.5c1.3,0.8,2.8,0.8,4.1,0c1.3-0.7,2.1-2.1,2.1-3.6l0.1-96.3c0-3.1-1.7-6.1-4.4-7.6l-67.2-39.1 C318.7,81.4,318.2,81.2,317.7,81.2z" class="st72"/></g><g><path d="M464.9,274c-0.7,0-1.5-0.2-2.2-0.6L401,237.6c-3.4-2-5.4-5.6-5.4-9.5v-97.8c0-1.3,0.7-2.4,1.8-3.1 c1.1-0.6,2.4-0.6,3.5,0l63.5,36.5c2.8,1.6,4.6,4.7,4.6,7.9l0.2,97.9c0,1.6-0.8,3-2.2,3.8C466.3,273.8,465.6,274,464.9,274z M399.1,127.5c-0.5,0-1,0.1-1.4,0.4c-0.9,0.5-1.4,1.4-1.4,2.5v97.8c0,3.6,2,7,5.1,8.9l61.7,35.8c1.1,0.7,2.5,0.7,3.6,0 c1.1-0.7,1.8-1.8,1.8-3.2l-0.2-97.9c0-3-1.6-5.8-4.3-7.3l-63.5-36.5C400.1,127.6,399.6,127.5,399.1,127.5z" class="st72"/></g><g><g><linearGradient id="SVGID_12_" x1="11334.632" x2="11334.632" y1="179.667" y2="133.502" gradientTransform="matrix(-1 0 0 1 11684.1982 0)" gradientUnits="userSpaceOnUse"><stop offset="0" stop-color="#FFA744"/><stop offset=".824" stop-color="#FFCC92"/><stop offset=".991" stop-color="#FFD4A3"/></linearGradient><path d="M360.6,173.4v-18.1c0-0.2,0-0.5-0.1-0.8c-0.3-1.3-1.2-2.6-2.2-3.1l-12-7l-12-6.9 c-0.7-0.4-1.3-0.4-1.8-0.1l0,0l6.2-3.6c0.4-0.3,1-0.2,1.7,0.1l12,6.9l12,7c1,0.6,1.9,1.9,2.2,3.1c0.1,0.3,0.1,0.5,0.1,0.8 v18.1c0,3.2-1.1,5.4-2.9,6.5c0,0-5.8,3.4-5.8,3.4C359.6,178.5,360.6,176.4,360.6,173.4z" class="st73"/><linearGradient id="SVGID_13_" x1="343.462" x2="347.539" y1="159.656" y2="159.656" gradientUnits="userSpaceOnUse"><stop offset="0" stop-color="#120426"/><stop offset=".653" stop-color="#302A39"/><stop offset="1" stop-color="#3C3940"/></linearGradient><path d="M346.7,158.9l0.4,5.3c0.1,1.1-0.7,1.6-1.6,1.1c-0.9-0.5-1.7-1.9-1.6-2.9l0.4-4.9 c-0.5-0.7-0.9-1.6-0.9-2.4c0-1.3,0.9-1.8,2-1.2c1.1,0.7,2,2.2,2,3.5C347.5,158.3,347.2,158.8,346.7,158.9z" class="st74"/><linearGradient id="SVGID_14_" x1="331.988" x2="360.622" y1="158.856" y2="158.856" gradientUnits="userSpaceOnUse"><stop offset="0" stop-color="#FFA744"/><stop offset=".824" stop-color="#FFCC92"/><stop offset=".991" stop-color="#FFD4A3"/></linearGradient><path d="M332,138.7v18.1c0,6.5,4.6,14.4,10.2,17.6l8.2,4.8c3,1.8,5.8,1.8,7.6,0.4c1.6-1.1,2.6-3.3,2.6-6.3 v-18.1c0-0.2,0-0.5-0.1-0.8c-0.3-1.3-1.2-2.6-2.2-3.1l-12-7l-12-6.9c-0.7-0.4-1.3-0.4-1.8-0.1c-0.2,0.2-0.3,0.4-0.4,0.7 C332,138.2,332,138.4,332,138.7z M347.5,157.5c0,0.8-0.3,1.3-0.9,1.4l0.4,5.3c0.1,1.1-0.7,1.6-1.6,1.1 c-0.9-0.5-1.7-1.9-1.6-2.9l0.4-4.9c-0.5-0.7-0.9-1.6-0.9-2.4c0-1.3,0.9-1.8,2-1.2C346.6,154.7,347.5,156.2,347.5,157.5z" class="st75"/></g><g><linearGradient id="SVGID_15_" x1="338.005" x2="364.072" y1="139.767" y2="139.767" gradientUnits="userSpaceOnUse"><stop offset=".373" stop-color="#F0E5FF"/><stop offset=".54" stop-color="#FFF"/></linearGradient><path d="M346.2,132.5c-3.2-1.7-6-1.9-8.1-0.7l-0.1,0l5.1-2.9c2.1-1.5,5.2-1.5,8.6,0.4 c6.2,3.4,11.4,11.6,12.4,19l-5.4,3.3l-0.1-0.1C357.7,144.1,352.4,135.9,346.2,132.5z" class="st76"/><linearGradient id="SVGID_16_" x1="334.634" x2="358.6" y1="141.37" y2="141.37" gradientUnits="userSpaceOnUse"><stop offset=".373" stop-color="#B4ACBF"/><stop offset=".54" stop-color="#F0E5FF"/></linearGradient><path d="M346.3,135.3c-2.4-1.3-4.5-1.5-6.2-0.7c0,0-0.1,0-0.1,0.1c-1.5,0.7-2.6,2.3-3,4.4l-2.4-1.4 c0.4-2.8,1.6-4.8,3.4-5.8c2.1-1.2,5-1.1,8.1,0.7c6.2,3.4,11.5,11.6,12.4,19c0,0,0,0,0,0c0,0,0,0,0,0s-2.4-1.5-2.4-1.5 C355.3,144.3,351.2,137.9,346.3,135.3z" class="st77"/></g></g><g><g><linearGradient id="SVGID_17_" x1="421.024" x2="439.02" y1="190.514" y2="190.514" gradientUnits="userSpaceOnUse"><stop offset="0" stop-color="#1CA63A"/><stop offset="1" stop-color="#24D84B"/></linearGradient><polygon points="427.7 197.3 421 185.2 424.1 183.7 427.7 190.2 436 185.1 439 190.2" class="st78"/></g><g><linearGradient id="SVGID_18_" x1="413.73" x2="446.031" y1="189.665" y2="189.665" gradientUnits="userSpaceOnUse"><stop offset="0" stop-color="#1CA63A"/><stop offset="1" stop-color="#24D84B"/></linearGradient><path d="M429.9,208.2c-8.9-5.2-16.2-17.7-16.2-27.9c0-10.2,7.2-14.4,16.2-9.2c8.9,5.2,16.2,17.7,16.2,27.9 C446,209.3,438.8,213.4,429.9,208.2z M429.9,173.4c-7.8-4.5-14.2-0.9-14.2,8.1s6.4,20,14.2,24.5 c7.8,4.5,14.2,0.9,14.2-8.1C444.1,188.9,437.7,177.9,429.9,173.4z" class="st79"/></g></g></g></g></g></g></g><g><g><linearGradient id="SVGID_19_" x1="-26.686" x2="64.15" y1="138.357" y2="138.357" gradientTransform="matrix(1 0 0 1 144 0)" gradientUnits="userSpaceOnUse"><stop offset="0" stop-color="#B4ACBF"/><stop offset=".515" stop-color="#D1C8DE"/><stop offset="1" stop-color="#F0E5FF"/></linearGradient><path d="M142.4,188c-2.6-4.8-4.1-10.9-4.1-18.4c0-26.7,18.8-59.1,42.1-72.5c6-3.5,11.8-5.3,17-5.7 c4-0.3,7.6,0.3,10.9,1.7L190,83.4c-7.7-4.9-18.5-4.5-30.6,2.5c-23.2,13.4-42.1,45.9-42.1,72.5c0,12.5,4.2,21.4,11,26.1 c0.4,0.3,0.8,0.6,1.2,0.8c0.4,0.2,21,11.3,21,11.3C147.2,194.7,144.5,191.8,142.4,188z" class="st80"/><linearGradient id="SVGID_20_" x1="138.276" x2="222.394" y1="145.393" y2="145.393" gradientUnits="userSpaceOnUse"><stop offset="0" stop-color="#F0E5FF"/><stop offset="1" stop-color="#FFF"/></linearGradient><path d="M208.1,93.2c-3.2-1.4-6.9-2-10.9-1.7c-5.2,0.4-10.9,2.2-17,5.7c-23.2,13.4-42.1,45.9-42.1,72.5 c0,7.4,1.5,13.6,4.1,18.4c2.1,3.8,4.8,6.7,8.1,8.6c7.6,4.4,18.2,3.7,29.8-3c23.2-13.4,42.1-45.9,42.1-72.5 C222.4,106.7,216.9,97,208.1,93.2z" class="st81"/></g><g><g><linearGradient id="SVGID_21_" x1="157.167" x2="204.207" y1="143.468" y2="143.468" gradientUnits="userSpaceOnUse"><stop offset="0" stop-color="#1CA63A"/><stop offset="1" stop-color="#24D84B"/></linearGradient><polygon points="174.6 171.9 157.2 160.6 165.2 147.2 174.7 153.4 196.2 115 204.2 119.2" class="st82"/></g><g><linearGradient id="SVGID_22_" x1="138.102" x2="222.533" y1="145.36" y2="145.36" gradientUnits="userSpaceOnUse"><stop offset="0" stop-color="#1CA63A"/><stop offset="1" stop-color="#24D84B"/></linearGradient><path d="M180.3,193.7c-23.3,13.4-42.2,2.7-42.2-24c0-26.7,18.9-59.3,42.2-72.7c23.3-13.4,42.2-2.7,42.2,24 C222.5,147.7,203.6,180.3,180.3,193.7z M180.3,102.9c-20.4,11.8-37.1,40.4-37.1,63.9c0,23.4,16.6,32.9,37.1,21.1 c20.4-11.8,37.1-40.4,37.1-63.9C217.4,100.6,200.8,91.1,180.3,102.9z" class="st83"/></g></g></g><g><g><g><linearGradient id="SVGID_23_" x1="58.606" x2="130.662" y1="170.71" y2="170.71" gradientUnits="userSpaceOnUse"><stop offset="0" stop-color="#7E44D8"/><stop offset=".033" stop-color="#7C42D5"/><stop offset=".456" stop-color="#602FAD"/><stop offset=".793" stop-color="#4F2295"/><stop offset="1" stop-color="#491E8C"/></linearGradient><line x1="129.7" x2="129.6" y1="170.7" y2="170.7" class="st84"/><linearGradient id="SVGID_24_" x1="58.606" x2="130.662" y1="191.236" y2="191.236" gradientUnits="userSpaceOnUse"><stop offset="0" stop-color="#7E44D8"/><stop offset=".033" stop-color="#7C42D5"/><stop offset=".456" stop-color="#602FAD"/><stop offset=".793" stop-color="#4F2295"/><stop offset="1" stop-color="#491E8C"/></linearGradient><line x1="126" x2="61.4" y1="172.8" y2="209.7" class="st85"/><linearGradient id="SVGID_25_" x1="58.606" x2="130.662" y1="210.733" y2="210.733" gradientUnits="userSpaceOnUse"><stop offset="0" stop-color="#7E44D8"/><stop offset=".033" stop-color="#7C42D5"/><stop offset=".456" stop-color="#602FAD"/><stop offset=".793" stop-color="#4F2295"/><stop offset="1" stop-color="#491E8C"/></linearGradient><line x1="59.7" x2="59.6" y1="210.7" y2="210.7" class="st86"/></g></g><g><g><linearGradient id="SVGID_26_" x1="220.797" x2="270.399" y1="90.826" y2="90.826" gradientUnits="userSpaceOnUse"><stop offset="0" stop-color="#24D84B"/><stop offset=".261" stop-color="#21C745"/><stop offset=".719" stop-color="#1DAF3D"/><stop offset="1" stop-color="#1CA63A"/></linearGradient><line x1="269.4" x2="269.4" y1="90.8" y2="90.8" class="st87"/><linearGradient id="SVGID_27_" x1="220.797" x2="270.399" y1="104.93" y2="104.93" gradientUnits="userSpaceOnUse"><stop offset="0" stop-color="#24D84B"/><stop offset=".261" stop-color="#21C745"/><stop offset=".719" stop-color="#1DAF3D"/><stop offset="1" stop-color="#1CA63A"/></linearGradient><line x1="265.8" x2="223.6" y1="92.9" y2="117" class="st88"/><linearGradient id="SVGID_28_" x1="220.797" x2="270.399" y1="118.013" y2="118.013" gradientUnits="userSpaceOnUse"><stop offset="0" stop-color="#24D84B"/><stop offset=".261" stop-color="#21C745"/><stop offset=".719" stop-color="#1DAF3D"/><stop offset="1" stop-color="#1CA63A"/></linearGradient><line x1="221.8" x2="221.8" y1="118" y2="118" class="st89"/></g></g><g><g><linearGradient id="SVGID_29_" x1="58.54" x2="194.833" y1="292.737" y2="292.692" gradientUnits="userSpaceOnUse"><stop offset="0" stop-color="#7E44D8"/><stop offset=".033" stop-color="#7C42D5"/><stop offset=".456" stop-color="#602FAD"/><stop offset=".793" stop-color="#4F2295"/><stop offset="1" stop-color="#491E8C"/></linearGradient><line x1="59.5" x2="59.6" y1="292.7" y2="292.7" class="st90"/><linearGradient id="SVGID_30_" x1="58.553" x2="194.846" y1="331.637" y2="331.592" gradientUnits="userSpaceOnUse"><stop offset="0" stop-color="#7E44D8"/><stop offset=".033" stop-color="#7C42D5"/><stop offset=".456" stop-color="#602FAD"/><stop offset=".793" stop-color="#4F2295"/><stop offset="1" stop-color="#491E8C"/></linearGradient><line x1="63.1" x2="192" y1="294.8" y2="368.5" class="st91"/><linearGradient id="SVGID_31_" x1="58.566" x2="194.859" y1="369.524" y2="369.479" gradientUnits="userSpaceOnUse"><stop offset="0" stop-color="#7E44D8"/><stop offset=".033" stop-color="#7C42D5"/><stop offset=".456" stop-color="#602FAD"/><stop offset=".793" stop-color="#4F2295"/><stop offset="1" stop-color="#491E8C"/></linearGradient><line x1="193.8" x2="193.9" y1="369.5" y2="369.5" class="st92"/></g></g><g><g><linearGradient id="SVGID_32_" x1="268.469" x2="433.359" y1="8.645" y2="8.645" gradientUnits="userSpaceOnUse"><stop offset="0" stop-color="#1CA63A"/><stop offset=".281" stop-color="#1DAF3D"/><stop offset=".739" stop-color="#21C745"/><stop offset="1" stop-color="#24D84B"/></linearGradient><line x1="269.5" x2="269.5" y1="8.6" y2="8.7" class="st93"/><linearGradient id="SVGID_33_" x1="268.469" x2="433.359" y1="55.697" y2="55.697" gradientUnits="userSpaceOnUse"><stop offset="0" stop-color="#1CA63A"/><stop offset=".281" stop-color="#1DAF3D"/><stop offset=".739" stop-color="#21C745"/><stop offset="1" stop-color="#24D84B"/></linearGradient><line x1="273" x2="430.5" y1="10.7" y2="100.7" class="st94"/><linearGradient id="SVGID_34_" x1="268.469" x2="433.359" y1="101.739" y2="101.739" gradientUnits="userSpaceOnUse"><stop offset="0" stop-color="#1CA63A"/><stop offset=".281" stop-color="#1DAF3D"/><stop offset=".739" stop-color="#21C745"/><stop offset="1" stop-color="#24D84B"/></linearGradient><line x1="432.3" x2="432.4" y1="101.7" y2="101.8" class="st95"/></g></g><g><g><linearGradient id="SVGID_35_" x1="432.357" x2="432.357" y1="146.765" y2="100.751" gradientUnits="userSpaceOnUse"><stop offset="0" stop-color="#1CA63A"/><stop offset=".281" stop-color="#1DAF3D"/><stop offset=".739" stop-color="#21C745"/><stop offset="1" stop-color="#24D84B"/></linearGradient><line x1="432.4" x2="432.4" y1="101.8" y2="101.8" class="st96"/><linearGradient id="SVGID_36_" x1="432.357" x2="432.357" y1="146.765" y2="100.751" gradientUnits="userSpaceOnUse"><stop offset="0" stop-color="#1CA63A"/><stop offset=".281" stop-color="#1DAF3D"/><stop offset=".739" stop-color="#21C745"/><stop offset="1" stop-color="#24D84B"/></linearGradient><line x1="432.4" x2="432.4" y1="106.1" y2="143.6" class="st97"/><linearGradient id="SVGID_37_" x1="432.357" x2="432.357" y1="146.765" y2="100.751" gradientUnits="userSpaceOnUse"><stop offset="0" stop-color="#1CA63A"/><stop offset=".281" stop-color="#1DAF3D"/><stop offset=".739" stop-color="#21C745"/><stop offset="1" stop-color="#24D84B"/></linearGradient><line x1="432.4" x2="432.4" y1="145.7" y2="145.8" class="st98"/></g></g><g><g><linearGradient id="SVGID_38_" x1="269.399" x2="269.399" y1="91.815" y2="7.594" gradientUnits="userSpaceOnUse"><stop offset="0" stop-color="#1CA63A"/><stop offset=".281" stop-color="#1DAF3D"/><stop offset=".739" stop-color="#21C745"/><stop offset="1" stop-color="#24D84B"/></linearGradient><line x1="269.4" x2="269.4" y1="8.6" y2="8.6" class="st99"/><linearGradient id="SVGID_39_" x1="269.399" x2="269.399" y1="91.815" y2="7.594" gradientUnits="userSpaceOnUse"><stop offset="0" stop-color="#1CA63A"/><stop offset=".281" stop-color="#1DAF3D"/><stop offset=".739" stop-color="#21C745"/><stop offset="1" stop-color="#24D84B"/></linearGradient><line x1="269.4" x2="269.4" y1="12.7" y2="88.8" class="st100"/><linearGradient id="SVGID_40_" x1="269.399" x2="269.399" y1="91.815" y2="7.594" gradientUnits="userSpaceOnUse"><stop offset="0" stop-color="#1CA63A"/><stop offset=".281" stop-color="#1DAF3D"/><stop offset=".739" stop-color="#21C745"/><stop offset="1" stop-color="#24D84B"/></linearGradient><line x1="269.4" x2="269.4" y1="90.8" y2="90.8" class="st101"/></g></g><g><g><linearGradient id="SVGID_41_" x1="59.606" x2="59.606" y1="293.755" y2="209.746" gradientUnits="userSpaceOnUse"><stop offset="0" stop-color="#7E44D8"/><stop offset=".033" stop-color="#7C42D5"/><stop offset=".456" stop-color="#602FAD"/><stop offset=".793" stop-color="#4F2295"/><stop offset="1" stop-color="#491E8C"/></linearGradient><line x1="59.6" x2="59.6" y1="210.7" y2="210.8" class="st102"/><linearGradient id="SVGID_42_" x1="59.606" x2="59.606" y1="293.755" y2="209.746" gradientUnits="userSpaceOnUse"><stop offset="0" stop-color="#7E44D8"/><stop offset=".033" stop-color="#7C42D5"/><stop offset=".456" stop-color="#602FAD"/><stop offset=".793" stop-color="#4F2295"/><stop offset="1" stop-color="#491E8C"/></linearGradient><line x1="59.6" x2="59.6" y1="214.8" y2="290.7" class="st103"/><linearGradient id="SVGID_43_" x1="59.606" x2="59.606" y1="293.755" y2="209.746" gradientUnits="userSpaceOnUse"><stop offset="0" stop-color="#7E44D8"/><stop offset=".033" stop-color="#7C42D5"/><stop offset=".456" stop-color="#602FAD"/><stop offset=".793" stop-color="#4F2295"/><stop offset="1" stop-color="#491E8C"/></linearGradient><line x1="59.6" x2="59.6" y1="292.7" y2="292.8" class="st104"/></g></g><g><g><linearGradient id="SVGID_44_" x1="104.159" x2="194.959" y1="369.563" y2="369.563" gradientUnits="userSpaceOnUse"><stop offset="0" stop-color="#7E44D8"/><stop offset=".033" stop-color="#7C42D5"/><stop offset=".456" stop-color="#602FAD"/><stop offset=".793" stop-color="#4F2295"/><stop offset="1" stop-color="#491E8C"/></linearGradient><line x1="194" x2="193.9" y1="369.5" y2="369.6" class="st105"/><linearGradient id="SVGID_45_" x1="104.159" x2="194.959" y1="395.448" y2="395.448" gradientUnits="userSpaceOnUse"><stop offset="0" stop-color="#7E44D8"/><stop offset=".033" stop-color="#7C42D5"/><stop offset=".456" stop-color="#602FAD"/><stop offset=".793" stop-color="#4F2295"/><stop offset="1" stop-color="#491E8C"/></linearGradient><line x1="190.3" x2="107" y1="371.6" y2="419.3" class="st106"/><linearGradient id="SVGID_46_" x1="104.159" x2="194.959" y1="420.301" y2="420.301" gradientUnits="userSpaceOnUse"><stop offset="0" stop-color="#7E44D8"/><stop offset=".033" stop-color="#7C42D5"/><stop offset=".456" stop-color="#602FAD"/><stop offset=".793" stop-color="#4F2295"/><stop offset="1" stop-color="#491E8C"/></linearGradient><line x1="105.2" x2="105.2" y1="420.3" y2="420.3" class="st107"/></g></g></g><radialGradient id="XMLID_7_" cx="482.406" cy="6416.563" r="71.432" gradientTransform="matrix(0.7694 0 0 0.398 -201.2605 -2324.7329)" gradientUnits="userSpaceOnUse"><stop offset="0" stop-color="#120426"/><stop offset=".086" stop-color="#1A0D2E" stop-opacity=".914"/><stop offset=".226" stop-color="#322543" stop-opacity=".774"/><stop offset=".403" stop-color="#574D65" stop-opacity=".597"/><stop offset=".61" stop-color="#8B8495" stop-opacity=".39"/><stop offset=".84" stop-color="#CDCAD1" stop-opacity=".161"/><stop offset="1" stop-color="#FFF" stop-opacity="0"/></radialGradient><path id="XMLID_4893_" d="M131.4,206.6c21.2-12.2,55.8-12.2,77,0c21.2,12.2,21.2,32.2,0,44.4 c-21.2,12.2-55.8,12.2-77,0C110.2,238.8,110.2,218.8,131.4,206.6z" class="st108"/><g><g><g class="st0"><path id="XMLID_4911_" d="M85,405.6c-6-3.5-15.9-3.5-22,0L9.8,436.4c-6,3.5-6,9.2,0,12.7L63,479.8 c6,3.5,15.9,3.5,22,0l53.2-30.7c6-3.5,6-9.2,0-12.7L85,405.6z" class="st1"/><path d="M84.9,405.8c-6-3.5-15.9-3.5-21.9,0l-53,30.6c-6,3.5-6,9.2,0,12.6l53,30.6c6,3.5,15.9,3.5,21.9,0l53-30.6 c6-3.5,6-9.2,0-12.6L84.9,405.8z" class="st2"/><path d="M84.9,406c-6-3.5-15.8-3.5-21.8,0l-52.7,30.4c-6,3.5-6,9.1,0,12.6l52.7,30.4c6,3.5,15.8,3.5,21.8,0 l52.7-30.4c6-3.5,6-9.1,0-12.6L84.9,406z" class="st3"/><path d="M84.8,406.2c-6-3.4-15.7-3.4-21.7,0l-52.5,30.3c-6,3.4-6,9.1,0,12.5l52.5,30.3c6,3.4,15.7,3.4,21.7,0 l52.5-30.3c6-3.4,6-9.1,0-12.5L84.8,406.2z" class="st4"/><path d="M84.8,406.4c-5.9-3.4-15.6-3.4-21.5,0L11,436.5c-5.9,3.4-5.9,9,0,12.4l52.2,30.1c5.9,3.4,15.6,3.4,21.5,0 l52.2-30.1c5.9-3.4,5.9-9,0-12.4L84.8,406.4z" class="st5"/><path d="M84.7,406.5c-5.9-3.4-15.5-3.4-21.4,0l-51.9,30c-5.9,3.4-5.9,9,0,12.4l51.9,30c5.9,3.4,15.5,3.4,21.4,0 l51.9-30c5.9-3.4,5.9-9,0-12.4L84.7,406.5z" class="st6"/><path d="M84.7,406.7c-5.9-3.4-15.5-3.4-21.3,0l-51.7,29.8c-5.9,3.4-5.9,8.9,0,12.3l51.7,29.8 c5.9,3.4,15.5,3.4,21.3,0l51.7-29.8c5.9-3.4,5.9-8.9,0-12.3L84.7,406.7z" class="st7"/><path d="M84.6,406.9c-5.8-3.4-15.4-3.4-21.2,0L12,436.6c-5.8,3.4-5.8,8.9,0,12.3l51.4,29.7 c5.8,3.4,15.4,3.4,21.2,0l51.4-29.7c5.8-3.4,5.8-8.9,0-12.3L84.6,406.9z" class="st8"/><path d="M84.6,407.1c-5.8-3.4-15.3-3.4-21.1,0l-51.2,29.5c-5.8,3.4-5.8,8.8,0,12.2l51.2,29.5 c5.8,3.4,15.3,3.4,21.1,0l51.2-29.5c5.8-3.4,5.8-8.8,0-12.2L84.6,407.1z" class="st9"/><path d="M84.5,407.3c-5.8-3.3-15.2-3.3-21,0l-50.9,29.4c-5.8,3.3-5.8,8.8,0,12.1l50.9,29.4 c5.8,3.3,15.2,3.3,21,0l50.9-29.4c5.8-3.3,5.8-8.8,0-12.1L84.5,407.3z" class="st10"/><path d="M84.5,407.4c-5.8-3.3-15.2-3.3-20.9,0l-50.7,29.3c-5.8,3.3-5.8,8.8,0,12.1L63.6,478 c5.8,3.3,15.2,3.3,20.9,0l50.7-29.3c5.8-3.3,5.8-8.8,0-12.1L84.5,407.4z" class="st11"/><path d="M84.4,407.6c-5.7-3.3-15.1-3.3-20.8,0l-50.4,29.1c-5.7,3.3-5.7,8.7,0,12l50.4,29.1 c5.7,3.3,15.1,3.3,20.8,0l50.4-29.1c5.7-3.3,5.7-8.7,0-12L84.4,407.6z" class="st12"/><path d="M84.4,407.8c-5.7-3.3-15-3.3-20.7,0l-50.2,29c-5.7,3.3-5.7,8.7,0,12l50.2,29c5.7,3.3,15,3.3,20.7,0 l50.2-29c5.7-3.3,5.7-8.7,0-12L84.4,407.8z" class="st13"/><path d="M84.3,408c-5.7-3.3-14.9-3.3-20.6,0l-49.9,28.8c-5.7,3.3-5.7,8.6,0,11.9l49.9,28.8 c5.7,3.3,14.9,3.3,20.6,0l49.9-28.8c5.7-3.3,5.7-8.6,0-11.9L84.3,408z" class="st14"/><path d="M84.3,408.1c-5.6-3.3-14.9-3.3-20.5,0l-49.6,28.7c-5.6,3.3-5.6,8.6,0,11.8l49.6,28.7 c5.6,3.3,14.9,3.3,20.5,0l49.6-28.7c5.6-3.3,5.6-8.6,0-11.8L84.3,408.1z" class="st15"/><path d="M84.2,408.3c-5.6-3.2-14.8-3.2-20.4,0l-49.4,28.5c-5.6,3.2-5.6,8.5,0,11.8l49.4,28.5 c5.6,3.2,14.8,3.2,20.4,0l49.4-28.5c5.6-3.2,5.6-8.5,0-11.8L84.2,408.3z" class="st16"/><path d="M84.2,408.5c-5.6-3.2-14.7-3.2-20.3,0l-49.1,28.4c-5.6,3.2-5.6,8.5,0,11.7l49.1,28.4 c5.6,3.2,14.7,3.2,20.3,0l49.1-28.4c5.6-3.2,5.6-8.5,0-11.7L84.2,408.5z" class="st17"/><path d="M84.1,408.7c-5.5-3.2-14.6-3.2-20.2,0L15,436.9c-5.5,3.2-5.5,8.4,0,11.6l48.9,28.2 c5.5,3.2,14.6,3.2,20.2,0l48.9-28.2c5.5-3.2,5.5-8.4,0-11.6L84.1,408.7z" class="st18"/><path d="M84,408.9c-5.5-3.2-14.6-3.2-20.1,0l-48.6,28.1c-5.5,3.2-5.5,8.4,0,11.6L64,476.6 c5.5,3.2,14.6,3.2,20.1,0l48.6-28.1c5.5-3.2,5.5-8.4,0-11.6L84,408.9z" class="st19"/><path d="M84,409c-5.5-3.2-14.5-3.2-20,0L15.7,437c-5.5,3.2-5.5,8.4,0,11.5L64,476.4c5.5,3.2,14.5,3.2,20,0 l48.4-27.9c5.5-3.2,5.5-8.4,0-11.5L84,409z" class="st20"/><path d="M83.9,409.2c-5.5-3.2-14.4-3.2-19.9,0L16,437c-5.5,3.2-5.5,8.3,0,11.5l48.1,27.8 c5.5,3.2,14.4,3.2,19.9,0l48.1-27.8c5.5-3.2,5.5-8.3,0-11.5L83.9,409.2z" class="st21"/><path d="M83.9,409.4c-5.4-3.1-14.3-3.1-19.8,0L16.3,437c-5.4,3.1-5.4,8.3,0,11.4l47.9,27.6 c5.4,3.1,14.3,3.1,19.8,0l47.9-27.6c5.4-3.1,5.4-8.3,0-11.4L83.9,409.4z" class="st22"/><path d="M83.8,409.6c-5.4-3.1-14.2-3.1-19.6,0L16.6,437c-5.4,3.1-5.4,8.2,0,11.3l47.6,27.5 c5.4,3.1,14.2,3.1,19.6,0l47.6-27.5c5.4-3.1,5.4-8.2,0-11.3L83.8,409.6z" class="st23"/><path d="M83.8,409.7c-5.4-3.1-14.2-3.1-19.5,0l-47.3,27.3c-5.4,3.1-5.4,8.2,0,11.3l47.3,27.3 c5.4,3.1,14.2,3.1,19.5,0l47.3-27.3c5.4-3.1,5.4-8.2,0-11.3L83.8,409.7z" class="st24"/><path d="M83.7,409.9c-5.3-3.1-14.1-3.1-19.4,0l-47.1,27.2c-5.3,3.1-5.3,8.1,0,11.2l47.1,27.2 c5.3,3.1,14.1,3.1,19.4,0l47.1-27.2c5.3-3.1,5.3-8.1,0-11.2L83.7,409.9z" class="st25"/><path d="M83.7,410.1c-5.3-3.1-14-3.1-19.3,0l-46.8,27c-5.3,3.1-5.3,8.1,0,11.2l46.8,27c5.3,3.1,14,3.1,19.3,0 l46.8-27c5.3-3.1,5.3-8.1,0-11.2L83.7,410.1z" class="st26"/><path d="M83.6,410.3c-5.3-3.1-13.9-3.1-19.2,0l-46.6,26.9c-5.3,3.1-5.3,8,0,11.1l46.6,26.9 c5.3,3.1,13.9,3.1,19.2,0l46.6-26.9c5.3-3.1,5.3-8,0-11.1L83.6,410.3z" class="st27"/><path d="M83.6,410.5c-5.3-3-13.9-3-19.1,0l-46.3,26.7c-5.3,3-5.3,8,0,11L64.5,475c5.3,3,13.9,3,19.1,0l46.3-26.7 c5.3-3,5.3-8,0-11L83.6,410.5z" class="st28"/><path d="M83.5,410.6c-5.2-3-13.8-3-19,0l-46.1,26.6c-5.2,3-5.2,8,0,11l46.1,26.6c5.2,3,13.8,3,19,0l46.1-26.6 c5.2-3,5.2-8,0-11L83.5,410.6z" class="st29"/><path d="M83.5,410.8c-5.2-3-13.7-3-18.9,0l-45.8,26.5c-5.2,3-5.2,7.9,0,10.9l45.8,26.5c5.2,3,13.7,3,18.9,0 l45.8-26.5c5.2-3,5.2-7.9,0-10.9L83.5,410.8z" class="st30"/><path d="M83.4,411c-5.2-3-13.6-3-18.8,0L19,437.3c-5.2,3-5.2,7.9,0,10.9l45.6,26.3c5.2,3,13.6,3,18.8,0 l45.6-26.3c5.2-3,5.2-7.9,0-10.9L83.4,411z" class="st31"/><path d="M83.4,411.2c-5.1-3-13.6-3-18.7,0l-45.3,26.2c-5.1,3-5.1,7.8,0,10.8l45.3,26.2c5.1,3,13.6,3,18.7,0 l45.3-26.2c5.1-3,5.1-7.8,0-10.8L83.4,411.2z" class="st32"/><path d="M83.3,411.3c-5.1-3-13.5-3-18.6,0l-45,26c-5.1,3-5.1,7.8,0,10.7l45,26c5.1,3,13.5,3,18.6,0l45-26 c5.1-3,5.1-7.8,0-10.7L83.3,411.3z" class="st33"/><path d="M83.3,411.5c-5.1-2.9-13.4-2.9-18.5,0L20,437.4c-5.1,2.9-5.1,7.7,0,10.7l44.8,25.9 c5.1,2.9,13.4,2.9,18.5,0l44.8-25.9c5.1-2.9,5.1-7.7,0-10.7L83.3,411.5z" class="st34"/><path d="M83.2,411.7c-5.1-2.9-13.3-2.9-18.4,0l-44.5,25.7c-5.1,2.9-5.1,7.7,0,10.6l44.5,25.7 c5.1,2.9,13.3,2.9,18.4,0l44.5-25.7c5.1-2.9,5.1-7.7,0-10.6L83.2,411.7z" class="st35"/><path d="M83.2,411.9c-5-2.9-13.3-2.9-18.3,0l-44.3,25.6c-5,2.9-5,7.7,0,10.6l44.3,25.6c5,2.9,13.3,2.9,18.3,0 l44.3-25.6c5-2.9,5-7.7,0-10.6L83.2,411.9z" class="st36"/><path d="M83.1,412.1c-5-2.9-13.2-2.9-18.2,0l-44,25.4c-5,2.9-5,7.6,0,10.5l44,25.4c5,2.9,13.2,2.9,18.2,0 l44-25.4c5-2.9,5-7.6,0-10.5L83.1,412.1z" class="st37"/><path d="M83,412.2c-5-2.9-13.1-2.9-18.1,0l-43.8,25.3c-5,2.9-5,7.6,0,10.4L65,473.2c5,2.9,13.1,2.9,18.1,0 l43.8-25.3c5-2.9,5-7.6,0-10.4L83,412.2z" class="st38"/><path d="M83,412.4c-4.9-2.9-13-2.9-18,0l-43.5,25.1c-4.9,2.9-4.9,7.5,0,10.4L65,473c4.9,2.9,13,2.9,18,0 l43.5-25.1c4.9-2.9,4.9-7.5,0-10.4L83,412.4z" class="st39"/><path d="M82.9,412.6c-4.9-2.8-12.9-2.8-17.9,0l-43.3,25c-4.9,2.8-4.9,7.5,0,10.3l43.3,25 c4.9,2.8,12.9,2.8,17.9,0l43.3-25c4.9-2.8,4.9-7.5,0-10.3L82.9,412.6z" class="st40"/><path d="M82.9,412.8c-4.9-2.8-12.9-2.8-17.8,0l-43,24.8c-4.9,2.8-4.9,7.4,0,10.2l43,24.8 c4.9,2.8,12.9,2.8,17.8,0l43-24.8c4.9-2.8,4.9-7.4,0-10.2L82.9,412.8z" class="st41"/><path d="M82.8,412.9c-4.9-2.8-12.8-2.8-17.6,0l-42.8,24.7c-4.9,2.8-4.9,7.4,0,10.2l42.8,24.7 c4.9,2.8,12.8,2.8,17.6,0l42.8-24.7c4.9-2.8,4.9-7.4,0-10.2L82.8,412.9z" class="st42"/><path d="M82.8,413.1c-4.8-2.8-12.7-2.8-17.5,0l-42.5,24.5c-4.8,2.8-4.8,7.3,0,10.1l42.5,24.5 c4.8,2.8,12.7,2.8,17.5,0l42.5-24.5c4.8-2.8,4.8-7.3,0-10.1L82.8,413.1z" class="st43"/><path d="M82.7,413.3c-4.8-2.8-12.6-2.8-17.4,0l-42.2,24.4c-4.8,2.8-4.8,7.3,0,10.1l42.2,24.4 c4.8,2.8,12.6,2.8,17.4,0l42.2-24.4c4.8-2.8,4.8-7.3,0-10.1L82.7,413.3z" class="st44"/><path d="M82.7,413.5c-4.8-2.8-12.6-2.8-17.3,0l-42,24.2c-4.8,2.8-4.8,7.3,0,10l42,24.2c4.8,2.8,12.6,2.8,17.3,0 l42-24.2c4.8-2.8,4.8-7.3,0-10L82.7,413.5z" class="st45"/><path d="M82.6,413.7c-4.7-2.7-12.5-2.7-17.2,0l-41.7,24.1c-4.7,2.7-4.7,7.2,0,9.9l41.7,24.1 c4.7,2.7,12.5,2.7,17.2,0l41.7-24.1c4.7-2.7,4.7-7.2,0-9.9L82.6,413.7z" class="st46"/><path d="M82.6,413.8c-4.7-2.7-12.4-2.7-17.1,0L24,437.8c-4.7,2.7-4.7,7.2,0,9.9l41.5,23.9 c4.7,2.7,12.4,2.7,17.1,0l41.5-23.9c4.7-2.7,4.7-7.2,0-9.9L82.6,413.8z" class="st47"/><path d="M82.5,414c-4.7-2.7-12.3-2.7-17,0l-41.2,23.8c-4.7,2.7-4.7,7.1,0,9.8l41.2,23.8c4.7,2.7,12.3,2.7,17,0 l41.2-23.8c4.7-2.7,4.7-7.1,0-9.8L82.5,414z" class="st48"/><path d="M82.5,414.2c-4.6-2.7-12.3-2.7-16.9,0l-41,23.7c-4.6,2.7-4.6,7.1,0,9.8l41,23.7c4.6,2.7,12.3,2.7,16.9,0 l41-23.7c4.7-2.7,4.7-7.1,0-9.8L82.5,414.2z" class="st49"/><path d="M82.4,414.4c-4.6-2.7-12.2-2.7-16.8,0l-40.7,23.5c-4.6,2.7-4.6,7,0,9.7l40.7,23.5 c4.6,2.7,12.2,2.7,16.8,0l40.7-23.5c4.6-2.7,4.6-7,0-9.7L82.4,414.4z" class="st50"/><path d="M82.4,414.5c-4.6-2.7-12.1-2.7-16.7,0l-40.5,23.4c-4.6,2.7-4.6,7,0,9.6l40.5,23.4 c4.6,2.7,12.1,2.7,16.7,0l40.5-23.4c4.6-2.7,4.6-7,0-9.6L82.4,414.5z" class="st51"/><path id="XMLID_4910_" d="M82.3,414.7c-4.6-2.6-12-2.6-16.6,0l-40.2,23.2c-4.6,2.6-4.6,6.9,0,9.6l40.2,23.2 c4.6,2.6,12,2.6,16.6,0l40.2-23.2c4.6-2.6,4.6-6.9,0-9.6L82.3,414.7z" class="st52"/></g><g><linearGradient id="SVGID_47_" x1="9.041" x2="138.983" y1="438.393" y2="438.393" gradientUnits="userSpaceOnUse"><stop offset="0" stop-color="#78727F"/><stop offset=".47" stop-color="#B4ACBF"/><stop offset=".489" stop-color="#C3BACF"/><stop offset=".525" stop-color="#EADFF8"/><stop offset=".53" stop-color="#F0E5FF"/></linearGradient><rect width="129.9" height="3.7" x="9" y="436.5" class="st109"/><linearGradient id="XMLID_8_" x1="9.041" x2="138.983" y1="440.25" y2="440.25" gradientUnits="userSpaceOnUse"><stop offset="0" stop-color="#78727F"/><stop offset=".47" stop-color="#B4ACBF"/><stop offset=".489" stop-color="#C3BACF"/><stop offset=".525" stop-color="#EADFF8"/><stop offset=".53" stop-color="#F0E5FF"/></linearGradient><path id="XMLID_4909_" d="M71.4,402.7L10.3,438c-1.7,1-1.7,3.5,0,4.5l61.1,35.3c1.6,0.9,3.6,0.9,5.2,0 l61.1-35.3c1.7-1,1.7-3.5,0-4.5l-61.1-35.3C75,401.8,73,401.8,71.4,402.7z" class="st110"/><linearGradient id="XMLID_9_" x1="9.041" x2="138.983" y1="436.535" y2="436.535" gradientUnits="userSpaceOnUse"><stop offset="0" stop-color="#F0E5FF"/><stop offset="1" stop-color="#FFF"/></linearGradient><path id="XMLID_4908_" d="M71.4,399l-61.1,35.3c-1.7,1-1.7,3.5,0,4.5l61.1,35.3c1.6,0.9,3.6,0.9,5.2,0 l61.1-35.3c1.7-1,1.7-3.5,0-4.5L76.6,399C75,398.1,73,398.1,71.4,399z" class="st111"/></g></g><g><g><radialGradient id="XMLID_10_" cx="-2974.347" cy="-873.504" r="135.934" gradientTransform="matrix(0.3437 0 0 0.1999 1096.2153 612.1791)" gradientUnits="userSpaceOnUse"><stop offset=".723" stop-color="#120426"/><stop offset=".749" stop-color="#3C2F4F" stop-opacity=".907"/><stop offset=".782" stop-color="#6B5F7D" stop-opacity=".788"/><stop offset=".816" stop-color="#9488A5" stop-opacity=".665"/><stop offset=".851" stop-color="#B5AAC6" stop-opacity=".54"/><stop offset=".886" stop-color="#CFC4DF" stop-opacity=".413"/><stop offset=".922" stop-color="#E2D6F1" stop-opacity=".283"/><stop offset=".959" stop-color="#ECE1FC" stop-opacity=".148"/><stop offset="1" stop-color="#F0E5FF" stop-opacity="0"/></radialGradient><path id="XMLID_4907_" d="M108.8,417.5c-19.1-11-50.4-11-69.5,0c-19.1,11-19.1,29.1,0,40.1 c19.1,11,50.4,11,69.5,0C127.9,446.6,127.9,428.5,108.8,417.5z" class="st112"/><linearGradient id="XMLID_11_" x1="33.663" x2="114.361" y1="436.206" y2="436.206" gradientUnits="userSpaceOnUse"><stop offset="0" stop-color="#B4ACBF"/><stop offset=".515" stop-color="#D1C8DE"/><stop offset="1" stop-color="#F0E5FF"/></linearGradient><path id="XMLID_4906_" d="M102.6,419.7c-15.7-9.1-41.4-9.1-57.1,0c-15.7,9.1-15.7,23.9,0,33 c15.7,9.1,41.4,9.1,57.1,0C118.3,443.6,118.3,428.8,102.6,419.7z" class="st113"/><linearGradient id="XMLID_12_" x1="38.626" x2="109.397" y1="433.341" y2="433.341" gradientUnits="userSpaceOnUse"><stop offset="0" stop-color="#F0E5FF"/><stop offset="1" stop-color="#FFF"/></linearGradient><path id="XMLID_4905_" d="M99.1,418.9c-13.8-8-36.3-8-50.1,0c-13.8,8-13.8,21,0,28.9c13.8,8,36.3,8,50.1,0 C112.8,439.8,112.8,426.8,99.1,418.9z" class="st114"/></g><g><path id="XMLID_4904_" d="M103.5,426h-3.1c-1.4-1.6-3.2-3.2-5.6-4.5c-11.5-6.6-30.3-6.6-41.8,0 c-2.3,1.4-4.2,2.9-5.6,4.5h-3v4h0c-0.6,4.8,2.3,9.6,8.5,13.2c11.5,6.6,30.3,6.6,41.8,0c6.3-3.6,9.1-8.5,8.5-13.2h0.1V426z" class="st115"/><linearGradient id="XMLID_13_" x1="44.496" x2="103.527" y1="426.429" y2="426.429" gradientUnits="userSpaceOnUse"><stop offset="0" stop-color="#2F1359"/><stop offset="1" stop-color="#491E8C"/></linearGradient><path id="XMLID_4903_" d="M94.9,414.4c-11.5-6.6-30.3-6.6-41.8,0c-11.5,6.6-11.5,17.5,0,24.1 c11.5,6.6,30.3,6.6,41.8,0C106.4,431.9,106.4,421,94.9,414.4z" class="st116"/><linearGradient id="XMLID_14_" x1="74.012" x2="74.012" y1="440.333" y2="362.007" gradientUnits="userSpaceOnUse"><stop offset="0" stop-color="#C2A3FF"/><stop offset="1" stop-color="#F0E5FF" stop-opacity="0"/></linearGradient><path id="XMLID_4902_" d="M50,362.1v64.4c0,3.6,2.3,7.1,7,9.8c9.3,5.4,24.6,5.4,34,0c4.7-2.7,7-6.3,7-9.8V362 L50,362.1z" class="st117"/><path id="XMLID_4901_" d="M91,416.7c-9.3-5.4-24.6-5.4-34,0c-9.3,5.4-9.3,14.2,0,19.6c9.3,5.4,24.6,5.4,34,0 C100.4,430.9,100.4,422.1,91,416.7z" class="st115"/><g><defs><path id="XMLID_4899_" d="M91,416.7c-9.3-5.4-24.6-5.4-34,0c-9.3,5.4-9.3,14.2,0,19.6c9.3,5.4,24.6,5.4,34,0 C100.4,430.9,100.4,422.1,91,416.7z"/></defs><clipPath id="XMLID_15_"><use overflow="visible" xlink:href="#XMLID_4899_"/></clipPath><radialGradient id="XMLID_16_" cx="-2974.347" cy="-3861.091" r="57.032" gradientTransform="matrix(0.3437 0 0 0.3437 1096.2153 1754.8181)" gradientUnits="userSpaceOnUse"><stop offset="0" stop-color="#FFF"/><stop offset="1" stop-color="#C2A3FF"/></radialGradient><path id="XMLID_4900_" d="M91,418c-9.3-5.4-24.6-5.4-34,0c-9.3,5.4-9.3,14.2,0,19.6c9.3,5.4,24.6,5.4,34,0 C100.4,432.2,100.4,423.4,91,418z" class="st118"/></g><g><linearGradient id="XMLID_17_" x1="74.012" x2="74.012" y1="431.698" y2="417.665" gradientUnits="userSpaceOnUse"><stop offset="0" stop-color="#FFF" stop-opacity=".7"/><stop offset="1" stop-color="#F0E5FF" stop-opacity="0"/></linearGradient><path id="XMLID_4898_" d="M50,417.7c0,3.6,2.3,7.1,7,9.8c9.3,5.4,24.6,5.4,34,0c4.7-2.7,7-6.3,7-9.8" class="st119"/><linearGradient id="XMLID_18_" x1="74.012" x2="74.012" y1="422.89" y2="408.858" gradientUnits="userSpaceOnUse"><stop offset="0" stop-color="#FFF" stop-opacity=".7"/><stop offset="1" stop-color="#F0E5FF" stop-opacity="0"/></linearGradient><path id="XMLID_4897_" d="M50,408.9c0,3.6,2.3,7.1,7,9.8c9.3,5.4,24.6,5.4,34,0c4.7-2.7,7-6.3,7-9.8" class="st120"/><linearGradient id="XMLID_19_" x1="74.012" x2="74.012" y1="414.083" y2="400.05" gradientUnits="userSpaceOnUse"><stop offset="0" stop-color="#FFF" stop-opacity=".7"/><stop offset="1" stop-color="#F0E5FF" stop-opacity="0"/></linearGradient><path id="XMLID_4896_" d="M50,400.1c0,3.6,2.3,7.1,7,9.8c9.3,5.4,24.6,5.4,34,0c4.7-2.7,7-6.3,7-9.8" class="st121"/><linearGradient id="XMLID_20_" x1="74.012" x2="74.012" y1="405.275" y2="391.243" gradientUnits="userSpaceOnUse"><stop offset="0" stop-color="#FFF" stop-opacity=".7"/><stop offset="1" stop-color="#F0E5FF" stop-opacity="0"/></linearGradient><path id="XMLID_4895_" d="M50,391.2c0,3.6,2.3,7.1,7,9.8c9.3,5.4,24.6,5.4,34,0c4.7-2.7,7-6.3,7-9.8" class="st122"/><linearGradient id="XMLID_21_" x1="74.012" x2="74.012" y1="396.468" y2="382.436" gradientUnits="userSpaceOnUse"><stop offset="0" stop-color="#FFF" stop-opacity=".7"/><stop offset="1" stop-color="#F0E5FF" stop-opacity="0"/></linearGradient><path id="XMLID_4894_" d="M50,382.4c0,3.6,2.3,7.1,7,9.8c9.3,5.4,24.6,5.4,34,0c4.7-2.7,7-6.3,7-9.8" class="st123"/></g></g></g></g><g><g><linearGradient id="SVGID_48_" x1="2.126" x2="148.109" y1="312.215" y2="312.215" gradientUnits="userSpaceOnUse"><stop offset="0" stop-color="#F0E5FF"/><stop offset="1" stop-color="#FFF"/></linearGradient><path d="M148.1,286.1c0-0.2,0-0.3,0-0.5c0-0.2,0-0.3,0-0.5v0v0c0-0.2,0-0.3,0-0.5c0-0.1,0-0.3,0-0.4 c0,0,0,0,0-0.1l0,0c0-0.2,0-0.3-0.1-0.5c0-0.1,0-0.3-0.1-0.4c0,0,0-0.1,0-0.1c0,0,0,0,0,0c0-0.2-0.1-0.3-0.1-0.5 c0-0.1-0.1-0.3-0.1-0.4c0,0,0,0,0,0l0,0c0-0.1-0.1-0.3-0.1-0.4c0-0.1-0.1-0.3-0.1-0.4c0,0,0,0,0,0c0,0,0,0,0,0 c0-0.1-0.1-0.2-0.1-0.3c0-0.1-0.1-0.2-0.1-0.4c0,0,0-0.1,0-0.1c0,0,0,0,0-0.1c0-0.1,0-0.1-0.1-0.2c0-0.1-0.1-0.2-0.1-0.3 c0-0.1-0.1-0.2-0.1-0.3c0,0,0,0,0,0c0,0,0,0,0,0c0-0.1-0.1-0.2-0.1-0.3c-0.1-0.1-0.1-0.2-0.2-0.3c0,0,0-0.1-0.1-0.1 c0,0,0-0.1,0-0.1c0-0.1-0.1-0.1-0.1-0.2c-0.1-0.2-0.2-0.4-0.3-0.5l0,0c0,0,0,0,0,0c-0.1-0.2-0.2-0.4-0.4-0.6c0,0,0,0,0-0.1 c0-0.1-0.1-0.1-0.1-0.2c-0.1-0.1-0.1-0.2-0.2-0.3c-0.1-0.1-0.1-0.2-0.2-0.2c0,0,0,0,0,0c0,0,0,0,0,0c-0.1-0.1-0.1-0.2-0.2-0.3 c-0.1-0.1-0.1-0.2-0.2-0.3c0,0,0,0-0.1-0.1c0,0,0,0,0,0c0,0-0.1-0.1-0.1-0.1c-0.1-0.1-0.2-0.2-0.2-0.2 c-0.1-0.1-0.1-0.1-0.2-0.2c0,0,0,0,0,0c0,0,0,0,0,0c-0.1-0.1-0.2-0.2-0.3-0.2c-0.1-0.1-0.2-0.1-0.2-0.2c0,0,0,0,0,0 c0,0,0,0-0.1-0.1c0,0-0.1-0.1-0.2-0.1c-0.1-0.1-0.2-0.1-0.3-0.2c0,0-0.1-0.1-0.1-0.1c0,0,0,0-0.1,0c0,0,0,0-0.1,0 c-0.1-0.1-0.2-0.1-0.3-0.2c-0.1,0-0.2-0.1-0.3-0.2c0,0,0,0-0.1,0c-0.1,0-0.1-0.1-0.2-0.1c-0.1-0.1-0.2-0.1-0.3-0.1 c0,0-0.1,0-0.1,0c0,0,0,0-0.1,0c0,0-0.1-0.1-0.1-0.1c-0.1,0-0.2-0.1-0.3-0.1c0,0-0.1,0-0.1,0c0,0,0,0-0.1,0 c-0.1,0-0.1,0-0.1-0.1c-0.1,0-0.2-0.1-0.3-0.1c0,0,0,0-0.1,0c0,0,0,0-0.1,0c-0.1,0-0.1,0-0.2-0.1c-0.1,0-0.2-0.1-0.4-0.1 c0,0,0,0,0,0c0,0,0,0,0,0c-0.1,0-0.2,0-0.4-0.1c-0.1,0-0.1,0-0.2,0c0,0-0.1,0-0.1,0c-0.1,0-0.1,0-0.2,0c-0.1,0-0.2-0.1-0.3-0.1 c-0.1,0-0.1,0-0.2,0c-0.1,0-0.3-0.1-0.5-0.1c-0.1,0-0.1,0-0.2-0.1c-0.2,0-0.3-0.1-0.5-0.2c-0.1,0-0.1,0-0.2-0.1 c-0.2-0.1-0.4-0.1-0.6-0.2c-0.1,0-0.1-0.1-0.2-0.1c-0.2-0.1-0.3-0.1-0.5-0.2c-0.1,0-0.2-0.1-0.4-0.1c-0.1,0-0.3-0.1-0.5-0.2 c-0.2-0.1-0.3-0.1-0.5-0.2c-0.1,0-0.2-0.1-0.3-0.1c-0.2-0.1-0.4-0.2-0.6-0.3c-0.1-0.1-0.3-0.1-0.4-0.2 c-0.2-0.1-0.4-0.2-0.6-0.3c-0.1-0.1-0.3-0.1-0.4-0.2c-0.2-0.1-0.4-0.2-0.6-0.3c-0.2-0.1-0.3-0.2-0.5-0.2 c-0.3-0.1-0.5-0.2-0.8-0.4c-0.1-0.1-0.3-0.1-0.4-0.2c-0.4-0.2-0.8-0.4-1.2-0.6c-0.5-0.3-1-0.5-1.5-0.8 c-0.4-0.2-0.9-0.5-1.3-0.8c-0.1-0.1-0.2-0.1-0.2-0.2c-0.3-0.2-0.6-0.4-0.9-0.6c-0.1-0.1-0.3-0.2-0.4-0.3 c-0.3-0.2-0.6-0.4-0.9-0.7c-0.1-0.1-0.2-0.2-0.4-0.3c-0.3-0.2-0.5-0.4-0.8-0.7c-0.2-0.1-0.3-0.3-0.5-0.4 c-0.2-0.2-0.5-0.4-0.7-0.6c-0.2-0.2-0.4-0.4-0.6-0.5c-0.2-0.1-0.3-0.3-0.5-0.4c-0.3-0.3-0.6-0.6-0.9-0.9 c-0.2-0.2-0.3-0.3-0.5-0.5c-0.3-0.3-0.6-0.6-1-1c-0.2-0.2-0.3-0.4-0.5-0.5c-0.3-0.4-0.7-0.7-1-1.1c-0.1-0.2-0.3-0.3-0.4-0.5 c-0.5-0.6-1-1.1-1.5-1.7c0,0,0,0,0,0c-0.6-0.6-1.1-1.3-1.6-1.9c-0.1-0.1-0.2-0.3-0.4-0.4c-0.6-0.8-1.2-1.5-1.8-2.3 c-0.1-0.2-0.2-0.3-0.4-0.5c-0.3-0.4-0.5-0.7-0.8-1c-0.2-0.2-0.3-0.4-0.5-0.6c-0.2-0.3-0.5-0.6-0.7-1c-0.2-0.2-0.3-0.4-0.5-0.7 c-0.2-0.2-0.3-0.5-0.5-0.7c-0.2-0.2-0.3-0.5-0.5-0.7c-0.2-0.3-0.4-0.5-0.5-0.8c-0.2-0.2-0.3-0.4-0.4-0.6 c-0.2-0.3-0.4-0.5-0.5-0.8c-0.1-0.2-0.3-0.4-0.4-0.6c-0.2-0.3-0.4-0.5-0.6-0.8c-0.1-0.2-0.2-0.4-0.4-0.5 c-0.1-0.1-0.2-0.2-0.2-0.4c-0.2-0.3-0.4-0.6-0.5-0.8c-0.1-0.1-0.1-0.2-0.2-0.3c-0.2-0.3-0.4-0.7-0.7-1 c-0.1-0.1-0.1-0.2-0.2-0.3c-0.2-0.2-0.3-0.5-0.5-0.7c-0.1-0.1-0.1-0.2-0.2-0.3c-0.2-0.3-0.4-0.6-0.6-0.9 c-0.1-0.1-0.1-0.2-0.2-0.2c-0.1-0.2-0.3-0.4-0.4-0.6c-0.1-0.1-0.1-0.2-0.2-0.3c-0.2-0.3-0.3-0.5-0.5-0.7c0-0.1-0.1-0.1-0.1-0.2 c-0.1-0.2-0.2-0.4-0.3-0.5c0-0.1-0.1-0.1-0.1-0.2c0,0-0.7-1.2-1.1-1.8c-0.1-0.1-0.1-0.3-0.2-0.3l-0.1,0 c-0.2-0.3-0.4-0.6-0.4-0.6c-0.1-0.1-0.2-0.3-0.3-0.4c0,0,0-0.1-0.1-0.1c0,0,0,0,0-0.1c-0.1-0.2-0.3-0.3-0.4-0.5 c-0.1-0.1-0.2-0.2-0.3-0.4c0,0-0.1-0.1-0.1-0.1c0,0,0,0-0.1-0.1c-0.2-0.2-0.3-0.4-0.5-0.5c-0.1-0.1-0.1-0.1-0.2-0.2 c-0.1-0.1-0.1-0.1-0.2-0.2c-0.1-0.1-0.1-0.1-0.2-0.2c-0.2-0.2-0.4-0.4-0.6-0.6c0,0,0,0-0.1-0.1c-0.1,0-0.1-0.1-0.2-0.1 c-0.1-0.1-0.3-0.2-0.4-0.4c-0.1-0.1-0.2-0.2-0.3-0.3c-0.1-0.1-0.1-0.1-0.2-0.2c0,0-0.1-0.1-0.1-0.1c-0.2-0.2-0.4-0.3-0.7-0.5 c0,0,0,0-0.1,0c-0.1,0-0.1-0.1-0.2-0.1c-0.1-0.1-0.3-0.2-0.4-0.3c-0.1-0.1-0.2-0.1-0.3-0.2c-0.1,0-0.1-0.1-0.2-0.1 c0,0-0.1-0.1-0.1-0.1c-0.2-0.1-0.4-0.3-0.7-0.4c0,0-0.1-0.1-0.2-0.1c-0.2-0.1-0.3-0.2-0.5-0.3c-0.1-0.1-0.3-0.2-0.4-0.2 c-0.1,0-0.1-0.1-0.2-0.1c0,0,0,0-0.1,0c-0.2-0.1-0.4-0.2-0.6-0.3c-0.1,0-0.1,0-0.2-0.1c-0.1,0-0.1-0.1-0.2-0.1 c-0.1,0-0.2-0.1-0.2-0.1c-0.2-0.1-0.4-0.2-0.6-0.2c0,0,0,0,0,0c0,0-0.1,0-0.1,0c-0.1,0-0.3-0.1-0.4-0.1c-0.1,0-0.3-0.1-0.4-0.1 c0,0-0.1,0-0.1,0c0,0,0,0-0.1,0c-0.2-0.1-0.4-0.1-0.6-0.1c-0.1,0-0.1,0-0.2,0c-0.1,0-0.1,0-0.2,0c-0.1,0-0.1,0-0.2,0 c-0.2,0-0.4-0.1-0.6-0.1c0,0,0,0-0.1,0c0,0-0.1,0-0.1,0c-0.1,0-0.3,0-0.4,0c-0.1,0-0.2,0-0.3,0c-0.1,0-0.1,0-0.2,0 c0,0-0.1,0-0.1,0c-0.2,0-0.4,0.1-0.6,0.1c0,0,0,0-0.1,0l-0.3,0.2c0,0-0.1,0-0.1,0c-0.1,0-0.1,0.1-0.2,0.1c0,0-0.1,0-0.1,0.1 c-0.1,0.1-0.3,0.2-0.4,0.2c0,0-0.1,0-0.1,0.1c-0.1,0.1-0.3,0.1-0.5,0.2c-0.1,0-0.1,0.1-0.2,0.1c-0.2,0.1-0.3,0.2-0.5,0.2 c-0.1,0-0.1,0-0.2,0.1c-0.2,0.1-0.5,0.2-0.8,0.3c-0.1,0-0.1,0-0.2,0.1c-0.2,0.1-0.5,0.2-0.7,0.3c-0.1,0-0.2,0.1-0.3,0.1 c-0.3,0.1-0.5,0.2-0.8,0.3c0,0-0.1,0-0.1,0.1c-0.3,0.1-0.7,0.2-1,0.3c-0.1,0-0.2,0-0.2,0.1c-0.3,0.1-0.5,0.2-0.8,0.2 c-0.1,0-0.2,0.1-0.3,0.1c-0.3,0.1-0.6,0.1-0.9,0.2c-0.1,0-0.2,0.1-0.3,0.1c-0.4,0.1-0.8,0.2-1.2,0.3c0,0,0,0-0.1,0 c-0.5,0.1-1,0.2-1.4,0.2c-0.1,0-0.2,0-0.3,0c-0.5,0.1-1,0.1-1.6,0.2c-0.1,0-0.3,0-0.4,0c-0.3,0-0.5,0-0.8,0.1 c-0.2,0-0.3,0-0.5,0c-0.2,0-0.5,0-0.8,0c-0.2,0-0.4,0-0.7,0c-0.2,0-0.3,0-0.5,0c-0.3,0-0.5,0-0.8,0c-0.1,0-0.2,0-0.4,0 c-0.1,0-0.1,0-0.2,0c-0.5,0-0.9-0.1-1.4-0.1c-0.2,0-0.3,0-0.5-0.1c-0.3-0.1-0.7-0.1-1-0.2c-0.2,0-0.3-0.1-0.5-0.1 c-0.3-0.1-0.5-0.1-0.8-0.2c-0.2,0-0.4-0.1-0.6-0.1c-0.2-0.1-0.4-0.1-0.6-0.2c-0.2-0.1-0.5-0.1-0.7-0.2 c-0.2-0.1-0.3-0.1-0.5-0.2c-0.3-0.1-0.5-0.2-0.8-0.3c-0.1,0-0.3-0.1-0.4-0.2c-0.3-0.1-0.6-0.2-0.9-0.4c-0.1,0-0.2-0.1-0.3-0.1 c-0.4-0.2-0.8-0.4-1.2-0.5c-0.1,0-0.2-0.1-0.2-0.1c-0.4-0.2-0.8-0.4-1.2-0.6c-0.4-0.2-0.7-0.4-1.1-0.6 c-0.1-0.1-0.2-0.2-0.4-0.2c-0.4-0.3-0.8-0.5-1.2-0.7c0,0,0,0,0,0c-0.4-0.2-0.8-0.5-1.1-0.7c-0.1-0.1-0.3-0.2-0.4-0.3 c-0.2-0.1-0.4-0.3-0.7-0.5c-0.2-0.1-0.4-0.3-0.6-0.4c-0.2-0.1-0.3-0.2-0.5-0.4c-0.2-0.1-0.4-0.3-0.5-0.4 c-0.1-0.1-0.3-0.2-0.4-0.3c-0.2-0.2-0.4-0.3-0.6-0.5c-0.1-0.1-0.2-0.2-0.3-0.3c-0.2-0.2-0.4-0.3-0.6-0.5 c-0.1-0.1-0.2-0.2-0.3-0.3c-0.3-0.2-0.6-0.5-0.9-0.7c0,0,0,0-0.1-0.1c-0.2-0.2-0.5-0.4-0.7-0.6c-0.2-0.1-0.3-0.3-0.5-0.4 c-0.1,0-0.1-0.1-0.2-0.1c-0.1-0.1-0.2-0.2-0.3-0.2c-0.1-0.1-0.1-0.1-0.2-0.2c-0.1-0.1-0.2-0.2-0.3-0.3c0,0-0.1-0.1-0.1-0.1 c-0.1-0.1-0.1-0.1-0.2-0.2c0,0-0.1-0.1-0.1-0.1c0,0-0.1-0.1-0.1-0.1c0,0,0,0-0.1,0c0,0-0.1-0.1-0.1-0.1 c-0.1-0.1-0.2-0.2-0.3-0.3c-0.1-0.1-0.1-0.1-0.2-0.2c0,0-0.1-0.1-0.1-0.1c0,0,0,0-0.1-0.1c-0.1-0.1-0.2-0.2-0.3-0.3 c0,0-0.1,0-0.1-0.1c0,0-0.1,0-0.1-0.1c0,0-0.1-0.1-0.1-0.1c-0.1-0.1-0.2-0.1-0.3-0.2c0,0,0,0,0,0c0,0,0,0-0.1,0 c-0.1,0-0.1-0.1-0.2-0.1c-0.1-0.1-0.2-0.1-0.3-0.2c0,0,0,0-0.1,0c-0.1,0-0.1-0.1-0.2-0.1c-0.1,0-0.2-0.1-0.2-0.1 c0,0-0.1,0-0.1-0.1c0,0,0,0-0.1,0c0,0,0,0-0.1,0c-0.1,0-0.2-0.1-0.2-0.1c-0.1,0-0.2-0.1-0.2-0.1c-0.1,0-0.2-0.1-0.2-0.1 c-0.1,0-0.2,0-0.2-0.1c0,0,0,0-0.1,0c0,0,0,0-0.1,0c0,0-0.1,0-0.1,0c-0.1,0-0.2,0-0.2,0c0,0-0.1,0-0.1,0c0,0,0,0,0,0 c0,0-0.1,0-0.1,0c-0.1,0-0.2,0-0.3,0c0,0-0.1,0-0.1,0c0,0,0,0-0.1,0c0,0-0.1,0-0.1,0c-0.1,0-0.2,0-0.3,0 c-0.1,0-0.3,0.1-0.4,0.1c0,0,0,0,0,0c-0.2,0.1-0.3,0.1-0.5,0.2c-10.2,5.9-20.3,11.8-30.5,17.7c0.1-0.1,0.3-0.2,0.5-0.2 c0.1,0,0.3-0.1,0.4-0.1c0,0,0,0,0,0c0,0,0,0,0,0c0.1,0,0.3,0,0.4-0.1c0,0,0.1,0,0.1,0c0.1,0,0.3,0,0.4,0c0,0,0,0,0.1,0 c0.2,0,0.3,0,0.5,0.1c0,0,0,0,0.1,0c0.2,0,0.3,0.1,0.5,0.2c0,0,0,0,0,0c0,0,0,0,0,0c0.2,0.1,0.4,0.1,0.5,0.2c0,0,0,0,0.1,0 c0.2,0.1,0.4,0.2,0.6,0.3c0.2,0.1,0.3,0.2,0.5,0.3c0,0,0,0,0.1,0c0.2,0.1,0.3,0.2,0.5,0.4c0,0,0.1,0,0.1,0.1 c0.2,0.1,0.3,0.3,0.5,0.4c0,0,0.1,0,0.1,0.1c0.2,0.2,0.4,0.3,0.5,0.5c0,0,0.1,0.1,0.2,0.1c0,0,0.1,0.1,0.1,0.1 c0,0,0.1,0.1,0.1,0.1c0.1,0,0.1,0.1,0.2,0.2c0,0,0.1,0.1,0.1,0.1c0,0,0,0,0,0c0,0,0.1,0.1,0.1,0.1c0.1,0.1,0.1,0.1,0.2,0.2 c0,0,0.1,0.1,0.1,0.1c0.1,0.1,0.2,0.2,0.3,0.3c0.1,0.1,0.1,0.1,0.2,0.1c0.1,0.1,0.3,0.2,0.4,0.4c0,0,0,0,0,0 c0.5,0.4,1,0.9,1.7,1.4c0,0,0,0,0,0c0.1,0,0.1,0.1,0.2,0.1c0.2,0.2,0.4,0.3,0.7,0.5c0.1,0.1,0.2,0.2,0.4,0.3 c0.2,0.2,0.4,0.3,0.6,0.5c0.1,0,0.1,0.1,0.1,0.1c0.1,0.1,0.2,0.2,0.3,0.2c0.2,0.1,0.3,0.2,0.5,0.4c0.2,0.1,0.4,0.3,0.6,0.4 c0.2,0.1,0.3,0.2,0.5,0.4c0.1,0,0.1,0.1,0.1,0.1c0.2,0.1,0.3,0.2,0.5,0.3c0.1,0.1,0.3,0.2,0.4,0.3c0.3,0.2,0.6,0.4,0.9,0.6 c0.1,0.1,0.2,0.1,0.2,0.2l0,0c0.4,0.2,0.8,0.5,1.2,0.7c0.1,0.1,0.3,0.2,0.4,0.2c0.2,0.1,0.4,0.2,0.6,0.3 c0.2,0.1,0.3,0.2,0.5,0.3c0.2,0.1,0.4,0.2,0.7,0.4c0.2,0.1,0.3,0.2,0.5,0.3c0.1,0,0.2,0.1,0.3,0.1c0,0,0.1,0,0.1,0.1 c0.3,0.2,0.6,0.3,0.9,0.4c0,0,0.1,0,0.1,0.1c0.1,0,0.2,0.1,0.4,0.1c0.2,0.1,0.4,0.2,0.5,0.2c0.1,0,0.2,0.1,0.3,0.1 c0.1,0.1,0.3,0.1,0.4,0.1c0.1,0,0.2,0.1,0.3,0.1c0.2,0.1,0.3,0.1,0.5,0.2c0.2,0.1,0.3,0.1,0.5,0.2c0.1,0,0.1,0,0.2,0.1 c0.2,0.1,0.4,0.1,0.5,0.1c0.2,0,0.4,0.1,0.6,0.2c0,0,0.1,0,0.1,0c0.2,0,0.3,0.1,0.5,0.1c0.2,0.1,0.5,0.1,0.8,0.2 c0.1,0,0.1,0,0.2,0c0.1,0,0.2,0,0.3,0.1c0.3,0.1,0.7,0.1,1,0.2c0.1,0,0.2,0,0.3,0c0.1,0,0.1,0,0.2,0c0.5,0.1,0.9,0.1,1.4,0.1 c0.1,0,0.1,0,0.2,0c0,0,0,0,0.1,0c0.1,0,0.2,0,0.3,0c0.3,0,0.6,0,0.9,0c0.1,0,0.3,0,0.4,0c0.2,0,0.3,0,0.5,0c0.1,0,0.1,0,0.2,0 c0.3,0,0.5,0,0.8,0c0.2,0,0.3,0,0.5,0c0.3,0,0.5,0,0.8-0.1c0.1,0,0.2,0,0.4,0c0,0,0,0,0.1,0c0.5,0,1-0.1,1.5-0.2 c0.1,0,0.2,0,0.4-0.1c0.5-0.1,0.9-0.1,1.4-0.2c0,0,0.1,0,0.1,0c0,0,0,0,0,0c0.4-0.1,0.8-0.2,1.2-0.3c0.1,0,0.2-0.1,0.3-0.1 c0.3-0.1,0.6-0.1,0.8-0.2c0.1,0,0.2-0.1,0.4-0.1c0.3-0.1,0.5-0.2,0.8-0.2c0.1,0,0.2-0.1,0.3-0.1c0.3-0.1,0.7-0.2,1-0.3 c0,0,0,0,0,0c0.1,0,0.1,0,0.2-0.1c0.3-0.1,0.5-0.2,0.8-0.3c0.1,0,0.2-0.1,0.3-0.1c0.2-0.1,0.5-0.2,0.7-0.3 c0.1,0,0.1-0.1,0.2-0.1c0.3-0.1,0.5-0.2,0.8-0.3c0.1,0,0.1,0,0.2-0.1c0.2-0.1,0.4-0.2,0.6-0.3c0.1,0,0.1,0,0.2-0.1 c0.2-0.1,0.4-0.2,0.5-0.3c0,0,0,0,0,0c0.2-0.1,0.3-0.2,0.5-0.3c0,0,0,0,0.1,0c0.1-0.1,0.2-0.1,0.3-0.2c0,0,0,0,0.1,0 c0.1,0,0.2-0.1,0.2-0.1l0.1,0c0.2-0.1,0.5-0.1,0.8-0.1c0.1,0,0.1,0,0.2,0c0.2,0,0.5,0,0.7,0c0,0,0.1,0,0.1,0 c0.3,0,0.5,0.1,0.8,0.1c0.1,0,0.1,0,0.2,0c0.3,0,0.6,0.1,0.8,0.2c0,0,0.1,0,0.1,0c0.3,0.1,0.6,0.2,0.8,0.3c0,0,0.1,0,0.1,0 c0.3,0.1,0.6,0.2,0.9,0.3c0.1,0,0.1,0.1,0.2,0.1c0.3,0.1,0.6,0.3,0.9,0.4c0,0,0.1,0.1,0.1,0.1c0.3,0.2,0.6,0.3,0.9,0.5 c0.3,0.2,0.6,0.4,0.9,0.6c0.1,0,0.1,0.1,0.2,0.1c0.2,0.2,0.5,0.3,0.8,0.5c0.1,0,0.1,0.1,0.2,0.1c0.3,0.2,0.6,0.4,0.9,0.7 c0.1,0.1,0.1,0.1,0.2,0.2c0.3,0.2,0.5,0.4,0.8,0.6c0,0,0.1,0.1,0.1,0.1c0.3,0.3,0.6,0.5,0.8,0.8c0.1,0.1,0.1,0.1,0.2,0.2 c0.3,0.3,0.5,0.5,0.8,0.8c0,0,0.1,0.1,0.1,0.1c0.3,0.3,0.5,0.6,0.8,0.9c0,0,0,0.1,0.1,0.1c0.3,0.3,1.1,1.6,1.3,1.9c0,0,0,0,0,0 l0,0c0.2,0.3,0.4,0.7,0.7,1.2c0,0,0,0.1,0.1,0.1c0.1,0.2,0.3,0.5,0.4,0.7l0,0c0.2,0.2,0.3,0.5,0.5,0.8c0,0.1,0.1,0.1,0.1,0.2 c0.2,0.2,0.3,0.5,0.5,0.8c0,0,0.1,0.1,0.1,0.1c0.2,0.3,0.4,0.6,0.6,0.9c0,0.1,0.1,0.1,0.1,0.2c0.2,0.3,0.4,0.6,0.5,0.8 c0.1,0.1,0.1,0.1,0.1,0.2c0.2,0.3,0.5,0.7,0.7,1.1c0,0.1,0.1,0.2,0.1,0.2c0.2,0.3,0.4,0.6,0.6,0.9c0.1,0.1,0.1,0.2,0.2,0.2 c0,0.1,0.1,0.1,0.1,0.2c0.1,0.2,0.2,0.3,0.3,0.5c0.2,0.2,0.3,0.5,0.5,0.7c0.1,0.2,0.3,0.4,0.4,0.6c0.2,0.3,0.4,0.5,0.5,0.8 c0.1,0.2,0.3,0.4,0.4,0.6c0.2,0.3,0.4,0.6,0.6,0.8c0.1,0.2,0.3,0.4,0.4,0.6c0.2,0.3,0.4,0.6,0.6,0.9c0.1,0.1,0.1,0.1,0.1,0.2 c0.1,0.1,0.2,0.2,0.2,0.3c0.3,0.3,0.5,0.7,0.8,1c0.2,0.2,0.3,0.4,0.5,0.6c0.3,0.3,0.5,0.7,0.8,1c0.1,0.1,0.2,0.3,0.3,0.4 c0,0.1,0.1,0.1,0.1,0.2c0.6,0.8,1.2,1.5,1.8,2.2c0,0.1,0.1,0.1,0.2,0.2c0.1,0.1,0.1,0.1,0.2,0.2c1,1.3,2.1,2.5,3.2,3.7 c0.1,0.1,0.1,0.1,0.2,0.2c0.1,0.1,0.2,0.2,0.3,0.3c0.4,0.4,0.7,0.7,1.1,1.1c0.1,0.1,0.2,0.2,0.3,0.3c0.1,0.1,0.1,0.1,0.2,0.2 c0.3,0.4,0.7,0.7,1,1c0.1,0.1,0.2,0.2,0.3,0.3c0,0,0.1,0.1,0.1,0.1c0.3,0.3,0.7,0.7,1,1c0.1,0.1,0.2,0.2,0.3,0.3c0,0,0,0,0,0 c0.3,0.2,0.5,0.4,0.8,0.7c0.2,0.1,0.3,0.3,0.5,0.5c0,0,0,0,0,0.1c0.2,0.1,0.4,0.3,0.5,0.4c0.2,0.2,0.5,0.4,0.7,0.6 c0,0,0.1,0.1,0.1,0.1c0.1,0.1,0.2,0.2,0.4,0.3c0.2,0.2,0.4,0.3,0.6,0.5c0.1,0.1,0.2,0.1,0.3,0.2c0.1,0.1,0.3,0.2,0.4,0.3 c0.1,0.1,0.3,0.2,0.4,0.3c0.2,0.1,0.4,0.2,0.5,0.4c0.1,0.1,0.2,0.1,0.2,0.2c0,0,0.1,0,0.1,0.1c0.3,0.2,0.6,0.4,0.9,0.6 c0.1,0.1,0.2,0.1,0.3,0.2c0.5,0.3,1,0.5,1.4,0.8c0,0,0,0,0,0c0.4,0.2,0.8,0.4,1.2,0.6c0.1,0.1,0.3,0.1,0.4,0.2 c0.2,0.1,0.3,0.2,0.5,0.3c0.1,0,0.1,0.1,0.2,0.1c0.2,0.1,0.3,0.2,0.5,0.2c0.2,0.1,0.4,0.2,0.7,0.3c0.1,0.1,0.3,0.1,0.4,0.2 c0.1,0,0.1,0.1,0.2,0.1c0.1,0.1,0.3,0.1,0.4,0.2c0.2,0.1,0.3,0.1,0.5,0.2c0.2,0.1,0.3,0.1,0.5,0.2c0.2,0.1,0.3,0.1,0.5,0.2 c0,0,0,0,0,0c0.1,0,0.2,0.1,0.3,0.1c0.2,0.1,0.4,0.1,0.5,0.2c0.2,0.1,0.3,0.1,0.5,0.2c0.1,0,0.3,0.1,0.4,0.1c0,0,0,0,0.1,0 c0.1,0,0.2,0.1,0.3,0.1c0.2,0.1,0.4,0.1,0.5,0.2c0.1,0,0.2,0.1,0.3,0.1c0.2,0,0.3,0.1,0.4,0.1c0,0,0.1,0,0.1,0 c0.1,0,0.1,0,0.2,0.1c0.1,0,0.3,0.1,0.4,0.1c0.1,0,0.2,0,0.2,0.1c0.1,0,0.2,0.1,0.3,0.1c0,0,0.1,0,0.1,0c0,0,0.1,0,0.1,0 c0,0,0.1,0,0.1,0c0.1,0,0.2,0,0.3,0.1h0c0.1,0,0.2,0.1,0.3,0.1c0,0,0,0,0,0c0.2,0,0.4,0.1,0.5,0.1c0,0,0.1,0,0.1,0 c0.2,0,0.3,0.1,0.5,0.2c0,0,0.1,0,0.1,0c0.2,0.1,0.3,0.1,0.5,0.2c0,0,0,0,0.1,0c0.2,0.1,0.4,0.2,0.5,0.3 c0.2,0.1,0.4,0.3,0.6,0.4c0,0,0,0,0,0c0.2,0.1,0.4,0.3,0.6,0.5c0,0,0,0,0,0c0.2,0.2,0.4,0.3,0.6,0.5c0,0,0,0,0,0 c0.2,0.2,0.4,0.4,0.5,0.6c0,0,0,0,0,0c0.2,0.2,0.3,0.4,0.5,0.6c0,0,0,0,0,0c0.1,0.2,0.3,0.4,0.4,0.6c0,0,0.1,0.1,0.1,0.1 c0.1,0.2,0.3,0.4,0.4,0.6c0,0,0,0,0,0.1c0.1,0.2,0.3,0.5,0.4,0.7c0,0,0,0.1,0,0.1c0.1,0.3,0.3,0.5,0.4,0.8c0,0,0,0,0,0 c0.1,0.3,0.2,0.5,0.3,0.8c0,0,0,0,0,0.1c0.2,0.6,0.4,1.2,0.5,1.8l0,0c0.1,0.3,0.1,0.6,0.2,0.9l0,0c0.1,0.3,0.1,0.6,0.1,0.9 c0,0,0,0,0,0.1c0,0.3,0.1,0.6,0.1,0.9l0,0c0,0.3,0,0.6,0,1l0,80c0,0.8,0,1.6-0.1,2.4c0,0.2,0,0.4,0,0.6c0,0.6-0.1,1.2-0.2,1.8 c0,0.2,0,0.4-0.1,0.5c-0.1,0.7-0.2,1.5-0.3,2.2c0,0.1,0,0.1,0,0.2c-0.1,0.7-0.3,1.3-0.4,1.9c-0.1,0.2-0.1,0.5-0.2,0.7 c-0.1,0.4-0.2,0.8-0.3,1.2c-0.1,0.5-0.3,1-0.5,1.4c-0.1,0.2-0.2,0.5-0.3,0.7c-0.2,0.6-0.4,1.1-0.7,1.6 c-0.1,0.1-0.1,0.3-0.2,0.4c-0.1,0.2-0.2,0.3-0.2,0.5c-0.2,0.4-0.4,0.8-0.6,1.2c-0.1,0.2-0.3,0.4-0.4,0.6 c-0.2,0.3-0.4,0.7-0.6,1c-0.1,0.2-0.3,0.4-0.4,0.6c-0.2,0.3-0.4,0.6-0.6,0.9c-0.2,0.2-0.3,0.4-0.5,0.6 c-0.2,0.3-0.4,0.5-0.7,0.8c-0.2,0.2-0.3,0.4-0.5,0.6c-0.2,0.3-0.5,0.5-0.7,0.7c-0.2,0.2-0.4,0.4-0.5,0.5 c-0.2,0.2-0.5,0.5-0.8,0.7c-0.2,0.2-0.4,0.3-0.6,0.5c-0.3,0.2-0.6,0.5-0.8,0.7c-0.2,0.1-0.4,0.3-0.5,0.4 c-0.3,0.2-0.6,0.5-1,0.7c-0.2,0.1-0.3,0.2-0.5,0.3c-0.5,0.3-1,0.6-1.5,0.9c10.2-5.9,20.3-11.8,30.5-17.7c0.5-0.3,1-0.6,1.5-0.9 c0.2-0.1,0.3-0.2,0.5-0.3c0.3-0.2,0.7-0.5,1-0.7c0.2-0.1,0.4-0.3,0.5-0.4c0.3-0.2,0.6-0.4,0.8-0.7c0.2-0.1,0.4-0.3,0.5-0.5 c0.3-0.2,0.5-0.5,0.8-0.7c0.2-0.2,0.4-0.3,0.5-0.5c0.2-0.2,0.5-0.5,0.7-0.7c0.2-0.2,0.3-0.4,0.5-0.6c0.2-0.3,0.5-0.5,0.7-0.8 c0.2-0.2,0.3-0.4,0.5-0.6c0.2-0.3,0.4-0.6,0.6-0.9c0.1-0.2,0.3-0.4,0.4-0.6c0-0.1,0.1-0.1,0.1-0.2c0.2-0.3,0.3-0.5,0.5-0.8 c0.1-0.2,0.2-0.4,0.4-0.6c0.2-0.4,0.4-0.8,0.6-1.2c0.1-0.2,0.2-0.3,0.3-0.5c0,0,0,0,0,0c0.1-0.1,0.1-0.3,0.2-0.4 c0.2-0.5,0.5-1.1,0.7-1.6c0-0.1,0.1-0.1,0.1-0.2c0.1-0.2,0.1-0.4,0.2-0.6c0.2-0.4,0.3-0.9,0.5-1.4c0-0.1,0.1-0.2,0.1-0.3 c0.1-0.3,0.2-0.6,0.3-1c0.1-0.2,0.1-0.4,0.2-0.6c0-0.1,0-0.1,0.1-0.2c0.1-0.6,0.3-1.2,0.4-1.8c0,0,0,0,0-0.1c0,0,0,0,0,0 c0.1-0.6,0.2-1.3,0.3-1.9c0-0.1,0-0.2,0-0.3c0-0.2,0-0.3,0-0.5c0-0.3,0.1-0.6,0.1-0.9c0-0.3,0-0.6,0.1-0.9c0-0.2,0-0.4,0-0.5 c0-0.1,0-0.2,0-0.3c0-0.6,0-1.2,0-1.8c0-0.1,0-0.2,0-0.3L148.1,286.1z" class="st124"/><g><path d="M58.8,243.3c2.7,1.6,5.5,4,7.6,6.8c0.8,1.3,15.5,26.9,29.9,35.2c7.6,4.3,12.5,5.3,12.7,5.3 c0.8,0.2,1.6,0.5,2.3,0.9c3.6,2.1,6.2,7,6.2,12.3l0,80c0,42-52.6,34.4-58.7,30.9c-6.3-3.6-58.8-56.2-58.8-98.2l-0.1-80 c0-5.3,2.7-7.2,6.3-5.1c0.7,0.4,1.5,1,2.3,1.8c0.3,0.2,5.1,4.8,12.5,9.1c14.6,8.3,29.4-0.4,30.2-0.8 C53.3,240.9,56.1,241.7,58.8,243.3z" class="st125"/><linearGradient id="SVGID_49_" x1="1.434" x2="116.18" y1="323.994" y2="323.994" gradientUnits="userSpaceOnUse"><stop offset="0" stop-color="#2F1359"/><stop offset="1" stop-color="#491E8C"/></linearGradient><path d="M77.7,416.1c-9.3,0-16.5-1.8-18.1-2.7c-6.2-3.6-58.1-55.6-58.1-97l-0.1-80c0-2.6,0.7-3.7,1.1-4.1 c0.3-0.3,0.7-0.5,1.1-0.5c0.5,0,1.2,0.2,1.9,0.6c0.6,0.4,1.3,0.9,2,1.6c1.3,1.2,6,5.4,12.7,9.3c4.4,2.5,9.2,3.8,14.4,3.8 c0,0,0,0,0,0c8.5,0,15.3-3.5,17-4.5c0.2,0,0.5-0.1,0.8-0.1c1.6,0,3.6,0.7,5.7,1.9c2.7,1.5,5.2,3.8,7.1,6.3 c2.8,4.8,16.6,27.7,30.4,35.7c7.9,4.5,13,5.5,13.2,5.5c0.6,0.1,1.3,0.4,1.9,0.7c3.2,1.9,5.5,6.4,5.5,11l0,80 c0,11.8-4.3,20.6-12.8,26C95.2,415,84.9,416.1,77.7,416.1z" class="st126"/></g></g><g><linearGradient id="SVGID_50_" x1="15.308" x2="93.552" y1="328.495" y2="328.495" gradientUnits="userSpaceOnUse"><stop offset="0" stop-color="#491E8C"/><stop offset="1" stop-color="#7E44D8"/></linearGradient><path d="M54.5,274.8c1.8,1.1,3.6,2.6,5,4.5c0.5,0.9,10.3,17.9,19.9,23.4c5,2.9,8.3,3.5,8.5,3.5 c0.5,0.1,1.1,0.3,1.6,0.6c2.4,1.4,4.1,4.7,4.1,8.2l0,53.2c0,27.9-35,22.9-39.1,20.5c-4.2-2.4-39.1-37.4-39.1-65.3l0-53.2 c0-3.5,1.8-4.8,4.2-3.4c0.5,0.3,1,0.7,1.5,1.2c0.2,0.2,3.4,3.2,8.3,6.1c9.7,5.6,19.5-0.2,20.1-0.5 C50.7,273.2,52.6,273.7,54.5,274.8z" class="st127"/></g><g><linearGradient id="SVGID_51_" x1="21.883" x2="80.429" y1="330.937" y2="330.937" gradientUnits="userSpaceOnUse"><stop offset="0" stop-color="#7E44D8"/><stop offset="1" stop-color="#C2A3FF"/></linearGradient><path d="M51.2,290.8c1.4,0.8,2.7,2,3.8,3.4c0.4,0.7,7.7,13.4,14.9,17.5c3.8,2.2,6.2,2.6,6.3,2.6 c0.4,0.1,0.8,0.2,1.2,0.4c1.8,1,3.1,3.5,3.1,6.1l0,39.8c0,20.9-26.2,17.2-29.2,15.4c-3.1-1.8-29.3-27.9-29.3-48.8l0-39.8 c0-2.6,1.3-3.6,3.1-2.6c0.4,0.2,0.7,0.5,1.1,0.9c0.1,0.1,2.5,2.4,6.2,4.5c7.2,4.1,14.6-0.2,15-0.4 C48.4,289.6,49.8,290,51.2,290.8z" class="st128"/></g></g></g></g></g></svg>