<svg xmlns="http://www.w3.org/2000/svg" xmlns:xlink="http://www.w3.org/1999/xlink" id="Layer_1" x="0" y="0" version="1.1" viewBox="0 0 490 490" xml:space="preserve" style="enable-background:new 0 0 490 490"><style type="text/css">.st0{fill:#fff;stroke:#bdafd6;stroke-width:2;stroke-miterlimit:10}.st1{opacity:.5}.st2{fill:none;stroke:#bdafd6;stroke-width:2;stroke-linecap:round;stroke-linejoin:round;stroke-dasharray:.1,4}.st3{fill:#bdafd6}.st4{fill:#fff}.st5{fill:url(#SVGID_1_)}.st6{fill:url(#SVGID_2_)}.st7{fill:url(#SVGID_3_)}.st8{fill:#20201e}.st9{fill:url(#SVGID_4_)}.st10{fill:#353534}.st11{fill:#282828}.st12{fill:url(#SVGID_5_);stroke:url(#SVGID_6_);stroke-width:2.4502;stroke-miterlimit:10}.st13{fill:#c73a63}.st14{fill:#4b4b4b}.st15{fill:#4a4a4a}.st16,.st17{fill:#491e8c}.st17{opacity:.4;enable-background:new}</style><g><path d="M189.1,200.7H54.4c-6.6,0-12-5.4-12-12v-134c0-6.6,5.4-12,12-12h134.7c6.6,0,12,5.4,12,12v134 C201.1,195.3,195.7,200.7,189.1,200.7z" class="st0"/><path d="M435.6,200.7H300.9c-6.6,0-12-5.4-12-12v-134c0-6.6,5.4-12,12-12h134.7c6.6,0,12,5.4,12,12v134 C447.6,195.3,442.2,200.7,435.6,200.7z" class="st0"/><path d="M312.4,447.4H177.6c-6.6,0-12-5.4-12-12v-134c0-6.6,5.4-12,12-12h134.7c6.6,0,12,5.4,12,12v134 C324.4,442,319,447.4,312.4,447.4z" class="st0"/><g class="st1"><g><polyline points="121.8 220.9 121.8 368.4 137.5 368.4" class="st2"/><g><rect width="13" height="2" x="115.3" y="219.9" class="st3"/></g><g><g><circle cx="137.1" cy="368.4" r="7.5" class="st4"/><path d="M137.1,376.9c-4.7,0-8.5-3.8-8.5-8.5s3.8-8.5,8.5-8.5c4.7,0,8.5,3.8,8.5,8.5S141.8,376.9,137.1,376.9 C132.4,376.9,141.8,376.9,137.1,376.9z M137.1,361.8c-3.6,0-6.5,2.9-6.5,6.5s2.9,6.5,6.5,6.5c3.6,0,6.5-2.9,6.5-6.5 S140.6,361.8,137.1,361.8C133.5,361.8,140.6,361.8,137.1,361.8z" class="st3"/></g></g></g></g><g class="st1"><g><polyline points="368.2 228 368.2 368.4 345.4 368.4" class="st2"/><g><g><circle cx="368.2" cy="228.5" r="7.5" class="st4"/><path d="M359.7,228.5c0,4.7,3.8,8.5,8.5,8.5s8.5-3.8,8.5-8.5c0-4.7-3.8-8.5-8.5-8.5S359.7,223.8,359.7,228.5 C359.7,233.2,359.7,223.8,359.7,228.5z M374.7,228.5c0,3.6-2.9,6.5-6.5,6.5s-6.5-2.9-6.5-6.5c0-3.6,2.9-6.5,6.5-6.5 S374.7,224.9,374.7,228.5C374.7,232.1,374.7,224.9,374.7,228.5z" class="st3"/></g></g><g><rect width="2" height="13" x="344.4" y="361.9" class="st3"/></g></g></g><g><linearGradient id="SVGID_1_" x1="2283.925" x2="2338.838" y1="3014.382" y2="3014.382" gradientTransform="matrix(-0.2964 0.9551 -0.9551 -0.2964 3691.9854 -1209.9327)" gradientUnits="userSpaceOnUse"><stop offset=".039" style="stop-color:#2cf4e1"/><stop offset="1" style="stop-color:#2cb2e1"/></linearGradient><ellipse cx="125.2" cy="112.7" class="st5" rx="28.2" ry="27.4"/><linearGradient id="SVGID_2_" x1="140.313" x2="164.485" y1="82.719" y2="115.759" gradientTransform="matrix(1 0 0 1 0 22)" gradientUnits="userSpaceOnUse"><stop offset=".039" style="stop-color:#2cf4e1"/><stop offset="1" style="stop-color:#2cb2e1"/></linearGradient><path d="M145,104.5c2,2.7,3.1,5.8,3.1,9.1c0,3.9-1.7,7.6-4.5,10.5l1.8,6.3h5.2l5.5-6.2l1.5-9l0.3-5.3l-5.5-6 L145,104.5z" class="st6"/><g><linearGradient id="SVGID_3_" x1="99.101" x2="133.487" y1="86.689" y2="133.689" gradientTransform="matrix(1 0 0 1 0 22)" gradientUnits="userSpaceOnUse"><stop offset="0" style="stop-color:#2ce5e1"/><stop offset="1" style="stop-color:#2cb2e1"/></linearGradient><path d="M83.8,131.1l1,3.7c0,0,11.4,22.7,37,31.1c0,0,24-9.6,34.3-26l-15-12.1c0,0-6.8,5.3-17,5.3s-23.9-5.9-23.9-18 s14.3-16.5,14.3-16.5l-6.1-1.5H92.8l-9.9,23.2L83.8,131.1z" class="st7"/></g><path d="M158.9,139.6" class="st8"/><linearGradient id="SVGID_4_" x1="121.918" x2="121.918" y1="119.321" y2="59.728" gradientTransform="matrix(1 0 0 1 0 22)" gradientUnits="userSpaceOnUse"><stop offset="0" style="stop-color:#000"/><stop offset="1" style="stop-color:#0d0d0d"/></linearGradient><path d="M169.8,106.8c-0.4-0.4-13-13.4-47.6-25l-0.2-0.1C88.5,92.9,74,106.8,74,106.8c1.3,7.4,4.6,15.7,7.5,22 c0.2,0.5,4.2,7.3,7.2,11.1c-1.8-3.7-3.6-7-3.6-12.5c0-15.7,12.5-28.4,28.1-28.9c0.4,0,0.8,0,1.2,0l-3.7-3.6c0,0,15-2.4,34.2,8.9 c0,0,0.3,0.6,0,2.3c0,0,9.1,3.8,9.8,11.2c0.7,7.4-4.1,11.6-7.9,12.2c0,0,2-3-1.1-4.7c-0.7-0.4-1.4-0.5-2.2-0.5l0,0 c-5.9,0-6.6,6.6-6.6,6.6c-0.1,0.3-0.1,0.7-0.1,1c0,0-1,9.6,16.6,9.4c0,0,8.9-9.9,11.3-18.7c0.9-3.3,1.5-5.7,1.9-7.5 c1-2.6,1.9-5.2,2.9-7.9L169.8,106.8z" class="st9"/><path d="M137.5,105.8" class="st10"/><path d="M137.3,106.7c0.2-0.1,1-0.5,2-1.5c1.8,0.2,3.7,0.8,3.7,0.8c-3.4-2-8-3.2-13.2-3.1 C129.9,102.9,131.8,105.6,137.3,106.7C137.3,106.7,137.3,106.7,137.3,106.7z" class="st11"/><g><path d="M121.8,83.2c3.3,1,27.2,8.8,46.4,24.1l2.1-0.6l-0.1-0.1c-18.7-15.4-42.4-23.4-47.2-25l-0.4-0.1l-0.6-0.1 l-1.1,0.3c-5,1.6-28.6,9.6-47.3,25l-0.2,0.1l2.1,0.7C94.4,92,118.6,84.2,121.8,83.2z" class="st11"/></g><linearGradient id="SVGID_5_" x1="121.77" x2="121.77" y1="123.848" y2="43.577" gradientTransform="matrix(1 0 0 1 0 22)" gradientUnits="userSpaceOnUse"><stop offset=".039" style="stop-color:#2cf4e1"/><stop offset="1" style="stop-color:#2cb2e1"/></linearGradient><linearGradient id="SVGID_6_" x1="71.768" x2="171.94" y1="99.688" y2="99.688" gradientTransform="matrix(1 0 0 1 0 22)" gradientUnits="userSpaceOnUse"><stop offset=".039" style="stop-color:#2cf4e1"/><stop offset="1" style="stop-color:#2cb2e1"/></linearGradient><path d="M170.2,103.7c-18.7-15.4-42.4-23.4-47.2-24.9l-0.4-0.1l-0.6-0.1l-1.1,0.3c-5,1.6-28.6,9.5-47.3,24.9 l-0.4,0.3l0.1,0.5c0.1,0.1,2.1,11.9,8.9,25c4.1,7.8,9,14.5,14.6,20.1c7,6.8,15,11.9,24,15l0.5,0.1l0.5,0.1l0.6-0.2l0.5-0.1 c8.9-3.1,17-8.2,24-15c5.6-5.6,10.6-12.3,14.6-20.1c6.9-13.1,8.9-24.9,8.9-25l0.1-0.5L170.2,103.7z M159.8,128.7 c-4,7.6-8.8,14.2-14.3,19.7c-6.9,6.8-14.8,11.7-23.7,14.8c-8.9-3-16.9-7.9-23.7-14.7c-5.5-5.4-10.4-12-14.3-19.6 c-6-11.5-8.2-21.7-8.7-24.1c19.2-15.6,43.4-23.4,46.7-24.4c3.3,1,27.6,8.8,46.7,24.4C168,107.1,165.8,117.3,159.8,128.7z" class="st12"/></g><g id="OvHZFw.tif"><g><path d="M365.1,114.1c-4.2,7-8.1,13.8-12.2,20.5c-1,1.7-1.6,3.1-0.7,5.3c2.3,6.1-0.9,12-7.1,13.6 c-5.8,1.5-11.4-2.3-12.5-8.4c-1-5.5,3.2-10.8,9.2-11.7c0.5-0.1,1-0.1,1.9-0.1c2.9-4.9,6-10,9.2-15.4c-5.8-5.7-9.2-12.4-8.4-20.7 c0.5-5.9,2.8-10.9,7.1-15.1c8.1-8,20.4-9.2,29.9-3.1c9.1,5.9,13.3,17.3,9.7,27.1c-2.7-0.7-5.4-1.5-8.4-2.3 c1.1-5.4,0.3-10.3-3.4-14.5c-2.4-2.8-5.5-4.2-9.1-4.7c-7.1-1.1-14,3.5-16.1,10.4C351.9,102.8,355.4,109.3,365.1,114.1z" class="st13"/><path d="M377,105.9c2.9,5.2,5.9,10.4,8.9,15.6c14.9-4.6,26.1,3.6,30.2,12.5c4.9,10.7,1.5,23.3-8,29.9 c-9.8,6.8-22.2,5.6-30.9-3.1c2.2-1.9,4.4-3.7,6.8-5.7c8.6,5.6,16.1,5.3,21.7-1.3c4.8-5.6,4.7-14-0.2-19.5 c-5.6-6.4-13.2-6.5-22.4-0.4c-3.8-6.7-7.7-13.4-11.3-20.2c-1.2-2.3-2.6-3.6-5.4-4.1c-4.7-0.8-7.7-4.8-7.9-9.3 c-0.2-4.4,2.4-8.4,6.5-10c4-1.5,8.8-0.3,11.5,3.1c2.2,2.8,2.9,6,1.8,9.4C377.9,103.8,377.5,104.7,377,105.9z" class="st14"/><path d="M384,148.1c-5.9,0-11.8,0-17.9,0c-1.7,7.1-5.4,12.8-11.8,16.4c-5,2.8-10.3,3.8-16,2.9 c-10.5-1.7-19.1-11.2-19.9-21.8c-0.9-12.1,7.4-22.8,18.5-25.2c0.8,2.8,1.5,5.6,2.3,8.3c-10.1,5.2-13.7,11.7-10.8,19.9 c2.5,7.2,9.6,11.1,17.3,9.6c7.9-1.6,11.8-8.1,11.4-18.6c7.5,0,14.9-0.1,22.4,0c2.9,0,5.2-0.3,7.4-2.8c3.6-4.2,10.3-3.8,14.2,0.1 c4,4.1,3.8,10.6-0.4,14.6c-4.1,3.8-10.5,3.6-14.3-0.5C385.4,150.1,384.8,149.1,384,148.1z" class="st15"/></g></g><g id="Brandmark_1_"><circle id="Core-1_1_" cx="245" cy="347.6" r="7.5" class="st16"/><circle id="Core-2_1_" cx="223.1" cy="363.5" r="7.5" class="st16"/><circle id="Core-3_1_" cx="266.8" cy="363.5" r="7.5" class="st16"/><circle id="Core-4_1_" cx="231.5" cy="389.1" r="7.5" class="st16"/><circle id="Core-5_1_" cx="258.5" cy="389.1" r="7.5" class="st16"/><path id="Center_1_" d="M249,389.1c0-2.5,1-4.9,2.8-6.7c1.8-1.8,4.2-2.8,6.7-2.8c2.4,0,4.6,0.9,6.3,2.4 c1.6-2.8,2.7-5.9,3-9.2c-0.3,0-0.7,0-1,0c-2.5,0-4.9-1-6.7-2.8c-1.8-1.8-2.8-4.2-2.8-6.7s1-4.9,2.8-6.7c0.6-0.6,1.3-1.1,2-1.5 c-2.2-2.4-4.8-4.4-7.8-5.7c-0.4,1.8-1.3,3.4-2.6,4.7c-1.8,1.8-4.2,2.8-6.7,2.8c-2.5,0-4.9-1-6.7-2.8c-1.3-1.3-2.2-3-2.6-4.7 c-3,1.3-5.7,3.3-7.8,5.7c0.7,0.4,1.4,0.9,2,1.5c1.8,1.8,2.8,4.2,2.8,6.7s-1,4.9-2.8,6.7s-4.2,2.8-6.7,2.8c-0.3,0-0.7,0-1,0 c0.3,3.3,1.4,6.5,3,9.2c1.7-1.6,4-2.4,6.3-2.4c2.5,0,4.9,1,6.7,2.8c1.8,1.8,2.8,4.2,2.8,6.7c0,1.4-0.3,2.7-0.8,3.9 c1.6,0.3,3.2,0.5,4.9,0.5c1.7,0,3.3-0.2,4.9-0.5C249.3,391.8,249,390.5,249,389.1z" class="st17"/><path id="Circles_1_" d="M292.8,352.5c-1.4-3.4-3.5-6.4-6-9c-2.6-2.6-5.6-4.6-9-6c-2.3-1-4.7-1.6-7.1-2 c-1.4-2.9-3.2-5.6-5.5-7.9c-2.6-2.6-5.6-4.6-9-6c-3.5-1.5-7.2-2.2-11-2.2s-7.5,0.7-11,2.2c-3.4,1.4-6.4,3.5-9,6 c-2.3,2.3-4.1,4.9-5.5,7.8c-2.6,0.3-5.2,1-7.6,2c-3.4,1.4-6.4,3.4-9,6c-2.6,2.6-4.6,5.6-6,9c-1.5,3.5-2.2,7.2-2.2,10.9 c0,3.8,0.7,7.5,2.2,11c1.4,3.4,3.5,6.4,6,9c0.2,0.2,0.4,0.4,0.6,0.6c-0.3,1.7-0.5,3.5-0.5,5.2c0,3.8,0.7,7.5,2.2,11 c1.4,3.4,3.5,6.4,6,9s5.6,4.6,9,6c3.5,1.5,7.2,2.2,11,2.2c3.8,0,7.5-0.7,11-2.2c0.9-0.4,1.7-0.8,2.5-1.2c0.8,0.5,1.7,0.9,2.5,1.2 c3.5,1.5,7.2,2.2,11,2.2c3.8,0,7.5-0.7,11-2.2c3.4-1.4,6.4-3.5,9-6s4.6-5.6,6-9c1.5-3.5,2.2-7.2,2.2-11c0-1.8-0.2-3.5-0.5-5.2 c0.2-0.2,0.4-0.4,0.6-0.6c2.6-2.6,4.6-5.6,6-9c1.5-3.5,2.2-7.2,2.2-11C295,359.7,294.2,356,292.8,352.5z M290.6,373.5 c-1.2,2.9-2.9,5.5-5.1,7.8c-0.3-1-0.7-2.1-1.1-3.1c-1.4-3.4-3.5-6.4-6-9c-0.8-0.8-1.8-1.6-2.7-2.4c-0.3,0.7-0.7,1.4-1.1,2.1 c0.8,0.6,1.5,1.3,2.2,2c2.4,2.4,4.2,5.1,5.5,8.2c0.5,1.3,1,2.7,1.3,4c-2,1.7-4.3,3.1-6.7,4.2c-2.8,1.2-5.8,1.9-8.9,2 c0,0.8-0.1,1.6-0.3,2.3c3.5-0.1,6.9-0.8,10.2-2.2c2.3-1,4.4-2.2,6.3-3.7c0.1,1.1,0.2,2.3,0.2,3.4c0,3.5-0.7,6.9-2,10.1 c-1.3,3.1-3.2,5.8-5.5,8.2c-2.4,2.4-5.1,4.2-8.2,5.5c-3.2,1.3-6.6,2-10.1,2s-6.9-0.7-10.1-2c-0.4-0.2-0.8-0.3-1.1-0.5 c1.5-1,2.8-2.1,4.1-3.4c2.6-2.6,4.6-5.6,6-9c0.2-0.5,0.4-1,0.6-1.5c-0.8,0-1.6-0.2-2.3-0.4c-0.1,0.3-0.3,0.7-0.4,1 c-1.3,3.1-3.2,5.8-5.5,8.2c-1.4,1.4-3,2.7-4.8,3.8c-1.7-1.1-3.3-2.3-4.8-3.8c-2.4-2.4-4.2-5.1-5.5-8.2c-0.1-0.3-0.3-0.7-0.4-1 c-0.7,0.2-1.5,0.4-2.3,0.4c0.2,0.5,0.4,1,0.6,1.5c1.4,3.4,3.5,6.4,6,9c1.3,1.3,2.6,2.4,4.1,3.4c-0.4,0.2-0.7,0.3-1.1,0.5 c-3.2,1.3-6.6,2-10.1,2c-3.5,0-6.9-0.7-10.1-2c-3.1-1.3-5.8-3.2-8.2-5.5c-2.4-2.4-4.2-5.1-5.5-8.2c-1.3-3.2-2-6.6-2-10.1 c0-1.2,0.1-2.3,0.2-3.4c1.9,1.5,4,2.7,6.3,3.7c3.2,1.4,6.6,2.1,10.2,2.2c-0.2-0.7-0.3-1.5-0.3-2.3c-3.1-0.1-6.1-0.8-8.9-2 c-2.5-1-4.7-2.4-6.7-4.2c0.3-1.4,0.8-2.7,1.3-4c1.3-3.1,3.2-5.8,5.5-8.2c0.7-0.7,1.4-1.3,2.2-2c-0.5-0.6-0.8-1.3-1.1-2.1 c-1,0.7-1.9,1.5-2.7,2.4c-2.6,2.6-4.6,5.6-6,9c-0.4,1-0.8,2.1-1.1,3.1c-2.2-2.3-3.9-4.9-5.1-7.8c-1.3-3.2-2-6.6-2-10.1 s0.7-6.9,2-10.1c1.3-3.1,3.2-5.8,5.5-8.2c2.4-2.4,5.1-4.2,8.2-5.5c1.8-0.8,3.7-1.3,5.6-1.7c-1.1,3.1-1.7,6.3-1.7,9.6 c0,2.7,0.4,5.3,1.1,7.8c0.7-0.4,1.4-0.7,2.1-1c-0.6-2.2-0.9-4.5-0.9-6.8c0-3.4,0.7-6.8,2-9.9c0.6,0,1.2-0.1,1.8-0.1 c3.5,0,6.9,0.7,10.1,2c1.5,0.6,2.9,1.4,4.2,2.3c0.3-0.4,0.6-0.7,0.9-1c0.2-0.2,0.5-0.5,0.8-0.7c-1.5-1.1-3.2-2-4.9-2.7 c-3.5-1.5-7.2-2.2-11-2.2c-0.2,0-0.5,0-0.7,0c1.2-2.2,2.7-4.2,4.5-6c2.4-2.4,5.1-4.2,8.2-5.5c3.2-1.3,6.6-2,10-2 c3.5,0,6.9,0.7,10.1,2c3.1,1.3,5.8,3.2,8.2,5.5c1.8,1.8,3.3,3.8,4.5,6c-0.4,0-0.7,0-1.1,0c-3.8,0-7.5,0.7-11,2.2 c-1.7,0.7-3.4,1.6-4.9,2.7c0.3,0.2,0.5,0.4,0.8,0.7c0.3,0.3,0.6,0.7,0.9,1c1.3-0.9,2.7-1.6,4.2-2.3c3.2-1.3,6.6-2,10.1-2 c0.7,0,1.5,0,2.2,0.1c1.3,3.1,2,6.5,2,9.9c0,2.4-0.3,4.7-1,7c0.7,0.3,1.4,0.6,2.1,1.1c0.8-2.6,1.2-5.3,1.2-8 c0-3.3-0.6-6.5-1.6-9.5c1.8,0.3,3.5,0.9,5.2,1.6c3.1,1.3,5.8,3.2,8.2,5.5c2.4,2.4,4.2,5.1,5.5,8.2c1.3,3.2,2,6.6,2,10.1 C292.7,366.9,292,370.3,290.6,373.5z" class="st17"/></g></g></svg>