<svg xmlns="http://www.w3.org/2000/svg" xmlns:xlink="http://www.w3.org/1999/xlink" id="Layer_1" x="0" y="0" enable-background="new 0 0 319 100" version="1.1" viewBox="0 0 319 100" xml:space="preserve"><style type="text/css">.st0{fill:#ed1639}.st1{fill:#f89a97}.st2{fill:#9c0d25}</style><g><g><path d="M33.6,50.3H9.5v27.4H0.3V15.1h9.2v26.9h24.1V15.1h9.2v62.7h-9.2L33.6,50.3L33.6,50.3z M62.2,46.4 c0-7.3,0.2-12.2,0.6-14.6c0.4-2.5,1.1-4.5,2-6c1.5-2.9,3.8-5.5,7.1-7.7c3.2-2.3,7.2-3.5,11.9-3.5c4.8,0.1,8.9,1.2,12.1,3.5 c3.2,2.3,5.5,4.8,6.9,7.7c1,1.5,1.7,3.5,2.1,6c0.4,2.5,0.5,7.3,0.5,14.6c0,7.2-0.2,12-0.5,14.5c-0.4,2.5-1.1,4.5-2.1,6.1 c-1.4,2.9-3.7,5.4-6.9,7.7c-3.2,2.3-7.2,3.5-12.1,3.6c-4.8-0.1-8.8-1.3-11.9-3.6c-3.2-2.2-5.6-4.8-7.1-7.7 c-0.4-0.9-0.8-1.8-1.2-2.7c-0.3-0.9-0.6-2-0.8-3.4C62.5,58.4,62.2,53.6,62.2,46.4L62.2,46.4z M71.4,46.4c0,6.2,0.2,10.4,0.7,12.5 c0.4,2.2,1.2,3.9,2.4,5.3c1,1.3,2.3,2.3,3.8,3.1c1.6,0.9,3.4,1.4,5.6,1.4c2.2,0,4.1-0.5,5.7-1.4c1.5-0.8,2.8-1.9,3.7-3.1 c1.2-1.4,2-3.1,2.5-5.3c0.4-2.2,0.6-6.4,0.6-12.5c0-6.2-0.2-10.4-0.6-12.6c-0.4-2.1-1.3-3.9-2.5-5.2c-0.9-1.3-2.1-2.4-3.7-3.2 C88,24.5,86.1,24,83.9,24c-2.2,0.1-4,0.5-5.6,1.3c-1.6,0.9-2.9,1.9-3.8,3.2c-1.2,1.3-2,3.1-2.4,5.2C71.7,36,71.4,40.2,71.4,46.4z M215,15.1h23.7c5.1,0,9.2,1.4,12.4,4.1c3.8,3.1,5.9,7.6,6,13.4c-0.1,8.5-4,14.3-11.7,17.4l14.1,27.8h-10.9l-12.6-26.8h-11.8v26.8 H215L215,15.1z M224.2,42.5h13.9c3.5-0.1,6-1.1,7.8-3.1c1.7-1.9,2.5-4.2,2.5-6.9c-0.1-3.3-1.1-5.6-3-7.1c-1.6-1.3-3.8-1.9-6.8-1.9 h-14.4V42.5z M275.7,15.1H297c8.2,0.1,14.4,3.6,18.5,10.6c1.5,2.4,2.4,4.8,2.8,7.4c0.3,2.6,0.5,7,0.5,13.4 c0,6.7-0.2,11.4-0.7,14.1c-0.2,1.3-0.6,2.6-1,3.6c-0.5,1.1-1.1,2.2-1.7,3.2c-1.8,3-4.2,5.4-7.4,7.3c-3.1,2.1-7,3.1-11.5,3.1h-20.6 L275.7,15.1z M284.9,68.8h11c5.2,0,8.9-1.8,11.3-5.5c1-1.4,1.7-3.1,2-5.1c0.2-2,0.4-5.9,0.4-11.5c0-5.5-0.1-9.4-0.4-11.7 c-0.3-2.4-1.1-4.3-2.4-5.7c-2.6-3.6-6.2-5.4-10.8-5.3h-11L284.9,68.8L284.9,68.8z M207.8,99.9l5.7-10.6L162.4,0.1l-43.5,78.6 l11.6,0.1l31.8-57L207.8,99.9z" class="st0"/></g><g><path d="M163.7,78.7l19.7,0l6.3,10.9l-31.4,0l-0.1-0.2L163.7,78.7z M151.6,77.5l-43.9,0L150,0l12.4,0.1l-37.3,67.2 l31.9,0l-5.4,10h0L151.6,77.5z" class="st1"/><path d="M150.6,54l11.7,0.1l-6.1,11l-11.7,0L150.6,54z" class="st1"/><path d="M157.3,87.9l0.9,1.7h0l6.1,10.4l43.5,0l-45.6-78.2L156.6,32l33,57.6l-19.3,0l-14-24.5l-11.7,0l6.9,12.4 l-43.7,0l5.4,10.4L157.3,87.9z" class="st2"/><path d="M170.3,89.7l-14-24.7l6.1-11l13.4,24.8L170.3,89.7z" class="st0"/></g></g></svg>