<svg xmlns="http://www.w3.org/2000/svg" xmlns:xlink="http://www.w3.org/1999/xlink" id="Layer_1" x="0" y="0" enable-background="new 0 0 490 490" version="1.1" viewBox="0 0 490 490" xml:space="preserve"><style type="text/css">.st0,.st1{display:none;fill:url(#SVGID_1_)}.st1{fill:url(#SVGID_2_)}.st2{fill:#fff;stroke:#bdafd6;stroke-width:2;stroke-miterlimit:10}.st3{opacity:.5}.st4{fill:none;stroke:#bdafd6;stroke-width:2;stroke-linecap:round;stroke-linejoin:round;stroke-dasharray:.1,4}.st5{fill:#bdafd6}.st6{fill:#fff}.st7{opacity:.6}.st7,.st8,.st9{enable-background:new}.st8{opacity:.45}.st9{opacity:.8}.st10{fill:#9de1f3}.st11{fill:#27b4e1}.st12{fill:#1a82e2}.st13{fill:#239fd7}.st14{fill:url(#SVGID_3_)}</style><linearGradient id="SVGID_1_" x1="245" x2="245" y1="404.406" y2="-93.412" gradientTransform="matrix(1 0 0 1 0 90)" gradientUnits="userSpaceOnUse"><stop offset="0" stop-color="#FFF"/><stop offset=".35" stop-color="#FFF" stop-opacity=".8"/><stop offset=".408" stop-color="#FFF" stop-opacity=".728"/><stop offset="1" stop-color="#FFF" stop-opacity="0"/></linearGradient><path d="M488.8,0.2c0.7,6.3-1.9,12.9-8.2,16.5L275.5,135.1c-18.8,10.9-42,10.9-60.8,0L9,16.3C2.9,12.8,0,6.4,0.4,0.2H0	v338.7v12.8c1.2,1.4,2.7,7.9,4.4,8.9l209.8,121.1c19.2,11.1,42.8,11.1,62,0l209-120.7c2-1.1,3.5-7.8,4.8-9.4V339V0.2H488.8z" class="st0"/><linearGradient id="SVGID_2_" x1="244.95" x2="244.95" y1="401.435" y2="239.261" gradientTransform="matrix(1 0 0 1 0 90)" gradientUnits="userSpaceOnUse"><stop offset="0" stop-color="#FFF"/><stop offset=".15" stop-color="#FFF" stop-opacity=".7"/><stop offset=".226" stop-color="#FFF" stop-opacity=".637"/><stop offset="1" stop-color="#FFF" stop-opacity="0"/></linearGradient><path d="M10.7,330.5v20.1v12.2c1.2,1.3,2.6,2.5,4.2,3.5l200.6,115.8c18.3,10.6,40.9,10.6,59.2,0l199.9-115.4	c1.9-1.1,3.4-2.5,4.6-4v-12.1v-20.1L10.7,330.5L10.7,330.5z" class="st1"/><g><path d="M189.1,200.7H54.4c-6.6,0-12-5.4-12-12v-134c0-6.6,5.4-12,12-12h134.7c6.6,0,12,5.4,12,12v134 C201.1,195.3,195.7,200.7,189.1,200.7z" class="st2"/><path d="M435.6,200.7H300.9c-6.6,0-12-5.4-12-12v-134c0-6.6,5.4-12,12-12h134.7c6.6,0,12,5.4,12,12v134 C447.6,195.3,442.2,200.7,435.6,200.7z" class="st2"/><path d="M312.4,447.4H177.6c-6.6,0-12-5.4-12-12v-134c0-6.6,5.4-12,12-12h134.7c6.6,0,12,5.4,12,12v134 C324.4,442,319,447.4,312.4,447.4z" class="st2"/><g class="st3"><g><polyline points="121.8 220.9 121.8 368.4 137.5 368.4" class="st4"/><g><rect width="13" height="2" x="115.3" y="219.9" class="st5"/></g><g><g><circle cx="137.1" cy="368.4" r="7.5" class="st6"/><path d="M137.1,376.9c-4.7,0-8.5-3.8-8.5-8.5s3.8-8.5,8.5-8.5c4.7,0,8.5,3.8,8.5,8.5S141.8,376.9,137.1,376.9 C132.4,376.9,141.8,376.9,137.1,376.9z M137.1,361.8c-3.6,0-6.5,2.9-6.5,6.5s2.9,6.5,6.5,6.5c3.6,0,6.5-2.9,6.5-6.5 S140.6,361.8,137.1,361.8C133.5,361.8,140.6,361.8,137.1,361.8z" class="st5"/></g></g></g></g><g class="st3"><g><polyline points="368.2 228 368.2 368.4 345.4 368.4" class="st4"/><g><g><circle cx="368.2" cy="228.5" r="7.5" class="st6"/><path d="M359.7,228.5c0,4.7,3.8,8.5,8.5,8.5s8.5-3.8,8.5-8.5c0-4.7-3.8-8.5-8.5-8.5S359.7,223.8,359.7,228.5 C359.7,233.2,359.7,223.8,359.7,228.5z M374.7,228.5c0,3.6-2.9,6.5-6.5,6.5s-6.5-2.9-6.5-6.5c0-3.6,2.9-6.5,6.5-6.5 S374.7,224.9,374.7,228.5C374.7,232.1,374.7,224.9,374.7,228.5z" class="st5"/></g></g><g><rect width="2" height="13" x="344.4" y="361.9" class="st5"/></g></g></g><g><polygon points="244.9 355.2 214.2 369.1 244.9 387.3 275.6 369.1" class="st7"/><polygon points="214.2 369.1 244.9 387.3 244.9 355.2 244.9 318.2" class="st8"/><polygon points="244.9 318.2 244.9 355.2 244.9 387.3 275.6 369.1" class="st9"/><polygon points="214.2 375 244.9 418.2 244.9 393.1" class="st8"/><polygon points="244.9 393.1 244.9 418.2 275.6 375" class="st9"/></g><g><polygon points="351.6 105 318.2 105 318.2 138.3 318.2 171.6 351.6 171.6 384.9 171.6 384.9 138.3 384.9 105" class="st10"/><polygon points="351.6 71.6 351.6 105 351.6 138.3 384.9 138.3 418.2 138.3 418.2 71.6" class="st11"/><polygon points="318.2 171.6 351.6 171.6 351.6 138.3 318.2 138.3" class="st12"/><polygon points="384.9 105 418.2 105 418.2 71.6 384.9 71.6" class="st12"/><polygon points="351.6 138.3 384.9 138.3 384.9 105 351.6 105" class="st13"/></g><g><linearGradient id="SVGID_3_" x1="45.46" x2="45.069" y1="444.607" y2="444.835" gradientTransform="matrix(256 0 0 -256 -11475 113965)" gradientUnits="userSpaceOnUse"><stop offset="0" stop-color="#2697D4"/><stop offset=".5" stop-color="#207BCB"/><stop offset="1" stop-color="#2285CE"/></linearGradient><rect width="100" height="100" x="71.8" y="71.6" class="st14"/><path d="M126.3,115c-5-1.9-7.8-3.3-7.8-5.6c0-1.9,1.6-3,4.4-3c5.2,0,10.5,2,14.2,3.8l2.1-12.8 c-2.9-1.4-8.9-3.7-17.1-3.7c-5.8,0-10.7,1.5-14.1,4.4c-3.6,3-5.5,7.3-5.5,12.5c0,9.4,5.7,13.4,15.1,16.8c6,2.1,8,3.7,8,6 c0,2.3-1.9,3.6-5.5,3.6c-4.4,0-11.6-2.1-16.3-4.9l-2.1,12.9c4,2.3,11.5,4.6,19.2,4.6c6.2,0,11.3-1.5,14.7-4.2 c3.9-3,5.9-7.5,5.9-13.4C141.7,122.4,135.8,118.4,126.3,115L126.3,115z" class="st6"/></g></g></svg>