<svg xmlns="http://www.w3.org/2000/svg" xmlns:xlink="http://www.w3.org/1999/xlink" id="Layer_1" x="0" y="0" version="1.1" viewBox="0 0 400 400" xml:space="preserve" style="enable-background:new 0 0 400 400"><style type="text/css">.st0{fill:#c73a63}.st1{fill:#4b4b4b}.st2{fill:#4a4a4a}</style><g id="OvHZFw.tif"><g><path d="M187.5,169.9c-16.6,28-32.6,55.1-48.9,81.9c-4.2,6.9-6.2,12.5-2.9,21.3c9.2,24.2-3.8,47.8-28.2,54.2 c-23,6-45.5-9.1-50.1-33.8c-4.1-21.8,12.9-43.3,37-46.7c2-0.3,4.1-0.3,7.5-0.6c11.8-19.8,23.9-40.1,36.6-61.4 c-23-22.9-36.8-49.7-33.7-82.9c2.1-23.5,11.4-43.7,28.2-60.3c32.3-31.8,81.5-37,119.6-12.5c36.5,23.5,53.2,69.1,39,108.3 c-10.7-2.9-21.6-5.9-33.5-9.1c4.5-21.7,1.2-41.3-13.5-58c-9.7-11-22.1-16.8-36.3-19c-28.3-4.3-56.2,13.9-64.4,41.7 C134.5,124.7,148.7,150.5,187.5,169.9z" class="st0"/><path d="M235,136.8c11.7,20.7,23.6,41.7,35.4,62.5c59.6-18.4,104.6,14.6,120.7,49.9c19.5,42.7,6.2,93.2-32.1,119.6 c-39.3,27-88.9,22.4-123.7-12.3c8.9-7.4,17.8-14.9,27.3-22.8c34.4,22.3,64.4,21.2,86.7-5.1c19-22.5,18.6-56-1-78 c-22.6-25.4-52.9-26.2-89.4-1.8c-15.2-26.9-30.6-53.6-45.3-80.7c-5-9.1-10.4-14.4-21.6-16.4c-18.7-3.2-30.7-19.2-31.4-37.2 c-0.7-17.7,9.7-33.8,26.1-40c16.2-6.2,35.2-1.2,46.1,12.6c8.9,11.2,11.7,23.9,7,37.8C238.5,128.5,236.8,132.2,235,136.8z" class="st1"/><path d="M263,305.9c-23.6,0-47.2,0-71.8,0c-6.9,28.3-21.7,51.1-47.3,65.7c-19.9,11.3-41.4,15.1-64.2,11.4 c-42-6.8-76.4-44.6-79.4-87.2c-3.4-48.3,29.8-91.2,74-100.8c3.1,11.1,6.1,22.3,9.2,33.3C42.8,249,28.8,275,40.2,307.7 c10,28.7,38.4,44.4,69.2,38.4c31.5-6.2,47.4-32.4,45.4-74.4c29.9,0,59.7-0.3,89.6,0.2c11.7,0.2,20.7-1,29.4-11.3 c14.5-16.9,41.1-15.4,56.6,0.6c15.9,16.3,15.2,42.6-1.7,58.2c-16.2,15.1-41.9,14.3-57.1-2C268.5,314,266.1,310,263,305.9z" class="st2"/></g></g></svg>