<svg xmlns="http://www.w3.org/2000/svg" xmlns:xlink="http://www.w3.org/1999/xlink" id="Layer_1" x="0" y="0" enable-background="new 0 0 283 100" version="1.1" viewBox="0 0 283 100" xml:space="preserve"><style type="text/css">.st0{fill:#2e374d}.st1{fill:#1a53f0}</style><title>OmiseGO_Color</title><desc>Created with Sketch.</desc><g id="Assets"><g id="OmiseGO_Color"><g id="OmiseGO"><g id="Group"><path id="Shape" d="M20.1,57.4c-11.2,0-19.7-7.1-19.7-19.8s9-20.1,20.2-20.1s19.7,7.3,19.7,19.8 S31.2,57.4,20.1,57.4z M20.2,26.9c-5.1,0-7.7,4.1-7.7,10.6s2.6,10.4,7.8,10.4s7.7-4,7.7-10.5C28,31,25.4,26.9,20.2,26.9 L20.2,26.9z" class="st0"/><path id="Shape_1_" d="M91.4,34c0-4.5-1.9-6-5-6c-2.5,0-4.5,1.1-6,2.4v25.7H68V34c0-4.5-2-6-5.1-6 c-2.2,0-4.3,0.8-6,2.2v25.9H44.6v-38l12.3,0V23c3.3-3.5,7-5.6,11.8-5.6c4.7,0,8.6,2.3,10.5,6.7c3.4-4.1,7.8-6.7,12.9-6.7 c7.3,0,11.6,4.9,11.6,13v25.7H91.4L91.4,34z" class="st0"/><path id="Shape_2_" d="M116.1,13.3c-4.5,0-7.3-2.3-7.3-6.6c0-4.4,2.8-6.7,7.3-6.7c4.6,0,7.3,2.3,7.3,6.7 C123.3,11,120.6,13.3,116.1,13.3z M109.9,18.2l12.3,0v38h-12.3V18.2z" class="st0"/><path id="Shape_3_" d="M142.1,57.4c-5.1,0-11.8-1.1-15.7-3.3l2.4-9c4.4,2.3,9.2,3.5,13.6,3.5c3.4,0,5-1,5-3.1 c0-2.2-2.1-2.9-6.3-3.9c-8.6-1.8-14.1-4.9-14.1-12.3c0-7,6.1-12,16.4-12c5,0,11.4,1.5,15.1,3.2l-2.5,8.9 c-4.2-2.2-9.3-3.4-12.8-3.4c-3,0-4.6,1-4.6,2.8c0,2,2.3,2.8,6.4,3.7c8.7,1.9,14,4.8,14,12.3C159,51.8,153,57.4,142.1,57.4z" class="st0"/><path id="Shape_4_" d="M183.1,48.2c4.1,0,8.4-1.5,12.1-3.6l1.2,9.6c-3.8,1.9-9,3.1-14.5,3.1 c-12.5,0-20.8-7-20.8-19.6c0-12.3,8.3-20.2,20.1-20.2c10.6,0,16.3,6.4,16.3,15.7c0,2-0.2,5-0.8,6.6l-23.6,0.4v0.2 C173.7,45.4,177,48.2,183.1,48.2z M186.2,33.2c0-4.5-1.8-7.2-5.7-7.2c-4.2,0-6.8,3.7-7.2,8l12.9-0.1V33.2z" class="st0"/></g><g id="Group_1_" transform="translate(77.987179, 6.689781)"><path id="Shape_5_" d="M142.6,53.4c-10.9,0-19.8,8.9-19.8,20s8.9,20,19.8,20c10.9,0,19.8-8.9,19.8-20 S153.5,53.4,142.6,53.4z M142.6,87.3c-7.6,0-13.8-6.2-13.8-13.9s6.2-13.9,13.8-13.9c7.6,0,13.8,6.2,13.8,13.9 C156.4,81,150.2,87.3,142.6,87.3L142.6,87.3z" class="st1"/><path id="Shape_6_" d="M184.9,10.7c-8,0-15.2,4.9-18.3,12.3s-1.4,16.1,4.3,21.8s14.2,7.4,21.6,4.3 c7.4-3.1,12.2-10.4,12.2-18.5C204.7,19.7,195.8,10.7,184.9,10.7L184.9,10.7z M184.9,44.6c-7.6,0-13.8-6.2-13.8-13.9 s6.2-13.9,13.8-13.9c7.6,0,13.8,6.2,13.8,13.9C198.7,38.4,192.5,44.6,184.9,44.6L184.9,44.6z" class="st1"/><path id="Shape_7_" d="M142.6,10.7L142.6,10.7c-9.4,0-17.5,6.7-19.4,16s3,18.7,11.7,22.4c8.7,3.7,18.7,0.7,24.1-7.1 c5.3-7.9,4.4-18.4-2.2-25.2h5.6v-6H142.6z M156.4,30.7c0,7.7-6.2,13.9-13.8,13.9s-13.8-6.2-13.8-13.9s6.2-13.9,13.8-13.9 C150.2,16.8,156.4,23,156.4,30.7L156.4,30.7z" class="st1"/></g></g></g></g></svg>