<?xml version="1.0" encoding="utf-8"?>
<!-- Generator: Adobe Illustrator 21.0.0, SVG Export Plug-In . SVG Version: 6.00 Build 0)  -->
<svg version="1.1" id="Layer_1" xmlns="http://www.w3.org/2000/svg" xmlns:xlink="http://www.w3.org/1999/xlink" x="0px" y="0px"
	 viewBox="0 0 443 100" style="enable-background:new 0 0 443 100;" xml:space="preserve">
<style type="text/css">
	.st0{fill:#159E49;}
	.st1{fill:#333433;}
</style>
<g>
	<g id="line" transform="translate(792.000000, 406.000000)">
		<polygon id="Fill-10" class="st0" points="-791.7,-306.1 -408.7,-306.1 -408.7,-316.2 -791.7,-316.2 		"/>
		<polygon id="Fill-11" class="st0" points="-382.2,-306.1 -349.3,-306.1 -349.3,-316.2 -382.2,-316.2 		"/>
	</g>
	<g id="text" transform="translate(792.000000, 406.000000)">
		<path class="st1" d="M-717.1-331.4h13.7V-383h-13.7V-331.4z M-718.4-397.9c0-2.4,0.7-4.3,2.4-5.9c1.5-1.5,3.5-2.2,5.9-2.2
			c2.5,0,4.4,0.7,5.9,2.2c1.5,1.5,2.4,3.4,2.4,5.9c0,2.4-0.7,4.3-2.4,5.9c-1.5,1.5-3.5,2.2-5.9,2.2c-2.4,0-4.3-0.7-5.9-2.2
			C-717.7-393.5-718.4-395.5-718.4-397.9z"/>
		<path class="st1" d="M-671.8-383.1h14v10.3h-14v24.8c0,2.2,0.6,4,1.9,5.3c1.3,1.3,2.9,2.1,5.2,2.1c1.9,0,4.1-0.3,6.5-0.9l1.8,10.2
			c-4,1-7.8,1.6-11.5,1.6c-2.5,0-4.9-0.4-6.9-1.2s-3.8-1.9-5.5-3.4c-1.5-1.5-2.7-3.2-3.5-5.3c-0.9-2.1-1.2-4.3-1.2-6.8v-26.1h-9.4
			v-10.3h9.4V-398h13.1v14.9H-671.8z"/>
		<path class="st1" d="M-649.7-368.8c0-2.2,0.4-4.4,1.5-6.3s2.4-3.5,4-5c1.8-1.3,3.8-2.5,6.2-3.2s5.2-1.2,8-1.2c2.9,0,6,0.3,9.1,0.9
			c3.1,0.6,6.3,1.5,9.6,2.7l-2.9,9.7c-2.5-1-5-1.8-7.5-2.4c-2.5-0.6-4.9-0.9-7.1-0.9c-2.4,0-4.3,0.4-5.8,1.5s-2.1,2.4-2.1,4.1
			c0,1.6,0.7,2.8,2.1,3.5c1.3,0.7,2.9,1.5,5,2.1s4.1,1.2,6.5,1.6c2.4,0.6,4.6,1.5,6.5,2.7c2.1,1.2,3.7,2.8,5,4.7
			c1.3,2.1,2.1,4.7,2.1,8c0,2.4-0.4,4.4-1.5,6.5c-1,1.9-2.4,3.7-4.1,5.2c-1.8,1.5-3.8,2.5-6.5,3.4c-2.5,0.7-5.3,1.2-8.3,1.2
			c-6.3,0-13.1-1.3-20.2-4.1l2.8-9.6c6,2.5,11.5,3.7,16.4,3.7c2.5,0,4.6-0.6,6-1.6c1.5-1,2.2-2.5,2.2-4.4c0-1.6-0.7-2.8-2.1-3.7
			c-1.3-0.9-2.9-1.6-5-2.2c-2.1-0.6-4.1-1.2-6.5-1.8c-2.4-0.6-4.4-1.5-6.5-2.7s-3.7-2.7-5-4.6C-649.1-362.9-649.7-365.6-649.7-368.8
			"/>
		<path class="st1" d="M-582-383.1h14v10.3h-14v24.8c0,2.2,0.6,4,1.9,5.3c1.3,1.3,2.9,2.1,5.2,2.1c1.9,0,4.1-0.3,6.5-0.9l1.8,10.2
			c-4,1-7.8,1.6-11.5,1.6c-2.5,0-4.9-0.4-6.9-1.2s-3.8-1.9-5.5-3.4c-1.6-1.5-2.7-3.2-3.5-5.3c-0.9-2.1-1.2-4.3-1.2-6.8v-26.1h-9.4
			v-10.3h9.4V-398h13.1v14.9H-582z"/>
		<path class="st1" d="M-546.3-347.2c0,2.1,0.9,3.8,2.5,5.3c1.8,1.5,3.8,2.2,6.3,2.2c3.5,0,6.3-1.2,8.6-3.4s3.2-5.2,3.2-8.7v-3.1
			c-2.5-0.7-5.3-1-8.4-1c-3.8,0-6.8,0.7-9,2.4C-545.1-352-546.3-349.8-546.3-347.2 M-559.1-346.4c0-5.5,2.1-9.7,6.2-12.7
			c4.1-2.9,9.9-4.4,17.4-4.4c1.6,0,3.2,0.1,4.9,0.3c1.6,0.1,3.4,0.4,5,0.7v-2.8c0-2.7-0.9-4.9-2.8-6.5c-1.9-1.6-4.4-2.5-7.7-2.5
			c-5.2,0-10.8,1.2-16.8,3.7l-3.4-9.4c7.4-2.9,14.6-4.3,21.7-4.3c3.2,0,6,0.4,8.7,1.5c2.7,0.9,4.9,2.2,6.8,4c1.9,1.6,3.4,3.7,4.4,6
			s1.6,5,1.6,7.8v21.1c0,1.2,0.3,2.1,0.9,2.7c0.6,0.7,1.5,1,2.7,1c0.6,0,1,0,1.6-0.1c0.4,0,0.9-0.1,1-0.1l0.9,9.9
			c-1.2,0.1-2.2,0.4-3.4,0.6c-1.2,0.1-2.4,0.1-3.7,0.1c-2.7,0-4.9-0.6-6.8-1.9c-1.9-1.2-3.2-2.9-4.1-5.2c-2.2,2.2-4.9,4-7.7,5.2
			c-2.9,1.2-5.9,1.8-9.1,1.8c-2.7,0-5.2-0.4-7.4-1.2s-4.1-1.9-5.8-3.4c-1.6-1.5-2.8-3.1-3.7-5.2
			C-558.7-341.8-559.1-344.1-559.1-346.4"/>
		<path class="st1" d="M-498.4-383.3h10.6l1.6,7.1c2.1-2.7,4.4-4.7,7.4-6.2c2.9-1.5,6-2.2,9.4-2.2c3.8,0,7.1,0.9,10,2.5
			c2.8,1.6,5,4,6.5,6.9c2.4-3.1,5.2-5.5,8.3-7.1c3.1-1.6,6.5-2.4,10.3-2.4c2.8,0,5.3,0.4,7.7,1.3c2.4,0.9,4.4,2.2,6,4
			c1.8,1.6,3.1,3.7,4,6c0.9,2.4,1.5,4.9,1.5,7.7v34.2h-13.4v-32c0-2.9-0.9-5.3-2.8-7.2c-1.9-1.8-4.3-2.8-7.2-2.8
			c-3.4,0-6.2,1.2-8.4,3.5c-2.2,2.4-3.2,5.3-3.2,9.1v29.4h-13.4v-32c0-2.9-0.9-5.3-2.7-7.2c-1.8-1.8-4.1-2.8-7.1-2.8
			c-3.5,0-6.3,1.2-8.6,3.5c-2.2,2.4-3.2,5.3-3.2,9.1v29.4h-13.4v-51.9H-498.4z"/>
		<path class="st1" d="M-364-357.5c0-2.4-0.3-4.6-1-6.6c-0.6-2.1-1.6-3.8-2.8-5.2c-1.2-1.5-2.5-2.5-4.1-3.4s-3.4-1.2-5.3-1.2
			c-3.5,0-6.3,1.2-8.7,3.7c-2.2,2.4-3.4,5.5-3.4,9.3v6.9c0,1.9,0.3,3.7,0.9,5.2c0.6,1.6,1.5,2.9,2.5,4.1c1,1.2,2.4,2.1,3.8,2.7
			c1.5,0.6,3.1,0.9,4.9,0.9c1.9,0,3.7-0.4,5.3-1.2c1.6-0.7,2.9-1.9,4.1-3.4c1.2-1.5,2.1-3.2,2.8-5.2S-364-355.1-364-357.5z
			 M-402.4-383.3h10.6l1.6,6.6c1.9-2.5,4.1-4.4,6.9-5.9c2.8-1.3,5.9-2.1,9.3-2.1c3.4,0,6.5,0.7,9.4,2.1c2.8,1.3,5.3,3.2,7.4,5.6
			c2.1,2.4,3.7,5.2,4.9,8.6c1.2,3.2,1.8,6.9,1.8,10.9c0,4-0.6,7.7-1.8,10.9c-1.2,3.2-2.8,6.2-4.9,8.6c-2.1,2.4-4.6,4.3-7.4,5.6
			c-2.8,1.3-6,2.1-9.4,2.1c-3.1,0-6-0.6-8.6-1.8c-2.7-1.2-4.9-2.9-6.6-5.3v31.4h-13.3V-383.3z"/>
		<path class="st1" d="M-746.6-344.6c-2.1,2.1-4.9,2.9-8.4,2.9h-16.5v-21.4h16.5c3.4,0,6.2,1,8.4,2.9c2.1,1.9,3.1,4.6,3.1,7.7
			C-743.4-349.2-744.4-346.6-746.6-344.6z M-771.5-392h15.2c3.1,0,5.6,0.9,7.7,2.8c2.1,1.8,2.9,4.3,2.9,7.2s-1,5.3-2.9,7.1
			c-2.1,1.8-4.6,2.7-7.7,2.7h-15.2V-392z M-733-361.8c-2.2-3.1-5.2-5.3-8.8-6.6c2.9-1.3,5.2-3.2,6.9-5.9s2.7-5.8,2.7-9.3
			c0-2.8-0.6-5.3-1.6-7.5c-1-2.4-2.7-4.3-4.6-5.9c-1.9-1.6-4.3-2.9-6.9-3.8c-2.7-0.9-5.6-1.3-8.8-1.3h-37.5v9.4l0,0
			c5.8,0,10.3,4.7,10.3,10.5c0,5.8-4.6,10.5-10.3,10.5v8.6l0,0c5.8,0,10.3,4.7,10.3,10.5v1.6c0,5.8-4.6,10.5-10.3,10.5l0,0v9.4h39.1
			c3.4,0,6.3-0.4,9.1-1.5c2.8-0.9,5.2-2.2,7.2-4c2.1-1.8,3.7-3.8,4.7-6.2c1.2-2.4,1.8-5,1.8-8C-729.8-355.1-730.8-358.7-733-361.8z"
			/>
	</g>
</g>
</svg>
