<svg xmlns="http://www.w3.org/2000/svg" xmlns:xlink="http://www.w3.org/1999/xlink" id="logo" x="0" y="0" enable-background="new 0 0 360 160" version="1.1" viewBox="0 0 360 160" xml:space="preserve"><style type="text/css">.st0{fill:#222}.st1{fill:#47bec6}.st2{fill:#028197}</style><g><rect width="11" height="72" x="31.2" y="35.7" class="st0"/><path d="M74,64.8c-6.1-0.2-11.9,2.1-16.3,6.3c-4.3,4.1-6.6,10-6.5,16c-0.1,6,2.2,11.7,6.5,16 c4.4,4.3,10.2,6.5,16.2,6.3c6.1,0.2,11.9-2.1,16.2-6.3c4.3-4.3,6.6-10,6.5-16.1c0.1-6-2.1-11.7-6.3-15.8C85.8,66.9,80,64.7,74,64.8 z M81.6,95.2c-1.9,2.1-4.7,3.3-7.7,3.2c-2.9,0.1-5.7-1.1-7.8-3.2c-2.1-2.2-3.2-5.1-3-8.2c-0.1-2.9,1-5.8,3-7.9 c4.3-4.1,11.1-4.1,15.3,0c2.1,2.2,3.2,5,3,8l0,0C84.7,90.1,83.7,93,81.6,95.2z" class="st0"/><path d="M124.3,64.8c-6.1-0.2-11.9,2.1-16.3,6.3c-4.3,4.1-6.6,10-6.5,16c-0.1,6,2.2,11.7,6.5,16 c9.3,8.4,23.3,8.4,32.5,0c4.3-4.3,6.6-10,6.3-16.1c0.1-6-2.1-11.7-6.3-15.8C136.1,66.9,130.3,64.7,124.3,64.8z M134.9,87.1 c0.1,2.9-1,5.8-3,8c-1.9,2.1-4.7,3.3-7.7,3.2c-2.9,0.1-5.7-1.1-7.8-3.2c-2.1-2.2-3.2-5.1-3-8.2c-0.1-2.9,1-5.8,3-7.9 c4.3-4.1,11.1-4.1,15.3,0C134,81.3,135,84.1,134.9,87.1L134.9,87.1z" class="st0"/><path d="M217.5,70.2c-3.3-3.5-7.8-5.4-13.6-5.4c-6-0.2-11.7,2.6-15.2,7.3c-3.3-4.9-8.2-7.3-14.4-7.3 c-6.2,0-11,1.8-14.5,5.4c-3.5,3.5-5.2,8.5-5.2,14.9v23h11.9v-23c-0.1-2.4,0.6-4.7,2.2-6.7c1.6-1.6,3.8-2.4,6.1-2.3 c2.2-0.1,4.3,0.9,5.8,2.4c1.6,1.8,2.3,4.1,2.2,6.6v23h11.8v-23c-0.1-2.4,0.9-4.7,2.4-6.5c1.6-1.7,3.8-2.6,6.1-2.6 c2.1-0.1,4.1,0.7,5.6,2.3c1.5,1.9,2.2,4.3,2.1,6.7v23h11.8v-23C222.4,78.9,220.8,73.9,217.5,70.2z" class="st0"/></g><path d="M309.7,121.4l-60.8-42.6c-7.1-5-8.9-14.9-3.9-21.9c1.1-1.5,2.3-2.8,3.9-3.9l14.7-10.4l60.8,42.6	c7.1,5,8.9,14.9,3.9,21.9c-1.1,1.5-2.3,2.8-3.9,3.9L309.7,121.4z M263.7,49.5l-11.4,8c-4.6,3.2-5.7,9.5-2.4,14.1	c0.7,1,1.6,1.8,2.4,2.4l57.5,40.3l11.4-8c4.6-3.2,5.7-9.5,2.4-14.1c-0.7-1-1.6-1.8-2.4-2.4L263.7,49.5z" class="st1"/><g><path d="M252.1,89.8l29.6-20.7l-4.9-3.4l-28,19.5c-7.1,5-8.9,14.9-3.9,21.9c1.1,1.5,2.3,2.8,3.9,3.9l14.7,10.4 l18.1-12.7l-4.9-3.4l-13.3,9.3l-11.4-8c-4.6-3.2-5.7-9.5-2.4-14.1C250.3,91.3,251.1,90.4,252.1,89.8z" class="st2"/><path d="M328.2,56.7c-1.1-1.5-2.3-2.8-3.9-3.9l0,0l-14.7-10.4l-18.1,12.7l4.9,3.4l13.3-9.3l11.4,8 c4.6,3.2,5.7,9.5,2.4,14.1c-0.7,1-1.6,1.8-2.4,2.4l-29.6,20.7l4.9,3.4l28-19.6C331.5,73.7,333.3,63.9,328.2,56.7z" class="st2"/></g></svg>