<svg xmlns="http://www.w3.org/2000/svg" id="Layer_1" data-name="Layer 1" viewBox="0 0 400 400"><defs><style>.cls-1{fill:#dfcdf7}.cls-2{fill:#491e8c}.cls-3,.cls-4{fill:none;stroke-linecap:round;stroke-miterlimit:10;stroke-width:10px}.cls-3{stroke:#491e8c}.cls-4{stroke:#ffa744}.cls-5{fill:#ffa744}.cls-6{fill:#fff}</style></defs><title>Artboard 1 copy 5</title><path d="M362.14,28.8a9.07,9.07,0,0,1,9.06,9.06V380.94a9.07,9.07,0,0,1-9.06,9.06H19.06A9.07,9.07,0,0,1,10,380.94V37.86a9.07,9.07,0,0,1,9.06-9.06H362.14m0-10H19.06A19.06,19.06,0,0,0,0,37.86V380.94A19.06,19.06,0,0,0,19.06,400H362.14a19.06,19.06,0,0,0,19.06-19.06V37.86A19.06,19.06,0,0,0,362.14,18.8Z" class="cls-1"/><path d="M54.4,148.14a4.72,4.72,0,0,1-6.68,0l-4.46-4.46a4.72,4.72,0,0,1,0-6.68l30.33-30.48L43.25,76a4.72,4.72,0,0,1,0-6.68l4.46-4.46a4.72,4.72,0,0,1,6.68,0l38.28,38.27a4.74,4.74,0,0,1,0,6.69Zm108.79,2.5H103.31a4.73,4.73,0,0,1-4.73-4.73v-6.3a4.73,4.73,0,0,1,4.73-4.73h59.87a4.73,4.73,0,0,1,4.73,4.73v6.3A4.73,4.73,0,0,1,163.19,150.64Z" class="cls-2"/><line x1="45.67" x2="144.43" y1="200.64" y2="200.64" class="cls-3"/><line x1="172.71" x2="225.8" y1="200.64" y2="200.64" class="cls-4"/><line x1="251.99" x2="335.53" y1="200.64" y2="200.64" class="cls-3"/><line x1="45.67" x2="113.98" y1="231.31" y2="231.31" class="cls-4"/><line x1="138.55" x2="191.64" y1="231.31" y2="231.31" class="cls-3"/><line x1="217.17" x2="285.48" y1="231.31" y2="231.31" class="cls-3"/><line x1="45.67" x2="182.49" y1="261.98" y2="261.98" class="cls-3"/><line x1="206.9" x2="252.38" y1="261.98" y2="261.98" class="cls-4"/><line x1="274.29" x2="319.77" y1="261.98" y2="261.98" class="cls-4"/><line x1="45.67" x2="144.43" y1="290.01" y2="290.01" class="cls-3"/><line x1="172.71" x2="225.8" y1="290.01" y2="290.01" class="cls-4"/><line x1="251.99" x2="335.53" y1="290.01" y2="290.01" class="cls-3"/><line x1="45.67" x2="113.98" y1="320.68" y2="320.68" class="cls-4"/><line x1="138.55" x2="191.64" y1="320.68" y2="320.68" class="cls-3"/><line x1="217.17" x2="285.48" y1="320.68" y2="320.68" class="cls-3"/><line x1="45.67" x2="182.49" y1="351.35" y2="351.35" class="cls-3"/><line x1="206.9" x2="252.38" y1="351.35" y2="351.35" class="cls-4"/><line x1="274.29" x2="319.77" y1="351.35" y2="351.35" class="cls-4"/><circle cx="325" cy="75" r="75" class="cls-5"/><path d="M311.83,80.86a3.52,3.52,0,0,1,2.49,6L308.2,93A24.61,24.61,0,0,0,348.87,81a1.76,1.76,0,0,1,1.71-1.34H359a1.76,1.76,0,0,1,1.73,2.08,36.33,36.33,0,0,1-60.8,19.5l-5.23,5.23a3.52,3.52,0,0,1-6-2.49V84.38a3.52,3.52,0,0,1,3.52-3.52ZM325,50.39A24.64,24.64,0,0,0,301.13,69a1.76,1.76,0,0,1-1.71,1.34H291a1.76,1.76,0,0,1-1.73-2.08,36.33,36.33,0,0,1,60.79-19.5l5.23-5.23a3.52,3.52,0,0,1,6,2.49V65.63a3.52,3.52,0,0,1-3.52,3.52H338.17a3.52,3.52,0,0,1-2.49-6L341.8,57A24.43,24.43,0,0,0,325,50.39Z" class="cls-6"/></svg>