<svg xmlns="http://www.w3.org/2000/svg" id="Layer_1" data-name="Layer 1" viewBox="0 0 400 400"><defs><style>.cls-1{fill:#dfcdf7}.cls-2{fill:#fff;stroke:#ffa744;stroke-linecap:round;stroke-linejoin:round;stroke-width:10px}.cls-3{fill:#491e8c}</style></defs><title>Artboard 1 copy</title><rect width="150" height="150" class="cls-1" rx="8.57" ry="8.57" transform="translate(150 150) rotate(180)"/><path d="M325,150h0a75,75,0,1,0-75-75A75.08,75.08,0,0,0,325,150Z" class="cls-1"/><rect width="150" height="150" x="250" y="250" class="cls-1" rx="8.57" ry="8.57"/><path d="M75,250h0a75,75,0,1,0,75,75A75.08,75.08,0,0,0,75,250Z" class="cls-1"/><rect width="200" height="200" x="100" y="100" class="cls-2"/><path d="M149.51,241.06a4.72,4.72,0,0,1-6.68,0l-4.46-4.46a4.72,4.72,0,0,1,0-6.68l30.33-30.48L138.36,169a4.72,4.72,0,0,1,0-6.68l4.46-4.46a4.72,4.72,0,0,1,6.68,0l38.28,38.27a4.74,4.74,0,0,1,0,6.69Zm108.79,2.5H198.42a4.73,4.73,0,0,1-4.73-4.73v-6.3a4.73,4.73,0,0,1,4.73-4.73H258.3a4.73,4.73,0,0,1,4.73,4.73v6.3A4.73,4.73,0,0,1,258.3,243.56Z" class="cls-3"/></svg>