<svg xmlns="http://www.w3.org/2000/svg" id="Layer_1" data-name="Layer 1" viewBox="0 0 400 400"><defs><style>.cls-1{fill:#dfcdf7}.cls-2{fill:none;stroke:#ffa744;stroke-linecap:round;stroke-linejoin:round;stroke-width:10px}.cls-3{fill:#491e8c}</style></defs><title>Artboard 1 copy 7</title><rect width="75" height="75" x="12.38" y="312.5" class="cls-1" rx="9.9" ry="9.9"/><rect width="75" height="75" x="312.5" y="87.5" class="cls-1" rx="7.5" ry="7.5"/><rect width="75" height="75" x="105.18" y="312.5" class="cls-1" rx="9.9" ry="9.9"/><line x1="349.78" x2="200" y1="350.22" y2="350.22" class="cls-2"/><polyline points="200 200 200 350.22 49.88 350.22" class="cls-2"/><line x1="350" x2="350" y1="350.22" y2="125" class="cls-2"/><polyline points="200 200 200 50 50 50" class="cls-2"/><rect width="37.5" height="37.5" x="331.25" y="106.25" class="cls-3" rx="3.75" ry="3.75"/><rect width="37.5" height="37.5" x="123.93" y="331.25" class="cls-3" rx="4.95" ry="4.95"/><rect width="37.5" height="37.5" x="31.13" y="331.25" class="cls-3" rx="4.95" ry="4.95"/><rect width="100" height="100" x="150" y="150" class="cls-3" rx="10" ry="10"/><rect width="100.44" height="100.44" x="299.56" y="300" class="cls-3" rx="10" ry="10"/><rect width="100" height="100" class="cls-3" rx="10" ry="10"/></svg>