<svg xmlns="http://www.w3.org/2000/svg" xmlns:xlink="http://www.w3.org/1999/xlink" id="Layer_1" x="0" y="0" enable-background="new 0 0 490 490" version="1.1" viewBox="0 0 490 490" xml:space="preserve"><style type="text/css">.st0{opacity:.68}.st1{opacity:0;fill:#fff}.st2{opacity:1.960800e-02;fill:#fcfcff}.st3{opacity:3.921600e-02;fill:#f8f9ff}.st4{opacity:5.882400e-02;fill:#f5f6ff}.st5{opacity:7.843100e-02;fill:#f2f4ff}.st6{opacity:9.803900e-02;fill:#eef1ff}.st7{opacity:.1176;fill:#ebeeff}.st8{opacity:.1373;fill:#e7ebff}.st9{opacity:.1569;fill:#e4e8ff}.st10{opacity:.1765;fill:#e1e5ff}.st11{opacity:.1961;fill:#dde2ff}.st12{opacity:.2157;fill:#dae0ff}.st13{opacity:.2353;fill:#d7ddff}.st14{opacity:.2549;fill:#d3daff}.st15{opacity:.2745;fill:#d0d7ff}.st16{opacity:.2941;fill:#ccd4ff}.st17{opacity:.3137;fill:#c9d1ff}.st18{opacity:.3333;fill:#c6ceff}.st19{opacity:.3529;fill:#c2cbff}.st20{opacity:.3725;fill:#bfc9ff}.st21{opacity:.3922;fill:#bcc6ff}.st22{opacity:.4118;fill:#b8c3ff}.st23{opacity:.4314;fill:#b5c0ff}.st24{opacity:.451;fill:#b1bdff}.st25{opacity:.4706;fill:#aebaff}.st26{opacity:.4902;fill:#abb7ff}.st27{opacity:.5098;fill:#a7b5fe}.st28{opacity:.5294;fill:#a4b2fe}.st29{opacity:.549;fill:#a1affe}.st30{opacity:.5686;fill:#9dacfe}.st31{opacity:.5882;fill:#9aa9fe}.st32{opacity:.6078;fill:#96a6fe}.st33{opacity:.6275;fill:#93a3fe}.st34{opacity:.6471;fill:#90a1fe}.st35{opacity:.6667;fill:#8c9efe}.st36{opacity:.6863;fill:#899bfe}.st37{opacity:.7059;fill:#8698fe}.st38{opacity:.7255;fill:#8295fe}.st39{opacity:.7451;fill:#7f92fe}.st40{opacity:.7647;fill:#7b8ffe}.st41{opacity:.7843;fill:#788cfe}.st42{opacity:.8039;fill:#758afe}.st43{opacity:.8235;fill:#7187fe}.st44{opacity:.8431;fill:#6e84fe}.st45{opacity:.8627;fill:#6b81fe}.st46{opacity:.8824;fill:#677efe}.st47{opacity:.902;fill:#647bfe}.st48{opacity:.9216;fill:#6078fe}.st49{opacity:.9412;fill:#5d76fe}.st50{opacity:.9608;fill:#5a73fe}.st51{opacity:.9804;fill:#5670fe}.st52{fill:#536dfe}.st53{fill:url(#XMLID_2_)}.st54{fill:url(#XMLID_3_)}.st55{fill:url(#XMLID_4_)}.st56{fill:url(#XMLID_5_)}.st57{fill:#6134a6}.st58{fill:url(#XMLID_6_)}.st59{fill:url(#XMLID_7_)}.st60{fill:url(#XMLID_8_)}.st61{fill:url(#XMLID_9_)}.st62{fill:url(#XMLID_10_)}.st63{fill:#3c3940}.st64{fill:url(#XMLID_11_)}.st65{fill:#1d073f}.st66{fill:url(#XMLID_13_)}.st67{fill:#48486a}.st68{fill:url(#XMLID_15_)}.st69{clip-path:url(#XMLID_16_);fill:url(#XMLID_17_)}.st70{stroke:url(#XMLID_18_)}.st70,.st71,.st72{fill:none;stroke-miterlimit:10}.st71{opacity:.8;stroke:url(#XMLID_19_)}.st72{opacity:.6;stroke:url(#XMLID_20_)}.st73{fill:url(#XMLID_21_)}.st74{fill:url(#XMLID_22_)}.st75{fill:url(#XMLID_23_)}.st76{fill:url(#XMLID_24_)}.st77{fill:url(#XMLID_25_)}.st78{fill:url(#XMLID_26_)}.st79{fill:url(#XMLID_27_)}.st80{fill:#7e44d8}.st81{fill:url(#XMLID_28_)}.st82{fill:url(#XMLID_29_)}.st83{opacity:.52;fill:#6134a6}.st84{fill:url(#XMLID_30_)}.st85{fill:url(#XMLID_31_)}.st86{fill:url(#XMLID_32_)}.st87{fill:url(#XMLID_33_)}.st88{fill:url(#XMLID_35_)}.st89{clip-path:url(#XMLID_36_);fill:url(#XMLID_37_)}.st90{stroke:url(#XMLID_38_)}.st90,.st91,.st92{fill:none;stroke-miterlimit:10}.st91{opacity:.8;stroke:url(#XMLID_45_)}.st92{opacity:.6;stroke:url(#XMLID_46_)}.st93{fill:url(#SVGID_1_)}.st94{fill:url(#SVGID_2_)}.st95{fill:url(#SVGID_3_)}.st96{fill:url(#SVGID_4_)}.st97{fill:url(#XMLID_47_)}.st98{fill:url(#XMLID_48_)}.st99{fill:url(#XMLID_50_)}.st100{fill:url(#XMLID_51_)}.st101{fill:url(#XMLID_52_)}.st102{fill:url(#XMLID_53_)}.st103{fill:url(#XMLID_54_)}.st104{fill:url(#XMLID_55_)}.st105{fill:url(#XMLID_56_)}.st106{fill:#ffa744}.st107{fill:url(#XMLID_57_)}.st108{fill:url(#XMLID_59_)}.st109{clip-path:url(#XMLID_60_);fill:url(#XMLID_61_)}.st110,.st111{fill:none;stroke:url(#XMLID_63_);stroke-miterlimit:10}.st111{opacity:.8;stroke:url(#XMLID_64_)}.st112{opacity:.6;stroke:url(#XMLID_65_)}.st112,.st113,.st114,.st115,.st116{fill:none;stroke-miterlimit:10}.st113{opacity:.4;stroke:url(#XMLID_66_)}.st114{opacity:.2;stroke:url(#XMLID_67_)}.st115{opacity:.15;stroke:url(#XMLID_68_)}.st116{opacity:.1;stroke:url(#XMLID_69_)}.st117{fill:url(#SVGID_5_)}.st118{fill:url(#SVGID_6_)}.st119{fill:url(#SVGID_7_)}.st120{fill:url(#SVGID_8_)}.st121{fill:url(#XMLID_70_)}.st122{fill:url(#XMLID_71_)}.st123{fill:url(#XMLID_72_)}.st124{fill:url(#XMLID_73_)}.st125{fill:url(#XMLID_74_)}.st126{fill:url(#XMLID_75_)}.st127{fill:url(#XMLID_76_)}.st128{fill:url(#XMLID_77_)}.st129{fill:url(#XMLID_78_)}.st130{fill:url(#XMLID_79_)}</style><g><g><g id="XMLID_1355_"><g class="st0"><path id="XMLID_733_" d="M104.2,229.7c-6.2-3.6-16.3-3.6-22.5,0l-54.6,31.5c-6.2,3.6-6.2,9.4,0,13l54.6,31.5 c6.2,3.6,16.3,3.6,22.5,0l54.6-31.5c6.2-3.6,6.2-9.4,0-13L104.2,229.7z" class="st1"/><path d="M104.2,229.9c-6.2-3.6-16.3-3.6-22.4,0l-54.3,31.4c-6.2,3.6-6.2,9.4,0,12.9l54.3,31.4 c6.2,3.6,16.3,3.6,22.4,0l54.3-31.4c6.2-3.6,6.2-9.4,0-12.9L104.2,229.9z" class="st2"/><path d="M104.1,230.1c-6.1-3.5-16.2-3.5-22.3,0l-54.1,31.2c-6.1,3.5-6.1,9.3,0,12.9l54.1,31.2 c6.1,3.5,16.2,3.5,22.3,0l54.1-31.2c6.1-3.5,6.1-9.3,0-12.9L104.1,230.1z" class="st3"/><path d="M104,230.3c-6.1-3.5-16.1-3.5-22.2,0L28,261.3c-6.1,3.5-6.1,9.3,0,12.8l53.8,31.1c6.1,3.5,16.1,3.5,22.2,0 l53.8-31.1c6.1-3.5,6.1-9.3,0-12.8L104,230.3z" class="st4"/><path d="M104,230.5c-6.1-3.5-16-3.5-22.1,0l-53.5,30.9c-6.1,3.5-6.1,9.3,0,12.8l53.5,30.9c6.1,3.5,16,3.5,22.1,0 l53.5-30.9c6.1-3.5,6.1-9.3,0-12.8L104,230.5z" class="st5"/><path d="M103.9,230.7c-6-3.5-15.9-3.5-22,0l-53.3,30.8c-6,3.5-6,9.2,0,12.7l53.3,30.8c6,3.5,15.9,3.5,22,0 l53.3-30.8c6-3.5,6-9.2,0-12.7L103.9,230.7z" class="st6"/><path d="M103.9,230.8c-6-3.5-15.9-3.5-21.9,0l-53,30.6c-6,3.5-6,9.2,0,12.6l53,30.6c6,3.5,15.9,3.5,21.9,0l53-30.6 c6-3.5,6-9.2,0-12.6L103.9,230.8z" class="st7"/><path d="M103.8,231c-6-3.5-15.8-3.5-21.8,0l-52.8,30.5c-6,3.5-6,9.1,0,12.6l52.8,30.5c6,3.5,15.8,3.5,21.8,0 l52.8-30.5c6-3.5,6-9.1,0-12.6L103.8,231z" class="st8"/><path d="M103.8,231.2c-6-3.4-15.7-3.4-21.7,0l-52.5,30.3c-6,3.4-6,9.1,0,12.5l52.5,30.3c6,3.4,15.7,3.4,21.7,0 l52.5-30.3c6-3.4,6-9.1,0-12.5L103.8,231.2z" class="st9"/><path d="M103.7,231.4c-5.9-3.4-15.6-3.4-21.6,0l-52.2,30.2c-5.9,3.4-5.9,9,0,12.4l52.2,30.2 c5.9,3.4,15.6,3.4,21.6,0L156,274c5.9-3.4,5.9-9,0-12.4L103.7,231.4z" class="st10"/><path d="M103.7,231.6c-5.9-3.4-15.6-3.4-21.5,0l-52,30c-5.9,3.4-5.9,9,0,12.4l52,30c5.9,3.4,15.6,3.4,21.5,0l52-30 c5.9-3.4,5.9-9,0-12.4L103.7,231.6z" class="st11"/><path d="M103.6,231.7c-5.9-3.4-15.5-3.4-21.3,0l-51.7,29.9c-5.9,3.4-5.9,8.9,0,12.3l51.7,29.9 c5.9,3.4,15.5,3.4,21.3,0l51.7-29.9c5.9-3.4,5.9-8.9,0-12.3L103.6,231.7z" class="st12"/><path d="M103.6,231.9c-5.8-3.4-15.4-3.4-21.2,0l-51.4,29.7c-5.8,3.4-5.8,8.9,0,12.3l51.4,29.7 c5.8,3.4,15.4,3.4,21.2,0l51.4-29.7c5.8-3.4,5.8-8.9,0-12.3L103.6,231.9z" class="st13"/><path d="M103.5,232.1c-5.8-3.4-15.3-3.4-21.1,0l-51.2,29.6c-5.8,3.4-5.8,8.8,0,12.2l51.2,29.6 c5.8,3.4,15.3,3.4,21.1,0l51.2-29.6c5.8-3.4,5.8-8.8,0-12.2L103.5,232.1z" class="st14"/><path d="M103.5,232.3c-5.8-3.3-15.2-3.3-21,0l-50.9,29.4c-5.8,3.3-5.8,8.8,0,12.1l50.9,29.4c5.8,3.3,15.2,3.3,21,0 l50.9-29.4c5.8-3.3,5.8-8.8,0-12.1L103.5,232.3z" class="st15"/><path d="M103.4,232.5c-5.8-3.3-15.2-3.3-20.9,0l-50.7,29.2c-5.8,3.3-5.8,8.8,0,12.1L82.5,303 c5.8,3.3,15.2,3.3,20.9,0l50.7-29.2c5.8-3.3,5.8-8.8,0-12.1L103.4,232.5z" class="st16"/><path d="M103.3,232.7c-5.7-3.3-15.1-3.3-20.8,0l-50.4,29.1c-5.7,3.3-5.7,8.7,0,12l50.4,29.1 c5.7,3.3,15.1,3.3,20.8,0l50.4-29.1c5.7-3.3,5.7-8.7,0-12L103.3,232.7z" class="st17"/><path d="M103.3,232.8c-5.7-3.3-15-3.3-20.7,0l-50.1,28.9c-5.7,3.3-5.7,8.7,0,11.9l50.1,28.9c5.7,3.3,15,3.3,20.7,0 l50.1-28.9c5.7-3.3,5.7-8.7,0-11.9L103.3,232.8z" class="st18"/><path d="M103.2,233c-5.7-3.3-14.9-3.3-20.6,0l-49.9,28.8c-5.7,3.3-5.7,8.6,0,11.9l49.9,28.8 c5.7,3.3,14.9,3.3,20.6,0l49.9-28.8c5.7-3.3,5.7-8.6,0-11.9L103.2,233z" class="st19"/><path d="M103.2,233.2c-5.6-3.3-14.8-3.3-20.5,0l-49.6,28.6c-5.6,3.3-5.6,8.6,0,11.8l49.6,28.6 c5.6,3.3,14.8,3.3,20.5,0l49.6-28.6c5.6-3.3,5.6-8.6,0-11.8L103.2,233.2z" class="st20"/><path d="M103.1,233.4c-5.6-3.2-14.8-3.2-20.4,0l-49.3,28.5c-5.6,3.2-5.6,8.5,0,11.8l49.3,28.5 c5.6,3.2,14.8,3.2,20.4,0l49.3-28.5c5.6-3.2,5.6-8.5,0-11.8L103.1,233.4z" class="st21"/><path d="M103.1,233.6c-5.6-3.2-14.7-3.2-20.3,0l-49.1,28.3c-5.6,3.2-5.6,8.5,0,11.7L82.8,302 c5.6,3.2,14.7,3.2,20.3,0l49.1-28.3c5.6-3.2,5.6-8.5,0-11.7L103.1,233.6z" class="st22"/><path d="M103,233.8c-5.5-3.2-14.6-3.2-20.2,0L34,261.9c-5.5,3.2-5.5,8.4,0,11.6l48.8,28.2c5.5,3.2,14.6,3.2,20.2,0 l48.8-28.2c5.5-3.2,5.5-8.4,0-11.6L103,233.8z" class="st23"/><path d="M103,233.9c-5.5-3.2-14.5-3.2-20,0l-48.6,28c-5.5,3.2-5.5,8.4,0,11.6l48.6,28c5.5,3.2,14.5,3.2,20,0 l48.6-28c5.5-3.2,5.5-8.4,0-11.6L103,233.9z" class="st24"/><path d="M102.9,234.1c-5.5-3.2-14.5-3.2-19.9,0L34.7,262c-5.5,3.2-5.5,8.3,0,11.5L83,301.4 c5.5,3.2,14.5,3.2,19.9,0l48.3-27.9c5.5-3.2,5.5-8.3,0-11.5L102.9,234.1z" class="st25"/><path d="M102.9,234.3c-5.5-3.1-14.4-3.1-19.8,0L35,262c-5.5,3.1-5.5,8.3,0,11.4l48,27.7c5.5,3.1,14.4,3.1,19.8,0 l48-27.7c5.5-3.1,5.5-8.3,0-11.4L102.9,234.3z" class="st26"/><path d="M102.8,234.5c-5.4-3.1-14.3-3.1-19.7,0l-47.8,27.6c-5.4,3.1-5.4,8.3,0,11.4L83.1,301 c5.4,3.1,14.3,3.1,19.7,0l47.8-27.6c5.4-3.1,5.4-8.3,0-11.4L102.8,234.5z" class="st27"/><path d="M102.8,234.7c-5.4-3.1-14.2-3.1-19.6,0l-47.5,27.4c-5.4,3.1-5.4,8.2,0,11.3l47.5,27.4 c5.4,3.1,14.2,3.1,19.6,0l47.5-27.4c5.4-3.1,5.4-8.2,0-11.3L102.8,234.7z" class="st28"/><path d="M102.7,234.8c-5.4-3.1-14.1-3.1-19.5,0l-47.3,27.3c-5.4,3.1-5.4,8.2,0,11.3l47.3,27.3 c5.4,3.1,14.1,3.1,19.5,0l47.3-27.3c5.4-3.1,5.4-8.2,0-11.3L102.7,234.8z" class="st29"/><path d="M102.6,235c-5.3-3.1-14.1-3.1-19.4,0l-47,27.1c-5.3,3.1-5.3,8.1,0,11.2l47,27.1c5.3,3.1,14.1,3.1,19.4,0 l47-27.1c5.3-3.1,5.3-8.1,0-11.2L102.6,235z" class="st30"/><path d="M102.6,235.2c-5.3-3.1-14-3.1-19.3,0l-46.7,27c-5.3,3.1-5.3,8.1,0,11.1l46.7,27c5.3,3.1,14,3.1,19.3,0 l46.7-27c5.3-3.1,5.3-8.1,0-11.1L102.6,235.2z" class="st31"/><path d="M102.5,235.4c-5.3-3-13.9-3-19.2,0l-46.5,26.8c-5.3,3-5.3,8,0,11.1l46.5,26.8c5.3,3,13.9,3,19.2,0 l46.5-26.8c5.3-3,5.3-8,0-11.1L102.5,235.4z" class="st32"/><path d="M102.5,235.6c-5.2-3-13.8-3-19.1,0l-46.2,26.7c-5.2,3-5.2,8,0,11l46.2,26.7c5.2,3,13.8,3,19.1,0l46.2-26.7 c5.2-3,5.2-8,0-11L102.5,235.6z" class="st33"/><path d="M102.4,235.8c-5.2-3-13.7-3-19,0l-45.9,26.5c-5.2,3-5.2,7.9,0,10.9l45.9,26.5c5.2,3,13.7,3,19,0l45.9-26.5 c5.2-3,5.2-7.9,0-10.9L102.4,235.8z" class="st34"/><path d="M102.4,235.9c-5.2-3-13.7-3-18.9,0l-45.7,26.4c-5.2,3-5.2,7.9,0,10.9l45.7,26.4c5.2,3,13.7,3,18.9,0 l45.7-26.4c5.2-3,5.2-7.9,0-10.9L102.4,235.9z" class="st35"/><path d="M102.3,236.1c-5.2-3-13.6-3-18.7,0l-45.4,26.2c-5.2,3-5.2,7.8,0,10.8l45.4,26.2c5.2,3,13.6,3,18.7,0 l45.4-26.2c5.2-3,5.2-7.8,0-10.8L102.3,236.1z" class="st36"/><path d="M102.3,236.3c-5.1-3-13.5-3-18.6,0l-45.2,26.1c-5.1,3-5.1,7.8,0,10.8l45.2,26.1c5.1,3,13.5,3,18.6,0 l45.2-26.1c5.1-3,5.1-7.8,0-10.8L102.3,236.3z" class="st37"/><path d="M102.2,236.5c-5.1-2.9-13.4-2.9-18.5,0l-44.9,25.9c-5.1,2.9-5.1,7.8,0,10.7L83.7,299 c5.1,2.9,13.4,2.9,18.5,0l44.9-25.9c5.1-2.9,5.1-7.8,0-10.7L102.2,236.5z" class="st38"/><path d="M102.2,236.7c-5.1-2.9-13.4-2.9-18.4,0l-44.6,25.8c-5.1,2.9-5.1,7.7,0,10.6l44.6,25.8 c5.1,2.9,13.4,2.9,18.4,0l44.6-25.8c5.1-2.9,5.1-7.7,0-10.6L102.2,236.7z" class="st39"/><path d="M102.1,236.9c-5-2.9-13.3-2.9-18.3,0l-44.4,25.6c-5,2.9-5,7.7,0,10.6l44.4,25.6c5,2.9,13.3,2.9,18.3,0 l44.4-25.6c5-2.9,5-7.7,0-10.6L102.1,236.9z" class="st40"/><path d="M102,237c-5-2.9-13.2-2.9-18.2,0l-44.1,25.5c-5,2.9-5,7.6,0,10.5l44.1,25.5c5,2.9,13.2,2.9,18.2,0 l44.1-25.5c5-2.9,5-7.6,0-10.5L102,237z" class="st41"/><path d="M102,237.2c-5-2.9-13.1-2.9-18.1,0L40,262.5c-5,2.9-5,7.6,0,10.4l43.8,25.3c5,2.9,13.1,2.9,18.1,0 l43.8-25.3c5-2.9,5-7.6,0-10.4L102,237.2z" class="st42"/><path d="M101.9,237.4c-4.9-2.9-13-2.9-18,0l-43.6,25.2c-4.9,2.9-4.9,7.5,0,10.4l43.6,25.2c4.9,2.9,13,2.9,18,0 l43.6-25.2c4.9-2.9,4.9-7.5,0-10.4L101.9,237.4z" class="st43"/><path d="M101.9,237.6c-4.9-2.8-13-2.8-17.9,0l-43.3,25c-4.9,2.8-4.9,7.5,0,10.3l43.3,25c4.9,2.8,13,2.8,17.9,0 l43.3-25c4.9-2.8,4.9-7.5,0-10.3L101.9,237.6z" class="st44"/><path d="M101.8,237.8c-4.9-2.8-12.9-2.8-17.8,0L41,262.6c-4.9,2.8-4.9,7.4,0,10.3l43.1,24.9 c4.9,2.8,12.9,2.8,17.8,0l43.1-24.9c4.9-2.8,4.9-7.4,0-10.3L101.8,237.8z" class="st45"/><path d="M101.8,237.9c-4.9-2.8-12.8-2.8-17.7,0l-42.8,24.7c-4.9,2.8-4.9,7.4,0,10.2l42.8,24.7 c4.9,2.8,12.8,2.8,17.7,0l42.8-24.7c4.9-2.8,4.9-7.4,0-10.2L101.8,237.9z" class="st46"/><path d="M101.7,238.1c-4.8-2.8-12.7-2.8-17.6,0l-42.5,24.6c-4.8,2.8-4.8,7.4,0,10.1l42.5,24.6 c4.8,2.8,12.7,2.8,17.6,0l42.5-24.6c4.8-2.8,4.8-7.3,0-10.1L101.7,238.1z" class="st47"/><path d="M101.7,238.3c-4.8-2.8-12.7-2.8-17.5,0l-42.3,24.4c-4.8,2.8-4.8,7.3,0,10.1l42.3,24.4 c4.8,2.8,12.7,2.8,17.5,0l42.3-24.4c4.8-2.8,4.8-7.3,0-10.1L101.7,238.3z" class="st48"/><path d="M101.6,238.5c-4.8-2.8-12.6-2.8-17.3,0l-42,24.3c-4.8,2.8-4.8,7.3,0,10l42,24.3c4.8,2.8,12.6,2.8,17.3,0 l42-24.3c4.8-2.8,4.8-7.3,0-10L101.6,238.5z" class="st49"/><path d="M101.6,238.7c-4.7-2.7-12.5-2.7-17.2,0l-41.8,24.1c-4.7,2.7-4.7,7.2,0,10l41.8,24.1 c4.7,2.7,12.5,2.7,17.2,0l41.8-24.1c4.7-2.7,4.7-7.2,0-10L101.6,238.7z" class="st50"/><path d="M101.5,238.9c-4.7-2.7-12.4-2.7-17.1,0l-41.5,24c-4.7,2.7-4.7,7.2,0,9.9l41.5,24c4.7,2.7,12.4,2.7,17.1,0 l41.5-24c4.7-2.7,4.7-7.2,0-9.9L101.5,238.9z" class="st51"/><path id="XMLID_732_" d="M101.5,239c-4.7-2.7-12.3-2.7-17,0l-41.2,23.8c-4.7,2.7-4.7,7.1,0,9.8l41.2,23.8 c4.7,2.7,12.3,2.7,17,0l41.2-23.8c4.7-2.7,4.7-7.1,0-9.8L101.5,239z" class="st52"/></g><linearGradient id="XMLID_2_" x1="29.942" x2="157.761" y1="189.178" y2="189.178" gradientUnits="userSpaceOnUse"><stop offset="0" stop-color="#B4ACBF"/><stop offset=".456" stop-color="#F0E5FF"/><stop offset=".486" stop-color="#F9F5FF"/><stop offset=".502" stop-color="#FFF"/></linearGradient><path id="XMLID_1524_" d="M91.3,75.6l-61.3,33.9v156.9c0,0.5,0.3,0.9,0.7,1.2l60.7,35.1c1.6,0.9,3.5,0.9,5.1,0 l60.6-35c0.5-0.3,0.8-0.8,0.8-1.3l0-156.8L96.4,75.6C94.8,74.7,92.9,74.7,91.3,75.6z" class="st53"/><linearGradient id="XMLID_3_" x1="29.942" x2="157.761" y1="109.525" y2="109.525" gradientUnits="userSpaceOnUse"><stop offset="0" stop-color="#F0E5FF"/><stop offset="1" stop-color="#FFF"/></linearGradient><path id="XMLID_1523_" d="M91.3,72.6l-60.1,34.7c-1.7,1-1.7,3.4,0,4.4l60.1,34.7c1.6,0.9,3.5,0.9,5.1,0l60.1-34.7 c1.7-1,1.7-3.4,0-4.4L96.4,72.6C94.8,71.7,92.9,71.7,91.3,72.6z" class="st54"/><g id="XMLID_1506_"><linearGradient id="XMLID_4_" x1="35.938" x2="82.768" y1="187.038" y2="187.038" gradientUnits="userSpaceOnUse"><stop offset="0" stop-color="#2F1359"/><stop offset="1" stop-color="#491E8C"/></linearGradient><path id="XMLID_1518_" d="M35.9,127.8v93c0,1.9,1,3.7,2.7,4.7l40.2,23c1.8,1,3.9-0.3,3.9-2.3v-93 c0-1.9-1-3.7-2.7-4.7l-40.2-23C38.1,124.5,35.9,125.8,35.9,127.8z" class="st55"/><linearGradient id="XMLID_5_" x1="60.987" x2="41.428" y1="245.75" y2="123.972" gradientUnits="userSpaceOnUse"><stop offset="0" stop-color="#B4ACBF"/><stop offset=".176" stop-color="#B0A8BB"/><stop offset=".354" stop-color="#A59DAF"/><stop offset=".533" stop-color="#928B9B"/><stop offset=".712" stop-color="#77717E"/><stop offset=".891" stop-color="#55515A"/><stop offset="1" stop-color="#3C3940"/></linearGradient><path id="XMLID_1517_" d="M81,247.3l-40.2-23c-1.7-1-2.7-2.8-2.7-4.7v-93c0-0.5,0.1-1,0.4-1.3 c-1.3,0.1-2.5,1.1-2.5,2.6v93c0,1.9,1,3.7,2.7,4.7l40.2,23c1.3,0.8,2.9,0.2,3.6-0.9C81.9,247.6,81.4,247.5,81,247.3z" class="st56"/><polygon id="XMLID_1516_" points="41.7 129.7 41.7 222.7 43.1 223.5 43.1 130.5" class="st57"/><polygon id="XMLID_1515_" points="50.2 134.6 50.2 227.6 51.6 228.4 51.6 135.4" class="st57"/><polygon id="XMLID_1514_" points="58.7 139.6 58.7 232.5 60 233.4 60 140.4" class="st57"/><linearGradient id="XMLID_6_" x1="57.716" x2="61.431" y1="182.532" y2="182.532" gradientUnits="userSpaceOnUse"><stop offset="0" stop-color="#FFA744"/><stop offset=".163" stop-color="#FFA948"/><stop offset=".333" stop-color="#FFAF55"/><stop offset=".505" stop-color="#FFB969"/><stop offset=".679" stop-color="#FFC786"/><stop offset=".853" stop-color="#FFD9AB"/><stop offset="1" stop-color="#FFEBD1"/></linearGradient><path id="XMLID_1513_" d="M57.7,190v-16.2c0-0.8,0.9-1.3,1.5-0.9l1.5,0.9c0.4,0.2,0.7,0.7,0.7,1.2v16.2 c0,0.8-0.9,1.3-1.5,0.9l-1.5-0.9C58,191,57.7,190.5,57.7,190z" class="st58"/><linearGradient id="XMLID_7_" x1="49.234" x2="52.948" y1="160.769" y2="160.769" gradientUnits="userSpaceOnUse"><stop offset="0" stop-color="#FFA744"/><stop offset=".163" stop-color="#FFA948"/><stop offset=".333" stop-color="#FFAF55"/><stop offset=".505" stop-color="#FFB969"/><stop offset=".679" stop-color="#FFC786"/><stop offset=".853" stop-color="#FFD9AB"/><stop offset="1" stop-color="#FFEBD1"/></linearGradient><path id="XMLID_1512_" d="M49.2,168.3v-16.2c0-0.8,0.9-1.3,1.5-0.9l1.5,0.9c0.4,0.2,0.7,0.7,0.7,1.2v16.2 c0,0.8-0.9,1.3-1.5,0.9l-1.5-0.9C49.5,169.2,49.2,168.7,49.2,168.3z" class="st59"/><linearGradient id="XMLID_8_" x1="40.877" x2="44.591" y1="190.795" y2="190.795" gradientUnits="userSpaceOnUse"><stop offset="0" stop-color="#FFA744"/><stop offset=".163" stop-color="#FFA948"/><stop offset=".333" stop-color="#FFAF55"/><stop offset=".505" stop-color="#FFB969"/><stop offset=".679" stop-color="#FFC786"/><stop offset=".853" stop-color="#FFD9AB"/><stop offset="1" stop-color="#FFEBD1"/></linearGradient><path id="XMLID_1511_" d="M40.9,198.3v-16.2c0-0.8,0.9-1.3,1.5-0.9l1.5,0.9c0.4,0.2,0.7,0.7,0.7,1.2v16.2 c0,0.8-0.9,1.3-1.5,0.9l-1.5-0.9C41.1,199.2,40.9,198.8,40.9,198.3z" class="st60"/><polygon id="XMLID_1510_" points="67.1 144.5 67.1 237.5 68.5 238.3 68.5 145.3" class="st57"/><polygon id="XMLID_1509_" points="75.6 149.4 75.6 242.4 77 243.2 77 150.3" class="st57"/><linearGradient id="XMLID_9_" x1="65.955" x2="69.669" y1="206.018" y2="206.018" gradientUnits="userSpaceOnUse"><stop offset="0" stop-color="#FFA744"/><stop offset=".163" stop-color="#FFA948"/><stop offset=".333" stop-color="#FFAF55"/><stop offset=".505" stop-color="#FFB969"/><stop offset=".679" stop-color="#FFC786"/><stop offset=".853" stop-color="#FFD9AB"/><stop offset="1" stop-color="#FFEBD1"/></linearGradient><path id="XMLID_1508_" d="M66,213.5v-16.2c0-0.8,0.9-1.3,1.5-0.9l1.5,0.9c0.4,0.2,0.7,0.7,0.7,1.2v16.2 c0,0.8-0.9,1.3-1.5,0.9l-1.5-0.9C66.2,214.4,66,214,66,213.5z" class="st61"/><linearGradient id="XMLID_10_" x1="74.414" x2="78.128" y1="170.608" y2="170.608" gradientUnits="userSpaceOnUse"><stop offset="0" stop-color="#FFA744"/><stop offset=".163" stop-color="#FFA948"/><stop offset=".333" stop-color="#FFAF55"/><stop offset=".505" stop-color="#FFB969"/><stop offset=".679" stop-color="#FFC786"/><stop offset=".853" stop-color="#FFD9AB"/><stop offset="1" stop-color="#FFEBD1"/></linearGradient><path id="XMLID_1507_" d="M74.4,178.1v-16.2c0-0.8,0.9-1.3,1.5-0.9l1.5,0.9c0.4,0.2,0.7,0.7,0.7,1.2v16.2 c0,0.8-0.9,1.3-1.5,0.9l-1.5-0.9C74.7,179,74.4,178.6,74.4,178.1z" class="st62"/></g><polygon id="XMLID_1430_" points="100.1 154.7 109.6 149.3 109.6 152 100.1 157.5" class="st63"/><polygon id="XMLID_1429_" points="100.1 159.5 109.6 154.1 109.6 156.8 100.1 162.3" class="st63"/><g><linearGradient id="XMLID_11_" x1="42.761" x2="144.943" y1="109.525" y2="109.525" gradientUnits="userSpaceOnUse"><stop offset="0" stop-color="#2F1359"/><stop offset="1" stop-color="#491E8C"/></linearGradient><path id="XMLID_1522_" d="M91.8,80l-48,27.7c-1.4,0.8-1.4,2.7,0,3.5l48,27.7c1.3,0.7,2.8,0.7,4.1,0l48-27.7 c1.4-0.8,1.4-2.7,0-3.5L95.9,80C94.6,79.3,93.1,79.3,91.8,80z" class="st64"/><path id="XMLID_1521_" d="M143.9,110.1l-48,27.7c-1.3,0.7-2.8,0.7-4.1,0l-48-27.7c-0.5-0.3-0.8-0.7-0.9-1.2 c-0.3,0.9,0,1.9,0.9,2.4l48,27.7c1.3,0.7,2.8,0.7,4.1,0l48-27.7c0.9-0.5,1.2-1.5,0.9-2.4C144.7,109.4,144.4,109.8,143.9,110.1z" class="st65"/><linearGradient id="XMLID_13_" x1="54.621" x2="133.083" y1="109.028" y2="109.028" gradientUnits="userSpaceOnUse"><stop offset=".15" stop-color="#FF9800"/><stop offset="1" stop-color="#FFC107"/></linearGradient><path id="XMLID_1520_" d="M92.3,86.4l-36.9,21.3c-1,0.6-1,2.1,0,2.7l36.9,21.3c1,0.6,2.2,0.6,3.2,0l36.9-21.3 c1-0.6,1-2.1,0-2.7L95.4,86.4C94.5,85.8,93.3,85.8,92.3,86.4z" class="st66"/><path id="XMLID_1519_" d="M55.4,109.1l36.9-21.3c1-0.6,2.2-0.6,3.2,0l36.9,21.3c0.3,0.2,0.5,0.4,0.6,0.6 c0.4-0.7,0.2-1.6-0.6-2.1L95.4,86.4c-1-0.6-2.2-0.6-3.2,0l-36.9,21.3c-0.8,0.4-1,1.4-0.6,2.1C54.9,109.5,55.1,109.3,55.4,109.1z" class="st67"/><g id="XMLID_1431_"><path id="XMLID_1505_" d="M92.3,86.4l-36.9,21.3c-1,0.6-1,2.1,0,2.7l36.9,21.3c1,0.6,2.2,0.6,3.2,0l36.9-21.3 c1-0.6,1-2.1,0-2.7L95.4,86.4C94.5,85.8,93.3,85.8,92.3,86.4z" class="st65"/><g id="XMLID_837_"><linearGradient id="XMLID_15_" x1="93.857" x2="93.857" y1="132.089" y2="24.755" gradientUnits="userSpaceOnUse"><stop offset="0" stop-color="#FFA744" stop-opacity=".7"/><stop offset=".047" stop-color="#FDAE59" stop-opacity=".667"/><stop offset=".161" stop-color="#FABC85" stop-opacity=".587"/><stop offset=".28" stop-color="#F7C9AA" stop-opacity=".504"/><stop offset=".403" stop-color="#F4D3C9" stop-opacity=".418"/><stop offset=".531" stop-color="#F2DBE1" stop-opacity=".328"/><stop offset=".667" stop-color="#F1E1F2" stop-opacity=".233"/><stop offset=".815" stop-color="#F0E4FC" stop-opacity=".129"/><stop offset="1" stop-color="#F0E5FF" stop-opacity="0"/></linearGradient><path id="XMLID_839_" d="M54.6,24.8c0,0,0,83.7,0,84.3c0,0.5,0.3,1,0.8,1.3l36.9,21.3c1,0.6,2.2,0.6,3.2,0 l36.9-21.3c0.5-0.3,0.7-0.8,0.8-1.3c0-0.6,0-84.4,0-84.4H54.6z" class="st68"/></g><g><defs><path id="XMLID_845_" d="M92.3,86.4l-36.9,21.3c-1,0.6-1,2.1,0,2.7l36.9,21.3c1,0.6,2.2,0.6,3.2,0l36.9-21.3 c1-0.6,1-2.1,0-2.7L95.4,86.4C94.5,85.8,93.3,85.8,92.3,86.4z"/></defs><clipPath id="XMLID_16_"><use overflow="visible" xlink:href="#XMLID_845_"/></clipPath><radialGradient id="XMLID_17_" cx="93.852" cy="111.065" r="32.178" gradientUnits="userSpaceOnUse"><stop offset="0" stop-color="#FFF"/><stop offset="1" stop-color="#FFA744"/></radialGradient><path id="XMLID_844_" d="M92.3,88.4l-36.9,21.3c-1,0.6-1,2.1,0,2.7l36.9,21.3c1,0.6,2.2,0.6,3.2,0l36.9-21.3 c1-0.6,1-2.1,0-2.7L95.4,88.4C94.5,87.9,93.3,87.9,92.3,88.4z" class="st69"/></g></g><g><linearGradient id="XMLID_18_" x1="93.852" x2="93.852" y1="111.859" y2="86.515" gradientUnits="userSpaceOnUse"><stop offset="0" stop-color="#FFF" stop-opacity=".7"/><stop offset="1" stop-color="#F0E5FF" stop-opacity="0"/></linearGradient><path id="XMLID_851_" d="M55.4,86.9c-1,0.6-1,2.1,0,2.7l36.9,21.3c1,0.6,2.2,0.6,3.2,0l36.9-21.3 c1-0.6,1-2.1,0-2.7" class="st70"/><linearGradient id="XMLID_19_" x1="93.852" x2="93.852" y1="91.128" y2="65.784" gradientUnits="userSpaceOnUse"><stop offset="0" stop-color="#FFF" stop-opacity=".7"/><stop offset="1" stop-color="#F0E5FF" stop-opacity="0"/></linearGradient><path id="XMLID_849_" d="M55.4,66.2c-1,0.6-1,2.1,0,2.7l36.9,21.3c1,0.6,2.2,0.6,3.2,0l36.9-21.3 c1-0.6,1-2.1,0-2.7" class="st71"/><linearGradient id="XMLID_20_" x1="93.852" x2="93.852" y1="70.397" y2="45.053" gradientUnits="userSpaceOnUse"><stop offset="0" stop-color="#FFF" stop-opacity=".7"/><stop offset="1" stop-color="#F0E5FF" stop-opacity="0"/></linearGradient><path id="XMLID_852_" d="M55.4,45.5c-1,0.6-1,2.1,0,2.7l36.9,21.3c1,0.6,2.2,0.6,3.2,0l36.9-21.3 c1-0.6,1-2.1,0-2.7" class="st72"/></g></g></g><g id="XMLID_1159_"><g class="st0"><path id="XMLID_735_" d="M416.4,210.7c-7.7-4.4-20.3-4.4-28,0l-67.7,39.1c-7.7,4.4-7.7,11.7,0,16.1l67.7,39.1 c7.7,4.4,20.3,4.4,28,0l67.7-39.1c7.7-4.4,7.7-11.7,0-16.1L416.4,210.7z" class="st1"/><path d="M416.4,210.9c-7.7-4.4-20.2-4.4-27.8,0l-67.4,38.9c-7.7,4.4-7.7,11.6,0,16.1l67.4,38.9 c7.7,4.4,20.2,4.4,27.8,0l67.4-38.9c7.7-4.4,7.7-11.6,0-16.1L416.4,210.9z" class="st2"/><path d="M416.3,211.1c-7.6-4.4-20.1-4.4-27.7,0l-67.1,38.7c-7.6,4.4-7.6,11.6,0,16l67.1,38.7 c7.6,4.4,20.1,4.4,27.7,0l67.1-38.7c7.6-4.4,7.6-11.6,0-16L416.3,211.1z" class="st3"/><path d="M416.2,211.4c-7.6-4.4-20-4.4-27.6,0l-66.8,38.6c-7.6,4.4-7.6,11.5,0,15.9l66.8,38.6c7.6,4.4,20,4.4,27.6,0 l66.8-38.6c7.6-4.4,7.6-11.5,0-15.9L416.2,211.4z" class="st4"/><path d="M416.2,211.6c-7.5-4.4-19.9-4.4-27.4,0L322.3,250c-7.5,4.4-7.5,11.5,0,15.8l66.4,38.4 c7.5,4.4,19.9,4.4,27.4,0l66.4-38.4c7.5-4.4,7.5-11.5,0-15.8L416.2,211.6z" class="st5"/><path d="M416.1,211.8c-7.5-4.3-19.8-4.3-27.3,0L322.7,250c-7.5,4.3-7.5,11.4,0,15.8l66.1,38.2 c7.5,4.3,19.8,4.3,27.3,0l66.1-38.2c7.5-4.3,7.5-11.4,0-15.8L416.1,211.8z" class="st6"/><path d="M416,212c-7.5-4.3-19.7-4.3-27.2,0l-65.8,38c-7.5,4.3-7.5,11.4,0,15.7l65.8,38c7.5,4.3,19.7,4.3,27.2,0 l65.8-38c7.5-4.3,7.5-11.4,0-15.7L416,212z" class="st7"/><path d="M416,212.3c-7.4-4.3-19.6-4.3-27,0l-65.5,37.8c-7.4,4.3-7.4,11.3,0,15.6l65.5,37.8c7.4,4.3,19.6,4.3,27,0 l65.5-37.8c7.4-4.3,7.4-11.3,0-15.6L416,212.3z" class="st8"/><path d="M415.9,212.5c-7.4-4.3-19.5-4.3-26.9,0l-65.1,37.6c-7.4,4.3-7.4,11.3,0,15.5l65.1,37.6 c7.4,4.3,19.5,4.3,26.9,0l65.1-37.6c7.4-4.3,7.4-11.3,0-15.5L415.9,212.5z" class="st9"/><path d="M415.8,212.7c-7.4-4.2-19.4-4.2-26.8,0l-64.8,37.4c-7.4,4.2-7.4,11.2,0,15.4l64.8,37.4 c7.4,4.2,19.4,4.2,26.8,0l64.8-37.4c7.4-4.2,7.4-11.2,0-15.4L415.8,212.7z" class="st10"/><path d="M415.8,212.9c-7.3-4.2-19.3-4.2-26.6,0l-64.5,37.2c-7.3,4.2-7.3,11.1,0,15.4l64.5,37.2 c7.3,4.2,19.3,4.2,26.6,0l64.5-37.2c7.3-4.2,7.3-11.1,0-15.4L415.8,212.9z" class="st11"/><path d="M415.7,213.2c-7.3-4.2-19.2-4.2-26.5,0L325,250.2c-7.3,4.2-7.3,11.1,0,15.3l64.2,37.1 c7.3,4.2,19.2,4.2,26.5,0l64.2-37.1c7.3-4.2,7.3-11.1,0-15.3L415.7,213.2z" class="st12"/><path d="M415.6,213.4c-7.2-4.2-19.1-4.2-26.4,0l-63.8,36.9c-7.2,4.2-7.2,11,0,15.2l63.8,36.9 c7.2,4.2,19.1,4.2,26.4,0l63.8-36.9c7.2-4.2,7.2-11,0-15.2L415.6,213.4z" class="st13"/><path d="M415.6,213.6c-7.2-4.2-19-4.2-26.2,0l-63.5,36.7c-7.2,4.2-7.2,11,0,15.1l63.5,36.7c7.2,4.2,19,4.2,26.2,0 l63.5-36.7c7.2-4.2,7.2-11,0-15.1L415.6,213.6z" class="st14"/><path d="M415.5,213.9c-7.2-4.1-18.9-4.1-26.1,0l-63.2,36.5c-7.2,4.1-7.2,10.9,0,15.1l63.2,36.5 c7.2,4.1,18.9,4.1,26.1,0l63.2-36.5c7.2-4.1,7.2-10.9,0-15.1L415.5,213.9z" class="st15"/><path d="M415.4,214.1c-7.1-4.1-18.8-4.1-26,0l-62.9,36.3c-7.1,4.1-7.1,10.9,0,15l62.9,36.3c7.1,4.1,18.8,4.1,26,0 l62.9-36.3c7.1-4.1,7.1-10.9,0-15L415.4,214.1z" class="st16"/><path d="M415.4,214.3c-7.1-4.1-18.7-4.1-25.8,0L327,250.4c-7.1,4.1-7.1,10.8,0,14.9l62.5,36.1 c7.1,4.1,18.7,4.1,25.8,0l62.5-36.1c7.1-4.1,7.1-10.8,0-14.9L415.4,214.3z" class="st17"/><path d="M415.3,214.5c-7.1-4.1-18.6-4.1-25.7,0l-62.2,35.9c-7.1,4.1-7.1,10.8,0,14.8l62.2,35.9 c7.1,4.1,18.6,4.1,25.7,0l62.2-35.9c7.1-4.1,7.1-10.8,0-14.8L415.3,214.5z" class="st18"/><path d="M415.2,214.8c-7-4.1-18.5-4.1-25.6,0l-61.9,35.7c-7,4.1-7,10.7,0,14.8l61.9,35.7c7,4.1,18.5,4.1,25.6,0 l61.9-35.7c7-4.1,7-10.7,0-14.8L415.2,214.8z" class="st19"/><path d="M415.2,215c-7-4-18.4-4-25.4,0l-61.6,35.5c-7,4-7,10.6,0,14.7l61.6,35.6c7,4,18.4,4,25.4,0l61.6-35.6 c7-4,7-10.6,0-14.7L415.2,215z" class="st20"/><path d="M415.1,215.2c-7-4-18.3-4-25.3,0l-61.2,35.4c-7,4-7,10.6,0,14.6l61.2,35.4c7,4,18.3,4,25.3,0l61.2-35.4 c7-4,7-10.6,0-14.6L415.1,215.2z" class="st21"/><path d="M415,215.4c-6.9-4-18.2-4-25.1,0L329,250.6c-6.9,4-6.9,10.5,0,14.5l60.9,35.2c6.9,4,18.2,4,25.1,0 l60.9-35.2c6.9-4,6.9-10.5,0-14.5L415,215.4z" class="st22"/><path d="M415,215.7c-6.9-4-18.1-4-25,0l-60.6,35c-6.9,4-6.9,10.5,0,14.4l60.6,35c6.9,4,18.1,4,25,0l60.6-35 c6.9-4,6.9-10.5,0-14.4L415,215.7z" class="st23"/><path d="M414.9,215.9c-6.8-3.9-18-3.9-24.9,0l-60.3,34.8c-6.8,3.9-6.8,10.4,0,14.4l60.3,34.8 c6.8,3.9,18,3.9,24.9,0l60.3-34.8c6.8-3.9,6.8-10.4,0-14.4L414.9,215.9z" class="st24"/><path d="M414.8,216.1c-6.8-3.9-17.9-3.9-24.7,0l-59.9,34.6c-6.8,3.9-6.8,10.4,0,14.3l59.9,34.6 c6.8,3.9,17.9,3.9,24.7,0l59.9-34.6c6.8-3.9,6.8-10.4,0-14.3L414.8,216.1z" class="st25"/><path d="M414.8,216.3c-6.8-3.9-17.8-3.9-24.6,0l-59.6,34.4c-6.8,3.9-6.8,10.3,0,14.2l59.6,34.4 c6.8,3.9,17.8,3.9,24.6,0l59.6-34.4c6.8-3.9,6.8-10.3,0-14.2L414.8,216.3z" class="st26"/><path d="M414.7,216.6c-6.7-3.9-17.7-3.9-24.5,0l-59.3,34.2c-6.7,3.9-6.7,10.2,0,14.1l59.3,34.2 c6.7,3.9,17.7,3.9,24.5,0l59.3-34.2c6.7-3.9,6.7-10.2,0-14.1L414.7,216.6z" class="st27"/><path d="M414.6,216.8c-6.7-3.9-17.6-3.9-24.3,0l-59,34c-6.7,3.9-6.7,10.2,0,14.1l59,34c6.7,3.9,17.6,3.9,24.3,0 l59-34c6.7-3.9,6.7-10.2,0-14.1L414.6,216.8z" class="st28"/><path d="M414.6,217c-6.7-3.8-17.6-3.8-24.2,0l-58.6,33.9c-6.7,3.8-6.7,10.1,0,14l58.6,33.9 c6.7,3.8,17.6,3.8,24.2,0l58.6-33.9c6.7-3.8,6.7-10.1,0-14L414.6,217z" class="st29"/><path d="M414.5,217.2c-6.6-3.8-17.5-3.8-24.1,0l-58.3,33.7c-6.6,3.8-6.6,10.1,0,13.9l58.3,33.7 c6.6,3.8,17.5,3.8,24.1,0l58.3-33.7c6.6-3.8,6.6-10.1,0-13.9L414.5,217.2z" class="st30"/><path d="M414.4,217.5c-6.6-3.8-17.4-3.8-23.9,0l-58,33.5c-6.6,3.8-6.6,10,0,13.8l58,33.5c6.6,3.8,17.4,3.8,23.9,0 l58-33.5c6.6-3.8,6.6-10,0-13.8L414.4,217.5z" class="st31"/><path d="M414.4,217.7c-6.5-3.8-17.3-3.8-23.8,0L332.9,251c-6.5,3.8-6.5,10,0,13.7l57.7,33.3 c6.5,3.8,17.3,3.8,23.8,0l57.7-33.3c6.5-3.8,6.5-10,0-13.7L414.4,217.7z" class="st32"/><path d="M414.3,217.9c-6.5-3.8-17.2-3.8-23.7,0L333.3,251c-6.5,3.8-6.5,9.9,0,13.7l57.3,33.1 c6.5,3.8,17.2,3.8,23.7,0l57.3-33.1c6.5-3.8,6.5-9.9,0-13.7L414.3,217.9z" class="st33"/><path d="M414.2,218.2c-6.5-3.7-17.1-3.7-23.5,0l-57,32.9c-6.5,3.7-6.5,9.9,0,13.6l57,32.9c6.5,3.7,17.1,3.7,23.5,0 l57-32.9c6.5-3.7,6.5-9.9,0-13.6L414.2,218.2z" class="st34"/><path d="M414.2,218.4c-6.4-3.7-17-3.7-23.4,0l-56.7,32.7c-6.4,3.7-6.4,9.8,0,13.5l56.7,32.7c6.4,3.7,17,3.7,23.4,0 l56.7-32.7c6.4-3.7,6.4-9.8,0-13.5L414.2,218.4z" class="st35"/><path d="M414.1,218.6c-6.4-3.7-16.9-3.7-23.3,0l-56.4,32.5c-6.4,3.7-6.4,9.7,0,13.4l56.4,32.5 c6.4,3.7,16.9,3.7,23.3,0l56.4-32.5c6.4-3.7,6.4-9.7,0-13.4L414.1,218.6z" class="st36"/><path d="M414,218.8c-6.4-3.7-16.8-3.7-23.1,0l-56,32.4c-6.4,3.7-6.4,9.7,0,13.4l56,32.4c6.4,3.7,16.8,3.7,23.1,0 l56-32.4c6.4-3.7,6.4-9.7,0-13.4L414,218.8z" class="st37"/><path d="M414,219.1c-6.3-3.7-16.7-3.7-23,0l-55.7,32.2c-6.3,3.7-6.3,9.6,0,13.3l55.7,32.2c6.3,3.7,16.7,3.7,23,0 l55.7-32.2c6.3-3.7,6.3-9.6,0-13.3L414,219.1z" class="st38"/><path d="M413.9,219.3c-6.3-3.6-16.6-3.6-22.9,0l-55.4,32c-6.3,3.6-6.3,9.6,0,13.2l55.4,32c6.3,3.6,16.6,3.6,22.9,0 l55.4-32c6.3-3.6,6.3-9.6,0-13.2L413.9,219.3z" class="st39"/><path d="M413.8,219.5c-6.3-3.6-16.5-3.6-22.7,0L336,251.3c-6.3,3.6-6.3,9.5,0,13.1l55.1,31.8 c6.3,3.6,16.5,3.6,22.7,0l55.1-31.8c6.3-3.6,6.3-9.5,0-13.1L413.8,219.5z" class="st40"/><path d="M413.8,219.7c-6.2-3.6-16.4-3.6-22.6,0l-54.7,31.6c-6.2,3.6-6.2,9.5,0,13l54.7,31.6 c6.2,3.6,16.4,3.6,22.6,0l54.7-31.6c6.2-3.6,6.2-9.5,0-13L413.8,219.7z" class="st41"/><path d="M413.7,220c-6.2-3.6-16.3-3.6-22.5,0l-54.4,31.4c-6.2,3.6-6.2,9.4,0,13l54.4,31.4c6.2,3.6,16.3,3.6,22.5,0 l54.4-31.4c6.2-3.6,6.2-9.4,0-13L413.7,220z" class="st42"/><path d="M413.6,220.2c-6.1-3.5-16.2-3.5-22.3,0l-54.1,31.2c-6.1,3.5-6.1,9.3,0,12.9l54.1,31.2 c6.1,3.5,16.2,3.5,22.3,0l54.1-31.2c6.1-3.5,6.1-9.3,0-12.9L413.6,220.2z" class="st43"/><path d="M413.6,220.4c-6.1-3.5-16.1-3.5-22.2,0l-53.8,31c-6.1,3.5-6.1,9.3,0,12.8l53.8,31c6.1,3.5,16.1,3.5,22.2,0 l53.8-31c6.1-3.5,6.1-9.3,0-12.8L413.6,220.4z" class="st44"/><path d="M413.5,220.6c-6.1-3.5-16-3.5-22.1,0L338,251.5c-6.1,3.5-6.1,9.2,0,12.7l53.4,30.9c6.1,3.5,16,3.5,22.1,0 l53.4-30.9c6.1-3.5,6.1-9.2,0-12.7L413.5,220.6z" class="st45"/><path d="M413.4,220.9c-6-3.5-15.9-3.5-21.9,0l-53.1,30.7c-6,3.5-6,9.2,0,12.7l53.1,30.7c6,3.5,15.9,3.5,21.9,0 l53.1-30.7c6-3.5,6-9.2,0-12.7L413.4,220.9z" class="st46"/><path d="M413.4,221.1c-6-3.5-15.8-3.5-21.8,0l-52.8,30.5c-6,3.5-6,9.1,0,12.6l52.8,30.5c6,3.5,15.8,3.5,21.8,0 l52.8-30.5c6-3.5,6-9.1,0-12.6L413.4,221.1z" class="st47"/><path d="M413.3,221.3c-6-3.4-15.7-3.4-21.7,0l-52.5,30.3c-6,3.4-6,9.1,0,12.5l52.5,30.3c6,3.4,15.7,3.4,21.7,0 l52.5-30.3c6-3.4,6-9.1,0-12.5L413.3,221.3z" class="st48"/><path d="M413.2,221.6c-5.9-3.4-15.6-3.4-21.5,0l-52.1,30.1c-5.9,3.4-5.9,9,0,12.4l52.1,30.1 c5.9,3.4,15.6,3.4,21.5,0l52.1-30.1c5.9-3.4,5.9-9,0-12.4L413.2,221.6z" class="st49"/><path d="M413.1,221.8c-5.9-3.4-15.5-3.4-21.4,0l-51.8,29.9c-5.9,3.4-5.9,9,0,12.4l51.8,29.9 c5.9,3.4,15.5,3.4,21.4,0L465,264c5.9-3.4,5.9-9,0-12.4L413.1,221.8z" class="st50"/><path d="M413.1,222c-5.8-3.4-15.4-3.4-21.3,0l-51.5,29.7c-5.8,3.4-5.8,8.9,0,12.3l51.5,29.7 c5.8,3.4,15.4,3.4,21.3,0l51.5-29.7c5.8-3.4,5.8-8.9,0-12.3L413.1,222z" class="st51"/><path id="XMLID_734_" d="M413,222.2c-5.8-3.4-15.3-3.4-21.1,0l-51.2,29.5c-5.8,3.4-5.8,8.8,0,12.2l51.2,29.5 c5.8,3.4,15.3,3.4,21.1,0l51.2-29.5c5.8-3.4,5.8-8.8,0-12.2L413,222.2z" class="st52"/></g><linearGradient id="XMLID_21_" x1="323.234" x2="481.675" y1="185.71" y2="185.71" gradientUnits="userSpaceOnUse"><stop offset="0" stop-color="#B4ACBF"/><stop offset=".456" stop-color="#F0E5FF"/><stop offset=".486" stop-color="#F9F5FF"/><stop offset=".502" stop-color="#FFF"/></linearGradient><path id="XMLID_1323_" d="M399.3,69.8l-76,42v144.9c0,0.6,0.3,1.2,0.8,1.5l75.2,43.5c2,1.1,4.4,1.1,6.4,0l75.1-43.4 c0.6-0.3,1-1,1-1.7V111.8l-76-42C403.7,68.7,401.2,68.7,399.3,69.8z" class="st73"/><linearGradient id="XMLID_22_" x1="323.234" x2="481.675" y1="111.802" y2="111.802" gradientUnits="userSpaceOnUse"><stop offset="0" stop-color="#F0E5FF"/><stop offset="1" stop-color="#FFF"/></linearGradient><path id="XMLID_1322_" d="M399.3,66.1l-74.5,43c-2.1,1.2-2.1,4.2,0,5.4l74.5,43c2,1.1,4.4,1.1,6.4,0l74.5-43 c2.1-1.2,2.1-4.2,0-5.4l-74.5-43C403.7,64.9,401.2,64.9,399.3,66.1z" class="st74"/><polygon id="XMLID_1265_" points="343 137.5 331.3 130.7 331.3 134.1 343 140.9" class="st63"/><polygon id="XMLID_1264_" points="343 143.4 331.3 136.7 331.3 140.1 343 146.8" class="st63"/><polygon id="XMLID_1263_" points="343 149.4 331.3 142.7 331.3 146.1 343 152.8" class="st63"/><polygon id="XMLID_1262_" points="343 155.5 331.3 148.7 331.3 152.1 343 158.9" class="st63"/><polygon id="XMLID_1261_" points="343 161.5 331.3 154.7 331.3 158.1 343 164.9" class="st63"/><polygon id="XMLID_1260_" points="343 167.5 331.3 160.7 331.3 164.1 343 170.9" class="st63"/><g><linearGradient id="XMLID_23_" x1="410.411" x2="474.278" y1="171.976" y2="171.976" gradientUnits="userSpaceOnUse"><stop offset="0" stop-color="#2F1359"/><stop offset="1" stop-color="#491E8C"/></linearGradient><path id="XMLID_1259_" d="M412.9,166.9l56.1-32.4c2.3-1.4,5.3,0.3,5.3,3v35.3c0,1.8-0.9,3.4-2.5,4.3l-56.1,32.4 c-2.3,1.4-5.3-0.3-5.3-3v-35.3C410.4,169.4,411.4,167.7,412.9,166.9z" class="st75"/><linearGradient id="XMLID_24_" x1="410.86" x2="474.278" y1="171.976" y2="171.976" gradientUnits="userSpaceOnUse"><stop offset="0" stop-color="#78727F"/><stop offset=".278" stop-color="#847E8C"/><stop offset=".796" stop-color="#A59EAF"/><stop offset="1" stop-color="#B4ACBF"/></linearGradient><path id="XMLID_1258_" d="M470.8,134c0.3,0.5,0.4,1.1,0.4,1.7V171c0,1.8-0.9,3.4-2.5,4.3l-56.1,32.4 c-0.6,0.3-1.2,0.5-1.8,0.5c0.9,1.6,3,2.4,4.8,1.3l56.1-32.4c1.5-0.9,2.5-2.5,2.5-4.3v-35.3C474.3,135.5,472.6,134,470.8,134z" class="st76"/><linearGradient id="XMLID_25_" x1="410.411" x2="474.278" y1="227.27" y2="227.27" gradientUnits="userSpaceOnUse"><stop offset="0" stop-color="#2F1359"/><stop offset="1" stop-color="#491E8C"/></linearGradient><path id="XMLID_1257_" d="M412.9,222.2l56.1-32.4c2.3-1.4,5.3,0.3,5.3,3v35.3c0,1.8-0.9,3.4-2.5,4.3l-56.1,32.4 c-2.3,1.4-5.3-0.3-5.3-3v-35.3C410.4,224.7,411.4,223,412.9,222.2z" class="st77"/><linearGradient id="XMLID_26_" x1="410.86" x2="474.278" y1="227.27" y2="227.27" gradientUnits="userSpaceOnUse"><stop offset="0" stop-color="#78727F"/><stop offset=".278" stop-color="#847E8C"/><stop offset=".796" stop-color="#A59EAF"/><stop offset="1" stop-color="#B4ACBF"/></linearGradient><path id="XMLID_1256_" d="M470.8,189.3c0.3,0.5,0.4,1.1,0.4,1.7v35.3c0,1.8-0.9,3.4-2.5,4.3L412.7,263 c-0.6,0.3-1.2,0.5-1.8,0.5c0.9,1.6,3,2.4,4.8,1.3l56.1-32.4c1.5-0.9,2.5-2.5,2.5-4.3v-35.3C474.3,190.8,472.6,189.3,470.8,189.3 z" class="st78"/><path id="XMLID_1255_" d="M452.6,152.2c5.6-3.2,10.2-0.6,10.2,5.9c0,6.5-4.6,14.5-10.2,17.7 c-5.6,3.2-10.2,0.6-10.2-5.9C442.4,163.4,447,155.5,452.6,152.2z" class="st57"/><linearGradient id="XMLID_27_" x1="452.555" x2="464.016" y1="156.272" y2="156.272" gradientUnits="userSpaceOnUse"><stop offset="0" stop-color="#FFA744"/><stop offset=".163" stop-color="#FFA948"/><stop offset=".333" stop-color="#FFAF55"/><stop offset=".505" stop-color="#FFB969"/><stop offset=".679" stop-color="#FFC786"/><stop offset=".853" stop-color="#FFD9AB"/><stop offset="1" stop-color="#FFEBD1"/></linearGradient><path id="XMLID_1254_" d="M453,150.3c-0.1,0.1-0.3,0.2-0.4,0.3v13.3L464,153C462.4,148.6,458.1,147.3,453,150.3z" class="st79"/><path id="XMLID_1253_" d="M461.9,167.5c1.8-3.4,2.8-7.1,2.8-10.4c0-0.6-0.1-1.3-0.1-1.8l-12,8.6L461.9,167.5z" class="st80"/><linearGradient id="XMLID_28_" x1="414.744" x2="421.471" y1="172.564" y2="172.564" gradientUnits="userSpaceOnUse"><stop offset="0" stop-color="#FFA744"/><stop offset=".163" stop-color="#FFA948"/><stop offset=".333" stop-color="#FFAF55"/><stop offset=".505" stop-color="#FFB969"/><stop offset=".679" stop-color="#FFC786"/><stop offset=".853" stop-color="#FFD9AB"/><stop offset="1" stop-color="#FFEBD1"/></linearGradient><polygon id="XMLID_1252_" points="414.7 173.2 421.5 169.3 421.5 172 414.7 175.8" class="st81"/><linearGradient id="XMLID_29_" x1="422.482" x2="425.846" y1="169.127" y2="169.127" gradientUnits="userSpaceOnUse"><stop offset="0" stop-color="#FFA744"/><stop offset=".163" stop-color="#FFA948"/><stop offset=".333" stop-color="#FFAF55"/><stop offset=".505" stop-color="#FFB969"/><stop offset=".679" stop-color="#FFC786"/><stop offset=".853" stop-color="#FFD9AB"/><stop offset="1" stop-color="#FFEBD1"/></linearGradient><polygon id="XMLID_1251_" points="422.5 168.8 425.8 166.8 425.8 169.5 422.5 171.4" class="st82"/><polygon id="XMLID_1250_" points="414.7 178 438.8 164 438.8 166.7 414.7 180.6" class="st80"/><polygon id="XMLID_1249_" points="414.7 182.8 425.1 176.8 425.1 179.4 414.7 185.4" class="st80"/><polygon id="XMLID_1248_" points="426.8 175.9 438.8 169 438.8 171.6 426.8 178.6" class="st80"/><polygon id="XMLID_1247_" points="414.7 187.6 430.9 178.3 430.9 180.9 414.7 190.2" class="st80"/><polygon id="XMLID_1246_" points="432 177.7 438.8 173.7 438.8 176.4 432 180.3" class="st80"/><polygon id="XMLID_1245_" points="414.7 192.4 435.7 180.3 435.7 183 414.7 195" class="st80"/><polygon id="XMLID_1244_" points="414.7 197.2 430.9 187.9 430.9 190.5 414.7 199.9" class="st80"/><path id="XMLID_1243_" d="M469.1,207.1c0.1,0,0.1-0.1,0.1-0.2c0-0.1-0.1-0.1-0.2-0.1l-53.7,31v-5.7l53.9-31.1 c0.1,0,0.1-0.1,0.1-0.2c0-0.1-0.1-0.1-0.2-0.1l-53.7,31v-6.2c0-0.1-0.1-0.2-0.2-0.2c-0.1,0-0.2,0.1-0.2,0.2v6.3l-1.8,1 c-0.1,0-0.1,0.1-0.1,0.2c0,0,0.1,0.1,0.1,0.1c0,0,0.1,0,0.1,0l1.6-0.9v5.7l-1.8,1c-0.1,0-0.1,0.1-0.1,0.2c0,0,0.1,0.1,0.1,0.1 c0,0,0.1,0,0.1,0l1.6-0.9v5.7l-1.8,1c-0.1,0-0.1,0.1-0.1,0.2c0,0,0.1,0.1,0.1,0.1c0,0,0.1,0,0.1,0l1.6-0.9v5.7l-1.8,1 c-0.1,0-0.1,0.1-0.1,0.2c0,0,0.1,0.1,0.1,0.1c0,0,0.1,0,0.1,0l1.6-0.9v5.7l-1.8,1c-0.1,0-0.1,0.1-0.1,0.2c0,0,0.1,0.1,0.1,0.1 c0,0,0.1,0,0.1,0l1.6-0.9v1.1c0,0.1,0.1,0.2,0.2,0.2c0.1,0,0.2-0.1,0.2-0.2v-1.3l53.9-31.1c0.1,0,0.1-0.1,0.1-0.2 c0-0.1-0.1-0.1-0.2-0.1l-53.7,31v-5.7l53.9-31.1c0.1,0,0.1-0.1,0.1-0.2c0-0.1-0.1-0.1-0.2-0.1l-53.7,31v-5.7l53.9-31.1 c0.1,0,0.1-0.1,0.1-0.2c0-0.1-0.1-0.1-0.2-0.1l-53.7,31v-5.7L469.1,207.1z" class="st83"/><linearGradient id="XMLID_30_" x1="415.345" x2="467.141" y1="236.273" y2="236.273" gradientUnits="userSpaceOnUse"><stop offset="0" stop-color="#FFA744"/><stop offset=".163" stop-color="#FFA948"/><stop offset=".333" stop-color="#FFAF55"/><stop offset=".505" stop-color="#FFB969"/><stop offset=".679" stop-color="#FFC786"/><stop offset=".853" stop-color="#FFD9AB"/><stop offset="1" stop-color="#FFEBD1"/></linearGradient><polygon id="XMLID_1242_" points="415.3 256 415.3 248.3 421.5 239.5 424.8 241.9 431.3 229 433.7 233.1 437.1 233.1 442.7 224.8 446 222.8 452.8 222.8 457.1 216.6 462 218.8 467.1 218.5 467.1 226.1" class="st84"/><linearGradient id="XMLID_31_" x1="417.161" x2="423.888" y1="222.849" y2="222.849" gradientUnits="userSpaceOnUse"><stop offset="0" stop-color="#FFA744"/><stop offset=".163" stop-color="#FFA948"/><stop offset=".333" stop-color="#FFAF55"/><stop offset=".505" stop-color="#FFB969"/><stop offset=".679" stop-color="#FFC786"/><stop offset=".853" stop-color="#FFD9AB"/><stop offset="1" stop-color="#FFEBD1"/></linearGradient><polygon id="XMLID_1241_" points="417.2 223.4 423.9 219.6 423.9 222.3 417.2 226.1" class="st85"/><polygon id="XMLID_1240_" points="417.2 228.2 441.2 214.3 441.2 217 417.2 230.9" class="st80"/></g><g><linearGradient id="XMLID_32_" x1="351.363" x2="453.546" y1="110.709" y2="110.709" gradientUnits="userSpaceOnUse"><stop offset="0" stop-color="#2F1359"/><stop offset="1" stop-color="#491E8C"/></linearGradient><path id="XMLID_15292_" d="M400.4,81.2l-48,27.7c-1.4,0.8-1.4,2.7,0,3.5l48,27.7c1.3,0.7,2.8,0.7,4.1,0l48-27.7 c1.4-0.8,1.4-2.7,0-3.5l-48-27.7C403.2,80.5,401.7,80.5,400.4,81.2z" class="st86"/><path id="XMLID_15291_" d="M452.5,111.3l-48,27.7c-1.3,0.7-2.8,0.7-4.1,0l-48-27.7c-0.5-0.3-0.8-0.7-0.9-1.2 c-0.3,0.9,0,1.9,0.9,2.4l48,27.7c1.3,0.7,2.8,0.7,4.1,0l48-27.7c0.9-0.5,1.2-1.5,0.9-2.4C453.3,110.6,453,111,452.5,111.3z" class="st65"/><linearGradient id="XMLID_33_" x1="363.223" x2="441.685" y1="110.212" y2="110.212" gradientUnits="userSpaceOnUse"><stop offset=".15" stop-color="#FF9800"/><stop offset="1" stop-color="#FFC107"/></linearGradient><path id="XMLID_15290_" d="M400.9,87.6L364,108.9c-1,0.6-1,2.1,0,2.7l36.9,21.3c1,0.6,2.2,0.6,3.2,0l36.9-21.3 c1-0.6,1-2.1,0-2.7L404,87.6C403.1,87,401.9,87,400.9,87.6z" class="st87"/><path id="XMLID_15289_" d="M364,110.3L400.9,89c1-0.6,2.2-0.6,3.2,0l36.9,21.3c0.3,0.2,0.5,0.4,0.6,0.6 c0.4-0.7,0.2-1.6-0.6-2.1L404,87.6c-1-0.6-2.2-0.6-3.2,0L364,108.9c-0.8,0.4-1,1.4-0.6,2.1C363.5,110.7,363.7,110.5,364,110.3z" class="st67"/><g id="XMLID_4796_"><path id="XMLID_15288_" d="M400.9,87.6L364,108.9c-1,0.6-1,2.1,0,2.7l36.9,21.3c1,0.6,2.2,0.6,3.2,0l36.9-21.3 c1-0.6,1-2.1,0-2.7L404,87.6C403.1,87,401.9,87,400.9,87.6z" class="st65"/><g id="XMLID_10756_"><linearGradient id="XMLID_35_" x1="402.46" x2="402.46" y1="133.274" y2="25.94" gradientUnits="userSpaceOnUse"><stop offset="0" stop-color="#FFA744" stop-opacity=".7"/><stop offset=".047" stop-color="#FDAE59" stop-opacity=".667"/><stop offset=".161" stop-color="#FABC85" stop-opacity=".587"/><stop offset=".28" stop-color="#F7C9AA" stop-opacity=".504"/><stop offset=".403" stop-color="#F4D3C9" stop-opacity=".418"/><stop offset=".531" stop-color="#F2DBE1" stop-opacity=".328"/><stop offset=".667" stop-color="#F1E1F2" stop-opacity=".233"/><stop offset=".815" stop-color="#F0E4FC" stop-opacity=".129"/><stop offset="1" stop-color="#F0E5FF" stop-opacity="0"/></linearGradient><path id="XMLID_15287_" d="M363.2,25.9c0,0,0,83.7,0,84.3c0,0.5,0.3,1,0.8,1.3l36.9,21.3c1,0.6,2.2,0.6,3.2,0 l36.9-21.3c0.5-0.3,0.7-0.8,0.8-1.3c0-0.6,0-84.4,0-84.4H363.2z" class="st88"/></g><g><defs><path id="XMLID_4797_" d="M400.9,87.6L364,108.9c-1,0.6-1,2.1,0,2.7l36.9,21.3c1,0.6,2.2,0.6,3.2,0l36.9-21.3 c1-0.6,1-2.1,0-2.7L404,87.6C403.1,87,401.9,87,400.9,87.6z"/></defs><clipPath id="XMLID_36_"><use overflow="visible" xlink:href="#XMLID_4797_"/></clipPath><radialGradient id="XMLID_37_" cx="402.454" cy="112.249" r="32.178" gradientUnits="userSpaceOnUse"><stop offset="0" stop-color="#FFF"/><stop offset="1" stop-color="#FFA744"/></radialGradient><path id="XMLID_10721_" d="M400.9,89.6L364,110.9c-1,0.6-1,2.1,0,2.7l36.9,21.3c1,0.6,2.2,0.6,3.2,0l36.9-21.3 c1-0.6,1-2.1,0-2.7L404,89.6C403.1,89,401.9,89,400.9,89.6z" class="st89"/></g></g><g><linearGradient id="XMLID_38_" x1="402.454" x2="402.454" y1="113.043" y2="87.699" gradientUnits="userSpaceOnUse"><stop offset="0" stop-color="#FFF" stop-opacity=".7"/><stop offset="1" stop-color="#F0E5FF" stop-opacity="0"/></linearGradient><path id="XMLID_693_" d="M364,88.1c-1,0.6-1,2.1,0,2.7l36.9,21.3c1,0.6,2.2,0.6,3.2,0l36.9-21.3 c1-0.6,1-2.1,0-2.7" class="st90"/><linearGradient id="XMLID_45_" x1="402.454" x2="402.454" y1="92.312" y2="66.968" gradientUnits="userSpaceOnUse"><stop offset="0" stop-color="#FFF" stop-opacity=".7"/><stop offset="1" stop-color="#F0E5FF" stop-opacity="0"/></linearGradient><path id="XMLID_692_" d="M364,67.4c-1,0.6-1,2.1,0,2.7l36.9,21.3c1,0.6,2.2,0.6,3.2,0l36.9-21.3 c1-0.6,1-2.1,0-2.7" class="st91"/><linearGradient id="XMLID_46_" x1="402.454" x2="402.454" y1="71.581" y2="46.237" gradientUnits="userSpaceOnUse"><stop offset="0" stop-color="#FFF" stop-opacity=".7"/><stop offset="1" stop-color="#F0E5FF" stop-opacity="0"/></linearGradient><path id="XMLID_691_" d="M364,46.7c-1,0.6-1,2.1,0,2.7l36.9,21.3c1,0.6,2.2,0.6,3.2,0l36.9-21.3 c1-0.6,1-2.1,0-2.7" class="st92"/></g></g></g><g id="XMLID_1158_"><linearGradient id="SVGID_1_" x1="114.619" x2="198.762" y1="140.284" y2="334.615" gradientUnits="userSpaceOnUse"><stop offset=".021" stop-color="#FFA744"/><stop offset=".291" stop-color="#FBA443"/><stop offset=".571" stop-color="#EE9C3F"/><stop offset=".854" stop-color="#DA8F3A"/><stop offset="1" stop-color="#CC8636"/></linearGradient><path d="M232.3,338.6c-0.2,0-0.4-0.1-0.6-0.2L149.5,291c-4.6-2.7-7.5-7.6-7.5-13V156c0-3.3-1.7-6.3-4.4-8l-5.4-3.4 c-0.6-0.4-0.7-1.1-0.4-1.7c0.2-0.4,0.6-0.6,1-0.6c0.2,0,0.4,0.1,0.6,0.2l5.4,3.4c3.5,2.2,5.6,5.9,5.6,10V278 c0,4.5,2.4,8.6,6.3,10.9l82.2,47.5c0.6,0.3,0.8,1.1,0.4,1.6C233.1,338.4,232.7,338.6,232.3,338.6z" class="st93"/></g><g id="XMLID_1157_"><linearGradient id="SVGID_2_" x1="102.274" x2="186.417" y1="147.325" y2="341.656" gradientUnits="userSpaceOnUse"><stop offset=".021" stop-color="#FFA744"/><stop offset=".291" stop-color="#FBA443"/><stop offset=".571" stop-color="#EE9C3F"/><stop offset=".854" stop-color="#DA8F3A"/><stop offset="1" stop-color="#CC8636"/></linearGradient><path d="M219.9,345.7c-0.2,0-0.4-0.1-0.6-0.2L137.1,298c-4.6-2.7-7.5-7.6-7.5-13V163c0-3.3-1.7-6.3-4.4-8l-5.4-3.4 c-0.6-0.4-0.7-1.1-0.4-1.7c0.2-0.4,0.6-0.6,1-0.6c0.2,0,0.4,0.1,0.6,0.2l5.4,3.4c3.5,2.2,5.6,5.9,5.6,10v122.1 c0,4.5,2.4,8.6,6.3,10.9l82.2,47.5c0.6,0.3,0.8,1.1,0.4,1.6C220.8,345.4,220.4,345.7,219.9,345.7z" class="st94"/></g><g id="XMLID_1156_"><linearGradient id="SVGID_3_" x1="4.996" x2="89.139" y1="147.323" y2="341.654" gradientTransform="matrix(-1 0 0 1 380.051 0)" gradientUnits="userSpaceOnUse"><stop offset="0" stop-color="#CC8636"/><stop offset=".146" stop-color="#DA8F3A"/><stop offset=".429" stop-color="#EE9C3F"/><stop offset=".709" stop-color="#FBA443"/><stop offset=".979" stop-color="#FFA744"/></linearGradient><path d="M257.4,345.7c0.2,0,0.4-0.1,0.6-0.2l82.2-47.5c4.6-2.7,7.5-7.6,7.5-13V163c0-3.3,1.7-6.3,4.4-8l5.4-3.4 c0.6-0.4,0.7-1.1,0.4-1.7c-0.2-0.4-0.6-0.6-1-0.6c-0.2,0-0.4,0.1-0.6,0.2l-5.4,3.4c-3.5,2.2-5.6,5.9-5.6,10v122.1 c0,4.5-2.4,8.6-6.3,10.9l-82.2,47.5c-0.6,0.3-0.8,1.1-0.4,1.6C256.6,345.4,257,345.7,257.4,345.7z" class="st95"/></g><g id="XMLID_1155_"><linearGradient id="SVGID_4_" x1="-7.349" x2="76.794" y1="154.364" y2="348.695" gradientTransform="matrix(-1 0 0 1 380.051 0)" gradientUnits="userSpaceOnUse"><stop offset="0" stop-color="#CC8636"/><stop offset=".146" stop-color="#DA8F3A"/><stop offset=".429" stop-color="#EE9C3F"/><stop offset=".709" stop-color="#FBA443"/><stop offset=".979" stop-color="#FFA744"/></linearGradient><path d="M269.7,352.7c0.2,0,0.4-0.1,0.6-0.2l82.2-47.5c4.6-2.7,7.5-7.6,7.5-13V170c0-3.3,1.7-6.3,4.4-8l5.4-3.4 c0.6-0.4,0.7-1.1,0.4-1.7c-0.2-0.4-0.6-0.6-1-0.6c-0.2,0-0.4,0.1-0.6,0.2l-5.4,3.4c-3.5,2.2-5.6,5.9-5.6,10v122.1 c0,4.5-2.4,8.6-6.3,10.9l-82.2,47.5c-0.6,0.3-0.8,1.1-0.4,1.6C268.9,352.5,269.3,352.7,269.7,352.7z" class="st96"/></g><g><g class="st0"><path id="XMLID_731_" d="M268.1,250.7c-14.9-8.6-39.4-8.6-54.3,0l-131.6,76c-14.9,8.6-14.9,22.7,0,31.4l131.6,76 c14.9,8.6,39.4,8.6,54.3,0l131.6-76c14.9-8.6,14.9-22.7,0-31.4L268.1,250.7z" class="st1"/><path d="M268,251.1c-14.9-8.6-39.2-8.6-54.1,0l-131,75.6c-14.9,8.6-14.9,22.6,0,31.2l131,75.6 c14.9,8.6,39.2,8.6,54.1,0L399,358c14.9-8.6,14.9-22.6,0-31.2L268,251.1z" class="st2"/><path d="M267.8,251.6c-14.8-8.5-39-8.5-53.8,0L83.7,326.8c-14.8,8.5-14.8,22.5,0,31.1L214,433.2 c14.8,8.5,39,8.5,53.8,0l130.4-75.3c14.8-8.5,14.8-22.5,0-31.1L267.8,251.6z" class="st3"/><path d="M267.7,252c-14.7-8.5-38.8-8.5-53.6,0L84.4,326.9c-14.7,8.5-14.7,22.4,0,30.9l129.7,74.9 c14.7,8.5,38.8,8.5,53.6,0l129.7-74.9c14.7-8.5,14.7-22.4,0-30.9L267.7,252z" class="st4"/><path d="M267.6,252.4c-14.7-8.5-38.6-8.5-53.3,0L85.2,327c-14.7,8.5-14.7,22.3,0,30.8l129.1,74.5 c14.7,8.5,38.6,8.5,53.3,0l129.1-74.5c14.7-8.5,14.7-22.3,0-30.8L267.6,252.4z" class="st5"/><path d="M267.4,252.9c-14.6-8.4-38.4-8.4-53,0L85.9,327.1c-14.6,8.4-14.6,22.2,0,30.6l128.5,74.2 c14.6,8.4,38.4,8.4,53,0l128.5-74.2c14.6-8.4,14.6-22.2,0-30.6L267.4,252.9z" class="st6"/><path d="M267.3,253.3c-14.5-8.4-38.3-8.4-52.8,0L86.7,327.1c-14.5,8.4-14.5,22.1,0,30.5l127.8,73.8 c14.5,8.4,38.3,8.4,52.8,0l127.8-73.8c14.5-8.4,14.5-22.1,0-30.5L267.3,253.3z" class="st7"/><path d="M267.2,253.8c-14.4-8.3-38.1-8.3-52.5,0L87.5,327.2c-14.4,8.3-14.4,22,0,30.3L214.7,431 c14.4,8.3,38.1,8.3,52.5,0l127.2-73.4c14.4-8.3,14.4-22,0-30.3L267.2,253.8z" class="st8"/><path d="M267,254.2c-14.4-8.3-37.9-8.3-52.2,0L88.2,327.3c-14.4,8.3-14.4,21.9,0,30.2l126.6,73.1 c14.4,8.3,37.9,8.3,52.2,0l126.6-73.1c14.4-8.3,14.4-21.9,0-30.2L267,254.2z" class="st9"/><path d="M266.9,254.6c-14.3-8.3-37.7-8.3-52,0L89,327.4c-14.3,8.3-14.3,21.8,0,30l125.9,72.7 c14.3,8.3,37.7,8.3,52,0l125.9-72.7c14.3-8.3,14.3-21.8,0-30L266.9,254.6z" class="st10"/><path d="M266.8,255.1c-14.2-8.2-37.5-8.2-51.7,0L89.7,327.4c-14.2,8.2-14.2,21.7,0,29.9l125.3,72.4 c14.2,8.2,37.5,8.2,51.7,0l125.3-72.4c14.2-8.2,14.2-21.7,0-29.9L266.8,255.1z" class="st11"/><path d="M266.7,255.5c-14.2-8.2-37.3-8.2-51.5,0l-124.7,72c-14.2,8.2-14.2,21.5,0,29.7l124.7,72 c14.2,8.2,37.3,8.2,51.5,0l124.7-72c14.2-8.2,14.2-21.5,0-29.7L266.7,255.5z" class="st12"/><path d="M266.5,256c-14.1-8.1-37.1-8.1-51.2,0L91.3,327.6c-14.1,8.1-14.1,21.4,0,29.6l124.1,71.6 c14.1,8.1,37.1,8.1,51.2,0l124-71.6c14.1-8.1,14.1-21.4,0-29.6L266.5,256z" class="st13"/><path d="M266.4,256.4c-14-8.1-36.9-8.1-50.9,0L92,327.7c-14,8.1-14,21.3,0,29.4l123.4,71.3c14,8.1,36.9,8.1,50.9,0 l123.4-71.3c14-8.1,14-21.3,0-29.4L266.4,256.4z" class="st14"/><path d="M266.3,256.8c-13.9-8-36.7-8-50.7,0L92.8,327.7c-13.9,8-13.9,21.2,0,29.3l122.8,70.9c13.9,8,36.7,8,50.7,0 L389,357c13.9-8,13.9-21.2,0-29.3L266.3,256.8z" class="st15"/><path d="M266.1,257.3c-13.9-8-36.6-8-50.4,0L93.6,327.8c-13.9,8-13.9,21.1,0,29.1l122.2,70.5c13.9,8,36.6,8,50.4,0 l122.2-70.5c13.9-8,13.9-21.1,0-29.1L266.1,257.3z" class="st16"/><path d="M266,257.7c-13.8-8-36.4-8-50.2,0L94.3,327.9c-13.8,8-13.8,21,0,29L215.8,427c13.8,8,36.4,8,50.2,0 l121.5-70.2c13.8-8,13.8-21,0-29L266,257.7z" class="st17"/><path d="M265.9,258.2c-13.7-7.9-36.2-7.9-49.9,0L95.1,328c-13.7,7.9-13.7,20.9,0,28.8L216,426.6 c13.7,7.9,36.2,7.9,49.9,0l120.9-69.8c13.7-7.9,13.7-20.9,0-28.8L265.9,258.2z" class="st18"/><path d="M265.7,258.6c-13.7-7.9-36-7.9-49.6,0L95.8,328c-13.7,7.9-13.7,20.8,0,28.7l120.3,69.4 c13.7,7.9,36,7.9,49.6,0L386,356.7c13.7-7.9,13.7-20.8,0-28.7L265.7,258.6z" class="st19"/><path d="M265.6,259c-13.6-7.8-35.8-7.8-49.4,0L96.6,328.1c-13.6,7.8-13.6,20.7,0,28.5l119.6,69.1 c13.6,7.8,35.8,7.8,49.4,0l119.6-69.1c13.6-7.8,13.6-20.7,0-28.5L265.6,259z" class="st20"/><path d="M265.5,259.5c-13.5-7.8-35.6-7.8-49.1,0l-119,68.7c-13.5,7.8-13.5,20.6,0,28.4l119,68.7 c13.5,7.8,35.6,7.8,49.1,0l119-68.7c13.5-7.8,13.5-20.6,0-28.4L265.5,259.5z" class="st21"/><path d="M265.4,259.9c-13.4-7.8-35.4-7.8-48.9,0L98.1,328.3c-13.4,7.8-13.4,20.5,0,28.2l118.4,68.3 c13.4,7.8,35.4,7.8,48.9,0l118.4-68.3c13.4-7.8,13.4-20.5,0-28.2L265.4,259.9z" class="st22"/><path d="M265.2,260.4c-13.4-7.7-35.2-7.7-48.6,0l-117.7,68c-13.4,7.7-13.4,20.3,0,28.1l117.7,68 c13.4,7.7,35.2,7.7,48.6,0l117.7-68c13.4-7.7,13.4-20.3,0-28.1L265.2,260.4z" class="st23"/><path d="M265.1,260.8c-13.3-7.7-35-7.7-48.3,0L99.7,328.4c-13.3,7.7-13.3,20.2,0,27.9l117.1,67.6 c13.3,7.7,35,7.7,48.3,0l117.1-67.6c13.3-7.7,13.3-20.2,0-27.9L265.1,260.8z" class="st24"/><path d="M265,261.2c-13.2-7.6-34.9-7.6-48.1,0l-116.5,67.2c-13.2,7.6-13.2,20.1,0,27.8l116.5,67.2 c13.2,7.6,34.9,7.6,48.1,0l116.5-67.2c13.2-7.6,13.2-20.1,0-27.8L265,261.2z" class="st25"/><path d="M264.8,261.7c-13.1-7.6-34.7-7.6-47.8,0l-115.8,66.9c-13.1,7.6-13.1,20,0,27.6L217,423 c13.1,7.6,34.7,7.6,47.8,0l115.8-66.9c13.2-7.6,13.2-20,0-27.6L264.8,261.7z" class="st26"/><path d="M264.7,262.1c-13.1-7.5-34.5-7.5-47.6,0l-115.2,66.5c-13.1,7.6-13.1,19.9,0,27.5l115.2,66.5 c13.1,7.5,34.5,7.5,47.6,0l115.2-66.5c13.1-7.5,13.1-19.9,0-27.5L264.7,262.1z" class="st27"/><path d="M264.6,262.6c-13-7.5-34.3-7.5-47.3,0l-114.6,66.2c-13,7.5-13,19.8,0,27.3l114.6,66.2 c13,7.5,34.3,7.5,47.3,0L379.1,356c13-7.5,13-19.8,0-27.3L264.6,262.6z" class="st28"/><path d="M264.4,263c-12.9-7.5-34.1-7.5-47,0l-113.9,65.8c-12.9,7.5-12.9,19.7,0,27.2l113.9,65.8 c12.9,7.5,34.1,7.5,47,0l113.9-65.8c12.9-7.5,12.9-19.7,0-27.2L264.4,263z" class="st29"/><path d="M264.3,263.4c-12.9-7.4-33.9-7.4-46.8,0l-113.3,65.4c-12.9,7.4-12.9,19.6,0,27l113.3,65.4 c12.9,7.4,33.9,7.4,46.8,0l113.3-65.4c12.9-7.4,12.9-19.6,0-27L264.3,263.4z" class="st30"/><path d="M264.2,263.9c-12.8-7.4-33.7-7.4-46.5,0L105,328.9c-12.8,7.4-12.8,19.5,0,26.9l112.7,65.1 c12.8,7.4,33.7,7.4,46.5,0l112.7-65.1c12.8-7.4,12.8-19.5,0-26.9L264.2,263.9z" class="st31"/><path d="M264,264.3c-12.7-7.3-33.5-7.3-46.3,0L105.7,329c-12.7,7.3-12.7,19.4,0,26.7l112.1,64.7 c12.7,7.3,33.5,7.3,46.3,0l112-64.7c12.7-7.3,12.7-19.4,0-26.7L264,264.3z" class="st32"/><path d="M263.9,264.8c-12.6-7.3-33.3-7.3-46,0l-111.4,64.3c-12.6,7.3-12.6,19.3,0,26.6L217.9,420 c12.6,7.3,33.3,7.3,46,0l111.4-64.3c12.6-7.3,12.6-19.2,0-26.6L263.9,264.8z" class="st33"/><path d="M263.8,265.2c-12.6-7.3-33.2-7.3-45.7,0l-110.8,64c-12.6,7.3-12.6,19.1,0,26.4l110.8,64 c12.6,7.3,33.2,7.3,45.7,0l110.8-64c12.6-7.3,12.6-19.1,0-26.4L263.8,265.2z" class="st34"/><path d="M263.7,265.6c-12.5-7.2-33-7.2-45.5,0L108,329.2c-12.5,7.2-12.5,19,0,26.3l110.2,63.6 c12.5,7.2,33,7.2,45.5,0l110.2-63.6c12.5-7.2,12.5-19,0-26.3L263.7,265.6z" class="st35"/><path d="M263.5,266.1c-12.4-7.2-32.8-7.2-45.2,0l-109.5,63.2c-12.4,7.2-12.4,18.9,0,26.1l109.5,63.2 c12.4,7.2,32.8,7.2,45.2,0l109.5-63.2c12.4-7.2,12.4-18.9,0-26.1L263.5,266.1z" class="st36"/><path d="M263.4,266.5c-12.4-7.1-32.6-7.1-44.9,0l-108.9,62.9c-12.4,7.1-12.4,18.8,0,26l108.9,62.9 c12.4,7.1,32.6,7.1,44.9,0l108.9-62.9c12.4-7.1,12.4-18.8,0-26L263.4,266.5z" class="st37"/><path d="M263.3,267c-12.3-7.1-32.4-7.1-44.7,0l-108.3,62.5c-12.3,7.1-12.3,18.7,0,25.8l108.3,62.5 c12.3,7.1,32.4,7.1,44.7,0l108.3-62.5c12.3-7.1,12.3-18.7,0-25.8L263.3,267z" class="st38"/><path d="M263.1,267.4c-12.2-7.1-32.2-7.1-44.4,0l-107.6,62.1c-12.2,7.1-12.2,18.6,0,25.6l107.6,62.1 c12.2,7.1,32.2,7.1,44.4,0l107.6-62.1c12.2-7.1,12.2-18.6,0-25.6L263.1,267.4z" class="st39"/><path d="M263,267.8c-12.1-7-32-7-44.2,0l-107,61.8c-12.1,7-12.1,18.5,0,25.5l107,61.8c12.1,7,32,7,44.2,0l107-61.8 c12.1-7,12.1-18.5,0-25.5L263,267.8z" class="st40"/><path d="M262.9,268.3c-12.1-7-31.8-7-43.9,0l-106.4,61.4c-12.1,7-12.1,18.4,0,25.3L219,416.5c12.1,7,31.8,7,43.9,0 L369.2,355c12.1-7,12.1-18.4,0-25.3L262.9,268.3z" class="st41"/><path d="M262.7,268.7c-12-6.9-31.6-6.9-43.6,0l-105.7,61c-12,6.9-12,18.3,0,25.2l105.7,61c12,6.9,31.6,6.9,43.6,0 l105.7-61c12-6.9,12-18.3,0-25.2L262.7,268.7z" class="st42"/><path d="M262.6,269.2c-11.9-6.9-31.5-6.9-43.4,0l-105.1,60.7c-11.9,6.9-11.9,18.2,0,25l105.1,60.7 c11.9,6.9,31.5,6.9,43.4,0l105.1-60.7c11.9-6.9,11.9-18.2,0-25L262.6,269.2z" class="st43"/><path d="M262.5,269.6c-11.9-6.8-31.3-6.8-43.1,0l-104.5,60.3c-11.9,6.8-11.9,18.1,0,24.9l104.5,60.3 c11.9,6.8,31.3,6.8,43.1,0L367,354.8c11.9-6.8,11.9-18.1,0-24.9L262.5,269.6z" class="st44"/><path d="M262.4,270c-11.8-6.8-31.1-6.8-42.9,0l-103.8,60c-11.8,6.8-11.8,17.9,0,24.7l103.8,60 c11.8,6.8,31.1,6.8,42.9,0l103.8-60c11.8-6.8,11.8-17.9,0-24.7L262.4,270z" class="st45"/><path d="M262.2,270.5c-11.7-6.8-30.9-6.8-42.6,0l-103.2,59.6c-11.7,6.8-11.7,17.8,0,24.6l103.2,59.6 c11.7,6.8,30.9,6.8,42.6,0l103.2-59.6c11.7-6.8,11.7-17.8,0-24.6L262.2,270.5z" class="st46"/><path d="M262.1,270.9c-11.6-6.7-30.7-6.7-42.3,0l-102.6,59.2c-11.6,6.7-11.6,17.7,0,24.4l102.6,59.2 c11.6,6.7,30.7,6.7,42.3,0l102.6-59.2c11.6-6.7,11.6-17.7,0-24.4L262.1,270.9z" class="st47"/><path d="M262,271.4c-11.6-6.7-30.5-6.7-42.1,0l-101.9,58.9c-11.6,6.7-11.6,17.6,0,24.3l101.9,58.9 c11.6,6.7,30.5,6.7,42.1,0l101.9-58.9c11.6-6.7,11.6-17.6,0-24.3L262,271.4z" class="st48"/><path d="M261.8,271.8c-11.5-6.6-30.3-6.6-41.8,0l-101.3,58.5c-11.5,6.6-11.5,17.5,0,24.1L220,412.9 c11.5,6.6,30.3,6.6,41.8,0l101.3-58.5c11.5-6.6,11.5-17.5,0-24.1L261.8,271.8z" class="st49"/><path d="M261.7,272.2c-11.4-6.6-30.1-6.6-41.6,0l-100.7,58.1c-11.4,6.6-11.4,17.4,0,24l100.7,58.1 c11.4,6.6,30.1,6.6,41.6,0l100.7-58.1c11.4-6.6,11.4-17.4,0-24L261.7,272.2z" class="st50"/><path d="M261.6,272.7c-11.4-6.6-29.9-6.6-41.3,0l-100.1,57.8c-11.4,6.6-11.4,17.3,0,23.8l100.1,57.8 c11.4,6.6,29.9,6.6,41.3,0l100.1-57.8c11.4-6.6,11.4-17.3,0-23.8L261.6,272.7z" class="st51"/><path id="XMLID_730_" d="M261.4,273.1c-11.3-6.5-29.8-6.5-41,0L121,330.5c-11.3,6.5-11.3,17.2,0,23.7l99.4,57.4 c11.3,6.5,29.8,6.5,41,0l99.4-57.4c11.3-6.5,11.3-17.2,0-23.7L261.4,273.1z" class="st52"/></g><linearGradient id="XMLID_47_" x1="86.71" x2="395.134" y1="339.467" y2="339.467" gradientUnits="userSpaceOnUse"><stop offset="0" stop-color="#B4ACBF"/><stop offset=".515" stop-color="#D1C8DE"/><stop offset="1" stop-color="#F0E5FF"/></linearGradient><path id="XMLID_1141_" d="M234.7,250.5l-148,81.8v8.7c0,1.2,0.6,2.3,1.6,2.9l146.4,84.7c3.8,2.2,8.6,2.2,12.4,0 l146.2-84.5c1.2-0.7,1.9-1.9,1.9-3.2v-8.5l-148-81.8C243.3,248.3,238.6,248.3,234.7,250.5z" class="st97"/><linearGradient id="XMLID_48_" x1="86.71" x2="395.133" y1="332.254" y2="332.254" gradientUnits="userSpaceOnUse"><stop offset="0" stop-color="#F0E5FF"/><stop offset="1" stop-color="#FFF"/></linearGradient><path id="XMLID_1140_" d="M234.7,243.3L89.8,327c-4.1,2.4-4.1,8.2,0,10.6l145,83.7c3.8,2.2,8.6,2.2,12.4,0l145-83.7 c4.1-2.4,4.1-8.2,0-10.6l-145-83.7C243.3,241,238.6,241,234.7,243.3z" class="st98"/><linearGradient id="XMLID_50_" x1="137.13" x2="344.713" y1="332.254" y2="332.254" gradientUnits="userSpaceOnUse"><stop offset="0" stop-color="#B4ACBF"/><stop offset=".456" stop-color="#F0E5FF"/><stop offset=".486" stop-color="#F9F5FF"/><stop offset=".502" stop-color="#FFF"/></linearGradient><path id="XMLID_1139_" d="M236.6,270.6l-77.4,0.4l-21.9,60.8c-0.7,2.5,0.4,5.1,2.6,6.4l96.7,55.8 c2.7,1.5,5.9,1.5,8.6,0l96.7-55.8c2.2-1.3,3.3-3.9,2.6-6.4l-21.9-60.8l-77.4-0.4C242.6,269,239.3,269,236.6,270.6z" class="st99"/><linearGradient id="XMLID_51_" x1="145.03" x2="336.814" y1="327.735" y2="327.735" gradientUnits="userSpaceOnUse"><stop offset="0" stop-color="#1D073F"/><stop offset=".456" stop-color="#2F1359"/><stop offset=".473" stop-color="#371669"/><stop offset=".502" stop-color="#491E8C"/></linearGradient><path id="XMLID_1138_" d="M328.7,287.5l-83.8,48.4c-2.5,1.4-5.5,1.4-7.9,0l-83.8-48.4l-7.9,22 c-0.6,2.3,0.3,4.7,2.4,5.9l89.3,51.6c2.5,1.4,5.5,1.4,7.9,0l89.3-51.6c2.1-1.2,3.1-3.6,2.4-5.9L328.7,287.5z" class="st100"/><linearGradient id="XMLID_52_" x1="159.24" x2="322.604" y1="270.95" y2="270.95" gradientUnits="userSpaceOnUse"><stop offset="0" stop-color="#F0E5FF"/><stop offset="1" stop-color="#FFF"/></linearGradient><path id="XMLID_1137_" d="M237.6,223.8l-76.8,44.3c-2.2,1.2-2.2,4.4,0,5.6l76.8,44.3c2,1.2,4.5,1.2,6.6,0 l76.8-44.3c2.2-1.2,2.2-4.4,0-5.6l-76.8-44.3C242.2,222.6,239.7,222.6,237.6,223.8z" class="st101"/><linearGradient id="XMLID_53_" x1="173.929" x2="307.915" y1="270.95" y2="270.95" gradientUnits="userSpaceOnUse"><stop offset="0" stop-color="#2F1359"/><stop offset="1" stop-color="#491E8C"/></linearGradient><path id="XMLID_1136_" d="M238.2,232.3l-63,36.4c-1.8,1-1.8,3.6,0,4.6l63,36.4c1.7,1,3.7,1,5.4,0l63-36.4 c1.8-1,1.8-3.6,0-4.6l-63-36.4C241.9,231.3,239.9,231.3,238.2,232.3z" class="st102"/><linearGradient id="XMLID_54_" x1="188.131" x2="293.712" y1="270.95" y2="270.95" gradientUnits="userSpaceOnUse"><stop offset=".15" stop-color="#FF9800"/><stop offset="1" stop-color="#FFC107"/></linearGradient><path id="XMLID_1135_" d="M238.8,240.5l-49.6,28.6c-1.4,0.8-1.4,2.8,0,3.6l49.6,28.6c1.3,0.8,2.9,0.8,4.2,0 l49.6-28.6c1.4-0.8,1.4-2.8,0-3.6L243,240.5C241.7,239.7,240.1,239.7,238.8,240.5z" class="st103"/><path id="XMLID_1134_" d="M189.2,270.3l49.6-28.6c1.3-0.8,2.9-0.8,4.2,0l49.6,28.6c0.5,0.3,0.8,0.7,1,1.2 c0.3-0.9-0.1-1.9-1-2.4L243,240.5c-1.3-0.8-2.9-0.8-4.2,0l-49.6,28.6c-0.9,0.5-1.2,1.5-1,2.4 C188.4,271.1,188.7,270.6,189.2,270.3z" class="st67"/><path id="XMLID_1133_" d="M306.6,271.5l-63,36.4c-1.7,1-3.7,1-5.4,0l-63-36.4c-0.6-0.3-1-0.8-1.2-1.4 c-0.4,1.1,0,2.5,1.2,3.2l63,36.4c1.7,1,3.7,1,5.4,0l63-36.4c1.2-0.7,1.6-2.1,1.2-3.2C307.5,270.6,307.2,271.1,306.6,271.5z" class="st65"/><linearGradient id="XMLID_55_" x1="154.778" x2="182.532" y1="311.948" y2="311.948" gradientUnits="userSpaceOnUse"><stop offset="0" stop-color="#FFA744"/><stop offset=".163" stop-color="#FFA948"/><stop offset=".333" stop-color="#FFAF55"/><stop offset=".505" stop-color="#FFB969"/><stop offset=".679" stop-color="#FFC786"/><stop offset=".853" stop-color="#FFD9AB"/><stop offset="1" stop-color="#FFEBD1"/></linearGradient><path id="XMLID_1127_" d="M160.9,296.1l3.3,1.9l-6.2,17.3l-3.3-1.9L160.9,296.1z M160.2,316.6l3.3,1.9l4.8-13.5 l-3.3-1.9L160.2,316.6z M165.6,319.7l3.3,1.9l3.4-9.6L169,310L165.6,319.7z M171,322.8l3.3,1.9l5.4-15.2l-3.3-1.9L171,322.8z M176.4,325.9l3.3,1.9l2.8-7.7l-3.3-1.9L176.4,325.9z" class="st104"/><linearGradient id="XMLID_56_" x1="821.414" x2="859.835" y1="339.791" y2="339.791" gradientTransform="matrix(1 0 0 1 -573.5213 0)" gradientUnits="userSpaceOnUse"><stop offset="0" stop-color="#FFA744"/><stop offset=".163" stop-color="#FFA948"/><stop offset=".333" stop-color="#FFAF55"/><stop offset=".505" stop-color="#FFB969"/><stop offset=".679" stop-color="#FFC786"/><stop offset=".853" stop-color="#FFD9AB"/><stop offset="1" stop-color="#FFEBD1"/></linearGradient><path id="XMLID_1126_" d="M281.2,321.8c0,0.2-1.1,1.2-1.3,1.5c-0.4,0.5-0.9,1.1-1.3,1.6c-0.8,1-1,2.5-1.7,3.6 c-0.7,1.1-1.7,2.1-2.9,2.5c-0.8,0.3-1.8,0.4-2.7,0.4c-0.9,0.1-1.8,0.2-2.6,0.6c-1.6,0.9-1.8,3.3-2.3,4.9c-0.2,0.8-0.5,1.5-1,2.1 c-0.5,0.6-1.2,1-1.9,1.3c-0.7,0.3-1.3,0.6-2.1,0.8c-1.4,0.3-2.8,0.1-4.3,0.3c-2.1,0.2-4.1,1.4-5.4,3.1c-0.5,0.6-0.9,1.3-1.3,2 c-0.6,1.1-1.4,2.1-2.1,3.1c-0.7,0.8-0.6,1.2-0.6,2.2l2.1,5.9l36.3-21.3L281.2,321.8z" class="st105"/><polygon id="XMLID_1125_" points="192.5 314.4 205.1 321.7 204.2 324 191.6 316.8" class="st80"/><g id="XMLID_1106_"><polygon id="XMLID_1124_" points="190.2 320.6 202.5 327.8 202.1 329 189.7 321.8" class="st80"/><polygon id="XMLID_1123_" points="203.6 328.4 207 330.3 206.5 331.6 203.2 329.6" class="st106"/><polygon id="XMLID_1122_" points="210 335.7 211.5 336.6 211 337.8 209.6 336.9" class="st106"/><polygon id="XMLID_1121_" points="212.2 337.1 213.7 337.9 213.3 339.2 211.8 338.3" class="st106"/><polygon id="XMLID_1120_" points="189.1 323.6 195.6 327.4 195.2 328.6 188.7 324.8" class="st80"/><polygon id="XMLID_1119_" points="197 328.1 209.3 335.2 208.8 336.5 196.5 329.4" class="st80"/><polygon id="XMLID_1118_" points="202.6 335 214.9 342.1 214.5 343.3 202.2 336.2" class="st80"/><polygon id="XMLID_1117_" points="215.8 342.6 225.8 348.3 225.3 349.6 215.4 343.8" class="st80"/><polygon id="XMLID_1116_" points="214.6 338.4 226.9 345.5 226.4 346.8 214.1 339.7" class="st80"/><polygon id="XMLID_1115_" points="208.5 331.2 215.1 335 214.6 336.3 208.1 332.5" class="st80"/><polygon id="XMLID_1114_" points="216 335.6 227.9 342.4 227.5 343.7 215.6 336.9" class="st80"/><polygon id="XMLID_1113_" points="188 326.6 190.7 328.1 190.3 329.4 187.6 327.8" class="st80"/><polygon id="XMLID_1112_" points="198.8 332.8 201.5 334.4 201 335.6 198.3 334" class="st106"/><polygon id="XMLID_1111_" points="191.5 328.6 198 332.4 197.6 333.6 191.1 329.8" class="st106"/><polygon id="XMLID_1110_" points="208.4 341.9 215 345.7 214.5 346.9 208 343.1" class="st106"/><polygon id="XMLID_1109_" points="215.7 346.1 224.7 351.3 224.3 352.5 215.2 347.3" class="st106"/><polygon id="XMLID_1108_" points="186.9 329.5 193.5 333.3 193 334.5 186.5 330.8" class="st80"/><polygon id="XMLID_1107_" points="194.6 334 207.2 341.1 206.7 342.4 194.2 335.2" class="st80"/></g><g id="XMLID_1092_"><polygon id="XMLID_1105_" points="312.8 307.8 309.5 309.8 309.9 311 313.3 309.1" class="st106"/><polygon id="XMLID_1104_" points="306.4 315.2 305 316 305.4 317.3 306.9 316.4" class="st106"/><polygon id="XMLID_1103_" points="304.2 316.5 302.7 317.4 303.2 318.6 304.7 317.7" class="st106"/><polygon id="XMLID_1102_" points="314 310.7 307.2 314.7 307.6 315.9 314.4 312" class="st80"/><polygon id="XMLID_1101_" points="315.1 313.8 301.5 321.6 302 322.8 315.5 315.1" class="st80"/><polygon id="XMLID_1100_" points="300.7 322.1 290.7 327.8 291.1 329 301.1 323.3" class="st80"/><polygon id="XMLID_1099_" points="301.9 317.9 289.6 325 290 326.2 302.3 319.1" class="st80"/><polygon id="XMLID_1098_" points="307.9 310.7 301.4 314.5 301.8 315.7 308.4 311.9" class="st80"/><polygon id="XMLID_1097_" points="300.4 315.1 288.6 321.9 289 323.1 300.9 316.3" class="st80"/><polygon id="XMLID_1096_" points="308.6 321 305.6 322.8 306 324 309.1 322.2" class="st106"/><polygon id="XMLID_1095_" points="304.9 323.2 304.1 323.6 304.5 324.9 305.3 324.4" class="st106"/><polygon id="XMLID_1094_" points="303.1 324.2 291.7 330.8 292.2 332 303.5 325.4" class="st80"/><polygon id="XMLID_1093_" points="316.1 316.7 309.3 320.6 309.7 321.8 316.5 317.9" class="st80"/></g><g id="XMLID_1085_"><g id="XMLID_1088_"><path id="XMLID_1089_" d="M323.6,314.4c-0.8,0-1.6-0.2-2.3-0.6c-1.4-0.7-2.4-2.1-2.8-3.8 c-0.8-3.2,0.9-6.7,3.8-7.7c1.4-0.5,2.8-0.4,4.1,0.3c1.4,0.7,2.4,2.1,2.8,3.8l0,0c0.8,3.2-0.9,6.7-3.8,7.7 C324.8,314.3,324.2,314.4,323.6,314.4z M324.1,304.1c-0.3,0-0.7,0.1-1,0.2c-1.9,0.7-3,3-2.4,5.2c0.3,1.1,0.9,2,1.7,2.4 c0.7,0.4,1.5,0.4,2.3,0.1c1.9-0.7,3-3,2.4-5.2l0,0c-0.3-1.1-0.9-2-1.7-2.4C324.9,304.2,324.5,304.1,324.1,304.1z" class="st57"/></g><g id="XMLID_1086_"><linearGradient id="XMLID_57_" x1="318.492" x2="329.361" y1="308.205" y2="308.205" gradientUnits="userSpaceOnUse"><stop offset="0" stop-color="#FFA744"/><stop offset=".163" stop-color="#FFA948"/><stop offset=".333" stop-color="#FFAF55"/><stop offset=".505" stop-color="#FFB969"/><stop offset=".679" stop-color="#FFC786"/><stop offset=".853" stop-color="#FFD9AB"/><stop offset="1" stop-color="#FFEBD1"/></linearGradient><path id="XMLID_1087_" d="M323.6,314.4c-0.8,0-1.6-0.2-2.3-0.6c-1.4-0.7-2.4-2.1-2.8-3.8 c-0.1-0.6,0.2-1.2,0.8-1.3c0.6-0.1,1.2,0.2,1.3,0.8c0.3,1.1,0.9,2,1.7,2.4c0.7,0.4,1.5,0.4,2.3,0.1c1.9-0.7,3-3,2.4-5.2 c-0.3-1.1-0.9-2-1.7-2.4c-0.7-0.4-1.5-0.4-2.3-0.1c-0.6,0.2-1.2-0.1-1.4-0.6c-0.2-0.6,0.1-1.2,0.6-1.4c1.4-0.5,2.8-0.4,4.1,0.3 c1.4,0.7,2.4,2.1,2.8,3.8c0.8,3.2-0.9,6.7-3.8,7.7C324.8,314.3,324.2,314.4,323.6,314.4z" class="st107"/></g></g><g id="XMLID_1082_"><g><g><defs><path id="XMLID_44_" d="M238.8,240.5l-49.6,28.6c-1.4,0.8-1.4,2.8,0,3.6l49.6,28.6c1.3,0.8,2.9,0.8,4.2,0l49.6-28.6 c1.4-0.8,1.4-2.8,0-3.6L243,240.5C241.7,239.7,240.1,239.7,238.8,240.5z"/></defs><clipPath id="XMLID_58_"><use overflow="visible" xlink:href="#XMLID_44_"/></clipPath></g></g><g><path id="XMLID_43_" d="M238.8,240.5l-49.6,28.6c-1.4,0.8-1.4,2.8,0,3.6l49.6,28.6c1.3,0.8,2.9,0.8,4.2,0 l49.6-28.6c1.4-0.8,1.4-2.8,0-3.6L243,240.5C241.7,239.7,240.1,239.7,238.8,240.5z" class="st65"/><g id="XMLID_41_"><g><linearGradient id="XMLID_59_" x1="240.922" x2="240.922" y1="301.983" y2="81.121" gradientUnits="userSpaceOnUse"><stop offset="0" stop-color="#FFA744" stop-opacity=".7"/><stop offset=".047" stop-color="#FDAE59" stop-opacity=".667"/><stop offset=".161" stop-color="#FABC85" stop-opacity=".587"/><stop offset=".28" stop-color="#F7C9AA" stop-opacity=".504"/><stop offset=".403" stop-color="#F4D3C9" stop-opacity=".418"/><stop offset=".531" stop-color="#F2DBE1" stop-opacity=".328"/><stop offset=".667" stop-color="#F1E1F2" stop-opacity=".233"/><stop offset=".815" stop-color="#F0E4FC" stop-opacity=".129"/><stop offset="1" stop-color="#F0E5FF" stop-opacity="0"/></linearGradient><path id="XMLID_42_" d="M188.1,81.1c0,0,0,189.1,0,189.8c0,0.7,0.3,1.4,1,1.8l49.6,28.6c1.3,0.8,2.9,0.8,4.2,0 l49.6-28.6c0.7-0.4,1-1.1,1-1.8c0-0.7,0-189.8,0-189.8H188.1z" class="st108"/></g></g><g><defs><path id="XMLID_39_" d="M238.8,240.5l-49.6,28.6c-1.4,0.8-1.4,2.8,0,3.6l49.6,28.6c1.3,0.8,2.9,0.8,4.2,0l49.6-28.6 c1.4-0.8,1.4-2.8,0-3.6L243,240.5C241.7,239.7,240.1,239.7,238.8,240.5z"/></defs><clipPath id="XMLID_60_"><use overflow="visible" xlink:href="#XMLID_39_"/></clipPath><radialGradient id="XMLID_61_" cx="240.922" cy="273.023" r="43.3" gradientUnits="userSpaceOnUse"><stop offset="0" stop-color="#FFF"/><stop offset="1" stop-color="#FFA744"/></radialGradient><path id="XMLID_40_" d="M238.8,242.6l-49.6,28.6c-1.4,0.8-1.4,2.8,0,3.6l49.6,28.6c1.3,0.8,2.9,0.8,4.2,0 l49.6-28.6c1.4-0.8,1.4-2.8,0-3.6L243,242.6C241.7,241.8,240.1,241.8,238.8,242.6z" class="st109"/></g></g><g><g><defs><path id="XMLID_34_" d="M238.8,240.5l-49.6,28.6c-1.4,0.8-1.4,2.8,0,3.6l49.6,28.6c1.3,0.8,2.9,0.8,4.2,0l49.6-28.6 c1.4-0.8,1.4-2.8,0-3.6L243,240.5C241.7,239.7,240.1,239.7,238.8,240.5z"/></defs><clipPath id="XMLID_62_"><use overflow="visible" xlink:href="#XMLID_34_"/></clipPath></g></g></g><g><linearGradient id="XMLID_63_" x1="240.922" x2="240.922" y1="281.752" y2="247.971" gradientUnits="userSpaceOnUse"><stop offset="0" stop-color="#FFF" stop-opacity=".7"/><stop offset="1" stop-color="#F0E5FF" stop-opacity="0"/></linearGradient><path id="XMLID_854_" d="M189.2,248.4c-1.4,0.8-1.4,2.8,0,3.6l49.6,28.6c1.3,0.8,2.9,0.8,4.2,0l49.6-28.6 c1.4-0.8,1.4-2.8,0-3.6" class="st110"/><linearGradient id="XMLID_64_" x1="240.922" x2="240.922" y1="261.021" y2="227.24" gradientUnits="userSpaceOnUse"><stop offset="0" stop-color="#FFF" stop-opacity=".7"/><stop offset="1" stop-color="#F0E5FF" stop-opacity="0"/></linearGradient><path id="XMLID_853_" d="M189.2,227.7c-1.4,0.8-1.4,2.8,0,3.6l49.6,28.6c1.3,0.8,2.9,0.8,4.2,0l49.6-28.6 c1.4-0.8,1.4-2.8,0-3.6" class="st111"/><linearGradient id="XMLID_65_" x1="240.922" x2="240.922" y1="240.29" y2="206.509" gradientUnits="userSpaceOnUse"><stop offset="0" stop-color="#FFF" stop-opacity=".7"/><stop offset="1" stop-color="#F0E5FF" stop-opacity="0"/></linearGradient><path id="XMLID_855_" d="M189.2,206.9c-1.4,0.8-1.4,2.8,0,3.6l49.6,28.6c1.3,0.8,2.9,0.8,4.2,0l49.6-28.6 c1.4-0.8,1.4-2.8,0-3.6" class="st112"/><linearGradient id="XMLID_66_" x1="240.922" x2="240.922" y1="219.56" y2="185.778" gradientUnits="userSpaceOnUse"><stop offset="0" stop-color="#FFF" stop-opacity=".7"/><stop offset="1" stop-color="#F0E5FF" stop-opacity="0"/></linearGradient><path id="XMLID_856_" d="M189.2,186.2c-1.4,0.8-1.4,2.8,0,3.6l49.6,28.6c1.3,0.8,2.9,0.8,4.2,0l49.6-28.6 c1.4-0.8,1.4-2.8,0-3.6" class="st113"/><linearGradient id="XMLID_67_" x1="240.922" x2="240.922" y1="198.829" y2="165.048" gradientUnits="userSpaceOnUse"><stop offset="0" stop-color="#FFF" stop-opacity=".7"/><stop offset="1" stop-color="#F0E5FF" stop-opacity="0"/></linearGradient><path id="XMLID_857_" d="M189.2,165.5c-1.4,0.8-1.4,2.8,0,3.6l49.6,28.6c1.3,0.8,2.9,0.8,4.2,0l49.6-28.6 c1.4-0.8,1.4-2.8,0-3.6" class="st114"/><linearGradient id="XMLID_68_" x1="240.922" x2="240.922" y1="178.098" y2="144.317" gradientUnits="userSpaceOnUse"><stop offset="0" stop-color="#FFF" stop-opacity=".7"/><stop offset="1" stop-color="#F0E5FF" stop-opacity="0"/></linearGradient><path id="XMLID_858_" d="M189.2,144.7c-1.4,0.8-1.4,2.8,0,3.6l49.6,28.6c1.3,0.8,2.9,0.8,4.2,0l49.6-28.6 c1.4-0.8,1.4-2.8,0-3.6" class="st115"/><linearGradient id="XMLID_69_" x1="240.922" x2="240.922" y1="157.367" y2="123.586" gradientUnits="userSpaceOnUse"><stop offset="0" stop-color="#FFF" stop-opacity=".7"/><stop offset="1" stop-color="#F0E5FF" stop-opacity="0"/></linearGradient><path id="XMLID_859_" d="M189.2,124c-1.4,0.8-1.4,2.8,0,3.6l49.6,28.6c1.3,0.8,2.9,0.8,4.2,0l49.6-28.6 c1.4-0.8,1.4-2.8,0-3.6" class="st116"/></g></g><g id="XMLID_1041_"><linearGradient id="SVGID_5_" x1="331.417" x2="395.212" y1="396.098" y2="396.098" gradientUnits="userSpaceOnUse"><stop offset=".021" stop-color="#FFA744"/><stop offset=".291" stop-color="#FBA443"/><stop offset=".571" stop-color="#EE9C3F"/><stop offset=".854" stop-color="#DA8F3A"/><stop offset="1" stop-color="#CC8636"/></linearGradient><path d="M394,414.7c-0.2,0-0.4-0.1-0.6-0.2L332,379.7c-0.3-0.2-0.5-0.4-0.6-0.7c-0.1-0.3,0-0.6,0.1-0.9 c0.2-0.4,0.6-0.6,1.1-0.6c0.2,0,0.4,0.1,0.6,0.2l61.4,34.8c0.3,0.2,0.5,0.4,0.6,0.7c0.1,0.3,0,0.6-0.1,0.9 C394.8,414.5,394.4,414.7,394,414.7z" class="st117"/></g><g id="XMLID_1040_"><linearGradient id="SVGID_6_" x1="319.203" x2="382.998" y1="403.808" y2="403.808" gradientUnits="userSpaceOnUse"><stop offset=".021" stop-color="#FFA744"/><stop offset=".291" stop-color="#FBA443"/><stop offset=".571" stop-color="#EE9C3F"/><stop offset=".854" stop-color="#DA8F3A"/><stop offset="1" stop-color="#CC8636"/></linearGradient><path d="M381.8,422.4c-0.2,0-0.4-0.1-0.6-0.2l-61.4-34.8c-0.3-0.2-0.5-0.4-0.6-0.7c-0.1-0.3,0-0.6,0.1-0.9 c0.2-0.4,0.6-0.6,1.1-0.6c0.2,0,0.4,0.1,0.6,0.2l61.4,34.8c0.3,0.2,0.5,0.4,0.6,0.7c0.1,0.3,0,0.6-0.1,0.9 C382.6,422.2,382.2,422.4,381.8,422.4z" class="st118"/></g><g id="XMLID_1039_"><linearGradient id="SVGID_7_" x1="517.364" x2="581.158" y1="396.699" y2="396.699" gradientTransform="matrix(-1 0 0 1 668.9679 0)" gradientUnits="userSpaceOnUse"><stop offset="0" stop-color="#CC8636"/><stop offset=".146" stop-color="#DA8F3A"/><stop offset=".429" stop-color="#EE9C3F"/><stop offset=".709" stop-color="#FBA443"/><stop offset=".979" stop-color="#FFA744"/></linearGradient><path d="M89,415.3c0.2,0,0.4-0.1,0.6-0.2l61.4-34.8c0.3-0.2,0.5-0.4,0.6-0.7c0.1-0.3,0-0.6-0.1-0.9 c-0.2-0.4-0.6-0.6-1.1-0.6c-0.2,0-0.4,0.1-0.6,0.2l-61.4,34.8c-0.3,0.2-0.5,0.4-0.6,0.7c-0.1,0.3,0,0.6,0.1,0.9 C88.2,415.1,88.6,415.3,89,415.3z" class="st119"/></g><g id="XMLID_1038_"><linearGradient id="SVGID_8_" x1="505.15" x2="568.944" y1="404.409" y2="404.409" gradientTransform="matrix(-1 0 0 1 668.9679 0)" gradientUnits="userSpaceOnUse"><stop offset="0" stop-color="#CC8636"/><stop offset=".146" stop-color="#DA8F3A"/><stop offset=".429" stop-color="#EE9C3F"/><stop offset=".709" stop-color="#FBA443"/><stop offset=".979" stop-color="#FFA744"/></linearGradient><path d="M101.2,423c0.2,0,0.4-0.1,0.6-0.2l61.4-34.8c0.3-0.2,0.5-0.4,0.6-0.7s0-0.6-0.1-0.9 c-0.2-0.4-0.6-0.6-1.1-0.6c-0.2,0-0.4,0.1-0.6,0.2l-61.4,34.8c-0.3,0.2-0.5,0.4-0.6,0.7c-0.1,0.3,0,0.6,0.1,0.9 C100.4,422.8,100.8,423,101.2,423z" class="st120"/></g><g><g id="XMLID_982_"><g class="st0"><path id="XMLID_729_" d="M410.8,402.8c-5-2.9-13.1-2.9-18.1,0L349,428c-5,2.9-5,7.6,0,10.4l43.7,25.3 c5,2.9,13.1,2.9,18.1,0l43.7-25.3c5-2.9,5-7.6,0-10.4L410.8,402.8z" class="st1"/><path d="M410.7,402.9c-4.9-2.9-13-2.9-18,0l-43.5,25.1c-4.9,2.9-4.9,7.5,0,10.4l43.5,25.1c4.9,2.9,13,2.9,18,0 l43.5-25.1c4.9-2.9,4.9-7.5,0-10.4L410.7,402.9z" class="st2"/><path d="M410.7,403.1c-4.9-2.8-13-2.8-17.9,0l-43.3,25c-4.9,2.8-4.9,7.5,0,10.3l43.3,25c4.9,2.8,13,2.8,17.9,0 l43.3-25c4.9-2.8,4.9-7.5,0-10.3L410.7,403.1z" class="st3"/><path d="M410.6,403.2c-4.9-2.8-12.9-2.8-17.8,0l-43.1,24.9c-4.9,2.8-4.9,7.5,0,10.3l43.1,24.9 c4.9,2.8,12.9,2.8,17.8,0l43.1-24.9c4.9-2.8,4.9-7.4,0-10.3L410.6,403.2z" class="st4"/><path d="M410.6,403.4c-4.9-2.8-12.8-2.8-17.7,0L350,428.1c-4.9,2.8-4.9,7.4,0,10.2l42.9,24.8 c4.9,2.8,12.8,2.8,17.7,0l42.9-24.8c4.9-2.8,4.9-7.4,0-10.2L410.6,403.4z" class="st5"/><path d="M410.6,403.5c-4.8-2.8-12.8-2.8-17.6,0l-42.7,24.7c-4.8,2.8-4.8,7.4,0,10.2l42.7,24.7 c4.8,2.8,12.8,2.8,17.6,0l42.7-24.7c4.8-2.8,4.8-7.4,0-10.2L410.6,403.5z" class="st6"/><path d="M410.5,403.6c-4.8-2.8-12.7-2.8-17.5,0l-42.5,24.5c-4.8,2.8-4.8,7.3,0,10.1l42.5,24.5 c4.8,2.8,12.7,2.8,17.5,0l42.5-24.5c4.8-2.8,4.8-7.3,0-10.1L410.5,403.6z" class="st7"/><path d="M410.5,403.8c-4.8-2.8-12.7-2.8-17.5,0l-42.3,24.4c-4.8,2.8-4.8,7.3,0,10.1l42.3,24.4 c4.8,2.8,12.7,2.8,17.5,0l42.3-24.4c4.8-2.8,4.8-7.3,0-10.1L410.5,403.8z" class="st8"/><path d="M410.4,403.9c-4.8-2.8-12.6-2.8-17.4,0L351,428.2c-4.8,2.8-4.8,7.3,0,10l42.1,24.3 c4.8,2.8,12.6,2.8,17.4,0l42.1-24.3c4.8-2.8,4.8-7.3,0-10L410.4,403.9z" class="st9"/><path d="M410.4,404.1c-4.8-2.7-12.5-2.7-17.3,0l-41.9,24.2c-4.8,2.7-4.8,7.2,0,10l41.9,24.2 c4.8,2.7,12.5,2.7,17.3,0l41.9-24.2c4.8-2.7,4.8-7.2,0-10L410.4,404.1z" class="st10"/><path d="M410.3,404.2c-4.7-2.7-12.5-2.7-17.2,0l-41.6,24c-4.7,2.7-4.7,7.2,0,9.9l41.6,24c4.7,2.7,12.5,2.7,17.2,0 l41.6-24c4.7-2.7,4.7-7.2,0-9.9L410.3,404.2z" class="st11"/><path d="M410.3,404.4c-4.7-2.7-12.4-2.7-17.1,0l-41.4,23.9c-4.7,2.7-4.7,7.2,0,9.9l41.4,23.9 c4.7,2.7,12.4,2.7,17.1,0l41.4-23.9c4.7-2.7,4.7-7.2,0-9.9L410.3,404.4z" class="st12"/><path d="M410.3,404.5c-4.7-2.7-12.3-2.7-17,0L352,428.3c-4.7,2.7-4.7,7.1,0,9.8l41.2,23.8c4.7,2.7,12.3,2.7,17,0 l41.2-23.8c4.7-2.7,4.7-7.1,0-9.8L410.3,404.5z" class="st13"/><path d="M410.2,404.7c-4.7-2.7-12.3-2.7-16.9,0l-41,23.7c-4.7,2.7-4.7,7.1,0,9.8l41,23.7c4.7,2.7,12.3,2.7,16.9,0 l41-23.7c4.7-2.7,4.7-7.1,0-9.8L410.2,404.7z" class="st14"/><path d="M410.2,404.8c-4.6-2.7-12.2-2.7-16.8,0l-40.8,23.6c-4.6,2.7-4.6,7.1,0,9.7l40.8,23.6 c4.6,2.7,12.2,2.7,16.8,0l40.8-23.6c4.6-2.7,4.6-7.1,0-9.7L410.2,404.8z" class="st15"/><path d="M410.1,405c-4.6-2.7-12.1-2.7-16.8,0l-40.6,23.4c-4.6,2.7-4.6,7,0,9.7l40.6,23.4c4.6,2.7,12.1,2.7,16.8,0 l40.6-23.4c4.6-2.7,4.6-7,0-9.7L410.1,405z" class="st16"/><path d="M410.1,405.1c-4.6-2.6-12.1-2.6-16.7,0L353,428.4c-4.6,2.6-4.6,7,0,9.6l40.4,23.3 c4.6,2.6,12.1,2.6,16.7,0l40.4-23.3c4.6-2.6,4.6-7,0-9.6L410.1,405.1z" class="st17"/><path d="M410,405.3c-4.6-2.6-12-2.6-16.6,0l-40.2,23.2c-4.6,2.6-4.6,6.9,0,9.6l40.2,23.2c4.6,2.6,12,2.6,16.6,0 l40.2-23.2c4.6-2.6,4.6-6.9,0-9.6L410,405.3z" class="st18"/><path d="M410,405.4c-4.5-2.6-12-2.6-16.5,0l-40,23.1c-4.5,2.6-4.5,6.9,0,9.5l40,23.1c4.5,2.6,12,2.6,16.5,0 l40-23.1c4.5-2.6,4.5-6.9,0-9.5L410,405.4z" class="st19"/><path d="M410,405.5c-4.5-2.6-11.9-2.6-16.4,0l-39.8,23c-4.5,2.6-4.5,6.9,0,9.5l39.8,23c4.5,2.6,11.9,2.6,16.4,0 l39.8-23c4.5-2.6,4.5-6.9,0-9.5L410,405.5z" class="st20"/><path d="M409.9,405.7c-4.5-2.6-11.8-2.6-16.3,0L354,428.5c-4.5,2.6-4.5,6.8,0,9.4l39.5,22.8 c4.5,2.6,11.8,2.6,16.3,0l39.5-22.8c4.5-2.6,4.5-6.8,0-9.4L409.9,405.7z" class="st21"/><path d="M409.9,405.8c-4.5-2.6-11.8-2.6-16.2,0l-39.3,22.7c-4.5,2.6-4.5,6.8,0,9.4l39.3,22.7 c4.5,2.6,11.8,2.6,16.2,0l39.3-22.7c4.5-2.6,4.5-6.8,0-9.4L409.9,405.8z" class="st22"/><path d="M409.8,406c-4.4-2.6-11.7-2.6-16.2,0l-39.1,22.6c-4.4,2.6-4.4,6.8,0,9.3l39.1,22.6 c4.4,2.6,11.7,2.6,16.2,0l39.1-22.6c4.4-2.6,4.4-6.8,0-9.3L409.8,406z" class="st23"/><path d="M409.8,406.1c-4.4-2.6-11.6-2.6-16.1,0l-38.9,22.5c-4.4,2.6-4.4,6.7,0,9.3l38.9,22.5 c4.4,2.6,11.6,2.6,16.1,0l38.9-22.5c4.4-2.6,4.4-6.7,0-9.3L409.8,406.1z" class="st24"/><path d="M409.7,406.3c-4.4-2.5-11.6-2.5-16,0l-38.7,22.3c-4.4,2.5-4.4,6.7,0,9.2l38.7,22.3c4.4,2.5,11.6,2.5,16,0 l38.7-22.3c4.4-2.5,4.4-6.7,0-9.2L409.7,406.3z" class="st25"/><path d="M409.7,406.4c-4.4-2.5-11.5-2.5-15.9,0l-38.5,22.2c-4.4,2.5-4.4,6.7,0,9.2l38.5,22.2 c4.4,2.5,11.5,2.5,15.9,0l38.5-22.2c4.4-2.5,4.4-6.7,0-9.2L409.7,406.4z" class="st26"/><path d="M409.7,406.6c-4.3-2.5-11.5-2.5-15.8,0l-38.3,22.1c-4.3,2.5-4.3,6.6,0,9.1l38.3,22.1 c4.3,2.5,11.5,2.5,15.8,0l38.3-22.1c4.3-2.5,4.3-6.6,0-9.1L409.7,406.6z" class="st27"/><path d="M409.6,406.7c-4.3-2.5-11.4-2.5-15.7,0l-38.1,22c-4.3,2.5-4.3,6.6,0,9.1l38.1,22c4.3,2.5,11.4,2.5,15.7,0 l38.1-22c4.3-2.5,4.3-6.6,0-9.1L409.6,406.7z" class="st28"/><path d="M409.6,406.9c-4.3-2.5-11.3-2.5-15.6,0l-37.9,21.9c-4.3,2.5-4.3,6.5,0,9l37.9,21.9 c4.3,2.5,11.3,2.5,15.6,0l37.9-21.9c4.3-2.5,4.3-6.5,0-9L409.6,406.9z" class="st29"/><path d="M409.5,407c-4.3-2.5-11.3-2.5-15.5,0l-37.7,21.7c-4.3,2.5-4.3,6.5,0,9l37.7,21.7c4.3,2.5,11.3,2.5,15.5,0 l37.7-21.7c4.3-2.5,4.3-6.5,0-9L409.5,407z" class="st30"/><path d="M409.5,407.2c-4.3-2.5-11.2-2.5-15.5,0l-37.5,21.6c-4.3,2.5-4.3,6.5,0,8.9l37.5,21.6 c4.3,2.5,11.2,2.5,15.5,0l37.4-21.6c4.3-2.5,4.3-6.5,0-8.9L409.5,407.2z" class="st31"/><path d="M409.4,407.3c-4.2-2.4-11.1-2.4-15.4,0l-37.2,21.5c-4.2,2.4-4.2,6.4,0,8.9l37.2,21.5 c4.2,2.4,11.1,2.4,15.4,0l37.2-21.5c4.2-2.4,4.2-6.4,0-8.9L409.4,407.3z" class="st32"/><path d="M409.4,407.4c-4.2-2.4-11.1-2.4-15.3,0l-37,21.4c-4.2,2.4-4.2,6.4,0,8.8l37,21.4c4.2,2.4,11.1,2.4,15.3,0 l37-21.4c4.2-2.4,4.2-6.4,0-8.8L409.4,407.4z" class="st33"/><path d="M409.3,407.6c-4.2-2.4-11-2.4-15.2,0l-36.8,21.3c-4.2,2.4-4.2,6.4,0,8.8l36.8,21.3c4.2,2.4,11,2.4,15.2,0 l36.8-21.3c4.2-2.4,4.2-6.4,0-8.8L409.3,407.6z" class="st34"/><path d="M409.3,407.7c-4.2-2.4-11-2.4-15.1,0l-36.6,21.1c-4.2,2.4-4.2,6.3,0,8.7l36.6,21.1c4.2,2.4,11,2.4,15.1,0 l36.6-21.1c4.2-2.4,4.2-6.3,0-8.7L409.3,407.7z" class="st35"/><path d="M409.3,407.9c-4.1-2.4-10.9-2.4-15,0l-36.4,21c-4.1,2.4-4.1,6.3,0,8.7l36.4,21c4.1,2.4,10.9,2.4,15,0 l36.4-21c4.1-2.4,4.1-6.3,0-8.7L409.3,407.9z" class="st36"/><path d="M409.2,408c-4.1-2.4-10.8-2.4-14.9,0l-36.2,20.9c-4.1,2.4-4.1,6.3,0,8.6l36.2,20.9 c4.1,2.4,10.8,2.4,14.9,0l36.2-20.9c4.1-2.4,4.1-6.3,0-8.6L409.2,408z" class="st37"/><path d="M409.2,408.2c-4.1-2.4-10.8-2.4-14.9,0l-36,20.8c-4.1,2.4-4.1,6.2,0,8.6l36,20.8c4.1,2.4,10.8,2.4,14.9,0 l36-20.8c4.1-2.4,4.1-6.2,0-8.6L409.2,408.2z" class="st38"/><path d="M409.1,408.3c-4.1-2.3-10.7-2.3-14.8,0L358.6,429c-4.1,2.3-4.1,6.2,0,8.5l35.8,20.7 c4.1,2.3,10.7,2.3,14.8,0l35.8-20.7c4.1-2.3,4.1-6.2,0-8.5L409.1,408.3z" class="st39"/><path d="M409.1,408.5c-4-2.3-10.6-2.3-14.7,0L358.8,429c-4,2.3-4,6.1,0,8.5l35.6,20.5c4,2.3,10.6,2.3,14.7,0 l35.6-20.5c4-2.3,4-6.1,0-8.5L409.1,408.5z" class="st40"/><path d="M409,408.6c-4-2.3-10.6-2.3-14.6,0L359.1,429c-4,2.3-4,6.1,0,8.4l35.4,20.4c4,2.3,10.6,2.3,14.6,0 l35.4-20.4c4-2.3,4-6.1,0-8.4L409,408.6z" class="st41"/><path d="M409,408.8c-4-2.3-10.5-2.3-14.5,0l-35.1,20.3c-4,2.3-4,6.1,0,8.4l35.1,20.3c4,2.3,10.5,2.3,14.5,0 l35.1-20.3c4-2.3,4-6.1,0-8.4L409,408.8z" class="st42"/><path d="M409,408.9c-4-2.3-10.5-2.3-14.4,0l-34.9,20.2c-4,2.3-4,6,0,8.3l34.9,20.2c4,2.3,10.5,2.3,14.4,0 l34.9-20.2c4-2.3,4-6,0-8.3L409,408.9z" class="st43"/><path d="M408.9,409.1c-3.9-2.3-10.4-2.3-14.3,0l-34.7,20c-3.9,2.3-3.9,6,0,8.3l34.7,20c3.9,2.3,10.4,2.3,14.3,0 l34.7-20c3.9-2.3,3.9-6,0-8.3L408.9,409.1z" class="st44"/><path d="M408.9,409.2c-3.9-2.3-10.3-2.3-14.2,0l-34.5,19.9c-3.9,2.3-3.9,6,0,8.2l34.5,19.9 c3.9,2.3,10.3,2.3,14.2,0l34.5-19.9c3.9-2.3,3.9-6,0-8.2L408.9,409.2z" class="st45"/><path d="M408.8,409.4c-3.9-2.2-10.3-2.2-14.2,0l-34.3,19.8c-3.9,2.2-3.9,5.9,0,8.2l34.3,19.8 c3.9,2.2,10.3,2.2,14.2,0l34.3-19.8c3.9-2.2,3.9-5.9,0-8.2L408.8,409.4z" class="st46"/><path d="M408.8,409.5c-3.9-2.2-10.2-2.2-14.1,0l-34.1,19.7c-3.9,2.2-3.9,5.9,0,8.1l34.1,19.7 c3.9,2.2,10.2,2.2,14.1,0l34.1-19.7c3.9-2.2,3.9-5.9,0-8.1L408.8,409.5z" class="st47"/><path d="M408.7,409.6c-3.8-2.2-10.1-2.2-14,0l-33.9,19.6c-3.8,2.2-3.8,5.9,0,8.1l33.9,19.6c3.8,2.2,10.1,2.2,14,0 l33.9-19.6c3.8-2.2,3.8-5.9,0-8.1L408.7,409.6z" class="st48"/><path d="M408.7,409.8c-3.8-2.2-10.1-2.2-13.9,0l-33.7,19.4c-3.8,2.2-3.8,5.8,0,8l33.7,19.4 c3.8,2.2,10.1,2.2,13.9,0l33.7-19.4c3.8-2.2,3.8-5.8,0-8L408.7,409.8z" class="st49"/><path d="M408.7,409.9c-3.8-2.2-10-2.2-13.8,0l-33.5,19.3c-3.8,2.2-3.8,5.8,0,8l33.5,19.3c3.8,2.2,10,2.2,13.8,0 l33.5-19.3c3.8-2.2,3.8-5.8,0-8L408.7,409.9z" class="st50"/><path d="M408.6,410.1c-3.8-2.2-10-2.2-13.7,0l-33.3,19.2c-3.8,2.2-3.8,5.7,0,7.9l33.3,19.2c3.8,2.2,10,2.2,13.7,0 l33.3-19.2c3.8-2.2,3.8-5.7,0-7.9L408.6,410.1z" class="st51"/><path id="XMLID_728_" d="M408.6,410.2c-3.8-2.2-9.9-2.2-13.6,0l-33,19.1c-3.8,2.2-3.8,5.7,0,7.9l33,19.1 c3.8,2.2,9.9,2.2,13.6,0l33-19.1c3.8-2.2,3.8-5.7,0-7.9L408.6,410.2z" class="st52"/></g><linearGradient id="XMLID_70_" x1="350.668" x2="452.831" y1="431.135" y2="431.135" gradientUnits="userSpaceOnUse"><stop offset="0" stop-color="#B4ACBF"/><stop offset=".515" stop-color="#D1C8DE"/><stop offset="1" stop-color="#F0E5FF"/></linearGradient><path id="XMLID_984_" d="M399.7,401.7l-49,23.3v6.7c0,0.4,0.2,0.7,0.5,0.9l48.5,28c1.3,0.7,2.8,0.7,4.1,0l48.4-28 c0.4-0.2,0.6-0.6,0.6-1.1V425l-49-23.3C402.5,400.9,401,400.9,399.7,401.7z" class="st121"/><linearGradient id="XMLID_71_" x1="350.668" x2="452.831" y1="424.953" y2="424.953" gradientUnits="userSpaceOnUse"><stop offset="0" stop-color="#F0E5FF"/><stop offset="1" stop-color="#FFF"/></linearGradient><path id="XMLID_983_" d="M399.7,395.5l-48,27.7c-1.4,0.8-1.4,2.7,0,3.5l48,27.7c1.3,0.7,2.8,0.7,4.1,0l48-27.7 c1.4-0.8,1.4-2.7,0-3.5l-48-27.7C402.5,394.7,401,394.7,399.7,395.5z" class="st122"/></g><g><linearGradient id="XMLID_72_" x1="365.04" x2="437.909" y1="424.008" y2="424.008" gradientUnits="userSpaceOnUse"><stop offset="0" stop-color="#F0E5FF"/><stop offset="1" stop-color="#FFF"/></linearGradient><path id="XMLID_981_" d="M400,403l-34.2,19.8c-1,0.6-1,1.9,0,2.5L400,445c0.9,0.5,2,0.5,2.9,0l34.2-19.8 c1-0.6,1-1.9,0-2.5L402.9,403C402,402.5,400.9,402.5,400,403z" class="st123"/><linearGradient id="XMLID_73_" x1="365.048" x2="437.902" y1="434.315" y2="434.315" gradientUnits="userSpaceOnUse"><stop offset=".15" stop-color="#FF9800"/><stop offset="1" stop-color="#FFC107"/></linearGradient><path id="XMLID_980_" d="M437.2,423.7l-34.2,19.8c-0.9,0.5-2,0.5-2.9,0l-34.2-19.8c-0.2-0.1-0.4-0.3-0.5-0.4 c-0.4,0.7-0.3,1.6,0.5,2.1L400,445c0.9,0.5,2,0.5,2.9,0l34.2-19.8c0.8-0.4,0.9-1.4,0.5-2.1C437.5,423.4,437.4,423.5,437.2,423.7 z" class="st124"/><linearGradient id="XMLID_74_" x1="365.048" x2="437.902" y1="434.315" y2="434.315" gradientUnits="userSpaceOnUse"><stop offset="0" stop-color="#B4ACBF"/><stop offset=".515" stop-color="#D1C8DE"/><stop offset="1" stop-color="#F0E5FF"/></linearGradient><path id="XMLID_979_" d="M437.2,423.7l-34.2,19.8c-0.9,0.5-2,0.5-2.9,0l-34.2-19.8c-0.2-0.1-0.4-0.3-0.5-0.4 c-0.4,0.7-0.3,1.6,0.5,2.1L400,445c0.9,0.5,2,0.5,2.9,0l34.2-19.8c0.8-0.4,0.9-1.4,0.5-2.1C437.5,423.4,437.4,423.5,437.2,423.7 z" class="st125"/></g></g><g><g id="XMLID_880_"><g class="st0"><path id="XMLID_727_" d="M89.2,402.8c-5-2.9-13.1-2.9-18.1,0L27.4,428c-5,2.9-5,7.6,0,10.4l43.7,25.3 c5,2.9,13.1,2.9,18.1,0l43.7-25.3c5-2.9,5-7.6,0-10.4L89.2,402.8z" class="st1"/><path d="M89.2,402.9c-4.9-2.9-13-2.9-18,0l-43.5,25.1c-4.9,2.9-4.9,7.5,0,10.4l43.5,25.1c4.9,2.9,13,2.9,18,0 l43.5-25.1c4.9-2.9,4.9-7.5,0-10.4L89.2,402.9z" class="st2"/><path d="M89.1,403.1c-4.9-2.8-13-2.8-17.9,0l-43.3,25c-4.9,2.8-4.9,7.5,0,10.3l43.3,25c4.9,2.8,13,2.8,17.9,0 l43.3-25c4.9-2.8,4.9-7.5,0-10.3L89.1,403.1z" class="st3"/><path d="M89.1,403.2c-4.9-2.8-12.9-2.8-17.8,0l-43.1,24.9c-4.9,2.8-4.9,7.5,0,10.3l43.1,24.9 c4.9,2.8,12.9,2.8,17.8,0l43.1-24.9c4.9-2.8,4.9-7.4,0-10.3L89.1,403.2z" class="st4"/><path d="M89.1,403.4c-4.9-2.8-12.8-2.8-17.7,0l-42.9,24.8c-4.9,2.8-4.9,7.4,0,10.2l42.9,24.8 c4.9,2.8,12.8,2.8,17.7,0l42.9-24.8c4.9-2.8,4.9-7.4,0-10.2L89.1,403.4z" class="st5"/><path d="M89,403.5c-4.8-2.8-12.8-2.8-17.6,0l-42.7,24.7c-4.8,2.8-4.8,7.4,0,10.2L71.4,463c4.8,2.8,12.8,2.8,17.6,0 l42.7-24.7c4.8-2.8,4.8-7.4,0-10.2L89,403.5z" class="st6"/><path d="M89,403.6c-4.8-2.8-12.7-2.8-17.5,0l-42.5,24.5c-4.8,2.8-4.8,7.3,0,10.1l42.5,24.5 c4.8,2.8,12.7,2.8,17.5,0l42.5-24.5c4.8-2.8,4.8-7.3,0-10.1L89,403.6z" class="st7"/><path d="M88.9,403.8c-4.8-2.8-12.7-2.8-17.5,0l-42.3,24.4c-4.8,2.8-4.8,7.3,0,10.1l42.3,24.4 c4.8,2.8,12.7,2.8,17.5,0l42.3-24.4c4.8-2.8,4.8-7.3,0-10.1L88.9,403.8z" class="st8"/><path d="M88.9,403.9c-4.8-2.8-12.6-2.8-17.4,0l-42.1,24.3c-4.8,2.8-4.8,7.3,0,10l42.1,24.3 c4.8,2.8,12.6,2.8,17.4,0l42.1-24.3c4.8-2.8,4.8-7.3,0-10L88.9,403.9z" class="st9"/><path d="M88.8,404.1c-4.8-2.7-12.5-2.7-17.3,0l-41.9,24.2c-4.8,2.7-4.8,7.2,0,10l41.9,24.2 c4.8,2.7,12.5,2.7,17.3,0l41.9-24.2c4.8-2.7,4.8-7.2,0-10L88.8,404.1z" class="st10"/><path d="M88.8,404.2c-4.7-2.7-12.5-2.7-17.2,0l-41.6,24c-4.7,2.7-4.7,7.2,0,9.9l41.6,24c4.7,2.7,12.5,2.7,17.2,0 l41.6-24c4.7-2.7,4.7-7.2,0-9.9L88.8,404.2z" class="st11"/><path d="M88.8,404.4c-4.7-2.7-12.4-2.7-17.1,0l-41.4,23.9c-4.7,2.7-4.7,7.2,0,9.9l41.4,23.9 c4.7,2.7,12.4,2.7,17.1,0l41.4-23.9c4.7-2.7,4.7-7.2,0-9.9L88.8,404.4z" class="st12"/><path d="M88.7,404.5c-4.7-2.7-12.3-2.7-17,0l-41.2,23.8c-4.7,2.7-4.7,7.1,0,9.8L71.7,462c4.7,2.7,12.3,2.7,17,0 l41.2-23.8c4.7-2.7,4.7-7.1,0-9.8L88.7,404.5z" class="st13"/><path d="M88.7,404.7c-4.7-2.7-12.3-2.7-16.9,0l-41,23.7c-4.7,2.7-4.7,7.1,0,9.8l41,23.7c4.7,2.7,12.3,2.7,16.9,0 l41-23.7c4.7-2.7,4.7-7.1,0-9.8L88.7,404.7z" class="st14"/><path d="M88.6,404.8c-4.6-2.7-12.2-2.7-16.8,0L31,428.4c-4.6,2.7-4.6,7.1,0,9.7l40.8,23.6 c4.6,2.7,12.2,2.7,16.8,0l40.8-23.6c4.6-2.7,4.6-7.1,0-9.7L88.6,404.8z" class="st15"/><path d="M88.6,405c-4.6-2.7-12.1-2.7-16.8,0l-40.6,23.4c-4.6,2.7-4.6,7,0,9.7l40.6,23.4c4.6,2.7,12.1,2.7,16.8,0 l40.6-23.4c4.6-2.7,4.6-7,0-9.7L88.6,405z" class="st16"/><path d="M88.5,405.1c-4.6-2.6-12.1-2.6-16.7,0l-40.4,23.3c-4.6,2.6-4.6,7,0,9.6l40.4,23.3 c4.6,2.6,12.1,2.6,16.7,0l40.4-23.3c4.6-2.6,4.6-7,0-9.6L88.5,405.1z" class="st17"/><path d="M88.5,405.3c-4.6-2.6-12-2.6-16.6,0l-40.2,23.2c-4.6,2.6-4.6,6.9,0,9.6l40.2,23.2c4.6,2.6,12,2.6,16.6,0 l40.2-23.2c4.6-2.6,4.6-6.9,0-9.6L88.5,405.3z" class="st18"/><path d="M88.5,405.4c-4.5-2.6-12-2.6-16.5,0l-40,23.1c-4.5,2.6-4.5,6.9,0,9.5l40,23.1c4.5,2.6,12,2.6,16.5,0 l40-23.1c4.5-2.6,4.5-6.9,0-9.5L88.5,405.4z" class="st19"/><path d="M88.4,405.5c-4.5-2.6-11.9-2.6-16.4,0l-39.8,23c-4.5,2.6-4.5,6.9,0,9.5l39.8,23c4.5,2.6,11.9,2.6,16.4,0 l39.8-23c4.5-2.6,4.5-6.9,0-9.5L88.4,405.5z" class="st20"/><path d="M88.4,405.7c-4.5-2.6-11.8-2.6-16.3,0l-39.5,22.8c-4.5,2.6-4.5,6.8,0,9.4L72,460.8 c4.5,2.6,11.8,2.6,16.3,0l39.5-22.8c4.5-2.6,4.5-6.8,0-9.4L88.4,405.7z" class="st21"/><path d="M88.3,405.8c-4.5-2.6-11.8-2.6-16.2,0l-39.3,22.7c-4.5,2.6-4.5,6.8,0,9.4l39.3,22.7 c4.5,2.6,11.8,2.6,16.2,0l39.3-22.7c4.5-2.6,4.5-6.8,0-9.4L88.3,405.8z" class="st22"/><path d="M88.3,406c-4.4-2.6-11.7-2.6-16.2,0L33,428.6c-4.4,2.6-4.4,6.8,0,9.3l39.1,22.6c4.4,2.6,11.7,2.6,16.2,0 l39.1-22.6c4.4-2.6,4.4-6.8,0-9.3L88.3,406z" class="st23"/><path d="M88.2,406.1c-4.4-2.6-11.6-2.6-16.1,0l-38.9,22.5c-4.4,2.6-4.4,6.7,0,9.3l38.9,22.5 c4.4,2.6,11.6,2.6,16.1,0l38.9-22.5c4.4-2.6,4.4-6.7,0-9.3L88.2,406.1z" class="st24"/><path d="M88.2,406.3c-4.4-2.5-11.6-2.5-16,0l-38.7,22.3c-4.4,2.5-4.4,6.7,0,9.2l38.7,22.3c4.4,2.5,11.6,2.5,16,0 l38.7-22.3c4.4-2.5,4.4-6.7,0-9.2L88.2,406.3z" class="st25"/><path d="M88.1,406.4c-4.4-2.5-11.5-2.5-15.9,0l-38.5,22.2c-4.4,2.5-4.4,6.7,0,9.2l38.5,22.2 c4.4,2.5,11.5,2.5,15.9,0l38.5-22.2c4.4-2.5,4.4-6.7,0-9.2L88.1,406.4z" class="st26"/><path d="M88.1,406.6c-4.3-2.5-11.5-2.5-15.8,0L34,428.7c-4.3,2.5-4.3,6.6,0,9.1l38.3,22.1 c4.3,2.5,11.5,2.5,15.8,0l38.3-22.1c4.3-2.5,4.3-6.6,0-9.1L88.1,406.6z" class="st27"/><path d="M88.1,406.7c-4.3-2.5-11.4-2.5-15.7,0l-38.1,22c-4.3,2.5-4.3,6.6,0,9.1l38.1,22c4.3,2.5,11.4,2.5,15.7,0 l38.1-22c4.3-2.5,4.3-6.6,0-9.1L88.1,406.7z" class="st28"/><path d="M88,406.9c-4.3-2.5-11.3-2.5-15.6,0l-37.9,21.9c-4.3,2.5-4.3,6.5,0,9l37.9,21.9c4.3,2.5,11.3,2.5,15.6,0 l37.9-21.9c4.3-2.5,4.3-6.5,0-9L88,406.9z" class="st29"/><path d="M88,407c-4.3-2.5-11.3-2.5-15.5,0l-37.7,21.7c-4.3,2.5-4.3,6.5,0,9l37.7,21.7c4.3,2.5,11.3,2.5,15.5,0 l37.7-21.7c4.3-2.5,4.3-6.5,0-9L88,407z" class="st30"/><path d="M87.9,407.2c-4.3-2.5-11.2-2.5-15.5,0L35,428.8c-4.3,2.5-4.3,6.5,0,8.9l37.5,21.6 c4.3,2.5,11.2,2.5,15.5,0l37.4-21.6c4.3-2.5,4.3-6.5,0-8.9L87.9,407.2z" class="st31"/><path d="M87.9,407.3c-4.2-2.4-11.1-2.4-15.4,0l-37.2,21.5c-4.2,2.4-4.2,6.4,0,8.9l37.2,21.5 c4.2,2.4,11.1,2.4,15.4,0l37.2-21.5c4.2-2.4,4.2-6.4,0-8.9L87.9,407.3z" class="st32"/><path d="M87.8,407.4c-4.2-2.4-11.1-2.4-15.3,0l-37,21.4c-4.2,2.4-4.2,6.4,0,8.8l37,21.4c4.2,2.4,11.1,2.4,15.3,0 l37-21.4c4.2-2.4,4.2-6.4,0-8.8L87.8,407.4z" class="st33"/><path d="M87.8,407.6c-4.2-2.4-11-2.4-15.2,0l-36.8,21.3c-4.2,2.4-4.2,6.4,0,8.8l36.8,21.3c4.2,2.4,11,2.4,15.2,0 l36.8-21.3c4.2-2.4,4.2-6.4,0-8.8L87.8,407.6z" class="st34"/><path d="M87.8,407.7c-4.2-2.4-11-2.4-15.1,0L36,428.9c-4.2,2.4-4.2,6.3,0,8.7l36.6,21.1c4.2,2.4,11,2.4,15.1,0 l36.6-21.1c4.2-2.4,4.2-6.3,0-8.7L87.8,407.7z" class="st35"/><path d="M87.7,407.9c-4.1-2.4-10.9-2.4-15,0l-36.4,21c-4.1,2.4-4.1,6.3,0,8.7l36.4,21c4.1,2.4,10.9,2.4,15,0 l36.4-21c4.1-2.4,4.1-6.3,0-8.7L87.7,407.9z" class="st36"/><path d="M87.7,408c-4.1-2.4-10.8-2.4-14.9,0l-36.2,20.9c-4.1,2.4-4.1,6.3,0,8.6l36.2,20.9 c4.1,2.4,10.8,2.4,14.9,0l36.2-20.9c4.1-2.4,4.1-6.3,0-8.6L87.7,408z" class="st37"/><path d="M87.6,408.2c-4.1-2.4-10.8-2.4-14.9,0l-36,20.8c-4.1,2.4-4.1,6.2,0,8.6l36,20.8c4.1,2.4,10.8,2.4,14.9,0 l36-20.8c4.1-2.4,4.1-6.2,0-8.6L87.6,408.2z" class="st38"/><path d="M87.6,408.3c-4.1-2.3-10.7-2.3-14.8,0L37,429c-4.1,2.3-4.1,6.2,0,8.5l35.8,20.7c4.1,2.3,10.7,2.3,14.8,0 l35.8-20.7c4.1-2.3,4.1-6.2,0-8.5L87.6,408.3z" class="st39"/><path d="M87.5,408.5c-4-2.3-10.6-2.3-14.7,0L37.3,429c-4,2.3-4,6.1,0,8.5L72.9,458c4,2.3,10.6,2.3,14.7,0 l35.6-20.5c4-2.3,4-6.1,0-8.5L87.5,408.5z" class="st40"/><path d="M87.5,408.6c-4-2.3-10.6-2.3-14.6,0L37.6,429c-4,2.3-4,6.1,0,8.4l35.4,20.4c4,2.3,10.6,2.3,14.6,0 l35.4-20.4c4-2.3,4-6.1,0-8.4L87.5,408.6z" class="st41"/><path d="M87.5,408.8c-4-2.3-10.5-2.3-14.5,0l-35.1,20.3c-4,2.3-4,6.1,0,8.4L73,457.7c4,2.3,10.5,2.3,14.5,0 l35.1-20.3c4-2.3,4-6.1,0-8.4L87.5,408.8z" class="st42"/><path d="M87.4,408.9c-4-2.3-10.5-2.3-14.4,0l-34.9,20.2c-4,2.3-4,6,0,8.3L73,457.6c4,2.3,10.5,2.3,14.4,0 l34.9-20.2c4-2.3,4-6,0-8.3L87.4,408.9z" class="st43"/><path d="M87.4,409.1c-3.9-2.3-10.4-2.3-14.3,0l-34.7,20c-3.9,2.3-3.9,6,0,8.3l34.7,20c3.9,2.3,10.4,2.3,14.3,0 l34.7-20c3.9-2.3,3.9-6,0-8.3L87.4,409.1z" class="st44"/><path d="M87.3,409.2c-3.9-2.3-10.3-2.3-14.2,0l-34.5,19.9c-3.9,2.3-3.9,6,0,8.2l34.5,19.9 c3.9,2.3,10.3,2.3,14.2,0l34.5-19.9c3.9-2.3,3.9-6,0-8.2L87.3,409.2z" class="st45"/><path d="M87.3,409.4c-3.9-2.2-10.3-2.2-14.2,0l-34.3,19.8c-3.9,2.2-3.9,5.9,0,8.2l34.3,19.8 c3.9,2.2,10.3,2.2,14.2,0l34.3-19.8c3.9-2.2,3.9-5.9,0-8.2L87.3,409.4z" class="st46"/><path d="M87.2,409.5c-3.9-2.2-10.2-2.2-14.1,0l-34.1,19.7c-3.9,2.2-3.9,5.9,0,8.1L73.2,457 c3.9,2.2,10.2,2.2,14.1,0l34.1-19.7c3.9-2.2,3.9-5.9,0-8.1L87.2,409.5z" class="st47"/><path d="M87.2,409.6c-3.8-2.2-10.1-2.2-14,0l-33.9,19.6c-3.8,2.2-3.8,5.9,0,8.1l33.9,19.6c3.8,2.2,10.1,2.2,14,0 l33.9-19.6c3.8-2.2,3.8-5.9,0-8.1L87.2,409.6z" class="st48"/><path d="M87.2,409.8c-3.8-2.2-10.1-2.2-13.9,0l-33.7,19.4c-3.8,2.2-3.8,5.8,0,8l33.7,19.4 c3.8,2.2,10.1,2.2,13.9,0l33.7-19.4c3.8-2.2,3.8-5.8,0-8L87.2,409.8z" class="st49"/><path d="M87.1,409.9c-3.8-2.2-10-2.2-13.8,0l-33.5,19.3c-3.8,2.2-3.8,5.8,0,8l33.5,19.3c3.8,2.2,10,2.2,13.8,0 l33.5-19.3c3.8-2.2,3.8-5.8,0-8L87.1,409.9z" class="st50"/><path d="M87.1,410.1c-3.8-2.2-10-2.2-13.7,0l-33.3,19.2c-3.8,2.2-3.8,5.7,0,7.9l33.3,19.2c3.8,2.2,10,2.2,13.7,0 l33.3-19.2c3.8-2.2,3.8-5.7,0-7.9L87.1,410.1z" class="st51"/><path id="XMLID_726_" d="M87,410.2c-3.8-2.2-9.9-2.2-13.6,0l-33,19.1c-3.8,2.2-3.8,5.7,0,7.9l33,19.1 c3.8,2.2,9.9,2.2,13.6,0l33-19.1c3.8-2.2,3.8-5.7,0-7.9L87,410.2z" class="st52"/></g><linearGradient id="XMLID_75_" x1="29.122" x2="131.284" y1="431.737" y2="431.737" gradientUnits="userSpaceOnUse"><stop offset="0" stop-color="#B4ACBF"/><stop offset=".515" stop-color="#D1C8DE"/><stop offset="1" stop-color="#F0E5FF"/></linearGradient><path id="XMLID_882_" d="M78.2,402.3l-49,23.3v6.7c0,0.4,0.2,0.7,0.5,0.9l48.5,28c1.3,0.7,2.8,0.7,4.1,0l48.4-28 c0.4-0.2,0.6-0.6,0.6-1.1v-6.6l-49-23.3C81,401.5,79.4,401.5,78.2,402.3z" class="st126"/><linearGradient id="XMLID_76_" x1="29.121" x2="131.284" y1="425.554" y2="425.554" gradientUnits="userSpaceOnUse"><stop offset="0" stop-color="#F0E5FF"/><stop offset="1" stop-color="#FFF"/></linearGradient><path id="XMLID_881_" d="M78.2,396.1l-48,27.7c-1.4,0.8-1.4,2.7,0,3.5l48,27.7c1.3,0.7,2.8,0.7,4.1,0l48-27.7 c1.4-0.8,1.4-2.7,0-3.5l-48-27.7C81,395.3,79.4,395.3,78.2,396.1z" class="st127"/></g><g><linearGradient id="XMLID_77_" x1="43.493" x2="116.362" y1="424.609" y2="424.609" gradientUnits="userSpaceOnUse"><stop offset="0" stop-color="#F0E5FF"/><stop offset="1" stop-color="#FFF"/></linearGradient><path id="XMLID_876_" d="M78.5,403.6l-34.2,19.8c-1,0.6-1,1.9,0,2.5l34.2,19.8c0.9,0.5,2,0.5,2.9,0l34.2-19.8 c1-0.6,1-1.9,0-2.5l-34.2-19.8C80.5,403.1,79.4,403.1,78.5,403.6z" class="st128"/><linearGradient id="XMLID_78_" x1="43.5" x2="116.355" y1="434.916" y2="434.916" gradientUnits="userSpaceOnUse"><stop offset=".15" stop-color="#FF9800"/><stop offset="1" stop-color="#FFC107"/></linearGradient><path id="XMLID_875_" d="M115.6,424.3L81.4,444c-0.9,0.5-2,0.5-2.9,0l-34.2-19.8c-0.2-0.1-0.4-0.3-0.5-0.4 c-0.4,0.7-0.3,1.6,0.5,2.1l34.2,19.8c0.9,0.5,2,0.5,2.9,0l34.2-19.8c0.8-0.4,0.9-1.4,0.5-2.1C116,424,115.8,424.1,115.6,424.3z" class="st129"/><linearGradient id="XMLID_79_" x1="43.5" x2="116.355" y1="434.916" y2="434.916" gradientUnits="userSpaceOnUse"><stop offset="0" stop-color="#B4ACBF"/><stop offset=".515" stop-color="#D1C8DE"/><stop offset="1" stop-color="#F0E5FF"/></linearGradient><path id="XMLID_874_" d="M115.6,424.3L81.4,444c-0.9,0.5-2,0.5-2.9,0l-34.2-19.8c-0.2-0.1-0.4-0.3-0.5-0.4 c-0.4,0.7-0.3,1.6,0.5,2.1l34.2,19.8c0.9,0.5,2,0.5,2.9,0l34.2-19.8c0.8-0.4,0.9-1.4,0.5-2.1C116,424,115.8,424.1,115.6,424.3z" class="st130"/></g></g></g></g></svg>