<svg xmlns="http://www.w3.org/2000/svg" xmlns:xlink="http://www.w3.org/1999/xlink" id="Layer_1" x="0" y="0" enable-background="new 0 0 400 400" version="1.1" viewBox="0 0 400 400" xml:space="preserve"><style type="text/css">.st0{fill:#ff4a00}</style><path d="M250,200.1c0,14.9-2.7,29.1-7.7,42.2c-13.1,5-27.4,7.7-42.2,7.7h-0.2c-14.9,0-29.1-2.7-42.2-7.7	c-5-13.1-7.7-27.4-7.7-42.2v-0.2c0-14.9,2.7-29.1,7.7-42.2c13.1-5,27.4-7.7,42.2-7.7h0.2c14.9,0,29.1,2.7,42.2,7.7	c4.9,13.1,7.7,27.4,7.7,42.2L250,200.1L250,200.1L250,200.1z M397.2,166.7H280.5L363,84.1c-6.5-9.1-13.7-17.6-21.6-25.5l0,0	c-7.9-7.9-16.4-15.1-25.5-21.6l-82.6,82.6V2.8c-11-1.8-22.1-2.8-33.2-2.8h-0.2c-11.1,0-22.2,0.9-33.2,2.8v116.7L84.1,37	C75,43.5,66.5,50.7,58.6,58.6l0,0C50.7,66.5,43.4,75,37,84.1l82.6,82.6H2.8c0,0-2.8,21.9-2.8,33.3v0.1c0,11.1,0.9,22.3,2.8,33.3	h116.7L37,315.9C50,334.1,65.9,350,84.1,363l82.6-82.5v116.7c11,1.8,22.1,2.8,33.2,2.8h0.3c11.1,0,22.2-0.9,33.2-2.8V280.5	l82.5,82.6c9.1-6.5,17.6-13.7,25.5-21.6l0,0c7.9-7.9,15.1-16.4,21.6-25.5l-82.5-82.6h116.7c1.8-11,2.8-22.1,2.8-33.2v-0.3	C400,188.7,399.1,177.6,397.2,166.7L397.2,166.7z" class="st0"/></svg>