<svg xmlns="http://www.w3.org/2000/svg" xmlns:xlink="http://www.w3.org/1999/xlink" id="Your_design" x="0" y="0" enable-background="new 0 0 500 100" version="1.1" viewBox="0 0 500 100" xml:space="preserve"><style type="text/css">.st0{fill:#f3ba2f}</style><g><polygon points="30.6 42 50 22.6 69.4 42 80.7 30.7 50 0 19.3 30.7" class="st0"/><rect width="16" height="16" x="3.3" y="42" class="st0" transform="matrix(0.7071 -0.7071 0.7071 0.7071 -32.0432 22.638)"/><polygon points="30.6 58 50 77.4 69.4 58 80.7 69.3 80.7 69.3 50 100 19.3 69.3 19.3 69.3" class="st0"/><rect width="16" height="16" x="80.7" y="42" class="st0" transform="matrix(0.7071 -0.7071 0.7071 0.7071 -9.3766 77.3706)"/><polygon points="61.5 50 61.5 50 50 38.5 41.5 47 41.5 47 40.6 48 38.5 50 38.5 50 38.5 50 38.5 50 50 61.5 61.5 50 61.5 50" class="st0"/><path d="M117.6,24.2h24.6c6.1,0,10.7,1.6,13.8,4.7c2.4,2.4,3.6,5.4,3.6,9v0.2c0,1.5-0.2,2.9-0.6,4 c-0.4,1.2-0.9,2.2-1.5,3.1c-0.6,0.9-1.4,1.8-2.2,2.5c-0.8,0.7-1.7,1.3-2.7,1.8c3.1,1.2,5.5,2.7,7.2,4.7c1.8,2,2.6,4.8,2.6,8.3v0.2 c0,2.4-0.5,4.5-1.4,6.4c-0.9,1.8-2.3,3.3-4,4.5c-1.7,1.2-3.8,2.1-6.3,2.7c-2.4,0.6-5.2,0.9-8.1,0.9h-25.2V24.2z M139.7,45.7 c2.6,0,4.6-0.4,6.1-1.3c1.5-0.9,2.3-2.3,2.3-4.3v-0.2c0-1.8-0.7-3.1-2-4.1c-1.3-0.9-3.2-1.4-5.7-1.4H129v11.2 C129,45.7,139.7,45.7,139.7,45.7z M142.8,67c2.6,0,4.6-0.5,6.1-1.4c1.5-0.9,2.2-2.4,2.2-4.4v-0.2c0-1.8-0.7-3.2-2-4.2 c-1.4-1-3.6-1.6-6.6-1.6H129V67L142.8,67L142.8,67z" class="st0"/><path d="M177.3,24.2h11.7v53h-11.7V24.2z" class="st0"/><path d="M206.6,24.2h10.8l24.8,32.7V24.2h11.5v53h-9.9l-25.7-33.7v33.7h-11.5V24.2z" class="st0"/><path d="M289,23.9h10.8l22.7,53.4h-12.2l-4.8-11.9h-22.4l-4.8,11.9h-11.9L289,23.9z M301.3,55.1l-7-17.2l-7,17.2H301.3 z" class="st0"/><path d="M335.1,24.2h10.8l24.8,32.7V24.2h11.5v53h-9.9l-25.7-33.7v33.7h-11.5V24.2z" class="st0"/><path d="M424.2,78.2c-3.9,0-7.5-0.7-10.8-2.1s-6.2-3.3-8.6-5.8c-2.4-2.4-4.3-5.3-5.7-8.7c-1.4-3.3-2-6.9-2-10.7v-0.2 c0-3.8,0.7-7.3,2-10.6c1.4-3.3,3.3-6.2,5.7-8.7c2.4-2.5,5.3-4.5,8.7-5.9c3.4-1.4,7.1-2.2,11.2-2.2c2.5,0,4.7,0.2,6.8,0.6 c2,0.4,3.9,1,5.6,1.7c1.7,0.7,3.2,1.6,4.6,2.6c1.4,1,2.7,2.1,3.9,3.3l-7.4,8.6c-2.1-1.9-4.2-3.3-6.3-4.4c-2.1-1.1-4.6-1.6-7.2-1.6 c-2.2,0-4.3,0.4-6.2,1.3c-1.9,0.9-3.5,2-4.9,3.6c-1.4,1.5-2.4,3.3-3.2,5.3c-0.8,2-1.1,4.1-1.1,6.4v0.2c0,2.3,0.4,4.4,1.1,6.4 c0.8,2,1.8,3.8,3.1,5.3c1.3,1.5,3,2.7,4.8,3.6c1.9,0.9,4,1.3,6.3,1.3c3,0,5.6-0.6,7.7-1.7c2.1-1.1,4.2-2.6,6.3-4.5l7.4,7.5 c-1.4,1.5-2.8,2.8-4.2,3.9c-1.5,1.2-3.1,2.2-4.8,3c-1.7,0.8-3.6,1.5-5.7,1.9C429.1,78,426.8,78.2,424.2,78.2z" class="st0"/><path d="M459.7,24.2h39.9v10.4h-28.4v10.8h25v10.4h-25v11.1H500v10.4h-40.3V24.2z" class="st0"/></g></svg>