<svg xmlns="http://www.w3.org/2000/svg" id="Layer_1" data-name="Layer 1" viewBox="0 0 400 400"><defs><style>.cls-1{fill:#dfcdf7}.cls-2{fill:none;stroke:#ffa744;stroke-miterlimit:10;stroke-width:10px}.cls-3{fill:#491e8c}</style></defs><title>Artboard 1 copy 3</title><path d="M50,22.36,83.82,90H16.18L50,22.36M50,0,0,100H100L50,0Z" class="cls-1"/><path d="M200,10a40,40,0,1,1-40,40,40,40,0,0,1,40-40h0m0-10h0a50,50,0,1,0,50,50A50.05,50.05,0,0,0,200,0Z" class="cls-1"/><path d="M50,150h0a50,50,0,1,0,50,50A50.05,50.05,0,0,0,50,150Z" class="cls-1"/><path d="M200,322.36,233.82,390H166.18L200,322.36M200,300,150,400H250L200,300Z" class="cls-1"/><path d="M350,310a40,40,0,1,1-40,40,40,40,0,0,1,40-40h0m0-10h0a50,50,0,1,0,50,50,50.05,50.05,0,0,0-50-50Z" class="cls-1"/><rect width="100" height="100" x="300" class="cls-1" rx="10" ry="10"/><rect width="100" height="100" y="300" class="cls-1" rx="10" ry="10"/><rect width="100" height="100" x="150" y="150" class="cls-1" rx="10" ry="10"/><path d="M350,172.36,383.82,240H316.18L350,172.36M350,150,300,250H400L350,150Z" class="cls-1"/><polyline points="350 50.01 200.01 200 50.01 200 50.01 350" class="cls-2"/><path d="M50,175h0a25,25,0,1,0,25,25A25,25,0,0,0,50,175Z" class="cls-3"/><rect width="50" height="50" x="325" y="25" class="cls-3" rx="5" ry="5"/><rect width="50" height="50" x="25" y="325" class="cls-3" rx="5" ry="5"/><rect width="50" height="50" x="175" y="175" class="cls-3" rx="5" ry="5"/></svg>