<svg xmlns="http://www.w3.org/2000/svg" xmlns:xlink="http://www.w3.org/1999/xlink" id="Layer_1" x="0" y="0" enable-background="new 0 0 160 40" version="1.1" viewBox="0 0 160 40" xml:space="preserve"><style type="text/css">.st0{fill:#5a28c6}</style><g><path d="M137.5,10.4l1.4,1.1c0.4-0.7,0.7-1.3,1.6-2.7C138.7,9.6,137.5,10.4,137.5,10.4z" class="st0"/><path d="M126,8.7c0-0.3-0.1-1-0.2-1.3c-0.2-0.7-1.2-2.2-1.6-2.9c0,0-0.1,0-0.1,0l1.6,4.4c0,0,0.1-0.1,0.1-0.1 C125.9,8.7,126,8.7,126,8.7z" class="st0"/><path d="M124.4,10.3c-0.1,0.1-0.3,0-0.3,0s-1.2-1.3-1.5-1.4c-0.7-0.4-2.8-0.7-3.5-0.8c0,0-0.1,0.1,0,0.1 c0,0,4.9,2.5,5,2.5C124.2,10.5,124.3,10.4,124.4,10.3z" class="st0"/><path d="M145.6,36c0.4,0.3,1.2,0.2,1.6,0.2l0.5-0.1c0,0,0-0.1,0-0.1c-0.8-0.3-4-2.1-4.6-3.2c-0.1-0.3,0.4-2,0.4-2 L141,30c0,0,0.9,2.5,1.3,3C142.9,33.8,144.6,35.3,145.6,36z" class="st0"/><path d="M147.5,23.5c-0.3-0.2-0.3,0-1.1,2c-0.8,2-2.9,4.6-6.3,3.9c0.1,0.2,0.3,0.3,0.5,0.4c0.2,0.2,0.9,0.7,0.9,0.7 s1.5,1.3,2.9,1.5c3.4,0.7,4.9-3.1,5.3-4.3c0.3-0.7,0.5-2.1,0.6-3c0-0.2,0-0.6-0.1-0.5c-0.3,0.3-0.8,0.3-1.3,0.2 C148.4,24.3,147.7,23.7,147.5,23.5z" class="st0"/><path d="M156.9,1.3c-0.3-0.4-0.6-0.6-0.9-0.8c-0.9-0.6-2.3-0.8-4.4,0c-2.2,0.8-3.9,1.9-5.4,3.1 c-4.6,3.5-6.4,8.2-6.4,8.2s0.8,0.5,1.2,0.6c0.8,0.4,2,1.1,2,1.1s5.7,0.3,9.6-2.1c1.8-1.1,4.5-5.6,4.7-8.4 C157.4,2.5,157.3,1.8,156.9,1.3z" class="st0"/><path d="M160,8.1c0-0.8-2.4-1.7-2.7-1.2c-0.8,1.6-1.9,4-4.4,5.4C155.2,11.7,160.1,10.4,160,8.1z" class="st0"/><path d="M140.1,16.1c-3.1,1.5-4,4.4-3.9,6.4c0,0.6,0.1,1.1,0.2,1.6c0.2,0.6,0.2,0.8,0.5,1.3c0.4-3.2,1.6-5.8,3.8-7.4 c1.4-1,2.6-1.2,3.5-1.2c0.3,0,0.9,0,1,0.1C144.8,16.4,143,14.7,140.1,16.1z" class="st0"/><path d="M147,18.4c-0.5-0.5-0.7-0.5-1.2-0.8c-0.7-0.1-2-0.1-3.4,0.6c-2.4,1.2-3.6,3.2-4.5,5.9c-0.4,1-0.5,2.4-0.4,2.4 c0.8,1.1,1.1,1.8,2.2,2.1c3,0.7,5-2,5.9-3.8c0.4-1,1.1-2.8,1.3-2.9c0.3-0.2,1,0.8,1.4,1.3c0.6,0.6,1,0.8,1.6,0.6 C151.4,23.4,148.1,19.4,147,18.4z" class="st0"/><path d="M143.1,38.9c-0.6-0.4-3.7-2.6-4.2-3.8c-0.3-0.7,0.1-2.3,0-3.1c-0.1-0.3-0.4-1.6-0.7-2.4 c-0.5-1.4-2.2-4.1-2.6-5.6c-0.1-0.3-1-3.8,1-6.4c2.7-3.5,5.2-3.2,6.1-2.9c-0.6-0.8-3.1-1.5-4-2.1c-1.1-0.8-2.8-2.6-4.2-3.3 c-0.3-0.2-0.6-0.3-1-0.4c-0.3-0.1-0.7-0.1-1.1-0.1c-0.6,0-4.2,0.3-5.9,4.8c-1.1,2.9-0.2,4.2,0,4.6c0.1,0.1,0.2,0.2,0.3,0.3 c0.8,0.8,2.4,2,2.4,3.2c0,0.6-0.9,1.2-1,1.8c-0.2,1.2,0.8,3.9,1.1,5c0.4,1.2,1.8,4.6,1.8,4.6c0-0.3,0.1-0.6,0.2-0.7 c0,0,0.5,0.2,0.7,0.4l0.1,0.2c0,0,0-0.1-0.1-0.2c-0.3-0.6-1.2-2.5-1.6-3.3c-0.1-0.3-0.3-0.8-0.5-1.1c-0.3-0.7,0-2.6,0.3-3.4 c0.4-0.8,1.5-1,1.5-1s3.4,4.2,4.1,5.8c0.5,1.1,0.7,3.7,1.2,4.7c0.5,1,2.5,3,3.6,4c0.4,0.4,1,0.6,1.6,0.6L143.1,38.9 C143.1,39,143.1,39,143.1,38.9z" class="st0"/><path d="M126.1,18.8c-0.1-0.1-0.3-0.3-0.3-0.4c-0.1-0.3-0.6-1-0.5-2.2c0-0.6-0.1-0.1-0.1-0.1c-0.3,0.7-0.3,2.2,0.1,3.3 c0.4,1.1-0.4,2.2-0.8,2.9c-0.3,0.6-0.3,0.8-0.1,0.5c0.4-0.3,1.7-1.5,1.9-2c0,0,0.3-0.3,0.3-1.4C126.5,19.2,126.3,19,126.1,18.8z" class="st0"/><path d="M129.2,8.9c0.8-0.4,1.4-0.4,1.2-0.4c-0.8,0-1.7,0.1-2.6,0.8c0,0-0.1,0-0.2-0.1c-0.3-0.3-1-0.5-1.4-0.4 c-0.8,0.1-1.6,0.3-2.4,1.5c-0.8,1.2-2.2,5.3-0.9,6.1c0.4,0.2,1.6-0.7,2.5-1.3c0.2-0.5,0.4-1.4,0.7-2.1 C127.2,9.9,128.5,9.4,129.2,8.9z M125.7,10.2c-0.3,0.2-0.9,0.3-1.1,0c-0.1-0.2,0.4-0.5,0.7-0.4C125.4,9.9,125.8,10.1,125.7,10.2z" class="st0"/><path d="M8.3,23.8c0.7,0,1.3-0.1,1.8-0.3c0.5-0.2,0.8-0.4,1.1-0.7c0.3-0.3,0.5-0.6,0.6-1c0.1-0.4,0.2-0.7,0.2-1.1 c0-0.4-0.1-0.8-0.2-1.1c-0.1-0.3-0.3-0.6-0.6-0.9c-0.3-0.3-0.6-0.4-1.1-0.5c-0.5-0.1-1-0.2-1.7-0.2H4.5v5.8L8.3,23.8L8.3,23.8z M4.5,9.4v5.7h2.9c0.6,0,1.2-0.1,1.7-0.2c0.5-0.1,0.9-0.3,1.2-0.5c0.3-0.2,0.6-0.5,0.7-0.9c0.2-0.4,0.3-0.8,0.3-1.3 c0-0.5-0.1-1-0.2-1.3c-0.2-0.3-0.4-0.7-0.6-0.9c-0.3-0.2-0.7-0.4-1.1-0.5c-0.5-0.1-1-0.2-1.6-0.2L4.5,9.4z M7.7,6.1 c1.5,0,2.7,0.1,3.7,0.4c1,0.3,1.9,0.6,2.5,1.1c0.6,0.5,1.1,1.1,1.4,1.8c0.3,0.7,0.5,1.5,0.5,2.3c0,0.5-0.1,1-0.2,1.4 c-0.1,0.4-0.4,0.9-0.7,1.3c-0.3,0.4-0.7,0.8-1.2,1.1c-0.5,0.3-1,0.6-1.7,0.8c1.5,0.3,2.6,0.9,3.3,1.6c0.7,0.8,1.1,1.8,1.1,3 c0,0.9-0.2,1.7-0.5,2.5c-0.4,0.8-0.9,1.4-1.6,2c-0.7,0.6-1.5,1-2.5,1.3c-1,0.3-2.1,0.5-3.4,0.5H0.1V6.1L7.7,6.1L7.7,6.1z M26.1,11.9c1.2,0,2.2,0.2,3.1,0.5c0.9,0.3,1.7,0.9,2.4,1.6c0.7,0.7,1.2,1.5,1.6,2.4c0.4,1,0.5,2,0.5,3.2c0,1.2-0.2,2.3-0.5,3.2 c-0.4,1-0.9,1.8-1.6,2.4c-0.7,0.7-1.5,1.2-2.4,1.6c-0.9,0.3-2,0.5-3.1,0.5c-1.2,0-2.2-0.2-3.2-0.5c-0.9-0.3-1.7-0.9-2.4-1.6 c-0.7-0.7-1.2-1.5-1.6-2.4c-0.4-1-0.5-2-0.5-3.2c0-1.2,0.2-2.3,0.5-3.2c0.4-1,0.9-1.8,1.6-2.4c0.7-0.7,1.5-1.2,2.4-1.6 C23.9,12.1,25,11.9,26.1,11.9z M26.1,24.4c1.2,0,2-0.4,2.6-1.2c0.5-0.8,0.8-2,0.8-3.6c0-1.6-0.3-2.7-0.8-3.5 c-0.5-0.8-1.4-1.2-2.6-1.2c-1.2,0-2.1,0.4-2.7,1.2c-0.6,0.8-0.8,2-0.8,3.5c0,1.6,0.3,2.8,0.8,3.6C24.1,24,24.9,24.4,26.1,24.4z M49.9,12.2v15h-2.5c-0.5,0-0.9-0.2-1-0.7l-0.3-1c-0.3,0.3-0.6,0.6-0.9,0.8c-0.3,0.3-0.7,0.4-1,0.6c-0.4,0.2-0.8,0.3-1.2,0.4 c-0.4,0.1-0.9,0.2-1.4,0.2c-0.8,0-1.6-0.1-2.2-0.4c-0.6-0.3-1.2-0.7-1.6-1.2c-0.4-0.5-0.8-1.1-1-1.8c-0.2-0.7-0.4-1.5-0.4-2.3v-9.5 h4.1v9.5c0,0.8,0.2,1.5,0.6,1.9c0.4,0.5,1,0.7,1.7,0.7c0.6,0,1.1-0.1,1.6-0.4c0.5-0.3,1-0.6,1.5-1V12.2L49.9,12.2z M57.1,13.9 c0.3-0.3,0.6-0.6,1-0.8c0.4-0.2,0.7-0.4,1.1-0.6c0.4-0.2,0.8-0.3,1.2-0.4c0.4-0.1,0.9-0.2,1.4-0.2c0.8,0,1.6,0.1,2.2,0.4 c0.6,0.3,1.2,0.7,1.6,1.2c0.5,0.5,0.8,1.1,1,1.8c0.2,0.7,0.3,1.5,0.3,2.3v9.6h-4.1v-9.5c0-0.8-0.2-1.5-0.6-1.9 c-0.4-0.5-1-0.7-1.7-0.7c-0.6,0-1.1,0.1-1.6,0.3c-0.5,0.3-1,0.6-1.5,1v10.8h-4.1v-15h2.5c0.5,0,0.9,0.2,1,0.7L57.1,13.9z M86.1,27.2H82V15.1h-6.8v7.8c0,0.4,0.1,0.8,0.3,1c0.2,0.3,0.5,0.4,0.9,0.4c0.2,0,0.4,0,0.5-0.1c0.1,0,0.3-0.1,0.4-0.2 c0.1-0.1,0.2-0.1,0.3-0.2c0.1,0,0.2-0.1,0.3-0.1c0.1,0,0.2,0,0.3,0.1c0.1,0.1,0.2,0.2,0.2,0.3l1.2,1.9c-0.5,0.4-1.2,0.8-1.9,1 c-0.7,0.2-1.5,0.3-2.2,0.3c-0.7,0-1.3-0.1-1.8-0.3c-0.6-0.2-1-0.5-1.4-0.9c-0.4-0.4-0.6-0.8-0.8-1.3c-0.2-0.5-0.3-1.1-0.3-1.8v-8.1 h-1.5c-0.2,0-0.4-0.1-0.5-0.2c-0.2-0.1-0.2-0.3-0.2-0.6v-1.6l2.5-0.4l0.8-3.9c0.1-0.4,0.4-0.7,0.9-0.7h2.1v4.6h10.9L86.1,27.2z M86.8,7.9c0,0.3-0.1,0.6-0.2,1c-0.1,0.3-0.3,0.5-0.5,0.8c-0.2,0.2-0.5,0.4-0.8,0.5c-0.3,0.2-0.6,0.2-1,0.2c-0.3,0-0.6-0.1-1-0.2 c-0.3-0.1-0.6-0.3-0.8-0.5c-0.2-0.2-0.4-0.5-0.5-0.8c-0.1-0.3-0.2-0.6-0.2-1c0-0.3,0.1-0.7,0.2-1c0.1-0.3,0.3-0.6,0.5-0.8 c0.2-0.2,0.5-0.4,0.8-0.5c0.3-0.1,0.6-0.2,1-0.2c0.4,0,0.7,0.1,1,0.2c0.3,0.1,0.6,0.3,0.8,0.5c0.2,0.2,0.4,0.5,0.5,0.8 C86.7,7.2,86.8,7.5,86.8,7.9z M99.4,17.9c0-0.4-0.1-0.8-0.2-1.2c-0.1-0.4-0.3-0.7-0.5-1c-0.3-0.3-0.5-0.5-0.9-0.7 c-0.4-0.2-0.8-0.3-1.4-0.3c-1,0-1.7,0.3-2.3,0.8c-0.5,0.5-0.9,1.3-1.1,2.3L99.4,17.9L99.4,17.9L99.4,17.9z M92.9,20.3 c0.1,1.4,0.5,2.4,1.2,3.1c0.7,0.7,1.6,1,2.7,1c0.5,0,1.1-0.1,1.5-0.2c0.4-0.1,0.8-0.3,1.1-0.4c0.3-0.2,0.6-0.3,0.8-0.4 c0.3-0.1,0.5-0.2,0.7-0.2c0.3,0,0.5,0.1,0.7,0.3l1.2,1.5c-0.4,0.5-0.9,0.9-1.5,1.2c-0.5,0.3-1.1,0.6-1.6,0.8 c-0.5,0.2-1.1,0.3-1.7,0.4c-0.6,0.1-1.1,0.1-1.7,0.1c-1.1,0-2.1-0.2-3-0.5c-0.9-0.3-1.7-0.9-2.4-1.5c-0.7-0.7-1.2-1.5-1.6-2.5 c-0.4-1-0.6-2.2-0.6-3.5c0-1,0.2-2,0.5-2.9c0.4-0.9,0.8-1.7,1.5-2.4c0.6-0.7,1.4-1.2,2.4-1.6c0.9-0.4,2-0.6,3.1-0.6 c1,0,1.9,0.2,2.7,0.4c0.8,0.3,1.6,0.8,2.1,1.3c0.6,0.6,1.1,1.3,1.4,2.2c0.3,0.9,0.5,1.8,0.5,2.9c0,0.3,0,0.5,0,0.7 c0,0.2-0.1,0.3-0.2,0.5c-0.1,0.1-0.2,0.2-0.3,0.3c-0.1,0-0.3,0.1-0.5,0.1L92.9,20.3z M115.1,15.2c-0.1,0.2-0.2,0.3-0.3,0.3 c-0.1,0.1-0.3,0.1-0.5,0.1c-0.2,0-0.4-0.1-0.6-0.2c-0.2-0.1-0.5-0.2-0.7-0.3c-0.3-0.1-0.5-0.2-0.9-0.3c-0.3-0.1-0.7-0.2-1.2-0.2 c-0.7,0-1.2,0.1-1.6,0.4c-0.4,0.3-0.5,0.6-0.5,1c0,0.3,0.1,0.5,0.3,0.8c0.2,0.2,0.5,0.4,0.8,0.5c0.4,0.2,0.7,0.3,1.2,0.4 c0.4,0.1,0.9,0.3,1.4,0.4c0.5,0.2,0.9,0.3,1.4,0.5c0.4,0.2,0.8,0.4,1.2,0.8c0.4,0.3,0.6,0.7,0.8,1.1c0.2,0.4,0.3,1,0.3,1.6 c0,0.7-0.1,1.4-0.4,2c-0.3,0.6-0.7,1.1-1.2,1.6c-0.5,0.4-1.2,0.8-2,1c-0.8,0.3-1.7,0.4-2.7,0.4c-0.5,0-1,0-1.6-0.1 c-0.5-0.1-1-0.2-1.5-0.4c-0.5-0.2-0.9-0.4-1.3-0.6c-0.4-0.2-0.7-0.5-1.1-0.7l0.9-1.5c0.1-0.2,0.3-0.3,0.4-0.4 c0.2-0.1,0.4-0.2,0.6-0.2c0.3,0,0.5,0.1,0.7,0.2c0.2,0.1,0.5,0.3,0.7,0.4c0.3,0.1,0.5,0.3,0.9,0.4c0.4,0.1,0.8,0.2,1.3,0.2 c0.4,0,0.7,0,1-0.1c0.3-0.1,0.5-0.2,0.7-0.3c0.2-0.2,0.3-0.3,0.4-0.5c0.1-0.2,0.1-0.4,0.1-0.6c0-0.3-0.1-0.6-0.3-0.8 c-0.2-0.2-0.5-0.4-0.8-0.5c-0.4-0.2-0.7-0.3-1.2-0.4c-0.5-0.1-0.9-0.3-1.4-0.4c-0.5-0.2-0.9-0.3-1.4-0.5c-0.5-0.2-0.8-0.5-1.2-0.8 c-0.4-0.3-0.6-0.7-0.8-1.2c-0.2-0.5-0.3-1-0.3-1.7c0-0.6,0.1-1.2,0.4-1.8c0.3-0.6,0.6-1,1.1-1.5c0.5-0.4,1.1-0.8,1.8-1 c0.7-0.3,1.6-0.4,2.6-0.4c1.1,0,2.1,0.2,3,0.5c0.9,0.3,1.6,0.8,2.2,1.4L115.1,15.2z" class="st0"/><path d="M0.8,31.2c0.1,0,0.1,0,0.2,0s0.1,0,0.1,0c0,0,0.1,0,0.1,0.1c0,0,0.1,0.1,0.1,0.1l4.7,5.8c0-0.1,0-0.3,0-0.4 c0-0.1,0-0.3,0-0.4v-5.3h1.5v8.7H6.7c-0.1,0-0.2,0-0.3-0.1c-0.1,0-0.2-0.1-0.3-0.2l-4.7-5.8c0,0.1,0,0.3,0,0.4c0,0.1,0,0.3,0,0.3 v5.4H0v-8.7H0.8z M23.9,31.2v1.3H20v2.4h3.1v1.2H20v2.5h3.9v1.3h-5.6v-8.7H23.9z M40.7,31.2v1.3H38v7.4h-1.6v-7.4h-2.7v-1.3H40.7z M50,31.2h1.4c0.1,0,0.3,0,0.4,0.1c0.1,0.1,0.2,0.2,0.2,0.3l1.5,5.2c0,0.1,0.1,0.3,0.1,0.4c0,0.2,0.1,0.3,0.1,0.5 c0-0.2,0.1-0.3,0.1-0.5c0-0.2,0.1-0.3,0.1-0.4l1.7-5.2c0-0.1,0.1-0.2,0.2-0.3c0.1-0.1,0.2-0.1,0.4-0.1h0.5c0.1,0,0.3,0,0.4,0.1 c0.1,0.1,0.2,0.2,0.2,0.3l1.7,5.2c0.1,0.3,0.2,0.5,0.2,0.9c0-0.2,0.1-0.3,0.1-0.4c0-0.1,0.1-0.3,0.1-0.4l1.5-5.2 c0-0.1,0.1-0.2,0.2-0.3c0.1-0.1,0.2-0.1,0.4-0.1h1.3L60,39.8h-1.5l-1.9-6c0-0.1-0.1-0.2-0.1-0.3c0-0.1-0.1-0.2-0.1-0.3 c0,0.1-0.1,0.2-0.1,0.3c0,0.1-0.1,0.2-0.1,0.3l-2,6h-1.6L50,31.2z M81.3,35.5c0,0.6-0.1,1.2-0.3,1.8c-0.2,0.5-0.5,1-0.9,1.4 c-0.4,0.4-0.9,0.7-1.4,0.9c-0.5,0.2-1.2,0.3-1.8,0.3c-0.7,0-1.3-0.1-1.8-0.3c-0.6-0.2-1-0.5-1.4-0.9c-0.4-0.4-0.7-0.9-0.9-1.4 c-0.2-0.5-0.3-1.1-0.3-1.8c0-0.6,0.1-1.2,0.3-1.8c0.2-0.5,0.5-1,0.9-1.4c0.4-0.4,0.9-0.7,1.4-0.9c0.5-0.2,1.2-0.3,1.8-0.3 c0.7,0,1.3,0.1,1.8,0.3c0.6,0.2,1,0.5,1.4,0.9c0.4,0.4,0.7,0.9,0.9,1.4C81.1,34.3,81.3,34.9,81.3,35.5z M79.5,35.5 c0-0.5-0.1-0.9-0.2-1.3c-0.1-0.4-0.3-0.7-0.5-1c-0.2-0.3-0.5-0.5-0.9-0.6c-0.4-0.1-0.7-0.2-1.2-0.2c-0.4,0-0.8,0.1-1.2,0.2 c-0.4,0.1-0.6,0.3-0.9,0.6c-0.3,0.3-0.4,0.6-0.5,1C74,34.6,74,35,74,35.5c0,0.5,0.1,0.9,0.2,1.3c0.1,0.4,0.3,0.7,0.5,1 c0.3,0.3,0.5,0.5,0.9,0.6c0.4,0.1,0.7,0.2,1.2,0.2c0.4,0,0.8-0.1,1.2-0.2c0.4-0.1,0.6-0.3,0.9-0.6c0.2-0.3,0.4-0.6,0.5-1 C79.5,36.4,79.5,36,79.5,35.5z M93.3,36.5v3.4h-1.6v-8.7h2.7c0.6,0,1.1,0.1,1.6,0.2c0.4,0.1,0.8,0.3,1.1,0.5 c0.3,0.2,0.5,0.5,0.6,0.8c0.1,0.3,0.2,0.6,0.2,1c0,0.3,0,0.6-0.1,0.8c-0.1,0.3-0.2,0.5-0.4,0.7c-0.2,0.2-0.4,0.4-0.6,0.6 c-0.3,0.2-0.5,0.3-0.8,0.4c0.2,0.1,0.4,0.3,0.5,0.5l2.2,3.2h-1.5c-0.1,0-0.3,0-0.4-0.1c-0.1-0.1-0.2-0.1-0.3-0.3l-1.9-2.8 c-0.1-0.1-0.2-0.2-0.2-0.2c-0.1,0-0.2-0.1-0.4-0.1L93.3,36.5L93.3,36.5z M93.3,35.3h1c0.3,0,0.6,0,0.8-0.1c0.2-0.1,0.4-0.2,0.6-0.3 c0.2-0.1,0.3-0.3,0.3-0.5c0.1-0.2,0.1-0.4,0.1-0.6c0-0.4-0.2-0.8-0.5-1c-0.3-0.2-0.7-0.3-1.4-0.3h-1.1L93.3,35.3L93.3,35.3 L93.3,35.3z M110.4,34.8h0.4c0.2,0,0.3,0,0.4-0.1c0.1,0,0.2-0.1,0.3-0.2l2.5-3c0.1-0.1,0.2-0.2,0.3-0.3c0.1-0.1,0.3-0.1,0.4-0.1 h1.4l-3,3.6c-0.1,0.1-0.2,0.2-0.3,0.3c-0.1,0.1-0.2,0.1-0.3,0.2c0.1,0.1,0.3,0.1,0.4,0.2c0.1,0.1,0.2,0.2,0.3,0.3l3.1,4.1h-1.5 c-0.2,0-0.4,0-0.5-0.1c-0.1-0.1-0.2-0.1-0.3-0.3l-2.5-3.2c-0.1-0.1-0.2-0.2-0.3-0.2c-0.1,0-0.3-0.1-0.4-0.1h-0.5v3.8h-1.6v-8.7h1.6 L110.4,34.8L110.4,34.8z" class="st0"/><path d="M52.3,0v0.9h-1.8v5h-1.1v-5h-1.8V0H52.3z M59.5,6h-1.1V3.4h-2.8V6h-1.1V0h1.1v2.6h2.8V0h1.1V6z M66,0v0.9h-2.7 v1.6h2.1v0.9h-2.1v1.7H66V6h-3.8V0H66z" class="st0"/></g></svg>