<svg xmlns="http://www.w3.org/2000/svg" xmlns:xlink="http://www.w3.org/1999/xlink" id="Layer_1" x="0" y="0" enable-background="new 0 0 490 490" version="1.1" viewBox="0 0 490 490" xml:space="preserve"><style type="text/css">.st0{fill:#fff;stroke:#bdafd6;stroke-width:2;stroke-miterlimit:10}.st1{opacity:.5}.st2{fill:none;stroke:#bdafd6;stroke-width:2;stroke-linecap:round;stroke-linejoin:round;stroke-dasharray:.1,4}.st3{fill:#bdafd6}.st4{fill:#fff}.st5,.st6{fill:#491e8c}.st6{opacity:.4;enable-background:new}.st7{fill:#ff4a00}.st8{fill:#e01e5a}.st9{fill:#36c5f0}.st10{fill:#2eb67d}.st11{fill:#ecb22e}</style><g><path d="M189.1,200.7H54.4c-6.6,0-12-5.4-12-12v-134c0-6.6,5.4-12,12-12h134.7c6.6,0,12,5.4,12,12v134 C201.1,195.3,195.7,200.7,189.1,200.7z" class="st0"/><path d="M435.6,200.7H300.9c-6.6,0-12-5.4-12-12v-134c0-6.6,5.4-12,12-12h134.7c6.6,0,12,5.4,12,12v134 C447.6,195.3,442.2,200.7,435.6,200.7z" class="st0"/><path d="M312.4,447.4H177.6c-6.6,0-12-5.4-12-12v-134c0-6.6,5.4-12,12-12h134.7c6.6,0,12,5.4,12,12v134 C324.4,442,319,447.4,312.4,447.4z" class="st0"/><g class="st1"><g><polyline points="121.8 220.9 121.8 368.4 137.5 368.4" class="st2"/><g><rect width="13" height="2" x="115.3" y="219.9" class="st3"/></g><g><g><circle cx="137.1" cy="368.4" r="7.5" class="st4"/><path d="M137.1,376.9c-4.7,0-8.5-3.8-8.5-8.5s3.8-8.5,8.5-8.5c4.7,0,8.5,3.8,8.5,8.5S141.8,376.9,137.1,376.9 C132.4,376.9,141.8,376.9,137.1,376.9z M137.1,361.8c-3.6,0-6.5,2.9-6.5,6.5s2.9,6.5,6.5,6.5c3.6,0,6.5-2.9,6.5-6.5 S140.6,361.8,137.1,361.8C133.5,361.8,140.6,361.8,137.1,361.8z" class="st3"/></g></g></g></g><g class="st1"><g><polyline points="368.2 228 368.2 368.4 345.4 368.4" class="st2"/><g><g><circle cx="368.2" cy="228.5" r="7.5" class="st4"/><path d="M359.7,228.5c0,4.7,3.8,8.5,8.5,8.5s8.5-3.8,8.5-8.5c0-4.7-3.8-8.5-8.5-8.5S359.7,223.8,359.7,228.5 C359.7,233.2,359.7,223.8,359.7,228.5z M374.7,228.5c0,3.6-2.9,6.5-6.5,6.5s-6.5-2.9-6.5-6.5c0-3.6,2.9-6.5,6.5-6.5 S374.7,224.9,374.7,228.5C374.7,232.1,374.7,224.9,374.7,228.5z" class="st3"/></g></g><g><rect width="2" height="13" x="344.4" y="361.9" class="st3"/></g></g></g><g id="Brandmark_3_"><circle id="Core-1_3_" cx="245" cy="347.6" r="7.5" class="st5"/><circle id="Core-2_3_" cx="223.1" cy="363.5" r="7.5" class="st5"/><circle id="Core-3_3_" cx="266.8" cy="363.5" r="7.5" class="st5"/><circle id="Core-4_3_" cx="231.5" cy="389.1" r="7.5" class="st5"/><circle id="Core-5_3_" cx="258.5" cy="389.1" r="7.5" class="st5"/><path id="Center_3_" d="M249,389.1c0-2.5,1-4.9,2.8-6.7c1.8-1.8,4.2-2.8,6.7-2.8c2.4,0,4.6,0.9,6.3,2.4 c1.6-2.8,2.7-5.9,3-9.2c-0.3,0-0.7,0-1,0c-2.5,0-4.9-1-6.7-2.8c-1.8-1.8-2.8-4.2-2.8-6.7s1-4.9,2.8-6.7c0.6-0.6,1.3-1.1,2-1.5 c-2.2-2.4-4.8-4.4-7.8-5.7c-0.4,1.8-1.3,3.4-2.6,4.7c-1.8,1.8-4.2,2.8-6.7,2.8c-2.5,0-4.9-1-6.7-2.8c-1.3-1.3-2.2-3-2.6-4.7 c-3,1.3-5.7,3.3-7.8,5.7c0.7,0.4,1.4,0.9,2,1.5c1.8,1.8,2.8,4.2,2.8,6.7s-1,4.9-2.8,6.7s-4.2,2.8-6.7,2.8c-0.3,0-0.7,0-1,0 c0.3,3.3,1.4,6.5,3,9.2c1.7-1.6,4-2.4,6.3-2.4c2.5,0,4.9,1,6.7,2.8c1.8,1.8,2.8,4.2,2.8,6.7c0,1.4-0.3,2.7-0.8,3.9 c1.6,0.3,3.2,0.5,4.9,0.5c1.7,0,3.3-0.2,4.9-0.5C249.3,391.8,249,390.5,249,389.1z" class="st6"/><path id="Circles_3_" d="M292.8,352.5c-1.4-3.4-3.5-6.4-6-9c-2.6-2.6-5.6-4.6-9-6c-2.3-1-4.7-1.6-7.1-2 c-1.4-2.9-3.2-5.6-5.5-7.9c-2.6-2.6-5.6-4.6-9-6c-3.5-1.5-7.2-2.2-11-2.2s-7.5,0.7-11,2.2c-3.4,1.4-6.4,3.5-9,6 c-2.3,2.3-4.1,4.9-5.5,7.8c-2.6,0.3-5.2,1-7.6,2c-3.4,1.4-6.4,3.4-9,6c-2.6,2.6-4.6,5.6-6,9c-1.5,3.5-2.2,7.2-2.2,10.9 c0,3.8,0.7,7.5,2.2,11c1.4,3.4,3.5,6.4,6,9c0.2,0.2,0.4,0.4,0.6,0.6c-0.3,1.7-0.5,3.5-0.5,5.2c0,3.8,0.7,7.5,2.2,11 c1.4,3.4,3.5,6.4,6,9s5.6,4.6,9,6c3.5,1.5,7.2,2.2,11,2.2c3.8,0,7.5-0.7,11-2.2c0.9-0.4,1.7-0.8,2.5-1.2c0.8,0.5,1.7,0.9,2.5,1.2 c3.5,1.5,7.2,2.2,11,2.2c3.8,0,7.5-0.7,11-2.2c3.4-1.4,6.4-3.5,9-6s4.6-5.6,6-9c1.5-3.5,2.2-7.2,2.2-11c0-1.8-0.2-3.5-0.5-5.2 c0.2-0.2,0.4-0.4,0.6-0.6c2.6-2.6,4.6-5.6,6-9c1.5-3.5,2.2-7.2,2.2-11C295,359.7,294.2,356,292.8,352.5z M290.6,373.5 c-1.2,2.9-2.9,5.5-5.1,7.8c-0.3-1-0.7-2.1-1.1-3.1c-1.4-3.4-3.5-6.4-6-9c-0.8-0.8-1.8-1.6-2.7-2.4c-0.3,0.7-0.7,1.4-1.1,2.1 c0.8,0.6,1.5,1.3,2.2,2c2.4,2.4,4.2,5.1,5.5,8.2c0.5,1.3,1,2.7,1.3,4c-2,1.7-4.3,3.1-6.7,4.2c-2.8,1.2-5.8,1.9-8.9,2 c0,0.8-0.1,1.6-0.3,2.3c3.5-0.1,6.9-0.8,10.2-2.2c2.3-1,4.4-2.2,6.3-3.7c0.1,1.1,0.2,2.3,0.2,3.4c0,3.5-0.7,6.9-2,10.1 c-1.3,3.1-3.2,5.8-5.5,8.2c-2.4,2.4-5.1,4.2-8.2,5.5c-3.2,1.3-6.6,2-10.1,2s-6.9-0.7-10.1-2c-0.4-0.2-0.8-0.3-1.1-0.5 c1.5-1,2.8-2.1,4.1-3.4c2.6-2.6,4.6-5.6,6-9c0.2-0.5,0.4-1,0.6-1.5c-0.8,0-1.6-0.2-2.3-0.4c-0.1,0.3-0.3,0.7-0.4,1 c-1.3,3.1-3.2,5.8-5.5,8.2c-1.4,1.4-3,2.7-4.8,3.8c-1.7-1.1-3.3-2.3-4.8-3.8c-2.4-2.4-4.2-5.1-5.5-8.2c-0.1-0.3-0.3-0.7-0.4-1 c-0.7,0.2-1.5,0.4-2.3,0.4c0.2,0.5,0.4,1,0.6,1.5c1.4,3.4,3.5,6.4,6,9c1.3,1.3,2.6,2.4,4.1,3.4c-0.4,0.2-0.7,0.3-1.1,0.5 c-3.2,1.3-6.6,2-10.1,2c-3.5,0-6.9-0.7-10.1-2c-3.1-1.3-5.8-3.2-8.2-5.5c-2.4-2.4-4.2-5.1-5.5-8.2c-1.3-3.2-2-6.6-2-10.1 c0-1.2,0.1-2.3,0.2-3.4c1.9,1.5,4,2.7,6.3,3.7c3.2,1.4,6.6,2.1,10.2,2.2c-0.2-0.7-0.3-1.5-0.3-2.3c-3.1-0.1-6.1-0.8-8.9-2 c-2.5-1-4.7-2.4-6.7-4.2c0.3-1.4,0.8-2.7,1.3-4c1.3-3.1,3.2-5.8,5.5-8.2c0.7-0.7,1.4-1.3,2.2-2c-0.5-0.6-0.8-1.3-1.1-2.1 c-1,0.7-1.9,1.5-2.7,2.4c-2.6,2.6-4.6,5.6-6,9c-0.4,1-0.8,2.1-1.1,3.1c-2.2-2.3-3.9-4.9-5.1-7.8c-1.3-3.2-2-6.6-2-10.1 s0.7-6.9,2-10.1c1.3-3.1,3.2-5.8,5.5-8.2c2.4-2.4,5.1-4.2,8.2-5.5c1.8-0.8,3.7-1.3,5.6-1.7c-1.1,3.1-1.7,6.3-1.7,9.6 c0,2.7,0.4,5.3,1.1,7.8c0.7-0.4,1.4-0.7,2.1-1c-0.6-2.2-0.9-4.5-0.9-6.8c0-3.4,0.7-6.8,2-9.9c0.6,0,1.2-0.1,1.8-0.1 c3.5,0,6.9,0.7,10.1,2c1.5,0.6,2.9,1.4,4.2,2.3c0.3-0.4,0.6-0.7,0.9-1c0.2-0.2,0.5-0.5,0.8-0.7c-1.5-1.1-3.2-2-4.9-2.7 c-3.5-1.5-7.2-2.2-11-2.2c-0.2,0-0.5,0-0.7,0c1.2-2.2,2.7-4.2,4.5-6c2.4-2.4,5.1-4.2,8.2-5.5c3.2-1.3,6.6-2,10-2 c3.5,0,6.9,0.7,10.1,2c3.1,1.3,5.8,3.2,8.2,5.5c1.8,1.8,3.3,3.8,4.5,6c-0.4,0-0.7,0-1.1,0c-3.8,0-7.5,0.7-11,2.2 c-1.7,0.7-3.4,1.6-4.9,2.7c0.3,0.2,0.5,0.4,0.8,0.7c0.3,0.3,0.6,0.7,0.9,1c1.3-0.9,2.7-1.6,4.2-2.3c3.2-1.3,6.6-2,10.1-2 c0.7,0,1.5,0,2.2,0.1c1.3,3.1,2,6.5,2,9.9c0,2.4-0.3,4.7-1,7c0.7,0.3,1.4,0.6,2.1,1.1c0.8-2.6,1.2-5.3,1.2-8 c0-3.3-0.6-6.5-1.6-9.5c1.8,0.3,3.5,0.9,5.2,1.6c3.1,1.3,5.8,3.2,8.2,5.5c2.4,2.4,4.2,5.1,5.5,8.2c1.3,3.2,2,6.6,2,10.1 C292.7,366.9,292,370.3,290.6,373.5z" class="st6"/></g><g><path d="M134.3,121.7c0,3.7-0.7,7.3-1.9,10.6c-3.3,1.2-6.8,1.9-10.6,1.9h0c-3.7,0-7.3-0.7-10.6-1.9 c-1.2-3.3-1.9-6.8-1.9-10.6v0c0-3.7,0.7-7.3,1.9-10.6c3.3-1.2,6.8-1.9,10.6-1.9h0c3.7,0,7.3,0.7,10.6,1.9 C133.6,114.4,134.3,117.9,134.3,121.7L134.3,121.7L134.3,121.7z M171.1,113.3h-29.2l20.6-20.6c-1.6-2.3-3.4-4.4-5.4-6.4v0 c-2-2-4.1-3.8-6.4-5.4l-20.6,20.6V72.3c-2.7-0.5-5.5-0.7-8.3-0.7h-0.1c-2.8,0-5.6,0.2-8.3,0.7v29.2L92.8,80.9 c-2.3,1.6-4.4,3.4-6.4,5.4l0,0c-2,2-3.8,4.1-5.4,6.4l20.6,20.6H72.5c0,0-0.7,5.5-0.7,8.3v0c0,2.8,0.2,5.6,0.7,8.3h29.2L81,150.6 c3.2,4.6,7.2,8.5,11.8,11.8l20.6-20.6V171c2.7,0.5,5.5,0.7,8.3,0.7h0.1c2.8,0,5.6-0.2,8.3-0.7v-29.2l20.6,20.6 c2.3-1.6,4.4-3.4,6.4-5.4l0,0c2-2,3.8-4.1,5.4-6.4L141.9,130h29.2c0.5-2.7,0.7-5.5,0.7-8.3v-0.1 C171.8,118.8,171.5,116,171.1,113.3L171.1,113.3z" class="st7"/></g><g><g><path d="M339.2,134.8c0,5.8-4.7,10.5-10.5,10.5c-5.8,0-10.5-4.7-10.5-10.5s4.7-10.5,10.5-10.5h10.5V134.8z" class="st8"/><path d="M344.5,134.8c0-5.8,4.7-10.5,10.5-10.5c5.8,0,10.5,4.7,10.5,10.5v26.3c0,5.8-4.7,10.5-10.5,10.5 s-10.5-4.7-10.5-10.5C344.5,161.1,344.5,134.8,344.5,134.8z" class="st8"/></g><g><path d="M355,92.6c-5.8,0-10.5-4.7-10.5-10.5s4.7-10.5,10.5-10.5c5.8,0,10.5,4.7,10.5,10.5v10.5H355z" class="st9"/><path d="M355,97.9c5.8,0,10.5,4.7,10.5,10.5c0,5.8-4.7,10.5-10.5,10.5h-26.3c-5.8,0-10.5-4.7-10.5-10.5 c0-5.8,4.7-10.5,10.5-10.5C328.7,97.9,355,97.9,355,97.9z" class="st9"/></g><g><path d="M397.2,108.4c0-5.8,4.7-10.5,10.5-10.5c5.8,0,10.5,4.7,10.5,10.5c0,5.8-4.7,10.5-10.5,10.5h-10.5V108.4z" class="st10"/><path d="M391.9,108.4c0,5.8-4.7,10.5-10.5,10.5c-5.8,0-10.5-4.7-10.5-10.5V82.1c0-5.8,4.7-10.5,10.5-10.5 c5.8,0,10.5,4.7,10.5,10.5V108.4z" class="st10"/></g><g><path d="M381.4,150.6c5.8,0,10.5,4.7,10.5,10.5s-4.7,10.5-10.5,10.5c-5.8,0-10.5-4.7-10.5-10.5v-10.5H381.4z" class="st11"/><path d="M381.4,145.3c-5.8,0-10.5-4.7-10.5-10.5c0-5.8,4.7-10.5,10.5-10.5h26.3c5.8,0,10.5,4.7,10.5,10.5 c0,5.8-4.7,10.5-10.5,10.5H381.4z" class="st11"/></g></g></g></svg>