<svg xmlns="http://www.w3.org/2000/svg" xmlns:xlink="http://www.w3.org/1999/xlink" id="Layer_1" x="0" y="0" enable-background="new 0 0 411 140" version="1.1" viewBox="0 0 411 140" xml:space="preserve"><style type="text/css">.st0{fill:#f6dd62}</style><g><path d="M307.8,35.4c0.5,0,0.9,0,1.2,0c5.7,0,11.4,0,17,0c0.9,0,1.3,0.3,1.5,1.2c3.4,12.8,6.8,25.6,10.2,38.4 c0.1,0.4,0.2,0.7,0.5,1.1c0.1-0.3,0.2-0.6,0.3-0.9c4-12.9,8-25.9,12-38.8c0.3-0.9,0.7-1.2,1.6-1.2c4.7,0,9.4,0,14.2,0 c0.8,0,1.2,0.2,1.5,1.1c4,13,8.1,26,12.1,39c0.1,0.3,0.2,0.7,0.6,1c0.1-0.4,0.2-0.8,0.3-1.1c3.5-12.8,6.9-25.7,10.4-38.5 c0.2-0.9,0.6-1.2,1.5-1.1c5.5,0,11.1,0,16.6,0c0.3,0,0.7,0,1.2,0c-0.1,0.5-0.2,0.9-0.3,1.3c-5.7,18.6-11.5,37.2-17.2,55.8 c-1.1,3.4-2.1,6.9-3.2,10.3c-0.2,0.7-0.5,0.9-1.2,0.9c-5.1,0-10.3,0-15.4,0c-0.8,0-1-0.3-1.2-1c-4.1-13.1-8.2-26.2-12.3-39.3 c-0.1-0.3-0.2-0.6-0.4-1.3c-0.2,0.7-0.4,1-0.5,1.4c-4.2,13-8.3,26-12.4,39c-0.3,0.8-0.6,1.1-1.5,1.1c-5,0-9.9-0.1-14.9,0 c-0.9,0-1.3-0.3-1.5-1.2c-5.5-18.2-11.1-36.3-16.6-54.5c-1.2-3.8-2.3-7.6-3.5-11.4C308,36.3,308,36,307.8,35.4z"/><path d="M0.5,32.2c0.6,0,1,0,1.4,0c5.9,0,11.8,0,17.7,0c1,0,1.3,0.3,1.6,1.2c4.8,14.5,9.7,29,14.5,43.5c0.1,0.4,0.2,0.7,0.6,1.1 c0.1-0.4,0.3-0.8,0.4-1.3c4.6-14.4,9.3-28.9,13.9-43.3c0.3-0.9,0.7-1.3,1.7-1.2c5.8,0.1,11.6,0,17.3,0c0.4,0,0.8,0,1.3,0 c-0.2,0.6-0.4,1.1-0.5,1.5c-3.5,9.4-7,18.7-10.6,28.1c-5.1,13.7-10.2,27.3-15.4,41c-1.6,4.2-3.5,8.2-6.4,11.6 c-3.3,3.8-7.5,5.7-12.5,6.1c-6.7,0.6-13-0.6-18.9-3.9c-0.9-0.5-1.1-0.8-0.6-1.8c1.9-3.8,3.6-7.7,5.4-11.6c0.2-0.3,0.3-0.7,0.5-1.1 c1.1,0.5,2,0.9,3,1.4c2.2,0.9,4.5,1.3,6.9,1c2-0.2,4.4-2.2,4.8-4.1c0.1-0.4-0.1-0.8-0.2-1.2C21.7,86.9,16.9,74.4,12,62 C8.3,52.4,4.6,42.9,0.9,33.3C0.7,33,0.7,32.7,0.5,32.2z"/><path d="M108.8,76c0-4,0-7.9,0-12c4.8,0,9.5,0,14.3,0c-0.5-3.5-1.5-6.5-3.5-9.2c-5.1-7.1-18.2-7.5-23.1,2.3c-3.9,7.8-4.1,16-0.3,24 c2.4,5,6.6,7.5,12.1,8.1c7.1,0.9,13.1-1.3,18.3-6c0.6-0.6,1-0.6,1.6,0c3.1,2.8,6.3,5.6,9.4,8.4c0.2,0.2,0.5,0.4,0.8,0.6 c-0.3,0.4-0.6,0.7-0.8,1c-5.5,6.4-12.5,10.1-20.8,11.2c-6,0.8-12.1,0.6-17.9-1.3c-11.6-3.8-19.4-11.6-22.3-23.5 c-3.3-13.6-0.7-26,9.3-36.1c6.5-6.6,14.7-9.3,23.9-9.1c5.2,0.1,10.2,1.1,14.9,3.6c7.9,4.2,12.6,11,15.2,19.5 c1.8,5.8,2.2,11.7,1.8,17.7c-0.1,0.8-0.2,1.1-1.1,1.1c-10.3,0-20.6,0-30.9,0C109.4,76,109.1,76,108.8,76z"/><path d="M223.3,88.7c0,2.8,0,5.5,0,8.1c0,2.3,0,4.5,0,6.8c0,0.5,0,0.9-0.8,0.9c-4.4,0-8.8,0.1-13.2-0.1c-8-0.4-14-6.9-14.1-14.9 c0-20.8,0-41.7,0-62.5c0-4.9,0-9.8,0-14.7c0-0.9,0.3-1.2,1.2-1.2c5.4,0,10.8,0.1,16.2,0c1.1,0,1.3,0.3,1.3,1.4c0,23.5,0,47,0,70.5 c0,3.8,2,5.7,5.7,5.7C220.9,88.7,222,88.7,223.3,88.7z"/><path d="M185.2,87.8c0,0.5,0.1,0.8,0.1,1.1c0,4.5,0,9.1,0,13.6c0,0.6,0,1.1-0.8,1.1c-4.3,0-8.5,0.1-12.8-0.1 c-8.3-0.4-14.4-6.9-14.4-15.2c0-18,0-36,0-53.9c0-7.3,0-14.6,0-21.9c0-1,0.2-1.4,1.3-1.4c5.3,0.1,10.6,0,16,0c1.4,0,1.4,0,1.4,1.5 c0,23.3,0,46.6,0,69.9c0,2.6,1.4,4.5,3.6,5.1c0.6,0.2,1.3,0.2,2,0.2C182.7,87.9,183.9,87.8,185.2,87.8z"/><path d="M302,63.5c-0.5,0-0.8,0-1.1,0c-5.7,0-11.4,0-17,0c-0.9,0-1.3-0.3-1.6-1.1c-5.2-13.7-21.1-14.3-28.5-7.1 c-2.1,2-3.7,4.4-4.5,7.3c-0.2,0.7-0.6,1-1.3,1c-5.7,0-11.5,0-17.2,0c-0.3,0-0.5-0.1-0.9-0.1c0.1-0.5,0.1-1,0.2-1.4 c2.7-11.4,9.3-19.8,20-24.4c14.6-6.1,28.5-4.6,40.9,5.7c5.9,4.9,9.4,11.4,10.9,19C302,62.6,302,63,302,63.5z"/><path d="M301.8,76.7c-0.6,2.9-1.4,5.5-2.7,8c-5.9,11.5-15.3,18-28,19.7c-9.2,1.3-17.9-0.4-25.8-5.4c-7.8-5-12.9-12.1-15.1-21.1 c-0.1-0.2-0.1-0.5-0.2-0.7c0-0.1,0-0.2,0-0.4c0.3,0,0.7-0.1,1-0.1c5.8,0,11.6,0,17.4,0c0.7,0,1.1,0.2,1.4,0.9 c5.2,11.5,18.1,13,26.2,7.7c2.9-1.9,4.9-4.6,6.2-7.8c0.2-0.5,0.4-0.9,1.1-0.9c6,0,11.9,0,17.9,0C301.3,76.6,301.5,76.6,301.8,76.7z"/><g><path d="M297.8,129c1.6,0,2.8-0.8,3.4-2.5l2.4,0.9c-0.5,1.2-1.2,2.2-2.2,2.8s-2.2,0.9-3.5,0.9c-2.1,0-3.7-0.6-4.8-1.8 c-1.1-1.2-1.7-2.8-1.7-4.9s0.5-3.7,1.6-4.9c1.1-1.1,2.7-1.7,4.7-1.7c1.5,0,2.7,0.3,3.7,0.9s1.6,1.5,2,2.7l-2.4,0.7 c-0.2-0.6-0.6-1.2-1.2-1.5c-0.6-0.4-1.3-0.6-2.1-0.6c-1.2,0-2.1,0.4-2.8,1.1c-0.6,0.8-0.9,1.9-0.9,3.3c0,1.5,0.3,2.6,1,3.4 C295.6,128.6,296.6,129,297.8,129z"/><path d="M319.5,130.9l-1.1-3.3h-4.9l-1.1,3.3h-2.7l4.7-12.9h3.2l4.7,12.9H319.5z M315.9,120l-0.1,0.2c-0.1,0.2-0.1,0.5-0.2,0.7 c-0.1,0.3-0.6,1.8-1.6,4.6h3.7l-1.3-3.7l-0.4-1.2L315.9,120z"/><path d="M339.7,122.1c0,0.8-0.2,1.6-0.6,2.2c-0.4,0.7-0.9,1.2-1.6,1.5c-0.7,0.4-1.5,0.5-2.5,0.5h-3.2v4.5h-2.7v-12.9h5.8 c1.5,0,2.7,0.4,3.6,1.1S339.7,120.8,339.7,122.1z M337,122.2c0-1.4-0.8-2-2.4-2h-2.8v4.2h2.9c0.7,0,1.3-0.2,1.7-0.6 C336.8,123.4,337,122.9,337,122.2z"/><path d="M346.8,130.9V118h2.7v12.9H346.8z"/><path d="M362.9,120.1v10.8h-2.7v-10.8H356V118h11v2.1H362.9z"/><path d="M382.8,130.9l-1.1-3.3h-4.9l-1.1,3.3H373l4.7-12.9h3.2l4.7,12.9H382.8z M379.2,120l-0.1,0.2c-0.1,0.2-0.1,0.5-0.2,0.7 c-0.1,0.3-0.6,1.8-1.6,4.6h3.7l-1.3-3.7l-0.4-1.2L379.2,120z"/><path d="M392.4,130.9V118h2.7v10.8h6.9v2.1H392.4z"/></g><rect width="16.5" height="16.5" x="257.7" y="61.9" class="st0"/></g></svg>