<svg xmlns="http://www.w3.org/2000/svg" id="Layer_1" data-name="Layer 1" viewBox="0 0 400 400"><defs><style>.cls-1{fill:#ffa744}.cls-2{fill:#dfcdf7}.cls-3{fill:#491e8c}.cls-4,.cls-6{fill:none;stroke-width:10px}.cls-4{stroke:#b4acbf;stroke-linecap:round;stroke-linejoin:round}.cls-5{fill:#b4acbf}.cls-6{stroke:#dfcdf7;stroke-miterlimit:10}</style></defs><title>Artboard 1 copy 11</title><path d="M50,22.36,83.82,90H16.18L50,22.36M50,0,0,100H100L50,0Z" class="cls-1"/><path d="M350,300h0a50,50,0,1,0,50,50A50.05,50.05,0,0,0,350,300Z" class="cls-2"/><path d="M350,325h0a25,25,0,1,0,25,25A25,25,0,0,0,350,325Z" class="cls-3"/><line x1="200" x2="200" y1="10.84" y2="120.01" class="cls-4"/><polygon points="159.11 43.98 166.43 50.8 200 14.68 233.57 50.8 240.89 43.98 200 0 159.11 43.98" class="cls-5"/><line x1="10.85" x2="120.01" y1="200" y2="200" class="cls-4"/><polygon points="43.98 240.89 50.8 233.57 14.68 200 50.8 166.43 43.98 159.11 0 200 43.98 240.89" class="cls-5"/><line x1="389.15" x2="279.99" y1="200" y2="200" class="cls-4"/><polygon points="356.02 159.11 349.2 166.43 385.32 200 349.2 233.57 356.02 240.89 400 200 356.02 159.11" class="cls-5"/><line x1="200" x2="200" y1="389.16" y2="279.99" class="cls-4"/><polygon points="240.89 356.02 233.57 349.2 200 385.32 166.43 349.2 159.11 356.02 200 400 240.89 356.02" class="cls-5"/><rect width="100" height="100" x="150" y="150" class="cls-6" rx="10" ry="10"/><rect width="100" height="100" x="300" class="cls-2" rx="10" ry="10"/><rect width="50" height="50" x="325" y="25" class="cls-3" rx="5" ry="5"/><rect width="100" height="100" y="300" class="cls-2" rx="10" ry="10"/><rect width="50" height="50" x="25" y="325" class="cls-3" rx="5" ry="5"/></svg>