<?xml version="1.0" encoding="utf-8"?>
<!-- Generator: Adobe Illustrator 21.0.0, SVG Export Plug-In . SVG Version: 6.00 Build 0)  -->
<svg version="1.1" id="Layer_1" xmlns="http://www.w3.org/2000/svg" xmlns:xlink="http://www.w3.org/1999/xlink" x="0px" y="0px"
	 viewBox="0 0 400 400" style="enable-background:new 0 0 400 400;" xml:space="preserve">
<style type="text/css">
	
		.st0{fill:none;stroke:#D6D0E7;stroke-width:5;stroke-linecap:round;stroke-linejoin:round;stroke-miterlimit:10;stroke-dasharray:1,10;}
	.st1{opacity:0.45;fill:url(#SVGID_1_);}
	.st2{opacity:0.45;fill:url(#SVGID_2_);}
	.st3{opacity:0.45;fill:url(#SVGID_3_);}
	.st4{opacity:0.45;fill:url(#SVGID_4_);}
	.st5{fill:#D6D0E7;}
	.st6{fill:#FFFFFF;}
	.st7{fill:none;stroke:#FFA744;stroke-width:10;stroke-miterlimit:10;}
	.st8{fill:url(#SVGID_5_);}
	.st9{fill:url(#SVGID_6_);}
	.st10{fill:url(#SVGID_7_);}
	.st11{fill:url(#SVGID_8_);}
</style>
<g>
	<line class="st0" x1="50" y1="50" x2="350" y2="350"/>
	<line class="st0" x1="350" y1="50" x2="50" y2="350"/>
	<linearGradient id="SVGID_1_" gradientUnits="userSpaceOnUse" x1="0" y1="50" x2="100" y2="50">
		<stop  offset="0" style="stop-color:#9452FF"/>
		<stop  offset="1" style="stop-color:#491E8C"/>
	</linearGradient>
	<path class="st1" d="M90,100H10c-5.5,0-10-4.5-10-10V10C0,4.5,4.5,0,10,0h80c5.5,0,10,4.5,10,10v80C100,95.5,95.5,100,90,100z"/>
	<linearGradient id="SVGID_2_" gradientUnits="userSpaceOnUse" x1="300" y1="50" x2="400" y2="50">
		<stop  offset="0" style="stop-color:#9452FF"/>
		<stop  offset="1" style="stop-color:#491E8C"/>
	</linearGradient>
	<path class="st2" d="M390,100h-80c-5.5,0-10-4.5-10-10V10c0-5.5,4.5-10,10-10h80c5.5,0,10,4.5,10,10v80C400,95.5,395.5,100,390,100
		z"/>
	<linearGradient id="SVGID_3_" gradientUnits="userSpaceOnUse" x1="0" y1="350" x2="100" y2="350">
		<stop  offset="0" style="stop-color:#9452FF"/>
		<stop  offset="1" style="stop-color:#491E8C"/>
	</linearGradient>
	<path class="st3" d="M90,400H10c-5.5,0-10-4.5-10-10v-80c0-5.5,4.5-10,10-10h80c5.5,0,10,4.5,10,10v80C100,395.5,95.5,400,90,400z"
		/>
	<linearGradient id="SVGID_4_" gradientUnits="userSpaceOnUse" x1="300" y1="350" x2="400" y2="350">
		<stop  offset="0" style="stop-color:#9452FF"/>
		<stop  offset="1" style="stop-color:#491E8C"/>
	</linearGradient>
	<path class="st4" d="M390,400h-80c-5.5,0-10-4.5-10-10v-80c0-5.5,4.5-10,10-10h80c5.5,0,10,4.5,10,10v80
		C400,395.5,395.5,400,390,400z"/>
	<g>
		<path class="st5" d="M185,226.5c-6.3,0-11.5-5.2-11.5-11.5v-30c0-6.3,5.2-11.5,11.5-11.5h30c6.3,0,11.5,5.2,11.5,11.5v30
			c0,6.3-5.2,11.5-11.5,11.5H185z"/>
		<path class="st6" d="M215,175c5.5,0,10,4.5,10,10v30c0,5.5-4.5,10-10,10h-30c-5.5,0-10-4.5-10-10v-30c0-5.5,4.5-10,10-10H215
			 M215,172h-30c-7.2,0-13,5.8-13,13v30c0,7.2,5.8,13,13,13h30c7.2,0,13-5.8,13-13v-30C228,177.8,222.2,172,215,172L215,172z"/>
	</g>
	<rect x="50" y="43.3" class="st7" width="300" height="306.7"/>
	<linearGradient id="SVGID_5_" gradientUnits="userSpaceOnUse" x1="25" y1="50" x2="75" y2="50">
		<stop  offset="0" style="stop-color:#9452FF"/>
		<stop  offset="1" style="stop-color:#491E8C"/>
	</linearGradient>
	<path class="st8" d="M70,75H30c-2.8,0-5-2.2-5-5V30c0-2.8,2.2-5,5-5h40c2.8,0,5,2.2,5,5v40C75,72.8,72.8,75,70,75z"/>
	<linearGradient id="SVGID_6_" gradientUnits="userSpaceOnUse" x1="325" y1="50" x2="375" y2="50">
		<stop  offset="0" style="stop-color:#9452FF"/>
		<stop  offset="1" style="stop-color:#491E8C"/>
	</linearGradient>
	<path class="st9" d="M370,75h-40c-2.8,0-5-2.2-5-5V30c0-2.8,2.2-5,5-5h40c2.8,0,5,2.2,5,5v40C375,72.8,372.8,75,370,75z"/>
	<linearGradient id="SVGID_7_" gradientUnits="userSpaceOnUse" x1="325" y1="350" x2="375" y2="350">
		<stop  offset="0" style="stop-color:#9452FF"/>
		<stop  offset="1" style="stop-color:#491E8C"/>
	</linearGradient>
	<path class="st10" d="M370,375h-40c-2.8,0-5-2.2-5-5v-40c0-2.8,2.2-5,5-5h40c2.8,0,5,2.2,5,5v40C375,372.8,372.8,375,370,375z"/>
	<linearGradient id="SVGID_8_" gradientUnits="userSpaceOnUse" x1="25" y1="350" x2="75" y2="350">
		<stop  offset="0" style="stop-color:#9452FF"/>
		<stop  offset="1" style="stop-color:#491E8C"/>
	</linearGradient>
	<path class="st11" d="M70,375H30c-2.8,0-5-2.2-5-5v-40c0-2.8,2.2-5,5-5h40c2.8,0,5,2.2,5,5v40C75,372.8,72.8,375,70,375z"/>
</g>
</svg>
