<?xml version="1.0" encoding="utf-8"?>
<!-- Generator: Adobe Illustrator 21.0.0, SVG Export Plug-In . SVG Version: 6.00 Build 0)  -->
<svg version="1.1" id="Layer_1" xmlns="http://www.w3.org/2000/svg" xmlns:xlink="http://www.w3.org/1999/xlink" x="0px" y="0px"
	 viewBox="0 0 400 400" style="enable-background:new 0 0 400 400;" xml:space="preserve">
<style type="text/css">
	.st0{fill:#FAFAFE;}
	.st1{fill:#D6D0E7;}
	.st2{opacity:0.45;fill:url(#SVGID_1_);}
	.st3{fill:#1D073F;}
	.st4{fill:url(#SVGID_2_);}
	.st5{opacity:0.45;fill:url(#SVGID_3_);}
	.st6{fill:url(#SVGID_4_);}
	.st7{opacity:0.45;fill:url(#SVGID_5_);}
	.st8{fill:url(#SVGID_6_);}
	.st9{opacity:0.45;fill:url(#SVGID_7_);}
	.st10{fill:url(#SVGID_8_);}
	
		.st11{fill:none;stroke:#D6D0E7;stroke-width:2.5048;stroke-linecap:round;stroke-linejoin:round;stroke-miterlimit:10;stroke-dasharray:1.0019,8.0153;}
</style>
<g>
	<g>
		<path class="st0" d="M14.1,398.8c-7.1,0-12.8-5.7-12.8-12.8V14.1C1.2,7,7,1.2,14.1,1.2h371.9c7.1,0,12.8,5.7,12.8,12.8v371.9
			c0,7.1-5.7,12.8-12.8,12.8H14.1z"/>
		<path class="st1" d="M385.9,2.5c6.4,0,11.6,5.2,11.6,11.6v371.9c0,6.4-5.2,11.6-11.6,11.6H14.1c-6.4,0-11.6-5.2-11.6-11.6V14.1
			c0-6.4,5.2-11.6,11.6-11.6H385.9 M385.9,0H14.1C6.3,0,0,6.3,0,14.1v371.9c0,7.8,6.3,14.1,14.1,14.1h371.9
			c7.8,0,14.1-6.3,14.1-14.1V14.1C400,6.3,393.7,0,385.9,0L385.9,0z"/>
	</g>
	<g>
		<g>
			<g>
				<g>
					<linearGradient id="SVGID_1_" gradientUnits="userSpaceOnUse" x1="153.9977" y1="125.3631" x2="45.2149" y2="74.6369">
						<stop  offset="0" style="stop-color:#491E8C"/>
						<stop  offset="1" style="stop-color:#9452FF"/>
					</linearGradient>
					<circle class="st2" cx="99.6" cy="100" r="60"/>
					<circle class="st3" cx="100.8" cy="101.2" r="30"/>
					<linearGradient id="SVGID_2_" gradientUnits="userSpaceOnUse" x1="126.802" y1="112.6816" x2="72.4106" y2="87.3184">
						<stop  offset="0" style="stop-color:#491E8C"/>
						<stop  offset="1" style="stop-color:#9452FF"/>
					</linearGradient>
					<circle class="st4" cx="99.6" cy="100" r="30"/>
				</g>
			</g>
		</g>
		<g>
			<g>
				<g>
					<linearGradient id="SVGID_3_" gradientUnits="userSpaceOnUse" x1="354.7852" y1="125.3631" x2="246.0023" y2="74.6369">
						<stop  offset="0" style="stop-color:#491E8C"/>
						<stop  offset="1" style="stop-color:#9452FF"/>
					</linearGradient>
					<circle class="st5" cx="300.4" cy="100" r="60"/>
					<circle class="st3" cx="301.6" cy="101.2" r="30"/>
					<linearGradient id="SVGID_4_" gradientUnits="userSpaceOnUse" x1="327.5895" y1="112.6816" x2="273.1981" y2="87.3184">
						<stop  offset="0" style="stop-color:#491E8C"/>
						<stop  offset="1" style="stop-color:#9452FF"/>
					</linearGradient>
					<circle class="st6" cx="300.4" cy="100" r="30"/>
				</g>
			</g>
		</g>
		<g>
			<g>
				<g>
					<linearGradient id="SVGID_5_" gradientUnits="userSpaceOnUse" x1="153.9977" y1="325.3632" x2="45.2149" y2="274.6368">
						<stop  offset="0" style="stop-color:#491E8C"/>
						<stop  offset="1" style="stop-color:#9452FF"/>
					</linearGradient>
					<circle class="st7" cx="99.6" cy="300" r="60"/>
					<circle class="st3" cx="100.8" cy="301.2" r="30"/>
					<linearGradient id="SVGID_6_" gradientUnits="userSpaceOnUse" x1="126.802" y1="312.6816" x2="72.4106" y2="287.3184">
						<stop  offset="0" style="stop-color:#491E8C"/>
						<stop  offset="1" style="stop-color:#9452FF"/>
					</linearGradient>
					<circle class="st8" cx="99.6" cy="300" r="30"/>
				</g>
			</g>
		</g>
		<g>
			<g>
				<g>
					<linearGradient id="SVGID_7_" gradientUnits="userSpaceOnUse" x1="354.7852" y1="325.3632" x2="246.0023" y2="274.6368">
						<stop  offset="0" style="stop-color:#491E8C"/>
						<stop  offset="1" style="stop-color:#9452FF"/>
					</linearGradient>
					<circle class="st9" cx="300.4" cy="300" r="60"/>
					<circle class="st3" cx="301.6" cy="301.2" r="30"/>
					<linearGradient id="SVGID_8_" gradientUnits="userSpaceOnUse" x1="327.5895" y1="312.6816" x2="273.1981" y2="287.3184">
						<stop  offset="0" style="stop-color:#491E8C"/>
						<stop  offset="1" style="stop-color:#9452FF"/>
					</linearGradient>
					<circle class="st10" cx="300.4" cy="300" r="30"/>
				</g>
			</g>
		</g>
	</g>
	<g>
		<line class="st11" x1="200" y1="1.2" x2="200" y2="398.8"/>
	</g>
	<g>
		<line class="st11" x1="398.8" y1="200" x2="1.2" y2="200"/>
	</g>
</g>
</svg>
