<?xml version="1.0" encoding="utf-8"?>
<!-- Generator: Adobe Illustrator 21.0.0, SVG Export Plug-In . SVG Version: 6.00 Build 0)  -->
<svg version="1.1" id="Layer_1" xmlns="http://www.w3.org/2000/svg" xmlns:xlink="http://www.w3.org/1999/xlink" x="0px" y="0px"
	 viewBox="0 0 400 400" style="enable-background:new 0 0 400 400;" xml:space="preserve">
<style type="text/css">
	.st0{opacity:0.45;fill:url(#SVGID_1_);}
	.st1{opacity:0.45;fill:url(#SVGID_2_);}
	.st2{opacity:0.45;fill:url(#SVGID_3_);}
	.st3{clip-path:url(#SVGID_5_);fill:url(#SVGID_6_);}
	.st4{clip-path:url(#SVGID_5_);fill:url(#SVGID_7_);}
	.st5{clip-path:url(#SVGID_5_);fill:url(#SVGID_8_);}
	.st6{fill:none;stroke:#FFA744;stroke-width:6.5936;stroke-miterlimit:10;}
</style>
<g>
	<linearGradient id="SVGID_1_" gradientUnits="userSpaceOnUse" x1="106.4651" y1="100.007" x2="293.5348" y2="100.007">
		<stop  offset="0" style="stop-color:#9452FF"/>
		<stop  offset="1" style="stop-color:#491E8C"/>
	</linearGradient>
	<polygon class="st0" points="200,6.5 106.5,193.5 293.5,193.5 	"/>
	<linearGradient id="SVGID_2_" gradientUnits="userSpaceOnUse" x1="203.986" y1="297.5209" x2="396" y2="297.5209">
		<stop  offset="0" style="stop-color:#9452FF"/>
		<stop  offset="1" style="stop-color:#491E8C"/>
	</linearGradient>
	<rect x="204" y="201.5" class="st1" width="192" height="192"/>
	<linearGradient id="SVGID_3_" gradientUnits="userSpaceOnUse" x1="4" y1="297.5209" x2="196.014" y2="297.5209">
		<stop  offset="0" style="stop-color:#9452FF"/>
		<stop  offset="1" style="stop-color:#491E8C"/>
	</linearGradient>
	<path class="st2" d="M100,201.5L100,201.5c-52.9,0-96,43.1-96,96c0,52.9,43.1,96,96,96c52.9,0,96-43.1,96-96
		C196,244.6,152.9,201.5,100,201.5z"/>
	<g>
		<defs>
			<rect id="SVGID_4_" x="100" y="97.5" width="200" height="200"/>
		</defs>
		<clipPath id="SVGID_5_">
			<use xlink:href="#SVGID_4_"  style="overflow:visible;"/>
		</clipPath>
		<linearGradient id="SVGID_6_" gradientUnits="userSpaceOnUse" x1="106.4651" y1="100.007" x2="293.5348" y2="100.007">
			<stop  offset="0" style="stop-color:#9452FF"/>
			<stop  offset="1" style="stop-color:#491E8C"/>
		</linearGradient>
		<polygon class="st3" points="200,6.5 106.5,193.5 293.5,193.5 		"/>
		<linearGradient id="SVGID_7_" gradientUnits="userSpaceOnUse" x1="203.986" y1="297.5209" x2="396" y2="297.5209">
			<stop  offset="0" style="stop-color:#9452FF"/>
			<stop  offset="1" style="stop-color:#491E8C"/>
		</linearGradient>
		<rect x="204" y="201.5" class="st4" width="192" height="192"/>
		<linearGradient id="SVGID_8_" gradientUnits="userSpaceOnUse" x1="4" y1="297.5209" x2="196.014" y2="297.5209">
			<stop  offset="0" style="stop-color:#9452FF"/>
			<stop  offset="1" style="stop-color:#491E8C"/>
		</linearGradient>
		<path class="st5" d="M100,201.5L100,201.5c-52.9,0-96,43.1-96,96c0,52.9,43.1,96,96,96c52.9,0,96-43.1,96-96
			C196,244.6,152.9,201.5,100,201.5z"/>
	</g>
	<rect x="100" y="97.5" class="st6" width="200" height="200"/>
</g>
</svg>
