<?xml version="1.0" encoding="utf-8"?>
<!-- Generator: Adobe Illustrator 21.0.0, SVG Export Plug-In . SVG Version: 6.00 Build 0)  -->
<svg version="1.1" id="Layer_1" xmlns="http://www.w3.org/2000/svg" xmlns:xlink="http://www.w3.org/1999/xlink" x="0px" y="0px"
	 viewBox="0 0 400 400" style="enable-background:new 0 0 400 400;" xml:space="preserve">
<style type="text/css">
	.st0{opacity:0.45;fill:url(#SVGID_1_);}
	.st1{opacity:0.45;fill:url(#SVGID_2_);}
	.st2{opacity:0.45;fill:url(#SVGID_3_);}
	.st3{opacity:0.45;fill:url(#SVGID_4_);}
	.st4{opacity:0.45;fill:url(#SVGID_5_);}
	.st5{opacity:0.45;fill:url(#SVGID_6_);}
	.st6{fill:none;stroke:#FFA744;stroke-width:10;stroke-miterlimit:10;}
	.st7{fill:url(#SVGID_7_);}
	.st8{fill:url(#SVGID_8_);}
	.st9{fill:url(#SVGID_9_);}
	.st10{fill:url(#SVGID_10_);}
	.st11{fill:url(#SVGID_11_);}
	.st12{fill:url(#SVGID_12_);}
</style>
<g>
	<linearGradient id="SVGID_1_" gradientUnits="userSpaceOnUse" x1="125" y1="199.7791" x2="275" y2="199.7791">
		<stop  offset="0" style="stop-color:#9452FF"/>
		<stop  offset="1" style="stop-color:#491E8C"/>
	</linearGradient>
	<path class="st0" d="M265,274.8H135c-5.5,0-10-4.5-10-10v-130c0-5.5,4.5-10,10-10h130c5.5,0,10,4.5,10,10v130
		C275,270.3,270.5,274.8,265,274.8z"/>
	<linearGradient id="SVGID_2_" gradientUnits="userSpaceOnUse" x1="12.3809" y1="349.7791" x2="87.3809" y2="349.7791">
		<stop  offset="0" style="stop-color:#9452FF"/>
		<stop  offset="1" style="stop-color:#491E8C"/>
	</linearGradient>
	<path class="st1" d="M77.5,387.3H22.3c-5.5,0-9.9-4.4-9.9-9.9v-55.2c0-5.5,4.4-9.9,9.9-9.9h55.2c5.5,0,9.9,4.4,9.9,9.9v55.2
		C87.4,382.8,82.9,387.3,77.5,387.3z"/>
	<linearGradient id="SVGID_3_" gradientUnits="userSpaceOnUse" x1="299.5582" y1="350" x2="400" y2="350">
		<stop  offset="0" style="stop-color:#9452FF"/>
		<stop  offset="1" style="stop-color:#491E8C"/>
	</linearGradient>
	<path class="st2" d="M390,400.2h-80.4c-5.5,0-10-4.5-10-10v-80.4c0-5.5,4.5-10,10-10H390c5.5,0,10,4.5,10,10v80.4
		C400,395.7,395.5,400.2,390,400.2z"/>
	<linearGradient id="SVGID_4_" gradientUnits="userSpaceOnUse" x1="0" y1="49.7791" x2="100" y2="49.7791">
		<stop  offset="0" style="stop-color:#9452FF"/>
		<stop  offset="1" style="stop-color:#491E8C"/>
	</linearGradient>
	<path class="st3" d="M90,99.8H10c-5.5,0-10-4.5-10-10v-80c0-5.5,4.5-10,10-10h80c5.5,0,10,4.5,10,10v80C100,95.3,95.5,99.8,90,99.8
		z"/>
	<linearGradient id="SVGID_5_" gradientUnits="userSpaceOnUse" x1="312.5" y1="124.7791" x2="387.5" y2="124.7791">
		<stop  offset="0" style="stop-color:#9452FF"/>
		<stop  offset="1" style="stop-color:#491E8C"/>
	</linearGradient>
	<path class="st4" d="M380,162.3h-60c-4.1,0-7.5-3.4-7.5-7.5v-60c0-4.1,3.4-7.5,7.5-7.5h60c4.1,0,7.5,3.4,7.5,7.5v60
		C387.5,158.9,384.1,162.3,380,162.3z"/>
	<linearGradient id="SVGID_6_" gradientUnits="userSpaceOnUse" x1="105.1814" y1="349.7791" x2="180.1815" y2="349.7791">
		<stop  offset="0" style="stop-color:#9452FF"/>
		<stop  offset="1" style="stop-color:#491E8C"/>
	</linearGradient>
	<path class="st5" d="M170.3,387.3h-55.2c-5.5,0-9.9-4.4-9.9-9.9v-55.2c0-5.5,4.4-9.9,9.9-9.9h55.2c5.5,0,9.9,4.4,9.9,9.9v55.2
		C180.2,382.8,175.7,387.3,170.3,387.3z"/>
	<line class="st6" x1="349.8" y1="350" x2="200" y2="350"/>
	<polyline class="st6" points="200,199.8 200,350 49.9,350 	"/>
	<polyline class="st6" points="200,199.8 350,199.8 350,124.8 	"/>
	<polyline class="st6" points="200,199.8 200,49.8 50,49.8 	"/>
	<linearGradient id="SVGID_7_" gradientUnits="userSpaceOnUse" x1="25" y1="49.7791" x2="75" y2="49.7791">
		<stop  offset="0" style="stop-color:#9452FF"/>
		<stop  offset="1" style="stop-color:#491E8C"/>
	</linearGradient>
	<path class="st7" d="M70,74.8H30c-2.8,0-5-2.2-5-5v-40c0-2.8,2.2-5,5-5h40c2.8,0,5,2.2,5,5v40C75,72.5,72.8,74.8,70,74.8z"/>
	<linearGradient id="SVGID_8_" gradientUnits="userSpaceOnUse" x1="162.5" y1="199.7791" x2="237.5" y2="199.7791">
		<stop  offset="0" style="stop-color:#9452FF"/>
		<stop  offset="1" style="stop-color:#491E8C"/>
	</linearGradient>
	<path class="st8" d="M232.5,237.3h-65c-2.8,0-5-2.2-5-5v-65c0-2.8,2.2-5,5-5h65c2.8,0,5,2.2,5,5v65
		C237.5,235,235.3,237.3,232.5,237.3z"/>
	<linearGradient id="SVGID_9_" gradientUnits="userSpaceOnUse" x1="331.25" y1="124.7791" x2="368.75" y2="124.7791">
		<stop  offset="0" style="stop-color:#9452FF"/>
		<stop  offset="1" style="stop-color:#491E8C"/>
	</linearGradient>
	<path class="st9" d="M365,143.5h-30c-2.1,0-3.8-1.7-3.8-3.8v-30c0-2.1,1.7-3.8,3.8-3.8h30c2.1,0,3.8,1.7,3.8,3.8v30
		C368.8,141.9,367.1,143.5,365,143.5z"/>
	<linearGradient id="SVGID_10_" gradientUnits="userSpaceOnUse" x1="324.7791" y1="350" x2="374.7791" y2="350">
		<stop  offset="0" style="stop-color:#9452FF"/>
		<stop  offset="1" style="stop-color:#491E8C"/>
	</linearGradient>
	<path class="st10" d="M369.8,375h-40c-2.7,0-5-2.2-5-5v-40c0-2.7,2.2-5,5-5h40c2.7,0,5,2.2,5,5v40C374.8,372.8,372.6,375,369.8,375
		z"/>
	<linearGradient id="SVGID_11_" gradientUnits="userSpaceOnUse" x1="123.9314" y1="349.7791" x2="161.4315" y2="349.7791">
		<stop  offset="0" style="stop-color:#9452FF"/>
		<stop  offset="1" style="stop-color:#491E8C"/>
	</linearGradient>
	<path class="st11" d="M156.5,368.5h-27.6c-2.7,0-5-2.2-5-5V336c0-2.7,2.2-5,5-5h27.6c2.7,0,5,2.2,5,5v27.6
		C161.4,366.3,159.2,368.5,156.5,368.5z"/>
	<linearGradient id="SVGID_12_" gradientUnits="userSpaceOnUse" x1="31.1309" y1="349.7791" x2="68.6309" y2="349.7791">
		<stop  offset="0" style="stop-color:#9452FF"/>
		<stop  offset="1" style="stop-color:#491E8C"/>
	</linearGradient>
	<path class="st12" d="M63.7,368.5H36.1c-2.7,0-5-2.2-5-5V336c0-2.7,2.2-5,5-5h27.6c2.7,0,5,2.2,5,5v27.6
		C68.6,366.3,66.4,368.5,63.7,368.5z"/>
</g>
</svg>
