<?xml version="1.0" encoding="utf-8"?>
<!-- Generator: Adobe Illustrator 21.0.0, SVG Export Plug-In . SVG Version: 6.00 Build 0)  -->
<svg version="1.1" id="Layer_1" xmlns="http://www.w3.org/2000/svg" xmlns:xlink="http://www.w3.org/1999/xlink" x="0px" y="0px"
	 viewBox="0 0 400 400" style="enable-background:new 0 0 400 400;" xml:space="preserve">
<style type="text/css">
	.st0{fill:url(#SVGID_1_);}
	.st1{fill:url(#SVGID_2_);}
	.st2{enable-background:new    ;}
	.st3{fill:#FFFFFF;}
	.st4{fill:#491E8C;}
	.st5{opacity:0.4;fill:#491E8C;}
</style>
<linearGradient id="SVGID_1_" gradientUnits="userSpaceOnUse" x1="-2.172172e-05" y1="200" x2="400" y2="200">
	<stop  offset="0" style="stop-color:#9452FF"/>
	<stop  offset="1" style="stop-color:#491E8C"/>
</linearGradient>
<circle class="st0" cx="200" cy="200" r="200"/>
<g>
	<linearGradient id="SVGID_2_" gradientUnits="userSpaceOnUse" x1="371.8076" y1="280.1152" x2="28.1924" y2="119.8848">
		<stop  offset="0" style="stop-color:#251440"/>
		<stop  offset="1" style="stop-color:#491E8C"/>
	</linearGradient>
	<path class="st1" d="M200,38.8c21.7,0,42.8,4.3,62.7,12.7c19.2,8.1,36.4,19.7,51.2,34.5c14.8,14.8,26.4,32,34.5,51.2
		c8.4,19.9,12.7,41,12.7,62.7s-4.3,42.9-12.7,62.7c-8.1,19.2-19.7,36.4-34.5,51.2s-32,26.4-51.2,34.5c-19.9,8.4-40.9,12.7-62.7,12.7
		s-42.8-4.3-62.7-12.7c-19.2-8.1-36.4-19.7-51.2-34.5s-26.4-32-34.5-51.2c-8.4-19.9-12.7-41-12.7-62.7s4.3-42.9,12.7-62.7
		c8.1-19.2,19.7-36.4,34.5-51.2c14.8-14.8,32-26.4,51.2-34.5C157.2,43.1,178.3,38.8,200,38.8 M200,10.4
		C95.3,10.4,10.5,95.3,10.5,200S95.3,389.6,200,389.6S389.5,304.7,389.5,200S304.7,10.4,200,10.4L200,10.4z"/>
	<g class="st2">
		<ellipse class="st3" cx="200" cy="200" rx="161.1" ry="161.2"/>
	</g>
	<g id="Brandmark_1_">
		<ellipse id="Core-1_1_" class="st4" cx="200" cy="148.1" rx="18.6" ry="18.7"/>
		<ellipse id="Core-2_1_" class="st4" cx="145.5" cy="187.7" rx="18.6" ry="18.7"/>
		<ellipse id="Core-3_1_" class="st4" cx="254.5" cy="187.7" rx="18.6" ry="18.7"/>
		<ellipse id="Core-4_1_" class="st4" cx="166.3" cy="251.9" rx="18.6" ry="18.7"/>
		<ellipse id="Core-5_1_" class="st4" cx="233.7" cy="251.9" rx="18.6" ry="18.7"/>
		<path id="Center_1_" class="st5" d="M210.1,251.9c0-6.3,2.5-12.3,6.9-16.7c4.5-4.5,10.4-6.9,16.7-6.9c5.9,0,11.5,2.2,15.8,6.1
			c4-6.9,6.7-14.7,7.5-23.1c-0.8,0.1-1.7,0.1-2.5,0.1c-6.3,0-12.2-2.5-16.7-6.9s-6.9-10.4-6.9-16.7c0-6.3,2.5-12.3,6.9-16.7
			c1.5-1.5,3.1-2.8,4.9-3.8c-5.4-6-12.1-10.9-19.6-14.3c-0.9,4.5-3.1,8.6-6.4,11.9c-4.5,4.5-10.4,6.9-16.7,6.9
			c-6.3,0-12.2-2.5-16.7-6.9c-3.3-3.3-5.5-7.4-6.4-11.9c-7.5,3.3-14.2,8.2-19.6,14.3c1.8,1,3.4,2.3,4.9,3.8
			c4.5,4.5,6.9,10.4,6.9,16.7c0,6.3-2.5,12.3-6.9,16.7s-10.4,6.9-16.7,6.9c-0.8,0-1.7,0-2.5-0.1c0.8,8.4,3.5,16.2,7.5,23.1
			c4.4-3.9,9.9-6.1,15.8-6.1c6.3,0,12.2,2.5,16.7,6.9c4.5,4.5,6.9,10.4,6.9,16.7c0,3.4-0.7,6.7-2,9.7c3.9,0.8,8,1.3,12.1,1.3
			c4.2,0,8.2-0.4,12.1-1.3C210.8,258.6,210.1,255.3,210.1,251.9z"/>
		<path id="Circles_1_" class="st5" d="M319.3,160.4c-3.5-8.4-8.6-15.9-15.1-22.4c-6.5-6.5-14-11.5-22.3-15.1
			c-5.7-2.4-11.7-4.1-17.8-4.9c-3.5-7.3-8.1-13.9-13.9-19.7c-6.5-6.5-14-11.5-22.3-15.1c-8.7-3.7-17.9-5.5-27.4-5.5
			c-9.5,0-18.7,1.9-27.4,5.5c-8.4,3.5-15.9,8.6-22.3,15.1c-5.7,5.7-10.3,12.3-13.8,19.5c-6.5,0.8-12.9,2.5-18.9,5
			c-8.4,3.5-15.9,8.6-22.3,15.1c-6.5,6.5-11.5,14-15.1,22.4c-3.7,8.7-5.5,17.9-5.5,27.4c0,9.5,1.9,18.7,5.5,27.4
			c3.5,8.4,8.6,15.9,15.1,22.4c0.4,0.4,0.9,0.9,1.5,1.4c-0.8,4.3-1.2,8.6-1.2,13c0,9.5,1.9,18.7,5.5,27.4
			c3.5,8.4,8.6,15.9,15.1,22.4c6.5,6.5,14,11.5,22.3,15.1c8.7,3.7,17.9,5.5,27.4,5.5c9.5,0,18.7-1.9,27.4-5.5
			c2.1-0.9,4.3-1.9,6.3-3.1c2.1,1.1,4.2,2.2,6.3,3.1c8.7,3.7,17.9,5.5,27.4,5.5c9.5,0,18.7-1.9,27.4-5.5c8.4-3.5,15.9-8.6,22.3-15.1
			c6.5-6.5,11.5-14,15.1-22.4c3.7-8.7,5.5-17.9,5.5-27.4c0-4.4-0.4-8.8-1.2-13c0.5-0.5,1-1,1.5-1.4c6.5-6.5,11.5-14,15.1-22.4
			c3.7-8.7,5.5-17.9,5.5-27.4C324.8,178.2,323,169,319.3,160.4z M314,212.9c-3,7.2-7.3,13.7-12.8,19.4c-0.8-2.6-1.7-5.2-2.8-7.8
			c-3.5-8.4-8.6-15.9-15.1-22.4c-2.1-2.1-4.4-4.1-6.8-6c-0.7,1.8-1.6,3.6-2.8,5.2c1.9,1.5,3.7,3.2,5.5,4.9
			c5.9,5.9,10.6,12.8,13.8,20.5c1.4,3.3,2.5,6.6,3.3,10c-5,4.3-10.7,7.8-16.8,10.4c-7.1,3-14.6,4.7-22.3,5c0,2-0.3,3.9-0.8,5.8
			c8.8-0.2,17.3-2.1,25.4-5.5c5.6-2.4,10.9-5.5,15.7-9.2c0.4,2.8,0.6,5.7,0.6,8.6c0,8.7-1.7,17.2-5.1,25.1
			c-3.2,7.7-7.9,14.6-13.8,20.5c-5.9,5.9-12.8,10.6-20.5,13.8c-7.9,3.4-16.4,5.1-25.1,5.1c-8.7,0-17.2-1.7-25.1-5.1
			c-0.9-0.4-1.9-0.8-2.8-1.3c3.7-2.5,7.1-5.3,10.2-8.5c6.5-6.5,11.5-14,15.1-22.4c0.5-1.2,1-2.5,1.5-3.8c-2-0.1-3.9-0.4-5.8-1
			c-0.3,0.9-0.7,1.7-1,2.5c-3.2,7.7-7.9,14.6-13.8,20.5c-3.6,3.6-7.6,6.8-11.9,9.4c-4.3-2.6-8.3-5.8-11.9-9.4
			c-5.9-5.9-10.6-12.8-13.8-20.5c-0.3-0.8-0.7-1.6-1-2.5c-1.9,0.6-3.8,0.9-5.8,1c0.5,1.3,0.9,2.5,1.5,3.8
			c3.5,8.4,8.6,15.9,15.1,22.4c3.1,3.1,6.6,6,10.2,8.5c-0.9,0.4-1.9,0.9-2.8,1.3c-7.9,3.4-16.4,5.1-25.1,5.1
			c-8.7,0-17.2-1.7-25.1-5.1c-7.7-3.3-14.6-7.9-20.5-13.8c-5.9-5.9-10.6-12.8-13.8-20.5c-3.4-8-5.1-16.4-5.1-25.1
			c0-2.9,0.2-5.8,0.6-8.6c4.8,3.8,10.1,6.9,15.7,9.2c8.1,3.4,16.6,5.3,25.4,5.5c-0.5-1.9-0.8-3.8-0.8-5.8c-7.7-0.3-15.2-2-22.3-5
			c-6.1-2.6-11.8-6.1-16.8-10.4c0.8-3.4,1.9-6.8,3.3-10c3.2-7.7,7.9-14.6,13.8-20.5c1.7-1.7,3.5-3.3,5.5-4.9
			c-1.1-1.6-2.1-3.4-2.8-5.2c-2.4,1.8-4.7,3.8-6.8,6c-6.5,6.5-11.5,14-15.1,22.4c-1.1,2.5-2,5.1-2.8,7.8
			c-5.4-5.7-9.7-12.2-12.8-19.4c-3.4-8-5.1-16.4-5.1-25.1c0-8.7,1.7-17.2,5.1-25.1c3.2-7.7,7.9-14.6,13.8-20.5
			c5.9-5.9,12.8-10.6,20.5-13.8c4.5-1.9,9.2-3.3,14.1-4.1c-2.8,7.7-4.2,15.7-4.2,24c0,6.7,0.9,13.2,2.7,19.5c1.7-1,3.5-1.9,5.3-2.5
			c-1.5-5.5-2.3-11.3-2.3-17.1c0-8.6,1.7-16.9,4.9-24.8c1.5-0.1,3-0.2,4.5-0.2c8.7,0,17.2,1.7,25.1,5.1c3.7,1.6,7.2,3.5,10.5,5.7
			c0.7-0.9,1.4-1.7,2.2-2.5c0.6-0.6,1.2-1.2,1.9-1.7c-3.9-2.7-8-4.9-12.3-6.8c-8.7-3.7-17.9-5.5-27.4-5.5c-0.6,0-1.1,0-1.7,0
			c3-5.5,6.7-10.5,11.2-15c5.9-5.9,12.8-10.6,20.5-13.8c7.9-3.4,16.4-5.1,25.1-5.1c8.7,0,17.2,1.7,25.1,5.1
			c7.7,3.3,14.6,7.9,20.5,13.8c4.5,4.5,8.2,9.5,11.2,15c-0.9,0-1.8-0.1-2.8-0.1c-9.5,0-18.7,1.9-27.4,5.5c-4.3,1.8-8.5,4.1-12.3,6.8
			c0.7,0.5,1.3,1.1,1.9,1.7c0.8,0.8,1.5,1.7,2.2,2.5c3.3-2.2,6.8-4.1,10.5-5.7c7.9-3.4,16.4-5.1,25.1-5.1c1.9,0,3.7,0.1,5.6,0.2
			c3.2,7.8,4.9,16.1,4.9,24.7c0,5.9-0.8,11.8-2.4,17.4c1.8,0.7,3.6,1.6,5.2,2.7c1.9-6.5,2.9-13.2,2.9-20.1c0-8.2-1.4-16.2-4.1-23.8
			c4.4,0.8,8.8,2.2,13,3.9c7.7,3.3,14.6,7.9,20.5,13.8c5.9,5.9,10.6,12.8,13.8,20.5c3.4,8,5.1,16.4,5.1,25.1
			C319,196.5,317.3,204.9,314,212.9z"/>
	</g>
</g>
</svg>
