<?xml version="1.0" encoding="utf-8"?>
<!-- Generator: Adobe Illustrator 21.0.0, SVG Export Plug-In . SVG Version: 6.00 Build 0)  -->
<svg version="1.1" id="Layer_1" xmlns="http://www.w3.org/2000/svg" xmlns:xlink="http://www.w3.org/1999/xlink" x="0px" y="0px"
	 viewBox="0 0 400 400" style="enable-background:new 0 0 400 400;" xml:space="preserve">
<style type="text/css">
	.st0{fill:none;stroke:#D6D0E7;stroke-width:10;stroke-miterlimit:10;}
	.st1{opacity:0.45;}
	.st2{fill:#D6D0E7;}
	.st3{opacity:0.45;fill:url(#SVGID_1_);enable-background:new    ;}
	.st4{opacity:0.45;fill:url(#SVGID_2_);enable-background:new    ;}
	.st5{opacity:0.45;fill:url(#SVGID_3_);enable-background:new    ;}
	.st6{opacity:0.45;fill:url(#SVGID_4_);enable-background:new    ;}
	.st7{fill:none;stroke:#FFA744;stroke-width:10;stroke-miterlimit:10;}
	.st8{fill:url(#SVGID_5_);}
	.st9{fill:url(#SVGID_6_);}
	.st10{fill:url(#SVGID_7_);}
	.st11{fill:url(#SVGID_8_);}
</style>
<g>
	<line class="st0" x1="50" y1="50" x2="50" y2="200"/>
	<g>
		<g class="st1">
			<path class="st2" d="M350,400L350,400c27.6,0,50-22.4,50-50l0,0c0-27.6-22.4-50-50-50l0,0c-27.6,0-50,22.4-50,50l0,0
				C300,377.6,322.4,400,350,400z"/>
		</g>
		<g class="st1">
			<path class="st2" d="M200,400L200,400c27.6,0,50-22.4,50-50l0,0c0-27.6-22.4-50-50-50l0,0c-27.6,0-50,22.4-50,50l0,0
				C150,377.6,172.4,400,200,400z"/>
		</g>
		<g class="st1">
			<path class="st2" d="M350,250L350,250c27.6,0,50-22.4,50-50l0,0c0-27.6-22.4-50-50-50l0,0c-27.6,0-50,22.4-50,50l0,0
				C300,227.6,322.4,250,350,250z"/>
		</g>
		<g class="st1">
			<path class="st2" d="M200,100L200,100c27.6,0,50-22.4,50-50l0,0c0-27.6-22.4-50-50-50l0,0c-27.6,0-50,22.4-50,50l0,0
				C150,77.6,172.4,100,200,100z"/>
		</g>
		<g class="st1">
			<path class="st2" d="M50,100L50,100c27.6,0,50-22.4,50-50l0,0c0-27.6-22.4-50-50-50l0,0C22.4,0,0,22.4,0,50l0,0
				C0,77.6,22.4,100,50,100z"/>
		</g>
		<line class="st0" x1="200" y1="200" x2="200" y2="50"/>
		<rect x="200" y="200" class="st0" width="150" height="150"/>
		<g>
			<path class="st2" d="M350,375L350,375c13.8,0,25-11.2,25-25l0,0c0-13.8-11.2-25-25-25l0,0c-13.8,0-25,11.2-25,25l0,0
				C325,363.8,336.2,375,350,375z"/>
		</g>
		<g>
			<path class="st2" d="M200,375L200,375c13.8,0,25-11.2,25-25l0,0c0-13.8-11.2-25-25-25l0,0c-13.8,0-25,11.2-25,25l0,0
				C175,363.8,186.2,375,200,375z"/>
		</g>
		<g>
			<path class="st2" d="M350,225L350,225c13.8,0,25-11.2,25-25l0,0c0-13.8-11.2-25-25-25l0,0c-13.8,0-25,11.2-25,25l0,0
				C325,213.8,336.2,225,350,225z"/>
		</g>
		<g>
			<path class="st2" d="M200,75L200,75c13.8,0,25-11.2,25-25l0,0c0-13.8-11.2-25-25-25l0,0c-13.8,0-25,11.2-25,25l0,0
				C175,63.8,186.2,75,200,75z"/>
		</g>
		<g>
			<path class="st2" d="M50,75L50,75c13.8,0,25-11.2,25-25l0,0c0-13.8-11.2-25-25-25l0,0c-13.8,0-25,11.2-25,25l0,0
				C25,63.8,36.2,75,50,75z"/>
		</g>
		
			<linearGradient id="SVGID_1_" gradientUnits="userSpaceOnUse" x1="298.014" y1="50" x2="398.014" y2="50" gradientTransform="matrix(-1 0 0 -1 398.014 400)">
			<stop  offset="0" style="stop-color:#491E8C"/>
			<stop  offset="1" style="stop-color:#9452FF"/>
		</linearGradient>
		<path class="st3" d="M50,400L50,400c27.6,0,50-22.4,50-50l0,0c0-27.6-22.4-50-50-50l0,0c-27.6,0-50,22.4-50,50l0,0
			C0,377.6,22.4,400,50,400z"/>
		
			<linearGradient id="SVGID_2_" gradientUnits="userSpaceOnUse" x1="148.014" y1="200" x2="248.014" y2="200" gradientTransform="matrix(-1 0 0 -1 398.014 400)">
			<stop  offset="0" style="stop-color:#491E8C"/>
			<stop  offset="1" style="stop-color:#9452FF"/>
		</linearGradient>
		<path class="st4" d="M200,250L200,250c27.6,0,50-22.4,50-50l0,0c0-27.6-22.4-50-50-50l0,0c-27.6,0-50,22.4-50,50l0,0
			C150,227.6,172.4,250,200,250z"/>
		
			<linearGradient id="SVGID_3_" gradientUnits="userSpaceOnUse" x1="298.014" y1="200" x2="398.014" y2="200" gradientTransform="matrix(-1 0 0 -1 398.014 400)">
			<stop  offset="0" style="stop-color:#491E8C"/>
			<stop  offset="1" style="stop-color:#9452FF"/>
		</linearGradient>
		<path class="st5" d="M50,250L50,250c27.6,0,50-22.4,50-50l0,0c0-27.6-22.4-50-50-50l0,0c-27.6,0-50,22.4-50,50l0,0
			C0,227.6,22.4,250,50,250z"/>
		
			<linearGradient id="SVGID_4_" gradientUnits="userSpaceOnUse" x1="-1.986" y1="350" x2="98.014" y2="350" gradientTransform="matrix(-1 0 0 -1 398.014 400)">
			<stop  offset="0" style="stop-color:#491E8C"/>
			<stop  offset="1" style="stop-color:#9452FF"/>
		</linearGradient>
		<path class="st6" d="M350,100L350,100c27.6,0,50-22.4,50-50l0,0c0-27.6-22.4-50-50-50l0,0c-27.6,0-50,22.4-50,50l0,0
			C300,77.6,322.4,100,350,100z"/>
		<polyline class="st7" points="350,50 200,200 50,200 50,350 		"/>
		
			<linearGradient id="SVGID_5_" gradientUnits="userSpaceOnUse" x1="323.014" y1="50" x2="373.014" y2="50" gradientTransform="matrix(-1 0 0 -1 398.014 400)">
			<stop  offset="0" style="stop-color:#491E8C"/>
			<stop  offset="1" style="stop-color:#9452FF"/>
		</linearGradient>
		<path class="st8" d="M50,375L50,375c13.8,0,25-11.2,25-25l0,0c0-13.8-11.2-25-25-25l0,0c-13.8,0-25,11.2-25,25l0,0
			C25,363.8,36.2,375,50,375z"/>
		
			<linearGradient id="SVGID_6_" gradientUnits="userSpaceOnUse" x1="173.014" y1="200" x2="223.014" y2="200" gradientTransform="matrix(-1 0 0 -1 398.014 400)">
			<stop  offset="0" style="stop-color:#491E8C"/>
			<stop  offset="1" style="stop-color:#9452FF"/>
		</linearGradient>
		<path class="st9" d="M200,225L200,225c13.8,0,25-11.2,25-25l0,0c0-13.8-11.2-25-25-25l0,0c-13.8,0-25,11.2-25,25l0,0
			C175,213.8,186.2,225,200,225z"/>
		
			<linearGradient id="SVGID_7_" gradientUnits="userSpaceOnUse" x1="323.014" y1="200" x2="373.014" y2="200" gradientTransform="matrix(-1 0 0 -1 398.014 400)">
			<stop  offset="0" style="stop-color:#491E8C"/>
			<stop  offset="1" style="stop-color:#9452FF"/>
		</linearGradient>
		<path class="st10" d="M50,225L50,225c13.8,0,25-11.2,25-25l0,0c0-13.8-11.2-25-25-25l0,0c-13.8,0-25,11.2-25,25l0,0
			C25,213.8,36.2,225,50,225z"/>
		
			<linearGradient id="SVGID_8_" gradientUnits="userSpaceOnUse" x1="23.014" y1="350" x2="73.014" y2="350" gradientTransform="matrix(-1 0 0 -1 398.014 400)">
			<stop  offset="0" style="stop-color:#491E8C"/>
			<stop  offset="1" style="stop-color:#9452FF"/>
		</linearGradient>
		<path class="st11" d="M350,75L350,75c13.8,0,25-11.2,25-25l0,0c0-13.8-11.2-25-25-25l0,0c-13.8,0-25,11.2-25,25l0,0
			C325,63.8,336.2,75,350,75z"/>
	</g>
</g>
</svg>
